P2
# Created by IrfanView
100 100
255
214 215 217 217 216 216 216 217 216 214 214 215 216 217 217 214 214 
216 218 221 220 219 220 221 220 222 222 221 220 219 221 221 220 
221 222 221 219 219 219 216 217 215 214 215 218 217 218 218 219 
218 219 218 220 219 218 216 219 219 220 219 222 221 219 222 219 
220 220 221 221 221 220 219 221 221 220 220 220 220 219 221 222 
218 220 219 220 222 222 222 221 222 222 221 221 221 221 222 220 
220 221 221 215 214 216 215 217 216 217 216 219 214 214 216 217 217 218 217 217 
216 218 219 220 220 219 220 221 221 220 219 220 220 221 220 220 
220 220 218 218 220 220 217 217 217 217 217 218 217 216 218 219 
218 220 219 221 221 220 220 219 220 218 220 219 218 220 218 220 
221 222 222 221 220 221 219 220 221 220 220 221 220 221 220 220 
220 221 221 221 221 223 223 223 222 221 223 222 221 221 220 221 
219 221 221 217 217 215 217 215 216 218 217 215 216 216 217 217 217 217 217 218 
218 221 221 219 219 221 221 221 220 222 222 221 220 220 221 219 
220 220 219 219 220 222 218 218 218 219 219 217 217 216 219 219 
220 220 220 219 219 220 221 221 220 222 219 220 219 221 221 219 
218 220 221 221 221 221 222 220 221 221 221 219 220 221 223 223 
221 223 221 221 224 222 223 222 222 222 223 223 223 221 222 223 
221 221 221 217 216 214 215 216 217 217 216 217 218 217 218 217 217 217 217 218 
220 219 219 220 222 222 223 221 222 221 218 221 220 219 220 221 
219 220 220 219 223 223 221 219 217 218 218 219 219 218 218 220 
220 219 220 220 220 221 219 220 221 221 221 221 221 220 220 221 
221 221 221 223 220 221 220 221 220 223 223 223 221 223 222 223 
222 221 222 222 222 224 221 223 224 225 225 222 221 223 224 222 
222 224 222 215 215 217 217 218 217 218 217 218 218 217 218 217 217 218 215 218 
219 219 221 222 220 220 220 220 220 220 221 222 220 220 219 220 
220 219 219 219 221 222 221 219 219 218 218 218 217 218 219 220 
221 222 221 217 220 221 221 222 221 219 220 220 221 221 222 222 
223 223 223 224 224 220 220 221 223 222 224 223 224 223 223 223 
222 222 223 223 225 223 224 224 224 225 222 223 223 222 222 223 
224 222 223 218 218 216 216 216 217 219 218 220 218 218 218 217 217 218 218 215 
218 217 219 220 221 220 219 220 220 221 220 222 219 220 221 220 
219 219 221 221 219 218 219 219 219 219 221 222 220 222 221 220 
221 222 223 220 220 221 223 221 222 222 221 220 221 222 222 222 
224 223 222 222 223 222 224 224 225 225 224 223 223 223 224 222 
223 222 220 223 223 222 224 226 224 225 225 222 222 223 224 224 
223 223 225 217 216 216 215 216 218 217 218 217 216 218 217 218 219 218 216 215 
217 218 219 219 220 220 219 219 220 219 222 219 220 220 218 223 
218 219 219 219 218 220 221 223 219 222 223 218 216 204 197 200 
194 194 195 200 201 207 217 221 222 225 226 223 224 225 222 221 
223 223 223 224 224 225 223 223 223 223 224 224 224 224 224 225 
225 224 227 225 223 223 224 226 227 227 226 226 225 224 223 223 
224 224 222 215 217 216 217 219 217 218 218 218 219 217 217 218 215 219 218 218 
219 218 219 221 223 220 219 220 220 219 219 218 218 218 218 219 
219 220 220 223 224 219 215 211 184 170 150 159 162 166 174 187 
194 196 190 188 184 178 175 179 178 178 181 210 218 222 225 223 
222 223 224 223 224 224 224 225 223 223 225 224 225 225 225 223 
226 225 224 224 225 222 225 225 226 226 227 227 226 226 225 225 
225 224 224 217 217 216 213 214 218 218 218 217 216 219 216 215 217 217 217 218 
220 218 217 218 220 219 220 219 219 220 220 220 219 219 217 221 
220 220 219 210 187 161 172 175 199 217 228 230 230 229 230 228 
227 228 228 226 230 228 230 231 230 222 212 193 178 171 187 209 
222 228 230 229 226 225 225 224 225 227 225 227 227 226 226 226 
226 226 226 224 226 224 225 226 225 223 226 227 226 225 226 225 
226 225 226 217 217 216 216 217 220 217 217 219 219 219 218 216 216 217 218 220 
219 219 220 221 219 218 219 220 218 221 221 219 218 219 221 222 
212 186 163 153 191 217 226 225 226 227 226 224 224 225 225 222 
224 224 223 224 225 227 225 227 227 227 227 226 226 226 214 180 
170 176 209 225 229 228 225 226 226 226 227 226 228 228 227 227 
226 228 228 228 226 227 229 229 228 229 228 226 227 227 226 226 
226 229 228 218 217 217 216 217 216 216 218 218 217 220 216 217 218 218 217 217 
219 219 218 218 218 218 217 216 218 219 221 219 219 219 210 188 
170 183 214 230 229 227 224 224 226 223 225 225 222 223 225 224 
224 224 226 226 224 226 227 227 227 223 223 223 223 224 226 228 
231 216 172 168 204 233 229 228 227 227 226 227 227 227 229 229 
228 228 229 229 227 229 229 229 228 228 229 229 230 228 227 227 
229 229 229 217 218 218 219 217 216 218 218 218 218 217 217 215 217 217 218 217 
219 218 218 218 218 219 219 220 219 218 221 222 211 180 178 207 
226 227 225 226 225 224 223 224 225 224 224 224 226 224 226 226 
226 226 225 226 228 228 227 227 226 225 224 223 221 222 222 224 
228 230 232 222 178 184 230 231 228 226 226 229 229 228 230 229 
230 230 229 230 229 227 228 229 228 230 230 229 229 229 229 229 
230 230 230 220 221 216 219 219 219 217 217 218 218 217 217 218 216 216 217 218 
215 217 218 219 217 219 219 217 220 219 216 195 175 194 225 224 
224 224 225 224 225 226 223 223 225 226 226 227 225 224 225 227 
226 226 226 226 227 227 226 228 227 226 227 224 225 223 223 224 
223 224 228 229 229 186 154 214 232 231 229 230 229 228 231 229 
229 230 230 229 230 230 230 229 230 230 230 231 229 229 229 230 
229 229 228 218 220 219 217 218 219 217 219 218 217 216 217 217 215 215 216 212 
214 213 214 215 216 217 217 217 218 210 179 200 217 227 224 224 
223 225 224 225 224 222 226 225 226 226 226 225 226 227 226 226 
230 231 230 229 229 228 229 229 230 231 227 227 227 227 226 227 
226 225 225 225 228 231 215 151 178 234 232 229 229 230 231 231 
228 228 230 231 229 231 231 232 231 230 230 230 230 228 230 230 
231 232 229 222 219 219 219 219 217 218 218 219 219 217 216 215 215 216 213 213 
215 214 212 214 216 215 214 212 188 183 207 224 223 224 225 222 
224 224 226 227 227 227 224 226 226 227 228 228 229 230 229 231 
230 230 230 230 230 229 230 229 229 231 231 229 229 228 226 227 
225 227 227 227 229 228 230 231 208 173 226 230 231 230 229 231 
232 231 231 233 233 231 232 230 229 232 232 231 230 232 233 231 
232 229 229 219 220 221 220 218 217 216 218 217 218 219 217 216 216 213 213 214 
214 214 214 213 215 219 212 189 193 220 226 222 223 222 225 225 
225 224 226 226 227 227 227 227 227 224 228 230 228 231 228 232 
230 228 230 229 231 231 231 231 231 231 232 232 232 229 228 227 
227 227 227 227 227 229 228 230 232 223 182 209 233 232 231 232 
231 231 232 232 233 232 232 231 232 231 230 232 232 232 231 232 
232 234 229 220 220 221 219 221 221 220 220 220 220 217 218 215 213 215 215 214 
213 214 215 214 215 204 190 201 222 224 223 223 222 225 225 225 
226 226 223 225 226 225 228 227 225 225 228 228 228 226 229 229 
230 228 230 230 231 230 233 233 233 233 233 233 234 234 233 231 
230 228 227 230 229 229 228 230 231 230 233 196 194 233 232 232 
231 232 233 232 234 232 232 232 232 233 232 233 233 232 232 232 
232 232 232 221 221 221 221 220 221 220 220 220 220 219 218 216 218 216 217 217 
215 214 214 209 190 179 210 219 219 223 224 225 227 227 226 225 
224 224 226 226 226 227 226 227 228 228 226 229 229 232 231 232 
232 231 231 231 233 233 234 233 234 233 235 235 235 235 235 233 
233 227 228 225 231 229 229 232 232 230 234 235 208 179 231 232 
232 233 232 233 233 232 234 233 232 232 233 233 233 233 233 232 
232 232 230 221 222 223 221 221 221 222 222 221 221 219 217 215 218 217 217 214 
212 213 198 183 181 214 219 218 219 224 224 224 225 226 226 226 
227 223 227 227 226 228 227 227 227 225 225 227 226 226 230 230 
231 233 232 233 233 234 233 234 234 234 235 234 235 236 237 236 
237 236 230 231 230 232 234 232 233 231 232 229 234 213 178 230 
235 232 234 234 233 234 233 233 235 234 232 234 233 234 234 233 
232 232 233 222 224 223 222 222 221 221 222 222 223 220 218 220 220 217 216 213 
211 146 156 178 216 216 218 218 221 224 225 224 227 225 225 227 
227 226 227 227 226 228 228 228 229 226 227 228 230 230 232 233 
233 233 231 234 232 233 234 234 235 235 236 235 235 236 234 235 
237 237 238 232 231 232 233 232 233 235 233 232 233 235 217 181 
229 235 232 235 233 234 234 234 235 232 235 233 233 234 234 233 
232 234 232 224 224 224 223 224 224 225 223 225 224 220 221 218 220 217 216 208 
149 149 193 208 220 220 218 219 222 225 225 225 222 225 225 226 
228 226 223 226 228 226 229 229 228 226 227 230 231 229 231 231 
234 233 233 232 233 233 235 235 234 234 234 235 235 236 236 236 
236 234 235 236 233 233 234 234 234 234 233 231 233 234 234 225 
175 231 235 234 235 234 235 234 235 234 235 235 235 236 234 234 
234 234 233 226 226 224 224 222 223 224 225 223 222 222 222 224 222 220 220 163 
144 203 215 217 217 219 218 221 220 222 224 224 223 224 225 228 
228 228 227 228 228 228 229 231 231 229 231 230 229 230 232 232 
233 233 233 235 236 235 237 236 235 234 234 235 236 236 236 237 
235 236 236 238 235 234 235 234 234 235 235 234 234 234 231 236 
222 182 233 236 234 236 234 235 235 235 234 234 235 234 235 235 
234 234 234 225 225 225 224 224 224 224 224 224 223 224 223 221 221 223 198 142 
207 221 218 219 220 221 221 223 222 223 226 226 224 226 228 228 
227 229 227 229 229 229 230 231 231 230 231 230 230 230 231 232 
234 235 234 235 232 234 235 235 237 234 236 236 236 237 236 236 
236 235 236 239 237 233 234 235 234 235 235 235 234 236 233 233 
238 211 186 237 234 234 235 236 236 235 236 234 234 235 234 235 
235 234 235 226 225 225 227 226 226 225 224 224 225 222 224 224 222 219 163 211 
225 224 223 223 221 222 221 222 222 221 225 226 226 224 226 227 
229 228 229 230 230 229 229 231 231 231 231 232 231 233 231 233 
234 234 234 235 234 234 234 237 236 237 236 237 237 236 236 236 
237 236 238 239 236 234 234 235 234 235 235 236 235 234 233 237 
233 238 196 204 236 235 235 236 236 235 235 235 236 236 236 235 
235 234 235 227 225 224 226 225 227 228 226 226 225 224 226 222 221 194 188 231 
228 226 224 223 222 218 219 221 222 224 226 226 225 227 228 231 
230 229 228 231 230 231 231 230 231 232 230 232 233 233 232 234 
235 235 235 236 236 237 237 235 236 237 237 237 237 236 237 238 
237 236 238 238 237 235 234 235 235 235 236 236 235 235 234 235 
235 235 236 188 223 234 236 236 236 235 236 237 237 236 234 235 
235 236 236 227 227 227 226 228 228 228 228 227 223 223 226 225 215 175 229 229 
227 227 228 226 226 223 224 223 222 224 225 227 228 229 230 230 
230 230 231 231 230 230 231 232 231 233 232 232 234 234 234 235 
235 237 234 236 236 236 237 237 236 238 236 236 237 239 237 237 
237 236 239 238 238 236 235 234 235 235 235 235 236 234 234 233 
235 235 234 232 180 233 236 236 236 237 237 236 236 237 238 237 
237 237 235 230 229 229 229 229 228 227 228 230 227 227 227 225 186 218 231 229 
231 230 228 230 229 226 225 225 226 226 227 229 229 231 231 230 
231 230 231 232 232 231 231 232 233 233 233 234 234 234 233 235 
236 236 236 237 237 236 236 237 236 236 237 236 236 236 232 236 
237 237 237 239 239 237 236 237 236 236 236 235 234 236 235 235 
236 236 234 235 216 190 237 236 237 237 237 237 236 237 236 237 
237 236 237 230 229 229 230 230 231 229 231 233 232 230 227 218 199 233 233 232 
234 232 233 235 233 226 228 228 229 227 230 229 231 231 231 233 
232 232 232 233 232 232 232 233 233 233 233 233 234 234 235 234 
235 236 236 234 236 236 236 237 235 236 236 236 237 236 238 237 
237 237 236 237 240 237 236 236 236 237 235 236 236 235 236 236 
236 236 236 235 236 173 225 237 236 238 239 238 239 236 237 237 
235 236 238 229 230 231 233 232 231 232 231 233 233 232 231 200 234 238 236 233 
235 235 235 235 233 233 233 234 229 229 230 232 230 228 232 232 
233 234 233 233 233 232 233 233 233 234 233 233 235 235 234 235 
235 236 237 235 236 238 235 236 237 236 237 236 236 236 237 235 
237 237 236 237 238 237 238 237 237 236 238 238 236 237 237 236 
237 235 236 235 236 231 171 240 237 237 238 238 238 239 240 237 
238 240 237 231 233 232 230 232 233 231 231 234 234 233 212 206 238 235 235 237 
235 235 236 237 236 236 212 207 179 167 172 166 161 162 171 151 
180 220 235 234 235 233 234 234 235 235 234 236 236 236 234 234 
233 236 234 235 235 235 236 236 236 236 236 235 236 236 237 235 
238 235 236 237 236 237 237 236 236 237 236 237 236 236 237 236 
237 236 238 236 236 235 192 210 236 236 237 238 238 237 237 238 
238 238 237 232 233 234 233 233 233 235 236 236 235 233 182 234 237 236 235 236 
236 235 238 235 212 158 160 181 206 214 227 225 220 217 215 200 
175 137 152 162 190 218 234 234 233 234 235 235 235 235 234 234 
234 236 236 235 235 235 235 235 235 235 237 236 237 235 235 237 
239 239 239 239 241 240 236 240 238 239 239 238 238 238 238 237 
237 239 237 236 236 235 236 159 237 239 238 238 238 238 238 238 
238 238 239 231 233 233 235 233 234 234 236 236 234 220 206 240 237 239 238 238 
237 238 237 198 170 215 237 237 236 234 235 235 234 234 235 237 
235 232 220 203 154 120 153 231 235 235 235 235 235 235 234 234 
235 234 235 235 236 235 236 236 236 234 233 236 234 237 236 238 
237 236 240 237 235 237 236 233 232 216 227 238 238 238 238 237 
236 236 236 238 236 237 239 192 213 238 238 240 238 239 239 239 
239 238 237 230 233 233 233 233 235 235 235 235 232 176 232 238 239 239 241 239 
238 225 173 187 239 240 236 235 234 233 232 232 233 234 232 233 
233 235 236 237 238 231 173 192 234 236 235 235 235 235 235 235 
235 234 235 235 234 234 234 234 236 236 237 238 239 234 223 197 
165 172 155 128 137 139 123 116 131 123 135 157 215 239 238 238 
237 236 237 238 236 235 237 237 163 240 239 237 238 239 238 237 
237 239 238 232 232 233 233 234 234 232 234 236 220 184 239 239 239 238 237 240 
222 178 220 242 238 237 235 233 233 233 235 233 232 234 233 234 
233 234 234 236 235 236 233 233 235 236 236 235 235 236 235 235 
236 235 235 234 234 232 234 236 239 237 229 212 169 139 116 114 
148 172 180 201 202 208 201 217 225 225 217 170 151 241 239 239 
237 237 238 236 238 236 236 237 172 223 239 240 240 240 240 241 
239 238 239 233 233 233 234 233 234 235 234 233 185 225 240 238 240 237 239 239 
235 239 240 240 236 237 236 236 234 233 234 233 233 235 235 233 
234 234 235 234 236 234 235 236 235 234 234 235 235 234 234 236 
235 236 235 234 234 233 233 233 210 135 111 116 148 200 214 231 
240 242 239 239 241 242 242 240 241 240 242 245 238 241 239 239 
240 239 238 237 238 237 237 236 226 168 241 239 236 238 239 239 
240 239 239 233 234 234 233 235 235 234 234 226 170 238 239 239 239 239 239 239 
240 240 238 237 238 238 235 234 234 234 234 235 234 235 234 234 
233 236 235 235 235 235 235 235 236 236 235 235 235 235 235 234 
234 234 234 233 232 232 231 163 104 171 224 242 243 241 238 240 
238 238 238 238 239 237 238 239 237 237 239 241 241 240 241 242 
241 239 238 240 239 237 237 237 240 148 239 239 238 240 239 238 
239 240 239 234 233 234 234 235 235 235 233 199 190 239 238 239 238 238 239 238 
239 239 239 237 238 237 237 235 234 234 235 234 234 234 234 234 
233 217 235 236 235 235 236 236 235 235 235 234 235 235 234 234 
234 235 234 233 233 231 145 134 227 242 240 240 237 238 237 238 
237 237 237 237 238 237 237 236 237 239 240 239 240 241 241 242 
241 240 238 237 239 235 236 238 238 172 220 239 239 239 241 239 
239 239 239 233 234 234 234 233 233 234 233 178 224 237 238 239 239 239 239 239 
238 238 238 236 237 237 236 236 234 234 235 234 233 231 234 234 
232 151 230 235 236 237 236 235 235 237 236 235 235 235 235 234 
236 235 235 236 235 234 206 240 240 237 237 238 237 236 237 237 
237 236 237 237 236 239 237 238 238 238 238 240 240 240 240 240 
241 240 239 237 239 239 239 240 235 142 234 238 239 240 240 240 
239 239 239 235 234 234 235 233 233 234 222 139 233 237 239 238 238 237 239 238 
239 240 238 239 238 237 235 234 234 232 234 233 232 233 234 229 
154 177 239 237 236 235 235 236 235 235 235 236 236 236 236 235 
236 234 235 235 235 236 238 237 236 235 235 239 238 237 235 237 
237 236 237 237 238 237 237 237 239 239 240 240 240 241 240 241 
241 240 240 240 239 237 237 238 238 144 200 241 240 239 241 241 
240 240 237 232 233 233 233 235 235 232 224 194 237 238 238 237 240 238 239 238 
239 242 238 238 238 238 233 234 232 232 231 231 234 235 228 176 
156 238 237 236 237 238 237 236 236 236 235 236 235 235 236 235 
236 234 235 236 235 235 234 234 234 235 232 188 236 239 239 237 
238 237 236 237 237 237 237 238 236 237 238 240 240 240 240 240 
239 241 239 241 241 236 238 240 240 183 180 241 241 240 240 241 
242 242 241 234 233 232 233 233 233 229 193 197 236 239 239 237 237 236 237 237 
239 238 235 235 237 237 235 233 231 233 233 235 232 182 138 168 
237 235 235 237 235 236 236 235 236 235 237 236 236 236 234 235 
237 235 236 236 237 236 236 235 236 236 236 167 178 231 239 240 
238 238 237 237 239 238 238 237 236 237 237 237 238 239 240 240 
240 241 241 242 241 239 240 240 242 220 179 241 242 241 243 240 
242 243 243 234 234 234 233 236 234 228 170 224 236 236 237 236 237 239 237 237 
239 239 238 236 235 237 236 233 235 234 230 199 146 127 189 239 
237 237 236 237 236 236 236 238 236 237 236 236 237 236 235 235 
235 234 236 235 235 234 235 234 235 237 236 237 180 154 205 238 
241 240 240 238 238 237 237 237 238 241 237 240 239 240 240 241 
241 241 241 242 243 242 241 240 240 240 160 244 239 240 241 241 
241 242 244 233 231 233 233 233 235 225 178 228 237 236 236 236 237 235 235 237 
239 241 239 238 239 238 240 236 228 192 160 138 181 230 240 236 
234 234 236 236 237 236 237 235 236 236 236 235 236 235 235 236 
236 236 237 236 237 236 236 237 236 237 237 236 238 218 148 144 
207 229 239 240 240 239 238 238 238 237 237 238 240 240 239 240 
241 240 240 242 242 241 241 242 241 242 159 242 242 241 242 242 
242 241 244 235 235 233 234 233 231 224 178 233 236 236 236 235 235 236 235 234 
190 192 231 235 235 229 200 185 144 131 173 229 239 237 236 235 
235 234 236 236 235 237 237 236 236 236 236 236 235 236 235 235 
235 236 235 236 236 236 238 237 236 235 235 236 237 239 237 213 
145 134 141 172 212 236 238 238 239 240 240 242 242 242 242 242 
217 240 241 241 241 240 239 239 242 243 162 231 242 242 242 242 
241 242 243 232 232 233 233 233 232 222 187 237 236 235 236 236 235 234 235 236 
180 126 134 131 146 127 132 179 199 235 238 236 236 235 233 235 
235 234 235 236 236 235 235 236 236 235 236 236 236 237 236 235 
236 237 238 237 238 237 236 236 238 237 240 237 236 238 240 242 
240 225 195 161 125 131 179 223 238 237 237 241 238 231 208 190 
150 242 240 243 239 241 240 240 239 241 193 211 242 241 241 241 
243 243 242 235 234 233 233 233 230 218 191 235 236 236 235 236 237 234 236 234 
234 217 201 211 200 216 233 235 238 238 236 235 234 235 237 235 
235 234 235 235 235 237 237 236 237 236 237 237 237 235 234 236 
235 238 236 236 236 238 237 237 238 237 236 238 238 237 238 239 
241 239 241 240 235 203 153 142 150 152 140 136 118 121 118 131 
218 241 241 241 240 241 240 241 241 241 203 202 243 242 243 242 
244 242 242 232 232 233 235 233 233 216 201 235 235 235 236 235 235 236 236 235 
236 240 241 239 240 240 241 238 236 235 236 234 235 234 234 234 
234 233 234 234 237 236 234 234 237 236 236 236 235 237 237 236 
238 236 237 237 237 236 237 236 237 238 237 237 237 239 240 239 
237 239 239 239 239 239 236 198 195 160 177 182 214 209 225 242 
242 240 241 241 241 240 240 242 242 241 217 187 244 242 241 242 
242 243 242 234 234 234 233 234 234 218 203 236 237 237 237 236 234 237 236 236 
237 237 237 236 237 236 236 237 237 235 234 235 235 234 234 233 
235 233 234 236 234 235 235 235 236 236 238 236 237 237 237 236 
236 235 236 236 238 236 237 235 236 240 238 238 238 239 239 240 
238 238 240 239 240 237 239 240 242 240 240 240 240 244 240 240 
241 241 241 241 241 241 241 242 242 242 225 171 244 243 242 242 
241 242 242 233 232 233 233 233 234 215 200 237 236 236 236 237 235 235 236 237 
237 236 237 236 236 237 236 238 237 237 234 235 234 235 234 234 
233 234 233 233 234 233 234 235 233 236 235 236 236 236 235 236 
236 237 236 235 234 235 238 237 236 237 240 240 239 240 239 239 
238 240 238 240 239 238 239 238 239 241 240 240 239 239 241 240 
240 241 241 240 241 241 241 242 243 241 227 174 244 244 243 243 
243 241 244 233 233 232 233 232 235 218 202 237 236 235 235 236 235 236 236 236 
235 236 237 237 237 237 237 237 237 236 235 234 234 233 234 236 
233 232 233 233 233 236 234 232 180 225 237 236 236 235 237 237 
236 235 236 237 237 233 217 240 237 237 240 240 240 239 238 240 
240 239 240 241 240 239 240 239 240 238 238 241 240 240 240 240 
241 241 242 242 241 243 241 240 241 241 220 180 244 241 242 243 
242 244 243 233 233 234 232 233 232 204 206 237 237 236 237 236 236 236 236 237 
236 236 236 236 235 237 236 237 237 236 236 234 235 234 233 234 
233 232 233 233 234 235 194 170 136 235 237 236 236 236 236 235 
237 237 235 236 237 236 158 195 240 237 238 239 240 240 240 240 
239 239 240 241 240 238 240 240 239 240 240 241 241 242 240 242 
242 242 240 241 242 241 241 240 240 241 220 170 244 243 243 242 
242 243 243 233 233 233 233 234 234 213 201 238 237 238 238 236 239 237 237 235 
237 237 236 237 236 235 236 237 237 235 234 235 233 233 234 232 
233 229 232 235 227 150 120 133 190 239 238 236 237 236 237 239 
237 237 236 237 239 237 203 98 227 238 238 239 241 241 239 240 
239 240 241 239 240 242 241 241 240 242 241 241 241 242 240 240 
240 240 242 241 242 241 241 240 240 241 219 176 243 241 243 243 
244 243 241 234 233 233 233 233 234 209 198 238 237 237 237 237 237 236 236 237 
238 238 237 237 237 235 236 236 236 236 235 235 234 235 233 233 
233 231 234 230 166 163 170 154 242 238 236 237 238 239 235 237 
236 236 237 237 239 236 220 95 171 239 239 239 240 239 240 240 
241 241 241 241 240 241 240 241 241 241 242 242 241 242 241 242 
241 242 242 242 242 241 241 240 241 242 211 188 244 244 243 240 
242 242 242 232 233 232 233 233 232 219 190 237 236 236 238 236 235 238 237 237 
236 237 237 236 237 236 235 234 235 237 237 235 234 235 234 232 
231 233 213 151 175 225 123 233 239 238 237 236 236 238 237 236 
238 236 237 237 238 235 219 151 170 222 236 239 239 239 240 241 
241 241 241 240 241 240 241 240 242 241 241 241 242 241 242 242 
241 240 241 241 242 241 239 241 239 239 204 190 245 243 243 244 
243 243 241 232 232 233 233 234 233 218 192 237 237 238 237 237 237 236 238 236 
237 237 236 238 238 237 235 235 235 235 236 235 233 234 232 232 
232 223 133 188 235 180 160 240 238 238 239 238 238 236 236 238 
237 237 239 238 237 236 226 169 229 164 236 238 240 236 238 240 
239 240 241 241 240 240 240 240 241 242 241 241 241 241 242 242 
242 242 244 241 241 241 241 241 240 240 186 204 244 243 243 243 
244 244 244 233 233 232 234 234 234 221 188 237 237 235 236 237 237 238 237 236 
237 237 237 235 237 238 235 234 234 233 233 235 234 234 231 232 
221 155 186 237 233 127 215 237 238 238 238 238 237 237 237 237 
236 238 239 237 238 236 215 151 239 191 200 237 239 239 241 240 
241 241 240 241 240 241 239 242 242 241 241 240 242 241 243 242 
243 242 243 242 242 242 242 241 242 241 170 224 244 242 243 243 
244 244 244 233 233 233 232 237 234 232 182 234 236 237 235 237 236 237 238 237 
236 236 237 236 240 237 236 234 235 235 235 234 233 234 231 214 
129 182 236 232 204 133 236 234 237 236 237 237 237 238 241 238 
240 243 240 242 241 239 236 154 236 234 155 234 239 238 240 241 
241 241 241 239 242 242 242 242 241 242 241 242 242 242 243 242 
241 241 242 243 242 243 242 242 241 241 154 235 243 244 244 244 
243 243 244 233 232 233 233 234 233 231 187 231 237 237 237 236 238 238 237 236 
235 235 236 237 238 238 235 234 234 234 235 235 234 234 207 143 
205 239 232 232 134 189 235 237 238 238 237 238 240 238 233 223 
218 213 211 214 199 209 226 155 233 238 188 191 240 238 240 242 
241 242 242 240 241 241 240 241 241 241 239 242 242 243 242 243 
242 241 242 240 242 242 244 243 242 243 137 246 244 244 243 244 
244 244 243 234 234 234 232 234 233 233 198 224 235 235 235 236 235 236 237 234 
235 236 237 236 237 235 234 233 232 233 234 236 236 203 149 212 
234 235 233 196 132 235 234 238 237 228 227 225 208 176 151 154 
154 163 173 176 183 169 160 113 155 229 225 155 239 238 240 239 
241 241 242 241 241 241 240 240 241 242 243 243 242 242 242 242 
242 242 242 241 241 242 241 243 243 219 124 247 244 243 243 244 
243 244 244 233 233 233 233 233 232 232 200 204 234 235 234 236 236 238 237 234 
232 234 233 236 236 234 233 234 232 233 235 225 164 149 227 235 
232 232 225 124 212 232 215 213 180 152 159 174 181 212 214 240 
242 242 241 242 241 241 238 195 133 149 148 110 199 235 238 240 
239 241 241 240 243 242 241 240 242 243 241 240 242 241 241 241 
242 242 242 241 242 241 241 242 241 184 185 245 244 243 244 243 
243 243 242 232 232 233 233 233 233 230 219 178 233 235 234 234 235 236 236 235 
234 236 237 237 240 240 238 235 235 235 222 147 183 230 235 234 
235 233 158 145 158 150 149 182 207 231 239 239 240 241 241 240 
241 242 242 241 240 240 239 229 162 239 224 169 104 155 213 240 
238 242 241 243 241 242 242 240 241 242 243 243 241 242 242 243 
242 243 242 242 241 241 242 242 243 167 228 244 244 242 244 244 
245 243 243 234 234 234 233 233 233 231 225 163 230 233 234 233 234 235 236 233 
233 237 223 183 177 191 231 234 233 174 126 195 236 235 233 229 
212 166 85 168 199 231 234 237 241 241 241 239 239 239 240 240 
240 239 241 241 241 239 238 239 162 235 242 240 158 164 155 242 
241 242 242 241 241 242 240 240 242 243 242 241 243 242 242 242 
242 240 242 242 242 242 242 240 241 147 243 244 244 246 244 243 
244 244 245 233 234 234 232 233 232 231 227 180 235 235 235 235 234 235 235 234 
234 216 115 157 182 174 150 189 128 147 228 235 234 233 229 139 
141 90 181 236 238 238 236 235 238 238 238 239 239 238 239 239 
238 240 241 240 241 241 239 239 203 193 237 240 223 147 219 241 
239 242 241 242 241 242 242 243 242 243 242 243 242 241 242 242 
242 243 241 242 242 242 241 241 225 172 244 244 243 243 244 245 
244 245 244 233 233 232 234 233 233 233 230 202 205 236 235 235 234 234 235 234 
227 132 201 236 239 237 222 142 156 240 237 235 232 235 232 181 
168 126 236 236 237 237 236 237 239 235 237 238 239 240 239 239 
238 240 240 239 241 240 238 235 227 151 242 241 240 164 217 239 
240 241 242 241 241 242 241 242 241 242 242 241 241 242 242 241 
242 242 242 243 242 243 241 243 180 211 245 244 244 244 244 244 
244 244 245 234 234 233 233 233 234 234 234 221 179 236 233 234 235 235 234 233 
228 166 237 237 236 236 235 235 236 237 232 232 233 234 233 208 
123 226 237 235 236 235 236 236 238 238 239 241 239 240 240 239 
240 239 238 241 241 239 238 237 235 160 227 241 238 226 158 243 
241 241 241 241 242 243 242 242 242 243 242 242 242 242 242 242 
242 242 242 242 243 242 242 241 136 236 245 245 245 245 244 244 
244 244 244 234 233 233 234 233 234 235 232 230 183 231 234 234 234 235 234 234 
229 190 228 234 239 236 235 236 236 234 232 232 234 234 232 159 
187 237 236 235 236 236 237 237 237 240 240 238 239 240 240 240 
240 239 240 240 239 240 238 237 237 198 207 240 238 240 180 205 
241 241 240 241 241 242 242 242 241 241 242 242 242 241 242 242 
242 240 240 242 244 243 242 215 166 246 245 245 245 245 244 245 
245 246 245 234 234 233 234 233 233 235 236 234 208 198 235 234 234 235 234 234 
233 225 170 215 228 228 233 233 234 235 234 234 233 234 232 225 
187 226 235 236 239 237 237 238 238 237 238 239 239 239 240 240 
240 240 240 241 239 240 238 240 236 218 177 240 238 240 236 153 
233 241 243 243 242 242 240 241 239 241 243 243 241 241 242 242 
242 242 244 241 241 241 242 162 227 246 244 245 246 245 245 247 
244 244 244 233 234 234 233 233 233 234 235 232 227 183 230 234 234 234 234 235 
235 235 226 156 97 101 234 235 234 235 236 235 234 234 233 234 
234 177 236 237 237 238 237 236 238 238 239 239 239 239 240 239 
239 240 240 242 239 238 237 236 238 232 169 240 239 240 240 183 
188 241 243 243 241 244 242 241 242 243 243 242 243 242 243 242 
242 242 241 241 242 243 234 157 245 244 244 244 244 244 244 246 
244 245 245 235 234 233 233 233 233 233 232 231 231 202 211 235 234 234 234 235 
236 234 236 233 145 169 234 234 234 234 235 235 233 233 235 234 
235 170 238 238 238 238 236 238 238 239 240 239 239 239 240 240 
239 238 239 239 238 238 236 236 233 235 164 221 238 240 238 234 
130 212 190 182 189 235 242 242 242 243 241 242 242 241 242 240 
241 242 239 239 241 244 172 214 246 244 245 245 245 244 244 244 
244 245 245 232 234 234 234 233 233 233 233 234 232 227 183 232 235 235 234 235 
237 234 234 229 111 235 236 236 234 236 235 234 236 235 233 236 
236 162 235 238 239 239 239 240 239 240 238 239 240 239 239 239 
238 239 238 240 238 237 237 237 236 233 170 212 239 238 239 239 
202 180 211 232 229 188 204 241 242 242 242 242 241 241 242 242 
242 241 241 241 240 239 142 246 245 246 244 245 243 244 246 245 
244 244 246 233 234 233 233 233 233 234 235 233 231 231 210 193 237 234 233 234 
235 234 235 222 151 239 234 235 235 235 235 232 211 235 236 238 
227 133 237 239 238 239 239 237 239 239 239 239 239 239 237 238 
239 238 239 239 240 238 237 237 236 236 218 165 241 238 239 240 
244 245 243 242 242 240 147 243 243 242 241 242 242 241 240 241 
242 241 241 240 244 164 207 245 245 245 246 245 245 245 245 245 
245 243 243 232 233 233 234 233 233 232 233 233 232 231 226 181 229 236 234 235 
234 235 234 232 169 239 235 233 235 235 234 233 141 197 227 220 
135 190 240 238 238 236 239 239 239 240 238 239 238 238 239 240 
239 239 239 240 240 239 240 238 236 236 232 153 236 242 239 242 
244 244 240 241 242 243 151 221 242 242 242 242 242 242 242 241 
242 242 242 242 217 158 244 243 245 245 245 245 245 245 245 245 
245 245 245 234 233 233 232 234 234 233 233 233 232 232 230 212 185 235 234 237 
234 235 235 235 208 217 237 236 236 237 236 230 114 197 149 141 
181 240 239 239 239 240 238 237 237 237 239 239 239 240 239 237 
239 238 240 238 239 238 238 238 237 237 237 179 158 241 240 240 
241 242 241 242 246 233 122 238 243 244 243 241 243 242 241 242 
241 242 242 239 145 236 244 246 245 244 245 246 244 244 244 245 
245 245 245 233 232 234 233 232 232 233 234 234 232 231 231 232 181 213 234 234 
234 234 235 236 235 197 216 239 238 238 235 149 173 238 233 238 
243 240 239 239 239 238 238 238 239 238 237 238 239 238 240 238 
240 240 239 239 241 239 238 237 236 236 189 109 196 241 239 240 
242 241 242 233 176 159 207 245 243 243 243 242 242 241 241 242 
242 244 243 191 192 246 244 243 245 245 245 245 246 245 245 246 
245 246 246 234 234 234 234 234 235 234 232 233 231 232 230 232 225 164 230 236 
234 234 237 236 236 232 199 182 190 178 120 168 235 240 239 240 
239 238 238 239 238 238 238 239 239 238 239 240 240 239 239 240 
239 238 240 240 239 239 238 238 236 234 121 221 242 240 240 241 
241 242 242 236 151 223 243 243 243 243 243 243 242 242 243 240 
242 243 232 153 244 244 244 246 246 244 244 245 244 244 246 244 
245 244 244 234 233 232 234 234 233 233 234 233 232 235 232 232 235 204 173 235 
236 234 233 236 236 236 238 224 182 166 199 240 238 236 239 238 
239 239 237 238 238 239 238 239 238 239 238 238 238 239 239 239 
239 240 239 239 239 240 239 237 236 214 124 242 241 238 239 241 
242 242 242 242 231 163 243 242 242 242 244 244 242 242 241 240 
240 240 165 212 246 245 243 244 244 245 245 244 245 245 245 245 
245 245 246 234 234 233 232 233 234 234 233 234 235 234 233 234 233 232 191 198 
238 235 235 235 236 236 235 237 239 240 240 237 238 238 239 238 
239 240 238 239 238 237 238 237 238 238 237 236 238 238 239 239 
239 238 239 240 239 241 238 237 236 176 156 244 238 241 242 243 
246 243 241 241 243 179 212 244 241 243 244 245 241 243 242 241 
243 206 185 245 244 244 245 245 246 246 245 245 244 244 245 245 
245 245 245 234 233 233 233 235 234 233 234 234 235 234 234 234 233 233 233 188 
193 237 235 237 236 237 237 236 238 238 237 236 238 237 238 239 
239 238 238 239 238 240 238 239 237 238 239 239 240 240 240 241 
241 239 238 239 239 241 239 239 236 197 173 243 240 241 236 178 
175 243 242 242 244 177 207 243 243 243 242 243 242 242 242 244 
223 173 244 244 244 244 245 246 244 245 246 244 244 245 245 244 
245 244 246 234 234 234 235 234 234 234 233 232 233 233 234 233 232 232 232 231 
171 214 236 235 235 235 236 235 238 237 235 237 238 238 239 239 
239 239 240 239 239 239 238 238 238 238 238 237 236 239 239 239 
239 239 240 240 239 241 239 238 239 240 214 196 206 164 163 174 
171 199 241 241 227 139 243 244 241 242 245 244 244 242 244 235 
172 236 244 244 244 245 244 244 244 245 243 245 245 245 245 245 
245 245 245 234 235 234 234 234 234 234 233 235 235 233 233 235 233 232 232 233 
223 173 212 239 237 237 237 236 237 236 236 237 241 240 240 239 
239 238 237 238 238 238 238 239 238 239 240 238 238 240 240 240 
239 240 241 241 240 241 240 239 237 240 241 237 217 222 240 243 
243 229 189 191 180 226 244 241 242 242 243 244 242 246 231 177 
232 244 243 244 244 244 245 245 244 245 244 245 244 245 246 246 
245 244 245 234 234 234 235 234 233 233 233 233 233 235 233 233 233 233 233 233 
236 227 159 203 236 237 237 237 237 236 235 236 237 237 239 240 
240 239 239 239 240 240 239 239 238 239 237 239 239 238 239 241 
239 239 239 240 240 240 239 239 240 237 239 241 243 241 242 241 
241 243 242 243 245 244 243 242 241 242 241 242 246 227 172 234 
246 245 245 245 245 244 244 245 245 244 245 246 246 245 245 244 
245 244 245 234 234 235 234 234 236 234 234 234 233 234 232 233 233 233 236 235 
236 236 227 169 195 234 236 236 236 236 237 237 239 239 240 239 
239 240 240 238 238 239 239 239 239 238 238 238 239 239 238 239 
240 239 240 239 241 239 239 239 238 240 238 238 239 240 239 241 
242 242 244 245 244 244 244 242 242 242 242 243 227 170 232 245 
244 244 244 245 245 244 245 245 245 244 245 243 244 244 245 246 
246 245 245 234 234 236 234 233 233 235 234 235 234 233 234 234 234 234 233 234 
235 234 236 228 179 202 235 237 237 236 237 237 237 239 239 239 
240 240 239 240 240 240 239 240 238 240 240 238 238 238 239 238 
240 240 241 239 241 240 239 239 239 238 238 239 237 237 240 240 
241 241 240 242 243 243 243 242 242 244 241 164 155 235 246 245 
243 244 245 245 245 243 245 246 245 244 245 247 248 245 245 245 
245 245 246 234 234 234 235 233 235 235 235 234 234 234 235 234 233 234 235 235 
235 234 235 237 231 191 189 228 236 235 234 235 238 238 239 237 
238 238 240 239 240 238 238 239 239 240 240 239 239 239 237 239 
239 240 239 240 240 240 241 240 240 240 240 240 239 239 240 240 
242 242 241 242 243 244 244 246 243 231 170 194 247 246 244 243 
245 246 245 245 245 247 244 246 245 245 245 245 245 245 245 245 
245 245 246 234 234 234 234 234 234 236 234 234 235 234 234 235 236 234 235 235 
236 234 235 235 237 237 211 175 222 235 237 235 236 236 238 239 
240 241 238 240 240 240 242 239 240 239 238 238 240 239 239 240 
239 239 240 239 239 238 240 239 240 241 241 241 240 242 239 241 
241 241 241 242 242 244 247 242 206 180 233 247 245 245 244 246 
245 245 245 245 245 246 246 245 245 245 245 246 245 246 245 246 
246 244 246 235 236 233 235 234 233 234 235 236 233 235 234 234 235 235 235 234 
233 234 234 235 236 236 235 221 177 202 234 235 237 238 237 238 
238 239 240 239 239 240 239 240 240 239 241 240 239 239 239 240 
238 242 240 241 240 240 239 241 240 240 239 240 241 241 240 241 
240 240 243 243 243 245 227 175 190 245 246 246 244 246 245 244 
245 245 245 244 244 245 245 246 245 245 246 246 245 245 245 246 
246 246 246 234 233 233 234 234 234 234 235 235 234 234 233 234 236 234 235 233 
235 235 235 235 237 236 236 238 235 207 182 215 234 237 242 237 
238 239 240 239 239 239 238 238 240 241 239 239 238 240 239 240 
240 238 239 237 239 240 240 241 240 240 238 239 241 240 241 242 
242 242 243 246 240 187 176 231 245 246 245 246 244 245 245 246 
247 244 245 244 246 247 245 245 246 246 247 245 246 246 246 246 
246 245 246 233 233 234 234 235 234 234 234 235 234 236 235 234 235 236 236 234 
235 235 235 235 236 236 234 235 236 237 228 197 186 215 238 240 
240 239 240 239 239 238 239 240 240 237 238 239 237 239 239 239 
240 240 240 240 240 241 239 240 241 241 241 240 240 242 240 241 
243 245 238 202 174 211 245 246 246 245 244 245 245 244 245 246 
245 247 245 245 245 246 245 245 247 244 245 245 245 245 247 247 
246 246 246 235 234 236 234 234 233 233 235 236 235 236 235 235 234 236 234 236 
235 234 235 235 235 235 235 236 235 236 237 238 223 187 175 205 
237 241 242 241 239 241 239 239 239 241 238 239 240 239 239 240 
239 241 240 241 240 239 240 240 240 241 239 240 243 244 243 243 
238 209 175 222 242 246 246 244 245 246 245 246 245 246 245 246 
245 247 246 246 246 246 246 246 245 246 245 244 247 246 246 246 
246 245 246 233 234 234 234 234 233 232 235 235 235 235 235 236 236 236 236 237 
237 236 236 235 236 234 234 236 235 236 236 237 237 239 231 207 
181 193 216 241 241 241 240 241 242 239 241 238 239 240 240 240 
241 240 240 240 239 240 240 240 241 242 243 244 246 239 230 181 
160 199 240 245 246 246 244 245 244 244 244 244 246 244 246 246 
246 247 247 245 246 246 247 246 247 246 245 245 246 246 247 247 
247 246 247 234 234 233 234 232 233 234 234 234 235 236 236 236 236 237 236 234 
236 235 234 236 237 237 235 237 237 237 236 237 238 239 238 241 
234 212 199 186 173 207 236 238 243 243 240 240 243 242 240 241 
240 240 239 240 242 239 243 241 244 244 238 216 158 141 152 195 
241 244 244 243 245 245 246 245 246 245 244 246 245 244 244 247 
246 246 245 246 246 247 245 246 247 247 246 247 247 246 247 247 
246 247 246 233 234 234 234 234 235 234 235 234 234 236 236 236 238 236 237 236 
236 236 236 237 237 237 237 237 237 236 237 238 239 240 238 237 
237 239 239 235 215 200 182 173 179 205 207 212 225 235 237 237 
238 234 236 240 242 241 233 224 199 168 158 176 220 243 247 248 
246 244 244 244 245 245 243 245 245 246 246 246 245 247 245 246 
247 247 247 247 247 247 246 246 246 247 247 247 246 246 246 246 
247 247 247 235 233 234 234 234 233 234 234 235 232 236 238 235 236 237 237 237 
237 237 235 237 236 237 236 237 237 237 237 238 239 239 239 238 
240 239 238 240 240 238 239 238 236 219 201 162 103 122 141 160 
146 144 150 184 178 185 184 198 216 230 242 249 246 245 246 246 
244 244 244 244 244 244 246 245 245 244 244 246 246 246 245 246 
246 246 246 246 248 247 247 247 247 247 246 246 246 246 247 247 
247 247 246 234 234 234 234 234 234 234 235 234 234 236 237 236 237 237 236 237 
236 237 236 238 239 237 237 237 237 236 235 238 239 241 239 238 
239 239 238 239 239 240 240 242 243 242 242 240 229 229 222 226 
217 221 226 234 240 241 243 244 245 244 246 247 244 244 243 244 
244 245 244 245 245 242 245 246 245 245 245 244 246 245 245 246 
247 246 247 247 247 246 246 247 248 247 246 246 246 246 247 246 
245 247 246 235 233 234 235 234 233 233 236 235 234 235 234 235 236 237 237 237 
236 237 238 238 237 237 237 237 236 238 234 236 240 241 238 238 
238 238 239 239 239 238 238 240 239 240 240 239 241 242 244 243 
244 244 244 244 243 242 242 244 245 244 243 241 243 244 245 244 
245 244 245 245 245 245 244 245 246 245 245 246 246 246 246 245 
246 246 247 247 247 246 246 247 246 247 247 246 246 245 246 246 
246 246 247 235 234 234 234 234 234 234 234 234 234 235 237 236 235 237 237 237 
237 237 237 237 237 237 237 238 236 235 236 236 238 238 238 238 
239 239 238 239 240 239 239 239 240 239 239 240 242 241 241 242 
243 242 243 242 243 242 243 243 242 243 242 244 245 245 245 244 
244 244 244 244 245 244 245 246 246 245 246 246 245 244 245 246 
246 247 247 247 246 247 247 247 247 247 247 247 246 247 246 246 
246 246 246 236 236 234 234 234 234 234 237 233 235 237 238 236 235 238 236 236 
237 236 237 237 237 238 239 238 237 237 234 235 237 236 239 238 
238 239 240 240 239 239 240 240 240 240 241 242 241 242 241 241 
241 242 243 243 242 242 243 243 243 243 245 244 244 243 244 245 
245 244 245 246 245 244 245 246 246 246 246 245 246 245 246 247 
246 247 247 247 247 247 247 247 247 247 247 247 245 246 246 246 
246 246 248 235 235 235 235 235 235 233 235 235 236 236 237 235 236 237 238 238 
238 238 238 238 238 236 238 238 238 237 236 238 238 238 237 238 
239 239 238 240 239 241 239 240 241 239 242 241 241 241 242 241 
242 242 241 242 242 242 243 244 243 243 243 243 245 243 245 243 
244 244 244 245 244 245 245 246 246 245 246 245 245 245 247 246 
246 246 247 246 246 246 247 247 247 246 247 247 245 245 246 246 
246 246 246 234 235 234 235 235 235 236 234 237 238 238 237 235 235 237 238 237 
238 237 239 237 237 237 238 239 238 237 238 238 238 238 238 239 
240 238 238 239 241 240 240 239 241 241 242 240 242 242 242 245 
244 243 243 243 242 241 243 242 243 244 243 243 244 245 242 244 
244 244 244 244 245 246 244 242 245 246 246 245 246 246 246 246 
247 248 247 246 247 246 247 247 247 246 247 247 247 248 246 246 
246 246 246 236 235 235 234 236 234 234 235 237 237 237 237 236 238 238 237 238 
238 239 237 237 238 237 237 237 238 237 237 236 238 236 236 236 
237 238 237 240 240 240 240 240 241 241 240 241 242 241 241 242 
243 243 243 243 244 241 243 243 243 243 243 243 242 244 244 244 
243 244 244 243 244 245 245 244 245 245 245 246 244 244 244 245 
246 247 246 245 247 246 247 246 247 247 246 248 246 244 245 246 
247 246 247 