P2
# Created by IrfanView
100 100
255
253 255 254 253 254 253 254 253 253 253 253 253 253 254 254 254 254 
251 253 253 253 253 253 253 254 255 254 254 253 254 254 254 254 
254 254 254 254 254 254 254 255 255 253 254 254 254 254 254 254 
254 255 254 254 254 254 254 254 254 254 253 253 254 254 253 253 
253 253 252 253 253 252 253 253 253 252 253 252 252 251 253 253 
253 252 252 252 253 253 252 252 252 252 252 251 251 252 252 251 
250 251 251 253 254 254 254 252 253 253 254 253 254 253 254 254 254 254 254 254 
254 254 253 253 253 254 254 254 255 255 254 254 252 253 254 254 
253 253 253 254 253 253 254 253 253 252 253 253 253 254 254 252 
253 252 251 251 253 254 252 253 253 253 253 253 253 255 253 254 
253 253 253 253 254 254 253 253 253 253 251 252 253 253 252 252 
253 252 252 252 252 252 252 251 253 252 251 252 252 251 250 251 
251 251 251 253 254 253 254 253 253 253 253 253 253 253 252 252 253 253 254 254 
253 254 254 254 254 254 254 254 254 253 254 254 253 253 253 253 
253 253 253 254 253 254 252 252 252 252 252 252 251 253 253 253 
253 253 253 253 253 253 252 252 252 253 253 253 251 252 253 253 
253 253 254 253 252 252 253 252 253 253 253 253 252 253 253 252 
253 253 252 251 252 251 251 251 252 253 251 252 251 251 252 251 
252 252 250 252 252 253 252 253 253 253 253 254 254 254 254 254 253 253 254 253 
253 253 254 253 253 253 252 254 254 254 255 254 255 253 252 253 
252 253 252 253 253 253 253 252 251 251 252 252 252 252 253 252 
253 253 252 252 252 251 253 253 253 253 253 253 252 252 252 250 
251 252 253 253 253 254 252 253 253 252 252 252 252 252 254 252 
252 252 252 251 252 251 252 253 252 252 252 252 251 253 252 251 
251 251 251 252 252 252 252 252 252 253 253 253 253 253 253 254 253 254 254 253 
254 254 254 254 253 253 254 253 253 253 254 254 253 255 253 252 
252 251 252 252 252 252 252 252 252 251 252 252 253 252 252 251 
251 253 253 253 254 254 252 252 253 253 252 252 252 252 253 251 
252 252 251 252 253 253 253 253 253 252 252 252 252 253 253 252 
253 252 252 252 252 251 251 251 251 251 250 250 252 252 251 251 
251 253 251 252 252 252 253 253 252 252 253 253 253 253 253 253 253 254 254 254 
254 254 254 253 253 252 253 253 253 253 253 254 254 254 253 252 
252 250 252 252 252 252 252 252 252 253 254 254 253 253 254 252 
252 253 253 254 254 253 253 252 253 252 253 251 252 252 253 253 
253 252 253 252 253 251 253 253 253 252 253 252 252 252 252 252 
251 252 252 251 252 252 251 251 251 251 251 252 252 251 251 251 
251 251 252 253 252 253 251 251 252 253 252 253 252 253 253 253 253 253 252 252 
252 253 253 252 254 252 253 253 252 252 253 253 254 253 253 251 
252 252 251 251 253 254 253 254 254 254 251 247 244 240 234 242 
242 231 234 245 248 249 252 254 254 252 253 253 252 253 252 251 
251 251 251 252 252 252 252 252 253 252 253 251 252 252 252 251 
251 252 252 251 252 252 252 253 251 251 251 251 252 251 251 251 
252 251 251 251 251 251 250 251 252 252 252 253 253 252 253 253 253 253 253 254 
253 253 253 253 253 252 253 252 252 253 253 253 252 252 252 252 
251 252 252 253 253 252 245 237 218 206 186 191 204 205 211 204 
211 201 197 197 196 192 217 215 231 248 251 253 252 253 253 252 
251 252 252 252 252 252 252 252 252 252 251 251 251 252 253 251 
250 252 251 250 251 251 251 252 252 250 251 250 251 251 250 251 
250 250 250 250 252 251 251 250 252 252 252 252 251 253 253 253 253 253 253 252 
252 252 253 253 253 253 253 252 252 252 252 251 251 250 250 251 
253 253 248 235 209 191 199 218 233 245 247 250 254 254 254 254 
253 253 253 253 252 249 232 208 195 190 192 204 229 247 252 253 
253 251 251 250 249 251 252 251 251 251 251 251 252 252 251 252 
252 251 251 251 252 251 251 250 250 250 250 250 250 250 250 250 
250 251 250 250 251 251 251 251 251 251 252 252 252 252 252 252 253 253 253 253 
252 252 253 252 252 252 253 252 251 251 250 250 252 253 253 252 
240 220 192 211 228 243 253 253 254 255 254 253 253 253 252 252 
252 253 253 253 251 251 252 252 252 251 242 211 189 174 183 221 
252 254 254 253 252 251 251 252 251 251 251 250 251 251 251 250 
250 250 252 251 250 251 251 250 251 250 250 250 250 250 250 250 
250 250 251 251 251 251 251 250 251 250 250 251 252 252 252 252 252 252 252 252 
252 253 252 251 251 251 253 251 250 250 250 250 251 249 230 209 
208 229 247 252 253 252 253 254 252 252 251 252 251 251 251 251 
251 250 250 250 250 250 251 252 252 252 253 253 253 249 224 182 
168 204 242 251 252 251 251 251 251 250 250 250 250 250 250 250 
250 250 251 251 250 250 250 250 251 251 250 250 249 251 250 250 
251 250 250 249 251 251 250 249 252 252 252 251 251 252 252 251 251 252 251 252 
252 251 251 251 252 251 250 250 250 250 252 250 223 197 217 239 
253 253 252 253 251 250 251 252 252 251 251 251 251 251 250 252 
252 251 252 251 251 250 250 250 252 250 251 252 252 251 253 253 
239 189 162 216 250 250 251 250 251 251 250 250 250 250 250 250 
250 251 250 250 250 250 250 250 249 251 251 249 249 250 250 250 
249 250 250 249 251 250 250 251 251 250 251 250 251 251 252 251 252 251 250 251 
251 251 251 250 250 250 249 249 250 252 235 196 207 240 252 252 
251 251 250 250 251 251 251 252 252 251 251 251 250 249 249 250 
252 252 251 250 251 250 250 249 249 250 250 250 250 249 252 251 
253 253 243 202 183 231 251 252 249 250 249 250 250 250 250 250 
250 249 250 250 250 250 249 249 250 248 250 249 250 250 250 250 
249 250 250 249 250 250 250 251 250 250 250 251 251 251 250 250 251 250 251 251 
251 251 250 251 250 250 251 252 247 201 187 233 252 252 252 251 
250 250 250 250 251 251 252 252 251 252 252 251 251 251 251 250 
250 251 252 250 251 251 250 251 250 250 250 250 251 250 249 250 
249 252 251 252 239 193 195 223 252 251 250 249 249 249 250 250 
249 251 250 250 250 250 250 249 249 250 250 250 250 250 250 249 
248 248 249 248 250 251 250 250 250 250 251 250 250 251 250 250 250 250 251 250 
251 250 250 250 249 250 251 232 190 219 245 252 251 251 250 250 
251 250 250 252 250 251 251 251 251 250 252 252 251 250 251 251 
251 251 251 251 249 249 250 250 250 250 250 251 250 249 250 251 
248 250 249 249 251 250 236 190 203 238 253 250 249 249 249 250 
250 250 250 250 249 250 248 249 249 249 250 250 249 248 249 249 
250 249 249 247 248 249 250 250 250 251 250 250 250 249 251 250 251 250 250 250 
251 250 249 250 251 249 219 191 238 253 252 251 250 249 250 250 
249 251 248 249 251 251 251 250 251 250 251 250 250 251 250 251 
251 251 251 250 250 250 250 250 249 249 250 249 250 250 250 250 
248 249 249 249 249 250 252 246 207 183 236 252 251 250 249 249 
250 250 249 249 249 249 248 249 249 248 249 249 249 249 248 249 
249 249 248 248 248 249 249 249 249 250 250 250 250 250 250 249 250 250 250 249 
250 248 247 252 248 214 215 245 252 251 250 250 250 250 250 250 
249 250 251 250 250 250 251 251 250 251 251 251 250 250 250 250 
250 250 251 250 250 250 250 250 251 250 250 250 249 249 248 249 
249 249 249 249 248 248 248 251 252 236 181 210 246 251 249 249 
248 248 249 249 249 249 249 250 249 249 248 249 249 249 248 248 
247 249 248 248 247 248 249 249 248 249 250 251 249 249 249 249 249 249 249 248 
248 247 251 244 198 224 249 250 250 250 249 249 249 250 250 250 
250 250 250 250 250 250 249 251 251 250 250 250 250 250 250 250 
250 250 250 250 250 250 250 250 250 250 250 250 249 250 249 249 
249 249 250 250 249 248 248 248 249 250 248 197 191 248 251 249 
247 249 249 248 249 249 248 249 248 249 248 248 248 248 249 249 
248 249 249 248 249 248 249 249 249 249 249 249 249 249 248 247 247 249 250 247 
248 248 243 193 238 251 251 249 249 249 250 249 250 250 250 250 
249 249 250 250 250 250 250 249 251 251 250 250 250 250 250 250 
250 251 251 249 249 250 250 250 250 249 249 248 250 249 249 249 
249 248 250 247 247 248 250 250 249 249 250 246 203 185 243 250 
249 249 248 248 247 248 248 248 248 249 247 248 247 248 248 248 
248 248 249 248 248 248 250 249 248 248 248 250 248 248 248 249 248 248 247 247 
250 239 191 239 250 248 249 249 247 249 249 249 249 249 250 250 
249 250 250 250 250 250 249 249 250 250 251 250 250 249 250 250 
250 249 251 249 249 249 250 250 249 249 249 249 249 249 249 248 
250 249 248 250 249 248 249 249 249 249 248 251 251 219 173 239 
250 248 247 249 247 248 248 248 249 247 247 249 250 247 247 247 
246 247 247 248 248 249 248 248 248 249 249 248 247 248 247 248 249 249 247 248 
239 185 238 250 249 249 249 248 248 249 249 249 249 250 250 250 
250 249 249 249 249 249 250 250 250 249 249 250 248 249 249 250 
250 251 250 250 248 250 249 249 248 249 249 248 249 249 248 248 
249 249 248 248 249 249 249 249 248 249 249 248 249 250 219 165 
234 250 249 247 248 248 248 248 248 248 247 248 247 247 247 247 
248 246 248 248 248 248 248 248 249 249 246 247 247 248 248 249 248 247 248 242 
184 234 250 250 249 250 250 249 249 248 249 249 248 249 249 249 
250 250 250 250 249 249 249 250 250 250 249 249 249 249 249 249 
249 249 250 249 249 249 249 249 250 248 249 248 249 248 248 247 
248 248 248 248 249 248 249 249 247 248 248 248 248 248 251 220 
168 237 250 248 245 246 247 248 247 248 247 248 248 245 246 246 
245 247 248 248 248 248 248 247 249 248 247 246 247 247 247 247 247 248 249 195 
216 250 248 248 248 249 250 248 249 249 249 248 248 248 249 248 
249 248 249 249 249 249 248 249 248 249 249 249 249 249 248 249 
249 249 249 249 249 249 249 248 248 248 249 248 248 248 248 248 
248 248 248 248 248 250 248 248 249 247 248 248 247 245 246 248 
218 183 235 249 248 247 248 247 247 248 248 246 247 247 248 247 
247 245 245 248 248 247 247 248 248 249 248 247 248 246 247 247 248 248 199 213 
248 249 248 247 249 248 248 248 248 249 249 249 249 249 249 249 
249 249 249 249 249 249 249 249 249 249 248 248 249 249 249 249 
249 248 249 249 249 249 248 247 248 248 248 248 248 248 248 249 
248 247 248 248 248 247 247 246 247 248 248 248 247 246 246 247 
250 198 192 247 248 247 246 246 247 247 246 248 249 247 245 246 
246 247 246 248 248 247 248 247 247 248 248 247 247 247 246 246 248 231 194 250 
249 249 248 249 248 248 248 249 248 247 248 249 248 249 249 249 
249 248 248 248 248 248 248 248 247 249 250 248 248 249 249 248 
249 248 249 249 249 249 248 248 248 248 248 247 249 247 247 246 
248 247 249 249 248 248 247 247 245 247 246 248 246 245 244 245 
246 247 186 187 249 247 246 245 247 246 247 245 246 244 245 247 
246 246 244 246 247 248 248 247 247 249 246 248 247 244 246 249 248 189 243 250 
246 248 248 248 248 248 248 247 248 248 249 248 249 248 249 247 
248 248 249 249 248 248 249 248 248 248 247 249 248 248 247 248 
249 249 250 249 248 247 248 248 248 246 247 247 247 247 247 247 
247 248 247 247 246 247 247 245 247 246 247 247 246 247 245 245 
245 248 247 175 192 250 246 245 246 246 246 246 246 245 244 244 
246 243 244 247 248 247 248 248 247 247 248 246 245 244 245 250 200 220 249 249 
249 248 247 247 247 249 248 247 246 247 247 248 248 248 248 248 
249 248 248 248 248 248 247 247 248 247 248 246 247 247 248 248 
248 249 248 247 247 247 248 247 246 247 246 246 248 246 247 246 
245 245 245 245 246 245 247 245 245 245 245 245 246 245 245 244 
245 245 249 245 169 235 246 245 245 244 244 246 246 246 244 245 
246 247 245 247 246 246 248 247 248 247 248 246 247 247 247 235 179 248 249 248 
247 247 247 246 246 247 249 247 247 248 246 247 248 248 247 246 
247 247 247 246 247 247 247 248 248 248 249 248 247 248 247 247 
247 245 246 248 247 247 247 247 247 246 247 246 247 246 246 245 
247 247 245 243 246 243 245 246 245 244 245 245 244 245 247 247 
245 245 246 248 227 166 247 245 244 245 246 246 245 245 246 244 
245 244 244 246 247 247 248 246 247 249 245 245 246 246 248 183 230 249 248 247 
247 246 247 247 247 247 248 246 246 246 247 248 248 247 247 249 
248 247 247 247 247 247 248 246 247 247 248 247 247 247 247 247 
247 247 247 247 247 247 247 246 246 247 245 245 244 246 245 245 
245 245 245 246 244 246 246 244 246 247 244 245 245 245 245 243 
244 244 244 245 247 185 211 247 246 245 245 244 245 245 245 244 
245 245 244 246 247 247 248 248 248 247 245 245 245 245 236 185 249 247 247 248 
247 247 247 247 247 247 247 247 246 248 248 248 248 249 250 248 
247 248 248 248 247 247 247 246 246 248 246 247 247 246 247 247 
247 246 245 247 248 247 247 247 246 247 247 247 245 245 244 244 
244 244 243 245 246 246 247 247 245 243 244 244 244 246 246 246 
244 245 245 244 245 231 151 239 246 244 245 244 246 246 244 244 
243 244 244 248 248 247 247 247 247 246 245 245 245 246 196 221 247 247 247 247 
247 247 247 247 247 247 248 250 248 245 239 225 232 225 233 243 
247 248 246 248 247 247 245 246 246 246 246 246 246 246 246 246 
247 247 246 246 246 246 246 246 247 246 244 244 244 243 242 243 
245 244 246 246 245 246 249 249 248 249 247 246 245 245 246 245 
243 243 245 244 244 249 189 175 247 245 244 244 244 245 244 243 
243 244 242 245 246 247 246 246 246 247 245 245 247 240 172 248 247 246 246 246 
246 246 245 246 247 248 249 227 177 137 113 118 137 136 147 153 
179 207 223 234 248 244 248 245 246 246 246 246 246 246 247 246 
246 246 245 245 245 245 245 246 245 245 244 245 245 243 245 247 
249 247 229 203 195 190 176 183 220 238 243 247 245 243 244 244 
243 244 245 244 246 245 243 128 227 245 244 243 245 246 243 244 
243 244 242 246 245 245 245 245 245 246 246 246 247 208 204 247 246 246 246 245 
246 245 246 246 248 237 167 103 92 95 99 101 106 115 118 115 
119 127 125 138 180 242 246 246 247 245 244 245 246 246 247 246 
245 245 245 245 245 244 243 245 244 244 245 243 244 246 247 248 
233 175 127 119 109 138 135 126 122 142 153 176 243 245 244 243 
245 245 245 244 244 245 247 184 206 246 243 243 244 243 245 244 
242 242 243 246 245 245 245 246 246 246 244 246 246 180 244 248 245 246 246 245 
246 246 247 245 226 122 93 96 101 119 134 169 191 201 175 143 
141 125 110 114 106 147 206 247 248 246 246 246 244 246 245 245 
246 245 244 244 244 245 243 244 243 244 244 245 248 247 224 183 
143 117 111 126 134 130 122 160 129 126 132 91 182 245 245 245 
244 245 244 244 245 244 244 236 153 243 243 245 244 245 242 242 
242 242 242 244 246 245 246 245 245 246 245 245 223 210 246 245 245 246 245 247 
245 246 244 246 210 148 175 200 198 222 241 250 251 250 249 244 
232 222 202 170 124 115 119 149 216 248 246 246 245 244 246 244 
244 244 244 244 244 244 245 244 244 243 245 247 240 191 120 119 
138 171 160 177 212 218 217 178 157 151 123 108 122 166 241 245 
244 243 243 243 243 243 245 248 178 206 244 242 242 243 243 243 
242 243 242 245 247 245 245 244 245 246 244 246 184 237 245 247 245 246 246 246 
246 245 245 245 247 250 250 252 249 249 248 249 247 246 248 248 
248 248 248 243 228 192 162 129 128 216 249 244 246 243 244 244 
244 244 244 243 244 243 244 244 244 244 246 211 136 109 141 214 
223 227 235 245 247 246 247 246 240 233 219 176 150 125 169 247 
243 243 245 243 243 244 244 244 222 157 244 243 242 243 243 242 
242 244 242 246 243 244 244 245 247 245 244 244 180 248 246 245 246 247 246 246 
246 246 245 245 247 249 249 249 248 246 245 244 246 246 245 244 
246 243 247 247 248 248 245 226 191 135 175 244 246 245 245 244 
245 245 244 244 244 246 243 245 245 238 181 105 141 205 244 249 
247 247 247 245 244 245 246 247 248 248 247 245 243 219 225 245 
243 243 244 243 243 242 243 243 246 157 222 243 243 242 242 241 
241 242 242 244 243 244 243 244 244 244 245 222 202 247 246 246 245 245 245 245 
246 246 246 245 245 245 245 248 245 246 245 247 246 245 244 245 
244 243 244 246 246 246 246 249 248 236 163 147 240 246 243 244 
246 246 245 243 242 243 242 242 196 131 121 190 243 247 248 245 
245 243 244 243 244 243 244 243 245 246 245 245 246 248 247 244 
242 244 241 242 243 243 244 244 244 198 173 245 244 243 242 243 
241 241 241 244 244 244 244 244 244 244 244 193 234 245 245 246 244 245 245 245 
244 244 245 245 246 246 247 247 247 244 244 246 246 246 246 245 
245 244 244 244 245 243 243 244 244 246 247 204 194 247 245 244 
244 245 243 244 244 243 242 223 119 128 219 247 248 244 244 244 
243 244 243 243 242 243 244 244 247 247 243 244 244 244 244 242 
243 244 243 242 242 242 243 244 242 231 139 241 241 242 241 242 
242 242 240 243 244 244 244 244 243 244 246 187 248 246 245 246 245 244 246 245 
246 245 246 245 246 246 246 245 247 244 247 248 247 246 243 244 
243 244 243 244 243 245 243 243 243 243 246 249 248 245 243 244 
245 244 242 243 243 244 242 244 242 242 246 246 244 242 242 243 
243 243 242 242 244 246 247 247 247 227 246 243 241 242 243 243 
244 244 243 242 241 242 242 242 244 245 144 232 242 241 242 242 
241 242 241 245 245 243 243 244 244 246 240 188 248 243 244 246 246 245 245 246 
246 246 245 246 245 245 246 246 245 247 232 245 248 249 248 246 
242 245 245 242 243 243 244 243 244 244 244 245 245 243 243 243 
244 243 243 243 243 243 242 242 245 245 243 243 244 243 242 243 
244 243 243 243 243 245 243 210 176 197 243 243 244 242 243 244 
243 243 242 242 242 242 241 242 243 244 178 181 244 241 241 241 
241 241 242 243 244 243 243 243 245 245 228 202 245 245 245 244 244 245 246 245 
245 245 245 246 246 244 246 246 246 246 198 166 169 187 224 231 
238 245 247 245 245 246 243 245 245 243 243 244 244 244 243 243 
243 244 243 242 242 242 242 242 242 244 243 243 241 241 242 242 
242 244 244 246 239 203 170 194 232 246 245 244 243 243 242 242 
243 241 242 241 242 243 243 242 242 243 224 130 246 241 241 242 
241 241 240 243 243 242 241 243 244 247 204 226 246 244 245 245 245 245 244 245 
245 245 245 245 245 245 244 245 245 244 246 245 222 189 164 144 
154 168 200 233 237 242 244 248 246 243 243 242 245 243 244 243 
242 243 242 242 243 243 242 241 242 243 244 243 242 242 244 243 
244 243 235 192 178 208 239 247 246 245 243 243 244 242 243 242 
242 242 241 242 242 241 242 242 240 239 239 116 242 243 241 242 
242 241 242 243 244 243 245 243 243 246 198 237 245 245 245 245 245 244 244 244 
244 245 245 245 245 245 244 244 245 243 244 247 248 248 247 242 
228 208 183 171 156 167 182 210 227 246 243 243 243 242 242 242 
243 244 245 244 243 243 242 242 242 242 243 244 243 243 244 244 
229 190 172 213 241 247 247 245 244 244 243 242 243 243 242 241 
243 243 241 242 242 242 242 241 241 243 242 146 226 241 241 241 
241 242 241 244 244 241 242 243 243 243 190 242 245 245 245 246 246 244 245 245 
244 245 244 244 245 245 245 245 244 243 244 244 247 246 246 246 
247 246 248 247 245 229 207 177 147 235 244 243 243 243 243 244 
243 243 243 243 241 242 243 242 243 242 243 244 243 245 230 164 
181 215 245 246 245 244 244 243 244 243 243 243 243 244 244 243 
242 242 242 242 241 241 243 243 241 241 242 165 216 242 241 241 
240 240 241 242 241 242 242 243 243 244 188 245 244 244 244 244 245 244 244 245 
245 244 244 245 244 243 245 244 244 244 244 243 243 244 244 245 
245 245 245 245 247 246 245 248 240 240 243 243 243 245 244 243 
243 243 242 242 243 243 242 242 242 242 241 242 243 206 178 217 
247 247 246 246 244 243 243 244 244 243 242 242 243 244 242 242 
241 242 242 242 242 241 240 241 241 240 242 192 202 242 241 240 
240 241 241 243 243 243 242 242 243 244 186 247 243 244 244 244 245 244 245 244 
244 245 245 245 245 244 245 244 244 244 243 243 243 244 242 243 
244 242 244 243 243 243 245 245 247 244 244 243 243 244 243 243 
242 243 243 242 242 242 243 242 242 242 243 243 244 179 241 247 
246 244 245 243 242 243 243 243 242 241 242 242 242 243 243 243 
242 242 242 241 241 242 241 243 241 241 239 207 178 243 240 241 
241 241 241 242 244 245 242 243 242 240 184 246 244 245 245 244 245 245 244 245 
244 243 243 243 244 244 244 245 245 245 243 244 244 244 243 243 
243 244 242 242 243 242 243 242 244 244 244 243 243 243 244 242 
243 243 243 243 243 242 242 242 242 242 240 242 244 244 245 244 
244 243 244 244 244 243 244 243 243 244 242 242 242 241 242 241 
242 242 242 242 241 240 242 243 242 240 241 214 155 244 240 240 
240 240 240 242 241 246 244 243 242 245 191 245 244 244 243 244 244 244 244 244 
244 244 244 244 243 244 243 244 246 246 243 243 244 244 242 243 
242 242 245 243 244 243 243 243 243 243 243 244 243 243 244 243 
243 243 242 242 242 243 242 242 242 243 242 242 241 243 244 242 
242 244 244 243 243 242 243 243 243 243 243 243 243 242 242 241 
241 242 241 241 240 241 242 243 240 240 240 216 147 245 241 240 
240 240 242 242 242 243 242 242 243 246 192 246 244 244 245 244 244 244 244 243 
244 244 244 244 244 244 244 243 243 245 244 244 245 242 244 243 
244 243 245 243 243 242 243 243 243 242 242 244 243 242 244 244 
242 241 243 242 243 242 242 243 242 242 242 242 241 244 243 242 
243 243 241 243 241 243 241 242 242 241 242 243 242 243 243 242 
242 241 241 241 240 241 242 243 240 240 240 236 147 246 242 240 
241 241 241 242 242 242 243 241 242 241 187 247 243 244 244 245 244 243 244 244 
245 244 244 242 243 244 245 243 244 245 244 243 243 244 243 243 
242 243 242 242 244 243 244 243 243 242 244 242 243 243 243 243 
243 244 243 243 242 242 243 242 242 243 242 242 242 243 243 242 
243 243 243 243 243 242 242 241 243 242 242 242 241 243 242 241 
242 241 241 242 241 241 242 243 240 239 240 240 159 244 241 241 
240 241 241 241 243 242 242 241 241 240 180 245 244 243 244 244 243 243 243 244 
244 244 244 244 244 244 243 244 244 245 244 244 244 243 244 243 
244 243 243 244 243 244 244 244 244 242 242 243 243 243 243 241 
243 242 244 242 242 242 242 241 242 242 242 241 241 241 242 242 
241 243 243 243 243 242 241 243 242 242 242 243 242 243 240 241 
240 240 240 242 241 242 243 242 240 239 240 238 146 244 241 240 
241 239 241 242 240 241 240 240 241 243 183 245 244 244 244 243 243 243 244 244 
244 243 244 244 244 245 245 245 243 244 244 244 244 243 243 243 
242 243 244 243 242 242 242 243 241 242 242 242 243 243 243 243 
242 241 242 244 242 241 242 242 242 242 242 241 241 241 240 243 
243 243 243 242 243 242 242 241 242 242 242 241 241 242 242 241 
242 241 240 240 241 240 241 240 237 240 240 239 161 241 240 242 
241 240 240 242 241 242 242 240 242 242 193 248 243 243 243 243 244 243 242 243 
242 244 243 243 244 243 243 243 244 244 243 244 243 242 243 242 
243 243 244 244 242 242 243 242 243 243 243 243 243 242 243 242 
243 242 244 242 242 242 243 242 242 242 242 242 243 242 241 242 
242 242 242 243 243 241 241 241 241 241 242 242 241 242 241 241 
242 242 241 241 240 239 242 241 241 240 241 232 153 240 241 242 
240 242 240 243 241 241 241 242 242 239 194 246 244 244 245 244 244 245 244 244 
243 243 243 243 244 243 243 243 244 244 244 243 243 243 243 244 
243 243 242 243 243 243 242 242 242 242 242 242 242 242 244 241 
241 242 243 241 242 242 241 241 242 243 242 241 242 242 242 242 
244 242 242 242 241 241 242 242 241 241 243 242 242 243 241 242 
241 240 241 240 239 240 240 241 238 240 240 235 158 245 240 240 
240 239 241 241 241 242 240 242 241 240 196 244 244 243 244 243 244 244 244 244 
243 244 244 245 244 244 242 243 243 243 242 243 243 244 244 244 
243 243 242 242 242 242 242 243 241 242 242 242 242 242 243 244 
243 242 242 241 242 241 241 242 241 240 239 241 242 241 242 243 
241 241 241 241 241 242 241 242 241 241 241 241 242 241 241 241 
242 241 240 239 241 241 241 240 241 241 240 230 159 242 240 241 
241 240 239 242 242 242 241 240 242 240 204 231 244 243 243 243 244 244 243 243 
243 243 243 244 243 243 243 244 244 244 244 245 244 243 246 243 
244 243 242 243 243 242 243 243 243 242 242 243 243 243 241 241 
241 241 244 243 242 240 241 242 242 241 242 241 241 240 241 242 
241 239 241 242 242 242 240 241 242 242 241 242 242 241 241 240 
242 241 241 241 240 239 239 238 240 240 241 211 181 243 241 240 
241 239 241 242 241 242 242 242 242 242 214 217 241 243 243 243 244 243 244 243 
243 242 244 243 243 243 245 243 243 243 243 243 243 243 244 243 
242 242 242 243 241 244 242 243 243 242 243 242 242 242 241 242 
242 243 242 242 241 240 241 241 240 240 241 242 241 242 240 241 
240 242 244 241 240 241 242 242 241 241 242 243 240 241 241 240 
241 240 239 240 240 238 241 241 240 240 240 209 182 241 241 240 
241 241 240 243 243 242 243 243 242 245 228 205 245 243 244 245 244 244 243 243 
243 244 243 243 242 243 243 242 244 243 243 243 243 244 243 243 
243 242 242 243 242 242 243 241 241 242 243 243 242 243 242 242 
242 242 242 243 242 242 242 241 241 241 240 241 241 242 242 242 
241 241 240 242 241 242 241 241 241 241 239 240 240 242 240 241 
239 240 239 240 239 241 239 238 239 240 241 186 203 242 240 240 
241 240 241 242 242 241 244 243 243 243 242 187 245 245 244 244 244 243 243 243 
243 243 243 243 244 243 243 243 243 243 243 243 243 244 245 244 
243 242 244 243 243 243 242 243 242 242 242 241 242 242 241 242 
242 241 242 240 240 241 242 241 241 240 240 241 240 241 242 238 
241 242 242 242 242 242 243 242 242 241 240 240 241 240 240 240 
240 240 241 240 241 241 239 239 240 241 240 167 225 241 239 241 
240 240 241 242 242 242 243 244 244 244 246 146 244 243 244 243 243 243 243 243 
243 245 243 243 244 243 244 243 243 243 245 244 243 244 244 244 
245 243 243 243 242 243 243 241 241 241 241 242 242 242 242 242 
241 241 241 241 241 241 241 241 241 239 239 240 241 241 241 240 
239 239 241 241 242 242 240 241 240 240 241 241 241 241 240 240 
240 241 240 239 240 240 240 240 240 238 244 148 241 242 240 240 
241 241 241 243 243 242 244 243 244 242 243 155 218 243 242 243 243 244 244 245 
242 243 243 243 243 242 242 243 243 243 243 243 244 243 243 244 
244 243 243 242 242 243 245 244 241 242 242 241 241 241 241 241 
241 241 241 240 241 241 241 241 241 238 240 241 240 241 241 241 
243 242 242 241 241 242 242 241 242 241 240 239 240 240 238 240 
240 240 240 240 239 240 240 240 239 240 242 160 242 240 241 241 
241 240 240 242 243 243 242 242 243 243 242 212 187 244 242 242 243 243 244 244 
243 243 244 244 243 243 243 243 243 242 241 243 243 243 244 243 
243 244 243 241 243 243 243 241 241 243 242 243 242 242 240 242 
242 242 241 241 241 242 240 242 240 241 240 240 241 242 241 239 
238 240 241 240 241 241 240 241 241 241 242 242 241 241 241 240 
241 240 240 241 240 239 241 241 239 239 213 176 243 241 241 241 
240 241 242 242 240 241 243 242 242 242 241 243 186 244 243 242 243 244 243 243 
243 244 243 243 243 242 243 243 243 243 243 243 243 243 242 244 
242 241 243 242 243 242 242 240 242 241 240 242 242 242 242 242 
241 241 241 241 241 241 240 239 241 241 240 239 240 239 239 241 
241 240 240 241 241 240 240 242 241 241 241 240 240 241 241 241 
241 241 240 241 241 241 241 242 241 241 174 225 242 240 241 240 
240 241 240 243 243 241 243 242 241 242 241 242 196 236 244 244 243 243 242 243 
243 244 243 243 243 242 243 243 244 243 242 242 243 243 244 242 
243 242 243 241 242 242 242 242 242 241 241 241 241 241 241 241 
241 241 240 239 242 241 241 240 238 240 240 240 240 240 240 240 
242 240 240 242 241 241 241 241 242 240 241 241 242 242 240 241 
240 240 241 240 241 242 242 243 241 243 156 229 242 242 240 241 
240 241 240 241 243 242 241 242 241 241 242 240 226 190 244 243 242 244 243 243 
244 243 245 245 244 245 243 242 243 243 242 243 243 242 243 244 
242 243 243 241 242 242 241 240 242 241 242 242 241 243 242 241 
242 242 241 241 241 239 239 239 242 240 241 240 241 240 240 241 
241 241 239 241 241 243 242 241 241 241 241 242 242 241 240 240 
240 240 240 241 242 241 241 242 242 227 159 242 242 241 240 240 
241 240 240 240 241 242 243 242 242 242 242 241 237 185 242 242 240 242 244 244 
242 243 243 241 242 242 243 245 243 243 242 241 242 244 241 242 
242 242 242 242 243 241 242 241 242 241 242 242 241 242 240 243 
241 241 241 242 242 242 240 240 241 241 240 241 239 241 240 240 
239 239 240 240 239 238 240 242 242 241 241 241 241 241 241 240 
241 240 240 240 241 241 241 242 242 198 200 243 240 241 242 241 
241 241 241 242 242 242 242 243 243 243 242 242 240 212 203 242 242 242 243 243 
242 243 242 243 244 243 241 241 241 241 242 242 243 240 243 243 
242 242 241 242 242 240 241 242 241 242 242 241 241 242 241 241 
240 241 242 241 240 241 242 240 240 240 239 240 241 241 240 240 
241 241 241 241 242 241 241 241 240 241 241 241 242 241 241 241 
240 241 240 242 242 242 241 241 246 161 240 241 241 241 240 240 
240 241 242 241 242 242 242 242 242 243 241 240 240 241 177 242 243 242 243 243 
242 242 243 243 241 243 243 241 243 242 242 242 243 241 243 241 
241 241 241 241 241 240 240 240 240 240 238 241 241 242 242 242 
240 242 241 240 241 240 241 241 240 241 241 241 240 240 240 240 
241 238 241 241 241 241 241 241 241 241 241 240 240 241 240 241 
241 241 241 240 240 242 241 243 225 172 245 241 240 240 242 240 
241 240 240 242 242 242 242 242 242 241 241 241 241 240 209 198 245 243 241 241 
243 242 243 243 242 242 242 241 242 242 244 242 242 242 243 242 
242 241 241 241 241 242 242 240 240 243 243 242 242 242 242 242 
243 241 241 242 240 241 241 240 241 242 241 241 238 239 240 240 
240 241 242 241 241 240 241 240 242 241 242 242 240 240 240 241 
241 241 241 240 239 241 241 243 166 215 243 241 241 242 241 241 
241 242 240 240 241 241 241 242 243 244 241 241 242 243 246 166 242 241 242 240 
241 243 242 242 243 243 241 242 243 242 242 241 241 243 242 241 
243 245 244 246 244 242 241 243 244 245 244 244 242 246 242 243 
243 244 244 243 244 246 243 242 244 242 244 243 242 240 242 242 
241 241 242 241 242 241 242 241 241 242 242 242 241 241 241 240 
241 241 242 243 240 240 242 232 158 244 242 241 240 240 241 241 
241 241 241 241 242 241 241 242 241 241 240 241 242 242 243 208 193 243 240 241 
241 242 242 242 242 243 243 242 244 241 242 241 242 242 243 243 
230 217 226 214 212 208 216 208 189 182 220 204 213 189 195 201 
200 199 217 211 224 218 218 230 228 237 236 240 242 242 240 245 
243 242 241 242 241 242 242 241 241 241 241 241 240 242 241 242 
241 241 242 241 239 238 241 185 217 241 240 241 241 241 242 241 
241 241 240 241 242 240 242 242 240 241 242 239 242 239 241 242 179 227 241 241 
241 242 242 242 242 242 241 243 243 243 242 243 242 242 242 243 
221 177 170 180 177 175 175 181 182 180 175 169 179 192 189 183 
181 178 172 168 172 175 163 164 169 163 159 160 166 166 193 164 
191 222 243 241 240 242 242 241 242 241 241 242 242 241 242 241 
241 240 240 241 238 239 223 162 244 243 242 241 240 241 242 241 
241 240 240 240 239 241 242 240 241 241 240 241 241 241 241 239 226 165 242 242 
242 241 243 242 242 243 241 242 243 241 242 242 241 242 242 242 
243 247 244 245 246 244 246 245 247 246 246 244 244 246 246 244 
245 246 244 244 245 243 242 242 241 243 241 226 217 211 198 196 
163 196 243 241 242 240 242 240 242 242 243 242 242 242 242 241 
240 240 241 239 239 241 151 217 243 241 241 241 241 241 241 239 
241 240 241 240 239 240 238 241 241 240 240 238 239 241 240 239 242 187 207 241 
241 242 242 241 241 242 242 240 241 241 242 241 241 241 241 241 
242 242 243 243 242 243 244 243 243 243 243 242 242 242 243 244 
242 242 243 242 243 243 244 242 243 243 244 243 244 244 244 243 
244 242 241 241 242 241 241 241 241 241 242 242 241 242 242 242 
241 242 241 239 240 218 182 242 243 241 241 239 241 241 242 241 
240 241 239 241 241 241 241 241 241 241 241 241 240 240 241 239 240 236 158 235 
242 241 242 242 241 241 242 243 240 241 242 242 243 242 241 240 
240 241 242 242 242 241 242 242 242 241 241 242 242 242 241 241 
241 241 240 241 241 241 241 242 242 241 241 239 241 242 242 242 
243 242 240 241 242 241 241 241 242 241 241 241 242 243 241 241 
241 241 241 239 241 170 235 242 242 242 241 242 241 240 240 241 
241 241 240 241 240 241 241 240 242 241 241 240 241 242 241 240 240 242 211 180 
243 242 241 241 242 241 241 241 242 242 241 241 240 242 241 241 
242 241 243 241 241 241 241 243 242 242 242 243 243 242 242 242 
242 242 241 240 240 241 241 241 243 242 241 241 241 241 241 241 
240 242 242 241 242 242 243 242 242 243 242 243 243 243 239 242 
241 241 240 244 202 197 244 242 242 240 243 241 240 242 242 241 
240 241 241 241 241 241 240 241 241 240 240 241 241 240 240 240 241 239 244 200 
190 243 241 241 241 241 241 242 242 242 241 241 242 240 241 241 
242 241 240 241 241 241 242 242 242 242 243 243 242 241 241 241 
241 241 241 242 241 241 241 241 241 241 241 241 241 240 241 241 
240 241 241 241 241 242 242 242 242 242 241 242 242 243 242 241 
240 241 244 230 171 241 241 241 243 242 241 242 240 241 241 241 
240 239 240 241 239 239 241 239 240 239 241 241 241 240 241 241 240 239 241 244 
176 212 245 240 241 241 241 240 241 241 242 242 241 241 241 242 
242 240 241 241 242 243 242 241 241 242 242 242 241 242 241 241 
241 241 241 241 242 242 243 240 239 240 241 241 240 241 242 241 
242 241 241 241 242 242 242 242 241 241 241 242 242 242 244 241 
241 241 241 174 232 243 241 241 242 243 241 240 239 242 242 241 
241 241 241 240 240 240 240 241 241 240 240 240 241 240 240 240 240 239 240 242 
241 175 224 244 241 241 240 242 241 241 240 240 241 241 241 242 
241 242 241 241 242 241 241 242 242 242 241 241 242 244 242 241 
241 241 241 241 241 242 242 242 242 241 241 241 241 243 241 242 
241 242 242 241 242 241 242 242 241 241 241 243 241 242 240 241 
242 243 182 219 243 242 241 241 241 240 240 242 242 241 240 240 
241 240 240 241 240 240 240 241 241 241 240 241 238 241 240 241 240 239 239 241 
242 236 167 231 243 241 241 240 240 240 242 241 241 241 242 240 
241 242 241 240 241 241 242 240 241 241 241 242 240 242 243 241 
242 242 242 241 241 242 243 241 242 242 241 241 241 242 241 241 
240 241 242 242 241 241 242 242 243 242 241 242 242 241 240 243 
244 211 195 244 242 242 241 241 240 242 241 241 240 241 241 240 
241 240 239 240 241 240 241 241 240 241 241 239 241 240 240 240 239 240 239 241 
240 244 234 170 232 242 242 242 242 241 242 241 241 241 241 241 
241 241 241 240 241 241 242 241 242 242 242 242 242 242 241 241 
241 242 241 241 241 243 243 241 241 241 241 241 241 241 241 241 
240 240 242 241 241 241 242 241 240 242 241 240 242 241 242 244 
216 177 241 243 242 241 242 242 241 242 242 241 241 241 242 241 
240 241 240 239 239 240 240 240 241 239 240 241 240 241 240 240 240 241 240 240 
240 243 243 237 178 219 241 241 239 239 240 241 241 241 240 241 
240 241 241 240 242 242 242 242 242 242 242 240 240 242 241 241 
242 241 241 241 241 242 240 241 242 241 243 241 241 242 242 241 
241 240 241 242 241 241 241 242 241 241 242 241 241 241 245 232 
177 238 241 242 243 241 242 242 242 242 242 240 243 242 242 241 
241 241 241 239 240 240 239 241 241 241 240 240 240 241 238 240 241 241 240 240 
240 241 242 242 240 172 219 244 241 242 241 240 240 240 242 241 
242 241 241 240 240 241 241 241 241 241 242 241 242 241 242 242 
242 242 242 241 241 241 241 243 242 242 240 240 241 241 240 241 
242 241 239 240 242 240 240 240 240 239 240 240 244 243 230 191 
238 242 243 242 243 239 241 242 242 242 241 242 242 239 240 242 
242 241 241 239 239 240 240 239 240 240 240 241 240 239 240 240 240 240 240 239 
241 242 241 239 241 240 186 209 244 242 240 241 240 242 242 240 
240 241 241 240 241 239 241 241 241 240 240 243 241 242 242 241 
242 242 241 241 241 241 242 240 241 240 242 241 241 242 241 241 
240 241 240 240 241 240 240 240 239 240 241 242 245 206 189 240 
242 243 241 241 242 242 241 241 243 242 243 242 242 243 242 241 
242 243 242 238 239 240 241 240 241 241 241 241 241 241 242 239 240 240 240 240 
242 239 241 241 240 242 242 203 194 237 244 242 240 240 240 239 
240 240 240 240 240 240 240 240 241 242 241 241 241 241 241 242 
243 242 241 242 242 240 241 243 240 240 242 242 241 241 241 241 
240 240 239 240 240 241 239 240 241 242 244 241 177 216 244 243 
243 241 242 242 242 242 243 243 242 241 241 241 241 242 242 242 
244 242 242 238 239 240 240 240 240 240 240 240 239 241 241 240 241 239 240 240 
238 239 241 238 241 241 242 243 227 174 212 244 242 241 240 241 
240 240 240 239 240 241 240 240 241 240 239 238 241 240 241 240 
241 241 241 242 240 242 241 240 241 242 241 241 241 239 240 239 
239 239 239 240 240 240 242 241 242 232 225 171 220 243 244 242 
241 242 242 242 243 242 240 242 241 242 243 242 243 242 241 242 
242 242 242 238 239 240 240 240 240 241 239 240 240 239 239 241 240 240 241 240 
240 241 239 240 241 241 239 239 242 231 174 171 232 239 240 241 
241 240 240 240 240 240 239 239 239 241 240 242 240 241 240 241 
242 239 240 241 240 241 241 240 240 240 240 241 240 239 239 239 
238 240 239 239 242 239 244 239 213 171 139 232 244 242 241 241 
241 241 241 243 242 242 242 242 241 242 242 242 241 242 243 242 
242 242 242 238 239 239 240 240 240 240 240 239 241 240 241 239 240 240 240 240 
239 242 239 241 241 240 239 239 240 242 243 212 177 203 236 242 
241 242 240 238 238 237 240 240 240 239 238 240 241 242 240 241 
241 241 241 240 239 240 240 240 240 240 240 241 241 239 239 238 
239 238 240 240 241 244 228 192 195 227 238 242 242 241 242 240 
242 242 241 241 242 242 242 242 243 243 240 241 243 242 242 243 
243 243 242 238 239 238 240 240 240 240 239 240 240 240 240 242 241 240 240 240 
240 240 241 242 240 242 240 239 238 239 240 242 236 203 164 204 
240 243 241 240 241 241 239 239 239 240 240 240 240 239 240 239 
241 240 240 240 240 241 241 241 240 241 239 239 241 240 239 237 
240 239 240 241 222 184 173 219 240 241 244 243 241 241 241 242 
241 240 241 242 242 242 241 241 242 242 241 241 242 242 242 242 
241 242 242 235 239 240 239 240 239 240 238 240 240 239 239 240 240 239 241 239 
241 241 241 239 239 240 239 240 240 237 237 238 241 243 237 202 
172 200 236 245 244 241 240 241 240 240 240 240 239 240 240 240 
241 239 239 240 240 239 242 239 239 240 241 239 240 241 241 240 
241 242 236 196 178 215 242 244 243 242 241 240 242 240 241 241 
241 243 242 242 242 242 242 242 242 243 242 242 242 241 241 242 
243 243 242 236 238 240 239 240 241 240 240 240 238 239 240 240 240 239 240 239 
239 240 240 240 240 241 241 239 240 239 238 241 238 240 243 241 
241 213 170 187 214 239 241 241 244 241 241 240 237 241 240 241 
240 240 239 240 241 242 240 239 239 241 239 241 242 243 243 232 
218 180 168 200 236 244 243 242 242 241 241 241 241 240 241 241 
241 241 241 241 241 240 241 242 241 240 241 242 241 241 241 242 
241 242 242 237 238 239 239 239 238 239 239 241 238 239 237 240 240 240 239 239 
239 240 238 240 241 240 239 240 240 238 240 239 239 239 241 241 
241 242 242 228 192 173 186 212 230 242 244 243 242 241 239 241 
240 241 241 241 239 238 241 242 242 242 243 243 237 212 192 157 
184 215 239 242 241 241 240 241 240 240 240 240 242 241 241 241 
241 241 242 241 242 242 242 240 241 241 241 242 242 242 242 242 
242 243 242 237 237 237 238 237 238 239 239 238 239 238 241 241 240 240 239 239 
240 240 240 241 240 241 240 240 239 238 239 240 239 241 240 237 
238 239 241 242 242 241 236 211 189 179 171 169 191 219 226 226 
237 239 237 237 241 242 242 242 238 224 201 166 164 181 209 237 
244 245 241 241 241 240 241 241 241 240 243 241 241 242 241 241 
241 241 241 242 240 240 241 241 242 242 241 241 241 242 242 241 
242 242 241 236 239 239 237 239 239 239 239 239 239 237 239 239 239 239 240 239 
239 240 240 240 241 240 240 240 240 239 238 239 240 240 238 238 
238 239 239 240 240 239 240 241 242 240 241 230 183 166 155 123 
129 151 141 141 153 195 180 160 169 180 212 226 241 242 242 242 
241 240 239 240 242 241 240 241 242 240 240 240 241 241 240 239 
241 240 240 241 241 241 241 241 241 241 240 240 241 240 241 242 
242 241 242 235 237 238 239 237 237 238 239 239 239 237 239 240 240 240 239 239 
239 240 240 239 240 240 240 239 239 239 239 239 240 240 238 239 
240 239 240 240 239 240 238 240 241 241 242 242 243 241 242 242 
235 238 228 223 222 230 234 242 241 242 244 242 241 243 241 239 
241 240 240 240 239 240 241 240 241 240 241 240 242 241 242 242 
241 241 240 241 241 242 241 241 242 242 240 241 239 241 241 242 
240 240 241 239 238 237 238 238 239 238 239 239 239 238 239 239 239 240 240 239 
241 239 240 240 241 241 239 239 239 240 239 239 238 239 239 240 
241 240 240 240 239 241 240 241 239 239 239 240 241 241 239 241 
241 241 241 242 242 241 241 242 241 242 241 242 242 239 239 239 
240 240 241 240 241 239 241 241 241 241 240 240 240 240 240 241 
240 240 239 240 241 241 242 241 240 241 240 241 241 241 241 241 
241 241 241 236 238 238 236 238 237 239 239 239 237 238 239 237 238 240 238 237 
235 240 238 241 238 239 241 241 239 239 239 239 239 239 240 239 
240 239 239 240 240 239 240 242 240 240 239 240 241 239 238 240 
239 239 240 238 239 237 239 238 240 238 239 238 238 241 239 240 
240 240 237 241 240 242 239 241 240 240 241 240 241 241 239 240 
239 242 240 241 240 241 241 241 241 240 240 241 241 241 242 241 
241 242 242 236 236 237 237 237 237 237 238 236 238 237 239 239 239 240 240 240 
241 239 238 238 239 240 239 239 239 240 239 240 239 238 238 240 
239 240 239 240 240 239 240 241 240 240 239 240 240 240 239 238 
240 239 240 241 239 239 239 239 241 240 239 240 240 241 240 238 
241 238 241 241 239 240 240 241 241 240 241 241 240 241 239 241 
242 240 240 239 239 240 240 240 241 240 241 242 240 241 241 242 
240 241 240 237 236 237 238 237 241 238 238 238 236 237 238 238 237 238 239 238 
240 239 240 240 239 239 240 239 240 239 241 240 239 238 239 239 
239 239 238 240 238 240 239 240 240 240 240 240 240 240 237 239 
240 238 239 240 240 240 239 240 239 240 239 239 239 240 240 239 
239 240 241 240 241 240 240 241 241 242 241 241 241 241 243 242 
241 241 240 241 240 240 241 243 241 240 242 241 243 242 242 242 
242 242 242 