P2
# Created by IrfanView
100 100
255
236 238 236 236 235 235 234 236 238 235 234 234 235 237 235 235 236 
235 238 239 238 239 240 239 241 240 241 243 241 245 244 243 243 
243 241 240 240 240 239 240 240 243 243 246 244 245 245 244 245 
243 244 245 244 244 243 243 243 245 247 245 245 246 246 246 249 
247 246 247 247 247 248 247 247 247 246 247 247 245 246 246 245 
248 249 248 248 248 248 247 247 246 247 247 247 247 247 248 245 
245 246 246 236 236 235 234 236 236 235 235 235 236 236 236 237 238 236 236 235 
234 236 237 238 237 238 238 239 240 242 242 241 243 243 243 243 
241 242 240 241 241 241 241 243 244 244 245 244 245 245 243 246 
245 244 244 245 243 244 244 243 245 245 246 245 247 247 245 247 
248 247 247 247 246 247 247 248 246 246 247 247 246 247 247 248 
247 248 246 247 245 248 248 245 247 247 247 247 246 247 247 246 
245 246 246 235 235 235 235 236 235 236 235 237 237 236 236 236 237 237 237 236 
235 237 236 238 239 240 241 240 241 240 242 243 243 242 242 242 
242 241 241 240 241 242 242 243 244 245 244 244 245 245 245 244 
244 243 244 245 244 245 245 246 245 248 246 246 247 247 246 246 
247 247 247 246 245 246 247 246 246 247 247 248 246 247 246 246 
247 246 247 247 247 247 247 246 246 247 246 247 246 247 246 246 
246 246 246 236 235 235 236 235 235 236 235 236 236 236 237 235 237 238 237 237 
237 238 238 236 239 240 240 239 241 241 242 243 244 243 241 241 
241 242 243 242 242 241 243 242 244 243 244 245 243 244 243 245 
243 244 244 243 245 245 246 245 246 244 247 245 245 246 246 247 
248 247 247 247 246 247 247 247 246 248 246 246 248 246 245 247 
247 245 246 248 247 247 246 247 246 247 247 245 245 246 246 246 
246 246 245 238 235 234 234 235 236 236 235 236 236 237 237 236 236 239 238 238 
236 238 238 239 238 237 238 240 239 241 240 242 241 242 242 243 
241 240 241 240 240 241 240 240 242 244 244 244 245 245 244 243 
244 243 246 243 244 243 243 244 245 247 246 246 247 245 245 246 
248 247 247 247 247 247 248 248 248 247 248 248 247 247 247 246 
246 247 247 247 246 246 246 246 246 246 246 246 246 244 247 246 
246 246 246 236 235 235 234 234 234 235 233 233 235 236 236 238 237 238 235 235 
236 236 239 238 237 238 235 240 241 240 240 241 242 241 240 241 
240 242 239 241 241 241 242 242 243 245 245 245 245 243 244 245 
245 248 247 245 247 244 245 245 244 244 245 244 246 248 247 247 
247 248 246 246 247 247 247 247 248 248 248 248 248 246 247 247 
247 247 246 247 247 247 248 246 247 248 246 244 245 246 246 246 
246 245 246 236 235 236 235 235 234 234 235 234 236 238 236 237 237 237 237 235 
235 237 238 238 237 237 239 240 240 241 240 240 241 240 241 241 
239 239 240 240 240 240 239 242 242 243 245 246 247 244 243 240 
241 239 242 242 242 246 245 245 245 247 245 244 245 246 245 246 
246 247 247 248 247 247 247 245 247 247 247 246 245 246 248 247 
248 247 246 246 246 246 247 246 247 246 247 246 244 246 246 246 
246 246 247 236 236 235 235 237 233 235 234 235 236 235 237 239 237 238 238 236 
234 238 239 237 238 239 239 239 240 238 240 239 239 241 239 239 
239 238 239 240 241 242 243 241 236 216 198 189 187 184 177 175 
170 160 162 165 167 185 189 199 214 226 244 245 247 245 246 247 
247 246 247 247 247 248 246 245 248 247 247 247 247 247 247 247 
245 246 247 246 246 246 245 245 246 246 245 244 244 245 246 245 
245 245 245 236 237 236 234 233 235 235 236 235 237 237 237 239 239 239 238 236 
237 238 238 237 238 237 237 238 240 240 240 240 239 239 239 240 
239 241 243 237 235 199 187 168 181 184 204 218 237 237 239 242 
245 243 245 241 237 237 227 208 191 184 179 174 204 227 242 246 
246 246 246 246 247 247 247 248 246 247 247 247 246 247 246 247 
247 245 247 247 246 245 246 245 245 246 245 244 243 244 245 246 
246 245 246 235 236 236 234 233 235 235 235 235 236 236 237 240 238 237 239 238 
237 237 237 237 237 237 237 238 240 238 239 239 238 238 240 241 
244 228 205 155 156 179 227 229 243 246 247 247 247 246 246 246 
248 247 246 246 246 245 246 248 248 250 244 235 211 183 167 220 
241 243 250 248 248 246 246 246 247 247 248 247 246 247 246 247 
246 246 246 247 246 246 246 247 245 245 246 246 243 243 245 245 
245 246 246 237 236 237 236 236 235 234 232 233 237 237 237 238 238 240 240 236 
235 240 238 239 238 238 238 239 238 238 238 237 239 240 241 232 
188 164 175 211 237 246 244 244 245 245 245 244 245 244 244 244 
245 245 244 244 243 244 243 244 245 245 248 247 247 249 244 206 
184 197 227 244 248 248 248 246 245 247 248 246 246 245 247 247 
245 245 247 246 246 246 246 245 246 246 246 244 245 245 245 247 
245 246 246 238 237 236 236 237 236 235 235 234 237 236 237 238 239 237 238 238 
237 239 239 239 238 237 239 239 238 238 240 239 242 225 183 160 
199 228 242 241 241 241 241 240 242 244 243 244 245 242 243 244 
243 243 245 244 243 244 246 244 245 245 246 244 245 246 247 251 
240 215 183 181 216 244 246 245 247 244 246 246 244 244 246 245 
245 246 246 247 246 246 246 245 245 245 244 243 245 244 245 245 
247 247 244 240 236 236 236 236 237 236 234 231 235 235 235 236 237 238 240 238 
239 239 238 238 239 238 239 239 237 240 242 228 184 155 192 237 
244 242 242 241 240 241 240 239 241 242 244 244 245 244 245 245 
245 244 244 244 243 243 245 244 246 246 245 246 246 244 245 246 
247 248 242 224 196 183 228 245 249 247 246 246 247 244 246 245 
246 246 244 245 246 245 245 246 245 245 246 245 245 244 244 245 
245 246 246 239 239 239 236 236 237 237 236 234 236 236 236 236 237 238 239 238 
239 238 239 238 237 235 239 243 243 240 202 143 190 237 244 245 
242 242 241 242 241 240 240 241 242 242 243 245 245 244 244 245 
244 245 244 246 244 245 244 244 245 244 244 244 245 245 245 245 
243 244 246 249 248 223 184 185 230 246 247 245 246 246 246 247 
245 246 244 246 246 246 246 245 245 245 243 244 244 245 245 244 
244 245 246 239 241 239 238 237 236 239 238 237 236 237 235 237 237 239 239 238 
238 238 238 238 238 236 223 208 222 179 160 221 243 243 243 243 
243 241 241 241 242 242 241 243 243 243 243 244 244 244 243 244 
244 245 245 245 244 245 245 246 246 245 243 244 245 246 245 245 
245 245 245 246 247 247 248 219 183 199 241 246 246 244 245 245 
245 245 245 246 247 245 245 245 246 245 244 243 244 243 244 245 
243 245 244 238 239 237 237 239 238 239 238 237 238 239 238 238 238 238 238 238 
237 238 239 240 239 238 186 70 138 218 245 245 243 242 242 242 
242 241 242 241 239 241 240 242 243 242 244 244 245 244 244 244 
245 245 245 245 246 246 246 245 245 244 245 245 244 246 245 244 
245 245 245 246 247 244 246 248 239 200 189 241 247 247 245 243 
244 245 245 245 245 244 245 245 245 245 245 243 244 243 244 244 
243 244 245 240 240 239 237 240 241 242 240 240 240 241 239 241 239 239 239 238 
239 238 237 238 238 225 152 166 238 243 241 241 242 241 241 242 
242 243 242 241 240 240 241 242 243 241 241 243 244 244 244 244 
245 245 245 246 243 245 245 247 247 247 246 246 247 246 247 247 
245 245 245 246 247 245 247 245 248 246 210 185 219 244 247 246 
245 244 245 245 243 245 243 244 244 243 244 243 243 244 244 244 
243 243 243 240 241 241 239 239 242 239 242 241 240 239 239 240 241 240 240 240 
239 237 238 240 221 163 222 247 243 243 243 243 243 243 242 242 
242 242 242 241 242 240 238 241 240 241 242 243 243 243 245 244 
245 245 244 244 245 244 245 245 245 246 246 247 246 246 246 247 
245 245 246 247 246 245 245 246 246 245 248 235 189 210 243 246 
246 245 244 245 244 245 245 244 243 244 243 244 244 244 243 244 
244 244 243 241 241 242 242 241 243 239 240 238 240 240 239 240 239 239 240 241 
237 238 239 224 173 233 242 242 241 243 243 243 243 243 243 242 
243 243 243 242 241 239 241 239 240 242 243 245 244 243 244 243 
245 245 245 244 245 246 245 244 244 246 246 246 246 246 246 245 
246 246 245 245 245 245 245 246 245 244 245 247 237 200 189 239 
246 245 245 244 244 244 244 243 243 243 243 244 243 243 243 242 
243 244 243 237 241 240 240 241 240 241 238 240 241 240 240 239 239 239 240 237 
239 240 227 178 241 242 242 242 243 243 244 243 244 243 243 243 
243 242 242 243 241 241 241 240 242 241 242 244 242 243 245 244 
243 245 245 245 245 245 245 244 245 245 246 245 246 247 246 246 
245 246 246 246 245 245 245 245 244 244 243 246 245 246 210 192 
239 247 245 244 245 243 244 243 243 243 244 243 243 243 243 244 
243 242 240 239 240 242 241 240 242 240 240 241 240 238 238 239 240 238 239 239 
242 226 179 238 243 241 243 242 242 243 243 244 244 242 243 245 
243 242 242 242 242 242 242 241 241 241 240 242 243 243 246 247 
246 245 246 245 244 245 244 245 244 245 245 246 246 245 246 246 
246 246 245 246 246 248 246 246 244 243 245 246 246 246 249 211 
192 240 247 245 245 244 244 244 245 244 244 244 243 244 244 242 
244 244 242 240 240 240 240 240 240 239 239 239 238 238 238 236 237 237 238 240 
231 178 237 242 240 239 243 243 243 245 244 244 245 243 244 243 
242 242 243 243 242 243 242 241 241 241 240 241 245 244 245 245 
245 244 246 245 244 243 245 244 244 245 245 246 245 246 246 246 
245 246 245 246 246 245 246 245 244 244 244 245 245 243 246 247 
206 178 237 245 244 244 243 244 244 243 245 243 242 243 242 243 
241 244 242 240 238 240 241 240 240 240 239 238 238 239 237 238 237 238 240 227 
179 230 240 239 240 240 243 243 243 243 244 245 241 243 244 243 
243 243 242 243 244 242 243 242 241 243 244 246 245 245 245 246 
244 244 244 246 245 245 245 244 244 246 245 246 244 245 246 247 
245 244 244 245 245 246 244 244 246 244 244 244 244 244 245 246 
246 196 189 241 246 244 245 245 245 243 244 245 243 243 243 243 
243 243 243 240 240 240 241 239 240 240 238 238 238 236 236 236 237 236 215 172 
210 244 241 242 242 240 242 242 244 244 245 243 244 245 244 244 
244 243 243 243 242 242 241 242 242 244 243 245 245 245 246 244 
247 246 245 246 245 245 245 245 246 245 246 244 245 246 245 245 
246 246 245 245 245 245 244 243 244 243 245 242 241 242 243 244 
245 243 195 199 243 243 244 244 244 244 244 243 243 243 243 243 
243 241 242 240 240 240 240 240 238 239 239 238 239 238 237 236 236 221 178 197 
243 241 242 241 241 242 241 242 242 242 243 242 243 244 242 243 
243 242 243 243 243 242 242 244 245 244 244 246 245 246 244 245 
246 246 246 245 245 244 246 246 246 246 246 245 245 245 246 245 
245 246 246 245 245 245 244 244 244 246 244 244 243 243 243 243 
244 244 244 177 213 244 244 245 244 245 242 243 242 243 243 243 
243 243 242 240 240 240 238 240 239 239 237 238 238 238 238 236 234 185 169 243 
245 243 240 242 242 243 242 242 242 242 242 244 244 243 244 244 
244 242 242 244 244 243 243 243 243 245 246 246 246 245 246 244 
245 247 244 247 246 244 244 245 245 246 246 245 246 248 246 246 
245 245 244 246 245 246 245 245 244 245 243 243 244 244 243 243 
243 244 246 243 174 230 246 245 244 245 245 244 245 244 242 243 
242 244 242 239 238 239 240 240 239 239 238 238 238 238 238 239 196 156 224 244 
242 240 242 241 241 242 241 242 241 243 241 244 244 244 244 243 
243 242 243 243 243 243 242 242 244 243 245 246 245 245 244 245 
246 246 248 245 246 246 246 245 245 245 245 246 245 245 245 246 
246 245 245 244 245 245 244 245 244 244 244 244 244 243 242 242 
242 243 244 248 222 170 240 245 243 242 245 243 243 244 244 243 
244 242 241 240 240 240 239 239 238 240 238 237 240 239 239 226 151 210 244 243 
242 242 242 242 241 241 239 241 241 242 242 242 243 242 243 243 
242 242 243 244 242 243 242 244 242 243 244 244 245 244 245 246 
247 246 245 246 246 246 245 244 245 246 247 246 247 246 245 245 
245 245 245 246 245 245 245 245 245 247 246 244 245 243 244 243 
244 243 244 245 249 184 209 244 245 245 246 245 244 243 244 243 
244 242 241 239 240 240 238 237 239 239 237 236 237 237 236 172 175 243 241 243 
242 242 242 242 242 242 243 241 240 242 244 243 243 243 243 243 
243 241 241 243 243 243 242 241 244 243 244 243 244 244 242 246 
248 247 247 247 245 246 246 245 245 246 246 246 245 245 246 245 
244 245 244 244 246 243 243 245 246 244 242 244 244 245 243 243 
242 243 243 244 245 243 164 228 246 244 245 243 245 242 242 243 
244 243 241 239 239 239 238 237 239 240 238 238 237 237 223 143 241 245 242 243 
244 241 241 240 241 241 241 240 242 242 241 243 243 243 243 242 
242 242 243 244 243 243 243 243 243 245 245 244 244 243 245 245 
246 245 247 245 246 247 246 246 246 245 245 245 245 246 245 245 
245 243 244 243 243 245 244 244 245 246 246 246 245 244 245 245 
245 243 243 244 243 246 211 170 243 245 244 243 244 243 243 243 
245 244 242 240 238 238 238 239 239 240 238 238 236 236 169 215 245 243 243 242 
242 242 240 239 240 241 242 244 242 242 243 241 241 243 244 242 
242 242 243 243 243 242 243 243 243 244 245 244 245 244 245 246 
247 246 246 245 245 245 245 246 245 245 245 244 245 245 246 244 
243 245 244 244 244 243 245 246 245 245 246 244 244 244 243 244 
243 245 244 242 243 241 245 174 220 243 244 245 243 243 244 242 
244 241 240 238 238 240 237 239 241 240 238 239 239 219 174 245 242 242 243 241 
241 241 242 241 240 242 241 243 244 242 242 241 242 243 242 243 
242 242 243 242 243 242 241 243 243 241 241 242 243 243 245 246 
247 245 246 247 246 246 245 245 244 244 245 245 244 244 244 245 
244 243 246 244 242 244 245 234 207 193 247 245 243 243 243 243 
246 244 243 243 241 242 245 222 173 241 241 242 245 245 246 244 
243 242 240 239 240 239 241 239 238 238 238 238 235 173 230 239 241 243 242 241 
241 240 239 239 238 230 212 217 232 241 242 242 243 243 243 244 
243 242 242 241 239 242 242 243 243 242 244 245 245 244 245 246 
246 246 246 245 245 245 245 245 245 244 245 245 244 244 244 243 
244 244 245 246 244 232 186 142 156 196 246 245 244 244 243 245 
245 243 242 241 241 241 242 245 169 227 242 244 243 244 244 244 
243 242 241 239 241 239 239 238 237 238 239 236 220 167 247 243 242 242 242 242 
242 239 240 241 240 237 170 160 154 172 187 200 208 232 236 242 
243 243 242 241 242 242 243 242 242 242 242 243 245 243 243 245 
245 245 246 245 245 246 245 245 245 244 244 241 243 243 242 244 
243 247 245 224 191 170 187 229 247 247 244 245 244 244 244 245 
245 243 243 242 243 242 243 245 202 192 239 243 244 243 243 241 
242 242 241 239 240 239 239 239 238 236 236 237 162 201 240 243 243 242 243 242 
242 241 239 240 239 240 244 242 236 225 213 191 176 164 148 158 
169 201 229 239 238 239 242 242 241 239 242 245 244 242 245 245 
246 246 245 245 246 245 244 245 244 243 245 244 243 245 244 244 
243 227 188 163 197 235 247 248 248 244 246 245 246 244 244 244 
243 244 243 241 241 243 242 241 240 165 236 243 242 242 242 245 
243 240 240 239 238 238 238 239 239 237 236 231 133 236 240 243 243 242 242 242 
242 242 241 241 241 238 242 241 242 243 244 246 245 244 246 229 
207 175 156 156 161 209 233 242 241 240 241 244 245 244 244 244 
245 245 245 244 244 244 244 242 243 244 244 244 245 243 237 206 
168 167 208 240 250 247 247 247 244 245 244 243 246 243 244 244 
242 243 243 243 242 243 243 244 244 182 209 243 243 242 244 242 
242 239 240 239 239 238 239 238 240 239 238 236 188 243 242 243 242 243 244 242 
242 241 241 241 241 241 240 241 240 240 240 241 240 243 245 245 
243 247 241 230 195 133 126 238 241 243 240 242 243 245 244 245 
246 245 244 244 245 244 244 243 243 243 245 246 237 194 172 160 
218 241 247 247 244 244 244 244 244 244 245 246 244 245 244 244 
243 243 240 241 242 242 241 243 242 221 180 245 241 243 243 242 
244 241 240 240 240 238 237 239 238 237 238 226 187 242 241 240 241 243 243 241 
242 244 242 241 240 241 239 240 240 237 240 239 240 243 243 241 
241 242 242 244 245 242 198 241 242 243 242 244 242 244 243 241 
244 245 245 245 246 246 243 243 242 247 241 210 158 166 215 243 
245 245 245 245 245 245 245 245 244 245 243 243 243 243 243 245 
244 243 243 243 242 242 242 243 242 244 164 243 243 242 241 240 
242 242 243 239 237 238 239 238 237 236 235 207 181 242 242 243 242 243 242 243 
242 241 241 241 240 240 241 240 239 239 238 239 240 238 235 242 
243 241 241 241 240 242 242 241 241 240 243 243 243 243 241 243 
245 246 245 245 246 245 244 245 242 226 176 175 220 243 244 242 
242 243 244 245 245 245 245 246 245 244 245 243 243 243 243 243 
244 244 242 243 243 241 243 241 241 244 183 220 243 243 240 241 
241 240 239 239 239 238 238 239 237 235 236 160 227 241 242 243 244 242 241 242 
242 242 243 242 240 240 241 241 238 240 238 236 228 151 112 194 
242 243 241 242 241 242 241 240 239 241 241 244 242 243 242 242 
244 245 244 244 244 245 244 244 245 190 218 248 247 243 240 240 
243 210 226 246 245 245 244 244 245 244 245 244 244 244 244 243 
243 243 243 243 242 241 242 242 242 243 208 193 244 242 241 243 
240 238 238 239 238 237 237 238 237 236 231 185 244 241 241 243 243 242 242 241 
241 243 244 240 241 241 240 241 238 239 239 237 186 107 93 141 
226 243 243 242 242 240 241 241 241 241 242 242 240 243 243 243 
244 245 246 244 247 245 243 244 245 244 247 246 245 242 239 241 
205 136 116 182 247 245 246 245 245 243 244 244 244 244 244 244 
243 243 243 243 243 243 242 242 244 243 234 170 243 240 241 241 
239 237 235 238 238 238 237 235 237 235 212 217 241 240 242 243 243 243 241 243 
242 242 240 241 241 241 239 239 240 235 238 226 128 97 93 121 
208 242 241 242 242 242 240 242 242 242 243 244 243 242 243 243 
242 245 244 245 243 244 243 245 244 245 242 243 244 242 241 231 
100 87 99 134 237 245 244 245 244 245 244 245 243 243 244 244 
243 243 243 243 242 243 242 242 243 242 247 165 242 242 239 241 
238 237 237 238 238 237 237 237 236 236 200 229 241 241 241 242 242 243 242 242 
241 241 241 240 241 241 240 240 238 235 234 165 145 115 150 130 
205 242 244 243 241 242 242 240 239 240 240 242 244 244 245 243 
244 245 244 245 244 244 245 244 244 243 244 245 245 244 245 176 
96 131 121 133 234 246 245 245 244 244 245 245 245 244 244 243 
243 243 243 243 242 242 244 243 242 242 247 173 239 242 241 239 
240 239 240 238 239 239 236 236 236 232 194 241 240 239 243 242 242 242 242 242 
242 241 241 241 240 239 241 238 238 237 228 134 153 107 167 132 
219 245 243 244 242 241 241 240 240 243 242 241 243 244 245 245 
243 244 244 244 244 245 245 245 243 244 244 244 244 243 240 136 
115 116 113 124 242 243 244 245 245 244 244 244 245 245 244 243 
243 243 245 243 243 243 243 242 242 240 246 181 227 242 240 241 
243 242 240 239 239 236 236 235 235 233 194 242 239 241 241 242 243 241 241 241 
242 242 241 241 241 240 240 240 237 236 219 129 112 108 137 138 
234 243 241 242 242 243 243 242 240 242 241 241 243 243 245 244 
244 244 244 245 246 244 245 244 244 242 245 244 243 243 235 100 
108 111 124 140 245 245 244 244 244 244 243 244 243 246 243 244 
244 244 243 242 242 241 242 242 242 241 243 183 231 243 243 241 
240 243 243 238 238 239 237 235 236 230 192 243 241 242 241 241 242 242 242 240 
241 241 240 241 240 239 240 237 240 239 184 133 117 108 118 150 
243 244 242 243 243 242 242 241 241 243 240 240 245 245 247 246 
246 245 247 246 245 246 244 244 244 245 244 242 241 242 232 105 
102 117 122 167 247 245 245 245 244 245 244 244 244 245 244 244 
244 244 244 243 241 241 242 242 242 240 243 188 210 241 243 244 
244 240 245 238 238 239 237 235 238 220 200 242 237 242 241 242 241 243 242 242 
241 241 240 241 241 240 240 239 239 240 188 144 116 99 105 177 
244 244 243 243 242 242 240 244 243 242 241 241 242 245 245 246 
245 245 245 244 244 245 245 245 245 245 244 245 242 243 231 105 
100 102 109 220 245 245 245 245 245 244 244 243 244 242 245 243 
243 243 243 242 242 242 241 241 241 240 244 193 194 244 241 243 
243 243 241 237 238 239 237 236 237 209 215 241 241 242 240 242 243 242 243 242 
241 242 241 242 240 240 240 240 239 239 222 147 108 94 112 213 
241 242 244 243 244 242 241 240 240 242 241 242 242 245 245 244 
244 245 244 245 245 245 245 244 243 245 245 244 242 242 230 100 
102 97 116 237 245 244 244 245 244 244 244 244 242 243 242 243 
243 243 242 241 243 242 242 241 242 241 242 196 212 242 239 243 
242 243 242 239 237 237 237 236 236 206 238 242 241 242 241 242 243 242 242 242 
242 242 241 240 241 240 239 240 240 239 243 210 114 96 147 239 
243 243 243 241 242 243 242 242 243 241 241 241 241 245 246 244 
244 245 245 244 246 245 245 245 245 246 244 243 243 243 231 112 
92 102 177 249 245 245 245 245 243 244 243 244 244 243 243 243 
243 242 243 241 242 242 241 241 244 242 242 196 206 241 243 243 
241 241 245 238 239 237 237 236 238 203 239 239 244 243 241 240 241 244 242 242 
242 241 243 239 240 240 240 240 239 238 239 246 203 150 213 242 
243 242 243 243 242 241 243 242 242 242 241 240 238 244 246 245 
246 246 246 245 246 245 243 245 247 245 244 244 243 244 245 142 
95 135 236 246 244 245 243 242 245 244 244 243 244 243 242 242 
242 242 242 243 242 243 242 242 241 240 240 193 216 242 243 242 
242 244 243 238 237 236 236 237 239 201 238 239 240 241 241 241 243 243 242 243 
243 241 240 240 241 240 239 239 240 240 240 242 245 245 244 244 
243 243 242 243 241 244 243 242 242 242 242 242 239 244 245 244 
246 245 244 246 246 245 246 246 245 245 245 244 245 245 247 228 
164 216 247 244 244 245 245 246 244 242 243 244 243 243 242 242 
242 243 243 241 244 243 243 242 240 238 242 193 220 242 241 242 
243 245 246 239 238 238 236 238 236 198 239 238 241 240 240 241 242 244 242 242 
243 241 243 242 241 240 241 241 239 238 241 240 242 244 242 242 
243 243 244 242 242 243 242 242 242 241 242 242 239 242 244 246 
246 245 246 246 245 245 245 246 245 246 246 245 245 244 245 248 
247 246 246 245 245 245 244 243 244 245 243 244 243 242 242 242 
243 241 242 242 241 242 242 245 241 240 241 184 219 242 242 243 
243 245 245 238 240 237 238 239 239 202 240 237 241 240 241 241 241 242 243 243 
241 242 241 241 242 242 242 240 240 239 240 241 241 242 242 242 
241 242 243 243 243 243 241 243 242 241 240 241 238 241 244 245 
247 247 245 245 246 246 248 247 247 245 246 245 245 245 245 245 
248 246 245 245 245 245 244 244 243 242 244 242 242 243 242 242 
242 242 242 243 242 241 242 241 243 241 241 176 221 243 242 243 
243 244 244 240 237 238 238 238 236 198 237 237 239 239 241 242 241 241 243 243 
243 243 241 241 241 240 240 240 241 241 242 242 242 241 234 243 
243 242 243 244 243 243 240 241 242 241 241 240 239 240 243 245 
245 247 247 247 246 247 246 246 245 246 245 245 246 244 246 244 
245 244 244 244 245 245 245 244 243 243 242 243 242 244 242 241 
241 242 241 241 242 242 242 239 242 240 238 164 231 242 242 243 
244 245 244 238 239 238 238 239 233 196 240 238 238 241 241 241 241 243 243 242 
241 242 242 240 240 238 239 241 241 238 241 242 243 242 241 244 
243 243 243 243 242 243 244 242 243 242 241 240 240 240 243 246 
246 246 246 245 246 246 246 245 245 246 244 245 245 245 245 244 
244 244 244 245 244 245 244 244 244 243 243 244 244 243 243 242 
241 241 241 242 241 242 241 240 241 240 241 154 237 243 241 244 
244 245 245 239 240 238 238 237 232 194 236 237 239 240 240 241 240 244 244 242 
243 241 241 241 241 239 241 241 241 241 241 242 242 241 242 242 
243 245 243 244 243 243 244 242 242 243 242 241 241 239 241 245 
248 246 246 247 246 246 246 247 245 246 246 244 247 245 246 244 
245 243 245 245 245 245 245 243 245 243 242 242 242 241 243 242 
241 240 241 241 240 240 240 240 243 241 236 153 242 241 241 244 
245 245 245 239 240 238 237 240 236 188 232 240 240 242 241 242 241 241 242 241 
242 243 243 242 240 241 241 240 240 241 242 243 243 243 242 242 
242 243 243 244 243 242 243 244 244 242 242 242 241 238 239 244 
246 246 247 246 246 245 246 245 245 245 245 245 244 245 244 244 
245 245 245 246 245 244 245 244 244 244 243 242 242 244 241 241 
241 242 241 240 240 240 241 239 242 242 220 180 243 243 241 242 
244 245 245 240 238 238 238 238 238 188 224 239 240 240 240 241 242 243 243 243 
243 242 241 240 240 241 240 240 241 241 243 243 243 242 244 244 
242 243 242 241 243 242 242 241 243 243 242 243 241 241 239 243 
248 248 246 247 246 246 246 246 245 246 245 245 245 245 244 246 
245 245 244 244 245 244 245 244 245 244 243 243 241 242 241 242 
242 239 241 241 239 240 239 238 239 241 189 204 241 243 242 245 
245 245 245 240 240 240 238 237 238 204 228 241 239 241 242 241 241 242 242 241 
242 243 244 241 240 238 242 240 242 240 243 243 242 243 243 243 
243 243 244 243 242 241 241 243 245 245 243 243 242 241 238 241 
246 246 246 245 247 246 246 246 244 244 245 245 246 245 245 245 
244 244 245 244 244 244 244 243 244 242 242 244 244 245 242 240 
242 241 239 239 241 240 240 239 240 241 163 228 242 240 243 246 
245 244 246 237 238 239 241 239 238 224 222 239 239 240 239 240 242 242 242 243 
243 242 243 243 241 240 241 240 241 243 243 244 243 243 244 242 
243 244 243 243 243 243 243 244 244 243 244 244 244 239 241 239 
243 248 247 247 246 245 246 245 246 245 245 246 245 245 245 244 
244 244 245 243 243 244 244 243 244 244 243 243 242 242 242 241 
240 239 239 241 238 240 239 240 239 240 160 242 243 243 245 245 
244 245 245 241 239 239 239 239 240 235 210 240 240 238 239 241 242 242 243 242 
242 242 240 241 241 240 239 239 241 242 244 244 244 244 244 244 
244 244 244 244 241 244 242 244 243 243 244 242 242 242 241 241 
241 242 247 246 246 246 245 245 245 244 245 245 245 245 245 246 
244 242 243 245 244 244 243 243 242 243 243 242 243 242 241 241 
239 241 240 241 240 238 238 239 239 212 185 245 243 244 244 245 
244 245 245 241 241 239 239 241 239 238 206 241 241 242 241 241 241 240 241 243 
242 242 242 241 241 239 238 239 241 242 242 243 244 243 244 244 
244 244 242 244 244 244 243 243 244 244 244 245 243 245 242 243 
242 243 244 243 245 246 247 246 246 246 245 244 245 245 245 245 
245 245 246 244 244 242 244 243 243 243 241 241 242 241 241 241 
241 239 240 241 242 241 239 241 241 180 220 241 242 244 245 245 
245 245 245 239 239 239 238 239 240 239 206 239 241 242 241 241 240 241 242 243 
242 242 240 239 240 241 238 240 241 242 243 243 243 243 242 243 
244 243 243 243 244 244 245 242 243 244 243 243 243 243 242 243 
243 242 243 244 245 247 246 245 245 245 246 245 245 245 244 244 
244 245 244 245 243 246 243 244 243 241 241 241 241 241 241 240 
239 241 240 239 240 239 239 239 241 170 243 244 244 244 244 245 
244 243 244 241 241 241 240 239 239 238 216 226 240 241 240 241 239 240 243 242 
241 241 241 241 241 241 241 240 242 243 243 244 243 242 243 244 
243 244 242 244 244 242 244 243 245 244 245 244 245 244 244 243 
243 244 245 244 244 246 245 246 245 245 246 246 245 244 244 244 
244 244 245 241 244 244 244 244 242 241 241 240 239 240 241 240 
241 239 239 240 241 239 241 239 220 192 244 243 242 244 244 244 
244 244 245 240 241 239 239 238 238 239 232 206 242 242 241 241 242 240 243 242 
243 242 242 243 241 240 240 242 244 243 242 244 245 243 243 244 
244 244 244 243 244 245 244 244 243 245 245 244 244 245 242 243 
245 245 245 242 244 245 244 245 245 246 245 244 245 246 244 244 
245 245 246 245 244 245 243 243 243 240 239 240 240 240 239 239 
239 239 239 240 239 240 240 241 181 230 244 244 242 243 244 246 
245 245 244 239 241 238 238 237 238 239 241 199 245 242 242 241 242 242 243 243 
244 243 241 242 241 242 240 243 243 242 241 242 243 243 241 245 
244 245 245 244 245 244 244 245 244 245 244 243 243 244 245 244 
245 244 245 244 246 245 243 245 243 244 244 244 244 244 244 245 
245 244 246 244 246 244 244 244 243 243 242 240 240 241 239 240 
240 241 240 238 239 241 240 235 169 245 244 245 243 244 245 244 
245 244 245 241 239 239 239 238 237 239 240 213 221 242 242 243 242 243 244 243 
243 243 242 241 241 241 240 240 242 243 243 243 242 243 243 244 
243 244 245 245 242 242 244 244 244 245 244 243 244 243 245 243 
244 245 244 245 244 245 244 244 246 244 243 244 245 243 243 244 
244 245 245 244 244 245 244 243 243 242 241 239 240 240 239 241 
239 240 239 237 239 240 241 199 197 244 243 244 242 244 245 246 
243 245 245 239 241 240 238 239 240 238 237 232 191 242 242 241 243 243 244 244 
244 243 242 243 242 241 240 241 240 243 244 242 243 243 243 243 
242 244 242 243 245 242 244 245 244 242 243 244 244 244 244 244 
245 245 245 245 245 245 245 245 244 245 244 244 245 245 244 244 
246 244 245 244 244 244 243 243 242 240 241 239 240 239 240 238 
239 240 238 237 240 239 241 165 241 244 244 244 244 245 244 243 
244 245 245 238 238 240 240 238 239 239 237 243 197 240 242 243 243 244 245 245 
245 242 243 243 242 240 242 241 241 243 243 244 245 245 244 245 
245 243 244 243 243 243 241 243 244 245 246 245 243 245 245 245 
244 244 246 245 245 244 244 244 245 245 244 243 244 245 243 244 
245 245 246 244 245 243 244 244 244 243 239 239 240 240 238 239 
239 238 237 239 238 241 204 183 244 245 244 245 245 245 244 244 
245 243 245 239 239 240 239 239 238 238 238 240 221 214 243 244 244 244 245 245 
243 244 243 241 242 242 241 241 242 244 244 243 243 243 244 243 
244 243 244 243 244 243 244 244 244 245 242 245 246 244 241 245 
247 245 245 245 246 245 245 246 245 244 244 244 243 241 244 244 
243 244 243 244 244 245 244 243 243 243 241 239 238 237 238 237 
239 238 238 235 238 233 153 235 241 242 245 242 245 245 245 244 
243 243 244 242 241 239 241 240 238 238 242 239 241 193 243 242 243 245 245 243 
244 243 244 245 243 243 243 241 241 243 245 243 241 242 243 242 
242 242 242 243 245 243 238 233 220 209 200 196 197 191 210 228 
231 239 239 245 244 247 245 246 244 242 242 244 244 244 244 244 
244 244 243 243 244 243 244 245 245 243 244 240 238 237 239 238 
238 238 239 235 239 183 200 245 239 242 244 245 245 244 244 244 
244 244 244 241 242 241 240 241 241 239 239 239 241 222 214 246 244 245 245 244 
243 245 244 244 243 242 242 243 242 242 242 243 243 242 241 243 
245 245 244 234 205 167 167 162 177 187 193 202 192 188 167 152 
157 168 149 184 199 224 242 249 246 245 243 242 242 243 244 244 
242 244 244 244 244 242 243 244 246 245 244 241 239 238 238 237 
236 239 239 237 228 151 237 242 243 244 243 244 245 244 243 244 
246 243 242 241 242 241 241 243 241 239 239 240 239 242 197 241 244 244 246 244 
243 244 243 243 243 240 240 243 241 243 241 242 242 246 245 242 
235 227 194 159 167 198 230 243 247 247 250 246 247 250 250 242 
242 230 219 203 193 171 196 217 236 245 248 245 244 242 242 243 
242 243 244 243 241 240 240 239 241 242 241 237 240 238 237 235 
236 237 235 239 166 221 241 240 240 242 245 244 244 244 244 244 
243 243 244 241 242 240 240 242 240 238 240 238 239 239 229 215 245 245 246 245 
244 244 243 243 241 241 242 243 244 242 243 241 242 242 235 190 
149 170 193 230 249 248 247 248 247 244 244 243 246 246 246 246 
246 245 248 247 247 243 208 175 163 168 219 244 245 243 244 244 
244 243 242 243 241 240 241 240 241 240 238 236 236 236 237 236 
238 238 239 208 173 241 238 243 241 243 244 244 244 245 244 244 
243 245 244 242 243 242 243 241 240 241 239 240 239 237 237 203 232 245 246 245 
244 245 244 243 242 243 243 243 243 242 241 241 235 193 172 193 
228 246 250 247 248 245 245 245 245 244 244 245 245 244 243 244 
245 245 246 245 246 245 249 249 235 202 157 174 240 243 243 243 
243 242 242 242 242 239 239 239 240 239 238 239 239 236 237 237 
238 239 226 164 229 240 242 242 241 242 244 244 243 243 245 245 
245 245 244 242 242 242 243 241 241 242 240 240 240 239 241 238 198 246 246 245 
244 244 245 242 243 243 243 244 242 243 242 242 199 174 239 247 
249 245 246 246 245 244 244 245 246 246 245 246 245 246 244 244 
245 244 244 245 244 246 245 246 247 248 238 185 184 245 243 243 
243 241 242 241 242 241 239 241 239 238 238 239 239 237 239 239 
238 239 175 200 238 241 242 243 242 243 244 245 245 244 245 244 
245 245 245 241 243 242 241 241 240 240 240 240 241 241 240 241 221 213 247 244 
243 243 245 245 244 244 245 244 244 242 243 244 246 248 247 247 
244 245 245 245 244 246 244 243 245 244 245 245 246 246 245 244 
245 245 245 243 246 245 244 246 246 247 246 246 189 236 244 244 
242 243 242 241 243 241 240 239 238 237 237 237 238 237 237 237 
243 201 159 237 238 242 243 245 242 245 244 245 244 244 245 245 
245 245 245 240 243 243 242 242 243 240 241 241 240 241 240 239 245 200 239 247 
245 244 244 245 244 244 244 244 246 244 245 245 245 246 245 245 
245 245 244 246 246 246 245 246 244 244 245 245 246 245 246 245 
246 247 246 246 245 246 244 246 246 245 245 246 248 243 244 244 
244 241 242 242 242 241 238 239 239 237 237 238 237 239 239 239 
218 167 223 235 241 243 244 244 244 245 244 245 244 245 245 245 
245 245 245 242 244 244 243 242 243 242 240 239 241 242 242 241 242 242 200 246 
244 245 244 244 244 244 245 245 244 245 246 244 246 246 245 245 
244 244 244 245 246 246 247 245 247 244 246 246 244 245 246 245 
245 245 246 247 246 245 245 245 245 245 243 244 246 244 243 244 
243 241 242 243 241 241 237 238 240 239 239 237 239 235 237 221 
172 218 238 236 241 238 242 243 243 244 245 246 246 245 246 244 
244 244 244 243 243 244 243 243 243 242 240 240 241 242 242 242 240 244 233 208 
243 245 244 243 244 242 243 244 244 243 247 245 245 244 245 244 
245 245 243 245 246 245 246 246 245 245 247 245 245 245 245 245 
245 245 245 246 246 245 245 245 245 243 243 243 242 244 244 244 
243 242 244 241 241 240 238 239 238 239 239 238 237 240 220 162 
223 238 236 234 238 242 243 244 244 245 245 245 245 245 245 245 
246 246 246 242 244 243 244 242 242 243 241 241 240 242 243 243 243 244 246 227 
205 244 245 243 244 244 244 244 243 245 245 246 245 245 246 243 
243 245 244 245 246 247 247 245 244 244 244 245 244 245 246 246 
244 245 246 244 244 246 243 244 247 246 244 243 244 242 244 244 
243 243 242 242 239 239 238 237 236 235 237 237 234 213 135 215 
239 236 234 236 239 243 243 244 244 245 245 245 245 246 245 247 
245 245 245 243 244 244 242 242 242 242 243 242 243 242 244 242 243 244 245 247 
224 208 246 244 244 243 240 242 243 245 247 245 246 244 245 246 
244 245 245 245 243 247 246 246 246 246 245 245 244 244 244 245 
244 246 247 245 246 245 246 247 244 246 244 243 243 244 243 244 
242 243 244 241 239 239 239 237 235 235 238 235 205 157 184 239 
238 236 237 238 240 243 245 242 244 245 245 245 245 244 245 244 
245 246 246 242 244 241 245 244 242 244 243 244 242 240 242 244 244 243 246 244 
247 221 209 244 246 243 244 245 246 245 246 246 246 244 245 246 
245 244 245 245 244 244 247 246 246 245 247 246 244 245 244 245 
245 246 245 246 244 245 245 245 246 245 244 243 243 242 243 243 
241 244 243 240 240 240 238 239 238 239 239 193 153 203 241 238 
240 239 240 243 241 244 244 245 244 245 245 245 245 245 246 246 
246 246 246 244 244 244 243 243 245 243 243 245 244 243 243 244 245 244 245 245 
245 249 223 203 243 244 245 245 246 247 246 246 246 245 246 246 
245 245 245 245 244 241 247 246 246 247 246 246 246 248 244 244 
245 245 245 244 245 245 244 246 244 245 243 243 244 243 241 243 
241 244 242 243 241 239 240 239 237 234 187 151 214 240 239 239 
241 241 242 242 242 243 244 244 244 244 245 246 246 247 246 246 
246 246 246 242 244 244 244 244 244 244 243 243 245 245 243 243 243 244 244 244 
243 246 246 231 198 230 243 245 245 246 246 246 245 245 246 245 
245 245 245 246 245 245 245 246 246 245 245 244 245 247 245 243 
244 243 244 244 244 243 244 245 244 244 245 244 244 245 242 241 
241 241 242 241 240 238 240 239 223 177 157 230 243 240 238 240 
240 242 243 242 243 243 242 243 243 244 245 246 244 245 244 246 
246 246 246 242 244 246 245 244 245 244 244 245 244 244 244 243 244 244 245 245 
244 244 244 248 238 197 222 245 248 247 247 246 245 245 244 244 
246 246 246 246 246 245 245 245 245 245 244 244 246 246 246 243 
244 244 245 246 244 244 244 243 244 244 245 244 244 243 243 242 
242 242 242 243 240 242 237 214 172 184 237 241 238 240 241 241 
242 240 241 242 243 243 244 243 247 244 245 246 246 245 245 245 
245 246 246 242 243 244 244 245 246 245 245 247 244 244 244 244 244 244 245 246 
246 245 244 246 248 245 214 204 237 247 248 245 247 246 247 245 
243 245 246 246 246 245 245 245 244 244 245 243 245 244 244 244 
244 245 243 244 244 244 244 243 243 244 244 244 245 244 243 239 
240 238 240 241 243 225 167 161 204 235 242 239 239 240 241 242 
241 242 243 242 243 242 241 244 244 244 245 245 245 245 246 245 
246 246 246 243 246 245 246 244 244 244 245 246 246 245 245 245 244 245 245 246 
245 245 244 247 248 248 248 232 168 194 247 247 247 246 245 244 
245 245 245 245 246 246 245 245 245 245 244 244 244 245 245 244 
243 244 243 244 244 244 243 243 244 244 244 245 243 244 243 242 
240 240 239 236 218 172 174 224 241 238 239 237 239 240 240 240 
241 241 242 243 243 242 241 244 244 245 245 245 243 245 245 246 
245 245 245 245 246 248 245 245 244 246 246 246 245 246 245 246 246 245 246 246 
246 245 246 248 246 246 245 247 248 197 173 228 247 248 249 247 
246 247 245 245 245 244 244 244 245 246 244 244 243 245 244 244 
244 242 244 242 242 244 242 243 243 242 242 244 243 243 243 243 
241 241 217 189 177 205 237 242 238 239 239 240 240 239 241 240 
241 241 243 243 242 243 241 242 244 245 246 245 246 244 245 246 
245 245 244 246 246 246 247 247 248 247 245 247 246 245 244 246 246 247 247 246 
246 246 246 247 246 246 246 245 246 249 237 194 184 222 243 247 
248 246 246 246 245 247 244 244 244 245 244 244 244 245 245 243 
244 246 244 245 243 243 243 244 243 244 244 243 245 246 242 239 
220 188 179 214 239 245 243 238 239 239 241 240 239 240 241 242 
243 241 241 242 241 240 239 241 244 245 245 245 245 244 246 244 
245 245 245 245 245 245 247 247 246 247 246 245 246 246 246 246 245 247 248 247 
247 247 247 246 246 245 246 244 236 249 249 250 244 209 189 209 
238 246 248 247 248 248 247 246 245 244 245 245 246 245 245 243 
244 243 243 244 245 243 244 244 244 244 245 246 243 230 220 185 
182 210 237 246 241 240 240 240 240 242 239 239 239 241 241 241 
242 240 241 242 241 240 242 241 245 243 244 244 244 244 244 245 
244 244 245 245 246 246 246 247 247 246 246 246 246 246 246 245 245 247 247 247 
246 245 247 246 246 246 247 245 245 245 247 248 249 251 250 226 
202 195 205 209 240 245 245 249 247 247 246 248 248 247 246 244 
246 246 245 245 246 246 245 244 242 239 223 216 189 175 196 219 
240 244 244 241 239 239 236 240 239 239 239 241 239 241 240 241 
242 241 243 243 242 243 242 242 245 244 244 246 244 244 245 244 
245 244 245 246 246 247 245 245 247 247 248 247 247 247 245 246 246 247 247 247 
247 248 248 248 246 246 245 246 248 247 247 247 249 249 249 250 
252 249 235 195 164 162 190 201 228 243 244 245 244 244 248 245 
242 244 244 235 232 229 204 198 191 172 157 178 201 233 243 244 
242 240 242 241 239 240 240 239 238 239 239 240 240 241 242 241 
239 241 240 239 242 243 240 244 244 244 246 244 244 246 244 245 
244 244 245 247 248 248 247 245 247 248 249 248 248 247 247 246 247 246 248 247 
247 246 246 247 246 247 247 246 247 246 248 247 248 248 248 248 
250 249 251 252 252 247 223 180 167 159 153 162 187 198 199 198 
170 180 173 182 156 154 175 196 210 234 239 248 248 247 244 241 
241 243 240 242 241 240 239 241 242 239 240 240 240 241 242 243 
241 241 243 242 241 241 241 243 245 244 244 245 243 244 244 244 
244 245 246 246 246 246 247 247 247 247 248 248 248 247 245 247 245 246 249 247 
248 246 247 247 246 247 247 246 246 247 248 248 248 248 247 248 
248 249 249 249 251 250 250 252 250 247 242 238 225 220 219 218 
205 218 235 243 236 244 246 249 249 248 246 247 246 245 244 242 
242 241 242 243 242 240 240 241 238 240 240 240 241 240 241 241 
242 241 241 240 242 242 240 244 245 245 245 243 244 245 244 244 
244 244 246 244 246 247 247 248 249 247 248 247 247 247 246 247 247 247 247 247 
247 246 247 246 246 246 246 247 246 247 247 249 248 248 249 249 
248 248 248 249 249 247 248 249 248 249 249 248 248 249 249 249 
250 248 249 248 248 248 246 248 247 246 246 246 247 246 245 242 
241 241 242 241 240 241 241 241 241 239 240 241 241 240 242 241 
240 241 241 242 241 241 242 242 243 245 245 243 244 245 245 243 
244 244 246 246 247 246 249 249 248 249 249 248 248 248 248 248 247 247 246 245 
248 247 248 247 246 246 245 246 247 248 248 248 248 248 247 247 
248 248 249 249 248 247 248 248 248 247 247 248 246 247 246 245 
246 248 248 246 246 247 246 246 246 246 245 246 247 247 246 245 
242 243 243 242 241 239 238 241 238 239 241 241 242 242 239 241 
241 240 240 241 241 243 241 240 241 245 244 243 243 245 246 245 
245 246 245 247 248 249 250 250 249 249 248 248 248 247 248 248 246 248 248 247 
247 248 248 249 247 247 247 248 246 248 248 249 249 248 249 249 
248 248 249 248 248 247 247 247 247 247 247 248 246 246 246 246 
247 247 246 246 246 246 246 246 246 247 246 247 248 248 248 245 
244 242 241 242 242 241 240 240 240 241 240 240 241 241 241 240 
241 240 241 239 239 240 241 241 241 244 244 244 245 245 244 245 
245 245 245 247 249 248 248 248 249 248 248 248 249 248 248 248 247 245 248 247 
248 249 248 246 248 247 247 248 247 247 249 249 249 249 249 249 
249 248 248 249 248 249 248 248 247 246 247 246 247 247 247 246 
246 247 247 247 247 247 247 247 247 247 248 248 249 248 250 246 
245 246 243 244 243 241 241 240 242 241 241 240 241 241 241 240 
241 240 240 242 242 240 240 240 241 243 245 245 244 245 246 246 
245 245 245 247 248 248 249 249 248 248 249 248 247 248 248 247 247 247 247 248 
248 247 247 247 247 247 246 246 247 249 249 248 249 249 250 249 
249 249 249 248 248 247 248 249 248 248 247 247 246 247 247 246 
247 247 248 248 247 248 248 248 247 247 247 248 249 248 247 246 
246 246 245 243 242 240 240 240 239 240 242 242 240 240 241 240 
240 241 240 239 241 240 238 240 243 242 244 244 243 244 246 246 
246 246 246 