P2
# Created by IrfanView
100 100
255
220 219 217 220 220 220 219 218 220 218 219 218 219 218 217 217 219 
217 218 219 219 218 219 219 220 220 219 218 218 218 218 219 218 
218 217 218 217 217 217 218 219 217 216 218 218 216 218 218 219 
219 218 217 218 219 216 219 220 221 219 219 220 220 224 223 223 
224 225 228 224 224 225 224 223 222 222 220 218 214 218 215 215 
216 215 216 214 215 214 215 215 215 214 217 217 213 215 213 213 
215 214 214 220 219 220 221 217 219 219 220 219 220 219 219 219 219 220 218 219 
220 219 218 217 220 220 218 219 220 219 219 221 218 217 219 217 
217 217 218 217 217 216 215 215 215 217 217 218 219 218 219 219 
218 220 221 220 220 219 219 220 221 218 221 222 224 223 223 224 
226 225 227 223 223 224 224 224 222 221 220 217 219 216 216 219 
215 215 216 216 215 217 216 217 217 216 217 216 215 214 214 215 
218 216 215 218 221 220 219 220 220 219 219 220 219 219 218 219 217 218 219 219 
218 217 219 219 218 218 219 219 219 219 220 218 220 218 218 219 
218 217 216 218 217 217 216 218 218 217 218 217 218 219 219 219 
219 218 219 219 222 220 224 221 222 222 222 223 222 222 222 223 
225 224 226 224 224 224 226 225 224 222 222 220 218 218 216 216 
216 216 215 217 217 215 216 217 218 220 217 216 215 216 215 216 
213 215 214 221 220 220 220 219 220 220 220 220 220 219 220 220 218 218 218 218 
219 218 217 220 220 220 219 218 217 220 219 218 219 218 218 217 
217 218 217 216 217 217 217 218 216 216 216 215 219 218 220 219 
219 219 218 218 219 220 220 224 221 223 222 221 221 222 223 224 
223 224 224 225 224 224 224 225 226 225 222 219 220 219 216 216 
215 217 215 216 217 213 218 216 218 217 216 215 214 215 214 215 
216 216 217 219 221 221 221 222 220 220 221 220 220 219 219 219 221 219 219 217 
218 217 218 218 218 220 220 220 219 218 220 219 218 218 219 218 
217 219 217 218 217 217 218 215 216 216 217 217 218 218 218 220 
222 221 222 221 221 221 220 220 221 221 223 222 221 221 225 224 
225 226 225 226 222 226 224 223 226 223 223 220 221 219 217 216 
216 216 213 216 218 217 217 218 221 218 216 217 216 217 217 216 
217 217 218 222 220 222 221 221 221 220 220 220 221 220 220 220 220 219 221 220 
219 218 218 219 219 219 219 218 220 219 217 219 217 218 218 218 
218 217 215 218 217 219 219 218 218 219 220 219 218 221 219 220 
221 221 221 223 225 224 224 224 221 223 223 222 223 224 222 224 
225 226 227 225 225 224 226 223 224 223 222 222 220 218 217 218 
216 218 216 213 216 218 218 218 219 220 219 218 216 216 218 217 
217 217 217 224 222 223 223 223 222 222 222 223 220 223 221 220 221 220 220 221 
218 219 217 220 219 219 219 219 220 219 218 219 218 219 218 217 
219 217 217 217 219 222 219 217 216 215 213 204 195 187 191 177 
181 180 188 200 203 210 215 216 222 225 223 224 224 222 225 225 
224 224 224 225 224 224 222 224 225 224 223 222 222 221 219 219 
218 217 217 217 219 218 219 220 220 219 219 218 218 219 218 219 
219 220 219 226 222 223 223 222 223 224 223 225 221 222 220 222 221 220 220 221 
220 219 219 217 220 219 219 219 221 221 219 219 217 218 219 215 
218 217 219 220 217 215 209 185 167 152 155 137 149 147 156 169 
155 167 172 160 166 157 149 153 171 190 201 214 220 224 225 226 
226 223 224 223 222 224 224 224 226 224 224 222 221 220 218 219 
218 217 218 217 220 219 219 220 219 220 219 218 220 220 221 219 
218 219 219 225 222 223 224 225 226 225 224 224 226 221 223 223 222 224 221 222 
220 219 219 219 218 220 219 219 220 219 220 219 217 219 220 219 
220 214 211 187 171 155 163 172 202 217 221 222 224 224 224 223 
224 224 224 225 227 224 221 218 191 167 153 150 168 187 210 224 
230 229 224 223 223 223 223 226 225 223 221 221 221 220 222 219 
220 219 218 220 219 219 219 220 220 220 220 219 218 220 221 219 
219 223 220 224 226 225 225 226 227 226 225 223 225 224 224 227 222 222 221 220 
221 219 218 218 217 218 218 219 220 219 219 218 217 219 221 216 
199 161 135 155 196 223 225 227 228 225 223 223 224 224 225 222 
224 224 222 223 221 222 223 223 225 225 227 225 206 184 158 170 
197 221 228 225 225 224 222 225 223 222 223 222 224 222 222 219 
221 220 218 218 221 218 220 220 220 220 220 221 221 219 221 223 
223 220 220 226 226 225 225 226 228 227 225 224 224 225 224 224 223 224 224 225 
222 219 219 220 220 219 218 221 223 220 217 223 222 215 185 140 
137 186 217 224 226 226 223 222 222 223 221 220 220 221 220 222 
222 222 222 221 223 221 221 222 223 222 225 223 223 228 224 206 
170 145 197 223 226 227 224 224 224 222 223 223 221 221 222 221 
221 220 220 221 223 222 218 217 219 222 221 222 220 218 221 222 
222 220 219 228 225 226 227 224 227 227 226 226 226 225 225 224 225 224 225 224 
223 222 219 218 218 218 218 217 218 220 222 217 180 154 143 197 
222 228 226 223 224 224 222 220 222 221 222 220 221 222 222 223 
221 223 223 223 222 224 223 223 222 222 225 224 226 224 223 226 
227 214 166 155 181 223 226 225 221 221 221 223 223 221 222 223 
224 222 221 221 221 220 219 219 219 221 222 221 221 221 223 222 
222 221 220 228 226 224 226 225 227 228 227 225 226 225 225 224 225 225 227 227 
221 224 220 219 218 217 216 220 222 221 197 139 155 219 226 227 
224 219 222 220 223 223 223 222 222 221 221 222 222 222 224 223 
222 223 222 222 223 222 223 224 224 224 225 224 225 224 224 224 
224 227 228 223 179 147 200 225 225 225 222 222 223 222 222 222 
222 223 222 222 221 222 221 220 223 222 223 224 221 222 224 225 
223 222 223 228 226 226 226 225 226 227 226 224 224 226 224 224 224 224 225 225 
223 221 219 220 218 217 218 219 216 174 157 214 226 228 225 222 
222 223 222 223 222 223 222 222 222 221 221 221 221 226 224 223 
225 222 223 223 222 223 222 222 221 225 224 224 223 226 224 222 
222 223 225 226 228 209 167 169 210 224 224 222 222 222 224 221 
222 222 222 223 223 222 222 224 224 225 222 224 226 222 222 222 
221 225 223 224 226 226 226 228 227 230 228 227 226 227 226 225 225 224 226 226 
226 224 220 220 218 220 219 195 142 190 226 227 226 224 221 222 
222 222 223 221 221 223 222 222 223 221 222 220 221 223 224 223 
222 224 224 224 223 226 222 224 225 225 225 225 225 224 226 223 
224 225 225 223 225 229 228 186 150 196 221 223 224 222 224 222 
224 224 225 223 222 223 223 224 224 222 225 224 224 225 223 224 
223 222 223 226 225 226 226 227 228 229 228 227 227 225 225 226 225 225 226 226 
225 224 222 220 219 212 173 135 216 225 225 223 222 224 223 222 
223 222 222 222 224 221 222 223 222 221 222 221 219 223 225 224 
223 224 222 223 223 225 224 225 225 223 224 226 224 225 225 227 
224 224 223 223 224 226 226 226 211 150 168 219 226 226 223 223 
223 222 222 223 223 222 223 224 225 226 224 224 224 224 225 225 
225 224 223 227 226 225 226 227 228 229 228 229 227 226 226 225 225 225 224 225 
226 224 220 222 211 158 159 220 223 222 222 222 223 221 223 223 
222 222 222 222 221 223 223 222 219 223 222 220 219 219 224 224 
224 224 224 224 224 224 225 224 225 227 226 224 225 224 223 225 
226 224 224 223 223 226 224 221 224 226 154 158 216 226 226 224 
223 223 224 225 223 224 223 224 224 225 225 223 224 223 224 224 
224 224 223 224 225 225 226 228 228 227 228 227 226 226 226 226 224 226 226 225 
225 221 222 213 160 179 222 223 220 219 221 223 223 224 223 223 
223 224 223 221 223 221 221 223 223 223 223 221 220 216 218 225 
224 223 224 224 223 224 225 224 225 225 225 225 226 226 225 224 
223 223 224 224 223 225 224 223 223 228 223 176 136 216 224 222 
225 223 223 225 225 224 223 226 224 224 226 226 225 226 225 224 
226 225 223 225 226 225 223 222 228 228 227 227 227 226 226 224 226 228 225 224 
223 220 207 149 199 227 224 223 221 219 223 223 224 223 223 221 
223 222 222 223 223 223 222 222 220 221 223 221 222 217 217 222 
225 224 224 226 226 224 224 226 227 226 226 226 226 225 225 223 
225 223 224 226 226 228 226 224 225 226 222 224 199 141 199 223 
224 225 225 224 223 224 224 225 226 226 224 225 226 226 226 225 
224 227 226 224 223 223 225 226 227 227 227 226 226 225 225 226 227 227 222 220 
224 207 143 193 226 225 224 223 223 223 224 223 223 221 223 222 
222 223 222 222 221 221 222 221 221 221 220 221 219 217 218 222 
225 226 225 225 225 223 223 227 225 225 226 225 225 226 225 225 
224 225 225 225 224 224 226 225 224 226 222 220 226 196 146 214 
228 223 224 224 224 225 227 226 227 226 227 227 227 226 226 226 
225 225 227 225 224 225 223 226 227 227 225 227 226 224 225 225 229 227 222 220 
212 136 198 229 224 224 224 226 226 225 223 226 222 224 222 222 
222 223 222 221 222 221 222 221 221 222 223 222 222 220 221 226 
225 224 224 224 224 225 224 224 226 226 226 226 225 225 225 225 
226 225 225 225 223 223 226 225 224 222 220 220 223 229 179 136 
221 225 224 226 226 225 227 225 226 225 224 226 226 225 226 225 
224 225 226 225 226 224 223 226 227 226 227 226 225 226 226 225 226 225 222 212 
147 187 231 226 225 225 223 222 225 226 225 226 226 222 222 221 
222 221 222 222 222 223 222 221 222 221 222 222 220 222 220 221 
224 224 225 226 225 226 225 224 224 228 227 225 225 225 226 225 
225 225 225 224 225 226 226 224 222 224 224 224 226 224 229 157 
155 225 223 223 225 227 224 225 226 227 227 226 226 227 226 225 
225 224 227 226 225 224 222 226 227 226 225 225 226 225 226 226 227 223 218 150 
185 228 226 226 225 225 224 225 224 228 227 225 217 223 223 224 
221 222 222 224 221 218 221 221 222 220 221 221 221 220 221 220 
225 225 226 227 226 225 225 225 226 225 225 225 226 227 226 226 
225 225 224 225 225 223 223 224 227 224 225 226 227 225 226 226 
133 158 223 223 223 226 227 226 227 226 227 227 226 226 227 226 
226 224 225 227 227 225 220 225 227 228 225 225 225 224 223 224 225 220 167 154 
230 226 226 226 225 225 227 225 226 227 227 225 223 223 222 221 
223 220 221 221 222 220 220 221 222 221 222 221 221 220 217 219 
225 225 224 225 225 226 224 226 226 226 226 227 227 227 226 226 
226 227 228 224 226 224 226 224 225 225 223 224 226 225 225 225 
226 122 177 224 225 228 227 226 226 227 227 227 226 226 226 227 
226 226 226 227 228 230 224 228 228 228 225 225 225 224 220 223 224 199 134 225 
226 226 227 225 226 226 226 225 226 227 227 226 225 224 223 222 
222 222 222 222 220 221 221 221 220 221 221 221 220 221 218 219 
222 225 226 226 227 226 226 226 227 226 225 225 226 223 226 226 
227 227 225 225 225 226 227 227 224 226 227 226 227 227 226 225 
224 211 110 195 225 226 228 228 227 228 227 227 227 227 228 227 
226 226 226 228 229 228 227 227 227 227 223 225 225 221 221 218 216 151 207 228 
225 225 226 228 226 226 226 226 225 226 227 225 226 225 224 222 
223 223 222 221 221 222 221 222 222 219 223 222 221 220 219 218 
223 225 224 224 225 225 225 226 225 226 226 226 226 226 225 226 
225 226 226 226 228 225 226 226 225 226 227 228 228 226 228 225 
224 228 196 120 225 225 225 226 226 227 227 226 228 228 227 226 
227 227 227 227 228 227 228 227 226 228 227 226 225 221 220 217 163 189 226 226 
227 226 227 228 226 227 227 227 225 225 226 226 225 226 224 223 
221 221 221 221 223 221 221 220 221 221 220 221 221 221 217 218 
221 224 226 223 225 225 226 226 226 225 225 226 228 227 227 227 
227 227 228 225 225 226 224 227 227 226 226 227 226 226 228 227 
226 225 231 130 201 227 228 229 228 228 228 228 227 227 227 228 
228 225 227 228 227 229 228 228 230 227 228 227 221 221 219 203 143 226 225 225 
224 226 225 227 226 226 226 225 226 226 227 226 225 223 227 225 
224 222 222 221 222 221 221 222 220 220 220 220 221 220 220 219 
221 224 225 222 225 225 225 225 226 228 225 228 225 224 226 227 
226 227 225 226 226 226 225 227 225 226 227 226 226 227 228 225 
227 227 226 189 136 227 228 227 228 229 228 226 229 228 226 227 
225 229 229 229 229 229 230 228 225 226 225 225 223 221 216 152 211 226 225 226 
224 224 226 227 226 227 226 227 226 228 226 225 226 227 227 224 
223 223 222 222 222 221 223 221 222 222 221 222 223 219 222 220 
223 223 223 224 224 224 225 224 225 225 225 225 227 226 227 226 
226 226 227 228 226 226 226 227 226 227 226 227 225 226 226 228 
228 226 225 228 153 187 228 227 228 228 227 229 228 229 228 229 
229 228 227 228 228 229 229 226 228 227 227 227 224 220 190 184 230 226 225 224 
224 221 222 226 227 227 229 227 228 227 226 226 226 227 228 225 
223 223 223 222 222 222 223 223 222 221 222 221 221 219 221 222 
222 225 226 225 225 224 225 226 226 225 226 225 225 226 227 227 
227 227 227 226 226 226 227 226 227 226 227 227 228 226 228 228 
228 227 223 225 220 135 222 228 227 229 228 229 229 229 228 228 
226 228 228 228 228 227 229 229 228 227 225 223 221 214 157 223 226 223 225 225 
226 221 220 229 228 229 228 227 226 227 225 226 226 226 226 226 
224 222 223 222 222 222 224 221 222 221 221 223 223 223 222 221 
224 225 224 225 226 225 225 223 227 226 225 227 225 224 225 226 
226 227 227 227 228 227 227 226 226 225 227 225 224 225 226 226 
228 228 226 227 228 186 161 227 228 229 228 228 229 229 229 231 
229 228 228 228 226 229 230 229 227 226 226 223 220 189 178 227 225 225 227 225 
224 222 222 225 227 227 228 226 226 228 226 225 226 227 228 227 
223 223 223 223 222 222 221 222 219 221 221 221 222 221 223 223 
226 225 225 226 227 224 225 226 223 223 225 226 226 225 225 227 
227 228 227 226 228 227 227 227 228 228 227 228 227 225 228 229 
227 227 229 227 228 225 135 213 230 228 229 229 229 231 229 230 
229 228 228 229 228 226 229 229 228 228 225 223 217 158 228 228 225 225 226 226 
226 224 226 227 227 227 227 227 228 229 230 229 228 226 227 227 
224 222 224 221 223 223 222 222 221 222 220 222 224 223 221 223 
224 223 223 224 224 225 224 225 222 223 227 226 226 225 223 227 
227 226 227 227 225 229 227 228 226 227 228 226 226 226 225 225 
227 228 229 227 228 229 182 158 230 231 232 231 229 229 230 232 
230 229 228 228 229 231 230 230 224 227 223 218 190 179 229 226 225 226 226 227 
227 225 226 227 226 228 229 227 228 229 231 230 228 227 225 224 
224 224 224 221 221 222 221 221 221 221 220 222 222 223 224 224 
225 224 227 224 223 224 224 224 224 224 224 225 225 225 225 228 
225 226 226 227 228 228 227 227 226 226 226 227 227 227 227 227 
228 230 227 229 229 228 226 138 205 230 229 230 230 231 230 231 
230 230 230 227 227 227 225 231 228 230 225 218 168 221 226 227 226 227 226 226 
225 226 226 227 224 226 225 229 229 227 228 229 227 226 223 224 
224 224 221 223 223 223 223 222 222 221 220 222 222 224 225 224 
222 225 226 226 227 225 226 225 226 225 225 224 226 226 224 228 
227 228 226 228 228 228 229 226 227 228 228 229 228 228 226 229 
228 230 227 230 230 229 230 173 151 230 231 231 229 230 231 231 
231 230 230 227 228 228 228 225 228 230 224 211 185 229 227 225 226 226 227 226 
225 225 226 224 226 228 227 228 226 227 230 229 228 228 223 225 
224 225 222 222 222 223 222 222 222 220 221 223 223 223 223 224 
226 224 224 224 224 224 224 224 224 224 225 225 225 224 226 223 
224 228 225 227 227 228 226 227 228 227 229 230 227 228 228 228 
229 228 230 231 229 231 231 224 122 224 232 229 229 231 230 231 
231 232 230 228 228 227 227 228 229 228 226 191 205 227 227 227 228 230 229 225 
225 225 228 223 220 219 218 156 176 214 227 230 229 226 225 227 
224 226 222 222 222 221 222 223 219 225 222 222 221 222 222 225 
225 225 224 226 225 225 223 223 223 223 224 223 225 225 226 224 
225 225 226 227 226 226 226 226 227 229 229 229 228 228 229 228 
230 229 230 230 228 230 230 233 147 189 232 231 230 230 232 232 
231 231 231 228 226 227 227 227 227 228 225 177 225 229 228 226 228 227 224 224 
223 224 224 225 163 147 122 99 60 83 138 192 223 226 227 226 
226 224 221 221 220 221 221 222 222 221 223 223 224 223 223 223 
224 223 226 224 225 225 224 224 225 225 221 224 222 226 224 224 
224 227 224 224 224 227 228 228 223 210 187 204 227 229 229 231 
229 228 228 229 229 230 227 230 192 146 229 231 230 231 232 232 
233 232 232 226 227 227 227 227 230 227 217 179 227 227 226 225 225 226 227 225 
226 224 223 225 227 224 194 135 65 55 56 67 112 190 221 225 
227 227 224 226 222 223 221 221 221 220 221 222 223 220 219 225 
223 224 224 224 224 224 224 222 221 222 221 222 221 223 224 224 
223 221 224 225 225 226 224 215 149 89 79 141 231 228 230 230 
230 231 230 230 231 230 231 230 229 116 202 231 231 232 232 232 
233 234 232 230 226 226 227 227 228 224 194 205 229 228 227 226 227 225 226 226 
225 224 224 222 224 225 226 228 219 161 102 89 58 46 94 160 
199 219 225 226 223 223 222 222 222 221 222 223 223 222 223 223 
224 223 225 223 221 223 223 221 221 221 223 219 219 220 222 223 
226 227 227 222 211 172 137 126 162 194 222 231 232 230 231 230 
230 230 231 231 232 233 231 230 230 151 181 231 231 232 234 234 
234 233 235 225 227 227 227 227 230 226 181 223 228 226 228 226 226 228 226 227 
228 226 224 224 223 224 223 226 228 229 221 176 111 77 60 48 
62 113 160 216 220 225 222 221 223 222 222 220 222 222 223 224 
224 224 225 225 225 223 224 223 221 220 220 220 219 220 221 221 
218 198 173 143 125 136 199 224 232 236 233 231 232 232 231 232 
233 232 231 231 232 229 231 231 231 186 130 232 234 232 233 233 
234 234 235 226 228 226 227 227 226 221 174 231 229 229 227 227 227 226 225 225 
228 225 224 225 225 225 225 225 225 226 229 233 231 198 149 91 
57 51 79 112 142 185 221 222 221 224 223 222 221 222 222 222 
223 223 225 225 223 225 224 223 223 220 220 225 221 217 195 167 
129 111 142 183 225 226 229 231 231 232 231 229 231 232 231 230 
231 231 230 230 231 234 232 233 233 227 125 219 234 235 232 233 
233 234 234 227 227 227 227 228 226 212 185 230 228 229 229 228 226 227 226 228 
226 226 225 225 225 226 226 225 226 225 227 228 231 231 230 218 
152 85 52 47 125 134 130 199 222 222 222 223 224 223 222 221 
225 227 225 225 225 224 229 229 223 220 218 185 156 132 115 146 
188 222 229 227 232 230 230 229 230 231 231 233 233 232 232 232 
232 233 233 232 232 232 232 232 230 234 143 203 233 235 236 235 
235 234 237 226 225 226 228 227 225 201 200 229 230 230 231 232 228 226 227 228 
226 225 226 225 226 227 225 227 226 226 227 227 227 229 228 230 
234 221 153 80 91 108 184 141 220 223 223 223 223 223 223 222 
223 227 226 226 226 226 225 226 224 222 202 111 129 175 219 228 
227 228 228 227 229 230 231 229 232 233 232 232 231 233 234 233 
233 233 231 233 231 232 233 231 233 235 168 179 231 233 234 234 
234 235 234 229 227 227 226 226 223 193 213 229 231 228 231 232 231 226 226 225 
228 227 224 225 224 226 227 227 227 226 226 226 225 224 226 227 
228 231 231 226 215 143 171 212 224 222 224 222 224 222 221 224 
224 226 225 225 226 226 226 227 223 219 153 182 222 229 231 229 
225 225 227 228 229 232 231 231 229 233 232 233 233 231 232 232 
233 233 232 232 233 231 233 233 231 231 185 163 234 236 236 234 
235 234 235 227 227 226 226 226 220 178 229 229 228 231 229 231 231 228 228 227 
226 227 227 226 225 227 227 228 226 227 227 226 227 230 226 225 
226 227 228 228 229 228 229 223 221 221 221 223 222 225 223 223 
224 224 227 227 227 229 228 228 226 227 229 229 231 228 228 228 
227 225 227 230 229 231 232 233 232 233 233 233 232 233 233 233 
232 233 233 233 232 232 234 233 232 232 207 122 226 237 235 234 
236 236 236 227 227 228 227 227 221 184 232 231 231 231 232 232 232 227 227 227 
228 227 227 226 224 227 228 227 228 229 229 228 227 227 228 225 
226 224 227 225 225 226 224 223 220 222 223 223 224 224 222 224 
222 225 228 226 227 227 225 225 226 226 228 231 228 230 229 229 
229 227 230 231 230 231 232 233 234 234 234 234 232 232 232 234 
234 234 234 234 232 232 233 233 234 233 224 121 218 234 236 235 
236 236 235 229 227 228 229 229 223 188 230 231 231 231 231 233 233 231 229 226 
227 227 228 229 228 227 228 228 228 227 229 229 228 226 228 226 
225 222 223 223 223 223 223 223 224 223 225 224 223 223 224 223 
225 227 227 224 226 227 227 227 228 229 228 226 228 230 231 232 
230 230 232 230 232 232 234 234 233 234 233 233 233 234 234 234 
233 232 234 234 234 235 233 233 234 234 233 138 212 237 238 237 
237 237 237 229 230 228 228 231 223 189 229 229 230 230 231 233 232 232 232 228 
229 228 228 227 227 227 229 229 229 228 229 228 227 228 229 228 
227 223 224 223 222 224 222 222 223 222 224 225 225 223 225 225 
224 227 228 226 227 229 229 229 229 230 229 230 231 232 231 231 
232 233 232 231 233 234 234 234 234 234 234 233 234 234 235 235 
234 234 234 234 235 233 236 234 233 235 236 156 195 237 237 238 
239 238 237 230 229 230 231 233 224 197 229 229 231 231 231 231 232 233 232 230 
229 228 227 229 229 229 231 230 229 229 231 230 229 228 229 226 
224 224 223 222 223 222 223 222 222 221 223 224 224 224 224 225 
226 227 226 227 228 229 230 229 230 230 231 232 231 233 232 231 
232 231 231 233 233 233 234 234 234 234 234 232 233 233 235 235 
234 234 235 235 235 235 235 234 235 234 235 151 183 237 237 237 
237 239 238 228 230 229 229 232 223 182 232 229 232 232 231 231 232 233 231 229 
227 230 230 229 228 228 228 230 229 229 230 230 229 228 227 227 
224 223 223 223 225 222 221 223 224 222 222 224 224 224 224 223 
225 227 226 228 229 230 228 230 231 232 231 232 228 231 232 232 
232 234 235 233 233 234 234 234 234 236 234 234 233 233 233 234 
235 235 235 236 235 236 235 235 236 235 237 164 177 237 237 239 
239 239 240 229 231 231 231 232 223 187 229 228 226 232 232 231 232 233 234 230 
229 229 228 230 230 231 229 230 231 231 231 232 231 230 228 226 
224 224 222 225 223 221 222 222 221 220 222 224 225 224 226 224 
224 226 226 227 228 228 229 227 231 228 231 232 231 230 233 232 
233 232 232 235 234 234 235 235 234 236 235 234 235 234 236 236 
236 236 236 235 235 235 236 235 236 235 238 189 172 240 239 238 
241 239 240 231 230 231 231 231 224 193 230 230 229 230 232 233 231 233 231 232 
230 228 230 231 231 230 232 232 230 231 231 232 233 230 229 226 
224 224 223 223 222 222 221 221 221 223 222 224 223 224 224 226 
226 229 229 230 228 229 228 229 232 231 232 232 231 232 231 233 
233 234 235 235 234 236 237 236 234 235 233 235 236 234 235 235 
235 235 236 235 235 235 236 235 236 237 237 193 177 239 237 240 
239 241 241 230 230 229 235 231 225 184 233 231 232 232 229 230 230 231 231 230 
230 231 228 228 229 230 230 230 230 231 231 232 231 230 228 226 
225 224 224 223 222 223 220 222 220 223 221 222 225 225 224 225 
227 226 228 228 230 228 229 231 229 230 230 230 232 233 233 233 
233 234 235 234 234 235 234 236 237 235 236 236 236 235 237 236 
236 236 237 236 236 238 237 237 237 238 236 197 178 238 238 238 
239 239 239 229 231 231 233 233 229 187 228 232 232 233 231 230 231 232 232 230 
231 230 228 230 229 229 231 231 231 232 232 232 232 230 229 228 
225 224 223 222 221 220 222 220 222 223 223 225 223 223 223 225 
226 228 228 227 228 228 230 231 231 231 232 232 233 233 234 233 
233 235 236 234 235 235 236 235 236 237 237 237 235 236 235 236 
237 237 238 237 237 236 236 237 238 239 238 182 179 239 237 237 
240 240 239 230 232 232 231 231 229 188 232 231 231 232 231 231 231 231 230 231 
229 230 230 231 228 229 227 230 232 230 231 233 232 232 231 227 
225 225 224 223 224 222 222 222 221 222 223 224 223 224 224 225 
227 228 228 228 225 228 226 231 232 231 232 230 232 232 230 234 
234 234 234 235 235 235 236 236 236 237 237 237 237 238 238 236 
237 239 237 236 238 237 237 237 237 239 238 164 189 238 238 238 
239 241 240 227 231 232 231 231 230 196 220 233 232 231 232 231 231 230 228 229 
231 231 231 231 229 228 230 232 232 233 232 230 232 232 231 228 
227 224 223 224 222 223 222 219 221 221 223 223 224 223 222 222 
228 228 229 229 228 228 229 231 233 232 233 231 232 234 233 234 
235 234 236 236 235 234 237 238 238 238 238 237 238 237 236 239 
237 235 237 236 237 238 236 238 238 238 237 183 189 238 239 241 
240 240 240 232 233 232 231 233 233 196 196 233 232 232 232 232 231 234 232 231 
232 230 231 232 231 231 230 231 232 230 231 232 231 232 230 229 
229 228 226 224 224 222 221 219 221 223 222 223 224 222 225 221 
223 227 227 228 228 229 228 230 232 233 233 232 232 233 231 234 
234 236 235 235 236 236 237 238 239 237 237 238 237 237 239 238 
238 239 237 238 238 237 237 236 239 239 239 173 214 241 240 240 
240 242 242 232 232 232 232 233 232 200 156 234 231 233 233 232 232 233 232 230 
231 232 233 232 229 229 230 232 232 232 232 231 231 231 228 230 
228 230 229 227 224 224 224 221 221 223 223 224 224 224 222 222 
220 227 227 228 228 228 231 230 232 233 234 233 233 234 233 236 
236 236 237 234 236 238 239 238 237 238 237 237 238 238 237 238 
238 238 238 238 237 237 238 237 239 237 238 160 220 240 238 241 
238 240 242 233 232 233 233 234 234 221 128 236 234 234 234 233 233 233 233 233 
233 231 234 232 231 232 229 231 234 233 232 232 232 233 230 231 
231 229 229 229 229 226 226 223 221 224 224 223 224 226 222 223 
223 228 229 230 231 231 231 232 233 234 233 233 233 234 234 235 
237 237 236 236 235 237 238 239 238 240 239 239 239 238 239 239 
238 239 239 237 238 239 238 239 237 237 229 129 229 240 239 241 
237 242 243 232 233 234 234 235 235 233 145 226 235 235 235 234 234 234 234 233 
234 233 233 233 234 234 233 233 234 234 233 234 233 233 233 234 
233 232 231 231 231 230 227 225 223 222 225 225 224 227 224 222 
224 228 229 230 233 234 233 232 235 235 236 236 235 236 236 236 
235 235 235 236 237 238 238 239 237 239 239 239 239 239 238 238 
237 239 238 239 238 239 238 238 239 238 231 137 240 241 241 241 
244 241 243 232 234 234 233 237 234 235 180 192 235 234 233 233 234 235 233 234 
234 233 233 233 234 233 234 234 234 234 234 234 235 234 235 235 
234 236 235 232 233 231 228 226 226 224 224 224 227 227 228 225 
226 228 228 231 234 234 235 235 235 234 235 234 234 235 235 236 
235 239 238 234 237 236 240 238 240 238 239 239 238 240 238 240 
239 240 239 239 239 239 238 240 238 238 217 147 242 241 241 241 
241 241 242 236 234 234 235 234 234 234 216 164 236 235 236 236 235 236 235 235 
235 235 235 235 235 235 234 235 235 236 235 235 235 235 235 236 
236 236 236 235 234 232 232 228 228 226 228 226 227 229 228 228 
228 232 232 232 232 234 234 235 235 236 236 235 236 236 234 236 
235 235 236 236 237 237 238 238 239 240 240 240 240 240 240 240 
240 238 238 239 237 239 239 239 238 240 189 186 243 241 242 242 
242 241 243 236 235 235 234 234 235 235 232 160 238 236 235 234 236 236 236 236 
236 236 236 236 237 237 236 235 236 235 235 237 237 237 238 237 
239 240 239 237 235 235 233 227 225 228 231 230 228 230 230 230 
231 232 231 232 234 234 233 233 235 235 237 235 236 236 237 236 
235 237 236 236 236 235 238 240 239 239 239 240 240 241 241 236 
239 240 240 238 238 238 237 238 239 240 173 211 243 241 241 241 
241 243 243 237 234 234 236 234 235 235 237 175 214 236 237 237 238 237 237 237 
236 238 237 237 236 237 237 237 236 237 236 237 237 238 238 237 
239 242 243 241 241 238 235 236 232 232 231 231 232 230 229 232 
233 233 232 234 234 236 235 235 236 234 234 235 238 236 236 236 
235 236 238 238 237 238 238 240 239 240 240 240 240 241 240 241 
239 239 239 239 238 237 237 239 237 241 140 240 241 243 242 242 
243 241 241 237 235 236 236 236 236 235 235 219 175 237 236 235 237 238 237 237 
238 237 237 237 236 237 235 239 238 237 237 238 239 237 239 241 
242 244 244 243 243 241 238 235 234 233 231 232 234 234 234 235 
233 233 233 235 234 235 235 236 237 237 237 237 237 236 235 235 
236 237 238 237 238 236 238 240 241 241 241 240 241 241 240 242 
240 239 239 241 240 237 238 240 236 221 163 246 242 241 242 243 
243 241 242 237 237 235 236 237 235 236 238 233 160 235 236 238 238 237 238 238 
236 238 238 238 239 237 238 239 238 238 237 238 238 239 241 240 
243 241 243 244 243 243 243 240 237 237 236 235 235 239 238 236 
238 236 237 237 236 237 236 237 236 236 236 238 236 237 237 238 
238 238 238 238 238 238 237 240 240 239 241 240 240 241 241 241 
241 241 242 241 240 238 239 239 239 180 204 244 243 244 243 243 
243 243 243 236 236 237 237 237 237 238 236 236 194 194 238 237 239 238 238 237 
238 239 239 239 239 238 238 238 239 238 239 239 239 240 240 241 
242 243 246 245 245 247 243 244 239 238 237 235 233 232 239 240 
238 241 239 240 238 238 236 237 237 237 236 236 238 238 237 238 
237 238 238 240 239 239 240 241 240 240 239 239 239 240 241 241 
241 241 240 241 241 240 242 239 241 157 241 243 243 242 243 242 
242 241 242 236 237 235 236 236 237 239 236 235 233 169 238 238 238 239 239 240 
238 238 238 239 239 238 240 239 237 238 238 238 239 239 242 241 
242 239 243 242 241 231 224 204 201 201 189 174 187 163 185 211 
224 231 231 236 236 239 243 236 239 238 237 239 238 237 237 238 
238 237 239 237 240 238 240 240 239 240 241 241 240 240 241 241 
242 242 242 241 242 241 242 239 221 178 245 243 242 243 242 243 
243 245 244 236 237 237 238 238 239 238 238 235 237 195 202 238 237 238 238 238 
239 238 239 238 238 238 239 237 237 236 238 238 239 237 234 230 
217 196 184 167 165 158 158 173 177 177 186 203 180 177 168 160 
141 138 152 155 198 191 217 233 238 240 241 240 239 238 239 238 
238 238 238 238 238 238 240 239 239 241 239 241 240 241 241 240 
241 241 241 241 241 241 242 240 167 218 245 245 244 244 243 243 
244 241 243 235 235 234 235 236 238 239 237 235 235 231 160 233 238 238 238 239 
238 238 239 241 241 240 236 236 237 239 236 237 235 215 153 149 
149 166 195 201 231 242 248 249 249 247 245 244 243 241 242 244 
240 239 226 209 187 173 141 152 186 190 224 231 239 243 242 241 
241 241 240 240 240 239 240 239 240 240 240 240 239 240 241 241 
242 241 241 240 241 242 239 237 148 246 244 243 244 242 246 244 
242 243 243 237 238 235 236 237 239 238 239 238 237 238 193 181 240 238 238 238 
239 240 238 239 239 239 238 235 236 229 225 190 160 158 194 229 
240 238 243 244 245 246 245 247 246 245 244 242 241 243 241 241 
242 243 245 243 243 242 241 221 192 159 142 159 176 203 218 235 
239 241 241 240 238 238 241 242 242 241 241 240 240 241 241 241 
242 243 239 240 241 240 241 194 203 245 244 244 244 244 244 243 
244 243 243 236 237 237 236 238 239 239 238 238 237 237 233 167 227 240 237 240 
238 239 237 241 240 237 236 236 222 179 154 192 225 242 243 244 
244 244 244 244 246 246 246 244 246 244 243 243 240 241 238 238 
239 241 241 242 242 241 242 241 240 238 236 216 187 144 145 144 
194 236 240 240 238 238 241 239 241 241 240 241 240 241 242 241 
242 243 241 241 240 240 236 155 244 245 244 244 244 244 245 244 
243 242 244 236 235 236 235 237 239 238 237 238 238 236 238 226 178 243 239 238 
238 239 239 239 236 238 238 237 188 182 230 245 243 243 243 243 
243 245 243 245 245 245 246 245 244 245 243 244 242 241 241 242 
242 241 242 243 242 242 243 241 240 240 239 241 242 242 234 198 
163 149 202 242 240 239 240 242 241 241 241 241 241 239 242 241 
242 242 242 240 242 244 187 212 245 244 244 245 244 244 244 244 
244 244 245 234 234 237 234 236 237 238 237 237 238 237 236 240 191 208 241 237 
239 238 240 240 240 239 239 238 233 245 244 242 244 242 243 243 
243 244 245 246 245 245 247 245 244 244 243 243 244 243 243 243 
242 241 243 244 243 243 244 242 242 240 239 241 240 243 243 242 
240 200 142 160 204 241 242 241 242 240 241 241 240 242 240 241 
240 242 240 238 241 237 167 244 244 244 243 245 244 245 244 244 
244 243 243 237 235 236 234 237 237 237 238 237 237 237 237 238 238 169 236 241 
238 237 238 239 239 240 239 239 243 243 243 243 242 243 244 245 
245 246 244 245 245 246 246 245 245 245 244 244 244 246 245 244 
244 243 243 245 244 244 245 244 242 242 242 240 241 242 241 240 
241 241 238 204 147 234 241 241 243 242 242 242 242 241 241 240 
243 240 242 240 242 171 226 245 243 245 244 243 244 244 245 244 
244 244 244 236 235 237 236 236 237 238 238 237 237 237 237 237 237 218 174 238 
239 237 239 239 240 241 239 240 241 241 242 244 244 245 244 243 
244 244 244 245 245 246 246 246 246 246 246 245 244 243 244 245 
244 244 244 242 243 243 244 244 243 242 243 242 241 242 242 240 
239 241 243 245 240 243 243 242 243 243 240 242 241 241 241 242 
241 242 243 240 220 172 247 244 246 245 244 244 245 245 246 245 
243 244 244 236 237 236 235 237 235 238 237 237 237 237 237 238 238 238 190 190 
240 237 235 239 240 240 239 241 240 242 243 243 244 244 245 244 
244 246 245 248 246 246 246 247 247 246 246 246 244 244 245 245 
246 244 243 244 244 244 243 242 243 244 242 242 243 244 242 241 
242 242 241 243 245 242 243 242 241 244 243 243 242 241 242 240 
242 241 242 235 168 240 244 243 242 244 244 245 244 245 246 247 
247 244 245 237 236 237 237 237 237 237 238 237 236 237 237 237 238 237 239 176 
221 240 238 240 241 241 240 242 242 243 243 243 244 245 245 245 
243 245 245 246 246 246 246 246 245 246 246 246 245 245 244 245 
244 245 244 244 243 244 244 244 244 242 244 242 243 241 244 243 
244 243 242 242 242 243 242 242 241 243 241 242 242 244 243 243 
242 240 242 186 219 246 244 244 244 245 246 245 245 244 245 246 
246 245 245 237 238 237 237 237 237 237 237 237 237 238 238 239 237 234 234 222 
167 226 239 240 239 240 241 239 242 242 243 244 244 244 244 245 
244 245 245 246 246 246 246 246 246 246 245 245 245 245 245 245 
245 245 244 244 244 244 245 244 244 245 244 245 244 243 244 243 
243 244 244 243 241 243 243 243 243 243 242 242 243 244 243 240 
240 243 211 191 248 244 246 245 244 245 245 245 246 245 246 246 
245 244 245 237 238 237 237 239 237 238 238 237 238 237 238 238 238 237 236 237 
220 170 230 242 238 239 241 240 241 241 243 244 244 245 245 245 
245 246 246 246 246 246 246 246 246 246 247 245 245 244 244 245 
245 245 245 244 246 245 245 244 245 245 245 243 245 244 244 244 
243 245 242 243 243 243 244 244 243 243 243 243 242 243 242 241 
242 210 195 249 245 245 245 245 244 244 245 246 246 246 244 245 
245 245 246 237 236 236 238 237 237 237 238 237 238 237 238 239 239 237 238 236 
241 208 165 228 237 239 240 242 240 242 243 244 243 244 245 245 
244 244 245 245 246 246 245 246 245 245 245 246 246 246 245 245 
244 245 245 246 245 246 244 245 244 245 244 245 244 245 245 244 
243 245 243 243 244 242 242 242 243 243 244 244 243 243 242 240 
222 185 245 245 246 245 245 244 245 245 247 245 247 246 246 247 
246 245 245 237 237 237 237 237 238 238 237 238 238 239 238 238 239 238 236 237 
235 240 226 168 230 239 241 242 242 243 244 245 244 244 245 244 
244 245 244 247 246 246 245 245 246 246 246 246 245 244 246 246 
246 245 246 246 245 245 246 245 245 244 245 245 244 244 244 244 
245 243 244 243 243 244 244 242 244 244 243 244 243 243 242 218 
183 246 246 245 246 245 246 245 245 247 247 245 246 246 246 247 
246 247 246 236 238 238 238 237 236 237 237 238 238 239 239 238 239 240 239 237 
236 238 241 235 193 229 243 242 242 239 243 244 244 244 245 246 
245 244 247 245 246 245 244 245 245 246 245 244 246 246 246 246 
245 246 245 245 245 246 245 245 246 245 245 244 245 244 244 244 
244 245 244 245 244 244 243 244 243 243 242 243 242 244 213 178 
247 246 245 246 245 244 245 247 246 246 246 248 247 246 248 245 
246 246 246 237 239 237 239 238 239 236 238 238 238 238 238 238 239 239 239 237 
238 239 239 243 235 174 203 242 243 243 243 244 244 244 244 245 
244 244 245 244 245 245 245 246 246 245 247 246 245 246 244 246 
246 245 246 245 245 244 244 245 245 243 244 245 245 245 244 243 
245 245 245 245 244 244 243 244 242 243 244 243 242 213 179 247 
247 246 246 246 246 247 246 247 247 247 247 247 247 248 247 247 
247 247 247 237 239 238 239 238 237 238 238 238 237 238 237 238 238 238 238 238 
238 237 239 239 241 242 195 201 241 246 242 244 243 244 244 244 
244 245 244 244 245 245 246 245 246 245 246 246 245 245 245 246 
245 245 245 245 247 246 246 246 247 247 244 244 245 245 244 245 
244 245 246 245 244 243 243 244 243 243 245 245 198 193 247 245 
246 245 246 247 246 246 246 247 246 246 246 247 247 248 247 247 
247 247 247 238 238 238 238 238 240 239 238 239 239 238 239 239 239 239 240 239 
240 239 239 239 239 243 245 215 169 221 247 244 243 244 245 244 
243 243 245 245 244 244 244 244 245 245 245 244 246 245 245 245 
245 246 246 245 245 246 246 246 244 246 245 245 244 245 245 247 
246 245 247 246 245 243 242 245 244 241 206 180 223 247 248 247 
246 246 247 247 246 247 246 247 249 249 247 248 249 248 248 248 
246 249 247 239 239 238 238 237 239 238 238 239 239 238 238 239 237 239 238 240 
239 239 241 241 239 241 242 244 232 182 195 239 246 245 244 246 
243 245 245 245 245 244 244 245 244 244 245 245 244 245 246 246 
245 245 246 246 246 246 246 246 247 247 246 245 246 245 245 245 
247 246 244 244 245 245 247 247 226 180 194 245 247 248 246 246 
247 246 246 246 245 245 248 248 247 247 248 247 246 248 248 248 
248 250 248 239 239 240 240 239 238 239 238 240 240 240 240 240 239 238 240 240 
240 240 238 241 242 242 241 242 244 245 216 170 206 242 245 245 
244 244 245 243 242 243 244 244 245 245 246 245 244 246 245 246 
245 245 245 245 247 246 246 246 245 247 246 246 246 245 244 245 
245 245 246 243 245 247 235 192 201 237 247 246 245 246 247 246 
247 248 247 246 248 247 247 248 249 248 249 248 248 248 248 249 
248 248 249 240 239 239 239 239 241 239 238 239 239 240 240 240 240 241 239 240 
240 241 241 240 240 240 241 241 240 242 247 243 205 167 216 241 
244 245 243 245 243 245 244 244 244 244 244 245 245 245 246 247 
246 245 248 247 247 246 246 246 246 246 244 245 247 246 246 246 
246 247 247 245 245 207 179 225 249 249 247 247 246 248 247 248 
247 248 248 247 248 248 249 248 248 249 248 249 248 249 249 249 
249 249 249 238 239 239 239 238 239 241 238 239 240 240 240 240 240 240 239 240 
238 239 240 241 242 241 241 242 242 242 241 245 245 236 188 168 
222 243 243 244 244 244 243 243 245 244 245 244 244 244 245 245 
245 247 247 245 245 246 246 246 246 246 246 246 247 248 245 247 
248 248 232 204 165 223 248 249 247 247 248 247 248 248 248 248 
249 247 248 249 248 249 250 247 248 248 248 249 248 249 249 250 
249 249 249 241 239 239 239 239 240 239 239 239 240 240 240 240 241 241 240 241 
239 239 239 241 243 241 241 241 241 242 243 242 243 245 248 238 
218 191 190 227 241 245 245 245 246 245 245 244 244 244 245 247 
246 245 244 245 245 246 247 247 247 246 247 249 246 248 247 244 
214 183 198 230 247 250 250 249 248 248 247 248 248 248 248 248 
248 248 249 249 248 248 248 249 248 249 249 250 249 250 249 249 
249 249 249 240 240 241 239 240 241 242 239 240 242 239 240 240 241 241 240 239 
239 242 241 240 242 243 243 243 242 242 243 243 243 243 243 246 
247 245 204 171 166 203 230 246 243 245 247 245 245 244 243 247 
246 247 248 247 246 246 246 248 248 248 247 244 244 210 187 188 
205 240 249 247 249 249 249 249 249 249 249 247 249 249 250 249 
250 250 249 249 249 249 249 250 249 250 249 250 250 249 250 250 
250 250 250 242 241 240 240 241 241 240 241 241 241 238 243 242 241 240 241 240 
240 239 240 238 241 242 242 242 242 241 243 243 243 244 243 244 
245 245 247 248 227 183 146 149 182 220 233 242 245 242 246 249 
249 250 247 245 246 246 245 243 224 214 190 175 177 207 238 252 
250 249 249 249 249 249 249 248 249 249 249 249 250 249 247 249 
249 250 248 250 250 250 249 249 250 249 250 250 249 250 248 250 
249 249 250 240 241 241 243 241 241 240 240 240 240 240 240 241 241 241 240 241 
241 241 241 238 241 241 241 241 241 243 242 244 244 243 244 243 
244 244 245 246 248 247 245 241 217 196 183 181 182 192 184 191 
200 190 191 179 183 179 190 186 200 213 237 248 250 250 250 250 
249 247 247 249 250 250 250 249 251 250 250 250 250 250 251 250 
250 249 250 250 250 249 250 250 249 249 250 250 250 250 250 249 
250 250 250 242 241 242 242 240 242 241 241 239 241 242 241 241 240 240 240 241 
241 241 240 241 241 241 241 241 241 244 243 243 244 245 244 245 
244 246 245 246 245 246 248 248 248 248 249 249 249 245 240 232 
237 239 242 244 249 251 252 253 252 251 249 251 249 249 248 248 
247 248 249 250 249 249 250 250 249 250 250 250 250 251 249 250 
250 250 250 251 251 250 250 250 250 250 250 250 250 250 250 251 
250 251 251 242 242 241 241 242 241 241 241 241 240 240 242 241 242 241 243 240 
240 241 241 241 242 241 239 241 241 242 242 243 244 245 245 245 
246 245 245 246 247 248 247 247 246 246 247 247 247 248 249 249 
249 251 251 253 251 249 249 249 249 249 249 249 247 249 249 249 
249 249 249 250 250 251 250 249 250 250 251 250 251 250 250 252 
249 251 251 251 250 249 249 251 250 250 250 252 250 250 251 250 
250 249 249 242 243 241 242 242 242 241 242 240 240 240 241 243 241 240 240 240 
240 241 241 241 240 242 241 242 242 242 243 242 243 244 246 246 
245 246 246 246 246 247 247 246 246 247 246 246 247 247 249 248 
249 249 251 252 252 249 249 248 248 248 248 249 249 249 248 248 
250 250 250 251 251 250 250 251 250 250 251 250 250 251 251 250 
251 251 250 250 250 251 250 251 250 251 252 251 251 249 251 251 
250 251 250 242 242 241 241 242 243 241 241 243 243 241 241 239 240 239 240 240 
241 240 239 240 240 240 241 240 243 243 243 243 244 245 244 246 
245 247 246 246 246 248 247 246 246 246 246 247 247 248 248 249 
249 248 250 252 251 250 249 249 248 250 250 250 250 250 250 249 
251 251 250 252 251 250 251 249 250 250 251 251 251 251 251 251 
251 251 253 252 252 250 250 250 250 251 251 251 252 252 251 252 
251 251 251 241 242 242 241 241 241 242 242 241 241 241 242 243 243 242 241 241 
241 239 240 239 239 238 237 239 241 241 245 242 244 244 244 245 
246 246 246 247 246 247 246 247 246 246 248 248 247 247 248 249 
249 249 250 250 251 251 249 250 252 250 250 250 250 251 250 250 
250 250 252 251 251 251 251 251 252 250 251 251 251 251 251 251 
251 251 251 253 252 253 252 251 250 250 250 250 251 251 252 251 
251 252 252 