P2
# Created by IrfanView
100 100
255
214 214 215 213 214 215 214 214 215 215 216 217 216 215 215 214 215 
215 215 217 216 217 218 218 218 218 218 218 217 220 218 218 219 
218 218 220 218 219 220 221 219 220 220 218 220 220 220 220 220 
219 218 220 218 221 222 222 222 222 222 223 223 223 223 222 223 
226 224 222 223 224 225 224 224 225 226 226 226 224 226 227 225 
227 225 225 227 227 227 225 226 227 226 227 226 227 227 228 230 
229 230 229 215 214 216 215 216 216 217 216 215 216 216 215 217 217 215 215 216 
218 219 218 217 218 218 219 219 218 219 219 220 219 219 219 220 
219 220 221 219 219 218 219 221 220 220 218 219 221 219 219 220 
220 220 220 221 222 220 221 222 222 223 219 223 223 221 221 223 
225 225 224 223 224 222 222 225 225 225 226 226 225 224 226 227 
226 226 226 227 228 227 226 227 226 229 228 228 228 228 229 230 
230 231 230 216 214 216 217 216 215 216 215 216 217 216 215 215 216 217 215 216 
217 220 219 219 218 217 218 219 220 219 219 219 219 218 219 219 
218 219 220 218 219 218 219 219 219 220 223 220 221 220 220 220 
220 221 219 222 221 222 222 220 222 222 220 222 222 224 223 223 
224 223 224 225 224 224 225 226 225 225 226 226 225 224 227 226 
227 227 226 228 227 228 228 228 228 228 228 229 228 228 228 230 
231 231 231 217 217 217 216 216 216 217 217 217 217 216 217 217 217 216 217 217 
218 218 217 218 219 218 220 219 220 218 219 219 220 219 220 219 
218 220 218 219 220 220 220 220 220 220 219 218 222 221 221 220 
219 220 223 221 220 222 221 223 222 223 223 223 224 224 223 224 
225 224 224 223 226 226 225 227 226 226 224 226 222 223 227 226 
228 227 226 226 228 229 227 229 228 229 229 228 230 229 230 228 
230 231 231 216 216 216 218 218 219 219 217 218 219 217 217 219 219 218 219 217 
219 220 219 218 220 220 218 219 217 219 220 220 219 218 218 219 
218 218 220 218 219 219 220 220 219 220 220 220 222 222 222 219 
220 219 220 219 220 220 222 221 222 221 222 222 223 222 225 223 
223 224 223 225 226 224 223 224 226 224 226 224 227 227 227 227 
227 227 227 227 229 228 228 230 230 229 229 230 230 230 230 230 
229 231 231 220 218 218 219 220 219 219 218 219 219 218 219 219 219 219 219 219 
220 219 219 219 220 219 221 219 219 220 219 217 219 221 221 218 
220 220 220 220 220 220 221 221 220 221 221 220 221 221 221 219 
220 219 220 220 221 221 222 221 221 221 221 221 222 224 222 224 
224 225 226 224 225 225 225 226 226 225 227 225 227 227 227 227 
227 227 228 228 230 230 230 230 230 230 230 229 230 231 230 230 
231 231 232 220 220 219 219 219 220 219 218 220 220 220 220 219 218 220 219 221 
219 220 220 220 221 221 220 220 221 222 220 221 220 220 220 220 
220 219 219 219 220 220 218 219 220 222 220 220 222 223 223 222 
221 222 223 221 222 222 221 222 223 222 223 223 223 222 225 224 
225 226 225 227 226 226 226 226 227 225 224 227 228 227 227 227 
229 227 227 228 229 230 230 232 230 231 231 233 232 231 231 231 
232 231 234 220 220 220 221 220 221 222 220 220 221 221 220 220 220 220 220 221 
220 221 221 222 221 221 222 220 220 221 221 220 219 220 220 219 
219 219 220 221 218 219 219 220 223 226 225 221 222 221 221 218 
216 216 215 219 217 219 220 224 227 226 225 224 224 225 223 224 
225 225 227 227 227 227 227 226 227 228 227 227 227 227 228 228 
227 227 229 228 230 232 231 231 232 231 231 233 231 232 230 231 
231 233 233 223 223 224 222 221 223 222 221 221 223 220 222 222 222 221 221 221 
222 221 222 222 221 222 222 223 221 221 223 222 220 221 219 219 
221 219 220 221 220 220 221 221 218 211 205 201 186 172 169 158 
162 148 156 180 165 179 195 203 208 216 221 221 224 225 222 225 
226 226 226 226 226 227 227 228 228 228 228 229 227 229 228 229 
229 227 229 232 229 230 231 231 231 231 231 230 232 231 231 232 
232 232 234 224 225 224 222 223 222 221 224 223 222 221 222 223 223 222 220 223 
222 224 221 223 223 222 222 222 221 225 223 223 222 224 222 219 
220 220 223 224 221 210 203 178 162 150 161 171 183 189 191 205 
202 214 205 203 209 196 189 182 171 166 156 186 203 214 219 226 
229 227 227 227 227 228 228 228 227 229 228 228 228 229 230 228 
229 228 227 226 231 231 232 231 232 234 233 233 233 234 232 233 
231 234 232 222 224 221 225 224 224 224 223 223 223 224 224 223 222 222 223 222 
224 222 222 225 223 222 222 223 223 223 225 225 225 224 222 219 
222 224 215 197 172 168 170 208 207 221 228 231 231 232 230 229 
229 228 227 229 229 230 229 228 230 227 213 187 167 160 179 204 
219 225 225 227 229 231 228 228 230 229 226 230 228 229 229 229 
229 230 230 229 229 232 231 232 232 231 231 232 232 232 232 233 
232 232 233 226 225 224 223 224 222 224 224 225 224 224 224 223 224 224 223 224 
223 224 224 224 223 223 223 225 222 222 223 225 225 227 225 216 
198 189 161 173 201 219 227 229 229 229 226 225 226 228 226 226 
225 225 225 226 225 226 224 226 226 229 229 231 231 222 199 167 
157 188 212 222 230 228 229 229 230 229 229 229 230 230 231 232 
230 231 231 231 230 231 232 231 232 231 231 233 232 232 232 232 
233 233 234 226 226 226 226 225 226 225 225 224 224 224 224 225 226 226 225 227 
225 224 224 226 223 224 225 225 223 222 221 223 227 220 190 163 
165 200 218 226 227 227 227 226 228 227 226 225 228 227 227 227 
226 225 226 227 229 229 228 226 228 230 228 226 228 230 232 231 
221 187 162 168 211 227 231 231 230 231 230 230 230 230 230 231 
230 231 230 230 231 232 233 233 231 232 233 232 232 231 233 232 
232 234 231 225 224 225 225 226 225 225 227 226 225 227 226 225 225 227 227 228 
226 225 225 224 225 225 227 226 224 222 224 222 196 158 174 214 
229 230 227 226 227 225 227 228 227 227 228 227 226 227 228 227 
230 228 230 229 227 228 228 229 230 230 228 228 227 226 225 227 
231 232 227 202 169 190 216 230 232 231 230 231 229 230 230 230 
232 232 233 233 232 233 233 232 231 232 234 232 232 232 233 233 
233 234 233 228 227 227 227 227 227 226 226 228 228 226 227 227 226 227 227 227 
228 226 227 227 227 225 225 225 225 227 211 155 161 214 227 227 
227 225 224 227 226 228 228 228 228 229 229 230 228 229 229 230 
229 231 230 231 230 230 231 231 230 230 230 229 229 229 229 228 
229 228 230 233 229 189 167 205 224 231 231 232 232 231 231 232 
232 232 233 233 232 232 232 233 233 232 232 233 232 234 233 232 
233 233 234 227 227 229 228 228 228 227 227 227 226 226 227 227 227 226 227 227 
227 228 226 227 228 228 227 227 228 199 133 184 228 232 229 228 
227 227 227 229 230 230 229 229 229 230 228 228 228 229 229 230 
230 229 230 231 232 231 230 231 230 232 233 230 229 228 231 231 
230 230 229 231 231 234 211 171 180 223 231 232 232 231 233 232 
232 233 233 232 233 232 233 233 233 232 233 233 232 233 232 231 
232 235 233 227 228 227 227 227 229 227 228 227 228 227 227 229 228 228 227 228 
228 227 227 227 229 225 229 230 193 127 219 233 231 230 230 227 
228 230 230 229 228 230 230 230 229 230 230 230 230 230 230 232 
232 231 233 231 233 233 232 232 232 232 233 231 230 230 233 232 
231 230 233 232 231 230 234 235 196 174 211 229 232 235 234 234 
233 233 232 233 234 234 234 234 233 234 234 234 234 232 232 233 
234 234 235 228 229 228 228 229 229 229 228 228 228 227 228 227 229 229 229 230 
228 228 228 227 227 229 226 169 134 220 231 229 229 229 230 229 
231 230 230 231 230 230 231 231 232 232 231 230 231 231 233 231 
231 232 233 233 232 232 232 233 233 232 233 231 232 231 233 232 
230 230 229 231 233 233 234 232 234 216 170 198 226 236 233 233 
234 234 234 234 234 233 235 233 233 233 233 234 235 233 233 235 
233 234 233 229 229 228 228 230 228 228 228 228 230 229 230 232 229 229 229 230 
229 228 228 228 230 224 144 170 234 232 232 230 230 229 230 231 
229 231 231 230 231 232 231 230 231 231 230 231 232 231 231 231 
231 232 231 231 231 233 233 233 231 231 231 233 232 232 233 231 
233 234 233 232 233 233 234 233 234 235 229 186 188 229 234 234 
233 234 234 234 233 234 233 233 236 234 234 235 235 232 234 233 
235 234 234 229 229 228 230 227 229 228 228 229 228 229 230 230 229 229 230 230 
231 229 229 231 222 147 187 233 232 232 231 230 231 232 230 232 
231 233 231 232 231 232 233 232 232 231 232 232 231 232 231 232 
230 232 232 232 233 233 232 233 234 234 235 233 234 233 234 233 
232 233 233 233 234 234 235 235 233 233 234 233 196 188 226 232 
234 234 235 235 235 235 237 235 234 235 235 234 235 235 234 235 
234 237 237 230 230 230 230 230 229 230 230 230 230 230 231 229 229 230 231 230 
231 227 232 220 138 209 235 233 232 233 232 231 233 232 231 231 
231 231 232 231 232 231 232 233 232 233 232 231 233 233 233 233 
231 232 233 233 233 233 234 235 234 234 233 234 234 233 232 233 
232 233 235 235 235 234 235 236 236 234 235 236 235 196 182 225 
235 235 233 234 236 234 234 235 234 235 234 234 236 235 235 236 
236 235 237 229 229 231 230 229 230 230 230 229 229 229 229 230 232 231 232 231 
232 233 217 122 211 236 233 232 233 233 233 232 233 233 233 233 
234 232 232 232 232 232 232 232 232 232 232 232 232 231 231 230 
231 232 233 233 232 233 233 233 234 233 234 233 234 234 234 234 
233 233 233 234 234 235 234 234 235 236 235 234 233 236 200 188 
224 234 235 234 236 235 234 235 235 236 235 235 237 236 237 236 
236 237 238 231 231 231 231 231 230 229 230 230 230 232 231 231 232 230 232 233 
233 226 135 203 234 233 232 233 232 232 232 234 233 233 233 233 
233 231 232 233 233 232 232 232 232 233 233 233 233 233 233 234 
232 233 233 231 234 234 234 236 234 234 234 235 234 234 234 233 
234 235 236 235 236 234 235 234 234 237 236 235 233 234 236 201 
195 229 235 237 234 236 236 236 236 236 235 235 236 237 236 235 
237 237 237 231 231 232 232 231 231 230 231 230 229 230 232 230 231 230 232 231 
231 139 192 237 232 233 233 233 233 234 234 233 233 233 233 233 
235 234 233 234 233 233 233 234 234 234 234 234 233 233 232 232 
232 232 231 232 233 232 231 234 236 235 235 234 236 234 236 235 
236 235 236 233 236 237 234 234 235 234 234 235 235 234 237 239 
196 200 232 234 236 235 236 235 236 237 237 236 236 236 237 237 
236 237 236 231 230 231 229 233 231 231 231 231 232 231 232 232 231 233 231 233 
157 173 237 233 234 232 233 233 234 234 234 233 233 234 234 233 
233 233 232 233 234 233 233 233 233 235 234 234 232 234 233 232 
233 234 232 232 230 232 232 234 234 234 236 236 235 236 235 233 
235 235 235 235 234 234 236 235 235 235 234 235 235 236 235 236 
232 183 208 231 236 236 236 237 237 237 236 236 237 236 237 238 
238 237 237 232 232 231 231 231 231 231 232 231 231 231 232 232 231 232 234 186 
160 234 233 234 233 234 233 235 233 233 231 235 234 234 234 233 
234 234 233 234 234 234 234 234 235 233 235 235 235 234 233 233 
234 234 232 232 232 232 234 236 235 236 233 236 234 236 235 235 
236 234 235 235 235 237 236 235 236 236 235 237 236 235 233 234 
235 224 177 224 237 237 237 238 237 236 236 236 237 237 236 237 
237 237 236 231 231 231 232 232 232 232 232 233 232 230 231 231 232 233 222 136 
233 233 232 234 233 233 234 235 233 235 235 234 234 236 235 234 
234 234 235 233 234 231 233 234 234 234 236 236 235 234 236 236 
234 233 233 232 229 233 234 233 236 236 237 236 235 237 234 236 
235 236 235 235 236 237 237 236 235 235 236 234 236 236 234 233 
235 236 204 189 226 236 237 237 237 238 238 238 238 237 237 236 
236 238 236 233 233 234 233 232 233 232 232 232 234 233 230 232 232 234 145 219 
235 234 234 232 234 234 234 233 234 234 234 234 236 235 235 233 
235 234 234 235 234 234 234 234 234 236 235 234 234 235 234 236 
236 236 236 234 233 234 235 236 236 235 235 236 235 236 237 237 
238 236 237 237 237 237 236 236 235 236 236 236 238 235 236 234 
236 237 238 185 201 233 237 236 238 238 236 237 237 237 238 235 
238 238 238 232 233 233 233 234 233 232 233 232 235 233 233 231 234 198 169 240 
233 234 233 232 233 233 233 236 235 235 234 235 235 235 235 234 
235 235 234 234 234 234 235 235 235 235 235 237 237 237 236 235 
236 237 235 236 237 236 236 235 238 235 236 236 236 236 235 235 
237 235 236 235 237 238 237 236 235 236 236 237 238 238 237 237 
238 237 238 229 170 220 237 238 239 238 239 239 238 237 238 237 
239 238 238 232 233 233 233 232 234 234 233 234 233 233 233 233 232 136 234 234 
234 235 233 234 233 235 236 235 235 236 236 237 238 236 237 237 
235 235 235 234 234 235 235 235 236 235 235 234 236 237 238 236 
238 237 238 238 236 235 235 236 236 237 237 236 236 236 237 236 
237 237 237 238 238 240 239 238 237 237 239 238 238 237 236 238 
237 239 238 239 214 191 232 238 237 240 238 239 240 237 237 239 
239 239 238 233 234 233 235 235 232 235 233 233 234 235 232 234 162 186 236 235 
233 234 235 233 235 232 222 201 211 211 221 227 228 236 233 236 
235 237 237 235 235 234 235 236 236 236 235 235 237 238 238 238 
237 238 239 238 238 239 238 237 237 236 236 235 237 236 237 238 
237 241 239 237 235 229 232 232 230 236 236 236 238 239 238 237 
239 239 239 239 236 187 223 237 239 240 240 239 241 240 239 239 
238 239 240 235 234 234 234 234 235 235 233 235 236 237 234 222 136 238 236 234 
234 235 235 222 193 168 168 186 193 191 177 178 180 183 178 191 
213 222 229 234 235 235 235 236 236 235 237 236 237 238 238 239 
239 239 241 240 240 241 242 239 240 239 238 238 238 238 238 236 
231 221 199 184 175 180 185 182 192 185 186 188 212 222 234 237 
239 240 239 239 240 224 189 230 239 240 241 239 239 241 242 238 
239 239 241 234 233 233 234 233 234 234 233 235 235 233 236 160 206 237 235 234 
234 237 178 175 206 225 238 240 238 237 236 235 233 230 224 208 
200 168 180 215 224 236 235 236 236 235 236 237 238 239 240 239 
240 239 239 239 238 242 242 243 242 240 239 239 241 240 205 186 
176 186 215 230 234 237 239 235 229 227 216 210 192 179 215 239 
238 240 239 239 238 241 190 210 236 241 241 243 240 242 244 241 
239 241 239 234 234 234 233 233 235 235 235 235 231 230 224 144 242 236 236 235 
237 235 226 238 237 239 236 235 235 236 236 235 236 234 236 236 
238 234 222 193 182 191 219 229 236 238 238 238 238 240 240 240 
240 240 240 240 242 240 242 240 243 240 241 241 225 186 186 217 
236 242 242 242 244 243 241 239 241 241 241 243 242 234 219 240 
240 241 240 239 240 240 231 192 231 240 242 240 242 243 243 243 
241 239 241 235 234 233 235 232 233 235 234 234 231 233 161 200 235 236 236 235 
233 236 235 236 236 235 236 237 234 235 235 234 236 234 235 235 
235 238 239 241 239 218 193 188 216 233 236 237 239 239 240 240 
239 240 240 239 240 239 240 242 243 244 240 205 182 221 243 243 
239 241 239 239 239 240 240 239 239 240 240 241 242 242 242 241 
241 241 242 243 239 241 241 190 217 237 240 242 242 242 243 243 
242 242 240 233 234 234 233 234 234 234 233 233 232 226 134 234 236 236 237 234 
235 236 234 233 234 234 235 235 235 236 235 235 236 235 235 236 
236 233 236 235 238 241 242 231 207 189 205 228 237 241 240 240 
240 240 240 239 241 241 238 242 243 216 180 212 241 243 240 239 
238 238 239 240 241 240 240 240 241 241 240 242 241 240 240 240 
241 239 241 241 240 240 241 221 196 240 241 243 243 243 243 243 
242 242 242 234 234 234 236 235 234 235 235 235 232 192 183 235 236 236 236 235 
236 235 234 234 234 235 235 235 235 236 235 236 235 235 236 235 
236 236 238 236 235 236 239 239 240 228 200 180 225 240 240 240 
240 240 240 240 240 240 241 237 172 176 238 243 240 239 238 239 
239 240 240 240 240 240 240 240 240 240 241 241 240 241 241 240 
241 242 242 241 241 242 241 240 192 229 240 242 242 241 243 243 
243 242 243 234 234 234 234 235 233 234 233 235 237 144 228 234 235 236 237 234 
234 236 234 235 235 236 235 235 235 235 234 235 235 236 237 236 
236 237 236 236 237 238 237 237 238 239 240 215 220 241 240 240 
240 240 240 241 240 240 234 157 203 244 242 239 240 239 240 241 
240 240 241 241 241 241 242 242 242 241 242 242 241 242 241 241 
241 241 242 242 242 243 243 243 205 200 240 242 243 242 244 242 
243 242 242 234 234 234 234 234 233 233 235 233 221 146 236 237 236 236 238 236 
234 235 235 235 235 236 236 236 236 235 236 237 237 237 237 235 
236 236 238 236 241 237 238 238 240 238 237 239 239 239 240 240 
239 240 240 241 241 240 219 211 240 240 238 239 238 240 240 242 
241 240 241 241 242 241 241 240 240 242 240 242 240 241 241 241 
241 241 241 242 241 243 244 243 224 190 233 242 242 242 243 243 
242 243 243 235 234 236 236 234 233 234 234 234 186 195 236 236 236 236 238 235 
235 236 236 236 236 235 235 236 237 234 235 235 235 236 236 236 
236 236 236 238 209 223 239 239 239 239 238 239 238 240 241 240 
239 241 240 240 239 239 241 243 241 237 237 201 230 240 240 241 
240 240 240 240 239 242 242 242 241 241 242 241 241 240 240 242 
242 241 241 242 242 242 243 244 239 185 217 240 242 242 243 242 
242 243 243 235 236 235 235 235 233 234 236 235 149 226 236 236 236 238 235 237 
237 235 237 237 235 236 236 235 236 237 236 235 236 236 235 236 
236 236 239 232 154 236 239 240 239 237 238 239 240 239 240 240 
240 239 239 239 240 241 240 238 240 238 237 195 215 239 240 239 
239 240 240 240 241 241 240 240 241 242 242 242 242 240 240 241 
242 241 241 244 243 242 244 242 243 201 196 237 242 242 243 243 
242 243 244 236 234 235 235 236 235 235 236 232 143 237 236 236 237 237 237 236 
235 237 236 239 237 235 236 236 235 235 235 237 236 236 235 235 
235 238 241 186 197 239 241 240 240 240 239 239 237 239 240 240 
240 239 240 240 239 240 239 240 241 239 236 233 193 228 238 239 
238 239 239 241 240 241 241 240 239 241 241 240 241 241 241 241 
241 241 241 243 241 241 242 241 241 215 184 234 241 242 243 243 
242 243 244 236 236 236 236 236 236 235 235 221 164 237 236 237 236 236 237 236 
238 236 236 235 238 236 237 237 237 237 235 235 236 236 237 239 
241 239 204 170 241 241 241 241 239 240 240 240 240 241 240 240 
240 240 240 239 239 239 238 238 240 238 237 237 205 181 222 237 
239 239 238 240 240 241 240 240 241 241 240 241 241 240 241 243 
240 240 241 241 242 242 241 242 243 233 173 227 239 242 241 242 
243 243 242 237 237 235 236 236 237 235 237 198 191 236 237 237 237 236 237 239 
236 235 240 185 207 233 235 239 239 239 238 234 237 239 240 241 
223 171 163 237 241 241 239 240 241 240 239 241 241 241 240 239 
240 239 239 238 240 240 238 240 239 239 238 237 236 201 183 218 
232 237 239 240 240 239 241 241 240 239 240 241 240 241 242 243 
241 241 239 241 242 241 240 242 243 239 172 212 240 242 243 243 
242 242 242 238 236 237 236 237 237 235 234 177 222 235 236 238 238 237 237 237 
236 236 237 227 164 170 198 219 226 230 232 241 240 226 197 155 
150 194 241 243 241 240 242 241 242 241 240 239 240 240 239 240 
240 240 239 240 240 239 239 239 237 239 238 236 240 241 211 173 
192 225 235 241 242 242 244 242 241 242 242 243 244 244 243 230 
241 239 242 242 240 242 240 240 241 241 180 206 240 242 242 242 
242 242 242 237 237 239 237 236 236 236 236 154 233 236 237 238 238 238 238 240 
240 237 237 238 240 205 171 165 150 147 161 162 153 154 167 206 
239 243 243 241 240 241 240 242 241 239 240 242 240 239 241 241 
240 240 240 238 239 239 240 239 240 240 239 239 240 241 245 235 
193 171 188 217 230 237 239 240 241 240 238 234 226 189 145 173 
240 240 225 226 240 240 240 241 239 240 195 214 239 242 241 241 
243 243 241 238 237 237 236 237 239 237 236 151 239 238 239 240 239 239 238 237 
238 240 237 236 240 242 242 243 240 225 215 197 223 234 242 244 
242 240 243 243 243 242 241 241 241 241 241 240 240 242 240 239 
240 239 242 240 241 239 240 239 239 240 240 239 240 242 240 243 
245 225 200 174 171 173 185 201 197 169 151 149 153 190 217 233 
240 238 225 238 241 241 241 240 240 243 203 197 237 241 242 243 
241 242 242 238 237 237 239 238 236 236 179 148 238 240 239 239 238 239 239 240 
240 238 240 240 239 240 240 242 243 243 244 244 243 243 243 240 
242 241 240 240 240 241 241 242 241 240 239 241 242 241 239 239 
241 240 240 241 240 240 241 241 240 241 240 240 239 241 240 241 
242 245 244 235 220 210 193 176 158 180 205 210 227 240 239 237 
239 237 243 241 241 241 241 240 240 242 222 197 239 243 243 242 
243 242 243 238 239 239 238 237 237 239 221 166 240 238 239 240 239 241 241 238 
241 240 240 239 241 240 241 239 241 240 241 242 239 242 241 241 
241 241 242 242 241 242 242 241 241 241 241 240 240 240 241 241 
241 241 241 241 240 240 241 240 241 241 239 241 242 241 241 241 
241 242 242 241 245 246 246 238 236 238 238 238 239 241 241 241 
240 243 242 242 241 242 242 240 240 241 236 203 237 242 241 241 
242 242 241 238 239 239 238 239 239 236 220 192 238 240 240 239 241 241 241 241 
240 241 240 240 242 241 240 242 242 240 240 241 240 239 239 241 
241 241 242 243 243 242 243 242 242 241 241 241 240 242 242 241 
241 241 241 240 242 242 242 240 239 241 240 242 241 241 242 243 
240 243 241 241 242 242 243 243 243 242 244 243 242 242 242 242 
242 242 243 242 241 243 241 240 241 239 234 202 236 242 241 242 
242 242 242 241 240 240 239 240 238 239 217 210 240 241 240 240 242 240 239 241 
241 241 242 242 241 243 241 239 241 243 241 241 242 241 239 241 
241 242 240 240 242 242 242 241 243 242 243 241 242 242 240 241 
241 242 242 241 242 242 243 243 241 242 242 243 242 243 243 242 
243 243 243 241 242 243 243 242 242 241 242 242 242 242 242 243 
243 242 242 242 242 242 243 239 244 240 232 194 237 241 242 242 
243 241 242 241 241 240 241 242 239 238 214 214 242 239 240 240 241 240 240 241 
242 240 241 240 242 243 241 243 242 243 242 241 242 242 242 243 
242 241 242 242 243 243 242 242 242 242 240 241 241 240 242 242 
240 240 241 242 241 241 241 239 242 243 242 242 243 243 242 242 
243 244 243 242 243 242 243 243 242 241 242 242 243 242 243 242 
243 243 241 242 242 242 243 243 243 240 231 193 236 242 242 242 
242 242 242 242 242 241 240 240 240 241 216 217 240 241 241 242 241 242 244 242 
242 243 243 242 241 243 243 243 243 242 242 242 242 242 242 242 
242 242 241 243 242 241 243 243 243 242 242 241 242 241 240 242 
241 240 241 241 241 240 242 242 242 242 242 243 242 241 243 244 
244 243 242 243 243 243 242 242 243 241 242 241 243 242 242 242 
243 244 242 242 241 242 243 244 243 241 221 197 237 243 242 241 
241 241 242 241 242 242 242 240 242 240 220 199 243 242 241 242 241 243 242 242 
242 243 242 243 241 243 243 244 241 243 243 242 242 242 242 242 
243 242 242 242 242 243 242 243 242 242 242 241 242 242 240 241 
241 241 242 241 241 242 240 241 240 243 244 242 242 243 244 243 
243 243 243 243 243 243 243 244 243 242 242 241 242 241 243 243 
243 243 242 241 243 242 243 243 244 240 223 199 236 241 241 242 
242 242 242 243 241 241 241 242 242 239 226 192 243 243 242 243 243 243 242 243 
242 242 243 242 243 243 241 241 243 243 242 244 243 242 243 242 
241 241 242 243 243 242 243 244 243 241 241 242 239 241 242 241 
242 242 242 241 242 242 242 241 242 242 241 244 242 243 243 243 
243 244 244 244 244 244 244 244 243 243 243 243 243 244 242 242 
243 242 242 244 242 242 244 243 242 242 222 200 239 243 242 242 
241 242 241 243 243 242 242 242 241 240 234 177 243 242 242 242 242 243 242 242 
243 243 242 243 242 243 243 244 243 243 242 244 242 244 244 241 
244 243 242 243 242 243 243 242 242 242 241 241 241 242 241 240 
240 240 241 241 241 239 241 241 242 240 241 241 242 242 242 242 
244 242 243 243 243 245 246 244 243 243 243 243 243 241 242 242 
242 243 242 242 243 242 242 243 242 242 228 192 239 241 242 243 
243 241 240 244 244 242 243 242 242 240 237 184 243 242 243 243 243 242 244 244 
243 244 243 244 243 241 243 243 243 243 243 244 243 242 244 242 
242 242 241 242 242 242 244 243 241 240 241 241 242 242 241 243 
243 241 242 241 240 240 239 240 239 241 242 242 242 242 243 245 
241 243 243 243 243 245 243 244 242 241 242 241 241 242 241 242 
242 242 243 243 241 242 241 243 243 242 215 202 240 242 242 241 
243 242 242 243 244 245 244 243 241 241 241 194 242 243 244 243 243 244 243 243 
243 244 244 243 243 243 243 243 242 245 243 244 244 244 244 243 
242 240 241 242 243 243 243 243 241 241 243 242 242 242 242 243 
242 240 240 240 240 241 241 239 242 239 242 239 240 240 242 242 
243 242 241 242 242 244 244 244 243 242 242 242 242 242 242 242 
242 241 241 244 243 242 242 241 240 243 218 211 243 243 241 241 
242 242 242 244 244 244 245 243 243 241 244 189 240 244 243 244 243 243 244 243 
243 244 244 243 244 244 243 242 243 244 243 244 243 243 245 244 
244 244 242 243 243 242 244 243 242 242 242 241 243 243 243 243 
243 244 242 241 242 243 241 242 240 240 240 241 240 239 241 242 
242 241 241 242 243 242 245 244 244 243 242 243 243 243 242 242 
242 244 243 242 243 243 241 242 241 240 199 222 242 243 242 242 
243 244 243 244 243 244 245 243 244 242 244 201 229 244 244 244 243 244 244 244 
243 242 244 243 244 243 242 242 244 243 244 244 243 244 244 243 
243 244 243 242 241 245 243 245 243 244 244 245 246 245 241 234 
231 229 228 233 235 235 236 240 233 237 235 237 239 239 241 240 
241 241 239 241 242 241 240 242 243 243 243 242 241 241 241 242 
242 241 240 242 241 241 241 241 241 240 198 228 242 242 242 242 
242 242 242 244 245 244 244 244 245 245 244 223 212 244 244 244 244 243 245 244 
244 245 245 244 243 243 244 243 244 245 244 243 243 245 244 243 
243 242 240 242 245 243 243 242 238 233 225 215 197 196 179 169 
171 178 180 188 188 177 186 190 193 197 180 209 213 209 232 238 
241 242 239 241 242 243 243 242 243 241 244 243 243 242 241 241 
242 240 243 242 243 240 240 240 241 239 192 237 244 242 241 240 
241 241 243 244 243 244 243 244 245 243 245 240 188 245 244 245 245 246 245 245 
247 244 245 246 244 244 244 244 244 245 243 244 244 244 244 243 
242 243 245 243 236 211 185 184 187 184 193 206 219 232 240 242 
240 240 241 246 243 237 243 233 233 225 209 190 174 182 198 237 
242 241 240 240 241 242 242 242 242 243 244 242 242 240 242 241 
242 243 241 241 241 241 242 243 241 228 196 238 242 242 242 242 
242 242 242 245 245 244 245 245 243 243 243 245 185 241 245 244 244 245 245 245 
244 244 245 245 245 244 244 245 245 244 244 244 244 245 244 242 
243 244 239 195 176 183 217 232 238 249 245 246 246 248 247 245 
245 246 246 245 245 246 246 245 243 241 241 241 243 237 193 236 
241 242 241 242 241 241 241 242 242 242 241 241 242 241 242 240 
242 243 242 242 243 240 242 244 240 226 199 243 242 241 242 243 
241 241 240 243 245 244 245 246 245 244 243 245 205 222 245 245 245 245 245 245 
245 245 245 245 245 246 244 244 244 245 245 243 244 245 245 243 
244 207 161 197 239 249 249 247 246 245 246 245 244 243 244 245 
244 245 243 243 244 244 244 244 241 239 240 241 242 242 242 240 
241 241 241 241 242 240 242 242 241 241 240 240 241 242 242 242 
239 240 238 239 238 237 239 239 242 208 225 242 242 241 241 241 
242 242 241 246 246 246 245 246 244 245 244 245 237 210 246 245 244 246 246 245 
246 246 245 246 246 244 245 245 245 245 245 245 243 244 246 244 
245 167 234 245 245 247 245 244 244 243 244 244 244 245 245 245 
244 245 244 245 245 244 244 244 243 240 240 238 239 239 241 238 
241 241 241 240 240 240 241 240 241 242 242 241 240 242 239 240 
240 239 239 240 239 237 235 235 235 193 239 245 242 243 242 241 
242 242 242 245 245 245 245 246 246 246 245 245 246 191 245 245 245 247 246 246 
245 246 247 246 245 245 245 245 245 245 245 246 245 245 246 243 
244 242 249 245 245 245 245 245 243 244 244 244 244 245 245 243 
244 244 244 245 245 245 246 245 243 242 241 239 240 239 239 241 
241 242 242 240 242 242 241 241 239 242 241 240 240 240 240 240 
239 240 239 239 238 237 236 237 216 197 240 241 243 242 241 242 
243 242 242 246 244 246 246 247 246 246 246 244 246 207 226 245 244 245 246 246 
246 246 245 246 246 246 245 245 245 245 245 245 245 248 247 246 
247 247 245 245 244 245 245 245 245 245 246 245 246 243 244 244 
245 245 245 244 244 245 245 246 245 243 241 239 240 240 240 241 
242 243 241 242 241 242 242 242 242 241 241 241 240 241 243 240 
240 239 240 239 239 238 237 239 199 205 238 241 242 241 242 242 
242 242 242 246 246 245 246 246 245 245 246 245 244 239 185 244 247 247 246 246 
246 246 246 245 245 246 246 245 246 247 246 244 246 245 245 245 
244 245 245 245 246 246 245 246 247 246 245 246 247 246 245 245 
245 246 244 245 244 246 246 245 245 245 245 244 243 240 241 242 
243 244 243 245 244 242 242 243 243 242 242 242 242 244 240 241 
242 241 240 239 241 240 239 237 169 228 239 241 243 242 242 243 
243 241 241 246 245 246 245 246 245 245 244 245 244 242 187 240 246 246 246 247 
247 247 247 246 247 246 246 246 246 246 246 246 248 248 247 246 
247 246 246 245 245 245 247 246 245 246 246 247 247 246 246 245 
246 245 246 246 246 245 245 247 245 245 245 245 244 246 245 246 
245 247 246 246 244 243 244 244 243 242 242 241 242 242 243 242 
242 242 242 241 242 242 241 208 193 238 240 241 242 244 244 243 
243 242 242 248 246 246 246 244 245 245 244 244 245 246 227 195 246 246 246 246 
247 246 246 246 247 247 247 247 246 246 247 246 247 246 246 246 
246 246 247 247 247 246 246 246 247 247 246 247 246 247 245 246 
245 245 245 245 246 246 246 247 246 246 245 245 245 245 246 246 
245 246 244 246 246 245 245 247 243 244 243 243 242 243 243 242 
243 243 242 246 244 241 239 185 236 244 243 244 244 244 245 244 
244 244 245 245 245 247 247 247 246 245 245 245 245 244 247 195 236 244 247 246 
249 247 247 247 246 246 247 247 246 247 248 245 248 247 246 247 
247 245 246 247 247 247 247 246 245 247 247 247 247 247 246 246 
246 245 247 246 246 246 246 248 248 245 246 246 247 246 245 246 
246 246 247 247 247 247 246 247 245 245 247 244 245 242 243 245 
246 244 244 245 243 242 223 206 245 245 245 247 244 244 244 245 
246 246 243 246 246 246 245 248 246 246 245 246 245 245 245 225 184 245 245 247 
246 246 247 247 247 247 247 246 246 248 247 249 249 248 248 247 
247 248 248 246 247 246 246 247 247 247 247 246 246 246 248 247 
247 247 243 246 246 247 246 247 247 246 246 246 247 247 247 244 
247 247 247 247 247 249 248 245 247 246 245 246 245 244 242 244 
245 245 245 245 243 242 203 234 247 246 246 246 246 245 245 246 
247 245 243 247 246 246 247 246 246 246 244 246 246 245 246 246 187 227 248 246 
246 247 246 247 247 247 248 248 248 247 248 247 247 246 248 248 
247 247 247 247 247 247 247 247 247 247 247 247 247 247 247 248 
248 247 247 246 247 247 247 245 247 247 247 247 247 247 248 247 
248 247 248 249 247 248 248 246 248 247 248 247 244 244 246 244 
245 245 246 244 245 228 196 243 245 246 247 247 247 246 248 247 
247 247 246 247 246 247 246 246 247 247 245 246 247 246 246 245 239 181 248 246 
247 247 248 247 248 247 248 248 248 248 248 248 248 247 248 248 
247 247 247 248 248 247 247 248 248 248 247 247 248 247 247 247 
246 247 248 247 247 246 247 248 246 246 248 247 247 247 248 247 
247 248 247 248 249 248 249 248 247 249 250 247 246 247 245 246 
245 245 245 244 245 197 238 246 248 248 248 247 248 248 248 247 
248 247 247 246 246 247 246 246 247 247 245 245 245 245 245 245 246 202 212 247 
247 247 247 247 247 247 248 248 248 248 248 248 248 248 248 248 
248 247 247 247 247 247 247 245 247 247 247 248 248 248 247 247 
247 247 248 247 247 246 247 248 247 247 248 247 247 248 247 248 
247 248 249 249 250 249 247 248 247 248 247 247 247 246 247 246 
247 247 246 246 224 214 246 248 248 249 249 249 249 248 248 249 
248 247 248 247 249 247 247 247 247 246 246 246 245 245 244 246 246 246 165 242 
245 246 246 247 245 246 248 248 248 249 248 248 249 249 249 249 
249 249 248 248 248 247 248 248 247 247 248 248 249 248 247 248 
248 247 246 247 247 246 248 248 249 248 248 248 248 247 248 248 
249 248 248 249 248 249 249 248 248 248 248 248 248 248 247 247 
248 246 245 242 187 247 248 248 249 249 249 248 248 250 250 250 
249 250 250 246 246 247 248 247 247 246 248 245 245 246 243 245 244 246 215 175 
245 247 246 246 248 247 247 248 249 249 249 249 249 249 249 249 
249 249 249 248 248 248 248 248 248 247 249 247 249 248 247 248 
249 248 248 248 247 247 248 247 248 248 248 248 248 249 248 248 
248 249 248 248 247 249 248 248 248 248 249 248 249 248 246 248 
246 248 248 202 230 250 250 250 250 249 250 250 250 250 250 250 
250 250 252 247 246 246 247 247 247 246 246 246 246 244 245 246 244 246 248 194 
206 246 246 246 248 247 246 247 248 247 249 249 249 248 248 249 
249 249 249 248 248 247 248 249 247 247 250 249 249 249 248 249 
249 249 247 249 249 249 249 248 249 249 248 248 248 248 249 248 
249 249 247 249 249 249 250 250 248 249 249 249 248 250 249 248 
247 249 233 207 251 249 250 250 250 250 250 250 250 251 249 250 
250 250 250 249 248 248 249 248 248 247 247 247 248 247 247 246 246 248 248 247 
181 217 249 247 246 248 246 246 246 246 249 249 249 249 249 249 
249 249 249 249 249 249 249 247 248 247 250 250 249 249 249 249 
250 248 247 247 248 248 249 249 247 248 248 249 248 249 249 249 
249 249 248 248 249 250 250 248 248 247 249 249 249 250 250 249 
249 241 209 250 249 251 250 251 250 250 250 250 250 250 250 251 
251 251 252 247 248 248 249 248 248 249 249 247 246 248 247 246 247 248 247 248 
243 186 234 248 247 246 247 246 246 246 248 249 250 248 249 250 
250 249 249 249 248 249 248 248 248 249 249 250 249 249 249 249 
249 249 250 250 249 248 248 248 250 248 249 250 249 249 249 248 
249 248 248 249 249 249 250 250 249 248 249 249 249 250 250 250 
243 210 247 251 250 250 251 251 250 250 251 251 251 251 250 251 
251 251 250 249 248 249 249 248 248 248 248 248 248 249 250 249 247 247 247 249 
249 246 189 237 249 247 248 248 248 247 247 247 249 250 250 249 
249 249 249 249 248 249 249 249 247 248 250 250 250 250 251 250 
248 250 248 248 250 250 249 249 250 250 247 248 250 250 250 250 
249 250 250 250 249 249 249 248 249 248 248 249 249 249 248 248 
207 239 251 250 250 251 251 251 251 250 250 252 250 251 252 252 
249 250 250 250 249 249 249 250 249 249 248 248 247 249 249 248 247 248 248 249 
248 249 241 195 234 246 248 248 248 247 247 248 249 249 249 249 
250 249 249 249 249 249 249 249 248 248 251 252 254 252 251 250 
250 250 250 250 249 248 249 249 249 249 249 249 249 249 250 250 
250 249 248 250 250 249 249 248 249 249 250 250 249 251 248 213 
237 251 251 250 251 251 250 250 252 251 251 251 251 251 250 252 
251 251 251 249 250 249 249 249 248 249 249 249 248 248 249 248 247 249 248 248 
249 247 249 244 192 232 248 248 248 247 247 248 248 250 249 249 
249 249 250 249 250 249 249 249 249 248 250 253 253 252 252 252 
251 250 250 250 250 250 250 250 249 248 249 249 249 250 250 250 
250 250 249 250 251 250 250 249 249 250 249 249 249 234 194 235 
253 251 250 251 251 251 251 251 251 251 252 252 251 251 251 252 
251 252 251 250 249 250 250 250 250 249 249 249 250 248 248 249 249 249 249 249 
248 248 249 250 246 200 227 250 249 248 246 249 247 248 249 249 
249 249 249 250 248 249 249 249 248 248 249 253 252 251 252 251 
252 251 251 250 251 251 250 250 249 250 250 250 251 251 250 249 
248 250 250 251 251 251 249 249 249 250 250 251 227 208 248 252 
250 251 251 251 251 251 252 252 252 251 252 252 252 252 252 253 
251 252 251 250 250 250 250 248 250 250 250 250 250 250 249 248 250 249 249 250 
249 249 249 249 249 248 219 215 250 249 248 247 247 249 249 249 
249 249 249 249 249 249 249 250 250 249 249 252 254 253 252 252 
251 250 251 251 250 251 251 251 249 250 250 251 249 249 250 250 
250 250 249 249 251 251 251 250 250 252 241 197 212 250 252 251 
251 250 251 251 251 251 251 252 252 252 252 253 251 251 251 251 
252 252 251 252 251 251 250 251 250 250 250 251 250 250 250 249 249 249 248 249 
250 250 250 248 248 249 251 228 202 241 250 249 249 249 249 249 
249 249 249 249 249 249 250 249 250 248 250 252 252 252 251 251 
252 252 253 251 250 250 251 251 250 251 250 250 250 250 251 250 
250 250 250 250 250 252 252 252 250 215 186 233 252 252 251 251 
251 251 251 252 251 252 252 252 252 251 252 252 253 252 252 251 
252 252 252 252 251 250 250 251 251 251 251 250 250 250 250 250 250 251 250 250 
250 251 250 248 248 248 250 251 246 217 212 243 249 249 249 249 
249 249 249 249 249 249 249 248 248 249 250 251 252 252 250 252 
253 251 253 250 251 252 252 251 251 250 251 250 250 251 251 250 
250 250 249 249 251 252 253 233 183 204 248 253 251 251 251 251 
252 252 252 252 253 252 252 252 253 254 253 253 253 253 253 254 
253 252 252 252 252 251 251 250 251 252 251 251 251 250 251 250 251 250 250 251 
250 250 250 250 249 247 248 249 251 253 233 201 229 251 250 249 
249 249 249 248 248 249 248 249 249 248 247 249 251 251 252 253 
252 252 252 251 251 251 251 251 250 251 250 251 251 252 252 253 
253 250 250 250 253 247 210 185 240 253 253 251 251 251 251 251 
252 253 253 251 252 252 253 253 252 252 251 252 251 251 252 253 
252 252 252 252 252 251 252 250 251 252 252 252 251 251 251 252 251 250 251 251 
251 251 250 249 250 250 250 250 250 251 252 249 222 206 230 250 
251 250 249 250 249 249 248 248 248 247 246 249 250 249 251 252 
252 252 252 251 250 252 250 251 251 251 251 251 251 253 252 252 
253 253 252 245 208 194 220 251 254 253 251 251 252 251 252 252 
251 252 252 251 251 253 253 253 252 253 253 253 253 252 252 252 
253 253 252 251 251 252 252 252 251 251 252 251 250 251 251 250 252 252 252 251 
250 251 250 251 248 249 250 250 250 251 252 252 253 248 214 200 
221 246 249 250 249 249 249 249 249 249 248 248 249 251 251 251 
251 251 252 251 251 251 250 251 251 250 250 250 252 252 252 253 
251 228 189 191 222 252 253 253 253 253 251 252 252 251 252 252 
252 252 253 252 253 252 253 253 254 253 253 254 252 253 253 253 
253 253 252 253 253 252 252 252 252 252 252 252 253 252 251 251 252 251 252 252 
251 252 251 251 251 251 250 250 251 251 251 251 251 250 253 250 
231 201 205 231 245 248 248 249 249 250 247 248 250 249 250 251 
251 250 251 250 251 250 251 251 252 251 251 254 252 251 245 213 
195 212 244 252 254 253 253 253 254 254 253 252 253 253 253 253 
252 252 253 253 253 254 252 252 253 253 253 253 252 253 253 253 
253 253 252 252 251 252 252 252 252 253 252 253 253 251 253 252 252 252 252 252 
252 252 251 251 251 252 252 251 250 251 251 250 250 250 252 251 
252 250 244 208 196 192 223 240 249 247 249 249 249 250 251 251 
251 252 253 253 253 252 250 252 252 252 250 231 204 182 195 227 
250 254 254 253 253 253 253 253 254 254 252 252 252 253 253 252 
253 252 252 253 253 253 253 253 252 253 253 252 252 253 252 253 
253 253 253 251 252 252 253 253 252 252 252 252 253 252 252 253 252 252 252 251 
252 252 251 252 251 251 251 253 253 252 251 251 251 249 252 251 
250 250 250 251 251 247 220 206 195 193 209 219 239 240 245 247 
247 248 249 249 250 251 246 234 215 190 189 190 226 247 252 254 
254 253 253 254 252 252 253 253 253 252 252 253 253 252 252 252 
253 254 253 252 252 254 253 253 253 253 253 254 254 254 254 253 
252 252 252 253 253 253 253 252 252 252 252 253 252 253 253 253 252 253 254 254 
254 253 253 253 252 252 252 252 253 251 251 252 252 253 252 252 
252 250 250 250 251 251 252 251 253 249 241 217 190 184 182 180 
182 175 181 189 183 185 190 202 219 232 248 254 254 254 253 253 
253 252 252 252 253 253 253 253 254 254 254 253 252 252 252 253 
253 254 253 253 253 252 253 253 253 253 253 252 254 254 254 254 
254 253 253 253 253 253 252 254 252 253 253 253 252 253 253 254 255 254 254 253 
254 252 253 253 253 254 253 254 254 253 253 253 253 253 253 253 
251 251 253 251 251 251 251 251 252 252 253 252 253 253 253 252 
251 251 252 253 252 253 253 253 254 254 254 253 252 253 253 253 
253 253 253 252 253 253 253 253 253 252 254 253 253 253 253 252 
254 253 253 251 253 253 252 253 253 253 254 254 253 255 254 254 
254 253 254 254 252 253 252 253 252 253 253 253 252 253 254 253 253 254 254 253 
255 253 253 253 252 253 253 254 254 253 255 254 253 253 254 253 
253 252 253 254 253 252 251 252 251 251 251 251 253 253 254 255 
254 253 254 254 254 254 253 253 254 252 253 252 253 251 252 253 
254 253 253 254 253 253 253 253 252 252 253 253 253 253 253 253 
253 253 253 253 253 253 253 253 253 253 252 253 254 254 254 254 
253 253 254 253 253 253 253 253 253 254 253 252 254 254 254 254 254 254 254 253 
254 254 254 254 254 253 254 254 253 254 254 255 254 254 254 254 
253 253 254 254 254 253 253 253 253 253 251 251 252 252 254 253 
253 253 253 253 253 253 251 252 252 252 252 253 253 252 253 252 
253 253 252 253 254 253 254 254 253 253 253 253 253 253 252 253 
253 253 252 253 253 252 253 254 253 253 253 252 253 253 254 254 
252 254 254 253 254 253 254 253 253 253 253 252 253 254 254 253 254 254 254 253 
254 253 253 254 254 254 254 254 254 254 254 255 254 255 255 254 
253 254 254 254 254 253 253 254 254 254 253 252 252 253 254 253 
253 252 252 253 253 254 253 252 252 252 252 252 253 252 253 252 
253 254 253 253 253 252 252 253 253 252 252 252 252 252 253 254 
251 252 253 253 253 253 253 253 253 253 253 253 254 253 253 253 
253 254 254 253 252 253 253 254 253 253 253 253 254 252 253 254 254 253 253 254 
252 254 253 254 254 253 254 254 254 254 254 255 255 254 255 254 
254 254 254 254 254 255 255 255 254 254 253 252 252 253 254 252 
253 253 254 254 253 254 253 253 252 252 252 253 252 253 253 253 
253 253 253 254 254 253 253 253 253 253 253 254 254 253 251 252 
253 254 252 253 252 252 253 253 253 252 254 252 253 252 253 253 
253 254 253 254 253 253 253 253 254 254 254 254 253 252 253 253 253 253 252 254 
254 253 252 252 253 254 254 254 254 254 254 254 254 254 255 255 
255 254 254 255 255 255 255 255 255 254 255 254 254 254 255 255 
254 255 255 255 253 253 253 253 253 252 253 252 252 251 253 253 
253 253 252 253 253 254 254 253 251 253 251 251 252 252 252 252 
252 253 253 253 252 253 250 250 251 252 253 252 250 253 253 253 
253 253 253 