P2
# Created by IrfanView
100 100
255
229 227 228 228 228 228 228 229 228 229 230 232 232 231 232 232 231 
231 232 231 231 231 231 228 230 231 231 230 228 229 229 227 227 
230 229 228 229 230 228 229 229 227 225 225 227 226 227 228 226 
227 227 227 226 227 226 225 226 225 225 227 225 225 226 225 226 
224 226 225 225 225 225 226 226 226 227 228 226 225 226 226 226 
227 225 226 226 227 224 226 225 225 225 227 226 226 225 226 225 
226 225 225 227 228 231 230 229 231 230 231 230 228 230 231 232 231 229 232 232 
232 233 232 229 230 231 231 231 230 230 229 230 230 228 230 231 
229 230 229 229 228 228 229 229 229 225 226 227 226 227 227 227 
227 225 227 226 227 226 226 226 224 224 225 226 227 225 225 224 
225 225 228 226 226 226 226 226 225 225 226 228 227 227 228 228 
228 226 224 227 226 224 224 224 225 226 224 225 225 225 226 227 
227 226 226 230 230 230 230 231 230 230 232 230 231 231 230 233 232 231 232 234 
230 232 231 231 230 232 232 231 231 231 232 229 230 230 231 228 
228 229 230 228 228 228 228 229 230 230 228 228 227 230 227 228 
228 227 227 228 226 227 225 224 226 226 225 225 225 224 225 225 
223 225 226 227 228 227 227 227 228 227 228 229 226 228 227 227 
226 225 228 227 227 226 226 227 228 225 227 227 227 225 225 224 
225 226 227 230 233 231 232 231 231 233 232 232 232 231 231 231 232 232 231 232 
232 232 231 231 230 230 231 231 231 232 230 231 230 230 230 231 
230 230 230 228 229 229 227 229 227 226 228 227 226 226 228 230 
229 228 227 227 226 225 226 227 225 225 227 225 226 225 226 227 
228 228 228 225 225 227 227 227 227 227 227 227 227 226 227 228 
226 226 226 227 225 226 226 225 226 226 227 227 226 226 227 226 
226 227 226 228 232 232 232 232 232 232 233 233 232 231 232 233 232 232 232 234 
232 231 231 231 232 232 232 232 232 230 231 230 231 231 230 229 
231 230 228 228 228 229 229 228 230 230 229 227 228 228 230 229 
227 229 229 227 227 226 226 227 226 225 225 225 226 226 227 226 
225 226 227 227 227 228 230 227 228 229 227 228 228 229 227 227 
227 223 225 228 228 226 226 227 226 226 225 224 225 226 225 225 
225 226 225 230 232 233 233 234 235 232 232 233 234 232 234 234 234 233 234 233 
234 230 229 231 232 232 233 233 232 232 232 231 232 231 232 232 
229 230 228 229 229 227 227 228 227 229 226 227 228 227 229 228 
227 229 227 228 228 226 226 225 226 224 226 226 227 226 226 227 
226 226 226 228 231 230 230 229 229 230 226 228 227 225 226 228 
227 226 226 226 226 226 226 227 226 225 226 227 226 226 226 226 
227 226 226 234 233 232 233 234 236 232 233 233 234 234 234 234 233 234 233 234 
234 231 231 232 232 233 232 233 232 232 232 231 231 229 229 229 
231 228 229 228 227 227 229 228 229 228 229 228 228 231 228 227 
226 229 228 228 228 226 226 227 226 226 226 226 226 226 227 229 
229 230 229 229 230 231 231 229 228 229 229 229 228 229 228 228 
227 229 225 228 227 227 227 228 227 229 228 228 228 227 227 228 
227 229 229 234 233 234 235 234 235 234 234 234 233 234 234 234 234 233 234 234 
232 233 232 233 233 232 232 232 233 232 231 232 230 230 230 231 
229 230 227 228 229 228 229 227 227 228 229 230 229 231 230 232 
230 229 231 231 227 225 226 226 227 228 227 227 226 227 226 227 
229 228 230 229 230 230 229 229 229 229 228 229 231 228 229 227 
226 228 225 228 226 227 227 227 227 228 227 226 227 228 227 227 
229 230 231 234 233 234 235 234 235 234 234 234 233 235 234 234 234 234 234 234 
234 233 233 234 232 235 234 232 231 232 230 229 229 232 231 229 
231 228 228 227 227 230 228 229 234 230 230 230 227 227 224 229 
230 227 228 229 230 228 229 228 230 228 230 230 229 227 228 229 
230 230 227 228 229 229 228 228 227 230 229 230 231 230 230 229 
229 229 228 228 227 229 228 228 227 230 230 231 229 231 229 231 
231 232 228 234 234 234 234 233 233 234 233 235 232 233 234 234 233 234 234 233 
233 234 233 233 234 234 233 234 231 231 231 231 232 230 228 230 
229 230 227 229 230 228 226 222 214 185 175 172 165 158 156 158 
164 168 161 158 175 183 206 220 224 232 232 231 232 230 229 228 
231 229 229 229 228 229 229 230 229 229 229 229 229 229 228 231 
229 230 230 227 228 230 230 229 231 228 228 230 230 232 231 232 
231 232 230 233 234 234 233 234 234 235 233 234 234 234 235 235 234 234 234 233 
234 235 235 233 233 233 233 233 233 232 231 230 228 230 230 231 
232 232 226 219 195 167 168 176 177 198 222 227 230 231 230 231 
232 229 231 226 211 193 175 159 133 140 163 196 221 232 232 231 
231 228 226 228 228 231 231 230 229 230 231 230 229 230 231 230 
230 230 228 230 230 231 231 232 230 233 231 231 231 232 232 231 
232 232 233 233 236 234 236 235 233 234 233 235 235 233 234 235 234 233 231 236 
235 232 232 232 234 234 233 232 233 231 230 229 231 233 230 231 
216 186 170 168 196 221 232 236 234 231 231 231 232 233 232 235 
234 233 233 233 232 235 235 239 235 227 209 172 132 137 185 218 
232 231 231 233 233 230 230 231 230 230 230 230 230 228 230 231 
232 231 232 230 230 230 232 230 229 231 231 231 234 232 231 235 
232 232 232 235 234 234 234 234 234 234 233 234 234 234 234 233 234 235 235 233 
233 234 233 234 233 232 232 232 232 230 231 233 232 225 192 170 
181 210 231 232 232 231 233 231 232 230 231 229 232 231 231 233 
230 231 232 231 231 232 233 232 233 233 236 237 234 205 168 129 
146 203 225 216 231 232 231 229 232 231 232 230 231 231 231 232 
231 231 230 231 231 231 232 231 233 231 232 232 232 234 232 232 
232 233 232 234 235 233 234 235 234 236 234 233 232 234 234 233 234 234 233 233 
233 234 233 233 233 233 234 233 233 230 229 217 182 173 209 228 
235 233 231 230 230 231 232 231 231 231 233 232 232 232 232 233 
232 232 231 232 232 232 232 232 230 231 231 233 234 236 237 229 
195 142 128 140 153 211 232 233 231 231 231 232 230 231 232 232 
234 232 232 231 232 233 233 232 233 233 233 233 233 233 234 233 
233 233 233 234 233 234 235 234 234 234 233 234 236 233 233 234 234 234 233 235 
233 234 233 232 231 232 232 233 232 219 184 183 214 233 232 230 
227 229 231 229 232 233 234 231 231 232 233 232 232 232 231 231 
231 233 233 232 232 232 230 232 234 233 232 234 234 235 236 237 
239 239 213 157 115 136 177 233 234 233 233 230 231 231 232 232 
233 233 233 233 233 231 232 233 234 233 234 233 232 234 234 233 
233 233 233 236 233 235 235 235 235 234 234 233 232 235 235 233 233 233 234 234 
233 234 233 232 233 233 236 229 192 183 218 235 234 231 230 228 
226 230 232 231 233 232 235 232 235 234 233 231 232 232 232 233 
233 234 233 233 230 233 232 234 234 233 234 232 231 232 235 235 
233 236 238 241 221 146 121 138 214 235 234 231 230 232 232 232 
232 232 231 231 232 233 234 233 233 235 233 233 235 233 233 233 
234 234 234 236 235 234 234 235 235 235 233 235 234 234 234 234 233 232 233 233 
234 233 232 232 232 231 199 175 212 232 235 231 233 231 227 231 
232 230 231 233 234 235 234 232 232 233 233 233 234 233 233 233 
233 233 233 234 234 233 234 233 234 234 233 234 235 234 233 233 
233 234 234 235 237 238 201 120 102 188 236 234 233 232 232 233 
234 233 232 233 230 233 234 233 233 233 233 234 233 233 234 232 
233 233 233 235 235 237 235 234 233 235 234 233 232 233 234 232 233 234 233 231 
231 231 232 231 226 190 200 234 234 232 231 229 230 231 231 230 
229 230 231 233 234 234 234 234 233 234 234 233 232 233 234 233 
234 235 233 234 235 234 235 234 234 234 234 234 235 234 235 235 
236 235 234 235 235 236 237 235 216 151 165 234 236 232 232 233 
234 232 233 233 233 233 234 234 234 233 233 234 234 235 234 235 
235 233 233 233 232 233 234 234 235 234 233 233 232 233 232 232 233 233 232 231 
232 228 227 208 179 217 234 232 232 231 232 230 231 230 231 231 
230 229 233 234 234 235 232 233 234 233 234 233 234 234 232 234 
233 234 234 234 235 234 235 235 235 235 234 236 235 236 235 235 
234 234 235 236 236 235 236 238 238 238 182 145 226 236 233 232 
234 234 233 232 234 233 232 235 234 235 235 233 235 235 235 234 
235 234 234 234 235 233 235 235 234 233 233 233 234 234 234 233 232 232 231 232 
231 233 201 192 230 235 232 231 231 231 232 232 232 230 231 230 
230 233 233 233 234 234 234 234 234 236 234 235 234 234 233 235 
235 234 235 235 235 235 234 235 235 236 238 235 236 235 237 236 
237 236 236 235 236 236 236 235 234 236 238 215 129 213 235 232 
232 233 234 234 233 232 234 235 237 233 232 235 235 234 234 234 
235 234 233 234 235 234 233 234 234 234 231 231 233 232 232 232 233 232 232 230 
230 195 210 235 233 232 231 233 231 229 231 233 231 229 233 232 
231 233 234 234 234 234 235 235 234 232 234 233 234 234 234 235 
236 235 236 235 235 234 236 235 234 236 237 235 235 235 236 236 
235 237 235 236 236 236 234 235 237 237 236 237 212 119 220 238 
235 235 234 233 235 234 235 234 234 236 235 234 236 234 234 235 
234 235 235 234 234 235 235 234 235 233 233 233 232 235 232 232 232 231 229 228 
192 211 236 234 233 232 230 233 233 233 233 232 232 231 231 233 
234 234 234 232 233 233 234 233 236 235 235 235 234 234 233 236 
235 236 235 236 236 237 236 234 235 235 236 236 235 236 236 237 
236 237 237 236 235 237 237 236 236 235 235 236 239 222 115 188 
237 236 235 235 233 233 236 236 234 234 236 235 235 234 234 232 
234 235 235 234 234 233 234 235 233 235 233 232 233 231 233 232 230 231 230 200 
198 232 231 231 231 233 231 231 233 231 231 232 232 233 232 233 
234 234 235 234 234 234 233 234 235 236 235 236 233 235 235 238 
236 236 236 236 237 236 236 237 236 237 236 237 237 236 238 237 
236 236 235 236 235 236 236 235 235 236 235 236 237 239 224 131 
205 233 234 235 235 235 236 235 236 236 234 235 235 235 236 234 
235 234 235 235 234 235 233 234 233 233 233 232 233 234 231 232 232 232 210 190 
232 232 231 232 231 233 233 232 233 233 232 233 232 234 234 234 
234 232 234 236 235 235 235 235 235 236 235 235 234 235 236 235 
236 236 238 236 236 236 237 237 237 237 236 236 237 236 235 235 
236 236 237 236 237 235 234 236 236 236 236 236 236 236 240 209 
161 238 235 236 237 234 235 234 236 237 236 236 234 234 235 236 
236 234 235 235 235 235 234 234 235 233 234 233 233 233 233 233 231 223 166 225 
230 231 230 232 231 233 235 232 234 233 233 231 233 235 233 235 
234 234 233 235 233 234 236 237 235 234 235 236 236 237 237 237 
237 238 237 237 237 236 237 237 236 236 235 237 238 236 237 236 
237 236 237 236 236 235 236 236 237 236 235 235 236 236 236 241 
189 197 237 234 234 233 235 235 236 235 234 236 236 236 237 235 
234 236 234 235 234 234 233 234 235 235 232 233 234 234 232 232 230 220 182 230 
231 231 232 231 233 235 232 233 232 233 233 234 234 234 233 232 
234 234 233 233 236 235 236 235 236 237 237 236 237 238 238 240 
240 239 237 238 238 238 236 236 236 237 238 238 236 237 237 237 
237 238 237 237 237 237 237 235 236 236 235 236 236 236 236 237 
240 175 216 235 235 234 234 235 238 234 237 236 236 237 235 236 
236 236 237 235 236 234 232 234 234 233 232 234 233 233 232 232 228 178 198 230 
233 233 232 231 234 234 236 233 233 233 234 235 235 234 233 233 
232 233 233 233 234 234 234 237 238 237 238 239 238 239 240 241 
239 239 239 239 238 237 238 236 238 237 237 236 237 237 236 236 
236 236 236 236 236 235 235 235 235 235 237 237 237 237 238 238 
237 238 156 236 234 234 234 234 236 235 239 236 236 236 236 236 
237 236 236 234 235 233 234 235 234 233 232 233 233 232 230 233 212 179 231 232 
233 234 234 234 235 234 234 234 233 233 234 234 235 234 234 235 
235 233 235 235 236 236 236 237 236 236 237 236 238 237 239 243 
240 240 239 240 239 236 238 238 237 236 236 237 237 237 237 238 
235 234 235 235 238 236 235 235 236 236 238 238 236 237 237 236 
238 239 218 178 237 235 236 235 234 236 239 237 236 236 237 236 
236 235 237 235 234 234 234 234 234 234 231 232 235 233 232 227 171 220 233 233 
232 233 233 234 235 234 237 234 234 233 233 235 234 233 233 233 
236 233 234 236 235 235 237 237 238 237 239 239 237 236 238 241 
240 239 239 239 239 239 239 238 236 237 238 238 238 237 238 237 
237 237 238 237 237 237 238 238 240 240 236 236 238 238 237 239 
238 237 241 180 204 236 236 236 235 237 238 237 235 236 236 237 
235 238 237 234 235 234 235 234 233 233 233 234 233 233 229 197 202 236 234 235 
236 233 235 234 233 234 226 231 236 234 233 233 235 235 234 235 
234 233 234 234 234 236 236 239 237 237 239 238 239 239 240 241 
237 238 239 239 237 238 238 237 237 236 236 236 236 235 236 237 
236 238 239 239 240 239 240 237 235 220 222 237 236 236 239 236 
238 238 237 239 153 239 234 236 237 237 238 236 236 237 237 236 
237 236 236 235 235 235 234 235 234 234 235 235 233 231 216 175 234 233 233 233 
234 235 236 234 235 236 187 182 209 216 234 238 238 235 234 234 
234 234 234 235 236 234 235 235 236 238 238 239 239 237 238 241 
238 239 238 237 239 238 237 240 238 235 237 237 235 236 239 238 
240 241 239 238 236 209 191 157 145 141 222 235 236 238 238 238 
238 237 238 241 210 188 237 238 237 235 236 236 235 238 239 236 
238 239 236 234 235 235 234 234 234 234 234 233 233 229 175 219 236 234 232 234 
234 236 235 236 237 236 201 157 158 155 187 178 204 227 235 236 
236 235 235 235 234 235 234 236 238 237 238 238 238 238 238 237 
238 240 240 239 239 239 239 238 237 237 237 239 240 239 235 236 
233 210 167 159 136 127 116 158 209 239 238 239 237 238 238 237 
237 238 238 236 240 148 234 238 236 236 236 237 238 240 239 239 
237 236 238 235 235 234 234 235 235 235 233 233 233 208 185 235 234 234 234 235 
236 236 235 236 237 236 240 236 224 211 170 103 110 131 196 226 
231 237 237 235 235 235 236 236 237 238 239 238 237 237 238 239 
238 236 238 236 238 238 237 237 239 240 237 236 227 192 145 118 
104 95 107 112 141 181 232 243 243 240 237 238 239 238 239 238 
238 238 239 237 241 211 178 236 236 238 238 238 238 240 239 238 
238 237 238 235 234 235 235 234 235 235 235 231 226 173 225 234 234 236 236 234 
236 235 235 236 236 236 237 239 236 236 232 194 155 108 92 106 
158 178 209 235 235 236 236 235 235 237 237 236 237 238 238 239 
238 239 239 238 238 238 239 238 237 233 194 151 111 120 96 80 
74 100 149 227 241 244 241 240 238 237 236 239 238 238 236 237 
238 238 237 239 236 241 149 239 237 237 237 239 238 239 240 240 
238 239 239 235 234 233 234 234 236 234 234 232 202 184 235 233 233 236 237 235 
236 234 235 236 237 236 237 236 236 235 235 236 236 222 153 114 
101 94 110 147 160 212 235 237 236 236 238 239 238 238 237 238 
240 239 239 238 238 239 237 236 189 132 149 148 105 109 72 83 
73 152 230 242 241 238 238 237 237 238 238 238 238 239 239 239 
238 237 239 239 239 240 198 193 236 238 239 239 239 238 239 238 
239 239 239 234 234 234 234 235 234 235 234 229 164 225 234 235 235 237 236 236 
237 236 236 236 236 236 236 236 235 235 236 235 237 236 229 172 
97 103 118 104 108 114 156 206 238 240 238 238 238 237 238 237 
239 238 237 238 239 237 237 229 152 140 147 89 100 124 125 70 
115 154 233 240 239 238 239 238 239 238 239 239 239 239 238 239 
239 238 238 238 239 241 238 158 239 239 238 239 240 239 240 242 
240 240 239 238 233 235 234 235 235 235 235 220 180 238 234 235 235 235 236 236 
236 236 236 237 235 236 236 237 235 235 236 235 234 234 233 160 
118 102 122 114 143 125 133 143 170 204 238 237 237 236 236 238 
236 238 238 238 238 237 238 237 193 141 107 75 99 102 137 56 
100 150 230 241 239 240 240 239 239 239 239 237 240 239 238 239 
238 239 239 238 237 237 241 180 232 240 239 239 240 240 240 239 
239 241 239 234 233 234 235 235 235 235 233 194 216 237 234 235 235 235 236 237 
236 235 236 237 236 236 236 237 236 235 236 235 235 236 231 177 
124 114 148 155 145 167 143 177 145 161 237 236 236 236 237 237 
238 237 236 237 237 237 236 234 200 133 138 100 91 100 82 59 
87 178 239 240 240 239 238 239 238 239 239 239 240 238 239 240 
239 238 238 240 240 240 238 224 175 240 240 238 239 241 240 241 
242 241 240 234 234 235 234 235 235 234 232 176 233 236 236 236 236 236 237 236 
236 236 236 237 237 236 237 237 235 237 236 237 236 234 234 194 
127 89 125 122 156 146 135 147 102 166 235 236 236 236 237 237 
238 238 239 237 238 237 235 234 231 135 123 128 94 109 103 56 
116 203 239 241 242 241 241 239 241 240 239 239 239 240 239 240 
240 241 240 239 239 240 238 239 158 240 240 238 240 239 240 242 
241 240 241 236 235 238 236 236 236 237 217 187 234 236 236 235 235 235 237 238 
237 236 237 237 236 238 237 235 236 234 238 235 234 235 233 224 
161 108 111 124 139 140 120 109 111 151 233 236 237 237 237 237 
238 236 236 237 237 235 236 234 237 173 118 151 101 90 90 94 
176 242 241 241 241 239 240 241 240 239 240 240 240 240 239 239 
239 238 241 240 240 241 241 241 174 222 240 242 241 240 241 241 
241 242 241 235 234 234 235 235 237 234 192 218 236 236 235 236 236 236 238 238 
237 238 237 236 236 236 237 236 236 237 236 237 235 236 235 235 
189 129 109 107 105 107 126 86 137 172 233 235 235 237 235 236 
237 238 237 238 238 234 235 236 234 221 127 121 84 78 77 147 
223 241 242 241 240 241 242 241 241 241 241 241 241 241 241 240 
240 240 239 241 239 240 241 240 217 196 242 242 243 242 241 242 
242 241 243 236 236 236 235 235 235 233 184 231 235 236 235 236 238 238 237 238 
236 237 237 237 238 238 236 237 236 236 236 235 236 235 236 234 
231 150 93 120 95 127 103 118 151 217 238 236 235 237 236 237 
238 238 236 237 237 233 234 236 237 239 187 138 125 91 163 234 
244 241 243 242 242 242 241 241 241 241 241 239 239 240 241 240 
241 240 241 241 241 241 242 243 241 167 243 243 243 241 241 243 
242 242 242 236 236 238 236 236 237 221 194 237 237 235 235 236 237 236 240 237 
238 238 237 237 235 237 236 236 235 236 235 236 237 236 236 234 
236 217 127 126 152 128 95 108 175 239 237 236 237 238 236 237 
237 236 237 237 238 236 235 235 237 238 235 187 135 185 242 244 
243 242 242 240 241 242 241 242 242 241 241 241 242 243 243 240 
240 241 241 240 240 241 242 243 243 174 242 242 243 241 242 242 
242 243 241 237 237 236 236 235 235 214 206 240 238 236 236 236 236 237 239 238 
238 237 237 235 236 235 236 235 237 235 236 237 236 236 235 236 
235 236 206 154 126 118 145 157 209 238 237 237 238 238 237 237 
237 237 237 237 236 236 235 238 237 237 240 243 242 244 242 242 
242 241 241 240 242 242 242 241 242 241 241 241 240 240 238 240 
241 242 240 241 242 241 239 241 243 177 231 242 242 242 241 242 
242 243 242 235 236 237 236 234 233 195 220 238 237 236 236 236 237 239 237 237 
237 236 236 236 235 237 236 235 236 237 235 235 235 235 235 236 
235 236 237 227 205 205 192 219 237 237 239 234 238 237 237 236 
237 238 237 237 237 238 237 238 238 238 240 240 241 241 240 242 
242 242 242 242 242 241 241 242 241 241 241 240 241 241 241 241 
241 240 241 241 240 242 242 243 241 199 211 243 242 241 242 243 
241 244 244 236 236 238 235 238 232 196 232 238 237 237 237 236 237 237 237 238 
237 237 238 236 235 236 236 235 235 234 236 236 236 236 235 235 
234 236 237 237 237 237 238 239 237 236 238 237 237 237 239 237 
238 238 236 238 237 238 238 238 239 239 239 241 238 239 241 242 
243 243 242 242 242 243 241 242 240 239 242 241 240 241 241 241 
241 241 242 242 242 240 243 242 243 216 198 244 242 241 242 242 
242 242 243 236 238 238 238 237 233 198 236 238 238 237 237 238 236 238 236 237 
238 237 238 235 235 237 235 236 236 237 237 235 234 235 235 235 
236 235 235 235 237 236 236 238 239 238 237 237 237 239 237 238 
238 238 238 238 238 240 237 240 238 240 239 239 238 241 242 242 
242 242 243 242 241 242 242 242 242 242 241 241 241 242 244 241 
242 241 243 242 243 242 243 242 242 235 178 243 243 243 242 242 
242 244 244 236 238 237 237 237 230 191 239 237 240 236 236 235 236 237 236 237 
237 230 208 233 236 236 237 238 235 235 234 236 235 235 236 237 
236 236 236 236 236 236 237 239 238 238 239 238 239 238 240 240 
239 239 238 237 239 239 238 239 238 240 240 239 239 242 242 243 
243 241 241 242 242 242 242 242 241 242 243 241 242 242 243 243 
242 242 244 244 243 242 242 242 243 243 181 243 242 242 243 243 
242 243 244 236 237 239 238 240 226 195 236 238 237 235 236 236 237 236 236 238 
235 220 150 215 235 236 237 237 236 237 235 235 235 235 236 238 
235 235 237 236 236 236 237 240 237 239 238 239 237 238 238 237 
240 238 238 238 236 240 239 238 238 237 238 239 239 241 242 241 
242 241 242 241 242 242 242 242 242 242 242 242 241 242 243 243 
242 242 242 242 243 244 243 243 242 238 167 244 244 243 243 243 
242 245 243 237 238 236 237 238 219 202 235 238 237 236 239 237 236 236 235 236 
236 232 208 199 235 235 237 238 237 236 237 236 234 234 235 236 
236 236 237 235 239 238 239 238 239 239 240 240 239 238 238 239 
241 240 237 237 238 239 239 238 238 239 238 238 239 240 239 242 
241 242 241 242 240 242 243 242 241 241 243 242 242 242 241 244 
242 242 242 243 243 242 243 243 243 245 174 245 244 242 243 243 
243 246 245 238 238 239 239 240 218 197 237 238 236 238 236 237 235 237 238 236 
237 236 209 197 236 236 233 228 236 236 236 236 237 236 237 238 
237 236 239 239 236 238 238 240 240 240 238 240 240 239 240 240 
242 240 239 239 239 239 239 239 240 239 240 239 240 240 242 241 
242 242 243 242 243 243 241 242 242 242 242 242 242 242 242 243 
242 243 243 243 244 244 243 244 244 244 175 243 244 242 243 244 
244 244 244 239 238 237 237 238 216 198 235 237 235 235 236 235 237 238 237 237 
237 235 211 206 237 238 208 236 237 238 238 236 237 236 237 235 
237 239 238 239 237 239 238 239 240 242 241 239 240 240 238 240 
239 239 240 240 239 238 241 239 240 239 239 239 240 240 239 242 
242 242 241 242 242 243 242 243 242 241 243 243 242 242 242 243 
243 243 243 243 243 244 244 243 244 245 176 244 244 244 244 244 
243 244 245 237 239 239 239 239 226 180 235 237 236 235 237 237 229 233 241 242 
239 239 195 225 236 237 181 226 237 235 238 238 236 235 236 237 
238 236 241 239 239 241 240 239 240 238 239 242 239 239 239 239 
239 241 242 240 239 241 240 240 239 240 239 240 239 241 242 242 
243 243 242 243 241 245 244 242 243 242 242 242 243 241 244 243 
242 244 244 243 243 243 244 244 243 246 183 244 244 244 243 244 
244 246 244 240 240 240 239 237 223 149 232 237 237 236 237 235 213 190 197 203 
216 221 196 233 236 235 185 196 239 238 238 239 237 238 237 237 
239 240 239 241 240 240 238 240 239 240 240 238 240 239 240 240 
240 240 238 240 241 238 240 240 240 239 238 239 238 241 244 240 
242 241 242 243 244 243 242 242 242 242 243 244 244 243 245 244 
244 244 244 244 244 243 243 245 244 244 184 245 244 245 246 246 
246 246 244 238 239 238 238 240 228 156 229 236 237 236 238 237 237 233 213 199 
168 172 227 236 237 238 213 161 214 239 236 238 238 236 237 236 
240 241 238 239 239 242 239 241 240 240 241 240 240 240 241 241 
240 241 242 241 240 241 241 240 240 240 239 239 240 242 243 242 
242 243 243 242 242 243 242 243 243 243 242 243 244 243 243 245 
243 244 244 244 243 243 245 244 243 241 176 245 244 244 244 246 
244 246 247 239 239 237 238 239 235 168 229 236 237 236 236 237 237 241 241 240 
238 241 238 238 236 238 241 200 154 219 239 239 219 238 238 238 
240 240 242 241 241 241 240 238 242 242 240 241 241 240 240 241 
240 243 241 241 241 240 241 242 241 239 238 242 241 242 242 241 
242 242 243 244 243 243 243 242 243 243 243 243 243 243 243 242 
244 245 246 244 246 245 244 244 245 225 177 245 244 244 244 245 
245 245 244 239 238 238 240 239 236 189 216 237 237 235 237 238 237 239 236 237 
243 243 238 237 238 241 242 242 216 170 198 225 220 236 239 240 
240 241 240 239 240 241 241 242 240 241 240 240 242 241 241 242 
242 243 240 241 242 241 240 241 242 242 240 239 240 243 243 243 
244 242 243 242 243 243 242 242 243 242 244 242 244 245 245 245 
244 245 245 244 245 244 244 245 245 213 190 244 245 245 246 246 
245 244 245 239 239 237 239 239 236 195 214 234 236 237 239 237 239 235 189 171 
206 234 239 238 240 238 241 239 242 229 172 193 235 237 239 240 
241 241 241 239 241 242 241 240 241 240 241 241 240 239 240 242 
242 243 243 241 242 243 242 241 241 241 240 240 241 242 242 243 
244 243 243 243 243 242 242 243 243 243 243 244 243 243 244 245 
244 244 243 244 245 243 245 245 245 205 210 243 244 245 245 245 
245 244 246 240 239 237 239 239 237 211 202 238 238 241 241 239 238 239 241 223 
189 174 188 239 238 239 240 241 240 242 241 241 240 239 241 243 
241 241 240 240 241 241 242 240 240 241 241 241 242 241 242 242 
242 242 242 241 242 240 238 239 241 240 239 241 243 244 240 242 
243 243 243 243 241 243 243 244 242 243 243 244 244 245 244 245 
244 244 244 244 244 245 245 244 245 170 234 245 245 244 245 244 
246 245 245 239 239 239 240 238 236 219 191 237 239 239 240 240 239 239 241 242 
241 212 175 220 239 239 242 243 242 242 244 243 240 240 239 238 
239 240 240 240 240 240 240 242 242 242 241 241 241 241 240 240 
240 242 241 242 239 240 239 238 241 241 240 240 241 244 243 242 
243 241 241 243 243 243 241 243 243 241 242 243 243 244 245 245 
244 245 245 244 244 245 244 245 244 177 247 247 246 245 244 245 
244 244 245 241 240 238 238 240 238 231 199 236 238 239 239 239 239 240 240 240 
242 241 202 182 239 243 244 242 234 226 226 237 240 241 240 240 
240 238 240 241 240 241 241 241 239 238 241 240 241 240 241 240 
242 242 242 241 241 238 241 237 237 241 240 241 241 242 243 242 
242 243 243 242 243 244 243 243 244 242 244 244 243 243 243 244 
245 245 245 244 245 245 244 245 231 167 248 245 245 244 244 245 
245 244 244 243 240 240 240 241 242 239 191 230 240 241 239 241 241 239 240 242 
243 241 232 189 239 242 238 200 174 168 162 180 227 239 239 240 
241 241 239 238 239 241 240 241 240 241 240 241 241 240 240 241 
241 241 239 241 241 239 241 241 241 239 242 241 242 242 242 243 
241 243 242 243 243 242 243 243 241 244 243 245 244 243 245 244 
245 245 245 245 245 245 245 246 211 202 242 244 245 245 243 245 
245 246 246 241 239 241 239 240 240 240 206 217 238 240 241 240 240 241 241 239 
240 228 211 227 241 242 205 225 244 239 226 168 204 243 241 240 
241 240 240 242 241 239 240 240 239 240 241 242 241 241 242 243 
243 241 242 242 242 240 240 240 240 241 241 240 241 242 242 240 
242 242 243 244 242 242 244 245 244 244 243 243 244 243 243 244 
244 244 244 245 244 244 246 247 180 229 245 244 245 244 244 245 
244 246 246 241 240 240 242 241 242 241 222 208 238 240 240 240 241 240 241 223 
187 190 221 246 241 213 223 244 242 243 243 224 236 241 242 239 
241 241 241 240 239 241 240 239 240 239 240 239 238 241 241 242 
240 242 240 239 240 240 241 239 240 239 241 240 240 243 242 242 
241 242 243 244 243 242 243 243 243 244 245 243 243 245 243 244 
246 246 246 245 245 244 245 242 165 244 244 244 244 245 244 245 
246 245 246 242 242 243 242 243 243 243 235 196 237 240 241 241 241 240 241 243 
244 246 245 242 243 193 217 243 244 242 242 244 245 243 243 242 
242 240 240 239 239 240 240 240 240 241 240 242 242 242 241 242 
243 242 242 242 240 241 240 242 241 239 241 243 240 241 241 241 
242 242 242 243 242 243 242 243 244 244 244 244 244 244 245 245 
245 245 245 246 244 245 245 218 195 245 246 243 244 245 244 245 
243 246 246 243 244 241 243 243 244 242 241 187 231 241 239 242 242 242 242 243 
243 243 240 242 242 224 209 242 241 241 243 243 243 242 242 242 
243 240 238 241 241 242 242 242 243 243 243 243 243 244 241 245 
245 245 244 243 244 243 241 244 245 244 245 243 245 246 244 243 
245 244 242 244 241 242 243 244 245 244 245 244 245 245 245 245 
247 245 244 244 245 245 247 175 232 245 246 244 245 246 245 245 
246 244 246 242 243 242 243 243 243 243 241 213 212 239 242 244 243 242 243 243 
243 243 242 242 243 237 234 243 241 241 244 244 243 241 242 243 
196 181 242 240 239 234 231 223 202 207 215 201 209 196 209 209 
213 190 203 205 213 211 209 207 195 210 209 227 234 227 223 230 
224 210 226 243 243 242 244 244 244 245 245 246 244 245 245 245 
245 244 246 245 245 245 244 173 247 244 244 245 244 246 246 245 
245 246 246 244 244 244 245 243 243 243 244 235 195 240 240 242 242 243 243 245 
244 243 243 243 243 243 242 242 243 243 243 243 243 243 242 244 
153 135 173 176 173 173 158 154 160 153 164 179 186 181 190 192 
193 191 189 192 179 176 172 175 170 166 146 126 138 163 159 151 
172 217 233 178 241 243 243 244 244 244 243 244 245 246 245 244 
244 245 246 245 246 248 202 211 247 247 247 246 247 246 244 245 
246 246 246 243 244 244 244 244 244 243 244 243 197 223 243 243 242 242 243 244 
243 243 243 244 243 243 243 243 244 243 243 242 243 243 242 232 
189 236 232 228 224 203 204 197 227 241 244 241 190 218 227 242 
243 244 242 240 239 239 242 243 245 226 158 160 168 231 243 241 
244 246 244 190 235 241 243 244 244 246 244 245 244 246 247 246 
246 245 245 245 245 240 169 246 246 248 244 247 247 246 247 246 
245 247 247 243 243 242 245 244 244 245 244 243 228 189 241 242 243 243 244 244 
242 243 242 243 242 242 244 244 244 244 245 245 243 243 243 210 
219 245 242 232 164 234 234 113 230 241 239 240 215 185 184 202 
239 239 237 217 213 243 244 243 225 159 215 242 217 177 233 247 
244 244 243 194 234 243 244 244 244 244 243 243 244 245 246 244 
245 246 245 245 246 214 212 247 247 246 246 247 246 246 246 246 
247 245 245 243 244 243 243 243 244 244 245 244 244 193 238 242 243 244 244 244 
243 243 244 244 244 244 243 243 244 242 243 243 244 242 241 199 
223 242 240 240 222 180 237 215 240 241 241 242 245 242 232 195 
238 203 178 174 158 187 195 235 180 234 248 246 244 211 191 224 
238 244 245 194 238 244 244 244 244 244 244 245 246 246 246 245 
245 246 245 246 244 172 247 247 246 246 246 246 246 246 247 245 
246 248 246 243 243 244 243 243 245 244 246 245 244 220 210 243 242 244 244 243 
242 244 244 243 244 244 245 244 243 245 244 244 244 242 243 189 
235 244 240 240 243 188 205 242 241 242 239 244 212 169 174 225 
241 234 188 203 161 171 175 193 230 244 244 193 200 240 186 182 
243 244 243 186 244 243 244 244 244 244 245 247 246 245 246 246 
247 245 247 246 201 212 248 247 246 247 247 247 246 246 246 247 
247 245 246 245 244 244 245 245 245 245 244 245 244 243 203 234 242 244 243 243 
243 244 244 244 245 244 245 245 245 244 244 243 244 243 240 198 
244 242 244 244 242 232 171 238 242 243 242 165 201 155 193 241 
242 242 184 202 202 190 233 197 224 244 221 145 137 211 190 185 
243 243 239 196 244 245 245 245 244 244 245 247 247 247 245 246 
243 245 245 232 179 246 246 247 247 247 248 247 246 246 247 247 
246 247 247 244 244 244 245 244 244 245 244 246 244 244 229 203 245 245 246 244 
243 244 244 244 245 245 246 246 245 244 245 244 245 244 219 209 
244 243 244 244 240 154 211 177 239 241 242 188 169 157 189 243 
242 241 210 166 166 124 178 215 156 196 180 164 137 225 216 213 
246 243 212 211 244 245 247 245 245 245 246 246 247 246 247 245 
246 246 249 189 237 246 248 248 247 247 247 246 247 248 248 247 
246 247 247 246 244 244 244 245 245 245 245 245 245 245 244 205 235 242 243 244 
244 245 245 244 245 245 246 245 244 245 244 245 244 243 199 227 
245 246 245 245 242 207 244 188 225 244 241 222 230 234 244 244 
243 243 242 203 226 207 205 243 195 152 196 244 236 229 194 208 
233 243 211 216 245 245 247 246 245 245 245 246 246 247 246 247 
247 247 213 210 248 246 246 248 247 245 247 247 247 247 247 247 
247 246 246 244 245 244 244 245 243 245 244 245 245 245 243 229 201 242 244 242 
244 245 244 246 246 245 247 245 244 244 245 244 244 246 175 239 
248 248 248 246 246 248 245 241 244 245 244 214 247 246 246 245 
246 246 248 241 242 242 232 249 246 223 193 199 184 164 224 158 
210 248 213 217 245 246 246 246 245 246 245 245 246 245 246 245 
247 227 163 245 247 246 247 249 248 247 248 247 246 247 247 247 
247 247 247 245 244 245 245 244 245 244 246 245 245 245 244 244 208 221 245 244 
245 243 243 245 246 243 243 245 245 244 244 245 246 245 158 206 
213 214 211 199 203 215 215 224 217 214 233 233 233 238 238 241 
234 227 234 237 232 226 227 219 224 204 194 161 170 230 245 215 
239 240 214 206 243 245 245 245 245 245 245 245 246 245 244 247 
243 169 224 248 247 247 249 248 248 248 247 247 247 247 246 247 
248 246 247 246 245 246 245 247 246 245 245 245 245 246 245 245 240 197 228 245 
244 244 244 245 244 245 244 244 244 245 244 244 244 242 197 185 
196 198 197 192 195 196 184 181 185 188 183 177 174 184 183 184 
192 187 189 190 191 194 178 180 183 189 186 173 178 174 179 164 
160 162 155 203 247 247 244 245 245 245 245 244 245 245 247 247 
188 197 248 246 247 247 248 247 247 247 248 248 248 248 248 246 
246 247 247 244 245 246 245 245 245 245 244 246 245 246 246 246 246 232 191 238 
243 244 245 244 244 244 245 244 243 245 244 244 245 247 247 244 
243 244 244 246 246 243 246 247 245 248 244 243 243 245 247 246 
247 246 247 247 249 249 248 248 250 249 247 247 249 248 246 243 
245 232 218 242 245 246 246 245 246 246 246 245 246 246 249 211 
180 248 247 246 247 248 248 248 248 247 248 247 248 247 247 247 
247 247 247 247 246 246 246 245 245 245 244 246 246 246 244 245 245 247 226 201 
243 243 243 244 245 245 244 244 245 243 245 245 244 245 245 245 
244 245 245 245 245 243 246 245 244 244 245 245 246 247 246 246 
246 246 247 247 247 247 246 247 248 248 248 248 248 248 248 250 
248 249 247 245 245 246 245 246 247 245 246 246 246 248 215 180 
244 248 246 248 248 249 246 246 247 247 247 247 248 247 248 247 
248 247 247 246 245 247 246 247 246 246 245 246 246 246 246 245 245 247 245 218 
209 245 244 245 245 245 244 243 244 245 245 244 244 245 245 244 
245 245 245 244 245 244 244 244 244 245 246 246 246 244 245 244 
245 245 246 246 245 246 246 246 246 246 246 244 246 248 248 249 
248 246 246 246 246 246 246 247 248 246 246 248 245 227 184 240 
247 246 247 248 248 248 248 248 247 247 248 248 247 247 248 248 
247 247 248 246 248 246 247 246 244 245 244 245 246 245 245 246 246 245 246 245 
205 229 246 245 244 244 243 245 245 247 245 245 246 246 244 245 
244 245 246 245 245 244 243 245 245 246 247 247 247 246 246 246 
246 246 245 246 246 246 246 246 246 246 248 246 246 246 247 248 
247 247 247 246 245 247 245 247 246 247 248 250 210 174 235 249 
246 246 248 247 247 247 248 248 248 248 248 248 248 247 247 247 
248 248 249 248 247 248 246 246 247 247 246 246 246 246 246 246 245 246 246 246 
242 207 220 245 243 245 246 245 245 245 246 244 246 246 246 247 
245 245 245 245 246 246 246 247 246 247 247 247 247 245 246 247 
248 247 245 246 246 247 247 246 246 247 247 246 248 247 247 247 
246 246 246 245 247 246 246 246 246 248 250 203 180 244 247 245 
245 246 247 247 247 249 248 249 249 248 248 248 247 248 249 249 
247 247 249 247 246 247 246 246 245 246 247 247 247 246 247 247 248 247 247 247 
247 244 210 210 244 245 244 248 247 246 246 247 247 247 246 246 
246 246 245 246 246 246 247 247 247 248 247 246 246 247 247 247 
247 247 248 247 247 246 247 247 247 247 247 247 247 246 246 246 
247 247 247 247 247 248 247 247 248 248 193 195 247 248 247 245 
248 248 247 247 247 248 247 250 247 249 248 250 250 251 250 251 
251 250 250 246 247 247 246 246 248 247 247 246 246 246 247 246 246 247 248 247 
247 247 245 211 208 242 248 244 245 247 246 247 246 245 246 247 
247 246 246 245 244 244 244 246 246 246 246 246 247 247 248 247 
247 247 247 247 247 247 246 246 246 248 247 246 247 248 247 248 
247 247 246 246 247 248 247 250 240 189 214 250 248 247 246 246 
248 248 247 248 248 247 249 249 250 248 249 250 252 251 251 250 
250 250 250 247 245 247 248 247 248 247 247 248 247 248 246 247 247 247 248 248 
247 247 248 243 216 200 239 248 247 247 248 247 246 245 245 247 
247 247 246 246 247 248 248 247 246 246 247 246 246 247 247 247 
248 247 248 248 248 246 246 245 246 246 247 246 246 247 248 247 
247 247 247 247 247 249 248 217 192 230 250 249 249 248 248 247 
248 248 247 248 249 249 249 250 250 251 251 251 251 252 250 250 
250 251 251 248 246 247 248 247 248 247 248 247 248 248 247 247 248 247 248 247 
248 248 248 249 249 235 203 226 247 250 247 246 246 245 245 246 
247 247 247 246 246 247 248 248 248 248 247 247 246 249 249 248 
248 248 248 248 247 247 246 245 247 246 247 247 247 245 246 246 
246 247 248 249 249 242 186 193 238 250 249 248 249 249 249 248 
248 249 248 248 250 249 249 250 250 251 251 251 251 251 250 250 
250 249 250 248 248 249 249 247 247 249 248 248 247 248 248 248 248 247 248 248 
248 247 248 247 248 250 244 211 219 242 249 247 246 245 246 246 
246 248 246 247 248 249 249 250 248 247 247 247 248 248 248 249 
250 247 248 247 246 248 247 246 247 248 247 246 247 248 247 246 
249 249 249 245 195 177 219 248 249 249 248 249 249 248 247 249 
248 249 249 249 249 250 250 249 250 251 251 251 252 251 250 251 
251 250 251 248 248 247 247 247 249 247 249 248 248 248 248 249 248 248 248 248 
248 248 248 248 248 249 250 250 236 209 233 247 247 245 246 246 
246 248 247 247 247 249 249 250 248 248 249 248 248 248 248 248 
249 246 248 248 247 247 248 248 249 247 247 248 248 247 248 249 
249 243 213 182 203 247 250 249 247 248 248 248 248 249 249 249 
250 249 249 249 250 250 250 250 251 250 251 250 250 250 251 251 
251 252 250 249 249 249 248 249 248 248 249 248 249 250 248 249 249 248 248 249 
248 248 249 249 248 248 249 250 250 249 230 211 230 247 247 248 
246 247 246 247 249 248 248 250 249 248 248 248 248 248 248 249 
249 249 246 245 248 247 247 246 248 247 248 247 248 249 250 244 
214 182 200 240 250 249 249 249 249 250 249 247 249 249 249 249 
248 249 249 251 251 252 251 251 250 251 251 251 250 251 250 250 
250 251 251 249 248 248 249 248 248 249 248 249 249 248 249 248 249 248 248 248 
248 249 249 249 250 248 248 248 248 249 249 243 218 207 226 246 
247 249 248 249 250 248 248 250 249 248 248 247 247 248 248 248 
248 247 246 246 247 247 247 249 249 248 249 249 247 231 213 199 
207 240 251 250 249 248 248 249 250 249 249 249 249 249 250 250 
250 250 249 250 250 251 251 251 251 251 251 250 251 252 250 250 
250 250 250 248 248 248 248 248 250 249 249 248 248 248 248 249 249 248 249 250 
249 249 248 248 247 248 248 250 249 249 249 249 246 243 224 190 
214 238 247 251 249 250 249 248 248 247 247 249 248 248 248 248 
248 248 248 247 247 247 249 248 250 250 243 226 171 140 200 243 
250 250 248 249 251 248 249 249 250 249 250 249 249 249 250 250 
250 249 249 250 250 250 250 249 250 250 250 250 249 250 250 251 
251 250 250 249 248 249 249 249 249 248 249 249 249 249 249 249 249 248 249 249 
250 249 249 250 250 250 249 249 249 248 248 248 249 248 250 245 
224 201 187 197 215 233 247 247 248 248 250 249 249 249 249 249 
250 248 248 249 249 247 248 245 228 189 176 189 219 244 251 250 
250 249 249 250 250 249 249 249 249 251 251 250 249 250 250 250 
250 250 250 250 250 250 250 249 250 251 251 250 250 250 250 251 
251 251 250 248 248 249 250 250 250 249 249 249 248 248 249 249 248 250 249 250 
249 248 248 249 249 250 249 249 249 249 249 249 249 248 249 251 
251 250 246 230 211 198 184 177 183 190 199 224 223 222 222 227 
226 224 217 215 206 192 191 199 216 234 249 253 253 251 250 250 
250 250 250 249 249 249 249 249 251 250 250 250 251 251 250 250 
250 250 250 250 250 250 250 250 250 252 251 251 251 251 251 250 
250 250 250 249 248 247 249 249 249 248 250 249 249 250 250 248 250 249 249 249 
250 249 249 250 249 248 248 250 249 249 249 249 249 248 248 250 
251 251 251 252 251 252 249 245 236 229 235 223 209 204 201 207 
212 213 220 216 222 238 249 252 251 252 252 253 250 249 250 250 
251 250 250 250 250 250 249 250 250 250 250 250 250 250 250 250 
250 251 251 251 251 250 250 251 249 250 251 250 250 250 249 249 
249 250 250 249 248 248 248 248 248 249 251 250 249 249 249 249 249 249 249 250 
249 249 249 250 250 250 250 249 251 250 250 249 249 249 250 250 
251 252 250 249 250 251 251 251 251 251 251 252 252 252 251 253 
251 251 251 250 251 250 250 253 252 251 251 250 250 250 250 252 
251 250 251 250 250 250 250 250 250 250 249 251 251 251 250 250 
250 248 250 250 250 250 250 249 250 250 251 250 250 251 250 249 
250 250 249 249 248 248 248 248 249 250 249 249 249 249 249 248 249 248 249 250 
250 250 249 248 249 250 250 250 249 249 249 249 249 250 249 249 
250 251 250 252 250 249 250 250 249 250 249 251 250 250 250 251 
251 250 250 251 250 248 250 251 250 251 251 251 251 251 250 252 
251 250 251 250 250 250 250 249 250 249 249 250 250 250 250 250 
249 250 250 250 249 249 250 250 250 250 249 250 250 249 248 249 
249 248 249 248 248 248 247 249 249 248 248 248 248 248 248 249 249 249 250 248 
249 248 249 249 250 249 249 250 250 248 249 250 250 251 250 249 
251 251 250 250 249 249 250 250 249 250 250 249 250 250 250 249 
250 249 249 251 251 251 251 251 251 252 252 251 249 250 251 251 
251 250 250 250 251 251 250 250 250 250 250 251 250 251 250 250 
250 250 250 249 249 251 250 250 250 251 251 250 250 250 247 249 
248 248 247 246 248 248 248 248 247 247 247 248 248 249 249 249 249 249 250 249 
248 249 250 251 250 249 250 250 250 249 249 250 250 250 250 250 
251 251 250 251 250 250 250 250 250 250 249 251 251 250 250 250 
250 249 249 250 249 251 251 251 252 253 253 252 251 250 250 251 
251 251 250 252 251 250 250 251 251 250 250 250 249 249 249 249 
250 251 250 252 251 251 250 251 250 249 250 250 250 249 247 250 
248 249 249 249 249 248 250 249 250 250 251 250 250 250 250 250 250 250 250 251 
251 250 251 249 251 248 249 249 251 251 251 251 252 251 252 252 
253 251 251 251 252 250 252 251 251 251 250 251 251 251 252 251 
252 251 250 252 253 254 253 253 254 255 254 253 251 250 251 251 
252 253 252 251 252 253 252 252 250 252 249 248 249 249 248 251 
249 250 249 247 248 246 248 249 249 248 248 245 246 247 245 245 
249 248 245 