P2
# Created by IrfanView
100 100
255
225 225 225 225 226 225 226 226 226 225 225 225 226 224 227 226 226 
225 226 225 225 226 225 226 228 226 226 226 226 225 225 225 225 
226 224 225 225 227 225 225 227 226 225 226 225 226 227 226 227 
228 227 225 227 228 226 226 225 225 227 229 228 228 230 229 229 
229 230 227 226 229 229 228 230 231 231 230 228 231 231 231 231 
232 231 231 232 232 231 232 232 230 229 228 229 228 228 228 228 
227 227 229 226 226 227 227 225 225 225 224 224 226 225 224 224 224 225 226 225 
226 228 227 228 227 227 228 226 225 224 226 226 226 226 226 227 
225 226 225 226 225 227 226 226 225 224 226 226 225 226 226 227 
225 227 227 227 227 226 227 226 225 229 229 229 229 228 228 229 
229 229 230 230 229 230 230 230 230 230 231 231 231 230 229 232 
233 232 232 232 230 231 232 231 230 229 229 231 230 231 229 229 
231 228 227 227 226 225 224 224 225 227 227 227 225 227 227 226 226 227 227 228 
225 226 227 227 228 227 228 229 227 228 227 227 227 228 227 226 
225 223 225 225 224 224 225 225 226 226 224 225 227 227 229 227 
227 228 228 226 230 227 227 227 229 230 229 228 227 228 227 230 
229 228 228 231 230 230 229 231 231 231 231 231 232 230 231 231 
232 231 233 232 231 232 233 230 231 231 230 232 230 230 231 230 
230 230 230 226 226 226 226 227 227 226 227 227 226 225 224 226 226 225 227 227 
226 226 228 227 226 227 227 228 227 227 227 227 227 225 225 227 
228 228 227 226 225 226 225 227 225 225 226 226 225 227 227 226 
228 229 230 228 226 226 227 228 226 227 229 227 229 229 228 229 
229 230 230 230 229 230 231 230 232 231 231 231 231 230 231 231 
232 232 232 231 232 232 231 231 231 233 232 232 233 231 231 232 
231 233 230 225 226 225 225 225 226 225 224 225 226 226 227 225 226 227 228 225 
223 227 227 227 229 228 228 228 229 228 227 230 228 227 227 227 
226 225 225 227 226 226 225 225 226 226 227 227 227 227 227 229 
229 228 229 230 228 228 227 229 230 229 228 229 229 228 228 228 
230 231 229 230 231 231 230 230 230 232 231 232 232 232 231 231 
231 232 234 231 232 232 233 232 231 231 234 234 232 232 233 232 
232 232 228 226 226 227 226 226 226 226 227 226 225 226 228 226 226 226 226 226 
226 227 228 226 225 228 228 226 230 229 229 230 230 232 228 226 
227 226 227 226 226 227 226 226 225 226 225 226 226 228 228 227 
229 227 228 229 227 227 227 226 229 228 228 227 227 229 229 229 
231 229 232 232 231 233 231 231 232 232 233 233 232 232 231 229 
230 234 234 233 233 233 234 234 232 234 233 232 232 235 234 233 
233 232 231 229 229 227 228 227 227 228 228 228 228 227 228 227 227 227 228 225 
229 227 228 228 228 228 229 229 229 228 228 231 230 230 230 229 
230 229 229 227 227 226 226 226 226 226 227 226 227 227 228 228 
229 226 227 228 231 229 227 229 228 229 228 229 228 227 228 229 
228 231 229 230 229 230 231 232 232 232 232 232 233 232 232 231 
231 234 234 233 234 233 234 234 234 234 233 233 231 236 234 232 
232 233 234 231 230 229 227 227 228 227 227 227 228 227 227 227 227 226 228 225 
228 227 228 229 228 230 229 228 229 229 229 229 230 230 229 231 
228 229 227 226 227 226 227 227 228 227 226 226 225 227 231 231 
230 230 232 230 231 230 230 229 228 227 227 229 228 229 229 227 
230 229 231 231 230 230 231 231 232 233 232 232 232 234 233 232 
234 233 234 234 233 233 234 234 235 233 234 234 234 235 234 235 
234 233 234 229 232 231 232 229 231 229 230 230 230 227 228 228 229 227 228 228 
229 229 229 230 230 231 230 229 229 228 228 228 229 228 228 227 
229 230 229 228 227 229 230 230 228 230 227 230 228 230 229 228 
226 230 229 224 227 226 230 230 230 234 229 228 230 227 226 228 
228 230 229 231 232 229 229 230 232 230 232 234 235 233 234 233 
233 234 233 234 234 234 235 235 235 233 234 234 234 235 234 235 
234 234 233 230 232 231 231 231 232 230 230 228 228 231 229 230 229 228 227 230 
230 229 231 228 229 229 230 229 229 229 230 229 228 228 229 230 
230 231 228 229 230 232 232 233 232 224 221 207 183 175 157 160 
168 164 159 155 158 165 171 175 184 213 222 226 228 230 228 228 
230 229 230 229 230 232 231 232 231 230 234 232 234 235 233 233 
234 233 232 234 234 233 234 234 233 232 235 233 234 233 233 233 
234 234 234 233 232 232 231 232 232 231 230 231 233 230 232 231 231 231 230 227 
229 230 230 231 231 229 230 231 230 229 230 231 231 228 228 226 
229 231 231 232 233 222 198 164 141 132 158 175 193 210 225 231 
229 232 231 229 231 230 227 222 199 177 177 168 167 193 218 225 
232 232 231 230 230 229 230 231 232 233 233 233 233 233 233 235 
235 234 233 234 234 234 234 236 234 234 234 233 235 234 234 233 
234 235 233 232 232 232 234 232 232 234 231 231 231 229 230 232 231 230 230 232 
230 231 231 231 228 230 231 230 230 230 232 230 230 232 233 231 
231 232 219 186 139 131 171 208 227 235 239 235 234 233 233 233 
233 234 235 232 233 232 231 231 231 234 236 233 221 198 169 170 
186 215 231 230 233 232 229 230 231 233 233 233 234 234 233 232 
232 235 236 231 233 234 235 234 233 235 235 233 234 233 235 236 
234 235 233 232 233 232 232 233 234 232 232 232 231 233 231 232 232 231 231 230 
231 231 231 231 232 231 230 232 231 232 229 231 232 231 216 225 
205 148 128 167 204 234 237 236 233 232 232 233 231 231 232 232 
232 230 233 231 231 232 229 230 230 232 231 233 231 232 232 231 
212 182 170 191 224 232 233 232 229 232 232 232 232 233 234 234 
234 233 233 235 236 234 233 234 234 234 233 233 234 234 234 234 
234 234 235 233 233 233 233 234 233 233 233 233 233 233 233 233 233 232 231 232 
232 234 232 232 231 230 231 231 231 231 233 232 213 154 140 128 
140 194 228 237 236 234 233 232 231 230 232 232 232 232 232 231 
232 232 233 232 231 232 232 232 232 232 231 232 232 230 229 231 
233 235 229 210 174 180 216 229 230 233 233 234 233 233 233 233 
234 233 233 233 234 234 233 234 234 232 233 234 235 234 235 234 
233 235 234 233 233 233 233 234 235 232 233 234 233 234 233 232 231 233 233 233 
233 233 232 232 231 231 230 233 233 234 233 181 136 114 156 210 
239 239 237 236 235 234 234 233 233 234 232 230 232 232 232 233 
234 232 232 231 231 232 232 233 232 232 231 234 233 232 228 231 
229 227 230 231 233 215 184 183 218 232 233 233 232 232 232 233 
234 232 234 233 234 234 234 233 233 236 234 233 234 234 234 235 
234 234 234 234 234 234 233 233 233 235 233 233 235 233 233 234 233 232 231 231 
231 232 232 232 232 230 231 235 235 217 140 122 142 219 240 238 
236 233 235 235 232 231 232 234 233 234 234 232 233 230 233 233 
234 233 233 232 232 232 231 233 234 235 232 235 232 233 230 232 
230 226 228 230 230 234 234 219 184 190 228 235 233 233 232 233 
234 233 234 234 233 233 233 235 235 232 232 234 233 235 235 235 
235 233 236 233 233 233 232 234 233 233 235 234 233 233 233 234 233 230 233 233 
232 234 233 232 232 233 234 236 192 105 117 198 237 236 235 234 
234 233 233 233 234 235 234 233 234 234 233 234 233 234 234 233 
232 233 234 233 233 234 233 233 233 232 232 234 235 234 233 231 
230 232 231 227 232 232 231 235 232 214 175 197 231 232 232 232 
233 234 233 234 232 233 234 233 234 234 235 233 234 235 235 234 
234 235 235 233 233 235 234 234 235 234 234 233 234 234 234 234 233 233 234 233 
231 234 233 232 232 235 235 169 149 214 235 237 236 235 235 235 
235 235 235 235 233 235 234 234 234 233 234 235 235 235 234 233 
235 233 233 234 234 232 233 233 234 233 234 234 234 234 233 230 
231 229 229 231 231 230 229 231 232 234 234 202 189 225 231 232 
231 230 231 233 234 233 232 234 233 232 232 234 235 233 234 234 
237 235 234 234 234 235 234 235 235 235 233 235 235 234 235 232 233 234 233 233 
234 234 232 233 236 228 148 179 237 237 238 236 235 235 236 235 
234 233 235 235 236 234 235 234 235 234 235 235 234 235 233 235 
235 233 234 232 233 234 232 233 233 234 233 233 235 234 234 233 
229 230 231 231 230 231 230 232 231 231 233 233 219 179 206 227 
228 231 231 232 233 233 233 232 233 232 233 233 234 235 234 234 
233 232 233 233 234 235 234 234 234 234 235 232 232 237 234 234 233 233 234 234 
234 232 232 235 216 128 212 238 236 234 235 236 236 236 235 236 
236 237 236 236 234 236 235 237 237 235 235 234 236 236 235 235 
234 235 235 233 234 234 235 235 236 235 233 234 234 234 233 233 
233 231 230 231 230 232 232 232 232 232 231 232 235 231 193 200 
232 231 232 231 232 232 233 234 234 234 233 233 233 234 235 235 
233 235 234 234 235 234 235 234 234 235 235 235 236 234 234 235 234 235 233 234 
234 235 237 224 118 209 237 236 237 237 235 234 236 236 236 236 
237 235 236 236 235 235 236 237 236 234 235 236 234 235 235 236 
235 235 235 234 234 234 232 234 232 234 234 235 234 234 234 234 
233 231 232 233 229 231 233 231 229 231 232 231 232 232 236 212 
194 230 230 232 232 233 232 232 232 233 231 231 233 234 234 233 
235 235 234 235 235 234 233 234 234 235 235 235 234 234 236 236 233 233 235 235 
236 237 193 113 219 239 236 235 235 236 235 237 237 235 236 237 
236 236 237 236 236 236 236 236 235 235 235 236 237 235 236 235 
236 235 236 233 234 234 235 235 235 236 233 234 233 233 232 234 
234 234 232 231 231 232 232 233 233 233 233 230 231 233 233 236 
213 190 227 229 231 233 232 232 235 232 234 233 233 235 234 235 
235 234 234 235 234 235 234 236 235 235 235 235 236 236 235 236 235 235 235 235 
233 207 131 221 239 237 236 235 236 235 235 236 236 235 236 235 
236 236 237 238 236 237 237 236 237 236 237 236 236 237 236 236 
236 236 238 236 235 234 235 235 236 235 234 233 234 234 235 234 
234 234 233 232 233 233 232 231 231 232 231 231 233 231 231 230 
232 201 197 230 231 231 232 233 231 233 232 233 235 232 235 234 
233 234 234 236 234 235 236 235 234 234 236 236 237 237 234 235 234 237 236 235 
238 165 205 240 236 237 236 235 236 236 236 234 235 237 236 237 
235 236 235 235 236 236 235 236 237 237 237 236 236 236 236 238 
235 236 235 236 235 234 235 234 235 235 235 235 236 235 235 234 
232 234 234 234 234 232 233 232 233 232 232 233 233 231 232 231 
232 232 192 208 231 232 232 232 234 233 232 233 233 233 235 234 
235 234 235 234 236 234 234 236 236 237 236 235 235 236 235 235 233 235 234 237 
201 184 241 236 236 236 235 236 236 237 236 236 235 235 237 236 
236 237 236 237 236 237 237 236 236 237 237 237 236 237 237 237 
238 238 237 237 237 236 236 236 235 235 237 236 234 233 235 233 
234 233 235 233 235 233 231 233 233 233 232 235 233 231 232 230 
230 230 227 166 223 230 233 233 233 233 233 234 233 234 234 234 
234 235 235 237 236 236 236 235 237 236 236 236 234 238 235 235 234 235 235 218 
172 240 236 236 236 236 235 235 236 235 235 237 237 237 237 237 
238 237 237 237 237 236 237 238 237 236 236 236 238 239 238 237 
239 239 240 238 237 237 236 237 237 236 235 236 235 236 233 233 
234 233 232 232 234 233 234 233 233 232 233 232 234 233 231 232 
231 231 230 185 218 231 232 232 234 234 233 232 235 235 234 233 
234 234 235 235 236 237 236 236 236 236 237 239 235 236 235 234 234 234 237 156 
236 237 238 238 236 237 237 237 235 235 235 235 236 236 236 236 
236 236 236 236 236 237 236 237 237 238 237 238 237 238 238 239 
239 239 241 240 239 238 239 238 237 238 237 234 234 234 233 233 
233 232 233 233 234 235 235 234 233 233 233 236 234 234 232 232 
233 233 230 202 174 228 232 232 233 233 233 232 234 234 234 233 
234 236 235 237 236 236 236 237 236 236 236 239 236 235 235 236 234 237 181 214 
238 237 237 237 237 236 238 238 237 236 235 235 236 237 235 236 
235 236 238 236 237 237 237 236 236 237 238 238 236 239 239 239 
239 240 242 239 237 238 236 237 236 236 237 235 236 236 235 235 
233 235 235 234 234 235 234 235 233 233 234 234 234 235 234 234 
234 233 232 231 180 210 233 230 232 233 233 232 233 234 235 234 
233 235 235 237 237 236 236 236 236 235 237 237 237 236 236 236 236 208 176 241 
237 237 239 237 238 238 236 236 239 240 238 238 236 238 237 238 
237 237 236 238 237 238 238 238 237 236 238 239 238 239 239 239 
239 240 241 238 236 237 239 238 237 237 237 238 236 235 236 234 
233 236 233 233 233 234 234 233 234 234 234 237 234 235 234 233 
233 232 233 233 221 169 227 232 233 235 232 231 234 234 234 234 
234 234 235 237 236 237 236 237 237 236 236 238 237 237 237 234 239 155 237 237 
238 238 235 239 236 236 236 224 218 235 236 241 239 240 239 238 
238 236 237 236 235 236 236 236 236 236 237 238 238 238 239 239 
238 237 241 240 239 239 238 239 237 237 240 236 235 234 234 234 
234 234 235 234 234 235 233 233 235 236 232 225 234 234 233 235 
233 235 234 234 235 205 194 229 232 233 234 233 233 233 234 235 
234 235 234 236 239 238 236 239 238 235 236 236 235 237 238 237 192 205 241 238 
237 238 238 238 238 236 236 224 142 145 155 190 208 235 238 239 
241 240 238 239 236 235 237 237 235 238 240 237 238 239 237 238 
239 238 241 238 237 239 238 238 238 237 235 235 234 236 235 234 
234 234 234 234 235 238 238 234 217 208 184 185 236 235 234 235 
235 234 233 233 233 234 176 214 231 233 235 234 234 233 235 234 
235 235 235 239 236 237 239 240 240 238 237 236 237 236 238 236 147 240 236 238 
238 237 237 239 238 238 239 238 240 211 161 116 128 135 159 165 
208 232 236 235 239 239 238 237 237 237 238 238 239 239 238 240 
240 238 238 238 237 238 238 237 238 238 236 234 235 234 236 235 
236 236 236 235 228 205 178 186 156 159 155 199 236 236 236 234 
236 234 234 233 234 236 221 173 228 233 233 235 234 234 233 234 
235 235 234 238 237 238 238 239 240 237 238 238 237 236 236 184 205 241 237 239 
238 238 238 240 238 239 239 237 240 243 243 232 184 142 113 106 
97 103 117 144 189 226 236 237 240 239 237 237 237 238 236 238 
237 238 239 238 237 237 237 238 238 237 237 236 234 235 235 236 
237 231 227 198 133 111 101 169 209 224 236 240 236 237 236 235 
236 236 235 234 234 234 235 188 205 233 232 233 235 235 235 234 
234 235 235 239 239 237 240 239 239 238 239 237 238 237 240 149 241 236 238 237 
238 238 237 236 238 239 239 236 237 238 240 241 244 240 228 152 
101 74 80 93 121 110 149 192 232 238 238 239 238 238 238 239 
239 238 239 238 238 238 237 238 237 236 235 236 236 236 234 212 
178 159 108 92 107 154 192 232 237 236 239 237 236 236 236 235 
235 235 234 235 236 234 233 227 173 225 231 235 235 234 234 235 
235 234 235 239 239 239 239 239 238 239 239 239 238 236 199 192 240 239 239 240 
237 238 239 239 239 238 238 238 238 237 237 238 238 241 242 233 
156 75 82 72 108 105 145 151 131 188 235 237 239 238 238 239 
238 240 238 238 238 238 239 238 236 236 237 235 215 161 148 110 
94 101 112 151 220 235 237 235 234 236 237 237 236 237 236 235 
234 235 235 237 236 233 233 236 188 198 232 235 234 236 234 234 
233 233 234 240 240 240 242 240 239 240 239 238 239 239 160 235 241 239 239 238 
238 239 239 239 239 238 240 239 238 238 238 239 238 239 240 235 
158 116 70 123 126 102 87 146 141 149 228 237 237 239 238 237 
237 239 237 237 236 238 238 238 240 238 208 158 115 108 105 118 
104 96 168 229 236 237 235 236 236 235 237 237 236 236 236 236 
236 237 236 236 237 235 235 234 227 163 228 234 235 234 235 234 
234 234 234 239 241 239 239 240 240 240 239 238 240 235 177 241 237 237 238 239 
239 238 239 238 239 241 237 239 239 239 239 240 240 239 241 233 
151 102 57 134 102 100 75 104 142 189 236 238 236 238 238 238 
238 236 238 236 236 237 237 238 207 172 142 134 126 144 114 124 
102 116 157 232 234 234 235 235 236 235 237 236 236 235 236 236 
236 236 236 236 235 235 234 234 238 183 218 235 235 235 235 234 
234 233 238 240 241 242 241 241 241 239 237 240 240 179 220 238 240 240 240 238 
238 239 240 239 238 240 239 239 239 238 239 238 239 240 241 240 
182 90 59 83 99 92 98 137 134 196 234 236 237 237 237 236 
237 238 237 237 236 236 236 237 163 144 177 143 166 147 153 150 
115 121 175 230 236 235 235 236 235 236 237 236 236 236 236 236 
235 236 236 236 235 235 235 234 237 219 191 233 235 235 235 235 
234 233 234 241 241 241 241 241 239 240 238 240 240 158 238 239 239 240 239 240 
241 240 240 239 240 239 239 239 240 240 239 241 240 242 241 239 
207 118 56 101 110 93 127 123 131 230 234 235 237 238 238 239 
238 238 237 236 236 236 236 235 170 101 148 134 147 155 123 126 
89 125 191 234 234 236 237 236 237 235 237 237 236 237 236 236 
236 236 236 237 236 236 236 236 236 233 176 231 234 235 235 234 
235 235 234 241 242 241 242 241 240 242 242 240 226 170 241 241 240 240 240 241 
239 239 239 238 240 240 240 240 239 240 241 240 239 242 241 241 
242 181 96 89 90 101 150 119 168 238 235 236 235 237 237 237 
236 238 237 237 237 237 236 233 156 112 109 118 140 139 124 112 
106 159 222 233 235 234 235 237 235 236 235 237 238 236 237 237 
236 237 238 237 235 235 235 236 236 234 190 214 237 236 236 236 
238 235 236 243 241 242 242 240 241 243 242 242 201 212 240 241 240 240 241 239 
240 241 240 241 241 241 241 241 241 241 241 242 240 240 241 242 
241 226 150 78 79 83 120 126 218 234 236 236 234 238 238 237 
238 238 237 235 237 235 235 233 178 136 88 125 108 105 107 110 
126 186 235 235 235 236 238 236 237 237 236 237 236 236 237 237 
237 237 237 238 237 235 236 235 236 236 221 189 234 237 235 235 
234 234 236 242 242 241 243 241 241 243 243 242 169 239 243 243 241 241 241 241 
240 241 241 241 239 238 239 241 241 241 242 241 241 243 241 243 
241 244 235 167 93 122 139 183 239 236 236 233 234 237 237 236 
238 238 237 236 237 235 235 239 222 149 121 102 127 95 120 94 
146 229 234 236 235 235 235 236 236 236 237 236 238 238 238 237 
237 236 238 237 238 238 236 235 236 235 232 184 232 235 235 235 
236 236 236 241 243 242 242 242 241 243 242 241 173 244 243 242 242 240 240 241 
241 240 241 243 243 242 241 241 241 242 241 241 242 241 240 242 
242 242 245 243 188 135 185 234 238 237 235 235 235 238 238 237 
236 237 237 236 237 237 236 237 239 177 111 95 126 153 128 125 
214 236 234 236 236 237 236 235 236 235 236 236 237 235 236 237 
238 238 237 239 236 237 236 236 235 237 237 196 220 238 236 236 
238 235 236 242 243 242 242 241 242 242 242 235 173 243 240 239 241 242 241 241 
242 241 240 238 240 240 241 241 241 242 241 242 242 242 241 241 
241 242 242 242 244 242 243 241 237 237 238 235 236 236 237 237 
237 237 237 237 238 238 237 237 238 211 157 147 118 125 153 204 
236 235 236 235 236 236 237 236 236 237 235 236 235 236 235 236 
237 238 237 239 237 236 236 236 236 238 240 208 211 235 235 236 
236 237 237 243 244 241 243 242 240 242 242 216 194 241 243 242 242 240 241 241 
241 241 241 241 241 241 241 241 241 241 242 241 241 242 242 242 
242 241 242 240 241 241 240 241 238 238 237 237 238 236 237 237 
238 237 236 237 237 237 235 239 237 238 220 192 204 204 226 237 
236 235 236 235 235 235 235 235 237 236 235 236 237 235 236 236 
236 237 237 237 239 237 236 236 236 237 238 223 193 232 234 236 
237 236 236 243 242 243 242 242 241 243 244 203 211 244 243 243 240 243 242 242 
241 241 241 241 240 241 241 242 239 240 242 241 243 242 242 241 
243 243 242 241 239 238 241 239 239 239 238 238 238 237 238 236 
238 238 237 239 237 237 237 239 236 237 239 238 237 236 237 237 
236 234 235 236 236 236 236 236 234 235 235 236 236 235 236 237 
237 236 237 237 237 237 236 237 237 238 238 234 195 232 237 235 
238 237 236 244 244 242 242 242 244 243 243 181 232 242 242 243 242 243 243 243 
241 242 241 244 242 241 241 241 242 242 241 242 242 241 242 243 
242 242 242 242 241 239 239 239 239 238 240 237 239 238 238 239 
238 238 237 237 239 237 237 238 238 239 238 236 236 237 235 235 
235 236 236 235 235 235 235 237 237 236 236 235 237 235 235 239 
236 238 237 236 238 236 238 237 237 238 238 237 198 233 236 238 
238 238 237 244 243 242 243 243 243 242 243 182 242 243 243 243 243 243 244 244 
242 242 243 243 242 241 241 242 242 241 242 242 242 242 242 242 
240 243 243 242 242 240 239 240 240 238 239 238 239 239 237 238 
239 239 240 240 238 239 238 239 238 238 239 237 236 236 236 236 
236 236 237 236 235 235 236 234 234 235 238 237 236 236 234 208 
229 237 237 236 237 236 235 236 236 240 237 239 192 229 237 237 
237 238 236 243 245 243 243 243 243 244 244 169 236 242 243 243 244 243 242 242 
242 242 242 243 242 241 242 242 242 242 242 242 242 242 241 242 
241 242 241 242 241 239 239 238 237 238 238 239 239 237 238 238 
238 240 237 238 238 237 239 238 239 237 240 237 236 236 236 237 
235 235 238 236 235 235 235 235 237 237 237 237 236 235 218 149 
219 236 238 236 236 237 236 236 235 237 237 236 197 223 240 238 
238 237 236 245 246 244 243 244 243 244 245 175 243 244 243 243 243 242 243 242 
242 242 243 242 241 242 242 243 241 241 242 242 243 240 242 241 
242 241 241 239 240 239 238 238 239 238 238 239 239 239 238 237 
240 241 239 239 238 239 239 239 239 239 239 239 238 240 235 237 
236 236 235 235 234 234 236 237 236 236 238 237 235 235 203 204 
232 236 236 236 235 236 238 239 236 237 238 236 205 217 238 237 
236 238 237 244 244 244 244 243 242 244 243 175 244 243 244 243 244 244 243 243 
242 243 243 242 242 243 242 242 242 242 243 241 243 243 242 243 
242 242 241 242 241 240 240 240 239 240 239 239 239 239 239 238 
240 242 240 239 239 240 240 238 240 240 240 238 238 236 239 239 
236 237 237 237 236 237 236 236 236 237 229 233 236 236 201 206 
236 237 237 238 236 236 237 236 238 236 238 237 200 215 240 239 
239 238 238 245 244 243 244 244 244 244 244 176 245 244 243 244 243 243 243 243 
243 243 243 242 242 243 243 243 241 242 243 242 243 242 242 241 
242 242 242 240 239 240 239 239 239 240 239 241 238 239 240 240 
239 239 240 238 240 240 239 241 242 240 239 238 239 237 239 239 
239 237 235 237 237 237 236 238 238 237 238 206 237 237 209 208 
235 237 237 237 238 237 235 235 235 236 237 235 201 213 238 237 
237 238 239 244 245 243 244 243 244 244 244 183 246 244 244 244 243 243 243 244 
244 242 244 244 241 243 242 242 242 243 242 244 245 241 242 242 
243 243 242 242 242 239 239 239 240 240 240 240 241 239 240 242 
241 239 240 239 239 239 242 239 238 240 239 240 241 239 239 241 
236 238 237 237 235 236 238 238 235 237 228 178 237 236 227 193 
238 239 241 241 234 229 236 237 235 236 236 236 181 223 238 239 
239 239 237 244 246 246 246 246 245 244 245 185 244 244 245 243 244 244 244 244 
244 244 243 244 243 244 244 243 242 242 242 242 243 243 243 242 
240 242 240 244 241 238 239 238 239 240 240 240 238 241 240 238 
240 240 240 240 239 240 238 240 240 239 240 239 240 240 240 240 
240 239 237 237 238 237 239 238 237 240 199 182 235 236 234 197 
220 217 203 198 190 212 234 237 236 237 237 232 152 220 237 239 
240 240 240 247 246 244 246 244 244 244 245 178 240 243 244 245 243 243 244 244 
244 243 244 243 242 245 243 242 243 243 243 242 243 242 242 243 
242 242 242 243 242 240 239 239 240 240 240 241 241 240 241 242 
241 240 241 241 240 240 240 241 240 240 241 239 242 239 239 238 
241 241 236 237 236 238 238 237 239 216 161 210 238 237 236 229 
173 167 198 212 233 238 236 238 236 237 236 232 154 226 240 238 
238 239 238 244 245 245 245 244 244 243 245 181 220 245 244 244 246 246 244 246 
245 244 242 243 243 244 243 243 243 243 241 243 243 243 244 243 
243 242 241 242 242 241 242 238 239 241 242 241 240 241 241 241 
243 240 241 240 240 241 241 240 242 242 238 240 241 241 241 242 
240 240 238 238 239 218 240 239 222 155 197 241 238 236 238 238 
242 238 240 240 240 238 237 236 236 237 236 231 167 234 240 238 
237 239 239 245 244 245 246 245 245 244 244 195 208 245 245 244 244 245 244 245 
245 244 245 244 245 244 242 244 242 242 242 242 243 243 242 243 
242 244 243 243 243 240 239 240 241 241 241 240 241 241 241 239 
243 242 242 241 241 242 240 240 240 240 242 241 241 241 239 241 
242 240 240 239 237 220 225 201 170 213 242 242 241 238 238 238 
243 243 238 236 239 237 238 237 236 237 237 219 186 234 239 240 
238 237 239 245 244 245 245 245 246 244 243 215 200 245 245 245 244 245 244 244 
244 244 245 244 242 244 244 243 243 242 243 242 242 243 243 243 
243 244 243 242 242 241 240 240 241 241 241 242 243 242 241 242 
243 242 242 240 238 240 241 241 240 241 240 241 242 241 239 241 
240 241 240 238 237 236 196 171 228 242 239 241 238 241 238 239 
235 208 171 187 234 239 237 238 237 237 233 216 193 236 239 239 
237 240 239 245 246 246 244 245 245 245 245 238 166 246 244 245 245 244 244 244 
244 244 245 244 245 244 244 244 244 242 244 243 243 241 243 243 
243 243 242 239 244 243 242 239 240 241 240 238 240 242 241 242 
242 242 242 242 241 242 241 241 241 240 240 242 241 241 240 240 
241 240 243 242 239 240 241 241 242 240 241 240 240 238 239 190 
174 188 222 241 239 238 238 241 241 238 238 204 209 238 239 239 
237 239 240 244 244 244 245 244 245 245 247 248 177 243 245 244 245 244 244 245 
245 244 245 245 244 243 243 242 241 243 243 241 243 243 243 241 
241 243 242 243 244 241 240 240 241 241 238 239 240 239 242 241 
241 240 240 240 241 240 241 241 241 242 242 240 240 240 240 239 
240 239 238 239 241 240 243 244 243 242 242 241 239 238 222 175 
210 240 242 241 239 239 240 240 239 239 238 193 216 236 238 240 
240 239 240 244 244 246 245 244 244 245 245 247 170 227 245 244 245 245 244 245 
245 245 244 243 243 243 243 244 242 243 243 243 244 243 242 242 
243 242 242 243 242 241 241 241 241 237 237 241 239 241 241 241 
242 242 240 240 240 241 240 241 238 239 240 241 240 240 241 240 
238 240 240 239 241 240 237 227 226 234 242 244 243 240 185 199 
241 242 241 240 240 239 239 240 239 238 236 200 229 238 240 238 
239 240 241 246 246 245 245 244 245 245 244 243 207 206 245 245 245 245 246 244 
245 245 244 245 243 244 245 243 243 241 243 242 242 243 243 241 
243 241 242 242 242 243 240 242 239 241 241 241 239 241 241 239 
241 241 241 240 240 241 241 240 241 240 241 240 241 239 238 239 
241 241 240 239 239 228 182 163 168 174 199 237 242 239 190 230 
241 243 241 241 240 241 241 239 241 240 232 189 238 242 240 240 
240 240 242 246 246 244 245 244 244 245 244 245 233 176 247 245 244 244 245 244 
244 244 244 244 243 244 243 243 243 244 245 243 242 242 244 243 
242 242 241 242 242 241 240 240 241 240 240 240 240 242 242 243 
242 243 243 242 240 241 242 241 240 239 240 240 239 240 242 240 
240 242 240 241 243 207 166 225 238 245 227 204 241 240 229 211 
227 239 239 241 241 240 240 241 240 238 219 204 240 240 239 239 
241 239 242 246 245 246 245 244 245 245 244 244 245 166 241 245 244 245 245 246 
246 246 244 242 245 243 243 245 244 244 243 243 242 243 244 243 
243 241 242 241 243 240 240 241 240 240 239 241 240 240 239 240 
242 240 242 241 241 238 239 240 239 240 240 240 241 240 240 241 
241 241 239 241 241 237 222 243 243 242 244 226 210 241 246 223 
191 186 222 241 240 241 240 241 240 238 211 219 241 242 241 241 
240 240 240 246 246 243 246 244 245 244 243 245 244 199 213 245 245 244 245 245 
245 245 245 244 244 244 244 244 245 244 243 242 243 242 243 242 
242 242 241 241 242 240 244 241 239 241 241 240 241 240 242 242 
242 242 242 240 242 242 242 240 241 240 240 241 240 239 239 240 
240 242 242 243 243 245 244 242 242 244 244 220 189 243 242 245 
246 244 243 241 240 241 241 241 241 237 196 234 243 243 243 243 
243 242 242 246 244 246 245 245 246 246 244 246 244 236 171 247 245 245 244 244 
245 247 246 245 244 245 244 245 244 245 244 243 242 241 244 242 
244 245 244 244 246 245 243 245 244 246 244 241 243 244 243 244 
245 244 245 242 244 243 243 243 243 243 243 242 242 241 240 238 
240 243 242 242 242 243 243 243 241 241 242 211 222 241 242 240 
243 243 243 242 242 242 242 239 240 233 186 240 242 244 243 243 
242 244 243 246 246 244 246 245 246 244 245 244 244 247 175 242 246 245 245 246 
245 245 245 245 245 244 246 245 245 244 244 244 242 243 243 228 
209 223 230 223 226 235 227 210 210 196 207 209 211 213 205 204 
189 213 209 209 196 210 201 215 208 202 223 231 234 239 240 242 
185 192 243 242 241 243 244 244 240 241 243 235 237 243 242 242 
243 243 243 243 242 243 244 243 239 215 210 240 243 243 243 243 
242 243 242 246 246 246 245 244 246 247 246 247 247 246 216 198 248 246 245 246 
245 244 244 245 246 245 244 244 244 244 244 243 243 242 177 234 
218 174 151 159 163 140 125 144 166 169 175 173 176 179 192 189 
191 193 193 190 181 187 179 165 154 160 154 157 173 173 175 173 
137 148 244 242 243 243 243 243 243 243 242 242 243 243 243 243 
242 244 245 243 243 242 242 240 240 197 233 243 242 243 243 245 
244 243 243 247 247 245 246 247 246 247 247 245 247 246 247 169 238 245 245 245 
245 246 246 247 246 245 245 244 246 244 244 244 241 237 187 244 
246 244 241 244 232 171 159 157 224 245 243 242 239 239 239 241 
244 244 242 228 219 190 240 245 241 229 197 205 201 225 228 232 
236 192 229 242 243 243 242 243 243 244 244 243 243 243 243 243 
243 243 244 243 242 242 243 244 225 195 242 244 244 244 244 244 
244 243 243 245 245 246 246 246 246 246 247 246 246 247 247 216 210 247 246 245 
246 245 244 246 245 244 243 244 244 244 244 244 243 237 190 243 
244 244 247 234 178 215 242 217 158 222 243 244 243 216 214 238 
239 240 205 184 184 214 239 239 241 233 113 232 236 165 229 242 
245 223 207 244 243 243 245 245 244 245 244 244 242 242 243 242 
243 242 244 245 243 243 243 241 192 225 243 244 245 243 244 245 
242 242 243 246 248 246 245 247 246 246 245 246 246 247 247 247 173 242 246 244 
246 245 245 247 245 246 245 244 244 244 244 244 243 240 192 244 
244 239 224 195 208 244 245 248 236 180 235 196 187 160 172 179 
201 238 197 230 242 245 242 241 241 240 215 237 182 220 240 240 
242 226 196 241 243 244 243 243 242 244 243 243 244 244 244 244 
243 243 243 244 245 244 242 238 193 243 245 245 244 244 243 243 
243 244 243 246 245 247 247 246 246 246 246 246 247 246 246 248 216 197 246 247 
245 247 246 246 245 245 247 245 244 245 244 244 244 244 187 242 
244 244 182 186 239 203 189 244 244 233 194 173 173 159 203 188 
234 241 228 173 171 208 244 239 242 241 242 208 184 243 239 240 
243 236 188 243 242 244 244 244 245 243 244 245 244 245 243 243 
244 242 243 245 244 242 243 213 217 243 245 246 244 245 244 243 
244 243 244 247 247 246 247 247 246 246 247 248 247 247 247 246 246 181 229 245 
245 243 246 245 247 247 247 245 244 244 245 245 245 244 197 237 
243 244 187 188 216 137 146 216 244 228 194 232 192 201 203 182 
242 242 241 197 154 201 163 241 243 242 239 172 230 242 244 244 
242 244 200 238 243 244 243 244 244 245 244 245 243 245 244 245 
244 244 243 243 244 242 235 202 242 244 245 244 244 245 245 245 
245 244 244 247 247 246 246 248 248 247 246 247 247 247 248 248 246 239 188 248 
246 246 246 247 246 247 246 246 245 245 245 247 245 245 215 208 
243 247 215 214 230 138 162 179 197 158 211 182 123 165 167 207 
241 242 243 192 156 171 184 242 241 239 181 209 154 239 244 244 
243 244 213 216 243 245 245 245 244 244 246 246 245 245 245 244 
244 244 244 246 245 244 205 227 243 244 245 245 245 243 244 245 
244 244 244 246 246 247 247 247 247 247 247 247 245 247 248 246 246 247 213 210 
247 247 247 246 246 246 246 245 245 245 246 248 246 245 220 207 
243 235 206 196 228 236 244 201 150 193 243 208 204 227 201 242 
244 243 244 245 233 233 219 241 244 228 185 243 208 241 244 245 
246 244 230 196 244 244 245 244 245 244 245 246 245 246 244 244 
244 245 245 243 242 237 203 244 245 245 245 245 246 245 245 244 
244 245 246 247 247 247 247 247 247 246 247 247 247 248 248 247 246 247 246 165 
225 247 245 245 246 245 245 245 246 245 247 246 246 244 222 209 
248 214 155 225 166 182 200 193 221 245 249 232 242 242 241 248 
246 245 245 246 246 248 214 244 245 245 241 245 248 246 245 248 
248 248 240 175 246 244 244 245 245 244 245 247 245 246 246 245 
245 244 242 243 243 201 228 243 245 245 245 244 245 243 245 244 
245 245 244 247 246 248 248 247 247 247 247 247 247 248 248 249 247 247 248 227 
166 242 246 244 245 246 245 245 245 245 245 245 245 242 211 209 
240 240 213 245 232 172 161 191 204 224 218 227 227 232 237 234 
227 233 241 238 238 233 233 233 215 216 223 216 215 203 198 212 
213 214 206 157 244 246 246 244 245 245 245 244 243 246 245 243 
243 245 244 245 223 206 244 244 245 246 245 246 244 245 243 245 
245 244 245 247 247 247 246 248 248 248 248 248 247 247 247 248 247 246 246 248 
201 185 246 247 245 245 244 245 245 245 245 245 247 247 208 153 
162 160 163 180 174 178 173 186 189 184 180 178 193 191 189 189 
187 191 185 184 185 174 176 183 189 185 181 183 196 194 193 196 
198 196 185 195 242 245 244 244 245 244 244 244 245 244 245 245 
244 244 245 231 195 240 245 245 246 245 245 245 245 246 247 245 
246 245 247 247 247 247 247 248 247 247 248 248 247 248 248 249 248 247 246 246 
248 183 208 249 247 246 246 246 246 246 245 245 246 245 243 218 
231 244 243 246 248 249 247 247 249 249 248 247 249 249 247 247 
246 247 246 247 245 243 243 244 247 245 247 247 243 246 246 244 
244 243 244 247 247 245 244 244 245 243 244 245 244 244 244 244 
244 243 238 192 230 246 246 246 246 245 245 244 245 245 246 245 
246 245 244 247 248 248 247 248 247 248 247 247 247 247 247 246 249 249 248 247 
248 246 181 213 248 246 246 246 245 247 246 245 246 245 245 247 
249 248 250 249 248 248 248 248 248 248 247 246 247 247 247 247 
246 246 246 246 247 246 245 245 244 245 245 245 243 244 245 245 
245 245 245 245 245 245 245 244 243 245 244 244 245 245 244 244 
243 244 203 224 246 246 245 244 246 246 246 244 245 246 245 246 
246 246 246 248 247 247 247 248 247 247 248 248 248 247 248 248 248 248 247 247 
246 247 242 185 225 245 247 246 246 247 247 246 246 245 246 246 
246 248 249 249 248 246 245 246 246 246 246 246 246 245 245 246 
245 245 244 244 245 246 246 245 245 244 244 244 244 245 245 245 
245 245 244 245 245 244 244 245 246 244 243 244 245 245 245 243 
245 211 216 245 246 245 245 246 246 246 246 245 246 246 247 246 
246 245 246 249 248 248 247 247 247 248 247 248 248 248 248 248 247 246 247 248 
246 246 249 237 174 207 250 248 247 246 247 245 247 245 246 246 
246 247 248 247 246 246 246 248 246 246 247 246 246 246 246 246 
246 247 246 246 246 247 247 247 246 245 245 244 244 245 245 246 
245 244 245 244 245 246 245 245 246 245 245 243 244 244 245 246 
231 202 244 246 245 246 246 245 245 246 245 244 245 245 246 247 
246 248 246 249 248 247 249 249 248 247 248 248 248 249 249 248 248 247 247 247 
246 246 245 247 245 183 199 250 248 246 247 246 246 247 245 246 
246 246 247 247 247 247 247 247 247 246 246 246 247 247 246 245 
246 248 247 247 245 248 247 247 247 246 248 246 246 246 245 245 
245 245 247 246 246 246 245 245 246 245 245 246 245 243 245 221 
205 241 246 247 246 246 246 247 246 246 246 246 247 247 246 246 
248 247 248 250 250 251 251 251 252 250 250 248 249 247 249 247 248 247 247 247 
248 248 245 247 248 247 198 190 247 248 248 247 248 247 247 247 
247 247 246 246 245 247 247 247 247 247 247 247 246 247 247 248 
247 247 247 247 247 247 246 247 248 247 247 246 246 246 246 245 
246 246 246 246 247 247 247 246 246 247 248 244 245 244 212 208 
244 247 247 248 247 248 247 247 246 247 247 247 246 245 246 246 
247 246 246 250 250 250 250 251 251 252 250 249 248 250 249 249 248 248 247 247 
248 248 246 246 247 249 250 217 188 239 251 247 248 247 245 246 
247 247 247 247 248 248 246 247 248 246 246 246 247 247 247 246 
247 247 247 248 247 247 246 247 246 246 246 244 245 244 245 247 
246 246 246 246 245 246 247 246 247 245 245 247 243 209 210 245 
247 247 247 249 247 246 247 247 246 246 246 247 247 248 246 246 
247 247 247 251 251 250 250 249 252 251 251 251 251 250 250 249 249 249 248 248 
248 248 247 248 248 249 249 250 232 193 215 247 249 247 247 247 
247 247 247 248 247 246 246 247 246 246 244 245 246 247 248 248 
247 248 247 247 247 247 246 247 246 246 248 248 248 247 246 246 
248 247 247 245 246 245 247 248 247 247 248 240 201 214 243 247 
247 247 247 248 247 247 247 246 248 247 248 247 246 248 247 248 
247 246 246 251 250 250 250 250 251 251 251 251 251 250 250 249 249 249 248 248 
249 248 248 249 249 249 248 248 250 239 193 185 241 249 249 248 
247 246 246 246 246 247 247 247 245 247 246 247 247 247 248 248 
248 248 248 249 249 246 247 247 248 249 248 248 247 246 246 246 
247 247 247 245 245 246 246 247 249 248 227 203 233 248 249 248 
248 248 247 248 246 248 247 248 248 248 247 247 247 248 247 247 
248 246 248 251 250 251 251 250 251 252 251 251 251 250 249 250 250 249 249 249 
249 248 249 248 248 249 249 248 249 249 248 221 178 193 244 250 
249 249 247 247 247 248 246 247 248 247 247 247 248 246 247 248 
247 249 249 247 248 248 247 247 247 248 250 248 249 248 247 247 
248 246 246 246 244 246 247 249 243 220 209 244 250 248 247 247 
248 248 248 248 247 247 248 248 248 247 247 248 249 247 247 249 
249 248 248 250 252 251 251 251 250 250 250 251 251 251 250 250 250 250 249 249 
249 250 249 249 249 249 248 248 249 247 249 250 247 206 182 211 
243 249 249 248 248 248 248 247 247 249 248 248 247 247 248 247 
247 249 247 248 248 248 248 249 248 248 250 249 249 247 247 247 
248 246 246 246 245 247 247 233 209 235 250 249 249 248 248 247 
248 249 248 248 248 249 248 248 248 249 248 249 247 249 247 247 
247 248 248 251 251 250 250 250 251 250 251 251 251 251 251 251 252 251 250 249 
249 248 249 249 249 249 247 249 250 249 249 249 249 251 242 202 
181 212 244 250 249 248 247 248 248 248 246 247 247 248 245 246 
248 249 249 248 248 248 248 248 248 249 250 248 247 249 248 246 
247 246 248 247 247 231 211 229 248 250 250 249 248 248 248 249 
249 248 249 248 248 249 249 248 250 249 248 249 249 248 249 248 
249 249 249 250 250 251 250 250 252 251 250 250 250 251 251 251 251 250 250 249 
250 249 250 250 249 249 249 249 249 250 250 248 249 249 249 251 
241 209 198 212 230 247 249 249 248 249 249 248 247 247 246 246 
246 247 248 248 248 247 247 248 248 248 250 248 249 250 249 248 
249 247 246 227 208 217 242 249 250 248 248 248 248 249 249 249 
249 248 248 248 248 249 248 249 248 249 249 248 249 248 248 249 
248 248 250 250 250 251 251 250 250 250 250 250 250 250 250 250 251 250 250 249 
249 249 250 250 249 249 249 249 249 250 249 249 248 251 249 248 
250 250 244 203 142 167 224 242 249 250 248 249 247 247 247 248 
248 248 248 248 248 248 249 247 247 248 247 250 250 249 251 247 
239 215 190 223 243 246 249 249 249 249 249 248 248 247 248 248 
249 249 249 249 248 249 249 248 248 248 248 249 249 250 248 248 
248 248 248 250 251 251 251 250 250 250 250 251 251 250 249 250 250 250 250 250 
250 250 250 250 250 249 250 251 251 249 248 249 249 250 249 249 
249 250 250 251 245 220 190 176 187 227 245 248 247 249 249 248 
249 250 249 249 249 249 249 250 248 248 247 247 233 216 198 187 
200 223 244 249 248 249 248 248 248 249 249 250 250 250 250 249 
248 250 249 249 249 249 249 249 249 249 249 249 249 250 249 249 
249 248 250 250 250 250 250 251 251 251 251 251 251 250 250 250 250 250 250 250 
249 250 250 250 251 251 250 250 250 251 249 249 249 249 249 250 
250 250 250 251 251 253 254 249 234 217 199 190 192 205 215 217 
224 226 227 223 223 222 225 200 190 184 177 184 197 211 230 245 
250 251 251 250 248 249 249 249 249 249 249 248 250 249 250 248 
248 249 250 249 250 248 249 249 249 248 249 249 249 250 250 250 
248 248 248 249 250 249 249 249 250 250 250 251 250 249 251 250 250 251 251 251 
251 250 250 250 250 250 250 250 250 250 250 249 250 250 250 250 
250 251 250 250 249 250 253 251 252 252 252 249 238 222 215 221 
213 212 207 201 203 209 221 236 229 236 245 249 251 251 252 251 
251 251 250 248 248 249 249 249 249 249 250 248 248 249 250 249 
249 250 249 249 249 250 248 250 250 249 249 250 248 248 249 249 
247 248 249 249 250 250 249 249 250 250 250 251 251 250 249 250 249 250 251 250 
248 250 250 250 251 251 251 249 250 250 250 251 250 251 251 251 
250 251 252 250 250 250 250 251 251 252 253 250 250 251 251 251 
251 251 253 252 252 252 252 251 251 251 250 251 251 250 250 250 
251 252 250 250 249 249 249 250 250 251 249 250 250 250 250 249 
249 249 250 249 248 249 249 249 249 249 249 251 250 248 248 248 
248 248 249 250 248 249 249 248 248 250 250 249 250 250 250 250 249 249 250 250 
250 249 250 250 250 250 250 250 249 250 249 250 250 250 250 251 
250 251 252 250 251 251 251 251 251 250 251 250 248 250 252 251 
249 251 251 250 250 250 251 249 250 249 250 250 249 250 252 250 
251 251 249 249 250 249 249 249 249 249 250 250 250 249 248 249 
250 249 249 250 248 249 249 249 248 249 248 249 249 249 248 248 
248 248 249 248 248 248 249 247 250 250 250 251 250 250 249 250 251 249 249 250 
250 250 250 250 251 250 251 250 250 250 250 250 251 251 250 250 
250 251 251 251 250 250 251 252 252 251 251 251 251 251 251 249 
249 250 249 250 250 250 250 249 250 250 249 250 249 249 250 250 
251 251 249 250 250 250 250 249 248 250 250 249 249 249 249 249 
249 248 248 250 249 249 249 248 247 247 248 248 248 249 249 247 
247 248 248 249 249 248 250 247 249 250 250 250 249 250 251 251 250 251 252 250 
251 250 250 249 249 249 250 249 250 251 251 250 250 251 252 250 
251 251 251 250 250 251 253 253 253 251 251 251 251 249 250 249 
249 249 249 250 250 251 251 250 250 250 250 249 250 250 251 250 
251 251 250 250 250 250 250 249 249 250 250 250 249 250 251 250 
249 249 249 250 248 249 249 249 249 248 248 247 247 247 248 248 
248 248 246 245 248 249 244 246 247 246 245 248 248 248 248 248 246 248 247 248 
250 249 251 248 249 249 248 249 252 250 251 252 253 252 251 252 
253 252 251 251 250 251 253 254 255 254 253 253 254 253 252 250 
251 252 251 252 251 251 251 250 251 251 251 252 251 251 251 250 
251 253 252 251 251 251 251 251 250 251 250 249 248 250 250 251 
250 251 251 250 250 250 250 250 249 250 250 251 249 249 250 249 
248 249 249 