P2
# Created by IrfanView
100 100
255
250 250 249 249 247 246 246 247 248 248 247 247 247 248 247 248 248 
249 250 249 249 248 249 248 249 249 248 249 247 247 248 248 248 
248 248 248 249 249 248 247 247 246 245 246 246 247 247 248 247 
248 248 250 248 249 248 249 249 249 250 250 250 250 250 251 250 
249 249 249 247 245 245 245 247 245 245 246 247 248 248 248 250 
249 250 250 250 250 249 248 248 249 248 247 247 248 247 248 248 
247 248 247 250 249 249 250 248 247 248 246 247 246 248 246 247 248 248 248 248 
249 248 248 249 248 248 248 248 249 248 247 247 246 249 248 247 
247 248 247 247 249 248 247 245 247 246 246 246 245 245 246 247 
248 248 249 248 250 248 247 249 250 248 249 250 250 251 252 250 
249 249 248 248 246 245 245 244 246 247 247 248 247 247 248 249 
248 249 250 249 250 250 249 249 247 248 247 248 247 247 247 248 
247 248 248 249 249 250 249 247 247 247 246 247 247 246 248 248 248 247 247 247 
249 248 249 249 248 248 248 248 249 248 248 248 246 248 248 247 
249 247 246 245 248 248 246 247 247 247 245 247 247 248 248 247 
248 247 248 247 247 249 248 249 249 249 249 249 250 252 250 248 
249 249 248 249 248 245 245 246 246 247 247 248 247 248 248 248 
249 249 249 249 250 251 250 250 249 249 246 248 246 246 247 247 
248 247 248 249 249 249 249 247 246 245 246 247 247 247 246 246 246 246 247 246 
247 249 248 248 247 246 248 247 247 247 246 246 246 248 248 247 
246 247 246 246 247 246 246 246 246 247 247 246 246 245 246 247 
247 247 248 248 249 249 249 251 251 250 250 250 251 252 252 249 
250 251 249 248 247 245 245 246 246 247 247 247 247 248 248 248 
249 249 250 248 249 250 249 249 249 247 246 249 248 248 249 247 
247 248 247 249 249 249 248 247 246 246 246 246 246 247 248 247 247 247 248 249 
247 247 247 247 248 246 248 248 247 246 247 247 247 248 246 246 
245 247 247 247 245 246 246 247 248 247 246 246 248 245 245 246 
247 247 248 248 248 248 247 250 249 249 250 251 250 251 249 249 
249 249 250 249 247 245 246 246 247 244 247 247 247 249 248 249 
249 249 250 249 251 251 250 249 248 247 247 247 250 249 249 247 
248 248 249 248 249 249 248 246 247 245 246 246 247 246 246 246 246 247 247 247 
247 247 248 248 247 247 248 248 247 246 245 247 247 248 247 245 
245 246 247 247 247 248 247 248 248 248 246 247 247 247 247 248 
246 247 246 248 248 249 249 250 249 250 250 249 248 251 250 249 
248 247 249 250 248 247 245 245 246 247 247 245 248 247 248 249 
250 250 250 249 251 250 248 249 250 248 247 247 247 248 249 248 
248 249 248 247 250 248 246 245 246 246 246 245 247 247 247 247 247 249 247 248 
248 248 248 248 247 246 247 247 246 246 247 247 247 247 247 246 
247 246 247 248 248 248 246 246 248 248 248 247 247 247 248 248 
247 248 249 249 250 250 250 250 250 250 250 249 248 250 248 249 
249 249 249 249 246 247 246 247 246 247 248 248 248 247 248 249 
249 250 249 249 249 251 250 249 250 248 247 248 247 249 250 248 
247 249 247 249 249 247 246 248 247 246 246 247 246 247 247 247 247 247 249 247 
248 247 248 247 247 246 247 245 247 245 245 245 247 247 246 245 
246 245 246 248 247 246 246 247 248 250 249 245 244 240 243 243 
242 243 244 245 245 252 251 250 250 250 249 248 249 251 248 249 
248 247 249 247 247 249 247 247 246 248 247 248 248 249 249 249 
250 250 250 250 250 250 251 251 250 249 247 247 248 250 248 247 
247 247 248 249 249 248 249 248 247 246 247 246 246 246 246 247 248 247 247 247 
247 247 247 247 247 247 247 247 247 246 245 244 247 246 244 246 
244 245 245 245 247 247 246 241 229 222 212 208 220 221 223 220 
219 225 219 224 214 214 217 230 234 243 248 248 246 249 248 249 
247 247 248 247 246 248 246 247 244 246 247 247 247 248 249 250 
250 250 249 251 251 250 251 251 250 250 249 246 248 249 249 249 
248 247 249 250 248 248 247 248 247 247 247 247 248 248 247 247 248 247 248 248 
247 247 248 248 248 247 248 248 247 245 245 245 245 244 245 243 
244 245 246 246 244 237 224 221 226 238 245 243 247 249 248 249 
251 249 250 246 246 249 246 244 233 230 232 221 231 239 246 251 
247 247 247 247 248 248 246 246 248 247 245 247 247 249 250 249 
250 250 251 249 250 250 250 249 249 249 250 248 250 249 249 249 
249 248 249 252 248 247 248 246 247 246 248 245 247 247 248 248 248 249 248 248 
248 248 246 248 247 247 246 246 247 246 245 245 243 244 245 243 
244 245 237 224 230 239 248 250 248 248 249 249 247 248 249 250 
249 250 247 247 248 249 250 249 252 250 250 247 237 226 213 229 
246 247 249 246 246 246 245 245 246 246 246 247 245 248 247 248 
249 250 249 250 250 250 250 249 249 249 250 249 247 248 248 249 
249 249 248 250 249 248 248 248 248 247 247 248 248 247 247 247 248 248 249 247 
248 248 249 248 248 248 248 247 245 246 245 245 243 244 246 241 
230 224 231 243 247 246 247 247 248 248 247 248 247 248 248 250 
248 250 246 248 246 246 249 250 249 247 248 249 250 250 240 221 
212 214 242 250 249 246 245 243 246 246 246 246 247 247 248 248 
248 249 249 250 250 250 249 249 248 249 249 250 249 247 248 248 
248 249 249 249 249 249 249 247 248 248 248 247 247 246 248 248 247 248 248 247 
249 248 249 247 247 247 248 246 245 245 247 244 244 243 228 218 
233 244 249 247 246 247 247 246 247 247 249 249 248 249 248 250 
250 248 247 247 247 248 248 249 249 249 249 249 249 249 248 249 
247 231 210 210 237 248 248 245 244 244 246 245 247 248 249 248 
247 248 249 250 252 251 250 250 250 248 249 248 249 248 247 248 
249 249 248 251 250 250 249 248 248 248 246 247 249 246 247 248 249 248 248 248 
249 248 248 247 246 249 247 247 246 246 243 242 230 214 228 245 
247 245 246 247 246 246 247 248 248 249 249 249 249 248 249 249 
250 248 249 248 249 248 247 247 248 248 249 248 249 249 246 248 
248 251 250 242 220 215 234 245 245 244 245 243 245 246 246 249 
247 247 249 249 250 249 249 248 249 249 250 249 249 248 247 247 
248 248 248 249 250 247 250 249 249 246 248 248 247 247 247 246 247 247 248 247 
248 248 247 248 247 246 247 246 246 247 243 217 222 246 249 247 
247 246 245 246 247 247 247 248 247 247 248 248 249 249 249 249 
249 249 248 248 249 249 247 247 247 249 248 249 250 249 248 248 
247 249 250 250 251 245 210 215 241 246 242 242 245 246 246 247 
246 247 249 248 248 249 248 247 247 248 250 248 248 248 247 248 
247 249 248 249 250 250 250 251 248 247 248 248 248 246 247 248 247 247 247 248 
246 248 248 248 248 246 246 246 248 230 212 237 248 246 245 245 
245 246 247 247 247 247 247 248 249 250 249 250 250 250 249 249 
250 249 249 249 250 250 248 249 248 248 248 248 250 249 248 249 
250 249 251 251 247 248 251 236 206 233 245 245 245 245 245 245 
246 246 246 247 246 247 247 248 249 248 249 249 249 247 247 247 
247 248 250 249 250 249 249 249 249 248 248 248 247 247 248 248 248 247 248 246 
247 246 248 246 248 246 247 245 220 213 243 248 246 245 246 246 
246 246 246 247 247 247 249 247 249 249 249 249 249 248 249 251 
250 249 250 250 250 250 251 249 249 249 249 249 248 249 248 248 
249 249 249 250 247 248 250 248 244 218 216 241 246 246 245 245 
246 247 247 246 247 247 246 246 247 247 248 249 248 248 247 247 
247 247 248 249 249 248 250 248 249 249 246 247 247 247 246 247 248 247 247 247 
247 246 248 247 247 249 245 211 221 250 247 245 245 246 245 246 
247 246 246 247 248 248 248 246 248 249 249 249 250 250 250 249 
249 249 250 249 250 250 249 249 249 248 248 249 249 249 249 249 
248 247 248 249 247 248 248 249 246 246 226 201 233 246 246 245 
246 245 246 247 246 248 245 246 248 247 248 247 247 246 246 247 
247 247 249 250 250 250 250 248 249 249 248 247 248 248 248 247 247 246 246 247 
248 246 247 248 247 244 203 234 249 246 246 246 245 245 245 246 
247 248 246 246 247 248 248 246 249 248 249 248 248 249 249 249 
248 251 251 250 249 250 250 250 248 249 248 248 249 250 249 249 
247 246 247 247 247 248 248 247 247 247 250 240 198 225 246 244 
245 245 246 247 248 248 249 248 247 247 246 247 246 246 246 246 
247 247 247 249 249 250 249 247 247 250 247 245 247 247 247 246 249 247 248 248 
246 246 247 248 238 203 233 248 249 247 247 248 245 245 247 247 
247 247 247 246 247 248 246 248 247 248 248 249 250 249 249 251 
249 249 249 250 250 250 250 249 248 249 249 248 248 249 249 248 
248 248 248 247 248 247 247 246 246 246 245 247 247 200 224 244 
243 243 245 246 246 246 247 248 247 246 247 246 247 247 246 246 
247 248 247 250 249 249 249 248 248 247 248 248 247 247 247 247 246 247 248 246 
248 246 246 243 201 238 249 247 247 247 247 246 246 246 247 246 
247 245 247 248 248 247 249 247 248 247 248 247 249 249 249 250 
249 249 249 248 249 249 250 249 250 250 248 249 249 249 249 249 
247 248 248 248 248 246 247 248 247 247 245 245 246 245 198 220 
246 245 244 245 244 247 248 248 247 246 246 246 245 245 245 245 
247 245 247 249 249 248 248 249 248 248 247 247 247 247 247 245 248 248 248 246 
248 248 243 208 241 250 247 247 249 247 246 246 246 247 246 247 
246 247 247 247 247 247 248 248 248 248 248 249 248 248 249 249 
250 249 250 250 250 250 251 250 250 249 250 249 249 249 249 249 
248 248 249 248 248 248 249 248 247 248 246 245 246 247 248 205 
226 246 247 246 245 245 246 246 248 249 247 247 248 247 246 246 
246 246 246 249 250 249 248 248 248 248 247 247 248 248 246 247 248 248 247 246 
248 245 211 232 250 246 247 248 247 247 245 245 246 244 245 246 
247 246 248 248 248 248 246 248 248 248 248 249 248 251 249 249 
249 250 250 249 250 251 252 251 250 249 250 249 249 249 250 249 
249 247 249 249 248 248 247 247 249 249 248 246 245 245 245 243 
196 219 246 245 244 246 243 245 248 247 247 247 247 246 245 246 
245 246 247 250 250 250 249 247 248 247 248 247 248 248 247 247 247 247 246 247 
246 215 236 251 247 247 249 247 247 247 247 249 246 246 245 247 
246 245 247 248 246 248 248 248 248 248 248 248 248 249 249 250 
249 250 248 251 250 251 251 250 250 250 250 250 250 250 250 249 
250 250 250 250 248 248 248 247 249 250 246 246 244 245 245 244 
243 186 217 248 244 246 246 246 245 247 246 246 246 247 246 245 
246 246 246 250 250 251 250 248 248 247 248 248 247 246 246 246 245 247 248 247 
219 225 251 248 248 248 248 247 248 247 247 247 246 247 247 246 
247 246 246 248 248 247 248 249 247 248 249 249 249 249 249 250 
249 249 249 250 250 251 250 249 249 249 250 250 249 249 250 249 
249 250 249 249 249 249 249 249 249 249 248 246 246 245 247 246 
247 240 188 238 246 244 245 246 247 247 247 247 247 245 247 247 
247 245 246 250 251 250 249 249 249 248 248 249 247 245 243 245 244 247 246 225 
222 250 247 247 248 248 248 248 248 248 248 248 246 247 246 247 
247 247 246 248 248 248 248 247 248 248 248 249 249 249 250 250 
249 250 251 250 250 250 250 250 250 250 250 250 249 250 250 250 
249 250 249 250 249 250 250 249 249 248 249 246 245 245 247 244 
246 247 225 196 243 246 246 246 247 248 247 246 247 247 247 247 
247 248 248 250 251 250 249 248 249 248 246 248 248 247 246 245 246 246 221 197 
250 247 247 247 248 248 248 248 247 247 248 248 246 247 246 248 
247 246 247 246 246 248 247 248 248 247 248 248 249 249 249 249 
249 248 250 250 250 250 250 249 249 249 250 249 249 250 250 250 
250 250 250 251 250 251 248 249 249 248 248 247 246 246 246 246 
246 245 246 205 209 247 247 247 247 247 246 246 246 248 246 248 
247 247 246 249 250 250 249 249 251 247 248 247 247 246 245 248 247 224 191 240 
250 248 248 249 248 248 248 246 247 248 247 246 246 246 247 247 
247 248 246 247 249 246 247 248 247 248 247 248 248 249 250 249 
250 250 251 250 249 250 249 250 250 250 250 248 251 249 250 250 
249 249 250 249 248 249 249 249 249 248 248 248 246 247 246 246 
245 244 244 246 180 236 248 248 246 246 246 245 247 247 248 247 
247 246 246 248 249 249 250 248 250 248 249 249 248 247 247 247 222 190 242 249 
248 249 249 248 248 248 247 247 246 246 248 247 247 246 247 246 
247 247 248 248 247 247 248 247 247 246 248 249 248 248 250 249 
248 249 250 251 250 250 251 252 250 250 249 250 250 249 250 249 
249 249 249 249 249 248 250 249 249 250 249 248 247 247 247 245 
242 242 245 246 227 186 246 246 245 247 246 245 246 246 245 247 
246 247 244 248 250 248 248 248 249 248 249 249 247 247 246 199 165 229 250 248 
248 248 249 250 249 247 248 248 247 245 246 247 248 247 247 247 
247 246 248 248 248 248 248 248 247 248 247 247 247 247 248 249 
249 250 250 249 250 250 249 250 250 250 249 250 250 250 249 249 
249 248 248 249 248 249 249 248 251 250 249 248 248 247 246 244 
245 245 244 246 250 197 231 247 246 247 246 245 245 246 246 245 
243 245 246 248 250 249 249 248 249 249 249 249 247 246 223 152 218 246 248 248 
249 248 248 248 248 247 248 247 246 247 248 248 248 248 247 246 
247 248 247 247 247 247 248 249 248 248 249 249 249 249 249 249 
249 249 248 249 250 250 250 250 251 249 249 249 249 250 249 249 
250 249 248 250 249 248 248 249 250 251 250 251 249 248 248 246 
247 246 244 245 247 242 192 245 246 246 246 246 245 246 246 245 
246 244 246 249 249 248 248 249 248 248 248 249 247 244 179 202 247 249 248 249 
249 248 248 248 248 246 247 248 246 246 248 248 247 249 247 246 
247 247 247 247 248 247 248 248 248 248 249 249 249 249 249 249 
247 249 249 250 250 250 250 251 251 251 250 250 250 250 249 249 
248 247 249 248 249 249 249 250 249 250 250 251 248 248 248 248 
246 245 244 245 246 248 210 212 246 246 247 247 247 246 245 244 
245 247 247 250 249 247 247 249 248 248 247 248 248 212 185 242 249 249 249 249 
249 247 248 249 248 247 248 247 248 247 248 249 248 248 247 246 
248 247 247 247 248 247 248 247 248 248 248 248 248 248 249 249 
249 250 248 249 249 250 250 251 250 250 250 249 250 251 250 250 
249 247 248 249 248 250 249 249 249 251 249 250 251 250 247 247 
245 243 246 246 246 247 246 182 245 245 246 246 246 246 245 245 
246 245 245 249 249 248 249 248 247 248 247 249 249 175 217 250 247 248 249 249 
247 248 248 249 248 248 248 247 248 248 247 248 247 247 246 247 
247 248 248 246 249 247 248 248 248 248 248 250 249 249 249 249 
248 249 248 250 248 249 250 249 250 251 249 250 249 249 250 250 
248 248 249 251 250 244 214 226 249 249 250 250 250 250 247 247 
246 244 245 244 246 245 247 201 227 247 247 246 248 246 244 244 
244 247 246 248 248 249 250 248 248 247 248 249 225 179 246 248 249 248 248 249 
249 249 249 249 248 247 245 239 244 246 248 247 248 246 247 247 
247 247 247 248 249 247 248 248 248 249 248 248 249 248 249 248 
249 249 248 250 249 250 250 250 250 251 250 250 249 250 250 249 
249 248 250 249 221 190 209 241 249 249 250 250 250 249 249 248 
246 244 245 247 245 247 247 238 194 248 247 247 246 246 247 245 
244 247 246 249 247 248 248 248 248 248 247 248 199 212 250 249 248 248 248 248 
248 248 249 249 248 248 247 222 216 228 242 247 249 248 247 247 
246 247 247 248 248 248 248 249 248 249 248 249 249 247 249 249 
248 248 249 248 250 249 250 251 251 251 249 249 249 249 249 250 
250 247 239 200 212 246 253 251 249 249 249 250 250 249 250 248 
247 246 246 246 246 247 245 249 193 238 246 246 246 246 245 246 
245 245 246 248 249 247 248 247 247 247 246 243 186 241 250 248 249 249 248 249 
249 248 247 249 248 249 249 248 245 229 216 227 234 243 244 247 
248 249 249 248 248 248 248 247 249 248 248 249 250 249 249 248 
248 249 249 249 249 249 250 249 251 251 248 247 247 248 252 251 
240 208 196 237 252 251 249 249 250 250 249 250 249 248 250 250 
248 247 247 246 245 246 245 247 222 208 246 246 246 246 247 247 
246 246 247 249 248 248 249 248 247 248 248 214 193 250 249 249 249 249 249 249 
249 249 249 249 249 250 250 248 249 250 248 237 224 210 212 234 
242 246 249 250 249 249 248 248 249 250 249 250 250 249 249 249 
248 248 249 249 249 249 248 247 248 250 247 249 250 250 243 212 
179 187 249 252 250 249 249 248 249 250 250 250 251 249 249 249 
249 247 246 247 247 247 246 248 248 183 244 245 245 246 247 247 
247 247 247 250 247 247 249 249 248 247 247 221 222 250 249 249 247 250 249 248 
249 249 250 249 249 249 249 248 248 249 247 249 249 243 222 198 
184 204 232 245 247 248 249 249 249 248 250 250 251 250 250 249 
249 249 249 249 248 250 250 249 250 247 248 247 229 208 162 165 
181 175 249 250 250 250 250 250 250 250 249 250 251 250 250 251 
248 247 245 246 247 246 246 247 250 200 231 247 247 247 246 246 
248 247 246 251 250 249 249 249 249 249 247 218 233 249 249 248 250 250 249 250 
249 248 249 250 249 249 249 248 248 248 249 248 248 248 243 200 
140 161 178 206 223 239 247 249 250 250 251 250 250 250 250 251 
248 248 249 249 249 249 249 250 250 251 247 197 142 137 146 156 
159 201 249 250 251 250 249 250 251 250 250 250 251 249 249 249 
249 248 247 246 247 245 245 247 247 226 188 246 246 246 246 246 
248 249 246 249 249 249 250 249 249 249 246 206 245 250 249 250 249 251 250 249 
249 250 250 250 248 248 249 249 247 248 248 248 248 249 247 172 
144 178 170 174 185 193 216 238 248 250 250 251 251 250 249 248 
249 249 251 249 250 248 249 251 251 245 194 141 144 139 154 157 
162 222 249 250 250 250 250 250 250 250 250 249 249 250 250 250 
248 248 247 246 245 246 246 246 247 246 178 248 246 245 247 246 
248 247 248 249 249 249 248 248 249 249 248 213 251 249 250 248 250 250 250 250 
250 250 249 249 250 249 248 248 249 250 250 248 248 251 246 160 
154 165 169 168 177 184 181 184 237 250 251 251 250 249 249 249 
249 249 249 249 251 249 249 251 239 177 141 142 144 148 158 153 
165 214 250 250 251 249 251 250 250 249 250 250 249 249 250 249 
249 248 249 246 245 248 246 247 246 247 180 229 246 246 246 246 
247 247 246 248 249 249 250 249 248 248 241 212 251 249 249 249 250 250 251 250 
250 250 250 249 249 249 249 249 249 250 250 249 248 250 250 188 
162 164 158 167 183 189 190 178 240 250 250 250 250 250 249 249 
249 249 249 250 250 249 248 250 229 169 146 143 143 148 158 153 
167 214 250 251 251 250 249 249 249 249 250 250 251 250 250 249 
251 251 249 248 246 247 246 247 248 249 208 205 244 246 244 245 
247 247 246 249 249 249 249 250 248 248 232 214 251 251 250 250 251 250 251 249 
250 250 250 250 249 250 249 249 248 249 249 248 249 250 249 221 
163 157 168 184 193 194 187 203 252 250 250 250 251 249 250 249 
249 249 249 250 250 250 250 250 251 179 146 144 140 151 166 173 
192 237 251 250 251 251 249 250 249 250 250 250 251 250 249 250 
249 250 249 248 248 245 246 246 246 247 223 201 248 246 245 246 
247 247 246 250 251 249 249 248 249 248 228 224 251 250 248 250 250 251 251 251 
250 250 250 249 250 249 249 251 250 249 248 248 249 250 251 248 
206 172 172 192 191 192 189 240 251 249 249 250 250 249 248 249 
250 250 250 251 251 249 250 253 252 209 165 161 154 155 169 189 
227 251 250 250 251 251 250 250 250 250 250 251 252 251 250 251 
250 250 251 250 250 247 245 247 247 247 238 182 243 246 246 245 
246 248 248 250 250 248 249 249 250 249 217 238 250 251 251 251 251 250 251 251 
251 251 250 250 250 250 250 250 250 251 250 250 251 251 250 251 
243 195 188 188 192 187 226 253 251 251 250 250 249 250 249 249 
249 248 250 250 250 250 250 252 251 240 176 175 166 184 188 217 
251 251 250 250 250 251 251 251 249 250 250 249 250 251 250 250 
251 252 252 252 249 247 246 247 247 246 248 179 246 246 246 246 
247 247 249 251 249 250 251 251 251 247 213 242 250 249 249 250 252 250 251 251 
251 251 251 251 250 251 251 249 249 250 250 248 248 250 250 249 
251 243 202 190 192 213 252 251 251 250 250 250 250 250 250 251 
250 250 250 250 250 250 250 252 252 250 212 196 182 207 209 247 
251 250 251 250 251 250 252 251 251 251 250 251 251 251 251 250 
251 251 252 253 251 247 244 245 246 248 249 170 239 247 246 246 
247 246 248 249 250 250 251 251 250 249 211 247 250 251 249 250 251 251 251 251 
250 252 252 251 251 252 250 250 249 251 251 251 251 251 250 249 
251 252 245 216 235 252 252 251 250 250 250 250 249 250 249 250 
251 250 250 250 251 250 250 249 252 251 248 228 225 221 227 250 
249 250 249 251 251 250 251 251 251 251 251 250 251 252 252 251 
252 252 252 253 252 248 246 245 247 248 250 173 237 247 247 246 
247 247 246 251 250 250 249 249 250 249 214 246 250 251 251 251 251 251 251 251 
250 251 252 251 251 252 251 251 251 251 251 251 251 249 251 250 
251 252 253 254 253 251 250 250 250 250 250 250 250 251 251 250 
249 249 251 250 250 250 251 251 251 252 252 253 253 253 254 250 
250 250 250 250 251 251 251 252 251 251 250 251 252 252 252 251 
251 252 251 252 251 249 244 246 246 246 248 183 224 247 247 248 
247 247 246 250 250 250 250 252 250 249 212 247 251 251 250 251 251 251 251 251 
252 251 252 252 251 252 251 250 252 251 251 251 252 250 251 251 
251 251 250 251 251 250 251 250 249 250 250 251 251 251 249 250 
249 250 250 250 251 251 251 250 250 251 250 252 252 252 252 250 
250 250 250 251 250 250 249 252 251 250 252 251 251 252 251 252 
252 251 253 251 250 251 248 246 244 246 247 221 213 246 248 248 
246 246 247 250 250 251 251 251 250 249 217 250 251 250 251 252 251 251 252 251 
251 252 252 252 252 253 252 251 253 251 251 251 251 250 250 250 
250 250 251 249 250 250 250 250 250 250 250 251 251 250 250 250 
250 250 250 250 250 250 250 250 250 250 250 250 251 250 250 250 
250 249 250 250 251 251 250 251 251 251 251 251 251 251 251 251 
252 251 252 252 251 251 249 245 247 247 248 220 211 247 248 248 
248 248 248 250 250 250 250 250 250 250 214 246 251 250 251 251 251 251 252 253 
252 251 252 252 252 252 251 252 251 250 250 250 250 250 250 250 
250 250 252 249 250 249 250 250 250 251 250 250 249 250 250 249 
250 250 250 251 250 250 250 250 250 250 251 251 250 250 249 250 
251 250 250 249 249 250 251 251 251 251 251 250 250 251 251 251 
251 252 251 253 253 250 250 247 246 247 247 205 208 248 246 247 
248 248 247 248 250 250 251 250 252 250 224 246 250 249 251 252 251 250 253 252 
252 252 252 253 252 252 252 251 251 251 250 250 250 250 251 250 
251 250 248 250 250 249 250 249 250 249 250 249 250 250 250 249 
250 249 250 250 251 250 250 249 251 251 251 251 250 251 251 250 
250 250 250 250 251 250 249 251 251 251 251 250 250 250 250 250 
250 250 251 252 251 250 250 248 250 246 248 192 206 247 247 248 
249 247 248 250 250 250 249 251 249 249 218 244 250 251 251 252 252 252 252 252 
252 251 252 253 253 253 251 253 252 251 251 251 251 250 251 250 
250 250 250 249 250 250 251 251 251 250 250 251 250 250 250 250 
250 250 250 250 252 251 251 250 250 250 250 250 250 250 250 251 
250 250 251 250 250 250 249 250 250 250 252 251 251 251 249 250 
250 249 250 249 249 247 251 249 249 248 247 194 210 248 247 249 
249 248 248 250 249 249 250 250 251 250 221 233 251 251 250 251 251 253 252 253 
252 253 253 252 253 252 251 250 250 251 251 252 251 251 252 251 
252 251 250 250 250 250 250 251 252 250 251 252 252 251 250 251 
250 251 251 251 251 251 251 251 250 250 250 249 250 250 249 250 
249 249 249 251 250 250 250 250 250 250 250 248 248 249 250 250 
251 249 249 250 249 251 250 249 249 249 248 191 207 248 248 249 
248 249 248 250 249 248 249 250 249 249 230 225 249 249 251 252 252 252 251 252 
251 252 252 251 252 252 252 251 251 251 251 250 250 250 250 250 
250 251 250 250 250 250 250 250 250 250 250 250 252 252 251 250 
250 250 250 251 251 252 252 251 250 250 250 250 250 250 250 250 
250 250 251 251 250 249 250 250 250 250 250 250 250 250 250 250 
251 250 250 250 250 250 250 251 248 249 250 188 220 248 247 249 
249 249 248 249 249 248 248 249 249 249 239 218 250 250 251 251 252 250 252 252 
252 252 252 252 252 252 252 252 250 251 251 252 250 250 250 250 
250 250 250 250 250 249 250 251 250 251 251 250 252 252 250 250 
251 251 251 251 251 251 249 251 251 251 251 250 250 250 249 249 
249 250 251 250 250 251 250 250 250 249 250 250 251 250 251 251 
251 250 249 251 250 252 252 251 249 250 248 182 225 248 249 249 
249 250 246 249 247 248 249 246 248 247 243 210 248 249 250 251 251 251 252 251 
251 252 251 252 252 252 251 251 250 252 252 251 250 250 251 250 
251 250 250 250 250 251 252 251 251 250 251 250 251 251 251 250 
251 251 251 250 251 250 250 250 251 251 251 250 251 250 250 250 
250 251 250 250 251 251 249 250 250 250 251 250 250 250 250 249 
251 251 250 251 250 252 252 251 250 252 251 169 232 249 249 249 
249 250 249 248 249 249 249 249 248 247 243 204 246 248 251 252 252 251 251 252 
252 252 251 252 251 252 250 249 251 251 252 252 250 250 251 250 
250 250 251 251 251 251 250 250 252 251 251 250 251 252 251 252 
252 250 250 251 251 251 251 251 250 249 250 251 252 250 250 250 
250 250 251 251 249 250 250 251 250 250 251 251 251 250 249 249 
251 250 250 251 250 251 251 251 251 249 249 163 245 249 251 250 
249 248 248 250 248 248 248 247 248 248 249 209 244 250 250 251 251 251 252 252 
252 252 252 252 251 251 252 251 252 251 250 249 251 251 250 250 
250 251 251 251 251 251 251 251 252 251 251 251 251 251 251 251 
251 251 250 251 251 251 251 251 251 251 249 250 251 250 251 251 
251 250 250 251 250 250 252 251 250 250 250 250 251 248 251 249 
249 250 250 250 250 252 251 252 251 250 241 173 250 250 250 249 
248 247 248 248 249 249 249 248 248 249 249 219 232 249 249 249 251 251 251 251 
251 252 253 252 251 251 252 252 250 251 250 251 252 251 251 250 
250 250 250 250 251 252 252 251 250 251 250 251 251 251 251 251 
250 250 251 251 251 251 250 251 251 252 251 251 251 251 251 252 
251 251 251 250 252 251 249 250 250 249 250 250 250 251 250 250 
251 251 251 251 251 251 250 250 251 251 232 192 252 251 251 250 
249 249 250 248 249 248 249 249 249 248 249 241 219 249 249 250 250 250 251 251 
251 251 253 253 252 250 251 251 251 251 251 250 252 251 250 250 
251 252 251 252 251 250 251 253 253 251 251 251 251 250 250 252 
250 250 250 251 251 250 251 250 251 251 251 250 251 252 251 251 
252 250 250 251 250 250 251 251 250 249 251 250 250 249 250 249 
251 251 251 250 251 251 252 253 252 251 206 205 252 252 251 251 
250 250 250 249 249 249 249 249 249 248 247 250 212 247 249 249 249 251 251 252 
251 251 251 251 251 251 252 251 252 252 251 251 251 251 250 252 
251 252 250 251 251 250 251 252 252 252 252 253 251 251 251 252 
250 250 250 250 250 251 252 252 251 251 251 251 250 250 252 251 
252 251 251 251 250 250 249 249 250 251 251 250 250 250 251 250 
251 251 252 252 251 251 250 252 252 252 186 220 252 251 251 252 
250 250 250 250 248 249 249 249 250 250 250 251 222 240 249 251 249 251 252 251 
252 251 251 251 251 252 252 252 251 250 250 251 252 251 252 250 
251 251 251 250 251 251 251 252 251 252 251 253 254 252 250 252 
251 251 251 250 252 251 251 252 252 252 252 252 249 250 251 252 
251 251 251 251 251 251 250 250 252 250 250 250 250 251 251 249 
250 251 250 250 250 251 251 252 252 251 172 240 252 251 251 252 
251 250 249 250 251 249 250 251 251 250 248 250 233 224 248 251 251 251 251 252 
252 251 252 251 252 253 251 251 252 252 252 251 250 251 251 251 
251 251 251 251 251 251 251 252 252 253 252 250 251 251 249 250 
251 252 251 251 252 251 251 251 252 251 252 250 250 249 250 251 
251 250 251 250 251 251 250 251 251 251 250 251 251 253 251 251 
251 252 251 251 251 251 250 252 251 237 185 252 251 252 252 252 
252 251 250 249 250 250 249 250 250 249 249 249 249 214 247 250 251 251 251 251 
252 251 251 252 251 253 252 252 252 251 252 251 251 251 251 250 
251 251 251 251 251 251 252 252 250 252 251 250 250 249 250 250 
250 250 250 250 250 251 251 252 253 252 251 251 250 250 250 251 
251 250 251 251 251 252 251 250 250 250 250 252 251 251 251 250 
250 251 251 251 250 250 251 251 253 201 209 252 252 252 252 252 
251 250 250 250 249 250 250 250 248 250 251 250 251 230 238 251 250 252 252 251 
252 251 251 252 252 252 252 253 252 251 251 252 252 252 252 250 
250 251 251 250 251 252 251 251 250 251 250 251 249 250 249 250 
251 251 250 250 251 251 251 252 253 253 251 251 250 250 251 250 
250 251 251 251 250 251 251 250 250 250 250 251 251 250 250 250 
250 250 252 252 250 250 250 252 252 169 237 251 252 254 253 253 
251 251 250 250 250 250 250 250 251 251 251 250 250 247 224 250 252 251 251 251 
251 252 252 251 252 252 252 252 252 252 252 253 254 251 252 252 
251 250 251 251 251 251 250 252 252 253 251 252 251 251 252 252 
251 252 251 251 251 251 251 251 251 252 252 251 251 249 247 249 
249 250 250 250 250 250 251 251 251 251 250 250 250 250 250 250 
251 251 251 251 251 252 253 252 233 176 252 251 251 253 253 253 
252 252 252 251 250 250 250 250 250 250 250 251 252 251 229 239 252 251 252 251 
252 252 253 252 253 252 251 251 252 252 253 253 253 254 252 251 
252 247 249 250 252 251 252 251 251 248 250 251 250 247 246 251 
249 248 251 251 252 253 251 251 251 251 251 252 251 250 249 249 
250 250 250 250 248 250 250 251 251 250 250 250 251 250 250 251 
250 250 251 252 252 254 252 252 190 207 254 251 251 251 253 253 
251 251 252 251 251 251 251 251 250 250 252 251 252 253 249 220 251 251 251 252 
252 252 252 252 252 253 253 253 252 252 252 253 253 252 252 253 
251 251 251 251 244 242 233 205 223 211 215 214 212 212 211 215 
217 209 218 227 228 228 227 244 244 249 251 251 251 251 251 251 
251 251 250 251 250 250 250 249 251 250 250 250 250 250 249 250 
251 251 251 251 252 252 253 243 163 244 251 251 251 251 251 252 
251 251 251 250 251 251 251 250 250 251 251 252 253 253 254 236 236 251 251 251 
251 253 251 252 252 251 250 251 252 252 253 253 253 253 252 253 
253 244 232 214 202 213 225 240 238 243 243 247 248 246 245 241 
243 241 238 240 236 236 226 224 218 225 218 229 231 236 242 248 
251 252 252 250 250 249 250 250 251 251 251 252 251 250 250 250 
250 251 249 251 251 250 251 209 188 252 251 251 251 250 251 253 
250 252 251 250 250 250 251 250 250 252 252 251 253 252 254 252 224 248 251 251 
252 252 252 253 253 252 252 252 252 252 253 253 253 252 253 249 
220 212 223 244 252 254 253 253 253 253 252 253 252 253 252 250 
253 253 252 252 253 252 254 253 251 248 243 234 223 217 216 222 
228 233 245 250 250 250 250 249 250 250 251 252 250 250 251 250 
251 251 252 252 250 250 249 169 235 251 251 251 251 251 252 253 
251 251 251 250 251 251 251 250 250 251 252 251 250 250 251 251 240 233 251 251 
252 252 252 253 252 252 252 252 252 252 252 253 253 251 240 205 
231 251 253 251 252 252 251 252 252 251 251 252 252 252 251 251 
252 252 251 252 251 250 251 252 253 254 254 254 252 250 247 239 
228 220 205 222 245 251 251 251 250 250 250 251 250 250 249 250 
250 250 251 250 250 252 204 190 252 251 251 250 250 251 251 252 
250 252 251 251 250 251 251 251 252 250 251 250 250 250 251 252 251 228 241 252 
251 251 251 252 253 253 252 253 252 252 252 252 252 239 217 247 
254 252 251 251 252 252 252 252 251 251 252 252 253 251 253 251 
251 250 252 252 251 250 251 250 252 253 250 249 250 251 251 251 
253 252 244 222 227 247 250 250 251 251 250 251 251 251 250 250 
250 249 251 250 251 244 154 237 252 250 251 250 252 251 251 251 
251 252 251 251 251 251 249 251 251 252 252 251 251 252 251 253 253 249 235 250 
251 252 252 252 254 254 253 252 252 252 252 252 253 248 249 254 
252 252 251 252 252 252 253 251 251 252 251 252 252 251 252 252 
251 252 251 252 250 251 251 251 251 252 252 250 250 250 250 250 
252 252 253 250 226 247 250 251 251 251 251 250 252 252 251 251 
249 250 252 251 251 196 196 253 252 252 250 250 251 251 251 251 
250 252 252 251 250 252 251 252 251 250 250 251 251 251 251 253 253 253 246 235 
252 250 251 252 253 252 253 253 251 252 252 252 251 251 252 252 
251 251 252 252 252 252 252 252 253 252 252 252 251 252 252 252 
251 252 253 252 252 252 252 252 251 251 252 250 250 251 251 250 
250 251 253 253 252 252 252 251 251 250 251 250 250 250 251 251 
250 250 250 252 232 163 243 251 251 251 250 251 251 250 251 251 
252 252 252 252 251 251 251 251 251 252 252 251 251 252 252 251 252 252 252 246 
248 252 251 252 253 251 253 251 251 251 250 252 252 251 253 251 
251 251 252 252 252 252 253 253 254 254 252 252 252 253 253 253 
253 253 252 252 251 251 253 252 251 252 252 250 249 250 251 251 
252 251 251 252 251 250 251 250 250 249 251 251 251 250 251 251 
251 250 251 248 170 219 253 253 252 251 251 250 252 252 251 253 
251 251 252 251 251 251 251 252 251 250 251 251 251 252 251 251 252 252 252 251 
244 250 253 252 252 252 252 252 251 253 253 252 252 251 249 252 
252 252 252 252 253 253 253 252 254 254 254 254 253 253 253 253 
252 253 252 253 252 251 251 253 252 250 250 251 251 251 250 252 
252 253 253 253 253 250 249 249 250 251 251 250 251 251 251 251 
250 252 252 190 184 251 251 251 250 251 250 250 251 251 250 250 
251 251 251 251 251 251 251 252 252 252 252 251 252 251 251 251 251 251 251 251 
252 239 246 252 251 251 252 252 252 252 250 252 251 252 253 253 
252 253 254 253 253 253 253 252 252 253 254 254 254 252 254 252 
253 253 252 252 252 251 252 251 253 253 252 252 251 251 252 251 
252 253 253 253 253 252 252 251 252 251 253 251 251 252 252 252 
252 253 218 179 243 252 252 252 250 252 252 252 251 251 252 252 
252 253 252 251 251 251 251 252 252 252 251 251 251 252 252 252 251 250 249 249 
250 245 228 241 249 250 251 251 251 252 251 253 252 252 252 253 
253 253 253 253 254 253 253 253 254 254 254 254 254 254 253 252 
253 252 252 252 251 253 251 252 252 252 251 252 252 252 253 253 
254 253 253 254 254 254 252 253 253 251 253 252 251 252 251 252 
253 235 163 237 254 252 252 252 250 252 252 251 251 251 252 251 
251 251 253 251 251 251 250 251 251 251 252 252 252 253 251 250 250 249 250 251 
251 251 245 226 245 250 250 251 252 252 253 253 252 252 253 252 
253 251 252 254 252 254 253 252 254 254 254 254 255 254 255 253 
253 252 253 252 252 252 252 252 253 252 252 252 252 252 252 252 
253 254 254 254 254 253 253 253 254 252 252 252 252 252 253 254 
233 180 209 254 252 252 252 251 253 250 252 252 251 251 252 252 
252 252 253 251 250 251 250 251 252 252 251 252 252 252 252 251 251 250 250 252 
249 250 252 245 230 248 250 252 252 252 252 252 253 253 252 253 
254 253 253 254 253 253 253 254 254 254 253 253 253 255 254 253 
254 254 253 252 252 251 253 253 252 252 253 253 252 252 252 252 
253 253 254 253 253 253 253 253 255 252 252 252 252 252 254 234 
176 200 252 254 251 253 252 252 252 253 253 251 253 251 253 251 
252 253 253 250 251 250 249 250 252 251 251 251 251 252 252 251 251 251 250 252 
249 250 250 251 244 223 246 251 252 252 252 253 253 253 252 253 
254 252 254 254 254 253 253 253 252 252 253 253 254 254 254 254 
254 254 254 253 253 252 252 253 253 253 253 254 253 252 252 253 
254 254 253 252 254 254 254 254 254 252 253 253 252 253 232 170 
210 249 253 253 252 252 251 251 251 253 253 252 253 253 253 253 
253 254 253 251 251 251 250 249 251 251 251 252 252 251 252 253 251 251 251 252 
249 249 250 250 252 242 227 247 253 252 251 253 252 252 253 253 
253 253 254 253 253 252 252 253 253 254 254 253 250 253 254 255 
254 254 254 253 253 253 252 253 253 252 254 253 253 251 253 252 
252 253 252 253 252 253 254 254 254 252 252 253 254 222 169 205 
251 255 254 254 254 254 252 253 252 251 252 252 253 252 252 253 
253 254 253 250 251 251 249 250 251 251 251 252 251 251 252 252 252 251 250 252 
250 251 250 250 251 251 248 232 242 250 252 252 252 253 253 253 
253 253 252 253 253 253 253 254 254 253 254 254 253 253 253 254 
254 254 254 253 252 253 253 254 252 253 253 253 254 252 253 252 
253 252 253 253 252 253 253 254 254 253 254 252 213 167 209 253 
254 254 254 254 254 253 252 253 253 253 252 252 251 250 253 254 
254 254 254 250 251 250 250 250 250 250 251 251 252 252 251 251 251 252 252 253 
251 250 250 251 251 250 250 251 238 232 249 252 251 252 253 253 
253 253 254 254 253 253 253 254 254 252 253 252 254 254 254 255 
255 254 254 254 251 253 251 252 253 254 254 255 254 253 253 253 
253 253 253 254 253 253 253 254 254 254 250 208 185 227 253 254 
252 254 254 253 253 253 254 253 253 253 254 252 252 254 254 253 
254 254 254 251 250 250 250 250 249 250 250 250 252 252 252 252 252 252 251 251 
251 251 251 251 251 251 250 252 252 243 232 238 249 252 253 253 
253 254 253 252 253 253 254 254 254 254 253 253 253 254 254 254 
253 253 253 252 253 253 253 253 253 253 254 254 253 253 253 253 
253 252 253 253 253 253 254 255 250 226 197 201 233 254 255 252 
254 254 254 254 254 254 253 253 254 252 253 253 253 253 253 253 
254 254 254 250 251 250 250 250 250 252 251 250 252 252 252 252 251 251 251 251 
253 252 251 251 252 251 251 252 252 252 253 238 231 240 252 253 
254 253 253 253 253 252 253 254 254 254 254 253 253 253 253 254 
253 253 253 254 253 253 253 254 253 254 254 254 253 253 253 253 
252 251 252 253 254 254 254 239 189 205 243 252 255 255 255 255 
255 254 254 254 254 252 254 254 254 254 254 254 254 253 254 254 
254 254 255 250 251 250 250 250 250 252 250 250 251 251 252 253 252 252 253 252 
253 252 252 252 252 251 251 252 252 252 253 254 249 229 230 249 
253 253 253 253 253 254 254 254 254 253 253 254 254 254 254 254 
254 253 254 254 253 253 253 253 253 253 253 254 253 254 253 253 
252 253 253 255 254 246 216 199 235 253 254 255 255 255 255 255 
255 255 255 255 254 254 254 254 254 254 254 253 254 254 255 254 
255 255 254 251 251 250 250 251 251 250 250 250 251 251 252 252 253 253 253 253 
254 253 253 252 253 252 252 252 252 252 253 253 254 254 247 230 
227 244 251 251 253 254 254 254 252 254 254 254 253 254 254 254 
253 254 254 254 254 253 254 254 252 253 254 254 254 254 253 254 
254 254 254 247 211 205 228 251 255 255 255 255 255 255 255 255 
255 254 255 254 254 254 254 254 254 255 254 254 255 255 255 255 
255 255 255 251 250 251 251 250 251 250 250 251 251 251 252 254 252 253 252 252 
253 253 253 252 252 253 252 253 253 253 253 253 254 254 253 253 
244 237 228 233 245 251 254 254 254 254 254 254 254 254 254 254 
253 254 253 253 254 255 254 255 254 254 254 254 254 254 254 253 
247 231 208 205 230 251 255 255 255 255 255 255 255 255 255 255 
255 253 255 255 255 254 254 254 255 255 255 255 255 255 255 255 
255 255 255 252 252 251 251 250 250 250 249 250 250 250 252 252 253 252 252 253 
253 253 254 252 252 253 253 253 253 253 253 254 254 254 254 254 
254 254 252 242 226 220 233 244 250 253 254 253 254 254 254 254 
254 254 255 254 254 255 255 255 254 255 254 252 248 240 231 216 
198 209 238 251 254 254 255 255 255 255 255 255 255 255 255 255 
255 255 255 255 255 255 255 255 255 255 255 255 255 255 255 255 
255 255 255 251 251 250 250 251 250 250 250 250 251 251 251 251 253 253 254 253 
253 253 253 254 254 253 252 254 254 253 253 253 254 254 254 255 
254 255 254 254 255 253 248 243 235 231 234 238 244 248 247 251 
250 250 251 250 252 247 249 246 243 234 219 215 215 221 227 243 
251 254 255 255 255 255 255 255 255 255 255 255 255 255 255 255 
255 255 255 255 255 255 255 255 255 255 255 255 255 255 255 255 
255 255 255 251 251 253 251 250 250 250 250 251 251 251 251 251 253 254 254 254 
254 254 254 254 253 254 254 254 254 254 254 254 254 254 254 255 
254 254 254 254 254 255 254 255 254 253 251 245 238 233 230 224 
216 219 204 206 210 209 217 221 222 229 234 246 253 255 255 255 
255 255 255 255 255 255 255 255 255 255 255 255 255 255 255 255 
255 255 255 255 255 255 255 255 255 255 254 255 255 255 255 255 
254 255 255 251 250 251 252 250 250 249 250 250 249 250 250 252 254 253 252 254 
254 254 254 254 254 255 253 254 254 254 254 254 254 255 255 255 
255 254 254 254 254 254 253 254 255 255 254 255 255 255 255 254 
253 253 247 248 250 251 254 255 255 255 255 255 255 255 255 255 
255 255 255 255 255 255 255 255 255 255 255 255 255 255 255 255 
255 255 255 255 255 255 255 255 255 255 255 255 255 255 255 255 
255 255 255 250 250 251 251 251 250 250 250 251 250 249 250 251 254 254 254 253 
254 254 254 254 254 254 254 254 253 253 254 253 255 255 254 254 
255 254 254 254 254 255 255 255 255 255 254 255 255 255 255 255 
254 254 255 255 255 255 255 255 255 255 255 255 255 255 255 255 
255 255 255 255 255 255 255 255 255 255 255 255 255 255 255 255 
255 255 255 255 255 255 255 255 255 255 255 255 255 255 255 255 
255 255 255 251 249 250 251 250 251 250 250 250 250 250 250 250 253 254 253 253 
254 253 254 254 254 254 254 253 253 254 254 253 254 253 254 255 
254 253 255 255 255 255 255 255 254 255 255 255 255 255 255 255 
255 255 255 255 255 255 255 255 255 255 255 255 255 255 255 255 
255 255 255 255 255 255 255 255 255 255 255 255 255 255 255 255 
255 255 255 255 255 255 255 255 255 255 255 255 255 255 255 255 
255 255 255 250 250 249 249 249 249 249 249 251 250 250 249 249 253 253 253 254 
255 254 254 255 254 254 254 254 255 254 254 255 254 254 254 255 
254 255 255 255 255 255 255 255 255 255 255 255 255 255 255 255 
255 255 255 255 255 255 255 255 255 255 255 255 255 255 255 255 
255 255 255 255 255 255 255 255 255 255 255 255 255 255 255 255 
255 255 255 255 255 255 255 255 255 255 255 255 255 255 255 255 
255 255 255 250 250 250 250 249 250 249 248 248 249 250 249 248 251 254 254 254 
254 254 254 255 254 254 254 254 253 254 254 254 254 254 255 255 
254 255 255 255 255 255 254 255 255 255 255 255 255 255 255 255 
255 255 255 255 255 255 255 255 255 255 255 255 255 255 255 255 
255 255 255 255 255 255 255 255 255 255 255 255 255 255 255 255 
255 255 255 255 255 255 255 255 255 255 255 255 255 255 255 255 
255 255 255 250 248 250 250 250 250 248 249 249 249 249 250 250 249 253 254 254 
254 254 254 254 254 254 254 254 255 254 254 253 252 253 255 255 
254 255 254 255 254 254 255 255 255 255 255 255 255 255 255 255 
255 255 255 255 255 255 255 255 255 255 255 255 255 255 255 255 
255 255 255 255 255 255 255 255 255 255 255 255 255 255 255 255 
255 255 255 255 255 255 255 255 255 255 255 255 255 255 255 255 
255 255 255 