P2
# Created by IrfanView
100 100
255
243 244 246 245 246 246 246 246 247 247 245 246 247 248 246 248 247 
247 248 247 246 247 247 247 248 246 243 246 246 246 248 247 248 
248 249 249 249 249 249 249 250 250 251 251 251 252 252 250 251 
251 251 251 251 252 251 251 251 251 251 252 252 252 252 252 253 
251 252 252 251 251 253 252 252 253 253 253 252 252 253 253 253 
253 253 253 254 252 253 254 254 253 253 252 253 254 253 253 253 
253 253 253 243 244 246 246 246 245 245 246 246 247 246 246 246 245 246 247 247 
247 247 247 247 248 247 246 245 247 244 245 248 247 247 248 249 
249 248 248 248 248 249 249 250 250 250 250 250 250 252 251 250 
251 250 250 251 250 251 250 251 251 251 252 251 251 252 251 252 
252 252 252 251 253 253 253 253 252 252 252 252 252 253 253 253 
253 253 253 253 253 254 253 253 253 253 254 253 253 253 253 253 
253 252 251 243 243 244 246 247 247 246 246 246 246 246 246 247 247 248 246 246 
247 246 246 246 246 246 246 246 247 244 245 247 247 248 248 248 
248 248 249 248 248 248 248 249 249 250 250 249 249 251 249 250 
250 250 251 251 250 252 252 251 251 251 251 251 251 252 251 253 
252 252 252 252 251 252 253 253 253 252 251 252 252 253 252 253 
253 253 253 253 253 254 253 252 253 253 254 253 253 253 253 253 
253 253 253 244 245 244 245 246 246 246 247 246 247 245 245 245 246 246 247 246 
246 247 246 246 246 245 246 247 246 244 244 245 245 245 245 248 
247 247 248 249 247 249 248 247 248 246 249 249 250 249 250 250 
250 250 249 251 251 252 251 253 250 250 251 251 251 252 251 251 
252 252 252 251 251 253 251 252 252 252 252 252 252 252 251 252 
253 252 252 252 251 253 253 252 253 252 253 253 253 253 253 253 
253 253 253 244 244 245 245 245 246 247 246 247 246 246 246 247 246 246 247 246 
246 245 246 246 245 245 246 246 245 244 244 244 246 246 245 247 
247 247 247 246 248 248 245 247 248 248 248 249 249 249 250 250 
250 250 250 250 249 251 251 250 250 250 250 250 250 250 251 250 
250 250 251 251 252 251 250 251 251 251 250 251 250 251 251 252 
252 251 252 252 252 253 253 251 252 253 253 252 253 252 252 253 
253 253 253 245 246 245 245 245 247 245 246 246 246 247 246 245 246 246 245 246 
246 246 246 246 247 245 246 245 245 244 243 245 245 243 245 247 
245 248 246 246 246 246 249 247 248 247 248 249 250 248 250 250 
250 250 250 251 251 251 251 251 251 251 251 251 250 250 250 250 
251 251 251 251 250 251 250 251 252 252 252 251 251 252 252 251 
251 251 251 252 252 252 252 253 253 253 253 252 252 252 253 253 
252 252 253 245 245 245 246 245 245 245 246 245 244 244 246 246 247 244 247 246 
246 245 246 245 245 245 245 246 246 244 243 245 243 244 244 246 
246 246 246 246 247 247 245 247 248 247 250 250 248 248 244 248 
243 240 235 241 245 250 252 253 253 253 252 251 251 250 251 251 
251 250 250 250 251 252 251 250 251 251 251 250 251 251 252 252 
252 251 250 251 249 251 252 252 252 253 253 253 251 252 252 252 
252 253 253 245 245 245 245 245 246 246 246 245 244 244 244 246 246 246 246 245 
244 245 246 246 245 246 246 246 246 244 244 245 245 246 245 246 
245 244 247 247 248 247 248 249 233 226 215 209 198 196 201 204 
205 210 205 204 210 217 210 211 216 223 232 244 249 252 253 251 
251 250 250 250 249 250 251 250 252 251 251 251 250 251 251 251 
251 251 252 250 252 252 252 253 252 252 252 252 252 252 252 253 
253 253 253 245 245 245 245 245 244 245 245 245 245 245 245 246 245 245 246 246 
246 247 245 245 246 245 244 246 246 245 244 245 245 244 244 244 
245 247 247 250 244 219 201 184 193 205 224 239 249 249 250 250 
252 252 253 253 251 253 253 253 247 237 229 211 196 218 231 245 
251 252 252 251 250 248 249 250 251 250 250 250 250 251 251 251 
252 251 251 251 252 251 253 251 252 252 251 252 252 252 251 252 
252 252 252 243 244 246 246 245 246 243 243 245 245 246 245 245 244 246 245 245 
245 245 245 245 246 247 245 246 247 243 243 244 244 243 245 246 
247 242 206 195 191 204 236 245 248 251 249 250 249 249 249 248 
248 249 248 248 248 249 248 248 250 249 251 251 247 241 222 208 
211 235 249 252 249 250 249 250 250 250 249 250 251 250 250 250 
250 251 250 250 251 251 250 251 251 251 251 251 250 251 250 252 
251 251 252 245 244 245 245 244 243 244 243 246 245 245 246 245 244 244 245 245 
245 244 246 246 245 246 245 247 246 243 243 243 244 246 249 237 
195 176 204 235 249 250 247 247 248 248 248 246 247 247 247 247 
246 246 247 247 246 247 247 247 246 247 247 247 248 246 246 248 
242 234 220 230 249 251 250 250 250 250 250 249 249 249 250 250 
250 250 250 250 251 252 252 251 252 250 250 250 250 251 251 251 
251 251 250 244 244 243 243 244 244 243 244 244 244 244 244 245 245 244 245 244 
245 245 243 245 245 246 245 245 245 242 242 245 245 240 193 177 
221 248 245 247 246 246 245 245 246 245 246 246 246 246 246 247 
247 245 248 246 247 247 245 247 247 247 246 246 246 246 247 247 
248 249 249 228 224 228 247 252 251 249 249 249 249 249 249 250 
250 250 250 250 250 250 250 250 250 250 250 250 251 251 251 251 
251 250 251 244 243 243 244 244 243 243 243 243 243 244 244 244 245 244 245 244 
244 244 247 246 245 245 244 244 246 241 243 242 185 172 215 248 
247 245 245 245 246 246 244 246 245 246 246 246 246 247 247 246 
246 246 245 245 247 247 247 246 246 246 246 247 246 245 246 245 
246 246 247 248 248 235 217 230 248 250 250 248 249 249 249 250 
250 251 250 250 250 250 250 250 251 251 250 251 251 250 250 251 
250 251 250 243 244 243 243 242 242 243 243 243 244 244 243 243 243 243 243 245 
244 244 244 245 243 244 243 244 247 242 226 154 190 245 245 246 
245 245 244 244 243 244 244 245 244 245 247 245 246 245 247 246 
247 247 247 247 247 247 247 246 246 246 246 245 247 247 245 245 
245 246 245 247 248 248 249 227 214 241 250 250 248 248 249 249 
250 250 250 249 250 250 250 250 250 250 249 249 250 250 250 250 
250 249 249 243 243 243 244 243 243 242 243 243 243 244 243 243 243 243 244 243 
244 244 244 242 243 244 243 247 245 183 162 225 245 244 244 243 
244 244 243 244 244 244 244 244 244 245 247 246 245 246 244 246 
244 245 246 247 245 247 246 246 246 246 247 247 246 247 246 245 
246 246 246 245 245 247 249 248 245 211 225 249 251 250 250 249 
249 250 250 250 250 250 250 251 250 250 249 249 250 249 250 250 
249 250 250 243 241 243 242 242 242 243 243 244 243 243 242 243 243 243 243 243 
243 243 241 244 242 244 248 229 170 194 241 245 244 245 244 245 
244 244 245 243 243 244 245 245 244 245 245 245 245 244 245 246 
246 247 247 246 246 246 246 247 247 246 247 248 248 247 246 246 
247 247 246 246 247 246 246 247 248 246 229 207 242 249 249 249 
251 251 250 250 249 249 249 250 249 249 249 250 250 248 250 250 
250 250 250 242 242 242 243 242 242 242 243 243 243 242 243 243 242 243 242 243 
241 243 241 243 243 248 201 168 229 246 243 242 242 242 242 243 
243 244 242 242 243 243 245 246 245 243 244 244 246 244 244 243 
245 246 246 246 246 245 246 245 246 248 245 246 248 247 248 247 
246 246 246 246 246 245 246 246 245 247 249 240 210 243 248 248 
250 250 250 250 250 250 250 250 251 250 249 249 251 250 250 249 
250 250 250 242 241 243 242 243 242 242 243 241 242 243 242 242 242 242 243 242 
242 241 240 246 245 197 193 243 244 244 241 242 242 242 243 245 
243 242 244 244 244 243 244 244 244 244 244 245 244 245 246 244 
245 246 246 246 245 246 245 247 247 246 247 247 248 246 246 246 
246 245 245 246 245 246 245 247 246 247 246 246 238 212 242 251 
249 249 250 250 250 251 252 250 251 252 250 249 249 250 250 250 
250 249 250 241 242 241 241 242 241 241 241 242 242 242 241 241 242 242 243 241 
241 243 244 242 181 208 246 244 242 241 240 243 242 243 243 244 
243 244 243 244 242 243 243 244 244 245 244 244 244 244 243 244 
247 246 247 246 247 245 245 246 246 247 247 245 247 246 248 245 
247 246 246 246 246 247 246 246 246 247 247 246 249 241 216 242 
248 249 250 250 250 250 250 250 251 251 251 248 249 249 249 250 
249 249 250 241 241 242 241 240 242 242 242 242 241 242 242 242 241 241 242 241 
241 243 240 166 225 248 244 241 241 241 241 240 242 243 243 243 
243 243 243 244 244 244 244 244 244 242 243 242 245 245 243 244 
245 246 247 246 246 245 245 246 246 246 247 247 247 245 245 246 
245 246 246 245 246 244 246 246 246 246 245 247 247 247 244 209 
236 249 249 250 249 249 251 249 251 251 252 249 249 249 249 250 
249 250 249 241 241 241 240 241 240 242 241 241 241 241 241 241 241 241 240 240 
243 234 167 229 246 243 243 242 240 240 241 241 242 243 243 244 
244 243 244 243 243 243 243 243 246 244 242 244 244 244 243 244 
245 245 245 245 245 245 245 246 247 247 246 246 247 246 247 247 
247 245 245 246 245 247 247 246 246 245 248 247 247 247 248 243 
203 241 251 249 249 249 249 250 250 249 251 250 249 249 249 249 
249 249 249 242 241 241 241 241 241 241 240 240 241 241 240 241 241 241 242 243 
239 165 228 246 244 242 242 241 240 242 242 241 241 243 243 243 
244 242 242 243 244 243 243 245 242 243 243 243 245 244 243 244 
245 246 243 244 244 245 245 246 247 246 246 247 246 246 246 246 
245 247 247 247 247 246 246 245 245 246 245 247 246 248 246 248 
240 199 243 249 249 250 249 250 249 249 249 249 249 250 249 250 
249 249 249 240 241 241 241 240 241 241 241 240 240 241 240 242 241 241 244 238 
174 228 246 244 243 242 243 242 241 241 239 240 242 242 242 243 
243 243 244 244 243 243 244 244 243 243 243 243 242 243 244 244 
244 244 247 245 244 245 245 246 246 247 245 247 246 246 246 245 
246 244 245 245 245 245 245 245 245 245 245 246 246 244 245 246 
249 234 192 247 249 248 248 249 249 249 249 249 249 249 249 247 
249 249 250 241 241 240 240 241 240 239 240 240 240 240 240 241 241 242 243 179 
218 245 243 243 242 242 243 241 242 240 241 240 241 241 242 242 
242 245 243 243 243 243 244 243 243 245 242 244 244 243 243 245 
245 244 244 244 245 247 245 245 246 245 245 246 246 247 247 246 
246 247 245 246 246 246 245 244 246 245 246 245 247 247 247 248 
246 248 220 213 250 248 249 250 250 249 249 249 248 250 249 250 
249 248 250 240 239 241 239 240 240 240 240 240 240 241 240 239 240 244 197 211 
246 243 242 243 242 241 241 242 242 242 242 242 240 240 242 242 
242 241 241 242 243 242 243 242 243 242 242 242 242 244 243 244 
245 244 245 245 242 244 243 245 245 245 245 245 244 245 246 246 
244 245 245 246 245 245 246 245 246 246 246 246 247 247 246 247 
247 245 248 207 238 250 248 248 248 250 249 249 249 249 250 249 
249 249 249 240 240 240 240 240 240 239 240 240 240 240 241 241 241 211 188 245 
243 242 241 243 242 242 242 243 244 241 241 241 241 242 243 242 
243 242 241 242 242 243 242 240 243 243 243 241 244 243 243 244 
245 245 245 244 243 244 244 242 244 245 245 245 246 245 244 246 
245 246 246 245 246 244 245 245 246 246 247 246 246 246 245 244 
247 247 247 243 191 246 248 248 248 250 249 249 247 249 249 249 
249 249 249 237 239 239 239 240 239 239 240 238 237 239 239 241 238 172 235 244 
242 243 244 242 242 242 242 243 241 241 241 241 239 241 242 242 
242 243 242 242 242 243 242 242 243 243 243 242 243 243 243 244 
244 243 245 244 244 243 244 244 245 245 246 245 246 245 245 245 
245 246 245 246 244 247 245 246 245 244 246 246 247 245 244 246 
246 246 246 247 227 208 249 247 248 248 248 249 248 248 248 249 
249 248 248 239 240 238 239 238 239 239 239 239 240 239 238 236 189 229 241 242 
242 243 242 242 242 241 240 242 242 241 242 242 242 241 241 241 
242 243 242 243 242 242 242 241 241 243 243 242 244 244 244 244 
243 243 243 244 243 243 244 244 244 246 245 245 244 244 244 244 
243 244 245 245 245 244 246 245 247 244 246 245 245 246 245 245 
246 246 245 246 247 195 237 248 247 248 249 248 248 249 249 249 
249 250 249 239 239 239 237 238 238 238 237 238 237 238 242 174 199 245 242 242 
242 242 242 242 242 243 242 243 241 241 240 241 240 242 243 242 
242 242 242 243 242 242 240 240 241 241 243 244 243 243 244 244 
245 243 244 244 244 244 244 243 245 244 245 245 245 245 245 245 
245 245 245 244 243 245 245 245 245 246 246 245 246 246 245 245 
246 247 245 245 244 240 201 246 248 249 248 248 249 249 249 248 
248 248 248 239 238 238 238 238 238 238 238 237 238 241 216 163 245 243 242 242 
242 243 243 242 243 242 242 242 242 243 242 241 241 240 241 242 
242 242 241 241 242 242 243 241 241 244 243 243 243 243 244 243 
243 242 244 244 244 243 244 244 244 245 245 245 243 244 245 245 
244 245 244 245 246 245 245 244 245 245 244 246 245 245 245 245 
246 245 245 245 244 247 209 234 248 246 247 248 248 248 247 248 
248 248 247 239 240 239 240 239 239 240 238 237 239 243 162 230 243 242 242 243 
241 242 242 243 242 241 241 242 242 241 241 242 241 241 242 240 
242 241 241 242 242 242 242 242 242 242 243 243 243 243 242 244 
244 242 243 243 243 242 243 243 243 243 245 244 245 244 244 244 
244 244 242 244 244 244 244 245 244 245 245 245 245 244 245 246 
245 245 245 245 246 246 240 194 249 245 247 249 248 248 248 248 
248 248 248 238 237 238 238 238 239 238 238 237 237 222 178 245 243 242 242 243 
243 244 242 242 243 242 244 243 242 242 241 240 241 240 241 241 
240 241 241 242 242 240 242 242 242 242 242 242 243 243 244 243 
243 242 243 244 244 245 243 244 244 243 243 243 243 245 244 244 
243 243 244 243 242 243 245 244 244 244 244 246 245 246 245 245 
244 246 245 244 245 244 247 204 232 246 246 248 248 248 248 248 
247 249 248 238 239 237 238 239 238 238 237 238 238 173 221 243 244 242 243 242 
242 241 242 243 243 241 205 231 245 243 243 242 241 241 240 240 
243 241 241 241 241 241 242 242 241 240 242 241 242 242 242 243 
243 243 243 243 244 243 243 243 243 243 244 245 244 244 244 242 
243 243 242 241 242 243 243 244 243 240 245 245 244 244 246 245 
246 243 245 244 244 245 244 238 198 248 245 247 248 248 247 248 
249 248 248 239 237 237 236 239 239 239 237 237 231 164 244 242 241 243 242 242 
242 243 241 244 243 241 219 191 198 230 242 243 242 241 243 243 
241 242 241 241 241 241 240 241 241 239 239 243 243 243 242 244 
243 243 243 242 242 242 243 242 243 242 242 243 242 242 243 242 
242 242 242 242 241 243 243 243 244 237 211 199 246 245 244 245 
246 246 244 244 244 243 246 247 191 241 246 248 247 248 249 248 
248 247 248 237 237 237 238 237 236 238 238 237 198 210 241 240 241 243 242 242 
243 243 242 242 242 243 245 244 231 189 173 187 220 235 240 243 
242 242 243 242 242 240 239 241 241 240 243 242 241 242 242 244 
242 242 243 243 244 243 242 243 244 244 244 242 243 242 243 243 
241 243 241 242 241 241 241 230 200 157 167 232 246 246 245 244 
244 244 245 246 245 246 245 245 224 209 245 246 246 247 247 247 
247 248 248 236 237 237 236 237 237 238 239 241 164 240 240 240 241 242 242 242 
242 243 242 242 243 242 243 242 242 241 240 226 190 160 148 156 
176 197 228 244 243 239 241 241 241 241 242 243 242 243 243 243 
241 243 242 242 242 242 241 243 243 242 241 244 242 242 244 242 
244 243 245 243 238 213 171 162 193 231 246 247 245 245 245 245 
245 244 244 244 244 244 245 244 246 185 245 246 247 247 247 247 
246 247 248 237 237 236 237 237 237 236 238 222 182 241 239 240 241 242 242 243 
242 242 242 241 242 241 240 243 240 243 243 244 245 243 236 227 
198 181 160 158 161 211 240 241 241 241 242 241 242 242 242 242 
243 243 242 242 243 243 242 243 242 242 242 241 243 243 243 245 
244 237 219 169 152 186 223 246 247 246 246 245 245 245 245 246 
245 244 244 245 245 244 245 244 246 197 244 247 244 247 247 247 
246 247 247 235 237 237 237 237 235 236 239 199 201 241 241 241 241 240 241 241 
240 242 242 243 242 240 242 242 242 241 241 241 241 242 241 241 
241 244 243 239 218 178 197 241 241 241 241 244 242 242 243 242 
243 241 242 242 243 243 242 242 243 242 243 242 245 248 243 227 
177 148 181 225 243 247 243 243 244 244 244 244 245 244 244 243 
244 246 244 244 243 245 245 244 243 220 225 245 245 247 246 246 
246 247 247 237 238 236 237 234 236 237 238 185 238 241 241 241 240 241 242 242 
242 242 243 243 242 242 242 242 241 242 241 241 240 242 242 240 
240 242 242 241 243 246 225 241 242 243 242 242 242 242 242 242 
244 243 243 242 242 243 243 242 242 242 242 243 248 205 155 160 
211 243 244 245 246 243 242 243 244 244 244 243 245 245 244 245 
245 244 245 245 244 246 246 245 244 242 208 247 245 245 247 248 
247 247 247 235 237 236 235 236 237 238 232 173 241 240 240 240 242 242 240 241 
242 242 242 244 242 241 241 241 242 242 241 240 243 237 241 240 
239 241 240 240 241 243 242 240 242 242 241 242 243 241 242 242 
242 243 242 243 242 242 241 241 241 242 242 244 143 173 226 248 
245 244 243 241 241 242 241 242 243 243 243 244 244 242 244 244 
245 244 244 245 245 245 246 245 244 249 201 245 245 244 246 247 
247 247 247 237 238 235 235 236 236 236 225 187 240 239 240 240 240 241 241 241 
241 242 242 243 242 241 242 243 242 242 243 243 184 109 160 242 
240 240 240 241 241 241 241 241 241 241 242 242 242 242 244 243 
243 243 242 243 242 242 242 242 242 242 242 244 230 244 244 245 
244 242 242 244 244 242 242 241 242 244 243 243 244 244 244 244 
244 243 243 244 244 244 243 244 245 245 187 237 246 246 246 246 
247 247 247 236 239 237 238 236 237 235 213 210 240 240 240 240 240 241 240 241 
240 241 242 243 242 242 241 240 242 242 242 242 120 73 93 213 
240 240 239 240 240 242 241 242 242 241 240 242 242 242 242 243 
242 243 242 241 242 242 241 243 242 242 242 243 244 244 243 243 
244 242 245 245 236 245 243 241 242 243 244 244 244 243 244 244 
244 244 245 244 245 244 244 244 246 244 210 236 245 244 245 245 
245 246 247 237 236 236 235 236 235 236 191 233 239 240 241 240 239 240 240 241 
241 240 241 241 242 241 241 242 241 241 244 171 82 101 98 181 
241 240 239 240 242 242 240 241 242 242 242 242 242 242 242 241 
241 243 243 243 242 242 242 242 241 242 241 243 244 242 242 243 
243 242 245 193 97 151 234 240 242 242 244 242 245 244 245 244 
244 244 244 244 244 244 243 246 245 243 223 224 246 245 245 243 
245 246 247 236 236 236 235 237 235 234 168 238 236 239 240 240 240 239 238 240 
240 242 242 242 242 241 241 242 241 241 244 139 116 184 122 200 
241 239 239 240 240 241 241 241 241 240 242 243 240 242 242 242 
244 242 242 243 241 241 242 242 243 243 243 243 243 242 242 243 
242 242 235 98 83 122 171 242 242 243 244 243 243 243 244 244 
244 244 244 245 244 244 242 245 244 242 234 203 247 244 245 241 
244 245 246 238 238 236 236 235 235 237 185 238 236 239 240 240 240 240 240 240 
241 241 241 241 242 241 242 241 241 241 244 148 125 152 116 230 
241 240 239 240 242 242 240 240 240 242 240 242 242 242 242 243 
242 242 241 242 242 243 242 242 242 242 242 243 242 242 243 244 
242 243 204 91 116 114 153 243 242 241 242 243 243 242 242 243 
244 244 244 242 244 243 243 243 243 243 243 196 246 245 245 243 
246 246 245 237 238 236 235 236 236 227 178 239 236 239 239 239 239 240 239 240 
240 241 242 242 242 242 242 239 241 242 242 203 120 100 138 242 
239 241 241 240 240 241 242 241 241 242 241 241 241 240 243 242 
243 242 242 242 242 242 242 242 242 243 243 242 243 244 243 243 
242 243 188 82 115 110 162 244 243 242 243 244 244 244 243 243 
244 244 244 242 244 243 243 243 244 244 245 195 247 243 245 244 
246 245 246 238 238 236 236 236 235 214 179 241 237 239 238 241 239 241 238 240 
240 240 239 241 241 242 242 241 241 242 241 232 133 113 214 242 
240 242 242 241 242 241 242 241 242 242 241 241 242 241 242 243 
242 243 242 241 243 242 241 241 241 242 242 243 242 243 243 242 
243 242 199 83 132 123 215 243 243 244 243 245 243 243 243 243 
243 243 244 243 243 243 244 242 244 244 246 195 247 243 245 244 
246 245 244 239 237 236 236 235 234 218 187 240 240 238 239 239 239 240 238 239 
240 240 241 241 241 241 241 241 241 240 240 242 205 221 242 241 
241 240 242 241 242 240 241 241 241 242 241 241 242 242 241 241 
241 241 242 241 241 241 242 242 242 242 242 241 242 240 242 241 
241 242 226 103 101 163 242 241 243 243 242 243 243 242 243 243 
243 244 245 244 243 243 243 243 242 243 243 201 244 244 245 244 
245 245 244 234 236 237 237 237 237 202 206 239 237 237 240 237 237 238 240 239 
240 242 242 241 241 241 241 241 239 241 240 240 244 244 243 239 
240 242 241 240 241 240 241 240 241 242 241 241 240 241 240 241 
241 241 242 242 242 242 243 242 242 242 242 242 243 242 242 243 
243 243 245 213 123 239 243 241 244 243 241 243 242 244 243 243 
244 243 243 242 242 243 242 243 244 243 245 188 244 243 244 245 
244 245 246 237 237 236 237 236 235 205 210 238 237 238 237 239 240 239 239 239 
239 241 241 242 240 241 241 241 240 242 240 240 241 240 240 241 
240 241 241 240 240 240 241 242 241 242 241 242 243 243 242 241 
241 241 241 242 243 242 241 241 242 242 242 242 242 243 242 241 
242 243 243 246 242 244 243 244 243 243 242 244 243 243 243 242 
242 243 244 242 242 243 244 244 243 243 245 194 245 243 244 245 
245 246 245 237 235 238 237 233 236 208 203 237 236 238 239 238 239 238 239 239 
239 240 240 240 241 241 242 239 240 240 241 241 241 240 241 241 
241 241 241 241 242 241 241 242 240 242 242 241 241 240 241 241 
241 240 242 241 241 241 241 241 241 242 242 242 242 242 242 244 
242 244 243 243 246 244 243 242 242 243 242 242 243 243 243 243 
243 244 242 244 243 243 242 242 243 242 245 196 244 244 243 244 
242 245 244 235 236 236 234 236 236 210 201 236 237 237 236 238 239 237 239 239 
241 241 241 241 241 241 241 241 242 241 241 240 241 241 243 240 
241 240 241 241 240 241 240 240 241 241 239 241 240 241 240 240 
240 241 241 241 241 241 242 241 241 240 241 241 241 243 242 242 
242 243 243 243 242 241 243 242 242 242 243 242 242 241 242 242 
241 243 244 243 243 242 242 243 242 242 245 197 245 244 243 243 
245 245 247 235 234 235 235 235 236 218 195 236 236 238 238 237 239 237 238 240 
240 239 239 240 240 240 241 241 241 240 242 241 240 240 240 241 
240 241 239 241 240 241 241 241 240 241 243 241 241 241 242 241 
240 241 242 241 240 239 241 241 243 242 242 242 241 242 241 242 
242 242 242 243 242 242 242 241 242 241 242 242 243 242 243 244 
244 242 242 242 243 242 243 243 242 242 244 195 243 244 244 243 
243 244 245 235 235 235 236 235 235 218 197 236 235 237 239 237 238 237 238 238 
240 240 240 240 240 241 241 241 240 240 240 242 241 241 241 241 
241 240 240 241 240 240 239 241 240 240 240 241 239 241 240 241 
241 240 240 241 241 239 241 242 241 241 242 241 242 242 243 242 
242 243 241 241 242 242 243 242 242 242 242 242 242 244 242 240 
242 242 242 242 242 242 242 241 243 241 245 189 246 245 243 242 
243 243 244 235 234 234 234 232 235 224 181 236 237 237 238 238 239 238 238 239 
239 241 240 241 241 240 240 240 240 240 240 240 241 240 240 241 
240 240 240 241 241 241 240 240 241 240 241 240 239 240 240 241 
241 240 239 239 240 241 240 239 243 241 243 241 242 242 242 242 
241 242 244 242 242 243 241 242 242 242 242 242 242 241 242 241 
242 243 243 242 242 242 242 241 241 242 241 197 243 244 243 243 
244 243 244 236 236 235 236 235 236 233 164 240 235 238 238 237 238 238 237 240 
239 239 241 240 239 241 240 239 240 239 241 241 241 241 240 241 
241 240 241 239 240 241 240 241 240 240 240 241 242 242 241 241 
240 241 240 240 241 240 240 240 241 242 241 241 242 242 242 242 
242 240 241 243 242 242 241 241 243 243 242 243 243 243 243 242 
241 242 243 242 242 242 242 241 241 241 229 203 246 244 243 244 
244 244 245 233 234 234 235 234 235 235 174 238 237 236 236 236 238 238 238 240 
240 240 240 240 240 239 239 239 240 240 240 240 240 241 241 240 
238 240 241 240 239 239 239 240 240 240 241 241 240 241 240 241 
240 240 241 240 240 242 241 242 241 240 241 242 241 241 243 243 
242 242 242 241 242 243 242 241 243 242 242 242 243 243 242 243 
243 242 241 242 241 241 242 241 241 242 220 215 245 244 243 244 
244 244 244 235 235 234 232 234 234 235 179 234 236 236 236 235 238 237 236 240 
239 239 238 240 240 240 240 240 239 239 239 240 239 240 241 241 
240 240 240 239 240 239 239 240 240 241 240 240 240 240 240 242 
242 241 241 241 240 241 240 241 241 242 242 242 240 241 242 242 
241 242 242 242 242 242 242 242 241 241 243 243 243 243 243 242 
243 242 242 242 243 242 242 242 241 242 200 240 243 243 244 244 
244 244 245 234 234 233 234 232 233 237 192 220 235 235 235 235 238 238 240 240 
240 241 238 239 239 239 239 240 240 241 240 240 239 240 241 238 
241 240 239 240 239 239 239 240 239 239 240 241 241 241 240 241 
241 241 240 241 240 241 240 241 242 242 242 241 242 242 241 241 
242 240 242 242 242 242 241 241 242 242 242 242 242 243 243 243 
242 242 242 242 243 243 241 241 241 242 191 247 244 243 244 244 
244 243 244 233 233 233 233 232 233 236 201 202 235 235 235 235 238 236 238 238 
240 239 240 238 239 238 240 239 240 239 239 238 238 239 239 239 
240 240 240 239 241 241 240 238 241 240 240 240 240 240 240 241 
241 240 240 241 242 238 240 242 241 242 242 242 241 241 242 242 
242 242 243 241 242 242 242 243 242 242 242 241 242 242 242 243 
242 243 242 242 243 243 243 242 242 244 172 245 243 244 245 245 
245 244 243 234 233 235 233 233 232 233 227 180 236 236 234 234 235 235 237 238 
239 238 239 239 239 240 240 239 240 241 240 240 239 240 240 240 
239 239 240 241 240 240 240 239 239 240 240 241 241 240 242 241 
241 241 242 241 241 242 242 240 243 241 241 242 241 243 242 241 
242 242 241 241 242 242 242 241 242 242 243 243 243 242 242 242 
242 242 241 242 240 241 243 242 243 229 196 245 243 243 242 243 
244 244 245 233 233 232 234 234 234 235 236 160 236 235 234 234 235 236 236 238 
237 237 238 239 237 235 237 238 240 239 240 240 239 240 240 240 
239 239 239 239 239 239 240 239 239 239 240 240 241 239 241 241 
242 240 241 241 239 241 240 242 242 241 242 242 241 241 242 241 
242 241 242 241 242 242 241 241 241 241 242 242 242 242 241 243 
242 242 243 241 241 243 243 243 242 205 232 244 243 243 243 244 
244 243 245 232 232 234 235 234 235 235 234 177 219 235 237 236 235 236 238 240 
236 237 239 239 239 237 238 238 240 240 239 239 239 239 239 239 
240 240 240 240 239 240 239 239 239 237 239 238 240 238 239 240 
239 241 241 241 239 241 242 241 241 241 242 242 242 241 242 242 
241 241 242 239 241 242 241 241 241 242 241 241 241 241 241 242 
242 242 242 243 242 243 243 242 245 180 239 243 243 243 243 243 
244 245 245 233 234 234 234 234 234 234 233 202 195 236 233 237 234 234 237 239 
238 238 238 238 239 238 238 239 240 241 238 239 241 240 239 239 
239 240 239 240 240 239 240 241 240 239 241 237 238 239 242 241 
241 239 239 240 240 241 242 242 242 241 241 241 241 241 242 240 
241 242 242 241 241 241 241 241 241 242 242 242 242 243 241 241 
242 242 242 243 242 242 243 242 240 189 246 241 243 242 242 244 
245 245 244 231 234 234 233 234 234 233 233 230 167 237 236 234 235 236 236 238 
238 237 239 239 238 237 238 239 238 239 238 238 240 240 239 239 
239 239 239 240 238 239 240 239 239 240 240 240 239 237 240 240 
240 240 241 241 241 240 241 241 241 241 240 241 241 241 241 241 
242 241 241 242 241 240 240 241 241 241 242 241 242 242 241 241 
240 240 240 239 237 241 240 243 212 222 242 243 242 243 242 243 
243 244 244 232 233 233 232 234 235 234 234 235 166 225 235 233 234 236 237 238 
238 239 238 237 239 238 238 239 239 239 239 239 239 239 238 240 
238 239 240 240 238 239 239 239 241 239 238 238 239 239 242 239 
240 241 241 241 242 241 241 241 240 242 241 241 242 243 241 240 
242 239 240 241 241 241 241 242 241 242 241 241 243 242 240 241 
240 241 239 242 237 239 240 240 193 244 241 242 242 243 241 242 
244 244 244 233 231 233 235 235 234 233 231 232 189 188 235 234 235 234 236 236 
238 238 238 238 237 237 238 239 238 237 237 237 238 238 238 239 
240 240 239 238 239 240 239 238 238 241 239 239 240 241 239 241 
240 240 240 240 239 240 241 240 240 240 241 240 238 239 240 240 
240 240 240 240 240 240 240 241 242 242 241 242 241 242 241 239 
241 241 240 237 237 237 238 180 194 241 242 242 243 243 242 243 
243 244 243 231 232 233 232 234 231 233 233 232 227 145 236 234 235 234 236 235 
237 237 239 238 238 237 237 238 238 238 238 238 239 238 239 238 
238 238 238 239 237 237 238 238 239 239 238 239 238 238 239 240 
239 240 241 240 240 241 240 242 240 240 241 241 240 240 240 241 
241 240 240 241 240 239 242 241 240 241 241 241 240 241 240 241 
241 240 238 240 237 237 235 151 241 242 242 242 242 241 243 242 
243 243 243 233 232 232 232 234 233 232 234 233 234 169 211 234 234 233 234 236 
237 236 237 236 238 236 239 238 238 238 238 238 237 237 236 237 
238 238 236 239 241 240 238 239 239 238 239 238 239 239 237 237 
239 240 240 240 240 240 239 239 240 241 240 240 241 241 241 241 
240 241 240 240 241 240 240 239 241 241 240 241 241 241 241 241 
240 240 238 237 235 240 192 199 244 238 242 242 242 241 241 243 
243 243 242 232 232 232 233 234 233 232 233 232 234 224 155 236 233 234 235 236 
236 236 237 238 236 237 237 237 238 238 237 238 238 237 239 237 
237 238 238 237 237 238 238 238 239 239 238 237 238 238 237 239 
240 239 239 241 240 239 239 240 240 240 241 241 242 242 241 241 
239 241 241 240 240 239 241 240 240 240 240 241 240 242 242 241 
239 239 239 238 238 241 164 238 241 239 242 242 242 242 243 242 
241 242 242 232 232 233 232 233 232 232 233 233 233 234 167 209 232 234 235 236 
237 237 238 236 236 236 238 237 237 236 236 238 238 238 238 238 
238 238 237 237 239 237 237 238 239 238 238 238 237 238 238 238 
238 238 240 239 240 241 241 240 239 240 239 238 240 241 241 240 
239 239 240 241 241 241 242 242 240 241 240 241 241 240 240 238 
239 241 238 238 241 176 189 241 238 241 241 242 240 240 242 244 
242 242 243 232 231 231 232 232 231 232 232 232 234 232 226 154 235 234 234 235 
236 237 237 236 239 238 237 236 235 238 238 237 237 237 237 238 
237 236 238 238 238 240 239 238 239 238 239 240 238 238 239 239 
238 240 241 242 241 239 240 240 242 243 242 242 240 241 242 242 
240 240 240 240 240 240 239 239 239 238 241 241 241 241 240 242 
240 240 239 240 213 121 237 240 240 241 240 238 240 240 241 241 
242 242 242 232 232 231 231 233 232 232 232 231 233 233 232 190 201 232 233 235 
235 236 236 236 235 237 237 235 238 238 236 238 235 236 235 236 
237 237 238 237 236 239 240 239 240 242 241 238 237 236 238 236 
238 239 240 240 240 237 233 236 240 243 241 239 240 240 241 240 
240 240 240 240 240 241 241 242 240 243 241 241 241 241 241 240 
240 240 241 243 126 186 243 240 239 241 240 239 240 241 243 241 
241 242 243 231 231 232 231 232 232 231 233 232 233 233 229 231 149 229 234 235 
235 236 236 237 237 236 236 236 234 236 236 236 236 236 236 236 
236 235 234 237 222 208 207 200 192 148 161 146 127 135 134 144 
150 141 137 133 132 140 157 132 120 145 188 230 239 239 240 240 
240 240 238 239 240 240 240 240 241 240 240 241 240 240 241 240 
240 241 241 189 170 239 239 239 240 240 238 239 240 240 241 240 
241 242 242 232 232 231 232 231 233 232 232 230 233 233 232 233 218 163 233 233 
236 234 236 235 236 235 236 236 237 236 235 236 236 236 237 237 
237 237 235 236 229 163 146 163 172 190 208 216 220 220 216 234 
222 223 231 224 218 214 201 182 161 136 99 191 241 236 240 241 
241 241 238 240 240 240 241 240 240 239 241 240 240 240 242 242 
241 244 212 148 238 241 240 240 240 240 238 237 238 240 242 241 
241 242 242 231 231 232 231 232 230 232 231 232 232 232 231 233 233 178 212 237 
235 236 236 235 236 237 236 235 237 237 237 236 236 236 236 236 
236 236 236 235 237 242 240 242 242 241 240 240 240 239 239 240 
239 240 241 243 241 241 241 241 244 241 240 240 239 239 240 239 
240 239 240 239 239 239 240 239 239 240 240 240 240 239 240 241 
243 242 156 197 243 239 238 239 237 240 240 240 239 241 241 241 
240 241 242 232 231 230 232 231 232 233 232 232 232 232 232 233 231 229 175 224 
235 232 235 235 236 236 236 233 235 235 236 235 236 237 237 237 
235 235 236 236 237 238 238 239 239 238 237 237 238 235 237 236 
237 236 238 238 238 238 240 240 240 242 243 240 240 241 240 238 
239 240 241 239 240 240 239 239 239 240 240 240 240 239 238 241 
243 174 160 244 241 239 239 239 239 239 240 240 240 239 241 241 
240 240 241 233 233 232 232 231 231 231 232 229 233 232 233 233 230 232 226 168 
234 235 235 235 235 235 235 235 235 236 236 236 236 235 236 236 
238 238 237 236 237 236 237 236 236 236 238 238 236 236 238 237 
238 239 237 239 240 239 240 240 239 238 240 241 240 240 240 241 
240 239 240 240 239 238 240 240 240 238 240 241 240 238 241 244 
173 125 194 244 240 239 239 239 240 239 239 240 240 240 241 241 
240 240 240 231 231 231 230 229 231 229 231 233 231 232 232 231 230 230 233 219 
174 235 236 234 237 235 235 236 235 235 235 237 237 235 236 235 
236 236 237 237 235 236 236 235 235 237 237 236 236 237 238 238 
238 239 239 239 239 239 240 240 240 239 239 239 238 239 240 239 
239 239 240 239 240 238 239 238 239 239 240 240 239 240 242 195 
117 173 232 242 240 239 240 240 239 238 239 239 239 241 241 241 
241 240 242 231 230 230 231 231 230 231 231 231 231 231 232 231 231 231 230 235 
206 181 235 235 235 236 234 235 234 234 235 237 236 235 236 237 
235 236 236 237 236 236 236 237 237 237 237 236 236 238 237 238 
237 236 238 239 238 239 238 239 237 238 239 239 239 240 238 240 
239 240 240 239 239 239 238 239 240 239 240 238 239 244 213 114 
176 227 243 241 241 239 239 239 240 240 238 238 238 239 240 240 
241 241 239 230 229 232 231 231 231 231 229 230 231 230 231 232 231 230 229 229 
236 196 187 236 233 235 235 235 234 235 235 235 235 236 236 234 
234 236 234 235 236 236 235 236 236 236 237 238 238 237 237 237 
238 237 238 239 238 239 238 238 238 238 239 240 240 240 239 238 
240 237 239 237 239 239 238 237 237 240 238 239 244 175 102 171 
238 243 240 240 240 237 239 239 239 239 239 238 238 239 241 240 
240 240 240 230 231 231 231 231 230 231 232 231 231 231 233 230 229 229 231 230 
232 233 199 182 235 235 234 233 234 234 234 234 234 234 235 236 
235 234 237 235 237 235 236 236 235 237 237 236 237 238 237 236 
237 236 238 239 238 238 239 238 239 239 239 237 237 238 239 239 
239 241 238 239 239 236 238 239 238 239 239 242 196 130 210 241 
242 241 240 240 241 239 239 239 238 240 239 239 239 240 240 238 
240 241 241 228 231 231 231 232 231 231 231 230 230 231 232 231 231 229 227 230 
232 232 236 204 180 233 235 236 234 234 234 234 236 235 234 234 
235 234 236 235 236 235 233 235 236 235 233 235 236 238 237 237 
238 237 239 237 239 239 239 239 238 238 238 237 239 240 240 240 
238 238 238 239 238 237 236 236 238 239 241 216 162 225 242 241 
240 239 240 240 240 239 241 239 240 239 239 237 238 239 239 237 
238 241 241 229 231 231 232 230 231 230 231 232 232 231 231 231 230 229 232 230 
231 232 233 239 222 161 227 234 234 236 234 235 233 235 234 234 
235 233 234 234 235 235 234 234 232 234 236 234 234 235 236 236 
236 237 237 239 238 236 239 239 240 238 236 239 238 237 238 237 
239 238 235 238 238 237 236 238 241 238 174 171 233 242 242 240 
240 238 239 240 239 239 239 239 240 239 239 238 239 240 240 238 
240 239 241 231 229 229 230 229 231 230 230 229 230 231 230 230 231 230 230 230 
231 231 230 234 234 226 171 218 235 234 234 234 233 234 233 234 
231 233 234 235 234 235 234 235 234 235 234 231 233 233 236 236 
238 237 237 238 238 238 238 238 239 239 237 237 237 239 237 239 
238 238 237 239 237 237 239 243 226 173 196 235 241 239 239 240 
239 240 240 238 240 240 238 238 238 238 240 238 239 238 238 238 
237 239 239 228 229 230 229 231 231 228 230 229 231 230 230 231 229 229 229 230 
230 231 232 233 231 233 231 184 183 235 235 234 233 233 234 233 
234 233 233 233 235 235 234 234 234 235 235 234 232 233 233 235 
236 236 237 238 238 237 237 236 238 236 237 237 239 238 238 237 
238 238 238 239 238 238 235 191 142 194 240 240 239 239 239 239 
239 240 240 240 240 237 238 237 238 239 237 239 239 239 238 239 
239 240 238 229 229 229 230 231 228 229 230 230 228 229 228 227 229 230 229 230 
228 229 231 231 229 231 231 236 187 160 225 237 235 234 233 233 
233 234 233 233 233 232 233 234 234 234 234 233 233 232 234 233 
234 236 235 236 236 237 237 236 238 239 237 236 236 237 236 236 
236 237 237 239 240 213 146 139 205 243 239 239 239 239 240 239 
241 239 239 240 239 239 239 240 239 240 239 239 239 239 237 236 
240 240 241 228 228 229 227 228 229 228 228 226 228 228 226 228 228 228 229 228 
228 232 230 230 232 230 230 233 236 218 167 190 234 236 235 233 
232 232 231 233 233 233 234 233 233 232 234 233 233 233 231 235 
234 234 236 236 238 236 236 238 236 238 236 236 236 235 237 238 
237 239 240 234 178 115 170 230 244 241 239 239 240 239 238 240 
238 239 240 239 239 239 238 238 239 238 238 236 238 238 236 239 
238 240 237 228 229 228 227 228 226 226 228 228 227 228 228 229 228 228 227 228 
229 229 230 229 230 228 230 230 230 233 236 206 162 188 233 233 
235 235 235 233 233 233 232 234 234 234 233 232 233 233 231 235 
231 233 235 235 235 236 234 237 236 236 236 235 235 237 239 240 
241 223 183 131 155 220 240 243 238 239 238 240 238 239 239 240 
240 240 239 239 239 237 239 238 238 238 235 239 238 237 237 239 
239 239 240 228 227 224 228 226 229 226 227 226 228 228 226 227 226 229 227 225 
229 229 230 229 231 231 230 230 230 230 233 237 238 202 162 173 
221 235 231 234 233 233 232 233 231 232 233 233 232 231 234 234 
234 234 236 234 234 234 234 235 235 236 238 238 239 241 240 217 
169 119 153 217 236 242 239 239 238 239 239 239 239 239 240 238 
239 237 240 239 239 238 238 239 238 239 241 238 238 239 237 238 
239 238 239 226 225 226 225 226 225 225 226 226 224 226 226 225 224 224 224 227 
227 228 229 228 228 231 230 230 230 231 232 232 232 234 237 222 
181 164 193 228 235 234 233 235 234 233 232 234 234 233 233 234 
234 234 233 234 234 235 235 238 237 239 240 239 232 177 138 123 
173 224 241 241 240 238 236 238 238 239 239 239 240 239 239 240 
240 240 239 239 240 239 239 238 238 239 237 237 238 239 237 237 
239 239 239 226 224 225 223 226 224 221 225 225 226 226 226 224 222 223 225 226 
228 227 228 229 229 230 231 231 231 231 231 230 229 231 234 233 
237 229 204 162 163 168 210 226 236 234 234 235 234 234 236 235 
233 235 236 236 235 238 236 232 225 224 176 152 101 138 198 235 
242 240 238 238 238 236 237 237 239 239 238 239 239 239 240 239 
238 238 238 240 237 238 239 239 237 241 238 238 238 238 238 237 
238 238 237 226 225 225 226 225 224 224 225 226 224 224 225 221 224 223 225 225 
225 225 227 230 229 229 230 228 230 230 230 231 230 231 231 230 
230 232 233 234 233 216 185 151 135 156 182 195 205 207 203 225 
214 213 214 188 157 150 152 140 156 138 154 193 226 238 242 241 
238 238 238 237 237 240 238 238 238 238 238 238 237 238 238 240 
239 239 238 238 239 237 239 238 237 238 238 237 238 238 237 237 
238 237 236 226 225 225 225 224 225 225 224 223 224 223 224 225 224 223 225 227 
226 225 227 228 227 225 228 230 231 229 230 231 230 231 231 229 
232 230 229 233 234 235 235 236 233 220 214 188 176 150 154 164 
183 179 187 196 198 215 224 237 237 239 241 240 240 241 238 238 
238 236 235 237 236 238 238 237 237 238 238 237 237 239 239 240 
238 237 240 239 239 238 238 238 237 239 238 236 235 234 238 238 
239 236 236 226 223 225 224 223 224 222 223 222 223 224 224 221 223 223 224 224 
225 226 223 226 228 229 229 230 230 231 230 230 228 230 231 229 
229 229 230 227 231 232 231 232 234 234 236 234 235 236 236 234 
235 234 236 238 238 239 238 236 236 237 237 237 237 236 237 237 
237 235 236 236 237 237 237 238 238 238 239 238 239 238 237 239 
237 239 238 238 240 237 238 237 237 237 237 237 238 236 239 237 
238 236 236 227 225 227 224 226 223 225 224 224 223 223 224 223 223 222 223 224 
224 225 225 226 226 227 229 230 231 231 230 230 230 230 228 229 
229 230 229 231 230 232 232 232 232 233 233 232 232 234 234 234 
233 233 234 233 234 233 235 235 235 235 235 236 235 236 236 235 
235 236 237 237 237 238 237 237 238 237 237 239 238 237 238 240 
238 237 237 239 238 237 238 238 237 237 236 235 238 236 236 237 
237 237 239 226 225 224 225 224 227 225 224 223 223 224 223 222 223 222 221 224 
223 226 227 227 225 227 228 230 229 229 230 230 230 230 229 230 
230 230 230 230 231 232 231 232 231 231 231 233 232 231 230 233 
232 232 232 233 234 235 234 234 233 234 234 235 236 236 237 236 
237 237 237 237 237 237 237 237 236 236 238 238 238 237 237 238 
238 238 238 239 238 236 237 238 236 238 236 236 235 237 237 236 
238 237 237 225 225 225 225 226 222 224 225 224 224 223 223 224 223 220 222 224 
226 225 226 227 226 228 229 229 229 230 231 230 229 230 230 229 
228 230 231 230 229 229 230 232 232 232 231 232 232 232 232 230 
231 234 234 233 233 234 234 234 235 234 232 233 236 236 236 237 
237 236 236 236 235 236 236 236 238 238 238 238 237 237 238 236 
237 239 237 236 236 236 238 237 237 238 236 237 236 238 236 237 
237 237 237 225 223 225 223 226 225 225 223 223 223 223 223 222 223 223 223 222 
225 225 226 225 225 226 224 228 229 229 229 228 228 227 227 229 
228 227 228 230 229 231 230 232 231 231 230 231 231 231 231 231 
231 233 233 233 233 233 233 233 233 234 232 233 235 235 234 235 
236 237 237 237 236 237 236 237 237 236 238 238 236 238 238 239 
238 238 237 237 237 237 236 235 235 235 235 236 236 236 236 236 
235 237 235 223 225 224 225 223 222 223 223 223 221 223 222 222 222 222 223 222 
224 225 225 224 228 225 228 228 230 229 230 230 230 230 228 229 
228 229 229 229 228 228 229 229 231 231 232 230 229 230 230 230 
231 231 230 232 231 233 233 233 232 233 233 234 236 236 237 236 
236 236 237 236 236 238 235 236 238 238 237 236 236 237 237 237 
238 236 237 237 239 236 235 236 235 236 236 234 236 235 235 235 
236 236 237 