P2
# Created by IrfanView
100 100
255
221 221 220 220 222 221 221 221 221 222 222 221 222 222 222 220 219 
220 218 221 221 219 220 220 220 221 221 221 220 220 221 221 221 
221 220 219 222 220 221 222 219 219 219 219 217 218 219 220 217 
219 218 219 218 218 217 217 215 214 215 217 217 219 218 218 221 
222 221 220 220 221 219 221 221 222 222 220 221 220 219 220 220 
218 215 214 215 217 217 216 215 214 214 216 217 216 216 216 217 
217 215 214 221 222 219 221 221 221 221 222 223 221 222 223 223 223 221 221 221 
221 220 219 220 221 220 221 219 220 221 220 219 221 220 221 222 
222 221 220 218 220 218 219 220 218 220 219 220 220 221 221 219 
220 218 219 218 216 216 218 217 217 217 217 217 220 220 218 218 
221 220 220 220 221 220 220 220 221 221 220 220 219 220 220 219 
218 216 217 217 218 217 218 216 214 214 219 215 217 216 217 216 
216 214 215 222 221 221 223 222 221 223 223 222 222 221 222 223 222 224 222 221 
223 222 223 223 221 221 219 221 221 221 220 222 221 221 221 221 
220 219 218 221 221 219 220 219 222 220 221 221 220 219 219 220 
220 219 219 219 217 217 217 219 219 218 218 218 222 221 219 218 
220 220 219 221 220 220 221 223 221 219 221 222 221 219 219 221 
221 218 218 217 217 218 218 217 216 216 215 216 218 217 215 217 
215 217 217 222 224 222 222 223 223 222 222 225 225 224 223 221 224 222 223 222 
221 222 223 222 222 221 223 223 223 220 221 220 221 220 223 221 
222 220 221 220 219 221 221 221 220 220 220 219 221 220 220 219 
219 220 220 219 218 219 218 218 219 217 219 221 223 223 219 220 
220 219 221 221 219 220 221 218 221 222 221 223 221 222 220 219 
219 220 218 217 217 217 217 219 217 218 217 216 217 217 217 215 
215 215 217 223 222 223 223 222 222 223 224 222 225 224 224 224 223 225 223 223 
222 222 223 223 223 224 223 224 222 223 222 220 220 224 225 223 
223 223 222 223 221 221 220 220 219 221 222 221 221 220 217 221 
222 222 219 219 218 217 218 218 218 219 219 221 222 220 219 219 
219 220 220 219 220 220 222 221 220 220 220 220 220 220 222 221 
219 219 219 215 218 217 217 218 217 218 218 217 218 218 218 217 
217 215 215 225 223 223 224 225 223 222 223 226 225 224 226 224 222 223 223 220 
222 223 222 224 223 223 224 224 225 225 223 224 222 223 222 222 
223 224 222 222 222 221 220 220 222 222 221 223 222 220 220 222 
222 221 220 221 222 221 222 221 219 219 219 219 218 219 221 221 
219 219 220 221 220 220 222 220 221 220 219 219 220 221 220 220 
217 218 216 218 218 217 217 218 219 218 220 218 219 217 216 216 
216 218 218 222 224 224 223 223 224 226 226 226 227 227 226 223 223 223 225 226 
224 225 225 224 224 224 224 224 223 223 223 223 225 224 224 223 
223 223 221 221 225 224 223 226 225 223 221 217 207 202 200 195 
195 194 200 197 203 216 218 223 222 219 223 221 220 218 219 219 
219 219 222 218 220 220 219 222 220 220 219 219 220 220 220 219 
218 217 215 216 218 220 218 217 218 216 217 218 217 218 216 215 
216 216 217 225 224 225 225 225 226 226 226 227 226 227 224 225 222 225 224 224 
225 226 223 225 225 225 224 225 223 223 225 223 224 224 224 223 
223 222 223 225 222 218 211 181 178 178 179 175 178 184 188 190 
196 194 187 174 166 162 159 150 170 184 210 215 220 224 223 220 
220 219 219 218 218 218 218 219 219 220 220 219 220 223 221 219 
218 219 218 218 219 215 218 217 217 219 217 217 218 217 219 217 
216 217 215 226 225 226 225 226 225 226 227 226 223 225 227 225 224 226 224 226 
225 226 226 226 225 227 227 225 227 225 224 225 225 226 230 230 
228 222 209 187 171 178 193 212 222 229 231 230 228 230 226 228 
228 228 229 230 229 230 231 228 217 199 176 172 161 186 210 218 
220 220 220 217 218 219 220 220 220 219 219 220 219 220 218 217 
218 220 218 217 217 217 215 216 219 216 217 219 218 218 215 213 
216 217 217 227 229 226 226 226 227 227 226 228 229 228 229 229 227 226 228 228 
228 226 227 227 228 228 226 227 225 226 226 226 228 228 225 209 
177 170 180 214 226 226 226 227 227 227 227 225 227 226 224 222 
223 224 222 225 225 224 225 226 227 226 225 227 217 191 153 163 
186 212 222 221 219 219 219 221 221 218 220 219 218 220 221 221 
219 219 220 218 217 216 216 219 219 219 219 217 217 220 217 216 
217 217 217 229 229 229 227 227 228 230 229 228 228 228 228 228 229 228 229 228 
227 228 229 229 227 227 227 227 227 227 228 229 233 205 168 172 
215 231 227 226 224 223 222 223 223 227 227 227 227 224 226 226 
224 224 224 225 223 223 225 225 223 225 225 224 227 230 230 214 
183 169 188 210 219 218 218 221 219 219 216 218 218 218 218 218 
219 219 217 217 218 218 217 216 220 217 218 218 216 216 217 216 
217 217 218 229 229 230 229 229 229 229 229 230 230 229 230 228 227 229 230 229 
230 230 229 230 229 229 229 226 226 228 231 230 184 177 222 231 
230 228 224 221 221 221 222 223 225 227 227 228 228 228 226 225 
226 226 226 227 224 226 224 224 224 225 224 223 224 225 226 225 
227 226 207 178 180 211 222 221 219 219 220 220 219 218 218 218 
218 219 218 218 217 217 215 217 217 218 218 218 218 216 217 219 
218 218 218 228 229 229 230 229 229 229 231 229 230 230 229 230 230 230 229 230 
230 229 230 231 228 229 230 229 231 232 215 155 185 229 229 228 
224 223 224 223 223 225 224 227 227 227 228 226 227 227 226 226 
226 226 227 225 224 226 226 227 226 225 223 223 226 225 224 226 
224 225 224 225 195 175 195 216 220 219 217 219 219 217 219 218 
217 215 218 217 216 216 217 217 217 218 218 217 217 219 219 218 
216 220 220 229 232 231 230 230 228 231 230 230 230 231 233 232 231 230 230 230 
228 228 231 231 230 230 229 232 235 179 150 215 231 228 225 225 
224 227 227 226 227 226 227 227 230 230 229 229 228 229 229 230 
231 230 227 226 227 226 225 227 226 226 225 227 223 224 225 224 
225 223 224 224 227 217 201 179 210 219 217 217 216 216 215 214 
213 214 212 216 216 215 217 217 216 217 217 219 217 219 218 217 
219 220 218 229 229 232 231 233 232 230 231 232 233 229 230 232 231 233 233 232 
231 232 231 230 230 231 230 226 173 207 231 230 228 229 227 228 
227 225 227 226 228 229 229 230 231 229 229 229 229 230 230 230 
230 230 231 229 230 229 228 228 227 227 226 224 227 227 227 226 
224 224 222 225 223 223 224 207 183 188 212 214 215 216 214 213 
214 214 213 213 215 215 215 216 217 219 219 218 218 217 219 219 
219 219 222 229 234 232 232 232 232 232 232 230 231 233 231 232 232 233 232 232 
231 231 232 231 232 233 209 182 223 232 231 228 229 227 227 227 
227 227 227 228 229 232 232 232 231 231 231 231 231 231 229 230 
229 229 232 228 231 228 230 228 224 227 227 227 227 226 226 226 
224 225 225 225 222 224 222 226 221 192 188 212 219 216 214 214 
214 214 214 214 212 216 216 217 218 219 217 218 216 217 217 220 
220 221 219 232 231 232 232 232 232 233 233 232 233 232 233 232 232 234 231 233 
232 231 232 232 233 194 195 233 230 231 230 228 229 229 230 228 
227 230 230 232 234 234 233 233 233 233 233 233 230 231 230 230 
228 230 229 229 227 228 228 228 225 225 227 228 225 226 225 224 
226 227 225 224 225 222 223 223 224 221 202 190 204 215 214 215 
214 213 214 215 215 213 216 218 218 220 220 219 220 221 221 218 
221 220 220 230 232 232 232 233 233 232 233 233 232 232 233 234 232 233 233 231 
233 232 232 231 180 207 235 234 230 232 232 228 230 231 225 228 
227 232 233 235 235 235 235 235 234 234 234 234 233 233 231 231 
231 232 232 231 232 229 229 226 228 228 228 226 227 226 226 225 
224 224 225 226 227 227 224 224 223 220 219 209 178 190 209 214 
214 215 216 217 216 217 216 218 220 220 219 221 220 221 220 220 
221 221 221 233 233 232 232 234 233 233 234 232 234 235 233 233 234 233 234 234 
232 234 230 179 213 234 229 232 232 233 232 234 232 231 231 230 
236 237 236 237 236 235 234 235 234 234 234 233 234 233 233 232 
233 231 230 230 226 226 227 226 225 226 227 227 228 226 227 227 
223 227 226 226 226 225 224 224 224 219 218 219 214 180 182 198 
213 211 214 217 217 218 215 216 218 221 221 223 222 221 221 221 
223 222 221 232 234 232 233 234 234 233 233 235 232 235 234 234 234 233 235 232 
235 229 181 217 235 233 232 233 235 233 233 233 232 232 232 238 
237 236 235 235 235 235 236 236 234 235 234 234 233 232 234 231 
233 233 234 232 230 230 229 227 226 228 228 227 228 226 227 227 
226 227 228 225 226 227 224 225 224 221 218 218 216 216 178 156 
145 211 213 216 217 220 220 218 220 223 222 222 222 221 223 222 
223 224 222 233 234 234 235 234 236 235 235 235 234 235 234 234 234 235 235 236 
231 176 224 234 234 233 231 233 234 234 234 234 232 233 236 235 
234 236 236 236 236 236 235 234 234 234 235 235 233 234 231 233 
233 234 230 231 229 231 230 227 226 228 229 229 226 228 226 223 
226 228 226 225 225 222 224 225 225 222 219 218 220 220 208 193 
149 148 208 216 217 220 219 221 220 224 225 223 225 224 224 223 
225 224 224 234 234 234 235 235 234 235 235 234 235 235 235 234 236 234 236 234 
182 222 236 231 234 233 233 235 235 234 234 235 235 235 237 236 
236 235 236 235 236 236 235 234 234 235 236 237 235 236 235 233 
233 233 232 232 230 229 230 231 229 231 231 229 227 228 228 227 
228 228 228 224 224 224 224 224 222 220 221 217 219 218 216 215 
203 144 163 220 220 222 225 221 222 222 223 225 224 224 222 224 
224 226 226 234 234 235 235 235 235 234 234 236 234 236 236 235 234 234 237 186 
210 238 233 233 236 234 235 235 235 234 235 233 233 237 238 236 
235 236 236 236 237 236 236 235 234 237 236 235 234 232 235 234 
235 234 232 231 230 230 230 231 229 231 231 230 229 229 229 227 
229 227 229 227 226 225 226 226 223 222 223 221 221 220 219 218 
221 207 143 197 223 221 221 223 224 223 224 224 224 224 224 224 
225 224 225 235 235 235 235 236 236 236 235 235 235 236 236 235 235 236 205 195 
238 234 237 232 234 235 235 235 235 234 235 234 234 236 239 237 
236 237 236 236 236 237 237 236 237 236 236 234 234 234 235 234 
233 234 233 231 233 232 232 231 231 231 231 229 229 230 230 229 
228 230 227 226 224 226 226 225 221 221 222 221 223 221 223 223 
224 225 211 163 219 223 224 224 223 225 224 225 225 226 226 227 
225 225 226 236 236 235 234 234 236 237 237 236 235 236 236 236 234 223 188 236 
235 235 236 234 235 235 235 236 235 235 236 234 235 237 238 238 
237 237 238 237 236 237 237 237 237 236 235 237 237 236 236 235 
235 235 234 233 233 233 232 231 232 232 230 231 231 231 231 229 
230 230 231 228 227 225 226 226 224 222 221 219 219 222 224 224 
226 229 231 188 193 221 222 226 224 225 226 227 228 227 226 226 
224 225 226 235 237 237 237 238 237 236 236 237 237 237 236 236 233 180 232 234 
235 235 233 234 234 237 235 235 235 235 234 235 236 238 238 239 
236 237 237 237 239 237 237 236 238 236 236 237 236 236 236 234 
237 235 235 234 234 234 232 231 232 231 233 231 231 230 231 231 
230 230 231 230 229 228 227 225 224 222 223 224 223 226 226 228 
227 227 229 229 174 216 225 226 223 223 227 228 228 228 228 227 
227 227 227 237 235 237 237 236 237 236 237 237 237 237 235 237 191 216 235 234 
236 236 235 235 236 234 236 236 236 236 237 236 237 239 240 237 
237 237 236 232 235 236 236 237 235 236 237 236 236 237 236 236 
236 236 235 233 234 234 234 233 233 233 232 231 231 232 233 231 
230 231 230 231 231 229 229 227 226 226 225 226 226 229 230 228 
230 231 229 231 218 186 225 227 227 227 229 228 227 228 229 229 
229 229 230 238 237 235 236 237 236 238 238 239 238 236 237 226 172 236 234 236 
236 235 236 236 235 236 236 235 237 236 235 235 237 240 237 236 
237 237 237 238 236 236 236 236 236 235 237 236 236 235 234 236 
236 236 234 235 233 234 233 233 233 233 233 232 232 232 233 232 
232 232 234 231 231 231 230 230 228 229 228 228 226 233 235 233 
232 234 232 233 233 199 217 227 230 232 233 231 229 231 230 230 
229 230 230 237 240 238 237 240 239 238 237 238 237 238 240 171 231 235 235 236 
235 237 236 237 237 236 238 238 236 237 236 237 237 238 237 236 
237 237 235 237 235 236 237 236 236 237 236 235 237 236 235 237 
236 236 235 234 235 234 232 233 234 233 233 233 233 233 233 233 
234 233 232 232 228 230 232 230 229 229 234 233 233 233 235 235 
235 235 233 236 238 234 200 231 232 233 232 231 232 231 233 233 
231 230 229 237 238 237 238 237 238 237 238 237 236 236 211 191 235 236 236 237 
236 237 236 237 237 237 237 236 237 236 236 236 237 236 237 236 
235 238 236 236 236 236 235 235 236 236 236 236 235 234 235 234 
235 233 234 234 236 236 236 234 235 235 234 234 233 235 234 234 
221 180 151 171 163 161 166 172 168 179 207 212 237 236 237 236 
235 235 237 235 235 237 207 212 233 234 234 231 231 233 231 231 
232 233 231 238 237 237 238 238 238 238 238 238 239 237 159 235 236 236 236 237 
239 237 237 238 238 238 238 239 239 238 240 236 240 241 239 239 
239 239 237 235 235 238 236 237 235 235 235 235 235 236 235 236 
236 234 234 234 235 235 235 235 235 233 235 234 218 191 162 152 
137 174 199 215 217 220 224 227 214 207 181 161 158 211 235 237 
236 236 235 236 235 237 234 182 233 236 236 236 235 234 233 233 
234 233 232 236 238 239 240 239 239 238 240 238 238 214 191 238 237 236 238 236 
236 236 237 238 239 238 238 228 216 232 232 236 238 235 237 239 
236 237 237 236 237 234 236 233 234 236 236 236 235 236 234 234 
234 235 234 234 235 235 235 235 236 235 231 153 120 154 203 220 
232 235 237 236 234 234 236 235 234 236 237 237 215 170 198 237 
238 237 238 238 238 237 239 207 220 234 236 236 235 234 233 235 
233 233 231 239 238 237 237 238 239 238 237 239 240 164 236 237 235 236 238 237 
236 237 238 238 238 215 157 135 124 131 115 122 139 137 128 155 
172 165 197 223 235 239 238 237 236 236 234 234 234 234 235 235 
234 235 234 235 235 235 235 235 235 235 193 173 231 239 238 236 
235 233 232 233 234 233 232 232 233 235 236 236 240 239 187 173 
225 238 239 241 239 239 238 232 176 232 235 235 234 234 233 233 
233 233 230 239 238 239 241 240 240 240 240 240 224 171 237 236 236 238 236 238 
237 237 239 239 241 152 169 217 225 225 217 202 208 201 201 180 
172 148 114 116 140 169 211 230 237 238 236 234 233 234 234 235 
235 235 235 235 236 235 235 236 236 235 234 233 236 235 235 234 
234 233 233 233 234 233 233 235 233 233 233 235 237 238 242 220 
178 222 240 237 238 239 239 239 184 220 236 234 233 234 234 233 
234 232 232 239 239 239 239 239 238 236 239 241 169 225 236 237 237 238 238 238 
239 240 239 239 240 238 245 242 240 241 241 242 241 241 239 239 
241 240 232 214 201 148 116 111 135 209 232 233 233 234 234 235 
236 235 236 234 234 235 235 234 234 235 236 236 234 236 234 235 
234 234 233 235 235 233 233 234 233 234 236 236 237 236 240 240 
239 235 239 239 237 240 239 240 226 185 233 234 234 234 233 233 
233 233 234 239 240 239 238 239 240 238 239 240 148 240 237 237 237 239 240 238 
239 240 242 241 241 241 241 239 237 237 239 239 237 239 238 238 
238 238 239 238 241 243 242 225 172 104 162 231 232 233 233 233 
235 234 234 235 235 235 236 235 237 236 235 235 235 235 235 235 
236 233 234 234 235 234 235 234 234 234 234 235 237 238 237 238 
240 240 239 239 239 239 239 239 238 169 226 233 234 235 235 233 
234 234 233 239 239 239 239 240 239 239 239 221 171 238 238 236 235 239 238 238 
240 241 242 241 241 240 239 240 239 237 236 237 237 238 237 237 
237 237 238 238 238 237 240 240 242 228 135 145 231 233 233 233 
235 233 234 234 235 235 234 235 235 235 236 236 235 235 237 235 
217 233 234 234 235 234 234 235 234 234 235 237 237 238 237 239 
239 239 238 239 238 238 239 238 239 191 198 233 235 235 235 234 
234 234 234 240 239 239 240 240 240 239 238 234 142 235 240 239 239 239 237 239 
240 241 240 240 240 240 239 238 239 238 238 237 239 236 238 237 
235 237 237 237 236 237 239 237 238 240 240 206 234 235 236 235 
235 236 234 235 235 235 235 236 237 236 235 236 237 236 235 230 
151 231 234 234 231 233 234 235 234 234 236 236 236 237 236 238 
238 238 239 239 238 239 239 238 238 224 178 233 234 233 233 234 
234 234 232 237 240 240 241 240 239 240 241 201 143 238 238 237 237 239 241 240 
239 241 241 240 241 240 240 240 239 239 237 237 237 238 237 237 
236 237 237 235 237 238 239 235 235 236 237 238 236 235 235 236 
234 235 235 236 236 236 237 235 235 235 236 235 235 236 236 239 
178 153 229 234 233 232 233 234 231 234 234 235 237 238 239 237 
240 239 238 240 237 238 238 239 238 234 139 222 234 234 233 235 
234 234 235 241 242 241 241 241 240 241 241 181 182 240 240 238 236 241 241 239 
241 240 240 240 240 240 240 238 237 236 238 237 237 238 238 236 
238 238 237 239 239 236 188 231 235 234 234 233 235 235 236 236 
234 236 235 236 235 234 236 235 236 236 236 237 238 237 236 237 
238 157 175 228 235 234 231 231 232 232 234 233 238 238 238 238 
242 239 238 239 238 240 238 238 238 237 194 224 232 235 235 234 
233 233 232 243 243 242 240 243 241 242 242 180 219 242 240 240 239 241 242 241 
241 240 240 239 239 238 238 237 237 236 236 238 238 239 237 237 
238 237 240 239 231 178 167 236 236 236 235 236 236 237 236 236 
235 237 235 234 236 236 235 237 235 236 235 236 236 235 237 235 
234 237 169 138 182 232 235 233 232 231 233 235 237 237 235 235 
238 239 237 237 236 237 237 238 239 235 198 192 228 233 233 233 
233 233 233 244 243 241 240 241 240 239 245 160 239 240 240 242 242 243 242 240 
241 241 241 240 240 239 240 238 240 237 237 238 237 238 238 240 
240 241 238 205 154 180 237 236 236 235 234 235 234 235 235 235 
234 235 235 235 236 237 236 236 237 235 238 237 236 236 237 236 
237 237 238 190 128 145 199 230 234 235 233 236 237 235 236 238 
239 239 237 237 239 237 236 237 236 236 225 170 227 233 236 233 
234 234 234 243 241 242 242 242 241 242 242 159 241 241 242 241 241 242 242 240 
240 242 241 239 240 240 238 237 237 238 239 238 238 240 240 239 
229 207 145 148 218 238 236 237 237 236 237 237 236 237 237 237 
236 236 235 235 235 237 235 236 235 236 235 237 235 237 236 236 
234 234 236 240 231 182 138 160 191 228 236 240 238 239 238 239 
241 239 237 235 235 237 236 236 236 237 228 178 225 235 234 232 
233 231 233 242 241 241 242 242 242 242 231 161 243 241 239 239 239 241 240 241 
239 217 242 242 243 242 242 240 240 239 238 238 236 212 173 141 
134 145 213 237 239 238 236 235 236 235 237 238 236 236 236 235 
236 235 235 235 236 235 237 236 236 236 236 236 237 235 236 236 
235 236 235 235 237 238 229 174 131 144 185 200 229 236 235 231 
192 189 234 235 236 235 235 236 235 235 234 178 223 231 233 234 
232 235 235 242 243 243 241 241 241 242 212 192 241 239 240 240 241 239 243 240 
242 150 189 208 231 238 241 237 237 238 224 179 132 124 161 195 
224 240 242 240 238 236 237 240 237 238 236 236 237 237 237 238 
237 235 235 236 237 236 236 235 235 236 236 234 235 236 236 235 
234 235 235 233 235 236 236 238 235 199 179 132 127 146 131 134 
126 179 236 235 234 235 237 237 235 236 237 187 222 233 234 233 
233 232 232 243 242 244 241 243 242 243 203 202 241 241 241 240 241 240 240 240 
241 219 131 119 121 118 136 140 152 150 143 153 202 235 240 241 
240 241 239 238 237 237 238 236 237 238 237 237 237 236 236 236 
238 235 236 234 235 237 237 237 236 237 236 237 237 236 235 235 
234 235 235 236 235 235 235 236 238 238 236 232 216 200 211 201 
217 234 234 235 235 237 236 235 236 236 235 191 217 230 233 233 
233 233 235 242 243 242 242 241 242 244 189 216 241 242 242 240 240 241 241 242 
240 242 241 226 209 214 182 177 160 194 199 235 239 238 239 239 
239 236 239 240 239 238 238 237 238 237 236 237 236 237 238 237 
237 238 236 237 237 236 236 236 236 236 234 235 236 236 235 234 
233 234 234 234 234 235 233 235 235 235 238 241 240 240 239 241 
240 236 235 236 236 235 235 237 235 235 235 202 216 233 233 235 
233 232 232 242 242 241 242 242 243 244 173 224 242 242 242 241 241 241 241 241 
241 241 240 241 244 239 240 239 240 242 240 240 237 240 239 240 
238 239 240 238 238 239 238 238 240 237 235 236 236 238 236 236 
235 235 237 237 237 237 236 238 236 237 235 235 234 234 236 235 
233 235 233 234 234 235 235 235 236 237 237 236 236 237 236 237 
237 237 236 236 237 234 236 237 237 237 236 204 217 234 234 233 
234 234 234 244 241 242 242 243 244 244 175 226 241 243 243 241 241 241 240 241 
241 240 240 241 239 239 240 240 241 239 239 238 238 239 240 238 
240 238 239 239 240 239 240 240 236 236 238 238 235 234 235 236 
237 236 235 235 236 236 236 236 236 233 235 234 233 234 233 233 
234 233 234 234 235 234 235 234 237 238 238 236 237 236 236 237 
236 237 237 236 235 235 237 236 237 235 237 201 214 234 233 233 
232 233 234 243 244 243 243 242 242 244 181 219 241 241 240 241 243 241 242 241 
241 241 239 240 240 240 241 238 238 240 239 240 239 240 241 240 
239 240 240 238 239 240 240 241 237 237 240 218 232 237 237 236 
235 236 237 237 236 236 236 237 225 179 232 234 236 232 233 233 
232 233 236 234 233 234 234 235 236 237 237 237 237 236 237 237 
236 236 236 236 237 235 236 235 235 236 237 202 217 235 232 233 
232 233 233 243 243 242 241 243 243 244 171 219 241 240 240 241 241 242 242 241 
242 242 242 240 242 242 241 240 240 239 240 240 238 240 241 240 
239 239 239 240 240 240 239 238 238 240 195 157 235 238 236 236 
237 237 235 236 236 236 236 237 235 136 170 193 235 234 233 233 
233 233 234 233 234 235 234 236 236 237 236 235 237 234 236 235 
236 236 236 236 236 236 236 237 236 237 237 207 204 232 233 232 
234 233 233 241 244 244 243 243 242 243 178 218 241 240 240 241 241 242 241 242 
240 241 240 240 242 241 241 241 242 240 241 241 242 240 239 240 
240 239 241 239 241 241 239 238 238 228 99 202 237 239 237 236 
237 237 239 237 236 237 236 238 239 191 133 120 150 226 235 232 
229 233 232 234 233 233 235 234 235 238 237 236 236 236 237 236 
237 237 235 237 237 238 236 238 238 237 237 201 213 234 234 233 
233 233 233 242 242 242 240 243 244 243 189 210 243 241 240 241 241 242 242 242 
242 241 242 241 242 241 242 242 240 241 241 240 241 240 241 241 
241 241 240 240 239 240 239 238 239 172 95 220 236 239 237 237 
236 235 236 235 238 238 237 237 238 242 154 170 163 166 230 235 
232 233 233 233 235 235 235 235 236 236 236 237 235 237 237 237 
238 238 238 236 236 236 237 237 237 237 238 199 208 234 233 233 
233 234 234 241 243 243 244 243 243 245 191 204 239 239 241 239 241 242 241 241 
240 241 241 242 241 242 241 241 242 242 240 241 240 242 240 241 
241 241 241 240 239 239 239 237 222 169 151 218 235 239 237 236 
235 238 236 237 238 236 236 237 238 239 233 123 224 175 151 213 
233 232 232 234 235 234 235 237 237 235 235 235 236 238 236 237 
237 236 237 237 238 235 237 238 236 236 237 191 219 232 234 233 
232 233 232 244 244 244 243 243 243 244 206 185 240 240 241 241 241 241 241 244 
242 242 242 241 241 241 241 240 242 241 241 241 240 240 241 241 
240 239 240 238 236 240 238 236 165 229 170 225 236 238 238 239 
237 237 238 236 236 238 238 239 238 238 240 161 179 235 189 132 
223 232 232 232 234 233 235 236 235 235 235 236 237 238 238 236 
237 237 236 238 236 237 237 237 238 237 237 193 218 233 234 234 
233 232 232 244 244 244 244 243 242 244 224 170 242 242 241 241 242 242 242 243 
242 243 242 243 241 242 240 241 242 242 241 239 241 240 241 239 
241 241 240 241 239 239 237 200 190 239 152 215 237 238 237 239 
238 236 237 236 237 237 238 238 238 238 237 216 127 232 238 186 
155 220 232 231 234 234 236 233 233 234 234 235 238 238 235 237 
237 237 237 237 238 237 236 236 235 237 237 188 222 234 234 234 
232 233 233 243 244 242 243 244 244 243 236 153 241 242 242 242 244 242 243 242 
241 241 242 243 242 242 242 242 242 241 242 242 242 242 239 241 
241 241 241 240 238 239 235 155 234 236 154 236 239 241 242 240 
243 241 238 241 238 237 237 237 236 237 234 236 134 203 232 236 
183 129 213 231 234 233 234 235 235 235 234 235 238 240 236 237 
236 236 237 238 237 236 238 235 237 236 234 182 232 234 237 233 
233 234 234 243 244 244 244 243 244 244 245 137 243 243 243 244 242 241 240 242 
241 242 243 242 242 242 242 239 241 241 241 240 241 241 241 242 
242 241 242 240 238 240 192 188 238 233 155 226 208 199 214 211 
213 218 223 233 238 240 239 237 238 237 237 235 190 133 231 232 
238 205 143 206 234 234 235 235 234 234 234 235 238 238 237 236 
235 235 236 237 239 238 236 237 237 237 231 187 231 232 234 233 
233 233 233 244 244 243 244 244 243 244 247 125 218 243 243 242 242 241 241 242 
242 242 241 242 242 242 243 243 242 241 240 241 242 241 241 241 
241 242 239 240 238 239 155 225 229 156 113 159 169 183 176 173 
163 154 154 151 176 208 225 226 228 238 238 235 235 134 195 232 
234 234 212 148 202 236 236 234 232 231 234 234 235 237 236 237 
236 235 234 237 236 235 236 235 235 235 225 197 232 232 234 232 
234 234 234 242 243 243 243 244 243 244 245 187 183 241 242 242 242 241 241 242 
242 242 241 241 241 242 240 241 243 241 240 241 242 243 241 241 
241 239 240 238 235 199 110 148 149 134 194 238 241 242 242 241 
242 242 240 214 212 182 174 159 152 181 213 215 231 212 123 225 
232 232 236 227 149 164 225 235 233 232 234 233 235 236 236 234 
234 233 234 237 238 236 236 234 236 234 204 199 232 232 234 233 
233 233 233 243 243 245 244 244 243 245 244 229 167 243 242 242 241 242 242 242 
243 242 243 242 242 241 243 243 243 241 241 242 242 241 243 241 
242 238 240 214 156 104 169 223 239 163 228 239 240 240 241 242 
242 241 240 240 241 240 239 239 231 207 181 150 150 158 146 157 
233 235 234 235 230 183 147 221 236 234 236 238 240 240 237 237 
236 234 235 236 236 235 235 234 235 233 179 219 230 232 233 233 
232 232 232 245 244 244 243 244 245 244 244 243 147 241 240 242 241 242 242 242 
241 242 242 242 242 243 241 242 243 242 240 240 242 241 241 242 
242 240 242 156 164 157 240 242 236 162 240 238 239 242 241 241 
239 240 241 240 239 239 239 241 241 241 237 234 232 199 168 85 
165 212 229 234 235 236 196 126 173 233 234 232 191 177 183 223 
237 234 234 236 235 234 233 234 232 230 163 224 231 233 233 233 
233 234 234 244 245 244 245 243 243 244 244 244 173 224 241 241 242 242 242 241 
242 242 242 242 241 242 243 242 243 242 243 243 242 241 242 241 
241 239 241 219 147 223 239 238 194 203 239 240 240 241 240 240 
240 238 239 239 239 239 239 238 237 238 235 236 238 238 236 181 
89 141 138 229 233 234 235 227 148 128 189 151 174 182 158 114 
215 234 234 235 235 234 235 235 235 235 180 227 231 232 233 232 
234 233 233 245 244 244 244 244 244 244 244 245 212 180 243 241 243 242 243 242 
242 242 242 242 242 241 241 242 242 241 242 241 242 242 241 242 
241 240 240 217 163 239 241 242 151 227 235 238 241 241 240 240 
240 239 239 238 240 239 238 238 236 238 237 236 237 237 236 237 
126 167 181 232 234 232 235 237 239 157 142 222 237 239 237 201 
131 227 234 235 234 235 235 235 236 205 201 230 233 233 233 234 
233 233 233 244 244 244 243 244 245 245 245 245 237 136 241 242 242 243 242 243 
242 242 242 242 242 242 242 242 242 242 242 242 243 242 241 241 
241 241 242 159 225 238 241 227 159 235 237 238 239 241 241 238 
239 240 239 240 240 239 241 239 238 238 236 236 235 236 235 237 
227 123 207 233 234 233 232 232 237 235 236 235 236 237 237 237 
166 228 232 234 234 235 234 233 236 180 221 234 234 234 233 232 
233 234 234 245 246 245 245 244 245 245 246 245 246 167 215 242 243 244 242 240 
241 242 242 242 241 242 242 242 240 242 242 242 242 241 241 241 
241 241 206 179 240 238 240 208 197 237 237 238 240 239 240 241 
239 240 240 240 240 239 238 240 240 237 236 237 237 236 235 235 
237 188 158 232 234 234 232 232 234 236 236 234 235 239 235 228 
190 229 234 234 235 234 234 234 231 183 230 232 234 234 233 234 
233 233 234 244 244 244 247 245 245 246 245 244 246 228 161 242 241 241 241 244 
242 242 242 242 241 241 242 243 241 239 241 240 242 242 243 243 
241 234 153 236 240 238 240 178 218 236 239 238 240 239 241 240 
240 240 240 240 239 239 239 238 237 238 238 237 237 238 236 235 
227 187 225 233 234 234 233 234 235 234 233 233 228 228 214 170 
224 233 234 233 235 234 234 235 198 207 234 236 236 233 233 234 
233 234 234 245 245 245 246 244 245 244 245 244 244 245 157 233 242 243 241 241 
242 241 242 243 242 243 242 243 243 241 241 242 243 241 243 243 
241 189 182 240 240 239 240 169 232 238 236 237 238 239 242 239 
240 238 239 240 239 240 239 239 238 238 236 237 238 237 236 236 
177 234 234 233 235 234 235 236 235 234 236 235 103 96 156 225 
235 235 235 234 234 234 234 230 182 227 232 235 234 234 233 233 
234 234 233 245 245 245 244 244 244 245 244 244 244 246 214 171 244 241 239 239 
241 241 240 242 241 242 242 241 242 242 242 242 235 190 182 190 
212 130 233 238 240 238 222 163 234 233 236 236 238 238 238 239 
238 239 239 240 239 239 239 240 239 239 238 236 238 237 238 239 
169 235 234 235 233 233 235 235 234 234 234 234 170 143 233 237 
234 236 235 234 234 235 235 211 201 232 231 232 233 233 233 233 
233 234 235 246 244 244 245 246 244 243 245 244 246 245 246 143 238 240 241 241 
241 242 242 242 240 241 241 242 242 242 241 205 188 229 232 211 
180 201 239 239 238 239 213 169 233 236 237 237 237 238 240 238 
239 238 238 239 239 239 238 238 239 239 239 239 239 239 238 236 
161 236 236 233 235 236 234 235 235 235 235 236 236 110 228 234 
234 237 235 234 235 236 232 183 226 232 234 234 233 233 233 234 
234 234 232 244 244 245 246 245 245 245 245 246 245 245 244 209 163 244 240 241 
241 241 241 240 241 242 242 242 242 243 243 147 239 242 242 243 
245 244 240 240 238 242 166 217 236 237 237 238 239 239 239 239 
238 239 238 237 240 239 239 239 239 239 237 239 239 238 239 237 
132 227 238 236 235 211 232 235 235 235 235 234 238 152 222 235 
234 235 234 233 234 236 194 210 231 232 233 234 234 233 233 233 
233 234 233 245 245 245 246 245 245 245 245 245 245 245 243 244 159 216 242 242 
242 242 241 243 243 241 242 242 242 242 221 150 243 242 241 240 
244 244 242 239 241 236 152 232 237 236 238 240 239 239 240 238 
239 239 240 239 238 238 239 238 240 239 239 239 236 238 238 239 
191 135 220 227 197 140 234 235 235 235 233 234 239 169 232 234 
235 234 235 234 236 229 180 226 231 232 233 233 232 233 233 234 
233 233 232 245 245 245 245 245 244 244 246 245 244 244 246 244 236 145 238 242 
242 241 242 241 242 242 241 243 244 243 239 123 232 246 242 241 
242 242 240 240 242 159 177 237 237 237 237 238 238 239 238 240 
238 239 237 239 239 239 239 239 237 237 236 238 239 239 239 239 
240 181 141 148 197 114 229 236 237 236 236 237 217 208 236 235 
235 234 237 235 236 185 211 230 232 232 233 233 233 234 234 232 
233 233 234 246 245 245 246 245 246 246 245 245 245 245 243 244 246 193 190 243 
244 242 242 241 241 242 242 243 244 243 244 207 159 175 233 242 
241 241 240 239 241 196 109 188 236 236 237 238 239 241 240 238 
240 240 238 240 238 239 238 237 238 239 238 238 238 238 239 239 
240 243 238 234 238 174 148 235 239 238 239 217 197 235 237 235 
234 234 235 234 214 180 232 232 231 232 234 234 233 232 232 233 
234 232 233 244 244 245 244 246 244 244 245 244 244 246 245 245 244 243 153 231 
243 242 239 243 242 242 243 243 243 242 244 244 223 151 236 242 
242 241 241 240 240 242 222 120 234 236 238 238 239 239 240 240 
239 239 239 239 239 240 240 239 238 238 239 238 238 238 239 238 
237 239 240 239 240 235 169 120 178 189 182 199 232 236 236 237 
234 234 236 231 164 225 232 230 231 231 233 232 234 235 234 233 
234 234 234 246 245 245 245 244 245 245 244 245 244 244 244 243 245 246 213 164 
240 240 240 241 242 242 245 244 242 242 242 243 164 231 242 242 
241 242 241 240 238 240 241 125 213 236 237 239 240 239 239 239 
240 240 239 240 239 238 238 239 239 239 239 238 239 238 238 237 
239 239 238 239 236 238 240 201 166 182 224 237 235 237 236 233 
234 236 235 173 204 235 232 232 235 232 232 234 233 233 234 234 
232 233 234 245 245 245 245 245 244 244 245 245 246 246 245 245 244 244 246 185 
205 243 241 242 243 241 245 244 243 242 244 213 178 242 241 241 
242 246 243 242 241 238 243 158 174 236 237 238 241 239 239 239 
238 239 239 239 238 238 236 237 238 239 237 238 237 237 239 238 
240 238 239 239 238 238 238 240 240 239 237 235 235 236 235 236 
235 238 198 191 232 233 234 233 234 235 234 233 234 234 233 232 
233 234 233 246 244 245 244 245 245 244 244 246 245 244 246 245 245 244 244 244 
173 222 245 242 242 242 243 242 242 243 243 208 176 244 242 242 
243 175 178 236 241 240 242 173 196 236 239 239 241 239 239 238 
239 241 240 239 239 240 238 239 238 237 240 238 240 238 239 238 
238 239 239 238 237 237 236 237 239 238 236 237 237 236 237 235 
237 194 187 232 233 233 234 234 233 235 233 234 233 234 235 234 
233 234 234 245 246 245 245 244 245 245 244 243 245 245 244 244 244 244 243 244 
236 172 235 243 242 243 244 245 242 241 243 243 139 226 242 241 
200 170 175 163 163 206 197 213 240 239 239 239 241 239 240 240 
239 239 239 239 239 237 237 238 238 238 238 238 239 238 239 240 
239 239 239 239 238 238 238 235 238 238 235 236 235 235 235 237 
214 170 231 233 232 232 233 234 232 234 232 234 234 234 234 234 
234 234 234 245 245 245 246 246 245 244 245 244 245 244 245 245 244 244 245 244 
244 232 177 231 246 242 244 243 242 242 241 244 226 180 191 189 
228 243 243 240 222 217 237 241 240 237 239 240 241 240 241 241 
240 239 240 240 240 238 238 240 239 238 239 238 238 238 238 237 
238 239 240 240 240 241 237 236 236 237 237 236 237 237 239 212 
172 223 233 232 232 233 235 233 233 235 234 233 234 234 234 234 
234 235 234 245 244 245 244 244 245 246 246 246 244 245 245 244 244 245 244 245 
245 246 234 172 226 246 242 240 242 241 242 243 245 245 243 242 
243 242 242 242 241 243 241 239 237 240 239 239 239 240 240 238 
239 239 241 239 238 239 239 237 239 238 239 239 239 240 240 239 
239 240 240 240 237 237 236 235 236 237 237 236 237 236 204 159 
227 236 233 233 233 233 233 233 235 233 233 233 233 233 234 235 
234 234 234 245 245 246 246 245 244 244 243 245 244 245 244 245 244 245 245 244 
244 244 245 233 170 227 244 242 242 243 243 244 244 244 245 243 
241 242 241 239 240 239 238 239 240 238 239 239 239 241 239 240 
239 240 239 238 239 239 238 238 239 238 239 239 239 238 238 240 
239 239 239 240 239 239 237 237 236 236 237 236 234 196 168 226 
236 236 235 236 233 233 234 233 234 234 234 235 234 236 234 234 
235 234 233 246 245 245 245 245 246 248 247 245 244 245 246 244 243 245 245 245 
244 243 245 246 235 155 164 241 243 242 242 243 243 242 241 240 
241 241 240 240 238 237 238 238 238 239 239 239 239 241 240 241 
240 240 238 239 238 238 238 240 240 238 240 239 240 240 240 239 
239 240 239 239 239 237 236 237 236 236 238 235 202 179 228 237 
234 235 234 233 234 234 234 233 234 234 234 235 235 233 233 234 
235 234 234 246 245 245 245 245 245 245 245 245 245 245 246 244 247 245 245 245 
245 245 243 244 246 247 195 169 231 243 246 244 243 243 242 241 
242 242 240 240 239 239 240 240 240 240 240 241 240 240 240 239 
239 239 238 237 239 239 239 239 240 239 239 239 238 240 239 240 
238 238 236 239 239 238 235 234 235 236 228 190 191 231 237 236 
234 235 235 235 233 233 234 235 235 234 234 234 235 235 233 235 
234 234 234 246 244 246 246 245 247 245 246 245 245 245 245 246 245 245 244 245 
245 245 246 244 245 245 247 234 180 205 242 246 244 242 242 241 
241 242 241 240 241 240 241 241 240 240 240 240 239 239 239 240 
239 239 240 239 239 240 238 238 239 240 239 242 241 240 240 238 
240 240 239 238 236 235 235 237 235 222 175 210 237 237 235 235 
234 236 235 235 234 236 234 235 234 234 234 234 236 234 234 234 
234 234 234 246 246 246 246 245 245 245 246 246 246 245 246 245 245 245 244 244 
246 245 244 245 246 244 246 246 245 190 174 227 245 243 243 242 
240 240 241 240 241 241 240 239 240 240 241 239 240 240 241 240 
242 238 240 238 239 239 240 241 239 240 240 239 240 239 239 240 
238 237 238 237 238 237 235 235 203 177 222 235 236 236 236 234 
234 233 234 235 235 235 233 234 235 234 236 235 234 233 234 235 
233 236 235 246 245 246 247 246 246 246 245 247 246 246 245 245 247 246 244 245 
244 247 246 245 245 244 246 245 246 245 232 176 187 240 246 243 
241 242 242 242 240 241 239 238 240 240 241 240 240 240 237 239 
238 240 241 239 240 238 239 239 241 239 238 239 240 240 239 240 
239 238 237 242 237 234 215 181 207 234 238 236 235 236 235 235 
235 235 233 235 234 236 234 233 234 234 235 235 234 234 234 234 
233 233 234 246 246 246 247 247 245 245 245 244 244 246 245 245 246 245 245 245 
247 245 246 245 244 245 245 244 245 245 246 245 212 174 202 238 
244 243 240 240 242 240 240 240 241 241 240 239 241 240 240 240 
240 240 239 239 239 237 239 238 237 240 240 239 238 239 239 239 
239 240 240 239 215 186 197 228 237 236 235 234 236 236 235 235 
235 235 234 236 236 236 235 235 236 234 235 234 234 234 235 234 
234 233 233 246 245 246 246 246 247 247 244 245 246 245 246 246 246 246 246 246 
247 246 246 245 246 245 246 245 246 245 244 245 246 243 223 175 
209 238 243 243 244 243 240 239 241 240 240 240 239 240 241 241 
241 239 240 239 240 240 239 238 241 239 239 239 241 239 241 242 
240 237 205 175 187 223 238 237 236 236 236 236 235 235 235 235 
234 236 236 234 236 234 235 235 236 235 236 234 233 233 234 234 
235 234 235 247 246 247 247 247 246 246 245 245 246 247 246 247 246 247 245 247 
246 246 246 246 244 246 244 244 244 244 245 244 246 246 245 240 
200 160 181 230 239 246 244 243 242 241 240 240 240 240 240 239 
240 240 240 240 240 240 238 241 239 242 241 240 241 241 242 216 
193 181 207 231 239 238 237 236 236 235 236 235 234 236 235 236 
236 237 237 236 236 236 237 235 235 235 235 235 232 233 234 234 
234 233 233 246 247 246 247 247 246 247 247 246 247 247 246 245 247 246 246 245 
246 246 246 244 244 245 246 244 246 246 245 246 245 245 244 245 
244 240 196 152 141 158 216 238 244 244 241 243 239 242 240 239 
240 240 241 240 242 244 240 240 243 243 238 236 208 173 186 198 
212 234 241 238 239 238 237 236 237 237 237 235 237 236 236 234 
235 236 234 236 237 236 236 235 236 235 234 234 234 233 233 234 
234 234 234 247 247 247 246 246 246 246 247 247 247 246 246 246 247 247 246 247 
247 247 246 245 247 245 246 246 246 245 245 243 245 245 244 244 
244 246 248 247 243 221 176 158 168 199 224 233 241 242 241 236 
234 238 237 236 235 226 212 207 205 180 173 183 199 215 234 239 
239 237 237 237 240 239 238 237 235 237 237 237 238 237 237 236 
236 236 236 237 236 238 236 235 236 234 234 235 234 235 234 234 
234 234 233 246 247 247 247 247 246 246 246 246 248 247 247 247 247 247 246 246 
246 246 246 245 246 246 246 244 244 245 245 246 244 244 244 244 
244 244 246 246 245 246 249 241 230 216 198 185 186 177 184 151 
144 146 160 141 122 103 162 201 219 236 238 240 238 239 240 238 
239 240 238 239 239 239 238 238 237 237 237 236 237 236 237 235 
237 237 237 237 237 236 235 238 235 232 235 235 234 233 235 235 
234 234 235 246 247 246 246 247 246 247 247 246 247 248 247 246 246 247 247 247 
246 247 245 245 245 246 244 246 245 245 246 245 242 245 245 244 
245 244 244 243 244 244 247 246 244 245 244 243 241 240 234 227 
221 217 226 222 229 229 240 242 242 244 242 240 239 239 240 238 
239 238 238 239 241 239 238 235 236 237 237 237 237 238 237 236 
237 237 237 236 237 237 236 236 236 234 235 235 234 234 234 234 
234 234 233 247 246 246 246 246 245 246 247 247 247 247 247 246 246 247 247 247 
246 246 245 246 246 246 246 245 245 246 245 244 245 245 245 245 
244 245 244 245 244 243 241 243 244 245 244 242 243 243 244 244 
244 244 243 244 242 241 239 240 240 239 240 238 238 239 239 239 
238 238 238 239 240 240 237 234 238 237 237 237 237 238 238 238 
236 236 237 237 237 236 235 234 235 234 235 235 233 233 234 235 
234 233 235 246 246 246 245 246 247 247 247 247 248 247 246 247 247 246 246 247 
247 246 246 245 245 245 246 245 245 245 246 246 245 245 244 244 
244 244 244 245 244 245 244 242 243 242 243 243 241 243 242 243 
243 243 242 242 241 242 240 239 239 239 239 239 239 240 239 238 
239 239 238 238 237 237 236 236 236 237 238 237 237 237 236 237 
237 238 237 238 237 235 235 237 235 234 234 234 234 235 234 234 
234 234 235 248 246 246 246 246 246 245 247 247 247 248 248 247 247 247 247 248 
247 246 247 246 245 246 245 246 246 246 245 245 244 245 246 245 
244 245 245 244 243 244 244 245 243 243 242 242 242 242 243 243 
242 242 241 241 242 241 242 241 241 240 240 240 239 239 240 240 
239 238 238 240 237 237 236 234 237 237 238 239 238 237 238 237 
236 237 236 237 237 235 236 238 237 236 234 236 235 234 234 235 
234 235 235 247 246 246 246 246 245 245 247 247 247 247 247 247 246 246 246 247 
246 247 246 247 245 245 245 246 245 246 245 245 245 244 245 244 
244 244 243 245 244 244 243 243 244 243 243 243 242 242 243 241 
241 242 241 242 241 241 241 242 240 241 240 239 241 239 240 238 
239 239 238 237 238 237 237 237 237 238 238 238 236 238 238 238 
238 238 238 237 237 236 235 237 236 236 235 235 233 235 235 235 
234 235 235 246 246 246 246 246 248 246 247 248 246 247 247 247 246 247 247 247 
247 246 246 246 246 246 245 246 246 245 242 244 247 245 244 244 
244 244 244 242 245 244 244 243 244 243 242 242 241 242 243 243 
243 243 245 242 242 242 240 241 241 241 239 240 240 241 239 238 
237 240 239 238 238 238 238 237 237 238 238 238 237 238 237 239 
236 238 237 238 236 235 235 237 238 238 237 234 236 235 235 235 
234 235 234 247 246 248 246 245 245 246 248 246 247 247 246 247 246 246 245 246 
246 246 245 244 244 244 246 244 245 245 244 245 245 243 244 244 
244 244 245 244 244 242 243 243 244 244 243 243 241 244 243 243 
244 242 242 241 241 242 241 240 240 241 240 240 240 240 240 237 
238 237 236 237 236 238 236 236 237 239 237 236 237 238 237 237 
239 238 238 237 238 238 236 237 237 238 238 236 234 234 236 234 
235 235 236 