P2
# Created by IrfanView
100 100
255
246 246 246 246 247 247 246 245 246 247 246 248 246 245 249 248 249 
249 249 249 249 250 252 250 250 251 251 251 251 250 251 252 252 
252 252 251 251 251 251 252 252 251 251 250 249 250 251 250 250 
251 250 249 251 250 250 250 250 249 249 250 250 249 251 251 250 
252 252 253 253 251 253 253 254 253 253 254 254 255 254 254 254 
254 254 254 249 253 251 253 252 250 250 251 252 251 251 249 250 
251 251 249 248 246 247 245 245 246 248 245 246 246 246 248 247 246 245 247 249 
249 249 249 250 249 250 250 250 250 251 251 250 251 250 250 252 
253 252 252 251 251 251 251 251 251 251 250 250 252 251 250 250 
250 250 249 249 250 251 250 248 250 250 251 250 250 251 251 250 
251 252 253 253 253 252 252 253 253 254 253 254 255 254 254 254 
254 255 254 252 251 251 253 251 251 251 252 251 251 251 251 251 
250 250 250 246 245 246 247 246 245 246 247 247 248 247 247 247 249 249 248 250 
249 251 250 248 250 249 249 250 250 251 250 250 250 250 251 251 
252 251 252 252 251 252 252 252 251 252 252 251 250 250 251 250 
249 249 247 249 248 251 250 250 252 251 250 249 250 250 252 251 
251 251 251 252 253 253 253 254 254 254 254 254 254 253 253 254 
254 255 254 252 254 252 251 253 252 250 251 250 252 252 252 251 
250 250 250 246 246 245 245 247 247 247 247 247 246 246 248 248 247 249 249 248 
249 249 249 250 250 250 249 250 250 250 249 250 251 251 251 252 
253 252 252 251 251 252 253 252 250 252 251 250 250 250 251 251 
250 249 249 249 249 250 250 250 250 251 251 251 251 250 250 252 
250 251 251 252 251 253 253 253 253 254 254 254 255 254 254 254 
254 254 254 252 253 252 252 253 252 251 252 251 252 251 251 251 
251 250 251 246 245 247 248 247 247 245 247 247 248 246 247 248 246 248 249 249 
249 249 250 250 250 250 250 252 249 251 251 252 252 251 252 253 
252 251 252 252 251 251 253 251 251 251 249 249 249 250 250 250 
248 249 249 249 250 249 249 249 251 249 251 252 251 252 251 250 
251 251 252 253 253 253 253 253 252 255 254 254 255 254 253 255 
254 254 254 250 250 253 253 253 251 252 252 251 251 251 251 252 
252 252 251 246 248 248 245 246 245 248 248 246 248 247 249 249 250 249 249 249 
248 249 250 249 251 250 250 250 249 250 250 251 251 250 251 250 
251 252 252 252 251 250 252 250 249 250 248 249 249 250 250 249 
249 249 249 249 250 249 249 250 251 249 251 251 251 251 252 250 
250 252 252 252 251 252 253 253 254 254 254 253 255 254 254 254 
254 254 254 254 253 253 253 254 252 252 252 253 252 250 251 249 
253 252 250 247 246 247 245 246 247 247 248 249 248 247 248 248 249 248 249 249 
250 249 249 249 249 250 250 251 251 252 251 251 251 252 251 250 
250 251 250 248 251 251 252 251 250 249 250 250 249 253 252 251 
251 249 251 251 251 250 250 251 251 250 252 250 250 250 250 252 
251 250 251 252 252 252 252 253 252 253 254 253 254 254 253 254 
255 255 252 254 252 254 253 253 253 253 253 252 250 251 251 251 
252 252 251 246 247 247 246 245 246 247 248 248 248 248 248 248 249 249 249 248 
249 249 250 249 249 250 248 248 250 251 252 253 251 249 248 250 
249 249 250 251 250 252 252 252 251 246 244 240 230 224 219 226 
232 229 233 223 228 237 240 238 245 248 250 250 251 251 251 250 
250 250 252 252 251 252 252 251 252 252 253 252 254 254 254 253 
255 255 254 254 253 253 253 253 254 252 254 252 252 250 250 251 
252 252 252 246 247 247 246 247 247 248 246 249 248 246 250 247 248 249 250 249 
249 249 248 250 249 250 249 250 250 251 251 251 251 251 250 250 
249 249 250 250 251 246 236 225 221 229 228 233 237 238 243 245 
249 249 249 242 231 211 216 222 226 231 230 238 240 246 249 251 
252 251 251 252 251 251 252 253 252 252 252 254 254 254 253 253 
254 255 254 254 254 254 254 254 252 253 254 253 253 252 251 250 
251 251 252 247 247 247 245 247 247 248 248 248 249 249 250 248 249 250 249 248 
249 249 249 249 249 249 249 249 250 250 251 250 249 249 250 250 
250 252 248 238 226 213 223 237 244 251 253 253 251 251 251 249 
251 250 250 251 250 250 244 248 246 239 240 230 223 216 225 239 
247 250 252 252 251 251 251 252 252 252 252 252 252 253 254 253 
254 255 254 254 253 254 254 254 253 251 253 253 251 251 251 250 
251 252 251 246 247 247 246 247 249 248 247 248 248 248 250 249 250 249 251 250 
249 248 248 248 248 249 250 249 250 250 249 249 249 250 251 249 
243 234 225 233 246 253 253 253 252 251 251 251 250 251 251 251 
251 251 251 250 250 251 251 249 249 249 251 251 250 243 234 217 
211 224 246 250 252 251 252 251 251 250 251 252 251 252 252 252 
253 254 254 253 253 254 254 253 252 252 254 252 251 252 253 252 
251 251 250 246 246 247 248 248 248 249 249 249 249 249 250 250 250 249 249 249 
248 248 247 248 247 249 248 248 249 249 248 247 249 247 240 228 
228 241 249 251 253 252 251 251 252 251 251 252 250 252 252 250 
251 251 251 251 252 251 250 251 250 249 250 250 250 252 252 250 
249 233 215 223 236 247 252 252 251 252 251 252 253 252 252 252 
252 253 253 254 254 254 253 254 252 252 251 252 251 251 253 252 
252 251 251 247 248 247 248 247 249 249 249 249 250 250 251 251 250 248 249 249 
250 249 249 249 249 250 248 247 248 249 251 249 238 228 223 241 
251 252 253 251 254 252 253 252 252 250 251 251 251 251 252 252 
252 251 253 251 252 252 251 251 251 249 250 249 251 250 249 250 
251 251 245 225 210 220 237 249 250 251 250 251 251 252 252 252 
252 252 251 251 251 251 250 251 252 251 251 250 250 250 252 250 
252 250 251 248 248 245 247 248 248 248 249 249 248 249 250 251 250 249 249 250 
251 251 249 248 248 250 249 248 249 250 241 226 230 245 251 253 
252 252 250 252 253 252 254 252 252 252 252 250 252 252 252 253 
253 251 252 252 252 252 251 250 248 250 250 250 248 250 249 250 
251 249 252 253 244 221 202 213 246 251 253 252 251 251 251 251 
252 251 251 250 249 251 251 250 250 251 251 251 249 248 251 251 
250 251 250 247 248 246 246 247 248 249 249 249 250 248 249 249 250 250 249 250 
250 251 249 248 248 249 249 249 250 224 216 240 251 252 252 250 
252 252 252 251 252 252 253 252 252 252 253 253 252 252 251 251 
251 251 252 253 251 252 251 251 250 249 250 251 250 251 251 252 
250 251 251 251 252 252 241 205 203 221 247 252 250 250 250 252 
252 250 250 250 250 250 250 250 250 250 250 250 250 250 250 251 
249 248 251 246 246 247 247 248 246 247 248 248 247 249 249 249 250 249 250 250 
250 250 248 248 247 249 250 237 204 222 249 254 252 251 251 253 
252 253 252 253 254 253 252 252 252 253 254 254 253 252 252 252 
251 251 250 251 251 252 252 252 251 248 250 251 251 250 250 251 
252 251 251 250 250 250 252 247 227 211 207 245 252 251 251 252 
250 250 249 249 250 250 251 251 250 250 248 250 250 250 249 251 
249 251 251 248 246 247 247 246 246 247 248 247 249 249 249 248 249 249 249 249 
250 250 249 248 250 248 228 209 241 252 253 251 252 252 251 251 
252 252 252 251 253 252 253 254 253 252 253 253 253 250 252 250 
250 251 251 251 251 251 253 252 251 250 250 252 250 250 248 250 
252 251 249 250 250 249 249 251 251 239 214 207 244 252 252 251 
251 251 250 249 250 250 250 250 250 249 250 250 250 250 251 251 
250 251 252 245 246 246 247 248 246 248 247 248 249 247 248 248 247 249 249 250 
250 249 249 248 247 220 212 248 252 252 251 251 252 253 252 253 
252 253 252 252 252 252 253 254 253 252 253 252 252 252 251 250 
251 251 251 250 251 250 251 250 250 251 251 252 251 250 251 250 
251 251 252 251 250 250 250 249 250 252 250 224 212 238 252 250 
251 251 252 250 250 250 250 250 251 250 251 251 249 250 250 251 
250 252 252 245 247 245 246 246 246 247 246 248 246 248 246 246 247 247 249 249 
250 250 248 244 212 216 249 252 252 252 251 252 251 251 252 252 
253 252 253 253 253 253 253 253 253 252 252 252 252 251 251 251 
251 251 250 250 251 251 251 252 251 251 252 250 249 250 250 249 
250 251 252 250 250 249 251 251 251 251 251 249 233 208 235 253 
251 251 252 251 250 250 250 250 247 250 251 251 251 250 251 250 
250 251 250 244 245 245 245 246 246 245 247 246 246 247 246 247 247 246 248 248 
250 247 227 212 227 253 252 251 250 250 251 252 252 251 252 252 
252 252 252 252 252 252 252 253 253 251 252 251 251 252 251 252 
251 252 250 251 251 251 249 252 251 251 251 251 250 251 251 251 
251 251 252 251 250 250 251 250 250 251 251 251 252 245 214 241 
252 251 252 252 251 250 250 251 250 250 251 251 251 250 251 251 
252 251 250 241 245 244 245 245 245 245 245 246 245 247 245 245 247 244 247 246 
245 212 203 238 252 250 250 250 251 252 251 252 252 253 253 253 
252 251 252 253 252 253 253 253 252 252 251 251 251 250 251 251 
251 250 252 251 252 252 251 252 251 249 250 251 251 251 252 251 
251 251 252 251 251 251 251 249 251 251 251 251 252 253 241 211 
241 253 252 252 252 252 251 252 250 252 251 249 250 250 250 251 
251 251 251 242 242 244 243 243 243 244 244 243 243 243 245 244 245 244 244 244 
218 196 231 251 251 250 250 251 251 252 252 252 251 251 252 252 
252 253 252 252 253 253 253 253 252 252 252 252 252 251 252 252 
252 250 251 253 253 253 252 252 249 251 253 251 251 251 251 251 
251 251 251 251 251 252 250 250 251 251 252 252 252 253 253 237 
211 241 252 251 251 251 251 252 251 251 250 249 250 250 250 250 
251 251 249 241 241 243 244 243 243 243 243 245 243 243 245 245 245 244 246 220 
186 226 251 251 252 252 253 252 252 253 251 251 252 252 251 251 
252 252 251 253 252 253 253 253 253 253 252 252 252 251 251 251 
251 251 251 251 251 252 250 251 251 251 251 252 251 251 252 251 
251 251 251 251 251 251 252 250 250 250 252 252 252 252 251 251 
227 214 243 253 251 251 251 251 251 249 251 249 249 249 249 250 
251 251 250 242 241 243 243 242 242 243 243 242 243 243 244 244 243 245 234 235 
240 251 250 250 250 251 250 251 250 250 251 250 251 252 252 252 
253 253 253 253 253 253 253 253 253 253 253 253 251 251 251 251 
252 251 250 249 250 250 250 251 250 250 250 252 251 251 251 251 
250 250 251 250 250 252 252 251 251 251 251 251 251 251 250 250 
250 217 218 245 252 250 252 250 250 251 250 250 250 249 250 251 
251 250 249 239 241 242 242 243 243 242 242 242 242 242 243 243 245 241 219 246 
249 250 250 249 251 252 251 251 252 251 251 251 252 252 251 252 
252 253 253 253 253 253 253 253 252 252 254 252 250 250 250 252 
250 250 250 252 250 251 250 251 251 251 251 251 252 250 251 251 
252 251 251 252 252 251 252 250 251 252 251 250 250 251 251 251 
252 251 210 212 250 252 250 251 251 251 251 250 250 250 251 250 
248 249 248 239 241 242 242 241 242 241 241 242 242 242 244 241 243 214 241 247 
248 249 250 250 251 251 251 252 250 251 251 252 251 251 252 252 
251 251 251 253 253 254 253 252 253 253 254 253 253 251 249 250 
251 251 251 251 251 251 251 251 251 252 252 253 252 250 251 251 
250 250 251 252 251 251 250 250 250 250 251 252 251 251 252 251 
251 253 239 208 225 252 251 252 250 250 250 250 250 252 251 249 
250 251 250 238 240 241 241 241 241 242 242 243 241 242 240 242 228 230 247 249 
248 250 249 250 250 251 251 251 251 251 251 251 251 251 252 251 
252 253 253 253 252 254 253 253 253 252 253 253 252 253 252 251 
251 251 251 251 251 251 252 251 251 251 251 252 252 251 250 251 
251 252 251 252 251 252 249 251 251 251 251 251 251 251 252 251 
251 250 252 225 212 238 253 252 251 250 251 251 250 252 251 250 
250 251 250 238 240 241 241 241 241 242 241 242 241 239 242 237 209 247 248 249 
247 250 250 249 250 250 251 251 251 251 251 251 250 252 250 251 
252 252 252 251 253 253 253 253 252 253 253 254 254 254 252 252 
251 251 251 250 251 252 251 252 252 251 250 250 252 251 249 251 
252 252 252 252 251 250 251 251 250 251 251 251 251 250 251 249 
251 252 251 249 231 203 251 251 250 251 253 251 251 251 251 249 
251 251 250 237 238 239 241 239 241 241 241 243 240 240 244 210 234 246 247 249 
248 248 249 249 249 248 250 249 250 250 250 251 251 251 251 252 
253 252 252 253 252 253 252 253 254 253 254 254 254 254 253 252 
251 251 251 253 252 252 251 250 251 250 251 251 252 251 250 250 
252 252 252 251 251 251 250 251 251 249 251 251 251 251 251 251 
251 252 252 253 246 202 219 252 251 251 251 251 250 251 252 250 
250 251 251 236 236 239 240 241 241 240 242 240 240 237 233 207 247 245 247 248 
248 249 249 249 249 250 249 249 250 250 250 250 252 252 251 253 
253 253 252 252 252 252 253 253 253 253 252 255 254 252 253 252 
252 252 252 253 252 252 251 250 249 251 250 252 252 252 250 251 
252 252 252 251 251 251 250 250 250 249 250 251 250 250 250 252 
252 253 252 252 253 251 198 248 252 249 250 249 251 250 251 250 
251 251 252 235 237 241 239 239 240 240 242 241 241 239 205 236 247 246 247 246 
247 248 248 247 248 248 248 250 249 250 248 230 214 216 213 210 
209 242 252 253 252 253 253 253 252 253 254 254 254 254 253 252 
251 252 252 252 253 251 251 251 251 251 252 251 253 251 250 249 
251 251 253 254 253 253 252 251 251 250 251 251 251 252 251 252 
251 251 251 253 252 251 223 203 253 249 250 251 251 250 251 250 
252 252 251 236 237 240 241 240 240 241 239 239 243 229 202 248 245 246 244 244 
247 247 247 247 247 248 250 248 234 203 178 163 176 171 184 212 
190 199 215 235 252 252 252 252 253 253 254 254 254 254 254 252 
252 254 253 252 252 251 251 252 251 252 253 253 252 251 252 250 
251 245 236 235 235 244 252 251 252 251 250 250 251 251 251 252 
252 251 251 251 252 251 244 187 241 252 249 251 250 250 251 251 
251 251 252 234 238 240 240 240 240 242 241 242 241 193 238 245 246 245 245 245 
246 246 247 248 248 249 233 190 196 221 173 181 179 174 186 198 
210 227 236 223 237 250 254 253 252 252 252 254 253 254 254 252 
252 252 253 252 252 252 251 252 253 252 253 253 253 253 246 221 
210 201 191 194 195 194 226 245 251 252 251 251 251 251 251 251 
253 252 251 251 253 251 253 215 215 250 251 250 250 251 249 250 
250 249 251 233 237 238 239 239 240 242 243 238 234 202 244 245 246 246 246 246 
246 247 246 245 248 237 185 225 251 235 169 172 156 173 193 199 
197 210 253 251 230 245 253 253 254 253 252 253 254 254 254 254 
252 252 252 251 251 252 251 251 253 252 252 252 252 227 201 200 
191 192 191 192 199 191 221 216 227 250 251 252 252 252 253 252 
253 252 252 252 251 252 253 226 185 247 250 250 250 250 253 250 
250 251 252 231 236 240 239 240 239 241 240 238 204 230 245 244 246 245 246 248 
246 246 246 248 246 193 237 252 250 239 187 176 163 183 195 197 
192 188 251 251 247 237 252 253 254 254 253 254 253 254 254 253 
252 252 253 252 251 251 252 252 252 253 251 247 218 205 240 229 
186 185 182 191 202 193 233 244 224 242 252 251 251 252 252 252 
253 253 252 252 252 252 251 244 191 230 251 252 252 252 250 251 
251 251 251 231 234 237 237 237 238 238 240 238 192 245 243 244 245 245 245 246 
247 247 247 248 248 242 251 249 249 249 191 190 179 190 201 193 
194 195 250 250 252 248 252 253 253 253 254 253 253 254 253 252 
252 253 253 252 252 252 251 253 252 253 252 213 212 247 253 235 
190 190 187 202 198 196 225 252 246 234 252 251 251 252 252 253 
253 253 252 251 252 253 253 252 221 196 252 251 251 251 251 251 
251 251 251 231 233 237 238 239 239 237 238 234 192 245 244 244 244 245 245 246 
245 246 247 247 247 251 249 249 251 251 240 200 198 195 194 200 
177 193 251 251 252 253 253 253 253 254 253 253 252 254 254 252 
252 252 252 252 251 252 252 253 252 252 250 216 248 253 252 246 
208 193 194 196 204 199 225 250 252 231 251 251 251 251 251 252 
253 253 251 251 251 251 249 252 247 175 249 252 248 251 251 250 
251 252 252 232 231 236 236 237 239 237 240 202 225 243 245 245 246 244 245 244 
245 246 247 247 246 248 247 250 250 250 252 228 189 201 186 196 
194 246 253 251 252 252 252 254 253 253 254 252 252 255 254 252 
251 253 252 251 253 252 252 252 252 252 251 244 253 252 252 250 
226 201 196 202 208 182 234 251 251 252 251 250 251 251 251 253 
254 253 252 251 251 252 250 250 252 200 227 251 251 251 251 251 
251 250 251 231 231 233 235 235 237 237 239 189 243 242 243 243 243 243 245 245 
245 247 248 248 248 248 249 249 249 248 251 249 234 224 199 230 
251 251 251 252 252 252 253 254 253 253 253 253 254 253 254 253 
252 252 251 251 251 252 253 252 252 252 251 253 253 253 253 253 
241 216 207 204 203 188 246 251 251 252 251 252 253 252 251 251 
254 253 251 252 249 251 250 250 253 220 192 252 251 251 250 250 
251 251 251 231 232 234 235 235 236 238 234 189 241 244 243 244 244 243 245 245 
245 247 247 249 247 246 247 249 248 249 250 250 251 253 252 253 
251 251 252 252 252 252 253 252 253 253 253 253 253 253 253 253 
251 251 252 251 251 252 252 252 253 252 252 252 252 253 253 252 
253 243 233 232 228 245 252 253 252 252 251 252 251 250 251 251 
253 252 252 253 252 252 251 250 251 245 181 250 251 251 250 251 
251 251 251 229 231 232 234 237 235 237 208 206 242 242 241 242 241 242 243 244 
247 247 247 247 247 247 250 250 248 249 250 251 250 250 252 251 
251 250 251 252 251 252 253 252 253 253 253 253 252 253 253 253 
252 252 251 251 251 252 252 250 253 251 253 252 252 253 252 252 
253 254 254 254 254 254 251 252 252 252 251 252 251 251 251 251 
251 251 252 253 252 252 252 253 251 252 182 239 251 251 252 251 
252 249 251 229 232 232 231 233 235 237 195 224 242 241 242 243 243 242 243 244 
247 247 246 246 247 247 249 249 249 249 250 249 248 251 250 250 
250 251 251 252 252 252 253 252 253 252 254 253 254 253 253 253 
252 252 251 251 251 252 252 252 252 252 252 252 252 252 253 253 
253 252 254 254 254 252 252 253 252 251 251 251 251 251 252 251 
251 252 252 252 253 252 252 252 251 250 193 223 251 251 241 241 
251 250 251 229 230 231 231 231 234 234 189 237 241 242 243 243 241 241 243 245 
247 247 248 248 247 247 248 249 249 250 249 250 250 250 250 252 
251 251 251 251 252 253 253 252 252 253 252 252 252 252 252 252 
253 253 251 251 251 250 251 252 252 252 252 252 253 253 252 252 
253 253 253 254 253 252 251 252 252 251 252 251 251 251 251 251 
250 251 252 252 253 253 252 251 251 250 216 194 251 251 248 249 
251 251 250 230 231 230 231 231 230 232 172 233 239 239 240 239 239 241 242 244 
246 246 247 246 248 248 246 247 248 250 249 249 249 250 250 250 
251 251 251 251 251 252 251 252 252 251 252 251 252 252 252 251 
253 253 251 251 251 252 252 251 252 252 252 252 253 253 252 251 
251 252 253 251 252 251 252 252 251 251 251 251 252 251 250 251 
251 251 251 252 252 253 251 252 252 251 223 175 251 251 251 251 
252 251 253 229 230 229 229 228 231 220 188 239 235 239 241 242 241 242 241 245 
247 247 246 248 247 247 246 247 247 248 249 249 250 250 249 250 
250 251 251 250 252 252 252 252 252 253 253 252 253 252 252 252 
251 252 252 251 251 252 251 251 252 252 253 253 252 254 253 253 
252 252 251 252 251 252 252 251 251 250 250 250 252 252 251 251 
251 252 250 252 252 251 251 251 251 251 249 166 249 252 251 253 
251 249 250 227 229 229 227 228 229 211 184 238 239 240 241 240 240 242 241 244 
245 247 247 247 247 246 246 249 249 248 249 250 249 249 247 249 
250 251 250 251 251 252 252 253 251 252 252 253 252 252 251 251 
252 253 251 251 251 252 251 251 252 252 252 252 252 253 252 252 
252 252 252 252 252 251 251 250 250 249 251 251 250 251 252 252 
250 250 251 252 252 250 251 251 252 250 250 168 243 252 250 251 
252 251 251 230 228 226 228 228 228 207 191 238 238 239 240 240 241 241 243 241 
243 244 246 248 248 247 246 247 248 250 249 248 247 249 249 248 
249 250 250 251 250 251 250 251 252 251 251 251 252 252 251 252 
252 251 250 252 252 252 252 251 251 252 253 252 253 252 251 252 
251 252 251 252 252 252 251 251 251 251 252 251 249 251 252 252 
251 251 251 252 251 251 252 252 251 249 249 170 229 251 250 251 
252 251 251 229 229 229 229 228 229 201 197 236 237 238 240 240 240 241 243 243 
242 247 246 247 247 247 249 247 249 249 249 250 249 250 249 249 
250 250 251 250 249 251 251 250 252 251 251 252 252 252 252 252 
254 251 252 251 252 251 252 252 252 252 251 252 253 252 252 251 
251 251 251 251 252 252 252 252 252 251 251 251 251 252 252 252 
251 251 251 250 251 250 251 253 251 250 251 196 227 251 250 250 
251 251 251 235 231 228 229 229 230 187 211 234 237 240 240 240 240 241 242 242 
244 244 245 246 247 248 247 249 249 248 249 247 250 247 249 249 
249 249 250 251 250 248 250 251 251 251 252 252 252 252 252 252 
252 254 253 253 253 252 252 253 253 252 253 253 252 253 252 252 
252 252 252 251 252 253 251 251 251 251 253 250 252 250 251 252 
252 252 252 253 252 250 252 252 251 250 250 213 228 251 250 250 
250 250 251 236 233 230 230 230 232 177 218 234 236 239 238 239 238 240 241 243 
242 243 243 246 247 247 248 250 249 249 249 251 249 250 249 249 
250 250 250 250 250 250 250 251 251 251 252 251 252 252 252 252 
253 251 252 253 253 252 252 254 254 251 252 254 254 253 253 253 
253 252 252 252 252 252 251 252 251 252 253 252 252 252 252 253 
253 252 252 253 253 251 251 251 251 251 251 208 229 249 250 251 
251 252 251 238 236 234 232 232 230 181 216 236 236 238 240 238 239 239 240 242 
241 242 244 245 247 248 249 247 248 249 249 248 248 249 250 249 
249 248 250 250 250 249 250 250 251 251 251 252 251 251 253 252 
252 252 254 253 253 254 254 254 253 253 252 253 254 253 251 253 
253 252 253 252 253 252 251 251 251 250 251 251 252 252 251 252 
254 253 252 251 253 252 250 250 251 251 252 204 219 251 250 249 
250 251 252 239 234 232 231 232 231 172 218 235 234 237 238 237 239 240 238 241 
241 244 244 246 246 248 245 249 249 249 250 249 249 250 250 249 
250 249 250 250 250 251 252 251 251 252 252 251 251 251 252 252 
253 252 252 253 253 254 254 253 251 252 253 253 253 252 252 254 
252 252 252 253 251 252 252 252 252 252 252 252 252 252 253 252 
253 253 251 251 252 251 250 250 249 251 251 214 225 251 250 250 
250 252 253 240 234 232 231 231 231 186 213 237 236 237 237 236 236 237 237 239 
241 243 244 245 244 247 247 247 249 250 249 250 250 250 250 251 
250 250 249 250 250 251 251 251 250 251 251 251 252 253 252 252 
252 252 251 253 253 254 254 254 252 253 253 253 252 251 253 253 
252 252 253 252 251 252 252 252 252 253 253 253 252 252 253 253 
253 253 251 251 250 253 252 250 251 251 250 216 224 250 251 251 
251 251 250 243 241 237 233 233 231 193 216 238 236 235 238 236 237 238 237 238 
240 242 245 244 243 245 247 247 248 248 249 250 250 248 249 249 
251 250 250 251 251 250 251 251 251 251 252 251 251 251 251 252 
253 253 253 252 252 254 254 253 252 252 253 253 253 253 252 253 
253 252 251 252 251 250 251 251 251 251 251 252 252 252 254 254 
253 253 253 252 252 252 251 251 249 249 251 211 224 250 250 249 
248 250 250 243 239 236 232 232 232 200 200 236 236 235 238 235 234 237 239 236 
240 241 241 241 243 246 248 248 248 249 249 250 250 250 250 250 
250 250 251 250 251 251 251 251 251 251 251 251 251 251 253 253 
252 252 252 253 252 254 254 253 253 252 252 252 253 252 252 253 
254 252 253 252 251 251 251 251 251 251 251 252 253 253 254 254 
253 252 253 252 251 251 251 251 249 249 250 215 230 251 250 249 
251 250 250 245 240 238 234 231 232 217 194 235 236 238 237 237 236 235 237 239 
239 242 242 244 243 244 247 247 248 249 249 248 249 249 249 250 
250 250 250 251 251 251 250 251 251 251 251 251 251 251 252 253 
252 252 252 253 252 252 253 252 252 253 252 252 252 254 253 254 
253 253 253 252 252 251 251 251 251 253 252 253 252 252 253 253 
253 253 253 251 251 251 251 252 250 249 249 205 233 250 250 251 
251 251 249 248 243 241 235 231 232 231 185 236 235 236 234 236 236 236 237 235 
237 242 241 242 245 243 247 247 249 249 249 250 249 250 249 250 
249 251 250 251 250 250 251 251 250 251 251 251 251 251 252 253 
253 252 251 252 253 253 252 252 252 253 253 253 253 254 254 253 
253 252 252 252 251 252 251 252 251 252 252 253 252 253 252 253 
253 253 253 253 252 252 251 251 250 249 247 197 243 249 249 252 
251 250 250 248 247 242 235 234 233 235 171 236 233 235 234 234 235 235 236 237 
237 240 240 241 243 243 243 247 247 248 249 249 250 249 250 251 
250 250 250 250 250 251 251 252 251 251 252 252 251 251 250 252 
252 252 253 252 253 251 252 252 252 252 253 251 253 254 252 253 
251 251 252 252 251 251 252 250 252 251 252 252 252 253 253 253 
253 252 253 252 251 251 251 251 250 248 243 189 248 251 250 249 
250 250 248 250 248 244 239 235 234 235 163 233 236 236 236 235 235 236 238 235 
235 238 240 242 242 243 243 246 247 247 248 248 247 249 250 250 
250 250 250 250 251 251 251 251 252 252 252 252 251 251 251 251 
251 252 252 252 252 251 251 251 252 253 253 252 253 252 252 253 
251 251 252 252 251 250 251 250 252 253 253 252 252 253 254 253 
253 252 253 252 251 250 249 251 250 249 239 201 252 250 250 250 
249 250 250 247 247 245 244 237 233 237 157 227 236 235 236 235 237 235 233 235 
234 239 239 240 240 244 245 246 247 248 247 249 250 250 249 250 
250 250 251 251 251 250 251 251 254 252 252 251 252 251 251 251 
251 250 251 252 252 252 251 251 251 251 252 252 253 252 253 253 
253 251 250 250 250 250 252 252 252 251 251 251 252 253 253 253 
252 252 252 252 251 250 250 249 249 248 235 202 250 250 249 249 
249 250 249 250 250 248 244 236 233 237 180 212 235 235 236 235 236 237 235 234 
235 235 237 241 242 242 245 245 247 248 248 249 250 249 249 250 
250 250 250 250 251 251 250 251 253 251 252 251 252 252 251 251 
250 251 251 251 251 251 252 252 252 253 252 252 252 252 253 254 
253 251 250 251 250 252 253 252 251 251 251 252 251 252 252 251 
252 252 251 252 251 251 250 249 249 248 221 220 249 249 250 249 
250 249 248 250 250 250 246 241 238 237 213 181 237 236 236 236 236 237 235 235 
234 235 236 235 240 243 244 245 247 247 247 248 249 249 249 249 
250 250 250 250 250 251 250 251 253 251 251 252 251 251 251 250 
250 250 250 251 250 251 251 251 251 252 252 253 253 253 253 252 
252 251 251 251 251 251 252 252 251 251 251 251 251 253 252 252 
252 252 251 250 250 249 250 247 248 249 180 242 250 251 250 250 
250 248 249 251 252 253 248 244 241 240 233 182 239 237 236 236 237 236 237 235 
235 235 235 238 237 238 243 241 245 246 246 249 249 248 249 249 
250 250 250 251 252 251 251 251 252 251 252 252 252 250 250 250 
251 251 251 251 251 251 251 251 252 253 252 252 252 253 254 253 
252 250 251 251 252 252 251 251 249 250 251 251 251 251 252 251 
251 252 251 250 251 250 249 248 248 248 188 250 249 250 249 250 
250 249 248 252 249 251 249 248 244 239 240 171 226 238 237 238 236 238 239 237 
236 236 234 235 237 240 243 241 244 244 246 248 249 250 249 249 
249 249 250 249 249 250 250 251 252 252 250 250 252 251 251 252 
250 252 251 251 250 252 252 251 251 250 251 252 251 252 253 253 
252 250 251 251 251 252 251 250 251 249 250 251 252 250 250 252 
252 251 251 250 250 249 250 247 248 246 216 250 249 250 251 250 
248 248 248 252 251 250 250 248 245 242 237 200 188 235 237 237 238 238 241 238 
237 236 235 236 237 239 242 242 242 243 244 247 249 248 248 249 
249 250 249 250 250 250 251 250 251 252 251 253 253 246 234 220 
203 202 200 202 213 235 247 252 252 252 251 252 251 252 251 254 
252 252 251 250 252 251 251 250 250 251 250 251 251 251 252 251 
252 251 251 250 250 250 249 249 247 219 226 250 249 250 251 250 
246 249 249 252 251 250 249 248 246 243 238 227 172 238 239 238 239 239 239 239 
238 237 236 236 237 238 240 241 242 242 243 247 249 248 249 251 
248 249 248 250 249 250 250 249 251 252 251 240 211 196 180 200 
207 220 233 228 211 209 209 232 249 251 251 251 251 252 252 252 
252 252 251 251 251 251 251 250 252 251 250 251 250 250 251 251 
250 251 249 249 250 250 249 247 249 190 247 249 249 250 251 249 
249 248 249 252 251 250 249 249 247 243 242 240 184 232 238 235 238 239 241 241 
241 240 238 235 234 236 238 239 240 241 240 245 246 247 248 248 
248 249 249 249 250 249 249 249 249 243 187 173 212 223 241 253 
252 252 251 251 252 250 236 218 222 249 251 251 251 252 251 252 
252 252 251 251 250 250 250 250 251 250 250 251 251 250 252 251 
250 250 250 250 250 250 249 249 246 188 250 248 249 248 250 250 
248 249 249 252 252 252 249 249 247 243 241 239 209 200 239 239 238 239 240 242 
242 241 240 235 234 236 240 238 242 239 241 246 247 248 247 247 
248 248 248 249 248 248 248 248 249 215 196 206 251 252 252 251 
251 251 250 250 249 251 253 249 227 226 246 251 251 252 251 251 
252 252 251 251 250 250 251 250 249 250 250 250 251 251 250 251 
251 250 250 250 250 250 250 249 220 217 248 249 248 250 249 248 
248 249 249 252 252 251 249 248 249 247 241 239 237 166 232 240 238 239 242 240 
241 242 243 240 237 238 239 240 242 243 243 245 246 247 249 248 
248 248 248 248 250 248 248 248 249 208 186 232 251 250 248 249 
250 251 250 250 248 250 251 251 251 231 219 252 250 252 252 251 
251 251 252 251 252 251 249 250 250 250 250 251 250 250 250 250 
250 250 248 250 250 249 250 250 181 247 250 249 248 250 249 248 
250 248 248 251 251 251 250 249 249 248 244 240 240 201 184 238 238 238 240 240 
241 242 241 241 241 242 245 244 246 243 243 246 244 247 248 247 
248 248 248 249 248 248 248 247 245 206 195 250 249 249 250 249 
250 250 250 250 249 249 251 251 249 250 210 249 251 251 251 250 
250 252 251 252 251 250 249 250 249 250 248 250 250 250 251 251 
251 251 251 250 249 248 250 226 203 251 247 247 249 246 248 249 
248 248 247 252 252 251 251 250 250 248 246 243 240 241 141 213 236 238 241 239 
240 241 241 242 242 243 243 243 243 243 245 243 246 246 246 248 
248 248 248 247 248 248 249 247 246 183 239 249 249 249 249 250 
250 250 250 249 249 250 250 250 251 250 235 234 251 250 250 250 
250 251 252 252 249 250 250 250 250 250 249 250 250 251 251 251 
251 253 251 251 249 249 249 184 243 249 248 250 249 249 248 248 
248 249 249 252 251 251 251 251 251 249 247 243 239 242 202 172 238 236 239 239 
240 242 240 241 243 241 242 243 244 244 244 244 245 245 246 246 
247 247 248 248 247 246 248 247 248 181 251 249 249 249 249 249 
250 251 250 249 250 249 250 251 251 250 244 224 250 250 250 250 
251 250 250 250 248 249 249 249 250 251 251 250 249 251 249 252 
252 252 252 251 249 250 213 204 252 249 250 249 248 249 249 249 
249 247 246 250 251 250 251 253 251 250 248 247 240 239 242 154 216 238 239 239 
240 240 242 241 242 244 244 244 245 244 243 244 245 245 247 246 
247 247 247 248 248 247 248 248 248 188 246 250 249 250 249 249 
249 250 249 249 250 249 249 249 250 250 247 218 251 249 249 250 
249 250 249 250 250 250 249 249 250 251 249 250 250 250 251 251 
253 252 252 249 249 224 185 246 249 249 249 248 248 249 250 250 
249 249 249 250 250 251 250 252 250 250 248 246 244 242 240 212 157 224 237 238 
238 238 241 243 240 241 242 243 244 243 242 243 245 244 246 246 
247 246 247 247 247 248 248 248 249 225 221 250 248 249 249 249 
250 250 249 249 249 249 250 250 251 251 242 219 250 249 250 250 
251 248 250 250 250 250 250 248 249 250 250 249 249 249 250 251 
251 250 250 250 244 200 245 251 250 251 249 250 249 248 249 250 
250 249 248 250 251 250 251 250 250 250 249 246 246 241 243 240 179 186 230 236 
239 238 240 240 241 241 242 244 244 243 242 243 243 245 246 246 
246 249 248 247 246 247 248 249 249 248 196 245 249 249 249 249 
250 250 250 250 249 250 250 250 249 250 232 225 250 249 250 250 
250 250 250 250 249 251 249 248 250 249 248 248 250 248 249 249 
250 250 250 249 200 208 252 250 249 249 250 250 250 250 250 250 
250 250 249 250 250 250 250 251 250 250 248 248 246 243 240 238 232 164 196 238 
239 239 241 241 241 241 243 243 244 243 245 245 245 246 246 247 
246 247 248 247 247 248 246 248 249 249 236 212 250 250 250 250 
248 249 250 249 250 249 249 250 250 252 212 232 250 249 249 249 
250 250 249 249 249 249 249 248 249 248 248 247 248 249 249 249 
249 250 252 228 193 251 250 249 250 250 251 252 251 250 250 251 
251 249 250 250 251 251 250 251 250 250 250 248 246 245 241 240 238 221 157 215 
240 240 239 241 240 242 242 241 244 244 242 245 246 247 246 246 
248 247 247 248 248 248 247 248 249 249 251 207 229 248 250 250 
249 248 250 249 249 249 249 249 252 231 197 249 249 249 249 250 
250 250 250 249 249 249 248 247 248 248 248 249 248 248 246 248 
248 250 242 182 236 251 249 250 251 250 250 250 250 250 250 249 
250 250 250 250 250 250 250 250 250 250 250 248 246 245 243 239 236 241 217 163 
223 238 237 238 240 239 240 242 244 245 245 245 246 245 247 247 
246 247 247 247 248 248 249 248 249 250 248 249 208 231 250 251 
251 250 249 249 248 250 251 251 241 186 228 249 248 249 249 249 
248 250 249 247 248 248 248 248 249 248 248 249 248 248 246 245 
248 246 196 208 250 249 249 250 250 250 249 249 250 248 250 250 
249 249 249 250 250 250 250 250 250 250 249 248 245 244 244 240 238 235 239 192 
151 222 238 237 242 239 242 243 242 244 244 245 245 245 245 247 
247 246 247 246 248 247 248 248 249 250 249 249 245 197 203 228 
245 250 251 250 251 250 251 227 176 226 252 250 249 249 248 249 
249 250 250 250 248 248 248 248 249 248 248 249 248 246 246 246 
250 203 201 250 248 248 248 250 250 249 248 250 251 249 248 247 
249 249 249 249 250 250 250 250 251 250 250 248 248 246 243 239 239 237 235 238 
203 162 227 238 236 237 242 240 241 242 245 244 244 245 247 245 
245 246 246 248 248 248 248 248 248 250 250 249 251 245 233 212 
194 197 210 219 218 198 179 185 225 253 249 249 247 249 249 248 
247 248 250 249 249 249 248 247 248 247 247 247 246 246 247 248 
223 185 247 249 248 247 249 249 249 248 249 248 249 249 248 249 
248 248 249 249 249 250 249 249 251 250 248 249 246 246 245 240 241 239 237 240 
237 183 187 235 239 236 239 239 242 243 244 244 245 244 244 247 
246 247 247 247 247 248 248 249 249 249 250 250 249 251 252 249 
249 238 222 214 216 214 228 246 251 251 248 250 248 248 247 247 
247 247 248 247 248 249 249 247 246 246 244 245 246 246 246 214 
172 242 247 246 247 247 248 248 248 247 247 249 250 248 249 249 
247 248 249 248 248 249 249 249 249 250 250 249 247 246 245 246 242 238 237 237 
238 235 189 171 224 238 239 238 241 241 242 245 243 247 246 248 
247 247 248 247 249 249 248 248 248 249 249 250 250 249 249 249 
251 251 253 252 250 252 252 249 249 248 249 248 248 247 247 247 
248 249 249 248 247 249 247 247 242 245 243 244 247 247 213 178 
241 248 246 246 246 246 247 247 247 246 246 246 246 247 248 249 
248 249 248 247 245 249 249 249 249 249 249 248 248 245 245 244 242 240 237 238 
236 236 235 196 167 203 237 239 239 239 243 240 243 243 246 247 
247 247 247 249 249 248 248 248 248 248 249 249 248 249 249 248 
249 250 250 249 248 249 247 248 248 248 249 248 248 248 246 246 
248 247 248 244 246 247 245 244 242 245 245 246 244 218 169 243 
248 246 245 245 246 246 249 246 245 248 246 249 247 247 248 249 
249 248 247 246 247 247 249 249 249 249 249 248 248 248 246 245 242 243 241 237 
239 234 233 238 210 172 189 233 239 240 239 240 241 243 245 246 
247 247 245 246 248 247 248 248 248 248 248 249 250 249 249 247 
249 249 248 249 249 248 249 248 248 248 248 248 248 246 245 246 
246 246 243 244 244 243 244 244 241 244 247 241 191 180 241 246 
245 244 245 245 245 243 246 245 246 244 246 246 247 247 248 249 
249 249 247 248 247 248 248 248 249 249 248 248 247 247 245 245 241 241 240 240 
236 235 234 235 241 229 175 192 232 236 240 241 241 243 245 245 
246 247 249 247 248 246 247 248 248 248 248 249 249 250 249 248 
248 249 250 248 248 248 248 249 248 248 247 247 248 247 246 247 
245 245 246 241 242 242 243 244 243 244 223 165 205 246 246 243 
244 243 245 244 245 244 244 243 242 245 244 244 246 246 247 249 
249 249 245 248 247 249 249 249 248 250 250 247 248 248 247 245 245 242 241 241 
238 235 234 234 238 239 237 185 169 216 240 240 242 243 242 245 
246 245 244 245 245 246 247 247 247 248 248 248 250 249 248 247 
248 248 247 248 248 247 249 247 247 247 248 246 246 246 245 246 
244 240 241 242 242 242 241 244 242 206 147 216 249 243 242 242 
243 242 245 242 243 244 243 242 243 244 245 245 245 245 245 246 
247 246 246 250 248 249 249 248 249 251 251 249 248 248 247 246 247 245 242 242 
239 236 237 236 237 238 238 238 223 173 174 215 238 243 240 241 
244 245 247 246 247 247 247 246 247 248 248 249 248 248 247 248 
248 248 247 246 247 247 248 247 245 248 247 248 247 246 245 244 
242 242 239 243 244 245 242 203 179 170 233 249 244 242 242 242 
244 243 242 241 240 243 242 242 242 243 243 242 243 244 244 245 
245 245 247 249 249 248 248 248 250 249 249 249 247 245 247 247 248 245 241 245 
239 237 237 233 236 236 234 236 240 241 209 165 184 213 243 241 
242 243 244 245 246 246 247 245 247 248 248 247 247 247 247 247 
247 247 246 246 246 247 247 249 247 248 246 246 244 245 244 242 
241 242 243 245 242 201 167 152 221 242 245 241 241 242 243 242 
243 243 242 242 242 242 241 239 241 240 242 242 242 242 244 244 
245 245 245 249 249 249 248 248 248 248 249 249 247 247 248 249 248 246 245 242 
243 239 236 236 235 236 237 236 236 238 244 240 206 168 192 206 
234 241 245 244 245 245 245 245 247 246 247 245 246 247 247 248 
247 246 245 246 244 246 245 244 243 244 245 244 243 244 244 242 
242 244 242 217 152 162 193 238 244 241 240 240 241 241 242 241 
243 240 242 242 241 241 243 242 242 240 239 240 242 242 241 243 
241 241 243 248 249 249 248 248 249 248 248 248 247 247 248 249 246 247 243 242 
243 242 239 237 237 237 235 238 236 237 240 241 242 242 217 184 
176 208 227 241 245 246 246 247 244 246 246 245 245 246 245 244 
245 246 245 244 242 243 243 242 242 242 244 244 244 245 246 244 
241 205 166 147 206 238 244 242 240 240 239 239 240 242 241 242 
242 240 241 240 239 241 242 241 237 239 241 241 240 240 241 241 
240 241 242 247 247 249 249 249 248 248 247 249 248 247 248 249 248 245 246 244 
245 245 240 237 238 236 237 237 238 237 238 238 238 241 243 244 
234 207 184 194 195 215 224 245 246 245 247 248 247 245 244 244 
243 243 245 243 243 243 244 243 242 243 245 243 242 235 216 186 
169 155 204 237 242 240 242 239 240 239 238 239 239 240 241 239 
241 240 240 239 242 241 240 238 239 239 238 240 239 239 240 240 
241 241 240 247 246 248 247 247 249 249 249 249 247 247 246 249 247 246 246 244 
244 245 240 237 237 238 237 237 238 238 238 237 238 238 238 237 
242 244 242 236 213 194 168 185 199 213 238 239 243 245 246 246 
246 244 243 242 245 246 244 242 240 235 214 185 163 139 158 198 
234 245 243 241 238 240 239 240 238 237 237 238 237 239 239 239 
239 239 240 239 240 242 240 237 238 238 237 238 239 239 240 240 
240 240 241 247 248 248 247 248 249 249 249 248 246 247 248 248 248 246 247 245 
246 245 243 238 240 238 237 238 237 236 236 238 239 240 237 241 
238 240 245 245 245 245 249 236 225 208 192 175 168 184 191 194 
214 217 203 179 188 195 184 180 180 179 185 208 231 237 245 244 
242 243 241 238 239 240 239 240 237 237 238 235 238 237 238 237 
238 238 238 238 240 239 241 239 237 238 238 238 239 237 239 238 
239 240 240 244 246 246 248 246 248 249 249 248 247 246 246 248 248 246 246 246 
244 246 243 239 237 237 237 238 238 238 239 239 238 238 238 238 
241 241 242 243 241 243 244 246 247 250 250 246 243 232 221 212 
199 197 193 192 199 225 233 240 238 243 245 242 241 241 239 238 
240 239 239 237 238 237 239 239 237 237 238 237 236 236 238 237 
238 237 239 238 238 239 237 239 236 237 238 238 237 237 238 238 
239 239 240 245 247 249 248 247 247 246 249 247 247 246 247 247 248 247 247 246 
244 244 244 242 239 239 238 239 237 239 238 239 238 237 238 238 
239 240 241 241 240 243 242 242 245 246 248 249 248 246 245 246 
246 247 247 246 246 242 242 242 240 238 241 241 237 236 236 237 
238 238 236 237 238 237 235 235 236 236 237 234 235 235 236 237 
236 237 237 238 236 239 239 238 237 235 235 236 237 237 238 237 
238 239 240 242 245 244 245 247 247 246 247 246 246 246 246 246 247 245 246 246 
245 243 241 240 241 241 238 237 238 237 236 237 237 237 237 236 
236 238 241 240 243 242 243 245 244 244 245 246 245 242 240 241 
241 241 239 239 239 240 238 240 239 236 236 236 235 234 234 233 
235 236 235 236 235 235 233 235 234 233 233 234 235 235 235 235 
236 236 236 236 239 238 240 237 235 236 236 235 236 235 236 237 
237 238 239 240 243 243 245 246 246 247 247 245 246 245 244 246 246 246 246 246 
246 242 243 241 239 241 237 237 238 235 237 236 236 238 237 237 
234 238 239 239 240 241 241 241 244 244 245 245 243 240 238 240 
240 240 239 239 238 238 239 238 238 235 235 236 234 233 233 235 
233 232 233 234 231 233 233 233 232 233 234 234 234 233 235 233 
233 234 235 236 236 237 238 235 236 235 235 235 235 234 236 236 
236 238 239 242 240 241 244 244 243 245 248 247 246 244 244 247 247 246 246 246 
247 245 241 242 241 240 239 236 239 238 237 238 239 239 238 239 
236 235 238 237 237 238 240 240 242 245 245 243 242 240 239 239 
238 238 238 236 237 235 236 237 236 237 235 236 234 234 234 233 
232 232 233 233 233 233 232 232 233 235 232 232 233 234 235 234 
234 235 235 234 235 235 237 236 235 234 235 237 235 235 235 235 
237 236 237 237 239 241 242 243 244 244 247 247 247 244 244 244 245 242 245 247 
248 245 243 245 242 241 240 238 236 239 237 238 237 237 236 235 
234 234 235 236 234 235 236 238 240 244 245 243 239 238 239 238 
237 235 234 236 236 238 237 235 236 238 235 234 236 233 233 233 
232 231 232 232 231 232 232 231 231 230 229 231 232 231 232 233 
232 233 232 232 235 235 235 235 235 234 234 236 235 237 234 233 
235 236 236 237 238 240 240 243 243 244 246 247 246 243 243 242 242 241 244 247 
247 249 247 243 243 241 239 239 237 236 237 237 234 233 236 234 
231 231 234 234 233 233 234 234 239 244 244 241 238 237 238 234 
236 236 231 235 233 234 234 232 231 232 232 231 232 230 233 231 
231 231 230 231 230 231 230 230 228 225 226 227 225 228 229 232 
230 231 231 232 233 235 233 234 234 235 236 233 233 235 236 233 
237 236 235 