P2
# Created by IrfanView
100 100
255
203 199 201 202 203 206 204 205 206 205 204 204 201 204 207 207 208 
207 209 207 207 206 204 208 207 208 207 208 207 208 208 210 214 
210 211 209 210 208 208 207 206 208 207 208 206 207 209 208 207 
206 211 210 209 210 210 212 212 210 213 211 211 212 210 212 212 
211 213 212 212 213 214 213 214 215 213 216 215 216 214 215 217 
217 216 216 217 217 218 218 216 217 217 215 213 216 213 214 215 
214 215 215 203 201 201 203 203 204 203 203 203 205 205 203 203 205 209 209 209 
207 206 207 209 208 207 208 206 206 209 207 207 207 207 209 206 
209 209 207 209 207 208 207 208 209 208 209 208 206 210 209 210 
210 208 209 208 209 211 211 209 210 210 212 211 211 210 211 211 
213 212 210 213 214 215 215 213 212 214 215 214 215 215 214 214 
216 217 217 216 216 216 218 217 215 216 217 216 216 216 216 216 
215 214 217 203 203 202 204 203 206 206 204 204 205 204 204 204 204 210 208 207 
209 208 208 207 207 205 206 205 210 207 207 204 208 208 209 209 
209 209 209 209 209 211 211 209 208 209 208 208 210 209 209 207 
212 209 209 209 210 210 210 210 211 210 212 212 209 212 211 211 
210 211 212 212 213 213 213 215 215 216 215 215 216 215 215 216 
216 215 218 219 219 218 217 216 217 216 215 215 216 217 217 216 
215 216 215 204 204 204 202 202 204 205 204 202 205 205 204 206 204 207 208 207 
208 209 208 208 209 208 209 208 207 208 208 205 207 209 207 209 
207 208 208 209 209 212 209 207 207 207 209 209 209 211 212 211 
208 210 211 210 210 211 211 209 211 210 210 212 211 211 212 211 
211 212 214 213 212 214 214 215 216 214 215 214 213 214 215 215 
213 214 217 217 216 217 217 217 217 218 216 215 217 217 218 218 
217 217 219 205 204 206 203 203 204 205 204 204 206 205 206 204 205 208 210 207 
208 209 208 208 205 207 207 207 207 207 209 206 206 209 208 208 
207 209 208 208 207 208 208 209 209 208 209 211 209 209 209 209 
211 210 211 212 210 210 210 211 211 210 211 210 209 212 212 212 
214 213 212 214 214 213 214 215 214 214 215 217 213 214 214 214 
215 213 216 216 217 218 218 218 217 218 218 217 215 218 218 217 
218 219 218 207 207 206 204 206 204 206 206 205 203 205 205 206 205 206 208 210 
211 209 208 208 208 207 209 208 207 208 206 206 207 208 208 209 
209 207 208 208 207 210 208 205 208 207 208 212 213 214 212 212 
213 215 213 211 214 214 214 214 210 211 212 209 211 211 211 213 
212 213 214 215 215 215 213 215 216 217 215 215 216 216 214 214 
214 215 217 217 218 217 218 218 220 220 220 219 219 218 218 217 
218 219 218 205 204 207 207 206 208 206 205 205 205 207 206 205 207 208 209 208 
207 210 208 210 209 211 209 207 209 209 209 207 209 207 208 206 
208 208 209 207 209 207 210 210 209 206 209 205 203 204 206 202 
198 196 198 202 205 208 213 213 216 214 214 215 214 212 213 212 
212 213 215 213 215 214 215 213 214 215 215 215 216 216 216 217 
216 215 217 216 214 217 219 218 218 218 218 219 219 220 218 221 
220 219 220 206 206 203 204 207 205 206 206 205 206 206 208 207 208 207 209 209 
210 207 209 209 208 208 209 208 207 209 209 207 208 208 209 207 
207 208 209 209 208 211 203 198 170 142 135 123 129 131 129 138 
141 133 130 120 129 130 150 144 160 181 197 210 217 213 213 214 
213 210 213 216 214 215 216 216 214 213 215 215 214 215 214 215 
215 216 216 215 214 216 217 219 219 218 221 219 219 220 218 217 
220 219 219 207 205 206 207 206 206 207 206 206 207 208 206 206 207 206 209 208 
208 209 209 207 210 209 207 207 207 208 207 208 205 207 206 209 
212 212 211 206 174 147 113 98 104 155 190 200 206 209 209 213 
215 213 211 208 208 193 182 168 150 122 123 124 149 186 198 208 
218 214 217 214 213 215 214 214 215 217 215 216 216 214 215 214 
214 215 215 217 216 216 219 218 217 218 218 219 219 219 219 220 
220 221 220 207 208 209 207 207 206 208 208 206 206 207 207 207 207 209 207 209 
209 208 208 209 209 209 208 210 209 209 209 207 208 209 210 210 
203 176 142 121 151 186 202 211 213 215 212 213 215 214 212 211 
212 212 212 216 215 215 216 217 213 211 210 194 163 131 119 143 
188 209 216 214 217 216 214 214 215 214 214 214 215 215 213 215 
217 218 214 216 217 218 218 219 218 219 218 219 219 218 219 219 
220 218 219 211 210 209 205 208 206 206 207 208 207 207 206 206 205 207 208 208 
209 209 210 207 208 210 212 210 207 206 208 211 211 212 203 153 
131 136 189 210 216 214 216 215 214 212 213 211 212 212 214 214 
211 213 213 213 213 211 211 214 211 212 214 213 214 210 198 155 
140 147 190 206 217 215 216 214 214 215 214 213 214 214 214 216 
215 214 215 216 214 215 219 218 219 220 219 219 220 220 220 219 
218 220 221 209 209 207 208 205 209 207 206 206 210 208 206 208 209 208 208 207 
209 208 210 209 210 210 207 210 210 210 211 214 199 145 131 178 
214 212 215 216 215 212 213 213 212 211 213 212 213 214 212 212 
213 214 213 215 215 212 213 214 215 211 215 214 212 215 213 215 
215 195 148 139 182 211 218 217 217 216 214 216 216 217 218 215 
216 217 216 215 214 214 214 218 220 217 219 220 220 219 219 218 
220 218 218 209 207 210 208 209 208 208 207 206 206 206 209 208 204 206 210 208 
208 208 207 209 209 208 210 212 213 211 190 141 147 187 218 218 
215 214 212 210 211 212 212 210 213 213 214 213 213 214 213 215 
213 214 214 216 215 213 213 213 212 213 214 213 214 212 214 218 
215 216 211 197 150 129 178 207 216 216 218 215 215 215 216 217 
216 215 215 216 213 215 215 217 217 219 221 219 221 220 220 221 
220 219 220 211 212 211 208 208 208 208 205 207 208 207 207 208 209 209 206 211 
208 207 208 208 209 209 212 214 208 159 127 189 219 216 216 213 
213 211 213 213 212 213 212 213 213 214 212 213 215 214 213 216 
215 214 216 215 214 214 215 214 213 214 213 213 212 213 213 213 
214 214 217 217 215 190 131 127 199 215 218 217 215 213 214 215 
216 216 217 216 215 214 215 218 215 217 219 218 218 218 220 220 
220 219 219 212 211 211 211 206 208 207 208 209 209 207 207 205 206 207 207 205 
209 208 207 207 207 213 209 181 121 156 209 215 215 215 213 214 
215 212 213 214 214 213 215 214 212 215 215 215 214 216 215 216 
214 215 215 216 215 216 216 215 215 216 216 214 215 217 216 216 
215 215 214 215 215 215 213 182 133 158 200 218 218 216 216 215 
217 218 218 217 217 215 213 215 217 217 217 217 220 219 219 219 
219 219 219 213 213 212 206 210 209 209 209 208 209 208 207 211 209 206 207 205 
207 207 208 209 214 210 142 136 202 214 213 213 212 215 214 215 
214 215 214 212 213 214 214 216 212 215 215 215 215 216 215 217 
216 216 216 215 216 214 215 217 216 215 216 216 216 216 216 217 
215 214 215 214 213 213 215 213 205 168 130 190 215 218 217 217 
216 217 215 216 217 215 217 214 215 214 218 217 218 216 219 219 
218 218 218 207 208 211 211 209 208 210 207 206 206 207 207 206 205 208 207 208 
206 207 210 212 196 125 151 216 216 213 212 213 211 213 215 215 
216 217 215 214 216 215 214 215 215 214 214 216 216 215 218 215 
216 217 216 216 216 216 217 217 216 217 218 216 216 218 217 216 
218 216 214 214 212 211 212 215 216 218 184 125 169 212 217 215 
217 217 217 218 215 217 217 216 216 216 217 218 220 216 219 218 
219 221 219 212 211 211 210 209 209 211 207 208 209 208 206 207 206 207 205 207 
206 209 206 186 119 193 220 213 212 212 213 211 213 213 215 219 
219 216 214 214 214 213 216 215 215 216 217 215 216 216 215 215 
217 216 217 217 216 216 215 216 216 216 217 219 218 220 220 218 
218 216 215 214 214 215 216 215 216 219 220 207 141 162 210 218 
217 217 217 219 217 219 219 219 219 216 216 217 218 217 218 220 
220 220 218 211 212 211 208 209 209 211 209 208 207 209 207 206 204 204 208 207 
212 203 114 126 200 216 214 212 214 211 212 211 212 213 212 216 
215 215 215 215 215 215 212 214 214 216 216 215 217 215 214 214 
217 216 217 217 217 218 218 218 218 217 217 218 217 218 220 219 
219 216 216 215 216 215 216 218 219 216 218 219 213 156 161 214 
218 218 219 219 219 219 220 219 220 221 218 217 217 218 220 220 
220 221 219 210 211 212 211 211 212 210 209 209 208 209 209 207 208 207 203 208 
204 91 112 200 217 212 213 211 210 212 211 215 213 213 211 214 
218 215 217 217 216 215 215 217 216 215 216 219 216 218 218 217 
217 217 217 217 218 216 217 218 218 219 219 217 218 219 219 219 
217 215 216 216 215 216 216 217 214 217 218 218 218 219 180 137 
201 217 217 217 218 218 216 218 219 219 219 217 220 218 220 220 
219 220 220 208 210 211 211 211 212 208 208 210 210 210 209 206 208 208 209 211 
108 169 212 218 213 211 212 211 212 212 213 214 210 213 214 212 
215 217 217 215 215 214 216 214 217 217 216 216 216 216 215 215 
217 215 219 218 217 217 216 216 218 216 218 218 217 216 217 219 
217 217 217 217 215 215 215 217 218 215 219 217 217 221 219 183 
140 212 220 218 218 219 220 219 220 220 220 221 220 221 220 220 
221 219 221 211 212 212 210 211 212 210 211 213 212 209 208 208 208 210 212 126 
168 213 212 210 211 211 211 212 210 213 211 211 214 213 216 215 
217 216 217 217 216 216 214 217 215 215 215 217 218 215 218 217 
217 218 218 217 216 217 219 218 216 218 218 218 217 218 217 216 
217 216 216 216 217 218 217 217 217 216 220 216 218 218 219 218 
197 166 215 221 219 219 220 220 221 222 220 222 219 219 219 219 
222 222 222 211 212 211 212 211 210 210 209 211 212 210 208 209 207 213 150 155 
215 211 212 211 213 211 212 209 211 211 212 212 214 213 216 215 
214 216 218 217 216 217 217 217 216 217 217 217 216 218 216 220 
217 218 217 217 217 219 217 216 218 218 217 218 217 217 216 217 
219 217 219 218 217 219 218 218 220 219 219 218 219 219 218 219 
218 198 174 218 219 219 220 219 221 222 220 221 222 219 221 223 
221 220 220 212 212 212 211 213 213 212 211 211 212 211 210 209 211 184 143 214 
213 210 210 211 212 212 210 210 209 210 214 213 208 201 178 180 
182 204 216 219 219 218 216 216 215 218 218 218 218 216 217 218 
218 217 218 216 217 217 218 217 217 218 217 219 216 219 218 219 
220 222 220 212 210 211 202 210 222 221 222 217 218 220 218 218 
216 219 182 171 216 217 219 220 220 220 221 221 221 221 221 220 
221 222 220 213 212 211 212 214 212 209 210 211 212 209 210 211 207 121 212 214 
210 213 211 213 213 211 211 208 210 212 209 185 152 116 133 149 
142 142 139 163 190 217 216 216 218 218 217 216 218 217 219 216 
218 216 216 218 218 216 217 218 216 217 217 218 217 217 221 221 
202 161 145 154 142 144 113 128 147 182 219 218 219 219 219 218 
220 219 216 164 198 218 219 221 220 221 222 221 222 221 221 221 
221 221 220 211 212 210 213 211 211 212 212 212 212 212 211 214 132 186 215 211 
214 213 212 213 213 212 211 211 213 200 145 119 160 198 210 212 
212 210 204 182 167 175 216 217 219 218 218 217 218 220 219 219 
216 217 217 217 217 218 218 218 220 220 217 216 217 218 198 179 
120 132 177 175 179 199 192 194 180 163 181 221 219 217 219 219 
218 219 221 213 160 210 219 220 219 222 223 221 221 221 221 220 
221 222 223 212 213 214 210 214 213 211 212 211 211 211 214 186 143 219 212 214 
212 213 213 212 213 211 210 213 180 126 162 208 214 216 216 214 
213 215 218 215 216 183 195 216 217 218 218 219 218 218 216 217 
218 219 219 218 218 219 217 216 216 218 217 215 220 212 136 137 
190 222 222 221 223 221 216 221 221 216 134 214 218 219 218 219 
220 218 218 221 198 156 221 221 221 222 222 221 221 221 222 223 
223 221 221 213 213 211 213 214 212 211 214 214 212 211 211 111 210 213 213 213 
215 214 215 214 215 215 214 154 125 195 220 217 212 211 212 212 
212 213 214 217 219 214 164 213 219 219 219 219 218 219 219 218 
218 217 216 216 218 216 217 218 217 218 219 217 208 147 146 213 
222 221 218 218 219 216 217 218 220 219 151 201 220 219 219 219 
220 217 219 221 215 173 182 222 221 220 223 222 221 221 222 223 
221 220 223 212 212 214 213 214 212 213 213 212 210 213 162 167 214 215 214 214 
213 213 213 214 214 214 190 116 207 220 216 214 209 212 213 214 
215 217 216 216 215 216 204 208 219 219 219 218 217 218 217 217 
218 219 218 218 220 220 218 217 218 218 215 201 120 159 216 220 
217 219 217 217 218 217 217 217 217 217 181 194 221 219 219 220 
218 217 220 220 216 214 165 210 218 219 219 222 222 222 222 222 
221 222 223 213 213 212 211 213 213 212 213 210 213 212 129 215 213 213 215 215 
215 215 214 213 215 216 144 196 218 215 215 212 211 210 175 182 
215 215 217 216 218 217 216 218 218 218 220 219 219 219 218 220 
217 219 220 218 216 218 218 217 218 218 216 150 158 219 219 219 
218 220 216 218 214 219 219 218 219 220 221 193 221 217 219 219 
220 219 221 221 218 217 191 169 221 219 221 221 223 222 221 222 
222 222 222 213 213 213 212 214 212 214 215 212 213 164 175 215 215 215 215 215 
215 214 214 215 216 215 211 215 213 214 215 215 216 148 106 171 
174 213 217 217 218 216 216 218 218 219 218 218 218 218 219 220 
220 218 217 218 218 218 218 217 218 218 213 131 216 220 219 220 
218 216 213 190 138 169 212 219 220 221 220 225 221 221 219 219 
218 221 220 218 220 217 217 166 213 219 220 222 222 223 222 222 
223 223 222 213 213 213 214 213 215 213 212 211 210 130 214 215 216 216 214 215 
214 215 215 213 214 215 216 214 213 216 215 211 174 90 97 89 
104 209 217 218 218 219 219 220 219 218 218 219 218 217 218 217 
218 219 217 219 219 218 217 219 220 218 214 179 217 217 220 221 
215 216 186 96 100 117 181 217 219 221 222 222 221 222 222 220 
221 219 222 221 219 217 218 203 172 222 219 221 222 222 223 221 
222 222 222 213 213 213 212 213 213 212 213 211 188 160 215 215 216 217 216 215 
217 216 216 212 214 214 215 216 215 217 215 213 133 78 65 59 
87 193 218 219 218 218 218 218 218 220 219 219 219 220 221 221 
219 219 218 218 218 219 219 218 222 219 218 217 218 219 221 222 
220 201 122 88 90 106 136 215 221 222 223 222 222 220 222 222 
221 220 221 219 220 220 218 215 166 206 219 220 222 220 222 221 
222 221 223 213 213 213 214 213 213 212 213 216 135 210 214 216 217 213 217 216 
218 215 216 217 216 214 215 215 214 217 215 189 99 86 64 78 
75 184 218 219 220 219 220 218 220 219 219 218 219 220 219 218 
219 218 221 220 219 218 219 219 218 218 218 219 219 221 220 221 
214 144 101 98 87 84 90 195 224 223 222 223 224 222 221 221 
221 220 221 222 220 219 220 221 206 174 221 222 222 221 222 222 
222 222 222 213 212 212 213 214 213 215 214 207 151 218 214 215 215 215 216 216 
217 217 217 217 216 216 215 215 215 214 216 165 95 91 108 96 
86 191 218 219 220 219 219 219 220 220 219 220 218 218 219 217 
219 218 218 220 218 220 221 221 220 218 218 220 220 220 221 222 
213 150 110 114 106 118 102 190 221 221 222 222 222 222 221 219 
221 222 222 221 221 222 221 219 221 168 213 220 221 220 221 223 
223 222 223 213 213 213 214 214 216 214 214 174 182 214 215 216 215 216 218 217 
216 216 217 217 216 217 217 217 216 216 214 158 125 76 132 84 
77 201 218 219 220 219 219 220 219 219 219 220 220 221 220 220 
219 218 220 219 220 217 219 219 219 220 219 219 218 219 220 219 
198 141 93 113 112 91 94 198 221 222 223 221 223 221 222 222 
221 221 222 223 222 221 222 224 219 187 188 219 222 223 223 222 
221 222 222 214 212 212 214 214 213 214 212 140 211 214 218 216 215 215 218 217 
218 217 218 218 217 217 216 218 215 216 211 155 97 96 117 80 
108 211 219 219 219 219 220 219 221 218 220 219 220 219 220 219 
221 218 220 220 221 219 220 220 220 220 220 220 219 219 223 218 
199 116 95 103 121 98 120 213 222 222 222 222 223 222 223 222 
222 222 222 220 221 221 222 224 219 212 158 223 223 221 221 222 
221 221 223 213 211 211 213 212 214 214 211 144 215 215 215 216 213 214 217 217 
219 218 217 216 217 216 216 217 219 217 209 148 140 121 81 72 
127 213 219 220 220 219 220 221 219 220 219 219 219 221 220 219 
219 219 221 219 218 219 219 221 221 220 221 219 222 224 223 220 
191 116 99 102 111 94 150 219 220 222 223 223 223 223 220 223 
223 223 222 222 221 223 223 224 221 219 168 214 221 222 221 222 
225 222 221 213 213 213 212 213 212 217 175 173 215 216 215 215 215 219 217 217 
218 216 217 218 221 218 218 217 217 218 210 153 114 88 64 85 
173 219 220 219 220 221 220 220 220 220 221 219 221 220 220 221 
220 221 220 219 219 220 221 219 220 219 221 221 221 221 220 220 
194 135 109 107 109 99 193 223 223 224 224 221 223 226 223 224 
224 223 223 223 223 223 224 223 221 221 192 190 223 223 223 222 
219 221 223 214 213 212 212 213 213 214 159 202 215 216 216 217 216 217 219 216 
217 218 218 220 220 219 217 218 216 218 212 172 137 79 56 114 
215 219 219 218 218 220 220 220 220 221 218 220 220 220 221 222 
219 220 219 221 221 221 221 220 222 222 220 222 220 221 220 219 
179 123 97 113 100 108 217 222 223 224 224 224 222 221 223 223 
222 224 222 223 223 221 223 222 221 218 213 170 224 220 222 223 
222 222 223 212 214 212 213 213 213 213 142 212 215 216 215 215 216 217 219 218 
218 218 219 215 219 219 217 215 215 217 216 194 124 93 58 167 
220 219 220 220 219 221 222 219 221 220 221 220 220 220 222 220 
220 220 222 221 219 220 220 221 221 221 220 220 219 220 223 220 
189 141 95 84 80 151 225 223 223 223 223 223 223 223 222 222 
224 222 223 223 222 222 222 223 223 221 220 166 224 223 223 221 
221 221 222 213 213 214 212 212 212 210 138 214 214 218 217 216 215 219 218 216 
219 218 217 219 220 217 218 218 219 219 215 212 152 116 128 200 
216 217 220 219 221 221 218 220 218 221 222 220 220 220 219 220 
221 219 221 221 221 223 222 222 220 222 220 221 222 221 221 220 
201 119 83 53 122 201 225 222 223 222 223 222 222 223 223 221 
223 223 224 222 222 222 222 223 222 221 220 173 216 222 223 221 
222 221 222 212 213 211 212 214 213 198 163 215 214 216 215 215 217 217 218 218 
217 219 220 219 219 220 218 218 218 217 217 217 212 199 208 213 
217 216 219 221 220 220 219 222 221 221 220 220 221 220 220 220 
220 221 221 221 219 220 221 221 221 221 223 221 222 222 223 221 
220 178 94 99 166 223 222 223 223 223 222 223 224 224 223 222 
223 222 222 223 223 222 222 223 222 218 219 190 185 225 222 222 
222 222 221 213 213 213 214 215 213 186 173 214 215 216 216 216 216 216 217 216 
217 219 217 221 218 218 217 218 217 217 217 216 219 218 219 215 
217 217 220 219 220 221 219 220 222 221 220 221 220 221 219 220 
221 220 220 220 221 221 222 222 222 223 221 222 222 221 223 222 
222 220 175 172 202 223 225 224 223 225 227 223 223 223 221 223 
223 223 224 224 224 224 222 221 222 223 221 202 166 222 222 223 
222 223 223 213 212 214 213 212 215 178 188 213 216 216 215 215 215 216 215 218 
218 219 220 218 219 218 218 218 219 218 218 216 218 219 218 217 
217 218 219 221 221 220 221 221 221 220 221 220 220 221 219 221 
220 221 221 222 222 222 221 222 221 221 221 221 220 220 221 222 
222 219 219 215 220 223 223 223 223 222 223 222 223 224 223 223 
223 222 222 223 223 222 223 223 222 221 221 214 161 225 223 222 
223 223 222 214 216 213 215 216 211 173 188 213 216 213 217 217 217 217 216 220 
219 218 218 219 218 219 218 219 219 218 218 218 219 217 219 220 
218 219 219 221 220 220 221 220 220 221 220 219 219 220 221 220 
221 221 220 222 221 221 220 221 220 222 222 221 222 221 222 223 
222 221 225 224 222 223 223 223 223 223 225 223 223 223 223 223 
224 223 223 223 222 222 221 225 223 222 223 220 154 222 223 223 
222 222 223 214 214 214 213 214 215 160 199 214 216 216 215 218 216 217 218 218 
220 222 221 218 219 218 220 219 219 219 220 219 217 218 219 219 
217 218 219 220 220 219 220 222 217 222 219 222 223 219 221 222 
222 221 221 221 223 221 222 223 223 222 222 221 223 223 223 224 
224 221 222 221 224 224 222 223 223 223 220 223 223 223 222 222 
222 223 223 223 224 226 224 224 222 221 221 220 164 221 222 221 
224 223 223 214 214 215 215 215 213 146 199 216 215 216 216 215 215 217 219 218 
218 218 219 221 220 219 218 220 219 219 219 218 220 219 219 217 
221 218 215 218 220 219 221 218 218 222 219 222 220 221 222 221 
221 221 221 219 221 221 223 224 222 223 223 223 223 223 223 223 
223 222 222 225 222 224 223 224 224 221 224 223 223 223 224 224 
224 223 223 223 223 224 223 224 224 225 223 220 170 217 221 222 
222 223 224 215 216 214 214 214 213 152 207 217 217 217 216 216 215 216 217 219 
219 219 220 220 220 220 220 217 219 218 220 218 217 219 219 219 
218 219 217 220 222 219 221 218 221 222 219 221 219 222 221 223 
221 221 220 220 220 220 220 220 222 222 222 222 223 221 222 223 
224 223 223 223 224 223 224 224 223 224 223 223 223 223 222 223 
225 223 223 224 224 223 223 223 223 225 221 225 173 214 223 223 
223 222 222 214 215 214 213 215 215 147 210 216 217 218 217 217 215 215 218 219 
221 220 219 219 220 219 220 222 220 220 219 218 222 219 220 219 
220 219 218 219 219 219 218 220 220 220 222 222 221 222 222 221 
220 223 223 220 222 222 221 221 222 224 221 222 223 222 223 223 
222 221 221 222 222 223 223 223 223 224 224 224 223 223 223 224 
219 222 223 223 223 223 223 221 222 221 223 218 177 211 224 222 
224 224 224 215 215 215 217 214 216 130 212 218 216 217 215 216 215 214 218 219 
220 220 220 219 220 219 219 220 219 220 219 218 217 219 220 220 
219 220 219 220 220 221 221 221 221 221 220 223 221 222 221 222 
221 221 220 221 221 222 222 222 224 223 222 221 222 223 222 223 
223 222 222 223 223 223 224 222 222 223 224 224 222 223 221 223 
225 221 224 223 222 223 223 222 224 224 222 221 172 210 223 223 
222 223 224 216 218 216 216 217 215 148 198 217 217 215 217 217 215 215 217 217 
220 220 220 220 221 219 220 217 220 220 220 220 221 220 220 220 
219 221 220 220 220 220 221 221 221 222 223 221 223 222 221 221 
222 221 222 219 221 222 222 223 221 222 223 222 225 223 223 223 
224 223 222 222 224 225 224 224 222 224 224 223 224 223 224 222 
222 223 223 223 221 224 222 221 222 223 221 220 170 215 223 224 
223 223 223 217 216 215 214 218 217 164 183 217 216 217 217 213 214 217 219 218 
220 219 220 220 219 219 220 222 220 219 220 220 220 220 219 219 
221 222 219 219 220 221 221 221 222 221 220 221 220 222 222 222 
222 224 224 221 220 223 222 222 222 224 223 222 222 222 222 223 
223 222 221 220 222 223 224 225 224 224 223 224 224 222 224 223 
223 223 222 221 222 223 222 223 224 222 222 221 170 216 224 223 
223 224 222 217 218 216 216 218 216 168 181 216 217 217 218 218 213 214 218 221 
221 220 221 221 222 221 220 221 218 221 219 220 220 220 220 220 
220 219 219 216 219 220 222 222 221 220 222 222 221 221 222 222 
221 220 221 222 221 223 222 223 222 223 223 223 223 223 222 222 
223 223 223 224 224 225 223 222 222 222 223 224 223 224 223 221 
224 221 222 222 222 223 222 220 220 221 221 222 165 217 224 224 
224 223 224 218 215 216 215 217 216 174 194 217 218 217 214 216 216 216 220 219 
218 219 220 221 219 220 219 219 220 221 221 219 220 220 220 220 
219 220 220 219 222 220 222 221 221 221 221 223 222 221 222 222 
224 223 223 223 223 222 223 222 223 223 222 222 223 222 221 224 
222 222 222 222 224 223 223 223 224 225 225 223 224 224 222 223 
224 223 223 223 223 224 223 222 222 221 222 223 162 223 222 225 
222 222 223 217 216 216 217 217 216 185 186 215 218 215 217 219 217 216 220 221 
221 221 220 220 220 220 222 221 219 221 220 221 220 219 221 220 
220 220 220 218 221 218 222 222 223 222 222 222 223 220 223 222 
222 223 223 224 223 224 224 222 222 222 223 223 224 224 222 221 
222 222 222 224 224 223 222 221 222 222 222 225 222 224 224 223 
223 223 223 224 223 225 222 221 221 221 222 219 164 222 224 224 
226 223 223 215 217 216 216 218 219 204 176 216 218 217 218 217 217 219 220 216 
217 219 220 221 220 220 220 218 221 221 220 220 221 221 220 221 
221 220 220 221 219 220 220 222 221 223 223 221 222 221 221 223 
222 222 223 223 224 223 222 221 222 222 222 223 223 225 224 222 
225 222 224 224 223 224 225 225 224 222 224 223 223 223 223 223 
222 221 222 222 222 221 220 222 222 220 222 221 158 225 224 224 
223 225 224 216 216 215 213 215 218 213 168 218 216 217 218 218 217 214 219 218 
218 222 220 220 220 220 220 220 219 221 219 220 219 218 220 219 
221 219 220 221 222 220 221 221 222 222 222 222 219 221 221 223 
224 222 222 224 222 223 223 222 224 222 225 223 221 223 222 224 
223 224 223 223 224 223 224 224 223 224 224 224 223 223 224 224 
224 224 221 221 223 222 222 222 221 220 220 213 169 227 224 224 
224 222 224 216 215 214 216 218 217 217 161 218 217 216 216 217 217 218 219 218 
219 219 221 220 221 221 221 220 220 220 221 220 221 219 220 220 
221 221 221 220 221 219 222 222 222 221 224 222 223 223 223 221 
222 223 223 223 223 223 221 223 223 223 223 223 222 223 224 224 
223 222 223 224 223 224 222 223 223 223 224 224 224 224 222 221 
222 221 223 223 225 223 221 221 221 220 222 195 181 225 226 224 
225 224 222 215 216 217 214 215 214 218 174 208 216 217 216 215 215 217 219 218 
219 219 220 221 221 221 220 222 220 221 221 221 221 221 221 220 
220 220 221 221 221 222 222 222 223 224 222 222 222 222 222 224 
223 222 222 221 223 223 223 222 223 222 223 223 223 223 224 224 
223 224 223 224 223 223 223 223 223 222 224 223 223 223 223 223 
224 224 224 224 223 223 221 223 223 221 220 173 205 224 223 223 
224 221 223 215 215 217 216 215 216 216 190 188 218 217 217 215 217 217 218 219 
221 220 220 221 220 220 219 221 221 220 221 221 221 220 221 222 
222 221 221 221 222 221 222 222 222 221 222 222 225 222 222 222 
222 223 224 224 223 223 223 223 223 223 223 223 224 223 224 223 
224 220 224 221 225 222 223 224 223 222 224 224 222 222 223 224 
222 223 222 223 223 221 223 224 223 223 222 157 222 225 225 223 
224 224 224 216 216 216 216 216 217 219 210 148 220 217 218 217 217 217 216 220 
221 220 221 220 220 220 221 220 221 221 220 221 220 220 222 220 
221 219 221 223 221 223 222 222 220 222 221 221 222 223 223 221 
218 222 222 221 222 224 222 225 222 223 224 223 224 224 224 223 
223 225 223 222 224 223 224 224 224 223 224 224 225 225 224 224 
223 223 222 221 221 223 224 224 225 223 222 159 224 225 224 224 
224 224 224 215 216 217 217 215 217 216 212 159 212 215 215 217 216 217 217 221 
220 220 219 220 221 220 220 221 221 221 222 221 220 222 220 220 
219 221 221 220 220 221 222 219 222 221 221 222 223 221 222 222 
223 223 223 222 222 221 222 220 224 222 222 224 222 222 223 224 
223 222 225 224 224 223 223 222 224 223 224 222 221 222 223 222 
222 222 222 223 223 222 223 224 224 222 206 177 226 224 223 223 
224 225 223 217 217 214 216 215 215 217 216 175 185 216 215 216 218 218 218 220 
221 219 220 221 221 221 220 220 220 221 220 221 219 220 220 221 
222 221 220 221 220 222 223 222 220 223 223 221 221 222 222 222 
222 221 221 222 223 224 221 223 221 223 223 224 223 223 223 223 
223 223 222 225 224 224 222 223 224 222 223 221 221 222 222 222 
223 224 223 220 222 221 223 224 226 221 179 208 225 225 224 225 
224 227 221 216 216 215 217 217 215 216 216 210 163 217 218 217 216 217 216 219 
220 220 221 220 220 220 220 221 220 221 220 221 221 220 221 219 
219 220 220 219 220 219 221 220 221 220 220 221 222 221 220 220 
220 220 220 222 223 220 224 222 222 223 224 223 223 223 223 224 
223 221 223 223 224 223 224 221 226 222 223 221 223 222 222 222 
222 222 221 222 221 221 221 221 224 225 165 225 225 223 225 225 
225 226 222 216 216 216 216 216 217 216 216 215 157 209 217 215 214 217 216 221 
221 220 221 220 221 222 220 221 221 218 221 220 220 221 221 220 
222 219 219 220 218 221 219 220 220 218 220 220 220 219 220 221 
221 221 220 221 222 224 222 223 221 223 223 223 223 225 223 225 
224 224 223 223 223 224 223 223 223 223 223 222 221 220 223 224 
223 223 221 223 221 222 224 221 224 206 173 225 224 225 224 225 
223 224 223 217 218 217 217 216 217 215 216 218 187 178 215 216 215 216 217 219 
221 222 219 221 220 221 221 219 220 221 222 221 220 219 219 219 
220 222 220 221 220 219 220 220 220 221 220 221 220 219 220 226 
224 223 222 222 221 222 222 221 222 223 223 222 223 224 223 224 
224 224 222 224 223 223 225 223 222 223 221 222 224 223 223 222 
221 221 220 221 220 220 222 220 221 170 217 224 225 224 225 225 
224 226 223 217 218 217 216 217 218 216 216 216 214 153 214 212 214 217 214 219 
219 219 220 219 221 220 220 220 221 221 222 218 219 221 219 221 
221 221 219 219 220 220 220 221 220 219 219 218 220 223 218 206 
214 218 219 215 222 218 218 221 222 222 223 221 224 223 223 223 
223 223 223 224 223 224 223 222 223 223 223 222 221 221 221 221 
221 222 222 223 221 221 221 221 218 156 226 223 224 224 224 225 
226 224 224 217 216 216 216 216 217 216 214 217 216 169 181 216 215 217 216 220 
220 220 221 218 219 220 220 220 219 219 221 220 220 220 221 220 
221 220 219 221 218 219 219 220 218 219 219 218 220 213 162 138 
143 140 148 173 211 220 218 217 221 222 222 222 223 223 223 224 
221 223 223 224 222 222 225 223 222 222 220 222 222 221 222 222 
222 220 220 217 219 220 220 220 175 194 225 224 224 223 225 224 
223 223 225 217 217 217 217 217 216 216 216 215 216 202 148 211 216 214 215 220 
219 221 220 220 220 220 223 221 221 220 220 220 219 219 220 219 
219 220 220 217 219 220 219 220 219 219 222 222 205 148 169 212 
211 204 195 174 150 216 217 219 221 224 223 223 223 224 224 224 
225 223 221 222 222 224 222 223 223 224 222 222 221 222 221 222 
222 221 220 220 220 220 219 222 160 224 225 224 223 224 221 221 
222 221 225 218 219 217 218 217 216 218 217 217 217 218 166 172 216 214 214 216 
218 220 219 220 221 220 219 219 220 220 219 219 219 219 218 220 
219 219 220 221 220 220 220 216 220 218 215 197 155 190 221 223 
221 219 218 214 187 179 217 217 222 225 224 223 224 224 223 223 
222 223 224 224 224 223 224 223 223 222 221 220 222 222 222 222 
223 221 220 221 221 220 222 185 186 224 224 222 224 223 223 223 
223 224 223 216 218 218 218 217 218 218 216 219 217 216 207 137 214 215 214 218 
220 219 219 219 219 218 220 220 219 218 218 217 219 218 219 220 
219 218 220 219 219 221 220 219 218 219 175 135 203 223 219 220 
218 217 215 214 212 157 215 220 222 221 221 223 221 223 225 223 
223 221 224 223 222 224 225 223 222 223 223 223 221 222 221 222 
222 221 221 222 222 220 222 164 219 224 223 222 222 223 223 221 
221 222 224 218 219 218 217 217 216 218 218 216 218 215 216 188 173 217 217 215 
217 218 217 220 220 220 219 219 220 221 220 220 217 217 219 219 
218 220 219 219 219 219 218 217 220 214 168 175 222 218 219 220 
216 214 215 213 216 176 205 222 222 221 221 221 222 222 221 224 
224 223 223 225 224 223 223 223 224 225 221 221 220 221 221 221 
222 220 224 223 223 221 178 198 226 223 223 222 224 223 222 222 
223 224 224 217 220 216 218 217 217 217 216 217 218 216 214 211 151 186 217 214 
216 217 217 219 220 219 217 219 219 218 220 220 218 218 217 219 
219 219 218 219 219 219 221 218 220 218 171 192 218 218 218 219 
218 216 214 214 217 168 175 221 221 222 223 221 222 224 225 223 
222 224 224 222 224 222 226 225 224 224 221 222 223 221 220 220 
220 218 221 223 225 210 181 226 224 223 223 223 222 222 223 223 
222 222 223 217 218 219 218 219 216 216 215 216 216 216 214 213 203 144 212 217 
217 217 216 217 217 217 218 221 218 220 219 219 219 220 221 220 
219 218 218 220 218 220 217 220 220 216 189 186 220 219 220 218 
217 217 214 212 217 163 193 222 222 222 222 223 222 224 222 225 
222 222 224 224 222 223 223 224 224 223 224 224 225 221 220 220 
220 221 222 222 226 171 217 225 222 225 223 222 223 221 220 221 
221 224 224 217 218 216 217 216 215 215 218 215 216 214 213 211 214 171 150 214 
216 217 215 216 218 219 219 218 219 219 220 219 219 217 218 219 
218 219 220 218 220 219 219 217 218 219 210 183 216 216 217 218 
218 217 216 216 215 152 185 221 221 221 223 223 223 224 224 222 
224 223 223 222 224 225 224 224 225 223 222 224 223 222 221 221 
223 221 219 224 186 199 228 226 223 224 224 223 222 221 220 222 
220 222 225 216 216 218 219 218 218 216 215 215 216 215 213 215 210 208 145 176 
215 215 214 217 218 216 218 219 220 219 219 220 218 218 219 219 
220 220 219 221 220 219 217 217 218 219 219 202 198 221 219 216 
218 221 219 214 170 134 215 224 223 222 223 223 224 223 224 223 
223 224 223 225 223 223 222 224 225 225 223 221 223 222 221 223 
224 220 223 208 179 225 223 225 224 222 222 222 222 222 220 220 
220 224 223 217 217 218 217 217 215 214 219 216 216 215 216 216 211 212 205 139 
178 218 215 216 217 217 221 219 219 219 219 219 221 219 219 218 
220 219 219 218 219 219 220 219 217 219 217 219 197 189 218 223 
222 221 206 154 139 190 222 220 221 221 221 222 222 224 222 222 
223 223 223 223 222 223 224 223 225 222 222 222 221 222 223 220 
219 222 217 168 220 226 224 223 222 224 223 223 223 222 222 220 
224 223 223 217 218 217 218 218 218 215 215 216 215 215 216 215 213 211 211 200 
141 191 215 218 220 219 217 219 219 220 219 219 218 218 218 218 
218 218 219 219 219 219 219 219 218 221 220 216 215 192 162 186 
195 166 134 131 177 223 220 220 222 221 222 222 222 223 224 224 
220 223 223 221 224 223 223 223 222 222 222 224 221 225 222 219 
221 213 165 209 224 223 223 225 224 222 223 224 222 220 221 223 
222 224 223 218 217 218 217 217 217 217 216 216 216 214 215 215 211 210 211 216 
195 130 199 219 217 216 219 219 218 219 219 218 219 220 220 220 
220 219 220 219 221 219 218 218 219 218 217 218 216 214 198 175 
144 155 173 204 218 221 220 221 219 221 223 223 222 222 222 224 
222 222 222 225 222 223 222 223 222 222 223 222 223 224 223 221 
219 157 186 225 224 225 226 226 225 224 222 222 224 222 223 223 
221 223 223 216 216 216 217 218 215 215 215 216 215 215 215 215 212 212 210 213 
214 189 132 205 222 218 217 220 219 219 218 222 219 217 217 219 
221 218 220 219 220 217 220 219 218 217 219 218 218 218 221 219 
216 218 217 220 221 220 220 221 223 219 221 224 223 221 221 222 
223 223 222 224 223 223 221 220 222 222 224 223 221 222 222 219 
165 190 227 225 225 225 227 226 224 222 225 224 224 223 224 224 
222 223 224 216 216 217 216 217 217 218 217 215 215 215 216 215 214 213 211 214 
213 213 195 142 197 222 218 216 218 218 221 218 218 219 219 219 
219 219 219 218 219 221 221 220 220 219 220 219 219 220 221 220 
223 220 217 216 219 220 220 221 221 221 219 218 222 219 224 223 
221 222 223 222 222 222 222 224 221 221 221 222 220 221 219 164 
191 223 227 223 225 224 224 225 224 222 224 222 223 222 222 223 
221 224 224 218 214 217 217 218 217 216 215 217 216 217 215 216 214 213 213 217 
214 214 215 196 141 194 219 220 217 217 218 218 219 220 218 219 
219 220 219 219 221 220 220 219 220 218 218 220 221 220 220 219 
220 219 218 220 221 221 222 219 220 220 220 221 222 222 223 223 
223 223 222 221 222 221 221 221 219 221 221 222 223 209 170 203 
222 223 224 224 224 224 226 225 225 222 223 225 224 223 223 222 
222 222 221 216 215 214 215 215 216 216 218 216 216 216 215 214 213 213 214 217 
215 214 213 212 196 148 174 215 219 218 217 216 217 219 217 218 
218 218 218 220 220 220 220 221 219 220 219 219 219 219 220 220 
221 221 220 220 221 219 219 221 222 222 219 221 223 222 220 221 
224 222 221 224 223 222 221 222 224 222 224 222 204 167 204 225 
224 224 224 224 225 225 225 223 225 223 224 223 223 224 224 224 
224 224 224 215 215 214 214 216 217 216 217 215 216 215 217 216 215 214 213 214 
212 213 213 212 215 209 165 156 209 219 216 217 217 218 218 219 
219 217 218 219 221 219 220 220 220 221 221 220 221 219 219 217 
218 221 220 219 221 221 220 219 221 220 222 222 221 220 223 221 
222 221 220 222 222 222 222 221 224 226 223 189 160 202 227 224 
223 224 225 225 224 224 224 223 223 223 222 223 223 223 223 223 
222 223 224 214 214 214 215 216 216 216 217 217 216 215 215 215 215 215 216 214 
214 214 214 212 214 214 213 178 156 191 215 219 216 216 215 218 
219 218 217 220 218 217 219 219 220 220 220 219 220 220 221 221 
221 221 221 219 219 219 221 219 219 220 219 222 218 221 221 222 
221 222 221 222 224 223 221 224 225 218 162 168 214 222 224 225 
223 224 225 224 224 224 223 223 224 223 223 223 225 226 224 223 
223 224 222 216 212 213 216 217 217 217 216 215 217 216 217 215 217 216 214 216 
216 214 216 214 213 217 214 215 204 160 149 211 218 220 219 216 
215 216 218 220 218 220 219 220 218 218 218 220 220 218 220 220 
221 220 221 220 221 220 220 220 219 220 221 218 221 220 220 222 
220 221 221 222 222 223 222 222 198 142 173 220 224 222 221 222 
224 223 224 225 226 224 225 223 224 224 224 224 222 224 222 223 
224 223 227 215 216 215 216 216 217 217 215 213 214 216 218 217 216 215 216 214 
216 213 214 214 214 213 212 214 216 215 175 141 169 212 221 216 
217 215 216 216 217 218 220 220 220 220 221 220 221 221 219 220 
222 218 220 219 219 217 220 219 221 219 220 220 221 220 219 220 
220 219 219 222 223 224 203 152 155 205 227 223 221 223 223 225 
224 223 225 224 224 225 225 224 222 222 223 223 223 222 220 224 
224 224 219 215 215 216 217 218 216 217 216 216 215 216 218 216 216 214 215 216 
216 216 215 215 215 214 216 215 215 217 219 209 159 128 162 204 
217 218 219 219 217 221 217 219 219 218 217 219 220 218 220 218 
220 221 217 217 218 221 217 220 220 218 218 217 217 218 218 221 
219 224 224 225 213 164 132 176 219 225 224 225 225 225 224 224 
224 225 225 224 226 224 225 223 226 227 225 225 224 225 224 223 
222 223 226 217 215 217 216 215 216 217 219 217 216 217 217 217 215 216 215 216 
216 217 216 215 215 215 214 214 214 215 214 217 215 205 164 121 
159 197 217 222 220 220 218 218 218 219 219 219 219 220 217 219 
219 218 218 218 217 218 218 217 216 218 217 218 218 218 220 221 
220 222 212 161 125 168 217 223 226 224 223 223 225 222 223 223 
226 223 224 224 223 224 225 225 225 225 224 223 225 224 222 225 
224 224 223 214 216 217 216 215 215 215 214 219 217 217 217 215 217 215 215 215 
215 215 212 216 216 217 215 216 214 216 215 213 216 217 213 205 
149 97 137 183 215 216 218 220 220 220 218 219 218 220 219 218 
219 216 218 217 216 214 217 217 216 220 220 219 221 222 221 212 
196 145 128 161 204 221 224 222 222 222 224 223 223 223 225 223 
224 225 225 224 225 224 225 224 224 224 224 223 223 224 223 223 
223 225 223 217 216 217 219 215 219 217 216 217 219 217 217 216 216 216 216 216 
216 217 217 215 216 217 216 215 216 217 216 215 217 214 213 216 
213 205 161 125 110 163 207 217 217 220 217 219 220 221 220 220 
219 221 221 220 217 220 218 219 219 216 218 220 205 189 165 151 
172 190 214 224 222 222 223 223 222 223 224 225 223 223 222 224 
222 224 222 224 225 226 224 224 224 224 224 224 223 224 222 222 
226 223 223 216 216 217 214 214 218 217 218 217 216 216 218 215 215 210 217 215 
216 215 215 216 214 215 215 215 214 215 215 217 217 215 215 213 
215 217 214 210 192 174 160 141 134 162 174 202 209 214 219 216 
220 218 218 215 221 213 210 192 170 149 144 150 148 164 191 219 
221 223 224 223 222 221 223 223 223 223 224 224 224 223 224 225 
223 224 223 223 223 224 224 223 223 223 224 223 223 224 224 223 
221 223 223 216 217 217 216 215 216 217 218 218 216 217 215 216 215 213 215 216 
216 218 216 215 215 214 217 216 216 215 215 215 215 219 214 213 
215 216 215 215 216 218 214 207 197 179 169 158 143 144 150 146 
146 150 126 131 145 143 152 151 145 166 203 211 214 217 220 223 
224 220 221 222 222 224 223 223 224 223 223 222 225 226 223 221 
225 224 225 224 225 224 224 226 224 227 226 225 225 225 222 225 
224 225 223 216 217 216 216 214 214 216 216 216 215 217 218 215 214 215 216 215 
215 215 216 216 214 216 216 218 215 213 218 217 216 216 215 213 
214 216 216 213 213 215 215 215 217 217 216 216 214 213 216 212 
213 211 211 215 217 220 216 214 220 220 223 219 221 221 221 219 
221 220 223 222 221 222 223 220 223 220 224 223 223 223 223 224 
225 224 223 222 225 223 224 223 224 224 224 224 225 222 225 223 
222 225 224 213 215 215 215 216 216 215 214 215 216 213 216 216 214 215 216 215 
216 214 217 216 216 216 216 217 216 215 216 216 215 217 214 214 
215 215 214 214 216 215 215 212 215 215 217 218 216 219 217 219 
219 217 219 218 220 220 219 219 217 218 217 219 219 219 220 219 
221 221 220 220 222 221 221 222 221 222 222 223 222 224 224 223 
223 223 224 224 224 223 225 225 222 223 224 223 223 223 223 224 
224 223 223 215 215 214 216 216 214 215 215 216 216 214 216 215 215 217 216 215 
213 214 217 216 217 214 215 216 216 216 217 216 216 215 216 214 
216 214 215 214 215 215 214 215 215 216 214 218 217 218 216 215 
215 217 215 215 217 217 219 216 214 217 216 218 219 219 219 219 
220 220 222 220 221 224 221 222 222 220 223 223 222 223 223 223 
224 223 221 224 224 223 224 224 225 225 223 224 226 221 224 224 
222 223 222 215 216 214 215 216 215 215 216 217 215 212 216 217 216 214 215 215 
215 215 215 217 215 217 214 216 217 215 216 217 218 217 214 216 
215 215 215 216 216 216 216 216 216 217 216 216 215 217 218 217 
218 218 216 218 215 216 217 216 218 219 221 218 220 219 218 220 
221 222 220 220 221 222 221 221 222 222 222 221 224 223 222 223 
224 223 222 220 223 224 223 222 224 224 224 224 225 224 224 223 
223 222 225 217 216 216 214 215 215 214 214 216 217 216 216 217 215 215 213 214 
215 215 216 216 216 216 216 216 217 217 218 216 217 215 216 216 
215 215 215 214 214 216 215 216 215 216 217 215 216 218 216 216 
217 216 217 215 215 214 214 215 216 216 216 217 220 219 220 221 
220 219 221 220 221 221 221 221 222 222 219 222 222 221 222 224 
223 223 223 223 223 224 224 222 224 222 223 223 223 225 223 223 
223 224 223 216 216 215 215 215 216 216 215 215 217 216 217 216 217 217 215 216 
214 215 216 215 214 216 216 216 217 218 216 216 214 215 216 216 
216 215 214 214 215 215 215 216 217 216 215 216 217 218 218 218 
216 215 216 216 216 215 215 216 216 217 216 218 217 220 220 218 
219 218 218 220 222 222 221 221 221 223 222 221 221 223 222 221 
224 223 222 223 225 223 223 223 222 223 224 223 225 222 223 224 
223 222 223 