P2
# Created by IrfanView
100 100
255
242 243 243 243 241 242 241 243 242 242 240 241 241 241 241 241 241 
240 241 240 242 242 241 240 242 241 241 241 241 242 242 242 242 
244 243 244 243 243 241 242 242 243 244 242 243 242 242 242 243 
244 242 244 243 244 244 244 243 244 245 245 243 245 246 245 245 
244 246 244 245 246 246 247 245 244 245 246 246 245 244 246 247 
246 247 245 245 243 243 243 241 241 245 247 247 248 248 248 248 
247 248 247 240 240 240 240 240 241 241 241 242 241 240 241 241 241 239 241 242 
241 241 240 242 241 240 241 243 242 241 241 242 241 240 241 242 
242 241 241 242 241 243 242 241 242 242 243 241 240 242 242 242 
242 242 243 242 242 243 244 243 245 244 244 245 242 244 245 244 
246 244 246 246 246 246 245 244 247 246 246 246 246 245 247 243 
245 246 245 244 245 246 244 242 241 245 244 245 244 248 248 247 
247 248 247 240 241 239 240 241 240 241 240 240 240 241 239 241 240 240 240 240 
241 241 241 241 241 241 242 241 242 243 241 240 240 240 241 240 
240 241 241 241 241 241 241 240 241 241 242 243 243 244 242 243 
242 244 245 244 243 245 243 243 245 245 244 243 245 244 243 246 
244 245 244 244 245 245 246 245 245 245 244 246 246 245 245 245 
245 247 244 244 243 244 242 243 241 242 243 242 244 244 247 246 
246 244 246 240 238 239 240 239 239 240 240 240 240 240 239 240 239 237 240 240 
241 240 238 243 242 239 241 240 242 241 238 240 240 240 239 240 
240 239 240 240 240 240 241 241 242 242 241 244 245 243 237 227 
232 236 235 236 240 237 242 244 245 243 244 244 243 243 242 242 
246 245 247 245 244 246 244 245 244 245 243 244 243 245 246 244 
243 243 244 244 244 243 243 243 242 242 244 245 245 244 245 246 
243 246 246 240 238 239 239 239 238 240 240 240 238 239 239 239 240 238 239 240 
239 239 239 240 240 242 240 241 241 241 239 240 239 239 239 237 
239 240 239 240 242 242 243 242 236 229 217 191 173 177 181 188 
182 176 171 175 166 171 180 192 191 205 224 235 240 243 244 242 
243 244 243 243 243 244 245 245 245 243 244 245 243 242 244 244 
244 244 243 243 243 243 243 244 243 243 243 244 243 244 247 245 
245 246 246 240 238 237 238 238 239 239 239 239 238 238 239 238 239 240 238 237 
240 240 238 240 241 240 241 241 241 240 240 241 238 237 239 238 
239 240 241 239 238 208 200 180 177 178 197 226 225 233 239 241 
243 241 244 236 237 232 233 226 213 221 188 192 180 199 207 238 
243 243 245 244 244 242 243 243 244 245 242 244 244 243 245 244 
244 243 244 245 244 242 242 243 243 241 243 243 242 244 244 244 
244 242 245 237 235 236 237 238 238 237 239 239 238 238 238 239 240 238 238 239 
238 237 238 239 239 240 238 239 240 239 238 238 238 236 237 238 
236 237 219 170 168 182 197 232 245 242 243 241 243 243 241 240 
240 240 242 241 241 241 241 242 243 243 241 239 225 211 196 171 
190 212 236 246 245 245 241 243 243 242 243 242 243 243 242 242 
243 242 242 246 244 243 244 242 242 240 242 242 242 243 244 243 
243 244 244 238 237 237 237 236 238 239 237 238 239 237 238 237 236 238 237 238 
237 237 238 238 238 239 239 240 240 239 237 237 237 238 240 233 
204 137 146 212 232 240 239 242 241 241 239 240 239 239 239 239 
239 239 239 238 239 238 237 238 238 238 239 241 243 243 239 233 
218 171 171 192 227 246 244 244 242 241 242 243 241 242 242 240 
241 242 242 243 244 243 243 244 241 242 243 242 239 242 243 242 
243 242 243 234 236 235 235 235 237 237 236 236 236 236 236 236 238 237 237 237 
238 238 238 237 237 239 236 237 238 238 238 239 237 231 152 143 
153 212 243 240 240 239 241 239 238 239 240 238 239 238 239 238 
238 237 238 237 239 238 238 237 239 240 240 239 234 239 239 239 
240 238 237 213 184 179 229 245 245 241 243 243 242 243 242 243 
243 240 241 243 242 243 240 243 242 242 241 241 240 241 242 242 
242 244 243 234 234 234 234 235 236 235 236 236 235 237 237 237 237 236 237 236 
235 236 236 237 236 236 235 235 234 236 238 238 192 158 195 241 
241 241 241 238 239 238 238 238 240 240 237 238 237 239 238 236 
237 238 238 239 236 238 238 238 238 237 236 238 238 237 237 239 
238 240 240 244 240 214 177 193 217 244 241 241 239 240 242 242 
241 242 243 241 242 242 242 241 244 243 239 240 240 242 243 241 
241 242 242 234 234 234 235 235 235 236 235 236 236 235 235 235 236 235 235 235 
236 236 236 236 235 235 235 235 237 239 213 170 214 242 241 239 
238 239 237 238 237 238 237 238 235 236 236 237 237 236 237 239 
239 239 237 236 236 235 238 239 238 237 238 239 239 237 238 237 
238 237 236 237 239 240 232 207 181 218 241 243 241 242 240 241 
242 241 241 242 243 244 242 241 241 242 241 243 242 241 243 242 
241 242 243 234 235 233 234 233 234 234 233 231 234 235 235 235 234 233 234 234 
235 235 234 236 234 235 236 238 238 180 187 238 239 239 237 236 
236 236 235 237 236 237 237 238 239 239 239 240 236 237 238 237 
238 238 237 238 237 238 236 237 238 238 237 238 238 237 237 237 
237 238 238 237 237 238 240 240 210 174 184 235 242 240 241 241 
241 241 242 241 240 239 243 242 240 239 241 237 241 242 241 242 
242 241 241 230 233 233 235 234 233 234 234 236 235 234 234 234 235 235 234 234 
234 234 234 233 234 236 241 216 164 219 238 237 236 237 236 235 
235 237 238 238 239 238 238 238 237 237 237 238 237 236 236 236 
236 237 236 236 236 236 237 237 238 236 236 237 236 237 238 236 
238 237 238 235 237 236 239 238 240 234 198 170 210 239 242 240 
239 242 241 242 243 241 240 241 241 241 240 241 242 240 241 241 
242 242 241 234 234 231 234 233 234 233 234 234 235 234 235 233 235 234 234 233 
234 234 235 237 236 238 197 175 237 237 237 237 236 236 239 238 
237 238 238 236 237 236 236 235 237 237 236 237 237 237 237 237 
237 237 237 238 237 235 235 236 237 237 237 237 236 237 237 239 
237 236 237 238 237 236 239 237 238 239 241 208 158 187 233 240 
240 238 240 240 240 241 240 241 240 242 240 240 239 240 241 241 
241 241 242 233 229 234 233 234 233 234 234 231 233 234 235 235 233 233 233 232 
234 233 233 235 235 157 188 240 237 236 236 236 236 238 237 236 
236 235 233 237 235 237 237 237 239 236 236 238 236 237 237 235 
237 237 235 235 237 237 237 236 235 235 237 237 238 237 237 236 
237 236 238 237 237 238 238 237 238 238 239 238 214 186 167 225 
240 241 241 241 239 240 241 241 241 241 240 239 241 241 241 240 
241 241 242 232 231 230 233 233 233 233 232 233 234 233 232 231 234 233 233 233 
232 233 234 234 149 200 239 237 234 235 235 235 235 235 233 235 
236 236 238 237 237 236 237 238 237 237 237 236 236 237 237 236 
237 236 235 235 234 235 236 237 236 236 236 237 236 236 235 236 
236 235 236 238 237 238 236 237 238 239 237 235 238 233 195 166 
220 240 240 241 239 240 239 239 240 239 240 241 241 239 240 241 
241 241 241 232 231 231 233 233 232 231 233 233 232 232 234 232 232 232 232 231 
232 235 231 156 217 236 236 234 235 235 233 235 234 235 234 234 
235 236 237 234 236 236 235 235 235 235 237 236 237 236 236 235 
235 238 235 238 236 236 236 235 236 236 237 236 236 235 234 236 
235 236 236 238 236 237 238 238 237 239 238 235 236 240 235 186 
167 223 240 239 238 239 238 239 239 240 240 239 238 238 240 241 
241 241 240 231 231 230 231 231 232 232 232 231 232 232 231 234 233 232 232 231 
235 232 156 226 238 234 236 236 235 235 234 234 234 235 233 236 
235 235 236 236 235 235 235 236 236 236 235 236 236 235 234 236 
237 236 235 236 234 235 233 234 235 236 237 236 236 236 236 235 
238 236 234 236 237 238 237 238 238 237 237 235 236 237 237 229 
182 154 221 236 237 240 239 239 240 240 239 240 238 238 240 240 
241 240 241 231 230 230 230 231 232 231 232 231 231 230 230 227 229 230 231 232 
234 165 228 238 233 233 233 234 233 236 235 234 234 234 233 235 
234 235 233 234 235 236 235 236 235 235 236 236 235 234 235 235 
236 235 236 235 234 234 234 234 234 235 235 234 235 236 236 235 
235 235 235 237 237 236 237 237 237 241 237 238 236 237 236 237 
236 197 146 227 239 238 239 241 239 238 239 240 239 238 240 241 
240 241 240 230 231 231 231 229 231 230 232 229 230 229 231 228 230 226 232 233 
166 229 234 232 232 232 234 233 234 233 233 234 234 234 233 235 
234 235 234 235 234 234 234 235 234 235 234 235 234 235 235 234 
234 234 236 235 235 235 233 234 234 234 236 236 234 234 235 234 
234 235 235 236 236 236 236 236 236 237 237 237 237 237 236 234 
235 235 186 149 233 237 237 237 239 237 239 239 241 241 240 239 
238 239 241 230 228 230 231 230 229 229 229 229 229 229 228 228 225 229 220 185 
220 235 233 233 234 233 234 233 234 233 233 233 233 233 230 232 
233 234 235 234 235 234 235 234 234 234 234 234 234 236 236 235 
235 234 234 233 234 234 234 234 234 234 235 235 232 233 231 233 
234 234 234 236 235 236 236 236 236 235 235 237 237 236 237 234 
233 235 229 176 171 238 234 236 236 239 239 238 238 238 240 240 
239 239 238 231 230 226 228 229 229 229 230 229 229 230 230 227 229 216 121 214 
235 233 231 233 232 233 230 230 231 232 232 234 232 232 232 232 
231 233 233 233 234 234 233 233 233 235 234 233 234 235 234 234 
233 233 235 234 234 235 234 235 235 234 233 234 234 234 231 232 
232 233 234 236 237 235 235 235 234 236 235 235 235 237 236 235 
234 234 234 225 152 191 238 237 236 239 240 240 239 238 239 239 
239 240 240 229 229 229 229 229 230 228 229 229 229 229 229 228 232 136 203 234 
231 231 232 231 231 231 231 234 231 233 232 231 231 231 232 232 
232 233 235 232 232 233 234 234 233 233 233 233 233 233 234 233 
233 234 234 233 235 235 234 233 235 233 233 233 233 232 231 233 
233 234 233 234 234 234 234 235 236 235 237 235 236 236 235 236 
236 235 234 235 218 140 215 236 236 236 236 238 238 239 238 239 
239 237 238 228 230 230 227 228 231 231 230 228 227 228 228 233 184 170 234 231 
232 231 231 229 231 230 231 231 232 230 231 231 231 233 231 233 
233 233 232 233 233 232 234 232 234 234 233 233 234 235 234 233 
234 232 234 233 233 233 234 234 234 234 233 234 233 234 231 232 
234 233 233 234 234 234 235 235 235 234 235 234 234 237 236 235 
237 233 235 233 232 193 155 231 236 237 238 238 237 238 240 239 
239 238 239 229 230 227 228 229 227 229 228 228 228 226 229 221 139 234 231 231 
231 230 230 233 231 230 230 229 229 231 231 231 232 230 229 230 
234 232 233 232 232 232 233 234 233 234 234 234 234 233 234 234 
234 233 234 234 232 233 233 234 233 233 233 233 233 233 233 232 
231 232 231 233 233 235 236 238 238 236 236 235 235 234 235 235 
236 237 234 233 235 231 176 200 238 235 237 236 238 239 238 239 
238 239 237 226 228 228 228 228 229 229 230 228 227 227 231 151 201 231 228 227 
229 228 230 230 229 228 228 228 230 233 234 233 222 210 192 175 
213 208 222 230 234 232 232 233 232 231 233 233 234 233 234 233 
234 233 233 234 232 232 233 234 233 234 232 233 235 233 231 230 
232 233 234 234 233 235 232 228 233 236 239 237 237 234 235 234 
235 234 234 234 234 233 201 155 234 237 236 237 238 236 237 237 
237 238 238 228 228 228 228 228 228 229 230 228 228 226 197 159 235 231 230 230 
230 229 228 227 226 229 228 229 233 224 190 159 137 165 168 183 
175 151 145 168 187 228 231 232 234 233 232 234 233 233 233 233 
233 234 234 232 233 233 233 233 233 233 233 232 232 233 231 232 
234 234 226 212 200 180 142 136 129 175 204 217 233 236 237 235 
235 235 235 235 235 234 230 154 188 238 237 238 234 235 238 238 
237 237 237 227 228 229 228 228 228 227 228 229 229 228 181 229 229 228 228 230 
230 229 227 227 228 228 227 231 202 129 162 204 228 228 228 234 
232 232 226 214 182 214 232 233 232 232 233 233 233 232 233 232 
231 232 232 232 231 233 234 232 233 233 232 232 232 233 236 234 
194 156 132 138 154 172 205 214 208 179 152 141 166 176 233 233 
232 233 234 233 234 234 235 217 138 206 236 235 234 235 236 235 
238 237 237 228 228 227 227 228 228 227 228 227 227 215 204 229 229 230 229 229 
231 227 229 226 224 225 227 161 126 219 233 232 231 231 231 232 
232 231 232 233 232 232 231 231 232 232 232 234 232 233 233 232 
233 232 232 232 232 231 232 233 232 232 231 232 233 233 205 147 
154 195 219 228 233 233 237 236 237 236 235 232 198 148 193 235 
233 233 232 234 235 235 232 234 179 187 231 235 235 235 235 235 
237 236 238 228 228 228 227 225 227 226 227 227 231 185 226 229 229 227 228 228 
226 227 226 226 225 225 224 155 234 236 231 230 230 230 231 232 
231 232 231 230 233 231 231 233 232 234 233 232 233 232 232 233 
232 232 231 233 231 232 233 234 232 233 233 232 233 233 125 205 
235 236 234 233 234 233 232 232 234 233 234 237 235 233 227 237 
234 233 234 235 236 235 234 234 211 153 217 238 236 235 234 237 
236 237 236 226 226 224 226 227 226 225 229 226 219 203 233 228 228 228 227 228 
227 228 228 226 226 227 225 221 229 224 227 230 231 230 233 231 
232 231 231 229 231 231 232 232 233 231 231 232 232 231 232 232 
232 232 232 232 230 232 232 231 232 231 233 233 232 231 230 236 
235 232 232 232 231 232 232 232 232 233 234 234 234 236 235 235 
234 233 233 232 234 233 234 232 231 184 173 238 233 235 236 235 
236 236 236 226 227 227 227 227 226 228 228 230 188 226 228 226 228 228 228 228 
227 229 228 227 227 227 226 228 224 231 218 193 185 172 169 168 
216 231 231 231 231 232 232 232 231 231 230 232 232 232 231 232 
232 231 231 231 231 232 232 232 233 232 231 231 232 230 231 229 
230 231 231 230 231 231 233 234 232 232 233 234 233 233 234 234 
233 234 233 233 234 233 234 234 235 226 151 224 233 234 235 235 
235 235 236 227 227 226 224 225 227 227 226 222 191 229 228 230 229 229 228 227 
226 226 228 225 226 226 225 223 221 204 137 135 124 106 97 117 
133 172 229 231 229 231 232 232 231 231 232 231 232 232 232 232 
231 232 232 230 230 231 232 232 232 232 232 232 229 230 228 230 
229 229 230 229 232 229 231 227 229 230 232 233 234 234 234 235 
233 234 234 234 233 234 235 233 233 236 186 194 233 234 233 235 
236 236 236 226 226 224 226 227 224 227 227 190 208 227 226 227 228 227 227 227 
227 228 227 229 226 225 224 223 219 137 108 135 98 81 89 102 
131 130 182 227 230 230 231 231 232 232 232 233 232 232 232 232 
232 231 232 233 231 231 232 233 232 232 231 232 232 232 231 230 
231 230 232 232 205 186 179 174 216 231 234 234 234 235 234 233 
233 233 234 232 235 234 234 233 234 236 193 186 231 235 235 233 
235 236 236 222 225 226 225 223 225 225 225 181 225 228 228 227 228 226 227 227 
225 226 228 226 224 224 223 225 175 123 141 93 88 112 95 94 
88 102 163 202 231 229 231 231 231 231 232 232 231 229 230 229 
231 230 231 230 230 233 232 232 232 232 231 231 231 228 230 230 
229 232 230 196 143 152 155 148 147 204 226 231 232 233 233 233 
233 233 233 234 234 234 234 234 233 232 224 157 216 232 234 233 
233 235 235 227 226 223 222 228 225 224 211 197 226 227 226 228 228 227 228 226 
227 228 226 225 224 224 225 226 151 139 130 95 134 100 90 90 
59 79 132 149 227 231 231 231 231 231 231 233 232 230 231 233 
232 232 230 231 233 232 232 232 231 233 232 230 229 230 228 229 
230 233 195 150 138 132 124 131 140 147 175 220 230 232 233 233 
234 234 235 233 233 233 233 232 236 235 233 199 183 234 232 233 
233 234 237 227 225 224 223 224 225 223 195 219 228 227 227 227 226 226 227 227 
226 227 227 225 225 225 226 224 132 121 88 107 101 89 113 112 
56 79 64 116 221 231 231 231 230 231 232 231 231 231 231 230 
231 231 230 231 230 231 231 232 231 231 232 230 229 229 229 228 
231 198 140 113 139 131 119 122 114 117 174 192 229 231 231 233 
233 234 233 233 232 234 233 233 235 233 233 210 174 234 233 234 
237 235 236 223 223 221 223 222 223 226 179 227 224 225 228 227 226 226 228 226 
226 225 225 225 226 225 225 215 101 84 88 100 124 140 116 69 
69 89 66 126 228 230 231 232 231 231 229 231 231 231 230 230 
230 232 230 229 232 232 232 233 233 232 231 231 232 231 229 227 
215 134 125 121 134 120 127 121 92 119 133 156 230 229 231 233 
234 233 233 232 234 233 232 232 234 233 231 227 162 225 234 235 
234 235 236 223 223 222 222 221 222 218 176 229 224 225 226 224 226 227 224 227 
227 227 226 225 225 225 226 219 109 85 79 108 167 138 62 66 
64 52 51 166 227 230 229 231 230 230 231 231 229 229 231 232 
232 232 231 231 231 231 232 234 231 231 231 230 228 229 229 227 
172 137 136 139 128 113 129 127 106 68 101 155 229 229 232 232 
233 231 233 233 232 232 232 233 233 231 230 232 182 199 236 235 
235 236 237 220 221 221 221 221 221 208 198 225 226 224 225 227 227 226 228 228 
226 225 225 226 223 227 227 223 107 64 65 100 90 75 91 84 
62 53 96 154 227 229 231 229 230 229 230 230 231 229 230 230 
232 232 230 231 232 232 232 231 232 232 231 229 228 230 229 218 
138 130 128 128 125 153 150 118 72 55 78 151 227 231 232 232 
232 233 232 232 232 233 232 231 231 231 233 233 218 170 236 235 
234 235 235 222 220 219 221 219 221 199 213 225 227 222 224 225 225 227 226 226 
228 226 224 225 224 226 226 226 130 73 56 62 61 84 79 55 
53 96 145 182 226 231 229 229 229 229 230 229 230 230 230 231 
230 231 230 230 230 230 230 230 229 232 231 229 230 230 230 188 
121 139 140 111 115 109 90 69 54 76 98 153 229 232 232 231 
232 232 232 232 232 233 232 232 232 229 231 231 226 172 236 235 
234 234 233 218 220 221 221 222 218 181 225 225 223 223 224 223 225 227 226 225 
225 224 227 226 227 227 226 224 194 71 52 66 60 55 50 58 
85 139 151 216 227 229 229 229 228 230 230 229 229 232 229 229 
230 230 230 231 232 231 230 230 230 232 231 231 229 229 229 165 
123 90 94 89 121 124 90 74 57 74 92 171 228 231 233 232 
234 232 232 232 232 230 232 232 231 232 232 233 229 162 224 231 
232 234 234 220 219 218 217 220 222 194 225 224 224 224 223 225 225 224 225 227 
228 225 225 224 224 225 224 224 224 158 84 59 51 61 73 106 
154 175 182 228 226 229 228 228 229 229 229 230 229 228 229 231 
230 231 229 230 230 230 231 229 231 231 231 231 229 230 227 168 
133 76 111 127 139 95 75 72 87 100 114 192 226 230 232 232 
230 232 232 233 232 232 232 233 232 232 232 231 231 186 215 232 
233 236 234 218 219 219 219 219 220 191 228 223 225 224 225 226 226 225 227 225 
226 225 225 224 225 223 225 224 225 213 156 145 106 115 138 167 
175 172 221 226 225 229 227 228 228 229 229 226 228 228 229 229 
230 229 228 230 230 230 231 231 231 229 228 230 231 229 231 166 
124 74 93 99 95 89 87 81 87 132 147 213 225 228 230 231 
232 232 232 233 231 232 232 231 231 229 231 232 230 193 208 232 
234 234 234 217 218 217 217 217 213 190 224 223 224 226 224 224 226 228 228 227 
225 227 225 227 225 224 225 223 225 224 226 222 201 176 201 204 
192 222 228 226 227 228 229 227 227 227 227 226 228 228 229 228 
227 227 227 229 229 232 229 230 229 230 230 228 231 229 227 172 
136 103 80 78 76 90 72 72 113 133 161 223 227 229 230 232 
232 232 232 233 231 231 233 232 231 234 233 232 229 211 197 232 
233 233 233 217 218 217 218 221 208 193 225 224 224 224 224 223 226 226 228 227 
226 226 227 226 228 225 224 225 225 225 226 227 226 228 224 230 
231 229 226 224 227 225 227 228 228 228 227 227 229 228 229 229 
228 229 229 228 228 229 229 228 230 229 230 230 231 230 229 195 
120 126 82 96 91 100 88 114 157 179 214 228 228 229 230 232 
232 231 232 233 233 232 229 232 232 229 231 232 231 220 198 233 
233 234 233 217 217 218 219 221 204 201 224 221 222 223 222 221 224 226 228 227 
227 225 226 226 227 227 225 224 225 227 226 225 225 226 226 227 
228 224 226 227 229 228 227 225 225 227 226 223 228 226 227 230 
229 228 228 229 229 229 230 228 231 228 230 231 231 230 228 222 
160 141 131 121 124 128 135 176 186 226 232 230 229 229 230 232 
231 231 232 232 230 231 231 231 232 232 232 233 231 219 204 231 
233 234 233 218 218 219 220 217 204 205 226 223 222 222 222 223 223 224 225 226 
225 226 225 225 225 226 226 228 227 226 227 226 224 228 226 226 
225 225 225 226 225 226 227 228 227 226 226 226 227 229 230 228 
229 229 228 228 230 230 229 230 229 229 228 228 229 229 229 230 
220 195 192 204 223 214 219 220 229 231 230 230 230 231 231 231 
228 233 232 232 231 230 231 233 231 230 230 232 232 223 194 233 
235 231 235 218 217 216 219 219 198 211 223 222 223 222 221 222 224 226 227 226 
227 226 226 227 226 226 226 225 226 226 226 226 225 226 226 226 
226 227 227 225 227 226 226 226 227 228 228 227 226 228 228 228 
229 229 229 229 229 229 229 229 229 229 229 228 230 230 229 228 
231 231 230 230 232 233 232 231 233 231 229 230 229 230 229 231 
230 228 229 232 231 232 231 230 231 232 231 232 230 227 190 233 
233 234 234 217 217 215 218 215 195 212 221 220 221 224 221 223 224 226 221 226 
225 227 227 226 227 226 226 226 228 226 226 226 228 227 226 226 
226 226 227 227 228 228 226 228 227 226 227 227 226 229 227 227 
228 228 228 230 229 230 229 229 229 230 227 230 229 229 230 230 
230 231 232 228 230 230 229 228 228 230 230 230 231 232 232 231 
232 232 233 229 232 231 232 231 230 230 232 233 229 222 183 230 
232 234 233 217 218 217 215 219 201 205 223 223 222 224 222 224 226 225 224 223 
226 226 223 224 225 226 227 226 226 227 227 225 225 227 227 227 
227 224 227 226 225 225 227 226 226 227 227 227 227 227 228 229 
228 229 230 230 230 228 228 231 229 229 229 230 229 230 228 228 
228 227 229 229 229 229 229 230 230 230 230 230 229 230 231 231 
230 230 230 231 232 230 230 230 231 231 230 233 230 219 174 233 
233 233 232 217 217 218 217 217 206 209 221 220 222 224 223 225 224 223 224 225 
224 225 226 224 225 227 225 226 226 227 224 226 226 225 226 227 
227 227 227 226 226 227 227 226 226 227 227 226 227 228 228 227 
227 230 229 227 230 230 230 227 227 230 230 229 227 228 229 229 
230 229 230 228 230 231 230 229 228 230 229 229 230 229 231 231 
229 228 232 230 230 230 231 231 231 230 229 230 229 220 182 231 
233 232 234 216 215 217 217 218 211 211 223 223 221 221 222 223 222 224 224 224 
225 226 226 226 227 225 225 227 226 226 229 227 226 226 227 226 
225 226 225 226 226 227 225 227 226 226 226 228 225 226 225 227 
228 228 228 229 228 228 231 229 228 228 230 230 231 229 229 228 
229 229 228 227 228 229 229 230 231 230 230 229 230 230 228 230 
231 229 230 231 230 231 231 231 231 231 229 230 228 199 187 233 
231 231 233 217 218 217 218 217 212 207 222 222 223 221 220 224 223 225 225 226 
222 226 224 226 225 226 227 228 227 226 226 226 226 225 225 226 
226 227 226 226 226 225 226 226 226 227 226 225 224 225 227 226 
227 227 227 228 228 228 228 229 228 229 230 229 228 228 229 228 
228 229 229 228 229 230 229 229 230 230 231 230 230 230 230 229 
231 230 230 230 231 231 231 230 230 229 231 230 229 184 198 230 
233 230 234 216 218 217 217 217 215 204 223 222 223 222 222 223 223 223 225 220 
224 223 225 224 224 227 226 227 227 227 226 226 227 226 226 226 
225 226 225 224 226 225 225 226 226 225 226 226 226 226 226 227 
227 228 226 227 229 228 229 230 229 228 229 230 230 229 229 229 
229 230 229 230 230 230 228 230 229 230 230 231 230 231 229 229 
231 231 230 231 230 231 231 231 230 229 230 228 226 182 202 230 
231 231 232 219 216 218 218 218 219 204 223 222 220 221 222 222 222 224 224 222 
223 224 224 225 226 226 225 225 225 226 226 226 226 227 226 226 
226 226 226 226 227 225 225 226 224 224 225 223 228 225 225 230 
229 227 225 228 229 228 228 227 230 231 230 229 228 229 230 231 
228 229 228 228 229 231 230 230 230 229 228 229 230 231 229 230 
231 231 230 230 230 231 229 232 230 230 229 227 230 162 209 228 
227 229 232 217 217 218 218 219 221 195 222 222 221 221 222 222 221 223 222 224 
225 222 225 222 225 226 226 227 225 225 224 227 226 226 225 226 
225 226 225 225 226 227 225 225 227 224 227 227 226 225 225 227 
229 227 227 228 227 228 228 228 229 228 229 229 229 229 229 229 
230 229 228 228 228 230 229 231 229 231 229 232 230 229 229 230 
230 229 230 229 229 232 232 232 232 230 229 228 228 146 205 229 
231 233 233 217 217 218 217 217 216 205 220 222 222 221 220 222 222 223 221 224 
223 224 224 225 225 226 226 224 226 228 227 226 226 226 225 225 
226 225 225 225 225 226 226 225 224 225 228 227 226 226 226 227 
225 227 229 229 228 227 228 229 230 228 229 228 227 229 229 229 
229 229 229 230 230 229 230 229 230 229 230 228 230 231 231 229 
229 231 230 230 230 232 229 229 231 229 227 228 225 120 217 228 
229 229 231 218 217 218 219 218 218 199 222 222 221 221 222 221 223 223 220 222 
225 222 226 225 226 224 226 224 226 225 225 224 227 226 225 226 
225 225 226 224 226 224 225 227 226 223 224 226 225 225 226 226 
226 224 226 226 227 229 228 228 230 230 228 229 230 228 228 229 
229 229 229 229 229 229 230 229 228 230 230 231 229 230 229 231 
231 229 230 229 229 231 229 230 231 230 227 228 200 156 230 228 
230 231 231 218 218 218 219 220 220 207 212 223 219 222 223 222 222 222 223 222 
224 223 224 226 224 225 226 226 225 226 225 226 225 225 225 226 
225 226 225 225 224 226 225 223 224 226 226 227 227 226 227 225 
225 226 226 225 227 228 228 228 229 229 229 228 227 228 230 230 
230 229 230 229 228 229 228 230 229 229 229 229 230 230 229 230 
228 228 230 230 231 229 229 229 228 229 227 227 189 180 227 229 
229 230 232 219 219 220 221 222 221 216 199 221 222 221 222 221 223 222 222 224 
223 224 223 224 224 222 223 224 222 226 225 226 225 224 223 224 
225 224 225 225 223 226 226 225 225 225 224 225 225 224 225 225 
225 224 227 226 227 228 228 228 228 229 229 229 229 230 230 230 
228 230 229 229 230 229 230 229 229 228 230 229 229 229 230 230 
230 230 230 230 230 230 230 230 227 228 226 229 172 194 230 229 
230 231 230 219 219 219 220 220 220 220 190 223 221 221 221 223 221 221 222 221 
224 223 224 224 225 224 224 226 223 224 225 225 224 226 226 225 
225 224 225 223 224 223 223 223 224 222 225 226 227 225 224 225 
224 224 226 224 225 228 226 227 228 226 228 229 228 229 229 229 
229 231 230 230 229 230 228 229 229 227 229 230 229 229 229 230 
230 229 231 230 229 230 227 227 228 229 227 229 135 217 229 231 
231 230 230 217 218 219 219 220 220 220 185 216 221 220 219 221 221 222 218 221 
223 223 224 224 224 225 223 223 225 224 223 223 225 224 225 225 
223 224 223 224 224 223 223 225 223 223 225 225 225 225 226 229 
229 224 225 224 226 227 228 228 228 227 228 229 229 229 229 228 
228 230 230 228 229 227 229 229 231 229 228 229 229 230 229 229 
227 229 228 229 229 229 231 229 229 228 228 221 138 227 228 231 
232 232 231 216 217 217 219 219 220 217 206 205 221 222 222 220 220 219 220 222 
220 222 222 222 225 223 224 223 223 224 225 225 225 225 221 223 
223 224 223 222 223 223 222 221 222 223 227 209 163 181 224 195 
178 199 222 226 226 228 226 228 228 226 227 229 228 228 229 228 
228 228 228 229 229 230 229 228 227 228 231 229 229 229 230 229 
230 229 229 229 230 229 228 229 230 229 228 187 177 228 230 229 
232 232 232 216 216 219 218 219 219 218 216 196 221 219 218 219 217 221 221 222 
222 220 221 219 221 222 223 224 223 225 222 225 223 224 226 223 
223 223 222 223 220 223 223 221 222 222 162 130 140 130 121 130 
191 162 148 170 226 227 227 227 227 228 228 227 228 231 228 229 
230 229 229 228 229 228 228 230 229 229 229 229 229 229 230 229 
230 230 229 231 231 230 228 229 230 230 228 142 213 228 231 231 
232 232 232 215 217 218 218 221 218 219 220 193 221 220 221 219 219 223 220 221 
220 219 221 220 221 221 223 222 222 224 224 224 223 224 224 224 
223 223 223 221 222 224 223 223 226 157 134 158 169 172 209 223 
225 226 224 181 143 214 227 228 228 228 228 227 228 227 229 230 
228 229 229 229 229 229 230 229 230 230 230 231 229 229 229 229 
228 228 229 230 231 229 228 229 230 230 228 132 227 228 230 231 
231 232 232 217 217 216 217 219 219 217 218 195 218 221 220 218 220 219 220 221 
219 219 222 219 223 223 224 224 223 223 223 224 223 224 223 223 
224 224 223 223 222 225 222 223 158 112 185 215 221 222 225 225 
223 224 225 227 211 167 225 227 227 227 228 228 229 229 229 228 
228 229 228 227 228 227 228 228 229 229 230 228 229 228 228 228 
229 229 229 228 230 230 229 230 229 229 188 167 229 229 231 232 
231 231 232 217 218 216 218 219 218 219 219 208 202 218 220 220 217 218 219 219 
220 220 222 221 221 223 223 221 224 224 223 225 222 224 225 224 
222 223 222 223 222 220 221 211 161 195 213 224 222 222 222 221 
221 221 223 224 225 197 202 229 227 227 227 225 226 227 229 228 
229 227 226 228 230 225 230 228 228 227 229 229 229 230 228 229 
229 228 228 229 231 231 230 228 229 230 124 223 228 230 231 232 
233 232 232 215 217 219 218 220 219 221 221 220 185 220 218 218 217 220 220 217 
220 220 215 220 220 220 222 222 222 223 222 225 224 223 223 223 
223 223 219 222 222 224 224 135 208 224 222 223 219 221 221 225 
227 223 226 223 224 219 155 229 227 228 227 226 227 226 227 227 
228 228 227 228 228 227 229 230 230 230 228 228 228 226 228 227 
227 228 228 229 230 229 227 227 228 212 144 232 228 229 231 232 
232 233 231 215 216 217 217 217 217 219 219 219 199 208 219 217 218 218 222 220 
219 223 224 220 222 222 219 221 222 222 223 224 223 224 225 225 
224 223 224 225 223 224 219 157 226 224 220 222 223 222 222 225 
224 225 224 225 223 221 129 223 228 226 227 228 227 226 228 228 
227 228 227 227 227 227 228 227 228 228 229 227 229 228 228 230 
229 227 228 229 230 230 227 227 230 150 212 231 230 231 231 231 
231 232 232 218 217 216 218 219 217 218 223 220 212 198 218 217 218 217 218 220 
218 220 220 219 221 222 223 221 220 221 221 223 224 224 224 223 
223 223 223 224 223 225 189 139 219 222 225 224 222 226 222 219 
196 182 205 222 225 226 97 209 225 226 226 226 226 228 227 226 
228 229 228 228 228 229 227 227 226 228 227 227 228 229 227 228 
229 224 226 227 228 229 227 229 217 117 234 231 230 230 231 232 
231 231 231 217 217 216 217 217 220 218 219 221 218 194 219 216 217 216 220 219 
221 221 222 222 221 221 221 220 221 223 223 223 223 222 223 221 
221 223 222 223 223 224 172 138 216 222 217 207 175 150 114 116 
110 143 125 128 175 194 95 222 225 226 226 227 225 225 226 227 
227 225 225 225 227 227 225 226 228 229 227 228 228 228 230 229 
227 228 228 228 226 228 228 225 145 193 231 230 230 231 231 230 
231 231 231 217 216 216 216 218 218 218 218 220 217 206 209 220 216 216 219 219 
221 220 222 221 221 222 220 219 221 224 223 221 223 225 223 222 
221 222 222 223 223 225 218 131 188 158 130 97 89 124 162 162 
148 158 116 100 82 119 103 222 224 226 227 227 224 225 227 228 
227 228 226 227 225 227 227 229 227 228 227 229 226 227 226 228 
228 226 227 229 224 222 229 168 168 230 231 230 230 231 230 229 
227 232 230 217 216 219 217 218 218 217 219 221 218 215 188 216 217 218 219 220 
220 220 220 220 221 221 223 222 223 221 224 224 222 221 224 223 
223 222 222 222 223 223 221 147 103 157 84 155 215 225 219 222 
220 205 200 187 131 84 152 225 223 225 226 226 226 224 225 225 
226 226 227 227 228 224 226 229 229 228 227 227 229 227 229 229 
228 227 227 230 228 228 215 138 221 230 229 229 231 229 229 228 
231 231 231 219 217 218 217 215 216 217 218 221 219 220 213 184 220 215 219 218 
220 220 219 220 222 221 222 221 221 222 223 224 224 223 223 221 
223 223 221 221 222 221 219 195 89 180 170 226 224 225 221 226 
222 221 214 147 83 153 220 225 225 225 223 227 226 226 225 226 
224 226 227 227 226 226 228 226 225 226 229 228 227 226 227 227 
226 228 231 228 225 228 155 194 230 230 228 231 228 230 230 230 
230 232 232 216 216 219 218 219 219 218 218 220 219 217 217 194 202 220 219 220 
220 221 219 221 221 222 222 222 221 222 223 223 224 222 221 225 
222 220 222 223 221 218 216 201 158 159 168 225 225 222 224 217 
198 155 116 72 142 224 226 225 226 226 223 226 225 228 226 227 
228 227 225 226 227 226 224 226 225 227 225 227 226 227 227 227 
226 226 227 227 227 197 148 226 230 228 230 228 231 228 229 230 
231 231 232 217 216 217 220 216 218 218 215 218 217 217 217 218 176 216 221 219 
220 220 221 220 222 221 222 222 221 222 221 221 222 221 222 220 
222 222 221 221 221 219 216 217 222 217 166 141 133 139 159 101 
83 95 133 180 226 226 225 225 225 227 226 225 225 225 223 225 
226 227 227 227 225 225 226 227 227 227 226 226 226 227 228 227 
226 226 227 229 217 153 209 232 230 230 230 230 229 228 232 231 
230 231 232 214 219 219 218 218 220 218 219 217 215 215 216 218 210 174 221 218 
217 218 221 222 221 222 222 223 221 221 224 222 223 223 222 223 
222 223 220 219 221 221 221 220 221 224 221 191 164 156 147 154 
194 215 218 228 226 227 226 225 225 225 225 226 226 226 227 228 
225 226 225 224 226 225 225 225 225 225 225 226 226 226 226 227 
227 227 226 227 164 187 226 227 226 230 229 229 228 229 230 231 
229 231 231 219 218 219 218 219 217 219 219 217 215 215 217 217 215 195 175 221 
219 218 219 219 221 222 222 222 223 221 221 222 222 220 221 223 
221 221 221 221 222 224 222 221 221 221 225 227 226 223 219 221 
223 222 223 226 227 226 223 226 226 226 226 226 225 225 226 224 
225 224 226 227 226 227 224 225 226 226 226 227 225 224 225 227 
227 224 229 177 155 228 228 230 229 229 230 228 228 228 230 230 
229 232 230 217 217 216 216 218 219 218 219 217 218 214 214 216 214 212 179 188 
221 218 218 219 219 221 220 221 222 222 223 222 219 222 221 222 
222 221 223 221 221 223 223 222 220 221 221 223 221 221 222 220 
225 223 223 223 224 226 225 224 225 225 224 225 225 225 224 226 
225 225 225 225 224 226 225 225 227 226 225 224 225 223 225 224 
225 227 188 148 219 230 227 228 230 229 226 229 229 229 231 228 
233 231 229 216 217 218 216 217 217 215 218 217 217 215 216 216 216 215 217 177 
190 219 216 217 219 219 220 222 222 220 221 221 223 222 220 220 
220 221 221 220 221 222 222 220 218 222 222 222 221 221 216 223 
223 224 225 225 225 226 227 224 226 224 225 224 223 226 225 225 
224 224 225 227 226 225 226 223 224 225 225 229 223 223 223 221 
226 214 143 211 231 229 228 229 229 230 230 227 229 230 230 229 
230 231 230 213 217 217 216 218 219 219 217 217 218 216 215 216 214 216 217 215 
176 190 217 217 216 220 217 222 222 222 222 220 221 223 223 222 
221 221 219 221 220 219 219 219 220 220 221 221 222 221 221 224 
223 222 223 224 224 225 225 225 224 225 224 224 224 224 224 225 
222 225 225 226 223 225 224 225 224 224 224 224 226 222 223 226 
215 141 192 227 225 227 227 227 230 228 229 229 230 228 228 229 
232 231 231 218 217 218 216 218 220 219 218 219 215 214 215 215 215 215 215 215 
215 174 191 218 217 216 220 220 221 221 223 221 221 221 219 220 
222 224 221 220 221 220 222 218 221 219 221 222 220 222 222 222 
222 223 225 223 224 224 223 223 224 225 224 224 225 225 223 223 
221 222 222 223 223 226 225 223 223 224 223 224 225 222 226 214 
152 190 227 226 229 227 227 228 227 228 230 229 229 230 230 232 
227 231 232 216 217 217 216 219 216 215 217 217 217 217 216 216 215 219 217 213 
215 217 178 184 218 220 221 220 219 221 222 220 222 220 222 221 
221 223 223 222 221 218 216 220 221 220 223 221 222 222 223 225 
224 225 226 225 223 224 224 223 222 224 223 224 226 224 223 223 
225 224 224 222 223 223 223 222 221 224 222 224 225 228 210 154 
188 227 225 224 225 226 225 227 227 226 228 231 229 228 229 230 
231 231 230 216 214 216 216 217 217 217 218 218 216 217 217 217 216 218 216 215 
215 216 217 182 181 217 220 220 220 221 219 218 221 221 221 221 
220 221 220 222 219 219 220 217 220 218 222 222 222 222 220 221 
224 223 223 223 224 226 225 224 225 224 224 223 223 224 224 223 
223 221 221 220 222 221 222 223 223 223 221 223 230 199 130 199 
222 222 222 222 223 228 227 228 226 226 229 228 229 230 230 231 
231 230 229 217 217 217 218 218 219 217 217 218 217 217 217 217 218 217 219 216 
215 216 215 220 190 167 213 217 218 220 222 220 221 220 221 221 
222 223 221 221 220 218 218 219 219 221 222 221 221 224 219 223 
224 221 222 224 222 223 224 223 224 224 224 223 224 225 223 223 
222 222 225 223 222 221 221 222 222 223 226 228 197 140 194 222 
222 221 220 221 225 227 225 227 229 226 228 231 229 229 229 229 
228 231 226 216 218 218 217 217 217 218 218 218 216 217 218 217 214 217 216 216 
214 216 216 217 216 211 167 207 219 220 221 221 221 221 219 221 
220 220 221 220 219 221 222 221 221 222 222 222 222 223 220 222 
222 220 222 225 223 225 224 223 224 224 222 222 223 222 220 223 
222 223 221 221 222 218 220 220 222 227 219 171 128 197 222 222 
222 220 222 221 223 224 226 227 229 228 227 229 230 230 229 230 
230 232 232 217 218 216 215 218 218 217 218 218 218 216 216 215 217 218 215 213 
211 214 216 217 214 215 214 181 187 217 221 220 219 219 220 219 
221 221 221 221 221 221 221 221 222 221 222 222 221 222 222 222 
223 222 221 222 224 224 224 222 223 223 224 224 223 223 223 221 
221 222 222 220 218 219 222 222 226 205 122 141 212 226 224 225 
222 221 222 222 221 224 227 227 228 228 230 229 228 228 229 229 
230 230 229 216 214 214 216 216 218 217 216 218 217 216 216 218 216 216 216 216 
218 215 217 216 213 214 215 217 197 166 193 218 223 219 220 219 
218 220 222 220 219 218 219 221 221 222 220 220 222 220 220 220 
222 221 221 223 222 222 221 222 221 225 224 224 224 222 219 221 
222 221 221 221 221 223 224 221 178 135 184 222 229 225 222 221 
221 222 223 222 223 224 226 228 228 228 229 228 227 227 227 230 
229 230 232 216 216 215 217 217 216 215 217 218 217 216 217 217 219 217 216 215 
214 215 215 216 214 213 214 214 217 213 180 174 209 222 222 222 
221 220 221 220 220 221 221 222 221 220 221 221 221 220 224 220 
222 220 222 221 223 222 221 222 223 223 223 223 223 221 221 222 
221 221 220 222 224 224 196 129 163 209 228 226 224 225 226 224 
224 223 223 224 224 225 226 227 228 228 227 226 229 225 229 231 
230 230 230 217 216 215 216 217 216 216 217 215 216 217 218 218 218 218 217 217 
217 215 217 215 214 213 214 212 216 217 218 205 172 179 208 222 
224 222 220 220 219 219 218 219 220 220 220 219 220 220 219 220 
221 221 220 220 219 220 222 222 223 220 224 223 221 220 219 220 
222 221 220 220 209 161 142 185 224 226 225 222 223 225 223 224 
224 225 223 220 224 227 226 228 228 228 226 227 228 226 226 229 
229 230 231 216 217 216 216 217 219 216 215 216 216 215 217 217 216 217 218 218 
215 216 215 214 215 215 217 216 214 214 215 218 218 209 171 168 
195 213 224 223 218 220 220 218 221 220 220 219 219 220 220 219 
221 220 221 219 220 220 222 220 219 221 222 222 222 220 221 224 
219 215 212 181 161 181 216 224 224 225 224 223 222 226 226 222 
223 222 223 225 226 227 227 227 227 226 227 228 229 227 227 228 
229 229 230 216 216 218 217 216 216 214 214 216 217 217 216 217 216 219 217 217 
216 216 217 214 215 217 216 216 217 217 214 214 216 218 218 211 
195 166 187 195 217 224 223 223 225 221 219 220 221 218 217 219 
218 218 220 221 221 220 221 222 221 221 218 222 221 222 222 220 
203 175 171 170 215 225 224 224 224 223 225 225 225 224 219 223 
223 224 225 222 225 228 228 227 225 227 227 228 227 227 229 227 
229 230 230 214 214 217 215 216 216 216 215 215 216 216 216 218 218 216 217 215 
218 216 217 214 216 214 214 214 213 215 216 215 215 215 216 219 
219 214 208 179 164 172 189 201 218 224 221 222 222 223 221 220 
221 220 221 221 219 223 220 222 222 218 220 219 220 204 179 160 
172 192 216 223 224 223 222 224 224 224 224 223 223 224 225 226 
224 224 222 223 225 227 225 227 227 227 226 226 228 229 227 227 
228 228 230 215 216 213 215 216 213 215 215 215 215 215 216 217 217 215 218 217 
217 216 216 215 217 216 216 219 216 215 216 217 215 215 215 216 
217 218 217 219 218 210 175 142 130 159 176 177 194 191 207 221 
217 212 214 223 209 196 182 168 162 142 132 145 155 169 199 217 
224 222 222 224 222 223 224 222 223 224 224 225 222 222 225 222 
222 222 223 222 222 225 228 227 227 228 227 227 226 225 226 225 
228 228 230 214 215 214 213 216 217 217 217 215 215 214 216 215 215 216 214 215 
215 216 214 215 215 217 215 214 215 214 215 216 218 217 217 218 
217 222 218 218 220 219 219 221 219 215 202 191 158 100 145 142 
154 139 135 147 130 149 154 177 186 210 217 214 220 224 225 222 
221 222 221 222 222 222 220 224 226 224 224 222 224 225 224 224 
226 224 222 224 225 226 226 225 227 226 225 227 228 226 225 226 
228 229 231 217 214 213 214 216 218 217 216 217 218 217 214 216 217 214 212 213 
213 214 213 215 215 215 216 216 216 215 214 215 215 216 217 217 
217 219 219 219 219 218 218 220 220 221 217 223 220 217 216 218 
221 220 223 218 219 222 217 218 223 224 221 224 223 222 220 221 
220 219 220 221 221 221 221 224 224 224 223 224 223 222 223 226 
224 224 225 225 226 225 225 225 226 226 226 226 225 226 226 226 
227 227 228 213 213 214 214 215 215 215 215 215 215 214 215 215 214 216 217 218 
214 213 214 216 214 217 215 215 215 213 213 216 216 216 215 217 
218 217 218 219 217 216 218 217 219 220 218 220 220 221 220 220 
219 221 221 222 221 220 219 218 218 220 221 221 221 219 221 221 
222 221 221 221 223 220 222 221 222 225 223 226 224 223 224 223 
224 223 226 225 226 227 227 227 226 227 227 226 228 226 225 226 
226 225 226 213 214 215 215 214 214 216 215 215 215 214 214 216 215 214 213 213 
214 214 214 213 213 214 214 215 214 215 214 214 215 217 218 219 
218 217 218 216 218 218 218 216 217 217 217 216 219 219 218 218 
217 216 217 218 219 218 219 217 218 218 220 220 219 219 221 221 
219 219 221 224 223 221 220 223 223 223 224 222 223 223 222 222 
224 224 225 225 224 224 225 225 225 223 224 226 225 225 225 225 
225 226 228 215 214 213 216 216 216 215 217 214 216 215 216 213 215 213 216 216 
213 214 216 216 213 214 214 215 215 214 211 214 216 216 214 217 
218 219 218 218 218 218 218 219 217 219 217 218 217 216 217 216 
217 217 219 217 219 216 220 219 219 220 221 218 221 220 221 221 
222 221 221 221 221 223 222 224 223 223 222 223 222 224 223 224 
222 222 222 222 224 225 225 221 226 225 226 225 226 225 226 227 
227 227 227 