P2
# Created by IrfanView
100 100
255
250 250 250 250 250 250 250 250 251 250 251 251 250 250 250 249 251 
250 251 251 250 251 251 251 250 251 252 252 251 252 251 250 251 
251 251 251 251 252 252 251 252 252 252 252 253 252 253 252 253 
253 253 253 253 253 251 252 252 252 252 253 253 252 254 253 253 
253 254 253 254 253 254 254 253 254 254 254 254 253 253 254 255 
254 255 255 254 254 254 254 254 253 253 254 254 254 254 254 254 
254 254 254 249 249 249 249 250 251 250 248 251 250 250 251 250 250 249 250 250 
250 251 252 250 250 250 250 251 251 251 250 251 251 250 250 251 
251 251 251 251 252 251 252 251 251 251 252 252 252 252 252 252 
251 252 250 252 252 252 252 252 252 252 251 252 253 253 253 253 
254 253 254 254 253 254 254 254 254 254 254 253 253 254 254 254 
254 253 255 254 253 253 254 254 254 253 253 254 254 254 253 254 
254 254 253 248 249 248 248 248 249 249 250 250 250 250 251 250 249 250 250 250 
250 251 249 251 250 251 250 251 251 250 250 250 251 251 251 250 
251 251 251 251 250 251 251 251 250 249 250 252 251 251 251 251 
250 252 252 251 251 251 252 251 251 252 252 252 252 253 253 252 
251 252 253 253 252 253 253 253 253 253 253 253 253 253 254 254 
253 253 253 254 254 254 253 254 253 253 253 253 253 254 254 253 
252 253 253 247 249 248 247 249 250 249 250 250 249 252 251 250 250 250 249 248 
249 249 252 250 250 250 250 251 250 250 250 250 250 250 250 250 
250 249 251 250 250 251 250 250 250 251 251 251 251 251 252 251 
251 251 251 251 251 251 251 251 251 250 250 251 252 251 251 252 
252 252 253 253 253 253 253 253 253 252 253 252 252 252 252 253 
253 253 254 253 253 253 253 252 252 253 252 253 252 253 253 253 
252 251 252 249 248 248 248 247 248 248 249 249 248 248 248 250 251 249 249 249 
249 249 248 250 250 249 250 248 250 249 249 250 249 250 249 250 
249 250 249 250 249 250 250 249 249 250 250 250 250 251 250 251 
250 251 252 252 251 251 251 249 250 250 250 250 251 252 252 252 
252 251 251 252 252 252 252 252 253 252 252 253 252 252 253 253 
252 252 252 253 252 253 253 253 252 252 252 252 250 251 252 252 
252 252 252 245 248 247 249 247 247 248 249 248 247 249 250 250 249 249 249 248 
249 249 249 249 250 249 248 250 249 248 249 248 249 248 248 247 
248 248 249 248 248 249 248 251 249 251 251 252 250 251 251 251 
250 250 252 251 252 253 253 250 251 251 250 250 247 250 251 251 
251 250 251 252 252 251 252 252 252 252 251 251 251 252 252 251 
252 250 253 252 252 252 252 253 251 251 252 251 251 251 252 251 
250 252 252 246 245 246 245 247 247 248 249 249 248 249 248 248 249 248 248 249 
249 249 248 249 248 247 249 249 248 249 248 247 248 248 247 247 
247 246 247 247 248 249 248 247 250 250 247 243 227 227 213 210 
220 212 207 216 211 213 231 244 247 248 248 251 250 248 249 250 
250 250 250 251 251 251 250 251 251 252 251 250 251 251 252 250 
250 252 251 251 252 252 252 252 251 251 251 250 250 251 252 252 
251 251 251 245 247 247 247 247 247 249 248 248 248 249 249 249 248 248 247 248 
248 249 247 248 248 248 249 248 247 247 248 247 248 246 245 246 
246 247 248 248 246 242 228 216 197 189 189 198 214 223 223 228 
222 240 245 223 222 214 215 210 200 199 204 227 241 246 249 251 
251 250 248 249 250 251 251 251 251 251 251 250 250 250 251 250 
251 251 251 251 250 251 251 250 250 251 251 250 252 251 251 250 
250 251 251 246 246 248 246 247 248 248 248 248 248 248 248 248 248 248 248 248 
248 248 248 248 247 248 247 248 246 247 247 248 249 249 247 247 
247 247 245 229 197 181 192 201 229 245 248 249 250 249 250 250 
251 251 248 251 252 251 252 250 250 249 244 221 202 200 206 229 
245 249 250 250 251 251 251 251 250 250 251 250 250 250 250 250 
250 250 251 250 250 250 250 250 249 251 251 249 249 249 250 250 
251 249 250 245 246 244 244 246 248 248 247 247 247 248 248 248 248 247 245 247 
246 247 248 247 247 246 246 245 246 246 248 247 248 249 249 246 
221 196 185 210 231 249 249 249 249 248 249 248 248 248 248 248 
247 247 248 248 250 249 248 249 248 248 249 248 250 249 238 214 
195 202 236 248 250 252 250 250 250 250 249 250 249 251 250 250 
250 249 250 251 250 249 250 250 250 249 250 250 250 250 250 250 
250 250 251 244 246 245 245 244 245 245 247 248 247 247 247 246 247 246 246 246 
246 245 246 247 246 246 246 247 246 247 248 248 248 245 217 183 
196 228 247 248 249 247 247 248 247 247 248 248 247 247 248 248 
248 248 248 248 249 248 247 246 245 248 248 248 247 247 249 249 
248 233 205 200 225 247 252 250 250 249 250 249 250 250 249 249 
251 250 249 249 250 250 249 249 250 249 249 249 250 250 250 248 
249 249 249 245 246 246 244 243 244 246 247 246 246 246 247 246 246 245 246 245 
245 247 245 245 244 246 245 245 245 248 247 228 214 173 189 240 
247 248 248 246 247 247 246 247 247 247 248 246 247 247 246 247 
247 248 247 248 247 248 247 247 246 248 248 247 247 245 246 247 
248 249 248 238 208 199 238 250 250 250 250 249 250 249 248 249 
248 249 249 248 249 249 249 247 249 250 249 249 248 250 249 250 
250 249 247 245 246 245 244 243 245 245 246 245 245 246 246 246 246 245 243 245 
244 244 244 245 244 245 246 245 245 218 169 139 195 239 248 248 
247 247 246 246 248 246 246 247 246 246 246 247 247 247 245 247 
247 246 245 246 248 247 246 248 248 247 247 247 245 247 247 246 
246 246 248 248 251 244 202 204 243 249 249 248 247 249 248 248 
249 249 249 249 248 248 249 249 249 248 249 249 249 248 248 249 
250 249 249 245 245 243 243 243 245 245 244 246 244 245 245 246 245 244 244 244 
242 243 243 241 241 242 246 244 212 190 179 221 249 248 247 246 
245 245 246 246 245 246 247 246 247 246 247 247 246 249 247 246 
247 248 245 246 247 247 247 248 248 246 246 247 247 247 246 247 
247 246 247 248 249 250 251 237 201 215 246 249 248 248 247 249 
248 248 248 249 248 247 247 247 249 249 246 248 249 249 248 249 
247 248 248 245 244 244 244 243 244 244 244 244 246 244 245 247 245 243 242 244 
242 241 240 241 241 241 240 208 227 245 239 249 247 246 246 246 
246 245 246 246 246 246 246 247 247 247 247 246 246 246 247 247 
246 246 245 245 247 246 247 247 248 247 247 247 247 246 246 247 
247 246 247 247 248 247 249 249 246 215 201 241 249 247 245 248 
247 248 248 248 248 248 245 246 247 247 248 249 248 247 248 248 
249 248 249 244 243 243 242 243 244 245 243 244 243 244 246 243 244 241 243 242 
244 242 241 241 242 236 195 228 246 248 247 245 245 244 245 244 
246 246 246 246 246 245 245 246 246 246 247 247 247 247 246 248 
246 245 245 247 247 247 247 247 246 245 245 246 246 245 246 246 
246 247 246 246 247 247 247 247 248 249 237 196 236 249 249 247 
247 248 248 247 248 248 244 248 247 247 247 248 248 248 249 249 
249 249 250 243 243 243 242 243 242 242 244 244 244 244 244 244 243 242 242 243 
243 242 241 242 229 204 239 248 244 245 245 244 244 247 245 246 
245 245 246 246 246 247 246 246 245 245 246 247 246 246 246 246 
245 246 246 246 246 247 246 246 246 246 247 246 245 245 246 245 
246 245 245 246 247 246 246 245 247 246 247 241 196 220 247 248 
244 247 247 247 247 247 246 248 248 247 248 248 247 247 247 248 
249 249 248 241 243 241 242 242 243 242 244 243 243 242 244 242 242 241 242 241 
241 240 243 230 210 244 245 243 243 245 245 246 246 245 245 246 
245 245 247 245 246 245 244 246 248 247 247 246 247 247 245 247 
245 245 247 247 247 247 247 247 247 247 246 246 246 246 246 246 
246 247 245 247 246 246 246 245 246 245 246 248 250 206 203 243 
245 245 243 245 245 246 246 246 247 247 247 247 247 247 247 248 
248 247 248 242 241 242 242 242 242 243 242 242 243 242 242 241 241 242 241 241 
240 242 232 202 239 243 242 242 242 244 244 244 244 245 245 245 
245 245 246 247 247 245 246 246 247 246 246 244 246 246 246 246 
247 246 247 246 246 247 246 246 245 246 247 246 246 244 245 245 
246 244 246 243 244 245 245 246 244 243 245 245 246 249 211 197 
245 247 245 247 247 246 246 246 245 245 246 247 248 248 248 247 
248 248 249 241 241 241 240 242 242 241 241 240 242 242 241 241 243 242 242 240 
239 233 196 242 242 243 242 243 241 243 244 244 243 244 244 244 
245 245 246 246 245 245 247 246 245 246 246 248 246 246 247 245 
247 246 246 245 246 245 246 246 246 246 246 245 245 245 245 245 
244 245 245 245 245 245 246 245 245 245 244 244 246 245 248 199 
207 247 248 245 245 245 245 246 245 246 246 248 248 248 248 248 
248 249 248 241 242 240 238 240 241 242 241 241 242 242 242 241 241 242 242 241 
236 196 241 242 243 243 243 243 243 243 243 243 245 244 243 243 
243 244 244 245 245 247 245 246 247 246 246 245 247 247 245 245 
245 246 246 246 246 245 245 245 246 245 246 246 245 245 245 244 
245 244 243 245 246 246 245 245 243 244 246 244 242 244 244 248 
204 210 244 245 246 245 245 245 244 244 246 246 247 248 247 247 
249 247 247 240 237 239 241 241 241 241 241 241 242 241 241 240 241 239 242 237 
210 240 243 241 243 243 242 242 242 243 243 244 242 244 244 243 
243 244 243 243 246 246 245 246 244 245 246 246 247 246 246 246 
247 245 245 246 246 246 245 247 245 245 245 245 244 245 243 244 
243 243 245 243 243 244 243 244 243 244 245 243 242 244 243 245 
247 186 214 248 245 245 244 245 245 245 244 243 246 248 248 248 
247 247 248 239 238 239 240 239 239 240 240 240 240 241 240 240 240 240 238 215 
234 244 242 241 241 242 242 242 242 242 243 242 242 242 242 242 
242 243 244 242 243 244 244 245 245 245 246 246 244 245 245 244 
244 245 244 244 244 246 244 244 246 245 245 246 245 244 244 244 
244 244 244 245 244 244 245 243 242 241 244 245 244 243 242 241 
244 243 181 216 246 243 245 243 244 246 245 246 247 247 246 246 
246 244 246 238 238 237 239 241 240 240 242 239 240 241 241 240 240 241 220 227 
242 242 242 242 242 242 241 240 241 242 241 241 242 242 241 242 
242 242 244 243 244 245 245 245 244 244 245 245 246 245 247 247 
246 245 246 245 247 246 244 245 244 244 245 242 243 241 242 243 
244 244 241 243 243 244 242 243 242 244 243 244 243 244 243 240 
243 242 237 166 234 244 243 244 244 245 245 245 245 246 247 245 
246 247 247 237 238 239 238 239 239 239 240 239 239 239 240 240 239 230 222 244 
242 241 239 241 240 241 241 241 242 241 241 239 241 242 242 240 
242 241 242 243 244 244 243 244 244 244 245 244 244 243 244 245 
243 245 244 245 243 243 244 244 244 244 245 244 244 243 243 242 
243 244 242 242 242 243 244 244 243 242 242 244 243 245 242 242 
243 243 246 228 185 245 243 242 244 244 245 244 244 245 245 248 
247 246 246 239 237 237 237 238 238 239 240 237 239 239 239 238 236 206 241 239 
239 239 240 242 240 241 241 241 240 241 241 243 241 240 240 240 
240 241 241 241 242 242 243 243 244 242 243 242 244 243 242 243 
245 245 245 244 245 244 243 244 244 244 245 243 244 243 242 242 
243 243 243 241 242 241 241 243 243 242 243 243 244 244 242 243 
242 242 245 247 207 205 244 242 243 245 244 244 241 244 245 246 
246 246 247 238 238 239 238 237 238 240 239 237 236 238 235 237 214 235 241 241 
240 240 241 240 241 240 239 238 239 239 239 241 238 240 239 241 
160 230 240 241 241 244 243 242 243 243 242 242 241 242 242 243 
242 242 243 244 243 243 244 242 244 243 243 245 244 243 243 243 
244 244 244 241 239 241 239 242 242 243 243 242 243 243 243 242 
242 242 244 245 248 171 233 244 240 240 243 244 243 242 245 247 
244 245 246 238 236 239 237 237 236 237 235 237 237 237 235 233 203 239 240 240 
239 240 239 238 240 239 240 239 240 239 240 239 240 241 240 214 
154 195 240 240 240 242 241 241 241 242 242 242 242 240 241 241 
241 240 242 243 241 243 243 242 242 243 242 243 244 241 242 241 
243 242 245 241 242 243 238 241 243 243 242 244 242 243 243 242 
243 242 244 245 247 220 172 241 241 242 241 242 244 245 244 246 
245 247 244 236 237 236 236 236 237 235 236 236 235 236 237 203 235 239 238 240 
239 239 239 239 239 238 238 237 237 236 238 238 239 239 238 192 
223 187 240 240 239 240 237 240 240 242 242 238 239 237 239 240 
240 240 242 242 241 242 242 242 242 243 243 243 242 242 241 241 
240 241 242 241 229 243 238 239 241 243 242 242 243 243 242 243 
243 243 244 244 244 248 184 216 240 242 243 244 244 243 245 245 
244 245 246 235 235 233 235 235 233 236 234 234 232 234 218 209 239 238 237 238 
238 239 240 238 239 237 237 236 237 237 237 237 239 236 236 172 
239 182 239 237 238 238 238 237 236 236 235 237 237 238 238 238 
240 239 239 238 239 241 243 242 241 241 241 241 241 242 239 240 
240 240 242 237 151 201 241 240 241 241 241 242 241 242 242 243 
243 241 242 244 243 244 231 163 241 238 239 241 242 244 243 246 
245 246 244 234 235 236 236 234 234 234 234 235 231 230 193 238 236 237 239 237 
238 237 237 237 238 237 237 235 236 235 234 236 237 240 230 183 
235 173 227 237 237 237 238 237 235 234 235 236 236 235 236 236 
238 238 237 241 239 239 241 241 241 241 242 242 239 239 238 239 
237 239 240 237 187 188 219 241 241 240 239 239 243 243 241 243 
242 243 242 243 243 242 246 178 203 239 240 243 244 243 242 243 
243 244 245 234 233 232 234 233 234 231 233 233 232 208 204 236 236 237 238 239 
238 237 238 237 237 239 236 235 234 238 236 233 236 238 207 212 
232 223 164 235 232 225 227 235 240 237 235 237 236 235 235 235 
237 239 240 238 238 240 240 241 241 239 240 239 240 239 238 238 
238 239 239 240 192 222 197 235 239 240 241 242 243 241 243 242 
242 242 242 241 242 242 241 227 163 242 243 243 243 243 243 244 
245 245 245 233 234 234 233 233 233 233 233 232 230 187 235 235 235 236 237 237 
238 238 237 237 238 236 238 236 234 234 231 214 174 167 123 217 
232 238 153 165 140 119 115 116 196 239 237 238 239 236 235 237 
238 236 238 239 237 239 240 240 240 240 240 240 241 236 240 241 
241 241 242 242 208 227 243 199 242 240 234 219 203 189 244 241 
241 242 242 241 241 241 240 243 165 234 244 244 242 244 243 243 
245 244 243 234 232 230 233 233 231 233 233 231 217 188 239 235 234 235 236 237 
237 238 236 238 236 238 236 236 176 120 146 145 171 182 195 224 
232 235 219 153 192 223 168 121 208 236 236 237 233 237 234 234 
237 234 236 237 236 238 238 239 240 240 240 240 241 238 239 237 
227 225 217 190 159 226 243 204 169 160 115 112 128 101 187 241 
240 242 241 241 240 240 240 241 210 196 243 243 244 242 245 244 
244 243 243 232 232 233 233 232 230 231 233 231 188 220 238 236 233 234 235 237 
238 235 236 237 236 238 237 236 217 155 199 233 232 236 235 233 
231 233 236 239 233 206 126 214 238 235 235 235 233 236 236 235 
237 234 237 237 237 237 238 239 240 240 239 239 241 240 162 142 
136 155 158 179 211 239 240 241 154 175 222 239 236 128 220 240 
241 242 242 242 242 240 240 240 236 181 243 244 242 244 241 243 
244 243 244 234 233 232 232 232 231 229 232 231 176 236 235 236 235 234 235 235 
237 237 236 234 236 237 238 236 238 233 183 147 156 191 234 232 
235 235 234 227 186 133 213 238 237 238 236 237 236 237 235 235 
237 236 235 236 239 238 238 239 239 238 239 240 240 239 226 140 
177 224 244 244 243 241 241 244 244 246 244 240 148 183 244 241 
241 242 241 242 240 241 241 241 241 189 229 244 244 243 244 242 
243 245 242 233 231 231 231 232 230 233 230 216 185 237 236 236 236 233 234 235 
235 238 237 236 236 236 236 237 235 233 237 233 196 111 183 232 
235 238 233 219 86 155 237 236 237 235 235 236 235 235 236 236 
236 236 236 237 238 235 237 238 239 238 239 240 240 238 240 241 
193 148 138 185 218 240 242 241 245 240 240 169 161 243 243 241 
242 242 241 240 244 242 240 240 239 213 200 244 243 242 242 242 
242 243 242 233 232 232 232 232 231 232 227 191 222 235 234 235 234 234 234 235 
236 236 236 236 235 235 235 236 237 233 235 235 227 117 225 233 
215 177 237 235 191 118 235 239 235 236 235 234 235 236 234 237 
236 236 234 236 237 237 236 239 239 238 239 238 239 238 237 239 
241 245 205 140 142 246 238 239 240 241 185 138 240 244 240 242 
242 241 241 242 241 241 238 238 240 237 161 244 242 244 243 242 
242 242 243 232 233 233 232 232 231 231 229 173 237 235 236 235 234 235 235 236 
235 234 236 235 236 236 237 235 235 235 235 233 206 153 237 199 
123 122 189 237 242 162 156 210 239 235 234 235 234 237 233 233 
235 235 235 236 236 236 237 237 237 238 238 238 237 237 235 236 
240 227 152 154 234 234 235 243 241 240 189 188 244 241 241 241 
242 241 242 243 243 241 240 238 240 238 170 229 243 243 242 241 
242 242 242 233 236 233 232 232 231 230 224 171 236 233 234 234 233 235 236 235 
236 235 234 234 235 235 236 236 236 234 234 231 130 181 156 101 
170 237 206 154 226 223 167 168 213 237 236 236 236 236 235 236 
235 236 234 235 235 234 236 236 238 236 240 238 238 238 233 235 
240 165 174 233 198 118 129 212 242 240 235 167 243 240 241 241 
241 241 241 240 241 241 240 237 237 239 192 200 240 240 241 242 
241 242 240 233 235 234 233 230 230 229 211 191 236 234 234 234 234 234 235 235 
235 236 235 234 235 235 234 235 234 234 236 202 83 104 138 209 
239 236 238 229 167 197 142 237 198 236 238 236 235 235 234 231 
234 233 234 234 233 231 232 237 237 237 238 235 239 234 233 236 
174 127 180 136 105 178 222 175 172 239 241 144 242 241 241 241 
241 241 240 240 239 239 239 238 238 239 228 173 239 240 242 241 
240 240 241 234 234 233 235 232 232 231 192 223 235 234 234 234 234 235 234 233 
235 237 234 234 233 233 235 235 235 232 236 235 178 206 237 236 
233 233 234 235 236 193 106 217 238 236 237 234 235 236 234 235 
234 233 234 234 233 232 232 234 236 237 235 236 235 236 235 235 
125 120 112 162 210 239 240 244 214 154 166 133 244 241 241 240 
240 241 240 240 241 239 240 240 237 238 238 151 243 241 241 241 
241 241 241 234 234 232 233 232 233 230 180 232 235 235 235 234 234 234 235 234 
235 233 234 233 235 234 235 234 235 234 234 237 241 240 236 234 
233 232 233 233 235 243 238 232 237 237 236 236 235 236 233 232 
234 233 234 233 234 234 233 233 233 235 237 236 236 235 233 235 
207 188 218 240 240 240 238 239 244 233 177 144 243 240 239 239 
239 240 240 241 241 238 239 239 239 236 241 154 242 240 238 240 
240 241 240 235 234 235 233 233 234 229 175 234 233 234 235 234 235 235 234 233 
233 233 233 233 233 233 235 235 234 234 233 235 236 235 233 233 
234 235 234 234 234 234 239 236 237 237 240 236 236 235 234 233 
232 233 233 232 232 232 234 234 234 233 235 235 236 234 237 235 
239 239 238 240 238 237 235 235 235 240 243 239 240 241 241 241 
240 240 240 240 241 238 237 238 238 237 241 159 230 238 240 240 
240 240 239 235 233 233 235 234 232 233 185 238 234 235 235 234 234 233 234 233 
234 233 233 232 233 232 232 233 234 234 234 233 233 233 232 232 
233 233 234 234 234 236 235 236 235 237 237 237 234 234 233 232 
233 233 233 233 233 233 233 232 234 233 235 236 235 236 235 236 
238 237 237 236 237 237 236 237 237 237 239 240 240 239 239 240 
240 240 240 240 240 240 239 236 237 235 237 178 215 242 239 240 
240 240 241 237 235 235 235 233 234 226 182 234 234 234 233 234 232 233 232 233 
234 233 232 233 233 234 232 232 232 233 234 233 233 233 233 232 
232 232 234 235 235 235 235 234 235 234 235 236 236 235 232 234 
233 233 233 233 232 233 234 231 234 233 233 236 237 236 237 236 
237 236 237 237 238 236 237 237 236 239 238 238 239 240 240 239 
239 239 239 239 239 238 238 237 237 234 235 190 210 238 238 239 
238 240 238 236 235 235 236 235 233 225 184 236 233 234 236 234 232 230 232 234 
232 232 232 232 233 232 229 229 231 233 233 234 233 231 233 234 
232 233 234 233 235 235 235 236 235 235 235 235 234 234 233 232 
233 232 232 232 233 233 233 233 233 232 233 235 236 236 236 236 
237 237 236 236 237 237 236 237 236 237 238 240 238 238 239 238 
238 238 239 241 239 239 238 237 237 233 234 199 194 239 238 238 
238 239 240 234 234 234 234 235 233 223 186 237 234 232 233 233 233 234 231 232 
232 232 232 231 232 232 231 232 234 233 234 233 233 233 233 234 
233 233 234 234 233 235 236 235 235 234 235 233 234 232 233 232 
233 233 233 234 233 232 233 233 235 235 236 237 237 236 237 237 
237 236 238 236 237 236 237 237 238 237 237 237 239 239 238 237 
240 239 238 238 237 236 237 238 237 233 237 200 191 237 237 237 
240 237 238 235 233 234 235 233 231 229 195 234 233 233 232 233 233 232 232 231 
233 233 233 233 231 232 232 233 232 234 234 234 233 233 234 233 
233 234 235 234 234 234 233 234 234 235 236 234 233 234 233 233 
233 233 233 233 232 232 231 232 234 234 235 235 236 235 236 235 
236 237 238 238 235 237 236 237 237 238 238 237 238 237 237 238 
236 239 239 240 237 235 236 235 234 234 238 211 193 236 237 237 
236 238 238 235 233 235 235 235 234 217 177 234 232 233 233 232 231 232 233 232 
231 233 232 232 231 231 231 232 235 233 233 233 233 233 232 235 
234 234 232 233 234 234 233 233 234 234 234 234 233 234 234 232 
232 233 232 232 231 233 232 232 234 234 235 235 233 236 235 236 
236 237 236 238 238 236 238 236 236 237 238 238 239 237 238 238 
238 237 236 238 237 236 237 237 235 233 237 226 185 239 236 238 
240 239 237 236 234 233 232 233 234 224 182 234 233 233 234 234 233 232 232 233 
233 232 232 232 234 233 231 233 231 233 234 233 233 233 232 233 
232 234 233 233 233 234 234 233 233 233 233 234 233 233 233 234 
232 232 234 234 233 231 232 232 233 234 234 236 235 235 232 235 
235 235 236 235 235 237 236 236 236 235 237 237 237 236 237 237 
236 238 238 238 237 235 235 235 236 236 236 230 167 240 238 237 
236 236 239 235 236 235 234 236 235 228 190 235 234 234 233 232 235 233 234 232 
232 232 234 233 232 232 234 233 233 233 234 234 235 232 234 234 
232 234 233 232 233 233 234 235 234 235 234 234 234 233 235 234 
233 233 234 233 233 231 233 233 232 234 235 233 234 235 235 233 
234 234 236 237 237 235 236 237 235 236 237 235 236 237 236 237 
235 236 237 238 237 235 233 235 235 235 237 217 171 237 237 237 
238 236 236 236 235 235 233 233 235 228 188 234 232 233 233 232 231 232 233 233 
233 234 232 233 234 233 233 233 233 232 236 233 234 234 233 234 
234 234 233 233 233 234 234 234 235 235 237 235 234 234 233 231 
233 233 232 233 233 232 229 231 233 234 234 235 234 234 234 232 
231 233 234 235 236 236 235 234 235 236 236 236 235 235 235 237 
238 235 235 236 235 236 234 234 236 235 235 214 179 237 236 236 
236 236 234 233 235 235 235 234 233 232 178 236 234 233 233 232 234 234 233 233 
233 232 234 233 233 235 234 233 233 234 235 234 233 234 236 234 
234 233 234 233 233 234 235 236 235 235 235 235 235 235 236 236 
234 233 233 233 234 233 233 233 233 234 233 233 234 234 233 232 
233 235 236 233 235 235 236 236 235 236 235 234 236 235 235 234 
234 236 236 235 235 235 233 234 234 234 235 197 193 236 235 236 
237 236 237 234 234 234 234 234 235 231 175 237 234 234 234 235 232 235 233 234 
233 233 233 233 233 233 233 234 230 233 234 234 233 234 234 234 
234 234 234 233 234 234 235 235 234 234 235 235 237 236 235 235 
233 234 234 233 233 233 232 232 233 233 234 233 235 233 231 232 
233 235 236 237 236 235 235 237 235 234 234 236 236 235 235 235 
235 234 234 235 234 233 235 235 234 233 234 179 197 237 236 236 
235 235 234 234 234 234 233 234 233 232 185 234 233 234 233 232 234 233 233 233 
234 235 234 235 234 234 234 234 233 234 235 234 234 235 235 233 
234 234 235 235 233 234 234 236 237 235 236 235 237 234 235 234 
233 232 232 234 233 233 232 232 233 233 233 233 233 232 234 232 
234 234 234 235 235 235 236 234 234 235 234 234 234 235 234 235 
234 236 235 234 235 235 234 235 234 234 234 164 226 236 235 235 
235 234 235 234 235 235 235 234 235 231 196 226 234 234 233 234 234 233 234 233 
233 234 234 234 235 234 235 234 233 233 234 235 235 236 236 235 
235 234 234 235 233 234 234 235 236 236 237 235 236 236 234 232 
233 232 233 234 232 231 232 231 232 233 233 233 232 232 233 232 
233 234 234 234 234 234 234 235 235 234 234 235 234 234 235 233 
234 234 232 234 233 233 234 234 232 233 233 160 228 235 236 235 
235 236 234 235 235 234 234 234 234 233 209 212 234 234 233 233 232 234 233 233 
232 233 234 234 234 234 234 233 233 234 235 235 236 236 235 235 
235 234 234 232 235 234 235 236 238 237 235 235 236 236 234 233 
233 230 232 233 232 233 232 231 232 232 234 233 233 233 232 233 
236 235 234 234 235 233 235 234 235 235 234 234 234 235 234 235 
235 234 234 233 233 232 232 233 233 235 234 142 232 233 236 234 
236 235 235 233 234 234 234 235 234 234 225 190 236 234 234 235 233 232 232 232 
233 233 234 235 236 234 232 235 233 236 234 234 236 235 236 235 
235 236 235 238 234 234 235 236 235 235 239 236 236 235 233 233 
232 231 229 232 231 232 233 231 232 233 234 233 233 233 233 234 
233 234 234 234 233 234 233 234 234 234 234 235 234 233 234 234 
234 232 233 233 232 234 234 236 234 233 227 142 236 235 235 235 
235 235 235 236 234 234 234 235 234 233 232 178 237 234 233 233 234 232 232 232 
231 232 234 234 235 234 233 234 235 235 237 236 236 237 236 236 
236 235 235 235 233 234 235 235 236 235 237 236 236 235 233 232 
233 232 233 232 230 232 232 232 232 232 233 230 231 231 232 231 
232 233 234 234 234 234 234 232 233 234 234 233 235 236 234 235 
235 235 235 232 234 234 231 233 233 232 197 171 235 235 235 234 
234 234 234 234 234 235 235 235 234 233 234 178 231 234 232 233 233 233 233 232 
232 232 232 235 234 234 233 233 235 236 235 236 237 237 237 236 
237 237 236 235 234 236 237 236 235 237 237 236 236 237 234 234 
234 232 231 232 233 231 231 232 232 232 232 231 229 231 231 233 
234 234 233 234 234 233 233 233 234 236 234 234 234 233 234 233 
235 232 234 233 233 233 233 233 230 231 169 217 234 235 234 235 
235 234 235 235 235 234 234 234 231 235 233 203 198 235 235 236 235 235 235 235 
233 232 233 234 234 236 234 234 238 237 237 237 236 236 238 237 
238 237 236 237 235 237 234 237 237 234 236 237 235 232 232 233 
236 234 233 231 233 231 232 232 232 233 233 233 231 231 233 233 
234 234 233 234 234 235 233 233 234 233 233 233 234 235 235 233 
234 232 230 231 231 232 230 229 234 231 141 234 234 235 233 234 
235 234 233 234 234 234 233 235 232 233 234 229 167 240 234 237 235 235 236 235 
235 234 235 233 233 236 236 236 237 236 237 237 236 236 238 240 
241 239 236 235 235 236 236 234 237 236 236 236 233 233 233 214 
231 238 237 234 231 233 230 232 232 231 233 234 231 233 230 233 
232 233 233 233 234 231 233 233 232 234 234 233 233 233 233 234 
234 232 232 231 232 232 231 232 232 223 142 237 234 234 234 234 
234 234 236 234 234 235 234 234 234 235 236 236 189 235 236 235 235 236 234 235 
236 234 233 233 233 233 235 236 236 237 235 237 237 237 237 237 
238 239 239 236 235 234 236 237 236 236 234 234 232 234 234 196 
152 171 210 237 234 231 232 232 230 232 232 232 233 233 233 231 
234 233 233 232 233 232 234 233 233 232 233 233 233 232 232 233 
234 232 232 231 231 230 231 231 232 183 180 234 236 235 234 236 
234 235 232 233 233 234 236 234 232 234 236 238 210 201 233 236 235 235 236 234 
235 233 235 233 235 235 235 234 234 236 237 235 238 236 236 237 
237 238 239 237 236 237 236 236 234 236 236 232 234 228 193 182 
161 173 151 172 230 233 232 232 232 232 233 233 233 233 232 232 
234 233 233 233 232 233 232 233 231 232 233 232 232 232 234 232 
234 232 231 231 231 231 228 231 230 139 227 234 235 235 233 235 
235 234 235 233 233 232 234 234 233 234 232 235 234 174 233 230 233 234 234 236 
236 235 235 234 234 234 234 235 235 235 235 236 235 235 234 235 
234 236 237 238 237 237 236 234 234 237 235 237 224 161 174 205 
223 224 231 178 153 220 233 228 229 232 232 233 232 233 233 232 
234 233 233 233 232 233 234 231 232 232 232 231 231 231 230 231 
233 232 232 231 231 230 232 230 220 135 235 234 234 234 234 234 
234 233 233 233 232 232 234 232 232 233 232 234 233 193 220 232 233 232 233 235 
235 234 234 234 234 235 234 234 232 234 235 234 233 233 234 233 
233 232 232 234 234 233 235 235 235 235 235 206 164 214 241 237 
237 236 234 239 197 130 213 233 232 232 230 233 235 233 233 233 
232 232 232 233 233 234 232 231 232 230 231 231 232 231 232 232 
231 231 234 232 232 231 230 231 167 179 234 234 234 235 234 234 
233 234 233 230 232 233 233 232 231 233 232 234 232 227 174 235 232 233 233 233 
232 232 231 232 235 233 232 233 231 233 232 233 233 233 233 232 
231 232 233 232 234 233 233 234 234 234 228 155 231 239 236 235 
233 234 234 235 237 223 143 219 232 232 230 233 232 232 232 233 
232 232 231 231 232 233 233 233 230 232 232 231 231 231 230 231 
230 232 232 232 232 231 232 228 124 229 235 233 233 234 233 233 
233 233 233 231 230 231 231 231 231 232 233 231 229 229 182 225 230 231 233 232 
232 233 233 231 231 232 233 232 233 233 234 233 233 233 232 231 
232 228 230 231 232 232 233 234 233 234 181 215 239 236 234 235 
234 235 235 234 234 236 224 165 230 231 233 232 232 232 232 232 
233 233 232 231 231 231 230 227 230 231 230 230 231 232 230 231 
231 232 232 230 230 229 230 192 156 234 233 233 233 233 233 234 
233 233 234 229 230 229 227 228 228 227 228 226 226 227 222 172 231 227 231 232 
233 233 231 232 232 231 231 231 231 231 231 232 231 231 231 229 
230 230 227 231 232 232 233 232 232 228 173 240 235 234 235 236 
235 234 234 234 233 232 232 171 216 230 232 232 233 234 231 232 
232 231 233 233 232 231 232 231 232 230 230 231 230 228 230 230 
231 229 231 231 232 228 227 143 220 232 232 232 233 233 233 233 
233 232 232 228 228 227 229 227 226 228 226 224 226 226 228 181 198 231 230 232 
230 233 231 231 231 231 231 230 231 232 233 230 230 230 231 230 
233 230 229 232 233 233 232 233 232 219 196 235 237 236 234 235 
234 235 235 234 233 232 231 225 180 231 231 232 232 231 231 231 
232 232 232 231 231 231 229 228 228 230 229 230 231 230 229 229 
230 231 231 230 230 228 198 170 232 234 233 234 230 233 232 232 
233 232 233 226 227 226 227 226 227 226 226 225 226 226 226 220 127 226 227 228 
230 230 231 230 231 229 231 230 228 230 230 230 231 232 231 230 
230 230 231 232 231 231 231 233 233 219 200 232 234 235 235 234 
236 235 234 234 234 234 229 226 170 230 232 231 232 231 232 231 
232 232 231 231 231 229 229 230 228 229 230 230 230 229 228 226 
227 229 231 228 230 232 143 220 232 232 231 233 232 232 233 234 
232 232 232 226 226 226 224 226 224 224 224 225 222 225 221 226 189 176 225 225 
229 227 229 230 229 228 228 229 228 229 230 231 231 229 230 231 
232 229 231 233 231 232 231 232 230 219 203 235 235 234 233 234 
233 233 235 232 233 234 232 227 146 233 231 231 232 231 230 230 
230 231 231 230 230 230 229 228 230 228 229 228 227 229 226 228 
229 229 230 228 230 177 171 233 232 232 232 230 233 233 233 232 
232 232 232 226 224 224 225 225 224 225 224 223 223 223 221 222 229 146 220 225 
228 229 227 228 229 231 228 229 229 230 230 229 230 230 229 230 
227 230 228 230 229 230 228 231 231 227 186 236 233 233 233 236 
233 234 233 233 235 235 235 205 162 232 230 231 230 231 231 229 
230 230 229 229 229 230 229 229 230 230 228 227 230 227 227 229 
227 228 229 230 225 140 231 231 232 232 232 233 232 232 231 232 
231 232 233 225 224 222 226 223 224 224 223 222 222 222 223 219 223 214 146 232 
228 227 226 229 229 229 229 228 230 229 229 230 228 230 229 231 
230 230 229 229 229 229 229 231 231 230 167 215 235 234 233 233 
233 232 233 231 234 237 226 130 204 229 231 230 231 230 231 229 
230 230 230 229 230 229 228 227 227 228 225 225 227 226 228 225 
224 226 225 227 151 191 232 231 231 231 232 231 231 232 233 231 
233 233 231 223 224 223 223 224 223 224 222 223 224 223 222 223 220 224 174 184 
228 226 225 227 227 227 228 230 227 229 230 230 229 228 228 228 
229 229 229 229 229 229 228 226 227 228 218 132 217 233 236 235 
232 234 236 233 234 232 150 156 232 229 227 230 231 231 229 230 
231 230 229 230 229 227 230 230 226 226 227 228 228 227 227 227 
226 226 226 206 143 233 230 230 231 232 231 230 231 232 230 231 
232 231 231 222 222 223 222 222 222 221 222 222 222 224 223 220 219 221 221 150 
200 227 223 225 227 227 228 227 229 229 228 228 230 226 228 227 
229 228 228 228 227 227 228 227 226 227 232 213 132 165 215 231 
235 231 232 229 197 126 153 231 230 227 227 230 231 230 230 230 
228 229 229 226 227 228 228 229 226 229 230 228 227 227 227 230 
226 227 216 148 222 230 227 229 229 231 232 233 231 230 231 230 
230 229 228 221 221 221 223 222 221 223 221 222 222 224 223 219 218 216 218 223 
161 220 225 224 224 222 225 227 227 229 229 228 226 229 229 228 
228 228 228 228 229 228 228 226 226 227 229 233 225 157 119 111 
149 127 117 119 140 197 235 235 227 229 229 228 228 229 230 230 
230 230 230 229 229 229 229 228 230 230 231 228 230 232 231 232 
230 227 156 211 232 229 230 226 230 231 230 230 231 230 230 231 
230 230 231 221 218 222 222 221 221 221 223 220 220 222 223 221 219 220 220 221 
208 154 221 225 226 225 225 227 227 229 229 228 229 227 227 226 
226 228 228 228 228 228 230 227 228 227 228 227 229 235 230 219 
188 200 187 200 228 234 230 230 228 228 229 227 228 229 228 230 
231 228 229 230 229 229 230 229 232 230 231 230 230 230 230 231 
227 177 193 234 228 227 228 231 230 231 228 229 230 229 229 229 
232 230 230 219 221 220 221 221 220 221 221 222 222 218 220 219 219 221 219 218 
221 207 137 223 224 223 223 222 224 223 227 227 227 226 225 226 
225 225 226 227 226 229 227 224 225 227 225 225 226 226 229 225 
227 225 225 228 228 228 228 229 227 223 226 225 226 229 228 229 
230 229 229 228 230 230 231 230 232 229 230 232 228 229 229 231 
199 171 230 229 227 227 229 229 228 228 230 230 228 231 230 229 
228 230 229 220 220 221 220 220 220 220 220 220 220 219 219 219 220 219 219 218 
219 224 201 161 224 224 222 224 224 224 225 225 225 224 224 225 
223 224 225 225 225 224 225 227 224 226 225 225 227 225 225 225 
221 224 225 224 224 225 226 225 224 225 227 226 229 231 229 229 
228 231 229 229 228 229 231 227 229 229 227 228 228 226 229 210 
164 229 229 227 226 226 226 228 229 229 228 230 230 229 229 229 
229 228 228 220 217 219 221 220 220 220 222 220 220 221 221 219 219 220 222 221 
221 221 226 205 164 214 223 224 224 223 223 224 224 224 225 224 
223 223 224 225 226 224 223 224 225 224 223 225 225 225 222 225 
225 225 225 227 226 226 226 225 225 227 226 225 223 226 228 228 
228 226 228 227 228 230 230 230 228 229 222 227 227 230 207 154 
224 231 228 227 229 229 227 227 228 228 229 228 228 229 229 229 
229 228 227 218 219 220 220 219 219 220 220 221 218 220 218 220 219 218 219 219 
220 219 217 219 213 149 211 222 222 223 224 224 223 224 224 223 
224 224 225 222 222 224 224 224 223 223 226 223 224 223 224 225 
226 226 226 227 227 226 224 227 223 221 224 225 226 225 227 228 
227 228 227 228 227 225 228 230 225 224 223 226 224 202 161 224 
229 226 226 227 227 228 229 225 227 227 226 227 226 225 226 226 
226 228 227 218 218 218 218 219 217 219 220 219 219 219 220 217 219 219 218 218 
220 220 216 215 219 214 143 206 221 224 222 223 223 223 221 222 
222 221 222 223 222 223 221 222 224 224 223 224 221 222 222 224 
223 226 226 225 226 227 227 227 224 224 224 222 225 226 225 228 
227 228 227 226 227 227 226 227 223 224 224 224 196 153 227 230 
225 226 225 226 226 225 226 226 225 227 226 226 225 227 227 227 
226 225 227 219 219 218 218 218 218 218 219 220 219 219 220 219 220 219 219 218 
217 215 216 213 213 218 216 173 189 219 224 221 219 219 223 221 
221 222 220 224 222 221 220 221 222 224 222 220 221 221 223 226 
225 225 225 224 225 227 226 225 224 222 225 225 225 225 227 227 
227 227 228 226 226 227 226 227 225 227 224 173 159 230 227 227 
227 228 228 227 225 225 224 223 225 225 225 224 224 227 226 225 
227 227 229 217 218 217 218 217 218 219 220 220 218 219 220 219 221 220 217 218 
215 216 216 214 214 215 219 217 189 162 214 224 223 221 219 221 
220 221 219 217 220 220 218 216 219 219 220 220 220 223 225 222 
222 222 226 225 226 226 226 227 227 226 224 225 226 225 225 225 
225 227 226 227 225 224 225 226 227 205 148 171 227 225 224 224 
226 225 226 223 224 223 224 226 225 224 223 222 224 224 225 225 
226 225 223 216 218 217 218 218 218 216 218 219 219 218 219 216 218 217 218 217 
215 216 218 214 216 217 217 216 219 205 159 186 220 225 222 221 
220 219 218 218 216 217 216 216 219 217 220 219 221 221 220 223 
222 224 226 226 226 226 228 227 228 227 228 224 223 227 225 224 
226 225 226 227 225 225 230 221 162 127 211 227 223 223 223 222 
223 226 225 226 224 224 223 223 223 223 221 221 223 225 225 224 
223 224 225 216 217 216 218 218 217 217 216 217 217 217 219 217 217 216 214 215 
216 215 215 215 216 214 215 216 215 216 218 188 167 206 224 221 
218 217 216 217 218 217 217 216 218 218 218 218 218 220 222 221 
224 226 225 226 227 229 230 228 225 223 226 227 226 224 225 224 
226 224 224 227 226 220 188 170 175 221 224 223 221 222 224 225 
223 224 224 223 222 223 222 223 223 221 222 223 225 225 223 223 
225 224 223 213 215 215 216 216 216 218 216 217 217 216 216 216 217 218 216 216 
215 216 216 217 215 214 213 214 214 213 215 216 214 167 171 211 
221 221 216 216 216 217 217 218 218 219 219 219 221 221 221 221 
221 223 225 225 226 229 225 222 223 225 227 225 226 225 224 222 
224 224 225 222 206 179 171 214 226 226 224 220 219 220 222 220 
224 224 222 223 222 221 222 222 221 221 221 221 221 221 222 223 
221 223 223 214 215 214 215 215 216 216 217 216 218 218 215 216 217 217 215 216 
216 215 215 213 214 215 215 217 213 213 213 213 212 216 204 153 
163 204 220 219 219 218 216 217 216 217 219 220 219 220 221 223 
222 222 223 223 225 226 224 222 221 224 224 223 223 225 223 224 
225 223 212 167 145 190 222 223 223 224 222 222 222 219 219 218 
221 221 221 221 221 222 221 221 221 220 223 222 221 223 222 222 
224 224 223 213 213 214 215 215 216 215 215 215 216 216 216 217 216 216 215 216 
215 216 215 215 217 215 214 218 214 214 212 214 213 214 218 215 
210 177 158 179 210 217 220 220 218 218 220 218 219 220 220 220 
222 221 222 223 225 227 223 223 221 223 223 223 221 224 223 220 
204 175 173 198 226 227 223 220 220 222 222 220 220 219 219 221 
222 221 221 222 221 220 220 221 221 220 221 222 222 221 222 221 
222 221 221 212 216 213 216 214 215 215 216 217 216 216 216 214 215 215 216 215 
217 218 217 217 215 216 216 217 214 214 212 214 214 212 213 213 
216 217 217 181 93 140 182 215 218 217 221 221 220 221 223 226 
223 224 223 224 228 228 226 225 221 221 224 222 218 209 180 155 
182 217 226 224 221 220 220 220 221 225 222 220 219 220 219 220 
221 221 220 220 220 221 222 220 222 224 221 221 221 222 221 223 
221 223 222 212 214 213 214 215 216 214 213 215 217 216 216 216 217 216 217 216 
214 215 216 215 215 215 216 215 214 214 214 213 214 214 213 213 
213 215 217 218 209 163 148 137 140 166 183 201 217 217 216 216 
222 224 224 228 223 223 212 207 200 177 145 142 159 175 207 224 
226 221 220 219 218 219 219 221 219 219 220 219 219 218 219 217 
220 221 222 221 221 223 218 220 220 220 220 220 220 217 220 222 
221 221 220 213 214 216 214 215 214 215 213 213 216 214 216 215 214 215 216 213 
214 215 217 215 215 214 216 216 213 215 214 214 212 212 213 214 
213 213 213 214 215 213 215 213 208 181 151 131 127 103 105 117 
126 128 125 120 116 115 131 147 168 172 210 221 221 222 222 221 
221 218 217 218 219 219 218 218 220 220 217 218 218 219 216 216 
217 217 219 219 220 220 220 221 220 219 221 220 220 220 218 219 
221 220 219 214 213 213 215 215 213 215 214 214 213 215 214 215 215 215 215 213 
214 213 215 216 217 218 215 216 217 217 213 214 213 214 213 216 
214 214 214 214 211 213 213 214 216 215 218 217 214 206 199 180 
173 180 181 183 172 148 213 222 221 221 218 217 216 218 216 216 
216 216 217 217 217 217 217 218 218 218 218 216 218 219 218 214 
215 216 220 219 218 219 219 219 219 220 220 220 220 220 219 218 
220 222 220 211 213 213 213 214 212 214 214 211 214 213 215 214 214 213 215 215 
213 214 216 216 216 217 217 217 216 215 214 213 213 212 213 213 
212 211 214 214 216 215 214 212 213 214 214 213 213 214 213 216 
214 215 214 207 201 209 215 215 217 217 215 216 215 213 216 217 
214 215 214 214 216 216 218 219 217 217 216 216 217 217 219 214 
214 218 220 220 216 216 219 219 219 220 220 220 220 220 219 219 
221 220 221 212 212 213 209 213 213 214 214 212 213 212 214 214 214 213 215 217 
215 213 214 217 216 217 217 215 215 218 219 218 215 213 212 211 
213 214 214 214 213 213 214 215 213 214 213 214 212 214 210 212 
212 213 214 217 218 216 214 214 213 214 215 214 214 215 214 214 
213 213 213 212 216 216 215 216 216 218 216 217 218 218 219 216 
214 217 218 218 215 215 218 217 218 219 220 221 219 220 218 221 
221 221 219 211 211 212 212 211 213 214 215 214 213 212 211 214 214 213 213 214 
213 213 216 217 215 218 218 219 219 218 216 216 214 212 212 211 
211 213 213 215 213 213 214 212 213 213 213 214 212 212 214 211 
210 210 212 214 214 213 212 213 213 214 213 213 215 215 214 214 
215 213 214 212 212 214 213 216 214 216 213 217 216 217 216 217 
216 217 218 215 217 215 216 215 218 219 221 220 220 220 220 221 
220 221 219 212 213 215 214 213 213 215 212 213 212 211 213 213 212 210 215 214 
213 213 212 212 212 213 215 217 217 216 214 215 218 214 211 210 
213 215 215 215 214 217 213 211 213 214 214 215 213 212 212 211 
212 213 214 211 210 211 212 214 212 212 210 212 213 212 212 213 
214 212 214 213 214 216 215 214 216 219 216 217 218 217 214 216 
216 217 220 221 219 218 218 215 219 219 220 219 220 220 221 222 
220 220 220 213 214 213 213 211 214 217 221 222 221 221 218 216 218 216 223 220 
221 223 224 224 223 223 222 226 229 230 230 224 222 221 217 213 
212 216 217 220 216 217 218 219 217 215 213 214 218 217 216 218 
213 216 213 215 214 213 213 211 210 209 211 210 210 213 212 212 
209 208 211 211 212 213 212 213 214 214 217 215 215 219 219 218 
219 218 219 220 221 219 222 221 221 222 223 222 221 219 220 223 
222 219 218 