P2
# Created by IrfanView
100 100
255
246 244 243 243 243 242 242 244 244 246 246 246 246 245 245 245 245 
245 245 243 244 243 244 243 245 246 245 246 245 243 245 245 246 
245 245 245 245 247 246 245 246 246 246 245 246 244 243 244 248 
245 246 246 245 244 244 243 244 243 244 243 243 243 244 244 244 
245 245 244 245 245 245 245 246 246 244 245 245 245 245 245 245 
243 245 243 244 247 245 246 245 243 243 242 242 243 243 245 242 
243 243 243 244 244 244 244 244 243 243 243 244 245 246 245 245 246 245 247 244 
245 244 244 243 244 245 243 244 245 245 245 245 245 246 244 244 
245 245 247 246 245 244 245 244 243 246 245 244 244 245 245 245 
245 245 243 245 244 244 244 244 244 244 244 243 243 244 244 244 
245 246 244 245 245 245 245 244 244 245 244 245 244 245 244 245 
243 244 243 244 244 243 244 243 245 244 243 241 243 243 243 242 
244 243 243 245 243 244 243 243 241 242 242 243 244 245 245 244 245 246 245 245 
244 245 244 244 245 244 245 245 243 245 245 245 245 244 246 245 
243 245 244 244 244 246 244 244 244 245 244 243 245 244 245 244 
245 244 245 245 244 244 244 243 244 244 244 244 245 244 243 246 
245 245 246 245 244 244 245 246 245 244 244 242 243 244 243 244 
245 244 244 244 243 244 244 243 244 242 243 243 243 243 243 242 
241 242 242 242 242 244 244 243 242 241 243 244 245 244 245 245 246 245 245 244 
245 246 244 244 243 244 244 244 243 244 244 244 244 244 244 245 
245 244 244 244 244 246 244 244 243 243 244 245 244 243 243 243 
246 244 244 243 241 242 241 244 242 242 242 241 241 244 245 245 
244 244 245 245 244 244 243 244 244 244 247 245 244 244 246 243 
242 243 243 243 241 242 243 243 244 243 242 243 242 243 242 242 
242 242 242 243 243 242 243 242 243 243 244 243 244 243 244 245 244 246 245 245 
245 244 246 246 245 245 245 245 244 246 245 243 243 244 243 245 
243 243 243 243 244 245 242 243 243 243 244 245 244 242 241 243 
242 244 244 246 245 242 243 242 243 241 242 243 243 242 242 241 
243 244 244 244 244 244 244 245 245 245 244 244 244 245 245 243 
243 245 243 242 244 242 242 243 240 242 241 242 241 242 243 242 
242 242 242 243 243 242 242 242 242 243 243 242 243 243 245 244 245 245 243 244 
245 245 243 244 245 245 244 246 244 245 243 243 241 242 243 244 
242 242 242 242 243 244 242 244 244 244 243 242 239 242 239 242 
243 244 245 244 246 244 245 243 243 244 243 242 242 241 241 242 
243 243 243 243 244 243 244 243 244 244 243 244 243 245 246 244 
243 243 243 244 242 243 243 243 242 243 241 241 242 241 243 241 
241 240 241 242 241 242 242 241 241 242 242 242 243 244 245 244 244 244 244 244 
244 244 245 245 244 244 245 245 243 245 242 243 243 242 242 244 
243 242 243 243 245 245 245 243 233 218 208 191 184 177 173 180 
179 180 188 198 203 206 215 233 242 244 244 245 241 241 242 244 
241 243 243 243 243 242 243 242 242 243 244 242 242 243 243 242 
243 244 241 241 242 241 242 243 241 241 241 243 242 241 242 241 
241 241 241 242 243 242 241 242 240 241 243 243 242 243 243 244 244 244 243 243 
245 243 243 242 243 243 244 243 244 243 244 245 243 242 242 244 
243 244 244 240 223 203 192 180 187 202 212 227 234 241 238 237 
241 238 239 237 229 214 197 165 165 180 193 218 238 243 239 242 
243 242 241 243 243 243 244 243 242 242 242 243 243 243 242 242 
242 243 242 242 243 243 242 241 242 242 243 241 241 241 242 241 
241 240 241 242 242 242 242 243 242 242 243 243 243 244 244 243 244 244 243 244 
243 244 243 243 243 243 245 244 244 243 241 241 241 241 244 244 
239 211 185 189 203 229 240 242 246 245 244 244 243 245 243 244 
243 248 246 244 245 245 247 246 241 229 205 153 154 191 230 244 
245 245 243 241 241 242 240 242 243 243 243 242 241 242 243 243 
244 243 243 242 241 243 242 243 241 242 242 242 242 241 241 241 
242 241 241 242 242 241 242 242 243 243 242 242 243 243 243 244 243 242 243 243 
243 243 244 244 243 243 244 243 244 243 240 243 243 243 226 192 
175 200 235 245 244 245 243 242 242 243 241 241 240 241 241 241 
242 243 241 242 244 244 241 243 244 245 246 242 220 203 149 153 
192 233 245 244 244 243 242 242 242 243 242 242 242 242 242 243 
243 243 242 241 241 241 241 242 242 242 241 242 243 241 240 241 
241 238 239 242 242 242 241 242 242 241 241 241 242 243 242 242 243 243 242 245 
241 244 244 242 242 243 244 244 242 242 243 244 226 184 197 226 
243 245 243 243 242 242 241 241 241 240 239 240 240 240 240 241 
241 240 239 243 241 241 242 241 242 241 240 242 242 244 245 219 
194 171 190 239 243 245 242 242 241 241 240 242 242 244 242 243 
242 242 243 243 241 243 242 242 241 242 241 241 242 243 241 241 
241 241 240 243 243 243 241 241 243 241 242 241 241 242 241 241 242 242 242 242 
242 243 245 240 242 244 242 242 243 243 231 189 199 235 243 244 
242 241 240 239 240 239 241 240 238 241 241 241 240 240 240 241 
239 240 241 242 240 241 242 241 241 242 240 240 239 240 242 244 
242 239 205 188 205 237 243 241 240 241 241 242 242 242 243 241 
242 241 242 241 241 241 242 242 241 241 241 240 242 241 240 241 
241 240 240 240 242 242 240 240 238 240 241 242 240 241 241 242 242 242 242 242 
242 242 243 241 241 242 242 243 232 192 200 235 244 243 241 241 
239 241 240 239 239 240 240 241 240 240 241 241 241 241 241 241 
239 241 241 239 241 241 241 240 242 239 237 241 239 239 238 239 
241 242 246 237 206 186 215 238 241 241 241 241 242 241 242 242 
242 241 242 243 241 241 240 241 242 241 242 241 241 240 241 240 
242 240 240 241 240 241 241 242 241 242 241 241 241 240 239 241 241 242 239 240 
241 240 240 240 240 242 243 219 187 225 241 243 242 241 241 242 
242 240 241 239 241 241 240 240 239 240 241 240 240 240 239 239 
242 240 241 240 239 240 241 241 239 242 240 239 240 239 239 239 
239 240 242 240 245 231 183 183 224 241 242 242 241 242 243 242 
240 242 241 241 240 242 242 241 242 242 241 238 240 240 241 240 
239 240 240 242 242 241 239 241 241 240 240 239 241 240 240 240 241 240 240 237 
238 237 236 237 239 239 204 211 239 242 241 239 241 240 240 240 
241 241 240 239 239 239 241 240 241 240 240 241 239 239 238 239 
237 239 239 240 239 240 240 241 241 241 241 240 241 240 240 240 
239 240 241 239 241 241 240 206 172 208 241 243 241 241 240 241 
243 241 240 240 239 241 241 243 242 240 241 241 240 239 239 240 
239 239 240 241 242 241 240 240 238 238 240 240 240 239 239 239 240 237 237 236 
237 237 234 235 225 197 233 242 242 240 239 239 240 241 240 240 
240 240 239 240 240 239 239 239 239 239 239 241 241 240 241 240 
239 240 240 239 240 240 240 240 240 240 240 241 240 239 240 240 
240 240 240 239 240 240 240 241 234 178 192 234 242 241 241 239 
241 240 242 241 241 240 240 241 241 241 240 240 241 240 240 239 
240 241 241 241 241 241 240 238 239 240 238 239 239 238 238 237 239 238 237 236 
236 235 234 222 200 239 242 241 240 240 240 240 240 240 239 239 
241 240 238 240 239 239 240 239 240 241 239 239 240 240 239 239 
240 238 239 238 239 238 239 239 239 240 239 241 239 239 239 239 
238 239 240 238 240 240 237 241 241 238 208 185 235 244 241 241 
240 240 239 241 240 241 239 242 240 240 243 240 239 242 240 240 
241 239 240 240 240 240 238 239 240 240 239 237 238 239 238 236 238 238 237 237 
234 234 210 211 239 239 239 240 238 239 239 237 239 239 239 238 
238 239 240 240 239 239 240 239 239 240 238 238 238 240 239 239 
238 240 240 238 238 238 239 240 240 240 239 239 240 240 239 240 
239 238 238 238 240 239 238 238 239 241 243 211 178 214 243 239 
239 239 240 240 241 239 239 240 240 240 240 240 240 239 239 239 
241 240 240 238 240 239 239 239 240 239 237 239 238 238 239 238 238 237 236 237 
239 206 216 240 237 237 238 238 239 238 241 240 238 239 240 240 
238 239 238 240 238 239 238 239 238 238 238 239 239 237 239 239 
239 239 238 239 239 241 240 238 238 239 239 238 240 239 239 238 
239 239 240 238 240 240 240 239 238 239 240 243 229 171 227 243 
240 237 239 239 240 241 239 240 238 239 241 240 238 238 242 241 
240 239 239 240 241 239 239 239 240 240 239 237 239 238 237 237 236 236 235 234 
220 225 238 237 235 237 239 239 237 238 238 239 240 240 239 239 
239 237 238 238 238 239 238 239 240 239 239 239 239 239 239 238 
238 239 238 238 239 239 237 239 239 238 239 239 237 238 239 241 
240 238 239 239 239 238 238 238 238 239 239 239 241 228 179 224 
241 241 240 239 240 239 239 239 238 239 239 240 238 241 239 239 
239 238 240 239 239 239 238 238 239 239 238 237 236 239 236 237 236 234 237 217 
220 239 237 234 236 236 237 239 239 237 239 239 238 238 239 239 
237 239 237 238 238 238 239 238 238 239 239 237 237 239 238 238 
238 238 238 237 238 239 239 240 240 239 238 238 237 239 239 239 
238 239 239 240 237 238 237 237 238 239 239 238 235 240 227 181 
219 240 238 239 238 239 239 239 239 239 237 239 240 237 239 238 
239 239 240 240 240 239 237 238 238 237 238 238 235 235 238 236 236 237 224 221 
237 238 237 238 234 239 237 238 237 238 238 238 238 236 239 238 
237 237 237 237 237 237 238 237 238 238 238 239 238 238 237 238 
237 237 237 237 238 238 237 238 238 237 238 240 239 239 238 238 
241 239 237 239 240 238 239 239 237 239 236 236 237 239 243 226 
180 217 240 239 238 238 239 237 237 240 238 239 239 239 240 240 
240 239 238 241 239 238 238 237 237 237 238 237 234 236 236 235 234 227 211 239 
238 237 235 236 236 237 236 237 237 238 237 238 238 238 239 236 
237 237 238 238 238 238 236 238 237 237 237 238 236 237 236 237 
237 238 237 240 236 237 236 239 237 239 236 238 240 239 238 238 
239 240 239 239 239 237 237 237 238 240 238 237 237 236 238 237 
224 185 231 238 237 237 237 238 238 238 238 237 239 237 238 238 
237 237 238 240 241 239 239 239 238 236 237 236 235 235 236 236 229 202 237 237 
236 240 237 235 235 236 236 236 237 238 237 237 238 237 238 238 
236 236 237 237 238 238 239 237 238 236 238 237 237 237 238 238 
237 237 238 235 237 237 238 238 239 237 240 237 238 237 239 239 
239 238 238 238 238 238 237 236 238 237 237 236 237 237 238 236 
239 201 185 234 236 237 237 237 236 238 238 237 236 239 237 238 
239 238 239 238 240 238 237 239 236 238 238 236 235 234 235 233 198 232 236 236 
235 236 235 237 235 236 237 236 236 235 235 237 236 236 234 237 
235 235 234 237 238 237 239 238 236 236 236 236 238 238 237 237 
236 237 238 238 238 237 237 237 237 238 236 238 237 238 237 237 
238 238 238 238 238 238 238 239 237 238 238 237 236 239 237 235 
235 237 183 202 240 236 238 236 238 238 237 237 237 237 239 238 
240 238 237 238 239 238 236 237 235 236 236 236 235 232 236 206 213 237 236 234 
235 237 235 235 236 236 235 237 235 236 235 236 236 237 236 237 
236 236 236 236 236 235 235 236 235 237 238 237 237 237 237 237 
236 237 237 237 236 237 239 237 239 237 238 237 238 237 237 239 
236 237 237 237 236 238 237 237 238 237 237 236 237 238 238 237 
235 234 233 177 228 237 235 236 237 236 237 238 237 236 236 236 
236 237 238 237 236 238 238 235 236 235 236 234 236 235 229 192 239 235 237 236 
235 236 236 234 234 234 235 235 235 235 235 235 237 236 236 235 
235 236 236 235 236 237 236 235 236 237 235 237 236 236 236 237 
237 237 236 236 238 236 236 237 238 237 236 238 237 237 238 237 
238 237 235 235 238 236 237 236 236 235 237 238 236 236 237 235 
232 234 238 217 176 237 235 235 236 236 238 236 238 235 237 236 
238 237 236 236 238 236 235 235 237 237 235 235 234 235 186 234 236 235 232 235 
235 235 237 235 235 236 235 235 234 237 236 235 235 234 235 234 
235 235 234 235 236 236 238 236 235 237 236 235 235 235 237 237 
237 236 236 235 236 236 236 236 237 237 236 235 236 235 236 235 
237 236 237 239 236 237 237 236 236 237 236 236 237 237 238 236 
234 235 236 240 182 200 237 233 234 235 235 237 235 237 236 237 
236 237 236 237 236 235 236 235 235 235 235 234 235 211 200 238 234 235 237 233 
236 235 235 234 234 236 234 235 233 220 239 237 236 237 236 235 
235 233 235 236 234 234 236 237 236 237 235 235 236 238 235 234 
234 235 235 234 235 235 235 234 235 236 235 236 236 235 236 235 
236 235 236 235 236 237 237 237 237 236 237 235 237 236 237 234 
233 236 236 234 230 154 227 233 235 234 236 237 237 235 234 235 
236 235 236 234 235 235 237 235 234 234 234 235 234 185 238 235 234 235 238 237 
235 235 234 236 235 234 234 233 234 184 209 238 238 236 233 234 
234 233 233 235 234 234 235 234 236 236 236 234 235 234 234 236 
235 235 236 236 235 235 236 237 236 236 235 235 235 235 237 238 
235 234 236 238 236 239 237 236 236 237 236 236 235 237 236 235 
233 236 235 234 236 198 181 235 234 235 234 235 234 235 237 236 
238 235 235 237 236 238 235 235 235 235 232 232 158 198 237 235 234 236 236 234 
233 235 235 235 235 234 234 234 233 237 189 186 220 235 237 237 
235 233 234 233 233 234 235 234 235 236 237 235 235 235 234 234 
234 234 234 233 234 234 234 234 235 234 234 233 234 235 236 235 
237 236 235 236 230 214 225 236 234 234 236 235 237 235 237 236 
234 234 236 235 233 236 150 218 234 234 234 234 234 236 236 234 
235 236 235 235 234 235 238 235 234 234 234 217 124 235 235 235 236 235 235 234 
234 234 234 235 235 233 233 232 233 233 236 224 182 163 209 233 
235 235 235 233 234 233 234 234 235 236 234 234 235 235 236 234 
234 234 234 234 235 235 234 233 233 236 233 234 234 233 234 235 
235 236 232 200 193 198 223 234 235 235 236 236 235 235 236 236 
235 236 234 234 232 235 200 169 237 233 235 234 235 236 234 236 
236 236 236 234 235 234 236 236 234 234 233 170 189 238 234 234 234 235 234 234 
234 234 233 233 234 233 233 234 234 232 234 237 240 226 193 166 
186 224 235 235 233 234 233 235 234 234 236 234 233 234 233 234 
234 234 232 234 234 234 234 234 232 234 232 233 232 232 235 235 
230 213 186 205 234 240 237 235 234 234 235 235 235 235 237 236 
234 234 235 236 232 233 237 152 215 232 234 235 235 234 235 235 
235 236 234 235 234 236 237 235 234 234 236 161 238 234 234 235 235 234 234 234 
233 236 235 235 234 235 234 235 234 234 232 231 235 235 235 237 
204 173 181 225 234 233 236 234 234 234 233 234 234 234 234 234 
234 233 233 233 233 233 233 232 231 233 233 232 231 231 237 227 
183 191 228 236 238 236 235 234 233 234 235 235 236 234 238 236 
236 236 235 233 233 232 234 203 173 237 233 234 232 232 234 236 
235 235 235 235 235 234 233 235 234 233 222 167 236 234 234 234 234 235 234 235 
235 235 234 234 234 233 233 234 234 232 234 233 236 235 233 233 
237 233 217 179 195 225 233 237 235 234 234 234 233 233 234 234 
234 233 232 233 233 234 235 231 231 232 233 230 237 231 207 182 
210 231 234 235 235 235 234 234 235 236 235 235 234 235 236 236 
236 236 235 234 233 231 232 225 159 229 234 233 233 232 234 234 
234 235 235 235 236 235 238 234 234 234 188 208 234 235 235 235 235 234 234 235 
234 235 235 234 233 233 233 234 234 234 235 234 235 234 233 234 
233 234 234 231 216 174 175 221 235 233 234 234 233 236 234 231 
233 232 232 233 233 233 234 233 231 232 234 232 222 189 191 226 
235 234 234 234 233 232 233 234 236 233 235 235 234 234 235 236 
235 234 235 236 233 233 231 232 161 198 234 233 233 233 233 235 
235 234 234 235 235 234 235 234 234 234 170 235 234 234 234 235 233 234 235 234 
235 234 232 234 233 234 234 234 234 234 234 235 234 236 235 233 
231 234 232 233 234 231 164 138 233 233 232 233 233 232 233 234 
233 233 233 232 233 234 233 231 229 231 230 202 171 206 232 235 
236 234 235 235 234 235 234 233 233 234 234 234 236 234 235 235 
235 234 235 234 233 233 233 232 220 169 233 234 232 233 234 233 
233 235 234 233 234 235 234 233 234 233 165 236 234 234 233 235 235 235 234 234 
236 235 234 235 235 234 233 234 234 234 234 234 234 234 234 234 
233 232 232 234 224 194 126 166 234 232 232 233 232 233 232 233 
233 232 232 232 230 232 233 233 232 221 173 183 220 231 233 233 
233 234 234 232 232 233 234 234 232 232 234 233 235 234 234 235 
234 234 234 234 234 232 232 231 231 170 229 233 234 233 234 233 
235 235 234 234 233 234 235 233 235 219 185 236 234 234 234 233 233 233 235 234 
233 234 235 231 232 233 234 234 233 234 234 232 234 235 234 234 
234 234 235 216 158 138 207 229 233 232 234 233 233 232 231 233 
233 231 234 234 232 231 232 231 206 128 185 229 234 234 233 234 
234 233 233 234 235 234 233 234 234 233 233 234 234 233 233 232 
234 233 233 233 234 232 231 231 234 172 217 234 233 233 233 234 
233 233 234 233 234 231 233 232 232 172 219 234 234 233 234 234 235 235 235 234 
234 235 234 235 232 233 233 233 234 234 234 235 235 234 233 234 
236 232 203 151 165 221 231 233 233 233 234 233 233 233 233 233 
233 232 233 233 232 231 231 230 234 189 124 199 233 233 236 233 
233 232 233 234 232 233 234 233 233 233 234 234 234 235 234 234 
233 233 233 233 234 231 232 233 231 202 175 236 233 233 233 234 
234 234 233 233 234 234 234 233 234 165 236 234 233 234 234 234 234 234 234 235 
234 232 233 232 232 233 234 233 233 232 232 233 235 233 234 236 
201 175 144 203 229 235 234 232 234 232 234 231 232 232 232 232 
233 233 231 232 233 231 232 232 231 238 225 144 151 224 234 233 
231 232 233 233 233 233 234 234 233 234 234 232 233 233 234 235 
233 234 232 232 234 233 232 233 231 222 163 231 234 232 232 233 
232 232 234 232 233 234 234 233 232 171 237 233 233 234 234 234 234 233 236 235 
234 233 233 233 231 234 233 233 233 232 234 234 233 236 231 189 
142 182 225 230 233 233 233 233 233 233 233 234 231 233 232 231 
231 233 233 232 232 232 232 232 231 234 237 233 179 114 179 238 
235 234 232 234 233 233 234 233 232 234 233 234 234 233 233 234 
233 233 233 233 233 233 232 233 230 229 164 224 234 234 233 233 
233 233 234 233 233 234 234 233 231 162 231 233 234 233 232 233 232 234 234 234 
234 234 233 233 232 232 233 233 232 232 231 233 233 221 151 152 
209 227 232 231 232 233 232 232 232 232 232 234 232 231 231 233 
232 233 231 232 232 232 232 233 231 233 234 233 238 217 129 157 
223 236 234 233 233 233 233 233 233 234 234 233 232 237 235 232 
233 233 232 232 232 232 232 232 230 232 180 210 233 233 234 234 
233 234 233 232 232 232 233 234 226 177 236 234 234 233 235 234 234 234 233 233 
233 233 231 233 233 232 232 231 232 232 231 231 221 145 178 225 
232 233 231 231 232 233 233 233 233 233 232 233 232 232 233 232 
233 232 233 232 233 232 232 233 233 233 233 232 234 237 235 176 
121 223 237 232 232 233 233 234 234 232 233 232 232 234 233 234 
232 232 233 233 231 231 232 233 230 230 200 188 231 233 234 231 
234 233 233 232 231 232 232 232 211 190 236 233 233 233 233 233 232 233 233 233 
234 232 232 232 233 233 233 233 233 231 233 230 228 202 227 234 
232 232 233 233 232 232 233 233 235 234 233 230 233 232 233 232 
232 232 232 232 232 233 232 233 234 233 232 232 231 232 234 241 
201 120 187 234 235 232 232 232 233 235 234 235 233 232 233 234 
233 232 233 233 231 232 232 231 229 231 208 169 234 232 233 233 
234 233 233 231 233 231 233 233 198 204 233 232 232 234 233 235 235 233 233 233 
232 232 232 233 233 233 233 233 233 233 232 232 232 235 235 233 
232 232 232 232 232 234 232 232 233 232 232 232 231 232 232 232 
232 233 232 233 232 234 232 233 234 233 233 234 233 232 231 235 
238 216 125 180 233 238 234 233 234 234 233 233 232 233 233 233 
233 234 233 232 233 231 231 233 231 228 215 161 234 232 233 233 
232 231 233 233 233 231 232 230 194 210 234 233 234 231 230 232 233 233 233 234 
234 234 232 231 231 232 232 233 231 232 232 232 232 232 231 233 
231 233 233 231 232 232 231 232 233 233 230 233 231 230 232 231 
232 232 233 232 232 232 234 232 234 233 233 233 232 233 231 233 
233 235 221 139 112 192 233 233 232 233 232 234 234 233 234 232 
233 234 234 233 231 231 233 233 231 229 224 156 229 233 233 233 
233 234 232 231 230 230 232 231 188 206 234 233 232 235 234 233 235 234 234 233 
233 233 233 234 233 231 233 231 232 232 231 231 232 232 232 231 
232 232 233 233 233 232 232 233 233 232 232 232 233 233 232 231 
232 232 232 233 232 231 232 234 233 232 232 232 232 232 232 233 
232 231 234 233 178 126 223 234 234 233 233 234 233 233 233 233 
233 232 232 232 232 232 232 231 230 229 228 156 226 232 233 232 
233 231 232 230 232 230 233 231 176 218 233 233 232 234 232 233 231 233 233 231 
233 235 232 232 232 232 233 232 233 232 232 231 232 232 230 232 
229 232 231 232 233 232 232 231 233 233 231 231 231 232 232 232 
232 233 233 232 233 232 232 229 232 233 232 232 233 232 232 233 
232 229 231 234 235 227 228 233 232 233 232 233 232 234 234 232 
232 233 232 233 231 232 232 231 231 230 229 154 223 233 233 233 
232 232 231 232 232 231 232 233 173 221 235 234 232 233 231 232 232 232 232 233 
233 231 231 232 231 232 231 233 230 231 233 233 231 233 233 233 
232 232 232 233 232 232 231 231 231 230 232 232 232 231 231 231 
232 232 232 231 231 232 232 233 232 232 233 233 231 232 231 232 
232 233 230 229 232 233 233 233 232 233 233 232 232 231 236 233 
232 233 231 231 233 233 233 231 230 230 227 160 219 231 233 232 
231 233 231 232 232 232 233 233 182 217 231 233 232 231 232 232 232 232 233 233 
232 232 232 233 233 232 231 232 233 232 231 232 232 232 232 232 
233 231 233 231 232 232 232 232 231 232 232 232 232 231 231 232 
232 232 233 231 232 232 230 232 232 233 232 230 231 232 232 232 
231 230 233 232 231 231 231 233 233 233 232 232 234 232 232 234 
232 231 231 232 232 234 232 231 229 230 231 151 226 230 231 231 
232 230 231 231 231 230 231 233 188 219 233 232 231 231 231 232 230 232 232 233 
231 232 232 233 233 233 232 231 231 232 233 232 233 233 231 230 
231 232 231 232 232 231 231 232 233 231 230 231 232 231 231 231 
231 231 233 232 231 232 232 232 232 233 232 233 232 232 233 232 
232 229 231 231 230 231 232 229 232 233 232 231 232 232 233 232 
230 232 232 230 232 230 231 230 228 229 233 151 227 231 232 232 
231 230 229 231 230 231 231 232 189 212 232 232 234 232 232 231 231 231 232 231 
232 232 232 232 232 232 232 232 231 232 232 231 233 231 231 232 
233 232 232 232 233 232 232 230 231 231 232 231 231 231 232 232 
231 231 231 232 232 232 232 231 232 231 232 231 232 231 234 231 
230 232 231 231 230 231 231 232 231 230 232 232 233 231 232 233 
233 231 232 231 231 232 231 232 229 230 231 152 228 231 229 231 
230 233 230 231 233 232 233 233 200 200 234 232 232 232 231 231 232 232 232 231 
231 231 231 231 231 232 231 231 233 232 231 232 234 232 232 232 
231 230 232 233 231 229 232 230 232 231 232 232 232 231 230 230 
230 230 229 232 231 232 232 232 233 232 230 230 232 232 232 232 
230 232 231 231 231 232 232 231 232 233 232 231 231 232 232 232 
232 229 231 232 231 230 231 230 228 226 224 148 226 230 231 229 
230 230 231 232 232 230 232 232 212 194 232 232 231 232 232 232 232 231 233 233 
232 231 232 232 232 232 232 232 231 232 232 233 233 233 231 232 
232 232 232 230 232 232 232 233 232 232 232 230 230 229 231 229 
230 230 232 231 232 231 232 232 232 232 232 231 232 232 230 231 
231 231 231 229 229 231 232 230 230 232 230 232 231 232 231 233 
232 231 230 231 230 229 229 230 230 230 226 145 228 229 230 230 
229 229 230 231 231 231 234 231 228 179 233 231 231 231 230 231 231 231 232 232 
232 232 232 231 233 232 232 232 234 232 231 230 232 233 232 232 
232 231 231 231 233 232 232 227 230 231 231 233 232 231 231 232 
232 232 232 232 231 231 231 231 231 230 231 232 232 231 231 231 
229 231 231 232 230 231 230 231 231 230 230 231 231 231 232 230 
232 232 230 230 230 228 231 230 228 230 217 169 227 229 229 229 
229 227 227 229 231 231 232 232 224 160 233 232 229 231 230 231 231 231 231 232 
231 232 232 231 231 232 231 230 230 231 231 233 231 232 232 232 
231 231 232 232 232 232 231 232 231 230 232 232 230 230 231 230 
230 230 231 232 232 231 231 231 231 231 231 231 231 231 232 231 
231 232 231 230 230 231 230 231 231 231 229 231 230 230 231 231 
230 231 231 232 232 228 229 227 232 229 212 164 228 229 227 229 
229 229 229 231 230 230 231 231 232 153 233 231 232 231 231 230 231 231 232 231 
231 230 232 232 232 232 232 233 232 232 232 232 232 230 231 231 
232 232 230 231 231 232 229 231 229 230 231 232 230 230 229 230 
230 230 231 230 231 231 232 231 230 230 231 231 231 231 231 231 
229 230 229 229 229 229 231 229 230 231 230 231 231 231 230 231 
230 229 231 231 230 230 229 230 227 226 175 191 225 229 229 230 
230 229 229 231 231 232 228 229 232 164 228 232 231 230 230 230 232 231 231 231 
232 232 231 232 231 231 230 230 231 232 232 231 233 233 232 232 
231 232 230 231 229 231 228 230 231 229 230 230 229 230 230 230 
230 230 231 230 231 231 231 232 231 229 231 232 231 231 231 231 
231 230 230 230 231 230 230 230 230 230 232 230 230 231 230 230 
232 231 231 231 232 233 229 228 228 227 155 211 230 228 229 227 
230 227 229 229 230 230 229 230 231 181 205 233 232 233 231 232 233 231 232 233 
232 230 232 233 231 231 232 232 232 232 233 231 232 230 231 231 
231 231 230 230 231 231 230 232 229 230 230 231 228 229 228 229 
231 229 229 231 230 230 232 232 231 231 229 230 233 231 231 231 
231 230 230 228 230 231 230 231 230 229 231 231 230 230 230 231 
231 228 230 231 231 233 230 228 230 229 156 226 228 231 230 230 
228 227 228 230 230 230 228 231 230 217 187 231 233 232 231 231 231 231 232 232 
230 232 232 232 232 231 231 231 232 232 231 231 230 231 231 232 
231 233 228 229 230 228 231 229 228 230 230 229 228 231 233 232 
232 231 229 229 230 231 231 231 230 231 233 231 230 231 230 230 
231 230 231 231 230 230 229 231 229 231 231 231 230 231 231 232 
231 232 230 230 233 233 229 229 230 220 172 229 231 229 231 229 
228 227 229 229 230 229 229 227 226 232 159 234 232 232 232 232 231 231 232 231 
231 232 232 232 231 233 232 232 231 231 232 232 231 230 231 233 
232 231 229 231 231 229 229 228 227 231 231 230 223 214 196 203 
214 233 233 231 230 231 231 231 232 232 232 231 230 230 231 230 
230 231 229 229 229 229 232 229 231 230 230 230 230 230 230 229 
230 232 230 229 232 233 229 230 227 205 195 229 228 228 229 228 
229 229 226 229 229 229 229 230 229 232 163 230 231 230 232 229 231 233 232 232 
232 232 232 231 232 231 231 232 232 232 231 230 231 232 231 232 
232 231 230 231 231 229 230 228 229 224 207 184 177 185 203 199 
146 190 227 232 229 229 232 231 231 232 233 231 231 232 230 231 
230 231 230 232 231 229 229 231 231 230 230 231 230 229 232 231 
230 232 229 229 231 230 232 232 229 170 217 230 229 228 230 228 
227 227 230 230 230 229 229 229 230 232 194 201 231 232 232 230 232 231 232 233 
232 232 232 232 232 232 232 231 232 231 231 231 232 233 232 231 
232 231 231 232 231 229 230 230 214 163 191 221 227 228 230 231 
219 160 165 221 231 230 230 231 230 231 231 231 231 230 230 232 
229 231 231 230 230 231 230 229 230 231 230 231 231 230 232 231 
231 232 229 229 231 229 230 230 229 162 226 230 229 229 229 228 
229 230 227 229 229 231 229 231 232 233 230 171 235 232 233 232 232 232 231 231 
232 232 232 232 231 233 232 232 232 231 231 232 230 232 232 231 
232 227 229 231 231 231 229 226 153 211 228 230 228 228 227 229 
233 216 210 174 231 232 230 230 232 231 230 231 230 231 232 228 
230 230 230 230 231 230 230 231 230 230 230 230 230 229 231 231 
231 230 232 231 228 228 228 226 214 163 230 228 228 227 227 228 
229 230 230 231 231 230 230 232 232 230 234 160 231 227 231 231 230 231 232 232 
232 232 232 232 232 230 230 232 233 233 231 231 232 232 232 231 
231 231 231 232 230 231 233 189 174 201 233 231 228 227 230 228 
227 230 229 197 172 231 229 228 228 229 229 231 230 230 230 232 
232 230 230 229 229 229 229 231 233 231 230 230 230 230 229 230 
231 231 231 229 229 227 226 228 177 198 229 229 229 227 229 228 
227 229 228 230 229 232 228 232 232 232 231 211 193 231 230 231 232 231 232 232 
232 231 232 231 230 232 232 232 232 231 230 231 232 231 232 229 
230 229 230 231 231 229 213 170 228 150 195 230 231 230 233 231 
228 230 227 226 113 201 231 231 230 230 230 229 231 231 230 230 
229 230 230 230 230 229 229 230 228 231 230 229 232 230 230 230 
232 231 230 229 228 227 225 222 153 222 230 227 228 229 229 228 
229 228 227 229 230 231 231 232 233 233 232 233 159 237 232 233 232 232 232 232 
232 231 232 232 233 232 232 232 231 232 232 231 231 231 231 232 
230 230 230 231 230 227 185 219 231 230 155 145 218 227 226 231 
232 232 228 193 140 156 230 229 231 230 230 229 229 231 232 232 
230 229 230 230 230 229 230 230 230 228 232 229 229 231 231 231 
231 230 228 229 228 225 224 203 174 226 227 227 227 228 228 229 
229 229 228 231 232 230 231 230 231 232 232 230 189 199 234 232 232 232 231 231 
231 231 230 231 232 231 232 232 231 232 232 231 232 231 231 231 
230 230 229 231 231 230 174 228 229 233 228 178 135 145 156 176 
173 179 151 135 196 178 209 231 230 230 230 230 229 230 230 231 
232 230 231 229 230 231 229 228 230 230 231 231 231 229 231 228 
229 229 229 228 229 227 226 157 216 229 227 228 230 229 225 229 
229 228 229 230 229 228 230 231 229 231 233 232 233 171 232 231 231 232 233 232 
231 233 232 232 233 233 230 230 231 231 230 230 229 231 231 230 
229 229 229 229 231 228 183 230 225 232 232 230 226 200 178 155 
150 154 170 213 231 215 170 230 229 231 229 229 230 229 228 229 
227 231 229 231 231 230 229 230 229 230 229 229 230 230 230 232 
231 229 228 228 229 226 201 157 226 229 228 226 226 226 230 228 
228 229 226 231 230 231 231 230 231 231 231 228 229 193 209 230 231 232 230 231 
232 231 232 232 231 233 232 231 231 231 228 230 231 231 230 230 
230 230 230 230 228 220 186 229 229 230 231 232 232 230 231 229 
226 230 230 230 231 218 179 230 230 230 229 229 230 230 227 230 
230 230 229 228 228 229 230 229 230 229 230 229 229 231 231 231 
231 229 229 228 227 227 154 213 229 227 229 228 227 227 227 228 
227 227 228 232 231 231 230 230 230 230 229 229 228 235 171 234 231 231 231 232 
231 231 233 232 230 233 232 230 231 231 231 231 231 232 231 231 
230 229 228 230 230 222 184 227 226 228 229 232 229 229 227 227 
229 228 228 225 229 169 195 231 229 229 228 229 228 230 231 230 
230 230 229 229 230 230 229 229 229 229 230 230 230 231 231 230 
230 228 228 228 227 200 177 230 226 227 225 227 228 227 228 228 
228 227 227 229 230 229 231 230 231 230 230 228 230 228 197 196 232 230 231 232 
231 231 232 231 232 232 232 232 230 229 229 230 231 231 231 230 
230 230 230 230 231 227 178 230 227 230 231 233 231 230 230 228 
228 224 225 224 227 163 222 229 228 229 229 229 230 229 229 228 
229 230 230 229 229 229 229 230 230 229 229 229 230 229 230 231 
229 231 225 224 224 155 218 227 227 228 228 226 227 226 227 228 
227 228 229 230 230 231 230 232 229 228 229 229 228 227 227 173 224 230 231 233 
232 231 231 232 230 231 231 231 230 231 230 230 230 231 231 230 
231 229 230 228 230 231 182 222 230 223 198 170 194 208 229 232 
231 226 226 226 188 181 230 228 229 229 231 230 230 229 229 229 
230 229 229 229 229 230 230 230 229 230 230 227 227 230 230 230 
229 229 224 227 176 195 227 226 226 226 226 228 227 226 226 227 
224 225 225 232 232 230 229 230 232 230 230 229 229 228 229 219 169 232 231 231 
230 229 229 231 231 230 231 231 232 230 233 232 232 232 231 231 
230 232 230 231 230 228 210 196 190 97 99 111 115 119 125 173 
233 228 231 213 148 218 228 228 227 230 229 228 229 228 228 229 
229 229 228 229 229 228 229 229 230 230 231 229 231 230 229 228 
229 228 229 191 156 228 226 228 229 229 227 225 225 226 226 226 
227 226 225 230 230 229 231 231 231 230 231 232 230 228 227 229 184 209 234 230 
230 230 230 232 231 229 230 230 228 231 229 231 231 230 232 231 
230 231 231 230 232 230 233 167 125 155 201 218 219 206 167 116 
157 230 215 159 188 227 228 229 228 228 228 228 227 230 228 229 
229 230 229 229 227 228 229 230 229 229 229 230 229 229 229 227 
228 227 223 167 218 227 227 224 226 227 229 230 227 225 225 224 
225 223 225 231 231 231 231 231 232 229 229 231 230 227 224 227 227 163 228 233 
228 231 229 230 230 229 228 228 232 230 231 232 231 230 232 231 
231 232 230 232 231 230 232 220 136 206 227 226 232 234 231 221 
126 169 157 181 225 230 229 229 229 229 229 228 228 228 228 229 
227 228 227 229 230 229 228 230 229 231 229 229 231 230 231 227 
227 226 193 185 228 227 227 227 227 228 226 228 225 225 225 224 
223 225 225 232 231 230 231 231 231 233 234 230 230 229 227 228 231 222 156 229 
231 229 231 229 231 230 231 231 226 227 229 231 231 231 230 232 
231 230 231 231 231 231 230 232 204 146 187 200 219 211 193 171 
140 131 174 223 229 228 229 227 228 228 228 228 228 228 228 229 
228 230 230 228 229 230 229 228 228 229 227 226 228 229 231 228 
230 204 177 221 228 226 226 226 225 226 228 226 225 226 224 225 
225 226 225 228 230 230 230 231 233 231 232 229 228 227 228 229 228 232 195 174 
232 227 229 229 229 227 229 228 228 228 229 231 231 230 231 230 
229 234 231 231 228 230 228 231 234 211 155 130 123 140 136 134 
170 198 232 230 229 228 229 229 228 229 229 227 228 228 228 228 
228 229 228 227 229 226 228 228 229 228 228 226 229 226 232 228 
211 171 222 230 227 224 226 225 226 227 225 226 226 225 224 223 
227 226 227 231 230 232 229 231 231 231 232 228 227 226 228 230 228 228 232 180 
182 233 230 229 228 228 229 229 229 229 230 230 230 230 232 232 
232 230 229 227 228 230 229 227 228 232 228 222 182 172 200 213 
230 231 231 228 228 228 228 229 228 228 229 227 228 227 226 227 
228 228 228 226 228 228 228 229 226 226 225 224 227 226 230 210 
178 212 229 228 226 228 228 228 226 227 226 225 223 226 225 225 
225 227 228 231 231 230 230 231 232 231 231 229 230 228 229 229 228 228 230 230 
173 204 231 231 229 228 228 229 226 229 231 230 232 232 230 231 
230 233 229 229 229 228 230 227 228 229 229 230 231 232 229 231 
231 230 229 229 227 229 228 228 228 228 226 228 227 229 227 226 
226 226 226 227 229 226 225 226 226 226 227 226 228 227 207 168 
201 229 227 226 226 225 226 225 225 225 226 225 224 226 226 223 
224 225 225 230 229 231 231 231 229 230 231 230 229 230 229 226 229 227 226 227 
231 170 189 233 230 228 230 229 229 229 229 231 229 229 230 230 
230 231 230 230 230 230 228 228 227 229 226 228 227 229 230 228 
228 227 227 228 230 229 229 227 231 229 228 227 228 228 228 227 
229 227 227 227 224 226 227 228 226 228 228 227 226 199 171 202 
231 229 224 225 226 226 227 228 224 224 225 223 226 224 226 226 
222 224 225 230 231 228 229 230 230 230 229 231 230 229 231 230 228 228 228 229 
229 231 160 181 233 229 230 229 229 230 230 229 231 229 229 230 
231 232 230 229 228 228 230 230 230 230 227 227 228 228 228 229 
229 228 228 228 229 226 228 230 227 230 227 228 229 228 227 227 
226 226 225 226 225 226 226 226 228 226 228 225 200 158 209 231 
227 224 225 224 225 225 227 225 226 225 225 225 225 222 225 225 
225 224 224 230 229 231 231 230 229 229 229 229 232 227 229 229 229 229 228 229 
228 227 229 162 186 233 227 228 228 228 228 229 229 230 230 230 
229 231 231 231 230 228 231 231 229 228 228 227 229 229 229 228 
228 228 229 227 228 228 227 227 229 228 228 227 231 228 225 225 
225 226 224 224 224 225 225 225 227 227 220 183 165 210 227 227 
227 226 225 226 225 224 226 225 224 226 229 225 224 223 225 224 
223 224 222 230 231 228 228 228 230 228 229 229 228 229 230 229 229 228 228 226 
227 228 228 229 174 180 230 231 230 229 228 228 230 231 229 229 
229 229 231 229 230 228 231 231 229 228 227 228 228 228 231 229 
229 228 228 229 226 229 228 229 229 232 228 228 229 228 226 226 
225 226 225 226 224 221 224 226 232 218 199 174 216 231 226 225 
227 226 225 224 226 225 228 225 225 224 225 224 224 223 224 225 
223 222 223 230 229 229 230 229 228 230 228 229 230 230 229 230 226 228 227 228 
229 228 227 230 231 199 158 227 232 230 229 228 228 229 228 229 
229 228 229 229 229 229 231 230 230 229 229 227 227 228 227 229 
229 228 227 228 228 229 227 227 228 228 227 228 229 228 225 226 
227 226 228 228 226 228 229 229 205 164 188 212 227 226 225 226 
225 225 224 225 226 227 230 225 226 227 226 223 223 223 223 225 
224 224 224 229 229 229 228 229 229 231 229 227 230 229 228 229 229 227 229 229 
230 230 227 227 227 230 216 157 198 231 229 229 229 228 228 228 
229 228 228 227 227 228 229 230 229 229 230 231 227 230 228 227 
226 226 227 226 226 226 225 226 228 228 227 226 227 226 225 226 
224 226 227 226 228 229 215 175 164 182 222 225 228 228 226 225 
225 227 225 224 224 223 222 224 224 226 227 223 226 225 224 225 
224 222 223 230 228 228 229 229 228 229 227 229 229 228 228 228 228 227 228 226 
229 229 225 227 226 224 230 227 173 165 223 232 229 229 228 228 
228 228 228 228 228 228 227 227 229 229 230 228 228 229 227 227 
227 227 229 227 227 225 227 226 227 228 227 229 226 225 224 226 
226 227 228 225 219 185 158 167 215 228 227 227 225 226 227 225 
229 229 227 226 223 225 225 224 226 225 226 223 224 225 223 223 
225 224 225 226 229 229 229 228 228 227 228 227 227 229 227 227 227 229 227 227 
229 228 227 226 227 228 227 228 230 214 163 184 228 233 229 230 
227 227 226 228 227 228 227 227 228 229 230 228 227 226 226 226 
227 226 225 225 226 226 226 229 228 226 225 225 224 227 224 225 
228 230 224 204 172 170 205 223 227 228 228 225 226 228 226 226 
228 228 226 225 227 225 226 223 222 225 222 225 223 223 225 224 
224 225 224 229 228 228 227 229 228 229 228 227 228 226 227 230 227 226 229 228 
228 227 229 226 228 227 228 227 228 229 229 197 166 202 228 229 
230 229 228 228 228 229 227 227 226 226 228 227 225 226 226 226 
228 228 226 226 227 225 226 227 226 225 226 228 226 228 228 228 
225 214 171 163 187 219 225 225 226 225 225 227 227 228 229 224 
226 226 227 225 224 222 223 224 224 226 223 222 222 222 222 222 
225 224 224 230 227 228 229 227 229 227 227 226 229 227 228 227 228 228 228 228 
227 228 226 227 228 226 225 225 228 225 226 227 226 157 115 198 
223 228 230 229 229 227 227 225 226 225 228 225 224 224 225 225 
225 222 226 226 224 223 225 226 223 224 226 228 227 227 225 194 
172 152 167 218 228 227 224 227 227 225 228 228 229 229 229 226 
226 227 226 226 226 224 223 223 227 225 223 224 222 222 225 224 
225 222 223 228 228 227 228 228 227 227 228 227 227 228 229 226 226 228 228 228 
227 226 227 228 226 226 228 228 227 226 225 227 227 231 208 158 
160 174 193 219 232 232 228 230 229 229 229 227 225 224 224 226 
225 227 226 226 225 224 223 229 228 229 227 225 197 166 147 159 
192 217 227 226 227 224 226 225 226 228 225 226 229 229 228 226 
224 226 225 225 225 222 226 223 222 224 225 223 223 223 224 223 
221 224 223 225 228 227 228 229 229 227 227 228 228 227 227 226 227 226 228 227 
227 227 227 227 228 226 226 227 227 227 229 228 226 229 231 230 
223 193 186 159 168 173 198 207 221 225 228 229 227 229 228 228 
226 227 227 227 230 231 226 219 203 172 146 140 158 191 217 224 
231 226 226 224 223 225 225 226 224 226 224 226 227 225 227 226 
222 223 223 222 222 223 223 225 225 225 226 224 224 222 223 222 
220 219 219 226 227 228 225 228 227 227 228 228 227 228 227 227 227 227 226 230 
226 228 228 228 226 227 227 228 230 228 229 228 227 228 226 227 
227 227 230 226 222 208 183 169 166 170 165 173 188 201 207 198 
185 177 188 171 161 156 137 142 137 178 198 216 227 227 227 228 
225 224 221 225 225 224 223 224 225 226 227 227 226 226 228 225 
223 223 223 224 224 222 222 223 225 227 225 228 225 223 223 219 
222 222 221 229 225 227 227 226 226 227 227 227 227 227 227 226 226 228 228 228 
228 226 226 227 227 227 228 229 231 230 228 228 230 228 228 225 
225 223 225 229 226 231 225 228 225 219 211 210 184 188 189 189 
190 168 163 171 190 206 220 223 226 233 229 228 226 226 225 225 
227 226 225 224 222 224 223 224 223 226 226 226 227 231 227 224 
225 224 223 222 223 223 223 224 222 226 224 226 224 222 222 220 
222 220 221 226 227 226 226 229 226 227 228 228 225 226 228 227 228 227 228 227 
227 227 228 226 227 228 227 226 228 228 228 227 230 228 227 226 
225 225 224 226 225 223 225 228 230 229 230 226 228 227 228 229 
228 226 227 229 229 225 228 228 229 225 225 227 225 223 224 225 
224 226 226 227 223 224 226 224 224 224 224 225 226 229 226 226 
226 224 224 224 223 224 224 223 225 225 223 223 222 221 222 222 
221 220 221 227 226 225 226 225 225 227 227 226 227 225 228 227 227 227 226 226 
225 226 227 227 228 226 227 227 228 228 227 229 227 228 228 226 
225 226 225 227 226 226 226 227 226 225 224 224 226 226 224 225 
225 226 226 226 224 226 225 225 224 225 225 223 225 224 225 226 
226 223 224 226 225 224 224 227 226 225 227 227 226 228 226 226 
226 226 224 222 221 223 223 223 224 224 223 221 222 222 222 220 
220 220 221 226 225 227 226 227 226 226 226 227 226 227 226 227 228 228 228 229 
227 229 226 225 227 226 228 228 228 227 227 228 228 229 228 227 
225 223 226 227 224 224 225 226 226 225 226 228 227 226 227 226 
226 223 223 226 224 223 224 225 224 224 226 225 224 224 224 225 
224 226 224 225 223 223 225 223 224 225 223 225 226 228 227 227 
226 226 225 223 220 222 221 222 222 221 222 224 223 220 219 222 
220 218 220 228 225 225 225 225 222 224 225 226 226 225 227 226 226 225 226 227 
227 229 229 226 226 227 228 226 227 225 226 225 227 228 226 225 
225 224 226 225 226 226 225 226 226 228 226 225 225 226 225 224 
226 224 225 225 226 222 224 225 223 224 224 223 224 223 224 223 
226 226 223 223 223 224 223 225 225 225 225 226 225 225 227 226 
224 223 222 222 223 221 222 221 222 223 221 221 221 221 220 219 
217 219 219 224 226 225 226 226 227 227 226 227 227 226 226 227 225 226 226 226 
226 226 227 227 228 226 225 228 225 227 226 228 227 226 227 228 
226 226 226 224 224 225 225 226 225 227 227 225 226 226 224 223 
225 223 224 225 226 223 223 228 226 224 224 224 223 224 224 225 
225 226 224 224 224 227 222 225 222 223 225 223 224 224 223 226 
224 226 221 221 221 222 222 220 220 221 221 220 220 219 220 220 
219 220 220 