P2
# Created by IrfanView
100 100
255
253 252 252 253 253 253 252 253 253 252 252 250 251 252 250 251 252 
251 252 252 251 252 253 253 252 250 251 251 248 247 247 248 245 
244 244 243 242 241 243 243 242 243 243 243 243 242 244 246 245 
244 245 245 246 246 246 245 247 245 245 245 246 245 246 245 244 
244 243 244 245 244 244 245 243 242 244 246 247 247 248 248 247 
247 247 247 247 247 248 247 248 248 248 248 249 249 249 251 250 
249 250 250 251 251 252 251 252 252 251 250 251 251 251 251 251 251 251 250 251 
251 251 251 251 251 251 252 250 250 251 248 247 247 247 245 243 
243 241 243 242 241 242 241 242 241 243 243 243 243 243 241 244 
244 244 245 243 245 245 245 246 244 243 245 245 245 245 245 245 
245 245 245 243 244 243 245 244 242 244 245 245 245 246 246 246 
248 248 247 247 246 246 248 247 246 248 249 249 249 249 249 249 
250 250 250 252 250 251 251 251 251 250 252 251 250 251 250 250 249 249 250 249 
250 250 250 250 250 249 250 249 248 248 246 245 247 246 245 242 
241 239 241 239 241 241 241 242 239 238 241 242 240 239 240 241 
243 243 243 243 244 244 244 245 247 245 245 245 242 245 243 244 
244 243 242 242 242 243 244 244 241 244 245 244 244 246 246 247 
247 247 247 246 246 247 246 247 248 247 248 248 248 249 249 249 
249 250 248 251 250 252 252 250 250 249 249 250 249 249 249 249 248 249 249 248 
249 250 250 249 248 249 247 247 247 246 245 245 244 243 242 240 
241 238 239 239 239 240 238 239 240 240 239 240 240 241 239 241 
241 241 240 242 243 244 243 244 243 243 243 245 244 244 244 245 
245 244 243 244 242 244 242 242 242 245 245 245 245 245 245 246 
245 246 246 246 246 245 246 246 246 247 246 248 248 249 250 249 
249 249 249 250 250 250 248 250 250 250 250 250 249 249 249 248 249 249 249 249 
248 248 248 247 247 248 247 246 246 246 245 245 243 241 239 239 
239 238 236 237 239 239 239 239 240 238 238 240 241 240 240 240 
241 240 242 243 242 243 241 240 242 244 243 243 243 243 243 244 
244 243 242 243 241 242 242 241 243 243 244 244 244 244 244 245 
246 245 245 245 244 246 246 245 246 246 246 247 248 249 248 248 
247 249 249 249 250 249 248 250 249 248 248 249 249 248 249 248 247 247 247 247 
248 247 248 247 247 249 247 246 246 244 243 241 239 240 237 239 
238 237 238 237 237 237 238 238 237 240 242 241 241 241 240 242 
241 238 241 242 245 244 244 242 242 242 241 242 244 243 244 245 
243 243 244 242 242 245 244 241 243 244 244 243 242 243 244 244 
243 244 244 244 245 244 244 245 246 245 245 247 247 246 247 249 
248 248 248 247 249 249 248 248 248 249 249 248 248 247 247 248 246 249 248 246 
246 246 246 246 246 243 245 243 245 242 244 241 238 239 237 237 
238 236 235 236 237 237 238 240 240 240 239 239 234 224 224 222 
220 231 236 237 235 240 243 243 242 242 236 238 242 244 244 244 
243 243 242 243 243 242 243 242 242 243 244 244 243 244 244 243 
244 245 244 242 244 244 243 243 243 243 245 247 247 248 246 248 
248 248 249 248 249 249 248 247 247 247 248 247 246 247 247 248 246 246 246 247 
245 245 244 245 245 245 243 242 243 238 242 241 238 238 236 238 
237 238 237 236 236 239 238 231 220 192 171 176 173 174 179 172 
183 182 193 182 176 179 188 194 221 231 240 241 243 245 244 244 
243 242 242 243 243 243 241 243 243 243 242 243 243 241 243 243 
243 243 244 244 243 243 242 242 243 243 243 247 245 246 249 248 
248 248 248 249 249 249 247 248 247 246 246 246 247 246 247 247 245 246 246 246 
247 245 245 244 244 244 244 242 242 242 240 240 238 237 237 235 
237 239 236 229 207 198 174 175 192 215 229 234 236 242 242 241 
240 239 242 238 242 230 224 212 190 182 181 208 213 232 242 243 
246 245 244 244 243 242 243 242 242 241 241 242 243 243 242 241 
241 241 243 242 243 243 241 242 241 241 243 246 245 246 245 247 
245 248 248 249 250 249 247 247 247 247 247 247 246 246 245 245 245 245 246 243 
245 244 241 242 242 242 243 242 240 240 240 239 238 238 237 237 
230 194 179 176 190 214 235 237 245 243 241 242 242 240 241 242 
242 242 242 242 242 243 244 244 244 245 239 218 207 176 178 199 
231 241 245 244 243 241 241 245 243 242 242 243 241 241 241 242 
242 243 242 242 243 242 242 241 242 242 243 245 247 246 248 248 
247 245 247 247 247 247 246 246 245 246 245 245 244 245 246 245 245 243 245 245 
243 241 242 241 240 240 241 241 239 240 239 239 240 241 228 198 
171 196 214 235 239 238 240 241 240 239 239 239 240 239 239 240 
240 241 240 241 241 240 241 240 242 241 242 245 244 245 223 183 
148 186 231 241 244 242 243 242 242 242 242 242 242 242 243 242 
243 242 242 243 242 242 242 241 240 242 241 244 244 246 245 247 
247 247 247 248 249 248 247 245 246 245 245 245 246 246 244 246 246 244 245 244 
240 240 241 241 240 241 241 242 239 242 240 242 226 193 181 219 
235 238 235 236 238 236 238 238 237 239 237 238 238 238 240 240 
241 240 240 239 241 240 241 240 241 240 240 241 241 245 247 247 
237 194 157 196 217 239 242 243 241 241 240 242 241 242 242 241 
241 242 242 241 242 243 241 242 243 242 242 243 245 246 247 247 
246 246 246 247 248 245 246 244 246 246 245 245 245 245 245 247 244 244 244 241 
241 241 240 240 238 239 240 239 240 243 237 195 185 217 242 239 
237 236 234 234 234 234 235 237 237 238 237 239 239 240 240 241 
241 240 241 241 241 241 242 242 241 243 242 241 244 244 244 245 
244 247 236 209 166 192 229 244 245 240 242 240 241 240 241 241 
240 242 242 244 244 243 242 241 241 243 241 244 243 244 245 247 
245 246 247 248 247 246 246 244 244 244 246 243 245 246 245 245 245 243 240 241 
240 241 239 240 238 237 239 241 242 202 181 220 242 243 238 238 
235 236 237 234 234 235 235 237 238 238 239 238 240 240 240 242 
243 241 243 240 241 240 241 242 241 241 242 242 242 242 241 241 
241 244 245 247 238 203 169 207 239 243 240 240 241 241 241 240 
240 242 242 243 242 243 242 241 242 242 243 243 244 244 247 246 
246 247 246 247 246 247 245 246 242 244 242 243 243 245 244 244 244 242 241 240 
241 240 240 242 240 239 243 232 171 201 242 243 240 240 239 236 
236 238 235 235 236 235 236 238 236 238 237 238 237 238 239 240 
241 241 240 242 241 242 242 241 241 242 242 242 242 244 242 243 
243 242 241 242 243 246 224 174 178 230 244 242 242 241 240 241 
241 241 243 242 243 245 242 242 241 242 244 244 244 246 245 245 
247 247 246 247 245 245 245 244 244 245 244 245 243 245 243 243 244 242 241 240 
239 238 240 240 240 241 225 150 202 244 240 240 239 240 241 238 
238 236 235 235 235 235 236 237 236 236 237 238 240 238 236 241 
242 241 242 241 242 242 241 240 241 242 242 242 242 243 242 242 
242 242 241 241 240 238 239 235 207 169 214 236 242 241 241 241 
241 241 243 242 242 244 243 241 241 243 243 244 244 245 246 246 
246 247 247 247 243 244 245 245 242 241 244 243 243 244 242 241 241 242 242 241 
243 240 240 239 243 219 149 219 245 239 240 240 241 240 240 241 
236 235 237 236 236 234 236 235 234 237 239 239 238 238 240 242 
242 242 243 243 242 242 241 242 242 242 243 242 244 242 242 244 
241 242 242 240 239 238 238 239 239 217 168 194 238 243 240 240 
242 242 242 244 242 244 244 241 240 242 243 245 245 245 245 244 
243 246 249 246 246 244 244 244 243 244 242 243 242 241 242 241 241 242 241 238 
237 240 240 241 213 154 223 245 240 240 238 240 240 242 240 240 
239 239 237 235 236 234 236 237 236 237 237 237 237 240 239 240 
242 242 242 243 242 242 243 242 244 243 243 242 243 242 243 243 
242 243 242 241 239 238 240 238 241 242 242 183 176 240 242 241 
241 241 241 243 243 243 244 240 240 241 243 243 244 244 246 245 
246 247 246 243 243 243 243 244 244 245 241 241 243 243 240 240 240 242 240 240 
238 239 243 201 166 225 242 241 240 241 241 241 240 241 241 243 
240 239 236 236 236 236 235 234 235 237 238 239 238 238 238 238 
241 243 243 243 243 243 241 244 242 243 243 243 245 243 242 243 
244 242 241 240 240 240 239 239 239 237 239 237 172 160 222 238 
242 243 243 242 242 243 243 241 238 241 242 241 243 242 246 245 
244 246 247 244 245 242 244 242 245 243 241 241 240 241 241 240 239 242 241 241 
239 242 186 180 239 242 241 240 241 241 240 239 239 240 242 241 
241 238 237 237 238 236 235 233 236 236 239 238 239 238 238 239 
241 240 240 242 243 242 242 242 243 243 244 242 245 243 244 242 
242 242 242 240 239 239 239 239 238 237 237 240 242 189 168 226 
238 240 242 241 243 244 243 241 240 240 238 242 243 241 244 242 
245 246 247 243 245 243 243 243 243 243 241 240 241 240 240 240 240 237 240 239 
241 182 164 237 240 241 239 240 240 241 240 239 241 241 239 241 
242 240 237 236 234 234 236 236 237 234 238 237 238 239 239 239 
240 242 241 242 242 242 242 242 243 242 241 243 243 243 243 242 
242 242 241 240 239 239 238 237 236 237 237 239 241 242 227 192 
229 240 240 242 242 243 242 241 239 239 239 239 241 243 242 243 
244 245 246 243 242 243 243 243 242 241 241 240 240 240 240 241 238 241 239 242 
199 171 238 243 239 240 240 239 238 236 241 241 241 241 241 241 
241 240 241 238 236 237 235 234 237 238 238 237 239 238 237 239 
240 240 241 241 241 242 243 243 242 242 242 242 243 242 242 242 
242 239 240 239 238 239 239 237 241 239 239 240 239 242 244 227 
187 231 242 243 243 243 244 244 242 241 240 243 241 242 242 242 
244 246 246 242 243 242 242 242 241 240 239 240 239 240 240 239 238 239 242 213 
163 244 242 240 238 239 239 241 240 240 240 240 240 241 241 242 
240 240 240 239 237 233 235 235 234 236 238 238 238 238 238 238 
240 240 240 242 242 241 242 242 242 243 242 243 243 244 242 241 
242 241 240 240 238 239 239 238 238 240 240 241 241 240 242 244 
224 187 229 241 243 243 244 243 243 243 242 242 241 241 243 246 
246 246 246 242 243 242 241 243 241 241 241 239 238 238 237 237 238 240 227 154 
235 242 240 239 240 239 240 240 240 240 240 241 241 241 241 242 
241 241 241 240 237 238 236 235 235 236 238 237 237 237 238 238 
241 240 240 240 242 243 243 242 241 242 242 242 243 242 241 242 
242 241 240 239 238 239 238 238 241 239 239 241 241 241 241 244 
247 208 192 238 240 244 245 245 243 243 242 242 243 242 243 244 
243 245 246 243 243 243 243 242 242 240 241 240 240 241 238 239 237 239 161 226 
241 237 240 240 239 240 239 240 239 239 240 241 241 239 240 240 
239 242 242 242 238 237 236 235 235 236 237 237 237 237 239 240 
239 240 239 241 241 241 241 242 241 242 241 242 243 241 239 242 
241 240 239 238 238 240 238 238 239 241 239 239 241 240 242 242 
244 242 205 199 241 243 246 245 244 243 242 242 242 240 242 242 
244 245 246 241 243 241 244 242 243 240 238 240 240 239 239 236 242 170 200 243 
239 240 239 240 238 238 240 240 239 240 239 240 241 240 240 240 
241 239 240 241 239 237 236 236 237 237 237 238 237 238 239 239 
240 239 239 241 243 242 241 242 241 243 241 242 240 240 241 240 
240 239 238 238 239 238 240 238 240 240 238 241 242 242 242 243 
243 243 236 197 230 243 244 245 245 243 242 242 241 240 243 243 
245 244 246 242 243 242 242 241 242 240 239 238 238 238 237 238 210 169 244 240 
239 238 240 239 240 238 239 241 239 241 236 235 237 239 239 241 
241 241 241 239 239 238 238 237 235 237 237 237 238 239 238 239 
238 239 239 241 242 241 243 240 241 240 242 242 241 240 239 240 
237 239 241 238 237 236 239 239 242 240 241 242 242 240 241 241 
243 242 245 234 203 240 245 244 245 244 242 242 242 242 242 244 
245 243 244 242 241 240 241 240 241 238 239 238 238 236 238 239 152 232 240 239 
239 238 240 240 240 239 236 238 237 194 153 160 186 233 240 241 
239 241 241 240 239 239 237 237 236 237 237 237 237 237 238 238 
239 237 239 240 241 241 241 242 241 239 240 240 240 239 241 241 
240 240 241 240 238 233 235 238 239 240 241 242 242 241 241 242 
243 241 245 246 209 215 242 244 246 244 243 244 242 242 242 242 
246 245 243 239 240 239 241 241 239 240 237 237 237 236 239 183 216 242 240 239 
241 239 239 240 238 238 237 242 207 129 167 177 195 174 227 240 
241 240 241 240 240 240 238 237 236 235 236 236 236 238 238 238 
238 240 238 238 241 240 240 242 240 239 241 242 239 239 238 240 
243 234 184 186 196 203 224 239 239 240 241 241 242 242 242 242 
242 242 241 242 241 194 236 245 247 243 242 243 243 243 243 243 
242 244 244 241 242 242 241 239 241 239 241 241 235 239 228 164 243 240 240 239 
240 239 238 240 239 238 238 229 155 182 187 166 178 165 173 208 
242 242 240 240 240 240 239 239 237 237 238 237 236 238 238 237 
238 238 237 239 240 239 240 240 240 241 241 238 237 240 235 201 
204 170 173 163 152 148 179 223 240 241 241 241 240 241 243 242 
242 242 243 243 243 217 208 243 243 244 244 243 242 242 242 243 
244 243 243 239 240 241 240 237 239 240 239 235 238 206 167 231 241 239 239 237 
239 241 239 239 239 240 237 160 141 152 151 146 147 163 161 144 
227 242 240 240 240 240 241 238 236 235 236 235 235 235 238 238 
237 239 238 240 240 239 239 239 240 241 239 238 239 224 171 158 
133 129 150 152 163 172 155 162 233 239 241 241 242 243 243 242 
241 243 241 242 241 241 207 230 243 244 243 244 244 243 242 244 
245 244 245 238 240 240 239 241 239 239 235 232 231 126 177 241 239 239 241 238 
240 242 239 239 238 240 178 153 155 171 179 173 172 165 172 168 
170 238 242 241 242 241 241 241 240 237 237 237 236 235 235 237 
239 239 237 239 240 239 240 239 239 238 238 241 234 179 182 142 
151 158 172 184 174 186 186 168 198 236 242 240 242 242 243 243 
242 242 242 243 240 243 230 196 242 246 244 244 247 243 244 244 
244 245 245 239 238 240 237 237 238 239 237 236 175 121 230 240 240 239 238 239 
237 238 239 239 237 232 137 183 170 197 204 180 175 153 151 171 
161 222 242 241 243 242 240 239 238 238 236 236 234 235 238 237 
236 238 239 238 238 239 238 238 238 240 238 227 175 173 146 160 
178 178 192 180 169 187 181 193 167 232 242 240 242 241 242 242 
242 242 240 241 241 242 244 187 231 242 243 243 246 244 244 244 
244 244 244 240 240 240 239 239 239 238 237 240 143 168 244 237 238 239 239 237 
238 240 238 239 237 217 152 170 178 226 170 181 179 172 133 147 
172 167 241 241 241 242 238 240 240 236 237 236 236 234 235 238 
236 238 238 237 238 237 237 238 238 239 238 202 174 153 162 166 
182 198 200 200 165 158 159 197 167 230 240 244 242 243 242 242 
240 241 243 239 242 242 244 216 214 242 243 243 245 244 244 243 
243 242 245 239 243 241 238 238 235 239 236 220 148 224 238 238 239 239 239 240 
238 238 239 238 238 219 164 158 166 172 158 169 164 170 172 164 
179 156 206 242 242 240 240 240 239 237 235 237 236 235 235 235 
236 236 235 238 237 237 239 238 238 238 238 202 179 166 169 190 
187 204 193 175 167 166 175 189 173 230 242 241 242 241 243 243 
242 243 242 242 240 241 240 236 203 241 244 245 244 244 245 244 
244 246 244 241 241 238 240 239 239 239 237 186 227 239 239 238 237 239 239 238 
238 237 238 238 234 236 143 163 161 152 159 155 175 145 161 170 
162 178 167 240 241 241 241 240 240 236 236 236 236 235 236 234 
234 236 237 237 237 236 236 236 239 236 237 199 162 126 166 178 
181 143 156 161 162 162 179 210 162 235 242 241 242 243 242 240 
242 241 240 241 241 241 241 243 204 230 244 244 244 244 243 244 
245 245 244 240 240 241 238 237 236 235 239 159 241 238 239 238 238 238 239 237 
238 237 238 236 236 238 159 151 148 163 174 172 165 148 168 169 
190 136 177 240 241 242 242 241 239 237 237 236 236 236 235 236 
236 236 236 236 236 237 237 236 237 235 236 189 168 133 122 146 
144 169 162 161 176 185 185 184 168 241 241 242 241 242 243 241 
242 241 240 241 241 241 241 241 231 202 243 243 243 243 245 244 
244 245 244 237 238 240 240 236 237 237 221 174 239 238 237 237 237 238 238 237 
236 237 238 235 234 236 206 133 140 138 167 145 153 163 176 189 
175 129 236 243 242 241 243 239 241 239 236 238 236 235 235 235 
236 235 234 236 236 236 236 235 235 235 236 215 142 119 134 143 
153 167 163 185 184 192 179 178 197 241 241 242 242 241 241 241 
241 241 241 241 241 242 240 240 240 188 236 244 245 244 246 246 
245 245 244 237 239 239 238 238 238 236 193 210 239 237 238 236 238 236 236 236 
237 235 236 236 235 236 243 180 126 137 146 151 170 173 165 168 
145 217 244 242 242 242 242 241 243 240 241 238 236 236 234 234 
234 236 235 236 235 235 234 233 234 234 237 238 177 128 119 147 
149 153 170 182 178 181 169 186 237 241 241 241 242 243 241 241 
241 240 240 241 241 240 241 240 242 197 223 243 244 245 244 244 
246 244 244 239 238 238 237 237 237 237 170 237 237 238 237 238 237 236 237 237 
236 237 238 238 235 237 239 244 209 167 138 130 129 124 128 177 
229 242 242 242 242 243 242 240 242 241 240 239 236 236 235 237 
235 236 237 236 236 236 235 236 236 236 237 239 226 167 159 132 
148 156 186 191 183 185 193 233 242 242 242 242 241 242 241 241 
241 242 241 240 242 242 242 241 242 212 209 240 244 244 243 244 
243 243 243 238 238 238 238 237 240 239 165 237 239 238 237 236 237 237 238 239 
237 237 238 238 238 238 240 240 243 245 238 223 217 226 236 247 
244 243 241 242 242 242 242 242 243 241 240 241 238 235 236 237 
236 235 236 237 237 237 238 235 236 237 237 238 240 240 223 199 
190 176 182 193 204 216 235 240 240 241 240 242 242 241 240 241 
240 242 241 240 242 242 241 241 242 232 191 233 244 243 243 243 
242 244 244 236 237 237 237 239 236 231 188 239 237 239 238 239 238 236 237 237 
237 238 239 238 239 240 238 240 238 241 242 244 244 240 242 242 
241 242 242 242 242 241 242 242 242 241 243 241 238 237 235 236 
236 236 237 236 236 237 237 237 237 237 237 238 239 241 244 245 
246 242 241 238 241 241 239 239 241 241 242 242 241 240 239 241 
241 242 241 242 242 242 242 241 241 242 185 228 244 242 243 242 
245 242 243 238 236 237 236 233 236 207 206 238 238 238 237 237 237 238 237 239 
238 237 237 238 238 239 238 240 241 240 240 240 242 242 239 241 
241 242 243 243 243 242 243 242 241 241 243 241 239 238 236 237 
237 237 237 238 238 238 238 238 238 236 237 240 240 240 241 242 
242 241 240 241 240 241 239 240 242 242 239 242 242 241 242 242 
240 239 241 242 240 242 242 242 241 238 201 218 241 243 243 243 
242 243 243 236 237 237 236 235 237 189 222 239 238 238 238 238 238 239 238 238 
239 238 239 239 239 239 238 239 238 238 239 240 239 240 241 243 
243 243 243 242 243 242 244 243 241 241 241 241 241 238 239 238 
237 236 237 238 237 237 237 238 239 238 237 242 240 241 240 240 
242 239 240 240 240 240 240 240 242 241 242 240 241 242 241 241 
241 242 240 241 240 241 241 242 242 239 215 212 240 242 242 243 
243 242 244 236 236 237 236 235 236 153 237 239 236 238 237 239 238 238 238 239 
240 239 239 240 239 240 239 239 240 240 241 239 241 240 241 242 
242 243 243 243 242 243 245 244 244 243 243 242 239 238 237 237 
238 236 237 237 238 239 240 239 239 238 239 240 241 240 240 240 
240 241 239 240 241 240 241 240 242 241 241 241 240 241 241 241 
242 241 241 242 242 242 241 241 241 239 223 193 242 242 242 242 
243 242 241 237 236 238 237 236 237 169 238 237 237 239 240 239 238 238 239 239 
238 239 239 239 237 238 239 239 240 241 240 241 242 241 241 241 
243 242 243 243 242 244 244 243 241 242 243 242 242 239 239 238 
238 236 238 237 238 239 240 239 240 239 240 240 240 241 242 241 
240 240 241 240 240 241 241 241 241 240 242 241 241 242 241 241 
241 241 241 238 241 240 241 242 239 239 234 191 240 242 241 241 
242 241 243 236 237 234 235 236 236 168 239 238 236 237 238 238 238 237 238 239 
241 240 239 240 240 240 239 240 240 241 241 241 241 241 242 242 
242 243 242 244 244 243 244 243 244 242 241 243 241 242 240 239 
237 238 237 238 238 239 240 239 239 240 240 240 240 240 241 241 
241 241 241 241 241 240 241 241 240 241 241 241 242 243 242 241 
241 241 242 242 241 240 240 243 243 242 226 179 233 242 242 240 
241 241 241 236 235 237 235 236 230 179 239 238 236 238 237 239 238 239 239 239 
239 239 238 239 239 240 240 240 240 238 239 241 241 241 242 243 
244 242 243 244 243 241 242 242 241 242 243 244 242 239 242 240 
239 238 239 239 238 240 238 239 240 241 240 241 242 242 242 240 
241 242 241 242 241 241 241 240 241 240 242 242 241 242 241 242 
243 242 241 240 240 242 241 242 242 239 236 177 219 241 241 240 
240 240 240 236 235 235 235 237 233 176 239 238 238 238 238 239 239 238 239 239 
238 239 239 239 239 239 240 240 240 241 240 239 241 240 242 241 
242 243 242 240 244 242 242 242 243 243 243 242 243 241 241 240 
240 239 239 241 239 240 241 239 240 241 243 241 242 242 241 240 
242 242 241 241 241 243 242 244 242 241 241 241 242 242 241 241 
242 241 243 239 241 241 239 242 240 241 237 174 226 240 239 241 
241 240 241 235 238 235 236 235 231 175 237 237 237 238 239 239 239 239 237 238 
239 239 240 238 239 241 239 240 240 240 239 239 240 239 240 241 
240 241 243 243 242 242 242 243 243 242 242 243 242 242 241 241 
239 240 239 239 240 241 240 241 241 241 240 241 240 242 242 242 
242 241 241 242 242 242 242 242 244 243 242 242 242 243 241 242 
241 242 241 241 241 241 240 241 241 240 241 175 230 239 240 240 
240 238 240 234 238 236 235 234 226 184 239 236 238 238 238 237 237 237 238 240 
239 238 239 238 239 238 239 240 239 238 240 239 240 238 239 242 
242 242 242 243 242 242 242 242 241 243 243 243 243 241 241 241 
240 241 241 240 241 241 241 241 240 241 241 241 241 242 242 242 
242 241 242 242 242 241 241 242 243 243 244 242 242 242 242 243 
243 244 244 242 242 241 241 240 241 240 240 173 223 241 239 239 
241 240 240 236 236 235 234 235 230 181 239 237 237 238 236 239 239 238 238 238 
238 238 238 238 239 238 238 239 239 240 239 239 240 239 239 241 
242 242 242 243 242 243 243 243 244 241 242 242 242 242 242 241 
240 240 240 239 240 241 240 241 241 241 242 241 242 243 241 241 
242 243 242 243 243 242 241 242 243 243 244 242 241 242 243 242 
243 242 243 242 241 241 242 240 241 240 236 166 224 240 240 241 
237 239 239 236 236 235 236 237 229 182 237 238 236 238 238 238 238 238 238 238 
238 238 237 239 238 239 238 237 239 239 239 238 239 238 239 240 
241 240 242 242 243 243 241 243 242 243 243 241 242 240 242 242 
241 239 241 241 240 242 242 241 242 242 241 242 241 241 243 241 
243 243 242 243 243 242 241 242 243 242 243 242 241 242 241 243 
242 242 243 242 241 240 240 241 240 239 231 169 226 239 239 237 
239 239 238 234 236 236 233 235 229 185 237 237 238 239 238 239 238 237 237 237 
239 239 238 239 238 240 238 238 238 238 239 239 241 239 238 240 
241 240 242 241 242 242 242 242 242 243 244 241 242 242 242 242 
240 240 239 239 241 240 241 240 241 241 241 241 242 242 242 242 
242 243 244 243 243 241 241 241 240 242 242 239 240 241 241 240 
241 242 241 242 242 240 243 240 242 240 233 188 227 241 238 240 
239 239 240 236 236 236 235 236 237 185 238 238 237 237 237 237 239 239 237 238 
239 237 238 238 238 238 239 237 240 240 240 241 239 241 240 240 
241 241 242 243 243 242 241 242 242 244 243 242 243 241 242 242 
242 242 242 241 240 240 239 242 242 241 241 241 241 241 243 241 
241 244 243 242 243 241 240 241 241 242 238 241 240 241 241 241 
242 241 242 240 242 241 241 242 239 239 239 169 230 242 238 241 
239 239 239 236 236 237 236 237 238 176 238 238 237 237 238 238 238 237 239 238 
237 237 238 238 237 237 239 239 237 238 238 238 239 238 240 240 
241 241 241 240 242 242 244 243 242 242 241 241 241 242 243 241 
241 241 240 240 239 240 241 240 241 241 241 241 241 240 242 242 
242 244 243 244 244 240 241 240 241 241 242 241 241 240 242 238 
241 241 241 241 241 240 241 241 241 240 221 179 236 238 239 240 
241 239 239 235 236 237 237 236 239 175 234 236 237 237 237 237 238 238 236 237 
237 237 238 237 238 238 238 240 238 239 238 240 239 240 239 241 
242 241 241 240 242 242 243 242 241 243 242 242 242 240 241 243 
242 241 239 240 240 241 239 240 239 241 239 241 242 241 241 242 
242 241 241 242 241 241 240 240 240 241 240 239 240 241 240 241 
239 240 241 241 240 240 240 240 239 239 214 194 238 241 241 239 
239 240 241 236 236 237 240 235 236 173 234 237 237 238 238 238 237 238 239 239 
238 237 237 239 238 238 238 237 238 238 238 237 240 240 239 241 
241 241 242 242 242 241 241 242 243 243 242 243 243 243 243 242 
242 241 239 237 238 239 239 239 240 239 240 240 241 241 240 241 
241 241 242 242 241 241 241 240 241 239 239 240 239 240 241 240 
241 239 241 239 241 240 239 239 240 236 216 187 241 241 241 240 
241 240 241 236 236 235 237 237 233 175 233 235 237 237 238 238 238 238 236 237 
237 238 238 237 238 237 238 238 239 240 239 239 238 239 240 240 
240 239 241 241 241 242 241 242 241 243 241 242 241 243 242 242 
241 241 240 239 239 238 238 238 238 239 240 239 240 240 240 241 
239 240 240 241 240 240 241 239 240 241 240 240 240 240 241 240 
240 240 240 240 241 240 240 237 238 237 200 182 239 241 240 239 
241 241 241 235 236 236 236 234 236 193 219 237 236 237 237 237 235 236 237 238 
237 237 238 237 237 238 239 240 239 238 240 239 236 239 239 239 
241 241 240 239 240 241 241 241 240 242 241 242 242 241 242 241 
241 240 240 238 238 238 239 237 238 238 238 238 238 239 237 239 
239 240 240 239 238 239 240 240 239 241 238 241 241 239 240 239 
239 240 241 239 240 241 241 239 239 236 188 196 240 242 242 242 
241 241 242 236 236 236 237 235 236 220 195 234 234 236 235 239 237 238 236 238 
237 237 238 239 238 239 237 239 239 238 238 238 239 238 240 239 
240 239 241 242 241 241 242 242 241 241 241 242 240 242 243 243 
241 242 241 241 239 237 238 239 240 239 237 238 237 240 239 238 
239 239 239 240 240 240 237 239 238 235 239 240 238 241 238 238 
240 240 239 239 238 239 241 240 239 224 162 213 241 241 241 242 
242 243 241 236 236 235 237 238 238 229 185 239 237 239 237 236 237 238 237 237 
237 238 238 239 237 237 238 238 238 239 239 239 239 242 240 240 
238 239 238 239 240 241 242 243 244 244 244 244 243 242 241 242 
243 239 240 239 237 237 237 236 236 235 235 235 238 240 238 239 
239 239 239 239 239 238 240 239 239 240 239 239 239 239 240 239 
239 240 238 239 239 239 239 237 237 218 177 239 242 242 242 242 
242 242 242 233 234 234 236 237 237 238 177 238 235 234 237 235 235 236 237 238 
236 236 236 238 239 238 238 239 239 236 238 239 238 238 238 238 
237 240 239 240 241 245 243 239 214 212 203 196 214 187 175 175 
184 166 177 177 180 176 187 173 171 189 218 225 232 238 237 239 
239 239 238 238 238 239 238 239 239 239 239 239 239 238 238 239 
239 239 238 240 240 240 237 238 236 205 179 235 242 242 244 245 
244 243 242 235 234 235 236 236 234 239 170 227 236 237 236 237 237 236 234 238 
236 238 238 238 236 237 238 238 238 238 239 238 237 238 240 239 
239 241 238 237 211 186 169 154 160 178 193 189 184 195 216 221 
224 219 221 221 217 219 215 208 178 159 156 158 185 234 232 235 
237 239 238 238 238 238 239 239 237 238 239 238 238 239 238 239 
238 238 240 239 240 239 239 237 235 187 213 237 243 243 243 244 
243 243 243 235 235 234 233 234 234 233 204 195 234 235 235 235 236 237 239 236 
236 238 237 238 239 237 236 236 236 237 237 237 239 237 237 238 
239 229 215 182 151 185 206 236 244 245 247 247 245 245 244 244 
243 243 246 245 244 245 243 242 185 218 237 222 181 231 238 238 
234 234 236 236 238 237 239 238 239 240 238 238 237 237 238 237 
240 237 238 237 239 239 239 238 227 180 231 237 241 243 244 244 
244 245 243 233 233 233 233 233 234 233 232 159 233 234 236 236 235 236 237 236 
237 236 237 238 236 237 238 237 238 239 237 238 238 237 237 230 
191 163 161 196 234 244 244 245 243 244 242 241 242 242 241 241 
243 243 243 242 241 242 242 240 159 226 239 239 232 235 237 239 
239 235 234 236 237 237 238 238 238 237 238 239 239 238 239 241 
235 238 239 237 238 238 238 239 208 188 237 234 240 241 244 245 
245 245 244 233 233 233 232 230 232 235 235 177 217 231 231 234 233 233 234 235 
236 238 237 236 237 237 237 237 236 236 237 237 237 234 235 173 
170 229 213 242 243 243 241 243 244 242 242 241 241 241 242 241 
243 244 243 244 242 241 239 241 166 232 237 237 239 237 237 237 
237 237 233 237 239 237 238 238 238 238 237 237 237 238 238 236 
237 238 238 238 237 236 235 239 176 218 235 238 238 240 245 244 
243 244 245 235 236 233 232 233 232 232 234 217 193 231 231 234 236 236 236 236 
237 235 238 237 236 237 236 237 236 239 237 236 236 237 239 220 
242 242 198 236 240 239 240 239 241 241 241 242 241 241 241 241 
243 243 243 244 242 241 242 200 166 234 238 236 236 236 237 236 
237 237 237 238 238 237 239 238 239 238 238 238 238 238 238 236 
238 238 238 237 238 237 237 234 179 235 240 238 238 241 242 245 
245 245 243 233 234 234 232 231 231 233 232 236 159 223 229 235 235 235 234 236 
237 237 237 237 237 237 238 237 239 236 237 237 239 239 237 241 
240 236 217 220 240 241 241 241 240 240 240 241 241 241 241 239 
242 241 237 240 240 240 244 165 222 236 238 237 238 237 237 237 
237 238 236 238 240 237 237 237 236 237 237 237 238 237 237 238 
235 237 239 238 237 236 236 195 214 238 238 239 238 239 242 244 
244 245 245 235 234 233 233 232 230 230 231 234 181 206 232 233 236 237 237 236 
236 238 237 238 237 237 237 235 233 235 240 238 238 238 239 238 
239 238 238 192 241 242 240 239 241 240 240 240 241 240 241 241 
240 239 241 241 241 241 225 159 234 239 239 238 238 237 237 238 
236 237 238 238 238 238 236 237 237 237 238 238 236 238 238 237 
238 238 238 238 234 237 230 169 234 237 238 239 237 240 241 243 
244 244 244 233 233 231 232 231 231 232 232 232 229 166 233 232 235 235 236 236 
237 238 237 236 237 236 237 234 232 237 237 238 238 238 238 236 
237 239 240 202 198 240 241 240 241 241 243 241 241 241 243 241 
241 240 241 243 243 243 164 203 239 241 238 238 238 237 237 237 
237 236 237 238 239 238 236 239 239 236 237 236 236 237 236 237 
236 238 238 237 236 238 196 208 237 239 240 239 239 240 242 243 
243 244 244 233 232 232 232 232 231 230 232 234 235 183 211 232 235 235 235 237 
236 237 237 236 237 237 236 238 240 237 239 239 238 237 240 237 
238 237 240 243 168 215 241 239 239 238 240 238 241 242 239 241 
243 241 244 241 244 201 154 242 241 238 238 237 237 236 236 237 
237 237 238 237 237 238 237 236 239 236 238 236 238 235 237 237 
238 238 237 236 236 228 161 236 237 239 240 238 238 238 241 243 
243 244 243 232 232 231 232 231 230 232 232 232 234 234 163 236 234 234 235 235 
238 236 236 236 235 236 236 236 236 238 237 239 238 238 239 237 
238 237 239 241 238 172 224 240 237 236 238 241 240 240 240 242 
242 242 241 240 240 147 222 242 241 240 238 236 236 236 236 236 
237 238 236 237 237 237 238 237 237 237 236 235 235 237 236 237 
238 237 235 234 239 184 224 239 238 238 238 239 238 240 242 243 
243 243 244 232 234 234 234 232 232 234 232 233 232 236 180 209 237 237 236 236 
235 237 236 237 237 235 234 236 237 236 237 237 236 238 237 239 
237 238 237 237 240 226 147 197 242 241 242 240 237 239 239 237 
236 235 238 240 206 158 242 240 241 242 238 236 236 236 236 236 
235 237 236 235 237 236 235 236 237 237 236 238 236 237 237 235 
236 236 237 235 230 174 236 238 240 239 240 239 240 240 240 240 
242 242 243 234 232 231 231 234 234 233 232 233 232 233 233 156 232 236 236 236 
236 236 236 236 236 238 236 237 238 239 238 238 238 239 237 238 
238 237 239 239 238 244 231 170 163 222 241 243 242 240 241 242 
243 246 233 188 155 205 242 241 241 241 238 237 236 235 235 236 
236 237 237 236 236 236 238 236 236 235 235 234 235 235 236 236 
237 236 237 238 163 216 236 238 240 239 238 240 239 239 241 237 
241 243 244 232 232 233 232 231 233 232 231 232 232 233 235 193 187 236 234 234 
236 235 237 237 236 235 237 238 236 237 238 239 239 239 239 238 
239 239 238 238 239 241 244 242 201 147 151 184 198 217 217 201 
187 150 129 148 191 244 242 242 240 241 239 237 236 235 234 236 
234 235 236 235 235 236 237 236 234 236 235 237 236 235 236 238 
237 236 240 208 180 239 237 238 239 239 239 240 239 238 236 238 
239 240 241 233 232 232 232 232 232 233 232 232 233 232 234 238 168 224 235 233 
236 237 236 236 235 236 235 236 237 235 238 236 237 236 239 238 
239 239 240 240 240 240 241 241 243 232 194 162 146 132 130 140 
152 163 220 248 246 243 242 242 242 239 239 236 237 236 235 234 
236 234 234 235 237 235 236 234 233 235 235 236 235 234 235 237 
236 236 228 175 236 237 237 239 239 240 237 237 239 239 239 238 
239 238 239 232 231 233 232 231 230 231 231 232 233 231 232 233 230 161 233 234 
234 235 235 236 237 236 236 236 235 236 238 239 239 238 238 237 
238 238 238 240 239 240 241 239 239 242 246 247 242 236 236 241 
244 244 243 243 243 241 242 243 243 242 239 238 236 235 236 236 
235 234 236 234 235 235 234 235 236 234 234 233 235 234 234 236 
236 236 178 228 238 238 238 238 239 237 240 238 237 238 239 239 
241 239 238 232 232 231 233 232 233 233 232 232 232 232 232 233 235 204 176 235 
230 234 235 236 235 234 236 236 237 235 236 238 238 236 238 236 
237 236 238 240 239 239 238 241 241 242 241 243 244 243 242 241 
242 242 243 242 243 242 242 242 243 242 240 240 238 236 235 235 
235 232 234 233 235 233 233 234 232 231 233 232 232 234 234 237 
240 189 205 237 236 237 237 239 238 238 238 239 239 238 240 239 
240 241 241 231 232 233 231 232 232 232 232 230 232 233 234 231 229 234 176 193 
232 231 235 233 236 235 234 236 235 235 236 237 236 236 237 237 
239 238 238 239 241 239 240 240 240 239 241 241 241 241 240 240 
242 242 242 242 241 243 242 242 243 243 241 240 239 237 236 234 
233 235 233 233 233 233 233 233 234 234 233 232 233 233 235 238 
193 192 240 237 238 236 238 237 237 239 237 238 238 239 239 239 
239 238 239 232 231 230 231 231 231 232 232 232 232 232 228 230 229 231 232 175 
207 231 234 234 233 233 235 236 234 235 235 236 234 235 237 236 
235 236 239 240 240 240 240 239 240 241 240 241 241 242 242 242 
242 242 243 242 243 243 242 241 245 243 242 240 238 236 236 235 
234 232 233 232 231 232 232 233 234 232 232 233 233 233 241 198 
184 238 239 239 237 239 237 238 237 238 238 238 237 237 236 238 
239 239 239 231 230 233 233 232 230 230 231 228 230 231 229 228 231 230 232 231 
163 215 233 232 234 233 234 234 235 234 235 236 236 234 236 236 
236 235 237 237 238 239 240 239 240 241 240 241 241 240 240 243 
242 243 241 243 242 242 241 242 244 242 242 241 238 237 236 235 
234 232 232 231 232 233 232 232 233 233 230 230 233 239 211 173 
237 237 236 236 237 238 237 237 237 239 237 237 238 236 239 238 
237 238 238 230 232 230 231 232 231 232 230 231 230 230 228 227 229 229 229 232 
226 166 217 231 232 233 233 234 234 234 234 235 235 237 238 237 
236 238 237 238 239 239 240 239 240 240 241 243 242 243 241 241 
241 242 241 241 242 242 241 242 243 242 241 241 242 240 238 233 
237 234 232 231 231 232 232 232 232 233 230 231 236 198 174 235 
236 236 235 238 236 235 237 237 237 237 235 235 236 237 237 236 
238 236 237 230 230 231 230 232 233 232 231 229 227 229 227 228 229 228 229 229 
232 224 165 204 233 234 235 233 233 234 235 236 235 235 235 236 
237 234 236 238 236 236 238 240 240 240 240 239 241 239 241 242 
242 242 242 242 242 241 242 243 242 240 241 242 242 241 236 235 
236 233 232 233 232 231 231 229 230 231 233 232 191 179 231 235 
236 236 236 237 237 237 235 235 237 236 236 236 236 235 236 236 
235 235 237 231 231 230 231 230 231 231 233 230 229 230 229 228 227 227 227 225 
229 231 224 156 197 232 234 233 233 234 235 233 234 233 236 234 
235 236 235 235 238 239 238 237 239 239 239 242 241 242 241 242 
242 241 242 241 241 241 241 242 242 240 242 245 242 240 235 235 
238 235 233 232 231 231 230 230 231 234 231 182 187 236 237 234 
234 236 235 235 235 236 235 236 235 235 236 235 235 235 235 235 
236 236 235 227 228 230 228 229 229 231 230 229 228 230 229 228 229 229 227 229 
228 228 231 232 161 174 228 232 234 233 233 234 234 235 234 235 
235 237 237 237 236 238 237 238 240 239 238 240 239 241 242 241 
242 242 241 242 241 240 241 242 240 241 240 240 241 242 239 236 
235 234 232 232 232 231 233 233 233 209 158 211 235 236 233 234 
233 235 235 236 235 234 236 235 235 234 236 236 235 234 235 234 
234 234 235 228 226 228 230 228 231 230 230 228 229 228 227 226 227 225 225 227 
228 231 227 230 233 189 159 221 230 231 230 232 231 233 234 234 
234 234 235 235 236 235 234 238 237 238 238 238 240 239 240 240 
240 241 241 242 242 242 242 240 241 241 240 240 241 240 239 236 
234 233 233 233 232 234 228 180 143 167 232 236 233 233 234 233 
234 233 235 234 234 234 233 233 234 234 233 235 234 234 233 233 
234 234 233 230 229 227 228 227 229 225 229 229 229 229 226 225 226 227 225 225 
225 226 228 226 230 231 218 161 191 231 233 232 231 232 231 232 
232 233 233 236 237 234 237 234 235 238 238 238 238 237 239 239 
240 239 240 241 242 240 239 239 240 240 242 241 242 241 238 237 
236 232 233 233 238 210 120 162 222 235 233 234 234 233 235 234 
234 233 235 234 234 237 234 233 232 234 233 232 233 233 234 234 
233 233 233 225 227 225 228 226 225 227 229 225 228 226 225 226 228 224 223 224 
226 224 226 225 226 227 227 228 191 177 216 228 230 231 229 230 
226 230 231 233 234 232 235 234 235 235 236 236 235 237 239 239 
239 237 239 239 240 240 239 238 239 238 239 241 241 241 242 236 
236 235 236 236 175 119 176 231 233 233 232 230 232 233 233 233 
233 234 233 235 233 233 235 234 233 231 234 234 232 233 233 233 
234 232 234 223 226 225 225 226 227 226 226 225 225 224 225 225 224 225 225 224 
222 224 223 223 223 225 226 227 228 215 172 188 222 231 232 232 
231 229 230 230 231 232 232 233 234 234 232 234 234 236 237 238 
238 238 237 238 237 237 239 238 238 238 240 241 242 240 239 238 
239 236 224 171 173 225 238 234 233 232 233 234 233 233 233 233 
232 232 233 233 232 233 235 233 231 234 233 233 232 232 230 233 
232 232 233 226 224 225 225 225 224 226 226 226 226 225 225 226 225 222 225 224 
223 223 223 224 225 225 225 223 225 224 231 217 171 161 194 226 
228 229 230 230 231 232 232 229 228 229 230 233 233 233 232 236 
233 233 234 237 238 237 238 235 237 238 239 239 239 240 242 238 
230 181 179 217 239 235 236 233 232 232 232 232 232 232 233 232 
233 233 233 233 231 231 233 232 232 233 233 231 232 232 233 232 
233 232 232 224 223 225 224 224 223 223 222 224 224 223 223 226 225 224 223 223 
224 223 223 221 222 222 222 223 224 223 224 226 232 206 157 145 
193 221 230 229 228 228 228 227 228 228 229 231 232 233 234 234 
232 231 233 236 236 236 237 238 238 240 238 240 236 231 210 172 
186 220 239 238 234 233 234 234 233 233 232 232 233 233 233 234 
233 233 232 233 231 233 234 231 232 232 231 232 231 232 232 231 
231 232 232 222 223 221 222 224 223 222 222 222 222 224 223 227 224 222 222 223 
224 224 222 223 222 225 223 223 223 223 223 222 224 230 230 220 
174 140 146 187 206 221 223 226 232 228 229 229 232 229 233 234 
232 230 232 235 236 239 238 239 238 235 229 192 126 166 199 235 
242 241 236 235 236 234 236 236 232 232 232 232 232 233 232 231 
231 231 232 232 232 231 233 231 230 230 231 229 231 231 232 232 
232 232 232 223 221 222 223 220 222 222 223 224 223 223 223 223 223 220 222 223 
222 221 221 221 223 221 222 223 223 224 223 223 222 225 225 226 
224 228 219 179 157 148 151 169 186 192 210 219 220 224 230 228 
229 223 222 227 225 214 179 162 151 142 168 187 213 240 242 240 
238 238 236 235 236 235 235 233 234 232 232 231 231 230 231 231 
231 232 231 233 232 231 231 231 230 230 231 232 231 231 231 232 
232 231 231 220 222 223 222 221 221 222 222 222 221 221 221 223 221 222 222 221 
222 222 223 221 221 223 222 221 221 222 222 223 221 222 223 222 
221 222 222 223 226 224 211 201 174 131 129 116 121 132 139 147 
135 136 134 135 139 157 177 204 235 240 239 240 240 238 238 238 
238 237 236 233 233 233 234 235 233 232 232 232 232 231 231 232 
230 230 229 230 230 231 231 228 230 228 230 230 230 231 230 231 
230 231 231 221 221 220 222 222 223 222 223 222 221 223 222 220 223 224 220 222 
222 222 222 223 221 222 223 222 221 219 221 219 219 222 223 222 
223 221 220 220 221 224 228 230 230 230 232 230 224 224 228 227 
219 231 234 235 237 237 237 237 237 239 238 238 238 237 239 237 
239 238 237 235 236 238 235 235 233 232 232 232 231 232 230 231 
232 230 229 230 231 230 229 229 229 227 228 229 229 230 233 230 
231 231 230 222 222 219 220 221 222 221 222 222 221 222 221 220 220 220 223 223 
221 221 222 220 220 220 221 221 219 220 220 221 222 219 224 223 
223 223 225 223 226 225 228 227 227 229 230 231 230 229 229 231 
233 234 232 232 234 233 234 234 236 235 235 237 234 237 238 239 
240 239 240 239 237 238 234 237 231 231 232 232 231 231 230 230 
230 228 229 231 230 229 229 227 225 228 227 228 228 227 228 229 
231 230 231 220 220 217 217 220 217 221 219 220 221 221 221 222 222 221 218 219 
221 221 220 221 222 220 219 220 223 217 221 222 220 219 220 223 
223 223 226 229 229 228 229 226 224 225 225 226 225 226 228 229 
230 232 233 232 231 232 235 234 235 236 237 238 240 240 242 240 
243 242 242 242 241 236 236 233 232 234 232 232 232 233 234 232 
229 233 232 233 232 232 229 228 227 227 231 230 229 234 226 229 
229 228 225 227 225 222 224 231 232 234 236 236 236 233 232 232 234 236 234 231 
228 227 224 229 229 232 232 231 232 231 230 232 231 231 231 230 
235 234 231 231 236 238 239 237 239 239 239 237 237 239 240 237 
242 243 244 245 243 244 245 245 244 246 249 249 252 251 251 251 
251 248 247 247 246 244 247 243 245 245 243 244 243 246 247 246 
247 246 245 245 245 243 244 244 246 243 248 249 249 251 249 249 
240 237 241 250 250 250 254 252 253 252 252 253 252 252 253 253 252 252 251 251 
250 251 251 249 249 250 251 250 251 251 252 252 252 254 253 254 
253 253 251 251 253 252 253 254 254 254 254 255 255 254 254 254 
254 255 254 254 254 254 254 254 255 255 255 255 255 255 254 253 
250 251 251 252 250 249 248 251 250 248 249 250 250 251 251 251 
251 252 251 251 253 254 253 254 253 254 254 253 253 252 254 255 
255 255 254 