P2
# Created by IrfanView
100 100
255
216 217 216 216 216 217 216 219 214 215 216 215 215 215 215 216 216 
217 216 217 216 214 214 211 213 213 214 214 212 213 214 214 214 
214 213 214 213 209 213 212 210 210 212 211 212 212 212 212 213 
212 210 211 213 213 213 214 213 210 211 211 211 211 210 209 210 
210 209 210 211 210 211 211 212 211 210 209 213 209 210 211 210 
212 212 209 211 208 207 206 206 205 206 206 205 206 206 206 205 
205 204 206 217 216 216 216 217 217 218 219 219 216 217 218 216 216 216 216 217 
216 217 217 218 217 215 213 210 215 212 213 213 217 214 215 213 
212 213 214 212 213 212 212 213 212 210 211 211 211 211 211 213 
214 212 213 213 215 211 214 213 211 209 210 210 210 210 211 209 
212 212 211 211 212 211 212 212 211 211 209 210 212 211 211 211 
215 216 215 212 210 210 204 206 207 207 208 206 206 206 205 206 
207 205 205 219 218 217 219 218 216 217 216 215 216 215 215 215 217 215 217 215 
216 217 216 218 219 219 215 212 213 212 213 213 213 215 213 212 
213 216 214 211 213 213 212 212 213 211 212 212 212 212 214 213 
212 213 213 213 216 214 214 213 212 211 211 211 212 211 210 211 
210 211 211 209 211 212 211 211 211 212 211 211 210 212 211 213 
212 213 212 213 211 211 209 206 206 209 209 206 207 209 206 206 
206 205 207 216 219 220 219 217 219 217 218 218 217 216 217 219 218 218 217 217 
217 216 217 216 218 221 217 215 212 215 214 214 214 214 214 213 
216 216 214 216 215 214 213 214 212 211 211 212 213 210 211 212 
213 211 213 211 214 213 212 215 213 212 212 211 210 210 211 211 
211 211 211 212 211 211 211 212 211 211 213 212 212 212 211 211 
212 212 212 212 212 212 210 209 210 208 209 208 209 207 210 208 
208 208 207 220 221 219 220 219 219 221 220 219 219 218 218 218 218 218 218 218 
218 219 219 217 218 219 216 217 214 215 214 216 215 214 215 214 
212 216 213 215 214 214 213 216 213 214 212 212 213 213 214 215 
216 215 213 213 213 212 212 211 210 210 210 211 211 211 211 212 
212 213 211 212 210 212 212 212 212 212 212 212 212 213 212 212 
209 211 212 213 212 214 211 211 210 210 210 210 210 211 210 209 
210 210 211 220 220 219 220 219 220 220 222 220 219 217 219 219 219 218 217 218 
219 217 216 217 218 219 217 216 218 215 216 217 218 216 215 215 
216 214 215 212 213 216 215 215 214 214 215 213 214 215 216 217 
214 215 215 215 215 217 216 213 211 211 211 210 211 212 210 211 
211 211 213 216 213 211 212 210 213 213 213 213 211 212 213 214 
213 213 213 214 212 213 212 212 210 213 212 212 211 212 210 209 
208 210 209 220 220 221 219 220 223 221 220 220 220 219 220 219 218 218 218 220 
218 218 219 219 220 219 218 219 219 217 216 217 218 217 216 215 
215 216 215 213 214 215 217 216 215 216 214 213 216 213 210 202 
202 206 211 211 210 214 214 216 214 212 215 213 213 212 211 213 
211 213 212 211 212 213 214 215 212 212 210 213 214 213 214 212 
213 212 212 211 213 213 216 214 213 213 213 212 214 212 211 210 
211 213 212 222 220 221 221 222 222 223 220 220 220 219 219 219 218 219 220 219 
219 218 220 219 221 222 219 218 220 221 219 218 218 220 219 216 
216 217 217 219 218 217 207 196 189 166 154 157 153 151 142 150 
159 147 135 129 147 156 158 174 187 201 209 215 215 217 215 216 
214 213 212 210 212 212 212 212 213 213 214 215 214 215 214 213 
215 214 213 214 214 213 214 213 213 213 214 214 215 212 213 213 
212 213 211 222 222 223 223 224 224 224 226 221 221 220 220 220 220 218 219 219 
219 220 220 222 219 218 219 221 220 222 223 218 219 219 220 220 
219 219 219 206 172 149 140 156 187 200 210 216 220 219 215 220 
216 215 216 216 212 214 204 190 172 147 147 154 173 188 210 212 
216 215 216 214 213 212 215 213 211 213 215 215 213 215 215 215 
215 214 212 213 213 214 213 213 218 214 216 213 213 213 213 213 
212 213 214 222 223 222 223 223 222 224 223 221 221 222 221 218 219 220 219 219 
219 218 219 221 221 219 217 219 221 223 222 217 219 220 222 220 
200 169 157 177 188 214 218 219 220 221 219 219 221 219 218 217 
217 217 217 219 221 218 220 219 219 212 208 203 175 163 145 149 
183 206 212 216 216 215 212 212 212 211 215 213 215 217 214 216 
218 215 216 216 214 213 214 215 215 216 216 216 215 214 213 215 
214 215 214 224 222 224 223 224 223 221 223 222 221 222 223 221 219 220 219 220 
219 221 220 221 222 220 220 223 221 222 220 221 222 212 178 167 
180 204 224 223 222 220 220 220 221 220 218 217 218 220 217 216 
217 214 215 215 217 216 217 219 214 216 217 216 219 220 211 193 
155 129 156 198 215 217 216 213 212 213 215 216 216 215 216 215 
217 217 219 216 216 217 215 216 216 216 216 214 216 214 216 215 
215 216 213 225 224 225 223 223 223 226 225 223 222 220 222 222 221 220 218 219 
220 219 221 220 223 220 220 221 222 224 215 211 171 169 199 216 
219 222 222 219 221 218 219 219 218 220 219 218 218 217 217 217 
219 219 217 216 217 217 215 218 219 218 216 214 216 216 216 218 
222 197 176 127 153 200 217 218 214 215 216 214 213 216 216 217 
216 219 220 219 218 218 215 215 216 217 216 217 215 215 214 214 
216 214 215 225 224 224 224 224 222 223 224 223 223 224 223 222 220 219 221 219 
221 220 221 218 220 220 219 222 223 211 166 163 204 217 225 224 
221 221 222 218 219 220 223 219 220 222 222 220 217 216 218 218 
217 218 220 219 216 217 219 217 217 218 218 217 216 217 216 215 
218 218 220 218 181 152 145 195 217 218 217 218 217 217 220 217 
218 218 219 219 220 220 217 217 216 217 217 217 219 216 214 216 
216 215 216 225 223 224 224 225 226 225 225 223 222 224 225 224 223 221 221 220 
221 222 220 222 222 218 221 214 179 164 196 220 222 223 221 221 
220 222 221 222 221 221 221 221 220 221 223 223 221 224 220 219 
217 217 219 219 218 219 218 221 217 218 217 219 218 216 218 216 
218 219 219 219 221 220 191 141 168 215 218 219 217 219 217 217 
216 216 217 216 222 221 219 217 217 217 215 216 218 217 218 218 
215 216 216 224 226 225 225 223 222 222 223 227 224 225 224 222 222 222 223 221 
221 222 221 220 223 219 208 156 172 216 224 224 222 223 222 222 
222 221 222 223 221 221 222 222 222 220 219 221 223 221 220 220 
220 221 222 220 220 220 219 223 219 217 218 219 218 218 217 218 
219 220 218 218 219 220 223 211 164 135 180 221 221 218 218 218 
219 220 218 219 220 221 218 219 217 218 218 216 217 219 217 215 
216 217 218 225 224 225 225 226 226 226 225 227 223 223 223 222 221 223 222 222 
221 220 219 221 220 190 153 204 221 223 225 223 222 222 223 223 
222 223 222 222 223 222 223 221 221 224 223 221 222 222 222 221 
221 221 221 223 221 221 223 222 222 219 220 220 219 218 217 219 
220 220 221 219 217 217 218 216 221 205 134 167 220 221 221 218 
219 219 220 218 221 221 223 219 217 218 219 220 219 218 218 219 
218 217 218 225 225 227 226 226 225 225 227 226 225 223 223 222 222 222 225 225 
224 221 221 215 168 174 218 224 224 223 224 223 223 223 224 223 
222 222 222 222 222 221 222 221 224 224 223 226 222 222 221 222 
222 222 221 221 222 222 221 224 223 221 220 220 220 220 223 222 
222 222 222 220 217 219 220 218 220 221 201 142 150 214 221 221 
219 219 221 220 219 219 223 223 220 218 219 214 217 218 217 217 
217 217 218 225 225 224 226 226 227 226 225 226 224 223 223 222 222 225 224 223 
223 223 210 148 187 223 223 223 223 224 226 224 223 223 223 223 
224 224 224 224 224 224 223 225 223 224 221 222 221 221 221 222 
222 223 222 222 222 223 223 224 222 219 222 222 221 220 221 221 
225 222 223 221 221 221 221 220 220 221 224 224 160 140 203 222 
221 219 219 217 221 220 220 222 222 219 217 219 218 218 217 217 
218 217 219 226 224 227 225 224 226 227 225 226 223 223 223 221 221 224 225 225 
224 200 131 196 221 222 222 222 223 224 225 225 224 225 224 223 
224 223 222 223 224 223 223 223 223 222 224 223 223 223 224 222 
221 222 221 221 223 222 222 223 223 222 222 221 222 222 222 222 
221 222 221 223 222 222 220 220 220 220 220 224 224 179 131 196 
222 222 221 220 219 219 220 220 221 219 220 218 218 219 218 217 
220 217 218 226 228 227 226 224 226 227 224 224 224 224 223 221 222 224 222 224 
201 146 206 225 224 223 223 226 225 224 226 226 225 226 225 225 
224 225 225 224 223 224 223 225 225 223 224 222 222 224 223 223 
223 222 222 223 223 223 222 223 223 223 223 222 223 223 220 223 
223 222 222 222 222 224 222 222 221 221 223 223 224 228 189 125 
191 222 220 221 220 221 220 220 221 219 219 217 220 218 219 218 
217 217 217 226 226 225 226 227 226 226 226 225 223 223 221 219 222 224 224 208 
139 209 225 224 222 223 226 226 224 227 223 224 225 225 224 226 
225 226 225 224 229 225 226 225 225 225 225 225 223 223 224 222 
223 223 222 222 224 221 223 223 224 224 223 222 221 223 223 222 
222 223 222 223 222 221 222 224 224 224 222 224 226 225 227 199 
124 205 222 220 220 221 223 222 224 222 220 218 218 219 220 219 
219 219 220 227 227 225 226 228 226 226 224 225 223 223 221 221 221 221 213 155 
215 226 227 224 225 226 225 225 225 225 225 227 225 225 224 226 
226 225 224 225 225 225 225 226 224 224 225 226 225 224 224 224 
224 223 223 226 223 224 224 223 223 224 224 225 223 223 223 223 
223 223 224 223 225 226 224 223 224 223 224 225 225 225 225 226 
183 135 212 222 220 221 222 221 221 220 221 221 221 219 220 219 
220 217 219 226 226 225 227 226 226 226 226 225 227 224 223 221 223 215 147 212 
228 226 225 225 224 223 226 225 227 226 225 225 226 227 226 225 
226 226 226 226 226 226 226 225 226 226 226 226 225 225 225 224 
224 224 223 222 224 224 224 224 223 225 226 224 223 223 224 224 
223 224 223 226 223 224 224 225 224 224 225 227 225 225 222 223 
226 187 142 214 224 221 221 220 222 221 218 220 220 221 218 219 
220 219 220 228 228 228 226 226 228 227 226 224 225 223 224 222 222 164 202 226 
224 224 224 225 225 226 227 227 226 226 226 226 226 226 227 227 
225 226 225 226 225 225 226 227 227 226 226 226 225 224 225 225 
225 224 226 226 224 224 226 226 224 223 225 224 224 225 225 224 
223 224 224 224 224 225 224 226 226 225 224 225 226 224 223 224 
226 226 181 141 223 221 222 222 222 221 221 219 220 221 221 222 
220 220 220 228 226 227 228 228 228 228 228 225 226 225 223 226 170 191 227 226 
226 225 226 226 227 226 226 225 226 227 226 226 226 227 227 226 
226 227 227 226 227 226 226 226 228 225 225 226 227 228 226 225 
226 226 225 226 225 225 225 224 225 225 224 223 224 223 222 224 
223 224 224 225 225 226 224 224 226 226 225 227 227 224 224 221 
224 224 226 165 163 222 223 221 222 221 221 222 221 221 221 222 
220 219 218 227 227 228 227 227 229 228 227 227 226 226 228 212 130 225 228 225 
227 227 225 227 225 226 227 226 226 226 226 225 226 225 221 226 
226 226 227 226 227 227 227 228 227 227 227 228 227 229 227 227 
227 225 224 224 225 225 225 227 225 226 224 226 224 225 225 225 
225 224 225 227 224 225 225 226 225 227 226 227 226 225 226 228 
224 225 227 215 135 199 225 225 222 222 221 222 220 223 224 220 
221 221 220 228 229 231 227 228 229 228 228 226 228 227 196 132 162 228 226 226 
226 226 227 228 224 225 225 225 226 225 225 227 226 226 228 226 
227 226 227 227 227 227 226 229 227 229 230 228 228 227 227 226 
224 225 225 224 226 226 226 225 224 223 224 223 225 224 224 224 
224 225 223 223 225 226 225 227 226 227 227 226 229 229 225 223 
226 225 224 223 193 139 223 223 223 221 223 223 223 222 221 223 
221 221 222 227 228 228 228 228 229 229 227 227 225 190 107 144 220 226 226 225 
226 226 227 227 226 224 226 225 225 227 226 226 226 226 228 228 
226 228 227 227 227 229 228 229 229 229 228 230 228 230 227 229 
227 227 227 226 224 225 226 224 225 224 226 226 224 224 226 225 
224 225 225 227 226 225 225 226 227 227 226 227 228 227 226 225 
226 225 224 223 225 175 162 227 222 222 222 223 222 222 223 223 
224 223 222 230 228 228 228 227 228 230 227 227 222 123 111 216 229 226 228 226 
225 226 227 226 225 226 225 225 226 226 224 227 227 229 229 227 
226 226 229 228 230 228 228 228 229 227 229 228 228 229 227 226 
226 227 226 225 227 225 224 226 225 226 223 225 225 225 225 225 
225 225 225 225 224 226 226 227 229 226 227 226 226 227 227 226 
227 226 225 223 224 218 135 211 224 223 223 223 223 223 223 222 
223 225 222 229 227 227 228 227 227 228 228 226 196 98 188 227 226 227 227 226 
226 228 226 223 224 225 225 225 226 225 224 227 216 220 210 226 
225 227 228 227 228 229 229 228 228 228 229 228 229 230 228 226 
226 227 227 226 225 226 227 225 226 226 225 224 225 223 225 225 
224 225 224 225 227 227 228 227 229 227 227 225 228 227 227 227 
228 228 224 224 224 227 194 158 224 222 224 224 223 223 223 225 
226 225 223 228 227 227 227 227 226 228 228 227 176 218 229 227 226 227 227 226 
226 227 228 226 226 226 226 226 223 222 221 190 119 96 135 166 
224 228 229 228 228 228 229 228 227 226 230 230 230 228 226 227 
227 227 226 226 225 225 226 226 226 226 226 225 224 224 224 222 
223 221 224 220 207 203 223 227 225 227 226 225 225 225 226 226 
225 227 225 225 224 226 225 161 212 225 225 224 225 225 221 223 
225 225 223 228 228 227 228 226 228 229 227 220 176 231 227 227 226 226 228 227 
227 226 225 225 226 227 225 227 225 224 210 118 84 64 81 124 
212 228 229 229 229 228 229 229 228 228 227 228 229 229 227 226 
227 227 227 226 228 227 226 227 225 226 227 228 225 223 223 224 
221 223 219 170 129 132 169 224 226 224 226 226 225 229 227 226 
226 226 225 227 226 225 228 193 167 227 224 224 224 224 223 225 
228 225 224 228 227 227 228 228 227 228 228 190 210 229 228 227 227 228 227 227 
228 228 228 226 226 226 224 224 224 225 164 87 68 65 48 89 
212 228 229 229 228 229 229 229 227 228 228 227 227 227 229 227 
227 227 227 227 225 226 227 227 225 226 226 227 226 226 224 225 
224 223 191 131 138 165 141 196 225 227 226 226 225 226 226 225 
225 226 226 225 227 228 228 220 141 216 225 224 224 225 224 225 
223 224 226 227 227 228 228 226 229 228 226 184 228 227 227 229 227 227 229 227 
228 228 226 224 225 227 227 226 223 211 136 85 62 61 53 97 
215 230 227 228 229 229 230 229 228 228 229 228 228 229 228 228 
227 227 227 227 226 227 226 228 227 226 226 226 225 225 225 226 
224 223 165 126 140 134 150 180 224 226 227 226 226 225 227 228 
225 226 226 224 226 227 226 226 170 177 222 225 225 224 225 224 
225 224 226 227 228 229 229 228 228 227 208 191 226 228 227 227 227 227 227 227 
228 228 228 228 227 225 227 226 222 202 104 83 68 61 51 94 
218 228 228 229 228 229 229 230 229 229 230 229 228 228 229 227 
228 227 226 228 227 226 228 229 228 226 226 226 225 225 224 225 
224 209 147 123 134 132 138 175 222 225 226 226 227 226 226 225 
227 227 226 226 226 227 226 224 216 143 222 224 225 226 225 225 
226 224 224 226 226 227 229 227 225 228 190 219 229 228 229 229 227 228 228 226 
228 227 224 227 226 226 227 226 224 201 108 91 86 67 71 116 
219 229 229 228 228 228 230 229 229 228 228 228 228 228 228 227 
229 229 228 228 227 227 227 228 228 227 228 227 226 223 227 227 
225 198 115 90 132 138 137 178 224 225 226 226 226 227 227 227 
225 226 225 226 226 228 226 224 228 144 206 226 226 226 227 225 
226 227 226 228 226 226 228 229 227 225 177 226 227 228 228 227 228 227 227 228 
228 227 227 226 227 225 228 226 223 196 122 88 96 67 65 157 
224 229 228 228 227 227 228 228 226 229 227 228 228 229 229 229 
229 228 227 227 226 227 226 227 227 228 227 225 229 228 228 227 
225 194 116 95 124 153 129 183 223 225 225 226 228 227 226 225 
227 224 226 224 225 226 229 226 228 185 169 225 226 226 226 228 
226 224 226 228 227 227 226 226 222 213 177 228 227 227 228 228 228 228 228 227 
227 228 227 228 226 228 228 226 225 194 124 96 94 60 83 174 
225 227 229 229 228 228 227 228 229 228 228 229 228 228 227 227 
227 227 229 227 229 227 228 228 227 227 226 226 226 227 228 227 
227 190 121 111 137 136 135 188 222 224 225 226 226 226 226 226 
227 226 224 227 227 226 226 227 225 218 141 222 228 227 226 227 
227 227 226 226 226 226 230 225 225 189 200 227 227 227 229 229 226 228 228 228 
229 226 227 227 227 227 227 228 227 209 137 90 90 63 98 170 
227 227 228 227 228 228 229 229 229 229 229 229 229 229 230 228 
227 229 228 228 228 229 228 228 228 228 228 227 227 226 230 228 
225 182 116 114 135 136 143 202 222 223 224 224 223 225 225 227 
227 228 228 227 226 226 227 228 226 226 157 204 228 227 227 227 
228 226 227 224 226 227 227 225 224 176 215 227 227 229 229 226 228 225 228 228 
227 228 227 227 228 228 227 226 226 217 120 77 72 69 120 195 
225 227 227 227 228 228 229 229 228 229 228 229 228 228 228 232 
229 228 227 228 228 228 227 228 228 229 229 229 230 227 227 228 
226 196 123 108 140 122 149 216 223 223 224 223 225 227 226 225 
227 227 227 226 227 227 227 227 228 225 183 193 226 227 227 227 
228 228 227 227 227 227 226 224 223 158 226 227 225 225 228 229 228 229 227 228 
230 227 226 227 227 227 227 227 225 226 134 79 56 82 143 215 
227 227 227 228 226 226 229 229 230 227 229 230 228 228 228 230 
229 228 227 228 228 227 227 228 228 228 227 229 230 229 227 227 
227 210 116 89 134 127 177 218 223 222 223 224 227 227 228 227 
226 227 227 227 227 227 227 227 228 227 206 166 227 228 227 226 
227 228 227 227 225 227 225 222 223 159 227 229 228 227 228 227 228 228 230 227 
227 229 228 227 227 227 229 227 226 226 175 72 48 86 181 223 
226 226 227 227 226 228 228 229 228 229 229 228 229 230 229 228 
229 230 228 228 228 229 228 228 228 228 229 228 230 230 229 229 
227 229 139 71 93 127 195 220 222 224 224 225 226 228 227 228 
228 228 227 229 228 227 229 226 229 229 229 164 225 228 228 227 
229 228 229 226 226 225 226 225 213 169 226 226 228 228 228 228 227 227 227 230 
229 229 228 229 228 230 230 228 227 227 220 123 130 130 208 224 
225 226 227 227 224 228 228 228 228 228 228 229 226 230 229 228 
228 230 229 228 229 229 229 227 229 229 228 227 227 228 229 229 
228 228 193 98 97 137 210 225 225 225 227 227 228 227 227 227 
226 229 229 225 228 229 230 227 228 229 230 165 217 228 229 229 
227 228 227 227 228 225 226 223 202 181 228 228 227 229 228 228 229 229 229 229 
227 227 228 227 228 228 227 231 225 225 226 219 216 218 223 224 
225 228 227 228 225 228 227 229 229 229 230 230 231 229 229 230 
228 230 229 228 230 226 228 229 227 228 228 228 228 229 228 231 
229 227 231 129 137 174 224 226 226 224 224 226 226 227 227 229 
228 228 229 230 228 228 228 228 228 229 230 167 213 227 229 227 
228 227 230 226 226 225 227 224 188 194 227 227 227 226 228 230 228 229 227 229 
226 228 228 229 228 228 228 226 226 225 227 230 230 225 228 227 
226 225 226 227 225 227 228 228 229 229 229 230 229 230 227 229 
230 230 229 229 228 230 227 228 228 229 229 228 228 228 228 229 
229 228 227 187 149 206 227 227 226 226 225 228 227 227 227 228 
228 228 228 228 228 229 228 228 229 230 226 182 203 228 230 229 
228 229 229 225 225 227 227 224 180 215 228 228 227 229 225 226 227 228 228 229 
229 227 227 227 228 229 229 227 228 227 225 227 227 226 228 227 
227 228 228 225 224 228 229 230 227 228 227 228 229 229 229 229 
229 228 228 229 228 228 228 228 229 228 230 228 229 229 228 227 
228 227 226 231 222 225 227 228 228 230 227 227 228 228 228 227 
228 227 228 228 228 229 228 227 228 230 228 191 201 229 229 227 
228 228 229 227 224 228 227 225 175 217 228 228 227 227 224 229 229 228 228 229 
228 229 229 226 228 230 228 228 226 228 227 227 228 227 227 228 
227 228 228 229 229 227 229 228 228 229 231 229 231 229 230 230 
229 229 228 229 228 228 229 229 229 228 229 229 229 228 229 227 
226 227 226 230 230 228 228 228 227 227 226 227 228 227 228 228 
228 228 228 229 229 229 229 227 230 230 228 204 191 230 230 229 
229 228 228 228 226 225 227 226 163 216 227 227 227 228 226 229 228 227 228 228 
227 227 228 228 229 228 228 227 227 227 227 227 228 227 228 227 
227 225 229 228 229 229 228 230 229 228 230 228 231 229 229 227 
229 229 228 229 230 229 228 229 229 230 229 230 229 226 231 229 
229 228 229 227 229 228 229 227 228 228 228 228 225 228 229 229 
229 231 228 228 228 228 228 228 228 230 230 213 187 228 229 228 
227 228 229 227 227 226 226 225 169 221 228 228 228 228 228 228 229 229 229 229 
229 229 228 229 229 229 228 227 228 228 228 227 227 227 227 227 
228 228 227 229 229 230 231 230 230 230 230 231 231 230 230 231 
229 230 230 230 230 229 230 228 229 231 228 229 229 229 227 228 
230 229 229 229 227 229 228 230 228 229 229 229 230 229 229 228 
228 227 228 229 229 228 226 228 228 229 228 216 187 226 229 232 
229 228 228 229 227 228 224 222 170 224 228 227 228 227 227 226 228 228 226 230 
230 229 228 228 228 227 227 226 226 226 227 228 227 228 230 228 
228 227 228 229 229 227 228 231 230 229 229 229 231 229 229 229 
229 230 230 232 230 230 229 229 230 229 231 229 230 229 230 230 
228 228 229 231 229 229 229 230 229 230 228 229 228 228 230 229 
228 230 229 229 230 229 228 228 228 228 227 199 193 227 231 231 
232 229 228 227 228 226 225 223 168 224 227 228 229 229 229 228 228 229 229 228 
229 228 228 228 228 228 228 228 229 229 227 227 228 226 226 227 
228 228 229 230 229 230 230 229 228 231 230 230 229 229 229 229 
228 230 229 228 229 229 230 231 231 230 229 230 230 230 229 230 
229 228 229 230 229 227 228 228 229 229 229 229 229 229 227 229 
230 228 228 229 229 228 229 229 227 228 228 179 187 227 229 231 
231 232 229 228 227 226 226 224 172 224 228 226 227 227 227 228 229 229 229 228 
229 229 228 228 228 228 228 229 229 228 228 227 228 228 229 230 
227 228 228 228 229 230 231 231 230 229 230 230 230 230 230 229 
230 229 231 231 229 230 231 229 230 230 230 230 229 231 230 229 
230 231 229 229 230 228 230 229 231 229 229 230 231 229 231 229 
229 229 230 228 227 229 231 229 229 229 228 171 200 230 233 232 
232 232 229 228 227 226 228 227 176 220 227 227 227 229 228 228 227 227 228 228 
227 227 229 229 229 228 228 227 231 229 229 229 228 228 228 228 
229 227 230 229 230 229 230 228 229 230 232 230 231 230 231 231 
230 230 230 231 231 230 230 231 230 230 230 230 230 231 230 231 
230 228 230 230 229 230 230 230 230 229 230 230 229 231 229 229 
230 230 229 230 230 230 231 230 228 229 227 177 219 229 230 232 
231 232 229 228 227 227 229 228 183 215 231 227 228 227 229 228 228 230 229 228 
229 229 228 229 229 230 229 228 230 228 227 227 228 228 229 229 
230 230 230 229 230 229 233 231 230 231 231 231 232 230 232 231 
229 229 231 230 231 230 230 231 231 230 230 231 230 231 229 231 
229 230 229 229 229 229 227 227 229 229 227 230 229 229 229 230 
228 229 230 230 229 230 232 231 228 228 226 175 219 229 231 231 
231 229 229 227 226 228 229 227 195 199 230 228 227 227 228 227 229 227 228 228 
229 229 226 228 228 228 229 229 227 229 228 230 226 229 230 229 
229 231 229 229 229 230 230 230 230 232 230 230 231 230 232 231 
230 230 229 231 231 232 230 230 231 230 231 231 230 230 232 229 
231 230 230 230 230 229 230 229 229 229 230 230 229 229 231 230 
229 230 230 230 230 231 233 231 228 228 222 173 218 230 230 230 
229 228 228 227 227 227 229 229 209 182 229 228 227 227 227 228 227 228 228 228 
227 226 226 229 228 227 228 227 228 229 228 227 229 229 228 228 
229 229 230 230 229 229 230 230 231 229 231 230 230 232 231 232 
231 230 230 229 229 230 231 229 230 230 230 230 230 230 229 230 
231 230 230 229 229 229 230 230 231 230 231 229 230 230 229 230 
230 229 228 229 231 231 232 231 228 227 220 177 223 230 231 231 
230 229 230 226 225 228 227 228 217 165 230 228 227 227 228 229 230 226 228 228 
228 227 227 227 228 229 229 229 229 227 227 229 229 229 229 229 
229 228 228 229 229 231 231 231 230 232 231 231 232 231 231 232 
231 231 230 231 231 231 231 231 230 230 230 230 230 230 232 230 
229 231 230 229 230 231 230 229 229 229 229 229 229 229 229 229 
230 229 231 230 230 231 232 231 229 230 207 188 225 229 230 230 
229 229 229 227 227 227 225 228 227 175 227 227 228 227 227 226 224 228 227 228 
228 228 229 229 227 226 229 227 227 229 230 229 229 228 227 229 
228 230 230 229 228 229 231 231 229 229 229 231 232 231 231 230 
232 230 230 232 230 230 232 229 230 230 230 231 230 229 229 231 
231 231 230 231 229 229 230 229 229 230 232 230 229 229 229 231 
230 229 230 230 230 231 233 231 230 230 199 192 228 227 225 230 
229 231 229 226 226 225 226 227 226 179 224 226 228 227 227 227 228 226 227 229 
227 227 228 229 228 230 229 228 227 227 228 227 227 228 228 225 
228 229 228 229 227 228 229 230 230 229 228 230 230 231 232 231 
231 230 231 230 230 230 232 231 230 231 230 229 230 231 230 231 
231 230 229 229 231 231 230 230 230 230 228 229 228 229 229 227 
229 230 228 230 230 231 230 229 227 232 191 201 231 230 231 229 
229 228 228 227 226 224 226 226 225 184 217 226 225 227 228 228 227 226 227 227 
227 227 227 229 228 226 228 228 228 228 229 229 228 227 229 228 
229 227 229 228 228 229 230 230 229 229 228 229 230 229 232 231 
231 231 231 230 230 230 231 231 231 231 230 230 230 230 229 230 
230 229 230 230 230 230 230 230 229 229 229 229 228 229 230 228 
229 230 227 229 227 230 229 227 229 226 184 219 230 230 228 227 
226 229 229 226 226 226 224 225 225 205 188 228 227 228 227 226 229 228 228 226 
229 228 228 226 227 227 226 228 229 227 228 228 229 228 230 229 
230 229 227 228 229 229 228 228 230 229 229 227 230 231 231 231 
230 231 229 231 230 230 230 230 231 231 230 229 230 230 230 230 
228 231 230 230 229 229 229 228 229 230 229 229 229 229 230 228 
229 230 229 229 228 228 229 226 225 209 165 222 229 228 229 231 
226 227 228 225 226 225 226 226 226 222 163 228 227 228 227 227 226 227 227 229 
227 228 227 228 228 229 228 226 227 228 227 228 228 228 228 228 
227 228 229 229 230 229 230 230 229 228 229 229 230 230 229 230 
231 230 230 230 230 230 229 230 231 230 229 231 230 230 231 230 
230 229 229 230 229 229 229 228 230 229 229 230 228 229 229 229 
228 229 229 229 228 230 229 226 229 190 181 226 229 230 229 228 
230 230 228 227 224 226 228 227 226 231 171 220 227 227 227 226 226 228 227 227 
227 224 227 229 229 227 227 229 228 230 228 229 228 227 229 227 
228 228 229 228 229 227 228 229 228 228 228 228 227 227 228 229 
229 229 229 229 229 230 230 229 230 231 231 230 231 231 229 229 
229 229 229 229 229 231 228 230 229 227 230 227 227 227 227 227 
228 229 227 227 227 229 226 228 227 184 199 229 228 229 228 229 
231 230 230 225 225 227 225 224 225 226 200 195 226 227 225 227 227 228 226 228 
228 229 227 227 225 227 228 226 227 228 229 227 226 227 227 228 
228 228 228 228 228 228 227 227 229 227 226 228 226 227 229 230 
231 231 231 233 232 231 230 229 229 230 230 231 231 230 230 230 
232 230 230 229 230 229 230 229 231 231 228 228 229 228 229 229 
229 228 229 229 228 229 226 224 215 173 218 229 229 229 227 228 
229 230 229 224 225 226 225 223 222 225 219 169 230 227 227 227 226 226 227 227 
226 228 227 227 228 228 228 228 227 227 227 228 230 229 230 229 
228 227 228 228 228 227 229 229 229 228 227 226 224 229 228 226 
226 223 221 217 227 231 233 231 230 230 228 230 230 231 231 230 
230 229 229 232 228 230 231 230 229 229 228 230 230 229 228 227 
227 228 229 228 226 229 227 225 190 182 223 230 229 227 228 228 
229 229 228 224 225 223 227 221 223 223 231 171 214 226 227 227 226 227 227 226 
228 227 227 227 226 227 228 228 228 226 228 228 228 228 228 226 
228 228 228 229 229 229 228 231 229 227 227 225 225 213 197 173 
166 174 172 169 164 171 202 231 232 228 230 230 230 231 229 229 
229 230 231 231 229 230 228 232 231 230 229 230 227 228 228 228 
228 228 228 227 228 228 226 223 166 204 231 232 230 227 228 229 
229 229 226 225 225 226 224 226 224 224 224 202 177 229 227 227 227 226 227 229 
228 228 227 228 228 229 229 228 229 229 228 228 228 227 228 228 
227 229 228 228 229 227 228 230 230 229 228 226 207 173 188 214 
219 224 225 224 221 217 172 176 230 230 230 232 231 230 232 231 
230 230 232 231 231 229 231 231 230 230 230 228 227 228 228 228 
227 229 227 228 229 226 227 208 181 222 225 229 230 229 228 228 
226 227 226 224 225 226 224 223 224 224 226 224 167 229 228 225 226 228 226 227 
228 227 227 226 227 228 226 229 228 229 228 229 229 228 228 228 
229 226 228 227 227 229 228 229 229 230 230 209 180 208 224 227 
228 229 228 231 231 230 234 189 187 232 228 229 230 232 231 230 
231 231 231 230 231 230 228 229 230 231 230 229 229 229 229 228 
229 228 229 227 229 226 229 181 177 227 229 228 229 228 229 227 
226 227 226 223 223 224 226 225 223 224 224 227 182 188 226 226 228 227 227 227 
227 226 226 225 227 227 228 229 227 227 228 228 227 228 229 229 
228 228 229 228 229 228 228 228 227 220 202 175 213 225 229 227 
226 227 227 229 228 228 228 233 160 228 229 231 230 230 231 231 
232 233 232 230 230 229 230 231 230 229 231 231 228 229 229 227 
227 227 229 229 227 230 213 161 208 229 228 229 228 228 230 228 
228 227 228 226 226 224 224 224 226 224 224 225 223 155 223 226 225 225 224 225 
226 228 228 226 228 228 227 228 230 227 227 227 228 229 229 229 
229 229 228 230 229 227 228 226 227 161 166 213 229 226 226 226 
226 226 226 229 228 227 227 228 190 206 229 229 231 231 231 231 
232 232 229 229 230 228 228 228 228 230 230 231 229 227 228 227 
225 225 229 229 226 222 177 178 222 228 228 229 228 228 230 229 
227 229 227 226 226 224 226 225 225 225 226 226 227 193 180 225 226 227 226 226 
228 229 229 227 227 228 229 228 228 228 228 228 227 227 228 227 
227 229 228 229 228 226 228 229 217 143 202 228 226 226 228 226 
227 227 228 225 228 225 229 231 207 176 229 229 230 230 230 231 
230 232 232 232 230 230 230 229 230 230 230 229 229 228 227 229 
230 229 227 230 223 212 169 204 226 229 229 231 230 230 230 229 
229 229 229 226 225 226 225 225 224 224 226 226 225 224 160 212 226 225 226 225 
226 225 228 228 229 228 228 229 229 229 228 228 228 229 227 228 
228 228 227 228 230 226 228 229 195 159 221 226 226 226 226 228 
228 228 228 227 226 227 227 228 206 158 231 229 231 230 231 230 
230 230 231 229 229 230 228 230 230 230 229 230 229 229 228 227 
231 230 229 227 227 194 178 223 229 229 229 230 231 229 231 231 
230 228 228 226 224 226 225 227 226 227 225 225 227 225 210 167 228 226 225 226 
227 226 227 228 228 229 228 227 228 227 228 227 227 227 229 227 
228 228 228 228 228 228 228 229 204 189 223 227 225 229 229 227 
227 227 229 229 225 227 226 227 183 162 231 231 230 229 229 231 
230 230 230 230 231 231 230 228 229 229 230 226 227 229 230 228 
228 229 229 230 206 174 208 233 229 228 230 230 230 230 230 230 
231 226 227 226 225 224 226 226 223 227 226 226 229 227 229 179 191 227 226 225 
225 226 227 227 227 228 229 229 229 228 229 229 228 227 228 226 
228 229 228 228 227 229 228 229 225 180 232 229 225 229 229 229 
225 227 228 226 227 227 225 223 163 192 228 229 231 230 231 230 
229 231 230 231 230 231 229 228 229 229 229 229 228 227 227 228 
228 227 227 223 184 192 226 228 227 228 228 229 229 230 230 229 
230 227 227 224 225 227 227 227 224 226 227 226 226 229 228 218 164 209 227 227 
226 227 228 227 228 227 228 229 230 230 227 229 228 228 229 227 
228 228 229 227 228 229 227 229 227 208 207 231 229 228 228 227 
226 227 226 226 226 226 227 213 150 211 231 230 228 230 229 230 
229 230 232 231 228 229 229 228 229 227 228 229 225 228 228 228 
224 225 229 211 181 217 228 229 228 228 228 229 230 230 230 231 
232 228 227 228 226 226 225 226 226 227 226 225 228 227 227 225 211 172 224 227 
227 227 227 230 228 229 228 228 229 229 229 229 227 229 228 227 
228 228 230 228 227 230 227 227 227 227 202 200 229 230 228 228 
226 226 226 225 226 227 227 167 170 226 228 230 230 230 231 229 
230 229 229 230 229 229 227 227 226 229 229 227 229 227 228 226 
225 225 218 174 202 225 229 227 229 229 228 229 229 230 229 230 
230 228 228 226 226 225 230 225 227 226 227 225 223 227 227 225 229 199 189 228 
227 224 226 225 228 228 226 225 229 228 228 229 227 227 228 228 
228 228 227 227 227 228 228 228 228 227 229 208 184 222 228 229 
232 227 227 229 228 225 192 122 199 228 229 229 228 229 229 230 
230 230 229 229 229 228 229 229 229 228 229 228 227 228 227 225 
226 217 190 187 218 228 226 228 228 228 229 229 228 229 231 229 
229 229 227 227 227 226 227 225 225 226 226 226 227 227 224 225 224 223 177 198 
227 226 226 226 229 228 228 228 230 229 228 229 228 228 228 227 
227 228 228 226 228 227 227 228 227 227 227 231 213 177 176 194 
207 219 217 219 207 160 139 185 225 227 228 229 230 231 230 229 
229 230 230 229 229 228 230 230 227 228 228 227 226 229 229 226 
229 199 184 217 226 226 227 228 227 227 228 230 232 231 230 230 
231 229 228 227 229 227 226 227 226 226 225 227 225 225 224 224 227 227 225 171 
197 228 229 226 227 227 228 228 228 228 228 229 228 228 226 228 
228 227 227 228 229 229 228 228 227 227 226 223 231 225 215 211 
185 165 160 158 158 179 204 223 230 228 229 229 228 230 231 229 
230 230 228 230 229 232 232 228 229 225 225 225 226 227 227 230 
205 179 218 224 226 228 227 227 228 228 229 229 228 228 229 229 
230 230 231 229 228 226 227 227 226 226 227 228 226 226 224 225 226 227 227 222 
166 201 226 227 225 228 227 229 228 228 227 229 228 228 228 227 
227 227 228 228 227 227 227 228 228 227 228 228 226 227 230 229 
229 221 217 219 220 223 226 227 229 228 226 230 230 231 229 230 
228 228 229 229 230 228 230 229 230 228 227 227 226 227 226 211 
178 211 225 226 224 228 228 229 227 229 228 230 230 228 228 229 
226 229 229 226 226 228 227 225 226 226 224 228 226 226 226 228 227 226 227 229 
221 168 194 227 226 225 228 226 228 228 227 227 228 228 228 228 
228 229 226 228 227 228 228 230 227 227 227 226 225 226 227 226 
227 228 227 228 228 226 228 229 228 227 230 231 229 230 229 229 
228 229 229 230 229 229 230 229 229 226 224 226 226 223 196 185 
210 224 226 225 225 226 227 229 228 228 228 226 227 228 229 228 
228 228 228 228 227 227 226 227 225 228 227 226 227 226 228 226 227 227 228 225 
228 217 163 190 228 230 227 227 227 229 228 228 229 229 227 227 
228 228 227 228 228 228 228 228 228 228 227 228 227 226 227 227 
225 227 228 228 228 227 229 230 229 230 229 229 229 228 229 228 
228 228 229 227 230 229 227 227 227 226 226 227 229 208 163 207 
223 226 226 225 228 227 228 229 230 230 228 227 229 228 228 228 
228 227 229 224 226 227 228 227 227 227 227 227 227 227 226 227 225 226 227 226 
227 226 220 164 185 226 227 226 227 226 226 227 228 228 228 228 
227 226 226 228 228 228 228 229 228 228 229 229 228 228 227 227 
228 227 229 229 228 228 228 230 229 228 229 230 229 231 229 228 
229 229 231 229 227 228 229 228 226 227 227 225 195 171 203 226 
226 224 228 227 229 229 228 229 231 231 228 229 230 229 230 229 
227 228 226 226 227 226 227 226 225 227 228 228 227 227 226 224 227 226 227 227 
226 224 229 218 167 178 225 229 226 227 228 227 226 227 227 227 
228 228 229 229 228 228 228 229 227 229 228 228 232 229 230 227 
227 227 226 226 228 229 229 228 228 228 230 229 228 230 229 229 
228 227 223 228 228 228 227 226 226 228 224 183 167 211 224 227 
226 226 226 227 225 226 228 228 230 228 231 227 228 229 229 229 
228 227 224 228 228 228 227 227 226 226 227 226 227 227 227 227 227 227 228 228 
228 229 228 229 222 186 149 218 230 229 227 226 228 226 226 225 
226 228 228 228 228 229 228 229 229 228 230 230 230 229 229 228 
228 227 228 227 228 227 228 227 228 229 228 228 227 230 229 231 
230 228 229 227 228 229 227 227 229 219 183 176 215 225 226 225 
226 226 226 226 227 227 227 227 227 227 228 229 228 229 228 227 
228 226 228 227 227 226 230 227 228 228 226 227 228 228 226 226 227 227 227 227 
228 229 226 222 224 227 209 161 196 230 228 227 226 227 228 228 
226 227 227 227 228 228 229 228 228 228 228 228 231 228 229 227 
228 229 227 228 227 228 229 229 228 227 227 227 226 228 231 230 
229 230 227 227 228 229 229 228 212 174 198 221 227 227 227 224 
224 226 226 227 227 228 228 227 227 227 227 229 227 227 228 229 
229 228 227 227 227 228 226 227 226 226 226 228 227 225 228 227 228 227 226 227 
228 227 229 224 222 225 229 222 174 173 219 231 229 228 226 226 
225 226 226 226 227 227 227 227 226 228 229 226 230 231 228 227 
227 228 227 227 227 227 228 227 228 228 227 227 228 229 228 229 
227 226 225 226 232 230 209 179 178 212 228 227 226 228 228 225 
224 227 226 223 225 228 226 226 228 228 231 228 226 227 227 229 
230 227 228 228 227 226 226 227 228 227 227 227 227 227 227 228 226 226 226 227 
226 228 228 227 225 223 225 230 223 206 168 179 218 228 230 229 
226 226 226 226 225 226 226 227 227 227 226 227 227 226 226 226 
227 227 227 227 226 225 227 227 228 226 227 226 226 227 228 229 
229 228 228 226 213 179 164 201 224 227 226 227 227 227 229 228 
227 229 224 228 227 227 227 228 228 228 229 228 227 227 227 228 
230 227 227 228 228 227 228 227 226 227 227 227 227 227 227 226 227 226 227 226 
227 228 227 224 224 225 227 227 227 229 225 198 167 168 212 227 
227 225 228 226 225 226 226 226 225 225 226 225 225 225 226 224 
226 228 226 226 225 225 227 228 229 227 227 228 225 227 229 229 
229 223 204 172 154 187 219 227 228 227 227 228 227 228 229 227 
225 227 225 226 227 227 227 227 229 229 229 228 228 229 228 228 
229 226 227 227 227 227 227 228 229 227 227 226 227 227 227 227 229 227 227 227 
227 225 227 225 224 227 228 228 228 228 228 230 219 195 148 164 
198 225 225 224 225 226 225 226 227 225 225 219 224 223 224 225 
225 226 225 225 226 224 225 225 226 226 227 228 228 228 228 224 
212 178 152 182 218 227 228 225 225 227 227 227 229 227 230 228 
226 227 227 225 226 227 228 226 227 229 229 227 227 223 230 226 
228 227 226 226 228 226 227 226 227 226 225 226 227 226 228 227 228 227 227 227 
228 227 227 227 227 226 227 226 228 227 227 225 227 227 222 199 
167 149 168 193 211 226 227 228 228 228 224 226 226 223 226 225 
225 226 225 225 227 224 226 225 226 229 230 229 220 207 162 153 
146 187 217 226 228 229 227 228 228 225 227 225 226 227 226 228 
227 225 225 227 226 225 225 228 226 228 226 227 228 228 226 225 
227 227 228 228 227 227 227 225 227 227 228 228 227 226 226 228 227 226 227 227 
227 227 226 227 226 226 227 226 228 229 227 228 226 227 228 228 
225 218 193 177 160 169 203 219 221 224 227 227 226 226 225 226 
227 227 225 228 230 229 225 225 226 210 201 184 155 168 170 203 
221 228 229 228 227 228 227 225 227 227 227 226 227 229 228 226 
227 227 225 224 224 226 225 226 227 227 227 226 223 226 229 228 
226 228 227 227 227 227 227 228 227 227 226 225 227 227 226 226 227 227 225 226 
227 226 226 226 227 225 224 227 227 228 229 228 226 224 226 227 
225 228 227 225 216 206 193 177 176 169 178 155 174 196 192 194 
192 193 203 203 186 187 178 180 161 160 167 191 215 225 228 227 
229 224 226 228 227 227 228 227 227 226 227 227 227 226 227 229 
227 227 226 225 225 224 225 225 227 225 225 225 228 226 228 226 
226 230 226 227 226 227 227 227 226 226 227 229 227 225 226 228 228 228 226 226 
224 227 227 227 224 226 226 227 228 228 228 227 225 225 227 226 
225 225 226 225 226 228 228 222 223 212 204 159 141 138 142 134 
135 154 174 184 188 199 207 205 213 224 226 231 228 228 226 225 
226 225 226 226 226 228 229 230 228 224 226 226 225 226 226 225 
228 228 227 226 225 225 226 227 228 226 226 227 226 225 226 225 
226 227 226 225 225 227 228 227 227 227 227 225 227 227 227 225 226 226 227 228 
228 226 227 225 227 224 226 226 225 228 226 226 225 226 225 225 
227 227 224 225 225 226 224 227 225 228 230 225 222 220 216 214 
217 223 224 223 226 227 229 228 230 229 227 227 227 226 225 226 
223 224 224 225 226 226 228 227 228 227 225 226 226 227 227 228 
226 225 225 227 226 227 226 225 226 227 227 226 226 226 226 227 
228 228 227 226 227 228 227 227 227 227 226 227 225 226 226 227 226 226 227 227 
225 228 227 227 227 225 225 226 227 226 225 225 225 227 226 224 
226 225 228 226 227 228 227 227 225 226 226 227 227 227 225 226 
225 227 227 225 227 224 223 225 228 227 224 227 228 226 227 226 
227 227 225 227 225 225 226 225 226 225 226 226 226 227 226 225 
226 227 225 226 225 224 224 223 226 226 225 225 226 224 227 226 
228 229 226 227 224 227 225 227 225 226 227 227 226 227 227 227 228 225 226 226 
226 225 227 225 226 227 225 226 224 226 226 225 225 225 225 225 
225 226 227 226 225 227 227 224 224 225 227 227 225 225 224 225 
225 222 223 224 225 225 224 226 227 225 228 227 227 226 226 226 
228 225 225 224 228 227 227 226 226 227 224 224 225 224 226 227 
228 226 225 221 224 225 224 224 226 227 225 225 225 225 228 224 
225 226 227 225 225 225 225 226 226 225 225 225 226 225 226 226 226 226 225 224 
225 226 228 227 225 227 225 225 226 227 225 224 225 225 225 226 
226 225 227 224 225 227 228 227 226 225 223 226 227 225 226 224 
225 224 224 224 227 224 223 223 224 227 227 228 228 227 226 226 
226 226 227 227 222 224 225 225 222 224 224 224 226 226 225 226 
228 227 226 226 224 225 224 224 225 227 226 226 225 226 227 229 
227 224 228 225 224 227 226 224 224 225 225 226 226 226 226 227 228 227 229 226 
224 227 226 226 226 226 226 225 226 227 227 227 227 227 226 225 
226 227 226 226 227 227 228 225 225 223 225 224 225 228 226 225 
222 223 226 225 225 224 224 225 228 226 227 227 226 225 228 226 
226 225 226 226 225 226 226 226 226 226 225 227 224 226 226 224 
227 228 227 226 223 225 224 224 227 228 225 226 226 226 226 228 
224 224 227 224 226 226 226 226 228 226 225 226 226 227 226 227 226 228 224 226 
226 225 226 226 227 226 227 226 225 226 227 226 226 225 226 226 
226 225 225 226 226 226 227 225 226 225 224 225 224 223 226 227 
225 226 225 225 226 226 224 225 225 227 227 225 226 228 223 225 
226 226 224 227 226 225 226 225 225 225 225 225 227 226 228 229 
225 227 226 225 227 225 222 223 224 225 225 225 225 223 226 225 
226 226 226 