P2
# Created by IrfanView
100 100
255
235 236 236 236 235 236 234 235 232 234 234 231 232 232 233 235 237 
240 241 240 241 241 240 241 242 240 242 241 242 241 241 240 242 
241 241 242 242 242 241 241 242 242 242 243 245 243 246 249 250 
248 250 250 250 251 251 251 252 251 250 253 251 250 249 249 249 
248 248 249 248 249 249 248 246 248 247 247 247 248 248 246 247 
248 246 246 246 248 249 250 251 251 250 250 250 251 249 248 250 
249 247 248 235 236 237 236 236 235 234 234 233 234 233 232 233 233 233 233 237 
239 242 242 242 242 240 241 240 239 239 241 242 243 242 241 241 
241 241 241 242 242 241 242 242 242 242 243 243 247 245 248 249 
249 250 251 249 250 251 252 251 250 250 253 249 249 249 248 249 
248 249 248 248 249 249 249 246 248 249 248 249 248 248 248 247 
247 246 243 246 249 250 250 251 250 250 250 249 249 249 248 249 
248 248 249 235 235 236 236 235 236 234 234 235 235 235 232 233 234 234 234 237 
240 240 241 241 239 242 240 240 240 242 240 242 242 240 242 242 
243 244 243 242 241 244 241 240 240 242 243 242 241 243 247 249 
249 248 249 250 251 250 252 252 252 252 252 249 249 249 248 249 
248 249 249 248 248 248 248 247 248 249 249 249 249 247 249 248 
248 248 246 248 250 250 250 250 249 249 250 249 250 250 249 249 
248 248 248 236 237 238 236 235 236 236 234 234 233 233 233 233 234 234 235 238 
238 240 241 242 240 241 241 242 241 239 239 238 240 241 242 242 
239 242 244 242 240 242 241 239 240 240 241 241 242 244 244 247 
248 249 249 249 250 251 251 253 252 251 252 249 248 250 247 250 
248 248 249 249 248 248 249 249 249 250 249 249 249 249 249 249 
249 249 249 248 249 251 251 250 250 251 251 248 247 249 249 250 
249 248 249 235 235 237 235 236 236 236 235 234 234 234 232 233 233 233 234 237 
238 239 239 241 240 239 241 240 240 237 241 239 239 240 241 240 
241 241 240 241 241 239 239 239 240 241 241 243 243 246 247 247 
249 250 251 249 250 251 253 253 252 252 251 250 248 248 249 249 
247 248 249 249 249 248 247 248 249 247 249 249 249 251 250 249 
250 251 250 249 251 251 251 251 250 250 252 251 250 249 249 249 
250 249 250 234 235 234 236 236 236 236 236 235 236 234 233 234 235 235 236 235 
236 238 237 240 240 240 240 238 240 237 239 240 239 240 241 238 
240 240 241 240 240 242 241 240 239 240 230 227 216 211 205 214 
209 206 206 211 222 226 240 246 249 253 253 252 248 248 248 248 
248 249 248 248 248 249 248 248 248 248 249 250 250 251 249 249 
249 251 250 249 251 251 251 250 250 250 251 251 250 250 249 251 
250 250 250 235 235 235 233 233 236 236 236 236 234 236 235 232 234 234 234 236 
235 238 237 240 240 239 240 239 238 238 238 239 238 240 239 238 
239 241 241 243 243 240 228 209 202 194 195 195 208 222 232 230 
231 238 229 219 218 219 198 202 217 220 231 248 252 249 250 249 
248 248 247 247 248 247 248 246 248 249 250 250 249 250 249 248 
249 250 251 250 251 251 250 252 251 251 250 250 249 250 251 248 
250 250 250 239 238 239 236 239 238 235 237 237 234 235 234 234 234 234 235 235 
235 235 239 240 240 240 238 238 237 238 237 238 237 237 240 239 
240 242 237 220 198 193 195 213 222 239 245 243 242 244 243 242 
245 247 247 248 249 250 251 250 246 244 236 222 222 227 238 243 
247 250 249 249 249 248 248 247 247 248 250 250 249 250 251 249 
250 251 251 251 250 251 251 251 252 251 251 250 249 250 251 250 
249 249 250 238 238 239 239 239 237 238 234 236 235 235 235 236 235 235 234 235 
235 237 237 239 239 238 238 236 237 237 236 235 238 238 240 240 
224 195 192 214 227 244 241 246 241 242 243 242 242 242 242 242 
244 246 246 247 246 247 249 250 251 250 251 251 245 230 221 209 
216 238 248 249 249 248 246 248 248 249 249 249 250 250 249 249 
251 251 250 252 253 252 252 252 252 252 251 251 250 250 249 249 
250 250 249 237 238 239 238 238 237 236 237 236 234 235 237 236 236 234 234 236 
235 237 237 237 237 237 236 236 235 234 236 236 239 240 221 180 
172 215 243 246 246 246 243 243 243 243 242 242 242 242 244 246 
246 247 247 247 249 248 248 250 250 249 250 249 251 252 249 245 
227 202 206 224 243 248 248 249 247 249 249 250 250 251 250 250 
252 252 252 251 252 251 251 251 251 253 251 250 251 250 250 251 
250 251 249 238 238 237 239 235 237 238 236 236 236 235 237 236 235 234 234 236 
236 237 239 238 238 238 236 238 238 237 237 236 225 174 176 224 
243 243 244 244 240 243 243 244 244 244 245 244 243 244 244 246 
246 247 248 248 248 246 248 249 249 248 248 248 249 250 249 252 
250 247 234 202 189 219 240 247 249 250 249 250 249 249 249 249 
251 250 250 250 251 252 252 252 251 251 250 250 250 250 250 251 
250 251 249 239 239 235 239 239 239 237 235 236 235 235 235 237 239 236 235 236 
237 239 235 236 235 236 235 235 237 241 234 201 176 215 241 243 
242 241 242 242 243 244 243 243 245 243 244 244 244 246 247 247 
247 247 248 249 247 248 248 249 249 249 248 249 249 249 250 249 
248 248 250 249 230 203 195 222 246 249 249 249 249 249 249 250 
251 251 250 250 251 252 252 252 251 251 251 251 250 251 250 250 
250 250 251 239 239 238 238 238 238 238 238 236 233 235 239 238 238 240 237 237 
237 236 235 235 234 236 236 236 237 220 174 196 241 242 242 239 
240 243 243 244 244 245 245 243 243 244 244 244 245 246 247 246 
247 248 248 249 247 247 249 249 250 249 249 248 249 249 249 251 
248 248 249 248 249 242 227 198 202 230 247 250 249 250 250 250 
251 250 251 251 251 251 251 251 252 251 251 252 251 250 250 250 
250 251 251 240 241 240 240 239 239 237 238 237 234 236 238 238 237 237 238 238 
236 236 236 237 237 237 240 238 188 183 232 241 240 240 240 240 
240 243 243 244 243 244 243 245 245 246 245 246 245 245 245 246 
245 245 247 247 249 248 248 249 249 248 249 248 249 249 249 251 
249 250 249 248 248 249 249 242 216 196 209 242 250 250 249 250 
251 249 250 251 251 252 252 252 252 252 249 251 252 252 251 249 
250 250 251 240 241 241 239 240 239 238 238 236 235 237 236 238 240 238 236 236 
237 237 234 235 236 237 234 176 182 240 242 241 239 240 241 241 
242 243 244 244 243 245 244 245 246 244 247 245 243 245 246 246 
245 244 247 247 248 249 248 248 249 250 249 250 250 248 250 249 
250 251 247 247 248 249 246 248 248 239 208 194 236 250 251 250 
250 250 251 251 251 253 251 251 252 252 251 251 250 250 250 250 
250 251 251 242 242 241 240 241 240 239 237 238 236 235 236 239 238 236 238 236 
238 239 238 237 242 226 175 217 242 242 242 241 240 240 241 241 
241 242 243 243 244 246 247 246 247 246 244 244 244 245 245 246 
244 245 245 248 249 249 248 249 249 250 248 249 250 249 248 249 
249 250 249 247 247 247 248 247 247 248 244 218 196 221 249 248 
250 251 252 252 250 253 252 253 251 251 251 251 253 252 251 251 
251 251 251 240 241 242 241 239 239 238 238 238 237 239 238 238 236 238 237 237 
235 238 238 240 215 181 226 242 242 240 240 238 240 241 241 241 
242 240 243 243 244 246 247 246 245 247 245 244 243 245 244 244 
244 241 244 245 247 246 246 247 248 250 249 250 250 250 250 249 
250 248 249 249 249 247 247 248 246 246 249 250 245 208 215 247 
251 249 251 250 250 251 251 251 252 250 252 251 251 250 251 250 
251 252 251 240 240 242 241 240 240 240 240 240 239 237 237 239 238 240 235 236 
236 240 239 216 183 239 241 242 243 241 240 240 241 243 242 242 
242 241 243 244 245 246 243 246 245 245 246 246 243 247 244 244 
244 245 247 246 247 246 247 248 248 250 248 248 249 250 250 250 
250 249 251 250 249 248 247 247 246 248 249 247 248 249 210 205 
244 253 251 251 251 252 251 251 251 251 251 251 250 250 250 251 
250 251 251 241 242 241 242 241 240 240 240 238 239 238 237 235 237 239 239 238 
238 230 199 187 239 242 239 239 239 242 240 242 242 243 242 241 
241 242 243 243 244 245 244 244 247 245 244 244 244 244 245 245 
245 245 247 248 247 248 247 248 246 248 250 251 249 250 249 250 
250 250 248 250 250 248 248 247 247 248 248 245 248 250 251 219 
194 239 249 250 251 252 251 251 251 251 250 251 251 251 250 251 
251 251 250 238 240 241 241 242 241 240 239 240 240 239 240 239 239 239 238 239 
227 119 157 242 240 241 242 240 244 240 243 240 243 243 241 241 
241 243 243 243 244 246 245 245 245 245 246 247 245 242 244 244 
244 246 246 245 245 247 247 247 248 249 249 248 250 248 248 249 
250 248 250 248 251 249 248 248 248 246 248 246 248 246 248 248 
238 192 241 250 251 251 251 250 251 252 251 251 251 252 250 251 
251 249 251 239 240 241 240 241 240 240 239 240 239 236 238 238 238 239 238 236 
199 148 238 239 238 242 242 240 237 241 242 242 243 243 243 242 
242 241 241 242 245 244 244 246 246 246 245 245 243 245 245 245 
245 246 247 246 245 248 247 249 247 248 248 247 247 248 247 249 
249 250 250 250 249 249 248 248 248 248 247 246 246 247 246 246 
249 220 192 243 249 251 250 250 251 251 251 251 250 251 251 251 
251 251 250 238 239 240 241 239 240 239 239 238 238 237 239 241 238 235 237 206 
128 222 242 242 242 241 241 239 239 241 241 240 242 242 242 241 
241 241 241 244 245 244 246 244 246 244 245 244 244 244 244 246 
245 246 247 246 246 246 246 247 248 249 247 246 249 247 249 249 
250 250 249 249 249 249 249 248 249 248 248 245 247 245 247 248 
247 250 215 204 245 250 251 250 250 251 251 250 251 251 250 251 
251 251 251 241 240 240 242 240 240 239 239 239 238 239 239 238 239 236 229 167 
213 243 240 242 242 241 241 241 238 240 241 241 242 243 243 244 
243 241 242 240 243 244 246 245 246 245 242 245 247 244 246 247 
246 246 246 245 245 246 247 247 248 248 244 246 246 247 248 250 
250 249 249 249 248 249 248 250 249 247 246 248 248 247 247 246 
247 248 251 217 214 248 250 250 251 251 251 250 251 250 249 249 
250 249 248 241 239 240 240 240 241 239 238 238 237 235 236 237 237 238 192 229 
242 240 240 240 241 237 242 241 240 238 240 241 242 242 242 241 
242 243 242 243 244 244 243 244 245 248 244 244 244 244 245 243 
247 246 246 246 245 245 246 248 248 247 246 246 246 247 248 247 
251 251 249 249 250 248 248 247 248 248 248 248 248 248 247 246 
248 248 249 250 203 235 251 250 250 250 250 250 250 250 250 250 
248 250 249 241 239 240 239 238 239 239 240 238 236 235 237 238 240 209 207 243 
242 240 240 240 241 239 241 239 240 240 242 241 241 244 242 242 
242 242 243 241 244 243 245 243 243 245 246 245 245 244 245 244 
246 246 247 247 244 246 245 247 248 246 246 246 247 248 249 247 
248 250 249 248 249 249 250 250 248 249 249 249 249 247 248 248 
248 247 248 248 239 196 244 250 250 250 250 250 249 249 249 250 
252 250 250 239 242 240 239 240 241 239 237 238 238 237 235 235 229 192 241 242 
241 241 241 241 241 241 240 242 240 242 240 239 242 242 243 241 
242 243 243 242 243 244 243 244 244 244 244 243 245 244 244 245 
245 247 246 245 245 245 244 243 246 247 245 247 248 247 248 250 
249 249 249 249 248 249 249 249 249 249 249 250 248 249 249 248 
248 248 246 247 250 212 207 248 248 250 251 250 249 250 249 251 
250 250 250 241 238 237 237 239 239 239 238 238 236 237 235 237 185 230 243 241 
241 240 241 242 241 241 241 241 241 241 241 241 242 242 241 243 
241 241 241 240 241 243 243 245 246 245 246 244 245 243 244 243 
243 246 246 246 245 244 243 242 244 245 247 246 248 249 248 249 
249 249 248 249 249 248 249 249 249 248 249 249 249 249 248 249 
248 249 247 248 248 239 188 228 251 249 249 249 250 250 249 249 
248 250 250 240 238 238 238 238 239 237 238 237 239 238 236 221 208 242 242 241 
241 240 240 241 241 239 240 241 241 241 242 240 241 241 242 240 
243 242 242 241 242 243 244 246 245 245 245 244 244 244 243 244 
244 242 246 246 244 246 245 243 244 247 246 248 248 249 249 250 
249 248 248 248 248 248 248 249 248 249 249 249 249 248 247 249 
249 248 249 249 246 250 225 191 247 250 249 249 249 249 249 249 
250 250 250 241 240 240 239 240 239 237 236 238 237 238 236 182 240 240 242 242 
241 239 240 240 241 240 240 241 241 241 240 240 241 240 241 241 
241 241 241 242 241 242 243 245 245 243 244 244 243 242 245 245 
245 242 245 247 245 245 244 241 245 247 249 248 250 249 249 248 
248 248 248 248 248 248 248 247 248 248 248 249 248 248 249 248 
249 248 249 249 248 249 252 201 225 247 248 249 249 250 249 249 
247 250 249 241 241 240 240 239 239 239 238 237 237 238 215 216 239 238 240 240 
241 238 242 240 240 241 239 242 239 241 241 241 238 239 244 241 
240 244 241 242 242 241 243 245 245 245 245 245 243 243 243 245 
244 243 242 243 244 245 244 243 246 247 249 249 249 248 248 248 
248 248 248 246 247 247 249 248 248 248 249 250 250 249 249 248 
248 248 249 248 248 249 252 237 195 243 247 249 248 250 250 250 
250 249 249 241 241 240 241 239 238 238 239 238 236 238 185 241 240 241 242 242 
239 240 240 241 238 241 240 241 240 239 239 240 241 244 225 167 
238 241 243 242 242 240 242 244 244 246 245 245 243 243 244 244 
243 243 241 242 245 243 244 245 246 248 246 248 249 248 249 248 
247 247 247 246 244 246 250 249 246 246 249 249 249 249 248 249 
250 249 248 248 250 248 250 250 199 216 248 248 249 250 250 249 
248 250 248 241 241 239 240 237 239 237 238 238 234 219 212 239 239 240 240 241 
239 239 240 239 238 239 239 239 238 238 236 241 239 214 158 170 
198 241 242 240 241 240 244 243 244 242 245 243 243 243 245 244 
243 242 243 241 244 243 244 245 246 247 248 246 247 247 246 246 
248 247 245 247 248 245 232 235 245 246 248 248 248 249 247 247 
248 247 248 250 247 248 249 250 237 187 248 249 251 248 248 250 
249 248 248 240 240 239 240 239 239 237 236 235 234 191 237 239 240 242 241 241 
240 240 240 240 238 239 239 239 238 238 241 235 187 188 233 248 
190 209 244 243 243 242 241 244 245 244 244 243 240 246 245 245 
243 243 243 243 245 244 244 245 245 245 247 248 247 247 247 247 
247 246 247 247 236 190 201 204 246 249 249 249 248 249 249 248 
248 249 248 249 249 249 250 249 250 207 220 249 248 249 246 250 
250 249 250 240 241 239 240 239 240 239 240 235 230 208 240 239 240 240 240 240 
240 239 238 238 239 236 236 239 239 239 196 161 214 245 240 242 
243 170 226 243 243 239 243 245 245 244 243 242 244 245 246 245 
244 245 244 244 244 244 244 245 244 245 245 247 246 242 246 246 
247 247 245 220 171 207 248 210 234 246 248 249 250 249 249 248 
249 249 249 249 249 249 250 249 250 236 189 241 250 249 249 249 
250 250 250 241 240 239 239 239 239 240 239 234 204 227 238 240 241 240 240 239 
240 240 239 238 237 237 236 237 237 171 184 236 242 243 239 241 
242 237 166 227 243 242 243 243 245 243 245 245 243 246 245 245 
245 242 243 246 244 244 244 241 245 244 244 246 245 245 245 244 
246 242 190 186 240 250 247 240 205 247 248 248 249 250 250 249 
249 248 249 248 248 249 250 247 249 250 197 219 249 249 250 249 
249 250 250 240 241 240 239 239 238 238 238 235 209 241 238 240 241 240 240 240 
238 239 239 238 238 238 235 234 195 200 241 243 240 240 238 240 
239 241 227 166 239 243 242 244 245 244 244 243 243 245 245 245 
245 245 246 245 244 243 241 242 243 244 244 245 245 244 244 246 
236 176 197 250 251 248 248 249 219 207 246 249 249 248 248 249 
249 250 248 248 249 249 249 249 249 251 226 191 249 249 249 249 
250 250 249 241 240 241 240 239 239 238 237 222 211 239 239 240 238 237 240 240 
240 239 239 238 239 237 235 178 188 243 242 242 240 241 241 240 
241 240 246 219 228 243 242 241 242 244 244 245 244 244 246 245 
244 244 244 244 244 243 242 242 244 244 243 244 246 245 244 237 
171 211 250 248 248 248 247 247 244 201 194 229 250 246 249 248 
249 249 250 248 248 248 249 249 248 248 244 184 232 247 249 249 
249 249 249 241 240 239 239 239 239 240 236 201 232 240 240 240 239 235 239 242 
241 241 240 240 239 238 240 219 242 242 242 241 241 241 240 241 
240 241 240 243 242 241 241 243 245 244 246 244 245 245 245 245 
245 244 243 244 243 243 242 242 243 243 243 244 245 245 235 173 
218 249 247 246 245 248 248 246 243 246 233 181 224 247 246 249 
247 248 248 249 248 248 248 248 248 248 250 197 214 248 248 248 
248 248 248 240 242 242 239 240 240 239 234 189 240 240 239 237 238 237 237 240 
240 240 239 240 239 240 239 243 242 241 242 242 241 241 241 241 
241 242 242 242 242 239 240 242 242 244 244 244 246 246 243 243 
243 244 244 243 243 244 241 243 244 242 243 242 245 244 176 212 
249 247 247 245 246 247 248 246 245 244 246 244 197 238 248 249 
248 249 249 248 249 249 247 247 247 247 248 229 184 248 249 247 
247 247 249 241 239 239 239 240 239 238 233 194 239 240 238 236 236 239 239 240 
240 240 241 241 240 241 239 241 240 242 241 242 242 241 241 242 
242 241 241 241 242 242 242 242 240 243 244 243 246 247 245 245 
245 242 243 242 241 243 242 240 242 244 243 242 244 245 212 247 
245 246 245 246 245 246 246 245 244 243 245 248 242 227 245 248 
250 249 248 250 249 247 247 247 247 246 249 240 168 238 247 246 
246 246 248 240 240 241 239 238 236 236 213 207 240 239 240 240 239 240 240 237 
238 242 242 241 242 241 241 239 240 241 241 242 240 242 242 242 
241 240 241 241 242 242 241 241 240 242 244 242 245 244 244 244 
244 244 244 243 243 244 242 241 242 240 244 242 242 243 247 247 
247 245 246 245 242 246 245 246 244 245 246 245 247 248 246 248 
248 249 249 249 248 248 247 249 247 247 248 251 176 231 248 247 
243 245 247 241 242 239 239 236 237 235 193 233 239 235 240 238 240 242 240 241 
240 241 242 242 241 241 240 239 241 242 242 241 242 241 241 241 
241 241 240 240 241 241 240 240 239 240 243 241 245 246 244 245 
244 244 243 243 243 243 241 240 242 244 244 241 244 243 245 245 
244 245 245 243 244 245 245 246 246 247 247 247 245 244 247 248 
247 248 248 247 247 248 248 248 248 246 248 250 189 186 248 247 
247 243 247 239 239 239 238 238 237 234 185 242 241 239 241 238 240 240 240 241 
240 238 241 242 240 241 241 239 241 240 241 242 238 241 241 242 
240 242 242 241 241 242 240 239 241 241 242 243 243 244 244 243 
243 242 243 242 243 244 242 241 242 244 244 243 243 243 243 245 
244 244 243 245 243 244 243 244 246 246 246 247 246 247 247 248 
248 249 249 248 247 248 247 247 248 248 248 248 222 163 246 246 
245 246 247 240 241 239 240 237 238 234 190 239 240 239 240 239 240 240 239 240 
241 241 242 242 242 240 241 240 239 241 240 242 241 241 240 240 
242 241 242 242 240 242 241 239 242 240 242 243 244 244 242 244 
244 244 243 243 243 240 242 240 242 244 243 240 241 243 243 243 
244 244 245 244 241 245 244 243 243 246 244 247 246 246 248 249 
248 248 247 247 248 247 248 247 247 248 246 247 226 156 238 247 
247 247 247 241 239 239 239 238 238 229 190 239 242 240 240 240 241 239 240 240 
240 241 241 241 241 240 240 240 238 237 241 241 241 240 240 240 
241 239 240 241 240 241 241 238 239 240 241 242 242 243 243 244 
244 243 243 244 243 242 241 242 242 241 241 241 240 242 243 241 
242 241 245 242 243 244 242 242 243 245 246 246 247 246 244 246 
247 247 247 247 247 247 246 248 248 245 245 246 242 162 233 248 
248 247 247 239 240 240 240 240 239 220 203 239 240 241 241 241 241 239 239 241 
239 238 241 242 241 241 240 239 238 240 240 240 240 240 241 239 
239 239 240 241 238 239 241 239 240 238 239 241 242 242 243 244 
244 244 244 243 244 244 242 244 243 244 242 243 243 242 242 244 
242 244 240 241 243 243 243 243 243 246 246 245 246 246 248 247 
246 247 247 247 247 247 246 247 247 247 245 248 246 162 226 245 
247 246 246 240 242 241 241 241 241 206 217 239 241 242 240 241 241 242 241 239 
240 240 241 240 241 241 241 242 238 241 240 239 238 239 239 238 
240 242 240 240 240 241 241 241 238 241 239 239 240 240 243 244 
243 244 242 242 243 242 242 244 243 243 242 241 241 241 242 243 
243 243 243 243 244 243 241 243 243 241 246 244 246 247 246 246 
246 246 247 248 246 245 246 245 247 246 245 247 247 186 215 248 
247 246 247 241 239 240 240 241 242 195 226 241 241 241 242 241 240 240 239 239 
238 240 240 240 240 241 240 240 240 240 240 240 238 238 238 240 
239 241 240 240 241 240 240 240 238 240 240 240 240 242 243 244 
244 244 242 243 243 243 244 242 241 242 242 243 241 241 242 242 
244 244 243 243 244 244 243 243 243 244 246 245 245 246 245 247 
246 245 245 246 248 246 246 245 244 246 247 245 245 197 213 248 
246 246 247 239 242 240 239 239 239 188 235 242 241 238 241 240 241 240 238 237 
237 240 240 240 241 241 240 240 240 239 239 239 240 240 235 242 
241 240 241 240 239 240 241 241 239 240 240 240 241 242 244 243 
245 244 243 242 242 242 241 240 240 241 245 242 242 241 241 242 
244 243 244 244 243 242 243 242 244 242 244 245 245 247 246 247 
244 245 246 245 246 246 246 244 245 245 245 245 244 185 209 246 
247 245 245 240 239 240 240 237 236 178 239 241 240 240 241 242 240 241 239 238 
239 240 241 240 240 242 240 241 240 238 240 240 241 240 239 239 
240 239 239 240 240 239 239 241 240 241 243 241 242 241 241 243 
243 245 244 242 242 243 243 240 242 242 244 243 244 243 243 241 
242 242 242 242 244 243 242 242 244 244 244 246 246 245 247 246 
245 245 245 247 245 245 246 243 243 246 245 245 247 196 191 246 
246 245 247 239 238 239 241 240 237 178 242 242 241 240 240 241 241 241 240 238 
241 241 240 240 239 238 240 242 241 239 236 239 241 241 238 240 
241 241 241 239 240 239 240 241 241 241 243 243 243 240 242 242 
244 243 243 243 243 241 243 242 243 244 242 245 242 242 242 244 
242 245 242 242 243 244 244 243 242 242 245 246 246 245 244 245 
246 245 244 244 243 243 243 245 244 243 243 245 246 196 208 245 
245 246 247 241 241 240 239 239 235 188 241 241 240 240 241 242 241 239 238 239 
241 242 240 239 241 241 241 241 241 240 239 241 240 240 241 242 
241 241 240 240 239 238 241 241 240 242 243 242 241 241 243 241 
243 242 243 243 244 242 243 242 242 243 243 244 243 243 243 243 
243 244 242 243 243 242 242 244 241 243 244 245 243 245 246 244 
245 245 244 244 245 244 244 243 242 245 242 241 245 194 197 244 
245 247 246 241 239 239 239 240 239 189 241 241 242 241 242 242 241 242 240 238 
242 242 240 241 241 241 240 241 240 240 239 239 239 240 240 241 
241 241 240 241 240 240 240 242 241 241 241 240 241 242 243 243 
243 242 243 243 243 242 241 242 240 243 243 244 243 243 244 243 
243 243 244 243 244 243 241 242 243 241 243 244 245 244 244 244 
245 244 243 243 244 244 242 242 243 241 243 243 244 194 185 245 
244 245 246 241 240 240 240 239 239 190 239 241 241 241 242 242 242 241 238 238 
242 243 244 242 241 241 241 241 240 239 241 243 241 241 240 240 
240 241 240 241 240 240 243 242 243 242 241 242 242 242 242 243 
242 242 241 242 243 242 242 241 242 242 242 244 244 245 244 244 
243 243 243 244 245 243 243 243 243 244 245 243 245 243 244 244 
244 243 245 243 243 243 244 243 242 243 242 242 243 193 187 246 
244 246 247 240 241 239 238 239 241 190 237 241 240 241 242 241 242 242 241 240 
241 243 243 241 239 241 241 242 240 241 241 240 241 243 241 242 
241 241 240 240 240 239 239 242 242 242 241 241 241 242 243 244 
243 243 243 243 242 243 243 243 243 242 241 243 242 243 244 243 
243 245 245 243 243 243 243 243 244 243 246 245 245 245 245 243 
245 245 243 244 242 243 243 242 241 241 242 242 243 189 190 246 
244 245 245 240 237 240 239 240 239 204 231 241 240 240 240 243 242 242 240 240 
242 241 244 238 239 242 242 242 242 241 238 239 242 241 240 241 
241 241 241 239 240 241 242 242 242 241 242 242 244 242 243 244 
242 242 242 242 242 243 243 243 241 243 244 242 244 244 242 243 
244 245 243 244 244 243 241 246 242 244 245 244 245 245 245 245 
244 243 243 243 242 242 243 243 242 240 242 243 244 183 212 245 
243 245 247 240 238 239 239 239 237 203 222 239 241 241 241 242 240 241 240 240 
242 242 243 241 241 241 242 242 240 242 240 241 241 241 242 240 
239 241 240 240 240 241 241 242 241 240 242 242 242 242 241 242 
244 241 241 242 241 243 241 242 242 241 242 244 244 243 243 243 
243 242 243 243 244 245 242 245 244 243 244 243 245 244 243 244 
245 243 244 243 243 243 241 242 242 242 243 242 243 149 229 242 
244 244 244 240 240 238 239 238 237 208 207 241 240 242 239 243 243 241 241 242 
241 241 241 241 241 242 242 241 241 241 240 241 240 240 239 240 
240 240 241 239 241 241 241 241 241 239 241 242 242 243 242 241 
242 240 240 241 242 242 242 242 244 241 242 243 243 241 243 244 
243 246 243 242 242 243 243 243 244 242 245 244 245 244 244 243 
243 244 242 243 243 243 243 241 242 242 239 240 243 152 236 243 
245 245 246 238 237 237 238 239 238 228 191 242 238 240 241 241 241 240 241 241 
241 241 242 241 241 242 241 241 241 242 242 241 241 242 243 241 
241 240 241 240 240 241 242 241 243 239 241 242 242 240 242 242 
241 242 239 244 242 243 242 243 244 244 243 242 242 243 242 242 
243 244 243 243 244 244 243 243 246 245 243 244 242 242 244 244 
244 244 244 242 242 241 243 242 242 241 240 240 239 142 242 242 
245 246 245 240 239 240 237 238 236 236 176 243 239 241 241 240 240 238 242 241 
240 241 242 241 241 241 241 241 242 241 241 242 242 242 240 240 
242 240 239 239 240 240 242 241 242 240 241 242 242 240 242 242 
241 241 243 241 242 244 243 241 242 243 243 243 241 239 244 243 
243 242 242 243 243 245 244 246 243 244 242 244 244 243 244 244 
245 243 242 243 245 243 242 242 243 242 241 242 230 152 243 245 
244 246 247 239 240 237 236 236 237 241 173 237 238 236 239 241 239 239 240 241 
241 242 242 240 241 242 242 241 240 241 241 239 239 241 239 241 
241 241 241 241 239 241 239 240 240 241 240 240 241 242 240 241 
241 242 240 241 242 243 242 241 244 243 243 243 241 241 243 243 
242 244 244 242 242 241 243 245 243 243 243 243 246 244 243 244 
244 244 244 244 243 243 243 244 242 242 242 242 171 193 244 245 
246 246 246 238 239 239 237 236 236 240 192 228 238 240 239 239 241 241 240 240 
240 240 242 242 241 242 241 241 241 240 240 240 241 240 240 239 
240 240 241 240 241 241 240 241 240 240 241 241 240 241 243 245 
243 242 242 240 242 243 242 244 243 243 244 243 243 243 243 242 
242 243 244 242 242 244 243 243 244 244 244 243 242 244 243 243 
244 244 246 244 244 244 244 243 242 242 242 244 132 224 245 245 
246 247 247 238 240 239 239 238 239 241 211 207 238 240 240 238 240 241 239 241 
242 241 241 241 241 240 241 239 236 240 238 241 241 241 240 238 
239 240 238 238 240 240 240 241 238 238 239 239 241 241 231 223 
243 239 242 242 240 243 242 243 241 243 242 243 244 243 244 244 
242 241 241 241 241 243 243 242 244 243 242 242 243 243 243 243 
244 244 245 244 243 243 244 244 244 244 245 232 132 243 245 245 
245 246 248 239 239 238 237 236 237 239 235 173 242 240 238 238 238 240 239 239 
241 241 240 242 241 240 240 243 237 239 240 239 240 239 241 236 
239 240 239 239 238 238 238 239 238 238 240 239 225 191 179 156 
165 186 220 242 243 242 241 241 244 241 244 244 243 243 243 243 
243 242 241 239 242 243 243 243 243 242 243 242 243 245 243 242 
244 244 245 243 244 244 242 243 244 244 243 191 170 246 243 244 
246 246 245 238 237 238 238 237 236 240 242 158 240 238 237 237 237 240 239 242 
241 239 242 241 241 243 241 239 237 236 239 239 241 239 239 239 
239 239 237 239 237 238 238 237 235 240 233 203 180 223 246 228 
238 200 192 190 240 243 242 242 242 243 243 242 242 242 242 242 
241 243 243 242 243 244 242 240 241 243 244 244 242 241 244 243 
243 243 245 244 245 244 244 244 245 243 245 167 207 244 244 243 
244 245 246 240 239 237 238 237 236 237 241 166 230 239 236 237 236 238 239 241 
241 240 241 239 240 241 241 241 239 238 237 240 240 239 239 241 
239 239 239 238 239 238 238 237 237 219 167 210 235 244 241 245 
242 236 242 211 187 240 241 241 242 243 242 244 244 244 244 242 
242 242 241 241 242 241 241 241 241 244 242 242 244 244 242 244 
243 244 243 244 244 243 243 243 244 244 236 136 236 244 242 244 
244 244 245 237 238 238 237 237 237 235 238 204 202 239 238 237 236 239 239 239 
240 240 239 241 240 240 240 241 240 239 239 240 241 239 238 237 
238 239 239 237 238 238 238 239 217 161 227 242 243 240 241 242 
235 238 240 243 222 192 242 240 243 242 243 243 243 243 243 242 
243 242 241 242 242 241 242 241 242 242 242 244 244 243 243 244 
243 243 244 243 244 244 245 245 244 243 200 159 243 244 243 243 
244 243 243 238 239 237 237 238 237 238 238 236 172 239 237 237 234 236 239 241 
239 239 239 239 242 241 240 240 240 240 240 240 238 237 239 240 
240 240 238 240 240 237 240 238 179 215 243 241 240 240 241 240 
239 240 240 240 244 181 240 241 243 242 242 242 243 241 242 242 
241 241 241 241 241 241 241 241 240 241 241 241 241 241 242 242 
242 243 244 244 244 243 243 246 245 244 153 206 242 243 242 243 
242 242 244 236 236 237 236 236 235 237 238 238 177 212 237 237 237 237 240 240 
240 240 240 239 240 242 240 241 241 240 240 239 239 237 239 240 
239 238 238 240 239 236 235 229 177 243 240 239 240 240 239 240 
240 241 241 240 244 178 235 243 244 242 242 242 242 243 242 243 
243 243 240 240 242 242 242 240 239 241 242 241 243 243 243 243 
242 244 242 242 243 243 244 245 244 232 122 239 241 242 242 243 
243 243 242 235 235 237 238 238 238 236 236 237 226 174 238 236 238 237 238 235 
239 238 239 240 239 241 240 241 239 241 241 240 240 238 235 239 
240 237 237 238 239 238 237 231 196 239 238 238 239 240 240 240 
240 241 241 241 241 177 222 243 243 241 242 243 242 244 242 243 
242 243 242 242 241 242 242 242 241 240 242 243 242 243 241 242 
240 241 243 241 242 244 242 243 246 188 170 244 241 241 242 242 
242 241 242 235 238 235 238 237 235 237 235 235 237 157 238 236 238 237 238 237 
238 238 237 239 240 241 241 240 241 241 240 240 239 239 238 238 
238 237 238 237 239 239 238 234 194 240 240 239 241 240 240 240 
241 241 239 242 244 152 237 242 241 242 242 241 241 243 242 243 
242 242 243 242 242 242 242 242 242 242 241 241 242 241 243 242 
239 241 241 241 240 242 242 242 235 155 236 243 240 239 241 242 
241 239 240 239 236 236 239 238 237 236 236 237 235 209 184 240 236 237 238 237 
238 242 238 237 239 241 241 242 241 239 241 239 241 240 239 240 
239 238 238 239 238 240 240 240 190 245 241 240 238 239 238 241 
238 238 240 238 188 172 241 240 241 241 240 240 240 242 242 242 
242 242 242 242 241 242 242 241 241 242 242 242 241 241 242 240 
241 241 241 241 239 241 242 244 174 192 247 242 241 240 239 240 
240 239 241 236 236 235 238 238 238 237 237 236 235 235 157 228 238 237 236 238 
239 240 238 239 239 241 241 239 241 240 240 240 240 240 240 239 
239 238 238 238 239 238 238 240 206 218 241 239 241 239 239 241 
240 240 228 139 122 232 241 240 241 241 241 241 240 242 242 241 
242 242 242 242 242 242 241 243 241 243 241 241 241 240 240 240 
241 241 239 237 239 240 242 229 163 244 244 243 240 239 239 241 
240 240 239 236 237 237 238 237 236 237 237 237 236 238 206 170 237 239 239 237 
240 241 241 241 240 239 240 240 239 239 240 240 239 239 240 240 
239 240 239 239 240 238 238 237 241 185 226 236 238 238 238 225 
218 172 119 170 229 242 242 241 240 241 242 242 241 242 242 242 
243 243 242 242 241 241 242 243 243 242 242 244 242 239 241 240 
239 237 239 240 239 240 244 174 211 247 244 244 244 242 240 240 
239 240 239 238 237 237 238 238 237 237 237 236 236 235 239 170 216 237 238 238 
239 241 240 240 240 241 237 240 240 240 240 240 241 240 238 240 
240 239 239 238 237 237 239 236 238 236 157 147 153 157 151 125 
131 173 210 240 241 241 240 242 240 241 242 241 242 241 242 242 
242 242 243 242 242 240 240 242 243 241 242 243 241 241 240 242 
240 240 240 240 237 242 206 160 244 241 243 243 241 242 243 242 
240 241 239 237 237 236 237 238 237 237 237 236 236 234 237 224 165 223 237 237 
237 239 238 240 239 240 238 238 240 241 241 239 240 239 239 237 
240 238 239 240 239 239 239 238 234 240 238 218 200 195 210 223 
237 244 240 239 238 240 239 239 240 241 243 241 241 242 242 241 
242 242 242 241 244 240 240 242 242 242 242 242 243 241 241 242 
238 240 241 239 239 237 149 219 243 242 242 239 241 241 241 242 
242 241 241 236 234 235 235 236 237 237 238 235 234 235 236 239 204 141 227 237 
236 238 239 240 239 240 236 239 239 240 239 239 238 238 241 241 
239 241 240 238 239 239 238 241 237 238 240 241 242 240 243 244 
241 240 238 237 239 240 241 241 241 240 241 240 242 241 240 241 
242 241 242 241 241 242 242 242 242 242 242 242 242 243 243 241 
240 240 239 239 241 184 183 244 245 242 241 241 240 240 241 241 
240 241 240 237 235 236 237 238 239 237 236 235 235 236 235 233 237 188 164 239 
235 237 239 239 237 240 239 239 239 239 238 239 240 240 238 240 
241 239 239 239 239 238 239 238 238 237 238 239 238 241 240 242 
240 240 239 238 239 240 239 240 240 240 240 241 239 241 240 240 
242 241 242 241 240 240 242 242 241 243 241 242 240 243 242 242 
241 240 240 242 204 157 235 239 239 240 241 240 240 243 242 242 
241 240 241 236 238 237 237 238 235 237 236 236 236 236 234 234 236 232 125 210 
238 237 240 237 238 239 238 240 239 239 238 238 238 240 238 239 
239 240 240 240 240 239 239 237 239 239 239 239 239 240 239 239 
240 240 240 240 238 241 240 240 238 238 238 241 241 241 240 240 
241 241 242 242 239 241 241 242 242 240 241 242 242 242 242 240 
240 240 241 237 142 227 240 240 242 241 241 239 241 241 242 243 
242 241 241 234 234 237 237 236 235 236 237 236 234 236 233 234 234 238 189 138 
225 238 237 236 239 239 238 240 238 238 238 237 238 238 239 237 
240 239 240 239 239 240 240 239 239 239 239 240 240 240 239 239 
238 239 239 239 239 239 239 241 240 239 239 240 242 241 240 241 
240 241 240 241 242 241 242 243 242 241 242 241 242 241 242 244 
242 243 243 162 198 243 240 240 240 240 238 239 240 242 239 241 
240 240 241 235 234 235 239 238 237 237 237 235 235 235 235 235 233 236 236 176 
141 227 240 235 235 237 239 239 239 240 239 240 238 240 238 237 
239 239 239 239 240 240 239 238 239 239 239 241 239 240 241 240 
239 239 238 238 238 238 239 239 239 239 240 240 240 239 240 240 
240 241 240 240 240 241 241 241 241 239 241 242 241 243 242 243 
244 242 168 195 245 243 241 242 239 240 241 242 242 240 241 241 
241 240 240 234 233 233 236 237 237 235 237 236 235 235 235 235 235 233 234 238 
156 135 219 236 236 236 236 238 239 238 238 239 238 239 239 237 
239 240 240 238 238 238 239 239 237 240 239 240 239 240 240 240 
239 239 238 239 238 237 239 237 237 236 239 238 241 239 240 240 
239 240 240 240 240 241 242 241 240 242 243 241 242 242 241 242 
244 169 196 246 245 242 242 243 243 241 241 243 242 241 241 240 
240 242 240 232 232 235 238 238 236 236 235 235 235 235 235 235 233 234 232 235 
230 159 147 214 234 236 236 235 236 238 237 238 238 239 239 238 
238 239 238 237 236 238 239 239 237 237 239 239 239 239 240 240 
239 239 239 239 240 237 237 239 239 238 240 238 237 239 240 240 
237 239 240 240 241 241 240 240 241 240 241 242 242 243 243 240 
186 173 244 244 243 243 242 243 241 242 241 242 239 242 240 241 
240 240 239 232 233 234 236 236 236 236 234 236 236 235 235 235 233 233 231 232 
234 232 152 148 218 236 236 238 240 237 237 237 236 237 239 239 
239 237 237 236 238 239 238 238 237 237 239 238 239 239 238 240 
239 239 239 239 239 237 239 238 239 237 238 237 238 239 239 238 
239 239 241 240 239 240 240 240 240 240 241 239 239 243 241 188 
175 243 245 242 242 242 242 242 241 240 241 240 240 241 240 239 
240 241 241 233 234 232 237 235 235 234 234 236 233 235 235 235 233 233 231 233 
232 233 234 153 164 205 236 238 237 237 237 235 236 236 237 238 
238 240 239 238 237 235 237 237 238 237 238 237 237 239 239 238 
239 239 239 238 237 239 238 237 238 240 238 237 239 240 240 242 
241 240 240 240 241 240 239 240 240 238 238 239 244 241 177 192 
237 246 244 242 242 243 242 241 241 241 239 239 241 240 240 240 
241 239 240 231 230 232 234 234 234 234 234 234 236 235 235 233 233 233 233 233 
234 233 236 235 158 109 157 228 238 237 237 236 236 237 237 236 
239 237 238 236 238 237 237 237 236 237 238 237 239 239 239 239 
238 238 237 240 238 239 240 238 237 236 236 237 239 239 239 238 
239 239 239 238 238 238 238 237 238 237 240 242 227 182 179 240 
244 243 244 241 242 242 241 241 241 241 239 241 239 241 239 239 
239 239 240 231 231 232 233 234 233 233 235 235 235 234 234 234 232 233 232 233 
233 231 232 233 235 192 107 122 212 234 237 237 235 235 236 236 
238 236 237 238 237 236 236 236 237 236 237 235 236 238 239 238 
238 236 236 238 238 238 237 238 238 237 234 237 239 239 239 237 
238 237 237 237 237 235 235 236 237 240 240 220 158 199 239 243 
242 240 243 243 240 241 242 240 243 244 242 240 240 238 240 239 
239 239 240 230 232 232 233 234 231 231 233 233 234 235 235 234 233 234 233 230 
231 231 230 231 232 233 181 119 118 208 231 238 235 235 235 236 
237 238 236 236 236 237 237 237 236 235 238 236 234 237 237 236 
237 237 237 237 238 237 236 238 237 236 236 237 237 238 237 236 
238 238 238 236 237 235 238 236 239 229 165 162 206 241 240 240 
241 242 241 242 244 241 242 241 244 245 243 240 238 240 239 240 
239 238 238 229 231 233 233 232 231 232 231 232 234 235 233 234 234 234 232 232 
232 230 231 228 229 232 235 214 136 108 133 206 234 237 237 236 
235 235 238 236 237 236 236 235 234 235 235 235 234 235 237 236 
237 238 236 236 237 237 236 235 235 236 236 236 236 236 237 237 
235 236 236 235 235 237 239 235 204 155 179 231 240 239 240 240 
242 240 241 240 241 242 242 242 241 244 244 241 240 240 240 238 
239 240 238 229 229 230 233 232 231 229 230 229 231 232 232 233 233 233 233 232 
232 232 232 231 230 228 231 233 228 180 111 92 174 216 233 235 
234 235 234 234 234 234 234 234 233 236 236 235 236 235 236 238 
236 235 237 236 236 236 236 235 235 235 235 236 237 237 235 236 
237 237 237 237 237 222 187 142 139 203 241 241 239 238 238 240 
239 241 242 241 242 240 242 242 243 243 243 244 239 238 239 238 
238 239 238 228 229 231 232 230 232 231 231 230 229 231 230 232 232 231 232 233 
232 232 232 230 229 229 230 229 232 235 218 129 97 99 183 233 
234 235 235 235 233 234 233 233 233 234 235 234 235 235 236 236 
236 236 236 236 235 234 233 235 235 235 234 233 233 236 234 235 
237 237 236 218 199 129 132 189 236 241 239 238 237 238 239 239 
240 240 241 241 240 241 242 241 242 243 241 241 241 237 239 239 
239 239 239 227 227 230 229 227 230 231 231 227 227 228 229 231 231 231 231 230 
230 230 230 230 228 229 230 230 227 230 231 235 197 129 110 195 
227 232 235 237 234 233 233 232 231 231 232 233 234 234 235 234 
235 234 234 233 234 235 234 233 232 232 233 230 235 234 236 235 
240 226 190 167 184 195 228 239 241 239 237 238 238 238 238 239 
240 240 240 240 241 242 241 241 242 241 242 243 242 240 238 238 
237 238 237 226 228 226 227 227 228 229 230 229 229 225 227 231 229 231 229 229 
230 231 229 230 230 228 230 230 227 228 226 229 232 235 217 162 
125 172 208 231 235 235 232 234 233 231 233 232 233 235 233 234 
234 231 234 232 232 235 232 233 233 232 232 232 234 232 221 211 
179 142 145 186 224 242 239 236 234 235 237 237 237 239 235 238 
240 239 240 239 240 240 240 241 243 242 243 245 242 242 239 239 
238 238 238 224 226 226 224 224 226 226 227 226 227 229 226 228 228 229 229 229 
229 228 228 228 227 230 226 227 227 228 225 227 227 226 230 231 
226 186 151 131 180 205 227 231 233 235 234 235 234 236 236 236 
237 235 234 236 235 236 234 234 236 232 231 221 195 184 151 154 
158 193 235 237 237 235 235 233 233 233 233 236 235 237 235 235 
237 240 239 237 240 240 240 242 241 241 241 246 243 241 238 238 
238 237 237 221 226 225 222 226 226 226 225 225 225 226 226 227 225 227 227 226 
226 227 227 226 226 227 226 226 225 227 226 226 226 226 225 227 
228 231 231 220 169 146 126 147 177 196 207 227 230 223 229 234 
234 232 231 234 234 231 224 199 174 161 135 100 122 140 175 209 
234 241 236 234 231 232 233 234 233 233 233 234 235 237 236 235 
235 237 237 238 238 239 238 239 240 241 240 242 242 240 238 237 
237 237 237 218 223 223 221 224 226 225 224 223 223 222 224 224 225 226 226 223 
225 225 224 225 227 226 228 226 224 226 226 225 226 225 226 223 
225 226 227 227 230 229 229 213 192 172 165 147 142 91 88 114 
120 120 128 122 116 110 125 145 140 152 187 205 235 237 236 235 
234 230 230 230 228 231 235 233 234 233 232 234 233 235 235 235 
234 235 235 236 237 238 240 240 238 240 239 241 241 238 237 236 
236 236 236 221 223 223 223 224 225 225 224 222 220 225 225 224 226 226 224 224 
222 224 224 222 225 222 224 227 226 224 224 225 224 225 225 224 
225 222 223 222 224 225 225 228 228 225 224 225 227 215 203 189 
184 190 197 207 222 214 231 233 236 234 235 234 234 231 231 230 
230 229 230 231 229 230 231 233 231 233 233 233 233 233 235 237 
234 233 234 235 237 236 237 239 240 240 240 241 242 237 237 237 
236 237 236 221 220 223 221 225 222 222 224 222 221 222 225 223 225 225 225 226 
221 223 224 224 225 225 222 226 224 226 224 225 224 224 224 225 
224 225 222 223 222 223 223 225 224 224 225 225 230 228 230 229 
232 231 230 229 230 230 229 227 230 231 229 228 225 228 227 229 
230 231 231 229 230 230 231 232 231 231 233 232 233 232 232 234 
235 236 234 233 236 237 236 237 239 239 238 240 241 239 237 238 
236 237 237 221 220 221 223 220 223 223 223 222 221 222 222 221 223 223 222 223 
222 224 222 221 223 224 220 220 222 221 222 222 222 221 223 223 
225 224 222 221 221 221 222 223 223 223 225 225 224 224 224 227 
227 227 226 225 228 227 228 228 227 229 228 228 230 228 229 231 
230 230 230 228 229 230 228 229 229 232 232 231 232 232 233 233 
232 232 232 233 234 235 234 235 236 236 237 239 240 238 238 236 
235 237 237 217 220 219 220 219 220 220 223 223 221 222 223 223 222 221 222 221 
219 222 221 221 221 223 221 225 221 223 222 221 222 222 223 222 
225 223 222 223 220 221 223 223 223 222 222 222 224 223 224 226 
224 226 224 225 226 226 225 225 226 227 229 229 228 229 230 229 
230 230 230 229 231 229 229 229 229 232 232 231 230 232 232 234 
233 234 233 232 232 233 233 234 235 235 234 237 239 238 238 236 
237 237 236 