P2
# Created by IrfanView
100 100
255
239 240 238 241 238 239 240 241 241 241 242 241 240 240 239 241 239 
240 240 240 241 242 242 241 242 242 242 242 242 242 242 244 244 
242 242 241 241 244 243 243 245 245 246 245 246 246 246 246 246 
246 247 247 247 245 248 245 246 249 249 248 249 250 250 249 249 
250 249 249 249 250 251 250 250 250 251 251 250 251 252 251 251 
251 251 251 251 252 250 251 252 251 253 251 251 251 252 252 252 
252 253 253 238 239 240 241 240 241 241 241 241 240 240 240 240 241 240 239 240 
242 238 239 240 241 242 242 242 242 242 242 242 243 243 243 242 
243 242 242 243 242 243 243 245 245 246 245 246 246 246 245 245 
244 246 245 245 247 247 248 247 248 249 249 247 249 249 249 249 
249 249 249 248 249 249 250 250 249 250 250 251 251 248 250 251 
250 250 250 251 251 252 253 252 252 251 253 251 253 252 251 251 
252 252 253 237 239 240 240 240 239 241 241 241 241 242 240 240 241 241 240 241 
237 238 240 240 241 241 240 241 242 243 243 242 242 242 243 241 
242 241 242 243 243 243 241 245 245 246 246 245 245 245 244 246 
246 245 246 245 245 247 247 247 247 246 247 247 247 248 249 247 
247 248 248 247 249 249 250 249 251 250 248 250 250 250 250 250 
252 251 253 251 251 251 251 251 252 252 252 251 253 253 253 252 
252 254 253 237 239 240 240 240 240 240 241 242 241 242 241 240 240 240 240 239 
240 238 238 239 240 241 241 242 241 241 242 242 242 241 242 243 
242 241 242 243 242 242 241 243 243 244 245 245 244 245 245 244 
243 244 245 246 245 246 246 246 246 245 247 248 248 248 247 249 
248 248 247 247 248 248 249 249 250 250 247 249 250 251 251 251 
250 252 251 251 250 252 251 251 252 253 252 252 253 252 252 253 
252 252 252 237 238 240 240 241 242 239 241 239 239 241 239 239 240 239 239 239 
239 237 236 239 239 240 241 239 241 241 240 241 242 243 241 240 
241 241 242 242 241 241 241 241 242 244 244 244 246 244 244 245 
246 247 246 246 246 246 244 245 246 246 246 246 247 247 247 248 
248 248 247 245 247 247 248 249 251 250 250 249 249 250 250 250 
250 251 251 251 250 251 251 252 251 252 251 252 252 252 252 251 
252 253 252 236 239 241 239 240 240 241 239 240 240 240 239 239 238 239 238 240 
240 238 236 238 239 239 241 240 238 241 240 239 242 242 241 241 
241 241 240 241 240 241 242 242 241 243 244 243 246 247 245 247 
244 248 249 248 246 247 245 245 247 248 248 248 247 247 247 246 
246 246 247 246 247 248 249 249 247 248 249 251 250 250 250 250 
251 251 251 251 252 251 251 252 251 250 252 251 252 251 250 251 
251 252 252 238 238 238 239 239 240 240 240 238 240 241 239 239 239 239 240 237 
236 237 238 238 236 237 240 240 240 241 239 240 240 240 241 241 
241 241 240 242 243 242 244 240 238 236 230 235 211 200 196 174 
186 184 185 191 202 192 199 214 235 244 247 248 249 248 247 246 
245 245 244 245 247 247 248 249 248 249 250 250 249 249 249 249 
250 249 250 250 250 251 251 251 252 251 251 251 252 251 251 252 
251 251 251 239 237 238 239 239 239 238 239 241 240 239 239 237 238 239 238 239 
239 239 239 238 238 238 239 240 240 240 240 240 239 240 238 241 
241 242 243 243 240 232 204 176 169 174 177 175 193 198 203 219 
215 228 222 225 204 206 210 191 174 180 183 190 215 231 246 248 
247 246 246 246 247 247 247 248 249 249 249 248 248 249 249 250 
249 250 250 249 247 250 251 251 250 251 252 250 251 251 251 251 
251 250 250 238 239 236 239 238 237 239 239 237 239 239 238 238 238 238 239 236 
237 237 237 239 238 239 239 239 238 240 239 239 239 237 240 242 
244 240 218 173 157 151 180 194 216 225 241 243 244 247 248 246 
245 247 248 248 247 248 246 248 247 244 239 235 202 180 178 212 
231 243 246 248 248 246 247 248 248 248 247 249 249 249 249 248 
248 248 247 250 249 250 250 251 251 251 250 250 251 251 250 250 
250 250 250 239 239 238 239 239 240 239 238 240 239 240 239 238 240 238 238 236 
237 238 238 234 237 237 238 238 238 238 239 238 239 240 243 239 
200 150 169 211 235 244 247 242 242 242 240 241 242 243 243 242 
241 243 243 244 245 242 242 243 243 244 246 245 244 243 223 185 
166 163 208 232 246 244 248 247 246 248 248 248 248 248 248 249 
248 248 248 250 250 250 250 249 250 249 250 249 249 249 251 250 
249 251 250 239 239 239 239 240 240 239 240 241 239 240 238 237 238 239 237 238 
239 235 236 237 237 237 238 237 236 238 239 240 240 230 170 151 
173 216 240 243 242 241 241 241 241 240 241 241 242 243 243 243 
242 241 243 241 242 242 243 242 242 242 242 241 244 245 246 248 
243 220 181 165 181 234 246 246 246 247 244 247 248 249 248 247 
247 247 249 250 249 249 249 250 249 249 249 250 249 249 249 249 
250 249 250 238 238 238 239 240 240 239 239 238 238 240 238 239 239 238 237 236 
238 237 236 234 235 236 236 237 237 238 240 238 185 143 196 239 
243 244 241 240 242 241 241 240 241 241 242 240 242 242 243 242 
242 243 242 243 243 242 243 241 242 244 244 243 242 241 241 242 
243 241 245 226 225 169 176 237 247 247 249 244 245 245 246 248 
248 248 247 247 249 249 250 249 248 250 249 248 249 249 249 248 
249 249 248 237 238 239 240 239 239 239 240 240 239 240 240 238 237 236 236 235 
237 238 234 234 234 235 236 236 235 239 201 146 190 238 242 240 
240 239 239 239 239 240 241 239 240 240 240 241 241 241 243 243 
241 242 242 242 242 241 241 242 242 242 244 241 241 241 242 241 
240 242 242 242 244 239 216 166 208 241 249 246 244 244 244 245 
246 246 248 247 247 249 249 249 248 248 249 247 249 249 249 248 
248 249 249 238 239 239 238 239 238 240 239 239 240 240 238 237 238 236 239 237 
238 235 236 234 234 235 236 237 230 168 155 233 241 241 241 239 
241 239 240 238 241 240 240 240 240 241 241 240 243 243 242 242 
243 242 242 242 242 243 242 242 243 243 240 243 242 243 241 241 
241 241 242 243 241 244 244 240 190 165 215 247 247 246 246 242 
243 243 245 248 246 249 248 248 249 249 248 248 248 248 249 248 
248 249 249 239 240 239 238 239 239 238 238 239 238 241 239 239 237 235 237 237 
235 236 233 235 235 237 238 208 145 206 238 242 239 239 239 240 
240 240 240 240 241 241 241 240 242 241 241 241 240 240 242 241 
244 242 242 242 242 241 243 242 242 242 242 241 241 242 242 243 
241 240 241 242 243 242 243 242 246 229 180 172 240 246 246 243 
244 243 241 245 246 247 248 248 249 247 248 248 248 248 248 248 
248 247 246 239 238 239 239 240 238 238 238 238 239 238 238 238 237 238 237 237 
237 235 232 235 237 233 174 179 227 238 238 239 240 240 239 240 
240 240 241 240 240 240 240 240 240 240 240 241 241 242 241 242 
241 242 242 242 241 243 241 242 242 241 241 243 244 243 242 242 
243 242 242 242 242 242 242 243 243 245 242 195 178 225 246 245 
244 242 241 244 245 248 247 248 248 247 247 249 248 249 248 247 
248 247 247 237 237 237 238 239 239 239 238 238 238 239 238 238 237 237 237 236 
237 236 236 236 227 160 199 234 240 240 239 240 240 240 241 239 
240 240 239 239 239 240 239 239 240 240 241 242 242 240 242 242 
242 242 242 242 243 243 243 243 242 241 242 241 241 241 242 242 
241 243 243 242 242 242 242 241 242 243 242 243 191 134 216 246 
245 242 243 243 243 245 246 247 246 247 248 247 248 247 248 247 
247 248 247 237 236 236 238 238 237 238 239 238 239 237 238 237 236 236 237 236 
234 234 239 224 162 217 240 240 239 240 240 241 240 239 239 240 
240 240 240 239 240 240 240 240 240 241 241 239 240 240 240 242 
242 244 242 243 242 241 241 242 242 241 241 242 242 241 241 241 
242 241 241 243 243 242 242 243 242 243 245 243 247 213 135 210 
246 242 241 243 245 246 246 246 246 246 247 248 248 248 247 247 
248 248 249 235 236 236 235 237 237 237 238 238 239 238 238 237 239 236 236 235 
234 236 222 160 229 241 238 238 239 240 240 240 240 240 239 240 
240 239 240 240 240 241 240 240 239 238 240 240 240 240 240 241 
241 240 242 240 240 242 242 241 241 242 241 242 242 242 241 242 
242 242 242 240 241 242 241 241 242 241 241 242 243 246 215 123 
206 247 242 243 245 246 246 246 247 245 247 246 247 246 246 245 
248 246 247 234 235 235 239 238 239 239 239 238 238 237 238 238 236 237 236 235 
237 219 164 229 237 239 239 240 239 239 239 239 240 240 239 239 
240 240 240 241 239 240 238 240 239 240 239 239 240 240 240 241 
240 242 242 242 243 241 242 241 242 240 241 242 242 242 241 242 
241 241 242 244 242 242 243 242 243 243 242 242 242 242 247 214 
118 184 244 244 243 244 245 246 244 244 243 246 246 246 248 246 
246 247 248 234 233 234 233 235 236 238 239 238 237 237 239 239 236 236 235 237 
218 151 233 240 239 239 240 238 241 239 240 239 238 239 240 239 
239 239 238 240 239 240 239 239 240 240 238 238 238 239 239 240 
242 241 241 241 241 241 241 241 241 241 242 241 240 241 242 241 
241 242 242 242 241 241 240 240 242 243 243 246 242 243 242 245 
221 121 201 245 242 244 243 244 243 244 245 246 247 245 246 246 
246 244 245 232 233 234 235 237 236 236 237 237 237 238 239 240 237 236 238 227 
149 226 238 238 238 239 237 239 238 238 238 240 239 238 238 238 
241 240 239 239 240 239 240 239 240 239 239 239 238 240 241 238 
241 241 241 240 241 241 241 241 240 241 241 241 241 242 241 241 
242 240 241 241 242 242 242 241 242 242 242 243 242 241 241 242 
247 204 155 224 244 242 242 244 245 244 244 244 244 245 246 246 
244 245 246 234 234 233 234 235 235 235 238 238 238 236 238 238 237 237 233 148 
214 239 237 237 238 237 239 240 237 238 240 239 239 241 242 241 
240 241 241 239 238 240 238 238 238 240 239 238 240 241 240 240 
242 241 241 242 244 240 241 241 241 240 241 241 241 240 239 240 
239 241 240 242 242 241 244 243 242 244 243 242 241 242 243 242 
242 246 228 159 236 243 243 243 244 244 242 244 243 244 246 247 
246 247 247 234 234 233 234 234 234 234 233 235 236 236 238 239 237 240 177 201 
241 237 236 237 237 236 237 237 238 237 236 239 241 231 225 209 
205 231 239 241 237 238 239 239 238 238 238 239 240 240 240 238 
242 241 240 241 242 242 240 240 239 240 240 240 240 241 239 240 
240 241 240 243 242 242 243 243 243 241 242 244 242 243 242 242 
240 242 244 211 168 244 243 244 243 243 243 245 242 242 244 245 
246 245 247 233 233 233 234 234 233 233 234 235 235 236 236 237 239 199 182 241 
238 237 237 239 238 237 238 237 235 233 236 232 173 146 173 180 
172 165 144 207 239 236 238 238 236 239 240 238 238 239 240 239 
239 239 241 242 241 241 239 239 239 238 238 239 240 240 238 238 
239 240 242 228 214 180 142 208 245 243 240 242 243 242 243 242 
242 241 241 242 187 207 246 242 243 243 243 242 239 243 244 245 
245 245 246 235 235 234 234 235 232 233 233 233 234 232 235 238 223 155 239 237 
237 237 236 236 237 236 235 233 234 237 219 155 201 243 240 240 
242 243 238 177 193 239 238 238 240 239 239 239 240 240 239 239 
240 240 241 240 239 238 237 238 238 239 238 237 238 238 242 239 
239 227 176 142 174 207 228 173 182 244 241 240 241 241 241 242 
240 241 241 241 242 177 232 243 242 242 244 242 241 242 243 243 
245 244 246 232 234 232 233 233 232 232 233 233 234 233 231 235 157 235 238 237 
237 236 236 236 237 237 234 235 236 187 146 225 243 237 237 235 
236 238 240 240 189 214 239 237 237 239 239 239 238 239 240 239 
239 239 238 240 239 239 239 238 239 235 236 236 236 237 240 226 
150 142 197 242 244 243 242 245 205 201 242 242 242 240 241 240 
241 241 240 240 242 231 168 245 243 243 242 245 244 244 244 243 
243 244 242 233 233 233 233 233 233 233 232 231 231 231 229 182 192 240 237 237 
237 236 236 236 236 236 234 233 209 169 234 240 237 237 236 236 
236 237 237 237 234 171 237 238 237 238 239 239 239 239 240 240 
240 239 240 239 239 239 237 238 237 239 236 236 238 238 201 123 
200 241 242 240 240 239 240 239 244 185 237 242 241 241 241 241 
241 241 241 240 242 244 198 194 243 243 242 240 242 243 242 242 
243 243 244 233 233 232 233 233 235 232 231 230 230 229 213 157 236 239 237 236 
237 236 235 235 237 234 234 224 166 235 238 235 236 235 235 235 
236 234 234 236 235 215 197 238 238 239 237 240 239 238 239 239 
239 239 240 240 240 239 239 238 238 236 235 236 240 223 132 215 
242 240 239 240 239 239 239 239 240 222 194 242 240 242 242 241 
241 240 240 240 237 239 242 168 238 242 242 242 242 243 242 243 
241 241 245 232 233 234 233 234 237 234 233 232 232 228 164 217 235 236 238 238 
237 234 236 236 236 233 232 179 217 236 237 236 235 234 235 235 
234 236 231 235 234 237 175 239 238 239 240 238 240 239 240 239 
240 239 239 239 238 238 239 239 239 238 238 236 218 123 211 241 
238 238 237 236 238 238 239 240 239 245 183 241 241 240 241 240 
240 241 240 241 240 240 241 200 190 243 241 243 242 242 242 241 
241 243 241 234 233 231 233 233 235 236 235 230 200 207 164 235 233 235 235 239 
237 236 235 233 234 233 223 176 240 236 234 235 235 235 237 236 
236 236 235 233 232 231 168 236 238 238 238 238 238 239 238 239 
239 239 239 239 239 239 239 240 238 238 234 233 149 211 240 237 
238 237 238 237 238 238 237 238 238 239 195 241 239 241 242 241 
241 239 239 239 237 238 239 240 164 235 241 240 242 242 243 242 
241 242 241 232 232 233 233 233 235 235 236 211 207 158 226 233 234 235 236 236 
234 236 235 236 232 232 218 203 234 234 236 236 239 239 236 237 
240 239 236 234 233 231 208 236 235 238 239 239 239 239 238 238 
239 239 239 240 239 238 240 239 238 238 237 230 153 242 238 235 
237 238 236 237 236 237 238 239 239 235 167 243 241 242 242 240 
239 239 238 239 236 239 240 242 214 198 244 241 241 241 242 242 
242 242 241 232 233 233 233 233 233 233 223 163 207 162 235 233 234 236 235 237 
237 234 233 233 233 233 232 227 233 234 236 237 231 209 225 211 
198 207 217 228 236 232 238 235 236 238 238 238 238 239 239 240 
238 239 239 238 239 240 239 240 239 236 236 222 171 239 238 237 
236 235 236 235 237 237 238 239 238 224 194 241 240 243 241 238 
239 239 238 239 240 238 239 240 241 155 239 242 241 241 241 240 
242 240 241 232 232 232 231 232 233 233 190 174 153 220 231 235 232 232 235 235 
236 235 232 231 231 232 232 234 235 236 232 189 131 83 108 104 
102 113 125 122 186 235 233 235 236 236 237 234 238 238 239 238 
239 238 238 239 239 238 238 237 237 237 235 232 224 238 238 237 
237 238 239 237 240 240 239 240 237 233 214 241 238 239 239 239 
238 239 240 237 238 238 238 239 241 216 198 241 241 242 238 241 
242 242 242 231 230 231 230 231 231 231 172 207 157 233 233 233 232 232 235 236 
236 233 232 232 232 232 232 236 226 171 136 148 107 137 124 107 
120 110 116 166 169 206 232 233 235 236 236 235 237 238 238 239 
239 239 240 238 238 239 238 239 239 238 239 239 238 240 239 239 
238 239 237 235 233 231 227 240 240 237 225 238 238 239 238 239 
240 237 238 238 237 237 237 238 238 241 169 242 242 240 241 239 
242 241 242 231 230 230 231 231 230 222 176 195 202 234 233 234 233 233 234 234 
234 235 233 232 232 232 235 170 132 191 215 112 98 119 124 138 
146 113 123 116 159 155 232 233 237 238 235 234 235 237 240 238 
238 236 239 240 239 239 237 238 239 238 237 237 240 237 226 206 
148 115 116 114 122 171 156 147 215 240 240 239 239 237 239 238 
239 239 239 236 239 239 237 238 237 239 161 232 239 241 241 241 
240 242 242 231 230 229 229 229 229 208 220 153 230 233 232 233 233 232 233 234 
235 233 234 234 233 232 227 130 228 235 194 127 104 133 161 166 
139 143 123 121 118 127 232 234 236 236 236 236 237 236 237 238 
238 237 238 238 239 240 240 239 238 238 238 238 236 207 137 86 
120 146 139 140 124 211 237 236 180 223 239 239 237 238 238 237 
237 238 237 239 238 239 238 238 236 238 198 187 240 240 240 239 
241 241 241 230 229 229 229 229 228 197 221 165 233 232 234 232 234 233 232 233 
234 234 233 234 233 233 232 231 235 231 182 112 86 161 147 140 
176 149 125 120 109 119 226 234 236 236 235 238 237 234 235 236 
239 239 237 238 238 238 238 239 239 238 237 239 214 122 122 109 
114 96 97 81 156 142 239 240 237 232 237 238 237 237 238 238 
238 237 237 237 237 236 236 235 237 237 243 154 239 239 239 240 
241 240 239 232 230 229 227 228 229 142 158 195 234 232 233 231 231 233 233 233 
233 233 233 234 233 232 231 232 232 232 211 148 83 158 165 159 
174 108 122 126 140 134 236 235 234 234 235 237 237 235 236 237 
238 238 236 237 237 238 239 238 239 239 238 232 134 122 122 129 
101 121 131 105 115 112 230 238 236 237 238 238 238 238 238 239 
237 238 238 237 236 237 236 236 235 237 239 180 218 241 240 240 
239 237 238 231 230 229 229 229 223 136 233 235 231 232 232 231 231 233 233 233 
233 233 232 232 232 231 232 230 231 233 232 145 86 120 158 131 
115 121 124 132 145 154 234 234 234 234 237 237 237 237 234 236 
237 237 237 237 239 238 237 239 237 236 237 203 107 126 135 103 
126 136 169 160 111 68 230 236 236 237 237 237 238 237 238 238 
238 235 236 236 236 236 238 238 237 238 238 196 187 239 239 239 
240 239 242 228 229 229 229 230 211 152 237 232 231 232 232 231 232 231 232 232 
232 232 232 231 231 231 230 231 232 232 231 204 118 112 149 135 
121 111 125 113 101 187 235 234 234 235 233 237 235 236 235 238 
238 236 238 237 236 238 239 239 236 235 236 148 117 91 93 149 
171 148 144 114 102 117 240 237 235 238 237 238 237 238 238 238 
236 237 237 238 237 236 236 237 237 237 238 222 170 238 238 239 
240 238 237 230 228 229 228 230 194 179 231 232 232 233 233 233 232 231 231 232 
232 232 232 232 231 231 231 231 229 229 231 233 153 95 111 89 
81 110 126 144 93 225 234 237 235 234 237 236 235 237 235 236 
236 236 238 235 237 237 239 238 236 235 238 139 139 96 103 141 
129 132 95 105 110 166 236 236 237 235 237 237 236 237 236 236 
236 238 238 236 236 236 237 237 235 236 238 235 154 241 239 238 
237 238 238 229 227 230 229 229 192 188 233 232 231 231 229 232 233 233 233 232 
232 232 231 231 231 230 231 230 231 230 230 232 221 110 92 103 
115 93 102 87 135 235 235 234 235 235 236 236 235 235 236 236 
237 237 236 238 236 239 238 240 236 236 240 192 121 129 101 125 
100 95 91 94 89 230 238 237 237 238 236 238 237 237 237 237 
236 236 235 235 236 236 234 236 237 237 235 238 168 235 238 239 
239 238 238 228 229 229 230 228 210 204 232 232 231 232 231 231 231 231 232 232 
231 231 233 231 232 232 232 230 231 229 231 232 234 228 194 133 
100 118 130 142 223 233 234 235 236 234 234 236 237 235 236 236 
236 235 235 237 235 237 236 238 238 237 237 223 78 118 80 83 
75 97 84 106 207 235 235 236 237 237 237 237 237 237 237 235 
235 234 234 235 236 235 235 235 235 235 236 237 186 217 239 238 
237 236 237 227 228 228 229 226 203 211 231 231 233 231 232 231 231 231 232 232 
231 232 232 232 232 231 232 231 232 232 232 230 233 233 235 233 
230 237 235 237 239 238 236 236 234 237 236 235 235 236 235 235 
235 235 237 235 236 237 236 237 236 237 237 237 181 125 126 107 
69 116 140 209 237 236 237 237 235 236 237 236 234 237 237 237 
236 236 236 234 234 235 234 235 234 235 236 236 196 212 239 237 
236 236 237 226 225 225 227 227 187 216 233 232 231 231 229 232 233 232 231 233 
231 231 233 232 231 232 232 232 232 233 232 232 230 232 231 235 
235 234 233 236 234 235 235 234 235 235 235 235 235 234 235 237 
236 235 236 235 235 235 236 237 235 237 237 236 238 237 224 226 
209 227 241 237 236 234 237 235 237 237 237 239 237 238 238 238 
236 232 234 235 235 235 235 235 235 235 234 236 212 196 238 237 
236 236 237 226 224 224 226 223 183 224 230 230 232 231 231 232 232 231 230 232 
233 233 233 232 233 232 231 233 233 232 233 232 232 232 233 233 
233 234 234 232 234 234 235 235 236 236 235 235 235 235 234 235 
235 236 236 236 236 237 236 236 236 235 236 235 238 239 237 240 
240 241 239 238 236 236 236 236 237 237 237 235 237 237 238 236 
235 235 234 235 235 235 234 234 233 234 234 236 224 186 238 237 
238 236 236 229 224 223 223 225 178 215 229 231 231 232 231 229 231 231 231 230 
231 232 231 232 232 232 232 231 233 232 231 232 232 233 233 234 
234 232 233 235 235 235 234 234 234 234 234 235 234 236 236 235 
236 235 235 235 235 236 236 235 236 236 236 236 236 235 235 236 
236 236 236 235 237 237 237 237 236 236 237 237 237 237 237 235 
234 234 235 234 234 235 234 235 235 234 233 234 217 174 237 235 
236 236 236 229 225 222 224 227 172 223 228 228 231 231 232 230 231 231 232 233 
232 232 233 232 232 232 232 229 231 232 233 232 233 233 231 234 
232 232 234 233 234 234 235 235 234 235 234 234 234 235 235 234 
234 234 235 236 235 235 234 237 235 236 235 236 236 235 236 237 
236 236 236 236 237 237 237 236 237 236 237 237 237 236 236 236 
235 234 235 235 234 234 235 234 234 234 233 234 232 166 238 235 
235 236 236 225 224 224 222 224 172 225 229 229 227 231 230 230 231 230 231 230 
231 232 232 233 231 231 231 231 231 232 232 232 231 229 231 233 
233 233 234 233 233 235 234 235 234 234 234 235 234 235 233 234 
234 234 234 233 234 235 235 235 236 235 237 236 237 236 237 235 
235 235 237 235 235 235 235 237 237 236 235 236 236 237 235 233 
235 234 235 234 235 234 233 234 235 235 234 234 235 160 238 235 
235 234 235 223 223 223 224 225 168 221 228 227 229 230 231 230 229 230 228 228 
231 231 232 231 233 233 232 231 231 232 232 232 232 230 233 233 
232 232 234 233 233 233 233 233 234 234 234 233 234 235 235 234 
235 234 234 234 235 234 233 235 234 236 234 238 235 235 236 236 
234 236 236 235 234 237 235 235 236 236 236 236 236 237 235 235 
235 234 236 235 233 235 234 234 235 234 233 232 234 166 238 235 
235 234 235 224 226 221 220 222 176 219 227 229 226 231 231 230 229 228 228 231 
230 229 231 233 230 231 232 232 231 232 232 232 232 232 232 234 
232 234 233 233 233 233 233 233 233 234 234 233 234 234 233 234 
234 234 234 234 234 234 236 234 234 236 235 234 235 235 235 235 
236 235 237 237 237 236 237 236 235 235 236 235 235 235 237 235 
235 237 237 236 234 233 234 234 233 233 235 234 221 151 237 235 
234 235 235 223 222 222 223 223 179 210 227 228 227 229 230 230 229 229 229 228 
230 231 231 231 232 231 231 232 232 232 231 231 232 233 234 232 
233 233 233 233 233 233 233 233 233 234 233 234 234 233 234 234 
233 233 234 234 234 234 233 234 235 235 235 235 235 236 236 236 
236 235 234 235 235 235 235 236 237 236 236 236 236 235 235 236 
235 234 236 236 234 234 234 236 234 234 234 233 229 155 236 234 
235 235 234 222 222 220 224 224 190 198 225 227 226 227 229 229 230 230 228 229 
231 230 230 232 233 232 232 230 231 232 233 233 231 231 231 231 
230 232 233 233 233 233 234 233 232 233 232 232 233 234 233 234 
233 235 233 233 233 234 235 234 235 235 236 235 234 235 235 234 
234 235 235 235 236 236 236 235 235 234 235 235 234 236 234 234 
235 234 236 236 234 233 233 235 234 234 232 232 227 168 236 235 
234 234 233 221 225 224 222 222 200 191 229 226 227 227 229 229 229 230 228 228 
229 230 231 231 231 230 232 231 232 232 231 231 231 231 232 230 
232 232 232 232 233 233 231 234 234 232 232 233 232 233 233 232 
233 232 234 234 234 233 234 235 234 234 235 235 234 234 233 234 
233 234 234 235 235 235 236 235 235 236 235 236 237 235 235 235 
234 235 237 234 233 233 235 235 234 236 233 233 205 184 235 233 
233 234 234 224 224 221 221 221 216 183 224 226 228 230 229 228 229 229 229 230 
232 230 231 231 230 230 229 232 231 231 229 230 231 232 230 232 
231 231 232 232 231 232 233 231 232 232 233 233 232 233 232 233 
234 235 233 232 234 234 233 234 234 234 235 235 236 235 236 235 
234 234 235 235 235 235 236 236 236 235 235 236 236 234 234 236 
235 235 235 236 233 234 232 233 235 235 233 234 194 192 236 234 
234 234 234 222 221 224 220 222 222 184 221 224 226 228 229 229 227 228 228 229 
228 230 229 231 232 230 230 229 230 231 233 232 231 230 230 228 
231 231 232 232 231 232 231 233 232 234 233 233 233 232 233 233 
232 233 234 233 232 234 233 235 234 234 233 234 234 235 234 233 
234 234 234 234 235 235 235 234 235 235 235 235 235 235 235 235 
235 234 234 233 233 234 232 234 233 232 231 232 178 206 233 236 
235 233 233 224 223 222 223 222 220 178 223 224 224 225 228 229 228 227 228 230 
229 227 229 230 229 231 230 229 231 230 230 231 230 231 230 230 
231 233 232 231 231 230 231 230 230 230 232 232 232 231 233 232 
233 231 232 233 232 232 231 232 233 233 232 233 234 235 234 234 
234 233 234 234 235 235 235 235 235 234 235 235 235 236 234 234 
233 232 235 233 233 232 233 233 234 232 232 232 163 228 233 233 
234 233 233 223 222 222 220 221 222 183 212 225 224 224 225 227 227 230 229 229 
230 229 230 229 228 229 230 230 230 229 229 228 230 229 232 230 
230 230 231 232 231 230 232 232 233 232 231 234 232 232 232 232 
232 232 232 232 232 231 231 233 232 230 229 234 234 233 234 233 
233 234 234 234 236 234 234 234 234 234 234 234 235 233 233 234 
234 234 233 233 233 234 233 233 234 231 233 232 148 238 235 234 
235 232 234 222 222 222 225 223 221 199 192 225 222 223 223 227 228 226 228 228 
228 227 228 229 228 229 229 229 229 230 229 230 229 229 225 229 
231 231 231 230 230 231 231 230 231 231 232 231 231 231 232 232 
231 232 232 233 232 232 232 232 232 231 232 232 233 233 233 233 
233 234 233 234 233 234 234 235 234 233 234 234 234 234 234 234 
234 233 233 233 234 234 232 232 232 233 233 231 148 238 233 234 
233 233 234 223 225 223 223 222 222 218 167 222 221 225 222 227 226 225 226 228 
228 228 229 227 226 226 228 229 229 229 228 229 230 230 228 231 
230 229 230 230 231 230 231 229 229 230 232 229 230 230 230 231 
232 229 231 229 232 232 231 232 231 230 232 231 231 232 234 233 
233 232 232 234 234 233 234 234 235 234 234 235 236 235 234 234 
234 232 234 234 234 233 231 230 233 235 231 202 165 236 234 234 
233 232 234 224 222 221 221 220 222 226 179 224 224 223 225 227 226 226 225 227 
227 227 225 227 226 227 227 226 227 228 226 228 229 229 228 227 
228 230 231 228 227 230 228 230 228 230 231 230 230 229 229 230 
229 230 230 230 229 228 229 230 231 230 232 231 231 231 232 230 
231 233 232 233 233 233 233 233 233 234 233 234 234 233 233 233 
233 234 234 232 235 233 232 232 233 231 230 154 198 234 234 233 
233 235 232 225 223 224 223 223 223 223 180 210 224 226 226 222 224 225 226 227 
226 226 226 226 225 226 229 229 228 226 227 228 227 227 230 226 
229 228 227 229 229 227 227 228 229 228 226 228 229 230 229 230 
229 231 229 229 231 232 230 230 229 231 231 232 231 233 231 232 
233 231 232 232 233 232 233 233 233 233 234 232 234 233 233 233 
233 232 232 232 235 233 232 232 232 233 229 117 234 234 235 234 
231 232 233 224 224 223 224 223 222 222 211 173 227 224 224 226 223 222 225 226 
228 225 225 227 225 226 227 228 226 227 228 227 228 227 226 226 
228 227 228 227 227 229 229 228 227 228 228 227 228 228 230 233 
231 232 232 230 232 233 231 230 230 227 230 228 229 230 230 231 
230 231 233 233 233 233 233 233 233 233 233 233 233 233 233 233 
233 232 234 231 233 233 233 230 232 232 175 184 236 234 234 231 
232 231 230 223 225 224 222 224 222 222 226 162 220 224 223 224 224 223 226 224 
222 225 226 224 225 224 224 225 227 225 226 227 225 227 226 228 
226 227 227 226 226 228 225 224 224 225 227 228 227 230 230 197 
215 209 196 188 161 198 229 231 232 228 229 228 228 228 230 231 
230 228 232 232 232 231 233 232 232 233 232 233 233 233 233 233 
233 232 233 232 232 232 232 231 230 233 145 222 234 234 234 233 
231 231 231 223 222 222 223 223 224 223 222 196 188 225 224 223 223 223 224 225 
226 225 223 225 224 227 227 226 225 227 224 224 225 225 226 225 
225 224 225 225 224 224 225 225 225 228 228 232 224 201 155 141 
145 159 170 177 178 138 144 209 221 227 225 230 229 226 229 229 
230 226 231 231 232 233 231 232 232 234 232 231 232 233 232 232 
231 231 231 232 230 232 233 231 230 202 159 234 233 232 233 233 
233 232 233 220 221 222 222 222 221 221 224 212 149 223 222 223 224 225 221 224 
222 223 225 226 225 225 225 225 226 225 225 227 227 226 224 225 
225 224 226 224 223 224 225 222 222 220 201 176 157 172 209 233 
232 232 233 231 229 228 193 137 149 214 225 219 226 228 226 229 
228 228 232 230 232 232 234 231 233 232 232 232 232 230 232 232 
232 231 230 232 233 231 230 229 230 163 192 233 232 232 232 233 
233 232 232 223 221 222 222 220 221 221 224 222 173 204 224 222 221 223 221 223 
223 222 222 223 223 223 222 224 224 224 224 225 223 224 225 224 
224 226 226 224 225 226 221 216 215 171 161 184 221 228 232 228 
227 229 231 228 226 229 230 226 188 141 219 213 221 225 224 226 
226 228 230 230 231 231 231 231 229 230 231 231 231 230 232 232 
231 230 232 230 231 227 229 229 217 143 231 232 232 234 231 232 
232 231 232 220 221 219 220 221 223 221 220 219 219 159 224 220 223 222 221 221 
222 223 221 223 222 224 223 225 226 224 224 224 223 224 226 224 
224 222 224 225 225 222 220 213 178 154 145 193 225 225 222 226 
224 225 227 227 224 224 226 227 225 185 187 222 224 226 224 220 
221 227 228 228 229 228 229 231 231 231 231 230 230 230 230 230 
231 230 228 229 231 228 227 228 168 192 233 232 232 231 232 232 
230 231 233 221 220 223 220 217 222 220 218 219 222 190 188 225 222 221 221 222 
224 220 222 223 223 225 225 224 222 223 223 224 225 225 223 223 
223 222 224 221 224 224 222 216 158 108 207 225 223 223 224 223 
223 225 224 223 224 222 223 224 227 221 140 223 222 224 225 225 
222 230 230 231 231 228 229 229 230 230 230 231 230 230 230 231 
228 228 230 228 229 226 228 217 140 229 233 231 230 231 231 231 
229 230 230 220 221 219 221 221 218 220 218 219 221 217 149 216 221 220 219 224 
222 223 222 221 220 224 222 221 224 224 224 223 223 224 223 222 
223 224 223 224 225 221 219 188 89 212 224 222 225 224 225 224 
225 224 224 223 223 225 221 224 223 223 159 212 223 225 224 224 
224 226 226 228 229 228 228 230 230 229 230 230 229 229 230 230 
229 227 228 228 228 224 231 179 182 232 230 231 230 230 229 230 
230 230 230 218 218 220 221 222 218 219 219 220 222 219 193 168 222 220 222 221 
221 222 222 222 223 219 221 223 224 223 223 223 223 222 223 222 
222 222 223 222 224 222 220 173 154 223 218 218 218 224 222 224 
224 224 224 225 224 224 225 225 226 222 161 206 224 224 224 223 
225 227 230 228 227 228 229 229 229 228 230 229 229 229 228 231 
229 228 226 226 228 228 215 140 227 231 230 231 231 231 230 229 
231 230 233 220 219 218 218 218 219 217 216 218 221 221 220 149 203 221 221 220 
219 221 221 221 223 222 222 223 221 221 221 221 222 223 223 224 
225 222 221 223 223 222 219 160 189 218 218 219 222 222 221 222 
222 223 222 222 223 224 224 222 223 220 149 211 227 224 225 223 
225 226 228 227 227 227 226 227 227 227 228 227 227 227 227 226 
228 225 226 226 225 229 159 200 234 230 230 230 231 231 231 229 
230 231 231 218 218 219 218 218 218 219 219 219 218 219 219 216 147 220 220 221 
220 220 220 222 220 220 220 221 222 223 222 221 222 223 221 220 
221 222 222 222 223 222 222 192 183 221 218 220 221 220 221 220 
222 221 220 221 222 223 223 223 224 225 160 223 225 226 225 224 
226 226 227 227 227 229 228 228 227 225 223 227 228 227 230 228 
227 228 228 226 227 201 156 234 230 231 230 230 229 229 228 228 
230 229 229 215 217 216 215 216 215 217 214 218 219 218 219 223 184 165 223 218 
218 221 220 218 219 220 219 220 223 223 221 221 222 221 222 222 
221 221 221 222 221 221 221 211 169 218 212 211 219 221 221 221 
221 219 220 220 220 220 220 221 223 214 159 222 225 225 225 225 
225 225 224 225 225 226 225 225 223 225 226 228 226 228 227 226 
225 225 226 228 225 139 218 232 229 228 230 229 230 229 230 230 
229 229 230 217 217 217 216 216 217 216 218 217 218 219 219 220 219 160 202 222 
218 219 218 220 219 218 220 220 221 221 221 223 222 221 221 222 
221 222 222 221 220 217 219 221 164 185 212 210 215 219 220 220 
219 219 220 219 220 220 219 218 224 166 186 225 223 224 225 224 
223 226 226 225 226 227 226 225 226 223 225 223 225 225 225 225 
225 224 226 229 176 174 234 228 229 229 229 231 229 229 229 229 
228 228 227 214 215 215 215 213 217 216 216 217 215 217 216 216 216 214 147 207 
221 218 218 217 217 218 218 218 218 221 220 219 217 219 220 221 
219 218 221 222 219 217 218 217 215 156 186 212 215 214 217 218 
217 218 219 221 219 217 217 223 204 146 208 225 225 224 224 225 
226 224 225 225 225 227 226 224 225 221 224 224 224 225 223 225 
225 225 227 178 157 231 229 228 227 228 229 225 226 228 230 227 
229 229 230 215 216 214 213 214 215 215 216 213 215 216 216 216 216 218 203 145 
213 219 217 218 218 219 218 218 216 219 221 220 224 220 219 219 
222 222 220 222 220 218 218 217 220 213 143 182 215 216 215 220 
216 216 218 218 221 222 222 208 130 157 226 225 224 224 224 224 
225 224 224 222 223 225 224 222 222 223 222 222 223 222 222 224 
221 224 202 122 216 228 226 227 228 229 228 230 229 226 226 228 
228 229 229 212 215 214 215 213 216 214 214 219 219 215 213 215 219 216 221 191 
140 211 218 218 216 216 218 220 219 218 218 219 220 219 220 219 
218 221 219 221 219 218 219 219 217 218 222 168 133 178 194 212 
212 214 217 218 215 205 155 118 160 220 222 223 223 223 223 224 
223 224 222 223 222 223 222 223 222 221 221 222 220 221 223 222 
224 217 144 199 228 227 227 227 227 228 227 227 227 230 227 228 
228 228 228 214 214 214 215 215 215 212 215 215 215 217 217 216 215 216 215 218 
180 146 214 216 217 218 217 219 218 218 221 219 220 222 219 219 
218 219 219 221 220 219 218 218 218 218 223 222 202 148 113 120 
131 127 126 130 115 110 143 197 221 221 222 223 224 222 223 223 
223 224 223 222 222 223 220 221 224 222 221 219 223 222 221 222 
209 135 190 230 224 226 227 228 227 226 226 227 226 226 229 228 
226 227 228 212 212 213 211 211 211 213 214 217 215 215 214 214 215 214 217 215 
218 187 143 212 215 218 216 217 217 217 218 216 218 217 218 219 
220 220 219 219 218 217 217 217 219 216 217 219 221 221 222 217 
180 179 183 167 196 214 221 221 222 222 223 223 223 223 223 222 
222 221 223 222 223 221 221 222 224 222 222 217 218 220 223 213 
132 189 225 225 222 227 226 225 225 226 225 227 227 226 224 226 
227 227 228 214 213 213 213 213 212 215 213 215 214 214 214 214 214 216 216 217 
216 217 190 136 207 216 217 214 218 217 218 218 220 220 219 218 
218 221 220 219 220 219 219 219 218 218 219 217 219 218 219 220 
221 221 222 221 225 219 218 220 220 222 221 221 221 221 220 222 
221 220 221 221 222 222 220 220 219 220 218 219 220 221 197 131 
201 227 225 223 221 223 226 225 226 228 225 223 222 223 225 225 
224 225 227 212 213 212 214 212 211 214 212 214 216 213 214 214 217 214 214 214 
213 213 216 197 137 204 216 213 212 216 216 214 218 218 218 217 
217 218 219 220 221 221 221 219 218 220 218 217 219 216 216 216 
220 219 216 218 217 217 218 220 221 219 221 221 222 223 222 219 
221 221 220 220 219 219 220 221 222 223 222 220 222 191 126 208 
223 222 222 223 223 225 223 224 226 226 225 225 226 225 224 225 
225 223 224 213 209 212 211 212 209 212 213 214 212 213 215 215 216 212 211 213 
215 213 213 218 207 136 181 215 216 214 214 214 216 215 217 220 
219 217 219 218 218 220 221 217 219 219 220 216 218 216 217 216 
217 216 218 220 219 220 219 220 221 221 220 221 220 221 221 221 
220 221 220 220 221 220 221 217 220 220 224 222 173 144 217 223 
221 222 222 221 222 224 223 225 226 224 224 223 222 221 223 223 
223 222 223 210 212 212 212 209 211 215 214 214 212 215 214 212 213 212 212 212 
213 213 214 214 214 214 152 149 208 217 216 216 214 216 214 211 
212 218 217 217 219 218 217 217 220 219 216 220 219 218 217 214 
216 218 219 217 219 218 219 219 220 220 220 220 220 218 220 221 
218 220 219 218 218 218 220 219 220 227 209 141 150 221 221 220 
223 221 220 223 222 222 224 223 222 222 222 221 222 222 222 222 
221 222 224 211 210 210 212 210 210 211 213 213 214 213 213 214 213 212 212 211 
212 213 212 214 214 215 213 187 120 186 216 220 216 214 213 214 
214 216 216 217 217 218 217 217 218 217 218 217 216 214 217 218 
217 217 215 216 216 217 218 218 218 219 218 220 220 219 218 219 
218 219 219 219 219 217 220 223 221 185 117 197 223 218 217 217 
217 216 220 220 220 220 221 222 222 222 222 222 220 223 221 220 
218 221 221 209 210 209 209 210 208 210 211 211 212 212 212 212 212 212 211 211 
211 213 213 212 211 211 211 214 191 133 144 209 218 215 213 212 
213 212 212 215 216 217 217 217 216 217 217 216 217 217 217 216 
216 215 217 216 216 217 215 216 217 217 219 215 217 216 217 218 
218 217 218 217 218 221 222 217 150 140 219 227 222 217 216 214 
213 217 220 221 221 220 220 220 219 220 220 220 221 219 220 222 
218 220 221 210 208 211 208 211 211 210 211 210 212 212 212 212 211 210 211 210 
211 210 209 212 210 210 211 210 216 213 189 122 159 204 215 211 
213 214 214 212 213 214 215 216 216 215 216 216 217 215 216 216 
215 216 214 216 215 215 218 219 217 217 216 216 215 216 215 216 
216 217 216 219 216 224 179 118 189 224 225 220 217 220 215 216 
215 217 220 220 217 218 221 219 219 221 219 222 219 220 219 217 
219 220 220 208 210 209 210 209 210 209 209 212 213 213 211 211 211 213 213 211 
212 211 212 212 211 211 211 209 209 212 217 212 178 124 157 207 
210 215 213 212 214 216 214 217 214 215 214 216 214 214 215 213 
213 214 214 215 215 215 214 214 216 214 214 215 215 216 216 213 
217 217 219 222 187 121 162 216 223 221 220 219 217 214 215 217 
216 217 219 218 219 218 217 218 221 219 221 221 217 218 218 219 
220 219 217 209 209 209 209 210 210 209 208 208 210 210 210 211 211 210 210 210 
211 208 210 210 209 209 210 210 210 211 210 208 211 211 168 122 
136 193 213 212 216 211 215 214 216 213 214 213 214 215 214 214 
213 213 213 215 216 215 213 213 214 215 214 213 215 216 219 219 
219 200 153 119 157 217 225 221 218 218 219 217 215 217 217 216 
216 219 217 217 216 218 216 219 218 218 216 217 218 217 219 219 
218 220 219 208 210 209 209 208 208 208 209 207 208 207 210 210 210 211 211 210 
209 210 210 209 209 209 209 208 210 211 210 211 211 212 211 213 
185 141 120 152 183 209 214 214 213 217 215 215 216 214 214 212 
213 212 212 212 212 213 214 213 212 214 215 217 218 218 216 175 
132 97 156 217 221 222 218 216 217 216 215 215 216 217 214 215 
212 217 217 217 215 216 217 218 218 217 219 219 216 216 216 216 
217 217 218 208 209 210 208 208 209 208 207 209 210 210 208 209 208 211 209 211 
210 209 210 209 209 210 210 209 210 210 209 208 209 207 208 212 
212 212 195 154 124 117 133 155 173 204 215 218 219 218 215 216 
218 218 216 214 215 217 215 216 217 216 216 195 167 131 129 167 
153 165 222 218 217 217 215 214 216 215 218 216 216 218 214 214 
214 213 215 216 217 217 216 216 216 218 216 216 218 217 218 216 
217 217 216 208 208 208 208 208 207 207 208 209 208 207 209 209 210 206 209 210 
210 209 209 210 209 209 209 209 208 210 209 208 208 210 208 207 
211 208 209 212 211 211 181 149 139 121 106 115 147 165 174 180 
183 199 201 201 191 186 189 164 150 134 106 84 107 151 164 167 
200 220 217 214 216 216 217 215 216 215 213 211 213 213 215 214 
216 218 215 215 216 215 216 217 217 217 217 217 216 217 217 217 
217 217 215 208 208 207 208 209 209 205 207 208 209 209 208 211 208 209 210 208 
210 209 209 210 209 206 209 210 210 209 208 210 208 208 208 207 
208 206 208 210 210 211 213 214 215 214 202 194 193 172 168 139 
102 107 124 116 104 101 123 138 155 178 190 206 211 214 219 219 
217 215 214 212 214 215 216 215 212 212 214 216 213 214 215 214 
214 214 215 215 216 216 215 217 216 217 218 217 216 215 216 216 
217 214 214 208 208 209 208 208 207 206 206 208 208 207 209 208 207 208 209 210 
209 208 208 210 209 209 209 208 209 208 210 212 209 210 210 210 
209 210 210 208 210 209 209 211 210 210 212 212 212 214 214 211 
211 208 213 215 214 212 215 216 217 216 216 214 217 218 216 215 
215 212 215 214 212 211 211 213 214 211 212 212 212 212 214 214 
214 212 211 215 214 216 217 216 215 217 218 216 217 217 216 214 
215 216 218 208 206 207 207 208 207 207 206 208 209 207 210 205 208 207 206 209 
208 209 210 209 209 209 206 210 210 210 206 205 210 208 207 208 
210 208 206 209 208 210 209 209 210 210 210 210 210 211 211 210 
210 210 212 214 215 211 212 211 211 212 209 210 209 210 209 210 
209 212 210 211 212 213 211 211 209 211 210 212 213 211 211 210 
212 213 215 213 213 214 216 215 215 215 215 216 217 215 216 216 
215 217 218 209 209 209 209 210 207 205 208 208 208 210 209 207 208 207 208 207 
206 207 209 208 207 207 210 209 209 209 210 210 208 208 207 209 
207 207 208 209 207 209 208 208 207 207 210 208 208 209 209 210 
209 210 210 210 211 210 210 211 212 210 210 210 210 211 213 211 
214 213 213 210 212 213 212 211 212 212 209 212 211 212 213 215 
213 213 213 211 212 213 214 214 216 216 217 217 215 216 215 214 
215 218 215 210 207 209 209 208 210 209 208 208 209 209 210 209 209 210 209 209 
210 210 209 209 210 211 208 212 208 210 209 209 210 211 210 209 
208 210 207 210 206 209 208 208 208 210 209 208 209 209 208 210 
211 211 212 211 210 208 209 209 211 209 211 211 209 212 211 210 
210 211 212 212 211 211 211 212 211 210 210 213 212 211 213 213 
212 212 213 212 211 211 216 215 213 218 217 214 217 218 215 216 
216 217 216 209 210 210 210 211 208 210 210 210 209 209 209 210 208 210 209 209 
210 210 210 211 210 210 209 208 211 211 209 211 211 211 210 210 
210 208 209 207 208 206 207 210 208 210 211 210 212 212 212 210 
212 209 210 212 208 209 208 210 211 211 211 210 209 209 209 209 
208 211 211 211 210 212 210 212 211 213 212 212 212 213 211 211 
211 210 213 211 209 211 214 214 216 215 216 216 217 216 217 214 
217 217 218 210 207 208 208 209 210 210 209 210 208 210 209 212 208 210 209 210 
209 208 210 211 210 208 207 205 210 210 210 208 210 210 210 209 
209 211 210 209 206 211 208 205 210 209 208 209 207 208 208 208 
209 209 208 211 210 212 211 209 208 210 210 210 210 206 204 206 
208 209 211 210 211 210 211 209 210 210 210 209 212 212 210 207 
209 207 207 207 207 209 213 212 215 215 216 219 217 218 215 211 
212 214 212 