P2
# Created by IrfanView
100 100
255
254 254 254 254 254 254 254 254 254 254 255 255 254 254 255 255 255 
255 254 254 255 255 254 254 255 254 254 255 254 253 254 255 255 
255 254 254 254 254 254 254 253 254 254 254 255 255 255 254 255 
255 254 254 255 254 255 254 255 255 254 254 254 254 254 253 253 
254 253 254 253 253 252 253 252 253 251 252 251 250 250 250 250 
249 250 250 250 250 250 249 250 250 250 250 251 251 251 251 250 
252 251 251 254 254 254 254 253 254 254 254 252 254 254 255 253 254 254 254 254 
254 254 253 254 254 254 254 254 254 254 254 254 254 254 254 254 
254 253 254 254 254 254 254 254 254 254 254 254 254 255 255 254 
254 254 254 254 253 254 254 253 253 253 253 253 254 253 254 254 
255 254 254 253 253 252 252 252 252 252 251 252 251 250 249 250 
250 249 250 250 250 249 249 250 250 250 251 250 251 251 252 252 
252 252 251 254 254 253 253 254 254 255 254 254 254 254 253 253 254 254 255 254 
254 253 254 254 254 254 254 254 254 254 254 254 254 253 254 255 
254 254 254 254 253 253 252 253 254 254 254 254 254 254 254 253 
254 254 253 253 254 254 252 253 253 253 255 253 253 254 253 253 
253 253 253 253 254 252 252 253 253 252 253 252 250 250 250 250 
248 249 250 249 250 249 250 250 250 249 251 250 249 251 250 251 
250 250 252 253 253 253 253 253 253 254 253 254 253 254 253 254 254 254 253 254 
253 253 252 253 254 254 253 254 254 254 253 253 254 253 254 254 
253 253 253 253 253 253 253 252 253 253 253 254 253 254 253 253 
253 252 252 252 253 253 252 252 253 253 251 251 252 252 253 253 
253 253 253 254 254 253 252 253 253 252 253 252 251 249 250 250 
250 248 250 250 250 250 249 249 249 249 249 250 251 250 251 249 
250 250 249 253 252 253 253 251 254 252 253 253 252 253 253 254 254 254 253 253 
253 252 252 254 253 253 254 253 253 253 253 253 253 252 253 253 
252 253 254 252 253 252 252 252 252 252 252 252 251 252 252 253 
251 251 252 251 250 252 253 251 251 251 251 251 251 250 251 251 
252 251 251 254 253 252 252 251 253 252 252 252 252 251 250 250 
249 250 250 250 249 248 248 250 250 250 249 250 250 250 249 251 
250 249 250 252 252 252 252 252 251 253 253 252 252 252 253 253 253 253 253 253 
254 253 252 252 253 253 253 252 253 253 253 253 252 252 252 253 
252 252 251 251 251 251 250 252 250 250 251 251 251 251 253 253 
253 252 251 252 251 251 249 252 251 250 251 251 251 252 252 251 
251 252 251 252 252 252 252 253 253 254 253 252 252 250 250 249 
249 248 249 249 250 250 250 249 250 249 249 248 250 250 250 250 
249 248 249 251 251 252 251 250 250 251 252 251 250 250 251 252 252 252 252 252 
252 252 254 252 252 252 253 253 252 252 252 252 252 251 252 251 
251 251 251 251 250 250 248 250 250 252 253 251 251 253 254 253 
253 253 253 252 252 251 251 251 251 251 251 251 250 250 251 251 
251 251 252 252 252 252 252 252 252 254 253 252 251 251 250 250 
249 249 248 249 249 249 249 249 248 249 250 249 248 248 248 249 
250 249 249 251 251 251 251 250 252 251 251 251 250 250 252 253 251 251 251 251 
252 251 250 252 251 251 252 253 252 251 250 250 250 250 249 251 
252 252 250 250 250 251 252 253 252 246 234 222 217 209 211 210 
208 211 220 210 211 221 224 231 245 251 251 252 251 252 250 250 
251 251 252 251 251 251 252 251 252 251 252 251 251 252 250 250 
249 250 250 248 248 249 249 250 250 249 250 248 249 249 250 250 
249 249 248 251 250 251 252 250 250 251 252 251 251 250 251 249 250 251 251 252 
250 251 251 251 251 252 251 250 251 252 251 250 250 251 251 250 
251 252 250 251 250 242 214 198 194 194 207 228 229 238 248 251 
249 245 242 239 235 216 197 188 175 178 195 218 239 249 250 250 
250 251 250 250 251 251 251 252 252 252 252 249 248 249 251 250 
249 248 248 249 249 248 250 249 248 249 248 249 249 249 250 249 
249 248 249 250 250 250 248 250 250 250 250 250 250 250 251 250 250 249 250 250 
251 250 251 251 250 250 250 250 249 250 250 250 249 249 250 251 
251 252 241 211 187 195 222 243 253 254 253 251 251 250 251 252 
251 253 250 251 250 251 250 250 250 249 233 209 191 190 201 238 
249 251 251 250 251 250 251 251 251 251 251 250 250 250 250 250 
249 249 250 249 248 249 249 249 247 249 249 247 248 249 250 249 
248 247 246 250 250 250 249 249 250 249 249 250 250 250 250 249 250 249 249 251 
250 250 249 250 250 250 249 247 249 249 248 248 250 249 250 247 
207 183 199 233 249 252 251 250 251 251 249 247 248 248 248 248 
249 250 246 248 249 247 249 248 247 248 250 251 250 245 219 186 
191 224 248 251 251 250 250 249 250 250 251 250 249 250 249 249 
249 249 249 249 249 247 248 249 248 249 249 249 248 248 248 249 
250 247 246 249 249 250 248 249 249 249 249 250 249 248 249 249 249 250 249 249 
249 248 250 248 249 249 249 249 249 249 249 249 251 247 203 184 
221 248 251 250 250 250 250 249 249 249 249 247 246 245 245 247 
249 250 249 248 248 247 246 247 247 247 248 248 247 248 251 251 
248 207 180 211 239 249 252 251 251 250 251 251 249 249 249 249 
249 249 249 249 249 249 249 249 246 248 248 248 247 248 248 249 
248 247 249 250 250 249 249 250 249 249 249 249 250 249 249 249 250 249 249 248 
248 250 249 248 249 248 248 248 249 246 250 250 210 192 239 251 
250 250 249 247 249 247 248 248 248 247 246 245 244 245 241 244 
246 248 248 247 247 247 245 247 247 247 247 245 245 247 246 247 
249 250 249 216 172 182 239 252 251 250 249 250 249 250 250 249 
249 250 251 247 249 249 248 248 248 248 247 246 247 246 247 247 
248 247 245 248 246 248 248 248 248 249 248 248 248 249 249 249 249 248 249 247 
248 249 248 247 247 247 249 247 248 249 218 190 231 252 250 248 
249 247 247 246 248 248 247 246 245 244 245 244 244 244 244 243 
245 247 248 247 246 247 246 246 247 247 247 247 247 247 247 247 
247 248 248 252 243 209 164 195 247 252 250 249 250 250 250 249 
248 248 249 249 249 249 247 248 249 249 248 247 247 247 247 247 
248 247 246 247 248 247 248 248 247 247 247 247 247 247 248 247 249 248 248 248 
248 249 248 246 248 246 246 249 236 195 226 249 248 248 246 246 
248 248 248 247 246 247 243 243 244 243 242 243 242 243 244 243 
244 245 247 246 247 247 247 247 247 246 245 246 247 247 246 246 
248 248 247 247 248 250 245 207 166 225 249 249 248 249 250 249 
249 249 249 249 248 248 247 246 248 248 247 248 248 246 246 245 
246 246 246 248 247 248 246 248 247 247 248 246 248 247 247 247 247 246 247 248 
247 248 247 244 247 247 248 222 194 243 250 249 247 246 247 246 
247 247 247 245 247 245 243 242 242 242 243 242 243 244 242 243 
242 243 242 245 246 246 246 247 246 246 246 246 245 245 246 246 
245 247 246 246 245 246 248 250 227 168 209 247 249 248 250 249 
249 249 249 249 248 248 247 247 247 247 246 246 247 247 246 246 
246 247 246 247 246 247 245 247 246 247 248 247 247 248 247 246 247 247 246 247 
246 245 246 246 247 246 196 210 249 248 245 245 245 245 248 246 
245 246 246 246 244 241 243 243 242 242 242 242 243 242 241 242 
242 242 240 242 245 244 246 246 245 244 245 246 245 245 244 245 
246 247 245 244 244 246 246 249 252 246 192 171 240 250 251 250 
249 249 250 249 248 246 247 246 246 247 245 245 245 246 246 245 
246 245 244 247 246 245 247 245 246 246 246 247 248 246 246 246 245 245 245 245 
245 243 246 243 241 179 231 248 247 246 245 246 247 246 245 246 
249 246 245 245 243 243 243 242 242 242 242 242 242 241 241 242 
243 243 241 242 245 246 246 245 247 247 246 245 246 246 247 244 
245 245 245 245 246 245 245 243 247 250 250 205 179 238 249 247 
248 249 249 249 246 247 246 244 245 245 246 246 244 245 245 246 
245 244 246 246 247 246 245 246 247 246 246 245 244 246 246 245 246 245 245 244 
245 244 244 247 171 232 246 245 245 244 245 246 245 245 245 247 
246 243 241 243 242 242 243 244 243 244 243 242 242 241 240 241 
243 242 242 242 244 244 244 245 244 245 243 244 245 245 244 244 
245 245 246 245 245 246 245 245 247 247 248 252 222 182 232 249 
251 247 249 248 247 245 245 243 244 244 244 243 243 243 244 242 
243 241 242 245 244 246 244 245 244 244 245 245 246 245 246 245 244 244 243 244 
245 245 244 208 184 248 246 244 245 244 245 245 245 244 243 245 
243 243 243 243 244 242 243 242 242 242 243 244 242 242 241 242 
242 242 240 242 243 242 242 243 243 243 244 245 244 244 244 244 
243 244 244 244 245 245 245 247 246 247 246 247 250 242 180 224 
250 250 248 248 247 245 244 243 244 241 241 242 242 241 242 240 
242 242 242 245 244 244 245 243 244 244 245 244 245 243 244 244 245 244 243 242 
244 246 206 175 247 245 244 244 244 244 244 242 245 244 244 243 
244 243 243 242 242 244 244 241 243 242 243 244 242 241 241 241 
241 242 241 239 242 243 243 243 242 243 243 242 244 244 244 243 
244 243 243 243 243 244 243 244 245 245 244 243 244 248 245 179 
213 248 244 246 246 242 241 246 241 241 240 241 241 240 241 242 
241 241 241 244 243 243 242 244 244 244 244 244 244 244 243 244 244 244 243 242 
245 201 182 247 245 243 243 243 242 242 244 243 245 244 244 243 
242 242 241 243 243 241 242 243 243 243 243 243 241 242 240 241 
242 241 241 241 242 242 242 241 242 242 242 242 242 243 243 243 
242 242 242 242 243 242 244 242 242 243 243 243 242 242 248 236 
178 224 245 245 242 242 239 240 239 240 240 239 241 241 240 239 
238 240 242 244 243 245 243 243 244 244 244 244 244 244 243 243 244 243 242 245 
214 168 248 243 243 242 241 241 242 242 242 241 243 243 242 243 
243 242 242 242 244 243 244 243 243 243 242 243 243 241 242 241 
241 240 242 241 241 242 241 242 241 241 240 240 242 240 241 241 
242 240 241 242 242 244 240 242 243 242 244 244 241 240 242 243 
226 150 222 244 241 240 240 239 237 238 238 239 239 238 241 239 
239 240 238 243 243 242 243 242 243 243 244 243 243 243 243 242 244 244 244 215 
149 244 242 242 241 243 242 241 242 243 242 241 242 244 243 242 
245 244 242 244 243 242 241 243 244 242 242 240 241 241 241 240 
239 242 241 240 240 239 240 240 239 240 240 240 240 241 241 241 
241 242 241 241 241 240 239 242 240 238 243 243 242 240 241 241 
242 224 168 238 240 237 235 237 235 237 237 237 237 238 238 238 
239 238 238 243 243 243 242 242 243 243 243 241 243 244 244 242 242 244 222 156 
242 243 241 240 241 241 240 241 241 243 244 244 244 246 246 240 
242 242 243 242 242 242 244 242 244 244 243 242 242 241 240 240 
240 241 241 240 240 240 239 239 240 239 239 240 239 238 239 239 
239 240 238 238 239 240 240 241 242 240 239 240 238 239 239 238 
238 240 198 159 236 237 234 235 237 236 235 235 235 236 235 236 
235 236 232 242 244 242 242 243 243 242 243 243 243 244 243 241 242 242 147 237 
244 240 240 241 241 239 239 241 243 240 235 207 215 188 166 146 
160 208 246 243 243 243 243 243 243 244 243 242 241 241 240 241 
240 239 239 240 239 238 241 239 240 237 239 239 238 239 238 236 
239 239 239 239 239 239 240 238 242 240 240 238 239 237 237 235 
236 237 241 175 191 238 235 234 234 233 233 234 234 234 235 234 
234 234 232 242 242 241 240 242 242 242 243 240 240 241 242 241 243 157 218 244 
241 239 239 240 240 239 243 242 178 127 141 161 187 194 211 214 
206 159 181 244 241 242 243 241 243 241 242 242 243 242 242 240 
240 239 240 241 240 239 240 239 240 240 237 236 239 237 238 238 
240 241 242 240 242 237 237 237 240 238 237 236 235 236 235 235 
236 235 236 234 163 222 235 233 234 234 233 233 232 232 233 232 
234 233 233 243 243 242 241 239 241 240 240 242 240 239 241 243 195 194 247 241 
239 240 241 239 239 240 229 140 136 215 244 243 244 244 245 243 
243 244 182 185 243 243 242 242 241 242 242 242 243 242 242 241 
240 241 241 240 239 239 238 238 239 239 237 238 237 237 236 238 
225 213 201 200 178 172 168 170 176 236 238 237 238 235 235 235 
235 237 235 238 215 160 232 234 232 233 233 232 232 232 233 232 
233 234 234 243 242 242 241 241 241 240 240 241 241 241 239 238 165 244 241 239 
239 239 239 238 243 233 130 179 241 242 240 241 241 239 238 239 
238 240 244 184 240 242 242 242 242 242 242 243 243 242 241 242 
242 240 239 239 240 240 240 238 235 241 237 236 235 238 228 157 
135 168 181 199 189 192 207 202 178 151 231 237 233 236 235 236 
235 236 235 235 236 185 201 235 233 232 232 233 232 233 232 231 
230 233 233 241 242 241 240 240 240 241 240 239 239 239 243 174 233 242 241 239 
240 240 240 240 202 123 203 243 240 239 240 240 239 239 238 239 
239 239 240 230 237 243 242 241 241 242 242 244 244 242 240 240 
242 241 238 239 240 241 240 238 237 239 238 239 237 224 158 186 
233 237 239 240 241 241 239 240 241 203 154 211 232 234 234 233 
233 235 235 235 235 226 170 237 237 234 231 231 231 231 231 231 
230 230 233 243 241 241 240 241 239 241 240 239 241 240 216 187 244 241 241 241 
239 240 237 218 119 223 243 240 240 238 240 241 241 241 240 240 
239 240 242 243 241 242 242 242 241 241 240 240 242 242 242 241 
240 241 239 239 239 240 240 240 239 237 237 234 222 155 210 234 
236 236 236 238 237 236 235 233 236 241 201 127 212 235 234 233 
234 236 234 235 237 240 187 195 233 232 232 232 231 229 231 230 
230 230 231 241 242 240 240 238 240 240 240 241 239 241 170 241 242 241 242 239 
239 238 238 219 211 241 239 240 238 239 239 241 244 240 239 240 
240 241 241 241 241 239 241 241 242 242 242 240 242 238 237 238 
239 240 238 239 239 238 238 238 235 236 237 229 150 219 236 234 
234 235 235 235 235 235 234 235 235 235 241 227 167 235 234 236 
235 234 234 235 235 236 229 160 231 233 232 230 231 232 231 229 
229 231 229 242 241 240 239 241 240 240 240 240 240 217 201 241 239 239 240 239 
238 238 239 240 242 238 241 239 239 241 225 152 162 227 240 240 
237 241 241 241 241 242 242 242 241 242 241 242 241 241 241 239 
238 238 238 238 237 237 239 238 238 237 236 230 216 238 235 234 
234 234 235 236 236 236 236 233 234 234 236 238 237 237 235 235 
234 235 234 233 235 234 237 178 200 234 232 232 232 232 232 231 
230 230 230 242 242 238 240 237 239 241 240 236 241 185 244 240 240 239 239 238 
239 241 241 240 238 239 240 242 225 176 121 136 152 136 192 238 
240 240 239 239 240 240 241 240 239 240 239 240 239 240 240 238 
239 238 238 239 240 236 235 237 237 237 236 236 237 236 237 234 
234 233 232 233 233 236 236 235 233 234 233 234 236 235 234 235 
234 235 233 232 233 235 235 220 178 236 233 232 232 232 229 229 
227 229 229 242 241 237 238 240 238 239 238 239 226 200 241 239 239 238 238 238 
239 238 237 239 239 238 234 189 134 124 111 89 107 149 149 182 
237 238 239 241 241 240 240 238 240 240 240 238 238 237 239 238 
238 237 239 237 236 238 237 238 237 236 237 235 235 236 235 232 
220 191 185 168 165 171 197 227 234 233 233 233 233 235 235 235 
234 234 234 234 233 232 235 236 166 225 233 234 232 230 229 228 
228 229 229 242 240 236 238 237 236 238 238 239 182 236 237 237 238 237 237 237 
237 238 237 237 238 237 173 131 145 115 90 106 95 98 128 168 
209 239 238 239 238 240 239 240 240 240 241 240 239 239 240 239 
238 237 238 237 237 238 237 237 237 237 237 235 234 233 231 200 
142 166 131 136 136 125 144 161 213 232 232 233 234 234 235 234 
234 235 235 235 234 233 236 234 194 188 233 233 233 232 231 228 
228 227 228 240 239 236 237 236 236 237 238 238 184 239 238 237 238 238 234 237 
236 236 237 238 239 234 175 149 129 93 123 105 129 100 82 133 
169 240 237 240 241 241 240 240 242 240 240 239 239 239 239 239 
239 237 236 237 240 239 236 236 236 237 236 236 234 231 217 139 
187 141 117 131 135 147 149 156 165 222 232 234 235 234 234 234 
234 234 234 236 235 234 236 235 233 174 236 234 234 233 232 229 
227 226 227 239 240 237 234 236 234 234 236 212 220 237 237 236 237 237 237 237 
236 237 236 236 239 194 120 132 110 128 104 117 133 96 94 95 
130 240 239 239 239 238 239 239 240 239 238 239 239 239 238 239 
238 239 238 238 238 237 237 236 235 235 236 234 232 233 179 172 
115 122 131 144 141 120 114 119 154 174 230 231 234 234 234 235 
235 236 235 234 234 234 236 237 237 177 222 233 233 232 230 230 
230 226 227 239 240 239 238 235 234 235 238 181 238 237 237 237 237 236 237 236 
237 236 236 238 238 191 144 136 100 89 130 145 140 117 78 96 
132 215 239 239 239 240 240 239 239 239 239 240 239 239 239 239 
238 239 238 238 239 237 236 237 236 236 238 235 234 213 153 152 
131 127 156 134 146 130 112 93 121 162 226 232 233 234 234 235 
235 236 236 233 234 235 236 237 234 208 192 235 232 231 230 231 
227 227 228 238 240 238 235 236 234 236 227 180 239 238 236 237 238 238 236 236 
236 236 236 236 235 207 126 119 99 110 140 128 155 100 82 94 
111 204 237 237 240 239 241 240 237 240 238 239 239 238 238 238 
239 240 239 236 236 237 236 237 236 236 237 235 232 210 135 123 
108 143 149 159 134 151 160 125 83 140 211 232 232 233 234 235 
234 235 235 236 236 236 237 237 234 227 170 234 235 234 232 231 
229 227 227 237 239 238 235 237 235 235 156 198 239 237 237 237 238 235 236 236 
236 236 235 235 235 214 132 128 105 98 103 112 115 93 82 122 
149 214 239 239 237 237 239 239 240 240 239 237 238 239 238 238 
239 239 239 238 237 237 234 235 235 235 236 235 231 179 153 137 
145 132 137 141 164 172 120 80 70 157 191 232 234 234 235 234 
234 234 234 234 235 236 235 235 235 234 166 233 235 234 233 231 
230 227 227 237 239 239 239 236 235 233 158 239 238 238 238 236 237 237 236 236 
238 236 237 238 236 230 109 128 92 149 152 154 81 94 112 158 
151 230 238 238 240 237 238 237 237 238 239 239 239 238 237 239 
238 238 238 238 236 236 236 235 235 235 235 234 233 181 178 135 
131 115 158 158 179 151 131 114 80 130 209 232 234 236 236 235 
235 236 235 235 235 234 234 235 236 235 185 226 232 231 232 231 
229 227 226 237 238 237 237 236 235 233 149 240 235 237 238 237 237 238 235 238 
237 237 236 238 236 237 142 160 80 90 86 84 90 102 162 137 
176 240 235 237 237 237 239 238 239 238 237 238 238 238 238 237 
237 238 239 238 236 237 235 235 235 235 235 234 231 211 150 117 
109 102 128 149 133 120 85 94 121 146 228 232 234 236 234 234 
236 235 235 235 235 235 237 236 235 233 190 214 233 232 234 233 
227 228 227 236 236 237 235 238 235 220 142 240 237 238 237 236 237 235 238 238 
236 236 237 236 236 241 194 104 105 77 66 85 128 122 119 183 
236 237 236 236 237 238 237 238 237 238 238 238 237 237 238 239 
238 239 236 237 236 239 235 235 236 235 236 236 233 233 179 167 
113 124 104 115 89 87 99 131 141 184 234 233 233 234 236 235 
235 235 235 235 235 236 234 237 236 233 199 200 232 233 234 232 
231 229 228 236 237 236 235 235 236 208 189 237 237 237 236 237 237 236 236 236 
237 238 237 237 237 238 240 152 105 100 99 134 118 126 198 238 
238 235 234 235 236 237 237 237 236 239 238 238 238 237 237 238 
236 236 235 237 236 236 234 233 235 234 234 236 233 233 209 146 
120 82 99 112 108 113 112 149 159 217 233 235 234 235 234 236 
235 236 235 234 234 235 236 236 236 235 214 182 235 233 235 233 
230 228 229 237 235 237 235 235 237 198 198 238 236 237 236 236 237 237 238 237 
236 235 236 236 236 238 237 230 216 184 160 154 196 237 239 237 
236 235 238 235 236 237 236 238 238 236 237 237 238 237 238 237 
239 236 236 237 236 236 235 235 235 235 234 235 234 232 238 212 
161 146 117 111 141 140 138 162 219 238 236 236 235 236 234 237 
235 237 237 235 235 236 236 237 235 235 223 172 230 232 233 232 
231 229 230 236 234 236 235 235 234 202 208 238 238 239 237 238 238 236 236 237 
237 237 238 236 237 237 237 239 240 241 243 244 242 240 237 235 
235 236 236 236 236 237 236 237 237 237 236 238 236 236 237 237 
236 238 237 237 236 235 234 235 234 234 234 235 235 232 235 237 
238 237 212 171 156 188 179 219 237 235 234 236 235 236 235 235 
235 235 235 234 235 236 235 234 235 232 225 165 230 234 234 232 
231 231 228 238 236 235 236 234 235 199 214 238 237 237 236 237 237 237 237 236 
236 237 237 237 237 238 235 236 236 237 238 239 239 236 236 236 
236 235 236 235 236 237 236 237 236 236 236 238 237 236 237 237 
235 236 235 236 236 235 234 233 235 234 234 234 233 233 232 236 
237 237 238 240 224 196 207 235 234 235 235 234 235 235 235 234 
235 235 235 234 233 234 235 234 234 235 229 169 232 233 234 235 
232 229 229 236 235 235 234 234 235 201 215 237 235 237 237 238 237 238 238 237 
237 237 237 237 238 237 236 237 236 237 237 236 236 238 237 238 
237 235 236 236 237 235 236 237 235 236 237 237 236 236 235 237 
235 237 235 237 236 234 235 235 234 234 233 234 234 233 233 233 
232 233 236 235 239 239 238 235 234 234 235 235 235 234 235 236 
236 236 236 233 233 233 234 234 234 231 228 151 227 234 232 234 
233 230 231 237 236 234 235 236 235 200 214 238 237 236 235 237 237 237 236 235 
236 237 237 237 237 237 236 237 236 237 238 237 237 237 235 237 
237 235 234 234 235 237 235 236 236 236 235 235 235 236 237 234 
235 235 235 236 238 236 233 234 233 234 234 234 233 233 233 233 
232 232 233 235 233 234 234 235 236 235 234 234 233 235 235 234 
234 234 233 234 235 234 233 232 234 233 229 161 230 233 233 234 
233 231 231 236 234 236 234 235 234 200 214 238 236 236 237 236 235 236 236 237 
236 236 237 237 236 236 236 239 236 237 236 236 235 236 236 235 
235 235 234 234 235 234 237 235 235 234 235 235 235 235 234 235 
235 236 235 236 235 236 235 235 233 233 233 232 234 233 233 234 
233 235 234 234 234 234 235 233 234 235 234 234 235 236 234 234 
235 234 234 234 233 233 232 234 235 235 231 146 228 233 233 232 
231 232 230 234 235 234 234 236 233 205 205 236 235 235 235 236 236 236 236 236 
236 236 236 235 236 236 237 235 236 235 235 235 236 235 236 235 
236 235 235 235 235 235 236 235 235 234 236 234 235 234 237 234 
234 234 234 235 234 234 235 234 233 233 233 233 232 233 233 232 
233 232 231 233 234 234 233 235 234 233 233 234 234 232 234 234 
234 233 233 233 234 233 233 233 234 236 226 157 232 233 232 232 
233 232 231 234 234 235 233 235 235 215 205 236 239 235 237 236 236 235 236 237 
238 237 236 236 236 236 235 236 236 236 238 235 236 235 234 234 
235 235 235 235 233 235 236 235 235 235 233 235 234 233 233 233 
233 234 234 234 234 233 233 234 233 233 233 232 233 233 232 232 
232 231 231 233 233 233 234 233 235 235 234 235 233 235 235 236 
235 235 235 235 235 234 233 233 232 235 218 159 231 234 235 234 
234 234 232 236 236 235 233 234 234 221 186 236 234 235 235 236 235 234 236 236 
238 237 237 236 236 234 235 237 236 236 234 236 236 236 236 235 
235 235 235 235 236 235 235 235 235 236 234 236 233 234 235 233 
233 233 233 233 233 232 233 233 231 233 232 233 232 233 232 232 
232 232 233 234 233 233 233 233 234 234 234 235 234 234 234 234 
234 234 235 237 235 234 235 233 233 233 196 194 234 234 234 234 
233 234 233 233 233 234 234 235 235 232 176 238 235 234 234 235 235 233 234 236 
237 236 235 235 235 236 236 234 234 235 235 234 236 235 236 235 
235 235 234 235 234 233 234 235 233 231 232 234 234 233 234 232 
230 230 231 232 232 231 231 232 232 232 233 233 233 233 232 232 
231 232 232 232 232 233 233 233 233 234 234 234 234 232 233 234 
233 234 233 234 236 234 235 232 231 233 181 206 233 234 233 233 
234 235 232 233 233 233 233 233 233 231 174 233 235 234 236 233 235 235 233 234 
234 234 234 236 236 235 236 236 236 235 235 235 236 235 233 233 
233 234 234 234 234 235 234 233 233 233 233 232 232 231 232 231 
232 232 232 232 231 231 232 232 231 232 231 230 232 230 231 232 
233 232 233 232 232 231 233 234 233 232 234 233 233 233 232 233 
236 235 232 235 234 233 232 232 232 230 174 207 236 234 234 234 
234 236 234 232 232 233 233 234 234 234 172 236 235 235 233 234 235 234 234 235 
235 235 235 235 234 236 235 234 235 236 235 235 234 233 235 234 
234 233 234 234 237 234 234 232 230 231 230 231 230 233 233 232 
231 232 232 231 230 231 231 231 231 230 232 231 232 232 231 231 
231 233 231 232 231 233 233 233 235 233 232 234 234 235 233 233 
234 233 235 233 232 232 235 233 231 231 150 221 236 234 235 234 
235 235 233 232 232 232 231 234 232 230 182 230 235 233 234 233 234 233 233 233 
235 234 235 234 233 232 235 235 234 235 235 236 235 235 234 234 
233 234 235 235 234 234 234 234 232 229 230 232 230 228 229 231 
228 232 233 233 233 232 231 229 231 230 231 232 232 231 232 232 
231 232 231 229 232 230 232 234 233 234 234 232 232 233 234 234 
233 233 233 233 233 234 232 233 232 224 169 230 235 234 234 234 
235 234 232 230 231 231 231 232 231 233 205 190 232 234 232 232 233 233 232 233 
233 233 234 233 233 235 234 233 234 234 235 234 232 233 234 233 
233 234 232 234 233 234 234 233 231 230 231 231 229 230 230 232 
226 221 191 214 233 232 232 229 230 229 230 230 230 230 230 230 
231 231 232 233 231 232 231 232 232 233 232 233 234 232 231 233 
233 232 233 233 234 233 232 233 232 199 197 235 234 235 236 235 
235 234 232 233 232 232 232 232 231 231 223 167 235 231 232 232 233 233 234 233 
233 233 233 234 234 233 232 234 234 233 233 233 233 233 233 234 
233 234 234 233 232 233 232 233 230 231 226 228 229 230 224 184 
156 177 186 168 164 176 223 230 229 229 230 231 230 230 229 231 
229 230 231 231 232 232 231 232 232 232 233 233 232 232 232 232 
232 232 233 232 232 233 231 230 230 191 219 236 235 235 235 235 
236 234 235 231 231 230 229 230 231 231 233 177 235 232 232 233 232 232 230 231 
232 233 233 233 232 232 232 233 232 233 233 232 233 232 233 233 
233 234 234 233 231 232 231 233 231 231 228 225 227 227 166 176 
228 232 231 230 236 182 133 231 228 231 231 230 232 230 230 228 
229 229 230 230 230 231 232 231 232 233 231 232 233 233 233 233 
233 232 230 232 233 233 233 231 231 189 226 235 235 236 236 236 
236 236 235 232 231 230 231 230 232 231 230 191 228 234 233 233 232 232 233 233 
232 233 232 231 231 231 232 232 232 232 232 232 231 232 232 232 
232 232 232 234 231 233 233 231 231 228 226 228 217 169 186 232 
231 230 228 228 230 234 157 175 230 233 231 230 230 229 231 233 
229 231 231 232 231 232 231 232 232 231 229 231 232 232 232 232 
232 231 232 232 233 232 231 231 221 199 231 233 234 235 235 235 
235 236 236 229 229 229 230 226 227 230 228 217 191 233 231 232 232 231 232 231 
229 231 231 232 232 232 231 231 232 231 232 232 232 232 232 232 
232 232 230 232 233 233 231 230 229 226 225 223 118 171 226 233 
230 231 229 230 230 230 231 140 185 229 230 231 231 230 228 229 
230 230 230 229 230 230 231 231 231 231 232 231 231 232 232 232 
233 233 233 232 232 234 233 232 202 209 233 234 234 235 234 235 
236 234 235 231 230 229 229 230 228 229 232 232 177 233 230 230 231 231 230 230 
231 232 231 232 231 230 230 230 231 231 230 232 233 231 230 231 
230 232 232 232 229 231 231 229 228 230 219 159 161 102 143 159 
213 221 227 224 209 189 150 117 67 147 228 229 229 230 230 230 
230 229 231 231 229 230 229 231 231 231 229 231 232 232 232 230 
230 231 231 232 233 233 233 230 195 222 235 235 236 236 236 235 
235 234 234 228 229 229 229 230 228 228 229 229 176 224 231 232 232 230 230 232 
230 231 231 230 230 231 233 230 230 231 231 232 231 230 232 230 
231 231 230 230 231 230 230 229 226 227 183 168 231 215 183 140 
116 96 94 86 70 68 77 67 55 153 229 230 230 231 230 230 
230 230 230 227 231 230 230 230 230 230 229 230 230 231 231 232 
232 231 228 230 231 231 232 222 180 231 234 234 235 234 234 234 
235 235 234 229 229 227 226 229 228 226 230 228 221 174 232 228 228 231 231 231 
231 229 229 231 230 230 229 231 231 231 230 229 229 229 228 230 
230 227 230 230 227 224 228 227 227 198 149 231 227 230 230 231 
237 213 193 170 146 129 139 153 162 177 229 229 229 227 229 227 
230 229 230 229 229 229 228 230 229 230 231 230 230 230 231 230 
229 231 230 230 231 231 232 197 208 234 234 234 235 234 235 234 
235 235 235 228 229 229 230 229 227 226 226 224 229 155 230 232 230 230 230 230 
230 230 228 230 229 229 230 230 228 228 227 229 230 228 228 229 
227 228 228 227 228 228 228 225 228 157 200 226 226 226 228 229 
228 231 232 235 235 234 234 234 188 159 228 229 230 230 231 229 
229 229 227 229 228 228 227 228 230 230 231 231 230 230 229 231 
230 229 230 231 233 231 228 177 228 233 233 232 235 234 236 234 
236 234 236 227 227 229 228 227 226 225 227 223 228 204 194 230 231 230 229 231 
228 229 228 228 229 230 229 230 229 229 230 228 229 229 228 231 
228 227 227 225 227 227 226 222 141 159 232 228 226 227 226 226 
227 227 228 228 230 231 231 229 210 157 228 230 228 228 229 228 
230 229 231 229 229 228 226 227 229 229 229 229 230 229 233 231 
229 228 230 230 231 228 205 187 231 235 234 234 234 234 234 235 
235 234 236 228 227 227 228 227 226 226 226 227 229 232 162 229 230 229 228 229 
229 227 230 230 230 228 227 228 229 229 228 228 229 228 227 229 
230 225 226 228 228 226 226 213 115 210 227 225 226 226 227 227 
226 227 228 227 228 227 230 228 212 151 230 229 229 229 230 230 
227 228 229 228 230 228 229 227 229 229 228 229 230 228 231 230 
231 232 228 229 231 228 167 212 231 232 233 234 233 234 234 234 
234 233 234 227 229 224 228 228 227 226 225 224 226 226 200 181 232 228 228 228 
229 228 225 225 226 227 228 231 227 229 228 228 228 228 229 227 
227 226 225 225 226 224 223 199 113 200 226 226 227 227 226 230 
228 229 228 227 228 229 228 229 213 142 220 230 229 228 227 228 
230 228 228 228 227 229 229 229 228 228 229 228 229 230 231 229 
231 229 229 230 230 204 177 230 232 233 233 233 230 232 233 234 
234 235 235 227 226 227 229 226 224 225 223 224 226 226 232 152 215 228 228 227 
226 227 225 229 228 228 227 227 227 225 227 227 228 227 227 226 
225 226 226 226 225 225 225 195 123 187 221 227 226 226 227 227 
226 226 227 227 227 228 227 229 203 145 221 230 230 229 229 230 
229 228 228 228 231 227 229 228 228 227 228 228 227 227 228 225 
226 229 226 227 227 165 217 230 233 233 232 232 232 232 233 234 
234 233 234 226 226 228 227 227 226 225 226 227 227 226 228 216 165 227 225 226 
226 225 226 225 228 227 228 229 227 227 229 227 229 227 226 225 
225 225 224 224 225 224 224 209 125 199 225 226 226 226 228 228 
226 226 228 225 229 228 227 227 222 146 219 228 228 228 228 230 
230 229 228 228 229 229 228 227 227 227 226 227 227 227 227 228 
226 229 229 227 207 191 230 230 230 231 233 233 233 234 232 232 
233 233 233 226 227 226 227 226 225 225 226 226 226 226 227 230 184 209 227 227 
228 228 225 226 225 226 228 229 227 226 226 227 228 228 226 226 
225 224 224 225 225 225 223 213 122 193 224 226 227 224 227 225 
226 227 227 226 224 225 228 227 217 125 213 227 228 230 229 227 
227 226 227 228 231 227 227 227 227 226 226 227 226 226 226 227 
228 225 228 222 179 221 229 231 230 231 232 232 232 233 234 232 
233 234 233 227 226 226 225 225 226 226 225 226 227 225 225 223 229 158 227 227 
226 224 225 225 225 225 227 226 225 226 226 226 227 227 225 224 
225 224 225 225 227 227 223 215 132 182 224 225 224 224 225 226 
226 228 228 225 224 224 228 223 170 169 217 228 229 227 227 227 
227 228 228 229 229 227 225 228 227 225 224 224 224 224 227 226 
228 226 227 183 190 227 230 230 230 231 230 229 232 233 233 232 
231 233 233 227 226 225 226 226 225 225 226 226 226 229 226 225 226 214 153 228 
226 224 226 226 226 226 224 226 227 226 226 226 226 227 226 226 
224 225 224 223 223 223 223 213 146 173 223 221 224 225 226 230 
230 231 230 226 229 227 223 221 143 186 223 227 227 228 229 228 
226 228 226 227 226 227 228 228 225 224 223 224 225 225 225 226 
226 229 198 175 222 229 230 231 231 232 231 231 232 232 231 234 
233 233 233 225 224 225 226 227 226 225 226 224 226 227 224 223 226 230 185 185 
228 225 223 225 225 225 224 225 224 226 229 227 226 226 225 227 
226 225 224 225 224 225 221 218 172 165 224 226 223 223 218 200 
201 203 216 223 227 226 226 208 131 213 226 228 228 227 226 228 
227 227 226 225 227 228 226 229 228 222 223 222 222 223 223 226 
227 221 173 213 229 228 229 230 231 230 232 231 233 232 232 231 
230 233 233 225 224 223 224 224 225 225 226 225 225 225 224 224 224 224 230 166 
206 226 225 223 224 224 223 224 225 225 224 225 225 225 226 227 
228 224 226 223 224 224 223 221 201 150 196 204 174 150 116 105 
108 109 114 125 148 201 223 182 157 224 225 226 227 227 227 227 
227 225 227 226 225 225 227 227 225 224 224 223 224 223 220 224 
221 177 184 225 229 230 229 231 231 231 230 231 231 231 231 233 
231 233 233 225 225 225 225 225 227 227 227 226 226 225 225 225 227 224 226 228 
147 221 224 223 223 223 224 225 225 224 224 224 224 224 223 227 
226 226 224 224 223 225 219 218 222 151 160 115 122 158 193 223 
228 225 219 201 168 108 153 129 199 223 225 226 224 228 225 224 
224 224 224 225 224 225 223 226 226 221 222 221 221 221 220 222 
179 187 218 226 228 225 231 230 230 230 230 230 230 230 231 230 
233 232 232 224 225 224 225 225 228 225 225 225 224 225 226 225 223 224 222 226 
221 146 219 221 223 225 224 224 221 226 225 224 225 225 225 224 
223 224 223 224 225 225 214 213 221 181 102 192 227 226 226 224 
225 226 226 226 225 212 105 162 218 222 224 224 225 227 225 226 
224 224 226 225 224 225 224 225 223 221 221 218 220 219 219 189 
162 216 225 225 227 227 229 229 230 229 230 226 229 230 231 231 
232 234 233 223 223 224 223 224 224 225 222 225 224 225 225 224 225 221 223 224 
227 207 146 225 226 222 223 222 223 221 224 223 226 223 224 224 
225 226 223 223 223 224 213 182 220 222 177 171 226 225 222 221 
220 221 222 225 211 149 136 211 224 225 226 227 224 223 224 224 
224 225 226 226 226 223 223 222 223 224 222 216 219 219 184 184 
209 220 224 224 228 228 229 229 229 230 229 230 230 230 232 232 
231 232 231 224 225 224 224 223 224 225 226 222 223 223 224 223 221 222 223 224 
223 226 198 145 219 225 221 221 221 223 222 224 222 224 224 224 
224 225 223 223 224 223 224 209 217 225 228 170 153 219 224 223 
221 225 222 178 115 146 214 226 223 223 222 222 223 225 223 224 
224 224 224 222 223 222 223 222 222 222 219 215 205 160 176 215 
221 220 225 227 227 227 226 228 227 228 229 229 228 228 228 232 
232 231 232 222 222 222 222 224 224 221 224 221 223 221 222 222 221 224 224 225 
223 222 225 194 122 218 223 220 222 222 221 221 223 223 224 222 
223 224 224 224 223 221 221 224 222 222 222 226 207 165 178 196 
186 161 127 161 210 226 225 221 224 224 224 226 223 222 223 222 
222 224 221 223 223 221 222 221 220 221 221 198 144 186 216 220 
220 222 228 227 227 227 226 226 227 229 228 229 228 229 227 229 
230 231 232 221 223 221 223 222 222 223 224 224 222 224 222 222 221 221 220 220 
221 222 221 224 201 113 213 225 222 221 219 221 221 222 222 222 
223 223 224 225 223 221 222 222 220 222 219 221 227 227 222 203 
182 205 221 223 228 225 224 223 223 222 222 221 222 222 223 221 
222 222 223 221 223 222 223 221 225 222 187 136 187 222 219 222 
223 223 224 226 226 227 225 228 226 227 228 228 227 226 225 229 
231 231 231 221 221 223 221 222 221 220 220 221 221 222 221 221 220 219 219 222 
222 221 219 220 223 208 141 189 227 224 224 221 222 221 221 222 
221 222 224 221 219 222 222 222 221 221 220 222 222 224 226 224 
224 223 224 225 225 225 222 225 223 223 222 222 220 221 221 222 
222 220 220 222 218 217 223 220 215 168 125 192 221 221 218 221 
223 224 223 225 225 223 226 226 227 227 226 225 226 229 228 230 
229 232 233 220 220 219 219 220 222 219 220 219 222 221 222 219 220 221 220 221 
221 220 218 219 221 220 218 160 159 208 223 224 220 221 221 221 
220 222 222 222 220 221 218 220 220 220 222 223 221 223 220 222 
223 222 222 221 221 222 223 222 222 224 222 221 223 221 220 222 
220 220 222 220 223 219 217 185 122 135 205 220 220 221 221 219 
220 221 221 223 224 225 223 226 229 228 228 229 226 226 225 228 
229 230 230 218 220 219 222 219 219 219 220 220 220 221 221 222 219 220 220 219 
219 220 220 219 217 217 223 227 188 105 146 212 223 221 221 222 
220 220 224 219 220 220 220 220 220 220 222 222 220 221 222 221 
221 221 222 222 223 222 222 223 222 221 220 222 219 221 220 221 
220 221 218 221 220 195 142 147 199 224 223 221 219 221 220 221 
226 222 220 223 224 224 226 225 224 225 225 225 225 224 225 229 
227 229 229 219 219 219 217 218 219 220 219 219 219 220 221 219 218 219 219 219 
219 217 219 217 218 218 218 218 223 223 150 108 175 221 222 223 
219 218 220 219 218 219 218 220 219 219 218 218 220 220 218 221 
220 219 222 223 223 223 221 221 219 222 221 220 221 220 220 218 
221 222 223 204 154 130 190 220 224 222 223 221 221 222 222 222 
222 224 222 223 223 223 224 225 225 225 226 225 225 225 228 227 
226 228 230 218 217 217 219 219 217 218 218 219 220 219 219 218 219 218 218 219 
218 218 220 218 218 216 218 217 217 219 223 213 145 126 185 217 
221 219 217 221 218 219 219 217 218 217 217 218 221 218 219 218 
219 220 218 220 220 222 219 220 218 216 218 218 218 218 218 220 
218 212 163 129 176 213 220 218 219 217 219 220 220 222 220 223 
222 223 223 221 223 223 223 223 223 223 223 223 225 223 225 225 
227 223 228 218 217 218 219 218 218 218 218 216 219 219 220 220 219 218 218 217 
218 218 219 218 219 218 218 217 217 217 219 221 222 217 151 116 
158 205 217 219 220 220 218 220 219 217 219 218 219 219 218 218 
219 218 219 216 218 219 215 215 216 216 217 219 218 221 208 189 
150 125 167 212 226 224 221 220 218 219 221 221 220 221 222 221 
221 221 221 224 222 222 221 222 223 222 222 223 227 225 225 224 
225 226 229 216 218 217 215 217 217 216 216 219 219 219 216 217 219 219 217 218 
218 219 216 217 219 219 217 217 218 218 218 220 218 218 225 222 
188 121 114 148 187 215 220 222 222 221 220 221 220 218 219 221 
218 219 220 222 222 218 219 220 219 216 213 208 158 123 108 140 
178 219 221 220 221 219 218 221 221 219 219 221 221 222 223 222 
221 222 223 221 221 223 223 222 223 223 221 223 223 225 224 223 
224 225 227 217 216 217 217 215 215 217 215 216 215 216 217 218 218 217 217 217 
217 216 217 218 217 219 218 217 219 218 218 217 217 217 218 219 
221 221 215 173 136 114 127 163 194 210 213 217 214 217 218 219 
216 217 221 225 221 222 216 213 208 180 153 145 145 187 206 220 
222 223 223 221 220 220 220 220 221 222 221 221 221 222 220 221 
222 220 222 221 220 222 222 222 222 222 222 224 225 223 225 223 
223 226 223 216 215 215 213 217 218 217 215 216 217 216 217 217 220 219 218 219 
219 218 218 219 217 217 218 216 218 218 217 217 217 219 217 216 
218 216 220 222 221 216 204 177 155 132 113 110 100 116 121 108 
137 161 156 164 150 156 144 154 161 185 201 221 224 225 224 224 
220 221 219 220 219 220 219 220 221 219 220 220 219 221 221 220 
221 221 220 221 222 222 221 222 223 223 225 222 223 223 224 224 
224 225 223 217 217 213 214 215 215 215 215 215 215 215 217 218 216 217 217 216 
218 219 218 218 218 217 218 218 217 216 216 217 219 218 218 216 
218 219 217 219 218 218 218 221 223 225 225 197 187 179 160 154 
151 164 178 181 198 208 213 219 219 220 220 222 220 220 220 219 
219 219 221 220 219 220 220 221 219 220 220 220 219 218 221 221 
220 221 220 221 221 221 222 220 223 221 222 221 223 223 223 222 
224 223 227 216 215 215 216 215 218 218 215 214 215 213 217 216 215 218 217 219 
218 217 218 217 216 217 216 216 215 218 216 216 216 218 216 216 
217 215 217 215 215 216 218 216 218 219 219 219 219 220 222 222 
221 216 222 221 221 218 220 219 217 217 217 216 219 219 219 220 
219 220 222 220 221 222 220 222 220 220 220 221 221 220 220 220 
220 219 220 220 221 222 221 219 220 220 221 221 221 223 223 221 
223 222 224 216 215 216 216 217 216 216 216 216 217 215 216 218 215 218 219 218 
220 217 220 219 220 218 218 217 217 216 219 217 217 216 218 218 
218 217 218 217 218 217 216 218 216 215 216 216 218 218 218 219 
216 217 215 216 216 218 218 217 217 217 220 218 220 220 219 220 
221 220 218 221 220 220 220 219 221 220 217 217 221 221 220 218 
220 219 220 220 220 220 221 220 220 221 224 221 220 220 222 222 
221 222 224 218 219 215 216 216 216 214 214 218 214 213 213 215 216 216 216 216 
215 217 217 219 216 217 216 220 217 217 215 215 218 217 213 217 
217 217 217 218 218 216 216 216 217 216 218 218 215 216 217 216 
216 215 215 217 217 214 217 218 214 215 216 216 218 218 218 220 
221 221 221 220 220 219 222 221 222 219 219 219 218 220 220 219 
219 221 221 217 218 219 219 221 220 219 220 219 218 221 221 222 
222 223 224 226 227 220 223 223 222 222 222 224 221 217 216 218 217 217 218 220 
222 220 220 219 220 221 219 218 219 217 221 219 216 219 221 215 
216 216 216 221 219 218 213 216 216 215 213 214 216 215 219 216 
214 212 214 214 213 218 218 220 218 216 213 213 216 217 218 219 
222 221 223 223 221 221 221 220 221 220 220 217 217 216 215 217 
217 216 218 217 217 218 217 219 218 217 217 219 218 219 221 222 
222 221 224 243 243 241 241 240 242 240 242 242 242 243 243 242 240 238 238 240 
238 240 239 239 237 238 239 237 237 237 236 238 236 240 239 235 
237 237 231 236 237 234 235 235 233 232 231 230 233 232 232 233 
232 233 231 231 231 232 233 231 233 232 229 226 229 231 233 230 
226 229 231 231 230 230 226 223 223 222 224 221 222 224 222 223 
223 221 220 219 220 219 219 218 214 213 217 216 221 218 218 223 
222 219 220 248 248 247 248 248 249 252 248 247 246 250 249 248 249 247 247 245 
245 245 244 246 246 246 245 246 246 248 246 248 248 249 249 249 
249 248 247 246 246 246 246 246 247 246 247 246 247 247 248 248 
247 247 247 249 246 247 246 245 245 249 246 245 246 245 245 245 
244 243 244 244 243 242 240 241 240 238 240 243 240 240 242 240 
238 240 239 240 236 237 238 238 239 233 230 237 238 242 242 241 
240 239 241 248 248 247 248 248 249 250 248 248 246 248 248 248 247 248 247 245 
243 245 245 244 247 244 244 247 244 245 247 247 248 247 247 247 
247 247 248 249 249 248 248 249 249 249 249 249 248 246 248 249 
248 249 249 248 247 250 248 248 246 248 247 246 245 244 245 247 
246 247 244 243 244 245 246 244 244 246 246 245 246 246 245 245 
245 245 246 245 243 241 242 244 244 243 243 244 245 249 246 247 
247 246 246 