P2
# Created by IrfanView
100 100
255
205 206 204 204 205 202 203 206 208 208 208 208 207 210 211 209 210 
210 211 210 211 209 211 211 213 213 212 211 212 213 213 213 213 
212 210 211 211 212 213 210 214 212 213 214 213 213 213 210 211 
211 207 206 210 210 209 209 202 201 204 206 204 208 213 211 210 
211 213 212 211 209 209 211 209 210 209 212 210 205 209 212 213 
213 214 215 214 216 208 208 210 213 206 204 208 212 214 214 215 
215 213 213 207 208 207 206 207 207 213 209 211 210 210 211 210 210 209 208 210 
212 211 212 211 212 213 211 211 213 212 211 213 212 211 210 211 
212 209 212 212 212 213 213 212 215 215 215 215 215 214 215 214 
212 213 213 212 213 213 212 214 212 210 208 208 208 213 214 213 
211 213 213 213 212 213 212 212 211 211 215 213 208 210 211 212 
214 215 214 218 219 216 208 213 217 217 213 212 212 211 215 218 
218 218 220 209 211 208 206 208 206 211 210 211 212 210 211 212 212 213 210 211 
210 211 212 210 212 212 211 212 213 211 212 212 212 212 213 212 
211 211 211 214 213 213 214 213 213 215 218 218 217 216 214 214 
216 214 212 212 213 214 213 214 214 213 215 213 215 215 215 217 
216 214 214 216 215 214 214 211 210 211 215 218 218 216 216 216 
216 216 217 216 218 221 221 216 217 220 216 212 213 216 217 217 
220 221 221 210 209 210 211 211 209 208 207 211 211 211 211 211 211 210 211 211 
212 213 212 213 214 214 214 213 212 212 212 213 211 212 213 213 
214 213 213 212 212 212 213 214 215 216 216 218 218 217 216 217 
218 217 216 215 217 214 214 213 214 217 217 217 216 216 217 216 
214 217 215 217 216 218 219 216 220 216 216 219 221 221 222 222 
220 219 220 219 217 220 220 220 220 219 218 218 216 217 217 218 
222 220 221 209 209 210 210 211 211 209 209 211 212 212 212 209 210 214 212 211 
213 213 212 212 211 212 212 213 212 212 212 213 211 212 212 214 
214 213 215 214 213 214 213 215 215 216 218 219 218 220 221 221 
221 224 220 216 220 219 219 218 218 217 218 218 215 216 217 217 
218 217 218 218 219 216 218 221 219 220 219 220 222 220 222 221 
222 220 221 220 220 219 221 221 219 219 221 222 220 219 221 223 
224 223 223 212 211 210 211 210 211 211 210 210 214 213 212 212 214 210 212 212 
213 212 212 213 211 212 213 213 213 213 213 213 212 213 213 214 
213 215 215 215 215 215 217 216 217 220 221 219 220 223 220 212 
209 204 210 214 217 217 220 220 219 219 221 220 221 219 219 219 
219 218 219 218 217 222 220 220 219 216 218 219 221 222 222 221 
222 222 220 223 223 223 221 221 219 223 224 222 221 221 224 222 
222 224 224 211 211 212 212 217 212 211 212 211 211 211 214 213 214 215 213 212 
213 214 213 213 214 213 213 214 213 214 214 213 214 213 215 214 
212 214 216 214 217 217 218 216 211 196 169 180 172 156 133 150 
149 147 138 148 143 143 156 151 184 183 196 214 220 222 224 220 
220 222 219 220 221 223 220 221 222 222 223 222 222 224 223 224 
225 224 227 223 223 222 224 224 225 222 221 223 224 223 222 221 
222 223 225 214 212 213 212 212 213 215 212 213 213 215 214 212 214 213 213 213 
213 213 213 214 213 213 213 213 214 213 213 212 212 213 212 213 
216 216 222 214 160 164 154 139 153 180 188 186 197 216 216 209 
224 218 219 226 227 219 210 194 154 158 149 144 149 160 193 210 
217 223 225 222 221 222 222 223 221 225 224 224 224 224 224 225 
224 222 224 223 225 224 222 223 224 224 225 225 226 226 223 224 
227 225 226 211 213 212 213 213 213 213 215 214 213 215 216 211 212 213 214 213 
213 213 213 213 213 212 213 214 216 213 211 213 212 214 213 216 
217 182 143 147 100 184 207 221 220 223 221 220 222 224 222 222 
222 222 223 222 224 229 225 229 226 224 224 222 198 171 159 134 
158 195 223 227 223 225 225 223 222 222 224 224 224 225 227 225 
226 227 225 224 225 226 229 226 222 226 224 225 225 226 227 226 
226 226 226 210 213 214 213 214 215 214 213 213 215 214 214 215 213 213 214 214 
212 215 214 213 213 214 214 213 213 213 217 215 214 215 219 193 
162 172 219 227 214 225 221 222 221 222 219 219 220 221 221 221 
220 222 221 221 220 219 221 222 224 223 223 226 225 226 227 221 
174 130 126 164 217 225 226 223 222 223 224 224 226 225 224 226 
226 228 225 225 226 225 228 228 229 229 227 226 227 226 225 227 
226 227 224 214 214 215 215 216 214 215 214 215 214 216 215 214 215 215 216 215 
214 215 213 213 214 216 215 215 214 216 218 222 221 193 167 182 
223 225 221 221 222 219 219 220 220 220 218 218 221 222 222 222 
222 223 223 222 225 225 225 225 225 225 221 223 223 221 224 225 
227 223 216 152 130 165 220 231 230 228 225 225 227 228 228 228 
228 225 228 228 226 227 226 225 226 226 228 228 227 228 226 227 
228 228 230 215 215 215 215 216 215 215 216 216 215 215 216 217 216 215 216 215 
215 214 214 215 214 213 214 214 215 216 222 216 174 181 218 222 
222 221 221 218 221 218 221 222 222 222 222 221 220 222 223 222 
224 223 224 222 221 223 225 223 223 226 224 223 224 223 223 224 
225 226 227 231 220 148 129 185 226 230 229 227 225 226 228 228 
228 228 227 228 227 227 228 228 227 227 226 228 228 225 227 227 
227 227 227 216 214 215 214 215 217 217 215 216 216 216 216 215 214 215 215 215 
216 213 214 213 215 214 213 215 217 218 173 177 217 224 219 222 
222 218 219 221 219 220 221 222 222 221 222 220 222 224 224 226 
225 225 227 225 227 225 226 225 226 224 225 225 225 227 225 226 
227 227 225 229 230 234 198 152 139 203 234 231 228 225 227 229 
228 230 227 228 231 229 229 230 230 229 229 229 228 227 228 230 
228 229 230 217 217 218 218 218 216 218 216 216 216 217 215 214 216 216 216 214 
214 215 214 215 214 213 215 219 209 161 194 227 220 222 217 219 
222 222 224 221 222 223 223 222 221 225 224 222 223 225 226 225 
226 224 225 228 228 227 228 228 228 227 226 226 226 226 225 227 
226 227 226 227 228 230 233 234 186 129 158 221 229 230 226 228 
230 229 231 229 231 230 230 230 230 229 229 229 229 231 228 230 
228 228 229 217 220 219 218 216 217 219 218 218 218 217 218 219 218 217 216 215 
214 214 214 214 217 216 220 191 154 213 224 222 221 222 219 223 
223 224 225 224 223 223 222 224 222 224 225 223 225 226 227 226 
226 227 228 226 227 224 229 229 228 227 228 226 226 228 227 228 
226 225 229 229 228 229 229 230 232 223 177 140 203 233 230 229 
231 229 230 231 230 231 232 229 229 229 231 230 230 229 230 229 
231 231 229 218 216 217 218 219 219 218 219 219 218 219 218 219 216 216 216 217 
216 215 214 216 217 223 177 178 227 227 225 223 223 220 221 225 
226 225 224 223 226 226 227 225 227 227 225 225 226 227 228 229 
228 229 229 228 230 230 229 228 229 229 228 230 229 228 228 229 
230 229 228 230 228 231 230 230 230 232 233 199 122 170 230 231 
231 229 231 230 231 231 230 232 231 230 231 231 231 232 230 230 
230 231 230 221 221 221 219 220 221 219 221 218 221 220 221 219 217 219 218 216 
216 214 215 219 221 163 193 226 224 224 224 225 224 224 224 224 
225 224 224 226 226 225 224 226 225 225 227 227 226 228 229 229 
229 230 229 230 228 230 229 228 229 230 228 230 230 229 229 228 
228 230 228 227 227 228 228 230 230 229 229 233 225 147 145 230 
231 231 229 230 231 229 231 230 231 231 231 232 232 229 230 229 
230 230 229 223 221 221 219 220 219 222 219 221 221 219 218 219 219 219 220 220 
219 221 220 218 158 210 227 226 226 225 226 225 223 225 226 225 
225 227 228 226 228 226 226 226 226 226 226 228 229 229 230 228 
229 228 230 229 230 231 231 229 228 230 230 230 230 229 231 229 
229 229 229 229 230 230 228 228 229 227 227 232 234 233 148 132 
228 233 232 233 231 233 231 232 231 232 231 231 231 230 231 233 
232 230 229 221 221 222 223 223 220 221 222 220 217 222 220 219 222 223 221 218 
216 222 214 156 217 229 226 223 226 225 224 224 226 226 226 228 
228 226 229 228 227 228 224 225 229 228 227 228 228 229 229 228 
229 229 230 230 229 227 230 229 231 231 230 231 231 231 231 229 
230 230 230 230 230 230 230 229 230 229 231 233 232 235 232 147 
135 231 232 231 231 232 231 232 232 232 231 228 231 231 230 231 
230 232 232 223 222 222 219 221 223 222 221 223 223 221 219 221 222 221 220 220 
221 218 166 214 223 221 226 226 226 226 226 227 225 226 227 228 
229 228 228 227 228 228 229 228 227 228 229 229 229 230 230 231 
230 229 231 231 231 231 232 231 230 229 231 230 231 230 230 231 
231 231 229 231 231 230 231 231 230 230 231 231 228 229 233 234 
159 130 234 234 231 233 231 232 232 232 232 233 233 232 232 232 
231 232 230 223 222 223 225 221 221 223 223 222 223 222 223 221 223 224 220 224 
225 169 219 227 224 224 226 226 226 226 227 225 227 226 227 228 
230 228 228 229 229 230 229 229 228 230 230 230 230 230 230 231 
230 233 232 231 230 233 232 231 232 231 230 231 232 232 231 232 
231 230 232 231 232 230 230 230 231 231 232 231 228 229 226 232 
235 147 151 235 236 233 233 234 233 232 233 232 232 235 231 233 
233 229 232 224 223 223 223 225 224 223 222 222 224 223 223 222 222 223 223 225 
177 201 232 226 226 226 225 227 227 227 226 229 227 227 228 227 
227 227 229 228 227 229 228 231 230 231 231 230 231 232 231 231 
231 229 230 232 233 232 232 231 231 233 234 232 232 232 232 230 
231 231 232 231 230 232 231 231 231 231 233 232 232 231 226 229 
233 234 164 180 235 234 232 233 233 231 234 233 233 233 233 234 
233 234 231 225 225 224 223 223 224 224 224 224 225 223 224 224 223 224 226 188 
186 230 227 227 226 225 226 228 228 229 227 227 229 226 224 228 
229 229 229 228 231 230 230 230 231 228 230 232 232 231 230 232 
230 231 233 232 231 234 232 232 233 233 232 232 232 230 232 232 
232 234 232 232 232 232 232 232 233 232 232 231 230 231 231 232 
231 235 233 149 199 236 233 233 233 233 234 234 233 235 233 231 
234 233 232 224 226 227 225 225 225 225 223 226 226 224 226 227 225 226 214 165 
229 225 227 228 229 228 228 228 228 228 230 228 229 229 229 230 
230 230 231 232 230 231 231 230 230 231 231 231 230 229 229 231 
233 232 232 231 232 232 233 232 233 233 232 233 232 232 234 233 
233 233 232 232 232 232 231 232 231 232 232 232 233 233 231 231 
232 231 234 235 128 220 240 234 234 234 234 234 234 234 233 233 
233 233 232 226 221 223 227 225 226 226 225 222 224 224 226 225 228 230 162 222 
231 231 229 230 230 229 228 229 229 228 228 227 229 228 230 230 
232 232 231 232 231 231 230 230 231 232 230 230 232 231 230 230 
231 233 234 233 232 232 233 233 233 233 232 229 232 234 231 232 
232 233 231 233 234 233 232 233 233 234 233 233 233 232 230 231 
231 230 232 235 224 138 230 235 234 233 233 234 235 234 234 233 
234 233 233 226 227 226 226 226 225 225 227 224 224 224 225 225 229 194 208 229 
227 228 229 228 227 230 228 229 228 229 228 229 228 227 229 231 
231 232 232 231 230 230 230 232 232 231 232 232 231 231 232 232 
233 234 234 232 233 233 232 233 233 234 233 234 236 234 235 232 
233 233 234 234 234 234 233 232 232 234 232 231 233 233 234 231 
231 231 231 232 236 162 186 238 234 234 234 234 234 235 235 234 
235 233 233 227 226 226 227 226 227 227 227 226 227 225 225 226 225 170 230 231 
232 229 230 231 231 228 231 228 229 230 232 230 227 228 230 232 
231 232 231 232 232 232 230 231 231 232 231 231 231 231 230 233 
232 232 233 233 234 234 234 233 233 235 234 235 232 233 234 234 
234 234 233 233 233 233 234 234 234 233 233 233 233 233 233 233 
232 233 231 231 233 230 137 223 237 234 237 235 235 234 235 235 
235 234 234 228 227 228 227 227 223 228 228 228 224 225 226 232 174 213 231 229 
229 230 229 230 229 229 229 230 230 230 229 230 229 230 231 233 
233 233 233 232 232 232 231 231 232 231 233 232 233 233 234 232 
233 233 234 233 233 234 234 234 235 234 235 234 234 233 233 234 
234 233 234 235 233 234 234 234 234 234 236 234 234 234 237 236 
232 234 232 231 233 236 216 165 238 235 232 237 235 235 234 235 
234 234 234 228 229 229 231 229 229 227 228 228 226 225 226 207 183 234 230 230 
231 231 231 228 232 232 233 231 231 229 230 231 229 232 230 232 
232 234 233 232 233 233 232 233 234 233 233 233 233 233 233 233 
234 234 233 232 232 233 233 232 233 234 235 235 234 233 235 234 
235 235 234 234 234 232 234 234 235 234 233 235 234 235 234 234 
234 233 234 234 232 233 236 171 207 238 234 234 236 237 237 234 
234 236 234 230 231 230 229 229 230 231 230 228 226 227 229 178 223 230 233 232 
231 231 231 233 231 231 231 232 230 230 231 230 231 232 234 233 
234 233 232 232 232 233 233 233 232 232 233 233 233 232 233 233 
233 234 233 235 231 234 234 233 233 234 234 233 235 234 234 234 
235 233 234 235 235 234 235 236 237 235 235 235 235 234 237 236 
234 234 233 234 234 232 233 228 135 238 236 236 235 236 235 235 
236 237 236 228 229 227 229 228 227 228 228 227 230 226 198 182 233 232 231 232 
232 231 229 231 233 231 201 232 233 232 230 232 232 234 232 234 
232 233 233 233 234 231 233 231 233 234 232 233 234 233 233 235 
234 234 236 234 234 234 234 234 234 235 234 235 233 234 234 235 
234 237 235 235 235 235 236 235 235 235 235 236 236 237 238 234 
236 235 234 235 234 232 233 240 175 188 239 236 235 234 234 235 
235 235 236 231 230 230 229 231 230 230 229 229 227 232 172 226 232 231 231 230 
232 232 232 232 231 232 198 213 234 233 231 231 232 232 233 232 
233 234 236 234 233 233 234 233 233 232 231 233 232 233 235 234 
234 234 233 233 234 234 235 234 234 235 233 236 233 233 235 235 
235 233 235 235 235 235 235 235 235 237 235 237 236 235 237 237 
237 235 233 235 234 233 235 232 231 137 237 237 235 238 237 236 
237 236 236 232 230 229 229 231 230 231 231 229 230 212 171 235 232 232 234 233 
232 232 233 233 234 234 235 183 213 236 234 232 233 233 233 234 
233 234 233 233 233 234 234 233 232 231 232 212 160 235 234 234 
233 234 234 234 234 234 233 235 233 234 235 234 234 233 234 235 
235 236 235 235 235 237 235 235 236 234 234 235 240 236 235 234 
234 236 234 235 234 234 233 234 237 168 182 236 236 236 236 237 
236 236 237 231 232 231 230 229 229 229 231 229 233 177 223 232 232 233 233 233 
232 232 232 233 232 233 234 236 189 207 234 237 235 237 235 234 
235 232 234 234 234 234 234 234 233 234 235 202 157 238 235 234 
235 234 235 235 236 235 235 233 234 235 235 234 235 235 236 235 
235 236 236 236 235 234 235 235 239 237 237 198 180 238 236 238 
237 235 235 235 236 235 233 235 237 230 142 238 237 237 238 237 
237 238 238 232 231 231 230 231 231 231 228 226 224 162 235 231 233 234 231 232 
232 233 232 232 233 235 231 234 234 192 165 210 236 235 235 236 
237 235 234 236 236 234 236 235 238 239 236 130 206 236 234 233 
235 235 235 233 236 234 234 236 234 233 234 234 234 234 235 234 
234 234 235 236 235 235 236 236 235 237 239 223 150 239 236 236 
236 237 236 235 236 236 235 233 233 237 164 206 234 236 237 238 
239 237 236 231 231 231 230 230 229 231 229 231 212 199 234 233 232 234 234 234 
235 235 234 233 233 234 234 233 235 236 230 170 144 174 206 233 
236 237 240 238 240 239 240 241 238 211 137 126 239 235 234 236 
234 235 233 235 235 235 234 235 233 232 235 208 231 238 237 235 
234 235 234 235 234 235 237 236 238 239 241 181 183 239 236 237 
236 235 235 234 236 236 235 234 234 234 214 177 238 236 236 237 
238 237 237 232 232 231 231 231 232 231 231 232 187 227 234 234 233 234 231 234 
234 233 232 233 233 233 234 233 234 232 235 237 231 193 143 129 
134 154 173 183 193 165 156 141 116 120 177 234 237 235 237 235 
235 235 237 237 236 235 234 232 236 234 236 223 167 234 239 237 
236 235 234 236 235 235 238 236 240 229 150 131 219 238 239 237 
236 237 235 235 235 236 235 235 232 234 237 138 235 237 237 237 
236 238 239 232 232 232 231 230 234 231 230 229 179 235 233 233 233 233 235 234 
234 234 236 235 234 234 234 234 233 233 233 233 234 236 237 235 
220 198 169 157 148 159 168 192 220 236 241 239 236 235 234 233 
234 235 235 234 235 237 235 236 235 235 232 237 215 160 211 239 
238 237 235 237 239 239 241 230 203 126 143 229 239 237 238 237 
237 237 236 236 234 236 236 233 233 235 235 176 206 237 238 238 
238 239 238 233 235 232 234 233 233 230 230 206 193 236 234 234 233 233 233 232 
232 234 233 233 233 234 234 232 233 232 232 233 235 234 235 236 
240 239 240 242 240 242 240 240 240 240 238 236 237 235 236 236 
235 236 235 237 236 234 235 234 234 234 236 235 239 231 166 168 
205 232 237 236 236 219 172 127 145 217 242 240 238 237 237 238 
238 236 237 235 234 236 237 235 234 235 235 221 167 239 237 239 
239 237 236 233 233 234 232 230 233 230 231 184 220 234 234 234 234 233 234 234 
234 234 234 234 234 234 234 234 234 235 234 233 233 235 236 234 
233 238 238 238 239 237 238 238 238 237 234 235 235 236 236 236 
236 237 236 235 236 237 236 235 235 236 232 236 237 239 240 218 
162 136 132 140 128 118 149 210 239 240 239 236 236 237 237 236 
237 237 237 237 236 233 239 234 236 234 234 237 152 242 237 236 
236 239 239 233 231 233 233 233 232 230 231 189 234 234 234 231 234 233 234 234 
233 234 235 235 235 234 233 233 234 233 234 234 234 234 234 235 
234 234 236 236 238 238 236 235 237 236 237 237 236 236 237 237 
235 236 235 237 236 235 236 236 237 236 236 233 235 237 238 241 
240 235 227 225 218 236 241 240 238 239 237 237 238 238 238 237 
236 238 237 236 237 237 237 236 235 233 234 236 150 219 239 237 
237 238 239 232 233 233 234 234 233 230 227 187 237 236 234 234 234 236 234 234 
234 235 234 234 234 234 234 235 234 234 232 234 232 234 235 237 
234 236 236 235 239 236 236 238 236 236 236 237 238 237 237 237 
236 236 236 235 236 237 236 237 237 235 235 238 236 236 236 237 
238 239 240 240 238 239 237 237 235 235 236 236 238 238 238 238 
239 238 237 237 237 237 236 236 236 235 236 238 187 190 238 237 
239 239 238 234 234 233 232 231 231 230 217 177 236 234 234 234 235 233 234 234 
235 235 234 234 234 234 234 234 235 235 234 236 234 234 234 233 
234 234 236 237 236 237 238 238 238 238 238 237 237 237 237 237 
237 236 238 238 238 237 237 236 238 237 237 237 236 236 237 238 
237 236 238 237 238 237 236 236 237 236 236 236 237 236 238 237 
238 238 239 237 237 237 236 238 238 238 237 236 210 170 238 239 
239 237 239 232 233 233 233 234 233 235 200 215 235 234 235 235 234 234 234 235 
234 235 234 234 235 235 235 234 235 235 234 235 235 235 233 234 
235 236 233 236 236 237 238 237 238 238 237 238 237 237 238 237 
239 239 236 236 236 237 236 237 237 236 237 237 236 237 236 237 
236 236 236 237 235 236 236 236 234 234 236 238 238 239 237 238 
238 238 239 240 239 240 235 237 240 238 236 236 233 151 242 238 
238 239 240 232 233 233 233 235 234 233 187 212 234 234 234 234 234 234 236 233 
234 234 234 234 234 235 235 235 235 235 234 235 234 235 234 234 
234 236 234 234 238 237 237 237 237 239 238 236 238 237 237 238 
236 238 237 238 238 236 236 238 236 237 238 236 237 237 238 237 
237 236 238 237 236 237 237 237 236 236 237 239 237 239 239 238 
238 238 237 237 239 237 238 237 237 238 235 239 239 154 240 238 
238 238 239 233 233 233 234 235 235 235 166 226 235 235 235 233 234 234 235 234 
234 234 234 234 236 234 235 235 236 236 235 234 235 235 236 235 
235 235 234 236 235 237 238 238 239 238 238 238 238 238 238 239 
237 237 238 239 238 238 238 238 238 239 238 238 238 238 238 237 
238 238 237 238 238 234 236 235 237 235 237 238 239 238 239 239 
238 240 239 238 239 239 240 237 238 238 237 238 241 159 239 240 
240 238 238 234 233 233 234 235 233 232 180 232 235 234 236 235 235 235 234 235 
234 234 235 236 235 235 235 235 236 236 235 235 235 236 235 234 
236 233 235 235 237 237 237 238 238 237 238 238 238 237 238 239 
238 238 239 238 239 238 239 238 237 239 238 239 238 238 238 238 
237 239 238 239 240 240 240 236 235 237 238 240 239 239 238 240 
239 237 238 239 241 239 236 238 239 239 237 237 240 165 238 239 
238 239 238 232 232 232 233 234 233 232 163 234 236 235 235 234 234 235 235 234 
235 234 234 234 236 234 235 236 235 236 233 235 235 233 233 236 
236 235 236 235 235 237 239 238 237 240 239 238 238 238 237 237 
238 239 238 236 237 240 240 239 239 237 239 237 239 238 238 238 
238 238 238 236 239 238 236 237 238 240 238 238 239 240 238 236 
238 238 240 237 239 239 239 239 237 239 238 239 239 163 245 238 
239 237 239 233 234 233 233 233 233 234 187 238 236 235 235 235 234 235 234 235 
234 235 233 235 236 236 235 235 236 236 237 236 237 234 235 237 
235 236 236 236 236 239 237 239 236 236 239 238 240 237 237 240 
239 239 240 240 239 238 238 239 239 239 239 240 237 238 239 239 
237 236 239 237 239 239 240 239 238 238 236 239 240 237 239 239 
239 240 238 239 239 239 240 239 238 238 240 238 239 148 241 238 
239 240 239 234 234 233 233 234 234 234 165 236 236 234 236 235 234 235 236 237 
236 233 235 235 235 235 236 235 235 235 237 235 235 234 237 235 
236 236 237 237 236 237 238 236 236 238 238 239 238 238 236 239 
240 239 238 239 238 239 238 239 238 240 238 238 239 240 239 239 
240 239 237 238 238 237 236 239 237 239 237 240 238 239 239 239 
238 238 239 240 240 240 239 240 239 241 240 238 228 179 242 241 
238 239 239 233 234 233 233 234 234 236 187 236 234 237 237 235 234 237 235 235 
234 236 236 236 234 236 236 237 236 235 235 236 236 236 236 237 
237 238 235 235 236 240 239 238 238 238 238 239 238 238 238 239 
237 239 239 240 240 240 239 239 240 238 241 240 239 239 239 238 
239 240 239 239 238 240 241 239 240 239 241 240 239 240 240 240 
240 239 239 239 239 239 239 239 240 239 239 238 213 176 241 239 
240 240 239 234 234 231 232 234 234 236 181 237 234 235 235 234 235 236 235 236 
236 235 236 236 234 236 238 234 236 236 235 236 236 236 237 237 
236 237 235 236 236 238 239 238 238 239 239 238 239 239 239 237 
238 241 239 240 238 238 240 240 241 240 239 239 239 239 241 240 
239 240 240 239 240 238 239 240 239 239 240 240 240 240 239 239 
240 239 239 240 240 240 239 239 236 238 239 240 209 190 242 240 
240 240 239 234 234 234 234 232 234 236 164 238 238 235 235 235 235 236 237 235 
236 236 235 237 237 235 236 237 235 236 237 236 238 237 236 236 
238 237 236 238 237 237 239 238 237 237 239 237 238 238 239 239 
239 239 240 240 240 239 240 238 240 240 240 240 240 241 238 240 
241 239 239 239 239 240 240 240 240 239 240 240 240 240 240 239 
240 241 241 241 240 239 238 240 238 240 241 240 197 199 239 238 
240 240 242 233 233 234 233 233 234 238 182 238 235 236 233 235 239 237 236 236 
235 236 235 235 236 234 235 237 237 237 237 235 237 236 237 239 
237 237 239 236 237 239 239 238 238 237 238 239 239 238 238 240 
239 241 238 239 240 238 239 240 239 240 240 240 239 239 239 240 
240 240 240 239 240 240 240 239 241 241 239 240 240 240 241 242 
239 240 240 240 241 239 240 239 240 239 238 240 180 227 242 241 
240 240 239 234 232 232 233 232 234 239 180 240 237 236 236 235 236 237 237 236 
237 235 237 237 238 238 238 237 237 238 238 239 238 236 237 237 
237 238 238 238 239 239 239 238 239 238 238 238 238 238 238 238 
239 238 239 240 239 239 240 240 239 241 241 240 240 240 241 240 
240 239 241 240 240 240 240 240 239 239 240 239 240 241 239 242 
240 240 240 240 240 240 240 241 241 240 239 240 180 235 241 241 
239 242 240 234 234 233 234 235 235 236 178 236 236 237 236 236 237 237 236 236 
237 236 237 236 235 235 237 236 237 236 239 236 237 237 238 237 
239 239 238 238 239 239 237 238 238 237 240 238 238 238 239 239 
238 240 240 240 240 240 241 240 239 240 238 240 240 241 241 241 
241 241 240 240 240 240 241 241 240 241 241 241 241 241 241 241 
240 242 240 239 241 241 241 242 241 241 240 242 163 237 242 241 
240 241 241 235 234 234 235 231 233 237 190 225 238 236 236 234 237 237 238 238 
238 237 236 237 238 236 237 237 238 237 237 237 238 235 236 237 
238 236 238 238 237 237 239 238 238 239 237 237 237 239 238 238 
240 238 238 240 240 239 238 240 240 239 240 239 240 239 239 241 
241 241 240 240 240 241 241 241 242 240 241 241 241 241 240 240 
241 240 241 241 241 241 242 242 242 241 239 243 177 242 241 242 
242 241 240 235 236 235 236 233 234 235 197 218 238 236 238 237 237 237 236 237 
237 238 238 237 239 238 237 238 237 238 239 238 236 238 239 238 
238 238 238 237 238 239 239 239 238 239 240 239 237 238 238 240 
239 240 240 238 238 240 239 239 241 240 240 241 241 240 241 241 
240 239 241 241 242 241 242 241 240 240 241 241 241 242 240 241 
240 240 241 241 240 241 241 242 242 241 237 233 172 244 241 241 
242 242 242 236 236 235 235 233 232 236 201 214 236 236 238 236 239 238 239 238 
239 237 237 236 238 237 237 239 237 238 236 238 238 239 238 238 
239 237 238 238 238 240 237 238 239 238 238 239 238 239 239 238 
239 237 237 239 239 239 241 240 241 239 240 240 237 240 241 240 
240 241 241 240 239 240 240 241 240 241 241 243 241 241 241 240 
241 240 241 241 242 242 240 241 242 241 240 221 200 243 242 242 
241 242 242 236 236 235 235 235 234 236 219 177 237 237 236 237 238 239 237 238 
238 238 237 240 240 238 237 236 237 237 238 237 236 236 238 238 
238 238 238 239 238 238 237 237 237 238 237 237 237 236 240 239 
240 239 239 237 240 240 240 240 240 240 240 240 241 240 240 241 
240 240 241 241 242 241 241 242 241 241 241 241 240 242 241 241 
241 241 241 240 240 241 242 241 242 242 240 192 219 243 243 242 
243 242 242 236 237 235 236 235 235 235 238 166 239 236 238 238 239 239 239 238 
238 237 237 237 239 239 238 238 238 237 238 237 238 239 238 236 
238 238 237 237 237 237 239 237 238 237 239 238 237 238 240 238 
240 240 241 241 241 240 242 241 239 241 240 240 239 240 240 241 
241 241 241 242 241 241 242 241 241 241 241 241 241 239 241 242 
240 240 241 242 241 242 241 242 243 241 243 174 236 245 243 243 
243 243 243 236 235 237 235 234 236 236 240 168 240 238 238 238 239 238 238 239 
239 239 239 238 239 239 238 239 239 238 237 239 237 236 238 239 
240 235 237 238 238 239 237 236 236 237 237 238 238 239 239 240 
240 242 240 239 240 239 237 239 239 239 240 240 240 240 240 242 
240 239 240 240 242 242 241 241 240 241 242 242 241 241 242 241 
241 242 241 242 241 242 241 242 241 242 242 167 245 242 242 244 
244 243 244 237 235 235 234 236 235 234 238 165 240 238 238 238 239 238 240 240 
238 238 238 238 239 237 237 238 237 239 238 239 239 238 238 238 
237 239 238 238 238 237 239 237 239 238 239 241 242 239 242 243 
239 233 228 227 229 233 236 241 239 239 240 240 238 236 236 240 
242 241 239 241 242 242 242 241 243 241 242 241 243 241 241 241 
243 241 242 242 242 242 242 243 242 241 212 186 246 243 243 243 
243 242 243 235 235 236 235 235 234 231 234 169 226 238 239 233 237 237 236 237 
239 237 239 238 237 238 237 238 237 238 239 237 237 238 237 237 
235 237 236 239 236 238 238 239 241 241 240 239 233 205 175 150 
144 148 150 142 143 134 126 144 193 229 245 243 241 241 238 240 
240 242 242 241 240 240 241 241 243 242 242 242 242 243 242 240 
241 242 242 242 241 241 240 244 243 245 179 223 246 244 244 244 
246 242 244 237 237 236 236 235 233 234 233 223 205 240 240 239 239 240 239 239 
239 238 238 239 239 239 238 239 237 238 238 238 236 237 236 239 
238 238 238 238 239 240 241 243 231 213 191 149 144 167 204 232 
239 246 246 245 242 245 242 226 186 137 166 230 246 244 244 242 
240 236 242 240 241 241 241 242 243 242 242 242 242 242 243 242 
242 242 243 242 242 241 241 243 243 238 170 245 243 245 243 244 
245 245 245 237 237 238 238 236 236 236 236 240 191 242 239 238 240 238 239 239 
239 239 238 241 239 239 238 238 238 238 239 240 239 239 238 237 
236 237 236 238 240 242 229 156 134 159 204 228 242 243 244 243 
244 243 242 242 243 243 242 243 245 245 219 151 180 230 247 244 
243 243 239 234 241 242 243 243 242 243 243 243 243 242 242 243 
243 242 243 242 242 242 242 242 243 206 208 244 244 244 244 245 
245 245 245 238 239 239 239 237 235 237 238 239 198 223 237 239 238 239 240 240 
239 239 239 238 239 238 239 240 239 239 239 240 239 238 238 238 
239 240 239 239 229 172 130 201 238 248 243 242 242 242 242 242 
241 242 241 241 241 243 241 241 242 244 242 242 207 163 184 240 
245 243 242 236 240 242 242 241 242 242 242 243 243 245 245 243 
244 242 243 243 242 244 245 244 247 177 241 246 245 244 245 245 
246 244 245 240 239 240 238 238 238 238 237 237 231 180 243 240 239 240 239 239 
239 238 239 239 239 238 239 240 239 240 238 237 238 238 239 238 
240 240 236 199 133 173 241 243 243 241 241 242 241 241 242 241 
241 240 240 240 240 240 240 241 239 239 240 243 247 250 207 159 
225 245 240 239 223 240 243 243 244 245 243 243 246 242 242 243 
244 243 242 243 243 242 243 243 222 192 247 245 245 246 245 242 
244 245 245 240 240 239 237 238 238 236 237 238 239 195 229 239 239 238 239 241 
240 241 240 240 239 239 240 238 239 240 238 240 240 239 240 240 
236 207 153 171 239 246 244 243 241 240 240 240 241 240 240 242 
240 242 241 242 242 242 242 241 240 242 242 242 243 243 246 234 
161 230 247 243 232 225 244 243 243 243 243 243 243 243 244 247 
245 244 243 243 243 243 241 247 173 241 245 245 245 245 244 245 
244 247 247 238 238 239 237 238 239 239 239 239 238 231 181 240 239 239 240 241 
240 240 239 239 240 239 240 240 239 239 239 238 240 239 239 241 
150 133 221 244 243 242 240 239 241 240 239 239 241 239 240 240 
242 242 243 242 243 242 242 243 243 242 243 241 241 241 241 247 
231 175 245 242 246 229 243 243 243 243 245 244 243 244 243 245 
244 242 243 243 243 243 243 221 193 250 243 245 245 246 245 245 
245 247 246 239 239 239 239 238 239 239 238 239 239 241 199 218 242 239 239 239 
239 240 240 239 240 240 240 240 240 240 240 240 241 239 238 240 
236 242 243 243 240 241 240 238 237 238 240 238 241 241 240 240 
243 242 242 243 242 243 242 243 243 243 244 243 245 243 241 243 
246 244 245 243 243 244 244 243 244 244 244 244 244 244 244 246 
243 243 244 243 243 244 248 177 240 245 245 244 246 245 245 245 
247 246 246 241 240 240 240 241 238 237 238 237 239 241 239 176 239 240 239 239 
240 240 241 240 240 240 240 240 240 239 240 240 240 240 240 239 
241 241 241 241 240 237 237 238 240 240 239 240 242 241 241 242 
242 242 244 243 243 244 243 244 243 244 244 244 244 243 244 244 
244 248 245 242 243 242 246 242 243 242 244 244 243 244 244 244 
244 243 243 242 243 249 220 205 247 245 245 246 245 247 247 244 
247 245 246 240 239 240 240 237 240 240 238 238 240 238 243 217 185 239 241 240 
240 241 240 240 240 241 241 240 242 241 239 240 241 240 240 240 
241 240 239 239 238 238 239 238 238 238 240 239 240 242 241 242 
242 243 243 243 244 243 242 243 243 243 243 243 243 244 243 244 
245 246 244 245 244 244 244 244 244 243 244 244 244 245 245 246 
244 242 242 241 245 238 186 242 246 247 247 245 247 247 247 245 
246 245 247 241 240 238 239 240 240 239 240 239 239 240 242 241 190 224 242 240 
241 240 240 239 240 241 241 240 241 240 242 241 240 239 241 240 
240 240 241 241 240 240 239 238 240 244 242 242 241 241 243 243 
243 243 243 243 244 244 245 244 244 244 245 245 244 245 243 244 
245 245 247 245 244 245 244 244 245 244 244 244 244 244 244 243 
244 243 242 243 248 187 222 247 247 247 247 246 245 247 247 247 
246 247 248 238 240 240 239 239 240 240 237 237 239 239 239 236 237 188 240 241 
240 241 240 240 241 240 241 241 241 241 239 241 242 241 240 240 
241 241 241 241 241 240 241 241 240 240 241 240 242 242 243 242 
242 243 243 244 243 244 244 244 244 245 244 245 245 245 244 244 
245 245 246 243 244 245 244 244 243 243 244 244 244 244 244 245 
245 243 246 247 207 207 249 246 246 247 247 248 247 247 248 247 
248 248 249 240 240 240 240 239 239 239 241 239 241 241 239 238 240 214 191 243 
242 241 240 241 241 240 241 241 241 241 240 241 240 241 242 240 
241 241 241 240 241 241 241 241 241 242 240 241 242 242 243 243 
243 243 243 244 243 244 244 244 243 244 245 246 245 244 245 245 
245 245 244 245 245 243 245 244 246 244 242 244 245 244 243 244 
244 243 245 233 183 245 247 246 248 248 247 247 248 248 248 247 
249 248 249 241 241 241 240 241 240 240 239 240 241 242 239 238 240 242 200 220 
243 241 240 241 240 241 241 241 241 240 241 241 242 240 241 241 
241 241 241 241 242 241 240 241 241 241 240 239 239 241 241 243 
243 243 243 243 242 243 242 243 243 242 244 244 245 244 244 246 
246 244 245 243 244 244 243 244 244 243 244 244 243 243 244 243 
244 247 227 180 221 248 247 250 248 249 248 248 247 249 248 248 
249 248 249 240 241 239 241 239 240 240 239 240 240 241 240 239 240 242 242 193 
221 243 241 242 240 240 240 240 241 241 240 241 241 241 241 241 
241 241 241 242 242 242 242 241 241 240 240 240 239 240 240 242 
242 242 242 241 240 242 242 242 242 240 241 245 244 245 247 245 
247 246 246 245 247 246 245 244 244 244 245 244 244 244 244 245 
250 236 152 220 249 247 247 247 248 248 248 250 249 249 250 249 
248 248 250 239 239 241 239 238 240 240 238 240 239 240 240 240 240 241 241 238 
173 219 242 241 241 242 240 241 241 240 241 241 241 241 241 242 
241 241 241 241 242 241 241 240 240 240 241 240 239 238 240 239 
242 242 241 243 242 243 243 243 243 242 243 245 242 244 244 245 
245 245 245 245 244 245 244 245 244 243 245 246 244 246 245 247 
242 160 203 251 248 248 248 249 248 248 248 249 250 250 248 249 
248 250 250 241 240 239 239 241 240 241 241 239 240 240 240 239 241 241 240 244 
230 162 216 244 242 241 241 241 241 241 241 240 241 242 240 242 
242 241 241 241 242 241 240 240 240 242 242 240 239 237 236 239 
241 242 240 241 241 243 244 242 241 242 244 243 245 243 245 243 
243 244 246 246 247 246 244 243 243 243 243 243 245 243 248 243 
162 213 248 248 248 249 249 248 249 248 248 250 249 249 249 249 
250 249 249 238 238 240 240 240 240 236 238 239 239 240 240 240 239 241 241 239 
242 231 158 211 244 241 242 241 239 240 241 241 241 243 241 241 
240 241 241 241 241 241 240 240 241 241 241 238 239 240 241 241 
242 242 242 241 243 243 243 243 241 243 245 243 244 245 245 244 
245 244 245 245 246 245 244 245 245 246 244 245 246 248 235 156 
202 251 249 248 247 248 249 249 249 250 249 250 250 250 250 249 
250 248 250 241 241 241 242 241 241 241 241 241 241 239 240 239 240 241 239 240 
240 241 235 163 223 244 242 239 240 241 241 241 241 240 241 240 
241 241 242 241 241 242 241 239 240 241 241 242 243 240 240 240 
241 242 242 241 243 244 244 243 243 243 244 244 243 242 244 243 
245 244 244 245 247 245 245 243 243 245 245 247 250 238 166 205 
250 249 247 249 249 249 249 249 249 249 249 249 249 248 249 249 
250 249 249 240 240 240 241 241 239 240 241 239 240 241 239 239 240 240 239 239 
240 239 242 234 176 207 243 242 240 240 240 240 241 241 240 241 
241 241 241 241 241 240 240 239 240 240 241 242 240 241 241 243 
243 243 242 243 244 243 244 243 244 243 244 243 243 243 244 245 
244 245 243 245 245 245 246 246 244 245 246 251 218 168 226 252 
250 246 249 249 249 249 249 250 250 250 250 250 250 250 250 250 
250 250 248 240 240 240 240 240 240 239 240 240 239 239 240 241 240 242 241 240 
241 239 240 243 245 183 204 245 244 242 241 241 241 240 241 240 
240 241 241 241 240 240 240 240 240 242 239 240 241 242 242 242 
244 242 242 243 243 244 243 244 243 245 244 243 244 244 244 244 
244 245 244 245 244 244 246 246 246 247 243 194 164 229 249 249 
247 249 248 249 249 249 248 250 250 249 250 249 249 250 250 250 
249 248 249 240 238 240 241 241 240 240 241 242 240 240 240 240 241 241 240 240 
240 239 240 239 242 245 199 168 230 245 243 241 240 239 241 240 
241 242 241 241 241 241 240 240 240 242 241 239 242 243 242 242 
242 242 242 243 243 245 243 244 244 244 244 245 244 243 244 244 
244 244 244 246 244 245 245 248 246 244 163 188 243 247 248 244 
246 246 246 249 249 249 249 251 249 249 250 248 249 249 250 250 
249 250 250 240 240 241 239 240 241 239 241 241 241 240 240 240 241 241 240 240 
240 242 240 239 239 243 247 225 162 198 242 244 244 242 241 242 
240 242 241 241 240 241 241 241 242 242 242 239 242 242 244 243 
243 243 245 243 244 243 243 245 244 242 243 242 245 244 244 245 
244 244 245 244 244 246 248 248 227 162 199 249 250 248 248 251 
247 247 250 249 249 249 247 250 250 248 249 249 248 250 250 251 
251 250 251 240 240 240 242 242 241 241 241 241 241 240 240 241 241 241 241 241 
241 241 241 241 240 239 243 244 243 191 181 225 244 246 243 242 
242 241 242 240 239 241 241 242 240 242 242 242 243 243 242 243 
243 242 243 244 243 244 243 243 242 244 244 244 244 244 244 244 
245 243 245 245 246 250 247 183 155 226 251 251 248 248 248 247 
248 248 249 249 249 249 249 249 249 249 250 250 249 250 250 251 
251 250 250 240 240 240 238 239 241 242 243 241 242 241 241 239 241 241 242 242 
241 241 242 242 242 242 243 243 245 245 231 178 168 225 245 243 
242 241 238 238 240 241 240 243 242 243 242 241 241 244 243 243 
243 244 245 243 243 244 244 243 245 244 245 244 244 243 243 243 
243 242 246 247 244 197 158 204 251 249 250 249 248 248 249 249 
249 248 250 250 251 249 250 250 251 250 249 248 250 250 250 251 
251 250 250 239 239 241 244 242 241 240 239 241 242 239 240 242 242 243 243 243 
243 242 242 242 241 242 243 241 242 245 247 245 222 169 178 213 
241 242 243 241 242 243 240 240 241 242 243 243 242 243 243 243 
244 244 243 243 242 243 244 244 244 244 243 246 244 244 245 247 
247 246 235 186 152 189 247 249 251 249 249 247 249 251 249 249 
250 249 249 249 249 249 249 249 250 250 250 249 249 250 250 249 
250 250 251 241 240 241 242 242 241 242 242 241 240 242 241 241 243 242 242 242 
242 244 244 242 243 242 244 242 242 241 245 245 247 247 228 187 
178 207 230 243 242 241 241 240 243 242 243 244 242 243 245 244 
244 244 244 244 245 245 245 244 245 244 246 246 247 247 250 246 
219 187 171 214 244 252 251 249 248 249 247 250 249 248 250 250 
250 250 250 249 249 250 250 251 250 250 250 251 249 250 250 251 
251 251 251 242 241 241 240 240 241 241 241 241 241 241 241 238 241 242 242 243 
241 242 243 242 242 242 242 243 243 242 244 243 243 245 248 248 
239 202 172 174 185 226 241 243 245 243 244 245 244 245 246 246 
245 246 245 246 249 246 245 246 247 248 246 247 241 227 199 175 
176 217 246 252 252 251 250 250 249 249 249 250 250 250 250 251 
250 250 249 250 251 250 251 251 249 252 251 251 252 251 252 251 
251 251 251 239 239 242 241 243 241 241 241 241 241 242 241 242 240 240 242 242 
242 243 243 244 244 244 244 242 243 243 245 245 245 242 244 246 
248 248 246 233 201 179 172 183 201 232 247 244 246 248 247 246 
246 248 246 247 247 248 249 247 243 233 220 190 182 200 208 240 
251 251 251 250 250 251 250 249 250 249 250 250 249 250 251 249 
251 250 249 251 251 251 249 251 251 251 252 252 250 251 251 252 
250 251 251 241 241 242 241 239 241 242 242 241 243 242 241 242 241 242 242 244 
244 242 243 244 244 243 243 244 244 244 243 243 243 245 244 245 
245 246 247 248 248 249 240 181 173 167 141 159 190 210 211 218 
236 228 221 203 194 198 206 177 182 201 213 227 243 251 252 252 
251 251 251 250 250 249 250 250 251 250 250 250 250 251 250 249 
250 250 251 250 250 250 252 251 252 252 251 251 251 252 250 251 
252 251 251 240 242 241 241 242 244 242 243 241 241 242 243 241 242 242 244 244 
245 245 245 244 244 245 245 245 245 244 245 244 245 242 244 245 
245 246 247 245 246 246 242 251 253 250 239 215 186 174 185 178 
170 187 197 217 221 222 226 220 243 248 251 250 250 251 251 250 
250 251 250 251 250 250 250 250 250 251 251 250 251 250 250 250 
252 251 251 251 251 251 251 251 251 251 251 251 252 252 252 251 
251 252 251 241 242 242 241 242 241 239 241 243 243 241 241 241 242 242 242 244 
245 245 245 244 244 244 246 245 244 244 245 245 245 245 246 246 
246 246 246 244 244 245 245 247 247 250 251 251 249 250 250 251 
250 250 250 251 251 249 250 251 251 251 250 252 250 251 251 252 
250 250 252 251 251 250 252 251 251 250 251 251 250 250 251 251 
251 251 251 251 252 252 251 251 252 251 251 252 252 252 251 251 
251 251 251 241 241 241 241 242 242 242 242 243 242 243 243 242 243 241 242 244 
243 244 244 243 244 244 243 245 245 245 245 245 246 244 243 246 
245 246 246 246 247 246 246 245 250 247 248 248 249 249 249 249 
251 251 252 250 250 250 249 250 249 248 249 249 250 250 249 249 
250 249 250 252 251 251 250 250 250 251 251 252 250 250 251 250 
251 251 251 251 253 252 252 253 252 252 251 251 252 252 252 252 
252 251 252 242 241 242 241 242 241 241 243 243 242 242 243 243 241 243 242 243 
244 244 245 245 246 245 245 244 245 244 244 245 244 246 245 246 
246 246 244 246 247 248 249 249 248 249 248 248 248 248 249 248 
248 247 251 248 248 248 249 249 249 249 248 249 249 249 249 249 
251 251 250 250 251 251 251 251 251 251 251 251 251 252 253 252 
251 251 250 251 251 252 251 251 252 252 252 251 252 252 251 252 
252 253 252 242 242 242 241 242 242 241 241 243 242 242 242 244 243 243 243 245 
246 243 245 244 244 245 245 245 246 245 246 245 246 245 245 244 
244 243 243 245 247 247 248 248 248 248 248 248 248 248 248 249 
249 249 248 248 249 248 250 249 249 250 250 250 249 250 250 252 
251 251 252 251 251 251 250 249 250 251 252 251 252 250 251 250 
250 252 252 253 251 251 252 252 252 252 252 253 252 252 251 252 
251 252 252 241 241 241 241 240 240 241 241 242 243 243 243 242 243 243 244 242 
244 244 244 245 246 244 245 245 245 246 245 246 246 243 244 245 
245 244 244 245 248 248 247 247 249 249 249 249 248 248 248 249 
249 250 249 249 249 250 249 249 250 250 249 250 249 249 251 250 
250 251 252 250 251 251 251 252 252 251 250 250 252 253 251 252 
253 253 251 252 252 253 252 252 252 254 251 251 252 252 253 252 
252 252 252 241 241 241 242 240 241 241 243 242 242 243 242 243 243 243 241 244 
244 244 243 245 245 245 246 245 245 246 245 245 246 247 244 247 
246 245 245 247 248 248 248 248 249 248 249 249 249 249 249 249 
249 249 249 249 250 250 249 249 250 250 250 250 250 250 250 250 
250 251 251 250 251 251 251 251 252 251 251 252 251 251 252 252 
251 251 252 252 251 251 252 252 251 252 251 252 252 252 251 252 
252 251 252 