P2
# Created by IrfanView
100 100
255
243 245 245 244 244 244 243 244 241 245 244 244 245 245 245 245 244 
244 246 246 245 245 246 246 245 245 246 245 246 246 246 246 248 
246 247 247 247 247 246 247 248 247 248 247 246 245 246 245 245 
247 248 247 247 247 249 248 248 248 249 249 248 250 249 248 247 
247 248 248 247 249 248 248 249 248 248 249 249 249 249 248 248 
249 249 249 247 248 249 249 248 247 247 247 248 247 247 248 248 
248 247 249 244 244 243 244 244 243 243 245 244 242 244 243 244 245 244 244 243 
244 244 244 245 244 244 245 245 245 246 243 244 245 246 245 245 
245 245 245 245 245 246 246 246 245 245 247 246 246 246 243 245 
246 248 248 247 247 247 248 249 248 248 249 249 249 247 248 249 
248 249 248 247 247 248 249 248 249 248 248 248 248 248 249 249 
248 249 249 247 247 247 247 247 247 247 248 247 247 246 247 247 
248 249 247 244 243 243 245 243 243 244 243 243 244 244 243 244 243 244 244 244 
243 243 244 244 244 244 243 244 245 245 245 245 246 245 244 243 
244 244 245 243 244 243 244 243 245 245 244 245 246 247 245 246 
248 246 246 246 247 247 247 247 247 249 249 247 247 249 248 247 
248 248 247 247 249 249 248 247 247 248 248 248 248 249 249 247 
247 248 248 248 247 247 247 246 245 247 247 246 246 248 247 247 
248 244 248 243 242 243 241 242 242 242 243 242 242 242 244 243 243 244 244 243 
243 242 244 244 243 243 243 244 244 244 245 243 243 243 243 246 
243 243 244 242 242 241 242 243 244 245 243 243 244 244 246 244 
245 246 246 246 247 246 247 247 247 247 247 247 247 246 246 246 
247 248 248 248 247 247 249 249 248 248 247 247 248 248 248 248 
247 247 247 248 247 247 246 247 249 247 246 245 246 245 247 249 
246 248 246 243 243 243 243 243 242 244 241 242 241 242 242 242 243 242 242 242 
243 243 243 242 242 242 243 243 243 243 243 243 242 243 243 243 
241 243 241 243 243 241 243 243 242 244 242 245 243 244 244 246 
246 245 245 245 244 245 245 247 246 247 246 246 246 246 247 249 
247 245 247 246 246 246 245 246 247 247 247 246 246 247 248 248 
246 247 247 246 247 246 246 246 246 248 246 247 246 247 246 246 
247 246 245 242 242 242 242 242 242 242 241 242 242 243 240 243 242 242 242 243 
242 242 242 242 242 242 242 241 242 242 242 243 243 243 243 241 
241 242 241 241 242 241 240 241 242 243 243 244 245 245 243 244 
246 245 245 246 246 246 248 248 246 245 246 245 245 245 245 244 
245 245 245 245 245 246 246 246 246 246 246 246 245 245 245 245 
245 246 245 245 245 246 246 246 245 246 245 245 245 245 245 245 
246 245 243 241 242 242 241 243 241 240 242 241 241 242 242 241 242 242 241 242 
241 241 242 242 242 242 242 242 242 242 243 243 242 242 241 241 
242 242 242 241 242 242 243 243 246 245 245 243 241 237 240 237 
239 233 223 232 234 239 244 247 247 247 249 245 246 245 245 246 
244 245 244 244 246 245 245 245 246 245 245 246 247 245 245 246 
245 244 244 245 245 245 244 243 246 245 245 245 245 244 244 244 
244 245 245 241 241 240 241 241 241 241 241 242 240 241 241 241 240 241 242 241 
241 241 241 241 241 240 241 241 241 241 241 242 242 240 240 241 
242 241 242 242 243 244 244 239 225 204 191 198 187 198 199 200 
201 201 211 193 192 190 186 188 193 217 233 236 245 247 246 246 
245 244 245 243 243 244 245 245 244 244 243 244 246 245 244 244 
245 245 245 245 245 244 245 244 243 247 245 244 245 245 246 245 
245 245 244 241 241 240 241 243 241 239 241 241 241 241 240 240 240 240 241 241 
240 240 241 241 241 240 239 239 240 240 240 239 243 240 240 243 
242 244 241 233 211 200 192 200 215 225 235 238 242 246 246 247 
248 246 248 246 247 247 243 236 224 217 196 180 184 209 229 242 
245 243 243 244 244 243 243 243 243 244 243 244 244 245 245 244 
244 244 243 243 244 245 243 245 245 244 243 243 243 243 243 245 
244 244 244 242 240 240 238 240 239 241 239 239 240 240 240 240 240 240 240 240 
240 239 241 240 240 241 240 240 240 240 239 240 239 241 243 244 
236 211 176 174 198 232 243 244 244 244 243 242 243 243 243 243 
244 242 242 243 243 243 244 246 245 247 247 247 230 205 185 178 
195 225 240 244 244 244 244 243 243 243 243 243 244 244 244 244 
243 243 242 243 244 245 246 243 244 243 243 243 244 244 243 244 
244 244 243 240 241 240 241 241 241 240 239 240 241 239 239 239 240 240 238 239 
239 239 240 240 239 238 239 238 239 239 239 239 242 244 239 198 
173 201 219 242 241 240 242 242 241 241 242 240 242 241 242 242 
241 241 241 241 241 240 241 242 241 241 243 243 245 244 246 240 
204 167 168 213 245 246 244 244 243 244 242 243 244 244 244 243 
243 243 243 243 245 242 243 243 244 243 245 244 242 244 244 242 
243 243 243 239 240 239 239 240 239 240 239 239 240 240 239 238 238 239 239 239 
240 240 238 239 242 237 238 239 237 238 239 243 234 193 171 213 
243 245 242 241 241 240 239 240 239 241 240 241 240 241 241 241 
241 241 242 242 240 240 239 240 242 241 241 242 240 242 242 245 
245 246 230 187 174 217 236 243 242 242 241 241 242 243 243 243 
243 242 243 242 243 242 243 244 243 244 244 244 243 243 242 242 
243 242 243 239 238 240 239 239 239 239 239 239 240 239 238 238 240 240 239 238 
238 238 237 240 239 238 235 237 241 241 235 189 171 216 242 243 
242 241 240 239 240 239 239 240 240 240 240 240 240 239 239 238 
238 240 241 237 241 240 242 241 241 239 241 242 240 241 241 240 
241 242 244 247 237 192 170 221 242 243 243 241 242 241 243 243 
242 243 243 241 241 242 241 243 243 242 243 243 242 243 242 242 
243 243 242 239 239 239 238 239 238 237 236 238 238 240 238 239 238 238 238 239 
238 237 238 238 240 238 238 239 234 202 159 200 240 241 241 242 
241 239 241 240 239 239 238 238 240 239 239 239 240 240 240 239 
240 240 241 241 240 241 241 241 240 240 240 241 240 240 239 241 
240 239 241 241 243 245 222 172 178 231 242 242 241 240 242 242 
243 241 243 242 242 240 243 241 242 242 242 242 243 242 242 242 
242 243 243 239 240 239 238 237 239 237 238 238 238 237 238 236 238 240 240 238 
236 236 237 238 239 238 239 226 159 177 236 241 241 239 239 239 
239 239 240 239 236 239 239 240 237 239 240 240 239 240 240 240 
238 239 240 240 240 240 241 241 240 239 240 241 241 239 241 240 
241 239 240 240 240 239 243 242 206 163 198 237 241 241 241 240 
242 241 241 242 240 241 241 242 242 241 241 241 241 242 241 241 
241 241 240 236 237 238 237 239 237 237 237 238 237 238 238 238 238 239 235 236 
236 235 236 240 240 240 216 166 217 242 240 239 239 240 240 238 
239 238 238 238 240 238 238 239 240 237 239 237 239 240 238 238 
238 239 241 240 240 239 239 239 238 239 240 240 242 241 241 240 
240 239 239 239 240 240 240 242 245 235 176 171 231 241 242 241 
240 242 242 242 242 240 241 241 239 240 239 241 239 242 241 241 
241 241 242 239 238 238 236 237 237 237 238 237 236 238 237 238 238 237 237 235 
234 236 238 239 209 168 174 231 240 241 239 238 239 238 237 239 
239 239 237 239 240 238 238 238 237 239 237 238 239 238 239 239 
238 239 238 237 238 239 238 240 239 239 239 238 237 240 240 238 
238 238 238 238 240 240 240 240 242 243 244 194 168 227 241 242 
240 242 241 241 241 240 241 240 240 242 241 241 241 242 242 240 
241 241 241 236 240 238 238 236 238 237 237 237 237 236 234 237 236 237 236 235 
234 237 236 200 108 177 240 242 239 236 237 237 237 238 239 239 
239 238 240 239 241 239 238 237 237 236 237 240 239 239 239 239 
239 238 237 238 238 239 239 239 239 239 239 239 239 239 239 240 
238 237 240 240 240 241 239 239 242 239 240 243 220 170 221 244 
240 240 239 240 240 240 239 240 241 241 241 242 241 241 240 240 
240 240 242 236 235 234 237 237 237 236 238 237 237 235 237 237 236 235 236 236 
236 239 169 99 195 238 240 238 236 238 236 238 237 237 238 238 
238 238 237 240 240 239 238 239 240 238 237 237 240 239 240 239 
238 237 237 239 240 240 239 240 240 239 240 238 238 238 238 239 
238 240 238 239 239 240 240 240 237 237 237 239 241 226 150 199 
240 239 241 240 240 238 240 240 241 239 239 238 240 240 239 241 
240 240 240 238 236 237 236 237 237 237 235 236 236 237 235 236 236 233 235 235 
239 219 113 233 243 238 236 236 237 237 238 236 239 238 236 237 
237 239 238 239 240 238 239 238 239 238 240 240 238 238 237 238 
238 238 237 238 240 238 239 239 238 239 240 240 237 236 238 237 
238 236 239 239 238 240 238 239 239 237 237 236 238 242 228 169 
220 241 239 239 240 240 240 240 240 240 240 239 239 240 240 239 
240 239 240 236 237 236 236 235 236 235 235 239 234 236 235 236 237 235 235 239 
228 155 228 240 240 234 238 236 237 236 235 237 236 237 236 238 
238 237 238 238 237 238 236 237 237 237 237 239 238 240 239 236 
239 239 237 239 240 239 239 240 239 238 238 237 240 239 238 239 
238 236 237 237 239 239 239 237 236 236 238 238 236 239 240 226 
161 205 241 239 238 240 239 237 237 238 239 239 238 238 236 238 
239 238 240 237 236 236 236 235 235 236 235 236 237 235 235 235 234 233 236 232 
157 226 238 238 236 236 239 236 236 236 237 237 237 236 238 236 
237 238 238 236 238 237 239 239 236 238 239 236 236 238 238 237 
237 240 240 239 239 239 239 240 240 238 237 238 236 239 238 236 
237 239 237 237 239 239 239 237 236 234 238 237 237 237 237 242 
232 159 201 242 239 239 237 239 236 238 238 238 239 238 239 236 
238 238 238 234 235 236 236 236 236 236 235 235 237 234 235 236 235 234 239 161 
209 242 238 235 236 238 237 236 236 236 237 237 237 237 237 238 
238 237 238 237 238 238 237 238 239 237 238 237 240 239 239 238 
239 238 239 239 237 239 239 239 238 239 238 237 239 238 236 236 
237 237 236 237 238 238 236 236 238 236 236 237 235 238 235 237 
240 227 158 214 239 238 238 237 240 238 238 236 237 237 237 238 
238 238 238 236 235 236 235 236 235 237 235 237 235 236 237 233 235 237 191 183 
243 238 235 236 236 236 236 237 236 235 235 236 235 237 237 236 
235 236 237 237 237 238 236 237 237 238 239 236 238 237 238 239 
239 237 239 238 238 237 238 238 237 237 237 238 238 236 236 235 
237 237 236 236 237 235 234 234 237 236 235 234 235 236 234 237 
238 240 219 146 232 240 237 237 235 237 235 236 237 236 237 237 
237 237 237 235 235 236 235 238 237 233 234 236 236 238 237 235 239 215 165 238 
236 236 235 236 237 233 238 238 236 236 236 234 236 236 237 233 
237 237 236 236 236 235 238 235 237 237 237 239 238 240 236 237 
238 239 239 239 238 237 237 239 237 238 238 238 237 239 235 237 
236 238 236 235 236 236 238 236 236 235 235 234 233 235 235 234 
236 238 239 194 169 238 236 236 236 236 238 236 236 237 236 237 
234 238 237 234 235 236 235 235 235 236 236 235 235 238 237 235 231 138 230 237 
236 234 236 237 235 237 236 235 235 236 235 237 235 236 235 236 
235 235 236 236 238 235 236 237 237 236 237 236 237 237 238 238 
237 238 238 238 237 238 237 240 236 236 237 236 238 237 237 236 
235 236 237 238 236 235 235 236 235 235 235 235 235 234 236 237 
236 234 237 242 169 190 237 236 237 238 235 236 234 235 236 236 
237 237 237 234 234 234 236 236 235 235 235 235 236 239 236 241 179 205 238 236 
235 235 235 235 235 236 236 237 235 235 235 235 235 234 238 235 
238 236 237 236 236 236 237 237 238 236 236 238 236 237 239 238 
238 238 238 238 239 237 239 239 236 236 237 236 237 237 238 235 
236 238 237 237 236 235 234 233 234 234 234 234 235 234 236 233 
233 235 235 238 236 148 213 236 235 234 234 235 237 235 234 235 
236 235 237 235 235 234 235 235 235 236 234 235 235 235 237 208 156 239 235 235 
235 235 235 236 236 235 236 237 235 234 235 235 238 239 238 239 
238 236 236 238 236 236 236 238 238 238 237 236 238 237 235 237 
237 238 238 237 238 237 238 237 237 236 236 236 234 236 237 236 
236 237 235 236 234 235 233 233 234 234 234 234 235 233 234 234 
234 234 235 236 238 213 156 235 236 235 237 233 233 235 235 234 
233 236 236 236 233 236 235 236 232 234 234 235 234 234 237 143 225 235 236 236 
235 236 236 236 235 234 234 235 235 234 235 235 237 234 236 236 
238 237 240 234 235 236 238 236 237 238 237 237 236 237 238 237 
237 236 236 239 238 237 237 237 237 235 236 237 236 235 237 237 
237 237 236 236 238 237 236 235 234 234 234 233 233 235 234 234 
234 234 234 234 236 240 169 206 237 234 235 236 235 235 234 237 
236 234 235 234 235 235 236 236 234 234 234 232 233 236 203 173 241 235 233 234 
236 236 236 235 234 235 233 235 234 235 240 237 196 159 130 150 
159 185 203 240 237 234 235 236 236 237 237 237 237 237 237 237 
238 237 237 239 236 237 238 238 235 235 235 236 233 234 235 234 
234 235 235 236 236 237 238 235 233 233 234 233 235 234 233 234 
234 232 234 234 234 236 225 144 226 235 234 235 235 234 234 234 
235 235 234 234 236 234 234 234 233 234 234 234 235 236 161 230 235 234 237 235 
234 234 234 236 234 234 234 235 237 239 226 142 76 102 150 95 
87 123 154 175 236 235 235 236 235 235 235 235 236 235 235 237 
237 237 237 236 236 236 236 236 235 234 234 235 234 236 233 234 
235 237 236 234 229 224 229 231 234 233 235 235 234 234 234 234 
234 233 233 234 235 235 237 192 179 238 235 234 234 234 234 234 
234 235 235 234 234 234 234 235 234 234 234 234 234 212 184 239 235 235 234 235 
234 235 234 234 235 235 233 234 238 184 105 90 118 75 69 75 
84 87 210 200 178 235 235 235 236 236 236 236 237 237 237 236 
234 236 237 236 237 233 236 235 235 236 235 235 235 233 234 235 
238 222 186 146 139 123 117 133 178 223 233 237 236 234 233 233 
233 233 235 233 233 234 236 232 149 226 236 233 234 234 234 233 
232 234 234 234 234 234 234 234 233 234 234 233 237 160 231 236 234 234 235 234 
234 235 235 234 234 235 234 235 173 135 185 130 125 91 56 132 
111 83 141 241 190 225 235 235 235 236 235 237 237 237 236 236 
238 236 235 235 233 235 234 236 235 235 234 235 235 234 235 234 
206 149 183 220 178 88 73 78 104 133 134 217 232 232 234 235 
234 234 235 234 234 233 234 236 182 187 237 233 234 234 234 234 
235 234 234 233 234 235 235 233 234 234 235 232 225 161 241 236 235 234 235 235 
234 234 234 233 232 233 234 237 165 234 199 165 84 67 97 182 
148 155 121 236 211 194 236 236 237 234 236 236 234 238 235 236 
235 234 235 235 236 235 237 234 236 234 235 235 234 236 238 201 
170 231 242 209 80 68 99 88 86 219 194 172 234 235 234 235 
234 232 234 233 232 236 234 233 222 143 230 234 232 234 235 233 
234 233 234 234 235 234 234 234 233 233 235 237 174 215 235 234 235 235 234 234 
234 234 234 234 234 235 233 234 240 237 237 211 55 65 96 178 
122 134 141 237 236 220 235 234 235 235 235 236 235 234 236 236 
235 236 235 235 235 234 233 235 234 235 235 234 236 237 233 174 
232 239 237 161 92 89 107 102 80 168 240 179 231 234 234 235 
234 233 233 233 233 233 235 233 237 165 192 235 233 233 234 233 
233 233 234 233 234 235 233 233 233 233 233 238 156 237 234 234 234 234 233 234 
234 234 234 235 233 232 233 234 237 235 237 163 79 81 128 125 
91 97 184 234 234 235 234 235 235 235 235 235 235 236 236 235 
235 235 236 235 235 235 235 234 234 234 235 234 234 237 234 229 
237 234 220 136 81 133 125 143 92 156 235 195 210 234 234 236 
233 234 233 231 233 234 235 236 235 218 151 235 235 234 234 233 
234 234 234 234 234 234 235 233 234 234 235 213 177 238 235 234 234 234 235 235 
234 234 234 234 234 235 235 234 234 234 236 193 120 74 92 82 
99 162 238 235 235 235 235 234 235 236 234 234 234 235 234 234 
235 234 235 234 235 235 235 235 235 233 234 234 234 236 235 236 
236 234 216 169 92 139 145 148 88 195 234 218 228 234 234 234 
234 235 233 234 235 234 234 233 235 237 161 224 231 231 235 233 
233 234 234 233 233 235 234 234 234 233 233 164 222 236 235 234 233 235 233 233 
235 234 234 234 233 234 234 235 234 234 235 238 129 84 83 117 
173 232 239 237 233 236 234 236 234 234 235 236 235 236 236 235 
235 235 235 234 235 233 235 234 235 235 235 234 234 236 236 235 
235 235 224 171 97 93 91 91 127 234 232 235 233 234 234 233 
233 234 234 235 234 232 233 232 232 235 192 179 236 234 231 233 
233 234 233 233 233 233 232 233 234 234 236 157 236 235 234 235 235 234 236 234 
234 234 234 233 234 234 235 235 234 233 234 238 235 213 213 212 
238 238 235 234 234 232 235 235 234 234 235 234 234 234 237 234 
234 233 235 236 235 236 234 235 235 235 235 234 235 234 236 234 
233 234 237 193 100 81 89 101 212 238 234 235 235 234 234 234 
234 234 233 234 234 233 233 233 233 235 207 162 234 234 233 233 
232 233 233 233 234 234 235 233 234 231 226 168 239 235 234 235 234 235 234 234 
234 235 234 234 234 233 234 234 233 234 235 232 238 237 238 239 
238 236 235 236 234 234 234 234 235 235 234 235 235 235 234 234 
235 235 235 235 235 235 235 234 234 234 234 233 235 236 235 234 
233 234 235 231 190 135 146 200 238 233 233 234 234 234 235 234 
234 234 234 233 232 232 233 232 233 232 229 132 229 234 233 233 
234 233 230 234 235 234 233 233 233 233 206 204 236 236 234 235 236 234 234 235 
234 233 234 236 234 234 234 234 234 234 235 234 234 234 236 235 
232 234 234 236 237 235 235 234 234 234 234 234 235 233 235 233 
236 234 235 235 234 234 234 235 236 234 235 237 236 235 235 234 
234 235 234 236 238 240 238 238 234 234 233 234 234 234 234 233 
234 235 235 236 233 232 231 233 233 232 236 175 211 234 234 232 
233 233 234 233 233 233 234 231 233 235 166 225 231 233 234 234 235 235 233 234 
234 235 235 233 234 234 234 234 234 234 235 235 234 236 233 234 
235 232 235 237 236 235 234 234 234 233 234 234 235 236 235 234 
235 235 236 234 234 234 235 235 234 233 234 233 233 236 235 234 
234 235 235 233 235 236 237 237 234 234 233 233 234 234 234 234 
234 234 235 233 232 232 232 231 233 231 230 184 186 234 231 233 
232 233 233 233 232 235 233 232 231 237 158 234 237 234 234 235 234 234 234 234 
234 234 234 235 234 234 234 234 234 234 234 236 234 234 235 233 
235 234 235 234 235 235 234 234 235 235 236 235 234 234 234 234 
234 234 234 235 235 234 234 234 232 234 234 233 234 236 236 234 
234 234 233 234 234 233 234 233 234 234 233 234 233 234 235 234 
234 234 234 233 235 232 230 231 232 233 233 217 149 236 235 232 
232 232 232 233 233 234 233 233 232 230 156 236 234 235 237 233 235 235 234 234 
234 235 236 234 232 233 233 234 233 234 234 234 233 235 234 234 
235 235 234 235 235 234 234 235 235 235 235 235 234 236 234 234 
236 235 235 235 235 233 236 235 235 236 235 235 235 235 236 234 
233 235 234 233 234 233 234 233 233 232 234 233 234 235 234 234 
235 235 233 233 232 232 230 232 232 231 233 230 121 236 234 232 
232 231 232 233 233 233 234 234 232 234 172 236 234 234 234 234 234 233 234 234 
234 234 234 235 236 235 234 234 234 235 235 237 234 235 234 234 
233 234 233 234 234 235 234 234 232 234 234 235 234 234 235 235 
234 235 236 234 234 234 234 235 235 234 235 235 234 234 235 235 
235 235 234 234 234 234 235 234 235 234 233 234 233 234 233 234 
234 236 233 234 231 232 232 231 232 232 233 233 144 228 235 231 
231 232 232 234 233 232 233 233 233 229 186 236 234 233 234 234 235 235 234 234 
233 233 233 233 234 234 234 234 234 233 233 234 234 235 235 234 
235 234 235 235 233 234 233 235 234 235 235 233 234 234 235 234 
237 232 235 236 234 234 234 234 234 234 233 234 234 234 235 235 
235 233 234 234 234 233 231 233 234 234 234 235 235 231 234 234 
233 234 234 232 232 232 232 231 232 231 231 232 158 202 232 234 
232 232 231 232 234 232 233 232 235 220 184 234 235 234 234 234 234 233 234 234 
234 234 234 233 234 235 235 234 234 234 234 233 234 234 233 234 
234 236 234 234 234 235 234 235 233 233 233 234 234 234 234 234 
234 236 235 235 234 235 236 235 234 234 233 234 234 234 233 234 
234 234 234 235 235 233 235 234 235 233 233 233 233 234 233 234 
234 233 232 232 232 231 231 231 230 233 232 230 184 194 233 230 
234 234 231 232 233 232 233 232 235 201 187 234 233 234 234 234 235 234 233 234 
234 234 232 234 234 232 234 234 234 235 234 235 234 234 235 235 
234 234 233 235 234 235 233 235 233 232 235 233 234 235 234 234 
234 234 233 234 235 237 234 235 234 236 234 233 234 233 234 234 
235 234 235 233 232 234 233 233 233 233 234 233 233 234 235 232 
233 233 233 233 233 233 233 232 230 233 231 227 144 213 233 232 
229 228 232 232 233 232 231 231 234 180 219 235 233 233 232 234 233 234 234 234 
232 234 231 231 235 234 233 235 235 234 234 234 234 234 234 234 
234 234 235 235 234 233 234 234 235 235 234 233 234 234 235 234 
236 235 234 233 234 234 234 234 236 236 234 234 234 233 234 233 
232 235 235 234 233 233 233 233 234 232 233 233 234 234 234 230 
232 233 232 232 231 230 233 231 232 231 233 233 134 211 230 230 
232 231 230 233 232 233 230 230 236 185 218 234 234 233 233 233 232 233 233 234 
233 234 232 232 233 233 233 232 235 234 234 234 234 234 233 232 
234 234 235 234 234 234 233 234 234 234 234 233 234 234 233 234 
234 234 233 235 234 234 233 233 234 233 234 233 234 235 233 234 
234 233 234 234 233 233 232 232 233 232 232 233 232 232 234 235 
233 232 233 233 232 230 232 232 232 232 230 228 156 210 234 231 
232 230 231 230 231 233 233 230 234 187 219 234 233 233 234 235 234 233 235 236 
234 234 233 231 233 234 233 235 233 233 234 234 234 234 234 233 
234 234 235 236 234 233 234 234 234 233 234 233 234 233 234 235 
234 231 236 234 234 235 234 234 234 234 232 233 233 233 233 233 
234 234 233 233 234 233 232 234 234 233 234 234 232 232 233 233 
232 231 232 233 232 234 233 233 231 233 231 230 203 199 233 230 
231 231 231 233 230 233 231 232 233 184 210 234 232 233 233 232 235 234 234 233 
234 232 231 232 234 234 233 233 235 234 235 233 234 235 234 234 
233 234 234 235 234 234 235 235 233 235 233 233 234 233 235 233 
234 235 234 233 234 234 234 232 233 232 234 234 234 233 233 234 
233 233 235 232 234 233 232 233 234 232 233 233 233 232 232 232 
232 232 233 234 232 231 231 232 232 233 232 231 193 203 232 230 
230 230 230 231 232 230 229 232 233 198 203 234 233 232 232 234 233 234 233 232 
233 234 234 233 235 233 233 234 233 234 234 234 234 234 234 234 
232 234 234 234 234 234 234 234 234 232 233 234 234 234 234 235 
234 234 234 234 233 233 232 233 233 234 234 233 232 233 232 234 
234 233 233 233 234 234 232 234 233 232 233 233 230 232 234 232 
230 231 233 233 232 231 232 232 232 231 231 231 185 216 229 229 
228 230 232 232 232 232 228 230 233 197 202 233 234 233 234 234 234 232 232 233 
232 233 233 233 232 232 233 235 234 233 234 234 234 234 233 234 
235 234 234 235 235 233 234 233 234 235 234 233 232 232 234 234 
235 233 234 234 233 233 233 233 233 233 234 232 233 235 234 232 
233 234 234 230 234 233 234 233 232 231 233 233 233 232 231 232 
231 232 232 231 232 230 233 232 232 232 232 233 184 214 230 230 
230 230 230 232 231 232 231 231 231 195 194 236 233 233 233 233 233 233 233 234 
234 233 234 233 234 233 233 234 233 234 234 234 234 233 234 232 
234 234 233 234 234 233 233 234 234 234 233 234 234 232 233 233 
233 234 233 233 233 232 234 233 234 234 234 233 234 233 234 233 
233 233 235 233 233 232 232 232 232 233 232 233 232 232 233 233 
233 232 230 233 233 233 232 232 233 231 232 231 186 225 231 230 
228 230 227 232 230 232 231 229 228 210 178 234 234 234 233 233 233 234 233 232 
234 233 233 233 232 234 234 233 234 233 234 233 234 233 234 233 
233 234 233 235 234 233 233 233 233 234 233 233 231 233 234 231 
233 233 234 234 233 233 232 233 235 235 233 234 232 232 232 232 
233 233 234 233 232 232 232 232 233 232 231 233 231 232 232 231 
230 232 232 232 231 231 232 232 233 234 231 229 184 230 232 230 
230 229 227 232 233 231 231 232 232 229 165 235 233 234 234 233 235 234 232 233 
234 234 233 233 233 233 234 234 234 234 233 234 234 235 235 234 
234 233 233 234 234 234 234 233 234 234 232 233 233 232 232 233 
232 233 232 232 232 232 233 233 233 233 233 232 233 233 232 233 
234 233 233 230 233 232 232 232 233 230 233 232 231 230 230 232 
232 231 231 230 230 231 231 230 234 232 232 223 177 233 231 230 
230 229 228 230 233 232 230 231 231 232 160 237 232 231 233 232 233 233 234 233 
233 233 233 233 233 234 232 232 234 234 234 233 233 233 232 232 
233 233 233 234 233 234 234 234 235 236 235 231 231 233 232 232 
232 231 232 233 232 233 233 232 232 234 232 232 232 231 233 231 
233 233 232 231 233 232 231 229 232 232 230 230 230 232 230 230 
232 231 231 230 232 231 231 231 231 232 229 225 183 234 231 228 
228 228 227 232 232 230 230 228 229 236 161 235 233 233 232 233 232 233 232 234 
233 233 233 234 234 234 234 231 234 233 233 234 232 232 232 234 
233 233 234 234 233 234 232 233 233 234 233 232 232 232 231 232 
232 233 232 233 232 233 232 232 232 232 229 231 233 233 233 233 
231 233 235 233 230 232 233 234 232 232 231 232 233 230 226 229 
229 231 231 232 231 231 229 233 231 232 233 215 183 234 231 229 
228 230 230 231 232 231 232 231 233 233 177 219 233 232 232 232 234 233 233 233 
234 234 234 234 233 233 232 233 234 233 233 234 234 234 233 234 
233 232 231 233 233 235 234 232 235 234 233 231 231 233 232 231 
231 231 232 231 231 231 232 232 232 231 232 232 231 232 232 232 
230 233 232 232 233 232 232 233 229 232 232 234 232 232 231 231 
229 230 230 230 230 230 231 232 229 232 228 197 206 233 229 230 
231 232 230 230 230 232 231 230 230 232 191 193 233 232 231 231 233 233 234 234 
234 232 234 233 233 233 233 234 234 234 234 233 233 232 232 231 
234 232 234 234 234 234 233 233 235 232 234 232 231 231 231 231 
231 232 232 231 231 231 232 232 232 232 232 230 231 232 231 232 
233 231 230 231 230 231 232 232 233 230 231 231 230 232 230 230 
231 231 230 230 231 229 229 230 232 231 228 156 224 230 231 230 
229 231 226 231 231 231 230 231 231 231 216 166 236 230 233 233 234 234 233 232 
234 233 233 232 233 233 232 233 233 231 232 233 233 232 233 233 
232 231 233 234 232 233 233 232 233 233 233 233 231 232 231 230 
232 232 231 232 231 230 231 231 231 232 230 231 232 230 232 231 
231 233 232 231 231 231 232 230 232 232 231 230 231 231 230 229 
230 231 230 230 229 231 232 229 229 231 211 139 232 229 230 227 
227 227 227 231 231 232 231 230 231 228 231 157 237 231 232 234 232 232 234 233 
234 233 234 234 233 233 234 234 235 233 232 232 231 233 232 233 
232 232 233 232 232 231 231 230 232 234 234 231 229 229 230 229 
230 231 232 232 232 232 232 231 231 231 232 231 229 231 233 230 
232 230 230 231 231 231 231 232 232 231 232 230 232 231 231 230 
228 230 230 230 230 228 230 231 229 227 183 161 232 230 229 231 
230 229 230 232 230 231 232 232 232 231 233 176 218 231 231 231 233 233 234 233 
233 233 236 234 233 232 232 232 233 233 232 231 232 232 231 231 
232 232 230 234 231 231 232 231 231 231 232 231 231 231 231 231 
230 231 231 231 231 230 231 231 231 231 231 231 231 232 231 231 
231 230 231 231 230 231 231 230 232 230 230 231 231 231 231 229 
231 229 229 231 230 228 230 229 228 228 149 204 232 232 231 231 
230 227 228 231 231 231 230 229 230 233 231 224 178 233 231 233 233 232 233 231 
233 233 233 234 233 233 233 232 233 232 231 231 232 232 232 231 
232 231 232 231 231 231 231 231 230 231 232 231 232 231 231 230 
229 233 230 232 231 230 231 231 231 231 231 230 232 231 230 231 
230 231 230 232 232 231 231 231 230 232 230 232 231 230 231 229 
230 228 230 231 230 229 229 230 229 222 136 228 230 231 231 229 
228 227 229 233 232 231 233 232 232 230 232 235 162 236 234 232 230 234 233 233 
233 233 233 233 233 232 233 233 232 233 234 231 231 230 231 231 
232 231 230 231 231 230 232 231 231 231 231 230 230 232 232 230 
231 232 230 231 231 230 228 228 230 231 232 231 229 230 229 230 
230 232 230 230 231 231 231 231 231 230 231 230 229 230 229 228 
229 228 230 231 230 230 229 228 228 213 190 231 228 230 228 230 
229 228 228 232 231 231 231 228 231 232 232 232 183 211 232 231 232 233 233 232 
233 233 231 235 233 233 233 232 233 232 233 232 232 231 231 231 
231 231 231 231 231 231 229 232 230 231 230 230 231 230 230 229 
230 230 230 230 229 230 230 231 231 230 232 229 230 231 231 232 
231 231 230 230 231 231 230 231 231 231 230 231 229 231 229 228 
227 229 227 229 228 228 230 230 231 173 218 229 228 230 227 228 
227 228 227 233 232 231 231 231 231 231 231 231 227 157 235 233 232 231 232 234 
232 234 233 233 232 233 232 233 232 232 233 232 232 231 231 231 
231 231 230 231 231 231 231 231 231 232 231 229 230 232 232 232 
231 233 232 233 233 232 232 230 232 232 230 231 229 229 231 229 
230 231 232 231 230 230 231 231 229 229 230 231 228 229 229 231 
229 229 229 230 229 228 227 229 222 174 229 227 231 230 229 228 
227 228 228 232 232 232 231 232 234 233 231 232 235 162 219 235 233 232 232 232 
231 232 231 233 233 233 232 232 233 234 234 232 231 230 230 229 
230 229 230 230 230 230 229 230 229 229 232 231 232 234 233 233 
234 234 235 235 234 233 234 233 234 232 233 230 232 231 230 230 
230 229 232 232 231 230 229 230 230 230 230 230 230 230 229 229 
230 229 229 228 228 230 229 231 183 211 232 228 228 229 228 226 
229 226 226 232 232 230 231 231 232 233 232 231 234 219 157 235 230 232 232 232 
233 233 232 230 232 231 232 233 234 232 232 232 234 232 230 230 
230 230 232 230 230 230 229 229 230 230 233 233 236 225 197 187 
195 190 170 184 201 203 221 224 231 234 233 233 231 230 230 231 
230 231 230 232 232 232 230 230 230 230 230 231 231 231 228 229 
230 228 230 234 232 232 226 224 174 233 227 229 229 227 229 229 
228 229 226 232 231 231 232 231 231 229 231 233 230 235 170 219 232 232 231 232 
232 232 231 232 231 231 231 232 233 234 233 233 231 231 230 230 
230 230 229 230 230 229 230 233 235 234 232 204 164 108 112 124 
134 140 136 140 141 128 119 109 107 162 198 234 236 231 230 230 
232 231 231 230 230 230 232 229 229 229 229 230 227 232 230 230 
228 227 230 229 226 225 228 179 206 229 230 228 228 230 230 227 
227 230 232 231 228 230 231 230 231 232 230 233 231 234 232 156 237 231 231 230 
232 231 233 230 231 232 231 232 231 230 232 233 233 231 229 230 
229 230 227 228 230 231 232 234 232 169 107 124 170 229 240 237 
237 237 238 238 238 239 238 229 203 166 131 110 214 236 230 229 
228 230 228 230 230 230 230 230 230 230 229 228 230 230 229 229 
229 230 228 228 226 227 221 172 233 228 228 229 232 229 228 229 
230 229 228 231 231 230 230 232 231 230 231 232 231 231 235 176 208 233 231 231 
230 232 232 233 232 230 231 231 232 232 231 233 231 231 229 229 
229 230 230 228 232 235 227 177 114 138 217 234 238 236 235 233 
234 234 235 235 234 234 234 234 236 237 237 192 102 185 233 230 
230 229 231 229 228 230 229 230 227 228 228 228 230 228 230 229 
228 228 226 226 225 227 189 220 229 228 230 228 229 227 227 228 
228 227 228 230 229 232 230 230 229 230 229 230 230 230 231 232 142 230 231 230 
232 231 231 229 231 231 231 230 231 232 231 232 231 232 232 230 
230 228 229 231 235 198 109 138 216 238 235 234 233 233 233 231 
232 232 231 232 231 231 231 232 233 233 233 237 223 125 186 233 
229 230 229 230 229 229 227 228 230 230 231 230 227 229 227 229 
229 229 225 226 228 197 187 230 228 229 229 227 228 227 229 228 
227 229 228 230 231 229 230 230 230 231 230 231 230 230 230 232 212 179 236 231 
231 231 231 231 231 231 231 231 230 231 231 232 232 231 231 231 
231 229 229 235 196 109 199 240 235 233 232 231 231 231 232 232 
230 231 229 230 230 230 230 230 229 230 232 233 237 225 126 220 
231 229 231 230 229 231 231 229 230 232 228 228 228 228 228 227 
227 227 228 222 225 171 227 229 228 228 228 228 228 230 229 229 
230 228 228 231 231 229 228 230 231 229 230 229 231 231 230 232 236 168 210 233 
228 230 230 231 230 231 231 230 230 230 230 231 232 230 229 230 
230 229 230 210 111 174 232 232 232 230 231 230 231 231 229 230 
230 230 231 230 231 230 231 232 231 229 231 231 231 238 204 140 
232 229 229 229 228 230 229 230 228 229 230 227 228 229 228 227 
224 225 226 228 182 205 230 228 228 228 227 228 229 228 227 227 
227 229 227 228 228 229 229 230 231 231 231 228 232 231 232 232 234 233 167 231 
232 230 230 230 229 230 230 230 230 230 230 231 232 228 229 230 
230 230 229 113 103 209 233 231 230 233 231 232 231 230 231 231 
232 231 231 230 230 231 233 232 232 232 231 230 229 231 238 160 
199 231 229 229 228 230 230 225 228 229 229 226 227 227 229 226 
224 224 231 203 181 232 225 226 228 228 228 228 227 228 227 228 
225 226 228 231 230 229 230 229 230 230 231 230 233 230 231 229 232 232 221 154 
233 232 228 228 229 228 228 230 231 229 230 229 230 228 230 229 
230 231 232 196 225 234 233 232 230 229 230 229 231 231 232 232 
232 230 231 231 231 231 230 232 231 231 231 230 228 230 232 206 
159 230 229 229 229 227 229 230 228 228 229 227 229 227 226 227 
224 227 217 159 227 227 225 225 224 225 226 229 226 228 228 227 
229 227 227 230 230 229 229 228 229 229 230 230 231 231 230 229 230 229 234 201 
165 233 232 230 229 230 230 229 230 229 229 229 230 231 230 229 
230 230 231 233 233 232 233 232 231 231 230 232 231 232 229 230 
231 231 230 229 231 232 230 230 231 230 230 230 230 230 230 233 
230 229 230 227 228 231 230 230 228 227 230 226 225 228 226 227 
229 208 147 223 226 225 226 226 228 231 227 227 227 226 227 226 
228 227 227 229 230 228 229 230 230 229 231 229 230 229 229 230 229 229 229 234 
190 162 233 231 229 229 228 230 229 230 229 228 229 230 230 228 
230 230 229 230 230 231 233 231 229 234 229 231 230 232 230 230 
230 231 230 230 230 228 229 231 230 229 229 232 229 231 228 229 
230 228 230 224 229 229 230 227 227 227 226 229 226 224 226 225 
220 147 216 229 226 226 226 227 224 225 227 227 227 227 226 225 
226 227 227 228 228 226 227 228 224 229 227 229 229 230 229 232 230 228 227 228 
236 174 192 232 230 228 229 228 228 228 228 229 228 229 226 229 
228 229 229 228 229 229 230 229 230 230 230 229 230 231 230 230 
229 231 230 228 232 231 229 228 229 229 230 230 229 227 228 227 
227 227 228 228 227 228 228 229 225 225 226 220 225 224 228 219 
152 212 232 225 224 223 226 224 227 227 224 225 226 226 227 228 
227 226 225 226 229 227 226 228 226 227 228 228 229 228 228 229 228 227 227 228 
231 232 180 182 231 230 229 228 228 229 230 229 229 229 227 230 
229 228 231 229 231 229 229 229 230 231 228 230 229 231 229 230 
229 229 229 230 230 229 229 230 229 229 229 232 231 229 227 228 
226 229 229 227 228 228 228 228 225 225 222 223 226 229 217 140 
211 230 225 224 225 226 224 225 226 226 227 226 226 224 225 225 
226 226 225 232 230 230 227 227 227 228 230 229 227 228 228 227 228 227 226 227 
225 229 234 182 180 233 231 227 225 226 228 228 226 226 228 229 
229 229 227 227 227 229 228 229 229 231 230 228 229 229 230 228 
229 230 231 228 231 229 227 225 230 231 230 229 229 229 228 227 
227 227 227 226 228 228 229 227 225 220 221 222 226 215 173 219 
229 225 223 225 225 225 226 223 223 226 225 228 226 224 225 227 
226 226 225 231 229 230 230 228 226 228 228 228 228 229 227 229 228 227 225 226 
225 227 229 233 204 164 231 232 229 228 225 225 224 226 226 228 
228 226 228 226 224 225 227 227 229 230 229 228 229 229 228 228 
229 229 230 232 227 228 230 230 229 227 227 228 230 230 226 228 
225 228 228 225 225 223 224 226 223 222 222 229 205 178 219 230 
225 223 222 223 223 222 222 222 222 223 224 224 224 225 224 226 
225 225 225 230 229 228 228 228 227 227 231 228 226 228 228 225 226 228 227 226 
224 224 224 228 231 209 142 212 233 231 228 225 227 226 226 224 
224 225 227 227 227 227 226 228 227 227 226 228 228 228 228 229 
230 228 231 228 227 227 226 227 230 228 227 229 229 227 230 226 
225 226 225 222 223 223 225 223 224 228 225 185 180 226 225 224 
221 225 223 224 224 225 223 221 222 223 224 223 223 223 224 223 
222 223 226 230 229 229 227 228 227 226 228 226 227 227 227 226 226 228 227 227 
224 226 225 225 225 228 219 144 174 227 232 226 224 223 224 224 
225 226 224 224 224 225 223 224 223 222 225 224 224 224 225 226 
224 227 227 227 227 227 226 226 228 230 227 227 228 227 222 225 
222 222 221 222 221 221 221 224 225 207 167 188 227 225 224 224 
224 222 222 222 222 222 223 223 225 223 223 225 224 223 223 223 
223 225 226 226 227 228 226 226 227 226 225 225 225 226 226 226 226 225 225 228 
225 225 223 224 224 224 229 226 177 132 200 231 229 227 224 224 
223 224 223 222 223 222 225 223 223 223 224 222 224 224 224 223 
224 225 225 226 223 224 223 223 223 223 221 222 220 222 221 222 
221 221 221 221 222 224 225 231 158 101 197 228 227 220 225 224 
223 224 223 223 224 222 222 223 223 223 223 222 223 223 223 223 
224 224 224 226 227 226 225 226 226 227 227 225 224 225 225 225 224 224 225 225 
224 222 224 224 225 223 224 227 231 215 130 164 227 228 228 226 
225 224 223 223 225 223 221 223 222 221 222 223 224 223 222 223 
222 224 223 222 222 221 221 222 221 222 220 220 221 220 221 220 
221 221 220 221 227 228 216 164 182 229 227 224 220 225 221 225 
222 222 222 222 222 223 223 223 221 223 222 223 223 223 224 223 
224 223 222 225 227 225 225 225 226 226 225 227 225 225 226 225 225 225 227 223 
224 224 224 224 222 222 222 223 226 230 229 180 126 184 224 231 
227 225 225 224 221 222 221 221 221 222 223 222 224 221 221 222 
222 221 223 222 220 221 221 222 221 221 220 221 223 221 221 220 
221 224 222 224 214 165 143 207 229 229 225 223 223 221 222 222 
223 223 223 222 223 223 222 223 222 222 223 223 223 223 223 222 
223 224 222 225 224 225 225 224 227 226 227 225 222 224 224 224 226 224 226 226 
224 224 225 227 222 222 221 223 223 224 224 227 224 172 124 165 
215 231 227 225 226 222 222 222 221 221 221 221 221 221 221 222 
221 222 222 223 220 222 222 222 220 223 221 221 220 220 225 223 
220 221 210 162 148 202 232 229 226 225 223 223 224 223 222 223 
222 223 222 224 223 223 223 222 221 224 223 222 224 223 223 223 
223 223 221 226 225 225 225 224 224 225 224 226 226 225 224 224 224 226 226 225 
225 224 222 222 224 223 224 225 224 223 222 223 225 228 226 184 
122 145 202 223 228 226 223 223 221 223 222 220 221 221 222 220 
222 222 220 222 222 221 222 222 222 222 225 224 223 224 228 214 
180 145 153 204 224 228 226 223 222 221 222 221 223 224 222 223 
223 224 223 223 224 221 223 223 224 222 222 224 222 223 225 224 
222 222 221 224 224 225 224 225 225 223 224 225 225 223 224 224 223 225 225 224 
226 224 226 223 221 222 223 222 221 222 224 220 223 224 229 234 
231 196 149 129 139 192 215 223 223 226 224 225 223 223 225 224 
222 224 225 225 224 225 222 221 223 223 226 221 210 169 153 160 
192 226 226 228 226 225 227 224 223 222 222 221 222 222 223 222 
221 221 222 222 223 224 222 222 222 221 224 223 224 222 219 223 
221 222 223 224 224 223 224 224 224 225 224 224 223 224 223 225 226 224 223 223 
222 223 223 222 223 222 222 222 222 221 220 221 220 221 220 222 
224 228 232 232 200 163 141 106 145 169 185 207 215 227 226 226 
221 223 226 223 222 220 216 211 190 155 137 144 157 188 213 224 
227 226 225 223 220 223 224 223 221 222 221 222 222 222 223 224 
224 223 223 224 223 222 223 224 223 221 224 224 224 224 226 223 
222 220 222 225 223 224 225 223 223 224 224 223 222 224 224 223 223 224 224 224 
222 221 223 223 221 222 222 221 222 222 222 222 222 221 223 222 
222 224 224 227 229 224 222 204 161 134 114 97 91 102 109 124 
147 135 130 102 97 121 139 147 175 204 216 225 226 224 224 223 
224 222 222 221 220 219 222 221 221 221 225 223 223 222 222 222 
222 222 223 222 222 223 222 221 222 222 222 221 222 223 223 222 
222 222 222 224 223 224 222 222 224 225 223 223 226 223 222 223 224 224 223 222 
223 223 223 222 223 223 221 221 221 221 223 223 221 222 220 221 
221 222 222 221 221 222 222 222 229 228 228 226 224 212 202 198 
191 188 184 194 211 219 223 222 228 227 228 227 226 227 222 222 
220 221 220 219 219 223 223 222 223 223 221 223 223 223 222 222 
222 223 221 221 222 222 222 223 223 224 224 223 223 224 222 224 
222 223 225 223 223 224 224 221 224 221 222 224 225 222 222 222 223 223 224 224 
225 223 222 221 222 222 222 222 223 223 221 221 222 223 221 222 
221 222 223 222 222 222 221 221 223 225 224 223 224 224 225 227 
227 229 227 227 227 220 223 225 223 223 224 223 222 223 223 224 
220 220 222 221 220 218 221 221 220 222 223 223 223 223 224 222 
222 222 222 223 222 221 223 223 223 222 223 224 223 223 224 224 
223 221 223 223 222 222 222 222 223 224 223 221 218 224 223 224 224 226 223 223 
223 222 222 222 223 223 221 221 221 220 221 221 222 223 221 222 
221 222 222 220 220 220 222 220 221 219 219 218 220 221 222 222 
223 224 222 221 222 223 222 221 221 222 223 224 224 222 221 220 
222 222 221 221 222 221 222 222 223 222 222 222 219 220 224 225 
223 225 226 222 224 223 222 223 222 222 222 222 222 223 223 224 
225 223 225 221 223 221 222 220 221 221 222 224 223 222 222 222 219 219 222 221 
221 222 222 221 219 222 223 222 220 220 221 220 222 220 221 221 
220 221 224 224 222 222 224 223 223 222 221 221 220 221 222 221 
220 219 220 219 220 220 219 224 222 219 220 221 224 222 223 223 
221 221 221 222 221 220 219 217 218 220 221 221 223 221 222 222 
224 218 220 221 220 223 223 223 223 221 222 222 221 221 223 224 
225 222 222 229 231 227 227 227 229 227 228 225 225 229 226 224 225 225 226 227 
224 224 226 228 222 221 222 229 227 226 226 229 228 231 231 231 
230 228 230 230 232 230 234 234 232 230 228 231 230 229 229 227 
228 228 226 220 222 223 225 223 226 225 224 227 228 223 227 227 
230 230 228 223 224 224 227 222 222 224 223 228 228 230 228 224 
227 226 225 226 226 226 226 226 223 226 226 229 225 224 226 223 
226 224 227 246 248 247 246 243 242 243 242 242 242 245 243 245 246 245 246 246 
248 248 247 246 243 245 242 246 247 247 244 249 248 249 249 247 
247 246 249 248 248 245 248 248 249 248 248 246 245 247 244 243 
245 247 247 248 248 243 241 244 245 243 244 247 243 242 244 245 
244 245 246 246 242 243 241 243 243 243 243 243 241 241 239 241 
239 241 241 242 241 240 238 238 234 237 237 241 241 242 239 237 
239 238 236 