P2
# Created by IrfanView
100 100
255
220 220 223 223 221 223 221 219 220 221 219 220 220 220 220 221 220 
219 220 219 219 219 218 220 220 221 220 220 220 220 221 220 218 
220 220 217 220 218 215 219 219 217 218 220 220 221 220 221 222 
221 222 221 221 221 221 221 220 220 222 222 222 222 222 223 222 
222 221 221 222 223 222 222 220 222 223 221 221 221 221 221 221 
223 221 222 224 222 221 222 221 221 220 220 222 221 220 219 220 
219 221 221 222 221 222 221 222 220 221 221 219 221 220 221 221 221 220 219 220 
222 222 222 220 220 220 220 220 220 219 221 220 221 218 220 219 
218 219 219 218 220 218 219 220 220 220 221 220 221 220 219 220 
219 220 221 221 222 222 221 220 222 222 222 223 223 223 223 222 
221 223 221 221 221 222 223 223 222 220 221 223 222 222 222 223 
222 222 221 221 220 221 222 223 222 221 222 221 221 220 221 222 
221 221 221 222 223 221 223 221 224 221 223 222 222 223 223 221 221 223 221 221 
220 221 223 222 222 220 222 222 222 222 222 223 220 222 220 220 
220 220 219 219 218 224 220 220 219 219 220 221 221 221 222 222 
222 221 220 221 222 221 225 225 222 222 222 224 222 223 222 223 
221 222 223 221 220 222 224 223 224 223 222 223 222 223 223 224 
224 223 223 219 221 221 221 222 222 221 220 222 220 220 220 221 
221 220 220 224 222 225 223 224 223 222 223 225 224 222 221 222 223 224 226 224 
222 222 222 220 222 223 222 221 222 222 222 222 221 221 222 221 
220 221 223 220 220 219 220 220 221 221 220 221 221 220 218 219 
221 222 224 222 222 221 221 221 224 224 223 223 223 222 222 223 
224 222 222 225 223 224 223 222 221 223 224 226 220 222 222 222 
224 220 225 224 222 222 222 222 221 221 221 223 222 221 221 220 
220 219 220 226 223 224 224 222 225 224 225 224 222 222 222 222 223 223 221 222 
223 224 224 222 220 222 221 223 225 226 223 222 221 221 221 221 
221 222 223 224 222 221 220 219 220 222 220 222 220 223 222 222 
222 222 223 224 223 221 223 225 223 223 222 223 221 226 223 224 
222 222 223 223 222 223 223 225 222 225 227 226 227 225 222 224 
222 225 226 223 223 222 223 223 222 223 224 222 224 223 223 224 
223 223 223 224 225 223 224 223 224 226 224 224 224 225 226 225 225 224 223 223 
222 223 223 222 223 222 224 225 224 224 222 223 223 223 224 225 
229 223 223 222 223 223 222 222 222 222 221 225 223 222 222 223 
224 223 224 226 224 223 223 222 228 228 224 225 225 223 223 223 
223 224 224 223 223 224 223 225 225 224 223 226 223 223 222 224 
226 224 226 224 224 225 224 224 222 223 227 224 223 222 224 222 
221 223 223 226 226 227 225 228 225 226 225 224 224 225 223 225 223 224 224 226 
225 222 224 224 225 225 223 224 224 224 225 225 225 226 224 226 
225 224 222 223 223 222 223 224 223 225 225 220 220 223 223 223 
213 222 218 218 228 223 223 223 226 223 223 225 228 226 226 225 
224 224 226 228 225 225 224 224 224 226 228 224 224 224 222 225 
224 223 227 227 225 224 224 224 223 221 224 224 223 221 222 221 
224 222 223 230 230 227 229 225 226 225 226 226 226 226 226 224 227 225 227 225 
225 226 226 225 223 225 225 225 226 227 227 224 220 227 224 223 
224 225 223 221 222 224 226 227 227 222 215 204 183 167 141 135 
109 108 101 114 126 129 130 159 169 193 211 225 221 223 226 225 
228 226 224 223 225 224 224 226 227 226 225 225 226 227 229 228 
226 227 226 225 225 224 226 232 225 224 224 223 223 225 225 223 
224 223 223 230 230 228 226 229 226 227 230 229 227 226 229 228 226 228 227 229 
228 226 225 227 225 226 225 226 225 225 228 227 224 225 228 227 
224 223 224 225 222 220 201 152 144 132 119 115 145 140 148 164 
181 179 196 179 176 166 163 155 135 116 112 126 156 178 214 225 
228 229 229 228 227 226 227 226 226 226 226 229 227 226 228 230 
226 226 224 223 225 230 227 226 226 225 225 223 226 225 226 227 
223 223 224 231 231 228 230 229 230 229 230 229 228 227 226 227 228 228 228 228 
228 228 228 227 231 225 230 230 230 227 223 228 226 226 227 226 
226 227 226 220 189 137 118 132 183 188 210 228 238 236 234 235 
236 235 235 234 235 233 235 233 236 230 206 161 147 131 132 160 
190 222 225 231 229 228 228 226 226 227 227 225 225 226 227 226 
227 228 227 229 229 229 229 229 226 224 224 226 225 223 224 224 
225 225 226 231 230 229 228 230 229 229 229 228 227 229 227 229 229 228 228 228 
227 227 229 230 230 227 229 229 229 230 230 231 228 227 228 226 
224 222 190 150 128 184 223 229 233 232 232 232 231 231 231 229 
230 232 230 231 232 232 231 230 229 232 236 231 234 233 210 161 
134 134 178 213 229 230 229 229 229 229 229 227 228 228 228 229 
230 230 229 228 228 227 228 230 229 226 226 226 226 227 224 224 
225 226 225 230 231 231 232 227 229 228 229 230 229 229 231 229 228 229 230 230 
231 230 229 232 231 229 229 229 231 230 226 227 227 226 222 224 
207 128 117 199 233 234 232 232 231 231 229 230 230 230 231 230 
229 230 230 229 231 228 229 229 228 228 228 231 228 230 234 232 
229 201 149 117 159 219 228 229 232 228 227 228 228 230 229 228 
227 227 227 230 230 229 229 228 228 227 227 226 225 228 227 227 
225 226 225 233 230 232 233 232 230 230 232 233 230 230 228 231 231 229 230 229 
229 231 230 231 231 231 231 229 229 230 226 226 223 216 191 141 
169 217 235 235 233 232 231 231 229 229 232 231 232 229 231 230 
231 230 232 229 229 228 229 228 229 229 229 231 230 232 232 229 
231 233 235 216 165 126 185 224 230 227 229 229 229 230 231 230 
230 230 231 230 230 230 228 228 229 227 227 226 226 227 225 226 
224 225 227 232 232 231 231 231 232 232 231 231 233 232 229 229 231 232 230 230 
231 229 232 231 233 228 230 228 228 227 224 222 197 146 184 230 
239 236 236 231 231 230 231 232 231 231 230 231 230 230 232 231 
232 231 231 232 232 231 230 230 231 230 230 232 231 231 231 228 
227 230 231 229 234 204 136 127 182 232 233 229 232 229 229 230 
230 230 230 231 228 228 229 230 228 230 227 227 229 226 226 227 
229 227 226 232 232 232 232 232 233 233 230 232 233 233 233 230 230 231 231 231 
230 232 230 230 230 233 232 229 225 225 228 178 154 230 238 238 
234 233 231 231 232 232 231 233 229 232 232 231 232 230 231 232 
231 231 232 232 232 230 232 229 230 231 231 230 233 231 230 231 
229 229 229 229 230 231 235 196 148 148 216 233 232 230 231 231 
231 230 232 233 231 230 230 231 230 228 232 230 230 229 229 229 
225 229 228 233 233 233 232 232 230 229 233 233 232 232 230 232 230 230 230 229 
231 230 231 231 231 229 230 234 231 209 159 216 235 233 230 232 
232 231 233 231 232 232 231 232 233 231 234 233 232 232 231 230 
232 231 232 233 232 232 231 231 231 230 231 232 232 231 233 231 
229 229 229 228 230 228 230 236 227 166 137 199 234 234 232 231 
231 231 231 232 231 230 230 230 231 229 230 230 228 229 228 227 
228 227 229 233 233 233 233 232 233 233 230 231 233 234 229 233 231 231 232 231 
233 230 231 232 231 233 235 236 183 184 231 236 234 233 233 232 
232 233 233 231 229 231 232 232 234 232 233 231 232 232 231 234 
232 232 233 233 231 231 232 232 231 234 232 232 232 231 230 231 
230 232 231 230 231 230 229 232 232 235 217 136 167 228 236 231 
232 232 230 232 231 232 231 231 230 230 230 230 231 229 227 231 
229 229 229 233 233 232 233 231 232 234 234 233 232 233 234 233 231 232 232 232 
232 233 231 231 231 234 226 160 209 235 235 233 233 235 234 235 
232 233 231 231 232 231 230 232 232 232 232 230 231 229 230 231 
233 233 233 233 232 233 233 232 232 234 231 233 230 233 232 232 
233 232 231 231 231 230 229 229 229 232 236 233 165 153 232 236 
233 233 232 232 232 232 231 231 230 231 229 230 230 231 230 230 
230 229 227 232 234 233 234 233 232 233 233 233 232 233 232 233 234 230 232 231 
231 232 230 231 235 214 161 231 237 234 234 232 233 232 233 231 
232 232 233 231 232 232 230 228 231 231 231 231 231 231 230 232 
233 232 231 233 234 233 232 233 231 231 232 232 233 232 231 232 
230 230 231 233 231 231 229 229 229 230 231 231 231 187 157 227 
233 232 231 232 231 232 230 231 231 231 231 231 230 231 230 229 
231 231 230 233 233 234 234 233 234 234 233 233 233 232 234 233 233 234 235 231 
233 232 232 236 210 160 236 236 233 233 233 233 233 232 233 233 
231 231 231 231 232 232 231 230 231 233 232 233 233 231 231 231 
231 232 234 233 232 231 232 231 233 233 233 232 232 231 232 233 
233 233 233 231 231 231 230 230 231 230 230 232 233 237 194 137 
211 234 233 231 231 230 231 232 233 230 230 230 231 228 230 232 
230 229 230 234 233 235 234 233 234 233 233 233 233 233 232 232 231 234 234 233 
232 233 239 204 182 238 238 233 235 234 233 233 233 234 234 233 
232 232 232 230 231 231 228 229 231 231 233 232 232 232 232 233 
232 232 233 232 232 233 232 233 233 233 232 236 234 233 231 232 
233 233 232 232 232 232 231 232 231 231 229 230 233 232 235 203 
139 222 233 232 233 231 231 232 232 232 231 231 232 231 230 230 
232 231 231 233 235 234 233 234 235 234 234 233 232 233 233 233 233 231 232 232 
233 236 215 180 238 236 233 235 233 234 234 235 235 234 234 233 
236 231 232 232 232 232 232 231 231 231 232 232 232 231 232 234 
232 231 233 235 233 233 234 233 234 234 233 231 233 234 235 235 
234 234 234 232 233 232 232 231 231 231 232 232 232 231 234 236 
197 138 223 233 232 231 232 233 234 232 230 230 231 231 232 231 
232 232 231 236 233 233 234 235 233 234 233 235 234 233 234 232 234 233 232 236 
236 217 174 237 235 234 234 236 234 234 234 234 234 233 234 236 
234 233 233 233 233 231 232 233 232 234 231 233 232 230 232 233 
230 232 234 233 234 234 234 232 234 233 234 233 233 233 233 234 
232 233 233 233 231 232 232 232 231 232 233 232 232 232 230 233 
236 177 149 234 234 232 229 233 232 232 233 232 232 230 233 231 
232 232 230 234 235 235 234 234 237 237 235 234 235 235 235 234 234 233 235 236 
222 156 239 238 235 234 237 233 235 235 234 235 234 235 235 236 
235 234 233 232 234 232 233 233 233 234 235 234 234 233 232 233 
231 233 233 234 234 234 235 234 235 234 233 233 234 234 234 234 
233 234 233 232 232 232 232 232 232 234 231 234 232 231 232 232 
232 234 147 169 230 232 232 233 230 232 232 233 231 231 232 231 
232 232 233 234 235 234 235 235 235 236 236 235 234 234 235 235 236 232 237 234 
157 235 236 235 234 234 233 236 234 236 236 237 237 235 235 235 
234 234 234 234 234 236 234 235 233 234 233 232 233 233 233 234 
233 235 234 234 234 234 235 236 237 235 233 234 235 233 234 233 
234 235 235 232 233 234 234 233 234 233 234 233 234 233 235 233 
231 233 223 135 196 234 234 236 232 231 233 231 231 232 232 231 
235 231 232 235 235 235 235 235 232 237 234 234 235 234 235 233 234 235 241 174 
225 238 235 235 236 234 235 235 235 235 237 239 236 236 235 235 
235 234 235 235 235 234 234 234 235 235 233 235 235 235 234 235 
234 232 234 236 235 235 235 234 235 235 237 235 234 234 234 238 
236 233 234 234 234 233 233 233 233 233 234 232 234 233 233 233 
233 232 234 211 133 220 234 231 231 233 232 232 233 234 232 233 
232 231 232 236 235 235 234 235 236 234 237 236 235 236 236 236 236 238 190 210 
240 236 235 236 236 235 236 236 236 236 236 235 235 237 236 238 
239 239 237 238 235 236 235 235 235 235 234 234 234 235 235 236 
235 236 233 235 236 235 235 236 235 235 235 236 235 236 234 234 
234 234 233 235 233 233 234 233 234 234 235 235 233 233 232 233 
232 232 233 236 186 158 231 231 233 232 233 234 232 233 234 231 
232 232 232 236 236 235 237 235 235 236 237 236 236 235 235 236 236 225 185 241 
237 237 237 237 236 237 234 235 235 236 235 236 237 235 236 237 
222 203 173 194 239 235 235 235 234 235 235 234 235 235 236 237 
236 236 234 234 234 236 237 235 237 235 235 236 235 234 236 235 
234 232 234 235 236 235 235 234 234 234 233 233 234 233 234 234 
232 232 232 234 235 155 178 233 233 233 234 232 232 233 234 234 
233 233 233 235 237 234 234 236 237 237 237 236 236 235 235 236 236 164 236 237 
235 234 237 237 237 237 235 236 235 234 235 235 235 237 240 187 
117 72 135 153 216 237 235 236 235 237 237 236 234 235 235 236 
236 235 234 235 235 236 236 235 235 237 236 236 236 236 238 236 
234 235 235 227 229 236 238 234 234 234 233 233 234 233 234 234 
235 233 234 234 236 221 141 227 232 233 232 233 233 233 232 233 
234 233 234 236 235 236 236 235 235 236 236 236 238 235 233 238 188 215 240 238 
237 238 236 236 238 237 237 237 236 235 236 236 237 238 217 103 
110 135 114 116 191 238 234 236 235 236 235 236 235 236 236 236 
236 236 237 236 235 236 237 237 237 236 236 236 237 237 236 236 
234 232 191 123 137 159 220 236 236 235 234 234 234 232 234 235 
235 234 234 233 234 237 177 209 237 234 235 232 233 232 233 234 
234 234 235 238 237 237 235 237 236 236 236 233 238 236 233 236 189 243 236 237 
236 235 237 240 236 237 236 236 238 236 236 236 236 237 119 94 
130 146 97 109 197 239 236 235 235 236 237 237 238 236 236 235 
238 236 238 236 236 238 237 236 235 235 237 236 237 238 237 234 
232 217 159 151 111 109 146 237 236 235 237 235 235 234 234 236 
235 236 233 234 234 233 219 174 233 234 233 232 235 235 235 233 
233 232 234 237 238 238 236 235 237 235 236 237 237 235 236 189 230 238 237 237 
238 239 237 238 236 238 237 236 236 234 235 236 239 211 90 143 
118 138 99 108 212 237 237 238 237 237 236 237 236 237 237 237 
237 237 236 236 237 238 236 236 236 236 238 236 236 237 238 235 
235 191 158 134 106 132 124 228 235 234 235 236 235 235 236 234 
234 235 235 234 234 234 239 178 225 235 235 233 234 233 233 233 
233 233 235 234 238 236 236 238 235 236 236 235 236 236 233 184 240 237 238 239 
236 238 237 237 238 237 236 236 238 236 237 238 235 153 116 149 
117 128 103 108 216 238 238 236 237 237 236 236 238 237 238 238 
237 237 237 238 238 238 237 237 239 239 237 237 236 236 236 236 
230 166 192 119 104 170 138 222 237 236 235 234 235 234 235 236 
234 237 236 237 235 235 234 221 174 237 233 234 234 235 235 237 
235 235 235 239 238 237 237 237 237 236 236 233 234 240 192 230 239 238 238 238 
239 239 238 238 237 238 238 236 237 236 237 238 196 138 113 146 
154 99 105 121 238 238 238 237 237 237 237 238 238 237 237 236 
238 238 239 237 237 237 238 237 236 236 236 237 237 237 237 233 
212 156 124 114 139 154 143 231 235 236 236 236 234 236 237 235 
236 237 236 235 234 235 234 236 181 229 237 234 234 233 235 234 
235 235 234 237 238 238 235 236 240 237 235 234 232 234 191 239 239 238 238 239 
239 240 239 238 237 237 238 236 236 237 237 237 209 104 124 132 
143 72 107 166 240 236 238 237 238 238 238 238 238 237 238 238 
237 237 238 237 238 238 238 237 237 236 236 237 237 237 237 234 
212 165 118 113 113 132 164 237 237 235 236 237 236 235 236 237 
237 237 235 236 238 234 235 234 207 188 238 237 235 236 233 233 
235 234 232 237 239 239 239 237 238 237 234 235 237 207 225 239 237 237 237 238 
238 239 237 238 240 239 236 239 239 239 238 239 235 126 109 164 
83 76 96 214 239 239 238 238 238 239 238 238 236 238 238 237 
238 238 239 238 239 238 238 238 237 236 239 238 237 237 238 234 
206 177 113 90 120 117 188 235 236 235 236 233 236 236 237 236 
235 236 236 237 236 237 237 235 240 165 226 237 236 234 235 236 
235 235 235 237 238 239 238 236 240 236 234 236 238 178 242 239 238 237 238 240 
240 239 239 239 238 239 239 237 236 239 238 239 241 236 93 126 
72 80 128 240 240 238 239 239 237 238 239 239 240 239 238 239 
238 239 238 239 240 238 240 239 238 238 239 235 236 236 239 236 
217 154 69 97 132 138 212 237 235 238 236 238 237 236 236 237 
236 237 236 237 235 235 237 237 237 191 208 236 236 235 234 235 
235 235 233 237 240 240 238 236 236 238 234 234 222 201 240 239 240 240 238 239 
239 239 239 239 239 238 238 240 240 238 240 240 239 238 87 95 
71 85 193 242 238 239 238 238 238 240 241 240 239 240 238 239 
240 240 239 238 238 238 237 241 238 238 238 239 239 237 238 238 
215 126 77 67 107 152 232 236 236 236 237 235 237 236 236 237 
236 236 237 235 237 239 236 236 237 231 171 238 238 239 239 237 
236 235 235 239 238 239 239 238 239 238 239 237 204 231 241 240 239 238 239 239 
240 240 239 239 239 239 239 238 238 239 239 240 240 244 157 70 
72 167 244 238 238 240 239 240 239 240 240 238 238 241 239 239 
239 238 240 239 239 240 240 240 240 240 238 239 240 239 238 238 
227 123 91 97 119 218 237 236 237 237 237 238 238 238 238 237 
237 237 237 237 238 235 236 237 237 238 187 233 238 237 237 236 
236 236 236 238 238 239 238 240 239 238 238 242 176 242 239 238 237 238 238 239 
240 239 241 239 240 240 241 240 240 240 240 239 239 238 241 161 
161 237 241 240 239 240 237 239 239 237 239 241 242 239 240 240 
240 239 239 241 241 240 241 240 238 240 240 241 241 241 240 238 
238 200 156 108 157 234 236 238 239 238 238 237 238 236 237 237 
237 235 236 235 238 237 236 237 238 235 188 230 239 236 237 238 
236 235 235 240 240 238 239 239 239 238 238 231 189 242 240 240 241 240 240 240 
240 239 238 240 240 241 241 240 240 240 240 240 240 241 244 246 
244 242 241 240 241 241 243 240 241 241 239 242 240 241 239 241 
239 241 240 238 239 240 240 239 241 239 240 240 240 240 240 240 
242 244 243 206 225 241 237 237 236 238 239 238 238 239 239 237 
237 237 238 239 235 239 239 238 239 235 217 200 240 239 239 235 
236 234 235 239 236 237 239 239 238 239 241 197 223 240 239 240 240 239 240 240 
240 240 240 241 241 240 239 240 239 242 241 241 241 239 240 242 
242 241 240 240 238 239 239 240 240 241 242 241 240 240 239 240 
240 240 240 241 239 241 241 241 240 240 240 241 241 240 240 240 
240 241 241 243 242 238 239 239 239 238 237 238 237 239 240 240 
238 237 238 237 237 238 238 237 237 236 236 188 239 236 237 237 
238 237 237 239 240 240 239 239 238 240 240 140 242 242 242 239 241 241 241 241 
241 241 241 241 242 240 241 242 241 240 240 241 241 241 241 241 
241 241 241 241 242 240 242 242 241 240 240 240 241 241 241 240 
240 239 241 240 241 240 241 241 241 241 241 241 241 240 240 240 
239 239 240 240 236 240 240 239 239 240 240 240 239 239 238 239 
239 238 237 238 239 239 238 237 238 238 238 181 237 238 238 238 
237 237 237 239 238 239 239 239 237 238 223 112 245 241 240 240 240 241 239 241 
241 241 241 241 240 241 242 241 241 241 241 242 241 242 241 240 
240 241 240 240 241 242 240 240 241 241 239 241 241 241 240 241 
241 241 240 240 240 241 241 241 241 241 239 240 242 238 240 240 
240 240 239 240 241 239 242 243 238 240 240 238 238 240 237 239 
239 239 239 240 239 239 239 238 238 238 237 190 230 238 238 237 
238 239 239 240 239 239 239 239 238 238 213 138 243 240 240 241 240 240 241 241 
241 241 241 241 241 239 241 241 241 242 242 241 241 242 241 242 
241 240 241 239 240 241 241 243 240 241 240 241 241 241 241 242 
243 241 242 241 242 241 241 241 241 241 240 241 240 241 241 240 
240 241 241 239 239 239 238 239 240 239 239 239 241 239 241 238 
239 238 239 239 239 239 239 239 238 240 238 204 211 239 240 239 
237 238 240 240 239 239 238 239 238 236 203 224 242 241 241 242 242 241 241 240 
240 242 241 242 242 241 239 239 241 240 240 242 239 243 243 241 
242 242 241 242 242 241 242 241 241 241 242 241 240 241 241 241 
241 241 242 243 241 241 242 241 241 240 241 240 241 241 241 241 
240 241 241 240 240 240 239 241 241 239 238 239 239 239 240 240 
239 239 240 239 239 240 238 238 240 239 237 218 205 240 240 239 
239 240 240 240 238 238 239 240 240 239 192 232 241 240 241 242 241 241 240 242 
241 240 240 241 241 241 241 243 241 242 242 242 242 241 243 242 
242 242 241 240 241 242 241 241 241 242 242 241 242 243 241 241 
241 242 241 241 242 242 242 242 241 241 241 242 241 240 240 241 
241 240 240 241 240 240 240 240 240 240 240 240 240 240 239 240 
239 240 238 240 240 240 240 239 240 240 240 228 191 242 240 239 
241 239 239 240 239 240 240 238 238 240 185 235 242 243 242 241 241 241 242 241 
242 241 242 241 242 241 242 241 242 242 242 242 242 242 242 242 
242 243 241 243 241 241 241 241 242 242 241 241 244 240 242 241 
241 241 241 242 241 241 242 242 242 242 242 241 241 241 241 239 
241 239 241 241 241 240 242 241 241 240 240 240 240 240 240 240 
240 240 240 239 239 240 240 240 241 237 240 233 198 240 240 240 
240 241 240 242 241 240 240 241 240 238 185 239 243 242 242 241 241 243 243 241 
240 242 242 242 241 240 241 241 242 242 242 241 242 242 242 241 
242 243 242 242 242 243 242 241 242 241 242 243 241 241 241 240 
242 242 243 242 242 242 244 242 242 240 243 241 242 242 243 242 
242 242 242 242 241 242 241 241 241 240 239 240 239 240 241 240 
241 240 239 240 240 241 240 238 239 239 239 236 187 241 240 240 
241 241 241 239 238 240 239 239 238 239 181 235 243 241 243 244 245 241 241 241 
242 242 243 241 243 243 243 242 242 241 241 240 240 243 242 242 
241 241 241 242 242 242 243 242 242 244 242 242 242 243 244 243 
241 242 239 244 242 243 242 241 242 243 242 242 243 242 243 242 
242 242 241 240 241 241 241 242 241 241 240 241 241 240 240 240 
240 240 240 240 240 242 239 241 240 241 240 241 194 241 239 240 
240 240 239 241 240 240 241 243 240 240 178 233 243 242 242 242 242 243 243 241 
242 241 241 242 242 241 243 241 242 242 242 244 242 242 242 242 
242 242 242 242 242 242 242 243 241 243 243 243 243 243 243 243 
241 241 242 241 240 241 242 243 241 242 243 241 241 240 242 241 
242 241 241 241 241 241 242 243 242 241 240 240 240 243 240 242 
242 241 240 240 240 241 240 239 240 241 238 240 180 235 240 239 
240 241 241 240 240 241 239 241 241 241 200 222 243 243 243 242 242 241 241 242 
242 242 241 243 242 241 241 243 241 243 242 241 242 242 241 243 
242 242 243 242 242 242 241 242 244 242 242 242 243 243 242 243 
243 244 242 241 242 243 242 243 244 242 242 244 244 243 242 241 
242 241 241 242 242 242 241 240 241 241 242 241 240 242 242 242 
238 241 241 240 241 241 240 240 240 239 238 240 202 238 241 240 
241 240 241 241 240 240 241 241 240 241 196 219 244 242 243 242 242 242 243 242 
242 242 242 242 242 243 242 242 243 241 242 243 242 242 243 242 
242 242 242 243 243 243 244 243 242 242 243 243 243 243 243 243 
243 243 244 243 244 243 243 245 242 243 243 243 242 242 243 242 
241 242 243 242 242 241 242 242 243 242 244 240 242 242 241 240 
242 242 242 241 241 240 240 238 239 240 240 240 184 235 242 242 
240 238 241 240 241 241 239 240 240 241 207 214 244 242 242 241 243 243 243 242 
241 243 243 242 242 241 242 242 242 241 242 243 241 241 243 242 
243 243 243 243 243 242 242 242 242 245 242 244 245 243 243 244 
243 242 244 243 243 243 243 243 243 243 243 243 243 243 243 242 
242 242 243 242 243 242 242 242 242 242 243 242 241 241 241 241 
242 242 242 242 242 242 240 241 241 241 239 238 182 239 240 239 
240 243 241 241 241 241 241 241 241 242 215 216 244 243 243 242 243 243 242 242 
243 242 243 242 243 243 242 240 242 243 243 243 243 243 242 241 
242 242 242 242 242 242 242 242 243 244 243 243 242 243 243 243 
243 242 242 242 243 243 242 244 244 243 245 243 242 243 243 242 
242 243 242 242 242 242 242 241 245 242 242 242 243 242 241 240 
242 242 241 242 243 242 241 242 242 242 240 239 192 241 242 241 
241 240 242 242 242 243 241 241 242 243 225 190 245 242 242 241 243 242 243 243 
243 241 241 242 242 243 243 244 243 243 244 243 244 242 242 242 
243 243 242 243 242 241 242 242 243 242 242 243 244 242 244 245 
243 243 244 245 243 243 243 243 243 242 241 243 242 243 242 243 
243 242 243 242 243 242 244 242 242 242 242 242 242 244 242 242 
241 241 242 243 242 242 241 241 240 243 241 238 179 239 241 240 
241 243 240 242 242 242 242 243 242 243 244 183 246 244 245 244 243 243 244 243 
242 244 245 243 244 244 244 243 243 243 242 243 243 243 242 242 
242 241 241 242 242 242 243 243 244 243 243 242 244 244 244 244 
244 243 245 244 244 243 245 244 244 243 243 243 243 244 243 243 
242 244 243 242 244 243 243 244 244 243 242 243 242 243 244 241 
244 241 242 241 243 242 242 243 242 242 242 228 187 243 242 241 
241 240 242 243 242 242 242 242 241 241 248 180 245 242 243 244 244 245 243 244 
244 243 242 243 243 243 243 243 244 243 244 244 244 243 242 243 
242 242 243 243 243 242 242 241 241 244 243 243 245 244 244 244 
243 244 244 244 244 244 244 246 243 244 244 244 243 243 243 243 
243 242 242 244 244 242 243 243 243 243 241 242 243 243 243 246 
243 242 242 243 243 241 241 242 246 243 241 221 191 245 242 242 
240 241 240 242 243 243 244 243 243 244 247 184 237 246 243 243 243 244 244 244 
244 243 243 243 244 245 244 243 244 244 243 244 244 243 241 241 
242 243 243 242 241 243 242 241 243 243 244 244 244 244 245 244 
244 244 243 242 244 244 244 246 245 245 244 243 244 243 243 243 
243 243 243 243 243 244 243 243 243 243 243 243 243 241 241 242 
241 242 243 243 243 241 242 242 243 240 241 226 196 244 242 242 
242 242 241 245 246 244 244 243 242 243 246 212 216 244 243 244 243 243 243 243 
243 244 245 244 244 243 244 244 243 244 245 245 244 243 240 242 
242 241 241 241 242 242 243 241 241 243 242 243 243 244 245 244 
244 242 245 244 243 244 244 244 246 245 245 244 243 243 243 244 
244 244 243 243 243 244 245 244 244 243 245 243 243 243 244 243 
244 243 242 241 243 242 243 242 242 242 242 213 207 242 243 242 
241 243 242 245 243 243 244 242 243 243 242 232 191 248 245 243 243 245 244 243 
244 244 244 244 244 244 246 244 245 243 243 245 244 245 244 242 
242 242 243 242 241 242 241 242 244 243 245 244 244 244 242 244 
244 244 245 245 244 244 244 244 245 246 245 244 245 243 243 242 
243 243 243 244 244 244 244 243 243 244 244 245 244 244 243 241 
242 243 242 243 243 242 242 241 243 242 244 182 238 242 242 241 
242 242 242 246 245 244 244 243 243 242 244 245 169 248 246 244 245 245 244 246 
245 245 245 245 246 244 244 244 245 246 246 245 244 244 243 243 
242 243 242 243 244 242 243 242 244 243 243 243 244 244 245 244 
243 244 244 244 244 244 244 244 245 245 244 245 244 244 245 245 
243 244 243 244 244 243 244 244 244 244 244 243 244 243 244 244 
243 244 243 244 243 243 242 242 244 244 226 164 246 242 242 242 
242 242 243 245 245 245 243 243 245 244 243 248 193 233 246 245 245 244 244 245 
244 244 245 244 245 245 245 245 244 243 245 245 244 243 244 242 
243 244 243 243 243 244 244 243 244 244 244 245 245 244 244 244 
244 244 245 245 244 244 245 246 246 245 246 246 245 244 245 245 
244 244 243 244 244 244 244 243 244 244 245 244 245 244 244 244 
244 243 244 243 243 243 244 243 243 235 178 233 245 244 243 243 
242 242 242 245 245 243 244 243 243 243 244 244 215 212 247 244 245 245 245 244 
244 245 245 244 245 245 244 244 245 245 245 244 243 245 244 245 
244 245 242 243 243 242 242 241 243 242 244 242 243 245 245 245 
245 244 245 245 246 246 245 249 247 246 248 248 245 244 243 244 
244 244 244 244 244 244 244 244 244 244 244 243 244 243 242 244 
244 243 243 244 244 244 245 243 242 227 203 242 242 244 243 243 
243 243 243 246 244 245 244 244 244 244 244 244 235 179 247 244 245 245 245 246 
246 246 245 246 245 246 246 245 245 245 246 246 245 245 245 244 
244 243 243 241 242 243 242 243 244 245 245 244 244 247 248 245 
244 246 247 245 241 222 225 215 229 243 244 249 249 249 248 245 
244 244 244 244 243 244 244 243 243 244 245 243 244 244 243 243 
244 245 243 243 243 244 244 244 245 200 206 242 243 244 242 241 
242 243 243 247 245 244 245 245 245 245 244 244 245 202 224 246 245 244 247 246 
245 245 247 247 247 245 244 246 246 244 248 245 244 244 246 245 
244 244 244 244 243 244 243 243 244 247 249 247 246 227 208 181 
174 175 171 180 178 196 202 198 185 179 169 200 224 237 250 248 
247 246 246 243 245 245 245 245 245 245 245 246 244 244 243 242 
243 243 244 244 244 244 243 243 246 202 226 244 244 242 243 243 
243 244 243 247 245 245 246 245 245 245 243 243 245 229 187 248 245 247 245 246 
246 246 246 243 246 246 245 245 245 245 246 247 244 245 244 245 
244 244 244 244 244 245 246 244 245 224 167 157 169 180 204 231 
239 240 248 248 249 247 248 247 249 249 239 217 194 181 191 222 
242 248 247 245 244 244 244 246 244 245 244 245 245 246 245 245 
244 244 243 243 244 243 241 243 229 194 242 243 243 244 245 243 
242 243 243 248 246 246 245 245 245 245 245 246 246 247 180 244 247 245 246 245 
247 246 246 247 244 246 246 247 245 245 246 247 246 244 245 246 
245 244 244 244 244 247 247 216 175 188 237 246 249 249 249 246 
246 244 245 244 246 245 245 246 246 246 249 248 249 242 236 203 
174 200 248 247 246 245 244 244 244 244 244 245 246 243 244 244 
245 245 246 246 244 244 243 243 207 216 244 242 243 244 244 244 
243 243 243 247 245 246 248 247 248 249 246 246 244 246 226 206 250 247 248 245 
245 246 246 247 246 246 244 245 245 248 246 244 243 245 245 244 
245 242 243 246 247 221 191 204 238 247 246 247 247 246 247 245 
246 245 244 244 245 246 245 245 245 245 246 245 246 246 246 246 
242 193 179 242 247 246 245 245 246 246 245 246 245 244 244 244 
243 244 247 245 244 246 245 247 188 240 243 243 242 244 245 244 
244 244 243 247 247 245 246 246 247 246 248 247 247 246 249 185 244 248 248 248 
246 246 246 246 247 247 247 245 246 248 245 246 245 245 246 246 
246 245 245 243 196 211 242 250 248 246 247 245 244 245 244 244 
243 245 245 244 244 244 245 246 247 246 244 244 244 245 244 244 
246 248 213 194 246 246 246 246 246 246 246 245 246 246 244 245 
246 244 244 245 245 244 246 223 199 246 244 245 246 245 244 244 
244 244 244 248 248 248 248 248 248 247 248 248 247 246 246 231 195 251 247 247 
247 246 246 246 246 247 246 246 246 246 245 245 245 245 246 247 
245 247 240 186 236 247 248 246 246 246 245 245 245 245 244 244 
246 246 246 245 245 245 245 244 245 243 246 246 246 247 245 244 
245 246 246 186 206 247 245 245 245 247 246 245 245 244 245 245 
245 245 245 245 245 243 244 188 243 247 245 245 245 244 245 245 
244 244 244 248 247 249 248 248 248 248 248 249 248 248 246 249 181 242 248 248 
248 247 247 247 245 246 246 245 245 246 246 245 244 245 246 245 
247 241 190 238 247 246 246 245 246 246 246 245 244 246 246 246 
245 246 245 246 246 246 247 246 246 246 247 246 244 244 243 243 
242 242 245 243 178 232 247 245 244 245 245 246 246 245 244 243 
245 243 245 244 245 243 225 197 248 244 244 245 244 247 244 244 
245 244 245 248 249 247 248 249 250 249 249 249 248 247 248 248 238 195 251 248 
245 246 247 247 247 247 245 247 246 248 247 246 246 245 246 246 
249 195 243 251 248 247 245 247 247 246 246 247 245 246 246 246 
245 245 246 245 245 245 245 246 245 246 245 245 245 244 244 245 
242 242 244 246 213 165 246 247 246 245 246 247 245 246 246 245 
247 245 244 244 246 244 187 239 246 245 246 245 245 245 245 244 
244 244 245 248 247 249 248 249 249 244 249 249 247 248 247 246 249 204 226 250 
247 246 248 247 246 247 246 247 247 247 247 246 246 246 246 246 
247 247 250 249 247 247 246 247 248 248 248 247 246 246 246 247 
246 245 246 245 244 244 242 243 245 245 246 245 246 246 245 245 
246 245 244 246 249 187 213 247 246 246 245 245 245 245 245 245 
246 245 246 245 246 220 209 248 247 246 247 245 245 245 245 245 
246 246 245 248 249 249 249 249 250 250 248 248 249 248 248 247 247 249 182 246 
250 248 247 249 249 247 247 248 247 248 246 247 247 247 246 246 
246 249 248 248 248 248 247 247 246 247 246 245 246 247 247 247 
246 245 246 246 246 246 246 246 247 247 246 246 246 245 245 245 
245 245 244 244 245 236 209 247 246 247 246 246 245 245 246 246 
245 243 244 244 217 188 245 247 247 247 247 247 245 245 246 247 
245 246 244 249 249 248 250 250 250 249 249 248 247 247 247 248 247 249 231 194 
251 250 249 248 248 249 247 247 248 247 246 247 247 247 248 247 
247 248 248 248 247 246 248 247 248 249 246 248 247 247 245 246 
247 246 247 247 247 246 245 246 246 246 246 246 246 247 247 246 
246 246 245 245 246 250 249 248 246 247 247 245 245 245 245 246 
245 243 245 245 189 225 247 246 248 247 246 245 247 246 245 245 
244 245 246 248 249 250 250 250 250 250 249 249 247 246 246 248 249 248 249 204 
212 251 249 248 248 249 247 247 247 246 247 247 247 249 249 248 
248 248 247 248 248 248 247 248 248 248 247 247 246 248 247 246 
246 247 246 247 246 247 248 247 246 246 247 245 245 247 248 246 
246 246 246 245 246 247 247 245 245 247 247 246 245 246 245 246 
246 244 245 218 201 250 247 247 248 248 249 247 246 245 247 246 
246 245 246 250 250 250 250 250 250 249 250 249 250 249 249 248 249 249 249 249 
187 217 251 249 249 249 248 247 248 248 247 248 247 246 247 247 
246 248 248 248 248 248 247 247 248 249 247 247 248 248 248 247 
246 248 248 248 247 246 246 245 246 248 246 247 246 246 247 247 
246 246 246 247 246 246 246 247 247 249 248 246 248 246 245 245 
242 244 235 194 247 247 247 246 248 247 247 246 246 246 247 247 
246 247 246 250 251 250 250 250 251 250 251 250 250 249 248 248 249 249 248 249 
250 186 234 252 250 248 250 249 249 248 247 247 247 248 247 249 
248 248 248 250 248 248 248 249 248 248 248 248 248 248 247 247 
247 247 247 248 248 247 247 248 247 248 247 248 247 247 247 247 
247 245 247 247 247 247 246 246 246 247 246 246 245 246 245 245 
246 243 191 241 249 248 249 247 247 248 249 248 247 246 245 246 
247 246 246 249 250 250 250 252 248 249 250 250 251 249 249 249 248 248 248 247 
249 245 185 242 252 250 248 248 248 248 248 248 248 247 248 248 
248 249 249 249 248 248 247 248 248 248 249 248 248 248 248 248 
248 247 248 249 247 247 248 246 246 245 246 248 248 247 247 247 
246 243 247 247 246 246 248 246 246 245 246 246 246 247 245 248 
245 198 236 250 248 247 247 247 248 247 247 247 248 248 247 246 
246 246 245 252 250 251 250 249 251 250 249 250 250 250 250 250 250 249 248 247 
250 252 244 191 249 252 248 247 248 248 249 249 248 249 248 248 
248 248 248 250 248 249 249 249 247 248 248 248 248 248 248 248 
248 250 248 249 249 249 248 247 247 247 247 249 248 247 249 246 
246 247 247 246 247 247 246 244 246 246 247 247 246 246 247 243 
195 231 248 247 247 248 248 247 247 247 246 248 249 250 247 247 
246 248 248 251 250 250 250 250 250 250 250 250 249 249 250 250 248 248 251 250 
249 250 251 243 199 242 252 251 250 250 248 249 249 250 249 248 
248 248 248 249 249 249 248 248 249 248 248 248 248 249 249 248 
248 248 249 248 249 250 248 248 247 247 248 249 248 247 246 246 
247 247 248 247 247 247 248 247 246 246 247 248 247 249 250 201 
222 251 249 248 246 247 249 248 248 249 248 249 250 248 249 250 
248 246 247 250 250 250 251 250 250 251 251 250 249 249 249 251 251 250 248 251 
250 249 249 252 246 204 225 253 250 249 249 248 249 249 248 250 
249 248 248 248 249 248 248 249 248 248 248 248 248 249 249 249 
248 247 250 249 250 248 246 248 248 248 249 250 246 248 247 247 
247 247 247 245 245 248 246 247 247 245 245 246 247 244 206 216 
250 249 248 248 247 248 249 249 249 247 249 248 249 250 249 248 
249 247 247 251 251 251 251 251 250 251 250 250 250 251 250 250 250 250 250 249 
250 251 250 250 251 250 200 215 252 251 249 250 249 249 249 248 
248 248 249 249 250 250 248 248 248 248 247 249 249 250 249 249 
249 249 250 248 248 249 249 247 247 247 246 248 248 248 248 248 
247 247 247 248 247 247 248 248 247 245 247 249 244 190 223 249 
249 248 248 248 249 248 249 249 250 249 248 248 248 248 249 248 
250 248 246 251 251 251 251 251 251 250 251 251 252 251 251 250 250 250 250 251 
251 252 250 250 250 250 252 225 202 247 251 251 249 250 249 247 
248 248 250 249 249 249 248 248 248 248 248 249 249 248 249 249 
249 248 248 248 248 247 248 249 249 248 249 249 247 248 248 249 
247 248 249 248 247 246 248 247 247 248 250 235 188 229 252 249 
249 250 248 247 247 249 249 249 249 249 249 249 251 248 249 248 
248 247 246 250 251 251 252 252 251 251 250 252 250 250 250 251 250 252 251 251 
251 251 251 250 250 250 251 253 244 190 235 253 251 250 250 251 
250 249 249 248 250 249 250 249 250 250 249 249 250 249 249 249 
249 249 248 249 251 247 249 248 248 249 248 250 248 248 248 249 
249 250 249 248 248 248 247 248 249 248 215 195 241 250 249 249 
248 248 249 249 249 248 248 248 249 249 249 248 248 248 248 247 
248 247 248 251 251 252 252 252 252 252 251 252 252 250 250 251 250 250 251 250 
251 251 250 250 250 252 250 249 252 250 213 203 247 252 250 250 
249 249 249 251 250 249 247 248 246 247 250 248 249 249 249 249 
249 249 249 249 249 249 249 249 249 249 249 250 250 249 249 249 
249 248 248 249 247 249 248 251 242 195 207 248 252 250 248 249 
249 249 248 248 249 250 249 248 246 248 249 249 248 248 248 249 
248 247 247 252 252 251 252 252 252 252 251 251 251 251 252 252 252 251 252 251 
252 252 250 252 250 251 251 251 251 252 254 235 183 209 249 252 
251 251 251 250 249 248 249 249 250 248 248 249 249 249 250 250 
250 250 250 250 249 249 249 249 250 251 249 250 250 248 249 248 
248 248 248 248 248 249 249 216 189 229 253 250 248 248 249 249 
249 248 248 248 248 248 248 249 247 250 250 248 247 248 248 247 
248 248 248 252 252 252 252 252 253 252 253 252 252 252 252 252 252 251 252 251 
252 251 251 251 251 252 252 251 252 251 252 253 253 220 200 221 
250 251 252 251 250 250 250 249 250 249 249 249 250 249 249 249 
250 250 249 249 249 249 249 249 249 250 248 248 250 248 247 247 
246 246 248 249 249 238 194 211 248 252 251 250 250 250 249 249 
247 249 248 249 248 248 248 248 248 249 248 249 248 248 249 246 
248 247 246 252 251 252 253 253 253 253 252 252 252 252 252 252 251 251 253 252 
252 252 251 251 251 251 252 252 251 252 252 251 252 253 253 236 
215 222 247 251 252 253 252 251 251 250 250 250 248 250 250 249 
249 250 250 250 249 249 250 249 249 250 249 250 250 250 249 249 
248 250 248 228 194 207 245 252 252 250 249 249 249 248 249 249 
249 250 249 247 249 248 248 247 248 248 247 247 248 248 248 249 
248 248 248 253 252 252 252 253 253 253 251 251 252 252 254 252 254 252 252 252 
252 252 252 251 252 253 252 253 252 253 252 252 251 252 252 254 
254 241 212 214 229 248 252 251 250 251 251 251 251 249 250 252 
252 252 251 250 250 250 250 250 251 251 250 251 252 250 252 251 
238 220 183 202 244 253 252 252 251 250 250 251 250 250 250 250 
248 249 248 248 248 249 246 247 247 249 248 249 249 248 248 248 
247 248 249 252 252 252 253 253 253 252 252 253 253 252 252 253 253 252 251 252 
253 253 252 252 253 252 252 252 251 252 252 252 253 253 252 252 
253 253 254 253 234 205 217 226 243 250 252 254 253 251 251 253 
252 252 252 251 252 252 252 251 250 243 228 221 208 203 191 189 
182 215 247 250 254 251 250 250 251 251 250 250 250 249 249 250 
250 250 249 248 249 248 251 248 248 248 248 248 248 248 248 247 
247 248 247 252 252 252 253 252 253 253 252 254 253 253 253 253 253 253 252 251 
252 253 253 253 251 252 253 253 252 251 253 253 253 253 252 252 
251 251 253 253 253 254 252 242 232 220 225 222 226 240 231 211 
215 212 220 216 214 209 192 195 191 189 201 209 216 223 244 254 
254 253 252 249 249 250 251 251 252 250 250 249 250 250 250 251 
251 250 250 248 248 247 245 248 249 247 247 248 250 248 248 248 
248 248 248 253 252 252 252 253 253 252 253 253 253 252 252 252 253 253 253 253 
254 253 253 253 253 254 253 252 251 252 252 252 253 254 253 251 
252 252 251 252 251 252 252 253 253 253 254 252 245 239 188 202 
214 212 205 219 225 226 233 244 250 253 254 254 254 253 253 253 
252 251 251 251 251 250 251 251 250 251 250 250 250 249 249 252 
251 250 250 249 247 249 247 248 248 249 248 249 247 248 249 249 
248 249 248 254 253 254 254 253 253 253 253 253 253 253 252 254 253 253 252 253 
253 253 253 254 252 253 253 252 253 253 252 253 251 254 253 253 
252 253 253 252 251 252 252 251 252 253 253 253 253 253 246 245 
254 253 254 255 253 253 253 253 254 253 253 253 252 252 252 253 
250 251 252 251 250 251 251 251 251 251 249 250 250 249 249 250 
251 250 251 249 248 248 248 247 247 247 249 245 247 248 247 249 
248 248 247 252 253 252 253 253 254 253 252 253 253 253 252 253 253 254 254 253 
254 254 253 254 253 253 253 253 253 252 252 253 253 254 254 254 
253 253 253 253 252 252 252 252 252 253 253 253 253 253 254 254 
254 253 254 253 253 252 251 253 253 252 252 251 251 251 251 253 
253 251 251 250 250 252 251 251 251 251 252 252 250 251 251 251 
250 249 249 249 248 247 248 247 247 247 247 246 247 247 249 248 
248 248 247 253 253 253 253 254 253 253 253 253 253 253 253 253 253 252 253 252 
253 253 253 253 253 253 252 253 252 252 252 251 253 254 254 253 
254 253 253 253 252 252 253 254 252 253 253 253 253 253 252 253 
254 253 252 253 253 252 251 251 253 253 253 253 253 251 253 253 
253 252 251 252 251 252 252 251 250 250 250 250 250 250 251 250 
250 250 251 249 248 247 247 247 247 248 246 248 247 247 247 249 
247 248 246 253 252 253 253 252 253 253 252 253 253 253 253 253 254 254 253 253 
253 254 253 253 253 254 253 253 252 252 253 254 253 254 254 253 
253 253 253 253 252 253 251 253 253 252 252 252 253 252 252 254 
253 254 253 253 253 251 252 252 253 253 254 252 252 252 253 253 
252 252 252 251 250 251 250 251 250 250 250 250 249 251 250 250 
250 250 250 250 249 249 248 247 246 247 247 248 246 248 247 247 
248 248 247 251 252 252 253 253 252 253 254 253 253 253 253 253 253 252 253 254 
253 253 252 252 253 254 253 252 253 252 253 253 253 254 253 252 
253 254 254 253 253 254 253 251 253 254 253 252 253 252 252 254 
253 254 253 251 252 252 252 252 252 252 253 252 252 252 251 250 
251 251 251 251 250 250 250 251 252 252 250 250 250 250 250 250 
250 250 251 249 249 248 247 247 248 246 246 248 248 247 248 247 
248 248 249 252 252 252 253 253 252 252 253 253 253 253 253 253 253 253 253 254 
253 252 254 254 253 253 252 253 253 253 253 253 253 252 254 253 
253 253 253 253 253 254 254 253 253 253 253 253 253 252 253 254 
253 253 253 253 253 255 253 253 253 253 253 252 252 251 251 252 
252 251 250 250 251 251 251 250 250 251 251 250 250 250 249 248 
249 250 250 249 249 249 249 246 246 246 247 247 247 246 246 247 
249 246 246 