P2
# Created by IrfanView
100 100
255
231 230 230 231 229 229 226 222 225 217 210 209 214 216 212 213 212 
210 211 210 202 203 204 204 206 202 203 206 207 202 204 203 203 
204 203 204 201 201 202 203 199 204 205 204 205 204 206 207 208 
206 208 211 208 209 209 210 210 211 212 211 211 212 211 210 210 
212 212 215 214 214 216 217 217 219 219 220 218 218 219 216 218 
219 216 216 219 218 217 218 219 218 219 218 219 220 219 218 217 
221 219 221 204 204 201 199 201 202 199 201 203 201 204 200 201 202 200 200 200 
200 204 202 203 205 205 203 202 203 206 205 204 205 204 204 203 
203 206 206 205 205 207 204 206 204 207 208 208 208 209 208 209 
209 208 209 209 211 211 211 210 213 212 211 212 211 212 211 212 
213 213 214 214 215 214 214 214 215 215 216 219 219 217 220 218 
218 218 215 218 218 219 220 220 220 219 218 219 221 221 220 219 
218 221 219 201 201 200 199 201 200 202 201 202 202 201 201 202 203 203 205 206 
206 208 209 208 205 205 205 208 206 203 208 206 207 206 205 205 
206 205 205 205 205 206 206 208 207 208 210 211 210 209 208 211 
212 211 212 211 212 212 213 211 211 211 212 211 213 211 212 213 
212 211 213 212 216 216 213 214 214 212 214 216 215 216 219 218 
218 218 216 216 215 218 218 218 220 218 218 218 219 219 220 219 
220 221 221 201 202 198 202 202 204 204 203 204 202 203 203 203 205 203 201 202 
204 207 206 206 208 206 206 207 207 207 206 205 205 205 208 208 
207 207 206 205 206 206 208 208 208 209 211 211 212 209 210 209 
212 211 210 213 211 210 212 211 215 214 214 213 213 212 212 213 
212 212 213 215 213 214 213 214 215 213 213 215 213 214 218 218 
216 217 217 217 216 218 216 219 218 218 219 219 219 220 220 219 
220 220 219 201 200 199 202 203 202 204 204 204 204 203 204 204 205 205 206 207 
206 205 206 204 206 207 206 204 207 207 208 207 207 207 205 208 
205 206 206 207 207 210 208 209 211 208 207 197 196 187 178 162 
161 155 167 159 173 171 187 200 206 211 213 214 215 213 213 213 
212 213 213 213 212 213 213 213 214 212 212 215 212 215 217 217 
220 218 215 216 217 218 220 220 218 219 221 221 220 220 220 220 
219 220 220 202 201 203 204 202 203 205 205 204 203 205 205 206 204 203 204 206 
204 207 205 204 205 206 206 208 207 205 206 205 205 206 206 205 
207 209 209 209 211 208 205 172 156 151 138 143 158 178 184 180 
189 194 186 180 162 163 161 152 150 153 154 178 198 210 214 213 
214 215 213 211 213 215 213 216 215 213 214 215 214 215 217 218 
218 218 218 218 219 220 218 218 220 222 221 221 220 217 220 221 
219 221 223 201 200 202 204 203 205 204 205 203 202 203 202 205 205 206 206 207 
209 206 204 205 206 206 206 205 207 207 207 206 205 206 207 208 
210 213 209 188 156 143 150 165 188 209 210 214 215 216 216 214 
216 215 219 219 220 221 220 216 217 212 198 184 148 144 163 182 
197 212 215 213 214 215 214 212 214 213 213 215 214 214 217 219 
217 218 217 217 217 219 219 220 219 219 221 221 221 223 220 223 
220 222 222 200 204 202 204 201 203 205 204 202 203 204 207 205 205 204 206 206 
203 200 206 205 205 205 207 206 204 206 207 207 209 208 208 210 
207 159 122 132 169 204 216 221 218 215 215 215 212 213 213 214 
212 212 213 214 215 215 215 214 213 215 216 218 221 213 184 153 
146 157 190 216 215 214 213 215 214 214 214 216 215 218 216 218 
218 219 219 216 219 219 220 219 221 221 221 221 220 220 222 220 
222 220 221 205 202 201 202 203 205 206 206 204 204 204 207 206 202 205 207 203 
204 207 204 207 207 207 206 205 205 205 206 207 210 215 196 139 
119 166 212 213 217 216 214 213 210 213 212 213 212 213 212 211 
214 213 213 213 215 214 216 212 212 213 215 215 216 217 219 216 
212 198 155 158 183 213 218 218 215 215 214 216 216 217 219 217 
218 217 218 219 220 218 219 220 220 220 221 221 221 222 220 222 
221 221 221 202 203 204 204 203 201 203 206 203 204 205 204 205 205 206 206 205 
204 203 205 203 203 204 204 205 204 205 207 209 195 122 129 177 
212 215 214 214 212 214 214 211 213 211 211 211 212 213 215 213 
212 213 212 216 213 214 212 213 212 214 214 213 213 216 213 214 
217 217 217 213 187 156 195 217 219 215 215 216 217 217 218 218 
217 217 220 219 222 221 219 220 220 220 220 221 220 221 221 221 
221 222 222 205 203 203 204 205 204 205 203 204 203 205 203 205 205 204 204 206 
206 207 204 203 203 203 204 206 207 208 199 133 130 173 220 213 
212 213 211 210 212 213 214 213 211 214 213 212 213 214 213 213 
213 214 212 213 212 212 213 213 213 214 214 217 213 214 214 215 
215 215 214 214 217 216 179 156 183 218 215 219 218 215 217 217 
216 218 217 218 219 221 223 219 222 221 222 222 222 220 222 221 
221 221 221 204 200 205 204 204 204 205 204 207 205 206 207 204 205 204 205 206 
206 206 203 203 202 205 205 209 211 162 107 188 218 214 213 213 
209 210 214 211 213 212 212 213 212 213 211 212 213 213 212 213 
215 214 213 213 212 213 211 214 214 213 212 213 214 213 214 212 
214 217 213 213 216 219 221 209 145 163 210 216 217 216 217 219 
218 220 219 217 220 221 221 223 222 223 224 219 222 221 222 222 
222 223 223 202 204 205 203 202 205 204 204 204 203 204 206 207 205 204 204 204 
206 205 204 204 204 205 208 204 131 143 214 216 213 212 213 210 
212 213 213 209 211 212 213 213 213 212 215 216 212 212 214 212 
213 213 215 215 216 218 217 215 215 217 214 213 213 213 213 215 
214 216 212 214 213 218 215 219 221 196 154 188 220 220 216 219 
220 218 218 218 221 222 221 223 221 221 220 223 223 222 222 221 
224 222 222 202 203 203 201 203 203 205 205 204 207 207 204 204 205 204 205 207 
206 206 200 203 205 212 185 115 192 214 213 214 211 211 211 213 
212 212 212 213 214 214 214 213 213 213 212 214 215 213 216 215 
215 214 213 215 211 210 216 216 214 214 216 217 215 215 215 215 
215 214 215 214 213 213 214 218 221 222 215 161 177 218 216 220 
220 221 219 220 222 221 221 219 221 222 223 222 222 221 222 222 
221 220 221 205 203 204 203 202 205 205 207 205 205 205 206 204 203 205 208 208 
206 206 204 206 212 166 105 205 215 213 211 211 211 212 211 213 
213 215 213 212 212 213 214 216 213 214 215 214 214 214 214 214 
212 213 215 212 218 218 217 215 217 216 215 214 214 216 217 215 
215 216 216 217 217 215 214 217 219 220 222 215 184 167 211 219 
220 221 221 220 222 222 222 221 222 224 222 222 223 226 221 221 
222 223 223 205 205 208 206 202 204 206 205 204 205 205 208 205 207 207 208 206 
207 203 207 209 149 121 208 215 209 212 212 212 212 213 213 214 
213 212 211 213 213 213 215 214 214 215 217 216 214 214 215 214 
214 214 215 212 216 213 216 217 216 217 217 218 215 217 218 218 
217 215 217 216 214 217 216 216 219 219 218 219 220 202 169 207 
223 222 221 222 223 223 222 222 223 223 223 223 222 221 223 224 
225 223 223 206 205 206 205 205 204 207 208 208 207 205 206 205 205 205 205 206 
204 207 209 140 136 213 213 212 213 214 213 213 212 212 214 212 
214 214 215 212 211 214 214 214 215 216 214 216 215 216 214 215 
214 213 213 213 214 217 216 215 218 217 216 218 217 217 217 217 
218 218 213 216 217 216 217 219 217 217 214 217 220 218 213 157 
217 223 223 221 222 223 224 224 222 223 223 222 223 223 222 223 
220 224 221 204 205 205 203 206 206 206 204 204 204 207 205 204 204 205 204 204 
206 209 145 145 219 216 211 212 213 212 214 212 211 213 212 212 
214 214 215 216 213 215 215 214 215 213 215 216 214 215 211 214 
215 214 212 213 219 217 218 219 217 217 217 218 216 216 218 216 
218 219 220 221 219 219 218 217 218 219 216 218 218 221 222 210 
171 212 223 222 222 223 222 223 222 223 223 225 223 224 223 222 
222 223 223 205 205 206 206 206 206 206 208 209 206 205 205 205 205 205 203 206 
212 151 142 211 210 210 210 214 213 212 213 213 212 212 212 214 
214 213 213 214 213 216 215 214 214 212 215 214 215 216 214 215 
216 216 215 213 215 218 217 217 217 218 218 219 218 217 218 219 
218 219 217 218 219 221 218 219 219 220 221 219 221 219 222 226 
219 156 211 222 222 222 223 224 222 223 224 223 223 223 224 223 
223 222 221 204 204 207 208 206 204 207 207 205 207 206 207 203 204 205 204 207 
159 138 214 209 209 214 213 212 214 214 212 213 213 214 213 215 
214 216 215 216 215 212 214 212 215 213 213 217 214 214 215 216 
216 215 215 215 218 217 218 217 217 215 218 219 219 217 219 220 
220 219 219 218 219 219 217 219 219 218 216 218 220 221 219 219 
219 208 163 214 224 224 223 221 223 222 223 222 224 224 223 224 
221 223 223 208 208 206 207 209 203 205 205 203 207 205 205 207 209 204 210 178 
137 218 213 211 212 211 214 213 213 214 213 213 213 213 215 214 
214 213 213 213 215 217 216 214 214 214 214 215 215 219 217 217 
215 217 215 215 215 218 217 219 217 219 219 217 220 221 219 219 
220 218 219 219 218 219 220 221 220 220 221 219 221 221 220 217 
218 221 215 156 222 223 224 224 224 224 224 224 223 224 223 222 
222 223 222 207 209 205 207 205 209 208 208 208 208 207 204 204 207 212 199 126 
214 212 210 211 212 214 213 214 213 213 214 215 214 213 215 215 
215 215 213 214 214 211 214 216 215 214 216 216 216 212 217 218 
217 216 217 215 218 217 215 216 218 220 219 219 218 219 220 219 
219 219 222 221 220 220 219 220 219 220 220 220 220 220 219 218 
218 220 222 200 178 223 224 223 224 223 222 223 223 223 222 224 
224 223 222 208 207 208 207 207 208 208 208 209 208 210 209 208 211 210 123 210 
214 210 212 211 213 213 214 214 214 213 214 214 214 213 213 215 
216 215 216 212 214 215 215 215 215 213 215 216 216 217 216 216 
216 216 217 217 215 216 219 216 218 219 220 219 219 219 220 223 
222 220 220 221 221 220 221 220 220 221 221 220 220 220 222 221 
221 221 221 225 185 189 228 224 222 223 223 224 223 222 223 221 
220 222 222 210 209 209 209 209 207 208 209 210 209 209 207 208 214 139 173 215 
211 212 212 211 212 213 212 212 214 214 214 215 215 215 215 214 
214 214 213 214 215 215 215 217 214 214 215 216 217 218 217 216 
218 215 217 216 215 219 216 216 217 219 220 221 219 219 221 220 
220 221 221 222 220 221 221 220 221 221 223 222 221 221 222 220 
222 222 222 221 224 177 216 226 224 224 223 222 223 225 224 224 
224 222 221 209 208 208 211 211 212 211 210 209 209 212 212 213 188 128 212 214 
210 209 213 214 210 212 214 214 214 216 214 214 214 214 215 215 
216 214 215 215 215 214 214 214 215 216 216 218 216 216 218 218 
218 218 217 219 218 218 218 217 217 219 217 218 220 221 221 221 
222 221 222 221 222 221 221 222 222 220 221 223 221 222 222 221 
220 221 222 222 223 216 159 226 225 224 222 223 224 225 224 223 
224 223 223 209 209 209 208 211 207 209 212 211 213 209 210 211 109 207 212 212 
214 211 212 212 214 213 214 214 214 213 214 214 214 215 214 213 
214 216 215 214 215 216 214 216 216 217 215 217 217 219 218 216 
219 218 217 217 219 217 219 218 218 219 217 221 219 220 222 222 
221 221 224 222 222 221 222 221 220 221 222 221 223 222 222 223 
222 221 223 221 221 221 188 188 226 224 223 224 223 222 224 224 
223 221 222 210 211 212 210 208 212 210 212 215 212 211 214 155 166 215 213 212 
213 212 214 214 215 214 211 213 216 213 214 214 217 213 214 215 
213 213 214 213 215 213 214 218 218 217 219 218 218 218 218 219 
220 219 218 217 218 219 220 217 218 219 220 219 221 220 220 219 
220 221 220 222 221 221 224 223 221 221 220 221 223 222 222 222 
223 221 223 221 221 218 222 157 220 224 223 223 225 224 224 222 
222 224 224 211 210 210 211 212 211 213 215 214 212 213 214 113 214 214 213 213 
211 214 212 212 212 214 214 213 202 215 214 213 214 216 213 214 
214 215 215 214 213 215 214 217 213 217 218 219 219 218 218 217 
220 220 220 218 217 220 219 219 217 220 219 219 219 221 221 220 
221 221 221 222 221 222 222 222 220 221 222 224 221 222 223 223 
220 219 221 218 221 219 221 209 167 223 223 223 222 224 224 224 
225 224 223 210 207 213 210 210 212 211 212 214 209 218 132 191 214 211 211 210 
212 213 212 213 214 212 213 214 166 203 213 214 213 214 214 212 
213 213 214 214 214 216 218 209 131 216 217 218 218 220 219 220 
220 218 220 220 220 219 220 218 220 219 218 219 218 221 221 220 
221 223 222 222 221 221 221 221 221 223 223 224 222 223 223 222 
221 221 222 221 221 220 217 224 148 228 223 223 224 225 224 225 
226 225 226 213 214 213 212 211 210 212 213 211 212 203 132 218 214 214 212 214 
213 212 213 212 213 212 213 215 208 147 195 215 217 215 214 215 
215 216 215 214 219 221 207 97 41 207 218 218 219 219 219 218 
218 219 219 218 218 218 217 221 218 218 217 217 215 214 221 218 
221 220 222 222 220 222 224 221 222 222 221 223 224 223 222 221 
221 220 219 220 221 220 221 225 152 220 224 225 222 224 224 222 
225 227 226 213 211 212 211 210 211 208 209 211 215 134 202 214 213 213 212 213 
214 214 213 214 213 214 214 213 215 196 112 182 215 214 215 217 
219 216 219 217 214 162 53 34 47 188 219 218 219 218 221 218 
218 220 219 219 218 219 219 218 217 220 216 219 215 152 221 218 
222 224 223 223 224 222 224 225 223 224 199 140 223 222 221 222 
220 221 222 220 222 221 224 224 194 189 226 223 224 224 223 225 
222 224 221 210 211 211 209 211 212 213 210 211 206 132 220 213 213 215 216 214 
213 213 214 212 213 214 214 214 214 217 116 62 101 178 209 216 
214 216 212 168 102 35 31 65 57 206 219 219 217 218 219 219 
220 221 219 219 219 220 221 219 218 219 218 217 220 97 120 204 
222 225 225 225 224 224 229 228 217 144 112 111 227 221 223 221 
221 222 222 222 223 220 222 222 217 165 223 226 226 225 223 223 
221 224 225 211 213 213 211 210 210 210 211 213 151 195 214 216 214 214 214 214 
214 215 215 215 214 214 214 215 214 216 156 55 39 48 66 105 
116 92 62 33 25 42 78 105 117 223 218 220 221 219 219 219 
217 218 219 219 220 217 220 219 217 222 216 215 218 153 75 72 
136 158 202 203 211 204 161 153 90 54 103 145 225 221 221 221 
222 222 222 221 223 221 221 222 222 175 209 224 225 224 225 224 
223 224 224 214 210 213 213 213 213 212 210 211 124 219 215 214 216 214 213 215 
215 215 215 216 214 214 217 214 213 214 218 130 54 41 53 36 
36 43 75 71 39 77 97 77 206 220 220 220 219 220 220 219 
221 219 219 218 220 219 220 219 216 220 217 217 218 201 120 42 
60 123 124 96 107 74 76 77 79 133 133 189 224 223 222 222 
222 222 221 221 222 221 222 221 222 202 180 226 224 224 222 224 
224 223 221 212 212 215 212 212 215 213 214 188 156 217 214 215 215 215 215 215 
216 216 217 216 218 215 216 215 217 217 219 195 69 119 118 73 
60 38 47 56 61 66 82 196 222 220 218 220 217 218 220 221 
222 220 220 220 220 220 221 220 221 221 220 218 217 218 143 88 
36 50 96 145 147 68 71 116 174 148 126 216 224 223 221 222 
223 224 222 221 222 223 222 222 221 217 154 219 223 222 224 223 
223 222 222 212 213 215 210 212 212 213 217 146 204 215 215 215 216 216 216 217 
216 215 215 216 216 217 215 217 215 216 218 223 175 123 88 69 
61 61 78 101 144 187 215 224 222 219 221 220 219 219 219 220 
221 221 220 219 221 220 221 220 219 221 220 219 218 220 209 125 
86 84 87 85 114 101 123 106 123 158 207 221 221 220 221 223 
222 221 224 222 222 221 220 224 224 224 172 208 224 226 224 223 
223 223 223 214 213 213 215 214 212 212 210 116 219 215 219 217 217 216 217 216 
215 214 216 216 217 217 217 217 218 216 218 223 226 224 193 184 
197 208 218 223 220 222 224 222 220 220 220 220 221 221 221 219 
221 220 221 220 221 221 221 220 220 222 221 219 220 219 223 219 
189 165 125 139 133 134 164 187 200 229 223 222 220 221 223 222 
223 224 222 222 223 223 224 225 221 226 204 186 223 223 223 223 
222 223 223 214 214 214 215 214 212 214 129 139 218 216 216 217 217 219 215 218 
215 218 219 216 217 218 218 218 218 220 218 220 221 223 223 223 
225 223 222 220 219 219 221 219 219 220 220 221 220 221 221 220 
220 221 221 221 220 221 220 221 222 223 222 219 220 219 220 222 
221 225 221 223 222 224 225 224 228 224 223 220 222 223 224 224 
223 222 223 223 223 223 223 222 224 225 226 171 225 223 224 223 
222 222 223 212 212 213 213 216 215 202 74 187 217 219 218 217 216 218 217 215 
216 218 217 216 219 220 220 218 218 217 218 216 219 221 219 221 
219 219 220 221 218 219 221 221 221 222 221 221 223 221 220 222 
223 221 221 220 220 222 221 223 221 222 218 219 219 220 220 220 
219 220 221 222 222 223 223 223 222 222 221 222 224 223 222 223 
223 223 222 225 225 223 222 222 223 223 221 167 223 225 225 223 
224 220 222 214 214 215 214 215 213 172 169 224 218 216 215 217 217 217 217 218 
215 219 218 219 217 220 219 219 218 220 219 219 219 219 222 219 
219 219 219 218 219 219 220 223 222 222 222 222 220 222 221 220 
219 222 222 221 223 221 221 220 226 225 222 220 220 220 220 219 
219 221 220 222 221 220 223 223 223 222 220 220 222 223 224 223 
224 224 223 224 222 223 224 225 224 223 225 188 207 225 225 224 
224 225 223 214 214 214 213 215 215 163 200 219 218 217 216 215 218 217 219 220 
219 218 221 218 219 218 219 219 218 219 223 219 217 217 220 221 
222 220 221 219 218 221 220 221 221 222 222 222 222 221 223 224 
224 221 220 224 223 222 222 223 220 220 219 220 220 221 221 221 
222 223 223 224 223 222 223 224 223 222 224 224 224 223 224 225 
225 224 227 224 224 224 224 225 225 224 226 198 189 225 223 223 
222 223 224 217 215 213 214 216 213 170 215 217 218 217 217 218 218 220 217 218 
218 218 218 221 218 219 219 219 219 218 218 221 220 220 222 224 
221 223 222 222 223 221 221 221 221 221 222 222 222 222 220 222 
221 221 225 223 220 224 221 222 221 221 219 219 220 220 219 219 
223 225 223 212 196 191 179 208 223 223 224 224 223 224 222 222 
223 223 222 223 222 224 222 221 225 225 223 215 177 225 224 223 
225 227 225 218 215 215 215 215 215 171 221 217 217 219 217 217 219 218 219 219 
216 220 218 216 218 218 219 218 219 219 220 219 219 220 220 197 
214 215 212 195 222 222 222 219 220 222 222 223 223 222 223 222 
221 220 221 221 221 223 222 223 223 222 222 221 219 221 219 219 
219 126 113 75 48 47 75 119 223 223 223 222 224 223 223 223 
224 224 225 223 225 223 222 224 223 222 224 219 167 226 225 225 
227 226 224 218 215 215 216 217 220 152 219 217 218 216 217 217 221 218 219 218 
219 218 221 220 220 220 217 219 220 221 220 220 216 219 160 61 
66 61 52 92 188 221 220 220 222 220 222 222 222 222 224 224 
223 222 221 223 223 221 223 222 220 220 221 222 222 222 223 224 
224 153 84 111 134 138 171 221 222 223 223 223 223 224 223 223 
223 225 224 224 224 223 222 223 224 222 224 218 161 223 224 225 
226 226 225 217 215 215 214 217 212 146 221 220 220 218 220 218 218 219 219 220 
217 218 218 219 218 220 220 219 218 219 220 220 219 219 195 127 
104 134 190 219 222 223 221 221 222 222 220 219 222 221 222 224 
222 223 223 221 223 226 223 222 223 224 223 223 222 223 226 222 
224 228 231 229 227 232 226 228 222 222 223 223 223 223 224 225 
223 225 225 223 225 226 223 226 223 223 223 222 150 222 225 224 
225 227 224 216 215 215 214 215 215 161 223 220 219 216 220 221 219 220 220 217 
218 220 220 221 220 218 218 221 220 220 220 222 222 219 222 227 
226 228 225 223 221 221 222 222 222 220 220 223 224 220 222 222 
223 223 223 223 224 222 223 223 224 224 223 224 224 221 224 222 
222 226 229 229 227 226 225 224 223 224 225 224 225 224 224 224 
224 224 224 224 224 223 223 224 220 221 223 224 166 224 225 225 
224 226 224 217 216 215 215 216 218 167 222 217 216 217 218 221 220 221 220 219 
219 221 221 220 221 219 220 221 220 221 219 219 220 220 221 223 
224 225 221 223 222 222 223 221 220 222 223 223 224 225 223 223 
223 223 223 224 223 224 222 224 224 224 222 222 223 224 224 223 
221 223 224 223 224 225 226 226 225 226 225 224 224 223 224 224 
224 223 223 226 226 224 223 223 225 224 222 225 175 217 223 226 
223 223 224 216 216 216 216 217 214 157 222 220 221 219 220 220 218 220 220 220 
218 220 220 220 221 222 221 221 221 220 221 221 220 221 219 222 
221 219 220 222 222 222 221 221 220 224 224 223 223 225 224 225 
223 223 224 223 222 222 222 222 223 223 223 224 223 221 224 223 
223 225 224 224 224 225 225 225 226 224 224 224 223 225 224 225 
222 224 223 224 224 223 223 224 224 222 223 222 170 217 224 226 
223 223 224 218 218 216 217 217 216 168 220 220 219 220 221 221 220 221 219 221 
219 221 221 220 220 221 220 221 222 221 221 221 222 221 222 221 
220 221 221 222 222 222 224 225 225 223 223 223 223 223 223 225 
224 223 222 223 224 223 224 225 224 224 224 225 223 222 224 224 
224 224 225 225 223 224 225 225 224 225 224 224 225 224 223 224 
224 223 224 224 223 224 223 222 219 223 221 223 168 216 223 222 
223 223 222 219 218 218 218 219 215 169 223 221 220 221 220 218 220 221 220 220 
222 221 220 221 221 220 221 221 220 221 220 220 220 222 222 222 
221 222 222 221 222 222 224 223 223 223 221 222 224 222 223 222 
224 223 223 224 224 225 223 224 223 223 222 221 224 226 226 224 
224 224 225 225 226 225 225 226 224 224 224 223 225 225 225 224 
223 223 223 226 224 223 224 223 223 224 224 225 164 217 225 223 
224 223 223 220 218 218 218 218 220 163 221 221 221 221 221 222 220 220 222 219 
218 221 222 222 220 222 221 221 221 221 221 223 222 221 221 221 
222 222 222 222 221 222 219 220 224 224 225 224 223 224 224 225 
225 225 225 224 223 223 224 223 223 224 225 225 224 223 223 224 
224 225 224 224 226 225 222 225 225 224 224 225 224 225 225 224 
224 225 225 223 223 223 223 223 223 224 224 225 169 223 224 224 
223 223 222 220 218 218 219 218 221 164 220 222 221 220 220 222 221 222 220 220 
220 222 220 220 222 220 221 221 222 222 222 222 222 219 221 223 
222 220 222 223 225 224 224 224 222 223 223 223 223 225 224 224 
224 223 222 225 224 224 223 223 224 224 224 225 221 222 224 223 
225 225 224 223 225 225 226 225 224 224 224 225 226 223 224 225 
225 224 223 226 225 224 223 223 220 223 222 224 174 227 224 224 
221 222 223 218 217 217 218 219 220 172 222 220 222 223 223 221 220 220 221 219 
220 223 223 222 221 221 221 222 221 221 221 222 222 222 222 220 
222 220 223 222 220 220 223 222 224 224 224 223 222 223 224 224 
224 224 224 225 223 222 224 225 223 223 221 223 223 221 224 223 
224 226 225 225 225 227 226 227 226 226 227 224 224 223 224 224 
224 224 222 223 224 225 225 224 223 223 223 221 162 226 223 224 
224 223 223 220 220 223 217 219 220 158 217 220 220 219 220 220 223 222 221 221 
220 221 220 222 222 223 222 221 219 219 223 222 220 222 221 221 
222 222 222 223 222 222 223 223 224 222 224 226 226 222 224 224 
225 224 222 222 223 224 225 225 224 224 225 225 221 218 225 224 
224 225 225 225 225 225 226 226 225 227 226 226 223 225 226 225 
224 224 225 223 223 226 225 225 223 223 224 218 173 224 223 224 
223 222 224 219 219 220 218 218 221 163 209 220 220 221 224 222 222 222 220 220 
220 220 221 221 222 221 221 220 220 222 221 220 221 223 219 222 
222 222 221 222 221 220 221 223 223 224 223 221 222 224 224 225 
222 225 226 225 225 224 224 223 223 224 223 225 222 222 225 224 
225 224 226 226 225 226 226 224 226 226 226 226 226 225 224 225 
227 224 223 225 224 225 223 227 218 222 222 216 165 227 223 223 
222 224 222 219 220 220 219 220 220 193 187 220 220 222 223 223 223 222 223 222 
220 221 222 222 222 222 222 220 221 221 222 220 220 222 222 222 
220 220 223 222 222 223 224 223 223 223 222 222 222 222 223 224 
224 223 223 222 222 224 223 223 224 223 222 222 221 222 223 224 
223 225 227 227 225 226 226 226 227 227 223 224 225 226 226 224 
221 225 226 225 224 225 226 222 221 223 222 209 172 226 224 223 
223 223 223 222 220 221 221 221 220 210 164 223 220 220 220 221 222 223 222 222 
221 222 221 222 221 222 222 222 220 221 223 222 222 222 223 221 
220 223 223 222 223 221 222 222 221 222 222 223 223 223 225 225 
223 223 223 223 224 223 224 223 223 223 223 224 223 221 222 222 
225 226 224 225 226 226 226 225 225 226 226 225 224 224 223 224 
224 225 224 224 224 225 225 226 221 223 221 191 196 224 223 224 
226 223 225 220 220 220 219 220 219 219 167 226 221 222 223 222 222 221 222 222 
222 222 224 222 220 220 223 223 223 222 222 222 222 222 221 221 
223 223 221 222 221 222 222 221 221 222 223 223 223 222 223 223 
223 223 223 225 225 223 222 222 223 223 224 223 223 224 222 224 
223 225 226 226 226 223 225 226 225 225 225 226 227 225 225 225 
223 222 224 222 224 224 226 225 222 223 220 182 218 225 224 223 
223 224 224 219 220 218 219 220 219 220 156 217 223 222 223 221 220 222 223 223 
222 223 220 222 222 222 223 222 221 222 222 222 222 221 221 222 
222 221 221 221 223 222 222 222 222 222 224 223 224 223 225 224 
223 223 223 223 223 224 223 224 223 224 223 225 225 225 224 225 
225 225 225 226 225 226 225 225 225 225 225 225 224 225 227 223 
223 224 224 226 223 224 223 224 221 222 220 178 222 224 224 223 
224 226 224 221 221 221 220 220 220 218 187 188 225 222 223 224 224 222 220 222 
223 223 222 223 224 225 222 222 224 222 223 222 222 223 224 223 
222 223 225 222 221 222 223 222 222 222 223 223 223 224 223 223 
222 223 223 222 222 222 223 224 224 222 222 223 223 222 225 222 
223 225 226 226 222 225 226 225 226 226 224 224 225 224 224 224 
224 223 224 223 224 223 221 222 222 222 223 180 225 224 224 225 
225 225 225 220 221 219 219 216 219 216 218 158 226 224 222 222 222 223 224 223 
223 221 223 222 221 223 222 222 220 223 222 223 224 223 223 222 
222 224 224 220 220 221 221 221 221 222 221 221 221 221 223 223 
223 222 223 224 224 223 222 223 223 223 223 222 220 224 225 225 
226 226 224 224 223 225 225 225 227 227 224 225 226 225 225 226 
225 223 223 223 223 224 221 221 223 225 215 194 224 224 224 225 
224 224 227 220 221 221 220 221 219 220 218 135 219 222 220 223 224 222 223 223 
223 223 222 223 224 222 224 224 224 224 222 222 222 221 222 222 
222 223 222 222 222 222 221 221 222 219 221 220 220 223 223 223 
225 223 224 227 224 225 225 224 224 224 223 225 224 224 221 224 
225 226 225 226 223 224 224 224 226 225 225 224 227 225 224 226 
224 224 224 225 222 221 223 222 224 225 188 218 222 224 224 223 
224 224 225 220 222 221 221 220 220 221 222 167 190 223 224 222 224 225 223 223 
223 224 224 222 223 221 222 223 224 225 223 220 222 223 223 223 
222 222 221 221 221 221 221 222 220 222 221 220 225 225 225 227 
227 224 229 229 230 229 227 227 226 225 223 222 223 224 223 225 
224 223 224 224 223 224 224 225 225 225 225 225 225 226 223 224 
224 222 223 223 223 222 221 222 220 224 175 225 224 223 225 224 
225 222 224 219 222 222 222 218 220 221 219 215 159 225 221 222 222 223 224 222 
221 223 223 225 223 225 224 223 223 223 222 223 224 223 223 223 
222 221 221 223 221 220 222 220 222 223 224 222 221 220 224 221 
185 188 186 158 174 173 192 209 228 228 227 226 223 222 224 223 
223 227 226 224 225 226 224 224 225 223 224 223 224 223 225 223 
221 222 222 221 221 223 224 221 223 206 193 223 224 224 223 225 
225 221 224 222 222 222 223 220 220 219 221 219 167 212 223 227 224 224 223 223 
222 221 222 223 225 223 225 224 226 224 222 224 222 222 223 223 
223 221 221 221 222 222 221 221 225 226 224 210 180 143 145 141 
155 181 182 190 190 166 151 127 142 148 209 226 225 224 221 222 
225 224 225 225 225 224 224 223 224 225 223 222 222 222 223 223 
222 225 223 223 224 223 222 223 226 173 220 224 223 224 224 224 
225 223 226 221 221 220 221 220 221 223 222 221 207 165 222 221 225 225 224 223 
224 226 223 225 223 222 223 224 224 223 223 224 222 220 221 222 
221 221 221 220 221 222 224 222 219 203 155 112 147 188 221 230 
232 230 229 230 231 229 230 226 219 180 144 134 187 219 220 225 
226 224 224 224 224 224 223 224 223 223 223 222 222 222 224 224 
223 222 222 223 224 224 220 225 214 182 225 224 225 223 225 224 
223 224 222 221 220 220 222 220 220 220 222 219 223 165 220 224 224 224 224 222 
224 222 224 223 223 223 225 223 223 223 223 223 221 222 214 209 
222 222 221 223 225 226 211 181 125 142 182 223 227 227 227 225 
222 227 223 225 225 225 227 227 227 231 221 191 133 135 167 219 
226 226 224 223 223 224 224 225 224 224 224 223 224 222 223 222 
222 223 223 221 224 225 223 227 179 223 225 224 223 223 221 222 
221 225 226 220 220 220 220 220 221 221 220 221 224 207 178 227 225 224 222 225 
223 222 223 223 223 226 222 223 223 222 221 223 222 219 205 197 
222 222 225 227 219 158 128 177 215 227 229 225 223 223 221 225 
223 224 224 223 225 224 224 222 226 226 223 226 227 207 163 126 
195 227 228 225 224 224 225 224 225 223 224 223 224 223 223 221 
222 223 223 223 224 224 224 218 168 226 224 223 223 224 223 222 
224 223 223 223 222 221 220 221 220 220 220 218 222 223 175 218 224 225 225 223 
223 224 223 223 223 222 223 223 223 223 222 222 222 221 221 225 
222 225 222 168 137 194 227 226 226 224 224 221 220 221 223 223 
223 223 224 223 224 224 221 221 224 222 223 223 226 228 227 195 
127 180 227 226 225 225 224 224 225 226 223 221 220 221 221 223 
223 222 221 223 223 222 224 165 209 226 226 225 224 223 224 225 
224 223 225 221 220 221 220 221 221 223 222 221 220 221 204 171 228 221 221 224 
223 223 224 224 224 224 223 222 223 222 222 219 222 222 221 222 
225 216 144 167 221 225 225 224 224 223 222 221 219 222 220 221 
222 220 222 224 223 223 223 224 228 224 223 221 223 225 225 224 
224 151 186 227 224 223 224 224 225 225 222 221 221 222 220 220 
219 221 221 222 223 222 179 187 226 224 224 224 224 222 224 223 
224 224 224 220 222 220 221 222 222 223 221 221 221 222 226 170 214 225 224 223 
223 223 222 221 223 221 223 224 223 223 222 224 222 222 221 224 
198 143 197 226 225 223 223 221 223 225 222 223 222 218 221 221 
223 221 221 222 223 223 226 225 224 224 224 223 221 222 225 225 
227 224 149 188 227 226 223 224 224 227 225 223 223 223 222 220 
220 219 220 220 223 213 176 224 225 222 222 223 225 223 223 224 
223 225 223 223 220 220 221 219 221 221 222 222 221 222 222 217 160 224 223 223 
223 223 223 225 223 223 223 222 223 223 221 225 224 222 228 184 
150 218 231 225 224 222 222 222 223 224 225 223 221 223 222 223 
223 222 224 225 223 224 225 223 225 224 224 223 222 223 224 223 
223 226 222 142 206 226 224 223 224 225 223 222 222 222 221 221 
221 220 218 222 224 165 216 224 223 223 224 224 225 224 223 224 
224 224 225 219 221 220 220 221 221 221 222 221 221 222 221 219 193 184 224 222 
223 221 220 222 221 222 222 222 223 221 221 224 224 225 199 144 
224 225 225 223 223 224 223 222 223 223 222 222 223 227 225 224 
224 223 227 223 224 224 224 222 224 225 225 221 225 225 224 224 
222 222 227 214 147 228 224 224 222 223 225 224 223 220 223 223 
223 222 221 223 190 195 227 226 224 224 224 223 223 224 223 225 
225 223 224 218 223 219 220 220 222 219 220 219 221 221 221 221 220 166 206 226 
221 221 223 223 223 223 223 222 222 222 222 223 224 226 153 206 
228 224 223 225 224 223 223 223 223 223 223 223 224 225 224 222 
223 224 221 221 222 224 225 225 225 224 226 226 223 222 223 223 
222 221 223 226 175 200 225 223 223 226 225 222 223 222 223 224 
223 225 228 192 153 231 224 225 224 224 224 224 223 222 223 223 
224 225 224 221 218 221 220 220 220 220 220 219 221 219 217 219 222 210 162 223 
225 221 222 223 221 224 222 223 222 222 221 220 222 222 156 229 
224 224 223 223 222 224 222 223 224 223 222 223 224 222 221 224 
224 223 224 223 223 222 224 225 225 225 222 225 224 225 224 222 
222 223 222 222 220 224 224 225 223 223 224 224 225 223 223 224 
225 227 198 129 225 226 224 226 223 223 223 223 224 225 224 225 
224 225 224 220 220 219 219 219 220 221 221 221 219 222 218 220 221 220 199 165 
225 223 220 223 222 222 220 221 224 223 222 221 222 221 227 224 
225 223 224 224 223 223 223 223 224 225 222 223 223 224 225 224 
222 224 225 224 222 223 224 224 224 223 224 223 225 226 224 222 
222 223 222 222 223 223 225 223 224 222 223 225 226 223 223 223 
229 179 135 217 228 224 224 224 225 225 224 224 224 225 225 225 
224 225 222 220 221 220 220 219 222 220 220 220 221 221 219 221 220 218 222 172 
180 224 222 223 220 220 225 222 223 223 222 222 221 223 225 226 
223 224 222 222 222 223 223 226 224 223 224 223 223 223 223 224 
224 223 223 222 223 222 224 224 224 223 224 224 223 222 224 224 
223 222 224 223 223 223 222 223 225 225 223 224 224 223 224 230 
196 145 222 229 226 224 224 225 224 224 224 225 226 225 225 224 
222 223 225 220 220 220 221 220 219 221 221 220 219 219 220 222 221 219 219 220 
167 185 224 221 220 222 220 219 221 220 221 223 223 222 223 221 
222 223 223 222 222 223 224 220 223 224 222 225 223 222 224 223 
223 223 224 222 224 223 225 224 224 223 225 224 225 223 223 223 
223 224 222 222 223 223 224 224 223 223 222 224 224 223 230 203 
160 226 229 226 225 225 223 223 225 224 224 223 224 225 224 226 
225 223 226 220 220 220 221 220 219 219 221 220 219 221 219 222 220 220 219 221 
222 153 166 220 220 219 221 222 222 224 221 222 221 222 222 224 
224 223 221 223 223 222 224 222 224 221 223 222 223 224 224 223 
224 224 223 223 224 224 224 224 224 223 222 223 224 223 223 222 
221 223 223 224 222 223 224 224 224 224 223 220 224 227 207 158 
223 229 227 224 224 223 224 223 224 224 226 227 224 222 224 224 
225 225 225 221 220 219 220 220 221 221 221 219 220 220 217 221 220 221 222 221 
221 220 165 181 227 224 222 220 221 218 220 220 219 222 222 223 
224 223 223 222 223 223 221 221 221 222 223 223 224 220 223 223 
222 224 224 224 223 223 224 226 225 223 224 223 224 223 223 221 
223 223 222 221 223 222 223 221 223 224 225 225 226 197 159 225 
229 226 225 225 225 224 224 224 224 224 224 224 225 225 224 225 
225 225 226 220 219 220 220 221 219 219 219 221 216 219 220 220 221 221 219 219 
217 218 218 167 171 220 225 221 219 223 220 221 220 220 221 222 
220 223 223 222 223 223 223 223 223 224 224 224 222 222 222 224 
224 223 222 222 223 224 224 220 222 223 222 223 223 223 224 223 
224 223 223 223 224 223 224 222 223 226 227 225 175 171 227 229 
225 224 224 226 225 224 225 225 225 224 224 223 223 225 226 225 
225 223 224 219 220 220 220 219 219 218 220 219 219 220 220 219 219 220 219 220 
216 215 217 219 171 153 218 223 222 222 222 220 220 221 219 219 
219 222 221 222 222 223 222 224 224 222 224 222 224 223 223 223 
223 223 223 225 223 224 225 225 224 223 224 222 223 222 223 226 
222 222 222 223 223 224 224 223 224 227 226 167 172 226 229 226 
225 227 226 223 225 225 223 223 224 223 223 224 224 226 226 224 
224 223 223 220 220 219 221 221 221 221 219 220 219 220 218 220 218 219 215 219 
219 213 213 219 220 191 146 209 227 220 220 220 219 219 219 221 
223 220 221 220 222 221 220 222 222 221 224 222 222 223 225 223 
223 222 223 224 222 224 221 223 224 223 224 223 222 222 222 221 
220 222 223 221 223 225 224 224 227 215 149 187 231 227 227 225 
224 227 224 226 225 225 225 225 224 224 226 224 223 224 226 224 
225 225 224 220 220 220 220 219 218 220 219 219 219 218 221 221 220 216 220 216 
217 216 214 215 217 224 206 148 189 220 221 220 221 219 220 220 
219 220 220 220 219 219 220 221 221 221 222 223 223 222 220 223 
225 225 224 222 224 222 224 223 222 223 221 223 224 224 224 223 
223 224 221 223 224 225 227 224 199 163 208 229 227 224 225 226 
225 225 225 224 224 225 226 225 223 224 224 225 225 224 225 225 
225 224 223 220 219 219 219 219 219 220 219 219 221 218 220 219 219 219 217 217 
216 216 217 217 220 220 224 219 166 149 203 223 222 220 219 220 
221 218 216 220 220 220 218 218 220 222 221 223 223 222 222 222 
222 220 222 224 224 222 222 222 223 221 222 222 221 221 221 221 
224 222 223 226 227 230 214 151 181 224 227 225 226 225 226 227 
226 224 224 227 225 226 225 224 225 226 224 225 224 225 226 226 
225 225 223 219 220 221 220 222 216 218 218 218 219 219 220 219 218 218 219 215 
218 218 217 218 219 214 217 222 223 197 149 164 211 221 223 219 
216 217 219 219 217 219 218 219 219 221 222 221 222 223 223 222 
222 222 222 222 223 222 222 222 222 223 222 221 222 221 221 221 
224 225 223 225 221 165 166 195 227 227 226 225 224 227 226 225 
225 227 227 226 225 227 225 224 222 223 224 224 224 224 225 225 
226 225 224 220 220 221 221 221 222 218 220 218 218 221 219 219 220 218 219 218 
216 218 219 215 218 218 220 219 220 225 223 204 161 163 205 220 
219 221 219 219 219 217 221 222 217 220 221 222 222 220 222 222 
222 223 223 222 222 220 223 223 222 222 221 221 222 222 225 224 
225 225 217 174 135 186 227 226 223 226 225 225 226 226 226 226 
226 226 224 225 225 229 226 226 226 225 225 224 224 225 225 225 
225 224 224 219 219 218 219 216 217 219 219 219 220 220 219 218 220 218 220 218 
217 217 216 217 218 217 220 220 219 219 221 220 220 208 167 171 
207 223 223 219 221 217 216 218 220 222 221 221 222 223 221 222 
222 222 222 222 221 221 221 222 222 224 224 223 223 225 226 220 
175 144 136 169 226 230 228 227 224 225 224 225 226 225 227 227 
228 226 226 226 227 228 226 225 224 225 224 224 225 225 224 224 
224 224 225 216 219 220 219 219 217 218 220 219 218 218 218 218 219 219 218 218 
219 216 217 217 217 218 218 215 217 218 219 220 219 218 217 203 
164 145 173 209 222 221 218 222 222 221 219 219 223 222 221 223 
223 222 222 222 223 223 224 224 225 224 228 229 211 185 144 141 
180 204 221 227 229 227 223 224 225 225 226 226 225 224 226 226 
226 225 226 225 225 227 226 225 224 226 225 225 224 225 224 224 
222 225 224 220 218 219 217 219 219 218 217 218 218 219 219 218 218 219 219 218 
219 217 216 215 217 216 215 216 216 216 218 216 216 216 218 220 
222 212 183 152 142 180 193 217 218 222 219 221 224 227 225 223 
223 222 224 225 225 224 227 224 220 212 176 159 152 177 206 220 
223 227 225 226 225 225 226 225 225 226 226 225 226 226 224 225 
227 226 225 225 225 225 227 226 226 223 224 225 224 224 224 224 
224 225 226 218 218 217 218 220 216 217 216 218 219 219 217 220 218 218 219 220 
221 218 216 215 216 217 218 217 216 216 218 216 215 215 217 219 
218 217 223 223 213 195 177 162 156 179 199 191 195 205 210 219 
210 217 206 195 189 183 164 146 145 158 181 211 220 226 228 227 
228 226 225 225 224 224 223 225 226 226 225 226 226 226 226 225 
225 227 225 227 226 227 226 226 224 227 224 224 224 223 225 225 
224 223 223 217 218 218 216 214 217 216 214 217 217 218 217 215 219 217 218 220 
219 218 218 218 217 219 217 216 218 217 219 216 215 215 214 219 
217 217 217 217 219 221 222 218 211 198 177 157 119 127 128 120 
114 125 124 126 134 139 201 216 220 223 228 226 226 224 223 224 
225 225 225 226 224 225 225 224 223 225 226 225 224 224 226 226 
226 225 226 226 226 227 225 225 223 224 226 225 225 224 223 224 
224 226 224 215 218 214 213 214 217 213 213 217 218 216 215 219 219 219 219 217 
217 217 218 217 216 215 217 218 218 217 218 218 216 217 216 217 
218 216 216 217 220 219 217 219 220 219 220 221 220 220 219 220 
220 223 223 223 222 225 225 223 224 228 224 222 223 224 223 225 
224 225 224 223 224 224 223 224 224 225 225 225 226 225 224 225 
226 226 226 226 226 224 225 226 226 225 226 225 224 224 224 223 
225 223 224 214 213 214 214 216 215 214 214 217 215 216 214 213 216 215 218 219 
218 216 215 216 220 217 217 216 216 217 218 216 218 216 216 217 
215 217 216 217 214 216 217 218 218 219 221 220 223 221 225 224 
224 228 224 225 226 226 224 222 224 224 224 223 223 224 225 223 
224 223 224 225 225 223 223 224 225 224 224 225 224 226 226 226 
227 226 226 225 225 225 225 224 224 225 224 225 225 224 223 224 
224 223 223 214 216 216 214 216 215 213 213 214 215 217 215 216 216 217 219 217 
215 219 217 217 217 218 217 218 216 217 217 218 216 218 217 219 
216 217 216 217 218 217 218 219 219 218 219 220 221 221 219 221 
220 220 223 222 223 222 223 223 224 223 222 222 223 223 221 223 
223 224 224 224 223 223 223 222 224 226 225 225 224 223 226 226 
227 226 224 225 225 225 225 225 225 225 225 224 225 224 223 224 
223 224 223 215 215 213 213 212 211 213 213 212 213 214 214 216 217 217 217 219 
219 220 218 215 215 217 216 215 218 217 217 216 216 217 217 216 
218 216 219 217 218 216 218 219 218 220 219 219 222 221 221 221 
224 222 222 221 221 221 222 222 223 222 222 222 222 223 224 223 
223 223 222 222 224 223 221 223 224 222 225 225 224 225 224 224 
224 225 226 225 226 224 225 224 226 225 225 225 224 225 224 223 
222 223 223 215 213 213 213 213 211 212 214 209 213 212 215 215 215 216 216 215 
216 215 216 216 218 218 217 219 219 216 216 216 217 217 216 216 
217 218 217 217 218 221 216 219 220 218 218 219 218 220 221 221 
217 219 220 219 221 222 222 221 223 225 223 222 222 222 222 222 
222 222 222 222 222 224 221 222 224 225 223 225 225 223 226 225 
226 226 223 225 226 225 224 224 225 226 225 224 225 224 222 224 
224 225 222 213 211 212 211 213 210 208 210 209 211 214 215 215 215 215 215 217 
215 217 215 218 216 215 216 216 215 215 215 217 216 216 218 218 
215 216 216 215 218 216 217 217 217 218 221 218 218 218 220 221 
221 222 221 223 221 221 222 222 221 221 221 220 222 221 221 221 
221 221 222 222 222 223 224 222 220 223 224 224 224 225 224 226 
228 227 225 221 220 224 226 224 223 223 226 223 223 222 223 223 
222 224 224 213 212 212 213 212 212 212 213 211 211 210 213 217 214 214 217 215 
217 215 215 216 215 214 215 215 217 215 217 218 216 217 217 217 
217 219 217 216 213 219 216 219 219 219 220 220 218 219 218 220 
218 219 221 221 222 221 221 221 221 221 221 222 221 218 221 222 
223 223 221 222 223 223 223 222 221 222 222 222 225 225 225 225 
227 225 223 225 226 225 223 222 224 224 225 225 225 225 223 223 
222 223 223 214 211 213 211 208 214 212 210 211 212 212 214 212 212 213 215 215 
214 213 215 216 215 213 217 214 217 218 217 218 217 217 216 217 
217 217 216 218 219 216 217 218 216 219 217 216 220 220 220 221 
220 220 219 221 222 220 218 219 221 222 220 221 220 219 221 222 
222 221 223 222 223 222 223 222 222 222 218 222 225 225 226 224 
225 225 224 224 223 222 224 223 224 224 224 223 223 221 223 223 
223 222 222 