P2
# Created by IrfanView
100 100
255
219 219 219 220 218 219 218 218 218 218 218 219 216 217 220 215 217 
218 218 216 215 216 218 213 215 214 215 216 213 213 214 216 215 
215 214 212 212 213 212 211 213 211 212 209 211 212 212 213 212 
212 211 211 211 211 212 212 212 210 209 208 208 210 213 212 212 
213 213 212 212 213 212 211 211 212 211 213 213 213 212 213 211 
211 213 212 210 211 209 210 208 207 208 206 205 208 209 208 207 
209 207 209 217 219 219 219 219 219 219 219 218 218 219 217 218 219 218 218 219 
218 218 220 219 217 217 218 213 216 215 214 214 215 215 215 216 
216 215 215 212 212 212 212 213 215 212 212 210 212 212 213 212 
212 211 212 210 210 212 210 210 213 212 211 212 211 212 212 213 
213 212 213 213 212 212 213 213 213 211 211 213 211 212 213 211 
212 214 216 214 214 213 208 210 208 210 209 209 207 207 208 209 
209 208 207 217 220 221 219 219 220 217 219 220 219 219 220 218 217 217 219 219 
219 218 217 217 217 215 217 217 217 216 217 215 214 217 216 216 
219 216 212 213 214 216 213 212 212 212 212 212 213 213 210 213 
212 212 212 213 212 211 213 212 212 212 212 212 213 212 213 212 
211 211 212 213 213 212 213 213 213 214 213 210 213 211 213 213 
213 213 213 215 215 212 212 210 209 208 208 207 209 209 209 208 
206 208 207 221 220 220 219 220 220 222 220 219 219 219 220 220 220 220 218 217 
218 217 219 215 217 220 219 216 216 215 216 215 214 214 214 217 
217 216 214 214 214 213 212 212 213 212 212 212 212 213 213 210 
213 212 213 212 213 213 212 211 214 213 213 212 213 213 213 213 
213 213 212 212 213 212 213 213 213 213 213 214 212 213 213 213 
212 215 214 216 214 212 212 211 210 209 210 211 208 207 208 206 
208 206 208 220 221 221 220 219 220 218 221 221 220 219 219 220 219 220 221 221 
220 221 220 220 219 218 219 218 218 215 216 216 217 216 216 217 
216 216 214 214 215 212 212 213 213 213 212 212 214 212 213 213 
214 212 211 212 211 212 210 212 212 213 212 212 212 214 214 213 
214 217 212 214 213 213 212 213 212 212 213 213 213 213 213 213 
213 213 212 213 213 212 212 209 210 212 212 212 209 209 208 207 
208 208 208 221 221 221 221 221 221 222 221 221 221 221 220 220 221 221 221 220 
221 222 220 221 221 217 220 219 217 218 217 216 215 215 217 217 
218 216 215 215 214 215 215 214 214 214 214 214 213 212 215 213 
212 212 212 214 213 213 214 214 211 213 213 213 211 210 215 215 
213 215 211 214 215 214 212 212 213 213 214 213 215 213 213 213 
213 213 211 213 213 211 211 211 212 213 213 213 211 211 212 209 
208 208 208 222 221 221 223 222 222 221 221 221 220 220 221 221 221 221 221 221 
221 221 219 219 219 218 219 220 218 219 220 216 214 216 215 216 
216 219 216 214 213 214 216 214 213 215 215 215 214 214 215 215 
216 216 219 216 215 214 216 218 213 213 214 214 214 214 209 211 
212 213 215 215 215 214 215 215 214 214 213 211 212 212 213 214 
212 216 213 213 213 215 212 211 209 210 211 213 211 212 211 210 
208 209 208 222 222 224 222 221 223 222 222 221 221 221 221 222 221 221 222 222 
222 220 220 224 222 220 221 222 219 218 217 218 218 215 216 217 
216 218 217 214 213 217 217 215 216 218 216 217 219 216 213 213 
220 213 209 209 210 214 215 215 219 218 216 216 216 217 218 211 
212 213 212 214 215 215 213 215 214 214 214 214 212 214 213 213 
215 214 214 215 213 214 212 212 216 212 211 212 212 212 213 208 
208 207 208 223 224 223 221 223 222 222 225 221 222 222 224 222 221 223 222 223 
222 221 222 221 223 222 223 222 221 219 217 217 216 222 215 217 
216 215 215 217 218 218 219 220 213 196 190 165 171 163 151 137 
136 125 125 127 120 132 127 134 158 175 201 218 219 221 218 217 
215 215 214 214 213 214 212 213 214 214 218 215 214 213 214 213 
215 215 216 213 214 213 213 214 212 212 212 212 212 209 209 212 
209 211 207 225 224 224 224 222 223 223 224 225 222 223 222 222 223 223 223 224 
222 224 223 223 223 221 221 222 220 219 215 219 217 217 215 215 
217 219 218 221 219 191 165 149 155 168 188 212 220 218 220 221 
227 223 224 223 217 218 216 216 186 153 123 126 130 162 209 216 
218 215 215 216 214 213 213 213 216 213 214 214 212 214 214 213 
212 214 215 214 213 212 212 212 214 212 212 211 209 209 209 211 
211 211 211 226 226 224 224 224 224 223 227 223 223 221 222 222 223 224 224 225 
225 226 227 225 224 223 222 220 221 220 215 216 219 218 219 218 
220 215 200 147 153 170 198 219 226 224 222 223 221 219 222 222 
222 222 222 221 223 221 222 223 223 223 225 223 213 160 129 128 
161 203 220 220 214 216 214 215 214 214 212 214 214 214 214 210 
216 217 215 214 213 213 213 213 213 213 212 213 211 211 211 212 
211 213 210 227 225 226 224 225 224 222 222 224 224 225 227 226 224 225 225 224 
222 225 230 224 224 223 225 223 220 221 217 216 217 220 222 212 
173 129 138 187 219 222 222 221 222 224 219 221 222 219 221 222 
222 221 218 218 222 222 220 220 222 221 222 224 222 225 225 215 
161 123 147 185 214 218 219 213 216 213 215 214 215 214 213 216 
215 214 214 218 218 214 214 213 213 213 213 213 213 212 212 213 
212 210 209 226 224 226 225 224 224 222 223 225 225 223 223 222 225 224 226 226 
224 226 228 227 225 223 221 221 221 219 219 218 221 205 153 125 
179 212 218 222 224 222 223 223 222 222 222 220 221 222 221 222 
222 220 218 220 222 221 221 218 221 219 218 218 219 219 223 221 
220 219 204 147 125 193 220 217 219 215 212 214 212 213 214 212 
217 215 213 214 215 216 214 217 216 216 213 215 214 213 213 209 
210 212 211 227 224 224 226 226 225 226 224 224 227 225 226 224 224 225 227 228 
227 226 229 224 223 224 222 222 221 222 217 217 168 123 185 221 
218 222 223 225 221 221 222 221 221 220 223 222 220 218 220 222 
219 221 219 220 221 220 220 220 220 221 219 220 220 221 219 222 
221 221 221 222 206 151 117 188 218 214 214 214 215 215 215 213 
218 220 220 217 215 216 218 217 216 216 215 214 214 215 214 215 
214 214 213 224 225 226 226 227 225 224 225 226 225 225 224 226 224 227 222 225 
227 225 225 225 223 225 225 225 219 224 189 135 167 213 218 219 
222 224 223 222 223 222 221 221 222 221 221 221 221 222 224 222 
222 221 220 219 221 219 218 220 221 220 218 217 218 219 221 222 
221 219 219 217 220 223 190 151 136 203 223 213 217 215 214 214 
218 223 220 219 221 217 220 218 216 216 216 217 217 213 214 215 
214 215 215 225 226 223 224 227 226 226 225 225 225 223 224 225 226 224 226 225 
223 224 223 224 225 226 223 203 180 135 158 215 214 219 223 222 
223 221 222 222 223 222 222 223 223 224 224 222 223 220 219 221 
221 221 221 221 222 222 222 220 220 217 221 219 218 219 221 221 
219 221 221 218 218 217 224 227 202 122 190 219 216 215 214 214 
216 220 220 221 221 219 220 219 216 214 216 216 217 215 215 218 
217 215 214 227 226 225 226 225 227 225 225 225 226 225 225 224 224 225 226 223 
223 223 223 226 227 213 174 148 116 188 213 219 221 223 222 224 
225 222 223 224 224 223 222 223 223 223 222 222 223 222 222 221 
221 222 219 221 221 221 220 218 219 219 221 221 221 220 218 221 
220 218 218 217 218 219 218 218 223 217 159 138 208 219 215 214 
214 220 218 221 222 221 218 215 215 218 217 216 218 217 216 216 
216 216 213 226 227 226 225 226 227 226 225 225 225 225 224 223 225 225 225 222 
223 220 221 223 213 163 106 135 209 220 221 224 223 222 224 221 
222 224 224 224 225 223 222 223 224 222 222 222 221 221 223 224 
222 221 222 223 226 220 221 221 221 220 221 221 219 218 222 222 
221 219 221 220 219 220 219 219 221 221 224 183 125 189 215 215 
216 219 221 218 221 221 219 218 218 218 217 217 220 218 218 216 
215 215 215 227 225 226 226 224 227 226 226 225 226 226 225 225 225 224 224 225 
221 224 223 210 162 101 150 213 221 224 223 223 224 225 224 225 
225 224 224 226 225 224 223 223 223 223 223 222 223 222 223 223 
223 222 223 221 223 222 222 220 221 221 221 221 222 221 221 221 
221 223 220 220 219 219 218 220 220 220 221 225 208 119 156 217 
218 219 220 220 222 219 219 220 221 218 218 218 218 220 218 214 
215 216 217 224 226 225 225 227 227 227 225 224 225 224 225 225 225 226 225 223 
222 223 222 169 132 174 211 223 222 224 226 226 225 224 224 226 
227 225 224 228 225 225 224 224 223 223 223 224 221 225 223 222 
224 223 223 222 222 222 221 222 222 221 221 222 223 221 222 221 
222 220 221 220 219 221 225 220 221 221 220 219 223 215 124 156 
218 216 217 219 218 219 219 219 220 218 219 218 218 220 217 218 
219 218 217 227 228 225 225 226 227 228 226 225 225 223 224 226 225 224 224 224 
225 223 181 125 160 210 226 227 225 223 222 222 224 223 224 224 
225 225 223 225 223 223 227 226 223 223 222 223 223 224 225 223 
222 222 222 222 222 222 221 218 221 223 222 222 223 222 221 221 
221 221 222 223 223 221 222 221 222 220 218 217 219 222 216 139 
152 217 219 218 222 220 218 219 220 218 218 219 217 215 218 218 
216 217 218 228 227 227 226 226 226 226 226 226 223 225 225 223 222 223 222 224 
230 187 136 137 197 227 227 226 224 226 226 225 225 227 225 224 
224 224 224 223 225 224 220 222 223 222 223 222 223 223 223 223 
224 223 223 222 223 221 225 222 222 220 222 221 222 222 222 222 
222 224 223 221 222 222 224 221 221 219 219 218 215 218 218 222 
160 150 222 221 220 219 219 219 220 219 221 221 217 219 220 219 
218 218 218 226 228 224 226 226 226 226 225 227 227 224 224 225 224 224 223 226 
207 120 147 191 225 226 224 225 223 223 227 225 226 225 225 225 
226 224 226 226 225 224 224 225 224 223 224 224 223 224 222 222 
222 222 223 223 222 224 223 223 223 223 223 222 222 223 222 222 
223 222 219 224 221 220 222 220 222 219 216 218 218 217 216 216 
225 147 151 225 220 219 219 219 219 218 217 218 220 220 218 219 
219 221 220 227 227 227 227 227 227 226 224 224 224 224 224 225 224 225 226 228 
140 113 192 226 227 225 226 225 226 227 226 227 227 226 227 224 
225 226 224 225 224 226 226 227 225 224 223 224 223 224 223 223 
224 223 223 221 224 222 223 222 221 222 223 222 222 222 223 223 
222 222 224 223 222 222 220 223 220 220 219 219 218 219 217 218 
217 221 133 166 220 220 220 221 220 219 221 220 220 220 219 220 
220 220 218 226 227 226 224 224 225 226 226 227 225 226 225 224 226 225 227 156 
132 156 222 226 225 225 225 226 226 226 225 226 226 227 228 226 
226 226 226 225 226 225 226 227 226 226 224 224 224 223 223 223 
223 223 224 223 222 225 221 223 222 221 222 222 222 222 222 222 
221 223 225 223 222 222 221 222 221 219 222 219 217 217 215 216 
216 217 214 105 176 221 219 221 219 219 217 219 220 219 221 219 
219 221 219 226 228 225 226 227 226 224 226 225 224 225 227 227 224 229 196 149 
148 228 229 226 225 226 227 226 226 226 226 225 228 228 229 228 
227 225 227 226 226 227 225 225 227 225 225 225 225 224 224 224 
224 223 223 224 226 223 223 223 223 224 222 223 223 223 221 223 
223 224 220 219 223 222 222 223 221 221 222 222 219 218 217 218 
216 216 219 211 109 203 217 218 220 220 218 221 220 221 218 220 
221 220 221 228 227 225 227 226 226 226 225 226 226 228 225 225 224 222 159 149 
200 230 227 226 227 228 227 227 227 228 228 227 228 229 227 226 
225 226 226 227 227 227 226 225 223 227 226 225 226 223 224 224 
223 225 223 223 225 223 223 221 223 221 222 222 221 223 222 223 
224 222 223 224 224 226 225 225 222 222 222 222 222 220 219 218 
216 216 215 221 194 119 219 220 219 220 220 221 221 222 220 220 
222 222 219 226 227 227 227 225 225 226 226 225 225 226 225 226 228 170 153 148 
228 228 225 227 227 226 226 227 226 226 226 227 227 226 225 228 
227 227 226 226 227 226 227 227 228 226 226 225 226 224 225 224 
225 226 227 225 224 224 223 223 223 222 223 222 222 222 224 223 
223 223 222 223 226 225 224 225 225 223 220 222 221 219 218 220 
218 217 217 217 226 148 191 223 222 220 220 220 220 219 220 219 
221 222 223 227 228 226 226 228 224 224 225 224 226 228 228 226 219 144 116 209 
230 229 228 227 226 227 228 228 226 227 227 225 225 228 227 226 
227 228 227 227 227 231 229 227 227 227 226 227 229 225 224 225 
225 223 223 223 225 224 222 223 223 223 222 224 225 222 223 223 
222 224 224 223 224 222 221 224 225 224 222 223 221 222 220 221 
221 218 218 216 220 179 128 218 221 221 221 220 222 222 223 222 
221 222 221 227 228 227 226 228 227 227 225 226 225 223 228 227 197 124 166 231 
228 227 225 227 226 226 227 228 225 226 228 226 229 228 228 227 
226 228 230 228 228 228 228 228 228 229 226 226 225 225 225 229 
227 224 224 224 224 225 222 223 223 225 224 223 223 225 222 223 
223 222 223 225 223 224 223 225 224 224 223 220 223 221 223 221 
222 219 218 217 219 227 165 151 225 222 221 222 222 222 220 222 
223 223 224 227 227 229 227 228 226 228 227 224 225 226 227 230 197 131 220 228 
227 226 229 227 226 227 227 227 228 226 228 227 227 228 225 227 
229 229 229 230 229 228 228 228 230 229 227 226 227 225 226 227 
225 225 224 226 227 226 225 221 223 222 225 223 223 222 223 224 
224 224 224 223 225 225 227 226 223 223 222 222 222 221 222 223 
223 219 218 219 222 221 214 100 197 224 223 222 222 221 221 222 
223 223 221 227 226 224 227 229 227 229 225 224 225 225 227 229 137 193 233 227 
228 228 228 227 227 226 227 227 226 226 224 225 227 226 225 229 
227 221 198 206 228 226 228 226 229 227 227 228 227 227 225 226 
229 228 225 224 223 225 226 226 224 222 222 224 224 225 223 223 
222 222 222 223 221 224 226 229 226 224 221 223 222 222 224 223 
223 223 222 222 222 220 224 147 172 225 222 223 223 222 223 224 
221 223 223 229 229 229 226 227 227 228 227 226 225 226 227 219 139 225 227 227 
227 228 228 224 225 226 226 227 226 226 226 227 225 223 226 200 
138 90 98 136 184 227 227 229 229 229 227 227 228 227 225 229 
227 222 225 224 225 226 224 223 223 225 225 225 224 223 223 222 
223 222 221 222 224 211 181 209 229 226 224 224 223 222 224 224 
224 220 223 222 222 220 222 191 94 214 223 222 224 223 223 223 
222 224 222 227 226 227 228 227 228 226 226 226 226 226 230 175 176 229 228 228 
228 227 226 228 227 228 227 226 226 226 226 230 224 221 222 131 
82 78 86 106 163 228 228 226 227 228 228 229 226 228 228 227 
225 230 227 227 225 226 222 223 224 225 223 223 225 225 223 222 
222 224 221 223 223 139 132 120 197 225 224 225 224 224 223 223 
222 223 223 221 221 219 218 225 144 144 226 222 221 221 223 223 
224 223 224 228 227 228 230 228 226 228 228 228 227 226 225 148 226 227 228 227 
230 230 227 226 226 226 227 225 229 227 225 225 225 221 187 81 
84 99 92 102 171 228 230 229 228 229 228 228 228 227 228 226 
225 224 225 227 226 227 225 226 225 222 224 224 225 224 223 224 
223 224 223 218 136 89 103 79 120 230 224 224 224 225 224 224 
223 223 225 224 222 223 222 222 186 123 226 224 225 225 223 223 
224 224 224 229 228 226 225 226 226 229 227 225 224 227 190 200 230 227 227 229 
229 228 228 227 227 228 226 226 226 228 227 228 226 226 140 89 
113 94 103 103 207 227 228 229 229 228 228 227 227 227 226 226 
226 227 225 228 226 225 226 226 223 226 225 223 224 225 222 221 
222 225 220 149 95 121 107 116 82 218 225 225 224 223 225 225 
224 225 223 222 223 223 224 219 223 141 220 225 224 223 224 224 
224 223 224 229 228 228 225 226 227 228 227 226 223 226 168 232 228 227 228 225 
229 228 228 225 226 227 226 225 226 227 228 228 228 222 119 76 
142 96 102 111 210 224 228 227 227 227 229 227 228 229 229 228 
227 225 229 224 227 226 224 226 227 226 224 226 225 224 222 222 
223 224 222 146 110 121 124 114 77 197 227 225 226 224 225 226 
225 224 223 223 224 224 223 221 220 171 176 226 223 222 223 223 
223 224 225 231 230 226 227 227 226 228 228 225 229 206 182 228 227 226 228 229 
227 228 228 226 227 225 226 226 227 225 228 226 225 223 107 74 
126 97 94 147 231 226 226 228 228 228 229 230 228 229 229 227 
228 228 228 227 226 227 226 225 225 227 226 226 225 225 224 223 
222 222 219 142 120 110 149 116 92 198 227 224 224 226 225 226 
226 227 224 226 226 222 223 224 224 219 143 223 222 224 224 224 
223 226 225 229 231 230 225 227 228 229 226 227 226 181 217 228 228 229 230 228 
228 227 227 227 227 228 226 226 226 226 226 226 227 218 103 77 
112 82 96 186 229 227 228 229 229 228 228 228 227 227 227 226 
227 228 229 227 226 225 226 226 226 226 227 227 225 227 224 223 
222 223 222 150 110 115 168 114 111 218 228 225 227 228 227 227 
227 228 225 227 227 224 224 224 222 226 158 207 224 224 225 223 
224 224 226 231 228 227 228 225 226 225 226 225 230 166 230 228 229 227 228 229 
229 228 226 227 227 226 226 226 226 227 227 228 227 219 75 64 
66 84 100 204 230 228 226 230 228 229 228 227 227 227 229 229 
228 228 228 228 228 226 226 226 227 228 227 227 226 226 226 227 
223 224 224 154 131 99 149 93 134 228 225 226 226 225 226 225 
227 226 227 226 227 225 223 224 223 225 184 177 224 227 225 225 
224 223 225 231 228 227 229 228 228 227 226 227 200 192 231 228 228 228 226 227 
227 227 228 227 227 226 225 227 226 226 226 226 229 228 96 99 
53 81 145 230 227 229 228 229 228 227 228 228 230 227 228 227 
228 228 228 228 226 226 227 227 225 228 227 227 225 226 224 225 
226 226 221 136 117 124 98 89 180 225 224 226 227 228 226 227 
226 225 225 227 224 223 225 226 225 224 203 161 224 226 224 223 
224 225 225 232 225 226 228 227 224 227 223 225 176 220 228 227 227 228 229 228 
227 227 226 227 227 225 226 227 228 226 226 226 226 229 152 89 
54 91 214 231 227 231 230 228 228 230 231 228 228 228 230 230 
227 226 226 227 227 227 227 227 226 227 226 225 226 226 226 227 
227 227 227 167 86 92 76 124 217 225 224 226 228 227 228 225 
226 226 226 225 227 227 224 225 225 223 215 142 218 225 226 227 
228 227 226 228 230 229 227 228 226 227 227 229 151 231 227 230 228 228 227 227 
229 227 226 227 226 228 226 226 225 227 226 226 225 226 223 134 
82 168 229 228 229 228 229 227 228 229 229 229 228 227 228 229 
226 227 227 227 227 226 225 227 227 226 226 227 227 227 226 226 
228 227 224 212 82 96 76 157 156 222 225 226 226 226 226 226 
227 228 227 227 226 226 223 224 226 225 228 159 206 227 225 224 
225 223 225 228 229 229 229 224 225 226 228 223 160 232 228 229 228 228 228 228 
227 227 228 228 227 229 227 226 227 228 226 228 228 227 229 230 
206 230 227 227 229 229 227 229 229 226 227 228 229 227 229 228 
229 228 227 228 227 227 227 227 226 227 226 226 225 225 226 227 
227 227 224 230 195 109 117 115 145 208 227 228 228 229 229 228 
228 228 227 228 228 227 226 226 228 227 227 177 199 227 226 227 
224 226 226 230 230 230 228 226 226 226 228 200 197 230 227 226 229 228 229 228 
228 229 228 229 227 226 227 228 228 228 228 227 228 229 228 232 
232 231 228 229 227 230 230 227 230 229 230 228 227 228 228 226 
229 228 227 228 227 226 226 227 227 225 226 226 227 226 226 228 
228 225 225 227 233 223 190 127 181 183 230 227 228 227 227 227 
227 226 226 228 227 227 225 226 229 225 226 204 170 228 226 224 
225 224 226 231 228 229 226 226 225 227 229 174 212 229 229 229 230 227 229 229 
228 227 227 228 229 228 228 228 226 227 228 228 228 228 229 227 
228 226 226 228 228 229 228 229 227 228 228 228 227 229 229 229 
228 228 227 227 227 227 228 227 227 227 228 227 227 228 228 227 
227 228 225 227 228 230 199 138 224 165 221 226 227 229 229 229 
229 228 228 227 227 226 226 227 228 226 225 217 166 227 226 226 
226 225 227 227 228 229 226 226 224 226 226 175 217 230 227 228 228 230 230 229 
228 230 230 227 229 230 227 227 228 227 228 228 227 226 229 228 
227 226 228 227 226 227 230 228 229 229 228 226 228 228 228 227 
229 226 227 229 226 228 228 228 227 226 227 227 227 228 227 227 
226 226 227 228 228 227 186 160 230 177 197 228 228 226 226 228 
229 229 226 227 227 226 226 226 227 227 227 226 161 228 226 227 
227 227 225 228 229 228 228 227 227 227 231 169 224 230 228 229 228 227 226 230 
228 230 228 228 229 228 228 229 227 229 228 228 227 230 229 228 
228 228 225 226 227 227 226 228 227 228 227 231 228 227 228 229 
229 227 227 229 227 228 227 227 228 226 225 228 228 228 227 228 
226 226 226 226 227 227 155 185 226 226 160 227 228 228 228 226 
228 229 229 230 227 225 225 226 227 226 225 223 160 227 227 226 
226 227 228 227 228 229 228 227 228 228 230 178 233 228 228 229 230 229 231 229 
228 228 229 231 229 227 228 229 229 228 229 227 228 227 227 227 
227 227 228 228 227 228 227 229 229 229 229 229 228 229 227 228 
232 230 231 229 227 227 226 225 225 227 228 227 228 227 226 228 
228 229 226 226 226 222 125 223 227 229 166 218 227 227 230 228 
227 230 227 230 227 226 227 225 225 225 225 225 161 221 228 228 
228 226 227 228 228 228 226 225 228 228 225 175 229 228 229 229 228 229 229 229 
231 228 229 227 229 229 229 229 230 229 228 229 228 228 229 228 
228 228 228 228 228 231 225 225 228 229 226 229 229 228 228 229 
226 227 227 228 229 228 229 231 232 228 228 227 227 227 227 228 
229 225 230 229 226 214 131 231 226 226 198 174 229 228 228 229 
228 229 229 229 228 227 227 228 226 226 226 223 138 223 229 227 
229 227 226 227 227 227 225 228 227 227 224 165 227 227 228 229 229 227 227 229 
230 230 230 229 229 229 230 229 228 227 228 227 228 229 228 228 
228 228 228 227 228 227 229 227 227 227 228 229 229 229 229 228 
229 229 227 228 229 227 227 226 226 227 228 228 227 228 227 227 
225 228 228 227 225 193 135 228 228 228 227 144 227 229 229 230 
228 228 228 227 226 227 229 227 227 224 227 226 145 223 228 227 
227 228 227 227 225 226 226 228 229 228 223 172 229 226 229 228 230 229 229 229 
230 230 228 229 229 230 230 229 228 227 228 227 226 227 228 227 
227 228 227 230 228 229 228 230 228 230 228 228 228 229 227 229 
229 229 229 228 230 228 230 227 228 227 228 228 227 227 227 228 
225 229 230 226 228 178 146 228 226 227 230 155 222 228 230 230 
227 227 230 229 229 225 226 227 226 225 225 229 148 222 228 230 
228 229 229 228 230 226 227 228 227 225 223 168 227 228 229 229 229 229 230 228 
229 229 229 229 230 232 229 229 229 228 229 230 228 228 228 229 
229 228 229 229 229 228 230 228 229 228 227 228 229 230 229 228 
229 230 228 229 229 229 226 228 229 229 228 228 228 229 228 226 
227 230 227 228 225 180 128 229 227 227 230 158 219 229 229 228 
228 229 228 226 229 225 227 227 225 226 226 229 165 221 229 227 
228 227 229 230 227 228 227 227 227 223 223 172 226 227 229 228 229 229 230 228 
228 228 228 227 228 228 228 228 229 229 231 228 229 228 226 228 
227 229 227 229 230 228 229 227 229 229 228 226 229 228 229 229 
228 229 230 228 228 228 230 230 227 227 227 229 229 229 227 226 
228 230 229 227 229 196 132 230 228 227 228 159 216 231 229 228 
229 228 229 230 227 227 228 225 227 226 224 227 158 222 229 228 
230 230 228 227 228 228 228 227 225 223 221 159 228 228 229 228 228 227 229 228 
230 228 230 230 229 229 229 228 229 230 230 230 229 230 229 228 
229 230 230 229 229 229 229 228 230 226 229 230 228 228 227 228 
227 227 229 229 230 228 228 228 229 229 229 231 227 228 227 229 
227 230 230 229 228 206 107 231 227 227 233 149 226 228 227 227 
227 229 229 229 228 228 227 226 224 225 225 228 155 219 230 227 
230 229 231 229 227 226 225 224 223 221 218 162 226 226 228 229 228 228 229 228 
228 229 228 228 229 228 229 230 230 230 229 230 229 228 230 229 
229 229 229 229 228 230 230 229 228 228 229 229 229 229 230 231 
230 229 228 228 229 230 228 230 228 228 228 228 229 228 228 228 
229 227 227 225 228 229 88 218 229 231 213 167 228 229 229 230 
229 229 230 230 228 228 227 226 227 225 224 219 156 223 230 230 
230 232 228 230 229 227 226 225 225 223 193 135 225 228 229 229 228 229 228 228 
228 227 228 229 229 229 228 228 228 229 227 230 229 229 229 229 
228 230 229 230 230 229 229 229 229 228 229 228 230 229 229 227 
229 229 230 229 230 230 228 230 230 229 228 229 229 228 230 231 
228 229 227 231 229 228 147 152 231 232 148 199 231 230 230 229 
229 229 229 229 230 227 228 228 231 227 226 216 163 225 229 231 
230 229 231 230 230 229 229 229 228 225 224 136 228 230 229 228 229 230 229 227 
230 230 230 228 229 229 230 228 228 229 230 228 229 228 231 231 
229 230 228 230 229 230 228 228 229 230 227 229 231 230 229 229 
229 228 229 230 228 228 230 227 228 230 229 229 230 228 229 230 
230 229 230 228 230 230 222 131 182 169 150 226 227 229 228 229 
228 229 228 229 227 229 227 228 229 228 225 214 180 228 230 229 
229 231 232 228 230 229 224 229 227 224 226 137 228 228 227 230 228 227 228 228 
229 226 228 228 229 229 230 230 230 230 231 228 229 229 227 228 
230 230 229 229 230 229 228 230 231 230 231 230 228 230 229 229 
230 228 231 230 231 230 228 231 231 228 229 229 228 227 229 229 
229 228 229 229 229 230 233 241 220 210 228 231 229 229 229 229 
229 228 229 229 229 228 227 227 229 227 225 196 189 226 229 230 
231 229 229 228 229 229 228 227 225 227 229 149 227 229 229 228 229 228 229 228 
229 229 228 229 228 228 227 227 229 228 228 231 229 228 229 231 
230 228 230 230 229 231 231 230 231 230 229 229 229 229 229 230 
230 229 229 228 228 228 229 230 230 229 229 229 232 230 228 231 
229 230 229 229 228 228 231 232 233 233 233 231 230 231 230 230 
229 231 228 230 231 231 229 228 228 226 229 191 194 231 230 229 
230 230 229 229 227 230 226 227 227 227 223 160 205 227 228 228 230 229 228 229 
229 228 228 227 229 229 229 229 231 230 231 229 230 229 230 230 
230 229 229 229 228 229 227 229 230 231 230 227 228 229 229 229 
229 228 231 231 231 231 230 230 231 230 231 229 229 230 230 230 
230 231 230 230 230 230 229 230 231 231 230 231 231 231 230 231 
229 230 229 230 231 232 229 228 227 228 231 153 213 231 230 230 
230 230 231 227 227 228 227 227 226 225 228 188 188 230 228 228 227 229 230 228 
229 228 226 229 229 231 230 229 229 228 228 229 228 229 229 225 
226 229 229 229 230 230 231 230 230 231 231 229 229 230 230 229 
227 231 228 229 229 230 231 230 230 229 230 231 229 231 230 230 
229 229 229 231 230 230 229 229 231 232 230 228 228 230 231 230 
229 228 230 231 230 229 230 229 229 227 228 148 234 230 229 229 
228 230 230 229 229 229 229 230 227 226 227 211 147 228 229 228 230 225 227 228 
228 229 227 229 230 229 229 228 228 229 228 230 227 229 228 229 
230 229 230 229 229 229 229 228 229 230 228 229 229 228 230 231 
229 228 230 229 231 229 230 230 230 230 228 228 230 230 230 229 
231 231 230 229 230 229 231 230 231 230 230 231 231 232 230 231 
230 230 230 231 230 230 230 229 227 224 212 172 233 231 230 231 
230 231 229 227 229 229 228 227 226 230 225 225 139 230 227 227 229 231 231 229 
230 228 229 229 227 228 228 227 229 229 230 230 228 229 228 226 
229 228 230 230 229 230 229 230 228 229 231 229 230 229 230 229 
230 231 229 230 230 228 230 230 230 228 230 232 230 230 231 232 
231 231 231 231 230 230 231 229 230 232 230 231 231 231 230 231 
232 232 230 232 230 230 229 230 229 224 204 188 232 231 228 228 
230 230 230 229 229 228 228 228 228 227 226 229 145 215 229 227 225 229 228 228 
229 231 231 230 230 230 229 230 229 228 229 228 230 229 229 230 
231 228 228 230 230 230 230 231 229 227 228 230 229 227 228 229 
229 229 229 229 229 229 231 230 231 232 231 231 232 231 230 230 
229 229 231 232 231 231 230 231 230 232 231 231 230 231 229 232 
229 229 231 231 228 228 231 228 227 229 157 223 231 231 230 229 
228 231 232 228 228 229 226 229 228 230 227 226 207 190 230 230 230 231 230 232 
231 231 231 232 234 231 230 232 230 230 230 230 229 230 231 229 
229 230 230 229 228 228 229 230 230 229 228 229 228 229 229 229 
229 229 229 230 228 231 228 230 230 230 231 229 230 231 230 228 
232 229 231 229 231 231 231 230 232 233 231 231 230 229 231 232 
230 230 230 232 229 227 231 228 223 228 164 228 229 229 230 230 
229 229 230 229 231 232 228 228 227 225 224 223 227 173 233 228 227 229 232 230 
231 232 232 232 233 233 230 232 231 228 230 229 229 229 230 229 
230 229 228 230 230 231 229 230 228 230 230 228 229 229 228 230 
228 228 229 228 229 230 229 230 230 229 230 231 229 230 231 232 
230 231 232 231 230 232 231 230 232 229 231 231 231 230 229 232 
231 230 232 231 228 228 227 228 228 188 196 227 230 228 231 231 
229 229 229 227 228 228 230 227 228 226 226 225 231 181 221 230 233 229 231 230 
233 230 231 234 234 232 231 230 230 230 229 228 229 230 229 229 
229 229 230 229 228 229 228 230 231 229 227 228 230 230 229 227 
228 230 228 229 230 228 229 231 228 229 230 232 231 230 229 230 
231 232 230 230 231 230 233 230 230 231 230 231 231 232 231 232 
230 231 231 231 226 228 229 226 230 143 228 231 231 230 230 229 
228 230 227 228 228 227 227 228 229 227 227 224 225 216 187 236 231 229 232 233 
231 232 231 232 233 232 231 232 230 230 231 231 227 230 230 230 
228 227 229 229 229 229 231 232 227 229 229 228 227 227 229 229 
229 228 227 229 227 229 231 228 229 230 230 231 231 231 230 231 
229 229 231 230 230 230 231 231 230 231 230 230 230 230 232 229 
229 230 228 229 225 225 225 228 193 181 231 231 229 231 232 228 
231 229 229 228 228 228 229 227 228 227 228 225 226 231 167 234 231 232 232 232 
231 232 231 233 232 233 233 232 232 230 229 229 230 228 230 230 
229 231 229 229 229 231 227 230 231 229 231 229 230 233 233 231 
233 231 232 233 230 230 230 229 231 229 231 231 230 230 231 232 
228 232 229 230 230 230 231 230 230 230 230 229 230 231 231 230 
229 230 229 229 226 226 227 233 155 221 231 230 230 230 229 228 
229 230 228 229 229 228 230 230 227 227 228 229 229 230 207 179 233 231 231 231 
232 232 233 232 232 233 230 232 232 231 231 231 232 230 229 228 
229 229 228 228 229 229 229 230 231 233 232 232 228 231 230 230 
229 230 232 233 231 232 231 231 229 229 227 227 229 230 229 229 
230 231 231 230 230 231 232 230 231 230 229 231 231 230 231 231 
230 229 229 228 228 226 227 205 170 231 230 232 230 229 230 229 
228 228 230 230 229 229 231 232 229 228 230 228 227 227 236 167 236 233 232 232 
234 233 232 233 232 233 232 234 232 231 231 230 231 231 229 228 
229 229 228 230 228 229 228 230 234 229 227 202 145 108 108 125 
99 108 113 140 136 162 227 227 230 229 226 227 231 230 231 230 
230 232 231 231 229 230 230 230 230 230 229 230 231 230 230 231 
230 230 229 228 228 227 225 160 229 230 229 229 231 230 228 229 
229 228 230 228 230 229 233 232 229 229 229 225 228 229 233 213 189 234 228 230 
233 234 233 233 232 233 230 232 232 233 231 230 233 231 231 231 
229 229 229 228 229 228 229 229 189 125 74 58 61 75 95 98 
113 96 77 85 94 83 100 169 224 226 228 228 231 230 230 230 
231 229 231 230 231 228 229 230 229 232 230 231 231 231 230 229 
231 230 229 230 229 230 172 203 230 229 230 230 230 230 229 229 
231 231 230 229 229 228 228 229 229 228 229 231 230 230 229 232 178 228 231 230 
231 231 232 232 232 232 233 233 233 230 229 231 231 232 230 229 
228 229 231 229 229 229 230 234 127 108 80 140 202 220 223 225 
226 226 206 188 151 129 144 84 129 231 228 226 229 229 230 230 
229 228 230 231 230 229 229 229 229 229 229 229 230 229 230 230 
230 230 230 228 231 215 174 234 230 230 229 231 229 230 231 228 
229 230 229 231 230 229 229 230 229 230 230 229 232 232 229 228 226 165 234 229 
231 233 233 232 232 235 233 231 232 230 232 232 230 231 231 230 
229 229 226 229 231 229 229 211 88 155 226 231 229 228 232 233 
231 232 233 235 235 180 199 231 160 223 229 227 229 230 231 231 
231 230 229 230 229 231 230 231 229 229 229 228 228 229 230 231 
229 230 230 229 226 168 216 232 231 229 226 230 230 231 231 231 
230 230 230 231 229 230 229 230 230 231 229 230 231 231 230 228 232 175 212 232 
232 230 232 233 233 232 232 233 231 231 232 232 230 233 231 230 
229 229 227 230 228 229 229 192 167 234 232 232 232 228 230 232 
229 229 230 232 234 235 231 233 230 227 228 228 230 229 229 230 
230 233 232 229 230 229 229 230 229 227 229 230 228 227 227 230 
230 229 230 232 187 187 229 229 231 229 231 229 230 232 230 229 
231 230 230 231 230 230 231 230 230 231 230 231 231 229 231 229 230 231 179 229 
235 232 231 232 234 232 233 232 232 230 232 233 231 229 229 231 
229 227 230 229 229 230 230 231 231 232 231 231 231 230 231 231 
230 230 231 230 230 230 233 231 230 229 228 230 230 229 231 230 
230 230 230 229 229 229 231 230 229 229 228 228 229 229 229 228 
229 230 230 214 174 232 232 230 230 229 228 231 229 232 228 229 
230 229 229 229 231 230 229 230 229 229 229 229 229 230 229 230 228 234 225 174 
236 232 232 232 233 232 232 233 233 231 232 231 232 232 231 231 
231 234 231 231 230 230 231 231 232 232 231 230 231 229 229 231 
231 230 228 230 231 231 230 228 227 229 228 229 231 230 230 229 
231 230 230 231 229 231 231 231 227 230 229 229 229 225 227 227 
230 231 232 169 219 231 230 230 231 231 231 231 233 233 231 229 
232 233 232 230 232 230 231 229 229 229 228 230 230 229 229 232 227 233 235 205 
187 233 234 232 230 231 232 230 231 231 231 232 232 231 231 231 
229 230 229 231 230 231 231 231 231 230 229 230 229 230 230 231 
232 232 231 229 231 230 230 230 229 229 228 229 232 230 230 230 
229 231 231 230 232 229 231 229 231 229 230 229 231 229 227 226 
230 233 179 207 230 227 229 230 230 231 230 232 231 232 231 230 
233 233 229 231 230 230 231 230 230 230 230 230 228 230 230 232 231 231 231 233 
189 198 236 233 232 232 232 231 231 231 232 231 233 232 230 229 
229 231 232 230 229 229 230 231 231 230 231 230 231 232 230 230 
232 233 231 231 232 232 230 231 230 230 230 232 230 230 231 230 
230 230 231 230 228 232 231 232 229 229 229 229 229 230 228 230 
230 186 202 234 230 230 230 230 231 229 231 232 233 233 230 230 
227 232 230 230 230 230 229 230 228 230 230 233 229 230 229 232 231 233 230 231 
234 183 197 234 230 230 230 231 232 231 231 233 232 233 232 232 
231 231 230 233 231 230 230 229 231 231 230 232 232 231 234 232 
234 231 232 232 230 229 229 231 231 232 230 230 231 231 232 230 
231 232 232 232 230 229 231 229 230 231 229 229 229 228 230 230 
190 202 233 231 228 231 230 231 231 229 229 230 232 231 230 230 
229 230 227 231 230 230 230 231 230 230 232 228 229 231 230 230 229 231 230 230 
230 232 177 209 236 236 231 231 230 233 230 232 232 232 233 231 
231 230 232 232 233 232 233 232 231 232 233 232 232 232 233 234 
234 230 233 232 232 232 231 231 232 231 232 232 232 232 231 232 
232 232 231 231 231 232 230 229 230 229 232 229 229 227 231 202 
197 230 233 230 230 230 231 229 231 231 232 231 232 229 229 229 
229 230 227 230 231 233 231 231 229 230 230 230 230 231 231 232 231 228 232 232 
232 234 233 187 213 232 233 230 230 230 231 230 231 231 231 232 
231 232 232 232 230 232 232 232 233 232 231 232 232 231 231 232 
234 232 232 231 232 230 231 232 231 232 233 233 232 233 232 231 
232 230 231 234 229 230 230 230 231 229 230 232 231 230 179 191 
231 230 230 230 229 231 232 229 231 230 230 231 230 228 229 229 
227 229 228 231 230 229 231 230 231 229 230 230 232 230 230 229 230 231 230 229 
229 233 232 233 197 204 237 232 231 230 231 230 231 231 231 232 
232 231 233 232 232 230 233 232 232 232 231 232 232 233 232 234 
233 233 233 233 233 231 231 232 233 233 234 232 233 231 232 233 
234 232 232 232 232 230 230 231 231 228 232 233 225 177 187 235 
224 228 230 230 230 230 230 229 230 229 230 228 227 228 228 229 
228 227 228 229 228 230 232 231 231 230 229 232 232 231 230 230 232 231 231 230 
233 232 229 232 233 198 192 228 233 232 231 230 231 232 232 231 
232 232 231 232 232 230 231 231 232 232 232 232 233 230 232 230 
230 232 232 232 233 234 232 231 232 233 233 231 233 233 234 234 
235 234 232 233 232 230 230 231 232 232 234 220 161 202 232 231 
230 228 229 231 231 231 230 229 230 230 229 230 229 228 229 228 
229 226 228 230 231 231 230 231 230 231 231 232 229 230 231 231 228 233 229 229 
230 231 231 229 230 236 211 169 233 232 230 230 231 231 231 230 
230 233 233 232 233 232 232 232 230 232 231 231 232 233 233 232 
231 232 233 233 233 233 233 234 232 235 234 232 233 234 232 234 
233 233 233 233 233 229 230 233 233 233 199 161 210 230 231 229 
228 230 231 232 231 230 230 229 230 231 230 230 229 228 229 227 
228 228 225 231 230 231 231 231 232 230 233 229 231 231 230 230 232 232 232 232 
231 233 235 231 232 231 234 223 173 213 233 230 229 230 231 231 
231 228 233 230 231 232 232 232 232 231 233 230 233 231 231 232 
232 234 233 232 234 232 232 233 232 231 234 234 231 234 234 234 
233 233 231 232 235 231 233 234 228 173 182 226 232 232 230 231 
230 230 232 232 232 231 230 230 229 229 230 230 230 230 228 227 
226 226 225 231 229 230 230 231 232 233 231 228 232 232 230 232 231 229 229 230 
228 230 231 231 228 231 231 238 236 190 191 233 235 232 229 230 
230 229 230 233 231 231 232 231 232 234 233 231 232 232 232 231 
232 233 232 233 233 229 231 232 234 232 234 234 234 234 234 234 
233 233 232 233 233 235 235 211 152 189 231 233 231 229 229 230 
232 231 230 232 231 230 232 230 232 231 231 231 232 232 231 230 
229 228 227 230 230 230 230 229 229 230 229 230 229 231 229 231 231 232 232 232 
231 233 231 232 230 230 232 231 233 235 219 195 202 230 233 233 
232 231 231 230 232 229 231 231 232 232 233 230 231 231 231 231 
231 229 232 232 234 233 233 233 233 232 233 234 233 231 232 233 
234 234 232 235 234 204 148 159 215 233 231 230 231 230 230 231 
231 231 231 230 231 230 231 234 232 231 231 231 232 234 232 230 
229 229 228 230 229 230 230 230 230 230 231 232 232 229 227 231 231 231 230 231 
231 230 232 229 232 232 234 232 232 232 232 233 211 191 214 234 
230 229 231 232 232 231 230 232 232 234 230 231 232 231 232 231 
232 232 232 233 232 232 232 234 233 233 233 233 231 232 233 233 
235 235 232 205 173 190 224 238 232 232 232 230 231 231 231 230 
231 232 232 232 231 231 232 233 232 230 231 230 231 231 231 231 
227 229 227 231 232 230 229 232 231 230 231 228 230 230 231 231 231 232 232 232 
232 232 229 231 230 229 233 232 232 230 232 230 230 229 209 201 
200 223 231 230 230 229 232 231 231 232 229 228 231 231 230 230 
231 230 232 232 232 232 230 232 231 233 233 232 232 233 235 237 
231 215 174 200 226 235 234 233 231 232 232 230 231 231 231 232 
231 231 231 229 231 230 231 230 231 230 232 231 229 231 231 232 
233 230 227 229 227 228 229 229 230 230 229 230 229 230 229 231 231 230 232 231 
229 232 232 231 231 233 234 232 232 230 231 231 229 232 232 232 
221 195 192 214 226 231 233 232 231 232 230 230 232 230 230 229 
229 231 231 231 232 232 233 230 232 232 233 234 235 231 220 205 
171 195 229 233 235 234 233 233 235 232 231 232 233 232 232 230 
230 231 228 232 230 231 230 230 231 231 231 232 232 232 231 231 
231 231 228 228 232 226 228 228 226 227 229 229 230 228 233 230 230 229 231 231 
232 231 232 231 230 231 231 231 230 230 232 231 229 228 230 230 
233 231 230 206 196 202 220 233 234 231 231 231 233 233 231 229 
231 232 233 234 234 233 234 232 231 231 226 219 204 184 200 211 
233 233 235 233 232 232 232 233 230 231 232 232 231 232 229 232 
231 231 230 231 231 229 230 229 232 231 230 231 231 231 229 231 
229 230 228 227 226 230 230 229 229 230 229 231 232 231 230 231 232 230 231 233 
232 232 233 231 229 231 232 230 230 231 231 231 232 231 228 229 
229 232 232 232 232 226 209 204 204 210 218 221 231 231 234 232 
228 213 222 217 217 221 216 208 186 180 187 190 213 235 233 233 
232 234 231 232 231 232 233 233 233 231 230 231 232 232 232 230 
232 229 229 230 231 232 232 231 232 232 230 231 231 231 231 230 
229 229 228 227 228 228 228 229 229 225 229 226 228 230 231 231 231 231 230 230 
230 231 231 230 231 230 232 232 230 232 231 232 231 230 231 229 
230 229 231 231 231 232 232 232 234 230 222 210 194 199 191 184 
167 165 163 167 177 180 187 205 220 230 233 232 233 234 234 235 
233 231 232 232 233 231 231 233 233 232 231 230 231 231 231 232 
232 230 230 231 233 229 228 230 230 230 230 230 231 232 232 231 
229 230 229 228 229 230 227 226 228 227 225 229 230 230 231 228 230 230 230 232 
229 231 231 232 232 231 231 232 230 230 228 231 229 231 230 229 
230 229 228 231 230 231 231 233 231 231 231 232 234 234 233 233 
234 223 222 234 237 236 231 234 236 234 233 232 232 233 229 231 
232 232 231 230 234 231 234 233 233 232 232 235 231 231 230 231 
229 231 231 229 229 228 234 231 232 231 229 231 231 230 230 232 
231 232 229 229 228 227 228 230 228 228 225 226 229 229 230 232 230 232 232 230 
230 230 232 232 230 230 229 231 230 229 229 229 230 230 230 229 
229 231 230 233 231 229 230 232 234 232 230 229 230 232 231 231 
231 232 223 233 232 232 232 232 231 233 231 232 232 231 232 231 
230 232 233 232 232 232 233 233 233 232 233 231 233 232 231 229 
232 231 229 232 230 230 228 228 232 229 232 232 231 231 231 233 
232 231 229 227 228 228 228 227 228 228 225 230 228 231 230 229 229 231 231 231 
231 231 230 230 230 230 229 230 230 232 231 231 230 230 230 232 
233 231 228 231 230 229 230 232 232 231 230 230 230 230 230 230 
230 230 233 231 230 229 230 230 231 232 231 233 231 232 233 233 
232 231 232 232 231 231 232 233 232 232 232 233 232 230 231 229 
230 229 231 231 232 231 231 231 230 231 231 231 231 231 230 231 
231 230 230 227 226 228 225 228 226 229 228 229 228 228 230 230 230 230 230 231 
231 232 231 230 230 231 231 231 231 231 229 230 230 231 230 231 
228 231 230 230 231 230 230 232 231 230 230 231 231 230 232 231 
229 231 231 231 232 229 231 232 232 231 232 231 232 232 232 232 
233 231 233 232 232 232 233 233 232 232 232 232 233 231 231 231 
229 230 230 230 230 231 231 230 231 230 232 231 230 230 231 231 
231 230 228 228 228 229 229 226 227 228 227 228 228 228 228 230 227 230 233 230 
230 229 230 231 230 229 229 230 231 231 230 230 231 230 231 230 
231 231 231 232 233 231 229 230 229 231 229 229 231 230 231 230 
230 230 230 231 231 231 231 231 231 231 232 232 231 231 234 232 
232 232 232 233 233 232 233 232 231 231 230 230 230 230 230 230 
230 230 231 229 231 228 230 228 231 230 229 230 231 231 231 229 
229 229 230 