P2
# Created by IrfanView
100 100
255
231 231 230 230 229 231 233 232 233 233 234 237 235 234 234 234 235 
236 233 235 235 234 234 233 234 232 233 234 234 233 234 231 234 
234 235 234 236 236 237 237 237 236 234 237 237 237 237 238 236 
235 236 236 237 237 236 234 233 235 235 236 234 235 238 238 239 
239 237 236 237 238 236 237 238 235 238 235 235 235 235 234 234 
237 236 235 235 236 236 235 238 236 237 238 239 238 238 237 236 
237 239 239 232 231 230 231 231 231 233 234 234 234 233 235 232 234 233 234 235 
234 233 235 235 234 233 233 233 233 232 233 233 234 233 233 234 
233 235 235 235 236 236 236 236 236 236 237 237 237 237 234 236 
237 237 238 237 235 237 236 237 235 235 235 237 237 238 239 238 
238 239 237 238 237 238 239 238 237 237 236 237 236 237 233 235 
236 236 235 235 237 237 237 236 237 237 241 238 238 240 237 240 
239 239 239 232 232 230 231 233 231 232 233 232 233 233 235 232 234 235 233 234 
235 235 234 234 234 233 234 233 232 231 233 233 234 234 233 232 
234 235 235 234 235 236 236 236 237 237 238 239 237 238 238 240 
239 237 237 237 237 237 239 237 237 238 239 237 238 238 237 238 
238 238 239 240 238 238 237 238 237 237 237 237 236 234 237 234 
234 237 235 238 236 236 235 238 237 238 235 238 235 240 239 239 
238 241 241 231 231 231 232 232 231 230 231 233 232 233 234 234 235 235 234 235 
235 235 233 234 234 234 233 233 230 232 232 233 233 232 233 234 
234 234 233 233 235 235 236 235 238 235 239 237 238 240 241 241 
237 238 237 239 240 238 240 238 237 237 235 236 239 238 237 238 
238 238 239 238 238 239 239 236 238 236 235 237 236 236 235 235 
237 236 235 236 235 237 237 236 234 235 235 237 238 237 238 236 
238 240 240 230 232 232 232 233 232 232 232 232 232 233 233 233 236 235 235 234 
234 233 233 233 233 233 231 232 231 231 231 231 231 231 231 232 
232 232 234 233 235 234 236 237 234 230 226 217 209 205 205 202 
215 215 212 224 229 230 236 237 241 239 238 237 236 238 239 239 
239 238 236 239 238 237 237 238 236 237 236 236 237 235 237 237 
237 237 236 236 236 237 236 236 236 236 235 240 237 238 239 238 
240 239 240 231 230 233 233 232 231 231 233 233 231 233 233 233 233 234 234 235 
234 233 233 233 233 233 232 231 231 231 230 230 229 228 231 232 
231 233 233 232 232 226 199 190 187 184 183 194 201 209 209 211 
203 197 205 187 192 190 179 189 203 216 232 238 241 240 236 239 
239 238 240 238 237 239 236 238 237 236 238 240 238 239 238 237 
238 237 237 238 239 237 237 237 237 238 237 237 237 239 239 238 
239 239 241 231 232 233 232 232 232 232 232 232 231 232 232 232 235 234 234 233 
232 233 234 232 233 232 231 232 232 231 231 230 232 229 229 233 
231 226 214 198 186 179 199 227 233 237 236 240 241 239 237 239 
239 238 239 242 241 236 233 232 215 199 193 196 207 228 237 239 
238 238 240 239 237 238 238 237 238 238 237 238 237 237 237 237 
235 236 236 236 236 236 235 238 238 239 235 236 239 239 238 240 
240 240 239 233 234 234 232 232 231 230 231 233 232 230 232 234 232 233 233 233 
233 234 232 232 230 232 230 231 229 229 228 227 230 231 229 228 
212 180 174 208 230 235 237 238 237 237 239 238 237 236 239 238 
237 238 238 237 237 238 239 239 238 236 239 234 206 180 188 218 
232 240 241 238 237 238 238 238 238 238 238 238 238 238 237 238 
237 238 238 239 237 238 236 237 238 238 238 239 237 237 238 239 
239 238 239 232 234 234 232 232 230 233 232 232 231 231 230 231 231 234 233 233 
233 231 230 231 231 230 230 229 228 226 228 227 228 226 201 170 
183 217 233 236 233 235 237 235 237 236 236 238 238 236 237 236 
238 237 236 237 235 236 237 237 236 237 239 238 242 240 228 204 
184 200 229 240 241 239 238 238 237 237 238 236 237 238 239 238 
239 236 237 238 241 239 237 237 238 239 238 238 239 239 240 237 
240 239 240 231 232 233 232 233 232 232 230 231 232 233 232 231 232 232 231 233 
233 232 232 231 232 230 230 230 229 229 228 228 213 174 174 221 
236 235 236 234 236 235 236 236 235 238 238 237 235 238 237 238 
237 237 236 236 236 236 236 235 236 235 234 238 236 238 240 242 
235 214 196 216 242 239 239 238 238 238 238 237 238 237 238 237 
238 238 237 239 237 238 239 239 238 239 238 238 238 238 239 239 
239 240 240 231 232 231 232 230 232 231 231 232 231 232 231 231 232 232 232 232 
230 230 230 229 230 228 230 229 229 229 229 200 157 201 231 233 
234 234 235 234 234 235 235 235 238 236 237 237 237 237 238 236 
236 238 236 237 239 238 236 238 236 237 239 235 236 237 237 239 
240 242 224 199 197 228 237 238 238 238 238 239 239 239 238 237 
238 237 236 236 236 238 236 239 239 238 237 238 239 240 238 238 
239 238 238 232 233 233 233 233 233 232 231 232 232 229 231 232 234 232 232 231 
231 231 231 231 231 229 230 227 231 222 171 173 216 233 231 231 
231 235 235 234 234 233 235 236 236 237 238 237 238 236 238 240 
238 237 238 239 237 237 235 238 237 238 237 238 236 237 237 238 
237 237 240 239 219 189 209 234 237 239 239 239 239 239 240 238 
237 238 240 239 238 237 237 239 238 237 238 238 238 238 238 239 
239 237 238 231 230 232 233 232 234 230 233 230 232 230 231 232 232 231 231 231 
231 232 229 229 229 230 231 229 210 173 198 235 234 235 231 231 
230 233 234 234 234 234 235 235 236 236 238 239 237 238 239 238 
237 238 238 238 238 238 238 237 238 237 238 237 238 237 236 238 
239 237 237 241 243 237 202 207 234 240 239 240 239 236 238 240 
239 237 237 239 238 237 236 237 239 238 237 237 236 240 240 238 
239 238 239 229 228 232 233 233 232 233 231 232 232 230 231 231 231 231 229 231 
229 230 229 228 229 231 229 205 169 230 234 232 231 229 232 231 
233 233 232 233 236 235 235 235 234 238 237 236 236 239 239 240 
238 239 239 238 239 238 238 237 237 238 237 237 238 237 236 237 
238 236 237 238 238 239 241 216 184 218 240 240 238 239 237 236 
238 237 237 238 238 237 236 237 237 236 237 239 237 238 238 238 
237 239 237 230 230 230 231 233 232 232 232 231 232 232 230 231 232 231 229 229 
228 231 230 226 230 225 189 175 229 235 233 232 233 231 232 232 
234 232 233 233 233 234 235 235 236 236 237 236 236 237 237 239 
239 239 239 238 238 238 237 238 238 237 237 236 239 238 236 237 
239 236 236 238 238 240 238 240 233 186 216 237 239 238 239 238 
236 239 237 238 238 238 239 237 238 239 237 237 238 236 237 237 
238 237 238 231 229 228 232 232 232 232 233 233 231 231 233 231 231 230 228 228 
229 230 230 228 226 180 190 235 235 232 231 232 231 233 232 232 
231 234 233 233 233 232 235 236 235 237 237 235 235 236 237 236 
239 238 238 239 237 235 237 238 236 238 237 239 237 237 237 236 
236 236 236 237 239 237 234 233 238 231 197 208 238 238 236 237 
238 233 236 238 238 238 237 237 238 238 238 238 239 239 237 235 
238 237 238 230 230 232 232 232 232 232 231 231 231 232 230 231 230 230 229 228 
229 230 229 225 178 206 234 233 232 232 232 231 232 233 233 234 
234 233 234 233 235 235 234 235 236 237 237 238 236 236 237 237 
237 238 239 238 238 235 237 238 237 236 238 236 238 239 238 236 
237 236 236 238 235 237 234 233 234 236 240 195 201 234 237 238 
235 236 234 238 238 238 236 237 238 237 237 238 238 237 239 237 
237 238 238 230 229 231 231 233 232 232 232 232 230 231 231 229 230 231 232 229 
228 228 228 176 200 235 234 231 231 231 233 234 231 231 233 233 
232 234 235 234 233 237 234 236 234 235 237 236 235 235 236 236 
236 236 237 238 238 237 237 237 237 236 236 237 237 237 235 238 
238 236 237 236 236 235 234 235 236 235 236 239 206 194 235 239 
237 235 235 238 238 237 236 236 238 238 238 238 238 238 236 239 
237 238 237 229 230 230 231 232 231 232 231 232 231 229 229 230 230 230 230 229 
227 228 189 198 233 231 232 232 233 233 234 232 232 232 234 233 
234 235 236 234 234 234 236 235 235 234 236 236 235 236 236 237 
237 237 236 237 239 237 239 238 237 235 237 238 237 238 237 237 
235 236 236 237 237 235 234 236 234 236 232 234 237 202 204 235 
237 237 236 237 236 237 238 237 238 238 238 238 237 237 237 236 
235 238 237 230 231 229 231 231 231 232 230 230 231 230 226 229 230 229 228 228 
231 208 177 235 232 231 231 232 233 234 233 232 231 232 235 234 
234 233 234 232 237 235 238 235 234 235 236 235 236 234 236 238 
238 237 238 240 237 238 237 238 238 238 238 237 238 238 237 236 
237 237 237 237 236 236 236 233 235 236 236 235 236 236 198 208 
237 236 234 235 237 237 237 238 238 240 239 238 237 238 236 239 
239 238 238 226 229 229 230 231 229 230 231 231 230 230 230 230 230 227 226 230 
223 172 228 232 231 231 232 231 231 231 233 233 231 229 232 234 
234 231 234 235 234 236 236 235 235 235 234 235 236 236 236 237 
236 236 237 237 237 236 236 237 237 238 237 236 235 237 238 237 
237 236 236 235 235 236 235 236 235 235 238 236 233 237 236 205 
213 237 236 237 238 236 236 237 236 236 236 238 238 238 239 236 
237 238 238 228 228 228 228 230 232 232 230 229 228 229 229 230 232 226 229 227 
171 212 233 233 232 233 232 231 231 233 233 232 231 233 233 234 
234 232 232 234 235 235 234 234 235 236 235 235 235 236 237 235 
237 237 237 236 235 237 237 238 237 237 238 237 236 237 236 235 
235 236 237 237 235 236 235 235 237 237 235 234 235 235 234 231 
185 219 236 235 235 236 235 236 236 238 240 235 239 239 238 237 
235 238 237 228 227 228 227 229 228 230 230 229 230 228 227 230 229 227 227 190 
194 231 232 231 232 231 232 232 233 233 233 233 232 232 234 234 
234 232 233 235 234 235 234 234 234 234 236 234 235 235 235 237 
237 235 236 235 235 236 237 237 237 237 236 237 236 236 234 236 
235 235 237 236 236 236 236 237 236 236 235 233 234 232 234 234 
233 197 232 236 236 235 236 237 237 237 238 236 235 237 237 236 
237 236 237 228 231 227 228 228 229 228 228 231 229 229 227 227 227 227 219 179 
236 232 232 231 233 233 233 233 233 233 234 234 233 231 233 233 
234 232 233 234 235 235 234 235 236 236 235 235 235 236 237 236 
237 236 234 237 236 236 235 236 237 236 237 236 236 235 236 235 
235 237 236 236 237 236 235 237 237 236 235 234 236 234 233 233 
235 220 196 235 238 236 237 236 234 238 238 238 239 239 237 239 
240 239 239 228 227 226 228 227 229 228 230 228 229 227 229 228 227 230 164 224 
233 231 233 233 233 233 233 233 232 232 232 231 233 233 233 233 
233 234 234 234 234 234 235 235 234 236 235 235 234 236 234 236 
236 236 235 237 236 239 238 238 236 237 235 236 236 238 235 236 
236 236 237 237 236 235 236 236 236 236 235 234 235 235 233 233 
233 234 206 206 237 237 235 238 239 239 239 238 238 238 237 237 
239 238 237 226 228 227 228 224 228 230 229 230 230 228 225 227 230 197 196 236 
231 229 232 231 232 232 233 233 231 230 232 232 231 233 232 233 
233 232 234 235 233 233 236 235 235 236 237 234 234 236 236 236 
236 235 236 235 236 235 235 238 237 236 237 235 235 234 236 235 
236 237 236 236 237 235 235 235 236 234 235 234 236 235 235 235 
234 235 236 204 224 237 236 238 238 239 240 238 239 238 238 238 
239 238 235 229 227 227 227 225 225 230 228 229 230 229 227 228 221 162 229 231 
229 232 232 233 231 233 232 231 232 232 234 232 231 236 233 233 
234 233 234 234 233 234 235 235 233 235 234 235 235 234 235 236 
238 236 237 237 236 236 236 236 235 236 236 235 235 236 235 236 
236 237 237 237 236 236 237 237 237 234 236 235 234 235 234 234 
235 236 237 234 198 227 236 235 235 237 237 236 238 239 238 238 
238 238 236 229 226 229 227 229 229 229 228 230 232 228 228 230 164 217 232 232 
232 232 233 230 233 232 231 233 230 227 232 232 232 233 233 234 
232 232 233 232 234 234 234 235 234 233 235 235 234 234 233 235 
234 235 236 237 236 236 237 236 236 236 237 236 236 235 235 236 
236 237 237 236 237 237 237 237 235 236 236 236 235 238 233 235 
235 236 236 235 207 202 232 235 236 238 237 239 240 239 236 238 
238 238 238 231 228 228 229 225 227 229 230 228 227 227 227 215 169 233 231 232 
231 231 231 230 233 233 232 232 232 233 231 232 232 233 231 232 
232 233 234 233 234 235 235 234 233 234 235 235 234 235 234 236 
234 234 236 236 236 236 234 237 237 236 235 235 235 235 235 235 
236 235 235 235 236 236 235 235 237 236 235 235 236 233 235 235 
235 234 235 235 236 186 222 236 238 237 238 240 238 239 239 239 
237 238 240 230 229 229 230 228 228 226 228 229 228 226 226 164 218 232 229 232 
231 233 233 230 231 232 232 231 230 231 231 231 231 232 232 231 
233 233 233 233 233 234 234 234 234 236 236 236 234 235 234 237 
237 234 235 237 236 235 238 236 237 235 235 235 234 235 234 235 
235 235 235 235 234 236 235 235 236 237 235 234 235 235 234 233 
234 234 234 235 236 221 196 236 236 237 239 239 239 238 239 239 
238 239 237 230 229 230 227 229 228 228 227 229 228 226 218 177 238 230 230 230 
231 232 231 232 232 231 231 231 231 231 228 229 231 232 232 231 
232 231 232 233 232 234 234 234 234 234 235 235 234 234 235 236 
236 235 236 237 235 235 235 235 234 235 235 235 236 235 233 235 
234 234 236 237 236 235 237 236 235 236 236 236 235 236 235 236 
233 234 234 234 235 236 177 219 237 236 238 239 236 240 239 238 
238 237 237 230 230 228 229 228 227 226 226 229 226 224 179 221 232 230 232 232 
229 230 229 232 232 231 228 231 230 230 231 229 231 230 230 230 
231 229 232 232 233 234 233 234 234 234 234 235 233 234 235 235 
236 237 235 236 236 236 235 236 237 235 234 235 236 235 235 234 
234 235 235 235 234 235 235 235 237 237 235 236 237 235 236 235 
235 235 235 234 236 236 218 190 237 237 236 237 238 239 238 237 
239 237 238 231 230 228 229 228 229 226 227 229 228 223 175 238 231 230 231 232 
230 234 231 229 230 229 230 229 228 230 231 231 232 231 233 231 
231 228 232 232 234 232 234 232 234 235 234 234 234 234 235 236 
236 236 235 235 235 236 235 235 236 236 236 234 235 235 235 234 
234 234 236 235 237 236 235 234 234 235 235 236 236 235 234 234 
235 235 234 235 236 236 240 174 224 235 235 237 237 238 236 240 
238 238 238 230 229 229 226 227 227 228 227 229 230 197 210 232 230 229 231 230 
230 230 229 230 231 229 227 228 230 232 234 233 232 231 233 235 
232 232 232 232 232 232 234 235 235 233 236 235 235 235 235 235 
235 236 236 235 234 235 237 236 236 234 235 235 234 234 234 234 
234 235 236 235 234 236 235 236 237 236 237 236 236 236 236 235 
234 235 234 236 238 234 236 198 202 235 235 236 237 239 239 239 
239 238 238 230 230 228 228 228 227 228 226 229 226 169 234 232 231 231 231 228 
230 229 229 229 228 229 229 226 231 227 202 138 127 134 153 159 
200 221 229 231 232 232 235 236 235 234 236 235 235 235 236 236 
236 236 235 235 234 235 235 234 234 234 234 234 234 234 233 234 
235 238 237 236 227 231 231 235 236 235 236 236 235 236 236 236 
235 235 235 235 236 236 234 219 187 238 235 237 236 237 236 238 
239 238 238 231 228 228 227 230 226 229 227 226 216 176 235 231 229 231 229 230 
229 229 228 228 228 228 229 228 207 79 43 53 57 53 53 60 
85 132 215 231 232 233 232 231 234 236 234 230 233 236 235 236 
234 234 232 235 232 234 234 234 234 234 234 233 233 235 233 233 
234 193 146 125 115 120 141 179 226 235 233 236 237 236 235 235 
235 237 235 236 235 235 235 237 170 235 238 236 237 239 236 237 
238 239 238 230 231 230 230 228 226 226 227 229 191 209 232 231 230 231 231 229 
228 230 227 227 228 229 226 223 101 73 69 68 71 78 79 101 
112 169 223 229 231 232 233 233 233 233 234 234 235 236 236 235 
236 235 234 234 234 234 235 235 235 234 234 233 232 233 232 234 
152 82 86 91 102 88 99 107 153 230 235 236 235 235 235 235 
237 235 236 236 236 236 235 238 198 218 237 237 237 239 237 235 
238 237 239 229 230 231 228 229 228 228 227 231 159 232 230 231 231 230 229 229 
228 228 228 226 228 229 226 230 136 93 90 131 177 183 210 229 
213 206 230 227 231 231 232 231 232 233 233 233 234 235 235 234 
235 235 233 235 236 234 234 234 234 233 233 233 232 231 230 182 
79 77 92 95 104 112 127 130 115 193 235 233 233 236 237 236 
236 235 235 235 235 236 234 236 223 187 237 236 238 238 238 238 
238 239 237 229 230 232 230 232 229 227 225 193 147 232 231 229 230 230 230 229 
228 228 227 229 228 228 229 225 145 73 149 220 233 234 234 233 
234 232 231 229 232 232 232 231 231 233 233 234 233 235 236 238 
236 235 233 235 234 235 234 235 234 233 234 235 231 233 232 125 
84 118 125 139 147 164 165 167 163 164 227 234 232 235 236 234 
234 234 234 235 237 236 235 237 237 188 235 236 238 240 239 238 
240 238 239 229 230 230 228 229 228 227 229 154 162 233 231 232 230 229 229 227 
228 227 226 227 227 228 229 203 138 102 169 222 232 231 233 230 
231 231 230 230 230 233 234 232 231 234 233 233 233 233 235 235 
236 235 234 234 235 235 236 234 233 234 235 234 233 234 236 179 
144 182 215 227 233 229 232 234 184 187 196 232 233 231 236 236 
235 235 235 235 235 236 237 235 239 194 227 237 237 238 239 239 
239 239 239 229 228 229 230 228 225 227 222 124 186 232 230 229 229 229 228 228 
229 229 227 227 224 228 197 164 221 171 231 229 230 231 231 230 
230 231 230 228 229 231 232 231 233 233 234 233 233 235 234 234 
236 234 234 235 234 235 235 235 234 234 234 234 232 233 235 240 
229 229 234 237 238 237 235 236 208 200 207 205 227 220 236 236 
235 236 236 236 235 236 236 236 234 209 212 238 237 239 238 236 
238 239 238 230 229 228 227 226 228 226 222 130 226 231 230 229 229 228 227 227 
226 226 229 228 231 210 161 221 222 176 229 229 229 231 232 232 
232 231 230 230 230 230 231 233 232 233 234 233 232 234 234 235 
236 236 235 236 235 234 236 236 235 235 236 234 235 234 233 236 
238 239 237 235 236 235 236 235 166 182 240 190 205 218 235 235 
236 235 235 236 234 234 234 234 234 220 194 237 237 237 239 239 
239 239 238 227 228 227 228 226 223 224 225 168 235 230 230 229 229 227 229 227 
226 229 230 228 207 169 223 229 218 177 229 229 230 231 231 231 
230 232 231 230 231 226 231 230 232 233 233 233 233 233 235 236 
236 235 236 236 235 236 235 234 234 236 235 235 235 236 234 235 
236 236 234 235 235 236 235 234 177 190 235 227 159 224 235 234 
234 235 236 235 234 235 234 235 235 232 169 234 237 236 237 238 
238 238 241 229 227 228 226 226 226 225 220 178 231 230 229 229 228 228 226 227 
227 227 230 211 163 228 232 230 218 178 228 232 232 232 230 229 
230 231 230 231 230 231 231 232 231 231 231 232 233 234 232 236 
236 237 236 235 235 235 235 234 237 237 235 235 235 235 236 235 
234 235 235 234 235 234 234 230 169 204 234 233 169 225 235 234 
235 236 235 236 234 236 235 233 235 236 176 220 236 238 238 238 
238 238 237 228 228 228 225 224 225 229 211 183 226 227 229 229 228 228 227 226 
228 226 232 170 210 231 230 229 224 185 231 231 232 233 231 233 
231 231 232 229 231 230 231 232 231 231 231 232 232 234 232 236 
239 236 237 235 235 236 235 236 235 234 235 236 235 234 236 235 
235 235 235 235 234 234 235 231 164 193 231 232 183 226 235 237 
235 235 236 234 235 235 234 233 234 236 186 209 237 237 238 238 
238 239 239 226 227 227 227 223 226 225 206 197 230 230 227 229 228 228 228 228 
226 228 227 197 221 226 228 227 213 178 232 231 231 230 230 230 
231 232 231 231 230 228 232 232 233 231 232 233 233 232 232 233 
236 234 235 235 237 235 236 235 233 235 236 237 235 236 236 236 
237 237 235 235 234 235 234 224 153 204 233 231 183 224 235 234 
234 235 235 234 235 236 234 233 234 232 207 195 237 237 237 239 
238 239 239 227 226 226 225 225 224 225 205 199 229 229 228 227 229 226 225 225 
224 226 226 196 225 228 228 228 212 184 229 231 231 229 230 231 
230 231 230 231 230 228 232 231 232 229 230 231 232 233 232 234 
237 237 236 236 235 234 235 234 234 235 235 235 235 234 236 234 
234 235 235 235 234 234 234 222 184 213 236 233 201 210 234 236 
234 234 234 232 233 235 236 233 233 233 216 188 238 237 236 237 
238 238 239 226 226 226 225 224 224 226 205 200 231 229 229 228 228 227 225 225 
225 225 223 184 220 227 228 226 208 183 228 231 230 229 229 230 
232 232 231 231 231 230 231 230 230 230 229 231 230 233 233 235 
235 236 235 236 234 235 236 236 235 234 234 235 235 234 235 235 
234 234 235 235 234 234 235 200 187 209 233 234 206 211 234 237 
236 235 234 234 233 234 233 233 232 233 229 182 236 236 237 237 
238 238 235 227 227 225 225 225 224 226 209 207 230 227 228 227 225 225 227 225 
225 225 223 175 226 228 228 228 209 181 230 230 230 229 229 231 
230 232 232 231 229 232 231 230 232 231 230 231 231 233 234 234 
236 236 235 235 235 236 234 235 235 235 234 234 235 235 235 236 
235 236 236 235 236 236 233 177 163 211 234 234 205 208 234 233 
235 234 234 230 232 235 236 234 234 234 232 197 234 235 236 235 
238 238 238 226 225 225 225 223 224 226 203 197 227 229 228 229 227 227 229 227 
224 227 219 164 228 226 226 227 214 184 230 230 230 228 229 232 
232 230 230 230 231 232 228 229 231 230 230 229 231 230 229 232 
235 236 236 234 237 235 235 235 235 234 234 233 233 235 235 235 
235 236 237 235 234 233 231 179 181 215 235 234 215 194 234 234 
232 234 234 231 230 235 234 236 234 235 226 183 233 236 237 236 
237 237 237 227 226 227 224 220 224 224 202 202 230 229 227 226 227 227 226 224 
226 226 210 182 229 223 225 225 201 177 231 229 229 229 229 230 
230 231 231 230 228 231 228 230 231 229 231 231 231 230 229 229 
234 235 235 236 234 234 235 235 236 234 234 233 234 235 235 234 
234 234 234 233 233 233 228 174 184 211 232 233 222 190 232 234 
233 235 234 233 234 235 233 234 236 235 233 186 234 236 236 236 
238 237 237 226 225 225 224 227 228 227 200 184 230 225 227 228 226 226 227 226 
226 226 197 189 225 226 224 226 197 178 230 229 229 228 230 230 
231 231 230 229 229 230 228 229 228 231 229 229 229 230 227 227 
233 236 235 235 235 235 234 234 235 234 234 234 234 234 236 234 
235 233 236 233 233 234 229 168 198 223 233 230 221 180 234 233 
235 235 235 235 235 234 234 235 235 235 230 186 233 235 236 238 
237 237 238 225 225 224 224 223 224 224 215 193 229 226 229 227 227 226 226 225 
225 223 193 208 228 227 227 224 199 182 226 228 232 230 231 231 
231 230 226 228 230 230 230 230 230 229 229 229 229 228 225 228 
231 235 235 233 235 234 234 234 234 234 235 235 235 236 234 234 
235 233 235 235 233 235 216 165 209 236 234 231 224 165 232 234 
235 235 235 235 234 234 235 235 235 234 233 183 234 238 235 236 
236 237 238 225 224 224 225 225 225 226 216 189 229 228 225 226 227 225 226 226 
225 224 184 208 228 224 226 225 189 184 227 227 228 229 230 230 
231 229 230 230 230 230 230 229 230 231 230 229 229 230 230 227 
228 232 234 236 235 234 234 235 234 234 236 236 235 235 234 234 
234 234 235 235 234 233 218 164 210 231 234 232 223 172 234 234 
233 234 235 235 235 236 234 234 234 234 233 178 227 236 237 237 
237 237 237 224 224 225 223 226 226 226 220 178 230 228 227 226 227 227 227 229 
226 223 184 211 226 225 226 225 173 199 226 227 229 229 230 229 
230 230 228 227 225 228 229 229 230 229 231 228 228 229 225 227 
229 232 234 235 234 234 234 235 234 234 236 235 236 235 235 235 
234 234 235 235 235 233 210 155 207 232 232 231 226 177 235 234 
238 237 235 236 235 234 234 236 235 234 232 187 228 236 237 238 
236 237 237 223 223 222 223 223 222 224 224 193 227 227 226 226 225 223 226 227 
225 222 180 211 224 222 224 225 185 207 228 229 229 229 230 227 
227 229 230 230 230 230 230 231 228 229 227 227 228 227 226 223 
227 228 234 234 234 234 234 236 235 234 235 236 234 234 235 235 
233 235 232 234 234 233 209 163 210 234 232 231 227 168 231 236 
235 234 235 235 234 234 235 233 235 235 231 184 234 237 238 236 
237 237 237 224 224 224 224 223 222 225 225 184 225 229 227 225 225 223 225 225 
221 219 165 217 226 224 224 224 183 198 226 227 231 227 228 227 
229 230 230 229 231 229 228 227 228 228 228 227 227 226 225 224 
227 226 231 234 234 234 233 233 234 235 235 236 235 235 235 234 
234 233 233 233 234 233 222 161 219 232 230 232 230 171 231 236 
236 234 235 234 236 235 234 234 234 234 226 175 230 235 237 236 
237 236 237 225 225 225 222 223 222 224 227 179 219 226 226 225 225 224 224 224 
223 220 158 214 223 223 225 223 190 195 228 229 228 226 229 230 
229 228 227 229 227 229 227 228 227 228 230 228 226 226 224 221 
223 224 228 234 234 234 234 233 233 234 235 234 235 235 236 236 
234 235 234 233 233 231 216 162 204 232 232 231 230 162 226 235 
235 235 234 235 234 234 235 236 233 234 228 175 229 235 237 239 
237 237 238 224 224 221 224 222 222 224 224 189 201 227 225 225 224 223 223 223 
222 217 165 215 223 223 225 221 180 195 228 229 226 229 229 228 
226 228 229 229 228 230 229 228 227 228 228 228 229 226 226 224 
224 224 226 229 233 234 233 234 233 234 234 235 235 235 235 233 
234 234 234 233 234 232 224 167 213 232 232 233 233 158 231 235 
235 235 234 236 234 233 234 234 234 234 226 182 238 236 234 235 
234 236 235 224 223 223 222 222 221 223 221 210 176 228 225 225 225 223 223 223 
220 219 160 222 223 221 223 224 166 200 227 229 227 228 228 228 
226 228 229 228 230 229 228 228 228 230 227 227 227 227 226 225 
225 224 224 222 228 233 234 233 233 235 236 235 235 235 235 235 
234 235 234 233 235 234 219 151 218 234 232 234 231 170 224 233 
235 234 233 235 234 234 235 234 234 233 215 193 237 235 237 236 
238 235 236 224 223 222 221 222 223 223 221 214 166 227 224 224 223 223 222 220 
221 219 150 226 223 222 223 223 172 199 226 226 227 228 228 226 
228 228 227 230 222 229 228 228 229 228 227 229 225 226 227 225 
226 225 223 222 225 229 230 232 233 234 235 236 234 234 234 235 
234 234 233 233 232 232 223 158 220 233 231 233 229 169 226 232 
234 233 233 233 233 233 234 233 235 236 214 212 235 236 237 236 
237 235 236 224 224 223 223 224 223 222 222 220 182 225 225 224 223 224 222 221 
222 214 146 223 223 222 222 222 172 198 225 227 226 228 228 226 
226 228 230 227 227 227 226 229 227 227 227 229 228 227 227 223 
222 225 225 223 226 226 229 229 230 233 233 235 235 235 235 234 
234 233 234 233 232 235 222 162 226 232 233 233 229 178 222 233 
234 233 234 233 233 233 231 233 235 236 191 222 237 235 236 237 
238 236 235 224 223 223 223 222 222 222 222 222 194 212 225 224 222 223 222 221 
221 212 158 224 222 222 224 221 186 192 226 226 227 226 226 227 
229 230 229 229 229 228 226 227 228 229 227 225 226 227 226 227 
227 227 226 225 225 227 227 228 229 233 232 234 233 233 234 234 
235 235 234 234 232 233 219 162 222 234 232 231 230 163 217 232 
233 233 235 233 233 234 232 233 231 234 188 227 237 236 235 235 
235 235 235 225 223 222 221 222 221 222 218 222 220 192 231 224 223 223 223 221 
221 211 138 226 222 223 224 221 181 197 222 226 227 223 226 224 
226 228 229 229 229 228 227 229 228 228 228 228 226 226 227 228 
227 226 227 226 226 226 226 228 229 231 233 234 232 234 233 234 
235 233 233 235 233 234 222 160 226 233 231 231 230 170 222 233 
233 233 233 233 233 232 232 233 235 228 194 238 236 235 235 235 
235 235 235 224 222 223 222 223 223 222 221 225 225 169 226 226 223 223 225 224 
220 213 159 227 224 222 221 222 193 193 223 224 227 226 228 225 
226 226 227 229 229 229 230 228 228 228 226 227 228 226 227 225 
223 227 225 228 226 227 226 228 227 227 231 231 234 232 234 235 
234 233 234 235 234 234 218 165 231 233 233 230 231 171 225 233 
233 234 233 233 232 232 232 232 233 212 203 236 234 234 235 235 
236 236 237 224 224 224 225 225 222 223 223 222 225 195 212 228 225 225 222 222 
221 197 159 226 221 220 221 217 189 184 223 225 226 225 225 225 
226 227 225 229 229 230 227 227 228 227 227 227 223 225 225 223 
225 225 226 228 227 228 227 229 227 226 229 232 232 232 231 233 
233 236 235 233 234 232 212 157 225 233 233 232 231 176 226 233 
235 233 232 230 229 232 229 233 234 189 217 235 234 236 235 238 
237 236 236 225 224 224 223 223 223 223 221 222 224 216 180 223 223 223 224 222 
223 201 151 220 219 221 221 220 198 174 220 225 225 225 224 225 
228 228 226 227 227 228 228 226 227 230 227 225 228 227 226 226 
227 225 225 226 227 225 228 226 227 228 228 229 228 229 233 233 
233 233 235 234 234 234 202 157 225 233 234 233 226 169 224 233 
231 233 231 232 232 232 230 233 235 186 233 234 235 236 236 234 
236 236 237 225 224 223 222 223 221 221 221 223 224 224 172 223 223 224 222 222 
223 214 158 225 221 220 219 217 201 163 220 223 224 227 226 229 
228 227 227 227 227 226 227 227 227 227 225 227 226 225 225 228 
224 224 224 225 225 224 227 226 230 227 227 229 231 231 231 233 
233 234 233 233 233 233 199 165 224 233 232 233 222 170 224 234 
232 233 233 232 231 232 230 233 230 184 239 234 236 237 235 237 
237 236 235 224 224 221 222 224 223 222 223 222 224 223 201 207 224 223 224 220 
223 213 153 221 221 220 220 217 190 165 220 222 223 223 227 228 
228 227 227 227 227 227 227 227 227 227 225 224 223 225 225 225 
224 223 222 223 226 225 227 226 226 225 228 229 230 231 231 232 
232 231 232 233 233 236 191 172 223 232 232 233 221 169 234 233 
232 230 231 232 231 231 231 233 203 198 236 235 236 235 236 237 
236 234 236 223 221 222 223 224 223 223 222 221 222 221 222 170 226 223 222 221 
223 219 154 222 221 222 220 217 199 173 223 222 224 225 227 228 
228 229 227 226 228 230 227 228 227 227 224 224 226 224 223 223 
226 225 223 225 223 224 226 228 229 227 228 229 229 230 230 230 
232 233 230 231 232 237 200 176 228 231 233 234 227 173 231 232 
231 232 231 231 231 232 230 232 167 230 235 235 235 236 236 236 
237 236 235 223 223 223 224 222 224 223 224 221 223 223 223 191 201 223 222 220 
223 216 142 221 221 221 220 221 191 180 223 221 224 226 226 228 
228 227 226 226 226 225 225 224 223 224 226 224 223 223 224 224 
225 228 227 222 222 226 224 224 227 226 227 226 227 226 230 233 
230 229 230 230 231 232 180 172 226 233 232 235 230 173 230 232 
232 231 231 234 233 232 232 216 176 233 234 235 236 238 234 236 
235 236 237 222 222 224 222 224 226 224 223 225 221 223 223 219 167 226 225 223 
220 210 129 220 222 220 220 224 181 188 221 223 226 227 226 229 
226 227 225 225 225 225 227 225 224 224 225 223 221 223 226 230 
220 215 226 226 222 223 224 223 222 224 224 224 225 226 228 227 
230 229 230 230 231 228 174 154 218 232 232 235 230 174 229 232 
231 231 232 234 231 232 238 155 211 238 237 235 236 238 236 237 
237 236 237 222 223 223 221 223 224 223 224 223 222 223 223 222 187 201 225 222 
221 219 159 214 222 222 223 221 185 188 223 222 224 226 226 229 
227 226 227 226 225 226 225 224 226 223 223 222 224 224 223 206 
181 145 172 224 228 222 224 224 222 224 225 224 224 225 225 226 
228 229 230 229 230 221 161 167 206 228 229 232 226 164 229 230 
231 232 232 230 231 235 200 191 235 234 236 237 235 236 237 238 
235 237 235 223 221 224 223 223 224 223 223 224 223 223 223 226 219 165 221 222 
220 215 135 226 221 221 222 221 199 180 224 221 227 225 226 229 
228 227 228 227 227 227 225 225 225 225 222 219 209 183 136 128 
140 179 185 169 212 222 222 222 223 224 223 225 222 224 227 229 
228 228 227 227 227 224 161 178 199 223 220 219 198 156 225 229 
230 232 233 232 230 204 156 232 234 235 237 234 236 236 236 238 
238 239 237 221 223 222 222 222 224 225 224 224 221 222 224 223 224 194 190 223 
221 199 132 223 222 221 221 220 205 155 210 219 229 230 227 228 
227 227 225 227 226 225 225 226 225 222 216 213 192 157 202 194 
215 218 227 215 181 219 221 221 225 224 226 223 222 227 226 227 
227 225 225 225 227 217 164 193 188 225 225 225 191 179 225 230 
231 231 233 234 223 181 218 233 233 234 235 235 236 237 237 237 
238 237 236 220 222 223 221 222 224 224 224 223 223 221 223 219 225 225 170 222 
222 204 140 223 221 223 223 220 215 159 196 221 226 228 227 227 
226 229 227 226 225 227 227 224 222 222 222 219 167 193 229 227 
231 227 222 224 207 192 223 219 221 224 225 228 225 227 226 224 
227 228 229 226 223 206 145 203 198 223 225 222 188 194 228 229 
229 231 232 231 199 187 229 233 234 235 236 235 236 237 238 237 
237 235 237 222 223 220 221 222 223 224 223 222 223 221 222 221 225 225 197 181 
222 205 138 224 223 222 224 219 215 166 192 222 222 226 227 225 
227 225 226 226 224 223 221 215 223 223 225 219 169 226 224 225 
226 222 215 217 222 176 214 219 223 224 226 226 227 226 227 226 
227 225 225 224 220 217 184 212 221 225 223 226 178 195 227 226 
228 229 232 215 166 221 232 229 231 234 235 236 236 236 236 237 
238 236 237 223 222 221 219 218 222 224 224 223 224 223 223 223 222 223 226 183 
205 220 164 220 223 222 222 220 221 153 198 223 225 226 226 226 
229 228 226 226 225 225 224 226 227 228 226 223 171 224 218 218 
219 215 215 221 227 183 186 225 226 226 223 225 224 226 227 227 
224 225 226 222 223 215 202 221 228 225 226 226 181 200 226 227 
229 231 229 165 200 233 232 233 232 234 237 235 237 235 236 236 
235 236 236 223 220 220 218 221 219 223 224 225 224 223 222 225 219 223 224 221 
172 216 153 210 221 222 222 223 219 151 198 222 223 223 225 226 
226 227 226 228 226 225 224 225 228 227 228 224 180 225 220 221 
225 226 227 230 222 149 213 224 225 226 227 226 227 225 224 225 
224 224 223 224 223 213 189 218 226 225 225 227 170 207 229 228 
228 230 180 177 229 232 232 232 233 234 234 235 234 235 237 235 
237 236 236 221 224 220 221 219 223 224 223 224 222 222 222 224 223 222 222 225 
211 162 159 178 220 221 221 221 220 150 200 223 225 225 225 224 
225 226 228 227 226 226 226 225 225 228 227 226 202 209 230 234 
231 230 226 194 152 180 227 224 224 225 225 226 225 224 225 224 
227 225 227 226 226 186 147 216 224 225 224 227 162 211 226 229 
230 217 165 225 234 231 233 235 234 234 233 234 233 236 234 235 
236 236 236 222 221 222 220 220 222 223 222 224 223 223 225 223 223 222 224 224 
227 201 133 147 224 221 220 222 224 160 177 222 225 226 226 227 
227 228 226 227 229 226 225 226 225 224 228 226 227 191 178 176 
171 153 133 146 195 226 226 227 228 227 225 224 225 224 223 226 
226 225 226 222 219 178 164 220 225 226 226 227 146 218 226 229 
226 169 201 229 232 232 231 234 234 235 233 234 234 237 235 235 
235 235 237 221 222 220 220 218 222 222 223 222 223 223 221 224 222 223 222 226 
221 226 168 153 227 223 221 222 220 152 178 223 225 224 225 227 
226 226 227 227 225 226 228 227 227 225 226 228 231 227 211 172 
186 187 219 223 230 229 225 227 225 225 227 227 227 225 225 225 
223 226 226 223 220 183 165 225 224 226 226 222 161 224 230 222 
171 186 231 231 232 233 232 232 233 234 234 233 235 234 234 236 
235 236 236 220 219 220 219 219 220 222 222 223 221 223 222 223 223 224 221 223 
222 222 224 157 181 226 223 223 221 159 144 224 227 227 225 225 
226 225 225 227 226 227 226 226 227 227 227 227 227 226 227 230 
230 229 227 227 229 227 226 227 227 226 226 227 225 226 224 224 
227 226 225 224 223 189 167 225 228 227 227 216 162 228 223 183 
170 230 229 231 232 233 232 232 233 233 233 233 234 234 233 234 
235 236 237 220 219 221 224 220 221 220 221 221 223 223 222 223 223 223 222 225 
223 221 225 230 168 207 223 225 219 170 134 224 226 226 225 227 
226 228 227 225 228 225 226 222 227 228 227 225 224 225 225 228 
226 226 224 223 227 226 227 228 223 228 224 227 224 225 225 226 
225 226 225 223 222 188 156 221 227 229 227 221 175 227 182 169 
217 228 231 231 231 232 233 234 233 234 232 233 232 234 234 235 
235 236 235 219 219 220 222 220 221 219 223 223 218 221 223 224 223 223 224 223 
223 221 221 226 217 163 198 224 222 204 142 224 223 223 225 226 
225 226 225 225 226 225 225 227 227 226 228 226 227 227 227 226 
226 225 224 225 224 225 226 227 227 226 226 224 226 225 226 226 
226 225 227 225 226 205 150 215 227 228 227 227 155 178 154 218 
230 228 230 231 231 233 231 232 232 232 232 233 232 233 233 235 
237 234 235 219 220 220 219 218 219 220 222 219 222 221 221 223 222 222 220 221 
222 222 221 221 224 220 151 188 226 220 133 218 225 224 223 222 
224 224 225 225 225 223 223 226 225 225 227 227 227 226 226 226 
224 226 225 225 227 227 227 226 225 223 225 227 224 225 225 223 
225 226 224 227 229 206 153 215 228 227 230 227 146 159 222 229 
228 229 231 232 231 234 232 231 232 231 233 233 234 233 233 234 
233 233 234 219 217 218 218 218 218 220 219 219 219 220 221 221 223 222 221 222 
221 220 221 222 221 223 220 154 175 218 147 184 219 223 224 224 
224 224 224 224 223 223 224 225 223 224 224 226 227 226 226 227 
226 225 226 225 228 225 226 227 228 227 225 225 225 224 223 225 
226 223 227 227 228 206 147 222 228 230 224 167 167 221 229 227 
228 228 230 228 231 231 232 232 232 233 233 234 233 229 233 234 
234 236 235 217 216 219 219 216 215 220 218 219 216 220 220 222 221 223 221 222 
221 221 221 220 221 219 222 221 156 160 169 221 224 223 223 222 
221 222 221 223 225 224 221 224 225 225 225 225 225 226 223 225 
226 226 225 226 224 227 227 226 225 225 223 225 225 228 228 224 
223 226 227 226 227 210 143 228 230 222 151 159 222 228 228 227 
228 230 230 231 231 230 231 229 232 232 232 232 232 231 234 234 
235 234 235 219 217 217 217 215 218 220 216 218 217 218 221 220 221 222 222 221 
220 219 218 219 219 218 219 221 222 181 146 205 226 223 222 220 
222 220 221 222 223 222 222 223 222 223 223 225 226 226 226 226 
225 225 224 226 224 223 225 224 223 224 227 224 223 222 221 224 
226 224 227 226 230 217 168 228 216 148 176 225 230 228 229 230 
230 230 231 232 231 230 229 231 231 231 231 230 232 230 232 231 
232 232 232 216 215 216 217 218 217 216 217 218 217 218 218 220 220 219 220 220 
220 218 219 217 215 217 216 219 220 221 198 137 173 211 219 219 
218 221 221 221 218 221 220 223 223 225 226 227 227 225 226 226 
224 224 224 225 225 223 223 224 223 224 224 223 221 222 221 226 
224 225 226 225 228 224 181 171 130 194 234 230 228 227 227 228 
228 230 230 229 231 230 227 229 231 230 230 231 230 229 231 233 
232 232 230 215 216 217 216 215 214 216 216 216 217 218 217 218 217 220 219 219 
221 218 220 218 218 218 219 217 216 221 222 221 182 137 180 210 
215 220 222 218 219 221 218 223 223 224 226 224 224 224 225 225 
224 224 225 224 222 224 223 221 223 224 224 223 222 222 222 223 
225 225 228 231 229 198 120 142 215 234 229 228 227 227 227 228 
228 228 226 229 229 230 231 231 228 229 230 229 231 231 231 230 
233 232 230 215 215 213 214 215 215 217 216 218 215 217 217 217 215 219 218 217 
218 219 218 217 219 219 219 218 215 219 218 218 221 210 162 138 
195 213 219 222 222 222 222 223 222 221 223 224 224 225 224 226 
223 225 222 223 223 222 223 221 222 224 225 224 219 221 221 225 
224 226 223 220 149 144 196 232 233 228 225 228 227 227 228 228 
228 228 226 227 229 228 227 228 228 230 227 229 230 229 230 230 
231 232 230 214 212 214 215 214 213 215 214 217 214 213 215 214 214 219 219 220 
217 215 217 218 216 215 215 216 215 219 217 214 216 221 223 202 
149 149 199 208 217 221 223 223 224 223 223 225 223 221 222 224 
223 223 223 221 220 220 220 219 220 222 224 225 221 223 220 222 
219 188 153 140 179 232 230 229 227 227 226 225 227 228 226 226 
228 226 227 229 228 227 227 228 227 227 228 227 226 229 230 229 
228 226 230 214 214 212 214 214 215 214 215 215 216 212 213 216 214 215 216 218 
217 218 217 215 217 213 217 215 217 217 216 215 218 215 218 221 
219 190 174 150 144 185 216 220 223 223 220 222 226 225 225 223 
224 224 223 224 222 222 221 221 219 224 224 224 222 219 217 186 
156 152 187 219 223 227 225 225 224 224 225 227 227 227 226 225 
226 227 226 224 226 226 226 225 224 227 227 228 227 229 227 227 
228 231 230 212 211 214 213 212 213 213 215 213 215 213 213 212 211 215 214 215 
217 215 215 216 217 215 216 217 216 216 216 215 214 215 216 216 
215 219 219 217 149 123 121 136 148 184 203 222 224 226 227 226 
224 228 225 229 226 224 224 225 223 217 218 217 206 166 135 149 
188 214 222 223 221 222 221 224 224 226 225 224 225 225 224 223 
225 225 226 224 225 224 225 225 227 226 223 222 224 225 226 227 
227 229 228 212 211 212 212 210 212 214 213 213 213 213 213 212 212 213 215 213 
214 213 212 215 216 215 215 214 214 214 214 214 215 215 214 214 
213 216 218 217 218 219 198 164 106 139 157 155 161 161 167 177 
187 177 178 165 177 191 187 185 180 160 127 121 138 175 207 218 
218 220 222 221 220 222 223 222 223 221 222 222 223 224 223 223 
224 223 223 222 223 224 223 222 224 224 224 221 223 223 223 224 
225 230 228 210 210 211 212 209 211 212 212 212 211 213 213 211 211 212 213 214 
213 213 215 214 213 212 214 215 216 215 215 214 212 215 216 215 
215 214 213 214 219 221 220 214 194 219 225 226 222 212 209 201 
187 190 193 173 173 146 164 156 152 175 198 215 221 220 221 219 
219 218 219 217 219 221 221 221 224 223 222 222 221 221 223 226 
221 222 221 222 222 222 221 222 222 221 222 221 222 223 224 226 
226 227 227 212 211 211 212 210 211 213 212 213 212 212 211 210 210 211 212 214 
213 211 211 212 214 214 214 214 215 216 214 214 215 214 214 216 
215 215 216 215 217 217 218 218 220 219 219 218 219 220 221 221 
219 221 222 221 222 221 222 224 227 221 221 224 228 221 221 221 
220 219 220 217 219 220 219 219 220 221 223 223 221 222 222 220 
220 221 221 222 221 220 222 223 222 223 222 219 220 223 222 223 
224 226 225 211 211 213 209 209 210 213 211 211 213 212 210 210 211 211 211 211 
212 210 209 212 212 214 212 212 212 213 211 211 211 215 212 214 
214 215 215 216 214 215 216 217 219 217 217 218 215 215 218 216 
217 219 220 218 217 220 217 218 221 219 219 217 216 218 217 217 
217 218 219 219 217 219 218 217 221 222 220 220 221 220 220 222 
222 222 222 222 220 221 221 221 222 218 221 221 221 222 222 222 
223 225 224 211 211 212 209 211 209 210 210 211 210 208 208 209 209 212 212 210 
211 212 212 210 212 213 212 211 212 213 213 212 212 214 214 215 
213 213 214 216 216 218 216 213 216 217 217 216 214 217 214 214 
215 217 218 217 219 217 217 217 218 219 217 218 218 217 216 219 
219 217 218 216 217 218 220 218 218 219 219 216 219 219 219 218 
219 220 220 220 220 221 221 220 218 222 219 220 219 221 224 223 
224 223 224 