P2
# Created by IrfanView
100 100
255
241 241 242 242 243 242 242 243 243 243 242 242 240 239 241 242 240 
241 240 240 239 238 240 240 238 239 239 239 240 240 238 238 239 
238 238 239 238 239 239 238 239 238 239 240 239 239 239 240 238 
239 240 239 240 240 239 240 241 240 239 241 240 240 240 241 239 
240 238 238 238 238 238 240 240 240 239 239 239 239 238 237 238 
239 239 237 237 237 238 238 241 238 239 237 239 238 239 239 239 
241 239 239 242 242 243 243 242 243 242 243 242 242 241 240 241 240 241 240 240 
238 240 240 240 242 239 240 240 240 240 240 241 240 239 238 237 
239 237 238 238 238 240 238 240 239 239 238 239 241 239 240 239 
239 240 240 240 241 241 238 239 240 241 240 239 240 241 241 241 
242 240 239 239 239 241 239 240 240 240 240 240 239 238 237 236 
240 239 238 239 239 239 239 241 239 238 239 238 238 239 242 241 
240 240 239 242 242 242 243 242 242 242 242 242 243 242 241 242 240 240 240 240 
239 240 240 240 241 239 241 239 239 240 239 240 239 239 239 237 
239 237 239 238 239 240 239 239 238 238 238 239 239 240 238 236 
239 240 238 237 240 240 238 240 238 240 241 240 240 242 241 241 
242 240 241 239 241 241 240 238 239 239 240 239 240 241 238 237 
239 238 238 238 239 239 237 240 241 239 238 239 240 239 241 238 
239 239 238 243 243 243 242 242 243 242 243 242 242 243 242 240 242 239 240 240 
241 240 238 240 239 240 240 239 241 240 240 239 239 238 237 237 
238 238 240 238 238 238 237 238 238 239 239 239 241 239 239 238 
239 240 239 239 240 241 241 239 238 240 240 241 240 241 240 241 
240 241 240 240 239 239 239 238 239 241 240 237 238 240 238 238 
239 237 238 237 235 237 238 238 240 239 239 239 240 240 242 241 
240 241 241 241 241 241 241 242 242 241 241 241 243 241 241 241 243 241 240 241 
240 240 239 241 240 239 239 240 241 241 240 238 237 238 237 237 
238 237 238 240 238 240 237 236 238 239 239 240 237 239 239 240 
239 240 238 239 240 241 240 240 239 240 240 240 240 240 239 240 
239 240 240 238 238 239 240 240 238 238 240 240 239 239 239 239 
240 238 239 238 238 238 238 240 238 238 237 240 239 240 240 242 
240 241 240 241 242 242 242 242 242 242 242 242 242 243 241 241 242 241 241 241 
241 240 239 240 240 241 240 239 240 240 240 238 239 237 235 237 
239 237 238 239 241 238 238 238 239 241 240 242 242 238 241 242 
242 241 242 242 241 239 242 240 241 242 240 240 241 240 238 240 
240 240 240 239 240 240 240 240 239 240 240 240 240 240 239 240 
239 236 237 240 241 240 241 237 239 240 239 240 239 240 239 239 
238 240 240 242 242 242 241 242 242 242 241 242 243 242 241 242 242 241 239 240 
239 240 241 241 238 241 238 239 238 239 239 237 239 237 237 237 
239 238 237 238 239 237 238 237 241 244 242 232 235 228 221 214 
209 206 203 206 200 202 218 227 228 233 237 242 243 241 241 240 
239 240 240 237 241 240 240 238 240 240 240 240 240 240 239 241 
240 239 240 239 239 240 240 239 239 237 239 240 240 241 242 240 
239 240 240 243 242 242 242 241 242 242 242 242 242 241 242 241 242 240 240 239 
239 240 240 241 241 239 239 239 240 240 238 237 237 238 236 237 
235 237 236 238 239 241 242 240 227 209 196 184 199 213 216 218 
227 232 225 228 231 224 226 221 207 209 213 209 216 231 241 241 
240 242 239 238 240 239 240 240 240 238 240 240 239 240 241 239 
237 237 239 237 239 240 239 240 240 240 240 239 240 239 239 240 
241 240 241 241 242 242 242 242 242 241 241 242 241 242 241 241 241 241 241 240 
240 240 239 240 239 239 238 238 237 239 240 239 238 238 237 238 
237 237 237 237 236 225 203 206 204 216 233 240 243 243 243 242 
242 242 239 240 242 242 242 241 241 242 239 228 226 209 206 215 
231 238 243 241 241 240 241 241 241 241 238 239 239 240 241 240 
241 239 237 238 240 239 239 241 240 240 239 239 240 242 241 239 
241 241 240 241 242 242 244 241 242 242 241 242 242 241 241 241 240 240 240 240 
241 240 239 240 240 239 239 237 238 240 239 239 238 237 238 238 
237 240 232 227 199 199 224 240 242 242 242 242 241 238 238 239 
240 238 239 239 237 238 239 240 239 240 241 242 243 242 234 219 
200 198 218 241 242 242 242 241 240 239 240 241 240 241 240 241 
239 240 240 239 239 239 240 240 239 239 238 241 240 240 240 239 
238 239 239 244 243 242 242 242 242 242 242 242 241 240 240 240 240 238 240 240 
240 240 239 240 241 240 239 239 237 239 237 239 237 238 239 239 
235 216 195 192 221 241 243 240 242 242 240 241 239 238 238 240 
239 240 238 238 240 238 238 238 239 240 239 240 241 240 242 243 
238 218 208 194 222 240 242 242 241 240 240 241 242 241 238 240 
240 239 241 240 238 239 239 240 240 238 239 241 240 240 241 240 
240 239 239 240 242 242 241 241 242 242 242 243 243 242 241 242 242 240 241 241 
240 241 240 241 241 240 240 240 239 238 237 237 240 240 234 215 
186 194 233 238 241 238 239 238 239 241 240 242 240 241 239 240 
237 238 238 238 238 237 239 239 239 238 239 240 240 239 240 242 
241 243 242 226 196 189 224 242 243 240 240 241 241 242 240 239 
239 238 238 239 241 240 240 241 240 240 240 239 239 239 241 241 
240 239 239 241 241 241 241 241 241 242 243 243 244 242 241 242 241 240 241 241 
240 240 239 239 241 238 239 238 239 238 237 240 238 224 186 197 
231 240 239 239 239 240 240 239 240 241 241 240 241 241 238 238 
239 237 236 239 238 238 237 240 239 238 239 240 241 241 239 241 
242 240 241 242 242 228 195 216 240 244 241 241 241 242 239 239 
237 239 241 239 238 239 239 241 240 238 238 239 240 240 239 239 
240 239 239 242 241 242 241 242 242 242 242 242 242 241 242 242 241 239 241 241 
240 239 239 240 240 239 239 239 239 238 238 234 199 185 218 236 
238 239 241 240 241 240 241 240 240 239 241 241 243 242 241 240 
241 238 239 238 239 238 239 240 239 238 240 240 239 240 239 240 
240 240 239 240 240 244 238 204 200 234 244 241 240 241 240 239 
240 240 240 239 239 240 238 240 239 240 238 239 239 240 239 239 
240 238 238 240 240 240 241 241 242 241 242 241 242 241 239 241 240 239 240 239 
240 240 240 241 240 240 238 239 239 240 228 190 203 239 240 239 
239 239 239 240 239 239 237 241 241 240 240 240 241 241 240 239 
239 240 239 239 239 242 240 239 238 237 238 240 238 239 239 240 
241 242 240 239 238 240 241 242 213 187 227 243 241 239 240 242 
240 240 239 239 239 240 241 239 240 240 240 239 241 239 238 240 
240 239 240 242 242 242 241 241 241 242 242 242 242 241 241 242 240 240 239 241 
242 241 240 240 240 240 240 239 240 221 178 228 242 241 240 240 
240 241 240 241 240 240 241 240 240 240 239 240 240 241 241 241 
239 240 240 242 239 240 239 240 241 240 241 240 239 240 241 241 
241 240 240 240 240 240 241 239 242 222 176 223 243 240 241 240 
239 239 240 240 241 240 240 240 240 238 239 240 240 239 238 240 
237 240 239 242 241 242 241 241 242 242 242 243 243 242 241 242 242 240 239 241 
240 241 242 240 241 241 241 235 206 193 230 241 242 241 241 240 
239 240 241 240 241 240 240 240 241 240 241 241 241 241 240 241 
240 242 240 240 240 239 239 241 240 241 241 240 240 240 240 240 
241 240 239 240 242 241 241 240 240 242 236 195 213 240 241 240 
237 239 240 241 241 240 239 239 239 240 239 240 239 237 240 238 
239 239 241 241 241 241 241 242 242 242 242 242 241 241 241 241 241 242 239 240 
239 240 241 238 242 242 231 198 209 241 242 241 240 238 240 240 
241 241 240 241 241 240 241 240 241 241 241 241 242 242 241 241 
241 241 239 240 239 242 240 240 239 239 240 240 240 240 240 240 
242 240 240 240 240 240 241 238 239 240 241 238 194 199 236 240 
238 239 239 239 240 240 241 239 238 238 240 238 239 240 239 240 
239 240 240 241 241 242 242 241 241 242 238 242 242 241 241 240 241 239 240 239 
239 241 239 239 243 225 188 227 245 242 241 240 240 240 239 239 
241 241 241 240 241 241 241 241 241 241 240 241 242 242 240 241 
241 240 239 240 241 240 240 241 240 239 240 241 240 241 241 241 
243 241 240 237 241 241 241 240 239 239 236 242 240 205 199 237 
240 238 239 239 239 239 240 241 240 241 241 240 240 240 240 240 
239 240 240 240 241 242 241 241 243 242 241 241 242 240 241 240 241 238 239 240 
240 241 241 241 221 189 233 243 242 241 241 241 240 241 240 239 
240 241 240 240 241 241 240 241 242 241 242 241 241 241 240 239 
240 240 241 240 240 239 240 240 241 239 240 241 240 241 239 240 
241 241 240 240 241 241 242 239 240 240 240 237 240 242 202 197 
239 241 237 238 240 238 240 241 240 240 240 240 239 239 238 238 
238 237 238 241 241 241 240 241 241 242 241 241 242 240 240 241 242 240 239 240 
240 241 239 221 178 227 243 240 241 240 240 240 241 241 241 240 
242 241 240 242 242 242 240 242 240 240 240 241 241 241 242 241 
240 239 240 240 240 239 241 240 239 240 240 241 242 239 240 240 
241 240 239 240 239 240 240 238 241 240 239 238 238 241 242 192 
202 240 240 238 238 239 240 240 237 240 240 238 239 238 239 239 
239 239 238 241 241 241 242 241 241 241 241 241 241 240 238 240 240 240 239 239 
241 245 225 189 231 240 241 240 241 240 239 240 241 240 240 241 
240 240 240 240 241 242 241 240 240 240 240 241 241 241 240 240 
240 240 240 239 240 241 240 240 240 239 239 241 240 241 240 240 
240 241 241 239 240 240 240 241 241 241 241 238 237 239 240 236 
184 216 242 240 240 238 238 239 240 239 239 241 239 241 240 239 
239 240 239 241 241 242 242 242 240 240 241 242 242 241 241 239 242 241 241 241 
225 192 182 228 243 239 240 239 240 241 241 240 240 241 240 239 
241 241 240 240 241 241 241 241 241 241 240 241 241 241 241 240 
241 241 241 242 241 240 240 241 240 240 240 241 241 243 240 240 
239 241 239 238 241 240 239 239 241 240 241 238 239 241 239 239 
230 172 225 242 238 239 240 238 238 240 239 239 239 240 240 239 
239 241 239 241 242 241 241 241 241 241 241 241 242 241 240 239 240 240 240 233 
172 184 228 245 241 240 240 241 241 241 241 240 239 240 240 239 
239 241 241 241 240 241 240 240 241 241 241 241 241 241 241 241 
241 241 241 241 241 241 241 241 240 240 239 241 240 240 241 241 
241 240 240 239 239 240 239 240 241 239 238 239 238 239 239 236 
243 218 185 236 241 241 241 240 239 240 240 239 240 240 239 239 
239 241 241 240 240 241 242 240 240 240 240 241 242 241 238 240 241 241 241 204 
184 229 242 241 240 240 241 241 241 241 240 241 242 241 240 241 
242 240 240 240 240 241 242 241 240 240 240 241 242 241 241 240 
240 240 241 241 239 240 241 241 240 239 239 240 241 241 241 241 
240 240 239 240 239 239 239 239 238 239 238 239 238 242 241 238 
238 241 195 205 241 239 241 241 240 241 239 240 241 240 239 240 
240 241 238 239 241 242 241 242 241 243 239 240 242 240 239 238 240 238 219 196 
232 241 243 242 242 241 239 240 241 241 241 241 239 239 239 240 
241 241 240 240 241 240 240 241 241 241 241 240 242 242 241 241 
241 239 241 241 241 240 241 241 240 241 241 241 240 241 242 241 
240 240 240 237 238 239 236 241 238 240 237 238 239 242 241 240 
239 238 232 183 235 242 239 240 241 239 240 241 241 238 241 238 
238 240 240 240 242 241 240 243 240 240 240 241 242 240 238 238 236 227 205 232 
241 240 240 241 241 239 240 239 240 240 239 240 241 240 239 238 
238 240 241 241 241 240 241 241 239 241 241 240 240 241 240 242 
242 241 239 241 240 240 241 240 240 240 240 242 242 241 239 240 
240 239 239 239 239 238 238 238 239 237 237 237 236 239 239 238 
239 237 238 213 192 241 239 240 240 240 239 241 241 240 239 239 
240 240 239 239 240 241 240 240 240 241 241 241 242 241 240 239 239 214 228 241 
241 239 240 240 240 240 241 240 241 240 240 240 241 240 240 240 
239 240 240 241 239 241 241 241 239 239 241 242 239 240 240 241 
240 240 241 240 240 241 240 240 240 240 241 239 241 240 239 240 
240 240 238 238 240 239 239 239 238 237 239 236 236 236 238 238 
237 236 237 238 176 225 242 239 240 241 241 241 241 240 240 239 
240 240 240 241 241 241 241 240 240 240 239 240 240 240 240 240 229 211 242 239 
241 238 240 240 242 242 242 241 240 240 240 240 239 239 238 240 
240 241 240 240 239 241 240 240 239 242 240 242 240 242 241 240 
240 241 240 240 240 240 238 240 240 240 239 241 240 240 240 240 
240 240 239 241 240 239 238 238 239 238 239 238 237 240 237 237 
237 235 236 237 224 190 240 240 241 241 240 241 240 237 239 239 
239 239 239 241 239 242 242 240 240 239 238 241 240 240 240 241 196 237 241 240 
241 241 241 240 240 240 241 239 240 238 241 240 238 240 241 239 
238 240 239 241 240 241 240 239 241 241 241 241 241 241 242 240 
241 240 241 239 240 240 240 240 239 240 239 240 240 239 240 240 
240 240 240 239 240 239 239 239 239 238 238 239 238 237 237 237 
237 236 237 239 240 183 226 241 240 239 240 240 237 239 239 239 
238 239 239 240 241 241 240 240 240 239 240 239 240 239 240 211 200 242 240 240 
239 240 240 239 239 240 241 240 240 239 239 240 240 239 240 239 
240 240 240 240 240 241 241 240 241 241 239 240 241 240 240 239 
241 240 240 238 240 239 241 239 240 240 240 240 240 241 238 241 
240 239 239 239 239 239 240 238 238 238 239 238 238 236 237 237 
239 237 236 237 239 224 184 239 240 240 240 240 240 238 242 239 
240 239 240 240 240 240 241 239 239 239 240 240 239 238 239 189 234 241 239 240 
238 242 238 240 240 240 240 240 239 239 237 239 240 238 239 240 
240 239 241 241 240 239 240 240 241 241 241 240 241 241 241 242 
238 238 239 239 238 239 239 241 239 240 239 240 239 240 240 237 
240 238 238 240 239 239 241 236 238 238 237 236 237 238 236 237 
236 237 237 236 236 242 174 230 241 240 240 240 240 239 242 240 
238 240 239 240 240 241 240 240 241 239 237 239 239 240 221 214 242 241 241 242 
240 241 241 239 240 240 241 238 238 240 240 241 239 242 240 239 
238 241 240 239 240 240 239 240 243 241 240 240 241 240 241 241 
239 239 239 239 239 239 240 238 238 239 239 240 241 241 240 239 
239 239 236 237 238 238 237 239 238 237 236 238 236 236 235 236 
235 236 235 237 236 240 210 198 242 239 239 240 241 238 241 240 
241 240 241 241 240 240 240 240 239 240 240 240 240 238 197 239 240 242 239 240 
240 240 239 239 240 239 240 240 238 238 240 237 237 237 239 241 
241 241 242 240 238 240 241 240 241 240 240 241 242 240 241 241 
241 241 239 239 239 238 239 240 239 240 241 240 241 240 241 237 
238 238 237 238 239 236 238 238 236 235 238 237 236 237 234 235 
235 237 235 235 234 238 238 181 239 240 240 241 240 240 238 240 
240 239 240 238 242 242 240 240 240 240 240 240 239 234 204 242 240 241 240 239 
240 241 240 240 240 241 240 240 236 238 235 237 239 240 241 244 
243 242 243 241 239 242 241 241 241 240 241 241 240 240 241 239 
240 239 239 238 237 237 238 239 240 240 238 238 240 236 239 238 
238 237 239 238 238 235 236 236 235 236 236 236 234 238 237 237 
235 234 235 233 236 238 242 195 224 241 242 240 240 240 238 241 
241 239 239 239 240 240 241 238 238 240 241 239 237 199 227 241 241 241 240 240 
240 239 239 239 241 240 240 240 238 236 238 242 243 238 233 201 
175 189 215 241 238 241 241 240 241 239 237 241 241 240 240 240 
240 242 240 239 239 239 239 238 238 240 240 241 241 239 240 240 
240 240 240 238 239 236 236 235 236 236 234 237 237 236 236 237 
237 234 236 235 236 236 237 220 198 242 239 241 240 240 240 241 
243 239 240 239 241 242 240 240 239 240 241 238 234 196 241 240 240 242 242 240 
240 240 239 240 241 241 240 240 238 236 240 220 177 130 128 121 
136 143 152 216 242 241 241 240 241 241 242 241 241 239 241 240 
239 239 239 239 239 238 239 240 239 239 240 239 239 240 242 241 
242 240 236 236 240 241 235 237 236 238 238 238 237 238 238 237 
237 235 235 235 234 235 235 232 180 240 241 240 238 240 240 241 
241 240 237 241 240 240 241 238 240 240 240 239 233 211 241 240 240 241 240 240 
240 240 239 240 238 239 239 238 238 238 215 115 103 111 128 145 
163 175 153 158 235 239 238 239 241 240 239 241 239 240 239 238 
240 240 240 240 239 237 238 239 237 239 239 239 237 244 235 193 
154 155 143 142 183 220 239 237 236 237 237 238 237 241 238 237 
237 235 237 236 235 235 235 236 182 232 239 240 238 238 240 240 
239 238 239 241 240 240 241 240 238 239 239 239 216 231 240 239 240 240 238 240 
241 240 240 241 239 238 239 239 239 232 144 98 129 171 196 227 
240 240 205 176 223 241 241 240 240 239 239 240 240 240 239 240 
237 239 240 239 238 238 239 240 238 238 237 236 235 179 142 128 
141 167 195 182 163 142 204 239 237 238 236 236 237 239 238 238 
236 235 236 235 235 235 235 236 204 206 240 240 239 238 239 240 
239 236 239 240 240 240 239 238 238 239 241 239 214 240 241 241 240 240 240 241 
239 240 240 241 239 237 240 239 220 195 170 186 234 240 241 242 
240 241 241 236 244 239 241 239 240 240 239 239 239 239 239 238 
239 239 239 238 238 236 236 237 238 237 236 236 229 125 118 172 
218 239 245 241 246 200 179 237 238 238 237 237 237 237 238 237 
237 235 236 236 236 238 235 235 221 191 240 239 240 238 238 237 
235 237 238 239 238 239 238 238 238 238 238 234 211 242 241 240 241 241 240 238 
240 241 241 241 240 240 234 193 204 239 217 229 240 240 240 236 
239 238 241 242 240 240 240 238 241 240 239 240 240 239 239 239 
239 239 240 238 235 238 238 238 238 238 238 238 238 185 150 233 
244 240 239 240 240 202 212 218 239 236 235 238 238 239 237 238 
237 238 237 237 235 237 235 235 231 182 240 238 238 236 236 237 
238 238 238 240 240 240 240 236 237 240 240 220 216 241 240 240 241 241 240 242 
240 239 241 241 241 223 193 219 236 237 229 224 240 239 239 238 
238 239 239 240 238 239 239 239 239 239 240 240 238 238 238 239 
238 239 239 238 239 239 236 238 239 236 238 240 239 244 230 241 
240 238 238 238 239 208 232 207 232 237 239 239 239 240 239 239 
235 236 236 237 238 236 235 235 234 179 240 238 238 238 237 236 
237 238 238 241 238 238 240 238 237 238 239 205 239 242 242 240 241 240 242 241 
240 241 240 238 240 221 172 238 240 239 229 220 239 238 239 239 
240 238 238 239 240 240 241 240 240 239 239 238 240 240 241 239 
240 239 239 238 238 237 240 238 237 238 239 238 239 242 244 240 
239 237 237 238 238 204 225 232 205 237 237 238 237 238 237 237 
237 236 236 234 236 236 236 236 236 172 237 240 238 238 237 236 
235 237 237 239 238 239 239 238 238 238 239 204 241 239 240 240 240 241 239 240 
241 240 241 241 239 231 197 240 235 240 224 220 240 237 240 239 
238 239 238 239 240 239 238 239 239 239 239 239 237 240 239 236 
240 240 239 239 238 236 237 238 238 239 238 239 238 240 241 237 
239 237 238 238 237 212 222 242 217 219 237 238 239 236 237 239 
236 237 236 235 236 236 237 237 239 191 223 239 239 239 237 237 
236 237 238 238 239 239 239 238 239 238 234 206 241 240 240 241 239 240 240 240 
240 240 241 241 238 233 201 237 236 237 229 219 238 239 238 238 
240 239 237 239 238 239 240 238 241 240 239 239 239 239 239 239 
239 240 238 237 238 238 237 238 238 237 238 238 240 239 238 238 
238 237 238 237 238 214 214 241 238 208 234 238 238 239 240 237 
236 236 236 238 237 237 237 238 238 201 214 238 240 237 237 237 
236 236 239 239 239 238 239 237 238 237 225 219 241 241 240 240 241 240 240 241 
241 240 241 241 239 232 216 239 237 237 233 218 241 239 240 240 
239 240 238 240 240 240 238 239 238 241 237 239 239 239 238 238 
239 239 239 238 238 238 236 237 237 236 236 239 239 239 238 238 
238 239 238 239 236 214 209 241 239 226 216 238 239 239 237 237 
237 235 237 236 236 238 238 238 235 208 203 239 239 239 237 233 
235 235 236 239 238 239 238 236 238 239 217 225 241 241 241 240 241 242 240 240 
241 240 240 240 238 224 226 241 241 239 234 216 241 239 238 237 
239 239 238 238 238 238 239 239 240 239 238 238 239 238 238 239 
238 238 237 237 237 239 240 239 238 239 239 238 239 238 239 238 
237 239 239 238 239 213 221 241 239 238 206 238 239 240 238 237 
236 238 237 237 237 237 236 238 237 210 193 238 239 239 238 237 
236 235 234 238 238 237 238 238 238 239 209 227 239 239 240 241 241 239 240 239 
239 239 240 240 238 214 230 240 240 239 233 209 240 239 238 238 
238 237 239 239 239 238 240 238 238 239 239 239 238 238 237 239 
238 239 239 237 238 238 236 238 236 237 236 237 237 238 239 237 
238 239 238 238 238 206 223 239 238 240 212 230 240 240 239 237 
237 237 236 235 237 237 236 239 238 218 201 238 238 236 238 236 
236 237 238 238 238 241 239 239 240 237 195 230 240 236 240 238 239 240 239 239 
239 240 239 239 239 214 233 240 241 239 243 206 242 239 241 237 
238 239 239 238 237 238 237 239 237 238 238 237 239 238 239 240 
239 238 239 237 237 236 238 237 237 238 237 236 238 238 238 237 
237 239 239 238 237 198 226 237 239 239 223 216 238 238 240 239 
239 238 239 239 237 237 237 239 238 213 202 238 237 237 237 238 
236 235 235 238 238 239 238 239 239 240 184 236 240 239 238 239 239 241 240 240 
240 240 242 240 236 216 232 240 239 239 237 197 238 237 239 239 
237 237 238 238 240 238 238 238 238 239 238 239 237 238 239 238 
240 239 238 238 236 237 237 237 235 236 237 238 237 236 236 236 
236 238 239 237 238 195 230 238 239 239 234 213 237 238 238 238 
239 240 240 237 237 238 237 238 238 212 194 236 237 237 237 237 
236 235 236 238 239 238 236 239 239 239 187 235 238 237 238 239 240 240 239 240 
239 240 240 241 236 210 232 241 240 238 240 211 239 239 237 239 
239 238 237 237 239 239 239 238 237 237 238 239 238 237 237 238 
237 238 237 237 237 237 237 236 236 239 238 237 238 240 238 236 
237 238 239 236 238 194 232 239 238 240 237 207 242 240 240 238 
239 238 240 237 238 238 237 236 236 201 201 237 238 237 238 236 
236 233 234 240 239 238 236 236 239 240 174 231 238 237 238 240 239 240 239 239 
241 241 241 239 238 210 235 240 240 238 240 213 236 239 238 239 
238 239 240 237 238 239 237 237 238 238 237 237 237 238 239 238 
238 237 237 237 238 237 239 236 236 237 237 238 236 237 236 235 
236 237 237 238 236 196 227 239 240 239 238 197 240 239 238 240 
238 238 238 236 237 240 238 236 236 201 193 238 239 238 239 236 
237 235 234 239 239 238 238 237 238 238 181 235 239 238 239 237 239 238 238 240 
239 239 239 238 239 211 237 240 240 240 238 210 237 239 239 241 
239 239 239 239 238 239 236 236 238 236 236 237 237 236 237 237 
237 235 235 236 237 237 237 237 236 235 237 237 236 236 238 236 
238 235 237 235 239 193 225 239 239 238 238 192 237 239 237 239 
240 238 238 236 237 238 238 236 238 186 205 236 236 237 236 237 
235 236 235 237 239 237 238 235 237 239 193 233 238 238 239 239 240 239 237 240 
239 239 240 236 238 205 240 240 240 239 240 216 237 240 239 237 
237 238 237 237 237 240 237 238 237 237 237 237 237 237 237 236 
236 238 238 236 237 236 236 236 235 238 235 235 237 237 237 235 
238 239 237 238 237 193 228 238 239 238 237 198 233 239 237 237 
238 238 237 236 237 239 238 236 236 171 219 236 234 235 236 237 
236 234 234 237 238 238 236 234 236 236 205 228 239 238 236 238 239 239 238 239 
239 239 239 235 238 208 239 240 239 239 240 209 235 238 238 238 
238 237 238 238 237 238 236 236 237 236 236 236 236 237 236 236 
236 235 237 237 236 235 235 235 236 236 238 237 237 236 236 235 
234 236 239 237 234 199 231 238 239 237 235 209 225 238 238 237 
237 237 237 236 236 238 238 235 236 169 224 236 235 236 238 236 
236 235 235 237 238 236 238 236 236 237 204 221 235 237 237 237 239 238 237 238 
237 239 237 236 233 209 237 240 238 235 239 210 238 237 237 237 
236 238 237 237 237 237 236 237 237 236 237 235 236 236 237 236 
237 235 235 236 236 235 236 236 237 236 236 236 235 237 233 235 
235 235 235 236 239 192 237 236 237 237 238 215 208 239 237 238 
238 237 237 236 236 237 237 236 237 158 235 236 236 236 235 234 
235 233 234 235 235 238 236 236 237 237 221 211 239 236 238 236 238 237 236 237 
236 236 236 236 225 213 238 238 237 236 238 208 235 238 238 237 
237 238 236 237 235 237 235 236 236 236 238 237 236 237 236 236 
235 236 238 235 235 236 235 235 235 235 236 237 237 235 237 237 
237 234 235 236 236 187 231 236 237 237 238 226 200 239 237 237 
236 238 237 236 236 236 235 235 226 158 235 235 235 235 235 234 
233 236 235 236 235 235 235 233 234 233 228 202 236 238 235 234 235 238 236 237 
236 236 233 233 215 221 236 237 235 236 234 204 237 237 235 235 
236 237 237 235 237 236 236 238 237 236 235 236 238 236 237 235 
235 238 236 237 235 235 235 236 235 236 235 236 236 236 236 235 
236 237 237 236 237 187 234 237 238 237 237 229 193 237 237 238 
238 237 237 235 236 235 237 235 207 172 237 235 235 235 235 235 
235 236 234 233 233 233 232 230 229 230 227 200 235 234 234 235 235 235 233 236 
235 235 232 233 213 220 235 236 234 233 234 191 237 235 236 236 
236 235 236 237 236 236 236 235 235 236 236 236 235 236 236 235 
236 236 236 236 234 234 235 234 234 235 235 236 236 236 234 235 
236 234 236 237 236 188 235 236 237 237 237 226 198 238 236 237 
238 236 237 237 237 237 236 237 189 191 239 236 236 236 236 236 
235 235 235 233 232 232 230 227 227 227 228 192 231 232 233 235 235 234 235 235 
234 234 230 234 211 209 236 234 233 233 231 196 235 235 236 235 
235 236 237 234 235 235 235 235 235 235 235 235 236 236 234 234 
234 234 236 235 233 235 235 234 234 235 235 235 237 238 236 236 
236 235 235 236 238 181 235 236 236 235 238 225 192 241 236 237 
238 237 236 236 236 235 235 232 169 219 236 234 236 236 235 235 
235 234 235 232 232 232 231 227 225 227 226 182 228 231 233 235 234 233 234 235 
232 232 230 232 215 215 233 233 233 233 220 189 234 234 234 235 
236 235 234 236 234 235 236 236 236 235 235 235 234 236 235 234 
234 233 235 235 234 233 235 234 235 235 235 235 236 236 235 236 
235 234 235 236 236 185 239 237 236 235 236 214 188 239 236 237 
236 237 235 236 234 235 233 225 161 234 235 234 234 234 234 236 
235 235 235 233 232 230 229 228 226 228 226 194 222 232 234 233 234 234 234 234 
233 229 231 233 210 211 234 233 233 234 219 198 235 235 235 235 
234 234 234 234 234 235 233 235 235 234 235 234 233 236 236 236 
236 236 234 234 236 236 234 232 235 235 234 236 238 237 235 235 
236 235 236 237 236 188 239 235 237 236 236 211 201 236 236 236 
236 235 236 235 237 235 232 225 172 237 235 235 236 234 237 236 
235 234 236 234 233 232 230 229 229 227 227 211 209 232 232 232 234 234 233 232 
232 229 231 230 209 211 234 232 234 234 206 214 233 234 235 234 
235 235 235 235 235 235 235 233 235 236 238 235 235 234 234 234 
234 234 234 234 235 236 234 235 233 234 233 234 234 235 235 236 
235 237 236 236 234 182 239 235 236 236 238 212 207 236 235 236 
237 236 237 237 237 236 233 199 202 236 238 236 235 236 237 235 
236 235 235 234 232 231 233 231 229 228 230 222 188 232 234 233 231 235 232 233 
232 230 232 232 213 202 233 231 232 233 202 211 236 235 234 237 
235 234 235 235 235 234 234 236 235 234 235 236 235 235 234 234 
233 234 234 235 234 234 233 234 233 234 235 235 234 235 234 236 
237 236 236 235 233 185 237 235 236 235 238 215 207 237 235 236 
237 237 235 235 236 235 235 162 230 235 234 235 235 235 234 234 
235 234 234 234 233 233 232 230 230 228 230 232 181 232 232 233 234 232 233 233 
231 230 233 232 216 199 233 232 231 232 193 219 234 234 233 234 
232 237 236 234 236 235 234 234 236 235 235 235 233 236 233 233 
234 236 234 233 234 234 234 233 234 234 234 234 233 234 234 236 
234 235 235 235 234 190 239 236 235 235 237 201 208 235 234 236 
237 236 237 235 234 234 226 163 235 237 235 236 236 236 235 235 
235 234 237 234 233 232 232 232 231 230 232 231 201 220 233 233 233 232 233 231 
230 228 230 234 212 204 234 233 231 233 192 218 234 235 235 233 
236 237 235 236 237 237 235 235 235 235 235 234 234 234 234 234 
234 235 236 236 235 237 237 235 234 232 233 234 233 234 234 234 
233 234 236 235 234 185 240 236 237 238 235 187 226 236 236 236 
236 235 236 236 233 235 204 188 236 236 236 234 235 234 234 235 
236 235 233 234 233 233 232 233 233 232 232 235 222 206 232 232 231 230 232 233 
230 229 230 230 210 212 232 232 232 233 202 218 235 234 233 235 
235 235 235 234 237 235 233 234 235 235 235 236 237 236 238 237 
238 240 236 233 230 234 234 232 235 235 235 235 235 232 233 234 
234 234 234 235 234 182 238 235 236 237 236 193 233 236 235 237 
236 235 234 234 234 235 176 224 237 235 234 235 236 234 233 233 
235 235 235 233 234 234 233 234 233 233 233 234 235 193 233 230 232 233 233 231 
222 228 230 231 202 211 233 231 232 232 209 210 233 235 235 234 
235 235 234 235 234 234 234 234 235 235 237 237 237 239 230 232 
215 193 171 167 151 154 155 168 192 217 234 234 234 234 235 234 
234 233 234 234 236 181 236 236 234 236 235 194 235 235 235 236 
235 234 234 233 232 225 175 236 233 234 234 234 236 236 235 235 
236 237 235 234 235 234 236 234 234 233 233 235 234 194 227 232 234 232 232 233 
224 229 231 231 202 216 233 233 233 232 202 211 235 233 233 235 
233 234 234 235 233 232 234 233 235 237 232 212 184 166 151 148 
145 159 159 128 139 130 138 139 152 156 179 196 219 237 235 232 
232 233 232 234 235 187 236 235 235 234 234 180 237 234 233 235 
235 233 235 233 236 188 194 237 235 234 235 235 234 234 234 233 
232 234 234 234 235 236 235 236 233 234 231 235 235 224 203 234 233 231 233 235 
226 229 227 229 198 217 232 233 232 232 206 210 233 235 234 233 
233 234 234 233 233 233 236 234 221 177 118 121 147 126 124 139 
147 145 141 148 155 147 161 154 142 138 132 154 158 201 235 233 
234 232 233 234 233 181 237 234 235 234 234 160 232 234 232 234 
233 235 235 234 230 155 230 235 234 235 233 234 234 233 234 235 
236 237 235 235 234 233 235 236 237 233 232 235 236 236 199 233 232 232 232 232 
225 229 230 230 191 223 231 232 233 233 203 212 234 234 234 234 
234 231 234 233 234 236 222 164 120 91 116 124 133 158 204 233 
234 238 240 234 237 238 237 232 226 204 161 132 145 149 194 234 
233 232 233 231 233 180 238 235 234 234 230 174 237 236 236 234 
235 234 233 234 195 195 236 233 233 234 234 235 234 235 234 234 
235 234 235 233 234 235 235 234 234 233 233 234 234 235 216 221 237 232 233 232 
221 230 231 230 195 223 232 232 233 233 202 209 232 232 233 234 
232 233 231 233 233 211 112 93 113 163 203 216 230 236 237 238 
238 240 238 238 237 239 237 237 236 237 237 214 158 138 139 214 
234 233 231 232 232 173 236 236 234 234 221 186 235 234 234 234 
234 233 234 230 159 229 234 233 234 233 235 234 235 235 233 234 
234 234 235 234 234 237 235 234 234 234 234 234 235 235 234 199 234 232 233 233 
227 231 232 232 193 217 233 233 232 232 206 215 234 233 233 231 
232 232 234 232 233 153 85 123 204 234 237 236 238 236 237 235 
236 235 235 235 236 235 235 235 235 235 238 236 221 201 173 168 
234 233 233 233 224 177 237 233 234 233 212 195 233 233 233 234 
233 233 235 184 199 236 234 234 233 233 234 235 236 234 234 235 
234 234 235 236 234 234 236 234 233 231 232 234 235 236 238 217 214 231 232 231 
225 230 232 232 202 211 233 233 233 232 194 218 232 233 231 230 
229 231 230 232 226 112 140 221 237 235 233 235 236 235 233 234 
234 235 235 235 236 236 235 234 233 233 234 234 237 233 241 234 
233 232 232 232 221 186 235 233 234 233 204 209 232 233 233 233 
233 233 211 159 233 232 233 232 232 234 233 234 234 233 235 234 
234 235 236 234 234 234 233 233 234 235 233 232 233 234 233 234 193 231 231 231 
226 230 233 231 220 198 233 232 233 232 186 208 231 230 230 231 
232 231 230 230 231 165 227 235 236 234 234 234 234 235 233 234 
234 235 234 236 236 236 235 236 233 232 234 234 234 235 236 235 
232 232 233 232 206 189 236 233 232 233 195 209 233 231 231 231 
232 227 152 206 234 233 233 234 232 233 233 232 235 233 233 233 
234 234 235 233 234 234 233 234 233 233 235 233 232 231 233 235 214 206 231 230 
225 231 234 234 217 193 233 233 232 232 181 220 230 230 229 228 
229 231 231 231 232 235 235 232 233 234 234 235 234 234 234 234 
234 235 235 234 236 236 236 233 231 233 234 235 233 233 233 233 
233 232 233 233 215 192 235 235 233 235 185 213 233 234 233 232 
233 208 173 234 232 232 233 232 233 233 233 233 234 233 233 233 
233 235 235 234 235 235 233 234 233 234 233 234 233 233 233 233 237 192 228 230 
225 232 232 232 221 192 235 233 233 232 177 226 230 231 230 229 
228 231 231 232 232 234 234 233 233 233 234 234 235 234 235 235 
234 233 234 236 235 236 233 232 234 233 234 234 233 234 233 232 
233 234 233 233 204 199 234 233 234 232 184 225 231 230 230 233 
222 170 225 235 230 232 233 231 233 232 233 234 233 234 233 233 
233 234 234 234 234 232 235 232 234 232 232 235 232 232 231 233 233 231 196 233 
223 231 232 231 231 189 234 233 232 233 177 225 232 232 230 230 
229 230 231 232 232 232 232 233 234 235 232 233 234 234 234 233 
234 234 235 235 235 234 234 233 231 234 233 234 233 234 233 231 
232 233 233 234 203 207 234 233 232 233 182 225 230 231 233 234 
178 213 234 233 234 230 234 230 232 232 232 233 233 232 233 233 
232 233 233 232 232 233 234 233 233 233 233 235 231 233 234 233 234 235 216 218 
213 232 233 235 210 195 233 233 231 231 171 231 230 231 231 230 
230 231 232 232 232 232 233 234 232 232 235 235 234 235 235 234 
234 233 235 238 235 234 236 234 233 232 233 234 234 233 231 231 
233 232 234 232 202 206 232 232 233 232 173 231 229 232 235 177 
182 237 234 232 233 232 231 231 232 232 232 232 230 232 232 231 
232 234 231 234 235 233 234 233 235 233 232 234 232 231 233 232 232 233 233 201 
191 232 235 234 199 210 231 231 231 233 171 231 230 231 230 230 
229 230 230 230 233 232 232 232 234 232 234 231 235 235 236 235 
234 234 234 234 235 234 234 233 233 230 230 233 233 232 232 231 
231 232 232 232 198 212 234 233 232 234 177 230 231 232 202 162 
234 232 232 234 233 231 230 230 231 231 232 232 232 232 233 233 
232 233 232 233 234 235 232 232 234 234 235 234 234 232 233 233 231 231 230 228 
186 224 235 232 195 212 230 229 230 231 177 227 231 230 229 231 
231 229 230 233 233 234 233 233 231 235 231 234 233 234 233 234 
234 234 235 232 233 233 233 232 233 235 233 233 233 233 231 231 
231 232 233 231 192 215 233 232 232 233 165 222 234 218 163 221 
233 229 233 233 234 232 231 231 231 231 232 230 230 231 231 231 
233 234 231 235 235 235 233 232 232 233 233 233 232 232 232 232 233 230 230 231 
218 169 227 232 194 207 230 229 230 230 163 231 232 232 231 231 
231 232 230 231 232 232 232 233 233 231 231 234 233 234 233 233 
233 233 233 234 233 235 234 231 233 233 232 232 233 231 233 232 
229 231 233 230 176 226 232 233 233 233 173 226 223 166 218 234 
233 231 230 232 231 232 231 231 230 230 230 230 230 230 232 228 
233 231 229 234 235 236 232 232 233 231 231 231 232 232 232 229 231 229 231 230 
234 217 173 231 195 203 230 229 230 229 153 230 232 230 230 231 
230 230 230 231 231 232 233 232 231 230 232 232 234 233 231 233 
234 233 233 234 233 233 234 233 231 231 232 233 231 230 233 230 
230 230 231 234 180 229 230 231 230 233 179 226 174 211 236 232 
232 233 233 231 231 233 231 230 230 230 228 228 231 231 232 231 
231 230 231 236 233 233 232 231 231 232 232 232 232 232 232 230 230 230 229 229 
230 233 206 180 198 191 228 229 230 227 151 231 231 229 229 229 
230 229 229 229 232 232 232 232 231 234 232 234 233 233 233 235 
234 233 233 234 233 232 233 233 231 231 230 231 233 232 232 231 
231 231 232 231 169 229 231 230 230 233 172 161 209 233 233 234 
233 233 231 231 232 230 230 228 230 231 232 231 230 230 229 229 
229 232 230 233 236 233 234 233 232 232 231 232 231 231 231 229 232 231 229 230 
229 230 233 213 178 223 232 229 230 230 159 233 228 229 230 229 
227 229 229 227 230 230 232 232 233 232 232 232 233 233 234 232 
233 233 232 232 233 234 232 233 233 232 232 232 231 232 230 228 
230 232 229 233 166 230 231 231 234 211 145 213 234 231 227 232 
229 229 230 229 231 229 230 228 229 229 230 233 228 228 228 228 
230 229 229 233 232 233 234 231 230 229 230 229 231 230 230 229 231 231 227 228 
230 228 230 228 214 179 225 234 231 228 169 230 230 230 231 229 
229 228 227 228 230 230 231 231 230 233 232 231 233 233 232 232 
232 231 233 232 232 233 233 232 231 229 230 231 231 230 230 229 
229 227 230 230 164 231 233 229 204 161 155 223 231 228 230 231 
231 229 227 226 228 229 229 228 228 228 230 228 229 228 228 228 
227 228 228 232 232 230 232 231 232 231 232 231 230 230 232 231 230 230 228 227 
228 229 227 229 229 221 176 206 231 222 165 228 229 229 228 229 
229 230 227 228 230 232 230 231 230 229 229 231 229 229 230 231 
232 232 231 230 231 231 232 231 229 231 230 229 228 232 231 229 
229 228 228 227 160 231 230 194 172 226 219 226 229 229 228 228 
229 229 228 229 228 229 229 225 228 228 229 230 230 227 229 229 
228 229 228 232 232 232 232 231 231 230 230 230 230 232 231 230 229 229 229 229 
229 229 231 226 230 232 229 172 196 225 158 234 230 229 230 228 
228 228 229 229 230 228 229 228 228 229 223 221 218 227 229 230 
231 231 230 232 231 231 230 229 230 228 230 228 228 229 229 227 
228 228 228 229 191 226 173 182 227 232 231 229 229 228 228 226 
224 226 227 228 229 228 228 229 227 227 228 227 229 230 228 230 
226 225 228 233 231 231 232 229 228 230 231 228 230 228 230 228 228 229 228 228 
230 227 227 228 230 228 231 231 195 178 209 232 233 231 231 228 
227 227 229 229 229 231 229 227 228 229 228 229 229 228 229 230 
230 229 231 232 233 231 229 227 227 228 228 227 228 230 228 227 
227 229 231 229 191 174 200 231 228 227 227 226 229 225 227 229 
226 225 226 227 228 227 227 226 227 227 226 227 227 227 228 228 
225 226 227 232 233 232 230 230 230 230 228 229 230 229 228 230 228 229 228 229 
229 229 230 228 228 228 228 230 230 221 169 179 225 232 232 231 
226 226 227 225 224 225 226 227 226 226 226 226 227 225 227 228 
226 227 226 228 226 226 227 226 225 227 226 227 228 229 226 228 
231 225 196 171 173 223 231 229 227 227 226 226 228 226 225 224 
226 226 225 224 225 228 228 228 227 225 225 226 226 226 227 227 
227 227 229 231 231 231 228 229 229 229 229 228 229 229 230 230 229 229 229 227 
227 226 229 229 230 228 230 230 228 232 233 209 161 189 228 232 
231 228 226 228 225 224 225 225 227 225 228 228 228 227 226 226 
225 226 224 226 226 226 225 225 224 227 230 228 229 229 228 230 
217 157 150 209 230 228 226 223 224 227 225 225 224 225 225 225 
226 224 226 223 226 220 226 224 223 226 223 224 225 226 226 227 
225 225 227 232 233 231 229 230 227 227 228 230 230 230 228 229 231 229 227 228 
228 231 229 229 228 224 228 229 227 227 226 229 230 197 159 185 
227 231 229 228 225 227 227 225 222 224 227 226 225 228 226 225 
225 224 223 224 226 223 225 223 223 227 226 228 228 228 216 175 
170 206 231 227 225 223 223 223 221 223 224 226 224 224 226 224 
223 223 224 223 223 223 224 223 225 224 223 222 224 223 223 223 
222 224 225 232 231 231 227 229 231 229 228 226 228 226 227 229 229 229 228 227 
227 226 227 229 229 228 227 229 226 224 225 228 229 231 227 207 
169 169 212 231 231 228 229 228 226 226 226 226 226 226 226 222 
223 225 224 227 223 223 226 228 227 226 218 195 162 169 180 211 
227 227 225 224 224 226 222 222 224 222 222 221 222 222 223 224 
222 222 222 222 222 221 224 225 223 224 223 221 227 223 223 222 
222 223 224 229 230 230 226 227 225 227 226 228 226 227 229 230 229 227 226 226 
225 229 226 227 230 229 227 226 225 225 226 226 227 225 227 225 
229 215 193 171 180 193 212 224 226 226 225 228 232 229 228 229 
231 231 228 226 228 226 221 220 198 168 149 144 178 209 221 226 
222 223 222 221 220 221 220 222 222 222 221 221 221 222 221 221 
220 221 220 222 222 220 221 221 221 221 222 223 222 221 222 221 
223 223 221 228 229 228 228 225 227 226 226 226 227 226 226 227 227 228 226 227 
228 228 228 227 228 227 229 229 226 224 225 225 224 222 224 222 
222 226 225 226 222 208 193 191 193 179 181 168 168 172 174 173 
175 165 169 156 166 157 129 134 166 185 206 219 220 218 220 220 
218 222 222 221 220 220 224 223 220 221 220 220 221 222 220 220 
220 220 221 222 220 221 221 220 220 221 220 220 222 220 221 221 
222 222 225 228 228 228 228 228 226 226 230 227 227 226 227 223 227 227 226 227 
227 228 229 226 225 228 227 227 225 224 225 225 224 221 223 222 
225 224 222 223 224 221 226 225 219 217 218 201 197 185 186 199 
199 204 189 179 186 203 209 219 221 221 222 223 221 220 220 220 
220 218 220 220 221 220 220 220 219 221 219 221 221 219 220 218 
220 219 219 220 220 220 222 225 222 220 220 219 220 218 221 221 
220 219 221 226 227 227 227 227 227 225 225 226 226 227 226 226 226 226 226 226 
226 227 226 226 227 227 225 226 224 224 224 225 221 223 221 219 
222 222 220 220 217 219 219 219 220 224 222 223 222 225 222 222 
223 223 224 222 227 226 222 226 223 219 219 219 218 220 219 220 
220 219 220 220 220 221 219 217 219 220 218 219 222 218 219 220 
220 218 217 220 219 220 218 216 218 219 220 220 221 221 220 220 
220 219 220 226 227 227 225 225 226 226 225 226 225 225 226 225 226 226 226 225 
226 226 225 226 226 226 226 226 224 225 225 224 223 221 220 220 
223 222 220 219 218 219 219 220 220 219 220 221 223 220 222 222 
220 219 221 221 220 220 219 219 215 218 220 219 221 220 220 220 
220 219 219 219 219 216 218 219 219 219 216 219 217 217 219 218 
218 219 219 219 218 219 219 219 221 218 218 221 219 218 219 219 
219 219 220 226 225 224 225 226 224 224 226 225 226 224 226 227 225 227 226 226 
225 225 224 225 225 226 226 222 223 223 225 223 222 221 221 219 
222 220 221 219 220 220 219 219 219 219 220 220 218 220 220 220 
220 219 218 218 219 219 217 218 218 220 219 219 217 220 218 219 
219 218 219 220 219 219 220 217 219 219 218 218 217 218 217 215 
218 219 218 218 218 217 217 217 217 219 217 218 219 219 220 219 
219 220 219 226 224 223 224 223 223 223 223 223 224 225 224 224 224 225 225 224 
226 225 225 224 226 224 224 224 222 222 220 222 221 221 221 221 
221 221 220 222 223 221 218 219 218 221 221 222 219 217 218 220 
220 219 218 219 217 218 219 218 218 218 218 217 217 218 219 219 
219 219 221 218 219 218 217 218 218 217 218 217 217 218 216 218 
218 220 216 220 217 218 216 217 217 217 218 216 217 218 218 217 
217 219 217 