P2
# Created by IrfanView
100 100
255
243 243 243 244 244 243 243 245 246 246 245 245 245 248 247 245 248 
248 248 248 247 247 246 248 248 247 248 248 247 249 249 248 248 
247 249 248 248 248 249 249 247 248 248 249 248 249 248 248 249 
249 250 250 250 250 250 252 252 251 252 252 252 252 252 250 252 
252 253 253 252 253 254 252 252 253 253 252 253 253 253 253 254 
252 254 254 254 254 253 253 254 253 253 253 253 254 254 254 254 
254 254 255 243 243 244 244 244 242 242 243 243 246 245 246 246 246 244 246 248 
248 247 248 248 248 246 246 248 247 249 248 248 248 247 248 247 
248 249 247 248 247 248 247 248 248 247 247 249 248 246 248 247 
249 248 249 251 251 251 252 251 252 252 252 252 252 251 252 253 
252 252 253 253 253 253 253 254 254 253 252 252 253 253 253 254 
254 254 253 253 254 253 253 254 254 254 254 254 254 254 254 254 
254 253 254 243 244 244 243 243 243 243 243 243 245 247 245 246 248 246 246 247 
247 246 246 247 246 245 246 247 247 245 246 247 247 249 248 248 
247 248 248 247 248 248 248 247 247 248 247 247 248 248 249 250 
249 249 249 250 250 250 250 250 250 251 252 251 251 252 252 251 
251 253 253 252 252 252 253 253 252 253 253 252 253 253 252 253 
253 252 253 253 253 253 254 254 254 254 255 254 254 253 253 254 
253 253 254 243 245 242 243 244 243 243 243 244 245 246 246 246 246 245 244 245 
245 248 247 246 247 247 249 248 245 248 248 247 247 246 248 246 
248 248 247 247 248 247 247 247 246 247 248 249 248 248 249 249 
248 248 249 250 250 250 250 251 250 250 251 251 251 251 251 251 
252 251 251 252 253 252 253 253 253 252 253 254 253 253 252 253 
253 253 253 252 252 253 253 253 253 253 254 254 254 254 254 253 
253 254 254 242 243 243 243 242 245 244 244 244 245 247 245 245 246 244 244 246 
246 245 247 246 245 246 247 248 247 247 247 247 247 247 246 247 
247 247 247 248 248 247 246 246 248 247 247 248 249 248 250 250 
248 248 249 249 250 252 253 252 252 251 250 250 251 251 250 250 
250 250 251 252 251 252 253 254 252 253 253 253 253 252 252 252 
253 253 253 252 253 253 253 253 253 254 253 254 254 254 254 254 
254 254 254 242 242 244 244 244 245 245 242 243 245 244 245 246 247 245 244 246 
245 245 244 246 246 247 246 246 246 247 247 247 248 246 248 247 
247 248 247 247 248 248 247 248 248 247 249 248 249 249 245 248 
244 241 242 245 243 249 249 253 252 252 251 252 252 251 250 250 
250 251 252 252 250 252 253 252 252 252 253 252 252 253 253 254 
254 252 253 253 253 252 252 252 253 252 253 254 253 253 253 254 
254 254 254 243 243 243 243 244 242 243 243 244 245 244 243 245 243 244 244 245 
245 245 245 244 247 245 247 247 247 246 246 246 246 247 245 246 
246 247 248 248 250 252 253 249 242 220 197 195 192 205 208 204 
219 208 212 215 211 212 203 207 202 216 238 245 253 253 252 252 
252 250 251 250 250 251 252 252 251 250 251 252 252 253 252 252 
252 252 251 253 252 252 252 252 253 253 253 254 254 254 254 254 
254 253 254 243 241 242 242 243 243 244 243 243 244 243 242 243 243 244 245 243 
244 245 245 246 246 245 245 245 247 246 247 244 245 245 246 245 
245 248 250 250 247 219 199 187 193 215 233 247 250 250 251 252 
250 252 252 253 252 253 253 252 247 229 208 198 207 229 245 248 
250 251 251 251 250 249 251 252 252 251 251 252 252 252 252 252 
253 251 252 252 252 250 251 252 252 253 253 253 254 253 254 254 
254 253 254 242 242 242 242 244 243 243 242 242 245 243 240 242 243 244 244 244 
243 243 245 245 245 244 246 245 244 244 244 245 245 245 247 246 
249 244 206 188 197 210 239 251 252 250 249 248 249 249 249 249 
248 249 249 249 249 250 249 250 252 250 251 250 241 226 208 198 
216 242 250 252 250 250 251 250 251 251 252 252 253 252 252 252 
252 252 251 253 251 252 253 251 251 252 252 253 254 254 252 253 
254 254 254 242 241 242 242 241 240 241 242 242 243 243 242 244 244 244 243 244 
244 243 244 243 244 243 245 244 244 244 244 244 246 246 250 238 
193 186 214 243 251 253 250 249 249 249 247 247 248 247 248 248 
248 247 248 247 248 248 248 248 248 247 248 249 252 251 251 247 
233 204 208 230 250 250 251 253 251 250 250 251 251 251 252 252 
251 251 252 253 252 251 251 251 251 252 253 253 253 254 254 252 
253 253 254 241 242 242 242 241 244 242 243 243 243 243 243 243 243 244 243 243 
243 245 244 244 243 242 244 243 243 244 245 246 249 237 185 182 
221 249 247 247 248 248 247 247 247 246 245 247 246 246 246 246 
247 245 246 247 247 247 247 246 246 246 244 246 247 248 249 250 
250 252 241 207 212 245 251 251 251 251 250 250 251 251 251 251 
251 252 252 252 251 252 251 251 252 253 253 253 253 252 253 253 
253 253 252 243 240 242 242 242 242 242 244 242 242 242 242 243 242 243 241 243 
242 242 244 242 243 242 244 242 243 244 243 236 181 177 223 249 
249 248 245 246 247 247 247 246 246 246 247 244 246 245 245 247 
246 247 246 245 245 246 245 247 245 247 247 246 247 246 247 246 
247 249 250 252 240 218 223 243 251 252 249 250 251 251 251 252 
251 251 251 249 250 251 251 251 251 252 253 252 253 252 252 253 
253 252 251 242 242 240 239 241 242 241 242 244 243 242 241 241 243 241 242 242 
242 242 242 242 242 242 242 243 244 243 195 178 217 248 248 246 
244 245 244 245 244 244 245 244 244 243 244 245 247 246 245 246 
246 246 246 247 246 245 247 247 247 247 246 246 247 247 247 247 
247 247 249 249 248 252 240 211 228 250 251 250 250 251 251 251 
251 250 250 252 250 250 250 251 251 251 251 252 251 252 252 252 
252 252 251 239 240 241 241 241 242 242 241 241 242 241 241 242 240 242 241 239 
241 241 240 242 242 242 244 245 234 179 207 247 246 246 244 245 
244 243 245 244 244 245 243 243 243 243 244 245 245 245 245 245 
245 246 245 245 245 246 245 246 246 246 244 246 245 246 244 246 
245 246 247 245 247 248 250 251 222 216 246 251 250 251 251 249 
251 251 250 250 250 250 250 250 251 250 251 251 253 252 252 252 
252 252 252 242 242 240 240 241 242 242 241 242 242 241 241 241 241 241 241 241 
242 240 241 241 241 244 245 203 180 233 246 243 243 242 243 242 
241 243 243 244 244 244 244 243 243 244 245 244 245 244 245 246 
246 246 245 245 245 246 244 245 245 246 245 245 245 245 246 246 
246 246 246 246 247 245 244 247 250 239 214 233 249 250 250 250 
250 250 250 250 249 250 250 251 251 250 252 251 250 251 250 250 
251 251 250 239 241 239 240 238 239 240 240 241 240 238 241 240 240 240 241 240 
240 240 241 239 244 239 174 197 245 247 244 242 243 242 243 244 
242 242 243 245 244 244 243 243 243 245 245 243 245 245 245 246 
245 244 245 246 245 245 246 245 245 245 245 244 247 247 246 244 
244 246 246 247 245 245 246 247 245 249 247 220 228 250 251 249 
248 249 249 249 250 249 250 251 251 251 251 251 250 250 251 251 
250 250 251 240 241 240 241 240 240 240 239 240 240 240 240 240 240 239 239 239 
239 240 240 243 226 167 226 246 242 241 242 241 243 243 241 242 
244 242 244 245 242 243 242 244 243 243 244 245 245 246 243 243 
244 244 244 243 244 244 245 247 245 245 244 243 245 243 244 245 
245 245 245 244 243 244 244 247 246 246 247 248 229 222 248 250 
252 250 250 249 249 250 250 251 251 250 250 250 250 250 250 251 
250 250 250 242 240 239 241 240 239 239 239 240 238 238 240 239 239 239 238 236 
239 240 243 224 174 237 244 244 242 242 241 242 241 241 243 242 
242 241 242 241 241 242 242 243 241 244 244 243 244 243 243 244 
244 244 244 244 242 245 244 244 243 243 244 244 242 245 244 244 
244 246 246 246 244 243 245 246 245 247 245 245 249 234 216 246 
250 249 249 250 249 249 248 247 249 250 250 250 250 250 249 250 
249 249 249 240 239 240 239 239 239 238 239 240 240 240 238 239 238 237 235 236 
240 241 210 160 236 241 242 242 241 241 242 240 241 242 241 241 
241 244 242 241 241 243 243 242 242 243 243 243 243 244 242 244 
244 243 242 243 245 244 245 244 244 244 244 243 245 243 243 244 
243 243 245 244 244 246 245 244 245 243 243 242 244 247 236 205 
238 250 249 250 248 248 250 250 249 249 249 250 249 249 249 250 
248 250 250 238 239 240 238 239 240 238 239 238 236 240 239 241 240 236 236 239 
242 220 172 238 241 240 240 240 241 240 240 241 242 241 240 241 
242 241 242 243 242 242 243 242 242 242 243 242 243 242 243 243 
242 243 244 243 243 245 243 244 243 243 243 243 243 243 244 244 
243 243 243 244 242 243 245 245 244 244 246 245 244 244 248 243 
210 247 250 249 248 248 249 248 248 247 249 248 249 250 249 250 
250 249 250 240 240 239 239 238 238 239 237 238 237 237 238 238 237 237 237 239 
157 155 236 241 240 240 239 239 241 241 239 239 241 240 240 239 
240 240 242 240 241 242 242 242 241 242 241 244 244 242 243 242 
243 243 243 243 244 242 243 244 243 243 243 243 244 244 244 242 
243 244 244 243 244 244 244 244 242 244 245 245 244 244 245 247 
237 204 247 250 248 248 247 249 248 246 249 249 248 249 248 248 
247 248 250 238 238 237 238 239 238 238 237 236 236 238 236 237 237 237 238 187 
123 231 238 239 238 239 237 239 239 237 238 239 238 239 239 241 
241 240 240 239 241 241 240 240 242 242 243 242 241 242 242 242 
243 243 242 243 242 242 242 243 244 243 243 243 241 241 243 243 
242 243 243 243 242 243 243 243 244 243 243 244 244 245 243 243 
246 228 210 250 248 249 248 247 248 247 247 248 249 249 247 247 
248 248 249 238 237 237 237 237 238 237 238 235 235 234 235 237 236 238 219 131 
223 240 240 238 238 239 238 238 235 238 237 238 238 239 240 241 
239 239 240 240 240 240 239 240 239 240 240 241 241 240 242 243 
242 243 243 242 242 242 242 244 242 242 243 242 241 242 242 243 
242 242 243 243 244 243 243 243 243 243 244 245 245 243 243 245 
243 247 214 224 250 247 247 248 248 247 248 248 248 248 248 247 
248 249 247 237 238 237 236 236 237 236 237 236 235 235 235 236 238 235 143 228 
238 237 236 236 236 237 235 235 239 237 237 238 238 239 238 237 
239 238 240 240 240 239 238 239 240 240 240 241 240 240 242 240 
241 242 243 242 242 243 241 241 241 241 242 242 241 242 242 242 
242 242 242 242 243 242 243 243 243 243 243 244 243 243 245 243 
244 245 246 197 231 247 246 247 248 246 246 247 248 248 246 248 
248 250 249 236 236 236 237 235 237 236 237 235 235 235 235 235 241 177 221 237 
236 237 235 234 236 234 235 237 240 238 237 238 237 238 237 240 
237 237 237 238 238 237 239 239 239 240 240 241 240 241 241 240 
241 242 241 241 241 241 243 240 242 242 241 242 241 242 242 241 
241 242 241 243 242 242 242 242 243 244 242 242 243 243 243 243 
244 244 247 243 200 249 247 246 246 246 246 247 248 248 250 247 
247 246 248 236 237 236 237 237 234 237 236 236 231 235 235 237 220 184 237 237 
236 234 234 234 236 237 236 239 206 240 237 238 237 234 235 237 
238 237 237 235 238 238 237 232 240 238 238 241 242 241 241 241 
241 241 241 242 241 240 241 241 240 241 240 241 242 241 240 240 
239 240 242 241 241 242 242 242 241 241 242 243 246 245 243 242 
245 244 244 247 220 220 249 246 247 247 245 245 246 246 247 247 
247 248 247 235 236 236 235 236 235 235 236 237 236 233 233 233 172 233 235 235 
234 234 234 234 233 234 238 193 204 203 236 237 236 236 236 235 
235 237 237 236 236 238 242 147 183 240 239 238 239 239 241 242 
240 241 241 240 241 240 240 241 239 240 241 240 240 238 242 241 
240 240 242 240 241 241 241 240 239 242 241 243 223 244 242 244 
242 242 244 244 248 196 235 248 246 246 247 247 247 247 246 247 
247 247 247 236 236 235 236 235 234 234 234 236 236 233 235 201 201 236 233 234 
234 233 234 234 233 233 238 171 237 221 189 227 239 236 236 234 
235 236 239 240 239 241 215 82 194 239 239 237 239 239 240 239 
239 240 239 242 240 242 241 240 239 238 239 241 240 239 236 243 
240 239 239 239 239 241 240 240 241 241 239 229 113 238 242 242 
242 242 243 243 244 233 188 245 244 245 244 245 246 246 246 245 
247 247 246 235 235 235 234 236 235 234 236 234 235 233 233 176 234 234 234 233 
234 234 234 233 234 234 234 211 161 213 218 169 162 192 225 231 
234 234 242 235 235 200 115 135 236 238 236 236 239 238 238 238 
239 241 240 238 240 239 240 239 239 239 239 240 239 239 198 240 
243 241 240 239 241 241 240 241 241 240 243 197 163 246 242 242 
242 243 243 243 243 244 205 224 247 246 247 245 245 246 243 245 
246 246 246 234 234 234 235 236 234 234 235 233 234 236 194 187 232 233 235 233 
233 233 232 233 233 235 234 238 196 154 137 138 149 131 138 180 
189 179 168 137 119 98 158 231 236 236 239 236 237 239 239 239 
240 238 238 238 238 238 238 239 239 239 237 240 240 239 221 182 
232 239 239 242 238 240 242 240 242 243 241 142 219 244 243 243 
241 242 243 243 242 241 238 189 247 245 245 245 246 247 243 244 
245 247 247 235 235 235 234 234 235 235 233 232 233 233 160 230 234 232 232 233 
234 234 233 234 234 233 234 236 240 237 228 220 202 193 169 141 
125 100 85 107 152 206 238 235 232 235 234 236 238 238 238 239 
238 237 238 239 240 240 240 239 239 236 239 239 236 238 240 221 
167 202 235 241 240 234 223 227 238 230 159 149 244 240 240 240 
241 240 239 242 241 242 245 198 214 247 244 246 245 245 244 245 
247 245 244 235 235 234 235 232 233 233 232 232 234 210 184 233 233 233 233 232 
232 233 233 233 233 233 231 231 228 234 238 237 235 234 238 239 
239 233 227 238 243 238 238 239 231 236 237 238 237 237 238 237 
238 237 238 237 237 237 238 237 236 239 239 236 235 234 234 240 
238 198 143 169 183 200 142 136 125 108 131 224 240 240 240 240 
241 241 241 242 242 240 242 236 183 248 244 243 244 244 245 245 
245 244 243 234 234 233 234 233 233 233 233 231 236 164 231 234 233 233 233 232 
235 234 233 234 232 233 232 231 233 234 233 235 235 190 133 134 
173 239 237 237 238 238 236 237 238 238 237 236 237 238 237 238 
240 238 237 238 237 239 238 235 238 236 236 236 234 236 239 240 
240 245 234 196 177 142 148 150 167 202 239 242 226 240 241 241 
240 240 241 241 240 239 240 245 190 228 244 244 244 242 244 244 
245 245 243 233 235 234 234 237 235 233 233 233 202 197 237 233 233 234 233 233 
232 233 233 232 233 232 232 234 234 232 230 233 213 87 87 88 
182 217 233 235 234 235 236 234 236 236 238 237 237 237 237 237 
236 238 238 238 236 235 237 238 236 236 237 235 238 238 237 239 
238 238 239 242 242 244 245 242 245 243 242 240 225 221 241 240 
240 240 240 239 239 239 240 240 229 194 244 244 243 244 244 246 
243 244 244 234 234 234 234 234 234 233 232 235 168 231 235 234 234 233 234 235 
234 234 233 233 233 233 231 234 234 233 237 220 92 102 87 98 
133 209 233 234 233 236 236 236 238 237 237 238 237 238 236 237 
238 236 239 236 237 237 238 237 237 237 237 237 236 237 237 239 
237 236 240 236 191 176 236 241 240 240 240 238 241 244 241 241 
240 241 241 239 240 240 239 239 237 172 238 244 243 243 243 245 
244 243 244 234 234 233 234 235 234 233 231 230 169 238 233 236 234 233 234 233 
234 232 233 233 233 232 233 234 234 233 223 123 80 78 72 96 
100 180 235 234 235 235 236 235 235 235 235 236 237 237 236 236 
237 237 237 237 238 238 235 237 235 236 236 236 235 237 238 237 
237 237 239 193 132 129 156 230 240 240 239 240 240 241 239 239 
238 239 238 240 239 240 241 238 241 205 204 244 243 242 243 242 
243 244 244 234 234 233 234 233 234 232 233 203 194 235 234 234 233 233 233 233 
233 234 235 233 232 234 234 235 233 236 208 101 84 75 84 88 
118 167 232 233 234 234 236 235 236 235 238 236 236 236 236 237 
237 235 236 236 237 235 235 237 236 236 235 234 237 237 236 237 
235 231 173 145 128 138 150 167 240 239 240 240 240 239 239 240 
240 240 239 238 238 239 239 237 239 234 174 243 243 243 243 243 
242 243 244 234 233 234 233 233 235 230 232 165 221 233 233 233 232 233 233 235 
235 233 233 234 234 233 234 233 237 232 181 146 113 105 117 109 
101 157 232 233 234 234 236 235 235 236 234 234 235 236 236 237 
236 236 235 237 237 236 236 237 235 235 237 236 235 236 235 236 
235 202 158 121 142 143 189 173 216 240 240 239 239 239 241 239 
238 239 240 238 239 239 238 237 235 241 188 226 242 242 243 243 
244 243 242 233 234 233 235 234 234 235 235 162 235 233 233 233 234 233 233 231 
232 234 233 234 234 234 233 236 234 230 153 131 120 115 127 120 
97 190 231 233 234 234 233 233 234 234 234 236 235 235 237 237 
235 236 238 237 235 237 238 237 236 236 236 236 234 234 235 235 
236 195 153 162 177 174 157 163 193 240 239 239 239 239 239 239 
238 238 239 238 239 239 238 239 238 241 205 208 242 242 242 244 
243 243 244 234 234 232 234 235 233 234 225 174 236 234 233 234 234 234 233 232 
232 231 233 234 233 235 234 236 234 229 159 136 106 125 144 102 
114 224 230 231 232 233 235 232 235 234 234 234 235 236 236 235 
235 235 236 236 236 237 236 237 236 236 237 236 233 234 234 234 
235 166 125 144 180 161 159 171 215 241 239 239 240 240 238 238 
239 238 237 237 239 238 239 239 237 237 218 188 242 241 241 241 
242 241 241 232 231 232 235 233 233 232 207 198 234 234 233 232 233 232 233 233 
233 233 230 233 235 233 235 236 233 230 171 146 123 128 111 98 
153 233 230 231 231 234 235 234 234 235 233 234 234 236 236 235 
236 234 234 235 236 235 235 238 237 235 234 234 236 234 234 235 
230 175 136 135 188 176 169 162 231 236 238 239 239 237 238 238 
238 239 239 237 237 237 239 238 237 236 234 164 235 242 241 241 
242 242 242 233 233 233 232 236 233 234 181 218 232 232 234 233 232 232 233 232 
234 232 234 233 234 234 233 233 233 234 170 139 103 101 97 117 
172 225 232 231 233 234 234 234 233 234 233 234 234 234 233 234 
235 235 236 235 236 235 238 237 236 235 235 234 234 235 235 235 
225 129 153 153 172 137 167 199 234 237 238 237 237 238 238 237 
239 239 237 237 236 237 237 238 238 235 238 165 230 240 242 241 
241 242 240 231 232 232 232 232 233 233 169 230 233 234 232 232 234 233 232 233 
231 232 230 233 233 232 233 232 234 235 198 128 78 76 94 148 
203 231 232 232 234 234 232 234 234 234 234 235 233 236 234 235 
234 232 235 236 237 236 238 237 235 234 233 235 234 233 232 234 
231 157 140 117 131 126 185 211 235 236 238 236 237 237 237 237 
237 238 238 237 237 236 236 237 236 235 237 182 224 237 239 239 
239 241 241 231 230 233 232 232 233 233 157 229 232 234 234 233 233 233 232 232 
233 232 232 233 233 234 233 233 234 232 232 164 96 106 92 164 
227 234 232 231 233 235 234 234 234 233 234 233 234 234 234 235 
234 234 236 234 235 235 234 236 236 236 235 233 233 234 233 234 
236 185 102 101 138 162 205 225 235 238 237 237 238 237 236 237 
237 237 238 235 235 236 235 237 237 236 237 199 218 238 239 237 
238 242 240 231 232 231 231 232 233 230 153 236 233 232 233 231 233 233 233 232 
233 232 232 232 233 231 232 233 233 232 234 228 130 96 178 229 
234 233 235 233 233 233 233 233 232 234 233 233 233 233 233 234 
234 234 235 234 235 235 234 236 234 235 234 234 235 235 233 234 
233 235 148 148 157 181 223 235 234 235 238 236 238 236 236 235 
236 237 234 237 235 236 236 236 238 234 236 206 213 240 238 240 
239 240 240 230 233 231 232 230 232 230 174 235 233 233 232 233 232 232 232 232 
232 233 233 232 232 235 234 234 232 232 232 236 226 219 236 234 
233 233 232 233 233 232 233 234 233 234 234 234 233 235 234 232 
234 235 235 234 234 234 235 234 234 234 234 234 234 232 233 232 
233 237 231 189 179 236 236 234 234 235 235 236 235 236 236 236 
236 235 236 237 235 235 235 234 236 236 235 213 180 239 238 240 
240 240 239 228 229 230 230 230 231 227 165 235 233 233 233 231 232 233 232 230 
231 232 231 232 232 232 233 233 233 232 232 233 234 234 234 232 
232 232 232 234 233 233 233 232 234 232 233 231 233 234 233 233 
233 231 236 235 233 234 235 234 234 235 234 234 234 233 234 232 
234 234 239 237 240 239 234 234 234 234 236 237 236 235 236 235 
237 236 237 235 236 236 234 235 236 235 234 233 154 236 239 239 
239 239 239 230 230 231 229 228 231 227 172 234 232 231 232 232 232 232 230 231 
231 232 232 232 232 231 234 233 234 232 231 232 233 231 232 232 
233 232 232 233 232 234 233 233 233 233 233 233 232 233 233 233 
232 233 233 234 235 236 235 234 234 233 232 233 233 234 233 233 
234 236 235 235 234 233 234 234 237 235 237 236 235 235 235 236 
235 235 234 236 236 235 235 235 234 233 234 232 150 237 238 236 
238 240 238 229 230 228 230 230 229 226 172 234 232 232 231 230 232 232 233 232 
232 231 233 231 229 231 232 233 230 232 233 233 232 231 233 233 
233 234 233 232 233 232 231 232 233 232 232 232 234 232 232 232 
232 233 234 234 234 233 234 234 235 234 234 235 234 233 234 233 
235 234 235 234 234 234 234 234 233 236 236 234 235 235 235 235 
233 235 235 236 233 234 235 234 234 234 234 236 148 236 237 236 
238 237 239 228 228 227 230 229 231 220 188 232 231 231 231 231 232 232 230 232 
231 231 228 229 230 229 231 233 233 233 233 233 232 233 232 233 
233 233 232 234 233 232 233 232 233 232 232 232 232 234 233 232 
232 233 233 235 233 234 234 235 235 234 234 233 234 234 234 234 
233 234 233 233 233 234 233 232 235 235 234 235 237 235 234 235 
234 235 235 235 234 233 236 234 235 232 234 230 156 231 237 233 
237 236 237 228 228 229 228 229 228 216 182 232 231 231 230 231 231 230 230 232 
232 230 229 228 228 230 231 232 234 232 233 233 232 232 232 232 
233 232 233 233 233 233 232 233 234 232 233 233 232 233 232 232 
234 233 233 234 235 234 234 233 234 234 234 232 233 233 233 234 
234 235 234 232 234 233 232 233 235 232 235 234 235 235 234 234 
235 235 235 237 234 234 234 235 234 229 234 230 155 236 233 234 
237 237 237 229 228 228 227 229 229 222 187 229 230 231 231 230 231 231 230 231 
229 229 226 226 228 229 229 231 231 232 233 232 233 232 232 232 
232 232 235 233 233 233 232 232 232 232 231 232 232 232 232 232 
231 233 233 235 233 233 232 233 233 234 233 235 234 233 233 233 
232 233 235 234 234 233 231 231 233 235 234 233 234 235 234 234 
234 235 235 234 236 235 234 233 233 232 231 232 182 239 233 233 
236 236 237 227 227 228 228 228 227 228 180 229 231 229 230 230 230 231 230 228 
229 229 227 230 229 230 230 231 232 233 233 232 231 231 233 232 
233 233 232 232 232 232 233 232 231 230 232 232 233 232 232 231 
232 232 231 234 234 233 233 234 234 232 233 231 232 234 232 233 
233 233 234 233 233 233 230 231 233 232 234 232 233 233 234 234 
234 233 232 232 231 232 234 233 233 232 232 221 175 235 233 234 
236 236 238 227 228 228 227 228 228 231 180 229 229 229 230 230 230 230 230 230 
231 229 229 229 229 230 231 233 233 232 232 231 231 231 230 232 
232 232 232 234 232 232 232 230 233 233 233 232 232 233 231 231 
231 232 233 233 233 232 233 234 233 233 233 233 233 233 233 233 
234 234 232 233 232 232 232 232 232 233 232 233 233 233 234 231 
233 233 234 233 232 232 232 232 231 233 234 218 176 236 232 232 
236 235 235 225 226 226 227 226 228 231 162 223 229 229 227 230 229 230 230 228 
230 230 230 230 229 230 231 230 231 232 232 232 232 231 231 231 
232 232 232 230 234 232 232 233 232 232 230 232 231 231 232 232 
232 232 232 232 233 233 233 232 233 232 233 233 232 232 234 232 
233 231 233 232 233 233 233 231 232 233 234 233 234 233 233 234 
232 233 232 234 233 232 231 231 232 230 231 222 173 238 232 234 
235 235 234 225 226 227 227 227 228 227 172 205 227 229 228 230 230 229 228 229 
230 230 228 230 229 230 232 230 231 231 232 232 231 232 231 232 
232 232 233 233 232 233 232 232 232 232 231 232 232 231 232 232 
234 230 233 233 232 233 233 233 233 232 232 232 233 234 232 232 
232 231 232 233 233 232 231 231 232 231 232 233 234 233 233 234 
233 233 232 233 233 233 234 232 231 231 232 221 190 238 232 234 
235 233 236 225 224 226 224 226 224 226 192 196 228 229 229 230 230 228 229 229 
229 231 230 229 229 230 229 228 228 231 232 231 230 232 231 233 
231 232 231 232 229 232 231 231 232 232 232 232 232 232 232 232 
232 232 232 234 233 232 232 233 233 233 233 233 231 232 233 233 
233 233 232 231 230 232 232 231 232 231 231 232 230 232 232 231 
232 231 232 231 230 230 229 229 231 232 232 207 186 231 231 232 
234 233 233 225 225 224 225 224 224 223 211 180 229 228 228 227 230 228 230 229 
230 230 229 229 230 229 228 228 230 229 229 232 232 231 231 232 
231 230 233 231 233 230 232 232 231 230 230 231 232 231 231 231 
231 232 232 229 233 232 232 232 231 231 232 230 233 230 232 233 
233 232 230 233 232 233 233 232 233 232 229 231 231 231 231 229 
232 232 232 233 232 230 230 231 230 230 232 204 203 234 233 233 
234 233 234 224 224 223 225 222 223 223 223 159 225 228 227 228 228 229 228 226 
229 229 229 228 228 230 227 230 227 228 231 230 230 230 227 229 
231 231 230 230 231 231 232 229 230 232 232 229 230 230 231 231 
233 231 232 233 230 230 233 232 232 231 232 233 232 232 232 233 
232 232 231 230 232 232 232 231 229 231 231 230 231 232 231 232 
231 231 231 233 232 230 230 231 230 230 231 184 220 234 230 232 
232 233 233 223 222 223 224 224 222 222 225 170 221 225 227 228 229 227 228 228 
228 227 229 228 227 228 227 228 229 227 230 230 229 230 230 230 
231 228 230 232 229 230 229 232 230 230 231 231 228 230 229 229 
230 232 230 231 231 232 230 231 232 231 231 232 230 232 231 231 
232 232 232 233 232 232 233 230 230 230 230 232 230 231 232 232 
231 232 232 233 232 232 230 231 228 230 229 173 232 232 232 232 
233 232 232 223 223 223 223 224 222 223 226 186 206 228 227 228 227 227 227 226 
228 227 227 227 230 227 227 229 228 229 230 230 229 230 231 228 
230 230 231 230 230 231 230 229 231 231 230 230 231 226 229 231 
231 231 231 229 230 230 231 231 230 230 229 230 230 231 233 233 
232 230 231 232 232 231 230 230 231 231 231 230 231 232 231 230 
231 231 231 232 232 229 230 230 229 228 227 177 233 233 232 232 
230 231 231 224 223 222 221 222 222 222 225 214 175 228 226 226 228 228 226 225 
225 225 227 226 225 228 229 226 226 228 228 229 228 228 226 229 
229 230 229 229 229 229 229 230 227 229 230 229 230 231 229 231 
230 230 231 230 229 228 230 230 229 228 227 229 230 230 231 231 
231 232 232 231 230 233 230 231 229 230 230 229 231 231 231 230 
230 230 232 231 232 229 229 231 229 230 220 188 231 226 231 231 
232 231 231 221 221 223 221 223 223 224 222 227 149 217 225 225 225 226 227 227 
226 225 228 228 225 228 229 228 229 228 228 227 226 226 230 229 
229 227 229 229 228 228 228 229 230 228 229 228 229 230 229 231 
229 230 227 229 231 230 229 229 229 227 228 230 230 231 230 229 
231 232 232 231 231 230 230 231 230 230 229 229 229 230 228 229 
230 230 229 231 229 228 227 229 226 233 189 215 230 228 228 230 
232 230 232 219 221 221 223 222 222 223 223 222 184 194 228 223 226 226 228 224 
226 223 227 227 228 226 226 226 226 225 227 227 229 226 227 228 
228 230 228 229 229 227 228 230 229 229 228 228 229 229 230 229 
229 228 229 229 230 229 227 229 228 229 226 228 230 231 230 230 
230 230 231 231 230 230 233 230 230 230 230 230 231 229 230 230 
229 231 229 230 228 229 225 228 226 229 168 232 232 229 227 229 
227 230 231 222 222 221 220 220 223 221 221 220 212 151 229 226 226 225 226 225 
225 224 223 225 225 226 225 226 226 226 225 224 226 225 227 226 
227 228 227 226 226 226 227 225 226 227 227 227 229 227 227 227 
227 228 228 229 228 228 229 230 229 228 227 229 228 229 228 229 
229 228 228 229 230 232 229 231 231 230 230 229 230 230 228 230 
230 230 228 228 228 227 228 228 228 226 171 235 230 229 228 228 
230 231 229 221 221 220 222 221 221 220 221 219 226 163 197 224 222 224 225 226 
225 225 223 224 226 227 226 226 226 226 226 225 228 227 229 227 
227 227 225 228 225 225 225 225 224 225 225 226 226 228 227 227 
227 226 228 230 229 230 231 230 227 229 229 227 228 228 229 229 
231 229 229 229 230 229 229 229 229 229 229 228 227 229 229 227 
228 228 227 229 229 229 227 226 227 194 203 230 228 230 230 228 
230 229 229 221 221 220 221 221 220 222 221 219 220 206 152 222 222 224 226 225 
223 224 226 224 225 225 225 224 224 225 224 224 223 224 222 226 
224 225 223 226 225 225 224 224 224 224 227 226 230 228 225 226 
228 222 221 224 228 231 228 225 233 232 228 229 230 231 228 229 
230 230 231 229 229 228 229 230 229 230 228 229 229 229 230 229 
229 228 228 229 228 229 227 226 224 165 227 227 230 229 229 230 
229 228 231 220 221 220 219 220 220 221 221 221 220 224 169 212 222 223 224 224 
223 224 223 226 223 226 225 223 225 224 224 223 224 225 224 223 
224 225 222 224 224 224 224 225 224 223 224 223 208 188 166 149 
133 139 130 132 131 150 133 131 158 154 172 223 228 230 226 228 
229 229 229 228 228 229 230 230 230 230 229 228 229 228 225 228 
228 227 226 228 228 226 226 225 220 171 229 229 229 227 227 230 
230 230 225 220 219 218 220 219 219 220 220 220 219 217 211 169 224 222 223 224 
224 224 225 224 224 220 222 224 222 223 223 222 222 224 222 225 
224 222 225 225 223 222 224 224 216 183 122 123 152 163 178 202 
218 223 232 232 231 231 235 227 211 204 176 128 148 222 229 227 
228 227 228 228 229 228 227 230 227 229 227 228 228 228 228 228 
228 226 227 228 227 230 226 227 192 206 228 228 227 228 228 229 
226 227 227 219 219 222 220 219 219 218 217 219 218 219 224 161 204 220 222 222 
223 223 222 223 224 225 222 223 223 224 223 224 224 222 221 222 
222 223 220 220 222 226 195 153 94 146 205 219 228 227 228 227 
224 225 227 226 230 229 229 228 229 232 234 230 193 137 200 228 
228 226 228 228 228 228 229 227 228 228 228 227 228 226 227 225 
227 224 226 226 224 227 228 227 177 231 228 228 227 228 228 228 
229 228 228 219 215 219 217 217 219 218 217 220 220 219 223 217 150 218 220 220 
222 223 223 221 222 225 223 222 224 223 222 221 222 223 222 221 
221 223 223 221 222 215 117 108 141 219 221 223 221 219 221 222 
223 225 225 224 225 225 226 225 225 225 225 228 229 223 146 214 
228 225 226 228 226 225 227 227 225 228 225 226 228 226 224 226 
228 226 223 223 223 224 224 209 201 229 226 226 227 228 227 228 
226 228 226 219 220 218 219 217 216 217 219 220 218 219 221 223 170 182 222 220 
222 223 222 222 222 222 221 221 222 220 222 222 222 222 222 220 
221 221 223 220 222 153 107 123 206 218 219 220 218 221 221 224 
222 223 223 225 225 226 225 223 222 221 220 223 224 227 215 155 
225 223 227 228 228 225 226 227 228 228 228 224 225 226 225 225 
225 224 223 224 224 226 224 173 228 228 228 225 225 227 228 226 
227 226 225 218 215 220 218 219 220 220 217 219 219 218 219 221 220 132 198 222 
222 221 222 221 221 220 219 221 223 222 219 220 220 221 220 219 
221 220 220 221 189 84 120 186 220 215 219 222 219 220 223 220 
223 223 223 224 224 223 225 223 223 224 221 223 222 225 228 134 
178 224 226 226 226 225 226 226 226 226 226 225 225 224 226 227 
224 223 222 221 223 226 188 209 232 226 227 228 226 226 226 225 
226 226 226 217 219 218 219 218 216 215 217 218 217 218 217 218 220 201 138 220 
220 221 220 220 221 223 225 218 220 220 220 220 220 220 220 223 
221 219 220 222 147 124 187 224 222 217 218 221 221 221 221 219 
220 222 223 224 224 223 223 223 222 224 224 222 227 225 173 106 
209 223 225 223 226 225 225 225 226 225 225 225 224 225 227 225 
223 220 223 221 227 224 161 228 223 225 225 226 226 226 225 226 
226 226 226 218 218 217 218 219 216 217 217 217 217 217 215 217 217 223 167 177 
222 221 220 219 222 221 219 220 220 221 219 221 220 221 220 219 
220 221 220 223 220 211 140 210 221 219 220 220 220 222 221 221 
218 221 221 222 223 224 222 222 223 223 224 226 218 143 122 216 
229 227 225 225 224 225 225 225 225 226 226 224 225 225 227 225 
224 224 224 224 227 155 202 229 226 226 226 225 226 226 226 225 
226 226 225 217 217 217 216 216 216 216 217 216 216 215 217 218 219 221 221 144 
200 222 221 220 219 221 220 220 221 221 220 218 221 219 221 220 
220 220 221 220 222 224 205 164 177 201 221 226 223 221 221 222 
222 221 223 223 224 223 224 224 225 226 201 165 90 145 226 231 
226 224 226 225 224 225 223 224 223 224 225 225 226 223 226 221 
222 222 222 224 165 143 227 224 226 226 227 226 225 224 224 225 
225 225 226 215 215 216 214 215 215 215 215 214 216 218 216 216 216 217 219 213 
133 211 220 218 217 219 221 220 219 219 220 219 220 219 220 220 
219 220 219 219 220 221 224 221 202 163 149 190 222 219 224 222 
222 225 223 223 220 189 211 198 162 131 106 122 203 230 227 224 
224 223 223 223 224 223 223 223 223 222 224 223 222 223 225 221 
221 220 223 199 163 222 226 225 224 224 224 224 225 226 224 224 
226 225 225 216 216 215 214 215 216 216 214 218 216 214 215 217 217 218 215 218 
188 154 217 217 213 216 217 220 220 220 219 217 217 218 219 218 
218 221 218 221 221 218 220 219 221 222 212 177 149 115 133 131 
138 147 136 124 123 131 126 123 158 199 211 227 227 226 224 224 
222 224 225 223 221 223 222 222 222 223 223 223 222 221 222 221 
220 221 220 165 212 227 222 224 225 223 224 227 225 224 225 226 
226 225 225 214 215 214 214 212 214 215 214 213 215 215 215 216 216 216 214 213 
220 168 132 213 215 218 215 220 217 218 219 218 219 220 218 219 
219 215 220 219 221 219 218 214 213 216 218 220 222 221 213 210 
204 188 199 212 220 222 226 227 226 227 227 226 224 221 222 221 
221 223 220 220 221 222 222 221 221 222 221 221 221 220 221 220 
224 224 188 184 224 224 224 224 222 225 226 225 225 224 223 226 
225 224 224 214 213 214 215 215 215 214 212 213 213 214 216 216 215 215 214 213 
214 220 170 146 215 216 219 216 217 219 219 217 218 217 221 219 
220 220 219 218 220 218 218 214 213 214 215 216 220 221 222 221 
222 222 226 225 225 222 224 224 223 222 222 223 221 221 221 222 
223 222 221 222 221 221 220 220 221 221 222 221 219 220 218 219 
221 193 171 218 222 224 223 224 226 223 223 224 222 226 225 223 
224 224 225 213 213 212 214 214 213 215 216 215 214 216 214 214 214 215 213 211 
214 215 215 158 154 215 217 218 217 217 217 218 216 218 216 218 
216 218 218 220 221 216 217 214 216 218 216 216 216 220 220 219 
220 220 220 220 222 221 219 220 220 221 220 220 222 220 222 220 
222 221 220 221 220 220 221 220 219 219 220 222 221 219 221 219 
182 167 210 224 222 220 222 223 223 223 223 221 224 223 225 223 
224 223 223 213 213 215 214 212 213 213 213 213 214 212 213 214 212 215 216 211 
212 213 214 213 167 140 215 219 216 219 217 217 217 217 217 218 
216 216 216 218 217 218 215 217 216 216 216 218 217 218 219 221 
219 219 219 218 218 218 218 220 221 220 220 221 220 220 220 220 
219 220 220 221 219 218 220 221 220 219 218 219 221 224 224 195 
145 199 219 221 223 223 223 223 223 222 223 222 222 224 223 223 
222 224 223 213 212 213 212 211 213 213 213 212 213 214 212 212 212 212 212 213 
212 212 211 211 219 151 149 217 218 215 216 216 216 216 217 218 
217 217 217 217 217 216 216 216 215 215 217 216 217 217 214 218 
217 218 219 220 220 219 219 217 218 220 220 220 221 222 222 221 
220 220 221 221 218 220 220 220 218 217 217 219 223 222 183 161 
207 223 221 220 221 221 220 222 222 223 221 222 223 221 222 223 
223 223 222 211 212 211 212 214 213 212 212 212 211 211 213 212 212 211 213 210 
211 209 209 211 213 218 144 141 215 217 219 216 215 216 216 215 
215 217 217 217 215 216 217 216 216 215 215 215 214 217 215 215 
217 215 217 218 218 218 217 218 220 219 219 220 220 218 218 219 
221 220 219 221 220 217 219 219 218 216 217 221 217 184 148 223 
224 222 221 220 221 222 224 222 221 221 222 222 223 221 222 221 
221 221 222 209 208 208 211 209 211 212 210 211 210 210 211 214 215 213 212 210 
209 212 211 210 212 213 217 175 129 208 218 217 216 214 215 215 
215 215 216 216 216 217 216 216 216 215 215 215 213 213 215 216 
215 218 217 216 217 218 216 216 218 217 216 217 219 220 220 218 
216 219 219 216 220 218 217 217 215 216 218 210 148 149 219 223 
222 219 219 221 220 220 220 221 220 221 220 221 221 221 222 221 
222 222 222 208 209 209 208 210 210 211 212 210 212 208 210 210 210 211 211 213 
210 210 211 211 210 210 211 217 191 129 178 213 218 214 214 214 
215 213 212 214 215 213 213 214 211 214 214 212 215 213 215 216 
214 215 217 217 217 217 217 214 216 217 217 217 217 217 218 218 
217 217 218 216 215 217 215 218 219 221 195 147 172 223 223 218 
219 220 220 218 219 218 219 220 221 222 219 219 222 222 222 221 
220 222 220 210 209 208 208 208 211 210 211 210 207 211 210 209 212 210 210 213 
212 210 209 209 208 209 208 210 216 215 160 127 198 217 216 214 
213 212 213 213 214 213 214 211 213 215 214 214 213 214 214 215 
215 215 214 216 216 216 216 218 217 216 218 218 216 215 215 216 
216 216 216 215 215 218 219 222 214 176 134 207 219 221 220 218 
219 218 219 219 215 216 220 221 216 220 221 219 220 221 220 219 
220 221 221 209 208 206 208 210 209 210 209 210 206 209 210 212 209 211 211 211 
209 208 209 210 211 207 211 206 212 212 211 205 134 155 212 216 
213 213 211 212 215 212 213 214 214 214 214 214 214 213 213 213 
213 212 213 214 214 214 214 215 216 215 214 215 216 217 215 214 
216 214 216 215 214 218 216 188 151 156 212 219 220 218 218 218 
218 220 218 218 218 221 220 221 220 220 218 218 220 220 220 219 
219 220 221 206 209 208 208 207 207 207 206 206 208 208 207 206 208 208 209 210 
209 208 208 208 211 214 208 207 209 210 209 211 215 179 132 183 
212 214 213 215 212 213 213 213 209 212 212 212 214 213 213 213 
213 212 211 214 215 215 217 216 216 216 214 214 215 216 215 216 
214 219 220 217 218 206 147 157 188 221 219 217 216 218 218 217 
218 219 220 218 218 220 219 219 219 218 218 220 220 218 222 219 
220 219 219 207 206 206 208 206 207 207 208 209 207 206 208 205 207 208 208 207 
208 208 207 208 208 208 208 206 207 207 206 205 208 212 210 145 
116 194 214 214 215 213 213 213 211 210 210 210 211 211 212 212 
213 213 211 216 213 212 213 213 213 211 212 213 212 213 214 216 
216 220 219 201 157 133 179 221 220 218 216 216 216 217 218 219 
217 215 216 218 219 216 218 217 215 218 217 218 219 219 220 218 
220 221 220 206 205 207 206 206 205 206 206 206 205 209 208 206 209 207 206 207 
205 209 207 207 207 205 207 205 206 206 204 205 206 204 205 213 
210 153 133 141 193 215 210 209 212 210 207 213 213 213 214 212 
210 212 211 211 212 212 212 211 210 211 210 212 215 212 217 215 
217 186 158 138 171 213 224 219 217 217 216 216 216 218 215 216 
215 218 216 216 216 217 216 218 219 217 218 218 217 219 219 220 
219 217 218 205 204 205 207 206 207 205 207 207 209 205 204 206 205 207 206 205 
206 207 208 205 205 207 204 205 204 205 206 206 205 206 207 207 
209 211 210 185 131 124 131 185 209 209 209 211 212 214 213 213 
212 211 210 211 215 212 214 214 217 215 217 211 210 191 189 146 
147 166 183 220 219 218 217 215 214 215 215 215 215 215 215 214 
214 215 218 215 216 216 218 215 215 213 216 217 218 218 216 219 
218 218 218 203 203 204 206 204 204 205 205 203 205 204 205 206 205 203 206 207 
207 206 205 207 205 204 205 206 206 207 205 205 202 202 204 202 
203 207 209 214 216 209 193 152 119 120 103 114 135 167 177 204 
214 211 212 203 209 210 208 209 210 189 181 159 130 118 140 174 
204 218 216 216 219 217 214 213 212 213 216 216 214 213 215 216 
215 217 215 215 217 216 215 217 215 216 215 214 215 214 215 214 
217 218 217 203 204 205 203 205 204 205 205 204 205 206 205 205 203 205 203 205 
205 205 205 204 205 205 204 205 204 201 203 204 204 204 201 205 
203 202 205 203 205 204 208 212 208 210 176 154 130 118 91 85 
78 76 78 64 86 96 85 94 105 119 156 172 189 212 217 219 
215 215 214 212 211 211 212 214 214 213 211 211 214 214 215 216 
215 213 215 214 214 213 215 214 214 214 215 216 216 218 215 214 
215 216 215 203 203 203 204 205 205 204 204 204 204 203 205 204 203 202 204 204 
203 206 204 203 205 204 204 204 201 204 205 205 201 206 205 204 
203 204 203 203 203 202 204 205 206 208 210 211 211 211 217 213 
207 199 208 194 197 189 196 205 206 214 210 211 215 217 213 210 
212 212 213 213 213 213 212 210 210 211 210 213 213 214 212 211 
215 214 214 214 215 214 215 213 214 214 213 214 215 214 215 212 
216 215 215 204 204 204 202 201 204 204 203 203 201 204 204 201 204 204 205 204 
200 202 202 204 203 203 204 202 203 203 203 204 206 203 203 202 
203 203 204 203 203 202 202 201 201 200 204 206 210 211 211 211 
210 212 214 214 213 212 210 211 211 209 208 205 210 210 211 210 
211 211 210 211 212 214 211 210 211 210 210 211 213 210 212 212 
212 213 214 214 212 213 213 212 214 214 212 214 212 214 213 213 
214 217 217 202 203 202 202 202 201 202 203 203 203 203 203 205 202 200 202 200 
201 205 200 203 205 203 205 201 203 204 203 202 200 202 203 203 
203 205 204 204 203 202 202 202 203 202 202 200 203 205 205 206 
204 207 210 211 207 207 208 207 210 209 207 209 208 208 210 209 
209 210 208 207 206 208 208 211 209 210 212 212 209 212 211 212 
212 213 213 215 214 212 213 214 213 212 213 212 214 214 213 212 
213 214 216 202 202 203 200 197 204 200 203 203 202 202 202 201 204 203 202 199 
200 202 199 202 204 202 201 201 204 204 204 205 204 203 201 203 
204 201 203 203 203 203 204 202 201 199 202 206 203 203 202 204 
206 206 204 204 204 203 207 205 207 206 206 205 206 206 205 204 
206 204 204 206 206 207 207 209 209 204 208 209 212 207 211 209 
211 211 212 211 213 212 213 211 211 214 212 214 213 212 213 212 
215 214 214 201 200 201 200 200 200 200 200 200 201 201 201 202 201 202 203 201 
202 201 204 203 204 203 201 203 204 203 201 206 206 203 203 202 
202 202 199 203 203 202 200 202 200 205 202 201 201 200 202 202 
200 200 201 202 203 202 202 202 202 201 201 205 205 205 203 204 
205 205 205 202 205 205 207 208 207 207 208 209 209 210 210 208 
210 210 211 211 212 211 212 212 211 211 211 213 212 209 212 213 
214 214 212 202 200 202 200 198 198 197 201 199 201 202 200 199 200 199 200 199 
202 202 204 205 203 199 198 198 205 203 203 202 203 205 205 206 
202 200 204 203 202 203 203 202 203 200 200 199 200 201 202 203 
203 200 201 200 199 200 200 202 203 203 201 200 206 200 203 203 
201 204 204 201 204 206 205 209 206 206 207 205 211 210 209 209 
210 211 209 211 212 209 211 212 211 211 211 211 210 210 211 212 
212 214 215 