P2
# Created by IrfanView
100 100
255
255 255 254 254 255 255 255 255 255 255 254 255 255 255 255 255 255 
255 255 255 255 255 255 255 255 255 255 254 254 255 255 255 255 
254 255 255 255 255 255 255 255 255 255 255 255 255 255 255 255 
255 255 255 255 255 255 254 255 255 255 254 255 255 255 255 254 
253 255 255 255 255 255 255 255 255 255 255 255 255 255 255 255 
254 254 255 255 255 255 255 255 255 255 255 255 255 255 255 255 
255 255 255 255 254 254 254 254 255 255 255 255 255 254 255 255 255 255 254 255 
255 255 255 255 255 255 255 255 255 254 254 255 254 254 255 254 
254 254 254 254 254 254 254 255 255 254 255 255 254 255 255 255 
255 255 255 255 255 255 255 255 255 255 255 255 255 255 255 255 
254 255 255 255 255 255 255 255 255 255 255 255 254 255 255 254 
254 255 255 255 254 254 254 254 254 255 255 255 255 254 255 254 
255 255 255 255 255 255 255 254 254 255 254 255 255 253 254 255 255 255 255 254 
255 254 254 255 254 255 254 254 255 254 254 254 254 254 255 254 
253 254 254 254 254 254 254 253 254 254 255 254 255 254 254 254 
254 255 255 254 254 255 254 254 255 254 254 255 255 255 255 255 
255 255 255 255 255 255 255 254 254 255 254 254 255 255 255 255 
255 254 255 254 254 254 254 254 253 254 254 254 254 254 254 254 
255 255 255 254 254 254 255 254 254 254 254 254 255 254 254 255 255 255 254 254 
254 254 253 254 254 254 254 254 254 254 254 254 254 254 254 253 
254 254 253 254 254 254 254 255 255 254 254 254 254 254 255 254 
255 254 255 254 254 254 254 254 255 254 254 255 255 255 255 255 
255 255 254 255 255 255 255 255 255 255 254 255 254 255 255 254 
255 254 255 254 254 254 254 254 254 253 254 254 253 254 254 254 
254 254 253 254 254 255 254 254 254 254 254 254 254 255 254 254 255 254 253 254 
254 254 255 254 254 254 254 254 253 254 253 253 253 254 253 252 
254 253 253 254 254 253 254 255 255 254 253 254 254 254 254 254 
254 254 254 255 254 254 254 254 254 254 254 255 255 255 254 253 
255 255 254 255 255 254 254 255 255 255 255 255 254 254 254 254 
255 255 254 254 255 254 255 254 254 254 254 253 254 255 254 254 
253 253 253 255 254 254 254 253 253 254 254 254 254 253 254 253 254 254 254 253 
254 255 254 253 254 254 254 254 253 254 254 254 254 254 254 254 
254 253 252 253 253 253 253 253 252 253 253 255 254 254 254 253 
254 254 253 253 254 254 254 254 254 253 254 253 254 254 253 254 
254 254 254 254 254 254 254 255 255 254 254 255 254 254 254 254 
254 254 254 254 254 254 254 253 253 254 254 254 253 254 254 254 
254 253 253 254 252 254 254 254 253 253 253 253 254 254 254 254 254 254 253 254 
254 254 253 254 253 254 254 254 254 254 254 253 255 252 253 253 
253 253 253 252 252 252 252 253 253 254 253 254 254 254 254 254 
253 253 252 254 253 254 254 254 255 254 254 254 254 254 254 254 
254 255 254 254 254 254 254 255 255 254 254 255 254 254 255 254 
254 253 253 254 254 253 254 254 254 254 254 254 254 254 253 254 
254 254 254 254 254 254 252 254 254 253 253 253 254 253 254 254 253 253 254 253 
252 253 254 253 254 254 253 252 253 253 253 253 253 253 252 253 
252 250 250 251 252 253 253 254 249 242 236 228 229 226 222 223 
231 227 228 230 231 228 234 237 242 249 252 254 255 254 254 253 
253 253 253 254 254 253 253 254 254 254 254 254 254 254 254 254 
253 254 253 253 254 254 254 254 254 254 254 253 254 253 254 254 
253 253 254 252 253 252 253 253 253 253 252 252 252 253 253 252 253 253 253 253 
253 253 253 253 253 254 253 253 253 252 253 252 252 252 252 251 
251 251 252 252 250 242 235 231 225 228 236 235 240 245 244 248 
248 246 246 245 247 247 233 233 224 222 222 233 238 251 252 254 
253 253 253 252 253 253 254 253 253 254 254 254 254 254 253 254 
253 253 254 252 254 253 254 253 253 254 253 253 254 253 253 254 
254 253 253 252 252 253 253 253 252 253 253 254 253 252 253 251 252 252 251 253 
252 253 253 254 253 253 253 253 252 252 252 252 252 252 251 251 
251 250 242 231 232 240 248 251 254 253 253 254 254 254 254 254 
254 254 254 254 254 254 254 255 255 253 250 243 234 223 225 234 
250 252 253 253 253 253 254 254 253 253 253 253 253 253 253 253 
254 253 253 253 253 253 253 253 253 253 254 253 252 252 254 254 
253 254 252 252 251 253 252 252 252 250 251 251 253 252 252 252 253 252 252 252 
253 252 252 251 252 251 252 252 252 252 252 250 251 252 251 246 
233 223 232 246 251 251 251 251 251 252 252 252 251 252 253 252 
253 250 252 251 253 253 253 254 254 251 250 253 254 253 248 231 
221 221 236 249 252 253 253 253 253 252 253 253 253 253 254 253 
253 253 253 253 253 253 252 252 253 252 253 252 252 253 253 253 
253 253 252 252 251 251 251 251 252 252 251 251 251 252 251 252 251 251 251 251 
249 252 250 251 251 251 251 251 251 249 248 251 252 248 233 224 
233 250 250 248 251 251 250 250 251 252 252 252 252 252 251 251 
252 252 251 252 252 252 252 252 252 252 251 252 252 253 253 254 
253 249 225 216 221 249 254 253 253 252 253 252 253 253 252 253 
251 254 252 252 252 252 251 252 251 252 252 253 251 252 252 252 
252 252 252 251 251 252 250 251 251 251 251 251 251 251 251 250 251 251 251 251 
252 251 251 251 251 250 250 250 249 250 252 250 233 221 240 251 
251 251 248 251 250 253 251 252 251 251 252 252 251 250 251 252 
251 251 251 251 251 252 252 253 252 251 251 251 252 253 253 252 
253 254 253 253 231 207 229 251 253 253 253 253 252 252 252 253 
252 252 252 251 251 252 252 252 251 252 252 251 251 252 252 252 
251 251 251 250 251 251 250 251 252 251 251 250 251 251 250 251 251 251 250 250 
249 250 251 251 251 249 250 250 249 251 239 216 233 252 251 251 
250 250 250 251 251 252 251 252 252 250 250 251 251 252 253 251 
251 251 251 251 251 252 251 252 253 251 251 252 251 252 251 251 
250 252 253 252 253 247 231 212 237 251 251 252 251 252 252 252 
251 251 251 251 251 251 251 251 252 252 251 251 252 251 252 250 
251 252 252 250 251 250 250 249 250 251 251 251 248 250 250 250 250 250 250 249 
251 250 250 250 251 248 250 250 247 222 215 247 253 252 249 250 
251 250 250 251 251 251 251 251 251 250 251 251 251 251 250 251 
251 251 251 251 251 251 251 251 251 251 251 250 251 250 252 253 
250 251 251 251 251 253 253 245 223 218 249 253 253 250 251 251 
252 251 251 251 251 251 251 251 250 250 250 251 251 251 250 251 
251 250 248 249 250 250 250 250 250 248 250 251 250 249 250 250 249 249 249 251 
249 250 249 249 250 249 251 247 219 232 250 250 250 251 250 250 
250 250 251 251 251 251 251 250 251 250 251 251 251 250 251 250 
250 250 250 250 251 251 251 250 250 250 250 250 250 251 251 251 
251 251 251 251 251 250 250 251 252 235 207 231 252 252 253 250 
251 251 251 250 250 250 250 250 250 250 250 251 251 251 251 251 
251 251 251 250 249 249 250 250 249 251 249 249 250 249 249 249 249 250 251 250 
248 248 248 248 252 252 230 217 245 251 250 250 250 250 250 251 
251 251 250 250 249 250 250 250 250 251 249 251 251 251 251 252 
251 250 251 250 250 251 251 250 250 250 250 250 250 250 251 249 
250 251 251 250 249 248 249 250 250 251 247 212 223 247 251 251 
250 250 250 250 250 250 250 250 250 250 251 249 250 250 251 250 
250 250 250 250 249 249 249 248 250 249 248 248 249 249 249 249 249 248 250 249 
248 248 247 247 248 223 218 250 250 250 250 248 250 250 250 250 
250 251 251 250 251 251 250 251 251 251 250 249 250 250 251 250 
250 251 251 250 250 249 250 250 250 248 250 250 251 249 249 249 
250 249 250 250 250 249 250 249 249 248 250 250 222 202 245 250 
250 250 252 250 250 250 250 250 250 250 251 250 250 249 250 249 
250 250 250 249 251 251 250 249 249 248 250 250 249 248 249 250 249 249 249 249 
247 248 249 248 215 228 252 250 250 250 249 250 249 250 251 250 
250 250 250 250 250 250 251 250 250 250 250 251 250 250 251 252 
250 252 251 250 249 250 250 250 250 251 250 249 248 249 249 249 
249 249 250 249 250 249 250 250 247 248 248 250 252 226 206 236 
251 249 248 249 250 249 250 250 249 249 249 250 249 250 249 248 
250 250 250 251 249 246 246 249 249 249 248 250 248 249 248 248 249 248 248 249 
252 250 239 221 234 250 251 250 250 250 250 250 250 250 250 250 
250 250 250 250 249 250 250 250 250 251 250 250 250 250 250 251 
251 250 248 251 250 251 249 249 250 251 250 249 250 249 250 249 
248 247 249 250 248 248 249 249 249 249 248 248 249 251 233 195 
241 250 249 249 249 249 250 250 250 249 248 250 250 250 248 249 
248 248 249 248 249 248 248 247 248 249 249 248 248 247 247 248 248 248 248 247 
250 229 222 241 252 250 250 250 249 249 250 250 250 250 250 250 
251 251 250 250 250 250 251 250 250 251 250 250 250 251 251 249 
250 251 250 250 250 250 250 249 249 248 246 248 250 248 248 249 
248 249 248 247 248 248 248 249 249 248 247 248 248 249 252 231 
200 247 249 249 249 249 249 249 249 249 250 250 249 249 249 249 
248 249 248 249 250 249 248 249 247 248 248 247 248 249 248 248 247 249 249 249 
225 222 244 250 250 250 249 248 249 250 249 250 250 250 249 249 
250 250 250 249 250 250 250 250 250 250 250 250 250 250 249 249 
249 250 249 250 249 250 250 249 249 249 249 249 249 249 249 249 
248 249 249 248 248 247 248 249 249 249 248 248 247 247 247 250 
232 194 250 249 249 249 249 249 248 248 248 248 248 248 249 249 
250 249 248 250 249 248 248 247 249 248 248 249 249 246 248 247 247 248 250 235 
216 248 252 249 249 250 250 249 249 250 248 249 249 249 249 250 
250 250 250 250 249 249 250 250 251 249 250 249 249 250 248 249 
249 249 249 248 249 249 249 248 248 248 248 249 249 248 250 249 
248 249 247 250 246 246 247 247 249 248 249 247 248 245 245 248 
250 202 219 246 249 246 248 248 247 247 248 248 247 248 248 249 
247 247 248 249 249 248 248 249 246 248 249 249 246 247 246 248 245 249 246 216 
248 250 248 248 248 247 249 248 248 250 250 249 249 249 248 250 
250 250 250 249 250 250 249 249 249 249 250 248 249 249 249 249 
248 248 249 249 250 248 248 248 248 248 247 247 248 247 244 247 
247 248 248 249 248 247 246 246 248 246 247 247 247 248 247 244 
246 245 189 230 250 247 246 247 248 248 247 247 247 247 248 247 
247 246 247 248 248 247 248 247 248 249 248 248 248 247 247 248 247 250 219 247 
249 247 248 248 248 249 247 249 249 248 250 250 249 249 250 249 
248 248 249 249 249 249 248 249 249 248 250 248 249 248 248 249 
248 248 247 248 250 249 247 247 247 247 248 248 247 249 248 248 
247 249 248 247 248 247 247 247 248 247 246 247 246 246 247 244 
242 248 235 179 237 249 248 247 247 246 246 247 248 248 248 248 
247 247 248 247 248 247 249 247 249 249 248 248 248 247 247 246 246 234 228 250 
248 247 247 248 250 248 248 248 250 248 249 248 250 249 249 250 
248 247 248 249 248 249 249 249 249 249 250 251 250 248 248 248 
248 247 247 248 249 248 248 247 246 247 246 247 248 248 247 247 
247 248 247 248 247 247 246 246 244 245 247 246 245 246 248 245 
243 246 250 219 198 248 246 247 247 247 247 246 246 247 247 246 
248 247 246 249 247 248 248 249 249 249 248 248 248 249 248 245 242 209 249 248 
247 247 248 248 247 248 248 247 248 249 247 248 247 248 251 249 
249 249 248 248 248 249 249 249 248 248 249 249 248 248 248 249 
248 248 248 249 249 247 246 248 247 247 246 247 246 246 245 247 
248 247 246 246 244 244 245 246 245 245 244 246 246 245 244 246 
244 245 248 249 199 232 248 246 246 246 248 248 246 247 247 247 
245 245 245 248 247 248 247 248 248 248 248 248 248 249 247 247 215 241 247 245 
245 247 248 247 247 246 247 249 248 249 249 249 249 247 248 248 
249 247 247 249 249 249 247 247 247 248 249 250 247 247 249 248 
246 249 247 247 247 247 247 245 246 245 247 247 248 245 246 246 
247 247 246 246 244 245 244 244 244 243 243 243 245 246 246 244 
245 245 247 248 239 188 237 246 245 245 245 246 245 246 245 246 
245 246 245 247 247 247 246 247 247 247 248 249 247 247 245 239 222 248 246 247 
247 245 247 246 247 247 248 245 246 247 248 249 248 248 247 247 
246 247 245 248 248 250 248 247 247 247 246 247 246 246 248 247 
246 248 247 246 245 245 245 246 246 245 245 245 247 245 245 246 
245 246 247 247 245 245 245 244 244 244 245 244 243 244 244 245 
245 246 245 245 247 231 208 246 247 246 245 246 245 246 246 245 
244 244 246 246 247 248 248 247 247 247 249 249 247 246 247 217 246 247 247 246 
246 247 247 246 246 245 245 245 244 244 238 245 249 248 248 248 
248 246 247 247 247 246 248 248 245 246 246 245 246 246 246 247 
246 245 247 246 246 245 244 244 245 244 247 243 244 244 245 246 
246 246 246 248 247 245 244 244 245 244 246 244 244 244 243 243 
244 244 243 246 248 247 191 226 247 244 245 246 245 246 245 244 
244 244 244 246 247 247 247 247 247 246 247 248 247 246 245 224 248 245 244 244 
244 246 246 246 246 246 244 244 244 244 230 189 222 248 253 247 
248 247 248 247 247 245 246 244 246 245 245 246 244 245 244 245 
247 245 245 245 246 244 246 244 243 246 243 244 244 245 244 243 
246 246 247 235 224 243 245 244 244 244 245 243 244 244 244 245 
242 244 244 244 245 245 231 198 245 246 245 244 244 245 245 245 
243 244 244 246 245 245 246 246 247 247 246 246 246 248 215 244 244 245 246 244 
246 245 245 245 244 244 243 244 245 243 245 246 201 184 221 245 
246 247 245 246 248 245 242 243 245 242 242 244 246 246 245 245 
245 246 244 246 245 245 245 245 243 245 242 243 244 243 242 246 
247 235 215 197 236 245 244 245 244 242 245 244 244 244 244 245 
244 244 243 246 244 244 245 205 220 246 245 245 244 243 244 245 
244 244 244 246 245 246 246 245 244 245 246 245 246 237 214 246 245 246 244 245 
245 245 243 244 245 245 245 244 245 244 243 247 248 244 218 187 
179 197 217 240 246 247 244 243 242 243 243 242 243 244 244 245 
245 244 244 244 244 245 244 244 243 244 243 244 245 243 246 238 
211 205 230 247 248 244 244 246 244 243 244 243 244 244 243 243 
244 244 244 244 243 243 243 243 198 242 244 246 243 244 244 244 
244 243 244 245 245 245 245 247 244 244 244 246 246 211 236 246 244 245 245 246 
245 246 245 245 244 245 244 243 243 243 242 244 246 247 249 247 
245 227 201 180 201 229 245 244 243 244 242 242 243 244 244 246 
243 245 244 244 243 243 244 244 244 244 246 246 245 247 219 189 
231 246 248 247 243 244 244 243 243 240 243 243 244 244 244 244 
244 244 244 245 243 244 243 248 219 228 243 243 242 243 244 244 
242 245 244 244 243 245 245 243 246 244 244 242 246 201 247 246 247 246 245 244 
244 243 244 244 245 244 243 243 243 242 244 246 244 245 244 246 
247 243 246 245 220 174 207 246 243 242 243 242 241 243 243 243 
243 244 244 243 242 242 241 242 244 245 243 235 205 190 213 241 
248 245 244 243 243 244 243 244 242 243 243 244 242 244 242 244 
244 245 243 244 243 242 244 245 237 211 246 243 243 244 244 242 
245 244 244 244 245 245 243 244 243 243 245 245 224 217 245 245 244 244 244 243 
244 245 243 244 246 246 244 242 243 243 241 242 244 244 244 244 
243 241 244 244 246 245 184 222 243 242 242 242 241 242 243 243 
243 244 243 243 242 242 242 242 242 236 199 178 197 241 250 248 
245 243 243 242 244 244 244 242 243 243 243 246 244 244 242 243 
243 243 243 246 244 243 243 245 242 205 240 243 245 244 241 243 
243 243 241 246 245 244 244 245 243 243 245 243 208 246 245 244 244 244 245 244 
245 245 244 244 244 243 243 242 242 242 245 242 243 243 243 245 
242 242 243 245 245 205 169 212 244 242 242 241 241 241 242 244 
243 243 242 244 243 242 242 243 243 212 162 224 250 250 245 244 
244 243 243 243 244 243 243 243 244 245 245 246 246 246 245 244 
243 243 243 243 243 243 243 244 244 213 215 245 242 242 243 243 
243 242 243 244 244 245 244 244 243 242 242 243 208 247 245 244 244 245 245 243 
244 243 243 245 244 243 243 242 243 241 242 244 243 241 240 241 
245 241 244 217 177 183 236 246 243 241 241 242 241 242 243 242 
242 242 242 242 242 242 242 242 242 243 216 187 180 225 244 246 
245 245 243 242 244 244 242 244 244 243 244 246 245 244 243 245 
243 244 244 243 243 243 243 243 244 244 206 245 243 243 243 242 
241 243 244 243 243 243 242 242 242 243 243 228 220 245 245 244 244 244 243 243 
244 243 243 243 244 243 243 242 242 243 243 242 241 242 239 242 
243 227 178 149 206 246 245 241 240 241 241 243 241 241 241 242 
241 242 243 242 242 242 241 242 242 242 247 246 224 171 171 219 
244 246 244 244 243 243 244 244 244 243 243 243 245 244 242 246 
244 244 244 243 242 241 242 242 243 244 203 240 240 242 242 241 
242 242 242 243 244 243 243 243 243 243 243 212 242 243 243 244 245 243 243 243 
243 243 243 244 244 244 243 243 243 242 242 239 238 239 238 240 
215 155 190 237 244 242 242 242 240 239 241 238 241 241 242 242 
242 241 241 242 242 241 241 240 242 242 241 242 246 248 226 185 
169 221 249 245 245 244 243 243 244 243 242 243 243 244 244 243 
242 243 244 243 241 242 241 241 241 243 221 216 243 242 242 243 
243 241 242 243 242 242 242 243 242 243 244 200 247 245 243 243 244 243 243 242 
243 243 246 244 245 244 244 242 244 241 235 237 237 241 226 165 
167 227 246 244 241 242 240 241 242 241 240 242 241 241 241 241 
242 241 240 242 242 240 241 242 242 241 241 240 242 244 244 246 
229 175 186 238 247 246 244 244 245 242 241 243 244 244 241 243 
242 243 242 240 241 240 240 240 242 242 240 203 244 243 242 243 
242 242 242 242 243 241 241 243 244 242 242 211 247 243 244 244 243 241 243 243 
243 243 242 243 242 243 242 241 241 241 240 239 238 189 153 199 
241 243 242 242 240 240 241 241 241 240 240 242 240 240 242 241 
241 242 241 241 241 241 241 240 242 241 241 241 239 243 242 242 
245 242 217 182 200 237 246 247 246 243 244 242 242 244 243 240 
243 241 240 240 240 239 240 240 241 241 243 196 240 241 242 242 
242 243 242 242 242 240 241 241 242 242 224 217 242 242 242 243 243 243 243 241 
242 242 243 242 242 241 242 241 241 241 243 231 149 175 231 240 
241 240 240 240 241 240 240 239 241 239 241 240 241 241 241 241 
241 242 241 241 242 241 241 241 240 242 242 242 241 240 240 242 
243 244 245 243 205 165 207 245 246 246 242 242 243 243 242 242 
242 242 243 241 241 240 240 240 240 241 240 201 236 242 242 242 
241 241 243 241 239 240 240 241 242 244 201 231 242 243 243 243 243 243 241 242 
242 240 241 241 241 242 241 240 242 243 194 132 199 242 240 241 
240 238 240 239 241 241 240 241 240 241 240 241 239 240 240 240 
241 239 241 242 241 241 241 241 240 240 241 239 241 241 242 242 
242 241 243 244 246 241 187 172 212 241 240 240 242 241 242 242 
240 241 240 241 240 241 240 239 240 241 240 226 224 242 241 240 
243 240 241 241 240 240 239 240 242 243 188 243 242 241 242 241 242 241 241 241 
242 242 241 242 242 241 240 240 238 203 142 208 242 240 239 239 
239 237 241 240 239 241 239 240 241 241 240 238 240 241 241 240 
241 238 241 241 241 240 241 241 241 241 241 241 241 241 240 242 
241 241 241 242 245 246 246 238 183 214 241 242 240 240 242 240 
241 240 242 241 241 240 240 238 239 240 239 231 220 242 241 240 
241 242 241 239 240 240 238 239 239 242 195 245 241 241 241 241 241 241 242 241 
241 240 240 241 240 240 240 240 241 209 212 244 241 240 239 239 
240 239 239 238 237 240 240 240 240 240 241 241 240 241 241 241 
241 242 241 241 240 242 239 240 241 241 241 241 241 241 242 241 
240 241 241 241 241 243 244 245 244 241 241 241 240 240 240 239 
240 239 240 240 241 239 239 239 241 238 238 236 212 241 240 242 
239 242 241 239 239 238 237 238 238 235 195 242 242 242 241 241 241 241 241 242 
241 240 240 241 238 240 240 240 241 242 245 240 240 238 240 240 
240 240 239 238 239 240 240 238 240 242 241 240 239 240 241 240 
240 239 239 241 240 241 243 240 240 240 241 241 241 241 241 241 
241 241 240 240 242 241 241 242 242 241 240 240 239 239 240 241 
238 240 241 241 239 239 239 239 240 241 239 239 206 242 242 238 
241 239 241 240 240 240 238 236 237 228 192 242 241 240 240 240 241 241 240 239 
241 239 240 240 240 239 240 240 241 239 241 240 238 240 238 239 
240 240 239 239 239 240 241 240 240 240 239 241 240 240 239 240 
240 240 241 239 240 239 239 240 237 239 240 241 240 240 240 242 
241 240 239 240 241 241 239 241 241 241 242 240 240 239 240 240 
238 237 239 241 240 239 239 239 241 239 238 240 211 243 237 240 
240 240 241 239 240 239 236 237 239 226 204 241 240 240 240 240 240 239 240 239 
239 240 240 240 240 239 238 240 240 240 242 239 240 240 240 240 
239 239 240 240 239 240 241 241 240 240 240 240 240 239 240 240 
239 240 241 240 240 239 239 239 239 241 238 240 241 241 238 240 
240 241 240 241 241 240 241 240 239 240 240 239 239 239 239 240 
241 240 239 237 239 239 238 237 239 240 241 237 204 241 240 240 
239 240 240 237 239 239 238 239 236 217 210 241 238 239 241 240 240 240 239 239 
239 239 238 238 238 238 240 239 239 239 241 240 239 238 238 238 
238 239 238 240 240 240 241 238 239 240 240 240 240 238 241 240 
240 240 239 239 239 241 241 239 240 241 240 240 240 239 241 240 
241 241 241 241 239 240 240 242 240 240 239 238 238 239 239 238 
236 239 238 238 240 240 240 241 239 239 238 239 207 238 240 240 
240 237 241 238 238 238 234 237 238 213 214 239 240 239 239 238 239 240 240 239 
240 240 239 239 239 237 240 240 239 239 239 240 238 238 239 241 
240 239 240 240 240 241 239 239 239 240 239 239 240 240 240 240 
239 238 239 239 239 239 240 240 241 238 238 239 240 241 240 240 
240 239 239 239 240 241 240 237 239 239 239 239 238 238 239 238 
238 238 238 238 240 238 239 239 237 235 239 240 189 239 240 240 
240 240 239 236 235 235 236 235 237 213 216 239 238 239 237 239 238 238 239 238 
240 238 238 238 239 239 238 238 239 240 237 240 240 241 240 240 
238 240 240 239 239 240 239 240 241 239 238 240 238 239 240 241 
240 237 240 240 239 240 237 237 240 239 239 239 239 241 239 239 
239 240 238 240 238 240 240 239 239 240 239 238 239 238 238 239 
237 235 238 238 238 238 237 237 238 237 237 225 182 241 238 239 
238 238 239 236 236 238 238 235 236 210 208 237 238 237 239 238 240 237 237 238 
238 238 239 238 239 239 239 236 241 240 239 240 239 238 239 238 
239 240 238 240 239 238 239 239 239 240 239 239 240 239 239 239 
239 239 240 239 239 238 240 239 239 240 238 240 239 241 240 239 
241 238 235 238 239 239 237 238 237 237 236 237 237 236 236 238 
238 238 237 237 238 238 238 239 237 236 238 216 213 240 240 239 
239 239 238 236 238 237 237 236 236 210 202 238 238 236 239 236 238 237 236 236 
238 238 237 239 237 239 239 239 239 238 240 239 240 238 239 239 
239 237 238 240 239 239 239 239 238 238 239 239 239 240 239 239 
239 240 241 238 237 239 239 238 239 237 238 239 238 238 238 238 
239 239 239 238 237 237 237 237 238 237 237 236 238 238 238 236 
236 237 237 236 238 239 237 234 235 235 237 208 209 239 237 238 
238 238 239 235 236 236 236 235 235 214 204 237 236 236 236 236 235 237 235 235 
237 238 238 239 238 238 239 238 238 239 238 238 239 239 238 239 
238 237 236 240 239 239 240 239 237 240 239 240 238 239 238 239 
239 237 239 238 239 240 238 238 238 239 237 238 240 239 238 238 
239 237 238 238 239 237 235 235 235 237 237 239 237 237 238 235 
235 237 236 236 236 236 239 237 235 235 237 208 215 239 239 236 
237 237 237 234 235 234 236 236 238 217 192 238 237 237 238 238 236 235 237 236 
236 237 238 238 238 237 239 239 239 239 238 238 240 238 239 240 
237 237 239 239 238 238 240 239 239 240 238 238 239 237 240 240 
239 240 239 241 239 239 239 236 237 238 237 240 239 239 239 237 
238 238 236 236 237 237 237 237 236 236 239 238 237 238 235 236 
238 236 236 234 235 236 237 236 234 236 238 206 209 236 236 235 
236 237 237 234 234 235 236 237 235 230 182 235 236 237 236 236 236 235 237 237 
237 237 238 238 237 237 238 236 238 239 239 240 239 237 239 236 
238 239 239 241 239 237 238 240 238 237 237 240 238 238 234 238 
238 240 239 240 240 240 239 236 238 238 237 238 238 239 238 237 
237 237 235 236 236 236 238 234 238 237 236 236 236 235 237 237 
236 237 235 236 237 236 235 234 235 234 238 190 226 236 238 236 
236 236 237 234 233 233 234 233 234 229 180 236 236 234 236 237 236 234 235 236 
236 237 237 238 237 235 238 238 238 238 238 237 238 238 238 239 
239 239 236 239 238 238 239 238 238 238 239 240 238 240 237 237 
238 240 239 240 239 238 239 237 236 235 238 235 236 238 237 237 
237 236 236 236 236 236 236 236 236 236 235 234 236 236 235 237 
236 236 235 236 234 234 235 236 235 235 236 184 232 236 237 235 
236 238 239 232 233 233 233 233 235 233 162 234 236 237 238 235 235 235 234 235 
236 238 236 236 237 236 238 239 239 238 237 239 238 238 236 237 
237 238 238 240 237 238 238 237 238 236 238 238 237 237 237 239 
240 238 237 237 239 239 240 238 235 237 237 235 235 238 237 235 
237 236 236 236 236 235 236 235 235 235 236 238 238 236 235 236 
236 237 237 234 235 234 235 235 234 232 229 179 238 237 235 235 
235 236 235 233 234 232 232 235 234 235 156 233 235 234 233 235 236 236 235 235 
234 236 237 236 237 236 238 237 236 237 238 237 237 238 237 239 
238 239 238 239 238 237 237 237 237 238 237 238 239 239 238 238 
237 238 237 237 237 236 239 238 237 237 237 235 236 235 236 236 
235 236 235 233 235 234 235 235 235 235 236 236 237 235 236 234 
235 237 236 235 235 235 235 235 235 234 222 183 236 234 237 236 
235 234 235 232 231 232 233 233 232 234 174 232 235 235 234 234 233 234 234 234 
233 237 236 236 235 236 238 237 237 236 236 236 237 237 237 236 
234 236 237 235 238 236 235 235 236 235 237 236 235 235 237 237 
237 238 238 238 238 239 239 237 237 236 236 235 233 237 233 232 
235 235 234 235 234 236 235 235 236 236 236 236 236 236 236 236 
237 236 238 237 235 234 234 234 234 238 213 202 235 235 233 236 
235 234 235 233 232 233 232 232 233 233 190 215 235 235 234 235 234 234 233 234 
233 236 238 237 237 237 236 235 236 237 235 237 237 238 239 238 
237 237 237 235 237 236 236 236 236 238 237 235 237 236 236 235 
238 237 238 239 238 237 239 239 239 239 235 234 235 235 235 235 
234 235 235 235 236 234 235 234 235 235 236 236 235 235 235 235 
238 238 235 237 236 234 236 235 232 235 193 228 234 234 233 234 
233 233 235 230 232 230 231 230 231 232 219 188 236 234 233 235 234 234 235 234 
233 235 234 233 235 235 236 235 236 237 237 235 237 236 235 235 
236 236 234 234 235 235 236 235 235 234 235 234 235 235 235 236 
237 234 235 239 239 237 235 236 237 236 233 237 234 233 234 234 
234 233 233 233 235 235 235 235 235 235 235 235 234 234 234 235 
238 235 234 234 234 233 234 236 231 232 180 238 235 234 233 234 
235 234 234 231 232 228 230 230 230 234 236 178 231 233 233 233 235 235 234 234 
234 235 235 235 235 236 235 235 235 234 235 236 238 235 236 235 
235 236 234 236 235 234 235 234 234 235 235 234 235 235 234 236 
236 236 236 237 236 235 236 235 234 235 232 233 234 233 234 234 
234 233 234 233 233 235 235 232 234 234 232 234 235 236 235 236 
237 236 235 233 234 232 235 233 230 229 191 234 235 235 233 235 
233 235 234 229 231 231 230 230 231 230 233 173 233 232 233 233 233 234 235 234 
233 235 234 234 235 234 235 235 234 236 235 234 237 235 235 237 
235 235 236 234 234 234 233 233 233 232 235 235 234 235 233 234 
234 234 233 235 234 233 233 232 232 233 234 234 234 233 234 232 
232 234 232 234 234 233 233 235 235 235 235 235 234 235 233 233 
235 234 233 234 232 232 232 232 231 172 223 233 233 232 233 234 
232 233 233 230 228 231 230 231 232 231 232 186 212 236 233 233 232 232 233 233 
233 234 235 234 236 234 233 234 236 235 235 235 234 235 234 235 
234 234 234 233 232 234 234 233 234 235 233 235 235 236 234 234 
234 235 235 235 233 231 232 232 232 235 231 234 233 233 232 233 
233 234 232 233 233 233 233 233 234 234 234 233 234 233 234 233 
234 234 233 233 233 231 232 231 227 168 235 234 233 233 233 233 
233 234 231 229 230 230 232 228 230 229 229 221 179 233 232 231 233 233 233 234 
233 234 233 233 234 234 233 234 233 233 233 235 234 234 233 231 
234 234 231 231 232 233 233 234 234 236 236 228 215 233 238 237 
231 232 236 232 226 232 234 233 231 235 231 234 233 231 233 233 
232 232 234 234 234 233 233 233 233 233 232 232 232 232 233 235 
233 233 234 232 232 231 232 229 210 187 235 232 232 233 233 233 
232 232 233 226 229 231 228 228 229 227 229 234 164 232 233 233 232 232 232 234 
232 234 232 234 231 234 235 232 232 233 232 233 234 233 232 231 
231 232 232 231 233 232 235 236 230 214 191 152 146 141 148 138 
145 145 148 149 131 140 149 182 217 235 234 233 233 234 233 233 
233 232 233 233 233 233 232 232 232 232 233 233 232 233 232 232 
233 232 233 231 230 231 230 231 189 225 234 234 234 234 235 233 
233 230 231 229 228 227 228 228 228 228 226 229 191 216 232 232 231 231 231 231 
234 233 233 232 233 234 233 233 232 232 233 232 231 234 232 232 
233 230 233 233 235 236 222 184 138 159 184 202 207 213 209 216 
222 221 226 229 219 210 193 160 134 152 205 233 233 234 233 231 
230 233 233 233 233 232 232 231 232 231 232 233 233 231 231 231 
232 232 233 231 232 230 228 227 173 237 232 231 232 232 233 232 
232 233 232 226 228 228 227 227 229 228 227 230 224 180 232 232 232 232 231 232 
233 233 230 231 231 232 233 232 234 234 233 233 233 230 233 232 
231 230 233 232 200 145 159 201 230 237 237 235 237 236 234 235 
235 234 235 236 236 236 234 239 227 182 127 158 204 229 235 230 
231 230 232 232 230 231 233 232 232 232 232 230 231 233 232 231 
230 231 231 231 231 230 229 199 207 233 232 233 233 234 235 233 
231 233 233 228 228 228 228 227 228 228 228 228 231 174 227 232 233 232 233 232 
231 231 232 233 232 232 232 231 231 232 233 232 230 230 233 228 
231 233 225 169 139 205 236 235 234 234 234 234 234 232 235 234 
232 233 234 235 233 234 233 232 236 235 224 178 135 151 215 236 
232 228 229 230 231 231 231 232 232 232 232 234 229 230 231 230 
231 229 229 231 231 230 228 173 235 231 232 231 230 231 229 231 
232 232 231 228 227 227 227 228 228 229 229 230 232 210 191 231 231 231 231 230 
233 233 232 232 231 232 230 231 232 230 232 231 230 231 229 232 
233 222 131 158 234 233 233 232 232 233 233 231 234 230 230 231 
232 233 233 234 233 230 231 232 233 233 234 239 230 178 142 224 
234 232 231 230 232 230 231 230 230 231 232 232 231 228 226 228 
226 227 227 230 229 231 197 196 234 231 230 232 231 233 233 232 
234 234 233 228 227 227 227 227 227 228 228 229 232 233 172 228 232 230 232 232 
231 231 232 231 231 231 232 232 232 231 232 232 230 230 233 231 
173 142 196 235 233 231 231 232 231 233 232 232 230 230 232 232 
230 232 233 231 234 231 232 233 233 232 231 233 234 238 183 143 
199 228 230 230 228 231 230 231 231 231 231 230 230 228 227 227 
227 229 227 226 228 226 164 232 230 232 233 232 231 229 229 230 
228 232 231 225 229 228 228 228 225 227 228 229 229 229 209 188 228 230 231 231 
230 231 229 232 232 231 230 229 228 230 233 230 230 233 224 142 
166 232 235 232 231 231 230 230 232 232 232 231 232 232 231 232 
232 230 233 231 231 233 231 229 230 232 232 233 231 232 237 214 
160 162 231 229 229 228 231 231 229 230 233 228 226 226 228 230 
229 229 227 227 233 194 213 232 232 231 229 230 230 232 233 231 
231 233 232 225 224 226 226 227 227 228 227 230 229 230 230 175 224 232 230 230 
232 231 231 230 229 231 229 229 229 231 229 230 231 237 149 186 
237 235 231 229 229 229 228 231 230 231 232 230 232 229 232 230 
231 231 231 230 232 229 231 231 231 232 232 232 231 232 234 232 
232 137 201 230 230 228 229 229 230 231 231 229 226 227 226 225 
226 227 227 227 223 168 233 230 231 230 230 230 229 228 228 232 
229 230 230 227 226 226 226 227 225 225 228 227 228 229 229 219 182 232 230 228 
229 231 232 230 229 229 230 231 231 230 229 229 230 208 140 239 
233 231 231 231 230 228 229 231 232 231 231 230 231 229 231 232 
231 232 232 231 234 232 231 231 231 231 231 231 231 231 232 231 
234 215 153 229 229 230 228 230 228 225 228 226 225 225 226 228 
228 227 224 232 176 217 230 229 227 230 231 230 231 231 230 231 
230 231 230 226 229 227 226 225 226 225 226 227 225 226 226 231 160 209 230 226 
229 229 232 230 229 229 229 230 228 228 230 230 231 155 212 233 
230 232 231 231 230 230 230 231 229 229 231 231 231 231 230 231 
231 231 232 232 231 231 231 231 231 231 230 229 231 231 230 232 
231 234 173 195 231 229 228 227 227 226 228 228 228 224 225 227 
228 222 226 195 190 233 228 229 229 230 229 229 229 230 230 229 
229 230 230 225 226 226 226 226 227 225 224 225 227 226 227 230 225 169 227 229 
230 231 231 230 229 229 228 229 227 229 227 227 230 218 234 230 
232 231 230 229 230 229 229 231 229 230 231 230 231 230 230 231 
231 231 232 231 230 229 231 232 231 234 230 232 231 232 231 231 
233 231 226 207 229 227 227 228 229 227 226 228 230 229 225 226 
224 228 212 166 230 228 228 229 230 229 228 229 228 228 228 231 
228 231 228 226 222 223 225 224 225 226 225 226 226 227 225 227 230 191 182 232 
230 230 228 230 230 228 229 228 228 229 229 230 230 233 232 230 
227 230 229 229 228 230 228 229 230 230 229 230 230 231 228 230 
228 230 230 229 231 230 229 232 230 230 232 229 230 231 232 231 
230 230 232 230 228 228 228 226 227 225 227 230 231 228 228 224 
227 230 169 216 231 227 227 226 227 227 228 229 229 227 232 228 
229 230 229 225 227 225 225 225 226 226 226 227 226 225 227 227 228 230 165 204 
229 226 228 228 231 231 230 230 230 228 228 229 228 229 229 229 
229 229 230 229 229 226 229 229 228 229 230 230 230 231 230 231 
231 232 231 232 230 230 230 229 231 231 231 231 230 231 232 230 
231 231 230 229 228 229 227 225 226 225 225 226 229 228 226 226 
231 187 201 230 227 227 227 228 229 226 228 227 228 227 224 227 
229 229 227 224 226 226 225 222 224 225 225 225 226 226 226 226 225 228 222 153 
210 227 227 229 228 228 228 228 228 229 229 229 229 228 228 229 
229 228 228 228 228 230 229 230 230 228 229 229 229 229 231 230 
231 229 229 231 232 230 229 230 231 230 231 229 230 230 228 230 
229 230 232 229 228 227 226 227 226 225 225 227 226 222 224 225 
181 182 229 228 226 225 227 227 226 229 225 228 227 227 229 227 
225 227 227 224 223 222 224 223 225 224 225 223 225 223 222 225 225 226 228 209 
137 221 230 227 227 228 227 228 228 228 230 228 228 228 229 228 
228 230 229 229 229 229 227 228 229 228 230 228 229 229 229 229 
229 230 231 230 229 229 230 229 230 230 230 230 230 228 230 230 
230 229 231 229 226 225 224 223 224 226 224 227 225 222 224 200 
166 229 227 223 224 224 227 225 225 227 227 225 225 226 226 226 
225 227 224 222 225 225 223 225 225 224 225 225 224 224 222 224 226 225 224 228 
194 151 226 228 229 226 228 228 228 228 226 228 227 228 230 229 
227 227 228 228 229 228 228 228 228 229 226 229 229 228 229 227 
228 230 229 229 231 230 230 230 230 229 229 230 231 230 228 229 
230 230 230 227 225 226 226 225 224 223 225 224 225 227 208 155 
225 227 225 227 227 225 225 225 224 224 226 225 225 224 225 224 
225 225 223 223 222 223 224 225 225 223 224 226 223 223 223 222 225 224 224 224 
225 189 167 224 229 228 227 225 226 226 228 227 228 228 227 227 
229 228 226 228 227 227 227 225 225 227 228 229 228 228 227 228 
229 228 229 227 229 230 227 229 228 230 230 229 229 230 231 230 
229 229 230 228 223 224 225 226 226 223 221 223 226 202 152 215 
228 224 225 224 224 224 224 223 223 224 223 223 224 225 225 222 
225 227 223 222 223 223 224 223 222 223 224 224 224 222 221 221 221 223 224 221 
223 226 193 161 223 227 223 225 226 225 226 225 226 224 225 227 
227 228 227 227 227 226 226 226 227 226 226 228 227 228 228 227 
228 225 228 227 227 227 229 228 229 229 229 228 229 229 231 228 
229 228 229 230 224 223 223 223 226 223 220 225 206 160 219 228 
225 223 223 223 222 223 222 223 226 224 224 223 225 222 223 223 
222 224 224 221 223 222 222 222 223 224 223 223 222 222 221 223 221 224 219 222 
222 225 227 198 158 220 226 226 226 228 226 226 226 228 226 226 
226 224 225 226 227 226 227 226 226 227 225 227 226 226 226 227 
227 226 228 227 227 227 227 229 228 228 227 228 228 227 229 229 
228 228 227 228 222 222 223 223 223 222 226 210 158 218 226 224 
223 223 223 225 224 221 223 223 222 222 223 222 222 224 223 223 
224 222 224 222 222 221 223 221 224 223 224 223 223 224 222 223 221 219 222 221 
220 222 223 226 197 153 218 225 223 222 223 225 227 225 225 225 
225 225 225 226 225 226 226 225 226 225 225 227 224 227 227 226 
225 225 228 228 228 226 228 228 229 227 230 228 228 226 227 227 
227 228 227 229 222 219 221 219 221 223 206 157 220 228 224 221 
222 222 222 224 225 223 222 222 222 222 223 222 222 223 223 220 
222 223 218 222 222 221 220 221 221 223 223 223 224 223 222 220 221 221 219 221 
222 223 220 224 227 207 154 195 224 221 220 222 223 224 224 224 
223 226 224 224 224 226 225 224 225 224 224 224 224 223 224 224 
226 226 225 222 224 227 227 226 224 228 228 227 226 226 224 225 
228 225 226 226 224 220 220 223 223 180 174 226 227 224 221 223 
221 222 222 222 223 224 221 221 221 221 222 223 222 223 223 223 
220 220 223 221 219 219 220 221 222 222 221 220 221 222 222 221 220 221 220 220 
221 221 220 222 224 221 218 170 175 215 221 224 223 223 223 222 
222 224 224 223 221 221 220 224 220 222 223 223 223 224 224 223 
221 222 221 226 223 221 223 224 226 227 225 223 224 225 224 226 
223 224 222 223 223 222 223 218 172 185 228 227 222 223 222 221 
221 222 221 223 222 223 223 222 220 222 223 222 222 221 223 221 
222 222 221 221 220 219 221 222 221 221 222 220 220 225 220 220 220 220 221 220 
220 222 220 220 221 223 220 227 192 152 204 223 224 221 222 222 
221 219 220 222 219 223 222 222 220 222 222 222 222 223 224 224 
222 223 225 227 221 221 222 220 222 224 224 225 224 222 223 225 
225 223 224 228 226 226 206 158 201 227 223 222 224 224 219 223 
222 222 220 223 223 223 223 222 222 221 220 220 220 221 222 222 
219 220 220 219 220 220 220 220 222 220 223 222 226 222 221 219 220 219 221 220 
220 222 222 220 221 222 220 221 224 218 161 158 207 220 220 222 
220 220 221 218 220 220 218 219 220 220 220 220 220 219 219 222 
221 220 222 221 219 220 220 220 220 220 220 221 222 221 223 226 
225 225 224 223 208 169 179 220 224 222 222 220 222 224 223 220 
222 220 221 221 221 221 221 223 220 220 220 221 220 219 220 218 
221 220 220 218 218 220 220 219 221 220 218 220 220 222 221 220 218 219 217 222 
222 221 219 220 221 219 219 219 219 220 224 210 162 168 209 219 
220 219 220 222 221 220 221 221 220 219 218 218 219 220 221 220 
220 218 219 221 220 220 219 220 220 219 219 222 224 222 224 226 
202 175 136 140 169 213 229 225 222 220 219 221 222 223 220 219 
219 220 220 220 221 222 221 219 219 220 219 219 220 221 223 222 
220 219 220 217 218 219 219 220 220 220 218 217 218 220 220 217 219 218 219 217 
218 219 220 216 218 218 218 217 218 218 217 217 221 204 166 171 
203 219 217 219 219 220 220 217 218 218 220 219 219 220 221 223 
221 222 220 218 219 217 218 219 220 221 222 220 214 199 177 133 
110 153 213 221 226 229 225 219 219 220 221 223 222 221 219 221 
220 220 220 219 219 221 219 220 220 218 219 219 219 221 216 218 
218 219 221 217 217 218 216 218 218 217 217 220 221 218 222 218 217 217 217 216 
217 217 217 217 218 218 218 217 216 213 215 213 216 218 218 213 
177 149 139 186 211 217 213 212 212 211 211 214 219 216 217 218 
215 216 214 218 217 218 216 218 215 219 211 178 133 146 172 214 
218 226 221 221 220 220 219 221 219 220 219 220 221 219 219 220 
219 220 221 220 219 218 218 216 219 218 219 219 219 220 219 219 
218 220 221 217 216 218 218 215 215 217 219 217 219 217 218 218 217 219 216 217 
219 219 217 215 216 216 216 216 214 214 215 215 215 216 219 217 
218 216 204 177 161 153 147 140 141 157 174 173 159 160 157 163 
161 181 207 213 214 211 196 192 161 146 139 160 207 217 221 221 
218 219 219 218 219 220 218 216 217 220 221 218 220 219 219 220 
221 218 218 220 219 219 219 219 217 219 218 219 219 219 218 220 
219 219 218 216 215 214 215 216 215 216 215 215 217 219 219 216 215 215 216 215 
215 215 216 215 216 217 216 217 215 214 216 214 215 214 215 215 
215 217 217 219 220 212 187 154 139 138 137 128 129 143 152 136 
107 120 128 126 131 142 141 164 183 215 226 219 219 217 218 216 
215 218 216 219 218 219 219 215 216 219 219 221 218 219 219 220 
220 218 217 219 219 218 219 218 219 218 218 219 219 219 218 218 
218 218 218 214 214 215 216 215 216 216 217 216 215 217 219 217 215 216 214 216 
215 214 214 215 215 215 214 215 213 213 213 214 213 214 215 214 
212 213 214 216 215 217 216 215 214 204 177 193 203 208 199 187 
182 184 184 210 219 221 217 218 219 218 222 220 218 216 216 217 
215 217 217 216 218 214 216 215 217 221 221 217 219 217 218 218 
216 219 218 219 216 218 216 216 218 217 218 218 217 218 217 216 
217 218 219 214 215 213 213 213 214 214 215 217 215 215 214 216 215 214 215 215 
215 215 214 213 215 214 214 212 213 212 213 213 214 212 215 215 
214 213 212 214 214 213 214 215 215 215 217 212 212 213 216 213 
215 217 215 218 215 217 217 215 215 217 215 217 215 216 217 216 
216 216 218 218 218 219 218 216 219 208 191 214 219 218 217 217 
216 217 217 216 217 218 219 218 216 217 217 218 218 216 219 218 
217 217 216 214 211 211 213 213 214 214 213 213 213 215 217 217 213 215 215 213 
214 215 216 215 211 214 214 213 214 214 215 213 215 213 213 213 
213 213 212 212 212 213 213 213 213 214 216 220 217 214 213 213 
214 214 213 214 216 216 215 217 218 216 217 218 217 217 218 218 
218 217 218 217 218 216 217 212 192 193 216 219 218 218 217 219 
219 216 219 218 219 216 218 219 217 218 220 219 217 219 218 216 
218 218 218 212 213 213 212 211 210 211 210 210 212 210 213 212 213 211 212 212 
212 212 212 213 211 213 214 213 213 213 214 214 213 213 214 215 
212 214 214 214 213 214 214 213 213 214 213 214 215 214 215 214 
216 216 213 214 213 214 213 212 214 217 219 218 217 215 214 216 
218 215 217 217 218 216 214 214 213 218 220 219 218 217 217 216 
217 219 217 218 217 218 217 220 217 218 218 217 217 215 214 217 
218 219 218 