P2
# Created by IrfanView
100 100
255
240 237 237 239 239 238 237 238 239 239 239 238 239 241 242 241 242 
243 244 242 242 240 239 242 243 240 242 240 241 241 241 243 243 
243 244 243 244 244 244 243 243 245 245 243 243 245 243 244 244 
245 245 244 244 244 243 244 244 243 243 245 247 248 246 246 246 
246 246 246 247 249 249 248 247 248 247 248 248 247 248 248 248 
248 248 249 249 249 249 247 247 247 248 247 247 250 249 250 249 
248 248 248 237 239 236 238 238 239 240 240 238 239 239 240 240 240 240 240 240 
239 239 239 240 239 240 241 240 241 241 241 241 241 242 241 242 
242 242 243 241 243 242 242 243 243 242 243 242 242 243 243 243 
243 242 243 243 243 244 243 243 244 244 244 244 244 246 245 245 
245 245 245 245 245 246 244 245 245 246 244 245 245 245 245 245 
245 246 245 245 245 246 245 246 247 245 246 246 246 246 246 247 
246 247 247 236 238 236 237 238 237 240 239 238 238 239 239 238 238 239 238 238 
239 239 239 239 240 240 239 240 240 241 241 241 241 240 241 240 
242 241 241 242 242 242 241 242 242 243 242 243 242 243 242 241 
242 242 242 242 242 242 243 243 242 243 245 244 244 244 244 244 
244 244 244 243 245 244 245 244 244 244 244 244 244 244 244 244 
244 244 246 244 246 245 245 246 245 245 246 245 245 246 246 247 
247 246 246 235 237 236 239 238 238 239 239 238 240 239 237 238 237 239 238 239 
236 239 239 239 239 239 240 240 240 239 241 241 242 242 240 241 
241 241 241 241 242 242 240 241 240 243 242 241 241 242 242 241 
242 242 242 242 243 242 242 243 243 243 244 244 244 244 245 244 
245 246 245 244 245 243 244 245 243 244 245 246 242 244 244 245 
245 245 245 245 244 245 245 245 245 245 244 246 247 246 246 246 
246 246 247 236 237 237 237 239 240 239 238 239 239 237 238 240 239 239 241 239 
238 238 238 240 239 242 240 239 240 241 240 240 239 240 241 241 
241 241 241 241 240 240 241 242 241 241 242 244 242 242 242 241 
241 242 241 241 242 242 242 242 241 242 243 243 243 245 245 243 
242 243 244 243 243 244 243 244 245 245 245 246 244 243 243 244 
244 244 244 244 244 245 244 244 244 243 245 243 244 244 244 244 
244 246 245 236 236 237 234 236 237 238 239 238 238 240 238 237 237 238 237 237 
238 238 240 239 239 239 238 238 238 239 240 240 240 239 238 240 
239 240 241 240 240 241 241 241 241 241 241 243 241 241 241 241 
240 241 242 242 240 242 243 242 242 242 243 243 243 243 243 244 
243 243 243 244 246 244 244 244 244 244 244 246 243 243 244 244 
243 244 244 244 245 244 244 243 243 246 244 244 243 243 244 244 
244 244 245 235 236 236 236 236 236 236 238 237 235 236 236 238 237 236 237 238 
237 240 239 239 239 240 240 241 239 239 238 241 239 238 238 238 
240 239 240 241 240 239 240 241 241 241 242 240 242 240 241 242 
242 240 243 242 241 241 242 241 242 241 242 241 244 243 242 242 
243 243 243 242 242 242 243 243 243 244 244 243 244 243 243 243 
242 244 242 244 243 243 243 244 244 242 243 243 243 244 244 242 
243 243 243 234 235 233 237 235 237 236 237 238 237 237 237 237 235 236 238 238 
237 238 237 239 238 238 238 238 238 239 238 239 238 240 239 238 
240 239 238 238 239 240 241 242 242 241 242 242 243 244 245 244 
242 243 245 244 243 244 244 243 244 240 242 243 242 242 242 243 
242 243 242 242 243 243 243 243 242 242 244 243 243 242 242 243 
241 241 242 243 242 242 243 243 242 243 241 242 243 243 242 241 
242 244 242 234 236 234 234 236 236 235 235 236 237 236 238 236 238 238 236 237 
236 237 236 237 235 239 239 236 238 239 240 237 238 238 239 237 
235 239 240 241 241 241 242 242 243 240 231 219 213 210 200 200 
203 209 194 205 214 217 230 237 244 243 243 244 242 242 243 243 
242 242 242 241 241 242 242 243 243 242 242 243 242 242 242 242 
241 241 242 243 243 242 242 242 242 242 243 242 243 243 243 242 
242 242 242 233 233 232 234 236 237 235 235 236 237 237 236 237 237 235 238 236 
236 236 237 235 235 238 237 238 237 236 236 238 236 236 237 237 
239 240 242 241 241 234 201 178 167 171 173 196 208 223 231 227 
217 224 223 209 200 212 202 182 182 195 214 230 244 243 245 243 
242 243 242 242 243 243 241 242 242 242 242 241 242 243 241 241 
241 242 241 241 242 242 244 243 242 241 242 242 242 242 241 242 
242 241 241 234 233 233 236 238 234 235 235 238 236 236 236 236 236 236 237 237 
238 236 236 236 236 236 236 237 237 239 238 236 236 237 237 239 
235 202 199 186 153 169 207 237 243 244 242 241 241 241 243 243 
244 243 242 243 243 243 244 245 244 213 200 181 179 195 225 245 
244 243 243 241 241 242 242 241 242 242 243 242 241 242 241 241 
242 241 242 242 241 242 241 241 242 242 240 242 241 241 241 241 
241 241 242 233 232 233 233 233 235 236 236 235 237 235 235 235 237 235 235 237 
236 236 236 236 235 237 236 235 236 237 236 236 237 238 238 228 
150 157 190 217 240 243 242 237 240 237 237 237 239 238 238 238 
239 237 236 238 238 237 237 240 241 242 242 242 230 206 182 182 
217 221 243 241 240 241 241 241 241 242 241 242 241 242 242 241 
241 241 241 241 241 241 241 241 241 241 241 241 240 241 242 241 
241 242 241 233 231 232 234 235 235 234 235 234 234 235 235 236 236 237 236 235 
233 236 235 233 237 235 235 236 235 236 238 238 239 230 179 192 
232 242 242 240 239 239 238 237 238 238 236 236 235 238 236 236 
237 237 237 236 236 238 236 235 235 233 237 238 240 242 242 227 
207 168 178 224 241 241 240 241 241 242 242 243 242 242 239 241 
240 240 240 240 241 241 240 240 239 240 240 241 241 241 240 240 
241 241 240 232 233 231 233 236 236 234 235 235 235 235 236 235 234 235 235 234 
234 234 235 235 234 234 234 235 235 236 239 233 186 192 236 242 
240 238 237 237 237 236 236 235 236 236 235 237 237 238 237 236 
239 238 237 236 236 233 236 236 236 236 234 236 236 238 239 241 
241 236 192 162 181 220 240 241 239 241 240 241 240 241 240 240 
240 240 240 241 241 239 240 240 241 240 240 240 240 240 239 241 
241 241 241 233 232 231 231 233 233 233 234 234 235 234 234 233 235 234 235 235 
234 234 234 234 233 234 233 234 238 237 193 176 227 239 238 237 
236 236 236 235 235 235 235 235 235 235 236 237 238 236 236 236 
236 236 235 237 237 236 236 235 236 234 236 235 235 236 234 238 
239 240 243 236 204 158 174 228 243 239 241 241 241 240 240 240 
240 240 240 240 239 241 241 241 239 239 239 239 240 241 241 241 
240 241 240 234 233 231 231 233 233 234 233 232 233 233 232 232 234 234 233 235 
234 234 234 233 234 232 235 234 224 183 208 241 241 236 236 235 
235 235 235 235 235 235 236 236 236 235 235 235 234 235 237 237 
236 236 237 234 235 235 235 235 235 236 236 236 236 236 236 235 
235 235 238 238 242 236 172 150 194 240 242 241 240 240 240 241 
239 240 239 240 239 240 238 240 240 240 240 240 240 239 240 240 
240 240 240 231 231 231 230 232 231 232 232 234 233 234 231 233 233 232 233 233 
233 232 232 232 233 234 237 202 171 236 237 235 235 236 236 235 
234 235 235 235 234 235 235 234 236 236 235 235 236 236 236 237 
237 236 234 235 235 235 233 235 234 234 235 235 236 235 235 236 
235 235 236 236 239 239 242 217 147 171 238 243 242 239 239 239 
239 239 241 239 240 239 240 240 239 239 240 240 240 239 239 239 
241 240 240 233 233 233 231 232 232 234 232 231 233 232 233 233 233 233 232 234 
234 233 231 232 234 231 175 182 235 236 234 234 235 235 235 234 
236 235 235 235 235 235 234 234 235 234 234 235 235 235 234 234 
233 235 235 234 235 234 236 234 234 234 236 234 234 236 235 234 
234 234 234 231 234 235 238 241 242 185 160 211 242 241 239 239 
239 240 239 238 238 239 239 238 239 238 238 238 240 239 240 240 
239 238 238 232 232 233 233 231 232 232 233 234 233 232 231 232 232 233 233 233 
232 232 234 236 228 165 214 238 233 233 235 233 233 233 235 235 
233 234 235 236 234 233 234 235 234 235 234 235 234 234 234 235 
234 236 231 233 234 234 234 235 234 236 234 235 236 235 235 235 
235 234 236 237 235 235 235 237 237 240 210 151 203 240 240 238 
238 238 239 239 239 238 237 239 240 239 240 239 239 239 239 239 
240 240 240 232 232 231 231 233 233 234 233 232 233 233 233 233 233 232 234 231 
232 232 233 218 152 226 235 234 232 232 235 235 235 235 235 235 
234 233 234 234 234 236 234 232 235 234 234 233 234 234 236 235 
235 235 236 234 234 234 234 234 234 233 233 234 236 235 233 236 
235 235 234 235 235 236 234 234 235 237 240 221 145 192 238 241 
239 239 239 238 239 237 239 238 238 238 238 238 239 238 240 239 
240 240 239 231 234 232 233 233 232 232 232 232 232 231 231 232 232 233 232 232 
231 233 218 149 222 234 235 235 234 233 233 234 232 234 234 234 
234 236 233 235 234 234 234 234 234 234 235 234 234 233 233 234 
234 234 234 234 234 233 235 234 233 233 232 235 235 235 236 234 
234 235 235 235 235 234 234 234 233 234 239 241 221 149 182 241 
240 239 238 239 238 240 238 238 236 239 238 239 238 239 237 238 
239 239 237 231 230 233 232 231 233 232 232 232 230 232 231 231 232 232 232 233 
234 221 174 228 233 231 233 233 233 234 234 234 235 234 235 234 
233 234 234 234 233 234 230 233 234 234 233 234 234 233 232 233 
232 233 232 233 232 233 234 234 234 233 234 234 234 234 235 235 
234 234 234 236 234 236 234 234 235 235 235 234 241 233 157 189 
241 238 237 237 239 237 239 237 238 238 239 238 238 239 238 239 
238 238 239 230 232 232 231 232 230 231 232 231 232 232 233 233 231 232 232 236 
228 165 235 235 233 231 231 231 232 233 233 232 231 233 233 234 
233 233 235 233 233 233 235 235 233 234 233 234 233 233 233 231 
228 232 231 231 233 233 233 234 232 233 234 234 235 234 234 235 
233 235 234 236 235 236 233 234 233 234 235 233 235 240 232 160 
164 242 239 237 236 240 237 238 237 238 236 237 239 238 239 237 
237 236 237 233 232 229 231 230 232 232 231 230 231 233 232 231 231 231 233 234 
163 224 233 232 232 233 233 233 234 233 232 234 232 233 233 233 
234 232 234 235 232 233 233 234 232 233 233 234 233 233 232 229 
227 228 231 231 233 231 232 232 234 234 233 234 235 235 235 235 
235 234 234 234 234 236 234 235 234 235 233 233 234 235 239 231 
141 188 240 238 237 236 237 238 237 238 239 238 237 236 238 238 
241 238 239 230 230 231 230 230 232 231 231 230 231 229 229 229 231 229 236 177 
218 235 233 233 232 232 232 233 231 231 232 232 232 234 233 234 
233 233 233 233 234 233 233 232 235 232 232 232 233 232 232 229 
217 231 230 229 230 231 232 232 232 232 231 235 234 235 234 234 
235 235 234 234 233 233 234 234 234 234 234 234 232 235 235 239 
223 135 211 237 238 236 237 237 236 236 237 237 237 236 236 238 
237 237 237 231 230 231 231 231 232 231 232 229 230 230 229 229 231 235 202 190 
233 233 231 232 233 233 233 232 233 232 231 231 233 233 234 234 
234 231 232 234 233 233 233 232 233 233 233 235 232 233 231 230 
227 231 233 229 231 232 232 231 230 231 229 233 234 234 234 234 
234 234 233 234 233 233 233 232 234 234 234 234 234 233 235 235 
238 196 136 231 238 237 236 237 239 237 237 236 236 235 237 237 
238 238 237 232 232 230 230 231 229 230 228 231 232 230 229 226 230 229 174 235 
233 232 230 233 234 233 232 233 231 233 231 233 232 233 232 233 
232 233 233 233 232 231 233 233 233 233 230 231 232 231 231 229 
229 228 231 230 221 226 230 232 231 231 233 234 234 235 233 234 
233 234 235 234 234 233 233 233 234 234 234 233 234 234 234 234 
236 239 172 190 238 238 238 237 237 237 238 238 237 235 237 239 
238 238 238 231 231 229 229 230 231 229 230 231 230 229 230 227 234 170 227 234 
232 232 233 231 231 232 232 231 232 231 233 233 232 233 232 233 
232 233 233 233 232 234 232 233 233 233 233 234 234 232 231 230 
228 231 231 231 230 230 228 229 232 230 229 232 234 234 234 234 
233 233 234 235 236 234 234 235 233 233 232 233 233 233 233 233 
231 235 234 154 188 238 236 234 235 236 237 239 236 236 237 237 
236 237 235 230 231 231 229 229 229 230 229 229 228 230 229 232 201 198 235 230 
231 233 232 231 231 232 232 231 234 233 232 233 233 232 231 233 
232 233 232 232 232 233 234 232 231 233 232 231 232 231 231 229 
229 228 230 231 231 229 229 232 233 228 231 231 233 234 233 234 
234 233 235 235 234 234 233 231 234 233 233 233 233 231 232 232 
233 235 237 215 156 210 237 235 235 235 235 236 236 237 235 237 
238 237 236 231 229 229 229 229 230 229 228 229 229 230 230 231 177 236 231 233 
231 230 232 231 232 231 232 232 231 229 232 230 232 233 233 231 
233 231 233 232 232 233 233 232 234 233 232 232 231 231 232 231 
229 231 232 230 231 231 227 229 231 230 228 233 235 233 234 233 
234 234 234 234 232 233 232 232 233 234 232 234 233 234 233 233 
233 234 234 239 194 161 238 236 236 237 237 234 236 236 236 236 
238 236 236 231 232 228 229 228 229 228 229 231 228 229 232 198 216 233 231 230 
231 231 231 229 231 233 231 231 229 232 230 230 232 231 232 231 
233 231 230 232 231 230 231 231 231 232 232 231 232 231 231 231 
230 230 232 233 231 232 232 227 232 230 227 234 234 234 234 234 
233 233 234 234 233 233 233 232 232 231 232 231 232 231 233 232 
231 232 234 235 228 151 194 237 236 237 236 237 236 237 238 236 
236 236 235 229 228 229 229 230 227 228 228 229 227 227 232 182 237 231 231 231 
230 232 230 231 231 231 231 230 232 230 231 230 231 232 232 232 
232 231 233 232 233 233 232 232 232 232 231 232 231 231 232 231 
232 231 232 232 232 231 232 234 233 233 232 232 234 234 233 230 
234 233 234 235 233 232 233 232 234 234 233 234 233 235 232 233 
232 233 230 231 234 206 135 235 235 237 235 236 236 235 236 236 
237 235 236 228 231 229 229 229 231 229 229 228 226 231 186 209 231 230 231 229 
231 231 229 230 229 230 230 230 231 230 230 228 229 231 232 232 
232 233 231 232 231 231 232 232 231 232 232 233 232 232 233 233 
232 231 232 233 231 232 233 231 232 231 231 234 233 234 233 234 
232 232 233 234 232 232 231 233 233 232 232 233 233 233 231 232 
231 232 231 233 233 232 140 209 237 236 236 235 236 237 235 235 
237 236 238 230 229 229 228 229 228 227 228 228 227 227 170 233 230 231 229 231 
230 231 229 230 226 230 231 230 229 230 230 228 228 230 231 231 
232 232 232 233 233 232 232 233 232 233 232 231 231 232 232 232 
232 233 233 232 232 231 231 232 232 232 232 233 232 232 232 232 
233 233 233 232 233 231 232 230 233 231 231 233 232 233 233 234 
231 231 231 233 233 235 203 139 235 235 235 234 234 237 236 235 
235 236 236 229 229 229 229 227 228 229 227 229 227 192 207 229 230 228 229 229 
228 229 230 228 229 229 229 227 230 228 231 231 231 233 231 232 
231 233 234 235 233 232 233 232 235 233 232 232 232 232 232 231 
232 232 233 233 232 232 232 233 231 230 232 231 233 233 233 232 
234 234 235 236 234 235 234 234 236 234 235 234 234 233 232 232 
232 233 230 233 232 232 235 157 206 235 234 234 233 235 236 237 
236 236 236 229 230 229 228 228 229 229 228 226 231 168 229 228 231 230 230 229 
230 229 229 227 231 229 228 228 228 229 231 231 231 231 235 232 
227 230 223 221 220 217 197 197 208 173 219 233 231 231 232 232 
232 233 232 232 231 231 231 232 230 232 231 234 234 235 233 232 
231 229 230 220 222 218 228 229 228 231 232 232 232 231 232 231 
232 233 231 233 231 231 236 202 155 236 236 234 234 236 236 235 
235 236 233 229 228 228 228 228 228 227 229 227 214 189 233 229 229 229 229 228 
228 228 228 227 225 228 228 228 227 222 153 156 157 162 151 130 
127 112 106 120 129 134 143 137 143 136 204 232 232 233 232 231 
233 233 233 232 233 234 232 232 232 230 231 228 167 181 163 155 
156 161 142 150 145 142 136 140 136 149 150 159 137 142 230 232 
232 232 232 232 231 232 234 227 137 219 234 235 235 236 235 235 
234 235 234 227 228 228 226 228 228 229 230 229 181 227 228 227 229 228 229 225 
228 228 229 229 229 229 228 229 228 228 227 221 217 216 213 223 
224 226 232 235 239 237 235 237 236 237 235 232 232 232 233 231 
232 231 233 233 230 231 232 233 233 232 232 230 191 190 211 215 
220 230 232 231 235 233 230 228 222 218 217 212 215 212 233 233 
231 231 232 233 232 231 231 234 176 186 236 234 234 233 233 236 
235 235 234 228 229 228 228 226 228 229 228 230 178 231 228 228 228 229 230 231 
229 229 229 228 231 226 228 228 229 229 232 233 232 233 233 233 
232 231 233 233 233 233 234 234 234 234 234 233 230 232 232 232 
233 234 233 232 231 232 231 231 232 231 231 234 234 235 235 233 
234 232 235 235 237 235 235 235 233 233 233 235 237 235 232 231 
232 233 232 233 231 233 230 230 209 153 229 234 233 234 234 235 
235 235 234 229 230 229 229 229 229 227 228 219 178 232 230 230 229 228 226 225 
229 227 229 227 225 229 228 226 226 226 227 228 228 231 230 232 
228 229 232 232 231 232 230 232 232 233 232 232 230 233 233 232 
232 231 232 232 231 233 233 230 230 231 231 231 233 234 231 231 
231 232 233 231 231 232 232 231 231 233 232 232 231 233 232 232 
231 232 231 232 232 232 232 231 229 142 217 236 235 233 235 235 
235 234 234 227 226 229 229 230 229 229 228 189 207 229 228 229 227 229 229 228 
228 226 227 227 229 227 227 228 228 228 228 227 228 229 228 230 
230 230 231 231 232 232 232 232 231 232 229 230 232 229 231 233 
233 232 231 232 232 232 231 232 232 231 232 232 233 231 232 230 
232 232 232 232 233 234 233 232 231 231 231 231 232 232 232 231 
232 232 231 231 230 233 230 231 234 168 199 235 234 233 236 235 
234 234 233 228 227 227 229 230 229 228 229 159 228 229 228 228 228 229 229 228 
228 228 229 229 229 229 228 228 228 227 228 227 228 229 232 231 
230 229 231 232 231 232 232 232 233 231 232 231 230 232 232 232 
229 231 232 232 233 233 232 232 232 231 231 231 231 233 230 234 
231 231 232 233 231 231 232 231 232 232 232 231 232 233 232 232 
231 232 232 231 230 231 231 231 232 201 159 236 235 235 236 234 
233 235 233 227 227 229 229 229 228 227 229 158 233 228 231 229 228 227 228 229 
230 230 229 229 229 228 229 228 230 229 229 227 229 230 228 227 
229 229 231 231 229 233 231 231 230 232 230 231 231 231 231 232 
233 231 232 231 231 231 232 232 231 231 232 231 232 231 232 230 
231 231 232 231 232 233 231 232 233 233 233 233 233 231 232 233 
233 230 231 231 232 232 232 231 231 229 143 231 234 233 231 233 
235 234 233 227 226 225 229 228 228 229 224 170 229 229 229 230 229 228 228 229 
230 228 228 227 228 228 227 229 228 228 228 229 229 228 229 232 
229 228 231 230 230 233 232 231 233 232 230 232 231 231 231 232 
231 233 232 232 233 232 232 232 230 231 231 233 230 232 232 232 
232 232 232 232 233 231 233 232 231 231 231 233 233 232 232 231 
231 231 231 232 232 232 232 230 231 233 160 221 234 234 234 235 
234 234 234 226 228 227 228 226 224 226 201 178 228 227 228 229 229 228 229 229 
229 229 230 229 228 228 231 225 227 229 229 228 228 229 230 229 
229 228 230 229 229 230 229 231 230 232 231 229 230 230 231 231 
231 230 231 230 231 232 230 232 232 230 231 231 232 232 232 233 
233 232 232 231 231 234 231 232 233 233 231 233 232 233 232 232 
232 232 233 232 230 229 231 231 230 230 163 200 235 235 235 234 
233 234 234 226 226 226 228 227 225 227 190 196 230 228 227 227 227 227 226 228 
229 228 228 229 229 228 227 228 229 228 226 228 229 230 229 229 
229 228 230 230 229 229 233 231 231 230 231 230 230 230 230 232 
232 231 231 231 230 229 229 228 232 232 232 230 231 233 232 232 
233 233 234 231 230 231 232 232 232 232 232 232 232 233 233 232 
232 232 232 232 232 231 230 232 231 230 188 202 234 234 233 234 
233 234 233 227 227 227 225 227 225 224 174 224 225 229 230 227 228 228 229 229 
230 229 229 229 228 229 230 231 229 230 230 227 229 227 225 228 
229 229 228 230 229 230 229 229 230 230 230 230 231 230 230 230 
229 230 231 231 229 232 229 230 232 231 231 229 232 232 232 233 
232 232 232 232 231 231 231 233 232 232 231 232 232 232 232 231 
231 231 230 233 230 231 231 230 230 232 194 183 237 233 233 235 
235 234 234 225 226 227 227 226 226 227 169 227 229 227 228 228 228 228 228 228 
229 228 229 229 230 229 228 227 229 228 229 228 228 228 226 230 
229 229 229 230 231 230 229 228 228 232 231 230 231 230 230 228 
228 231 229 227 229 226 230 231 230 231 232 231 232 232 232 231 
232 232 232 232 232 231 232 232 232 231 232 231 232 231 232 231 
232 233 233 232 232 233 230 231 231 229 216 149 233 234 233 233 
234 234 234 225 226 225 225 225 225 224 158 227 226 227 226 227 225 230 228 228 
229 230 229 227 227 229 227 227 229 229 229 229 228 228 226 229 
229 230 230 229 229 229 225 228 228 230 229 231 230 230 228 230 
229 230 230 229 229 227 230 233 229 230 232 231 231 231 233 233 
231 232 231 232 230 232 232 233 232 233 232 231 232 231 230 232 
232 232 231 232 231 230 230 232 231 229 215 167 233 234 235 233 
234 234 233 225 224 225 224 224 226 222 163 228 225 227 227 226 227 225 227 228 
228 228 228 229 229 229 228 228 227 230 230 229 228 230 229 227 
226 229 229 230 229 228 230 228 226 230 230 229 229 227 229 230 
230 232 231 231 231 228 230 231 231 231 229 230 228 232 232 231 
232 231 233 234 231 232 232 231 233 232 232 232 232 232 232 232 
231 232 231 230 230 231 231 231 233 230 219 159 232 234 234 231 
234 236 234 225 225 224 225 225 225 224 161 226 224 227 226 227 227 229 227 227 
228 229 227 228 228 229 229 229 228 230 228 226 229 228 228 228 
228 229 228 229 229 229 227 227 229 230 230 230 229 229 230 229 
229 228 230 229 229 231 231 230 232 231 231 229 229 231 230 232 
232 233 231 232 232 231 232 231 231 231 233 232 232 231 233 232 
232 232 233 232 231 230 231 232 231 231 228 155 230 234 232 235 
235 234 235 225 224 223 225 226 227 224 150 228 226 226 226 227 227 224 226 226 
227 228 229 228 229 228 229 228 229 228 230 228 228 228 229 228 
229 227 228 228 228 228 226 230 229 229 230 229 229 229 229 231 
231 231 229 229 228 230 230 231 230 232 231 231 231 233 231 232 
233 231 231 232 229 229 233 234 233 231 232 232 231 232 230 231 
230 231 231 231 232 231 231 231 229 231 217 140 228 234 233 234 
234 234 235 224 224 225 225 224 223 225 145 229 227 225 227 227 227 227 225 226 
225 228 228 228 229 228 229 229 228 229 229 230 229 228 228 229 
228 229 229 229 230 230 228 228 229 225 227 230 229 230 228 229 
229 229 231 231 230 230 228 230 230 230 231 230 232 231 232 230 
230 231 232 232 232 232 231 228 230 231 231 230 231 231 233 231 
233 230 231 231 231 231 232 232 232 230 213 139 230 232 232 232 
233 234 233 224 225 224 223 225 227 221 148 228 225 226 225 225 226 226 223 224 
227 229 229 228 229 227 228 226 230 230 228 225 228 228 228 228 
230 229 228 228 227 229 229 229 229 229 228 229 230 228 228 228 
228 230 229 229 230 230 230 231 231 230 231 232 230 231 232 233 
231 232 232 232 232 232 231 232 231 232 230 231 232 231 231 231 
231 230 231 231 232 231 232 232 230 232 203 148 230 232 233 234 
234 234 234 223 223 224 224 224 224 226 159 225 225 225 226 223 223 225 225 225 
229 224 224 229 227 229 227 227 227 229 230 229 228 226 229 228 
228 228 227 230 228 228 229 228 229 229 229 229 228 229 227 229 
229 229 227 229 227 229 229 230 230 230 231 229 232 231 231 231 
232 231 231 232 231 230 233 230 231 230 232 232 231 232 232 233 
231 232 232 232 230 231 232 232 230 231 210 162 234 232 233 233 
233 234 233 225 222 223 227 224 223 219 158 219 225 226 226 226 225 224 224 226 
226 227 227 228 227 229 228 229 229 228 227 229 228 229 229 228 
228 228 228 230 229 228 228 228 226 227 229 227 227 228 228 230 
227 229 228 230 229 229 229 230 229 229 230 231 231 231 230 231 
231 231 231 230 230 230 230 230 231 231 231 231 231 232 232 233 
231 230 230 232 231 231 229 233 230 231 204 161 234 233 232 234 
234 233 234 222 224 221 222 222 223 224 166 222 224 225 224 226 226 226 224 225 
226 227 227 224 228 226 225 226 227 230 229 228 228 229 229 229 
229 229 227 227 228 228 228 228 228 229 227 228 229 228 229 229 
229 227 230 228 229 230 230 229 229 229 229 229 230 232 232 231 
231 232 231 231 231 232 231 231 231 230 230 231 232 231 230 231 
231 230 232 232 231 229 230 230 231 230 166 176 232 233 233 233 
233 233 233 221 223 222 225 222 219 222 187 220 223 224 223 224 227 224 224 226 
227 228 225 226 227 223 226 227 226 227 227 227 228 226 227 227 
228 227 227 227 228 227 227 228 228 228 228 226 227 226 228 228 
229 227 227 226 225 223 225 226 227 227 228 228 226 230 230 230 
231 231 230 232 231 230 231 230 229 231 230 232 231 231 231 231 
231 231 231 231 231 231 231 230 231 233 153 192 235 234 232 232 
233 234 235 222 222 222 223 221 223 224 206 187 223 223 221 223 226 224 224 226 
227 225 225 224 226 225 226 225 229 229 228 227 228 228 228 229 
227 227 228 227 226 228 226 227 226 224 225 225 227 225 226 229 
225 227 226 225 222 218 224 226 224 227 228 228 228 229 230 232 
232 231 232 231 231 231 230 230 231 230 232 231 232 233 233 232 
231 231 232 231 231 231 231 232 229 232 167 199 234 231 230 232 
233 232 232 220 220 221 222 223 222 222 221 153 223 223 224 224 225 225 224 225 
225 223 226 226 226 224 226 225 226 227 228 227 227 227 226 226 
228 228 227 227 227 228 227 226 228 227 225 226 227 229 228 228 
229 227 228 227 227 221 223 225 224 224 226 229 230 228 228 229 
229 230 230 231 232 232 231 232 230 230 231 232 232 230 230 231 
231 230 231 230 230 230 229 229 229 226 149 223 232 233 233 232 
233 233 232 221 221 221 221 222 223 221 220 151 224 224 224 224 223 224 225 224 
223 224 225 226 224 225 226 225 225 226 227 226 226 225 227 227 
227 227 228 226 227 227 226 225 225 226 226 225 225 227 227 227 
228 225 227 226 226 225 227 226 226 226 226 226 228 228 231 229 
232 230 230 230 229 231 231 231 232 229 231 231 231 230 230 231 
232 232 231 231 230 230 231 228 227 224 145 234 232 233 233 233 
234 231 234 221 221 221 221 222 219 221 220 170 213 222 223 224 223 223 224 224 
224 224 224 221 223 222 226 224 223 226 225 226 227 225 226 226 
227 226 225 226 225 225 225 226 225 225 225 226 225 226 227 226 
225 226 225 225 228 227 226 226 227 226 229 230 230 229 230 230 
229 230 229 231 231 227 231 230 231 231 230 231 231 230 232 231 
230 229 230 231 229 232 230 229 230 200 144 233 232 231 232 233 
233 234 233 220 220 220 220 221 219 220 218 199 189 224 223 222 221 222 223 224 
225 224 224 224 222 222 225 225 228 226 226 224 226 227 226 225 
226 226 225 226 226 225 225 224 225 224 224 224 225 226 225 225 
226 228 226 227 225 227 227 227 227 228 229 227 228 228 231 229 
230 230 230 230 232 233 230 230 230 231 231 231 233 231 230 231 
231 232 232 231 232 231 231 230 230 172 178 234 233 233 232 231 
232 233 232 221 220 221 220 220 220 220 220 220 164 225 223 222 222 223 224 223 
224 222 223 224 223 223 224 225 223 223 226 225 224 225 225 224 
224 225 224 223 223 224 224 224 225 224 223 223 224 225 228 227 
231 228 228 228 228 229 228 228 231 229 229 231 230 229 230 229 
227 230 231 231 229 232 230 230 231 233 230 231 232 231 231 230 
231 231 232 230 231 230 230 232 229 145 209 231 233 231 231 233 
233 231 233 220 220 220 220 218 220 221 219 221 173 222 221 220 222 223 224 223 
225 224 224 224 223 223 224 224 224 224 222 224 224 225 225 223 
224 224 223 223 224 223 224 223 225 225 224 226 224 228 227 228 
225 224 221 221 211 189 210 221 232 231 232 232 232 232 230 229 
231 230 230 230 230 230 231 230 231 229 232 231 230 231 231 231 
230 230 230 231 231 229 231 228 230 146 232 231 231 232 233 233 
231 232 233 220 220 220 220 220 220 221 220 220 205 200 224 223 222 222 223 224 
221 224 223 223 223 223 223 222 223 224 223 223 224 224 223 225 
224 224 225 224 224 223 225 223 226 227 229 229 212 178 150 145 
114 115 122 139 138 138 130 118 125 136 150 177 201 217 229 232 
229 230 228 229 230 233 229 230 231 230 230 229 231 230 230 230 
231 228 231 230 230 228 230 233 202 162 235 231 232 232 232 230 
231 232 232 221 218 220 220 219 220 220 220 220 223 170 222 221 222 223 222 221 
222 222 221 223 223 221 223 222 222 223 222 223 223 223 222 221 
222 221 222 224 223 226 228 229 227 199 149 129 136 162 188 212 
226 227 233 235 235 230 233 232 226 205 186 178 162 138 124 158 
215 227 229 230 228 228 228 230 229 230 227 231 230 232 228 231 
230 230 231 231 231 230 230 233 145 218 232 232 232 232 231 231 
231 232 233 220 221 219 219 220 218 219 221 220 222 183 213 223 221 222 223 222 
222 222 223 222 222 222 222 221 221 222 223 221 222 222 222 221 
221 220 224 224 227 225 199 165 143 163 210 232 228 230 230 230 
229 229 230 231 230 230 230 230 228 228 231 231 233 228 217 160 
108 181 228 230 229 229 229 230 231 230 230 230 230 231 230 230 
229 230 229 230 229 228 229 214 150 233 232 230 230 232 232 231 
231 234 233 219 218 218 220 219 219 221 220 219 222 212 170 223 222 222 222 222 
221 222 221 222 222 222 221 222 222 221 220 221 219 218 217 219 
220 223 224 220 172 127 147 195 231 229 229 229 226 227 226 227 
227 227 228 227 225 225 229 226 227 228 229 228 228 229 233 232 
204 131 136 187 230 233 229 230 229 228 228 230 229 231 231 229 
230 230 230 230 228 231 231 157 192 232 231 231 230 230 231 231 
232 232 232 218 218 218 219 219 219 221 219 219 219 220 180 210 222 221 221 221 
222 222 222 222 223 221 222 221 221 221 219 218 219 219 217 222 
226 222 178 133 182 226 230 230 229 228 224 222 221 224 226 221 
226 226 228 227 227 227 227 226 227 227 227 228 227 226 229 232 
233 232 197 145 141 216 230 229 229 228 229 230 229 231 229 229 
230 230 229 229 229 227 230 139 227 229 230 231 231 231 231 231 
232 231 230 218 218 218 218 218 218 219 218 215 221 216 208 170 221 220 221 222 
221 222 222 221 221 221 222 221 222 220 221 218 219 217 220 226 
200 123 182 223 226 227 227 226 226 224 223 222 222 222 223 221 
226 227 225 228 227 228 226 225 227 227 226 227 227 228 227 227 
227 230 234 229 187 104 198 233 228 227 230 230 230 229 229 229 
228 229 228 227 228 227 190 168 233 232 230 231 231 232 232 231 
230 231 231 218 217 217 219 217 217 218 217 218 219 220 210 165 202 220 219 222 
221 220 221 221 221 222 223 221 220 219 220 220 220 220 222 173 
144 216 222 224 224 221 222 222 223 223 223 221 222 221 221 224 
226 224 228 227 227 227 224 226 226 228 227 227 227 226 227 229 
230 229 228 231 232 212 124 199 234 230 231 229 228 229 228 227 
228 228 228 229 228 228 139 228 232 231 230 229 230 230 230 231 
230 231 231 217 216 215 217 218 217 218 218 219 218 217 219 190 147 223 220 219 
219 221 221 225 222 219 221 222 222 220 220 220 220 220 140 176 
221 222 222 222 221 223 224 224 222 225 223 225 223 220 221 223 
226 225 226 224 226 225 227 227 227 226 228 226 226 228 227 228 
227 228 229 228 227 230 214 108 190 230 228 229 228 228 228 227 
227 229 230 229 231 204 170 233 229 230 231 231 230 230 230 229 
230 231 232 217 218 217 217 218 217 218 219 217 219 215 216 219 167 163 227 218 
218 219 220 221 220 223 220 221 222 220 219 220 219 218 196 224 
223 223 223 224 223 224 224 223 223 222 224 223 223 222 223 224 
224 225 225 227 225 228 226 226 227 226 225 226 227 226 226 227 
228 226 228 229 224 229 233 197 109 228 229 229 228 228 229 229 
229 228 227 229 227 148 222 231 231 230 231 230 231 231 230 232 
230 231 233 217 216 216 216 217 215 215 216 216 215 216 219 216 218 145 204 223 
219 218 219 220 221 219 221 221 221 221 219 221 219 219 220 218 
223 222 223 222 225 225 223 225 223 224 223 224 225 223 223 224 
225 226 227 227 225 226 226 226 224 226 226 227 225 227 229 227 
229 226 226 228 228 226 228 233 200 228 228 228 229 229 230 228 
228 228 228 234 165 199 232 229 230 230 228 230 230 229 229 229 
230 230 230 214 216 216 217 216 216 214 217 216 216 217 216 216 218 210 145 224 
222 219 220 219 223 221 221 220 222 223 221 222 220 221 221 221 
225 223 223 223 223 223 226 221 224 225 224 223 225 223 224 223 
224 225 224 223 224 227 225 225 225 227 225 227 229 229 227 227 
228 229 229 228 227 228 231 230 230 228 229 227 228 227 229 227 
227 228 231 202 150 231 229 230 229 230 232 230 231 231 227 226 
227 228 230 215 215 216 215 214 216 214 215 214 216 214 213 214 215 220 186 145 
222 222 221 217 218 217 221 220 220 220 221 220 220 219 220 222 
222 220 223 224 224 223 224 229 225 223 224 223 223 223 225 226 
225 226 223 224 224 225 224 225 226 224 225 225 226 227 229 229 
227 227 228 228 228 228 230 229 229 229 228 229 230 230 229 228 
228 230 228 133 222 232 229 229 228 231 229 230 230 228 229 229 
228 229 230 215 216 215 215 214 213 215 216 217 216 215 214 215 215 214 220 172 
143 218 220 218 219 219 220 222 220 221 222 223 222 223 221 222 
221 222 224 223 222 223 223 224 223 222 225 225 225 226 223 225 
225 225 226 225 223 222 223 224 224 224 226 227 227 227 227 226 
228 227 226 227 229 229 227 228 227 228 228 227 227 229 225 226 
229 231 160 179 230 229 229 229 229 229 229 228 229 230 230 228 
229 229 229 214 214 213 215 215 215 215 213 214 215 215 214 217 216 214 217 218 
145 141 225 220 219 221 220 220 220 220 220 221 222 221 220 220 
220 222 222 221 223 224 223 224 224 224 224 223 224 223 225 223 
225 224 223 225 223 223 223 224 227 227 223 224 225 227 226 226 
227 228 227 228 225 226 229 226 228 226 226 228 227 228 228 229 
232 189 145 235 231 228 228 228 229 229 229 231 230 229 229 227 
229 229 232 214 214 215 215 214 215 215 214 214 214 215 215 215 214 217 214 214 
216 140 150 218 218 217 221 221 223 224 222 220 220 221 222 218 
223 221 222 222 221 221 223 223 223 224 223 224 223 224 224 224 
224 224 223 223 224 223 221 223 223 223 224 224 227 227 225 228 
226 225 225 226 229 226 227 227 226 228 226 228 228 226 228 233 
205 133 230 230 228 228 228 230 229 231 229 228 229 229 229 229 
229 232 231 214 214 213 213 214 212 213 212 215 213 214 214 215 215 213 212 213 
219 219 127 167 220 220 219 219 220 221 221 220 221 220 221 221 
220 219 222 222 222 220 221 223 222 223 225 223 223 224 222 224 
223 224 224 224 222 223 224 224 223 222 226 225 225 225 224 226 
223 228 226 226 227 227 225 226 226 227 227 228 228 226 233 188 
130 224 232 228 229 229 228 226 231 229 229 230 229 229 229 228 
228 228 229 214 213 213 214 214 213 214 213 212 212 212 214 212 213 212 212 213 
215 220 218 126 159 218 220 220 220 219 220 220 222 222 221 221 
223 219 221 219 220 222 220 222 220 222 223 223 222 221 223 222 
222 222 223 221 224 223 221 220 222 221 225 220 223 224 225 224 
226 222 227 224 224 227 227 225 225 225 226 226 231 233 216 147 
229 235 230 230 230 228 228 229 230 231 229 228 229 229 229 229 
229 226 229 213 214 214 213 213 214 213 211 212 211 212 213 212 214 215 214 214 
213 217 220 221 130 157 219 219 222 219 220 219 220 220 220 221 
222 220 220 220 222 224 221 221 219 220 223 223 222 224 222 223 
221 223 223 223 223 222 222 221 221 222 224 225 224 225 225 225 
223 225 223 225 227 224 225 226 226 226 227 232 223 179 138 219 
231 227 228 227 228 230 229 229 230 228 230 228 228 231 229 229 
228 227 229 215 215 213 213 212 213 213 214 212 212 212 213 212 215 213 213 214 
215 214 215 217 222 157 140 215 222 218 218 219 222 220 220 221 
220 220 220 219 220 221 220 222 223 219 219 224 223 221 223 222 
222 222 223 223 221 221 221 222 221 224 222 224 224 223 224 224 
223 223 224 225 223 225 225 226 227 231 211 159 118 179 228 232 
229 228 227 227 229 230 228 228 227 231 228 228 230 230 229 227 
226 227 228 213 214 214 214 213 214 211 212 212 211 212 213 213 213 214 213 214 
214 212 214 215 216 221 176 133 207 219 221 218 218 219 219 219 
220 221 220 219 220 220 220 221 218 219 220 221 223 221 226 223 
221 222 221 222 223 222 222 220 222 222 223 222 223 222 222 221 
223 223 221 222 222 223 226 226 228 191 109 173 212 233 229 229 
226 228 229 227 228 227 228 228 230 229 228 226 227 228 230 226 
225 225 228 212 212 214 216 215 209 212 212 211 209 212 211 210 210 212 213 214 
215 214 214 214 210 216 223 205 127 172 216 222 220 219 219 218 
218 218 218 218 220 220 222 220 218 219 221 222 221 223 221 222 
222 221 221 221 223 221 223 220 221 221 221 222 223 223 222 221 
220 221 219 219 221 225 229 225 163 103 188 225 232 228 226 227 
227 227 228 228 226 228 229 228 228 230 227 228 228 228 228 228 
226 226 228 214 213 214 213 214 213 212 212 212 210 211 212 212 211 214 212 211 
212 212 214 213 214 214 218 219 219 143 112 212 223 218 219 219 
217 216 215 214 219 220 219 220 219 219 219 219 222 221 222 220 
222 221 222 221 220 219 220 218 219 219 221 219 219 218 221 219 
219 220 221 221 225 221 194 124 148 211 230 227 227 226 226 226 
227 228 226 227 227 228 228 228 228 228 226 227 227 226 225 227 
227 226 228 212 214 211 215 214 213 212 212 211 211 210 210 211 214 214 213 212 
213 212 214 213 212 211 212 212 215 220 177 109 151 217 224 221 
217 218 217 216 218 218 219 219 219 218 218 219 219 220 221 221 
221 222 220 220 220 220 219 221 221 220 218 219 219 219 219 219 
220 223 227 225 199 163 140 198 226 226 224 225 224 224 226 227 
225 226 226 228 228 228 227 227 226 227 227 226 225 227 228 227 
226 226 227 213 213 214 215 214 215 213 209 212 212 210 208 213 211 212 210 215 
215 212 212 213 212 212 213 210 212 214 219 192 120 128 173 216 
225 218 219 219 221 220 220 218 219 218 219 220 222 221 219 219 
221 222 219 220 218 219 218 219 217 216 219 218 217 221 224 224 
225 223 203 169 133 174 206 222 225 221 223 223 224 224 225 225 
225 226 228 226 226 226 226 227 226 227 226 224 226 225 226 227 
226 226 227 213 212 213 213 212 213 213 212 209 207 212 211 211 212 213 211 212 
212 213 213 212 212 213 214 214 211 212 215 219 208 166 164 120 
162 202 216 221 223 222 220 220 218 217 220 220 218 220 219 218 
221 221 219 220 219 217 217 218 217 217 218 220 222 223 226 218 
194 155 138 157 214 223 223 222 222 222 222 224 224 226 224 223 
225 222 225 228 225 226 226 226 226 225 225 228 226 225 225 224 
225 226 227 213 210 212 211 214 214 211 212 210 209 209 213 211 212 212 212 212 
213 212 211 213 213 212 213 212 211 215 212 214 219 216 178 159 
154 113 98 148 215 222 224 223 221 222 219 219 220 218 219 219 
222 221 221 217 217 220 218 219 220 220 222 223 220 202 156 118 
123 148 197 218 222 222 223 220 220 220 223 220 223 222 223 222 
222 220 224 224 225 226 225 226 225 225 224 224 226 225 225 224 
223 223 226 212 213 214 212 214 213 212 212 212 212 212 209 210 212 212 212 212 
212 211 213 211 211 210 212 212 211 214 212 212 215 220 223 226 
223 222 197 136 108 102 139 170 203 217 223 221 221 222 220 221 
222 225 222 223 220 224 222 223 219 207 186 164 135 117 137 194 
217 224 221 219 219 219 219 219 221 222 222 223 224 223 222 223 
221 219 224 224 225 224 226 225 225 225 224 225 225 225 225 225 
221 227 227 212 212 212 211 212 214 211 212 209 210 209 211 213 212 211 213 211 
212 213 212 214 212 211 212 214 214 213 213 214 214 216 215 215 
216 218 222 225 225 207 181 159 138 154 156 136 164 173 189 188 
184 197 187 184 192 177 175 128 120 95 115 147 180 212 221 225 
225 221 219 219 219 218 218 220 219 220 221 221 221 222 221 221 
223 222 225 223 223 223 223 225 225 224 226 226 224 225 225 226 
222 224 225 212 212 212 212 211 209 209 212 212 211 211 211 210 210 212 211 212 
212 212 212 213 213 211 212 214 212 213 213 213 213 212 213 214 
212 212 213 214 216 219 220 221 221 218 204 196 173 175 150 143 
140 139 150 150 138 150 164 189 205 209 219 222 220 222 220 219 
220 218 218 219 219 221 221 220 220 221 221 222 222 221 222 222 
221 223 223 224 223 223 224 225 225 224 223 225 225 224 225 224 
224 225 225 211 213 211 213 212 213 212 210 211 211 210 210 209 212 212 212 213 
211 211 212 209 212 211 213 210 211 213 213 213 212 211 214 213 
212 213 213 213 213 213 215 215 215 216 217 218 220 217 218 221 
220 220 223 226 226 223 223 219 220 220 219 220 219 219 216 216 
218 219 219 218 220 220 219 219 218 220 223 222 222 221 222 223 
222 223 225 223 223 223 222 222 222 225 226 225 225 224 223 226 
226 226 224 211 212 215 209 212 212 212 211 211 211 211 209 209 210 210 212 212 
213 211 212 209 212 213 211 209 213 212 212 213 211 212 212 212 
214 213 211 214 214 214 213 213 215 213 214 213 214 215 215 214 
215 215 216 213 216 217 217 216 214 214 216 218 217 217 216 216 
218 218 218 217 218 217 219 216 217 219 219 221 220 219 222 223 
223 224 222 224 224 223 224 223 225 224 223 222 225 224 225 225 
225 223 223 211 211 212 212 211 211 210 210 211 211 211 209 212 210 212 212 209 
211 212 211 210 211 213 213 211 211 212 214 213 214 208 211 212 
214 212 213 212 213 212 214 212 213 211 215 214 214 213 211 212 
213 213 215 214 215 216 214 213 214 215 216 216 217 218 218 218 
218 217 218 219 217 218 219 218 217 219 221 222 219 220 222 221 
222 221 223 223 222 221 221 223 223 224 224 226 225 225 224 225 
224 225 226 212 208 208 210 212 213 211 212 210 211 211 208 210 209 211 211 212 
212 210 211 208 210 211 213 210 211 212 212 213 212 212 211 212 
212 211 212 212 213 211 211 211 213 213 213 212 214 212 213 211 
211 211 214 213 213 215 218 216 218 214 217 217 216 217 217 217 
217 218 218 216 215 216 217 217 216 220 220 221 219 220 221 221 
223 224 223 224 222 221 223 224 223 225 225 223 225 225 225 224 
223 224 225 213 211 211 213 211 211 212 211 212 211 212 211 213 211 212 211 213 
212 213 213 212 210 213 211 212 212 210 211 214 214 210 211 213 
212 212 212 213 214 214 212 213 212 212 212 213 213 213 210 214 
214 211 212 216 215 215 214 212 212 214 213 215 216 217 215 216 
215 218 218 218 215 217 219 218 218 218 217 220 219 220 221 221 
219 222 222 222 221 221 223 222 225 225 223 223 222 225 225 224 
227 223 224 211 211 212 211 212 210 213 212 211 211 211 210 209 210 211 209 212 
212 212 212 212 212 212 212 212 211 209 212 212 212 214 212 212 
214 215 212 213 212 213 211 213 212 213 215 214 212 212 211 212 
212 214 214 212 213 215 215 213 213 216 215 215 214 218 217 215 
218 217 216 219 219 218 219 217 217 218 218 219 219 219 218 220 
220 222 223 222 221 220 222 222 222 223 225 226 225 224 225 223 
223 223 223 