P2
# Created by IrfanView
100 100
255
246 246 247 247 247 246 246 246 247 246 246 247 247 247 247 247 246 
246 246 245 245 246 245 246 247 247 245 245 245 245 245 245 246 
246 246 247 248 247 247 247 246 247 247 247 244 246 245 247 247 
247 248 248 246 246 248 246 247 248 248 247 246 246 245 245 245 
246 247 247 246 245 246 245 246 245 244 247 246 245 247 246 246 
246 243 243 247 245 245 245 245 246 245 246 244 242 241 242 243 
243 243 242 247 246 246 246 246 247 248 247 247 246 246 246 246 247 245 247 248 
247 246 246 245 245 246 246 246 247 245 245 246 246 246 246 245 
245 246 246 246 247 246 245 247 246 249 247 245 247 246 247 247 
248 248 248 246 246 246 247 247 246 248 247 245 245 246 244 246 
245 246 247 247 245 246 245 245 244 246 245 245 246 246 245 244 
246 244 245 247 246 244 245 244 246 246 246 243 244 245 243 245 
244 242 242 247 246 247 246 247 247 247 248 246 246 247 247 248 248 247 246 247 
249 248 246 248 247 245 245 245 245 244 244 245 245 247 247 247 
245 245 246 246 247 247 245 246 246 244 246 246 247 246 247 247 
248 248 246 245 246 246 247 248 246 246 245 244 245 246 245 245 
246 247 249 248 245 247 245 245 244 246 246 246 245 246 245 245 
244 244 247 247 246 245 246 244 248 248 246 245 244 247 246 245 
244 244 244 248 248 249 248 247 247 249 247 245 246 247 247 247 247 248 248 247 
248 248 246 248 247 248 247 245 245 246 245 245 245 246 245 244 
244 244 245 246 246 246 244 246 246 246 247 246 246 247 249 250 
248 248 246 247 247 249 248 246 244 245 245 246 245 245 245 245 
246 247 249 249 247 247 247 247 245 246 246 245 245 245 244 244 
245 246 246 246 246 247 248 248 247 246 248 246 245 245 247 249 
245 245 245 247 247 247 247 248 247 248 247 247 247 247 247 248 248 249 247 248 
249 248 246 249 248 247 247 246 246 245 245 245 245 246 244 247 
245 246 245 246 246 246 246 247 247 247 246 247 246 246 237 241 
247 244 246 246 245 244 244 247 249 249 248 247 245 245 245 245 
246 247 248 248 248 246 247 247 246 246 246 245 245 246 246 245 
245 246 244 244 245 244 246 247 247 247 247 247 245 245 245 245 
246 245 246 247 247 246 247 248 247 247 248 246 247 248 245 246 245 246 247 247 
248 248 248 248 249 248 247 246 246 246 245 244 245 248 247 249 
245 245 246 248 247 248 247 242 237 231 222 217 220 223 221 224 
225 218 218 220 216 219 216 227 232 237 240 242 245 244 246 246 
245 245 247 248 248 246 247 248 246 246 246 245 246 245 246 244 
244 245 246 246 246 246 246 247 248 247 246 246 248 246 246 246 
246 246 247 248 248 248 247 247 247 247 249 248 247 247 247 248 247 247 247 248 
247 248 248 249 248 249 248 247 246 247 245 244 244 247 247 249 
246 247 246 237 231 224 214 215 224 228 243 248 246 247 250 249 
250 250 249 248 246 243 240 234 220 220 218 208 221 226 241 246 
248 245 247 248 246 247 245 245 245 246 247 246 246 245 245 246 
246 246 246 245 247 246 246 247 248 247 247 247 247 247 246 246 
246 245 247 248 247 248 248 248 247 248 249 246 248 247 247 247 248 247 246 247 
248 247 246 250 249 248 248 246 247 246 246 245 246 247 248 244 
237 225 221 215 232 238 245 251 251 251 249 248 247 247 247 246 
248 249 249 248 248 250 249 250 249 244 244 232 223 223 224 225 
238 245 249 249 247 246 245 249 248 243 246 246 247 246 245 245 
244 245 244 245 246 245 245 246 247 247 247 248 249 246 247 246 
246 246 246 247 248 248 247 248 248 248 248 247 248 248 247 248 248 247 249 247 
247 247 245 248 249 248 248 247 245 246 246 246 246 243 231 221 
226 231 246 248 250 249 249 248 247 249 247 246 247 247 248 248 
247 247 248 246 246 246 246 247 247 248 248 248 247 249 243 231 
226 221 220 236 246 247 247 247 246 246 247 247 246 246 246 246 
245 245 245 246 246 246 247 245 246 245 247 246 248 247 246 247 
245 244 247 246 246 249 247 248 248 248 247 247 248 248 247 248 247 247 247 247 
247 247 249 250 249 249 247 245 244 246 247 240 230 213 217 237 
248 249 249 249 247 247 246 247 248 250 249 247 245 248 250 248 
248 248 249 247 248 247 248 248 245 245 246 245 245 244 246 249 
249 244 235 223 229 237 247 248 248 246 246 246 247 245 246 245 
246 246 245 245 248 245 245 246 246 244 246 248 248 246 246 245 
247 245 247 248 247 247 248 247 246 249 248 247 247 247 247 247 247 248 247 248 
247 248 248 249 248 249 247 246 246 239 212 207 219 240 249 248 
249 247 247 247 246 248 247 247 248 248 249 248 248 248 248 249 
250 250 250 249 249 249 248 249 247 247 246 246 242 244 245 245 
245 246 248 244 223 205 213 234 246 246 249 246 247 246 245 245 
246 246 246 247 246 246 244 246 246 247 246 248 246 245 245 245 
246 245 247 247 247 247 247 247 247 248 247 247 247 247 247 247 247 248 247 248 
248 248 248 247 247 248 249 244 217 203 222 242 250 248 249 246 
246 246 248 249 248 247 249 247 247 249 249 248 248 248 249 248 
249 249 249 248 249 250 249 249 248 246 246 246 244 244 246 246 
247 245 245 247 248 247 223 208 220 244 249 248 248 246 246 245 
246 245 245 244 245 245 246 246 246 245 247 247 246 247 247 245 
246 245 247 247 247 247 248 249 250 247 247 248 247 248 247 247 247 247 247 246 
248 248 247 247 248 249 239 215 210 235 247 249 248 247 247 246 
246 248 247 249 249 248 249 248 249 248 248 247 249 249 249 250 
250 251 250 250 251 250 249 248 246 246 246 246 244 244 246 246 
245 245 247 244 247 246 249 236 218 218 235 248 248 246 245 245 
246 246 244 246 245 244 245 245 245 245 246 247 246 247 246 244 
246 245 246 246 246 247 247 247 248 247 247 247 247 248 248 247 246 247 249 247 
249 248 248 247 249 233 217 239 249 248 248 246 247 247 248 247 
247 248 247 248 248 249 249 249 248 250 248 248 248 249 249 250 
250 250 250 250 249 249 249 248 246 245 247 247 246 244 245 245 
246 246 249 248 245 246 246 248 248 233 202 212 244 247 246 245 
245 246 245 245 245 245 245 245 244 246 246 245 247 245 248 247 
245 245 245 248 246 248 248 247 248 247 247 248 248 247 247 246 248 247 248 248 
249 248 249 249 222 221 242 247 248 247 245 246 247 248 248 249 
249 248 249 248 247 248 250 249 249 248 249 248 249 250 249 250 
250 250 250 249 250 251 249 251 248 248 248 246 245 246 245 245 
246 246 245 246 245 244 246 246 247 249 241 205 209 241 246 245 
245 245 243 244 245 245 246 246 246 245 246 246 246 246 247 245 
245 245 246 247 247 246 247 248 247 247 246 248 248 248 247 248 247 247 249 249 
249 252 244 223 234 250 250 247 247 246 247 247 247 246 247 248 
248 247 249 249 248 249 250 248 249 249 250 249 250 250 250 250 
249 249 250 251 250 251 250 250 249 248 247 245 247 246 246 246 
246 245 245 247 247 246 245 246 245 246 249 242 216 210 234 246 
247 245 244 247 246 246 246 246 246 247 245 245 245 245 245 245 
244 245 245 246 247 247 246 248 247 247 247 247 247 247 247 247 248 249 249 248 
251 239 219 242 252 248 249 248 248 248 246 248 248 247 247 248 
248 248 247 249 249 248 250 249 249 249 249 249 248 250 250 250 
249 250 251 251 250 251 250 251 250 249 249 246 247 248 246 245 
246 245 246 246 246 246 246 248 247 246 244 248 245 222 200 216 
244 246 245 245 246 246 247 247 247 248 246 247 246 245 245 244 
246 246 246 247 246 248 248 246 246 245 247 248 247 247 247 248 249 249 249 249 
233 211 246 250 249 248 248 249 247 247 249 247 247 248 247 249 
249 248 248 249 249 248 249 249 248 249 249 247 250 250 249 249 
250 251 253 252 251 251 251 250 251 250 247 247 249 247 246 245 
246 246 245 247 245 247 245 245 247 245 245 245 247 248 224 199 
213 244 246 245 246 246 246 247 247 246 246 245 245 244 243 246 
245 248 247 246 246 247 246 245 246 247 245 247 247 247 247 249 250 252 249 241 
226 248 251 249 250 248 249 249 247 247 248 247 248 249 248 248 
248 248 249 249 249 251 249 249 249 249 250 250 249 249 250 250 
249 249 252 250 249 250 249 251 249 250 248 249 248 245 245 246 
246 247 245 246 246 245 246 246 247 248 243 246 246 247 248 237 
203 222 245 246 245 246 246 245 247 248 248 246 244 244 245 244 
246 247 245 245 246 246 246 246 246 246 247 246 246 246 248 247 249 227 205 224 
247 249 250 250 250 249 248 248 249 248 248 247 249 248 248 248 
248 247 249 249 249 248 250 249 249 249 249 249 250 250 251 250 
251 251 252 250 250 250 250 250 249 249 247 247 248 248 247 246 
246 247 245 247 245 246 246 246 246 248 248 246 246 244 247 247 
238 203 230 245 247 246 246 246 247 246 247 247 244 245 246 246 
245 246 247 248 248 247 246 246 246 245 246 246 246 246 246 249 241 200 228 249 
249 248 250 249 249 247 248 250 249 248 246 247 247 247 248 248 
248 249 249 249 249 249 249 249 249 249 249 250 250 249 249 250 
250 250 250 250 250 250 251 251 251 249 249 248 247 247 247 246 
246 245 247 249 246 247 246 248 246 247 247 246 245 245 244 244 
243 232 209 220 247 247 247 244 247 248 247 246 245 245 245 244 
245 246 245 247 247 247 247 246 246 246 246 245 246 247 247 248 200 203 247 250 
249 249 251 249 250 249 247 249 247 247 248 250 251 249 249 250 
250 250 250 250 250 249 250 249 250 250 250 250 250 250 251 250 
250 250 250 250 250 250 249 250 250 249 249 249 249 249 248 247 
246 247 247 247 247 247 247 248 247 248 246 245 247 247 245 243 
244 245 233 213 231 248 247 246 247 248 248 247 245 246 246 246 
245 247 246 245 246 247 246 246 246 247 247 247 246 245 248 224 180 234 251 248 
249 248 250 250 250 249 248 248 249 248 252 248 239 240 231 235 
235 243 251 250 250 249 250 249 249 250 248 249 250 250 250 250 
250 251 251 250 250 250 249 251 251 250 249 250 251 246 248 248 
246 246 247 247 247 247 247 247 247 248 246 247 247 249 246 245 
243 242 243 230 210 239 249 247 248 249 248 247 246 246 246 247 
246 246 246 247 247 247 246 247 246 246 244 247 246 246 238 182 210 251 249 249 
249 249 247 250 250 250 249 249 250 249 225 195 187 189 185 181 
178 177 207 242 250 249 249 249 249 249 249 249 249 251 250 251 
250 250 251 250 250 250 250 250 251 251 251 250 248 245 226 244 
250 247 249 249 249 248 248 248 247 249 248 247 246 230 224 245 
243 244 244 245 218 216 244 248 247 248 249 249 246 246 245 246 
246 245 246 247 247 247 246 245 245 247 244 246 247 248 217 217 241 248 249 249 
249 249 249 250 250 250 248 245 223 195 189 210 233 238 249 236 
213 204 189 183 237 251 250 250 250 250 250 251 250 250 249 251 
250 250 251 251 251 251 250 251 250 251 251 250 249 249 235 215 
230 238 245 239 245 247 248 249 247 246 245 234 206 168 174 246 
244 245 245 247 244 219 227 248 247 247 248 247 247 248 246 245 
246 246 246 246 245 247 248 247 246 246 246 244 248 227 221 247 249 246 247 249 
249 249 249 249 249 249 248 216 187 229 249 251 251 251 251 251 
251 249 236 216 207 248 250 249 250 250 250 250 251 250 252 251 
250 252 250 251 252 250 249 250 249 249 250 250 250 247 250 246 
233 218 211 208 206 218 218 215 222 200 192 184 164 168 220 246 
247 245 246 246 247 235 211 239 248 247 248 246 248 247 247 246 
245 246 247 247 247 247 248 244 246 246 244 244 247 210 247 249 248 249 249 247 
248 249 249 249 250 250 243 191 234 251 250 248 251 249 248 248 
247 249 250 251 249 249 249 249 248 249 249 249 250 251 251 252 
251 251 251 251 251 252 250 250 249 250 251 250 250 250 251 252 
249 244 240 222 212 202 193 199 190 178 175 185 197 233 247 245 
247 246 246 246 247 244 219 207 243 247 246 246 248 247 246 247 
247 245 247 247 247 247 248 247 246 245 245 247 228 225 248 248 249 249 248 249 
249 248 248 248 249 249 212 221 251 248 248 249 250 251 249 247 
247 248 248 251 250 247 249 250 250 249 249 249 251 251 250 250 
251 251 251 251 251 252 252 251 250 250 251 251 250 249 250 252 
251 250 252 251 246 237 231 215 214 220 234 245 252 250 247 245 
246 247 247 247 247 245 238 200 226 246 244 245 246 246 246 247 
246 246 247 248 246 246 247 246 246 245 244 248 206 248 248 247 247 247 248 248 
249 248 248 250 250 249 228 248 250 247 248 249 247 242 244 249 
249 249 249 249 250 250 250 250 250 250 249 248 250 251 252 252 
251 251 251 252 252 252 251 248 250 250 251 251 250 251 250 253 
251 251 250 250 249 251 250 249 251 251 250 251 249 247 246 246 
247 247 246 247 247 247 248 230 196 236 245 244 246 244 246 246 
246 246 247 246 247 247 245 246 246 244 246 224 222 249 248 249 249 249 249 250 
247 248 248 248 250 248 252 251 250 249 249 247 217 184 205 245 
249 248 249 249 250 249 250 249 249 250 249 250 250 251 251 252 
251 252 252 251 252 251 253 251 249 250 251 251 250 251 251 252 
253 252 250 250 250 251 251 250 249 248 247 248 247 247 246 246 
246 247 245 247 248 246 247 247 215 212 246 247 246 245 245 246 
247 247 246 246 246 247 248 246 246 247 247 207 247 249 248 248 248 248 248 248 
247 247 248 248 249 249 250 249 249 249 247 220 178 196 191 219 
249 249 250 249 248 249 249 248 249 249 250 249 250 251 248 250 
251 251 251 252 253 252 252 252 252 251 251 251 251 252 251 251 
253 252 251 250 243 246 242 246 249 247 247 247 248 246 247 247 
246 247 246 247 245 246 246 249 246 202 240 245 244 245 246 245 
246 247 248 247 246 247 248 245 246 246 239 223 247 249 248 247 248 248 247 248 
250 247 248 248 247 249 248 249 249 249 197 177 177 187 210 210 
243 247 247 249 249 249 250 250 249 249 250 250 251 250 251 250 
251 251 252 252 252 252 252 252 252 251 250 252 252 252 251 251 
254 252 253 249 224 204 207 204 232 248 247 245 247 247 246 246 
246 246 246 245 248 246 247 247 245 219 222 245 246 246 245 244 
247 247 246 248 247 247 247 246 247 249 227 241 247 246 247 247 247 248 248 248 
246 248 249 247 247 248 248 249 251 234 187 178 181 178 180 201 
224 243 250 249 249 250 249 248 248 248 249 249 249 250 251 252 
252 251 252 251 251 252 252 252 251 251 251 252 251 252 251 251 
253 243 227 222 191 189 194 199 222 245 247 247 246 248 247 246 
247 246 246 246 247 247 246 247 247 239 198 246 246 246 245 244 
245 247 248 247 247 247 247 246 245 246 218 249 248 247 248 248 248 248 248 247 
247 247 247 247 249 248 248 248 245 177 189 185 182 173 184 192 
205 238 247 250 249 249 249 249 249 249 249 249 250 250 251 252 
254 251 252 251 251 251 251 251 252 251 252 251 251 252 253 253 
238 219 212 195 197 195 208 215 220 243 248 246 247 247 247 247 
246 246 245 246 248 247 248 246 248 250 208 232 248 247 247 245 
248 248 248 247 248 247 248 247 245 235 230 249 247 247 248 250 248 248 246 248 
247 248 247 248 248 248 246 250 242 205 191 176 181 179 190 196 
212 244 250 250 249 249 250 248 250 250 249 249 248 250 251 251 
253 252 251 252 252 253 252 252 251 252 251 253 253 252 252 253 
240 201 211 191 197 192 212 224 224 238 247 248 248 247 248 247 
246 246 246 247 247 247 246 248 247 248 214 215 244 246 245 247 
247 248 248 246 245 247 247 246 248 220 244 246 248 249 248 248 248 248 248 247 
248 247 247 247 247 249 249 248 212 187 184 179 190 203 183 201 
224 249 249 249 249 250 249 250 250 249 249 249 250 252 252 252 
251 252 250 252 252 253 251 252 251 251 250 251 251 251 251 251 
243 219 205 192 203 211 221 222 221 236 249 248 247 246 246 247 
247 246 248 247 248 247 248 248 248 247 243 187 243 246 248 247 
248 247 247 247 246 247 246 246 248 207 248 247 247 248 247 248 247 249 248 247 
247 249 247 247 248 248 249 237 184 177 178 185 222 194 183 200 
223 249 249 249 251 250 250 250 250 249 249 249 249 250 252 251 
252 252 251 252 251 250 251 252 252 252 251 252 253 253 252 251 
232 211 202 206 192 216 226 222 220 237 249 250 248 246 247 247 
246 246 247 247 247 247 246 248 247 246 243 183 227 248 247 246 
247 248 247 246 247 248 247 246 238 218 246 246 247 248 248 247 246 249 248 247 
247 247 248 247 247 248 248 221 185 174 187 179 223 183 191 197 
226 252 249 250 250 250 250 249 249 249 249 249 248 250 251 252 
253 253 252 251 250 252 252 251 252 251 251 252 252 253 251 253 
218 196 196 192 200 231 215 217 223 238 249 251 248 246 246 246 
244 247 247 247 246 247 247 247 247 245 248 217 195 241 246 246 
248 247 248 245 246 246 247 247 230 234 246 246 246 247 247 247 248 248 248 250 
251 247 248 247 248 249 247 225 172 180 176 181 184 167 183 199 
246 249 249 248 251 250 251 249 249 250 249 250 250 251 251 252 
252 252 251 251 251 251 252 251 251 251 252 252 252 251 251 249 
216 212 193 190 200 218 214 218 223 250 251 250 249 247 248 247 
247 247 247 248 245 246 248 246 247 247 248 249 202 237 249 246 
246 247 248 246 246 245 246 247 221 241 245 246 247 247 247 248 248 249 250 247 
246 247 247 248 248 249 247 231 170 173 186 183 176 171 174 223 
250 249 249 250 249 250 249 249 249 250 250 251 249 251 251 250 
252 252 251 252 251 252 251 251 251 250 251 251 250 251 251 252 
226 201 188 191 197 208 210 217 227 251 251 250 249 251 249 248 
247 247 249 247 246 247 248 247 246 248 248 247 221 225 249 247 
247 247 246 248 245 246 246 247 217 245 246 247 248 247 247 246 247 248 247 248 
247 248 248 247 248 249 248 209 188 171 171 169 160 161 191 248 
248 249 249 249 248 249 250 249 250 250 249 250 249 250 251 252 
251 251 251 251 251 252 252 252 250 250 252 252 252 251 251 251 
236 202 195 195 207 214 211 224 247 252 250 250 250 249 248 248 
247 248 248 249 246 247 248 247 247 248 247 247 241 213 247 247 
247 250 245 246 246 246 245 247 217 250 245 247 247 246 249 247 246 248 249 247 
246 249 247 247 248 248 249 209 213 196 170 168 167 210 236 249 
250 250 248 249 249 249 251 249 250 250 249 249 249 250 250 251 
251 251 251 250 251 252 252 252 251 251 253 253 250 250 250 251 
252 231 209 209 219 219 223 234 253 252 252 249 251 249 249 249 
248 247 246 247 247 245 248 247 247 246 247 246 243 196 249 248 
247 247 248 247 246 247 247 243 220 248 246 246 247 247 248 247 250 248 247 247 
247 249 248 248 248 247 248 218 194 221 189 180 205 243 250 249 
249 249 250 249 249 249 248 249 249 249 250 250 251 250 250 251 
251 251 251 251 251 252 251 253 251 252 253 253 250 251 252 252 
253 249 234 216 217 218 224 250 253 252 253 251 251 251 250 248 
247 247 248 247 247 247 248 249 248 249 248 246 245 200 235 248 
248 247 246 245 246 247 247 237 232 248 248 248 249 248 249 248 247 247 247 248 
248 248 248 249 247 246 247 238 227 236 243 234 250 249 249 248 
248 249 250 250 249 249 249 250 249 249 249 250 250 250 251 251 
250 250 252 251 251 251 251 251 252 252 253 252 251 251 252 252 
251 253 254 230 221 243 253 253 253 252 252 252 251 251 250 250 
251 249 250 249 247 247 248 246 248 248 248 247 245 217 223 247 
248 248 247 247 247 246 245 234 235 248 247 247 247 248 248 248 248 248 248 248 
247 247 248 248 248 247 248 249 249 250 250 251 250 248 247 248 
249 248 249 250 249 249 250 249 249 248 249 249 250 249 250 251 
250 251 250 251 252 252 251 251 252 250 253 251 250 251 252 251 
251 251 253 249 246 253 254 253 254 253 253 253 250 251 250 251 
251 249 249 249 248 248 248 248 249 248 249 248 244 217 214 250 
248 247 248 247 247 245 248 224 236 247 247 247 248 247 248 248 250 250 248 247 
247 248 248 248 248 247 247 249 248 249 246 248 247 247 248 248 
249 249 250 248 249 249 249 249 249 249 250 249 249 249 250 251 
251 250 250 250 250 252 252 252 252 250 253 252 252 251 251 251 
252 253 254 253 255 254 254 253 254 254 254 254 251 253 251 249 
249 249 249 247 247 247 249 248 249 248 248 249 246 221 217 249 
246 248 248 246 247 247 249 226 241 248 248 248 246 248 249 250 249 249 247 248 
248 247 248 247 249 248 248 247 247 250 248 248 247 250 248 246 
248 248 249 249 249 250 250 249 249 249 249 250 249 250 250 250 
249 251 250 251 251 251 251 251 252 251 252 252 251 252 252 252 
252 252 252 253 254 254 254 254 253 253 253 253 253 252 252 251 
250 251 250 249 250 249 248 248 248 249 250 249 246 235 208 251 
248 248 249 245 246 245 246 225 243 248 247 248 248 247 248 248 250 249 248 248 
248 247 248 249 249 248 249 247 248 248 247 248 249 248 248 248 
249 249 250 251 250 249 250 250 249 250 249 250 250 250 250 251 
250 251 250 251 251 251 251 251 250 251 251 251 251 252 253 252 
252 253 253 252 252 253 253 252 252 253 252 254 254 252 253 253 
252 252 249 247 249 247 248 249 249 248 247 248 247 231 203 250 
246 248 250 246 244 245 247 220 246 248 247 248 248 249 248 248 248 249 247 249 
248 248 248 249 248 247 248 248 248 248 249 249 248 247 247 248 
248 249 248 250 249 250 249 249 249 250 250 250 250 250 249 250 
250 250 251 250 250 251 251 250 251 251 252 251 251 251 252 252 
252 252 252 252 253 252 252 252 253 253 252 252 252 252 252 251 
251 252 253 251 250 248 249 249 250 248 248 246 245 236 210 250 
249 249 249 245 245 245 246 226 242 248 248 249 249 248 248 247 248 249 249 247 
249 248 248 248 249 248 248 248 248 247 248 248 248 247 248 248 
249 249 249 250 250 250 252 250 250 250 249 250 250 250 250 251 
251 250 251 250 250 250 250 250 251 250 250 251 252 250 250 252 
251 251 251 252 253 253 252 252 251 252 252 254 252 252 252 250 
251 252 251 251 250 248 248 249 249 248 248 247 247 238 218 250 
250 249 250 246 245 244 248 219 243 247 248 248 248 248 249 249 250 248 248 248 
248 248 248 248 248 248 248 248 248 249 248 247 248 249 246 249 
249 249 249 250 249 250 249 250 251 250 250 250 251 250 250 251 
251 251 250 251 250 250 250 251 250 251 252 251 249 251 251 251 
250 252 252 252 252 253 252 251 252 250 253 253 252 251 252 252 
252 252 252 252 251 249 247 247 250 250 248 246 248 233 214 249 
249 251 250 245 243 245 246 217 242 248 248 248 248 248 247 248 249 248 249 248 
248 249 249 247 250 249 248 248 248 249 250 248 249 249 247 249 
248 248 249 251 249 249 250 250 250 250 250 250 250 250 249 250 
251 251 250 249 251 251 251 251 251 252 251 252 250 251 251 250 
251 252 250 251 252 252 252 252 253 251 252 251 252 252 252 252 
253 250 252 252 252 250 251 248 250 250 250 248 248 224 215 248 
249 249 249 244 244 245 247 219 239 248 247 247 248 248 249 248 248 248 246 248 
248 247 248 248 247 249 249 247 249 249 248 248 248 248 249 249 
248 249 249 249 250 249 250 250 250 251 250 250 251 251 251 251 
250 250 251 251 251 250 250 250 251 251 249 250 249 250 249 250 
249 250 251 251 252 251 251 251 250 252 253 253 252 252 252 250 
252 252 252 252 252 251 251 250 251 252 250 249 247 226 219 249 
249 249 250 245 244 244 248 230 237 248 246 246 248 249 249 249 249 248 247 250 
249 249 248 248 248 248 248 249 246 247 248 249 248 248 250 248 
249 249 249 249 249 249 249 251 249 249 249 248 250 251 250 251 
250 252 251 250 250 250 251 249 251 251 250 250 250 250 250 250 
250 251 249 250 250 251 251 251 251 253 251 251 252 251 251 252 
252 251 252 254 252 251 250 251 252 249 251 249 247 215 215 249 
248 249 250 247 245 244 243 231 234 248 247 246 247 248 248 248 248 249 248 249 
249 248 248 248 248 248 248 248 249 249 249 248 249 247 249 249 
249 249 249 249 250 250 249 249 248 250 249 248 249 250 250 250 
251 250 251 251 252 250 251 251 251 251 251 251 250 249 249 251 
250 250 250 250 252 251 249 250 250 251 251 252 251 250 250 251 
251 251 252 253 252 252 250 249 250 252 251 250 249 216 222 249 
248 248 249 245 244 245 245 240 231 247 246 246 247 246 247 249 249 250 247 248 
247 247 249 248 248 248 248 247 248 248 249 248 248 249 248 247 
249 249 250 249 249 249 249 249 250 248 249 244 247 250 250 251 
250 251 251 251 251 250 250 251 251 250 251 251 250 250 250 251 
251 250 250 250 250 251 250 251 251 249 251 251 251 251 250 250 
250 251 252 254 252 252 251 250 251 251 251 249 246 199 234 250 
250 249 250 246 244 244 243 243 220 247 247 246 248 247 249 248 248 248 248 248 
249 248 248 248 248 248 248 249 249 249 248 248 249 249 249 249 
248 248 250 249 250 249 247 249 249 249 249 248 249 250 249 249 
252 250 250 250 250 250 249 251 250 250 249 250 251 250 251 250 
251 250 251 250 250 250 250 249 249 250 250 250 250 250 250 251 
249 250 251 254 254 252 252 250 251 250 251 248 241 175 245 248 
248 247 249 245 245 244 244 246 227 246 247 248 248 248 248 248 248 248 248 248 
248 248 248 249 248 247 248 249 249 248 247 249 249 249 247 248 
248 248 249 248 250 249 247 249 249 248 248 247 248 249 251 249 
250 250 250 251 250 250 251 251 251 251 250 250 249 251 249 249 
250 250 249 250 250 250 251 251 250 249 250 250 249 250 250 252 
251 250 249 250 252 250 251 252 250 250 249 249 239 183 250 249 
248 248 248 244 245 245 244 246 215 247 248 248 247 248 248 248 248 248 248 248 
247 248 248 246 248 247 249 248 248 248 248 248 248 248 248 247 
249 249 247 248 248 250 249 248 249 249 248 247 248 249 251 250 
250 251 250 250 250 250 250 251 250 250 250 251 251 250 249 249 
250 250 250 250 250 250 250 250 250 250 248 250 250 249 250 249 
249 250 250 250 249 249 250 250 248 249 248 247 225 179 249 248 
248 247 249 244 244 245 243 247 229 240 247 248 248 249 249 249 247 249 247 248 
247 248 248 248 248 248 248 249 248 248 250 248 248 247 249 249 
248 249 249 248 248 248 248 249 248 249 248 249 248 249 249 249 
250 250 250 250 249 250 250 251 249 249 249 248 250 249 250 249 
249 249 250 250 250 248 250 250 249 249 249 249 249 250 250 248 
247 249 250 249 250 250 250 250 248 248 248 248 205 202 250 249 
248 248 248 244 244 246 245 245 241 232 246 247 248 249 247 248 248 248 247 247 
248 248 248 248 249 248 248 247 249 248 248 248 248 248 248 248 
248 248 246 248 250 249 248 248 248 247 247 247 247 248 248 249 
250 251 250 251 249 250 250 250 250 250 250 250 250 249 248 249 
250 249 249 250 249 249 249 249 249 250 249 249 249 250 250 249 
250 248 249 249 249 250 250 250 250 249 248 245 167 228 250 248 
248 249 248 246 248 248 246 246 246 220 247 247 247 246 248 249 248 248 249 248 
248 247 248 248 247 248 247 249 248 247 248 248 248 248 248 248 
248 248 249 247 246 248 248 249 247 248 248 248 248 249 249 248 
249 250 249 250 250 251 249 249 250 250 249 249 250 249 252 250 
249 249 249 251 249 249 249 249 249 248 248 249 248 249 249 249 
248 249 248 249 249 249 250 250 250 249 248 240 164 244 249 248 
248 246 249 244 245 247 246 245 247 228 247 247 248 247 249 248 248 248 246 249 
248 248 248 247 248 248 247 247 247 248 248 248 247 248 248 248 
248 248 248 249 248 247 248 248 248 248 248 249 249 250 249 248 
248 250 249 249 249 249 250 249 249 250 250 251 248 248 250 250 
250 250 249 249 249 249 249 247 248 249 247 247 248 249 248 248 
248 248 248 248 249 249 252 251 250 248 249 220 184 251 250 248 
248 248 248 247 245 245 246 245 245 231 234 247 248 249 248 249 249 249 249 249 
248 248 248 247 247 248 249 249 247 249 249 248 248 248 248 248 
249 247 247 248 248 248 247 249 246 248 248 247 248 249 249 248 
251 249 249 249 249 249 250 249 249 250 249 248 249 249 248 250 
249 249 249 249 248 248 247 247 249 248 249 249 248 248 248 247 
247 247 247 247 247 247 249 250 249 248 250 187 215 250 250 248 
248 248 249 246 246 245 244 246 246 246 224 247 248 248 248 248 248 248 248 248 
248 247 248 248 248 248 248 247 247 247 247 249 248 248 247 249 
247 249 249 248 248 248 248 247 247 248 248 247 249 247 249 248 
248 249 248 249 250 249 249 250 248 249 249 249 249 250 248 249 
250 250 249 249 248 248 248 248 248 248 248 248 249 247 247 248 
248 246 245 247 247 248 248 250 250 250 247 168 244 248 249 247 
248 250 250 246 246 246 246 247 245 246 231 244 247 247 248 248 248 247 248 248 
247 248 248 248 248 246 247 247 247 247 247 247 248 249 248 248 
248 247 248 251 248 248 247 246 247 247 248 248 248 247 248 249 
249 250 248 248 248 248 248 248 249 249 249 249 248 248 250 248 
249 249 250 247 248 248 247 248 248 247 249 249 248 249 248 247 
248 247 247 248 246 246 246 244 249 250 217 198 251 249 250 249 
248 248 250 246 246 243 245 246 246 244 241 226 248 248 248 249 249 248 248 248 
248 249 248 248 247 247 247 248 248 246 247 247 248 247 246 248 
248 248 248 248 247 247 247 246 247 247 247 245 248 249 250 249 
248 250 250 248 248 249 248 249 248 249 248 248 248 248 247 248 
249 249 249 249 248 248 248 248 248 249 248 248 248 249 248 248 
248 247 247 246 245 246 244 244 243 246 166 226 249 248 248 249 
248 249 249 245 247 246 247 246 246 245 246 222 247 248 248 248 247 248 247 248 
249 250 249 246 248 248 248 247 247 247 247 248 248 247 247 247 
247 247 248 246 246 247 249 244 246 247 247 250 249 248 235 231 
241 239 249 250 247 248 248 249 249 250 248 248 248 247 248 248 
248 248 249 247 248 247 248 246 248 246 246 249 248 248 247 247 
249 249 244 246 247 246 244 242 242 218 153 248 245 247 248 247 
247 247 247 246 244 246 244 245 245 246 246 230 230 247 248 248 249 249 249 248 
249 249 248 249 247 248 247 246 247 247 247 247 246 247 247 246 
246 246 246 247 247 247 245 246 243 246 247 245 215 187 161 159 
178 180 226 247 247 247 250 249 248 248 248 248 249 247 248 247 
247 247 247 247 248 248 248 247 247 248 247 245 248 247 247 246 
247 246 245 245 246 246 245 243 243 154 197 244 244 245 246 246 
247 246 247 246 244 245 244 244 244 245 247 248 223 246 247 248 248 248 247 248 
248 248 248 249 248 247 247 247 248 248 248 248 247 247 248 249 
246 248 246 245 247 247 246 246 246 246 247 180 148 183 233 242 
249 243 206 213 247 247 248 248 248 248 248 247 248 247 247 245 
248 246 248 248 247 247 247 249 248 248 248 248 249 248 248 247 
248 246 246 247 247 248 246 247 218 153 246 244 245 245 246 245 
247 245 247 247 245 244 244 244 244 243 244 245 236 237 248 247 248 248 248 248 
248 247 248 246 248 247 247 247 247 246 246 247 248 247 248 248 
247 247 247 246 247 245 245 245 245 248 208 136 200 243 248 248 
249 250 249 219 227 248 248 248 248 248 248 247 249 248 248 246 
246 246 248 247 248 247 247 247 246 248 248 247 248 248 248 247 
248 246 246 245 245 245 245 249 167 200 248 244 244 246 245 245 
244 247 245 245 245 244 245 243 245 245 245 245 244 230 246 248 247 248 248 248 
249 247 246 246 247 247 247 248 246 247 247 247 247 248 247 247 
247 247 247 246 247 246 245 245 246 234 143 174 249 246 243 245 
246 246 247 248 216 248 249 248 247 248 248 248 248 248 247 247 
247 246 247 248 248 246 248 247 248 249 247 247 248 248 248 248 
247 247 246 246 245 244 245 211 159 245 245 244 244 244 246 245 
246 246 245 246 243 244 244 245 246 246 246 245 247 239 233 247 248 246 247 247 
248 248 248 247 247 247 248 246 248 246 248 247 247 247 248 245 
247 246 247 247 246 246 245 245 246 178 139 240 249 246 245 246 
244 245 247 248 214 248 247 248 247 248 249 249 248 247 246 248 
247 247 247 248 247 247 247 247 247 248 248 247 248 247 248 248 
246 248 248 248 245 245 241 155 220 248 246 245 245 245 245 245 
246 247 246 246 246 246 244 244 245 245 244 243 246 246 218 239 248 248 248 248 
249 248 248 248 247 246 248 247 248 248 248 247 247 248 249 247 
248 247 247 246 247 245 245 246 242 143 204 250 249 247 245 245 
245 244 245 248 220 249 247 248 248 247 248 248 249 248 247 246 
248 247 248 247 247 247 247 248 248 247 249 247 248 247 247 248 
247 244 247 246 245 247 198 183 250 244 246 243 245 244 246 247 
245 244 245 246 246 246 245 243 244 244 244 243 243 245 244 223 246 247 248 247 
249 248 248 246 247 247 247 247 247 247 248 248 247 247 248 247 
248 247 249 246 248 247 247 247 236 158 236 247 246 245 243 247 
246 244 245 245 190 250 248 248 247 247 247 247 247 247 247 248 
247 247 247 247 246 247 248 246 247 248 249 247 248 248 247 247 
247 248 246 245 248 238 172 236 247 245 245 244 243 243 244 245 
246 246 244 245 246 245 245 245 244 245 245 244 243 245 246 231 233 249 248 247 
248 246 247 247 246 249 246 247 247 248 247 247 248 247 248 247 
249 247 249 247 248 247 247 248 243 207 241 247 246 247 245 246 
245 245 249 221 181 250 249 249 249 249 246 248 247 247 247 247 
247 248 249 246 246 248 247 246 246 246 248 248 247 246 246 247 
246 246 245 247 240 173 212 248 244 246 244 244 244 243 243 245 
245 245 244 245 246 246 245 245 246 245 245 246 243 246 246 246 213 239 248 247 
247 247 247 248 249 247 248 247 248 247 246 247 247 248 247 247 
247 247 247 248 248 246 246 247 246 215 245 248 248 247 245 244 
245 248 238 184 214 250 248 247 248 248 247 247 249 249 246 247 
246 247 247 247 246 246 246 247 247 248 247 247 246 246 246 247 
246 247 246 249 200 191 247 245 245 245 244 244 245 243 243 244 
244 243 243 246 247 247 245 244 246 245 246 246 244 244 246 245 241 219 244 248 
247 247 247 248 247 248 246 246 246 248 248 246 248 248 248 246 
247 247 248 249 248 248 248 248 247 235 195 236 248 249 247 247 
247 222 161 173 243 247 248 248 249 248 247 248 249 249 248 247 
246 246 247 246 246 247 246 246 248 245 247 249 248 249 248 246 
245 247 250 220 163 243 246 244 244 246 245 245 245 244 244 245 
244 245 245 246 246 246 246 246 246 246 247 247 245 242 246 246 247 239 223 245 
247 246 246 246 247 247 247 247 246 247 247 247 247 247 248 248 
247 247 248 248 246 246 248 249 247 250 232 192 198 232 249 244 
198 163 178 244 248 248 248 246 248 248 248 248 249 249 246 246 
247 247 247 245 244 246 246 245 245 246 245 245 246 246 246 244 
247 249 238 160 227 248 245 245 246 246 242 244 243 243 244 243 
244 244 243 246 246 246 246 246 245 246 247 246 247 246 247 245 246 248 225 230 
247 247 248 247 247 246 247 247 248 247 247 248 248 248 248 247 
247 248 247 248 249 249 248 249 249 250 250 240 200 174 179 168 
162 195 244 249 248 248 247 247 247 248 248 248 249 248 247 248 
246 245 248 247 246 245 246 245 245 246 245 245 246 247 247 248 
248 234 168 225 247 246 245 246 246 246 245 247 244 244 244 243 
243 243 244 246 246 246 246 247 246 246 246 246 245 244 246 245 246 246 249 225 
227 245 247 247 247 248 246 247 247 247 247 247 249 245 248 249 
246 248 246 247 247 248 248 247 247 249 248 248 251 240 216 216 
238 247 249 248 248 248 248 248 247 247 247 247 246 245 245 247 
246 246 247 246 245 246 244 244 244 244 245 244 245 247 247 249 
234 166 207 247 245 245 245 247 245 245 244 242 242 242 244 244 
243 245 244 246 246 246 247 246 246 246 246 246 246 245 246 247 243 245 245 247 
225 233 245 247 247 246 246 247 246 247 248 248 248 249 249 248 
247 247 246 246 247 247 248 248 247 249 248 247 247 250 252 250 
250 247 248 246 245 248 248 247 247 247 248 248 247 247 246 246 
246 246 246 245 246 244 245 245 246 243 246 243 244 242 247 230 
169 200 246 245 246 245 244 246 244 245 243 244 245 243 242 241 
242 243 243 247 247 247 246 247 247 246 247 247 247 246 246 245 246 246 244 249 
249 221 221 243 247 246 247 247 247 246 246 247 246 247 247 247 
246 246 247 247 246 247 248 249 247 248 249 248 248 247 247 248 
248 248 246 249 246 248 248 248 248 248 247 247 247 248 247 247 
246 245 246 244 245 246 246 246 244 242 244 243 243 246 235 163 
210 242 243 243 245 244 245 245 243 246 244 244 244 242 243 244 
243 243 243 247 247 247 247 246 248 246 247 247 246 249 248 244 248 246 245 247 
246 245 224 229 244 246 246 248 247 247 247 246 248 248 248 246 
248 248 247 247 247 246 245 248 247 248 248 247 247 247 247 246 
247 247 247 245 248 246 247 247 248 247 247 248 248 247 247 248 
247 245 246 246 245 245 245 244 245 243 240 240 243 235 149 184 
244 242 241 245 244 245 246 245 244 245 244 243 243 243 243 243 
243 242 243 247 247 248 248 248 247 247 247 247 246 247 247 247 246 246 245 249 
246 245 249 229 212 240 243 248 246 245 247 247 247 247 247 249 
248 248 247 247 246 247 248 247 248 247 247 247 248 247 247 247 
246 246 246 246 246 246 246 246 246 248 247 249 246 244 246 247 
246 246 247 248 243 243 244 243 241 241 241 242 237 196 203 244 
244 243 245 244 245 245 245 245 244 245 244 245 242 241 241 242 
243 242 243 246 247 247 247 247 247 249 248 248 246 246 246 244 247 245 247 248 
246 245 246 248 236 218 239 245 244 245 247 248 246 247 248 247 
246 246 246 247 246 247 245 247 246 246 247 248 246 247 247 247 
247 246 246 247 247 247 246 247 248 247 245 248 246 247 245 246 
247 245 245 245 245 245 243 245 242 243 242 230 201 201 244 242 
241 242 243 244 242 243 242 244 243 243 245 241 242 243 244 242 
241 242 243 248 248 248 248 248 249 248 248 248 247 247 246 247 247 246 246 247 
246 244 245 245 246 242 213 222 241 241 244 246 245 246 246 247 
246 247 247 247 247 246 246 247 247 248 248 244 246 246 248 246 
245 244 247 246 247 247 246 246 246 247 246 246 246 245 246 246 
245 245 244 243 246 243 241 242 243 241 216 195 218 242 241 242 
243 244 243 243 246 244 243 243 244 242 243 242 242 242 241 241 
242 238 241 247 247 248 248 248 248 248 249 249 248 247 248 247 247 247 245 247 
247 246 245 244 245 246 246 234 221 237 243 243 244 246 246 246 
245 245 247 246 245 246 246 247 247 248 248 247 247 247 245 245 
246 246 245 246 245 245 245 245 246 245 245 246 247 245 245 245 
244 242 243 244 241 244 242 244 235 194 192 235 246 243 243 241 
243 243 242 243 241 244 243 242 242 242 242 241 240 241 241 241 
240 242 242 249 247 247 246 248 248 247 249 249 249 248 247 245 246 247 245 247 
247 245 245 245 244 245 246 246 241 226 229 242 240 240 244 246 
246 246 244 246 245 247 246 245 245 245 245 245 246 245 245 246 
247 246 245 245 245 246 244 247 245 247 246 246 245 245 245 245 
244 241 243 242 243 242 240 198 174 209 245 245 242 241 243 243 
242 242 244 243 244 242 243 242 242 242 241 240 241 242 242 241 
240 241 241 248 247 248 247 247 248 247 248 249 250 247 246 247 247 246 246 246 
247 247 246 244 244 245 243 244 245 245 232 229 237 241 245 244 
244 244 244 244 243 246 244 245 244 244 245 244 247 246 246 245 
245 245 246 244 244 243 244 244 246 246 247 244 245 244 246 243 
241 242 241 245 245 230 195 208 237 247 245 244 243 241 242 242 
241 243 242 242 242 243 243 243 242 243 241 241 243 241 241 240 
240 241 241 247 247 247 248 249 247 247 248 248 248 248 248 248 246 247 247 246 
247 246 244 245 244 244 243 244 245 243 248 246 235 225 240 243 
240 242 243 244 243 243 244 244 244 244 243 245 245 243 245 245 
244 243 245 244 243 242 243 243 241 244 244 244 244 244 241 242 
242 242 239 228 200 201 233 244 244 244 243 243 243 241 241 240 
243 240 243 243 241 243 243 243 242 241 242 241 240 240 240 239 
238 240 240 247 247 247 248 248 247 247 248 248 249 250 248 248 246 247 247 247 
248 248 241 246 246 246 244 245 246 245 245 246 244 243 218 225 
234 242 242 243 244 245 242 242 242 242 243 242 241 242 240 243 
241 244 243 244 243 244 242 243 244 240 239 242 242 245 245 244 
237 221 189 193 236 244 243 241 240 241 243 242 242 240 241 240 
241 241 242 241 241 242 244 242 240 240 241 242 241 239 240 239 
237 239 239 246 247 247 247 247 248 248 247 248 249 250 249 249 247 246 248 246 
248 246 242 246 245 245 245 244 246 245 246 246 241 241 244 240 
230 217 220 224 234 241 240 242 241 241 244 243 241 241 240 241 
241 241 241 241 241 240 242 241 240 240 242 243 243 241 226 210 
194 203 232 245 243 243 240 239 239 240 241 241 241 238 241 240 
240 242 242 241 241 242 242 242 239 239 240 239 240 239 239 239 
239 238 240 246 246 247 246 248 248 248 246 247 247 249 249 249 248 247 246 246 
248 248 242 245 244 243 245 245 245 245 244 243 245 242 241 243 
243 244 237 222 210 223 237 237 240 240 241 242 243 242 243 241 
239 239 238 240 240 238 240 242 237 235 233 222 201 184 196 225 
243 243 241 240 238 238 239 238 239 241 241 239 240 240 241 241 
240 240 240 241 240 240 241 240 239 238 239 241 241 239 239 239 
240 239 242 245 245 246 247 246 246 245 247 247 248 249 249 248 249 248 245 246 
246 247 246 245 243 243 245 245 245 245 242 243 241 242 243 242 
240 241 242 243 242 239 229 222 226 229 215 225 227 231 234 237 
240 239 239 236 236 234 221 210 200 194 197 213 229 239 241 241 
240 239 238 240 239 239 240 240 241 240 240 241 240 239 240 239 
241 241 240 241 239 241 243 240 241 240 239 239 240 240 240 239 
241 239 240 246 246 247 247 246 247 247 246 245 245 248 250 250 249 247 248 248 
246 245 245 243 243 242 242 242 244 242 242 241 241 240 240 241 
240 239 240 241 240 238 238 242 232 226 216 199 207 216 219 217 
221 220 221 219 212 221 225 231 237 242 243 245 242 240 242 241 
241 242 238 237 237 239 239 239 238 237 237 239 239 239 239 239 
238 239 239 240 240 240 243 240 240 239 240 240 239 238 237 239 
240 238 239 245 246 245 246 247 246 246 245 246 246 247 247 248 248 245 246 247 
247 246 246 243 244 242 241 240 240 240 238 237 239 238 239 240 
239 237 237 238 238 237 238 238 238 239 240 245 238 235 240 243 
239 240 242 242 241 244 242 239 240 241 239 240 238 238 238 238 
240 241 239 238 239 238 238 237 238 237 241 240 237 239 239 238 
240 239 239 238 239 238 240 240 240 240 239 239 237 238 237 239 
239 237 238 246 246 244 244 244 244 245 246 244 245 246 246 246 244 246 245 247 
246 244 243 241 243 242 240 240 239 239 238 237 238 239 236 238 
239 237 238 238 236 236 236 239 237 237 237 240 240 238 237 237 
237 238 237 239 239 238 238 237 239 239 239 238 237 233 236 238 
239 238 238 238 237 238 238 237 238 239 237 238 238 238 238 238 
238 239 236 239 240 241 238 240 240 239 237 239 238 238 240 239 
238 238 237 245 244 245 244 245 246 244 243 244 245 244 243 244 244 245 243 246 
245 244 243 242 242 239 239 236 238 236 238 237 238 234 239 235 
238 239 238 237 239 236 236 235 238 238 235 235 236 236 236 237 
235 239 237 237 237 237 236 234 235 235 235 236 235 235 237 238 
237 237 237 238 238 239 237 239 236 237 238 238 238 238 238 237 
237 236 236 240 237 239 240 239 239 237 237 236 238 237 237 237 
239 237 237 245 243 241 244 242 242 243 243 243 243 244 243 240 240 239 239 240 
245 246 243 240 240 238 238 238 238 236 236 237 237 237 238 237 
235 236 236 235 235 235 237 235 237 236 235 234 235 236 233 236 
234 237 235 235 236 233 235 234 236 237 237 236 239 238 238 237 
235 237 238 239 237 237 237 238 239 238 237 237 238 238 236 239 
239 236 237 236 237 237 237 238 237 238 237 238 237 236 237 238 
237 238 237 