P2
# Created by IrfanView
100 100
255
234 232 232 234 234 232 232 233 233 233 231 232 233 234 235 234 235 
235 237 236 235 235 237 238 238 237 238 239 240 240 241 240 240 
241 241 241 241 241 242 241 241 240 240 242 243 240 241 242 242 
241 240 242 242 240 241 240 241 243 242 242 243 243 244 242 241 
241 243 242 242 243 242 241 243 240 242 241 241 240 240 244 244 
245 245 245 246 246 247 248 248 247 247 247 246 247 248 248 247 
247 248 248 234 233 233 234 234 233 234 234 234 233 231 232 234 236 235 236 236 
235 236 236 236 234 235 238 239 239 240 240 239 239 241 241 242 
240 241 241 241 241 240 240 241 239 240 241 240 242 240 241 241 
242 241 241 242 240 242 241 242 244 242 241 243 243 243 243 244 
244 242 243 244 243 242 243 243 243 242 245 244 243 242 244 245 
245 247 245 246 247 247 247 247 247 247 247 248 249 249 249 247 
246 247 249 233 233 235 233 234 233 235 235 234 233 234 233 232 233 234 235 231 
236 235 237 237 234 236 237 238 240 238 239 239 239 240 242 241 
242 242 242 241 241 239 241 240 240 241 241 240 240 241 241 242 
240 241 240 242 240 241 240 242 243 242 242 243 244 242 243 244 
244 243 242 243 243 243 244 242 243 244 244 244 245 245 247 247 
247 247 246 246 247 247 247 248 248 247 248 249 248 248 249 249 
249 247 248 234 233 234 232 233 232 234 235 234 233 232 232 233 235 235 236 235 
234 234 236 235 234 237 239 239 238 238 241 239 237 240 241 239 
241 240 241 242 240 240 239 240 240 241 239 240 240 240 240 240 
241 240 241 241 240 241 241 241 241 242 241 244 243 244 242 243 
244 243 244 243 242 243 244 245 245 245 245 246 246 247 248 247 
247 246 247 247 247 247 247 248 247 248 249 249 248 247 248 248 
248 247 247 235 232 232 232 234 235 235 233 233 234 235 233 233 234 235 235 235 
234 233 235 236 237 237 237 238 237 237 239 239 237 239 239 240 
241 241 240 239 241 239 240 238 239 239 239 238 240 241 241 241 
242 242 240 240 242 242 240 241 242 242 242 243 243 242 242 244 
243 244 244 243 244 244 244 244 244 245 247 247 247 247 246 246 
245 247 248 247 247 247 248 247 247 247 247 248 248 249 248 248 
250 247 247 233 233 230 230 234 235 235 235 235 236 234 234 232 234 236 235 235 
232 233 235 236 234 236 236 237 236 236 238 237 237 239 239 240 
241 240 239 241 238 238 240 240 240 240 241 241 240 244 241 240 
240 242 241 240 242 243 243 243 243 243 242 243 242 242 242 242 
243 244 243 243 244 245 244 245 245 245 245 245 246 247 246 247 
247 246 246 247 246 246 247 246 247 246 247 247 247 248 247 249 
248 250 248 234 235 235 233 234 235 235 235 238 234 235 234 233 235 236 235 234 
232 232 235 233 234 238 237 238 237 238 238 238 238 238 239 238 
241 239 238 240 240 240 240 241 238 234 225 219 214 213 216 216 
201 203 241 238 227 226 234 238 242 244 244 243 241 244 243 242 
242 244 244 243 243 243 244 245 244 246 246 245 244 246 248 247 
246 247 247 247 246 244 247 245 248 247 247 247 247 249 249 249 
249 248 248 235 234 233 232 233 233 233 234 235 236 235 234 234 234 236 234 236 
234 235 234 235 234 237 238 239 237 237 238 239 240 239 238 238 
238 238 239 241 242 239 228 218 212 220 223 230 236 235 241 244 
244 241 240 241 226 206 223 216 212 222 227 232 236 241 245 245 
246 245 244 244 243 244 244 245 245 245 245 246 246 247 246 247 
247 246 245 248 247 246 246 245 246 248 248 248 248 249 250 249 
249 249 248 235 236 234 232 233 233 232 232 235 235 236 236 234 234 234 235 234 
234 234 236 234 234 237 236 236 238 238 239 238 238 237 238 240 
241 241 239 222 217 219 228 237 242 242 241 239 239 238 239 241 
241 242 239 241 241 241 242 242 241 238 231 219 214 219 229 244 
246 243 244 243 243 243 244 244 246 246 246 246 246 248 248 247 
247 247 247 246 247 246 247 245 246 247 247 248 248 250 247 249 
249 249 247 235 234 235 233 234 234 234 235 237 236 235 233 234 236 234 236 236 
235 235 234 235 236 236 237 236 237 237 235 236 238 241 240 240 
230 221 220 229 243 244 242 242 239 241 240 240 239 240 239 241 
240 240 241 240 241 242 241 241 243 243 244 244 244 240 225 207 
205 231 246 246 245 243 241 244 244 245 244 244 246 246 247 247 
246 245 246 246 246 246 246 245 246 247 247 247 248 248 248 249 
249 249 248 237 237 236 234 237 235 235 236 236 237 236 236 233 235 237 236 237 
235 235 235 234 234 236 236 236 236 235 236 237 239 235 222 211 
221 237 242 242 242 239 241 240 241 240 239 240 239 240 241 242 
242 243 241 242 241 241 241 241 243 242 240 242 242 242 243 239 
229 217 211 230 245 244 243 244 243 244 243 245 246 244 247 247 
247 246 247 247 246 244 246 245 246 246 246 247 247 246 248 248 
248 248 248 237 236 236 237 236 236 238 236 238 235 236 235 236 237 235 234 235 
236 234 235 235 235 235 237 234 235 237 238 236 209 196 220 239 
240 240 239 240 241 241 243 241 241 241 241 240 240 240 240 242 
241 242 243 241 242 242 241 243 243 242 242 240 242 241 241 244 
246 242 222 201 203 235 242 243 245 244 244 245 246 247 246 246 
247 247 247 246 246 246 246 244 245 247 247 247 247 245 247 248 
249 248 247 237 237 237 235 236 237 238 237 237 236 235 235 235 236 234 235 234 
231 234 233 234 233 235 234 235 239 238 223 199 216 240 241 240 
239 240 241 240 240 242 242 240 241 241 242 243 242 241 241 241 
241 243 244 242 241 242 243 241 243 244 243 243 243 243 242 243 
243 243 247 241 214 191 202 236 246 246 243 245 245 246 246 247 
247 246 246 244 246 245 246 246 246 247 247 247 246 245 246 247 
249 248 248 237 237 236 236 236 236 233 237 236 236 236 235 236 235 235 234 234 
234 234 233 232 233 233 233 234 216 190 212 238 237 238 238 238 
239 240 242 241 242 241 240 242 241 242 241 242 242 240 243 242 
240 243 242 242 243 244 243 243 243 243 243 242 240 241 242 242 
242 242 241 243 246 244 206 187 223 244 244 245 246 247 247 246 
246 247 246 245 245 246 245 247 246 247 246 248 248 245 245 248 
248 248 249 235 237 236 235 236 237 237 237 236 236 236 236 235 234 235 234 233 
233 235 233 232 231 234 236 201 191 240 239 239 239 238 237 239 
239 241 241 241 241 241 242 242 242 242 241 242 242 239 242 242 
241 241 240 242 242 243 243 243 243 243 243 244 244 243 243 242 
243 242 242 243 241 244 244 227 190 207 236 248 246 246 245 246 
246 245 245 246 246 245 245 248 247 246 246 248 247 245 246 246 
249 248 247 235 235 237 236 235 237 237 236 236 237 236 235 236 235 234 235 234 
233 234 232 231 234 231 193 220 238 238 239 239 239 239 239 239 
238 240 240 241 241 242 240 243 240 243 242 242 241 241 242 242 
242 243 242 241 243 243 243 244 243 243 242 242 243 243 243 243 
242 244 243 242 241 242 243 244 239 194 180 229 248 248 246 246 
246 247 246 245 244 244 245 246 246 245 246 247 246 246 246 246 
248 248 247 235 235 238 238 237 236 236 237 237 236 236 235 234 234 235 234 235 
232 233 234 233 226 192 223 239 240 238 238 238 240 238 238 239 
239 240 241 242 241 243 241 241 239 240 240 242 242 242 242 243 
242 242 242 243 243 243 245 244 244 244 245 244 243 242 243 243 
242 243 243 243 242 241 243 241 243 243 226 180 225 248 247 246 
246 246 245 247 247 244 246 246 246 247 248 247 247 247 247 246 
246 248 247 235 236 235 236 237 237 235 235 237 236 234 236 234 235 234 234 234 
233 234 233 225 188 234 241 237 237 237 237 237 237 239 239 239 
238 239 241 242 240 241 242 241 240 240 239 242 243 243 242 243 
245 243 244 244 243 242 244 245 244 243 244 244 244 244 244 245 
243 241 242 243 241 241 243 241 242 242 245 238 202 214 246 247 
246 245 247 245 245 246 246 245 246 247 247 247 247 248 247 245 
246 248 248 234 235 234 236 235 236 234 235 236 237 235 235 235 235 235 236 236 
234 235 218 194 237 238 238 235 236 237 237 237 238 238 238 238 
238 241 241 240 240 241 241 239 241 241 241 241 243 242 242 243 
244 244 244 243 244 243 243 244 244 244 243 242 244 243 242 242 
243 242 241 244 241 241 240 242 242 243 243 243 238 194 213 245 
247 245 246 246 247 246 246 245 245 247 246 247 248 248 246 246 
247 248 247 236 236 234 234 234 236 236 233 235 235 235 234 234 234 235 234 235 
236 220 187 236 235 235 237 236 238 237 238 236 237 239 239 239 
239 242 241 240 240 240 241 241 240 241 241 241 241 244 242 242 
242 242 245 243 243 243 243 245 245 244 245 243 244 243 243 243 
243 243 243 243 242 242 242 242 242 242 240 242 245 245 204 209 
247 247 245 246 246 247 246 245 246 247 247 247 247 247 248 246 
247 250 248 235 236 234 233 234 235 236 234 234 234 235 234 233 233 233 233 234 
225 178 236 234 234 235 237 238 238 238 238 238 239 239 238 237 
238 238 239 241 240 238 241 240 240 242 242 241 240 241 241 242 
242 244 243 242 244 243 242 244 244 244 243 243 243 244 244 243 
243 244 243 243 243 243 243 242 242 243 243 242 243 245 240 211 
217 247 246 246 245 245 246 245 248 247 247 248 247 247 247 247 
247 246 249 233 233 233 234 233 234 233 235 235 235 234 234 233 233 234 234 234 
170 230 237 235 233 236 237 237 239 238 239 240 239 238 238 237 
237 235 238 238 242 241 241 240 240 240 241 242 240 241 241 242 
242 244 245 244 243 244 245 243 244 244 244 244 243 243 244 243 
243 243 243 243 243 242 243 242 244 242 244 244 242 243 245 244 
196 214 250 246 244 246 246 245 246 246 247 247 246 247 247 246 
248 247 249 233 233 233 233 233 233 233 233 234 234 234 231 232 234 236 234 176 
219 236 234 236 236 240 240 237 239 238 237 238 237 236 239 237 
236 237 238 238 237 241 241 239 240 239 242 241 239 240 240 240 
242 242 242 242 244 243 243 243 242 245 243 244 244 242 243 243 
243 243 243 243 243 243 243 242 242 243 242 243 244 243 243 246 
247 214 227 249 247 247 246 247 247 246 247 248 246 247 246 246 
246 248 249 234 235 233 234 233 232 232 234 234 234 231 231 231 235 235 194 200 
237 235 236 237 233 235 239 238 237 236 238 237 238 239 238 238 
238 238 238 237 239 239 240 238 239 240 241 241 241 241 240 241 
242 243 242 241 243 244 243 244 243 242 243 242 245 244 244 243 
243 243 242 242 243 243 242 243 244 243 243 244 246 244 243 244 
248 249 199 234 248 245 245 247 245 245 245 246 247 246 246 247 
246 248 248 235 234 234 234 233 231 233 233 233 236 232 232 233 233 216 179 238 
236 235 237 235 235 234 237 238 236 238 239 240 241 223 210 214 
229 232 238 241 239 239 240 239 239 241 241 241 239 242 241 240 
242 242 241 242 241 241 242 243 241 242 243 243 242 242 244 244 
244 243 242 242 241 240 242 242 241 243 246 246 230 245 243 244 
245 247 236 204 245 246 246 245 245 243 245 246 247 245 247 248 
249 248 248 233 231 233 232 232 232 232 233 233 233 231 231 232 190 171 236 238 
236 236 237 233 234 235 236 236 236 240 240 219 176 167 179 151 
152 150 196 236 240 237 239 240 240 240 240 241 242 241 242 241 
241 241 241 241 242 241 242 241 243 242 242 242 238 203 224 245 
245 242 242 243 240 242 241 242 243 244 235 198 159 243 244 243 
245 244 247 209 217 248 245 245 246 245 244 246 245 245 248 248 
247 248 248 233 231 231 232 232 232 232 232 232 232 231 233 220 148 216 235 235 
235 234 236 234 234 235 236 235 237 238 178 146 184 201 206 211 
209 191 156 185 237 237 239 239 239 240 241 241 240 241 240 240 
241 242 240 241 242 241 242 243 242 241 240 242 243 224 176 206 
239 243 243 243 243 243 243 242 242 222 145 155 186 244 244 244 
244 244 244 243 187 235 246 245 245 246 245 245 245 245 248 248 
247 247 248 234 232 231 234 232 232 232 233 232 233 231 230 187 191 240 237 235 
235 235 236 236 235 235 234 235 236 183 164 232 241 242 243 240 
242 241 235 186 178 237 238 239 237 238 240 240 241 239 240 242 
241 241 242 241 240 241 242 243 242 240 242 241 240 242 236 181 
159 202 222 237 237 239 230 220 206 135 137 213 244 246 244 244 
244 244 245 246 234 206 246 246 245 246 244 246 245 246 247 248 
248 248 248 232 232 232 231 231 232 231 232 232 233 230 214 155 235 237 235 236 
237 236 234 236 235 236 236 235 232 189 214 242 240 239 237 237 
238 238 241 242 187 198 240 238 238 239 237 239 240 238 238 241 
241 242 242 242 242 241 242 241 240 242 241 240 241 242 243 246 
238 189 145 148 148 150 132 122 151 189 241 247 245 245 245 244 
244 243 244 243 248 204 228 248 244 247 244 245 247 246 248 248 
245 248 248 235 232 233 232 231 233 232 232 233 233 236 173 210 238 236 236 236 
236 236 236 235 235 233 232 235 235 237 233 237 237 236 239 238 
235 237 237 240 241 166 229 239 239 238 240 239 239 238 239 240 
240 241 242 241 242 241 241 242 243 242 242 240 241 241 241 244 
246 247 241 223 214 190 212 221 239 245 245 245 244 245 244 244 
242 244 244 244 245 246 203 245 244 244 246 245 245 246 247 247 
247 247 250 230 231 232 232 232 231 231 233 233 233 214 192 236 237 236 236 235 
235 233 234 235 236 236 236 236 236 238 238 236 236 238 238 241 
240 237 238 238 240 231 181 244 237 238 239 240 239 240 239 241 
241 240 240 241 243 243 242 242 242 241 241 242 241 241 242 242 
243 241 241 242 243 245 243 242 244 244 244 245 245 244 244 245 
244 244 245 244 244 244 225 221 247 245 246 244 244 245 247 246 
247 248 248 232 233 234 232 232 233 232 232 230 231 164 235 235 233 236 235 236 
234 234 234 235 236 236 236 236 234 236 237 236 240 233 158 188 
241 236 237 236 237 242 180 233 240 237 239 240 239 238 239 241 
241 241 242 242 241 242 241 241 241 241 240 242 240 240 241 242 
241 240 240 242 243 243 241 244 242 241 246 245 245 244 243 244 
244 243 245 245 244 244 245 192 244 244 245 245 245 245 246 247 
248 250 250 232 234 232 232 231 232 231 233 232 207 197 237 235 236 235 234 235 
235 232 233 234 235 234 234 234 235 236 235 236 218 149 110 126 
195 242 238 237 239 240 234 235 239 239 240 241 240 239 239 240 
240 243 241 241 241 242 243 241 242 242 242 240 242 240 239 240 
242 239 240 243 243 242 241 242 241 241 245 245 245 246 244 243 
245 244 243 245 244 246 246 213 213 245 245 245 244 244 245 245 
248 248 248 232 233 232 232 231 231 233 232 225 190 230 234 236 236 236 235 235 
235 237 234 235 236 234 234 233 236 236 238 231 156 142 126 108 
108 232 238 238 238 237 240 238 239 238 238 239 239 241 238 238 
240 242 240 241 240 241 242 242 243 242 243 244 242 240 240 240 
239 241 220 177 194 236 241 241 242 243 243 244 244 245 244 245 
244 244 243 244 243 243 244 238 184 246 246 244 246 245 245 244 
247 248 248 232 232 232 231 230 231 232 231 227 192 236 234 235 236 233 234 233 
233 234 234 235 235 234 234 235 236 236 237 190 143 146 168 121 
124 215 239 240 239 238 239 240 240 236 237 238 238 240 239 239 
239 239 240 239 241 242 242 241 239 241 241 243 241 242 239 241 
243 219 170 132 156 165 237 239 241 241 243 244 244 244 245 243 
245 244 244 244 242 243 243 243 206 218 245 245 245 246 245 246 
247 248 247 231 232 231 231 231 231 232 230 219 207 234 233 234 235 234 234 233 
233 233 235 235 232 233 232 233 232 236 229 153 136 175 170 139 
153 212 241 239 239 239 239 240 238 240 240 238 238 239 239 238 
239 238 240 241 242 240 241 242 241 242 241 241 240 239 240 241 
229 176 176 170 166 176 210 239 240 241 245 245 245 243 243 245 
245 244 244 244 243 244 245 243 235 210 245 245 246 245 245 245 
246 247 247 231 230 230 230 231 229 230 230 194 229 236 234 236 234 235 233 233 
233 232 235 234 234 234 232 232 231 236 205 137 138 139 139 128 
125 205 239 239 239 240 239 239 240 239 239 239 237 239 239 238 
239 237 241 241 240 241 241 242 241 241 241 242 241 242 241 240 
194 176 148 178 164 169 194 241 241 243 243 244 245 244 244 242 
244 243 245 245 244 244 245 243 233 201 243 245 245 246 246 245 
247 247 246 232 231 231 231 229 229 229 226 187 232 234 234 234 235 233 234 233 
234 231 231 233 233 232 233 231 231 230 158 152 178 136 146 150 
153 229 238 239 239 239 239 240 239 239 239 240 238 238 239 238 
239 238 241 241 240 240 241 240 241 242 241 242 243 242 242 228 
198 169 165 184 164 167 197 241 241 242 242 244 245 244 244 245 
244 245 244 244 243 243 243 242 240 201 239 245 245 244 244 245 
246 247 248 231 231 229 230 228 229 229 216 196 229 235 233 234 232 232 234 233 
232 232 232 233 232 232 232 232 233 192 139 161 146 110 130 122 
148 227 235 238 239 239 238 238 239 239 238 238 238 239 238 239 
239 237 241 241 240 239 240 240 241 241 242 242 242 241 242 205 
184 170 145 177 147 164 222 238 240 243 242 243 243 244 245 243 
244 244 242 243 243 242 242 243 246 217 225 248 243 242 244 243 
244 246 249 231 229 229 228 229 231 229 193 231 236 235 234 234 234 235 233 233 
233 234 233 232 233 231 232 233 231 175 155 167 150 114 132 129 
195 237 236 241 238 239 238 239 240 239 239 240 239 238 238 236 
239 239 240 242 241 239 240 240 241 242 242 243 241 241 241 209 
195 170 149 166 186 175 237 242 242 242 241 242 242 244 244 242 
242 243 244 243 242 242 243 243 245 229 208 245 244 243 246 243 
245 246 247 230 229 230 230 229 228 226 188 239 234 233 233 234 233 233 234 233 
233 231 234 231 231 231 232 233 224 176 159 105 96 161 115 139 
215 238 238 239 238 239 237 239 240 239 239 238 238 239 238 238 
239 241 240 239 239 239 241 241 241 241 241 241 242 241 242 208 
172 169 146 153 143 167 242 241 240 242 244 241 244 243 244 243 
243 243 242 244 244 242 243 244 244 235 213 236 244 244 244 243 
244 246 247 228 230 227 226 229 229 210 207 233 232 234 234 234 233 233 233 232 
234 232 231 230 231 231 232 233 219 169 138 113 134 106 95 187 
233 238 238 240 240 241 238 238 240 238 238 239 239 238 237 238 
239 239 240 240 240 239 239 240 242 241 241 240 241 240 240 211 
143 137 151 183 158 195 243 240 240 243 242 243 243 244 245 243 
244 242 242 243 243 243 243 243 244 237 219 236 244 243 244 244 
248 246 246 229 228 229 228 229 226 194 218 232 233 234 232 234 233 232 233 233 
232 231 232 232 231 232 233 232 213 172 150 117 123 98 173 200 
235 237 239 240 238 239 238 238 238 239 240 240 239 238 237 237 
238 239 239 238 240 239 239 239 240 241 242 242 242 241 240 236 
159 111 131 140 180 228 239 241 241 242 243 244 244 242 243 244 
243 243 243 243 243 243 242 244 246 244 198 234 245 245 245 245 
245 247 247 229 229 227 227 229 227 194 223 233 234 234 233 233 234 236 233 233 
233 232 231 232 232 232 233 230 229 182 175 98 126 134 224 230 
234 236 237 238 240 238 238 238 239 238 238 237 238 238 236 236 
239 238 239 239 241 239 240 240 242 240 241 241 242 241 239 244 
193 128 120 179 236 243 242 243 242 243 243 243 243 243 244 243 
242 243 242 242 243 243 242 243 244 243 214 208 246 244 246 243 
248 245 248 229 228 227 224 229 228 171 231 234 233 233 233 234 233 233 233 231 
232 233 233 232 232 232 231 231 230 223 159 123 184 197 233 233 
233 236 237 238 239 238 239 239 239 240 239 239 238 237 238 238 
239 239 239 239 241 240 239 240 240 241 240 242 240 238 242 242 
237 145 154 221 242 242 242 242 243 241 242 242 243 243 242 243 
243 242 243 243 243 242 244 243 244 244 227 206 243 240 243 245 
246 247 247 229 226 227 226 227 225 175 234 232 235 233 233 232 233 233 233 233 
232 232 232 232 232 232 231 231 229 233 233 189 233 236 233 235 
233 235 238 236 239 239 240 239 239 239 239 239 238 239 238 238 
239 241 238 240 240 239 241 240 240 240 240 241 241 241 239 240 
243 214 193 241 243 241 243 242 243 244 245 244 243 244 243 243 
243 243 243 244 242 242 243 242 243 245 227 193 245 247 246 245 
246 247 248 229 228 228 225 228 225 175 232 232 233 233 232 233 234 233 232 233 
233 232 231 231 232 231 232 231 232 232 234 239 239 233 234 235 
235 237 236 237 238 237 238 237 238 238 238 239 239 238 239 239 
237 239 240 239 240 241 239 239 239 239 240 242 241 240 240 240 
240 242 243 242 240 242 242 241 242 243 243 243 243 244 243 243 
242 243 243 243 243 244 243 242 242 243 240 192 239 243 245 246 
247 246 246 228 229 228 224 226 227 171 228 231 232 232 233 233 234 234 233 233 
233 232 234 232 232 233 232 235 233 233 233 235 234 234 234 233 
234 235 238 238 238 236 238 236 236 239 238 238 239 238 238 237 
238 239 240 241 239 240 240 240 239 242 238 241 241 239 240 240 
240 242 243 239 240 241 241 244 241 243 243 243 243 243 244 243 
244 242 242 244 240 242 242 241 242 244 234 201 226 244 246 247 
248 247 249 227 226 227 225 225 224 186 229 232 234 232 232 233 233 233 232 232 
232 233 233 232 233 233 233 231 230 232 232 233 233 234 234 235 
234 235 237 237 236 237 238 237 237 237 239 238 238 238 239 239 
239 239 240 237 239 240 241 239 237 239 240 241 242 240 241 241 
242 241 240 240 239 239 244 243 244 243 244 244 244 244 242 244 
243 243 244 242 241 241 242 242 243 244 238 192 236 243 244 245 
247 247 247 228 227 225 224 223 226 176 228 231 231 231 231 232 233 232 231 232 
232 234 233 232 232 232 231 232 232 231 233 234 234 232 231 232 
234 234 236 238 238 237 237 236 236 238 236 237 237 238 236 237 
238 239 239 238 238 239 239 240 239 239 239 239 241 240 240 241 
241 242 241 241 241 241 243 241 243 242 242 243 243 244 244 244 
244 244 243 243 243 243 242 242 243 245 240 191 234 243 244 245 
245 247 247 227 224 227 225 223 225 164 227 231 233 231 231 232 233 234 233 231 
232 232 232 233 233 231 232 233 233 233 234 234 233 234 234 233 
233 235 235 235 236 237 236 236 237 238 237 238 237 238 238 236 
235 237 238 239 239 239 240 240 239 240 239 240 240 242 242 241 
241 240 241 240 240 241 243 243 242 244 245 244 244 243 245 244 
244 242 244 243 242 243 244 243 242 243 237 190 236 244 244 246 
246 246 246 226 226 225 226 224 223 177 224 230 232 232 232 231 232 232 233 233 
231 232 233 233 233 232 232 233 231 232 233 234 234 233 233 233 
232 236 234 235 237 237 236 236 236 237 238 237 237 237 238 238 
238 237 237 238 238 237 240 241 241 240 240 240 241 241 242 242 
241 240 241 242 241 242 242 242 244 243 243 243 243 244 245 245 
244 243 243 243 243 242 241 243 243 242 238 198 229 239 243 245 
245 246 247 227 225 226 226 224 223 180 214 228 230 232 231 230 232 233 233 232 
232 231 232 233 232 233 232 232 231 233 232 233 234 233 233 233 
234 234 234 234 236 237 235 236 235 235 234 236 236 236 236 237 
238 237 236 237 237 239 240 238 240 238 240 240 241 241 242 242 
243 242 241 240 240 243 243 243 243 243 243 244 244 243 243 243 
245 244 245 242 243 243 243 242 239 243 232 188 235 242 244 245 
245 245 248 226 227 226 225 223 226 176 213 229 229 231 232 233 232 231 232 232 
232 230 232 232 232 232 232 231 233 234 234 233 231 233 234 232 
232 235 234 234 236 234 234 235 234 236 234 234 236 234 236 236 
235 235 236 236 238 237 239 241 239 239 239 241 242 241 242 242 
242 241 241 241 240 239 244 242 243 244 244 244 244 244 244 243 
244 243 244 245 243 243 242 241 240 243 229 184 234 241 243 245 
244 246 247 226 227 229 227 226 225 190 182 230 230 232 228 230 231 232 231 232 
231 230 229 232 232 233 232 230 232 234 233 234 235 233 232 232 
231 232 233 233 235 235 235 233 234 236 236 235 235 235 235 235 
235 237 236 236 236 237 239 239 239 240 239 241 241 242 239 241 
241 242 241 241 241 240 242 243 242 242 242 244 243 243 242 244 
243 244 244 242 242 240 241 240 238 241 221 178 232 242 242 242 
243 247 247 226 226 228 227 225 226 206 171 227 230 232 229 232 231 231 233 234 
232 232 234 231 231 232 230 231 232 233 233 233 231 234 232 230 
231 233 233 233 235 234 234 234 233 233 234 233 234 234 235 235 
234 236 235 235 237 237 238 239 239 239 239 240 240 241 241 241 
240 240 240 241 239 241 243 243 243 242 243 244 244 242 245 242 
244 242 243 243 243 243 242 241 238 240 223 181 234 243 242 244 
243 245 246 228 226 227 226 227 225 217 164 229 229 230 230 231 231 232 232 231 
231 230 230 229 229 231 230 231 232 236 233 233 234 232 229 231 
231 231 232 232 235 235 234 234 235 233 234 232 235 234 235 234 
235 236 236 237 237 237 238 239 239 240 239 239 239 240 242 242 
241 241 240 241 241 241 241 242 240 243 243 242 243 243 243 244 
243 243 244 243 242 242 241 242 241 239 203 200 240 242 242 241 
242 246 247 226 225 227 224 225 224 225 164 228 227 231 229 230 231 232 232 231 
231 232 232 233 231 232 231 230 231 233 232 232 233 232 231 230 
230 230 233 233 233 235 234 234 233 235 234 232 234 233 235 235 
235 235 235 235 236 237 237 239 239 240 240 239 240 240 241 241 
242 241 241 240 242 241 242 241 242 243 242 243 242 243 243 243 
241 243 243 242 243 241 242 239 236 238 200 204 242 243 244 243 
243 246 246 226 226 227 223 222 225 225 160 212 228 230 229 230 231 232 232 232 
228 231 231 231 230 232 233 231 232 232 233 232 233 233 231 233 
229 233 232 233 233 232 233 233 234 232 232 233 233 231 233 233 
234 234 235 234 237 237 237 238 239 239 239 240 239 238 238 239 
240 240 239 240 240 241 241 240 242 242 243 244 243 243 243 243 
243 243 243 242 242 243 242 240 240 241 176 224 244 244 244 244 
245 245 246 225 223 226 224 224 223 224 181 195 228 228 227 229 231 231 231 231 
230 230 229 230 230 231 230 231 231 232 234 231 233 232 231 231 
232 232 232 233 233 233 233 233 232 233 231 233 232 231 233 235 
234 233 234 234 236 237 236 239 240 240 239 240 239 239 240 240 
241 240 240 240 241 240 242 240 242 243 243 242 243 243 242 243 
242 245 243 242 241 243 242 241 241 232 174 235 244 244 244 245 
243 245 247 225 225 223 223 224 224 225 206 177 226 227 227 228 231 231 229 228 
229 228 228 228 229 231 232 231 231 229 232 232 232 233 232 232 
232 232 232 232 233 233 233 231 232 233 232 231 233 231 233 234 
233 232 234 236 237 237 236 237 238 241 240 240 240 240 239 240 
238 239 240 239 241 241 241 239 242 241 243 244 243 242 242 242 
242 243 242 243 241 241 243 242 241 219 183 244 244 243 244 245 
244 245 247 226 224 224 224 225 223 226 219 145 230 228 229 227 230 230 230 231 
231 230 229 230 230 231 230 230 230 229 234 232 231 232 232 232 
232 233 231 231 233 232 234 231 232 231 232 231 231 230 232 232 
229 233 234 234 235 237 238 237 237 238 239 238 239 240 239 238 
239 238 238 240 238 241 240 242 241 239 241 243 241 242 242 243 
242 242 243 241 242 243 242 243 244 206 206 245 244 244 245 246 
243 245 247 225 224 224 224 226 223 222 226 149 224 226 227 228 229 229 229 228 
229 228 228 229 228 229 230 228 230 230 232 231 232 232 232 232 
232 232 231 232 232 232 232 232 231 231 230 231 232 232 231 232 
232 233 234 235 237 236 236 237 238 239 238 239 239 238 239 239 
239 238 238 239 240 240 241 240 240 240 241 242 242 241 242 241 
243 241 243 243 241 241 242 241 245 187 210 246 244 245 245 247 
245 245 247 225 225 224 223 224 223 222 223 176 195 228 225 226 229 228 229 228 
230 227 229 226 227 228 229 229 230 230 232 232 232 232 232 231 
231 232 232 232 232 233 232 231 231 231 232 231 231 229 230 231 
231 233 232 234 235 234 235 236 237 238 238 238 238 239 237 238 
239 238 238 239 240 240 239 239 239 239 241 242 242 242 243 242 
243 242 242 244 242 241 243 243 243 166 238 245 244 245 245 245 
245 247 247 224 224 222 224 223 224 222 222 208 153 229 226 228 230 230 229 229 
229 226 228 227 226 227 228 227 227 228 229 229 230 230 231 232 
233 233 234 235 234 235 233 233 232 231 231 229 231 231 230 230 
231 231 233 233 235 236 233 235 236 236 236 237 237 238 237 237 
238 237 236 239 240 240 237 238 239 240 242 242 241 241 242 242 
242 243 241 240 242 242 243 244 209 190 246 245 245 244 244 245 
245 246 247 223 224 224 223 223 222 221 223 225 146 203 227 226 227 229 228 228 
227 225 225 227 226 225 227 229 226 228 228 227 230 229 231 234 
236 235 234 231 234 229 238 234 236 233 232 230 231 229 230 230 
231 230 232 233 233 233 231 235 235 236 236 236 237 239 237 237 
237 236 237 237 237 239 239 240 239 239 242 241 240 243 242 241 
243 242 242 243 242 243 241 244 195 223 246 245 244 245 245 245 
245 246 248 225 222 222 224 223 222 221 222 224 188 142 224 223 226 226 224 225 
226 225 226 227 227 228 227 226 225 226 227 229 229 231 231 226 
198 166 130 117 122 124 185 225 227 238 234 231 229 229 229 230 
231 231 231 232 232 232 232 233 233 235 237 240 240 240 239 238 
237 236 237 236 236 239 240 239 238 237 243 242 241 240 242 241 
242 242 241 243 240 242 243 227 173 228 244 244 246 244 245 246 
245 245 247 223 224 222 223 220 222 220 222 223 219 136 212 224 225 227 225 224 
227 224 226 226 226 225 226 225 225 225 227 229 231 232 183 113 
113 154 201 209 215 205 163 127 125 169 233 234 231 230 231 230 
230 231 231 229 231 232 233 234 234 235 239 230 219 210 234 233 
239 238 237 238 236 238 239 239 238 238 238 240 241 241 242 241 
239 241 241 243 241 243 244 195 192 244 245 245 245 245 245 245 
245 242 245 224 222 223 222 221 220 221 219 220 226 169 179 226 225 224 226 227 
226 225 225 225 224 223 223 224 225 227 227 224 185 126 123 197 
234 236 237 236 235 236 240 238 211 160 138 186 231 231 233 232 
231 230 231 231 233 235 235 229 192 198 150 123 138 136 127 127 
150 178 226 239 239 238 238 237 237 238 239 240 241 241 240 241 
243 241 241 242 241 240 233 167 227 246 244 243 243 244 244 244 
244 244 244 222 222 221 221 221 222 221 218 218 224 220 146 219 226 225 224 224 
224 225 223 224 226 223 226 224 228 226 216 120 106 196 234 234 
235 234 232 234 234 233 237 238 237 238 211 136 138 215 231 233 
233 232 229 229 227 213 180 118 113 141 185 216 234 237 214 208 
170 145 145 156 224 239 240 237 239 237 239 238 239 240 241 241 
240 240 242 242 242 244 203 167 241 244 244 245 244 245 245 245 
245 243 243 222 221 222 223 220 220 220 220 220 224 226 154 166 223 225 225 226 
222 223 224 223 223 225 224 229 213 161 112 188 233 235 233 233 
231 231 232 231 232 232 232 235 235 237 236 233 190 129 122 148 
189 162 160 112 99 104 117 158 223 233 238 236 236 236 237 237 
240 237 195 154 141 162 234 238 236 238 238 238 238 239 238 240 
239 240 239 240 243 239 191 212 244 245 243 245 245 244 244 244 
244 242 243 222 223 222 222 223 221 221 221 220 223 224 212 126 201 225 223 221 
225 225 222 224 226 224 224 220 109 129 219 231 231 231 230 229 
230 231 232 232 231 231 232 233 233 231 233 236 235 229 191 124 
106 95 107 156 200 224 233 234 232 234 234 233 234 234 233 234 
236 236 237 241 225 153 164 231 239 236 236 239 239 239 241 240 
240 239 240 241 241 209 180 244 243 244 244 244 244 244 243 244 
244 245 243 221 221 220 221 222 221 220 220 219 221 220 226 172 172 229 223 222 
221 222 223 221 221 222 225 139 147 227 227 227 227 227 227 227 
230 231 231 232 233 232 232 233 231 231 233 233 233 234 236 235 
217 230 235 231 234 232 233 230 230 231 234 233 233 232 234 234 
234 235 236 239 237 238 174 135 195 242 237 238 238 239 239 239 
239 236 238 240 239 181 234 244 244 242 243 243 245 243 244 244 
244 244 243 219 221 222 222 219 221 221 220 218 220 219 221 218 130 206 224 225 
222 222 221 220 222 222 224 155 225 229 226 225 225 224 225 224 
228 228 231 231 231 231 231 232 232 233 234 234 232 230 231 234 
234 235 233 230 230 229 226 228 232 231 231 232 233 233 232 233 
233 234 234 235 235 235 242 224 156 181 236 236 238 237 239 239 
238 238 235 240 207 169 244 241 243 243 243 244 244 244 244 244 
245 243 244 221 221 221 220 221 220 221 219 220 219 217 220 222 201 152 227 222 
224 225 221 222 224 224 223 229 229 226 225 224 225 225 228 226 
225 228 228 232 233 232 231 232 230 232 235 233 233 231 231 230 
230 230 230 230 230 229 230 229 229 231 232 231 231 233 232 234 
234 233 233 236 235 235 236 239 234 200 238 236 237 239 239 240 
238 237 235 226 170 231 244 243 242 242 242 244 245 244 241 245 
244 244 243 221 221 223 221 221 219 220 219 218 216 219 218 221 226 147 193 224 
223 223 223 224 224 224 224 227 226 223 225 224 224 223 226 227 
226 227 231 230 233 232 234 232 231 231 232 233 234 234 232 230 
231 230 230 230 231 228 227 227 227 229 231 231 231 232 232 232 
232 232 234 235 235 236 238 236 237 237 237 237 238 238 238 238 
238 237 238 187 195 242 241 242 243 241 243 243 243 243 243 243 
243 243 244 219 217 220 220 220 219 219 219 219 218 221 223 222 224 218 151 198 
227 223 223 223 222 223 224 221 223 224 224 226 226 224 226 225 
226 228 227 230 228 229 230 231 232 232 233 232 231 231 232 233 
233 232 232 231 229 232 228 229 231 231 230 229 230 231 232 234 
232 232 233 234 235 234 235 237 234 237 235 237 236 238 237 238 
237 236 209 170 236 238 238 242 243 241 242 243 243 243 244 244 
244 243 243 219 218 220 221 221 217 219 222 217 219 219 219 217 221 225 195 140 
225 225 222 223 223 222 225 226 225 225 224 222 223 222 224 225 
226 228 228 230 230 231 230 231 230 232 233 232 232 230 232 231 
234 232 232 231 232 232 235 232 229 228 229 227 229 229 231 231 
232 232 233 233 236 236 237 236 235 236 236 234 236 235 237 235 
240 222 173 220 236 238 240 240 240 241 242 241 242 242 242 243 
243 243 243 220 220 220 220 219 220 218 218 218 218 218 219 221 218 222 226 180 
143 227 225 222 223 220 222 223 224 224 226 223 223 221 225 226 
226 226 227 228 228 228 228 230 231 231 230 231 231 232 230 231 
232 232 231 231 231 230 232 234 232 231 229 228 226 228 226 233 
233 232 233 232 235 237 234 236 236 235 235 235 236 237 237 238 
219 188 207 234 237 237 239 240 242 240 243 244 244 244 244 244 
243 243 243 220 220 219 218 217 218 216 219 220 222 221 220 220 222 221 219 224 
155 174 228 222 219 223 220 223 224 223 223 224 223 225 225 226 
225 225 224 225 228 229 229 230 231 231 230 231 231 231 232 231 
231 231 231 232 232 233 232 233 232 231 228 228 231 232 228 230 
231 231 234 235 234 236 235 235 235 234 235 235 235 235 235 229 
174 199 237 235 238 239 238 237 239 240 241 240 243 243 242 241 
244 240 242 218 219 218 220 218 218 220 218 217 217 217 217 218 220 220 219 221 
220 146 186 228 224 220 223 224 224 220 224 223 224 224 224 224 
224 224 223 224 228 230 229 230 231 230 229 230 231 229 231 229 
231 231 232 232 231 232 232 232 232 230 230 227 230 230 228 229 
231 231 234 233 233 236 233 234 234 234 235 236 233 237 227 174 
189 235 235 234 235 236 237 238 239 240 240 241 241 242 242 242 
241 241 244 218 220 220 216 217 216 218 219 215 217 219 219 220 218 219 221 220 
221 213 133 185 225 220 222 223 223 220 224 224 223 223 223 222 
222 222 223 224 226 228 228 230 229 229 228 229 228 230 231 230 
231 231 231 230 231 231 233 232 233 232 232 231 230 230 231 229 
232 227 232 232 232 233 232 232 231 234 234 234 234 236 172 185 
231 234 235 235 234 234 237 235 238 240 240 241 240 241 241 243 
243 241 243 218 218 216 217 217 217 215 216 216 217 219 220 219 218 219 219 218 
219 221 211 134 194 224 220 224 222 221 224 223 222 222 223 223 
222 222 222 223 226 227 228 226 227 228 228 229 230 229 230 230 
231 231 230 229 231 231 231 230 231 233 230 230 231 227 230 230 
228 223 230 233 232 230 231 231 230 232 233 235 224 165 178 233 
234 235 235 235 234 234 237 235 235 236 238 240 240 242 242 241 
241 241 242 217 215 217 216 219 218 218 216 215 217 217 216 218 217 217 218 219 
219 219 222 216 140 183 222 221 222 222 220 224 222 223 223 222 
223 221 221 219 223 227 227 223 229 226 224 227 229 227 229 230 
230 231 230 228 230 229 231 229 232 230 229 229 230 230 228 229 
228 228 230 230 230 230 231 230 229 230 232 224 178 175 234 237 
234 234 234 234 234 234 235 236 235 235 238 238 239 241 241 241 
239 240 242 217 218 218 216 215 215 215 214 215 215 217 216 218 216 218 216 219 
217 219 221 222 214 139 166 217 227 222 219 220 223 222 222 222 
222 221 221 220 222 225 225 225 226 226 226 226 228 226 226 228 
229 227 228 229 231 231 230 230 232 230 230 229 228 228 230 230 
231 228 227 226 228 228 228 228 232 231 219 172 183 234 235 235 
234 233 234 235 234 233 233 236 235 236 238 237 240 240 240 241 
240 240 241 216 214 216 214 216 217 215 213 215 215 215 217 217 218 218 218 215 
219 218 219 220 222 230 152 152 221 226 223 220 221 222 222 222 
222 222 220 220 221 224 225 225 224 225 226 224 225 225 225 228 
228 227 228 227 227 230 230 230 229 228 227 227 227 228 228 231 
232 231 224 224 225 226 225 225 230 213 164 185 231 234 233 234 
234 233 235 233 231 231 231 233 234 234 236 237 239 239 239 239 
241 239 240 215 216 215 216 215 214 216 217 214 214 218 216 217 217 217 217 217 
215 216 217 218 218 221 227 175 144 200 224 221 221 219 220 220 
221 223 222 223 223 224 223 223 224 222 223 222 222 223 222 223 
227 226 224 227 230 229 231 229 228 227 228 227 229 225 226 230 
230 228 227 223 223 229 228 222 198 159 198 235 232 232 233 233 
233 233 233 232 231 232 231 232 232 236 235 236 237 239 239 239 
239 234 237 216 216 216 215 216 215 215 213 215 216 216 215 215 216 218 215 218 
218 218 218 219 218 216 216 222 207 141 176 214 222 221 222 221 
222 221 219 222 221 222 222 222 223 221 219 220 222 222 221 221 
223 223 226 225 226 226 226 227 226 225 228 225 226 225 227 228 
231 229 225 223 224 223 199 186 162 218 232 230 230 230 228 230 
232 233 231 232 231 231 231 231 232 232 237 237 236 237 238 240 
237 237 237 213 214 214 214 214 214 217 214 214 214 216 215 215 218 214 216 214 
216 217 218 215 216 215 216 217 222 216 173 132 212 220 221 224 
221 223 221 221 219 220 221 222 220 219 221 221 220 221 220 220 
221 222 224 225 225 228 226 226 224 226 224 223 223 223 228 229 
230 231 230 225 219 194 148 190 228 228 229 227 228 230 232 230 
233 234 233 231 230 229 228 230 231 231 232 236 237 234 236 235 
238 235 238 214 214 215 215 213 213 213 215 212 212 213 214 211 216 215 216 217 
218 217 217 216 216 217 216 215 218 219 222 201 151 159 196 198 
223 222 223 218 222 220 221 222 222 218 221 221 219 219 220 221 
222 222 223 223 223 222 223 225 224 224 223 223 222 225 229 228 
224 191 220 177 145 188 217 227 226 225 225 227 226 228 230 231 
231 231 232 232 230 229 229 230 231 232 233 234 236 236 236 236 
235 238 237 214 214 213 213 214 213 213 212 210 212 212 215 218 215 215 215 212 
215 215 215 215 217 215 216 217 218 215 216 219 217 197 117 113 
162 179 219 222 228 226 227 226 224 222 221 219 220 219 219 218 
221 221 222 222 222 222 222 226 226 224 225 228 230 228 222 206 
166 129 156 170 218 227 228 224 224 223 226 226 224 228 230 230 
230 232 230 231 229 229 229 231 233 231 231 235 234 237 235 237 
236 237 237 214 212 215 214 215 214 213 214 214 214 211 212 213 213 214 217 216 
215 215 215 215 217 214 214 213 217 214 214 215 217 219 221 193 
165 184 152 163 165 212 220 220 224 223 223 220 221 220 220 219 
220 221 222 224 223 225 229 229 229 230 223 200 209 179 147 161 
206 221 229 225 226 226 224 223 223 224 222 224 226 226 229 229 
230 229 231 230 230 229 229 229 230 229 231 232 233 234 235 234 
236 235 235 213 214 213 212 213 213 213 214 214 214 213 211 211 214 214 215 214 
214 216 215 215 214 214 216 216 215 215 215 213 215 215 217 220 
222 222 219 196 165 118 112 132 167 184 216 217 215 216 216 217 
219 218 217 215 222 213 204 187 169 157 156 152 166 189 213 223 
220 224 224 223 223 225 223 225 223 221 222 222 225 226 227 228 
229 228 229 229 229 229 228 228 230 229 232 230 232 232 234 236 
237 234 234 213 213 214 211 213 212 215 213 212 212 212 213 212 212 213 212 212 
212 213 215 217 216 213 214 215 215 214 213 214 215 216 215 217 
217 216 216 220 218 218 197 183 156 137 120 127 128 157 179 134 
143 155 126 122 133 118 107 131 147 183 199 221 224 222 221 224 
224 220 221 220 222 220 222 222 223 223 221 220 221 224 224 226 
228 230 228 228 228 229 229 229 229 226 227 230 229 232 234 233 
233 233 235 215 212 212 212 211 211 208 213 211 212 211 212 212 213 212 213 216 
213 214 212 214 213 214 214 212 214 217 215 213 216 214 217 214 
214 215 215 215 216 216 217 220 219 221 216 205 194 175 153 170 
150 142 177 181 193 200 214 220 221 220 221 222 219 221 219 219 
221 220 222 221 221 222 223 223 223 223 223 223 221 221 223 225 
226 227 228 227 228 226 225 226 226 228 227 228 229 230 230 231 
234 234 234 212 211 213 212 211 211 210 211 209 212 211 212 212 213 214 213 213 
213 214 211 213 212 213 215 217 214 214 215 214 214 214 213 213 
214 215 215 213 213 214 214 215 217 216 219 218 215 214 215 216 
213 216 209 213 215 213 216 216 217 215 218 219 219 219 219 220 
221 220 220 222 221 220 222 223 225 223 222 220 223 222 223 223 
225 225 224 226 228 226 225 226 228 226 226 227 226 228 228 229 
233 236 234 211 213 213 213 213 209 211 211 213 210 211 210 209 213 213 213 213 
214 214 213 212 213 212 214 212 213 214 214 214 214 214 214 213 
213 212 214 213 216 216 215 214 213 213 213 211 215 215 213 214 
215 214 210 211 213 210 212 212 211 213 217 217 218 219 221 222 
221 221 218 221 222 221 223 223 224 221 220 221 222 222 222 223 
225 224 224 222 224 225 224 226 227 225 225 226 224 225 225 224 
226 231 231 211 211 212 213 212 211 208 213 213 211 210 210 212 213 212 213 214 
213 213 212 213 212 212 214 214 215 212 213 213 214 215 215 214 
213 212 214 214 216 216 214 214 214 214 213 213 214 213 214 213 
214 213 211 213 214 214 213 211 214 214 214 216 217 219 222 220 
221 220 222 223 221 222 222 222 222 223 222 221 224 222 222 220 
222 222 222 221 222 223 224 224 225 224 223 224 228 224 222 222 
224 221 224 211 212 212 210 211 211 211 211 211 210 211 210 211 213 213 212 211 
211 208 209 212 212 210 211 213 213 212 212 214 213 213 214 212 
209 213 214 214 216 215 214 215 214 214 216 214 212 213 216 215 
213 213 214 214 214 212 210 213 214 214 215 213 217 217 219 220 
220 220 219 220 220 222 222 221 221 221 222 218 222 224 222 220 
222 224 224 221 222 223 222 222 223 224 226 225 226 223 224 224 
225 220 228 210 209 210 209 208 209 210 211 210 208 210 209 212 212 210 211 211 
212 211 211 211 211 209 207 212 211 211 211 210 210 210 209 215 
210 211 213 213 215 212 216 216 217 215 215 217 217 217 216 219 
217 217 213 218 219 218 217 216 216 217 217 217 219 220 219 220 
222 221 220 219 222 222 221 224 223 225 221 220 222 225 223 226 
227 226 224 222 222 222 225 225 223 220 224 230 232 234 236 234 
232 232 231 