P2
# Created by IrfanView
100 100
255
206 203 206 206 204 204 207 205 204 203 205 206 206 205 205 205 205 
205 205 204 204 204 204 204 207 205 205 205 202 204 204 206 204 
202 205 205 205 207 203 203 204 204 206 204 206 207 209 204 207 
208 207 205 203 207 206 204 206 207 206 203 204 205 204 205 204 
204 202 198 202 202 203 202 202 201 202 202 201 199 200 200 200 
201 201 203 202 203 203 203 204 200 203 204 205 204 203 203 205 
205 204 202 205 207 207 204 203 206 204 204 204 204 207 206 206 206 206 205 203 
208 206 205 206 206 204 207 203 206 206 205 205 205 204 205 204 
202 203 202 205 205 205 207 205 206 206 205 204 204 203 206 205 
204 206 207 206 208 207 207 204 203 206 205 204 207 209 203 203 
204 204 200 203 204 203 202 202 202 203 204 203 202 200 201 201 
202 202 201 203 203 203 204 203 204 203 203 203 204 202 200 204 
205 205 205 207 208 206 207 206 206 206 205 206 206 207 208 206 207 208 207 205 
204 208 207 206 207 207 207 205 205 206 205 207 204 203 201 205 
206 205 204 204 203 204 204 205 205 205 206 206 206 202 206 205 
205 207 207 206 206 206 207 207 205 206 207 206 206 207 205 204 
205 203 203 204 203 205 202 203 203 202 203 203 202 203 203 203 
203 200 205 203 203 204 202 202 201 203 204 202 204 206 205 202 
203 205 206 209 206 209 209 207 206 207 209 208 208 208 207 209 205 207 207 206 
207 207 207 205 205 206 207 205 205 205 204 206 207 206 206 203 
204 203 204 205 203 205 205 204 204 204 205 205 205 206 204 207 
208 206 205 207 205 205 205 206 204 205 203 204 204 206 206 203 
202 202 203 205 204 203 203 204 205 204 205 202 204 202 202 201 
205 203 202 202 204 203 204 203 203 203 202 204 203 203 201 203 
203 204 206 209 208 207 208 208 210 209 209 209 209 208 209 208 210 208 208 209 
209 208 207 208 208 208 208 207 207 205 207 206 207 207 204 205 
205 205 206 211 207 204 204 205 202 204 205 202 202 204 204 204 
200 206 206 206 205 205 206 205 204 204 203 203 204 206 207 207 
202 205 204 202 204 205 205 206 205 205 206 205 203 202 204 201 
202 204 203 205 204 203 203 203 204 204 204 202 204 203 202 203 
204 205 205 210 208 206 209 210 211 210 210 209 209 209 208 209 208 205 209 209 
211 208 207 207 206 206 208 207 204 207 206 206 208 205 205 203 
204 204 203 202 204 204 204 204 206 203 202 202 203 203 203 203 
204 202 204 204 204 203 203 202 203 204 204 204 202 204 203 202 
204 204 203 207 205 204 204 205 204 205 206 205 203 206 204 203 
206 206 204 207 205 203 207 208 204 207 204 204 205 204 204 206 
204 204 203 209 209 211 211 212 212 209 210 208 209 209 208 209 210 210 210 209 
211 208 207 206 207 207 208 206 205 206 208 207 206 204 203 204 
205 205 205 204 206 205 205 204 203 205 204 203 203 202 203 206 
206 206 204 204 204 203 204 204 199 203 202 203 204 204 204 205 
205 206 205 204 204 207 205 205 206 205 205 205 206 205 204 203 
205 207 207 204 208 207 205 206 206 208 205 204 203 203 204 203 
206 205 203 211 212 210 210 210 211 209 210 210 208 209 209 208 210 210 209 208 
212 209 208 209 207 208 206 207 207 204 208 204 207 205 203 204 
206 207 207 205 206 203 205 206 204 207 205 206 205 200 202 202 
204 202 204 202 204 202 207 204 205 205 205 207 202 204 203 202 
205 205 206 208 206 206 205 207 206 206 203 205 205 205 204 205 
205 205 204 207 204 205 207 204 205 206 205 205 203 204 202 205 
203 205 204 211 207 208 210 211 211 210 209 209 212 210 210 210 209 209 210 210 
211 210 208 209 209 207 209 207 207 206 207 206 206 205 206 208 
206 207 205 205 205 205 205 203 199 191 188 179 175 165 169 160 
155 164 165 165 172 173 175 180 190 194 202 205 203 208 206 205 
205 204 206 205 207 206 206 209 206 205 205 205 204 206 205 206 
206 206 206 206 207 208 206 208 208 207 205 203 204 204 203 205 
204 203 203 211 212 211 209 211 211 209 210 209 210 211 208 210 211 211 211 210 
210 211 207 210 208 210 212 209 209 207 208 206 208 203 207 210 
206 207 211 207 204 188 173 164 161 156 153 157 166 177 183 179 
183 193 190 182 181 179 173 171 163 163 163 172 187 198 206 204 
207 208 206 206 203 205 207 205 206 208 206 209 206 207 209 207 
206 208 209 208 206 206 207 207 208 207 205 204 204 204 205 206 
205 203 203 215 214 211 211 210 210 209 210 210 210 210 210 211 210 211 211 210 
213 212 210 212 211 211 209 209 208 207 207 206 203 204 206 207 
208 199 180 165 150 155 170 194 191 192 200 200 198 205 209 209 
206 209 210 209 211 208 206 206 206 199 196 188 173 155 165 168 
186 206 208 211 207 206 206 207 207 209 208 208 208 206 206 206 
209 208 207 210 208 206 208 209 209 209 206 206 206 206 205 203 
207 205 208 215 215 213 212 213 212 213 211 212 212 211 212 211 213 212 212 212 
212 213 210 213 212 211 211 209 210 207 206 206 208 206 202 191 
171 162 170 187 196 202 206 206 207 205 206 207 206 205 207 207 
206 208 210 209 206 208 208 206 206 206 205 208 209 204 196 183 
161 158 181 204 212 209 209 208 206 207 209 209 209 209 208 209 
208 209 209 210 207 209 207 208 210 207 205 205 206 205 205 202 
204 207 206 215 215 212 214 213 211 211 211 212 211 211 212 212 211 213 213 211 
213 213 212 213 212 213 214 211 209 210 209 211 205 191 161 161 
186 198 204 211 209 210 210 207 207 206 207 206 207 206 207 206 
207 205 211 208 207 207 208 206 209 207 205 203 207 209 207 206 
203 195 173 149 167 195 209 209 210 208 208 208 210 208 209 209 
207 207 208 209 208 209 208 207 209 207 206 207 206 206 203 206 
204 205 205 216 216 212 213 213 211 211 211 211 212 212 211 211 212 211 212 213 
213 212 212 209 212 208 210 213 208 212 211 193 159 173 195 206 
212 211 210 211 209 209 209 209 207 207 207 209 209 208 207 208 
208 209 211 209 209 209 207 208 209 207 209 207 207 206 208 207 
207 207 207 199 170 149 184 203 209 210 207 208 210 209 210 209 
209 209 208 210 211 210 208 209 209 207 207 205 206 204 205 207 
208 206 206 214 215 211 213 213 213 214 213 211 212 213 212 213 212 213 212 214 
215 211 211 211 212 208 211 211 212 197 168 163 198 207 210 211 
210 209 210 212 209 211 210 209 209 211 210 209 209 208 209 207 
208 210 211 209 210 207 208 207 209 207 210 208 208 208 206 207 
206 206 206 208 208 187 163 160 188 208 212 211 210 213 209 209 
210 209 208 208 208 209 209 210 210 207 207 207 207 208 209 207 
206 206 206 218 215 215 213 213 213 212 214 213 212 212 212 214 212 214 212 214 
213 213 211 211 210 210 210 210 183 169 183 210 213 211 212 210 
211 210 208 209 210 210 211 209 210 211 211 212 211 211 212 211 
210 209 210 210 210 208 209 208 208 209 206 207 209 209 208 210 
209 208 208 206 208 210 204 182 151 159 205 212 211 210 210 212 
210 210 211 209 208 210 208 210 210 209 208 209 208 205 207 209 
208 206 208 214 215 215 214 215 213 213 214 213 212 212 212 212 212 213 213 213 
213 215 213 213 212 212 200 169 183 208 211 214 213 212 212 212 
211 212 212 213 212 212 213 211 211 212 214 213 211 212 211 212 
211 211 213 212 211 208 210 213 210 212 210 209 210 209 210 210 
210 208 211 210 210 209 211 213 207 169 143 196 213 214 210 210 
212 210 209 210 211 208 210 210 210 207 209 208 207 208 207 209 
209 208 206 215 216 215 215 215 214 213 214 215 212 213 211 213 211 211 211 212 
214 212 211 210 212 188 168 195 210 216 215 212 215 213 213 213 
214 214 212 211 213 214 212 213 214 212 214 213 213 211 211 211 
211 211 212 213 211 213 212 209 212 213 211 211 210 211 209 211 
209 213 209 211 211 211 211 210 212 211 158 137 196 212 215 211 
211 211 212 211 211 212 212 209 211 208 208 209 209 209 211 208 
209 208 207 214 216 216 215 214 212 213 213 214 213 214 213 213 213 212 214 214 
213 213 214 216 180 172 203 215 214 214 213 214 213 211 215 212 
213 214 214 214 212 214 215 215 214 214 215 214 214 213 213 213 
212 212 212 213 213 211 213 212 211 211 212 211 212 211 211 211 
211 210 212 211 211 210 211 209 209 209 211 163 144 158 209 211 
213 211 211 211 209 212 211 213 212 210 209 209 210 211 209 209 
210 207 210 216 217 217 214 214 215 213 214 212 213 215 213 212 213 214 214 213 
213 215 210 171 178 207 214 215 214 215 214 216 215 215 215 215 
213 216 213 215 215 214 214 214 214 212 214 213 212 215 213 212 
213 213 212 214 215 213 213 213 214 212 213 211 213 215 212 212 
212 214 213 212 212 213 214 210 209 210 213 213 207 156 148 207 
215 212 211 211 212 211 212 212 212 212 211 211 212 212 212 210 
210 210 212 216 216 216 216 216 215 217 214 215 215 214 215 214 213 214 214 216 
216 207 168 185 215 215 216 217 216 217 214 214 215 214 213 214 
215 215 217 216 214 216 213 215 213 213 213 213 214 214 214 215 
214 214 213 213 214 212 213 212 213 213 214 213 213 212 212 214 
214 215 214 213 214 214 212 211 214 213 212 213 216 208 148 148 
201 211 213 210 213 213 212 212 212 212 213 213 212 212 211 212 
210 212 210 215 217 217 216 216 216 217 216 214 215 213 216 215 213 212 215 217 
214 165 180 210 217 218 215 217 217 217 216 216 216 215 216 215 
215 216 215 216 215 215 216 215 214 214 214 214 214 214 215 214 
212 214 214 215 214 213 214 213 214 214 215 214 214 214 214 214 
214 215 214 213 214 214 213 213 212 211 213 213 212 213 205 135 
136 204 215 213 212 211 213 213 212 211 211 211 215 210 211 211 
212 211 213 217 217 218 217 216 215 216 215 215 213 216 217 216 212 214 215 212 
167 185 211 217 218 218 218 216 218 218 217 216 215 217 216 215 
215 216 216 216 214 214 215 216 217 216 215 214 215 214 216 215 
216 214 213 213 214 215 214 214 214 214 213 215 215 213 215 214 
215 214 214 213 215 215 214 212 213 212 212 214 214 211 212 210 
150 129 206 214 214 213 213 212 212 213 213 212 214 214 212 212 
211 212 214 216 217 216 217 217 215 214 215 215 216 216 215 215 213 213 214 173 
184 214 217 218 217 217 218 218 217 220 219 215 217 215 216 216 
215 216 217 220 217 217 216 217 215 214 215 216 216 217 216 215 
215 214 213 214 215 217 215 215 214 214 214 214 216 215 215 214 
214 215 215 214 213 215 215 215 215 213 212 210 213 213 211 215 
213 145 146 205 212 212 213 214 212 213 211 213 213 214 213 213 
214 212 214 216 217 217 215 215 218 216 219 215 216 215 217 216 216 212 178 175 
213 220 219 220 219 218 217 218 219 220 220 217 216 216 215 213 
215 217 217 216 216 216 216 216 216 216 216 214 216 218 216 216 
216 215 215 216 216 216 214 214 214 215 213 214 215 215 215 214 
216 214 214 214 214 216 216 215 214 214 212 213 212 213 213 211 
215 210 139 153 211 214 212 213 213 213 216 215 214 213 214 213 
212 213 214 218 217 217 218 217 216 216 218 216 216 217 216 215 216 187 183 213 
218 217 217 219 217 218 219 220 219 220 220 219 216 217 216 217 
217 218 216 217 218 218 217 216 217 216 216 216 216 216 216 217 
213 215 216 217 216 216 213 215 216 215 215 215 216 214 216 217 
216 215 214 218 214 213 215 214 213 217 215 213 216 213 215 213 
214 216 198 109 177 217 216 214 213 216 213 213 213 215 217 214 
215 213 213 218 218 218 218 220 216 216 215 216 215 216 215 216 196 182 218 220 
217 218 219 218 219 219 218 218 218 221 219 220 217 216 217 216 
216 218 218 219 216 218 217 216 218 217 217 215 217 215 216 216 
216 216 215 214 215 215 217 216 217 216 215 216 215 214 216 214 
215 215 214 216 214 215 214 216 216 214 216 213 214 213 214 213 
214 213 220 176 98 194 218 215 213 214 216 214 215 215 214 214 
216 214 212 218 218 219 217 216 218 217 216 216 219 219 215 213 173 201 219 219 
217 219 217 219 219 220 219 219 218 219 219 218 218 215 218 216 
218 217 218 218 218 217 218 218 218 216 217 216 216 217 217 215 
215 216 216 216 215 215 216 216 216 215 216 215 216 214 215 215 
215 215 216 215 216 214 216 214 213 214 215 215 214 215 216 214 
215 214 215 213 125 118 211 216 216 215 216 216 215 216 215 216 
215 216 216 217 218 218 219 219 219 217 215 216 216 218 218 182 195 215 217 217 
218 219 219 219 220 220 220 218 219 218 218 218 218 218 216 219 
218 218 218 218 218 218 218 218 216 218 220 218 218 216 217 216 
216 217 216 216 217 218 215 214 216 215 216 216 215 216 215 214 
215 213 215 214 216 216 216 217 216 214 216 214 216 216 216 216 
215 215 216 217 208 120 168 219 218 217 216 216 216 216 216 217 
216 215 216 218 219 218 217 216 218 215 215 217 218 216 202 189 217 218 219 218 
217 218 218 216 217 220 218 219 219 219 218 220 220 218 218 218 
220 219 220 217 218 218 219 218 219 219 218 220 219 218 217 215 
215 217 217 216 217 215 216 216 216 216 215 217 215 216 215 216 
215 216 215 217 217 218 216 215 217 216 217 215 215 217 216 214 
216 216 215 216 220 189 136 203 218 216 218 216 217 215 215 216 
216 216 216 219 220 218 216 216 218 217 215 217 216 212 187 217 221 217 218 219 
218 217 218 215 214 216 217 219 220 217 217 217 220 219 211 200 
200 217 218 220 217 220 219 219 218 218 220 219 218 218 217 218 
218 218 218 217 216 216 217 216 218 216 216 215 217 216 217 215 
214 215 216 216 216 219 218 218 216 216 217 218 216 217 218 213 
215 216 218 215 216 218 172 173 216 216 216 218 217 218 216 216 
216 217 217 219 218 218 217 217 217 215 215 214 217 193 197 218 217 216 218 216 
217 216 217 215 216 217 216 216 216 217 216 218 219 211 168 134 
118 204 220 218 218 219 219 219 219 219 219 218 217 216 218 217 
217 217 216 217 216 217 217 217 215 216 218 215 217 217 216 214 
214 216 210 184 181 187 219 215 217 216 216 216 216 217 218 217 
216 215 217 216 216 218 206 154 205 216 216 218 217 218 218 219 
219 217 217 219 220 220 219 218 218 217 216 216 214 182 219 217 218 217 218 218 
218 218 218 217 216 216 217 218 218 217 216 217 217 195 141 118 
92 112 212 218 219 219 220 221 220 219 220 219 217 219 216 218 
218 217 218 217 217 219 218 216 215 215 216 217 217 218 216 215 
213 192 160 140 133 145 199 217 217 217 216 217 216 216 217 218 
217 218 216 217 217 217 221 181 164 218 218 217 218 216 217 218 
217 217 218 217 217 218 218 219 217 218 217 217 189 199 216 219 218 218 217 218 
217 217 217 215 214 215 218 217 217 217 217 217 207 160 131 111 
96 91 165 221 219 218 218 219 219 218 221 219 219 219 218 218 
219 218 218 217 219 218 218 215 220 217 217 215 217 219 217 214 
207 167 140 128 100 116 161 213 218 217 218 218 218 218 217 215 
218 217 219 218 219 217 216 214 147 207 217 218 217 219 217 217 
217 219 217 218 217 218 217 218 217 215 216 211 176 213 218 218 217 218 217 217 
218 216 218 217 216 214 216 218 218 219 216 219 185 147 126 118 
107 97 142 219 219 220 221 221 219 220 221 219 219 219 221 219 
219 218 219 219 219 219 219 218 217 217 217 217 217 218 220 214 
196 150 137 124 114 117 167 215 218 217 217 218 219 218 219 217 
218 219 219 219 219 217 215 218 162 176 217 218 219 219 221 218 
219 219 218 218 217 218 217 217 216 216 215 176 192 216 218 218 218 217 218 217 
216 218 217 217 218 216 217 218 217 219 216 216 167 144 132 122 
106 103 150 216 219 218 218 220 220 221 221 219 219 220 219 217 
218 218 218 219 220 218 218 216 219 219 216 217 217 219 217 214 
176 143 131 132 146 114 182 215 219 221 218 218 218 220 219 219 
218 218 218 218 218 218 218 217 196 159 218 217 220 219 219 219 
220 219 218 216 221 218 218 217 219 217 198 147 211 217 218 216 217 217 217 216 
217 218 218 218 218 219 218 219 218 218 220 211 172 141 119 112 
111 123 159 217 218 219 221 222 219 221 220 219 219 220 221 220 
219 219 219 217 218 219 219 219 218 218 218 217 216 217 217 213 
168 142 120 133 118 121 199 218 219 218 219 219 219 220 219 219 
218 220 218 218 219 219 217 217 218 159 200 215 217 219 218 218 
219 219 219 216 218 217 217 216 215 213 155 162 216 218 217 219 217 217 219 218 
218 217 218 219 217 216 218 218 218 219 218 209 161 134 128 115 
115 124 178 219 220 219 219 220 221 220 222 220 221 220 219 220 
220 219 217 219 217 218 218 217 217 218 218 218 217 216 216 205 
166 125 112 130 119 148 213 218 219 219 219 218 220 219 218 220 
219 220 218 219 219 220 218 219 221 180 181 217 218 219 220 219 
219 219 216 215 217 216 214 215 215 213 143 198 216 217 218 216 217 217 216 216 
217 218 216 218 219 218 217 219 219 220 218 206 158 130 118 102 
113 123 206 221 220 219 219 221 220 220 221 221 221 222 223 219 
219 219 220 218 219 219 219 218 220 219 217 218 218 217 215 198 
155 116 111 107 113 168 215 220 219 219 219 220 219 219 218 219 
219 219 219 219 219 218 219 218 216 203 163 212 220 220 219 219 
219 219 221 217 216 217 213 213 213 210 157 216 218 218 216 217 217 218 219 218 
218 219 219 221 218 219 218 216 218 220 219 207 157 124 106 110 
112 163 214 219 219 220 221 220 221 221 221 221 220 222 220 220 
220 218 218 219 219 218 218 220 219 219 218 221 219 217 218 194 
141 105 102 101 114 195 220 219 219 219 219 220 219 220 220 219 
219 219 219 219 220 220 219 219 218 214 172 200 218 218 220 220 
221 218 220 214 218 216 214 213 212 186 171 220 218 218 218 217 217 219 219 218 
218 218 217 220 218 217 218 218 218 221 215 205 150 120 89 104 
116 185 220 219 219 220 220 220 220 221 221 223 223 222 222 222 
221 222 219 219 219 218 218 219 218 219 218 220 219 219 218 201 
126 99 78 100 142 214 220 219 220 221 220 221 220 219 219 220 
220 220 220 219 221 222 219 220 219 219 181 193 220 220 221 218 
220 220 219 216 214 216 214 213 216 169 198 218 217 217 216 218 218 218 217 219 
219 219 219 220 218 219 219 219 219 221 218 202 137 112 75 95 
123 199 217 220 221 219 220 219 221 219 220 220 221 223 222 220 
221 220 219 220 219 220 220 219 220 218 218 218 219 220 218 207 
112 82 61 99 174 217 220 220 221 221 220 220 220 220 220 221 
218 221 220 219 222 221 220 219 221 218 192 192 220 220 220 221 
220 220 221 216 217 216 216 215 209 168 210 219 218 217 218 217 215 219 219 219 
219 218 219 219 218 219 218 219 223 222 218 210 139 115 74 87 
160 212 220 220 220 222 220 221 220 219 218 218 221 222 224 222 
220 221 220 220 219 220 219 218 219 218 222 221 221 221 218 214 
109 84 96 130 211 220 222 221 220 221 220 221 221 219 219 219 
220 220 220 218 222 220 221 219 220 219 190 185 216 219 220 220 
220 220 220 215 218 215 216 212 212 160 218 216 217 218 219 218 218 218 219 218 
218 219 219 220 220 219 220 219 219 218 219 217 165 112 91 109 
192 219 218 219 220 219 219 218 216 219 220 219 220 221 223 221 
222 218 220 221 221 221 220 220 221 220 220 221 222 222 222 223 
130 84 133 190 218 221 220 220 219 221 221 221 220 220 221 221 
221 220 220 221 222 221 221 220 218 218 193 175 213 220 220 220 
220 221 220 214 214 215 215 213 211 163 219 218 218 217 218 218 218 219 219 219 
218 218 218 219 219 218 220 219 218 220 221 224 217 202 181 157 
211 219 220 220 221 220 222 221 223 221 220 222 221 220 223 224 
221 220 220 220 220 219 220 219 217 220 221 220 219 220 220 221 
212 143 179 215 221 221 221 221 223 220 220 220 220 220 222 221 
221 220 222 221 221 220 220 219 220 221 204 163 212 218 220 222 
222 219 220 214 213 214 215 213 204 171 215 219 217 218 218 217 218 219 219 219 
220 218 221 220 218 220 219 220 218 220 218 221 223 223 217 212 
219 220 220 221 222 219 220 222 220 222 220 221 220 220 222 222 
222 221 220 222 221 221 218 221 219 221 222 221 222 220 220 220 
222 219 217 221 221 222 221 222 219 222 221 220 221 221 222 222 
220 220 221 219 222 222 222 222 216 221 206 171 214 220 220 221 
221 221 221 215 215 215 215 214 193 181 217 217 219 217 217 217 218 219 219 218 
218 218 219 218 219 218 220 219 220 220 219 220 219 221 221 225 
222 222 220 220 221 220 220 220 221 221 221 221 221 222 220 221 
222 223 220 219 221 221 223 222 220 222 220 220 221 220 220 221 
221 224 222 221 222 221 220 220 222 221 220 222 221 221 223 222 
222 219 222 220 220 221 221 219 218 219 213 168 209 221 221 221 
219 221 221 214 215 215 214 215 176 181 219 219 217 216 218 217 219 217 219 219 
219 219 219 220 220 219 220 220 220 219 222 220 218 219 220 220 
221 220 219 221 219 219 220 221 220 221 222 222 222 223 222 223 
222 222 222 222 221 220 219 222 220 220 220 221 222 222 221 222 
220 222 222 222 220 221 221 222 220 221 221 219 221 222 222 221 
220 221 222 220 220 220 220 219 218 221 215 176 198 222 220 222 
222 221 221 215 214 214 214 215 165 183 218 219 219 219 218 216 219 219 220 218 
219 219 219 220 218 218 221 218 219 223 219 220 221 220 221 221 
220 221 222 220 221 221 220 220 220 220 221 220 222 221 222 222 
222 221 220 221 221 221 222 221 222 220 221 222 221 220 221 222 
220 219 220 221 220 220 222 222 223 222 223 223 222 221 222 220 
222 222 220 219 222 220 221 220 218 218 214 176 198 220 222 222 
222 221 222 213 215 217 214 215 168 195 218 218 219 217 219 218 220 218 220 220 
219 219 219 218 218 218 218 219 220 220 220 220 221 222 221 221 
222 221 221 221 220 221 221 221 221 220 221 221 218 219 222 222 
222 224 222 220 222 223 222 222 222 223 221 221 222 221 222 222 
221 222 222 220 221 222 222 222 221 223 221 222 222 222 223 224 
221 222 220 219 219 220 219 220 219 219 217 175 194 222 222 222 
221 221 221 217 219 215 216 216 179 193 220 218 219 217 218 219 218 218 219 219 
218 219 220 220 216 218 219 221 220 221 220 219 220 220 219 221 
221 221 221 221 221 220 221 220 221 222 221 222 222 221 221 220 
221 221 221 221 221 222 221 219 220 222 221 222 222 223 222 222 
221 220 221 222 222 222 220 222 219 221 224 222 222 223 224 222 
224 223 221 217 220 217 219 219 218 219 217 178 204 220 221 223 
223 222 222 216 217 217 218 214 173 200 220 218 219 219 219 219 219 220 219 219 
218 218 216 219 219 216 219 220 221 220 220 221 220 220 221 223 
222 221 220 221 221 221 221 222 222 222 221 220 221 221 221 219 
221 223 221 222 222 221 222 223 222 221 223 221 223 222 222 222 
222 221 221 221 220 221 222 222 223 221 221 222 222 221 223 222 
220 222 222 223 220 220 221 219 221 220 216 185 206 221 222 223 
224 221 222 215 215 217 217 216 187 198 220 219 218 220 218 219 220 220 218 219 
218 218 218 219 219 218 217 219 219 219 220 219 219 220 221 222 
223 222 223 222 221 222 222 220 221 221 222 222 221 221 221 220 
222 221 221 220 221 222 222 221 223 222 222 221 221 221 221 221 
221 222 222 223 221 223 221 222 221 222 221 222 223 223 226 222 
221 220 219 219 218 220 218 219 220 220 217 181 206 224 221 222 
222 220 220 216 215 216 216 215 191 188 221 219 218 218 218 219 218 220 220 219 
219 219 220 219 218 217 218 220 220 220 220 220 222 221 222 223 
223 222 220 224 223 221 221 222 223 222 223 222 222 220 222 222 
222 221 222 222 223 223 221 223 222 221 222 222 221 222 222 223 
223 222 221 222 222 221 221 221 220 219 223 223 222 222 223 223 
222 222 223 223 220 219 219 219 221 219 216 179 215 222 221 223 
223 221 221 215 215 216 215 215 199 175 221 219 219 219 220 220 220 220 218 218 
217 219 218 219 216 218 217 220 221 220 220 219 220 221 221 221 
222 223 223 225 222 223 222 222 223 221 223 222 221 222 221 220 
221 222 222 221 222 222 222 221 222 221 222 221 221 223 224 222 
221 221 221 222 223 222 222 221 223 221 221 222 221 221 223 222 
220 220 220 219 221 222 221 219 220 221 210 178 214 222 221 221 
220 221 222 215 216 215 215 214 201 161 219 220 220 221 221 219 218 218 218 219 
220 219 219 217 218 217 221 222 221 220 221 218 219 220 224 222 
223 223 224 225 222 222 222 221 221 222 223 221 222 222 221 220 
222 223 222 222 222 222 222 220 222 222 223 222 221 222 221 222 
223 221 221 221 222 221 221 222 221 220 222 222 222 222 222 221 
220 222 222 220 221 221 221 219 222 222 212 185 211 221 222 222 
222 222 221 215 216 216 216 215 217 165 220 221 220 219 218 220 220 218 218 219 
220 220 220 221 218 218 220 219 220 221 221 219 221 223 224 224 
223 225 224 225 223 222 222 223 222 222 224 223 221 222 223 221 
221 220 222 222 222 222 222 223 222 221 222 223 222 221 222 222 
222 223 221 222 221 222 220 222 221 222 222 222 223 223 223 222 
221 221 220 221 220 220 222 221 222 223 212 184 216 222 221 222 
223 221 220 214 213 216 215 215 218 163 218 219 219 221 220 220 221 221 221 221 
219 219 221 221 219 218 222 222 220 220 222 223 223 223 225 224 
225 224 223 223 223 223 222 223 223 222 222 222 222 222 223 222 
222 221 222 222 221 223 220 222 221 223 223 222 222 223 222 222 
222 223 223 221 222 220 221 220 221 221 222 223 221 221 221 223 
222 221 222 220 221 222 223 222 222 221 206 185 217 221 223 222 
222 223 223 216 216 216 215 216 214 168 214 217 219 219 223 220 219 220 222 219 
221 220 221 220 220 221 221 221 221 222 223 221 224 223 223 224 
223 224 223 224 224 223 223 223 222 223 223 225 223 222 223 222 
222 222 222 221 222 221 223 222 221 223 222 222 222 222 221 222 
220 223 222 222 222 221 221 222 222 221 221 220 221 223 223 223 
223 223 223 221 221 222 221 222 223 220 197 200 220 220 222 223 
223 223 222 214 215 218 214 215 215 181 196 217 217 220 219 220 219 219 220 221 
220 221 219 221 221 222 222 222 221 219 222 224 222 225 224 224 
224 225 225 224 225 223 222 223 222 223 223 224 221 223 222 222 
222 223 223 222 223 223 222 221 221 222 222 224 221 222 221 222 
222 221 221 221 221 221 221 220 221 222 222 223 222 222 221 221 
223 221 222 223 219 220 222 223 223 217 181 206 221 221 222 222 
223 223 222 217 217 216 214 217 215 195 175 215 217 220 222 220 222 221 221 222 
221 220 221 222 221 222 222 222 222 220 221 223 223 223 224 223 
225 224 225 225 226 223 223 223 223 223 225 224 222 221 221 222 
223 221 223 221 221 221 222 221 223 223 222 222 222 221 221 222 
222 222 222 222 221 222 222 223 223 222 220 220 222 222 221 221 
222 223 222 222 222 221 220 223 222 217 183 210 220 222 222 223 
223 225 224 217 216 217 215 217 217 211 163 217 216 218 220 222 222 222 221 220 
221 224 221 221 222 221 222 223 223 220 223 223 223 224 224 224 
224 224 225 225 222 222 224 223 223 224 224 224 222 222 222 223 
222 222 221 221 222 222 221 222 222 222 223 223 222 220 221 223 
222 221 222 222 221 222 221 221 220 222 223 223 222 221 222 222 
221 221 221 221 223 219 221 222 220 212 187 218 221 222 221 222 
222 224 222 216 216 216 218 218 217 216 153 212 219 220 221 223 221 221 222 222 
220 222 221 220 220 223 223 222 223 223 224 224 221 222 225 225 
223 225 225 225 223 223 220 223 224 223 223 222 222 223 222 221 
221 222 222 222 223 222 222 221 222 223 223 223 222 221 221 221 
222 222 222 220 221 219 221 221 223 221 221 220 220 223 221 221 
221 222 222 223 223 223 222 223 221 189 192 219 221 222 222 220 
223 222 224 216 215 216 216 217 216 215 176 182 218 219 221 221 222 221 220 221 
220 222 221 222 222 222 223 223 223 223 223 223 223 223 223 223 
222 223 223 225 223 223 226 224 223 222 221 222 222 222 222 221 
222 223 222 221 222 222 220 222 223 224 222 221 222 221 221 221 
220 220 222 222 221 221 221 223 221 221 222 220 220 222 221 222 
220 223 222 223 221 221 223 222 218 187 208 222 222 221 221 223 
222 222 222 215 216 216 216 215 217 219 203 147 222 219 218 219 223 220 221 221 
221 221 222 221 221 221 223 223 223 223 223 223 222 225 225 226 
223 224 224 223 222 222 222 222 223 222 220 224 223 223 223 222 
224 220 222 222 222 219 220 221 221 223 220 218 221 219 221 221 
220 221 221 220 219 222 221 219 220 221 220 219 221 221 221 221 
223 220 222 222 222 221 224 222 207 177 216 221 220 222 221 219 
222 222 223 217 216 217 216 215 215 214 216 140 209 220 215 219 220 221 220 222 
220 219 221 221 222 222 223 224 223 223 224 223 224 224 223 225 
225 227 222 222 224 223 223 223 223 222 222 222 222 221 221 222 
222 219 219 221 220 222 219 219 221 222 222 220 221 221 224 223 
221 218 220 221 221 218 220 220 221 221 220 221 220 221 221 221 
220 221 220 222 220 222 221 218 177 176 216 222 222 220 220 222 
221 222 223 217 215 214 216 215 215 216 217 165 159 217 215 215 218 220 221 219 
222 221 222 220 221 221 222 221 223 223 223 223 223 223 222 221 
223 223 223 223 223 224 222 222 222 221 221 221 221 222 223 224 
222 221 220 220 220 218 219 220 221 221 221 223 221 221 221 213 
220 220 221 220 221 221 220 220 220 220 221 220 220 221 222 222 
220 220 221 220 221 220 221 214 162 196 217 223 222 223 222 222 
221 222 221 214 216 216 216 216 216 217 214 203 125 210 211 215 217 219 219 219 
220 220 219 220 218 220 221 219 220 221 223 222 222 223 223 222 
221 221 225 223 222 221 222 223 221 222 221 220 222 221 223 222 
220 221 220 221 220 222 223 222 223 222 222 216 213 206 183 159 
203 220 221 219 221 221 220 222 220 220 220 220 218 219 220 220 
220 221 221 222 221 221 222 209 162 211 219 219 221 224 223 222 
222 220 222 216 216 216 217 215 215 216 215 215 144 168 215 215 218 217 218 219 
218 218 217 220 217 219 218 220 220 221 222 222 223 224 222 222 
223 222 221 222 222 222 223 222 221 222 222 221 220 221 222 222 
219 219 221 221 224 223 221 225 221 196 177 164 153 154 155 164 
195 222 221 222 221 220 219 221 219 216 218 219 220 218 219 222 
218 219 221 222 223 222 220 172 183 217 222 222 222 222 221 222 
221 221 221 217 217 216 215 216 215 214 215 216 191 130 212 212 215 217 216 219 
219 219 216 218 218 217 219 221 222 221 222 220 218 223 224 221 
221 222 222 221 219 221 223 222 222 223 223 223 219 220 220 222 
221 222 225 225 215 201 179 187 174 156 160 177 192 202 208 217 
218 221 220 220 219 220 220 220 219 219 219 217 219 219 219 219 
220 220 221 221 220 221 212 152 204 216 219 220 221 221 221 220 
222 221 220 216 216 215 217 216 215 216 214 214 213 159 178 214 215 217 215 216 
217 218 219 218 217 218 217 218 220 221 219 220 218 220 221 223 
221 221 222 222 221 221 222 223 222 222 221 221 219 219 221 224 
217 216 206 203 152 143 156 171 191 207 218 222 219 218 221 222 
220 218 220 220 219 220 218 220 221 220 219 220 220 219 219 219 
218 221 221 219 219 225 189 183 218 220 220 220 220 220 220 220 
223 222 221 216 217 216 214 218 215 215 215 215 214 201 140 215 213 215 214 216 
219 218 217 217 220 218 218 219 219 220 221 221 219 220 221 222 
222 221 221 219 220 219 219 222 222 220 220 221 221 218 212 195 
167 158 147 157 176 205 209 222 220 222 223 221 220 220 221 219 
221 221 218 222 220 220 220 220 221 220 220 221 220 219 217 219 
218 218 220 220 219 210 151 208 223 220 219 219 221 220 221 220 
220 220 220 216 214 216 215 216 217 214 212 214 217 220 166 186 217 215 215 216 
213 216 217 216 216 218 219 220 221 220 220 219 219 219 221 218 
221 220 220 221 221 218 219 220 221 222 221 207 201 181 157 155 
165 189 209 220 221 221 221 224 223 221 220 219 219 220 220 220 
219 219 220 217 219 220 220 219 219 219 220 219 220 218 219 219 
219 217 217 216 213 164 180 217 220 220 218 219 220 220 220 220 
222 222 221 216 219 214 216 217 215 215 214 216 214 216 209 146 211 215 214 212 
214 216 215 216 217 218 217 220 219 220 219 221 220 219 220 222 
219 220 220 219 219 221 222 221 219 194 175 162 158 175 197 212 
216 222 220 221 222 221 221 222 222 222 220 221 220 220 221 220 
218 219 219 219 220 219 218 220 220 220 220 220 220 216 219 219 
220 219 218 218 185 167 210 216 219 220 218 218 220 219 219 220 
219 219 221 217 214 214 216 215 214 213 214 214 217 216 215 183 164 216 215 214 
215 216 218 217 218 220 219 218 220 221 219 219 220 220 222 221 
220 220 220 218 215 225 214 188 164 147 158 197 213 221 222 224 
223 222 222 219 222 221 221 221 222 222 223 220 220 220 221 219 
219 219 220 220 219 220 219 218 218 219 219 222 220 219 218 218 
217 220 219 206 165 200 218 220 220 218 220 220 218 219 220 218 
220 222 220 217 216 217 219 215 215 216 215 215 217 216 214 211 143 197 216 214 
213 216 215 216 218 218 219 219 219 219 219 219 221 221 217 218 
220 218 220 221 180 173 160 170 187 209 214 219 222 224 223 220 
221 221 220 220 221 220 221 223 223 222 222 226 222 222 219 220 
221 218 218 217 219 219 220 221 222 220 221 222 220 219 219 220 
219 221 218 177 175 215 219 219 218 220 218 219 221 219 218 219 
220 219 219 217 216 216 218 216 215 215 216 216 214 216 213 217 195 153 215 214 
214 215 213 211 213 217 217 218 219 218 219 218 218 219 221 221 
219 220 219 222 207 207 211 217 219 221 224 221 221 218 220 220 
221 222 219 220 222 222 220 222 222 220 223 220 223 222 222 222 
222 222 218 219 218 222 221 219 219 220 220 222 220 220 218 219 
220 213 189 170 207 219 217 220 218 219 219 219 219 217 219 219 
219 220 219 217 216 217 218 215 215 214 217 215 214 214 215 214 213 162 166 214 
213 214 216 214 214 217 218 218 220 220 218 218 220 217 220 219 
220 221 219 220 221 219 222 220 222 223 220 221 220 222 223 221 
222 223 223 220 221 222 222 222 222 222 221 221 223 222 221 220 
223 222 220 220 219 219 222 220 220 219 221 221 219 219 219 217 
218 190 167 201 216 218 219 220 221 218 220 220 223 217 218 218 
219 222 220 217 217 218 215 215 214 214 215 217 214 215 215 215 215 213 144 192 
215 210 212 214 213 216 220 218 218 218 218 220 219 219 219 219 
219 220 219 221 221 222 222 223 221 221 221 221 221 221 219 222 
221 221 222 220 220 222 221 222 221 223 223 221 222 221 220 220 
223 223 219 219 221 223 221 221 220 218 220 220 219 219 220 219 
213 163 191 215 218 220 219 221 220 218 219 219 219 219 218 220 
222 220 219 215 216 216 216 217 216 214 215 215 214 215 217 217 215 214 202 141 
211 215 213 216 216 216 218 218 218 218 216 218 219 219 221 220 
220 220 220 220 220 219 219 220 220 223 222 221 222 221 222 219 
221 221 221 221 221 221 221 222 221 221 222 224 223 223 221 222 
221 220 220 219 218 218 221 219 219 219 218 219 217 217 217 197 
167 191 212 217 218 218 220 219 219 217 218 219 220 218 218 219 
221 220 218 216 216 215 215 214 215 217 215 215 214 214 217 216 216 213 216 200 
155 211 212 211 213 216 217 215 218 218 217 217 219 219 218 219 
220 220 220 221 221 222 222 221 221 220 221 218 222 221 221 223 
221 221 221 219 222 222 222 223 223 223 223 223 221 220 221 221 
222 221 220 220 219 220 220 218 221 220 219 218 215 214 196 171 
198 212 218 217 219 219 220 220 221 220 217 218 218 218 217 220 
222 218 216 216 217 215 215 216 217 215 216 215 215 215 216 215 217 214 214 221 
184 175 214 211 211 213 216 217 218 216 219 217 217 218 220 218 
219 220 219 219 220 220 220 219 220 221 221 220 222 221 221 220 
219 221 221 221 222 220 221 222 221 222 225 222 221 223 221 221 
221 222 222 219 220 221 220 218 217 221 217 217 213 191 171 203 
216 219 218 216 216 218 218 217 218 219 218 217 218 216 217 218 
219 220 218 216 217 215 215 217 216 215 216 215 216 216 215 214 215 213 213 213 
215 186 192 213 214 214 216 215 217 218 218 216 215 218 217 219 
218 218 218 218 220 220 220 220 221 221 220 222 221 220 220 222 
220 221 220 220 220 222 221 221 223 223 222 221 222 223 222 222 
222 222 224 219 221 222 221 219 217 219 217 216 192 174 205 218 
219 219 218 217 215 216 217 218 219 219 217 216 218 217 218 218 
215 217 217 216 215 216 216 216 216 215 214 214 213 214 215 216 217 214 214 212 
214 212 192 190 215 213 216 214 214 216 215 217 217 216 217 217 
219 220 219 220 220 219 220 220 221 221 220 220 221 220 221 219 
219 220 221 221 219 221 222 221 221 221 223 219 223 223 220 220 
221 221 219 220 216 220 220 219 218 218 217 194 181 201 214 219 
220 217 217 217 218 218 216 218 217 217 219 218 218 220 220 218 
217 218 220 216 216 213 215 216 214 215 216 216 215 215 214 213 216 214 214 212 
212 211 214 195 189 213 214 214 214 216 216 217 216 216 217 217 
215 219 220 220 220 222 220 218 219 220 220 220 220 221 219 221 
220 220 221 221 222 222 221 220 221 222 221 220 222 222 221 221 
220 223 221 220 219 217 219 219 218 210 182 179 206 215 216 215 
217 215 219 219 216 218 217 218 218 217 218 217 215 218 217 219 
217 216 217 217 214 214 216 215 216 215 213 213 215 215 214 213 215 215 216 214 
212 212 212 213 204 186 200 215 212 214 214 213 214 215 217 216 
216 217 218 219 219 220 220 221 220 218 220 219 220 221 220 222 
222 220 219 220 221 219 221 221 223 220 223 219 223 222 221 220 
220 222 218 219 219 219 222 219 208 178 190 211 220 217 218 218 
218 216 217 216 215 218 218 217 220 215 219 219 216 220 215 216 
218 217 217 218 217 215 215 215 215 215 214 212 214 214 215 213 215 214 215 215 
213 212 213 214 214 206 183 196 212 216 216 214 213 216 216 213 
216 218 216 220 220 219 220 220 219 220 221 220 221 221 221 222 
219 220 221 220 221 221 221 220 220 223 222 221 221 222 220 223 
221 219 217 222 220 220 215 194 163 190 215 219 218 216 217 217 
220 220 218 216 216 217 217 219 220 219 217 218 218 219 217 215 
217 217 216 214 214 213 214 215 216 213 215 214 214 213 215 215 213 213 213 214 
211 211 214 215 213 214 211 200 174 200 212 215 212 213 214 217 
216 217 217 219 219 220 219 219 219 220 219 220 220 219 220 220 
221 221 221 222 220 222 221 222 221 222 222 222 218 220 221 218 
220 221 221 223 219 202 165 168 199 215 218 218 216 219 216 217 
215 218 218 216 216 217 217 217 218 216 218 218 217 216 217 215 
217 216 214 216 214 214 214 214 214 214 215 215 214 214 216 213 212 213 215 214 
213 211 215 213 215 214 213 213 206 179 175 207 215 214 216 215 
217 216 218 219 219 218 218 219 220 219 219 219 220 219 218 219 
220 220 220 219 220 221 220 218 221 221 219 219 218 218 220 220 
219 220 218 213 172 147 174 210 217 216 214 215 218 217 217 216 
215 216 218 216 216 215 217 218 218 216 219 217 218 218 217 216 
216 214 214 215 215 214 215 213 212 213 212 215 214 214 212 213 211 213 213 213 
212 213 214 214 214 213 215 215 216 213 197 176 190 209 215 215 
215 217 216 216 218 218 217 219 219 217 217 220 220 219 219 219 
217 216 221 220 221 220 220 219 221 222 220 218 219 219 219 218 
222 210 173 150 157 205 217 222 218 218 217 218 218 217 216 215 
215 215 216 216 218 215 216 216 216 217 218 215 215 217 215 214 
217 217 217 215 214 215 215 215 213 213 214 211 214 213 213 215 215 213 213 214 
211 212 213 214 214 214 216 215 213 213 217 208 192 181 189 211 
213 217 219 218 220 217 218 217 214 217 217 218 220 221 218 218 
217 218 219 219 220 217 219 218 219 222 221 221 219 221 223 217 
197 162 157 194 215 222 219 218 218 219 218 218 215 217 217 216 
217 217 215 216 214 214 215 215 216 218 217 215 217 217 218 215 
216 216 215 214 213 213 213 214 213 214 214 212 212 211 213 212 213 214 213 211 
213 214 213 213 213 211 214 213 214 214 215 217 215 211 201 202 
184 186 212 216 217 218 219 219 218 218 218 218 220 218 216 216 
217 217 217 215 217 219 220 219 220 220 220 221 218 209 186 176 
184 199 213 221 222 219 219 219 220 219 217 218 220 219 218 216 
215 216 213 215 215 215 212 212 216 213 215 214 214 214 218 215 
216 216 215 213 213 212 213 212 213 216 217 215 213 212 213 212 213 216 214 213 
212 212 214 215 213 214 213 212 215 212 214 213 214 213 215 215 
210 193 160 168 177 205 216 219 220 219 218 219 220 219 219 217 
217 217 218 217 219 220 220 222 220 216 209 194 172 166 188 205 
218 222 222 221 221 219 219 219 215 219 216 218 216 218 216 216 
215 216 215 213 213 212 214 212 214 214 211 214 217 214 215 214 
217 218 216 215 212 214 214 215 216 217 214 213 214 213 213 210 212 212 211 216 
215 214 210 212 213 210 212 215 214 214 213 213 214 213 211 210 
214 216 213 203 191 167 165 169 192 204 214 218 219 220 221 220 
219 216 216 218 215 214 203 191 186 182 178 191 206 215 220 220 
220 221 220 221 221 220 219 218 219 220 220 220 220 218 217 215 
215 214 215 213 212 212 215 215 215 215 213 213 213 214 213 215 
217 216 215 213 215 214 214 213 213 217 214 214 215 211 213 213 214 213 216 213 
213 212 213 212 214 213 211 212 214 216 215 214 213 213 214 212 
213 214 217 216 217 215 216 196 191 184 178 176 175 165 168 176 
179 184 183 184 178 179 186 194 211 215 217 222 222 223 221 221 
219 220 221 221 221 222 222 218 220 221 221 219 219 218 218 217 
214 214 215 215 214 212 211 212 213 214 212 212 214 216 214 214 
216 215 216 212 213 212 218 218 214 214 215 211 211 212 212 213 215 212 212 213 
213 212 212 211 212 211 212 212 214 213 213 212 213 214 213 214 
215 215 213 214 214 215 217 221 218 218 214 214 210 208 209 208 
207 208 211 214 211 214 218 223 220 219 220 222 222 220 218 218 
218 219 220 220 221 220 219 221 221 220 220 219 219 221 219 215 
217 216 215 215 214 211 211 213 211 213 213 214 215 215 214 215 
216 214 215 214 213 214 213 213 214 214 214 213 212 213 211 211 211 211 212 211 
212 213 213 213 212 213 212 212 215 212 213 212 216 215 214 215 
213 217 214 214 215 215 216 218 216 216 218 218 219 217 218 220 
218 217 217 218 220 221 220 221 220 219 220 219 220 219 218 218 
220 219 218 219 220 221 220 222 221 219 220 221 220 221 220 221 
218 216 215 215 212 211 211 212 211 212 213 212 209 211 212 213 
215 214 214 212 213 213 213 213 213 210 213 211 211 212 212 213 214 213 212 212 
213 212 212 213 212 213 215 215 215 214 214 213 215 215 216 215 
215 216 217 215 215 217 216 215 215 214 214 216 216 216 215 216 
218 216 217 218 219 218 220 219 220 219 221 220 220 220 219 218 
220 220 219 219 220 221 220 220 222 222 220 219 220 222 222 220 
221 218 215 216 215 211 211 212 212 211 211 214 214 211 216 213 
215 213 213 212 212 213 211 214 211 212 212 214 211 211 211 211 212 212 212 211 
213 214 211 213 213 212 214 212 211 213 214 214 214 214 216 213 
213 217 214 216 215 216 216 216 214 215 215 216 216 216 215 215 
215 215 216 216 216 215 217 217 215 220 220 221 223 221 219 221 
220 219 219 220 219 220 218 220 221 221 221 220 222 224 222 223 
221 216 214 216 215 211 211 212 210 212 211 212 213 213 211 213 
213 215 215 212 213 212 214 214 214 214 213 211 211 211 211 210 211 211 210 210 
211 212 212 211 214 212 210 214 214 212 212 213 212 214 214 213 
214 213 218 218 215 216 217 218 214 214 214 218 216 216 215 214 
214 217 216 216 216 216 217 220 219 220 220 219 220 220 220 220 
218 219 219 219 220 220 221 220 220 220 219 220 223 223 223 222 
220 217 216 220 216 211 210 211 211 210 214 211 212 213 214 215 
213 214 213 