P2
# Created by IrfanView
100 100
255
214 213 216 217 217 217 216 215 215 215 214 216 215 214 213 213 213 
211 213 211 211 213 212 212 212 213 213 213 213 213 212 213 212 
213 213 212 213 213 213 214 212 210 213 212 212 211 210 211 212 
213 211 213 212 212 213 212 210 211 211 212 211 213 213 214 214 
212 215 212 213 212 212 212 214 213 210 212 211 212 212 212 213 
212 214 213 214 213 212 212 211 212 211 212 212 212 213 213 212 
214 212 211 214 214 215 215 217 216 217 215 215 217 216 216 218 216 214 214 212 
211 213 211 212 213 213 212 212 213 211 214 213 213 214 213 213 
212 213 212 212 213 212 210 212 213 213 212 212 214 211 213 212 
211 212 213 213 210 212 214 213 211 210 212 214 213 212 212 211 
213 213 213 212 212 214 213 212 213 214 214 214 212 212 212 212 
214 213 211 212 211 212 212 211 211 213 213 213 213 211 213 212 
210 211 210 216 214 217 216 215 215 214 216 215 215 215 216 215 215 215 215 214 
213 213 213 215 214 214 214 213 213 212 213 211 213 212 212 213 
212 212 213 212 212 213 213 212 214 213 212 214 211 212 213 212 
213 213 212 213 213 212 212 212 211 214 212 211 212 211 214 211 
213 212 213 212 214 213 214 213 212 212 213 213 212 213 212 212 
213 213 214 215 214 213 211 211 213 212 212 212 213 212 213 212 
212 215 213 217 217 215 216 217 217 217 214 216 216 215 215 216 217 216 215 215 
214 214 213 212 212 214 212 213 212 214 212 214 213 211 211 211 
213 212 212 212 212 211 212 213 211 213 212 210 212 213 212 212 
212 214 213 211 212 213 212 211 213 215 210 210 211 214 213 213 
213 215 214 214 213 214 214 213 213 214 215 215 212 211 213 213 
212 213 214 214 211 213 214 212 213 211 213 212 212 214 213 213 
213 211 212 217 216 216 217 217 215 217 218 218 216 216 216 215 214 215 214 214 
216 214 215 216 214 213 213 211 213 213 213 212 212 212 214 213 
211 212 212 212 212 212 213 212 212 211 212 214 211 213 213 213 
212 213 212 212 212 212 212 212 213 212 212 213 211 211 211 214 
213 212 212 212 213 212 213 213 213 213 213 213 213 215 213 214 
212 214 213 214 212 212 212 212 213 212 213 213 214 213 212 213 
213 214 213 217 218 219 218 218 216 218 217 217 217 218 218 216 218 216 215 215 
213 214 212 212 213 213 213 213 212 212 211 212 213 211 211 212 
213 213 213 211 212 212 213 213 213 213 213 215 213 213 215 214 
213 212 212 213 213 217 214 216 213 214 212 215 214 213 213 214 
213 213 212 213 213 212 214 211 212 215 214 213 213 213 214 213 
213 213 213 214 213 213 211 214 211 214 212 213 213 214 214 212 
213 214 214 217 217 218 218 218 217 218 218 217 218 219 218 217 220 218 214 216 
215 215 215 215 213 213 213 213 213 212 213 212 211 213 212 212 
211 209 211 212 212 212 211 212 214 212 209 214 212 206 209 206 
201 204 199 193 203 210 211 212 216 218 213 215 214 213 213 214 
212 213 214 213 212 215 212 212 212 215 214 214 213 214 214 215 
216 213 213 214 214 213 212 213 212 214 213 214 213 212 213 215 
213 213 214 217 219 218 218 218 217 218 219 219 217 217 217 217 216 216 216 215 
216 218 214 215 215 214 215 213 212 212 212 213 213 211 212 211 
213 212 211 212 213 214 211 206 200 187 176 164 163 145 139 141 
148 147 146 155 149 146 160 160 179 195 207 210 215 217 215 215 
215 214 212 215 214 215 213 214 212 212 214 215 214 213 214 213 
213 214 213 213 213 214 213 213 213 213 213 213 213 212 214 213 
212 214 214 219 218 219 218 220 220 220 218 220 219 219 219 218 218 218 216 217 
216 217 215 214 214 215 214 213 216 214 213 213 212 212 213 210 
213 215 214 213 210 204 188 148 152 167 176 198 206 213 215 215 
219 219 218 217 214 209 210 194 179 163 158 163 188 197 209 215 
214 215 214 214 214 214 214 213 215 214 214 213 216 216 214 215 
214 214 216 214 214 213 214 212 214 213 212 215 215 214 215 213 
214 214 215 220 220 220 219 218 219 220 221 220 220 219 220 217 217 217 218 218 
218 220 217 215 214 215 215 215 215 215 215 214 213 214 219 214 
214 209 206 179 158 161 179 206 214 216 218 219 218 220 219 220 
218 218 223 221 219 220 221 224 225 222 220 196 173 163 155 179 
195 213 215 217 217 213 216 216 215 217 214 215 214 213 215 214 
216 213 215 215 215 216 215 216 214 215 215 214 215 215 214 214 
214 216 216 219 219 220 218 218 218 221 219 221 220 219 221 220 219 218 221 217 
217 219 216 217 217 215 216 215 215 214 215 216 215 215 215 210 
189 165 174 190 214 224 221 221 220 217 216 219 218 218 219 218 
217 217 216 218 219 219 217 218 218 218 219 218 221 215 200 169 
157 159 185 210 215 217 215 215 214 215 216 216 216 216 215 215 
216 216 215 217 216 214 215 217 215 217 215 216 216 217 216 215 
216 214 215 222 221 219 218 217 220 219 220 220 219 220 219 219 220 221 221 219 
219 220 218 217 217 216 215 216 216 216 216 216 214 204 187 168 
181 212 221 220 221 219 220 216 217 218 218 218 220 220 219 219 
220 219 220 221 219 218 218 217 217 218 220 215 216 218 220 220 
222 203 154 155 187 211 220 219 218 216 216 217 217 218 219 217 
216 217 216 217 217 216 215 216 218 216 217 217 216 217 218 218 
216 214 215 220 220 220 218 220 221 221 221 222 222 220 220 220 221 220 222 222 
221 220 219 218 218 219 217 218 216 216 218 212 189 163 195 217 
223 221 220 220 218 218 220 220 219 217 220 220 217 219 220 221 
221 220 218 217 218 218 220 218 216 218 219 218 216 215 216 218 
220 219 218 182 136 161 205 213 218 220 218 217 216 217 218 218 
217 218 217 218 218 218 217 218 217 217 217 217 218 217 218 219 
217 216 215 220 220 221 220 222 221 222 221 222 221 221 221 221 218 220 220 220 
220 220 221 220 216 218 218 219 216 215 206 162 178 218 223 223 
220 219 218 218 220 220 218 219 218 218 222 221 220 220 219 221 
221 221 219 218 219 220 221 220 219 218 220 223 219 218 219 218 
219 218 222 223 208 165 141 176 209 217 217 219 219 217 218 218 
217 218 217 217 219 218 219 218 218 218 219 220 221 220 220 220 
221 217 216 222 221 222 221 219 221 220 221 223 221 220 220 220 221 219 219 220 
220 221 218 218 217 218 218 218 212 186 170 204 223 223 222 219 
221 219 220 222 221 220 220 220 221 220 220 221 222 222 222 220 
220 221 222 222 222 223 222 221 220 219 220 222 222 219 218 219 
220 220 220 222 224 222 203 171 146 197 219 220 217 219 219 217 
219 220 219 221 221 220 220 220 218 218 220 219 221 221 223 222 
222 221 219 221 221 221 221 224 221 223 221 222 222 222 221 220 219 219 220 220 
221 220 217 217 216 219 217 212 170 183 224 225 223 221 221 220 
220 221 221 218 223 223 222 222 222 221 221 223 224 222 223 222 
224 222 221 220 223 223 222 220 221 221 220 223 221 219 220 222 
220 221 222 220 222 225 225 221 196 153 188 215 220 220 218 220 
219 220 220 221 220 219 217 222 221 221 219 221 222 223 223 224 
221 222 224 222 223 221 223 220 222 223 224 222 222 222 221 222 221 219 221 221 
221 220 219 217 217 218 196 170 206 227 225 224 222 223 223 223 
221 223 222 222 223 222 223 224 223 222 225 223 222 223 223 223 
222 223 222 222 221 224 223 221 222 222 223 220 221 219 221 219 
220 221 220 219 221 221 222 227 225 204 158 169 207 218 218 221 
221 221 221 221 223 220 223 222 223 222 222 225 224 224 225 224 
223 222 223 219 220 222 221 223 223 221 220 223 222 221 222 219 221 220 219 220 
218 218 218 218 213 187 169 213 222 224 225 224 224 222 222 223 
223 223 223 224 223 222 222 225 224 224 223 224 223 223 223 223 
223 222 223 221 221 221 223 222 221 222 222 223 223 223 226 223 
221 221 221 222 221 223 225 225 222 226 217 174 160 206 223 218 
220 221 222 222 222 222 224 222 222 222 224 224 224 224 222 224 
224 224 225 222 220 222 222 222 222 222 222 222 223 222 221 221 222 221 219 218 
218 217 216 217 192 165 218 222 221 225 223 226 224 224 226 224 
224 224 224 225 225 225 224 224 224 223 223 223 224 224 223 222 
222 224 224 221 223 223 224 224 223 223 224 224 226 225 223 224 
222 223 224 222 222 222 223 223 221 220 224 226 184 153 207 224 
225 223 222 223 222 225 222 224 223 222 223 223 223 224 225 224 
225 224 224 222 220 222 222 221 222 222 223 222 222 222 222 220 219 220 218 220 
217 219 218 189 173 221 223 221 223 225 225 225 226 223 223 226 
226 224 224 223 223 224 223 224 224 224 223 223 224 224 223 224 
225 224 224 224 223 224 223 222 223 222 222 223 223 222 223 223 
223 223 223 223 225 223 222 224 223 222 221 225 229 188 148 204 
223 222 224 225 224 224 224 223 221 224 224 224 226 225 226 225 
224 224 223 220 220 222 221 224 222 222 222 222 222 223 222 222 221 219 218 219 
221 220 199 170 220 222 223 223 225 225 225 226 227 225 223 226 
227 225 224 223 224 224 224 222 224 223 222 223 224 224 223 223 
224 224 223 225 224 224 225 224 224 222 223 224 225 225 224 224 
224 224 226 225 224 226 224 225 225 221 221 221 225 228 203 157 
212 226 222 221 224 224 225 223 224 226 225 226 225 224 225 226 
226 225 224 223 224 221 222 221 221 222 223 220 223 222 223 222 221 221 220 221 
217 200 174 220 224 223 221 223 224 226 226 227 226 225 226 225 
223 224 223 225 224 223 224 224 223 222 222 222 223 223 222 225 
224 226 225 225 225 224 224 225 225 225 225 224 225 225 227 224 
224 225 223 224 225 225 224 224 223 224 224 223 219 224 224 189 
153 211 223 225 223 224 223 225 224 224 224 225 225 225 224 225 
225 224 224 221 221 222 222 223 222 221 223 223 223 223 223 222 220 219 220 220 
209 167 217 223 222 220 224 223 223 225 225 225 225 225 225 226 
225 223 223 224 222 225 224 224 224 222 223 223 224 223 221 223 
224 225 225 224 225 224 225 226 226 225 226 225 225 226 225 226 
226 226 226 225 227 226 226 225 225 227 225 224 222 223 222 225 
201 156 220 224 224 225 224 226 225 226 224 225 225 224 225 224 
226 224 225 222 220 221 221 221 221 222 220 221 225 222 221 221 221 220 220 211 
169 204 224 222 223 223 224 224 226 225 226 226 226 224 225 226 
226 223 225 223 223 224 224 224 223 224 225 225 225 225 223 223 
225 226 226 226 226 227 227 228 226 226 226 226 227 227 227 226 
225 226 226 226 226 227 226 225 226 228 226 225 223 225 222 224 
229 177 180 224 225 224 224 226 225 225 226 225 224 226 225 226 
224 225 224 220 220 222 223 223 222 222 221 221 221 224 222 220 219 216 215 178 
201 227 224 222 222 222 222 224 226 226 225 225 226 226 226 225 
226 226 224 223 224 224 224 225 225 224 222 222 218 224 224 227 
225 227 227 228 226 225 225 226 227 228 228 227 226 226 227 226 
226 226 226 227 226 227 227 226 226 227 226 227 223 224 225 224 
226 223 153 192 228 225 224 224 228 225 225 225 226 225 225 226 
226 224 225 221 221 219 221 221 221 220 220 221 221 222 224 221 218 215 190 179 
223 225 222 223 223 223 224 224 226 227 225 225 225 223 227 226 
224 224 224 225 224 224 223 224 223 223 223 222 222 224 225 224 
225 227 227 227 227 228 228 227 227 229 227 228 227 227 226 227 
227 229 228 227 228 227 227 228 227 227 227 226 226 226 225 225 
226 228 207 151 210 229 225 225 224 226 225 226 226 225 225 225 
225 223 225 222 221 222 220 221 219 221 221 221 223 223 224 222 219 214 166 215 
221 223 224 222 222 223 224 225 223 224 225 226 226 228 226 225 
224 225 224 224 225 223 225 225 225 224 225 223 225 223 224 223 
224 225 226 227 226 228 226 228 226 228 227 226 227 228 227 227 
227 228 226 227 227 227 228 227 226 227 226 227 226 228 228 228 
227 227 228 196 161 225 226 225 225 226 228 226 226 225 226 226 
225 227 225 219 220 221 220 220 221 220 218 221 222 221 221 219 213 174 197 224 
222 222 224 221 223 225 225 224 225 225 224 227 223 226 229 224 
224 223 223 224 223 225 225 224 224 224 226 225 225 224 227 224 
226 226 228 228 228 228 228 228 229 226 228 228 229 227 227 227 
228 227 228 227 228 229 228 229 227 227 227 228 226 227 227 229 
228 227 228 229 165 179 226 225 227 227 225 227 226 226 225 226 
226 227 227 221 221 221 221 220 220 221 220 218 220 222 215 167 183 162 224 225 
224 223 223 223 224 224 226 224 223 226 225 226 225 212 225 228 
226 225 226 226 226 222 225 224 224 223 223 225 224 225 224 222 
224 228 225 227 227 228 227 228 227 228 228 228 227 228 227 228 
227 227 226 228 228 228 228 228 228 228 227 227 229 228 229 226 
230 228 227 229 224 153 207 229 225 224 226 226 227 226 226 227 
226 226 226 220 220 220 219 221 220 218 217 216 216 216 181 138 137 208 224 224 
224 223 224 225 225 224 224 225 223 226 226 225 224 194 177 212 
219 227 226 224 227 225 228 226 225 223 224 224 226 226 226 224 
225 228 226 228 228 227 227 227 227 225 227 228 228 227 228 227 
228 226 226 228 228 229 229 228 229 227 228 228 226 228 229 228 
228 228 227 228 232 191 173 225 229 228 227 226 226 226 227 226 
224 227 226 220 221 221 220 220 220 219 219 218 214 212 157 212 214 228 224 223 
223 224 224 223 222 224 224 224 223 224 224 223 224 225 202 162 
159 184 184 192 212 215 225 229 227 226 227 225 224 225 226 225 
226 226 227 225 228 229 227 227 227 226 226 226 227 227 227 227 
228 228 227 229 229 231 230 229 229 229 228 228 228 227 228 227 
228 230 228 227 230 221 151 200 230 229 226 228 227 227 228 227 
227 228 227 221 219 220 221 221 219 219 217 217 216 198 172 226 227 225 225 225 
224 223 224 222 223 223 223 224 223 224 225 223 222 224 229 224 
209 190 172 163 154 156 148 189 210 224 222 224 227 226 225 224 
226 225 225 227 228 227 227 228 227 228 228 227 226 227 224 226 
226 229 227 226 224 221 229 228 229 228 231 229 228 229 228 229 
227 228 227 228 228 231 197 175 230 227 229 228 227 226 225 226 
227 225 226 221 221 221 221 221 222 223 219 217 214 161 208 227 226 226 223 224 
223 225 224 223 224 223 224 224 225 225 223 222 224 224 226 226 
231 232 226 221 212 208 191 178 159 175 179 195 220 228 228 225 
225 226 226 227 228 228 227 227 228 228 228 229 227 225 226 228 
228 223 221 212 188 194 229 230 228 229 228 229 229 228 229 228 
229 230 230 227 227 231 226 163 216 230 229 228 228 229 228 228 
228 227 228 222 221 220 221 221 222 223 221 218 210 145 223 226 224 226 225 225 
225 225 223 224 223 224 225 223 224 224 224 224 224 224 223 223 
225 225 224 228 228 229 228 225 221 193 170 153 155 213 227 227 
228 227 227 229 228 227 228 228 230 227 227 227 227 227 226 224 
205 173 161 157 182 216 230 228 229 229 229 230 231 230 229 229 
228 229 228 228 228 229 229 199 174 232 228 230 228 229 227 228 
228 227 225 223 222 222 222 223 224 222 223 219 186 183 227 226 227 226 225 227 
228 225 223 222 224 224 223 225 224 223 223 223 223 222 223 224 
225 225 224 224 224 223 226 229 228 228 223 202 105 171 228 228 
227 228 228 228 227 228 229 229 229 227 230 230 223 213 180 170 
154 161 200 223 231 228 227 227 229 230 229 229 229 229 229 230 
230 229 232 230 229 227 228 223 163 225 230 230 228 230 230 230 
229 229 228 224 225 223 223 221 222 224 221 211 167 221 225 227 226 225 226 226 
227 226 225 226 222 223 220 224 223 224 223 225 225 227 224 225 
225 224 224 224 223 224 223 224 227 229 202 128 141 214 226 226 
229 226 227 228 227 227 230 225 228 227 218 201 167 152 157 184 
218 228 233 231 231 229 228 228 230 230 230 228 231 230 230 229 
230 231 231 229 226 228 227 228 195 192 232 231 231 230 231 229 
227 228 228 225 224 223 223 222 224 224 222 205 172 228 226 228 228 225 225 226 
229 228 228 226 225 226 223 222 223 224 225 224 224 224 225 225 
223 224 224 226 225 223 226 228 224 201 126 158 222 227 229 229 
228 229 228 227 228 229 228 228 228 223 139 144 174 205 232 233 
234 231 230 230 231 229 228 229 230 230 230 230 230 229 229 229 
230 229 229 230 228 229 229 228 223 164 232 231 231 229 229 231 
232 232 230 224 223 223 222 222 224 224 221 199 188 229 225 228 227 227 227 226 
227 228 226 227 226 225 223 222 224 226 226 227 224 225 224 227 
227 225 226 223 225 225 228 222 189 133 175 230 229 229 227 228 
228 229 229 228 228 228 228 228 227 225 162 224 230 230 231 230 
229 232 232 230 229 229 229 229 230 231 233 232 232 230 230 232 
230 230 230 228 229 229 229 230 233 174 207 232 231 230 230 232 
231 230 231 225 223 224 224 224 224 224 221 180 214 230 229 224 228 227 228 227 
229 229 228 226 225 224 224 223 224 224 224 225 225 225 226 226 
225 225 225 226 225 227 221 178 138 197 231 230 227 227 227 228 
228 230 228 227 228 229 228 229 226 227 192 188 226 231 230 229 
229 229 230 231 231 229 230 230 232 231 230 229 230 231 232 231 
230 230 229 231 229 229 230 230 230 200 186 233 231 232 232 233 
231 231 232 225 226 225 224 225 225 226 219 176 228 228 227 229 228 228 228 228 
228 230 226 226 226 225 223 224 225 225 224 225 224 225 224 227 
227 224 224 228 226 197 142 143 203 230 231 230 230 229 230 228 
230 228 229 227 225 230 228 228 227 226 224 157 155 207 230 229 
230 230 230 232 231 231 229 231 232 231 230 232 231 233 233 229 
231 231 231 230 231 231 230 232 233 226 170 228 232 232 232 233 
232 231 232 226 225 226 226 225 225 228 216 186 229 229 229 228 228 229 229 228 
228 230 228 225 225 227 225 226 223 222 225 226 224 224 226 226 
226 228 226 219 176 131 183 227 231 231 230 225 228 230 228 228 
229 229 227 228 228 229 229 227 228 228 230 228 174 137 163 215 
230 233 232 230 231 230 231 232 232 232 232 232 232 231 233 231 
229 230 231 230 230 231 230 233 234 231 162 221 233 233 234 232 
232 232 233 226 227 225 225 224 225 227 209 188 231 229 229 229 229 229 229 228 
228 228 228 226 227 226 225 225 225 226 226 225 224 225 224 226 
227 225 205 148 144 198 230 232 230 230 230 228 229 229 230 228 
229 228 229 229 227 229 229 229 228 228 230 231 232 225 175 127 
171 227 232 231 230 232 232 232 231 231 233 232 232 232 232 231 
232 232 232 232 232 231 231 233 231 236 183 202 233 235 233 233 
232 233 233 227 227 228 228 227 227 225 198 204 230 230 230 229 229 229 229 229 
229 227 227 226 226 227 228 227 226 224 222 224 226 227 228 228 
215 152 121 162 206 234 232 230 229 230 230 231 230 230 229 230 
229 232 229 229 226 228 229 230 230 229 230 230 233 232 233 209 
171 173 229 234 231 232 232 233 233 232 232 232 232 232 233 232 
230 231 232 231 231 232 232 232 230 235 200 183 235 235 234 235 
233 233 234 228 224 226 226 228 227 225 194 215 229 228 229 230 229 229 228 230 
230 229 229 229 228 228 227 226 225 225 227 225 223 226 220 185 
123 160 215 233 234 231 230 231 231 230 230 231 232 231 230 231 
230 231 230 230 231 229 231 229 229 229 229 230 231 230 232 234 
232 196 177 231 234 230 232 233 233 232 233 232 231 234 232 232 
233 233 232 232 232 232 231 231 233 234 213 158 235 235 236 235 
234 232 234 229 229 227 227 229 227 221 189 221 229 229 230 231 232 232 229 231 
231 230 229 229 229 228 229 230 228 227 228 227 226 181 127 130 
187 223 232 231 231 230 230 231 230 230 231 232 229 230 231 230 
230 232 231 231 231 231 232 231 231 231 231 230 231 231 231 231 
231 233 204 176 230 237 234 233 232 233 233 233 233 232 233 233 
231 233 234 233 234 232 232 234 234 231 230 164 235 235 235 234 
234 234 235 230 227 228 228 228 226 222 184 230 231 231 230 229 230 230 231 230 
230 232 233 229 229 229 229 228 229 228 228 230 228 204 184 229 
238 232 230 232 231 231 232 232 230 231 231 232 231 231 232 231 
233 232 231 230 232 232 232 233 231 233 233 233 234 232 232 230 
231 232 234 208 174 229 234 232 233 234 233 233 233 234 232 233 
233 233 232 234 233 233 232 233 234 234 232 167 230 235 235 235 
237 235 236 229 228 228 228 227 227 220 191 226 231 231 231 231 230 231 232 233 
231 232 232 233 232 230 229 228 229 229 230 229 229 233 237 235 
232 232 231 232 232 231 231 232 232 232 232 231 230 232 231 231 
231 232 232 232 232 233 232 232 233 233 233 232 233 231 231 231 
231 232 233 236 215 183 233 231 232 233 233 233 234 231 232 232 
232 231 234 234 232 233 234 232 232 234 233 172 225 236 237 237 
237 237 238 229 228 228 228 227 226 219 187 228 230 231 230 231 233 232 232 231 
231 231 233 232 233 230 229 230 231 230 230 231 229 231 232 232 
232 232 230 232 232 230 232 232 232 232 233 233 232 231 232 232 
233 234 233 232 231 233 233 233 233 234 234 232 232 232 233 232 
232 232 231 235 238 201 202 232 232 234 233 234 236 234 235 235 
235 234 232 232 235 233 234 233 234 235 232 179 211 238 236 236 
236 236 234 230 226 228 228 228 227 218 187 230 230 230 231 230 232 232 232 232 
232 231 231 232 233 232 231 231 231 230 230 231 233 233 233 232 
232 233 232 232 232 232 231 233 233 233 232 232 232 232 233 232 
232 230 232 233 233 233 233 233 234 234 232 234 233 234 233 233 
235 235 234 235 234 238 216 234 233 233 234 235 234 233 234 234 
234 235 236 234 234 233 233 234 234 234 233 193 203 234 236 237 
236 236 238 225 225 227 226 228 224 218 193 227 231 231 232 231 232 232 233 233 
233 233 232 232 232 233 231 231 232 231 230 232 231 231 233 232 
232 233 233 232 232 234 233 232 232 233 231 233 232 232 231 234 
233 234 233 235 233 234 233 234 234 233 234 235 235 235 234 234 
234 233 233 235 235 235 236 235 234 235 233 232 233 235 235 235 
235 234 233 235 233 234 233 232 234 234 233 186 207 235 237 238 
239 237 237 224 224 224 226 227 225 216 186 222 228 231 231 230 232 233 233 232 
233 232 232 233 232 231 232 231 232 232 232 231 232 232 232 233 
234 234 234 234 233 232 233 234 234 233 235 232 232 233 232 234 
234 233 234 233 232 233 235 236 235 237 235 235 234 235 235 235 
236 234 233 235 237 235 235 234 234 236 236 236 236 234 236 233 
233 234 234 234 235 234 235 235 233 235 237 188 191 235 236 236 
236 237 237 224 225 225 224 226 221 217 181 221 224 227 229 231 232 234 232 234 
233 233 233 232 233 232 232 232 232 231 232 232 233 232 232 233 
233 233 232 232 232 233 233 233 231 234 233 234 233 233 233 234 
233 234 234 233 233 236 235 235 236 234 236 235 237 235 236 237 
235 235 237 235 236 236 235 236 235 234 235 235 234 235 235 236 
237 236 236 232 234 235 234 234 236 235 234 204 190 236 236 236 
238 237 239 224 223 224 225 221 221 215 179 220 223 225 225 228 232 232 234 232 
234 235 233 234 233 231 232 233 233 232 232 234 233 233 233 234 
233 233 233 232 232 235 234 233 232 232 232 233 234 233 234 232 
232 234 234 233 234 235 235 235 236 235 237 235 234 235 236 232 
235 236 233 234 235 236 236 235 235 236 236 234 235 235 235 234 
235 235 235 235 236 235 237 234 235 237 234 202 190 238 238 238 
238 237 236 223 222 223 220 222 218 215 184 213 221 222 224 225 229 231 233 233 
233 233 235 233 233 233 232 233 233 232 232 232 233 232 234 234 
233 235 233 234 234 233 233 233 235 232 233 233 234 233 234 234 
235 234 235 233 234 236 235 238 234 235 235 236 235 236 235 236 
236 236 235 235 236 237 235 236 236 236 235 238 235 236 237 237 
235 235 235 236 234 235 232 235 235 237 235 188 197 238 237 240 
239 238 238 222 223 224 224 221 219 215 185 204 221 225 224 226 229 230 232 232 
234 234 234 233 233 234 234 233 234 232 233 232 233 234 234 234 
234 234 234 233 233 233 234 232 233 233 234 233 233 233 233 234 
234 234 235 234 235 236 235 236 236 236 236 236 237 237 236 237 
237 236 235 236 235 237 235 235 236 236 236 235 238 235 235 235 
237 236 236 236 236 235 236 237 236 237 231 194 201 237 238 239 
239 239 239 223 221 224 222 222 222 218 187 199 222 223 226 226 230 230 231 231 
234 234 234 235 234 235 233 234 231 235 232 232 232 232 233 234 
234 235 234 233 233 233 234 234 233 234 234 232 233 232 234 234 
232 233 235 235 235 234 236 236 236 236 236 236 236 235 236 237 
236 235 235 236 238 236 238 236 238 237 235 237 235 235 235 235 
236 236 236 236 236 235 235 233 236 236 232 174 219 240 239 237 
238 238 238 222 223 223 221 222 223 222 207 182 222 224 225 225 227 229 230 230 
232 233 235 235 234 234 234 233 232 232 232 231 233 234 232 233 
233 234 234 234 232 234 234 234 234 233 233 235 233 235 234 235 
233 233 234 234 234 235 236 235 237 237 238 236 237 236 237 237 
237 236 235 236 237 237 238 237 237 236 238 238 238 237 237 238 
236 234 236 235 237 235 235 235 236 235 230 167 225 238 239 239 
239 239 238 224 222 224 224 222 224 225 216 179 226 227 226 228 228 228 230 229 
233 236 233 235 233 234 235 234 233 234 234 231 232 233 232 233 
233 234 233 233 232 234 233 235 234 234 235 234 236 234 235 234 
232 233 234 236 235 234 236 235 235 236 236 236 238 236 237 236 
236 237 237 238 237 237 237 236 235 236 236 236 235 237 237 236 
236 237 236 237 236 236 236 236 236 235 230 176 230 241 239 239 
237 239 240 225 225 225 225 224 225 224 218 167 226 227 226 227 228 228 228 230 
232 234 234 233 233 233 232 233 233 232 233 232 231 234 232 234 
233 233 234 234 233 233 232 233 232 234 234 234 232 234 233 235 
234 235 236 236 234 234 237 235 236 235 236 235 236 235 237 235 
234 236 238 236 237 237 238 238 238 238 238 239 238 237 236 237 
236 236 237 235 236 236 235 234 236 236 225 171 237 239 240 239 
240 238 238 225 224 224 224 226 226 225 219 175 219 227 226 228 229 232 230 231 
233 233 234 233 234 234 233 233 234 234 232 232 232 231 234 232 
232 232 232 232 234 233 236 233 233 233 234 233 235 234 231 234 
234 233 235 236 235 236 237 237 237 238 236 235 237 238 235 236 
232 237 236 238 239 237 236 237 238 237 238 237 236 238 237 237 
237 237 237 238 238 239 235 236 234 235 209 172 241 239 240 240 
239 238 240 226 226 226 226 226 228 226 223 196 202 226 227 228 230 229 228 230 
231 234 232 233 233 233 234 234 234 231 233 233 232 232 233 232 
232 231 232 236 234 233 232 233 235 234 234 234 234 233 232 233 
233 234 234 234 235 236 236 235 235 237 236 236 237 237 237 235 
234 236 236 238 238 238 238 239 239 239 238 238 237 237 236 237 
238 238 238 238 237 237 237 236 236 235 186 188 242 240 240 240 
237 239 239 226 226 226 226 227 226 226 224 211 187 226 227 231 231 230 232 232 
232 231 234 235 234 233 234 235 234 234 232 232 232 232 230 232 
232 232 232 232 233 235 233 233 234 235 235 234 235 232 233 234 
235 233 235 235 235 236 237 234 235 235 235 237 237 236 237 236 
235 236 238 238 237 238 237 237 239 237 237 236 237 237 237 236 
238 238 236 238 237 238 238 235 236 234 177 214 240 239 240 240 
240 240 241 228 228 227 227 227 229 229 226 221 168 226 228 228 228 229 229 229 
232 232 232 232 233 233 233 237 234 233 233 232 232 232 231 230 
232 233 232 233 234 233 233 233 233 233 233 234 232 236 235 235 
235 235 234 235 235 235 235 235 236 238 235 236 235 236 236 236 
237 237 237 238 239 238 239 239 237 237 238 238 237 239 240 239 
237 237 237 238 238 238 239 236 238 234 150 224 241 240 240 240 
240 240 240 226 227 229 228 229 227 225 228 224 173 216 225 229 229 230 230 232 
232 231 232 232 233 235 233 230 237 233 232 232 232 233 232 231 
232 231 230 232 233 233 233 233 233 233 235 234 234 233 235 234 
233 235 235 235 234 236 236 235 235 236 236 236 236 236 236 235 
234 238 239 237 239 238 237 238 238 240 238 239 238 238 237 238 
236 236 237 236 238 237 237 238 236 215 152 241 240 240 240 240 
241 240 239 228 227 228 227 227 230 229 227 223 198 189 226 228 229 230 231 232 
232 232 232 234 232 232 233 234 234 233 232 232 232 232 231 231 
232 231 231 232 233 233 234 235 235 235 233 235 234 233 234 235 
234 234 234 235 233 235 236 236 237 236 236 236 236 238 235 236 
238 238 237 239 238 238 238 239 239 238 237 238 240 238 237 236 
238 237 238 238 238 237 239 238 235 188 188 241 240 239 240 238 
241 240 241 229 229 228 228 228 228 227 227 228 225 171 226 226 225 230 231 232 
231 232 232 233 231 234 232 231 233 235 233 233 231 231 231 232 
231 230 230 232 234 234 235 234 233 235 234 233 234 234 234 234 
234 235 233 234 236 236 235 235 235 236 237 237 237 235 237 237 
237 239 237 239 239 238 238 239 240 238 238 239 238 238 238 237 
239 238 239 238 238 238 239 236 232 165 232 240 241 240 240 240 
240 239 240 230 230 230 227 227 229 228 229 227 226 182 215 227 227 226 229 232 
232 232 231 231 232 233 232 232 233 231 233 234 232 229 231 230 
230 232 232 232 232 233 232 233 233 232 234 234 235 235 233 235 
235 235 238 238 236 236 235 236 235 237 235 235 236 238 237 236 
236 238 241 238 240 238 240 239 236 240 238 237 239 239 238 239 
237 235 235 235 237 238 238 235 211 180 244 240 241 240 241 241 
241 241 241 229 228 230 228 228 228 227 228 229 225 214 186 230 228 229 230 229 
231 231 231 230 233 232 232 234 233 233 234 235 235 231 229 230 
230 231 232 229 209 199 172 214 235 232 233 232 234 233 232 232 
234 235 234 230 236 236 235 237 236 236 236 236 236 236 235 237 
237 237 237 239 239 239 239 238 239 239 239 240 238 238 239 238 
239 239 239 238 238 239 236 235 204 214 245 241 241 241 241 241 
240 240 241 230 231 230 228 228 227 228 226 228 228 222 183 217 227 229 231 232 
231 231 230 229 232 231 231 231 231 229 234 232 235 231 232 232 
236 233 220 179 157 185 191 164 238 234 233 233 234 233 235 234 
237 211 160 158 231 238 236 234 236 236 235 233 235 237 237 239 
237 238 239 239 240 239 239 238 238 239 237 239 239 239 237 236 
238 239 239 239 239 238 235 223 184 242 241 241 241 241 241 241 
242 239 241 231 231 229 228 228 229 227 228 225 225 224 212 185 225 228 232 228 
231 231 229 231 230 232 232 232 233 234 233 235 235 237 235 234 
215 188 179 217 241 237 235 176 193 238 233 232 233 231 238 231 
195 142 184 185 181 237 238 236 233 234 233 233 237 237 236 234 
219 238 240 237 241 240 238 239 239 239 240 239 240 240 240 239 
239 239 239 239 238 236 234 193 205 240 241 241 242 242 241 242 
242 242 241 231 231 230 228 229 230 228 226 226 227 225 223 175 226 231 231 231 
229 230 230 229 231 227 232 231 232 232 232 236 237 233 207 193 
190 229 241 240 240 237 236 234 161 208 235 235 233 236 216 175 
155 211 239 239 171 177 235 239 238 235 235 239 237 235 205 159 
126 170 215 236 240 240 240 240 239 237 238 239 239 239 239 239 
239 241 239 239 239 238 234 188 238 239 240 240 239 239 242 242 
242 242 241 233 232 231 228 228 228 229 230 226 225 227 226 210 190 230 230 229 
230 230 231 230 230 230 231 231 232 231 230 231 215 179 183 217 
241 239 240 240 237 236 234 235 225 170 214 236 235 205 144 167 
233 238 237 238 234 184 175 222 238 238 237 236 209 137 126 148 
216 199 161 170 207 239 241 240 240 240 240 239 239 240 239 239 
239 238 240 238 239 239 202 218 241 241 240 241 242 243 242 241 
241 241 242 231 231 230 229 228 227 229 229 227 227 227 227 226 188 217 228 229 
230 231 232 230 231 231 232 232 231 230 226 172 162 212 237 235 
237 238 238 238 238 237 238 236 237 223 165 207 195 134 193 238 
240 236 233 235 238 239 212 168 194 237 217 161 118 157 214 243 
242 243 239 216 166 162 227 241 240 239 239 240 239 238 239 238 
237 240 238 238 240 233 186 240 241 242 242 241 240 241 242 241 
242 242 242 232 233 231 230 229 230 229 230 230 229 229 227 224 218 184 228 231 
230 231 229 231 232 231 230 231 230 232 227 190 235 235 235 235 
237 236 239 239 238 237 239 236 237 236 225 156 118 190 237 237 
236 237 235 234 237 239 239 238 182 179 136 128 205 242 243 240 
240 239 241 240 239 208 171 212 242 239 239 243 237 240 238 237 
238 239 238 240 240 204 230 242 241 242 241 242 242 243 242 242 
242 242 243 231 232 231 230 230 231 230 229 227 229 230 227 228 229 208 197 232 
232 231 231 232 231 232 233 231 233 231 233 238 234 234 233 233 
236 238 239 240 240 237 238 237 235 235 238 233 194 239 238 238 
238 237 238 239 237 238 239 240 239 162 143 232 242 241 239 238 
237 238 238 238 241 242 235 180 228 240 238 241 238 239 238 239 
238 238 239 239 220 210 244 241 242 242 242 242 243 242 242 243 
243 243 242 232 232 231 231 232 231 231 230 230 229 229 228 227 229 229 188 221 
231 233 234 233 232 231 231 232 232 234 233 235 234 234 235 237 
235 238 238 241 239 238 239 238 238 236 239 241 243 240 238 238 
238 238 237 238 237 238 238 239 240 238 242 243 241 240 237 238 
238 239 239 238 239 240 241 232 189 240 241 240 238 240 238 239 
238 238 240 236 182 236 242 243 243 243 242 242 242 242 241 243 
242 242 242 232 232 232 231 231 231 231 232 231 229 229 228 227 227 228 227 192 
228 232 232 232 232 232 233 235 234 233 235 234 234 234 236 237 
235 238 238 239 240 240 239 239 237 237 238 238 240 240 241 239 
238 239 239 240 240 240 239 239 240 238 242 243 239 238 238 240 
240 239 240 239 239 239 240 242 233 242 241 241 238 240 240 237 
238 240 238 199 218 244 242 242 242 240 241 242 242 242 242 241 
242 242 242 232 233 233 231 232 233 233 233 232 232 230 230 229 230 230 231 221 
201 235 234 232 232 232 231 235 235 236 235 235 235 235 235 235 
236 237 238 241 240 239 239 238 236 237 236 239 239 239 240 241 
240 240 238 236 238 239 240 239 241 240 240 238 240 240 239 239 
240 239 240 241 240 240 239 240 240 240 241 241 240 240 240 239 
238 238 191 190 245 242 241 242 243 242 242 242 242 242 244 242 
242 241 243 233 233 232 234 234 234 233 232 230 231 233 231 229 229 230 232 232 
212 212 236 235 232 232 234 233 233 234 234 237 236 235 235 235 
233 236 240 237 239 238 238 239 239 239 238 239 239 240 241 241 
240 240 240 240 239 241 242 239 239 240 241 241 239 240 241 240 
240 239 241 240 241 239 241 240 240 241 240 242 238 238 240 240 
236 194 172 242 242 242 242 242 242 243 242 242 243 243 242 243 
243 243 244 234 235 235 234 233 234 233 234 234 231 232 233 232 232 232 233 233 
233 205 207 237 234 234 233 234 234 235 234 235 234 236 236 236 
234 235 238 237 238 238 238 239 237 238 237 238 239 240 239 240 
240 240 241 239 240 239 239 239 240 240 240 241 241 241 241 239 
239 241 240 240 242 239 241 240 240 241 240 241 239 240 241 241 
221 185 236 243 243 242 242 243 242 243 243 243 243 242 243 242 
243 243 244 235 234 232 233 235 235 234 234 236 236 233 235 234 235 232 234 232 
233 235 197 196 239 234 234 235 235 235 233 236 234 234 235 235 
236 235 235 236 237 239 238 238 237 237 239 238 239 239 240 240 
239 240 239 238 241 241 240 242 240 241 239 240 238 240 240 240 
242 240 240 240 239 239 241 240 241 240 240 240 239 238 240 232 
183 235 242 242 242 241 242 243 243 244 243 242 243 243 243 243 
243 242 242 234 235 236 237 235 236 237 237 236 235 234 235 234 237 235 233 234 
234 236 230 185 198 235 234 234 236 236 238 235 234 236 236 235 
237 235 234 235 236 237 237 240 238 239 237 239 239 239 239 240 
240 240 239 239 239 240 240 240 240 240 241 240 241 240 240 240 
240 240 239 239 239 240 242 241 241 240 239 240 239 236 209 188 
232 244 242 242 241 243 243 242 244 242 243 243 243 243 244 244 
242 243 243 234 235 235 236 238 236 237 235 236 236 236 236 236 234 235 236 236 
234 234 235 235 201 201 232 237 236 237 235 236 235 237 237 237 
237 236 236 236 236 238 238 239 239 239 238 239 239 240 240 238 
240 240 240 241 239 240 240 240 240 241 239 240 239 240 240 240 
241 241 241 241 240 240 240 240 240 240 240 241 238 200 201 238 
244 242 243 244 243 243 243 243 242 243 243 243 243 243 242 243 
244 243 244 235 236 236 235 235 237 237 239 236 237 236 238 237 236 238 237 234 
236 235 237 239 239 202 185 230 239 240 236 234 234 236 237 238 
236 236 236 237 238 238 237 238 239 239 238 239 240 239 239 241 
240 239 240 238 239 240 240 241 242 240 241 240 241 239 241 241 
241 240 241 240 239 241 239 240 240 238 239 237 218 209 242 243 
242 242 243 241 243 242 243 243 243 244 243 244 244 245 243 244 
244 243 243 235 237 238 238 238 238 236 236 236 239 237 237 238 239 237 236 238 
236 236 237 237 237 237 225 163 202 240 239 239 237 236 236 237 
236 237 236 235 238 238 240 239 237 238 239 238 237 239 240 239 
240 240 239 240 238 240 240 241 241 240 241 240 240 241 240 240 
238 241 240 240 241 240 238 241 239 240 237 211 216 241 243 243 
243 244 243 244 243 240 242 243 244 243 242 243 244 243 244 244 
243 245 243 236 237 235 238 237 237 237 238 238 238 238 238 238 238 237 237 237 
236 237 238 237 236 237 237 226 190 185 230 239 238 236 238 236 
235 237 237 234 238 239 240 237 239 239 239 238 239 238 240 239 
239 239 241 239 239 239 241 240 241 241 240 240 240 240 241 240 
241 240 240 239 238 240 239 242 241 231 207 230 242 243 245 244 
243 243 244 243 244 244 242 243 243 244 244 245 243 245 245 243 
246 244 244 236 236 237 236 234 236 237 236 236 239 238 239 238 238 239 239 235 
239 239 237 237 238 238 238 240 243 221 176 208 238 239 237 237 
236 236 235 237 239 237 236 238 239 238 237 238 239 238 239 240 
240 240 240 240 239 239 240 240 240 240 240 240 241 240 240 239 
240 240 239 240 241 240 241 242 229 210 239 246 244 242 243 243 
244 246 244 244 244 243 245 244 244 244 244 244 244 242 243 244 
244 244 243 236 236 237 236 238 239 239 237 237 239 239 237 239 240 239 239 239 
238 239 239 238 238 237 239 238 239 239 231 196 188 222 240 241 
240 239 239 238 239 238 238 239 239 237 239 238 239 240 237 240 
240 240 241 238 240 239 241 242 242 241 241 240 241 241 240 240 
240 240 240 241 241 242 230 219 227 244 243 243 243 246 243 244 
244 244 244 245 244 244 244 245 244 245 245 244 245 246 245 246 
245 245 245 237 237 237 237 237 237 236 236 238 236 239 240 238 239 240 239 238 
238 239 239 239 238 239 240 240 238 239 240 240 226 193 191 219 
238 241 240 240 240 239 238 238 239 238 239 238 236 238 240 240 
240 240 239 240 239 240 241 241 239 241 242 242 241 240 241 242 
242 240 243 244 239 229 226 240 243 244 242 243 243 244 246 245 
246 244 244 244 245 245 245 245 246 244 244 245 246 245 245 243 
246 244 246 238 237 238 238 237 239 238 238 237 238 238 241 241 241 240 240 240 
240 240 240 240 239 240 239 240 238 238 238 239 240 240 231 197 
179 209 228 234 240 239 241 241 240 239 240 238 236 238 238 239 
240 238 241 241 241 240 240 240 241 240 241 240 240 241 240 241 
243 245 236 226 227 237 247 245 243 243 244 244 244 242 244 245 
245 246 245 245 245 246 245 245 246 246 247 246 245 246 245 246 
246 245 248 238 238 237 237 236 238 238 238 238 237 239 240 242 241 240 240 240 
240 239 240 241 240 239 239 241 237 238 238 238 237 237 242 241 
236 205 182 187 210 238 239 240 240 239 239 239 238 239 240 239 
240 239 241 241 240 241 241 241 241 241 241 242 241 242 241 239 
215 212 227 242 244 244 243 243 244 245 246 245 245 245 248 245 
244 245 246 246 246 247 246 246 246 246 245 247 247 247 247 246 
246 245 246 237 239 238 238 236 238 238 240 238 237 235 239 241 241 241 240 240 
240 241 240 239 240 239 240 241 240 240 239 238 238 239 239 241 
242 242 245 230 200 184 178 186 214 232 238 241 239 240 241 240 
241 241 241 241 240 241 241 242 241 243 242 243 240 233 216 222 
230 244 248 246 244 244 244 244 244 245 247 244 245 245 245 245 
245 245 245 246 245 246 245 246 245 246 246 247 247 247 247 248 
247 247 245 237 238 237 237 238 239 237 238 236 238 238 239 239 240 239 239 240 
240 239 239 239 241 241 240 239 239 240 239 240 240 240 240 239 
240 241 242 244 246 246 231 167 145 152 166 173 194 200 219 237 
235 239 239 241 239 237 234 236 237 229 216 214 226 229 246 245 
247 246 245 246 245 245 245 246 245 245 246 245 246 246 246 243 
246 247 247 245 246 245 246 246 245 246 247 246 247 247 247 245 
246 246 246 236 234 236 238 238 237 238 237 238 236 235 238 240 240 240 240 241 
239 239 239 238 239 239 239 240 241 239 239 240 240 241 240 242 
241 240 241 242 242 242 243 241 243 238 213 183 180 179 182 204 
202 217 219 213 213 208 210 214 219 225 241 246 248 248 247 245 
246 246 244 245 246 246 245 246 245 246 243 247 245 246 246 245 
246 246 245 246 246 247 247 247 246 245 246 246 247 246 246 247 
246 247 247 237 238 238 236 234 237 236 236 235 236 234 236 238 241 238 241 240 
240 238 240 241 240 239 240 239 238 239 240 239 238 239 241 239 
240 242 241 242 243 243 243 243 239 245 246 244 246 245 245 245 
247 245 245 246 247 248 248 248 248 249 247 246 244 244 244 245 
245 247 246 247 246 246 246 246 246 247 247 246 245 246 246 244 
244 244 247 245 246 247 246 247 246 248 249 249 248 247 247 248 
248 248 248 240 237 236 237 236 238 235 234 238 235 236 237 239 241 240 240 239 
241 240 241 240 240 241 241 240 241 241 240 240 239 238 240 240 
240 241 240 241 242 241 243 242 243 243 243 244 244 244 244 244 
245 245 244 245 244 245 246 244 244 245 245 244 245 245 247 245 
246 247 248 246 246 245 246 246 246 246 247 246 248 246 247 245 
245 247 245 246 245 248 248 246 247 248 249 248 248 248 248 248 
247 249 248 236 238 238 238 237 238 239 238 238 236 238 238 239 240 240 240 240 
241 241 240 239 240 241 242 241 240 240 241 242 241 242 241 242 
241 242 243 243 243 243 242 242 241 242 244 241 243 243 242 242 
242 243 244 244 244 244 244 244 244 246 245 246 246 246 246 247 
246 247 246 247 246 248 247 247 247 247 245 246 245 247 248 247 
247 247 245 247 248 248 247 246 247 247 248 249 248 246 248 248 
248 248 249 239 238 237 238 237 238 237 238 237 236 239 237 239 240 241 241 241 
240 240 241 242 242 241 241 241 241 241 241 239 241 242 242 242 
242 242 242 244 243 243 243 243 243 242 242 243 243 243 242 243 
243 244 245 244 244 246 246 246 246 245 245 246 245 245 246 245 
247 247 247 246 247 246 247 247 245 245 246 246 247 246 246 247 
248 248 246 246 247 247 249 249 249 249 249 249 249 249 248 247 
249 248 248 238 239 237 237 238 239 240 237 237 239 240 240 239 240 239 239 241 
241 241 241 240 241 241 242 240 241 241 240 241 242 242 242 241 
240 243 242 242 242 242 242 241 242 244 244 243 244 244 245 244 
244 243 244 246 245 245 246 246 246 247 247 248 247 247 246 247 
247 248 248 246 248 247 246 248 247 247 246 246 247 247 247 246 
247 247 246 247 248 248 249 248 249 249 248 248 249 248 249 249 
247 248 248 238 239 239 238 239 237 239 239 238 236 239 238 241 239 240 240 238 
239 240 241 242 241 241 241 241 241 243 241 241 242 241 242 241 
240 243 243 243 243 243 243 243 242 242 244 245 245 245 245 247 
245 246 246 247 245 246 247 247 246 246 247 246 248 247 247 247 
248 248 247 248 247 248 248 248 248 247 248 248 248 247 247 246 
246 248 247 248 248 249 249 249 250 249 250 248 249 248 246 249 
249 248 249 