P2
# Created by IrfanView
100 100
255
193 198 202 201 201 198 197 200 196 200 199 201 200 203 203 202 201 
198 199 200 200 200 203 201 198 205 198 202 205 204 203 204 198 
200 201 198 202 204 204 202 202 200 198 203 203 207 212 208 204 
200 196 195 197 194 189 184 186 185 187 186 183 181 180 184 184 
186 195 193 192 189 195 193 195 191 194 192 195 199 200 201 200 
198 199 201 208 204 202 193 196 197 192 192 194 191 196 196 196 
196 200 199 187 186 184 185 184 186 184 185 182 183 184 187 190 187 190 190 190 
190 189 188 186 189 189 188 191 188 188 190 190 193 193 192 191 
193 192 194 194 194 195 195 196 195 195 196 196 194 189 188 188 
188 188 190 190 193 192 191 191 193 190 192 196 195 194 200 201 
203 201 203 202 205 205 205 206 206 207 205 207 209 210 209 213 
211 213 214 216 215 210 212 212 210 211 211 211 209 208 203 206 
203 205 208 191 187 191 189 187 188 187 187 183 185 185 185 186 192 189 189 188 
190 191 189 193 190 191 190 190 189 192 192 194 195 195 194 194 
194 194 196 195 194 195 196 196 197 196 196 195 194 192 195 195 
195 196 198 196 197 200 201 199 198 199 201 202 203 200 199 201 
201 202 202 202 205 205 205 208 207 208 209 209 209 210 210 212 
212 213 213 214 213 212 213 216 213 213 212 210 210 210 209 207 
208 207 209 188 188 189 188 186 190 189 189 188 187 185 188 191 189 192 195 193 
192 191 188 192 192 192 190 190 191 194 195 196 195 193 195 195 
194 194 194 194 196 194 195 195 197 195 195 195 195 196 195 197 
198 197 197 196 198 197 198 199 199 197 198 197 199 201 200 199 
202 200 201 204 204 206 202 206 206 206 206 209 210 209 211 208 
210 211 212 213 212 213 213 212 213 212 211 209 211 209 208 208 
208 208 208 189 190 191 192 190 190 190 189 190 188 185 189 192 191 193 193 193 
192 193 191 192 192 193 193 192 192 191 192 193 194 194 195 193 
194 195 194 192 194 194 196 195 195 195 193 196 196 195 197 198 
196 196 198 200 198 197 197 197 197 199 199 200 198 198 202 202 
200 202 200 202 204 204 205 202 203 206 205 204 207 208 208 209 
209 211 211 212 215 212 212 212 212 212 209 210 210 207 208 209 
208 208 209 190 190 191 190 192 190 190 193 190 189 189 190 191 193 193 193 193 
192 189 194 194 194 192 191 191 193 193 191 193 193 192 192 194 
193 192 193 194 193 193 193 195 197 196 197 196 194 194 195 198 
197 198 198 198 197 199 199 199 197 196 195 200 200 199 199 200 
203 200 203 201 202 202 202 201 205 205 205 203 208 207 209 209 
209 209 212 211 212 211 211 210 211 211 211 209 210 210 209 209 
210 209 210 192 192 192 193 190 193 194 192 190 193 190 191 194 192 193 194 194 
194 195 193 193 194 193 192 192 193 189 194 193 194 193 193 193 
191 194 195 193 194 192 193 193 193 195 197 199 195 195 196 197 
198 200 198 198 201 201 201 201 202 203 201 198 199 199 199 198 
197 197 201 201 202 205 202 203 205 205 203 203 210 206 209 208 
207 210 210 210 211 210 210 210 212 208 211 211 208 208 209 209 
208 208 209 192 192 192 190 194 192 191 193 193 192 193 194 194 194 194 193 192 
194 191 193 193 193 193 192 192 193 192 193 194 193 194 193 192 
193 193 192 192 194 193 193 193 190 189 185 171 169 166 161 161 
165 165 167 165 168 176 184 186 189 194 196 201 199 198 200 199 
197 199 200 203 203 201 203 205 203 204 204 204 204 206 210 209 
207 208 211 211 211 211 212 212 211 211 210 210 211 210 210 210 
209 209 210 192 193 191 189 190 194 194 193 194 194 195 195 195 194 195 193 195 
194 196 197 195 193 193 192 191 192 194 194 194 193 192 192 191 
192 193 195 195 193 186 168 150 156 151 164 167 171 184 185 184 
188 192 195 189 183 180 169 159 158 155 167 174 182 194 195 200 
198 201 199 198 200 202 202 201 203 202 203 205 204 205 207 202 
204 209 209 209 210 211 209 211 209 211 211 210 209 210 210 208 
208 210 208 191 194 194 195 194 193 191 194 194 194 194 196 196 195 195 196 195 
196 196 195 195 194 193 193 195 193 193 191 195 196 194 195 194 
195 195 173 159 146 151 176 167 182 193 197 202 204 202 202 202 
200 203 204 201 204 201 199 200 194 196 181 173 147 161 158 183 
197 196 199 198 201 199 201 201 201 199 200 202 206 205 205 206 
206 208 209 209 208 210 211 211 212 211 211 214 211 209 211 212 
210 208 211 191 192 191 195 195 196 197 196 195 196 195 196 194 197 197 196 195 
194 197 194 196 195 193 192 193 196 195 193 195 194 197 198 192 
174 138 152 170 188 196 199 197 201 202 202 199 201 200 203 202 
202 195 199 199 198 200 202 200 202 199 199 203 198 186 179 157 
156 176 192 198 204 201 202 201 201 200 203 204 205 207 208 204 
206 208 208 208 206 209 211 210 210 211 210 211 211 209 209 209 
210 211 208 191 194 194 193 196 196 195 195 196 196 196 195 196 194 196 197 197 
196 196 196 195 195 195 195 194 192 192 195 197 198 193 167 136 
141 175 194 201 200 201 195 201 198 197 198 200 202 202 204 204 
202 201 203 202 202 204 204 200 202 201 199 201 200 199 199 194 
188 168 157 184 193 199 199 202 202 200 203 204 205 204 206 206 
207 210 209 209 207 207 211 213 212 211 211 212 211 211 212 210 
209 210 211 192 194 194 194 195 195 194 196 194 193 196 198 198 199 198 196 196 
198 198 198 195 196 195 194 193 191 197 195 197 172 139 140 180 
197 200 198 197 199 199 201 200 202 200 203 202 201 203 207 205 
203 203 205 202 199 202 206 207 204 206 200 202 203 199 199 205 
200 196 184 172 155 172 194 201 201 200 203 202 206 207 205 206 
207 209 211 210 207 209 212 213 214 212 212 214 213 212 211 212 
209 211 210 193 197 194 196 198 197 197 196 195 197 197 198 197 196 198 198 196 
199 197 197 195 193 196 197 194 196 194 175 130 154 192 203 204 
202 202 201 201 201 199 199 202 200 205 202 202 204 202 205 205 
204 205 206 205 204 204 200 204 203 201 199 202 204 203 202 203 
199 198 197 194 189 171 165 188 198 199 202 201 203 204 204 203 
204 209 209 210 207 209 212 212 212 213 212 209 212 212 211 211 
213 211 211 194 196 194 194 197 199 196 198 195 196 196 197 198 196 197 199 198 
200 196 197 197 194 195 195 197 186 145 122 168 202 204 203 200 
201 200 201 204 202 203 203 201 202 204 203 204 207 205 205 206 
205 203 206 203 206 205 205 203 205 206 200 204 203 201 205 200 
200 201 198 198 199 197 187 167 166 191 201 201 200 203 200 202 
204 209 211 211 210 213 211 215 213 213 213 212 211 211 212 212 
212 213 213 196 196 195 197 197 198 198 199 198 196 199 199 198 198 198 199 196 
199 198 198 196 194 197 201 167 116 125 196 204 203 202 203 203 
203 202 205 202 205 205 204 203 203 205 204 205 205 205 205 206 
205 205 205 207 205 203 204 207 206 201 203 205 201 201 202 203 
202 199 199 199 199 202 202 197 173 159 179 195 200 199 201 202 
207 208 210 210 209 209 213 213 213 215 213 212 213 212 211 211 
212 212 211 196 196 199 197 201 198 198 197 199 200 199 200 196 203 200 198 199 
200 201 197 197 198 197 146 119 176 201 202 204 203 202 201 202 
201 201 204 204 205 206 207 206 205 206 206 206 207 207 207 206 
206 207 206 205 206 207 206 203 206 205 206 206 203 202 203 202 
201 204 202 199 203 200 201 201 198 188 160 154 188 199 201 201 
206 205 208 212 209 212 212 211 212 212 213 213 212 213 212 213 
212 212 212 198 200 198 198 198 196 199 199 198 199 199 198 199 196 198 197 198 
197 199 200 200 194 134 119 182 208 203 201 201 202 204 205 203 
205 204 204 206 206 207 205 206 205 204 205 208 207 207 208 208 
207 207 206 208 208 207 208 208 208 205 205 203 203 204 205 202 
202 202 199 201 200 201 204 200 203 201 193 166 162 193 203 203 
205 205 205 209 213 212 212 212 214 214 214 214 213 212 212 213 
213 213 212 195 197 198 199 200 201 198 198 200 199 200 198 197 201 198 200 199 
200 200 203 200 122 129 197 205 203 203 200 204 203 204 203 203 
202 206 206 206 206 207 208 208 207 206 204 206 205 206 207 206 
205 203 207 207 206 208 207 206 208 208 204 206 203 204 204 205 
205 201 205 205 204 204 203 202 203 203 204 204 182 160 190 202 
205 206 206 210 211 214 213 211 212 214 213 214 213 213 213 213 
212 213 212 197 197 198 198 197 199 199 200 201 200 199 200 200 196 199 199 197 
198 201 195 122 128 205 203 204 202 203 201 204 203 202 204 203 
204 204 206 204 207 207 206 207 208 208 206 208 207 208 208 207 
207 209 209 207 207 208 209 209 209 208 208 208 206 208 206 205 
205 203 203 205 206 207 206 204 204 204 203 200 201 186 161 191 
205 203 204 205 210 214 212 213 212 212 215 212 213 213 214 213 
213 213 213 197 199 197 196 198 200 199 201 198 199 200 198 198 200 200 199 197 
202 188 121 158 206 203 203 204 203 204 205 204 205 205 204 204 
203 206 206 205 209 207 207 207 207 209 207 208 208 208 208 208 
208 208 209 208 209 209 207 209 209 211 210 207 206 206 206 208 
208 207 209 208 208 208 205 204 207 205 206 204 206 202 184 159 
198 207 206 206 208 211 213 211 213 214 214 216 214 213 212 213 
212 209 212 198 200 200 199 196 201 200 200 202 199 200 201 200 200 200 199 200 
195 123 158 209 207 203 203 205 203 203 207 206 205 207 205 205 
203 205 206 207 206 207 209 209 208 208 208 209 208 208 209 207 
208 209 209 207 209 209 208 209 211 210 206 208 208 209 208 208 
208 206 208 208 208 209 206 207 209 206 207 207 205 204 205 172 
154 195 210 206 206 211 210 212 212 213 214 212 212 214 213 214 
212 214 211 200 201 201 202 200 200 200 199 201 199 201 198 199 198 199 198 193 
117 140 205 204 202 204 200 203 205 204 204 205 204 207 205 206 
205 206 206 207 207 207 205 208 209 209 209 209 208 211 209 209 
207 208 208 209 210 211 208 210 210 208 209 209 209 210 208 209 
210 209 209 211 209 211 211 209 209 211 209 209 209 207 208 201 
180 150 202 207 208 208 209 213 214 214 216 213 214 214 213 213 
212 213 213 197 200 200 201 198 203 200 203 201 201 200 199 199 201 201 202 131 
152 204 206 203 203 202 206 205 204 205 202 205 205 207 202 203 
204 205 207 207 206 206 207 208 210 210 209 209 208 209 209 208 
208 211 210 207 208 209 209 210 207 209 210 209 210 209 209 210 
209 210 210 211 211 211 210 209 210 210 209 210 207 208 206 206 
203 165 168 207 209 210 210 211 212 211 212 213 213 213 213 212 
212 214 214 199 202 200 200 202 199 199 203 200 202 205 201 199 204 205 153 133 
208 207 203 204 204 204 204 204 203 202 205 204 204 204 205 206 
207 207 207 209 210 208 208 208 210 209 206 210 208 209 210 210 
210 211 211 209 208 210 210 211 212 209 209 211 210 211 210 210 
210 211 210 211 209 208 209 208 209 209 208 210 208 209 208 206 
203 196 155 179 207 204 204 207 213 214 214 215 214 214 213 213 
215 213 215 199 202 202 202 200 201 202 200 203 205 200 201 201 202 184 104 201 
208 204 204 202 204 205 203 206 203 204 203 204 211 209 206 202 
201 195 194 206 207 208 209 210 211 211 210 210 210 210 209 210 
206 206 209 210 209 209 209 211 210 211 210 212 209 212 212 211 
211 211 211 210 210 212 209 209 209 211 210 208 207 206 209 204 
204 206 191 138 188 205 206 209 210 213 212 211 213 212 213 212 
214 214 215 202 201 201 202 198 199 202 201 202 202 202 202 202 203 113 157 209 
204 205 204 204 203 204 204 204 204 204 203 189 177 170 157 145 
143 145 141 158 199 209 210 212 209 210 210 211 209 208 210 210 
210 208 210 208 210 209 208 211 210 210 210 211 211 210 209 210 
210 211 211 212 211 211 210 208 210 209 208 209 205 207 210 206 
204 203 208 165 142 191 203 206 209 210 212 214 213 213 213 213 
211 210 214 202 202 205 201 201 203 201 200 202 202 202 200 202 142 119 207 205 
203 205 206 203 204 203 203 203 204 205 199 133 150 174 187 204 
205 204 202 163 169 210 209 210 211 210 210 210 210 211 210 211 
210 208 210 209 211 213 210 211 211 211 209 211 211 210 212 211 
211 209 211 210 211 211 209 209 209 208 208 208 208 210 205 206 
207 208 206 198 150 153 206 207 207 211 208 212 211 213 213 212 
214 213 213 203 203 202 203 203 203 203 203 203 202 201 202 193 92 181 210 207 
206 205 206 204 203 204 204 203 205 206 137 171 205 208 209 210 
207 207 206 208 196 210 208 211 210 211 210 211 211 210 210 211 
210 210 211 212 212 211 210 211 211 210 210 211 212 210 211 210 
212 211 211 211 211 210 208 209 208 209 208 210 209 209 209 207 
203 207 206 206 192 121 190 210 210 211 211 213 212 211 213 213 
212 212 211 204 204 203 203 202 202 202 200 202 203 201 203 141 118 206 206 206 
206 206 205 205 205 203 202 205 205 178 146 210 206 206 207 207 
206 207 208 207 207 209 207 210 211 211 213 211 209 211 212 211 
211 210 211 210 211 211 211 210 210 209 211 211 210 210 210 210 
208 212 212 211 211 212 210 210 209 209 210 208 207 210 209 207 
207 209 209 206 201 155 149 207 212 210 211 212 212 211 210 212 
211 211 211 202 205 205 202 204 202 203 202 203 201 202 200 84 187 203 206 206 
206 207 207 204 207 208 204 202 204 129 196 210 205 206 207 209 
206 206 206 208 209 209 208 210 210 212 211 211 213 210 211 211 
212 212 212 210 211 211 210 211 212 210 211 212 211 212 211 211 
212 210 212 210 211 210 208 210 208 209 208 210 208 209 210 208 
208 208 210 208 205 195 133 180 212 210 210 209 211 212 212 211 
212 212 212 205 201 204 203 203 203 205 203 201 204 205 159 130 209 203 207 207 
208 207 207 207 205 206 206 205 200 161 208 207 208 208 208 208 
208 206 208 208 210 209 210 210 210 212 210 211 211 212 211 212 
212 210 211 211 212 211 212 211 211 210 210 211 211 211 212 211 
211 210 212 210 211 211 208 210 211 209 209 209 209 211 209 208 
208 208 210 209 206 208 167 159 205 209 210 208 211 212 212 213 
212 213 212 205 204 204 203 204 202 205 202 207 206 204 105 192 209 207 208 207 
208 208 209 204 207 207 206 206 203 207 206 202 207 205 208 207 
208 212 208 208 209 210 210 211 211 211 212 212 212 211 210 211 
210 211 212 211 211 211 212 210 211 211 211 211 210 210 211 212 
212 212 210 210 209 208 209 211 210 208 210 208 208 209 208 210 
209 210 209 209 206 207 202 136 184 211 210 211 210 212 212 212 
212 211 212 203 205 204 205 205 204 205 204 205 208 178 117 210 208 210 210 211 
209 209 210 208 209 208 207 207 206 210 208 208 209 206 208 210 
211 212 211 209 209 210 211 212 211 212 211 211 212 212 212 211 
212 212 211 211 211 211 211 212 212 211 211 211 211 213 212 210 
212 212 211 209 210 210 209 211 209 210 208 209 209 207 208 209 
208 208 210 207 204 205 205 152 163 208 209 208 211 212 211 212 
211 211 211 206 205 205 205 204 203 204 201 207 207 114 176 209 209 209 208 207 
207 210 208 210 209 208 208 207 208 210 208 209 207 208 206 209 
186 161 199 207 210 207 209 208 211 211 211 211 211 211 212 211 
211 212 210 212 210 212 211 212 213 211 210 209 213 191 214 210 
210 210 210 210 210 210 211 211 210 207 208 210 211 211 210 210 
208 209 209 207 209 207 204 193 143 197 209 212 211 211 211 211 
212 212 212 205 206 205 205 206 206 205 203 207 197 101 210 210 210 209 209 212 
210 209 209 209 209 209 208 209 207 209 210 210 208 206 210 191 
114 98 144 208 209 210 211 210 209 211 213 212 213 211 210 210 
211 212 211 211 213 213 211 211 212 214 213 211 211 184 187 210 
214 211 210 210 209 209 207 210 210 209 209 211 210 211 209 211 
212 210 208 209 210 210 206 205 150 175 210 211 211 212 211 211 
211 211 210 206 205 207 206 206 205 205 203 205 167 115 208 208 207 210 211 210 
210 209 209 208 209 207 209 209 209 208 210 210 210 208 205 114 
95 86 89 175 209 211 209 210 211 211 211 211 211 211 212 211 
210 211 213 210 212 211 213 211 211 214 215 210 212 208 168 150 
188 204 211 211 212 211 212 212 210 210 210 197 134 207 211 208 
212 209 210 209 208 209 208 207 183 144 209 210 212 212 210 212 
212 211 212 207 207 206 205 204 204 207 204 206 133 145 211 206 209 210 211 210 
210 210 209 209 209 209 209 209 209 210 210 211 211 211 162 91 
101 67 58 129 207 210 209 211 208 210 212 211 210 212 212 210 
210 211 212 213 212 213 211 213 212 214 212 211 211 211 209 187 
148 137 167 181 201 207 209 209 200 189 170 107 130 212 209 210 
210 210 208 210 210 209 208 209 207 159 189 210 210 212 211 211 
212 212 212 207 205 207 207 207 206 205 207 207 112 194 210 205 206 208 210 211 
210 211 210 211 211 210 210 211 209 210 209 210 211 205 132 103 
95 63 57 105 192 209 212 212 208 213 212 213 212 213 212 212 
209 213 212 211 213 213 213 211 211 213 214 211 212 212 211 212 
205 185 148 106 103 114 132 145 127 112 107 124 200 213 211 210 
211 212 209 208 208 210 209 208 210 178 160 212 212 212 211 213 
212 211 212 208 208 207 208 208 209 206 206 188 115 213 206 205 206 209 210 211 
211 209 209 211 208 208 208 209 210 210 211 212 211 194 120 101 
78 57 59 93 165 203 211 211 211 212 211 211 212 212 211 211 
212 212 212 211 212 212 213 214 213 213 211 212 213 214 212 212 
212 205 135 88 82 83 105 146 172 196 200 206 216 211 211 211 
212 211 210 210 208 208 211 211 213 186 146 212 212 209 211 212 
212 212 213 208 206 206 208 208 208 206 206 140 162 211 208 210 209 209 209 208 
210 210 211 211 211 209 209 210 210 210 211 211 214 190 114 91 
69 56 56 102 166 195 211 210 209 210 211 211 211 212 212 211 
210 210 211 214 213 209 211 211 212 213 213 213 212 213 212 212 
211 184 101 63 85 113 91 170 211 214 215 215 212 212 210 211 
211 211 209 210 209 209 207 210 206 201 142 202 212 213 212 213 
212 213 212 209 208 209 208 208 208 207 207 131 185 210 209 208 209 210 211 211 
211 211 210 210 210 209 209 210 211 210 211 210 212 204 122 98 
69 52 57 112 170 207 212 210 211 211 211 211 211 211 212 212 
212 212 211 211 213 212 213 211 212 213 214 215 210 214 211 212 
207 161 92 64 78 101 85 170 213 211 212 213 211 211 211 211 
210 211 210 209 210 209 209 212 209 206 147 187 210 212 213 212 
211 212 211 207 209 207 209 207 207 207 196 102 194 207 210 208 208 208 210 210 
211 210 211 210 210 211 210 210 210 211 209 210 211 207 121 84 
48 45 55 110 174 213 212 212 211 211 212 213 213 212 210 211 
211 211 210 214 211 214 213 214 213 212 214 214 213 212 212 211 
207 142 77 69 87 79 79 157 213 211 210 211 211 211 211 211 
211 210 210 212 209 212 208 211 210 210 168 169 215 211 211 211 
212 212 211 208 207 208 210 208 208 208 194 113 206 209 209 208 207 209 210 211 
210 210 210 211 209 211 209 209 211 211 211 210 211 208 153 75 
43 51 79 120 203 212 211 212 213 212 212 213 211 211 212 211 
213 210 210 210 211 212 213 212 213 213 213 213 215 212 211 211 
208 173 82 69 85 78 76 175 211 212 212 212 213 212 213 213 
211 212 211 208 210 210 211 210 210 209 183 173 210 212 212 212 
212 212 211 210 209 208 207 206 208 208 187 125 208 208 207 208 208 209 211 213 
210 211 212 209 210 210 210 211 209 211 209 210 212 207 200 95 
52 63 100 153 212 212 214 211 212 212 211 211 212 212 212 211 
212 213 212 211 212 213 212 214 213 213 212 212 214 213 212 212 
209 191 67 68 88 65 79 204 211 212 212 211 211 212 213 214 
211 213 209 211 211 210 208 210 211 211 193 158 214 213 210 213 
212 211 212 209 208 208 208 208 209 207 182 145 209 208 210 209 209 210 210 207 
214 212 211 210 210 210 210 209 210 211 210 210 213 211 211 176 
70 64 104 179 213 211 212 212 210 211 211 211 211 211 212 211 
212 211 212 212 209 212 213 214 213 212 213 214 214 212 212 213 
211 199 74 57 74 64 118 211 212 212 213 212 213 212 211 212 
214 213 213 211 212 210 210 209 210 210 198 147 208 212 213 213 
213 211 212 208 208 206 208 206 204 207 174 156 209 210 209 209 210 211 212 212 
210 211 209 209 211 212 210 210 211 209 210 209 212 211 211 209 
157 127 130 209 212 212 211 212 212 212 212 213 213 211 211 211 
212 211 211 213 212 213 212 212 213 212 212 213 211 213 212 213 
213 208 101 58 69 78 170 216 213 213 213 213 212 213 212 212 
211 213 214 211 213 212 212 210 210 210 204 141 206 212 212 212 
211 212 210 209 208 209 207 209 208 203 162 155 210 210 209 209 210 210 210 210 
210 211 212 211 210 210 210 209 210 210 210 212 212 211 213 212 
211 209 199 213 211 212 212 212 212 213 214 211 212 212 212 213 
212 211 213 212 212 213 214 213 211 212 212 215 213 213 212 211 
212 208 142 73 73 142 211 214 214 213 214 213 213 213 214 212 
212 212 211 212 212 212 212 212 211 211 205 137 198 212 212 211 
211 212 211 208 208 208 209 208 207 206 158 164 208 210 209 209 210 211 211 211 
210 211 211 210 210 212 211 212 209 209 211 211 211 212 211 211 
212 212 213 213 212 212 211 211 211 211 211 211 212 212 210 210 
211 212 212 213 213 211 213 213 213 214 213 211 212 213 213 211 
210 208 176 148 170 206 215 214 215 213 213 213 213 215 212 214 
212 212 213 214 214 214 212 214 213 211 205 139 203 211 212 211 
212 210 210 208 208 208 208 209 208 205 155 168 208 208 210 209 211 211 211 211 
211 212 211 212 211 211 211 210 210 212 210 211 212 212 213 213 
214 213 210 212 211 211 210 212 211 213 212 211 213 212 214 212 
212 212 213 212 212 212 212 212 214 213 211 212 214 213 212 213 
211 210 207 205 215 215 214 214 214 214 214 214 213 214 213 213 
214 213 213 214 213 214 213 214 211 212 211 154 201 213 211 211 
211 211 211 208 208 209 209 208 208 203 139 177 211 210 211 210 210 211 211 214 
211 212 211 212 211 210 210 211 211 207 211 211 212 212 215 210 
210 212 212 212 212 213 213 211 213 211 214 212 213 212 210 211 
212 212 212 212 213 213 212 212 215 213 215 212 213 214 215 212 
211 212 213 213 214 214 214 214 212 213 214 213 213 212 213 213 
213 213 214 214 213 214 213 212 212 212 211 154 195 215 211 212 
211 212 211 210 209 207 207 208 208 205 160 174 209 209 210 211 210 211 211 210 
211 211 212 211 211 211 212 211 211 211 212 212 211 211 212 212 
213 212 211 212 211 211 213 211 213 210 212 211 212 211 213 212 
212 211 212 211 213 213 211 214 213 213 213 213 213 212 213 213 
213 212 213 212 215 215 215 215 215 214 214 213 212 212 213 211 
213 213 213 214 212 213 212 212 213 212 209 158 200 214 212 212 
212 211 211 208 209 210 208 208 207 208 159 165 213 209 210 208 210 209 211 211 
211 212 212 211 210 211 212 212 212 212 211 214 211 213 213 213 
213 212 213 212 212 212 212 212 212 213 212 213 212 213 212 211 
211 212 212 211 211 213 214 215 213 212 213 213 213 213 214 212 
213 214 212 213 214 213 214 215 212 213 214 214 215 213 213 214 
213 213 213 214 212 214 214 212 211 213 208 167 195 214 213 213 
211 211 210 208 209 209 208 209 209 208 165 161 210 211 211 208 208 210 212 210 
211 211 212 211 210 213 211 210 211 211 214 213 212 212 212 213 
212 212 212 212 213 213 212 212 212 214 213 212 211 213 212 213 
212 213 211 212 213 212 213 213 214 215 213 213 213 213 213 216 
214 213 214 214 213 214 214 213 213 213 214 213 213 214 214 214 
214 212 212 214 212 212 212 212 212 212 210 153 199 212 212 213 
210 210 211 211 210 208 209 209 209 205 177 162 209 208 211 211 212 210 211 213 
212 210 212 212 213 212 212 211 212 213 212 212 212 212 212 212 
212 213 212 212 211 210 213 213 213 211 212 211 211 213 211 211 
212 211 213 212 214 213 214 212 211 213 213 213 213 213 213 212 
212 214 214 213 214 214 214 213 215 213 213 214 214 213 214 211 
212 212 213 213 211 212 212 212 213 213 207 151 204 212 213 211 
211 212 211 208 206 208 209 209 208 207 179 147 210 210 211 210 210 209 210 213 
212 211 212 212 211 211 212 212 213 212 213 212 212 215 214 211 
213 213 213 212 212 212 212 213 212 213 213 213 213 211 212 213 
211 212 212 212 212 213 213 213 213 214 213 214 214 213 213 215 
215 214 212 214 213 213 215 214 214 215 214 214 213 211 213 213 
216 213 214 215 213 212 211 211 213 211 202 145 206 213 211 210 
211 209 211 210 210 208 209 208 209 207 196 144 212 210 211 212 212 212 212 212 
212 213 211 212 212 212 212 212 211 213 213 214 211 212 212 213 
212 212 213 213 211 212 212 210 212 211 211 213 211 213 212 213 
211 211 213 211 212 213 212 213 214 213 213 213 213 213 213 214 
213 213 213 213 214 214 213 212 213 215 215 215 212 212 213 214 
213 211 212 213 212 211 212 209 213 211 201 148 211 212 212 211 
210 211 210 211 209 210 209 209 208 209 203 145 207 211 211 211 209 213 210 213 
211 211 211 211 212 212 211 213 212 210 212 213 213 213 213 212 
212 212 211 212 212 212 212 213 211 212 211 212 212 213 213 212 
212 211 211 211 211 212 211 213 212 213 215 212 213 214 214 214 
214 214 214 213 213 214 213 215 214 213 212 215 212 212 213 211 
212 212 212 213 213 212 210 209 211 210 194 152 213 213 211 211 
211 211 210 209 211 211 209 207 208 209 205 153 199 207 211 211 210 212 212 212 
212 213 215 211 211 213 213 211 210 213 213 213 211 214 212 213 
212 213 213 215 212 211 213 212 212 212 212 212 210 211 212 212 
210 211 212 211 211 211 212 212 212 213 212 213 214 213 213 213 
214 214 214 212 213 212 214 213 214 214 213 214 214 213 211 215 
213 212 211 212 211 210 210 210 209 210 160 175 212 211 212 212 
210 213 210 212 209 210 210 210 210 210 206 163 178 211 211 210 210 211 212 212 
212 210 211 213 211 212 212 212 212 212 212 213 213 211 213 211 
212 212 210 209 213 212 212 212 211 212 211 211 213 211 211 211 
212 212 211 210 212 213 212 212 212 212 215 211 213 213 212 214 
213 213 214 213 214 213 213 212 214 212 214 213 212 212 213 212 
212 211 212 212 213 211 211 211 209 213 145 187 213 210 212 212 
212 210 210 210 209 210 210 209 209 209 208 191 168 211 209 211 212 211 212 212 
211 212 212 212 212 212 211 212 212 213 212 212 213 213 212 213 
212 213 213 212 212 212 213 212 212 212 210 212 213 213 211 211 
212 210 211 211 211 211 211 209 212 212 211 212 214 213 213 213 
214 213 213 213 214 215 213 214 213 214 213 213 214 213 213 212 
212 213 213 212 211 211 212 212 210 207 155 203 213 211 211 211 
212 210 210 211 212 211 209 210 211 211 208 200 152 207 210 211 211 211 211 210 
211 211 213 211 211 211 211 212 212 212 212 213 212 214 213 212 
213 212 212 211 212 213 211 212 211 211 211 211 211 212 213 211 
211 211 211 211 211 212 211 213 212 212 211 213 213 213 212 214 
214 214 213 212 214 214 213 211 212 212 214 213 214 212 213 213 
213 213 214 211 212 214 213 212 210 200 156 212 212 211 212 212 
211 210 210 210 211 210 211 210 211 211 211 210 156 191 211 211 210 211 212 212 
213 211 212 210 211 211 212 211 211 213 213 214 213 215 212 213 
213 212 212 213 212 211 213 211 212 211 211 211 211 211 210 211 
211 211 210 210 211 213 212 212 211 211 210 211 211 212 211 213 
213 214 214 215 214 213 213 213 215 212 213 212 214 214 211 211 
212 212 212 211 212 212 213 211 211 174 170 212 212 212 212 213 
212 213 211 211 211 211 210 211 210 210 209 209 141 155 208 210 210 211 211 212 
211 212 211 212 210 211 211 213 210 211 211 211 213 212 212 211 
214 211 212 211 212 214 211 210 212 211 211 210 210 211 211 209 
210 210 211 211 210 209 210 210 210 211 210 212 211 212 212 211 
212 213 213 213 214 213 214 213 214 215 214 213 212 212 215 212 
212 213 211 212 211 211 211 212 209 138 182 213 211 211 209 212 
210 211 210 211 211 211 211 212 208 209 206 210 181 128 214 209 210 209 211 211 
210 211 214 210 210 211 211 211 212 212 212 211 212 213 213 211 
212 212 213 214 212 212 212 212 209 210 211 211 210 211 210 212 
211 211 209 209 211 212 214 212 213 213 213 213 212 211 211 214 
212 214 213 216 214 213 213 214 214 215 213 213 214 212 213 212 
211 211 212 211 210 215 209 207 196 130 206 212 213 213 212 211 
211 210 211 211 211 211 210 213 211 207 208 208 199 128 191 209 208 213 211 212 
213 212 210 211 212 210 211 213 213 212 212 212 213 212 213 212 
212 212 210 211 211 213 212 211 211 210 209 210 209 209 209 208 
210 210 211 212 213 213 210 206 209 204 204 202 200 198 213 212 
214 212 213 214 214 213 213 213 213 213 212 211 213 212 213 212 
213 212 210 211 213 214 208 209 164 160 212 213 212 211 212 212 
211 211 210 210 211 210 210 211 212 210 210 208 210 170 149 210 208 210 208 210 
211 212 212 211 212 213 211 211 211 211 212 212 213 211 212 212 
213 210 211 211 212 212 213 212 211 210 210 210 209 209 211 211 
210 211 206 206 169 160 141 132 133 127 139 127 108 127 173 214 
213 211 214 212 213 213 215 213 214 213 213 215 213 213 214 212 
210 211 211 211 211 212 211 199 145 196 213 212 212 211 210 211 
211 212 211 211 211 211 210 210 210 210 209 207 208 204 143 204 207 210 209 210 
213 211 212 212 213 210 211 211 210 212 211 211 211 212 212 211 
211 214 211 210 211 211 211 212 210 208 208 209 212 212 208 204 
191 169 130 120 107 113 116 113 102 114 100 73 98 128 121 212 
213 212 214 214 213 214 212 214 214 213 213 214 213 212 212 211 
212 213 213 214 213 212 209 193 142 211 212 213 213 212 211 212 
212 212 212 211 211 209 211 209 210 209 206 205 208 208 184 165 212 210 210 212 
212 212 213 213 212 209 212 212 210 211 212 211 211 213 211 211 
211 212 214 209 211 212 211 210 209 210 210 212 212 193 157 126 
94 81 80 75 70 83 70 76 82 91 81 102 95 82 155 215 
214 212 215 214 213 213 214 213 214 213 214 213 212 212 212 212 
211 211 213 213 214 212 209 135 174 212 212 211 213 213 213 212 
211 213 212 211 209 210 210 209 207 208 208 209 208 206 202 142 201 210 213 211 
211 211 211 213 213 212 212 211 211 208 211 211 211 211 213 210 
210 210 212 210 209 209 210 212 209 210 200 175 144 106 92 88 
69 62 65 63 72 84 91 100 104 90 97 91 92 168 208 212 
214 212 212 214 212 212 212 214 214 213 215 213 213 213 214 211 
210 212 212 213 214 213 174 107 206 213 212 212 212 214 213 213 
210 212 212 211 211 211 210 210 208 211 207 205 208 208 207 181 161 213 209 211 
211 210 212 211 210 212 209 211 211 212 211 211 212 210 210 212 
212 212 211 209 208 207 212 212 197 163 119 98 104 95 102 104 
97 109 123 94 108 118 121 133 126 125 131 153 199 214 212 213 
213 213 215 213 214 212 212 213 214 215 217 213 213 212 212 212 
212 210 212 212 212 211 141 167 214 212 212 211 212 212 211 210 
212 212 210 211 211 211 209 210 210 209 207 208 206 203 206 206 148 195 213 211 
213 212 212 212 211 212 212 210 210 211 211 210 213 213 212 211 
210 211 211 208 206 213 193 147 117 110 98 92 125 158 186 198 
211 207 210 205 207 207 209 208 209 210 211 209 215 215 213 213 
214 213 213 213 212 214 212 212 216 219 213 213 213 214 211 212 
210 211 211 211 210 210 144 204 214 214 213 213 212 213 213 212 
210 212 211 211 211 210 210 211 211 208 210 208 206 204 206 206 198 171 210 213 
212 211 212 212 211 211 211 215 210 211 211 211 210 210 212 210 
215 213 211 209 206 142 92 72 100 135 168 195 210 214 214 213 
213 215 214 213 212 213 216 213 213 214 214 214 213 215 213 212 
214 214 213 213 214 211 213 214 215 215 212 213 212 214 212 212 
213 212 210 211 213 181 173 213 212 212 214 212 212 213 212 211 
212 212 212 211 209 212 211 210 210 208 207 207 206 209 207 207 209 180 175 213 
209 210 212 211 212 212 212 207 212 211 212 212 211 210 212 211 
211 212 211 209 194 149 139 172 202 215 212 212 213 213 211 212 
210 211 212 211 211 212 212 212 213 213 213 212 212 213 214 213 
212 215 213 213 212 214 212 213 215 213 212 212 214 212 212 209 
212 212 210 212 196 165 209 211 213 213 214 211 212 213 212 212 
215 209 212 211 208 211 210 210 211 209 208 208 209 207 209 207 207 206 169 192 
207 208 208 210 211 212 213 215 211 211 212 212 212 212 212 212 
212 212 211 209 209 207 207 212 210 211 212 211 211 211 210 211 
212 212 213 212 212 211 212 211 211 211 212 212 213 212 213 214 
212 212 212 213 213 213 214 214 212 212 215 212 214 213 212 213 
211 214 212 209 169 200 216 213 213 212 211 212 212 211 212 213 
214 211 208 210 209 210 209 209 210 210 208 208 208 207 209 207 207 211 205 166 
202 209 210 212 210 211 210 212 211 210 212 213 212 211 213 213 
212 212 211 210 210 209 210 211 209 209 211 211 211 211 212 209 
211 211 212 212 212 212 213 212 212 213 214 213 214 213 212 212 
213 213 213 212 213 214 213 213 212 212 211 213 212 211 213 210 
213 211 208 168 181 214 212 212 212 213 212 214 212 212 212 213 
213 213 210 211 211 211 211 211 210 210 209 211 209 209 207 208 207 210 213 194 
165 206 210 209 211 209 210 210 210 214 211 210 211 211 214 211 
210 213 211 209 208 208 210 207 206 211 211 210 211 211 211 209 
210 212 212 211 212 212 212 213 214 213 212 211 213 213 214 213 
212 212 214 212 213 210 213 213 213 212 214 214 214 212 209 210 
212 213 172 168 210 213 213 212 210 212 212 212 213 213 212 213 
213 213 210 211 211 211 211 211 210 210 210 209 209 208 209 208 209 209 211 211 
190 167 205 211 210 209 210 208 209 210 213 211 211 211 212 211 
211 211 210 208 209 208 209 206 205 210 211 209 211 211 211 211 
212 211 213 213 212 212 212 211 211 212 213 213 212 212 213 213 
212 213 212 212 211 212 212 212 212 213 214 214 213 214 210 211 
216 198 165 210 213 211 213 212 214 209 213 211 214 211 212 211 
213 214 210 211 211 211 209 211 211 210 210 211 207 211 209 209 207 209 210 211 
213 180 170 211 211 208 207 209 210 209 211 211 212 212 211 212 
213 211 209 212 209 210 209 209 210 211 210 210 211 211 211 211 
211 211 213 213 213 212 216 212 212 213 212 211 211 211 212 213 
212 213 211 212 212 211 212 213 213 213 212 214 208 209 210 212 
202 167 204 214 213 214 212 211 213 210 210 212 213 213 211 212 
212 211 210 211 211 211 212 212 207 211 211 208 209 209 209 209 207 209 209 209 
209 210 185 178 208 211 210 209 208 210 213 211 212 211 213 212 
211 210 213 211 210 210 211 211 211 209 211 210 211 210 211 213 
211 211 212 211 209 213 211 213 214 212 212 212 213 213 214 212 
212 211 212 211 211 211 211 211 212 212 212 212 210 208 213 196 
167 200 215 215 213 213 212 212 212 212 211 211 211 212 212 211 
212 212 212 211 210 211 210 208 210 211 210 211 211 210 209 209 210 209 209 209 
209 209 206 180 163 206 210 209 208 212 212 209 211 212 212 212 
211 211 209 212 210 211 211 210 210 211 212 212 210 210 211 212 
211 210 211 211 213 211 212 213 211 212 213 212 213 211 210 212 
212 212 211 212 211 211 212 211 211 210 212 211 209 211 196 161 
198 216 214 212 212 212 212 213 212 213 212 213 212 212 212 211 
212 209 210 209 211 211 209 211 211 210 208 209 209 209 208 209 210 209 209 210 
211 208 208 210 182 167 205 210 208 210 208 211 211 214 210 211 
213 212 212 211 210 211 211 211 211 210 212 211 210 209 212 214 
211 211 211 212 212 212 213 211 213 212 211 211 212 213 212 211 
211 212 211 211 211 213 211 212 211 211 212 212 215 185 157 201 
216 213 210 212 213 213 211 211 211 211 213 213 210 212 211 210 
212 211 210 209 209 211 210 208 212 210 210 212 211 209 209 210 210 209 211 212 
210 206 208 209 209 192 162 197 208 208 212 211 211 211 210 211 
211 212 212 211 210 211 212 211 211 210 211 211 211 210 212 212 
210 212 211 212 211 213 212 212 211 212 211 213 213 214 213 212 
212 210 213 210 211 210 210 212 211 207 212 210 181 162 204 216 
214 214 214 213 214 212 212 214 213 212 212 210 212 212 211 210 
213 211 210 209 210 209 208 208 208 211 208 210 212 211 211 210 210 211 210 210 
211 210 209 208 209 209 200 173 190 209 211 211 210 210 210 210 
211 210 211 211 211 210 212 211 211 211 212 209 210 209 212 211 
211 211 212 212 212 211 213 213 212 211 211 213 213 212 211 211 
211 212 213 211 211 211 211 211 209 211 212 194 173 207 214 213 
214 215 213 213 213 211 212 211 213 210 211 212 212 212 212 212 
214 212 210 210 209 209 210 212 208 209 209 210 211 210 211 211 209 210 210 212 
211 211 210 210 208 208 213 206 183 180 205 209 208 211 210 212 
213 213 213 211 209 210 209 211 211 209 208 211 210 210 212 212 
211 211 213 211 212 213 211 212 212 212 212 211 210 211 212 210 
211 210 212 211 210 208 212 213 213 210 200 193 210 215 213 214 
214 213 213 212 212 212 212 212 211 212 213 210 211 210 211 211 
211 213 210 208 210 210 209 211 207 210 210 208 209 210 208 208 208 211 211 210 
209 212 210 211 210 209 209 209 209 195 184 193 210 212 211 211 
212 211 212 211 210 209 211 212 212 211 210 209 212 212 212 213 
213 213 211 212 213 211 211 213 212 213 213 211 211 213 211 212 
210 211 210 211 211 211 214 214 199 187 200 211 214 213 215 213 
215 214 213 212 212 211 211 212 212 210 211 211 212 210 212 211 
211 212 211 208 210 210 208 208 208 209 208 209 208 209 209 209 210 208 208 211 
211 211 210 212 209 211 210 209 210 210 204 184 182 206 211 211 
211 212 211 211 213 210 211 210 210 210 211 211 211 212 213 212 
213 214 211 211 211 212 212 212 213 213 210 211 212 211 212 209 
209 212 210 210 215 211 191 176 182 209 209 212 214 214 211 216 
213 215 214 213 212 212 212 211 212 211 212 211 211 210 210 210 
209 211 211 209 210 207 208 209 208 208 209 209 208 208 209 208 205 208 210 211 
210 210 211 210 211 209 209 208 211 208 210 209 203 187 190 208 
214 211 211 211 210 209 210 211 212 210 211 212 212 211 213 212 
212 213 211 212 213 212 212 212 211 211 214 211 209 211 212 212 
210 211 212 213 200 181 159 201 209 211 211 213 214 214 213 213 
212 215 214 212 213 211 211 212 212 212 212 211 210 211 211 211 
210 209 209 209 208 210 208 208 209 207 208 207 207 207 206 205 207 207 211 212 
211 211 213 211 210 213 210 210 210 209 209 209 210 212 205 200 
199 208 215 209 211 211 211 211 212 212 211 212 210 211 210 213 
212 211 211 212 212 212 212 211 211 210 212 211 209 211 213 213 
210 211 203 179 170 171 199 214 214 212 213 214 213 214 213 212 
212 217 213 214 212 211 213 212 212 212 211 212 212 211 210 210 
210 212 210 209 209 210 208 209 207 207 208 205 201 203 206 209 210 209 212 212 
211 212 211 212 211 210 211 211 211 210 210 210 207 209 209 209 
208 192 193 200 208 212 211 212 212 209 211 209 212 212 212 212 
211 212 211 211 211 210 212 210 210 210 211 213 213 212 214 208 
199 168 181 191 195 203 212 211 213 214 213 213 213 213 215 215 
213 212 210 212 212 211 211 212 210 211 211 212 211 211 212 210 
211 210 210 208 209 208 208 209 207 207 208 208 206 208 208 209 212 209 213 213 
214 213 212 212 211 212 211 212 212 210 211 212 211 211 209 211 
208 210 210 207 193 193 193 201 209 211 211 209 208 211 213 212 
212 213 211 216 213 212 214 210 210 209 211 205 193 186 177 171 
181 191 200 204 212 214 212 213 212 213 215 214 215 215 214 213 
213 212 213 213 214 212 213 212 211 213 212 210 211 212 212 212 
211 211 209 209 209 207 208 208 210 208 209 208 207 208 208 210 211 211 212 212 
212 212 212 212 211 212 211 209 209 213 212 211 211 211 211 211 
209 209 212 210 209 208 204 201 195 194 195 193 201 207 207 208 
212 211 212 212 213 214 213 211 213 212 210 175 140 177 183 183 
199 206 211 215 214 212 214 213 215 214 214 213 213 215 214 214 
214 214 214 213 213 212 211 212 212 211 212 212 212 212 215 212 
212 211 212 210 208 208 208 209 208 210 206 207 207 207 205 209 207 211 211 211 
211 211 212 212 213 213 212 212 211 212 211 213 213 212 213 212 
212 211 209 211 211 211 211 212 214 211 207 209 203 201 201 205 
202 201 205 205 205 207 206 209 205 202 204 202 187 206 210 215 
214 213 213 213 212 213 214 214 215 214 214 214 216 214 213 212 
213 213 212 213 213 213 213 213 211 211 212 212 213 212 215 212 
211 210 210 205 207 208 207 208 209 206 207 207 208 206 204 210 209 210 214 211 
211 214 213 212 212 213 213 214 213 213 212 213 212 211 212 211 
211 210 210 210 211 212 212 211 212 212 212 211 212 213 214 212 
212 212 212 212 212 212 213 214 213 213 213 214 215 215 215 214 
212 212 212 212 214 214 213 214 215 213 213 214 213 213 215 213 
212 212 213 214 211 214 212 212 213 211 212 211 212 211 212 212 
212 210 208 210 210 205 206 206 208 207 208 207 207 207 205 207 209 210 213 212 
212 212 210 213 211 212 213 210 211 209 211 212 213 212 211 210 
212 211 212 211 213 214 211 211 210 211 211 211 212 213 213 213 
213 213 213 215 213 213 215 213 212 213 213 212 214 214 212 213 
214 212 212 213 213 215 212 213 213 214 214 214 212 214 215 213 
215 213 213 212 212 212 212 211 211 212 212 213 213 213 213 211 
211 212 211 206 205 209 207 209 208 208 207 206 207 205 205 208 210 210 211 212 
211 210 211 212 210 213 212 213 214 213 212 213 213 212 211 211 
210 210 211 211 207 209 211 213 212 213 212 212 212 212 211 213 
213 212 214 212 213 212 214 213 212 213 213 213 215 213 212 214 
213 213 213 214 214 212 215 215 214 214 214 214 214 214 213 211 
214 213 215 213 213 212 212 212 211 212 211 212 213 213 212 210 
212 212 211 208 207 207 207 208 207 208 206 206 207 208 207 208 209 211 210 209 
211 210 212 210 212 210 212 212 210 215 213 213 213 210 212 212 
212 211 211 210 213 211 210 211 212 210 212 213 211 212 212 212 
213 214 214 214 212 212 215 216 216 214 213 214 215 215 214 213 
214 213 214 212 215 213 213 214 213 214 215 214 212 214 214 213 
213 212 213 212 212 214 213 213 211 213 213 212 213 211 211 211 
209 211 210 208 207 207 206 207 207 205 206 206 205 206 206 205 206 208 208 209 
210 210 210 211 210 213 212 211 212 211 212 212 211 213 209 210 
211 211 211 211 209 210 210 213 212 213 211 212 214 212 212 211 
213 213 213 214 213 216 214 214 212 213 213 214 213 214 212 213 
215 214 213 213 215 214 214 215 214 212 212 214 214 213 213 213 
213 213 212 213 212 212 214 211 212 209 212 212 211 212 211 211 
211 209 211 208 208 206 206 206 206 208 206 205 204 206 206 208 207 208 206 209 
209 210 210 211 210 210 212 212 212 212 212 213 212 212 211 212 
211 212 211 210 211 211 211 211 212 212 212 213 212 213 212 213 
214 212 213 213 213 213 215 214 215 213 214 213 214 214 213 213 
213 213 214 213 212 212 213 214 214 214 213 215 213 216 214 215 
213 213 212 214 213 213 213 210 211 211 212 211 213 212 210 212 
211 213 211 207 207 206 207 208 208 207 205 202 204 205 204 202 205 211 207 206 
206 209 207 208 210 210 211 211 213 211 212 213 213 213 213 211 
211 209 210 209 211 211 213 212 211 211 211 213 212 212 213 212 
211 214 215 211 213 213 214 214 214 214 214 214 214 214 214 212 
213 213 213 215 215 214 215 213 214 214 213 213 211 212 212 211 
214 212 212 213 213 212 212 215 213 212 213 213 213 212 213 211 
212 211 209 