P2
# Created by IrfanView
100 100
255
213 214 213 213 214 214 212 214 214 214 213 214 214 215 214 213 215 
214 213 214 216 216 214 214 213 213 213 214 213 214 212 212 212 
212 214 214 215 215 213 212 213 213 212 212 214 213 214 212 214 
212 215 215 215 214 214 213 213 215 216 216 216 216 214 215 216 
215 216 217 216 218 218 219 219 222 221 221 221 220 222 224 222 
223 220 221 220 219 220 221 220 219 221 219 221 220 221 222 222 
221 221 221 215 213 214 214 214 213 215 213 214 213 214 214 215 214 214 213 214 
215 214 212 214 213 214 214 214 213 212 212 213 213 211 213 213 
214 214 214 216 214 211 212 213 215 213 213 214 213 214 213 213 
213 214 214 215 215 215 216 214 215 215 215 216 215 216 216 215 
218 216 216 217 218 217 218 219 217 218 220 222 223 223 222 223 
222 222 221 221 220 220 221 220 220 219 221 220 221 220 221 222 
220 221 219 215 214 216 214 216 216 215 214 215 213 213 214 213 215 215 216 214 
214 214 213 213 214 213 213 214 214 215 214 214 212 215 215 215 
213 213 214 216 215 215 214 212 213 213 213 214 214 213 214 213 
214 214 216 213 214 214 213 215 214 214 213 214 215 215 219 216 
219 217 218 219 220 216 217 217 218 219 221 219 221 221 222 224 
223 223 221 222 221 220 221 221 220 221 221 220 221 221 222 221 
221 220 220 216 216 215 214 218 215 214 215 214 215 216 215 217 216 216 216 216 
214 215 215 213 216 213 215 213 213 214 216 216 217 216 216 216 
215 216 214 213 214 214 215 214 213 212 214 214 213 215 213 214 
212 212 214 212 213 214 216 215 214 213 214 216 217 217 217 217 
216 217 215 218 218 219 217 215 217 220 219 218 219 219 219 223 
223 225 222 221 222 221 222 220 221 221 220 221 220 220 220 222 
221 221 220 216 216 216 216 217 217 217 216 217 215 216 216 216 218 217 219 216 
215 220 215 216 212 215 214 214 216 214 217 217 217 216 215 216 
215 213 215 214 215 216 216 214 213 213 215 215 214 212 214 213 
215 214 214 212 213 214 214 215 217 217 217 216 214 214 216 216 
216 218 216 216 217 218 218 218 218 218 219 218 218 217 219 222 
222 224 223 224 222 222 220 220 219 220 220 221 221 220 220 220 
220 222 221 216 216 216 216 216 216 217 217 218 218 215 217 216 217 216 217 219 
216 215 217 216 217 214 215 213 216 214 215 217 218 215 218 214 
213 216 216 216 214 214 217 215 215 214 218 219 216 216 217 210 
207 211 210 209 211 213 215 214 215 216 216 217 217 219 219 217 
219 216 218 218 218 218 218 220 218 219 219 214 216 218 218 221 
222 223 220 223 224 222 221 221 222 221 220 220 219 220 221 222 
222 221 221 217 217 218 217 218 217 218 218 216 217 218 217 217 217 218 217 218 
218 219 217 217 216 215 215 216 215 214 216 219 217 215 215 216 
216 215 216 216 216 216 217 216 216 218 207 196 193 188 192 191 
181 179 171 177 175 174 182 191 193 198 206 209 213 217 218 219 
221 219 217 216 218 218 218 219 220 219 220 220 219 218 219 221 
222 223 223 226 225 223 220 219 219 221 221 221 221 221 222 221 
220 221 221 219 219 218 218 218 218 218 218 218 220 218 217 219 218 218 219 218 
218 218 217 215 216 216 217 215 216 218 216 217 215 215 216 218 
219 217 218 218 218 216 210 204 194 183 178 190 206 209 209 213 
213 208 203 207 209 202 197 181 191 178 172 171 176 192 200 213 
212 216 219 217 220 218 218 220 219 218 220 219 221 221 220 223 
223 224 223 223 225 224 225 223 221 221 220 222 221 222 223 222 
222 220 222 219 218 220 220 220 219 219 219 219 220 220 221 219 220 219 218 218 
218 220 218 217 218 215 215 217 216 218 217 218 216 218 219 222 
219 212 214 216 202 197 193 207 210 220 223 225 222 222 220 219 
222 223 223 221 221 222 225 225 220 219 217 213 192 173 156 167 
184 197 208 215 219 219 221 219 219 219 221 219 221 220 221 222 
224 224 223 222 223 223 221 222 222 223 224 221 220 222 220 222 
222 222 219 220 221 220 219 218 219 221 220 220 220 219 219 219 221 219 220 219 
219 219 214 216 215 214 214 216 218 219 216 213 215 217 209 194 
172 173 171 196 211 220 224 224 224 226 224 223 221 220 220 221 
222 222 221 223 222 224 224 221 221 218 221 223 220 218 199 193 
161 152 172 193 204 213 220 220 221 220 219 220 220 222 222 224 
221 222 223 224 223 223 222 222 223 221 222 222 222 222 223 223 
222 223 224 219 220 220 221 220 220 222 221 221 221 222 224 222 222 223 223 220 
218 218 218 217 217 216 214 215 215 215 211 202 196 180 151 153 
153 188 208 222 223 224 224 222 223 223 225 223 223 222 221 222 
224 224 223 222 221 223 223 225 222 220 220 221 222 224 227 226 
222 197 186 173 165 185 207 215 223 222 222 220 220 221 222 223 
222 224 222 223 223 222 225 225 225 223 221 223 224 223 222 224 
223 222 222 219 221 222 222 222 221 220 221 222 221 223 221 220 221 223 223 220 
218 218 218 219 218 217 216 216 213 203 192 178 153 160 184 200 
213 223 226 223 223 223 224 223 222 223 226 224 223 222 225 226 
224 224 224 223 222 223 222 223 223 223 221 222 223 225 223 225 
226 227 226 218 186 172 165 185 210 220 223 220 224 222 224 224 
224 224 225 224 223 223 223 223 224 224 223 224 223 223 224 222 
222 222 221 221 223 223 222 223 223 224 222 223 224 223 221 222 222 223 223 219 
221 222 219 223 219 219 218 205 189 178 158 162 191 212 225 227 
226 223 223 221 223 225 224 226 224 224 224 224 224 226 224 226 
224 226 225 225 224 225 225 225 223 222 222 223 224 224 224 226 
225 225 224 224 224 216 196 175 168 202 214 221 221 220 223 223 
225 223 224 224 225 224 224 224 226 225 224 224 224 224 224 222 
223 222 223 225 224 223 224 223 225 223 222 222 221 224 223 225 224 223 221 220 
221 222 220 222 222 205 182 170 171 161 173 204 213 226 228 226 
224 224 225 225 223 225 225 225 224 225 224 225 227 225 227 228 
229 225 227 225 226 227 226 228 225 224 223 223 222 225 225 227 
222 223 224 224 222 225 224 212 175 174 174 211 218 223 222 222 
224 225 224 225 224 225 226 229 225 224 224 223 224 224 225 224 
225 222 222 221 224 223 223 223 223 220 221 223 224 222 223 224 223 223 221 222 
221 223 221 210 176 174 163 152 160 188 210 224 224 226 224 224 
225 226 225 226 226 226 227 228 228 229 228 229 226 228 228 226 
227 226 228 230 226 226 227 227 227 228 226 223 226 224 226 225 
225 225 225 222 223 224 221 223 214 187 153 187 206 218 221 221 
223 224 224 226 223 225 225 227 225 224 224 226 224 224 225 225 
226 225 224 225 224 222 221 223 222 225 226 224 223 223 223 223 223 222 222 223 
224 223 221 192 187 173 148 156 190 221 224 226 226 226 227 227 
225 227 224 226 229 227 228 228 227 227 228 228 230 229 226 227 
229 229 230 230 228 226 226 228 228 226 227 228 227 226 225 228 
225 226 225 223 223 226 225 223 225 224 201 177 169 201 219 223 
222 225 223 224 226 226 226 227 224 225 226 225 226 226 225 224 
224 226 227 227 225 224 224 223 223 225 222 225 224 225 224 222 224 224 223 223 
222 224 222 217 167 137 170 201 216 225 225 226 226 224 227 227 
226 227 226 227 226 228 230 227 229 228 229 228 228 226 227 228 
228 229 229 230 229 230 229 228 227 230 228 227 227 226 227 228 
224 224 225 224 222 225 223 223 227 225 226 211 169 163 196 219 
224 225 226 225 225 226 228 227 227 225 225 227 227 226 226 226 
226 227 227 225 225 225 226 225 223 224 225 223 225 225 224 223 224 224 224 223 
224 225 222 191 148 197 211 215 224 227 226 226 226 225 226 228 
229 227 228 226 227 228 229 229 228 229 229 230 229 228 230 229 
229 226 228 229 231 229 228 228 228 229 228 227 225 231 228 229 
229 228 226 225 225 224 227 227 227 224 226 226 216 179 168 191 
216 224 225 225 225 226 228 225 226 228 228 227 226 226 226 226 
226 223 223 224 225 224 225 223 224 224 225 222 223 224 224 221 227 224 222 222 
223 226 188 175 209 216 221 218 224 225 227 227 227 227 227 227 
226 226 227 228 227 229 229 228 229 229 230 228 230 230 230 228 
228 231 229 229 229 227 229 229 228 229 228 227 228 226 228 229 
229 226 229 227 226 225 226 227 228 225 222 225 228 219 184 169 
176 218 226 226 227 226 227 228 228 228 228 228 226 227 226 226 
227 228 229 224 225 224 223 226 225 225 225 225 224 224 224 224 225 224 222 220 
225 200 196 185 213 225 220 222 226 228 228 226 228 228 227 228 
229 228 228 226 227 228 231 230 229 229 227 228 229 229 230 229 
230 230 231 230 230 230 229 229 230 228 229 229 229 229 228 227 
226 229 228 226 227 227 228 228 226 226 226 225 225 227 224 190 
159 197 220 225 227 227 227 227 227 228 227 227 227 227 226 229 
228 227 226 225 223 226 224 225 224 222 224 224 226 224 226 225 225 225 223 227 
201 202 226 224 227 226 226 226 227 229 226 229 228 228 229 227 
227 228 225 226 229 229 229 229 230 230 231 231 231 230 230 229 
231 231 229 231 231 230 230 231 230 231 229 228 229 226 229 228 
228 228 227 228 228 229 228 227 227 225 225 226 226 225 229 225 
178 167 191 220 225 226 228 228 227 228 227 228 226 226 226 228 
227 227 225 228 224 227 225 226 226 226 225 225 223 223 225 224 224 223 225 207 
196 230 228 229 227 226 228 226 228 226 228 228 229 229 228 227 
227 227 227 229 229 229 229 229 231 231 229 231 232 231 231 230 
230 231 232 232 232 230 230 230 230 232 230 229 230 230 229 229 
228 229 229 229 228 230 229 229 230 227 227 229 227 226 225 229 
224 197 156 193 220 225 226 226 228 228 229 229 228 228 228 229 
229 227 227 226 226 223 226 225 225 226 225 225 226 225 224 225 225 224 213 192 
224 227 228 228 228 228 228 228 229 228 228 228 229 229 229 230 
229 226 226 228 230 228 231 232 231 231 231 231 232 232 231 231 
231 232 231 231 232 232 232 232 232 232 231 230 230 230 229 229 
230 230 229 228 228 228 229 230 229 228 229 229 228 227 228 227 
230 228 189 157 204 223 227 227 225 226 226 229 228 228 229 228 
229 230 228 225 227 225 226 227 228 226 224 225 225 223 225 224 225 225 188 226 
230 228 226 227 227 228 228 227 228 230 229 229 229 230 227 230 
230 229 229 231 230 233 231 230 231 230 230 231 231 231 231 230 
231 232 232 234 232 231 231 231 232 232 232 229 230 229 230 230 
229 230 229 228 230 229 228 227 230 229 229 229 230 231 230 228 
228 226 216 177 179 223 228 225 229 229 228 228 227 228 228 229 
229 230 228 229 227 227 228 227 229 228 227 225 224 225 227 226 227 197 210 232 
227 229 229 227 230 229 227 229 229 229 230 228 229 229 229 230 
229 232 227 230 229 228 230 230 232 233 232 232 231 232 232 231 
232 232 232 232 234 232 231 231 230 231 230 231 230 229 229 230 
230 230 233 231 229 230 230 228 230 229 231 229 230 230 230 229 
228 226 229 208 167 201 228 229 226 228 228 228 229 228 228 229 
229 229 230 228 228 227 226 226 228 228 227 228 229 226 228 228 207 208 233 229 
228 229 226 230 231 228 229 228 229 227 229 229 230 231 230 230 
231 230 230 229 229 231 231 232 231 231 232 230 231 231 232 232 
232 231 233 233 233 235 232 232 229 230 231 232 230 231 231 230 
231 232 231 230 230 229 229 229 228 230 230 228 229 231 229 229 
226 227 228 228 189 172 214 226 229 228 228 228 228 229 229 229 
228 228 228 227 228 229 228 228 227 227 227 227 227 228 228 223 186 229 229 229 
228 229 229 229 229 229 229 229 228 230 229 229 229 229 229 231 
227 229 230 231 231 231 231 232 233 232 231 233 232 233 232 232 
232 232 232 231 233 234 234 232 233 230 230 230 231 230 231 230 
231 231 230 230 230 231 231 229 230 229 229 231 230 230 228 230 
226 227 229 228 224 171 191 221 225 228 228 229 229 229 228 228 
228 230 228 229 228 229 230 227 228 228 228 227 227 228 228 190 220 231 228 230 
229 229 229 229 229 230 230 230 230 229 231 229 231 228 229 231 
231 230 230 231 230 229 233 232 231 232 232 232 232 232 232 230 
232 234 232 232 233 234 233 232 232 232 230 231 230 231 229 231 
230 231 231 232 231 231 229 229 229 232 231 229 230 229 232 227 
228 225 230 228 231 208 179 216 226 229 228 228 229 229 228 229 
229 229 228 229 229 228 228 229 232 229 230 232 228 228 220 199 230 229 230 230 
230 230 232 228 229 226 229 229 227 228 230 230 229 230 229 231 
231 230 231 229 230 231 232 233 232 232 232 232 232 232 232 234 
232 233 232 232 235 235 234 232 232 230 230 231 230 230 230 230 
231 230 230 230 231 231 231 230 231 231 230 230 229 231 228 227 
227 226 228 229 228 229 184 203 224 227 228 228 229 228 229 229 
229 231 229 229 229 231 227 230 227 229 230 229 228 228 191 229 231 231 231 227 
229 231 228 229 227 232 227 227 230 230 230 230 230 230 231 231 
231 230 231 231 229 232 232 233 233 234 234 232 232 233 232 233 
232 235 233 234 234 232 232 233 233 233 232 232 230 230 229 230 
232 232 230 231 230 231 231 230 230 230 231 231 232 230 228 230 
229 228 228 228 228 229 215 183 215 228 229 229 227 227 230 228 
228 228 230 231 229 229 229 228 229 231 229 228 228 214 208 233 230 231 231 231 
230 231 229 231 231 228 230 229 229 230 230 229 229 230 230 229 
229 230 229 232 227 231 233 233 232 233 235 232 231 233 233 233 
230 231 235 233 233 232 233 233 234 232 228 221 231 230 231 231 
231 231 231 230 230 231 232 232 230 232 231 232 229 230 229 227 
229 228 229 229 228 226 232 190 193 217 222 227 230 229 228 229 
229 229 229 232 227 229 231 228 228 228 227 229 228 196 231 231 232 231 232 230 
228 231 229 229 226 227 228 227 227 229 227 228 229 229 231 228 
230 231 231 227 221 230 232 233 232 232 233 232 233 233 232 234 
234 232 232 234 232 233 233 232 232 233 231 206 226 233 232 232 
232 231 230 232 230 231 232 231 231 229 231 230 230 230 230 230 
229 229 230 230 228 229 230 219 176 200 222 228 228 229 230 229 
230 230 229 232 230 229 230 228 231 230 229 229 217 205 233 231 233 232 232 232 
231 231 230 229 231 230 229 230 228 229 230 230 229 229 228 229 
228 230 229 215 230 233 233 233 232 233 232 232 232 232 234 233 
230 233 233 233 233 233 233 233 233 233 232 226 213 224 229 233 
232 232 231 232 232 230 230 231 230 232 231 231 230 230 231 230 
230 232 230 231 228 228 229 229 182 178 218 226 229 229 228 228 
230 228 230 231 231 229 230 230 230 229 228 228 204 226 232 232 231 233 230 232 
231 231 231 230 229 229 230 228 228 228 228 231 230 229 230 230 
229 230 218 215 236 235 232 235 233 234 233 233 234 233 232 234 
233 234 234 234 235 235 233 234 234 232 231 234 219 201 199 226 
228 232 233 234 233 233 231 231 231 229 229 232 230 231 232 232 
231 230 232 232 230 230 228 231 212 169 217 224 227 229 229 231 
230 230 232 231 231 230 231 230 231 230 227 223 199 236 234 232 233 233 232 231 
231 229 234 231 232 230 228 229 228 229 228 230 230 228 230 228 
222 200 217 233 234 233 232 231 234 232 233 233 232 232 233 233 
234 234 235 235 234 236 234 236 235 234 232 233 230 223 201 179 
172 193 217 226 230 231 233 232 232 233 233 231 231 232 230 231 
231 232 230 232 232 230 232 232 231 180 191 222 228 231 230 229 
230 229 228 233 232 230 231 229 229 230 228 205 221 233 233 233 233 234 233 231 
233 231 230 231 230 230 231 232 232 232 229 230 231 219 193 194 
205 232 236 232 231 232 233 232 233 234 232 233 234 233 233 233 
233 233 233 232 232 234 234 234 234 235 234 233 231 233 235 233 
221 196 180 171 183 210 223 234 233 233 237 235 232 232 231 231 
229 233 231 231 231 232 231 231 231 204 184 219 229 230 230 231 
230 229 229 231 229 231 229 231 230 228 228 195 235 234 233 233 232 232 233 232 
232 232 232 232 231 220 216 219 219 214 202 184 191 190 209 227 
233 234 232 233 234 234 233 233 232 233 232 232 236 234 233 232 
233 233 234 235 233 233 231 234 234 235 234 232 231 231 233 232 
236 236 236 227 206 184 177 192 213 221 208 209 232 233 231 231 
233 232 232 232 233 232 231 232 231 223 174 214 228 230 231 231 
229 232 232 232 232 231 230 230 232 226 212 200 232 232 233 233 232 231 233 230 
232 232 231 233 231 197 179 188 188 193 199 212 229 234 234 235 
234 233 232 234 233 232 233 233 232 233 232 232 234 233 233 233 
232 232 233 232 235 236 236 234 234 234 232 235 233 231 231 231 
233 233 235 234 235 237 221 203 176 156 156 202 233 233 231 233 
232 232 235 233 233 232 232 231 232 230 176 203 226 229 231 231 
231 230 230 232 231 231 232 231 232 230 194 223 235 235 235 234 232 233 234 234 
233 232 232 232 231 233 240 239 236 239 236 236 234 233 232 233 
232 233 232 234 235 235 232 233 234 233 232 235 234 234 233 235 
234 233 234 233 233 235 233 234 235 232 232 232 232 234 232 232 
232 233 234 234 232 232 235 234 234 230 237 233 234 233 233 232 
232 233 234 235 234 233 232 234 230 232 197 178 221 230 232 230 
232 232 231 235 232 232 233 233 234 226 186 231 232 233 233 235 234 233 233 234 
235 235 233 232 234 233 237 235 233 234 232 232 232 232 233 232 
232 233 232 232 232 233 232 233 231 232 232 232 233 230 231 230 
234 232 234 233 233 234 233 234 233 233 233 233 231 232 233 231 
233 232 231 234 231 231 231 233 234 233 235 233 233 236 233 232 
234 234 233 232 233 234 233 232 233 233 219 181 224 232 232 232 
232 231 231 234 232 234 234 234 233 227 193 232 234 234 233 233 235 234 235 234 
234 235 233 234 234 235 235 236 236 235 234 234 232 232 233 233 
233 232 232 231 230 231 233 233 232 233 233 233 232 233 232 233 
233 233 233 232 233 232 234 236 233 233 232 233 233 231 234 232 
232 233 232 232 230 232 232 233 233 232 233 233 233 236 233 232 
234 234 233 233 233 234 230 234 233 233 228 176 213 230 233 233 
232 231 233 238 233 234 234 233 235 217 214 233 236 235 234 235 233 234 235 234 
235 234 235 235 233 236 236 234 237 237 237 235 234 234 233 234 
235 235 234 235 235 234 232 233 233 232 232 233 232 233 234 231 
232 233 232 232 233 233 233 234 230 232 232 231 234 233 230 233 
233 233 234 234 235 235 235 233 234 234 235 234 233 235 235 233 
232 234 234 235 234 234 234 233 233 234 234 182 190 225 233 232 
232 233 233 237 234 233 234 237 236 204 227 233 236 236 234 234 234 235 236 234 
235 236 236 235 236 235 236 235 233 197 206 226 230 230 232 232 
232 236 236 235 236 235 237 237 233 232 234 234 233 234 232 232 
231 230 232 234 233 232 233 233 232 232 233 233 233 232 235 234 
233 234 232 234 231 224 226 231 232 231 234 236 235 236 234 235 
235 235 235 233 234 233 235 233 235 233 233 198 190 230 233 233 
234 234 233 236 237 233 234 236 233 198 231 235 236 237 235 238 238 236 234 237 
237 235 234 235 236 236 236 237 236 220 211 193 180 190 187 206 
208 223 221 225 234 236 236 236 234 234 233 232 233 233 233 233 
231 232 232 232 231 232 233 232 232 232 232 234 234 234 239 235 
225 206 208 200 198 190 207 225 233 233 234 235 234 235 234 233 
235 236 236 234 235 235 234 234 233 234 232 204 184 225 233 234 
234 235 235 238 235 236 234 236 235 198 237 236 237 237 236 236 235 236 237 236 
237 236 236 237 236 236 237 237 236 240 241 239 237 225 206 189 
183 180 171 173 181 194 215 209 233 233 233 234 234 233 233 232 
230 231 233 233 232 232 231 233 231 232 234 233 231 221 211 191 
176 181 190 203 220 232 236 235 236 236 235 236 236 237 235 235 
236 237 236 232 234 235 235 233 234 234 230 209 168 224 232 234 
233 234 234 234 236 237 236 235 237 194 239 237 237 237 238 237 237 237 238 236 
237 238 237 235 237 237 238 239 237 239 239 237 238 240 238 238 
241 233 228 220 203 189 161 143 228 234 233 233 232 233 233 233 
232 234 233 233 233 231 232 232 230 226 213 201 182 170 172 204 
222 236 237 236 238 239 235 236 235 236 237 237 236 235 234 237 
234 235 236 236 235 236 233 233 235 234 233 228 175 216 234 235 
237 236 234 237 236 234 238 236 229 203 239 238 238 238 237 237 237 239 237 238 
237 238 237 237 239 237 238 237 237 238 238 238 237 237 237 237 
239 238 235 237 235 229 173 180 232 234 232 233 234 234 234 234 
232 233 233 232 232 233 231 231 232 214 128 168 184 218 235 234 
237 236 238 235 235 235 234 235 236 236 237 233 236 235 235 236 
235 237 235 235 235 235 237 235 231 233 233 232 182 209 233 236 
234 236 236 238 238 238 235 237 226 211 238 239 238 238 237 237 238 236 239 238 
238 236 239 237 237 238 238 238 238 238 237 237 238 235 236 236 
238 237 237 237 221 166 171 232 236 236 235 234 236 237 236 234 
236 236 231 231 233 235 232 233 232 230 181 156 182 206 221 228 
233 235 236 236 238 237 235 235 234 236 236 237 237 235 238 236 
235 236 236 234 236 237 234 237 237 237 233 233 187 214 232 235 
238 237 236 238 237 236 237 238 226 221 238 238 237 237 238 239 239 239 238 239 
239 238 237 238 236 238 239 239 239 239 239 238 236 237 236 238 
238 240 237 200 163 185 238 240 239 238 235 238 237 237 238 238 
237 238 239 234 233 234 234 234 234 234 238 207 161 146 152 178 
202 223 228 232 235 236 238 239 237 236 235 235 237 235 236 235 
237 237 237 238 236 236 237 237 235 235 233 230 193 202 235 237 
238 238 236 237 236 235 238 237 214 216 238 240 239 239 239 237 238 240 240 238 
240 239 239 239 239 238 239 239 239 239 239 238 237 238 238 238 
239 234 200 164 205 242 238 240 239 238 241 241 240 239 239 239 
240 239 242 243 236 237 235 235 235 235 238 241 237 220 194 170 
159 169 180 196 208 225 234 235 239 238 238 236 235 237 237 236 
236 236 237 236 237 236 237 235 236 237 235 232 201 195 234 236 
236 236 238 238 237 236 237 237 215 213 240 239 239 239 239 239 239 239 239 239 
238 238 238 237 239 239 239 239 239 240 238 239 239 237 239 240 
229 185 184 219 241 241 241 240 240 238 241 240 241 241 241 240 
241 242 242 242 243 239 239 239 239 239 238 238 239 241 240 237 
221 197 178 165 157 186 203 220 232 238 238 238 235 237 238 238 
238 237 236 236 237 238 238 237 237 239 236 233 192 211 234 237 
237 238 238 239 236 236 236 239 217 217 238 239 238 240 240 238 239 240 240 240 
239 239 239 240 239 240 238 240 239 239 237 237 236 239 241 225 
178 187 225 242 242 240 241 241 240 241 240 241 240 241 241 241 
241 241 242 243 242 243 240 240 240 239 239 241 240 240 240 239 
241 242 244 232 204 181 172 161 180 214 239 237 237 238 237 237 
237 237 238 238 237 240 238 238 239 239 237 236 181 215 234 237 
234 237 237 238 236 237 237 238 216 213 239 240 240 239 238 239 239 239 240 240 
239 239 240 241 240 239 240 239 240 240 240 238 239 239 194 157 
193 235 245 242 243 243 240 242 241 241 241 241 242 241 241 241 
241 241 242 243 243 244 243 242 242 241 239 240 240 240 239 240 
239 239 243 241 242 244 231 216 192 170 205 239 238 238 239 239 
238 238 237 237 237 237 240 237 237 239 239 234 182 210 237 237 
236 239 238 237 235 235 238 239 216 205 239 240 237 240 238 240 239 239 240 241 
240 240 239 239 237 240 239 240 239 240 242 237 239 203 181 205 
242 243 242 242 243 242 241 242 241 241 241 242 241 241 241 241 
242 242 242 242 242 246 244 242 240 241 239 241 240 240 240 238 
239 241 240 240 240 239 241 243 242 225 205 238 241 239 238 237 
240 238 238 237 239 239 239 239 238 240 240 231 181 214 239 236 
235 234 237 237 239 238 237 237 219 205 239 239 241 240 241 242 239 239 240 240 
240 240 240 240 242 240 241 240 240 240 240 240 235 165 216 239 
242 241 242 242 242 242 242 242 242 242 242 241 241 241 241 242 
242 242 243 243 241 243 244 241 241 241 242 241 240 241 241 240 
240 241 240 240 240 239 239 240 241 244 243 241 238 237 238 240 
239 238 239 239 240 238 239 239 238 239 240 238 178 217 238 237 
238 237 237 238 238 238 238 238 229 208 240 240 240 239 239 238 240 240 241 241 
240 241 241 240 241 240 240 240 239 239 239 240 237 224 239 240 
242 242 241 242 242 243 242 242 241 241 241 241 241 242 241 242 
242 242 242 242 242 242 243 241 242 240 242 243 241 241 240 239 
241 240 240 241 240 240 240 240 240 242 243 239 240 241 240 238 
239 240 240 238 238 239 239 239 239 237 237 230 176 217 237 238 
238 239 238 239 238 239 239 240 233 199 240 240 239 240 239 241 241 241 241 241 
240 241 241 242 242 241 240 241 239 241 241 240 241 243 240 239 
242 242 241 241 242 240 241 241 243 242 241 242 241 241 243 242 
242 242 241 241 241 242 242 241 241 242 240 243 241 241 240 241 
240 240 239 241 239 239 239 241 240 239 239 239 239 240 242 240 
239 239 240 240 240 238 240 240 240 239 239 233 180 220 238 238 
238 239 238 239 239 238 239 239 233 206 239 241 238 239 239 238 238 240 239 239 
242 241 241 241 241 241 239 241 240 241 241 240 240 240 242 241 
241 242 242 242 243 242 242 241 241 242 242 241 242 241 240 242 
242 241 241 242 242 242 241 242 242 243 242 241 242 240 240 240 
239 240 241 240 239 239 240 240 239 240 240 240 240 239 239 240 
241 240 241 241 241 239 239 240 238 236 236 225 186 226 238 240 
239 239 238 239 239 240 240 239 241 207 237 240 241 241 241 242 241 240 240 240 
240 242 238 241 241 241 241 241 241 240 241 240 241 241 241 241 
242 242 242 242 241 242 241 241 242 242 242 242 242 241 242 242 
242 241 243 242 242 241 242 241 242 242 244 243 243 243 240 241 
241 241 240 240 240 241 240 240 240 240 241 241 241 241 240 240 
239 240 240 241 242 240 241 239 240 237 238 209 195 235 240 238 
238 238 239 240 239 240 241 240 236 179 240 241 241 241 241 241 242 241 242 241 
240 241 241 241 241 241 242 242 240 241 241 241 241 241 241 241 
242 243 241 241 242 242 241 241 241 241 242 241 241 241 241 241 
242 239 241 242 241 242 242 241 242 243 243 241 241 242 241 242 
241 240 241 241 241 240 240 240 242 241 241 241 242 241 241 240 
240 241 241 242 241 241 239 239 240 238 238 214 201 238 238 239 
240 239 239 241 239 240 240 241 241 165 233 241 241 241 241 241 241 241 240 240 
239 241 242 242 241 241 241 242 242 241 242 241 241 241 241 242 
242 242 241 242 243 241 242 242 241 241 241 241 241 241 242 242 
240 240 241 242 242 242 242 243 242 242 243 243 241 241 240 240 
240 241 241 238 241 240 241 239 240 241 240 241 241 240 240 240 
240 240 241 238 240 240 240 239 241 239 233 206 208 236 241 240 
239 239 240 240 241 241 242 240 241 194 213 240 241 241 241 240 241 239 241 241 
240 241 240 241 241 241 240 242 241 241 242 240 241 242 241 242 
242 242 242 242 243 241 241 241 241 241 241 241 241 241 240 241 
240 240 241 241 241 242 242 243 242 243 241 242 241 241 241 240 
240 240 239 242 240 240 240 241 241 240 242 241 241 241 241 241 
241 241 241 240 242 240 238 238 239 237 234 194 213 241 240 240 
241 240 240 240 240 241 241 241 240 223 187 238 241 241 241 241 240 242 241 241 
241 242 241 241 241 241 242 243 241 241 240 240 241 242 241 241 
241 242 242 242 243 241 241 240 241 241 242 240 240 240 241 241 
241 240 241 241 241 242 242 242 241 242 241 242 241 241 242 241 
241 241 242 241 241 240 241 241 240 240 240 241 239 240 240 239 
241 241 240 240 241 238 238 238 240 238 227 179 228 241 241 241 
242 241 241 241 241 240 241 242 241 243 180 240 240 241 241 241 240 238 240 242 
242 241 241 241 241 242 242 241 241 241 241 241 241 241 241 240 
241 241 242 241 242 241 241 241 241 242 241 240 241 240 239 240 
240 239 240 241 241 241 242 242 241 242 242 242 242 240 241 241 
241 241 240 241 240 240 241 241 242 241 241 241 240 240 241 242 
240 241 241 241 240 240 241 240 237 239 229 190 239 243 241 242 
242 242 240 240 240 241 240 241 239 240 209 217 240 241 241 242 241 241 240 241 
242 241 241 241 241 242 241 241 241 242 241 241 242 242 241 241 
241 241 241 241 241 241 241 240 240 241 241 239 240 241 241 240 
240 240 240 243 241 242 241 241 241 241 241 241 241 241 241 240 
241 241 240 241 241 241 241 241 241 242 241 241 241 241 241 241 
240 241 241 241 241 240 241 239 239 239 201 209 241 240 241 240 
242 238 240 240 240 241 241 242 242 240 234 180 240 239 241 241 240 241 242 242 
242 242 241 242 242 242 242 240 242 241 241 241 241 241 240 241 
241 241 241 241 240 242 241 241 241 240 242 241 239 240 240 240 
241 241 241 242 240 241 241 242 240 242 242 241 241 241 241 241 
241 241 241 240 241 241 241 241 240 240 242 241 242 241 240 241 
240 240 241 241 240 241 242 241 237 227 172 228 241 241 241 240 
242 241 241 240 241 241 241 241 237 243 244 179 237 240 240 241 241 241 241 242 
243 242 241 242 241 241 241 241 241 241 241 241 240 241 240 239 
240 241 241 241 241 243 241 241 241 240 243 239 240 240 239 240 
240 240 240 240 241 241 241 239 240 242 241 242 241 241 241 241 
242 242 241 242 240 242 240 242 241 241 241 241 242 240 240 240 
241 241 241 242 242 242 241 239 238 220 183 236 241 242 241 241 
239 242 240 241 242 240 241 240 242 241 242 214 204 240 242 241 242 243 242 241 
242 242 242 241 241 242 241 242 243 242 241 241 240 241 241 241 
240 240 241 241 241 241 241 241 240 241 240 240 239 242 241 240 
241 241 241 241 242 242 241 242 241 241 241 240 241 241 240 241 
242 242 242 241 242 241 241 241 241 241 240 241 241 242 241 242 
240 241 240 240 241 242 241 238 241 195 206 241 242 242 240 241 
241 242 240 243 242 241 242 241 241 240 240 241 183 241 241 242 241 241 241 243 
242 242 242 241 241 242 242 241 240 241 241 241 241 241 240 241 
241 241 241 239 242 242 241 241 241 241 242 241 240 241 240 240 
241 243 242 242 242 242 242 242 240 241 241 241 241 241 241 242 
241 241 240 240 241 242 242 241 240 240 241 241 241 241 241 241 
241 240 239 242 241 241 242 239 230 184 233 242 243 241 240 242 
242 241 241 242 242 242 242 241 240 240 241 245 190 221 239 240 241 240 241 242 
242 241 241 242 242 241 241 241 241 240 241 241 241 240 241 240 
239 240 241 242 241 243 243 242 243 243 239 240 240 240 242 239 
238 240 239 243 243 241 241 243 243 243 242 241 242 242 242 242 
241 241 242 241 241 241 242 242 241 242 242 242 242 241 241 242 
242 241 240 239 241 242 240 242 212 196 241 242 241 241 241 242 
241 241 241 242 243 243 242 241 241 241 242 242 232 180 236 242 242 242 242 241 
242 242 242 241 242 242 241 241 241 240 241 241 240 240 240 242 
243 241 241 243 243 239 241 223 206 180 216 205 209 200 193 185 
193 198 198 216 204 220 223 217 236 240 240 243 243 242 241 242 
242 241 242 241 241 241 240 242 241 241 241 242 242 242 242 240 
242 243 242 241 239 241 239 230 183 234 243 241 242 242 242 242 
242 242 242 242 243 242 241 241 241 239 242 242 243 184 214 244 240 242 241 242 
242 242 242 241 242 242 242 242 241 242 241 241 241 241 240 239 
238 240 241 242 223 211 168 150 143 156 160 163 170 168 179 198 
182 180 183 170 168 165 160 170 167 179 211 232 241 243 242 242 
242 243 242 242 241 243 242 242 242 241 241 241 242 242 242 242 
242 242 243 243 242 240 241 216 197 240 242 241 242 241 242 241 
242 242 241 243 243 241 241 243 242 240 241 240 240 230 169 236 241 241 242 243 
242 242 242 241 241 242 242 242 242 242 241 239 241 241 240 239 
241 240 226 189 165 149 143 161 173 198 210 220 232 243 241 244 
244 245 243 242 239 229 218 181 179 172 160 166 216 240 243 243 
242 242 243 242 242 241 242 242 242 243 241 241 241 241 242 242 
244 243 242 242 244 240 235 184 235 239 242 243 242 242 242 243 
242 242 242 241 242 244 244 243 243 241 241 241 240 244 186 201 244 242 241 241 
242 242 242 242 242 243 242 242 243 241 239 243 241 240 240 241 
240 241 218 198 158 151 173 226 238 247 248 248 246 246 245 243 
244 243 245 243 245 246 245 244 232 225 222 177 158 213 242 243 
244 243 243 242 242 242 242 242 242 242 244 243 243 242 243 243 
243 243 243 241 241 242 217 206 240 243 243 242 243 242 241 242 
242 242 242 244 243 244 244 243 243 241 242 242 242 242 232 174 240 241 242 242 
241 241 242 242 242 242 241 242 242 241 243 240 242 241 241 242 
242 241 225 173 147 200 238 248 246 244 243 242 242 242 242 243 
244 243 244 242 243 243 244 243 246 247 245 241 217 193 243 243 
242 244 243 241 243 244 241 241 242 243 242 243 242 243 244 243 
244 245 243 242 245 236 196 235 242 242 242 240 242 242 241 242 
242 243 243 244 242 242 244 244 243 243 242 242 244 241 245 208 197 242 242 242 
241 242 242 243 242 242 241 242 242 242 242 242 242 242 240 240 
240 200 161 188 220 243 245 244 243 243 241 243 243 243 242 242 
243 243 242 242 242 243 242 243 242 243 243 243 245 245 245 243 
243 244 243 243 242 242 243 242 242 242 242 242 242 243 242 242 
243 244 242 243 242 210 222 242 241 242 241 240 242 242 242 243 
243 242 243 245 244 243 244 241 244 244 242 242 244 243 244 246 178 213 245 243 
243 243 242 243 243 242 242 242 242 242 243 243 242 242 241 242 
244 188 232 246 244 243 243 243 243 243 242 243 242 243 243 243 
243 242 242 243 243 244 242 241 243 241 241 243 244 246 243 243 
243 244 242 242 242 242 242 243 243 242 242 242 242 242 244 243 
243 242 243 239 206 208 243 242 243 242 240 241 242 242 242 243 
243 242 242 245 243 246 245 244 243 244 245 243 245 243 245 245 231 187 238 244 
242 242 242 242 242 242 243 243 243 244 242 243 243 242 241 241 
242 246 245 245 244 242 244 243 244 243 243 243 243 243 244 243 
243 244 243 243 244 244 243 243 242 243 243 242 243 244 244 243 
243 243 243 243 243 244 243 243 243 243 241 241 243 244 243 244 
243 241 241 213 208 241 244 244 243 245 242 242 242 244 243 244 
243 244 244 244 244 246 243 243 243 245 243 244 244 242 242 241 247 212 186 243 
242 242 242 242 243 242 243 241 242 242 242 243 243 242 242 242 
241 244 245 244 244 243 243 243 243 243 243 243 243 243 243 245 
242 243 243 244 243 245 243 242 243 244 243 243 243 243 243 243 
243 242 243 244 242 243 242 242 242 242 243 241 243 243 243 242 
241 245 227 199 237 245 244 244 245 243 243 242 244 244 244 243 
243 243 243 245 244 244 245 244 245 245 244 244 242 243 242 242 243 245 205 197 
240 243 243 242 243 243 242 242 243 242 242 243 243 243 241 243 
243 243 242 243 244 243 243 243 245 243 244 244 244 244 244 243 
243 243 244 243 243 244 243 244 244 244 244 243 243 243 243 243 
243 243 242 243 243 243 245 242 242 243 242 243 242 242 242 242 
244 228 198 225 246 243 244 244 245 245 245 247 243 245 244 244 
244 244 245 244 244 244 245 243 244 244 245 243 244 244 241 242 242 243 243 196 
205 246 244 243 242 242 243 243 243 245 243 244 242 243 243 243 
244 244 243 245 243 244 246 245 244 244 244 244 245 245 244 244 
244 244 243 243 243 245 244 243 245 244 244 243 243 244 244 244 
243 243 244 244 244 243 241 243 242 242 242 245 242 242 241 243 
239 201 226 245 246 244 243 246 246 246 246 245 246 244 245 245 
245 245 244 245 246 245 245 245 245 244 245 244 244 243 243 243 243 243 244 245 
203 205 241 244 242 243 243 243 243 242 243 243 243 243 243 243 
243 243 245 244 245 244 243 244 244 244 244 245 246 245 245 244 
244 244 245 245 245 245 245 244 244 246 245 244 244 245 243 243 
243 243 243 243 244 244 242 243 242 242 242 243 243 242 242 237 
213 213 245 245 247 246 244 244 246 245 246 246 247 246 245 247 
246 245 246 245 245 245 245 246 247 244 243 244 244 246 246 244 242 243 242 247 
244 200 205 243 246 243 244 243 243 243 243 244 243 244 243 243 
242 243 243 244 244 245 245 244 245 245 244 243 244 245 244 245 
245 245 245 243 244 244 245 245 244 245 245 244 243 245 245 244 
244 244 245 244 246 246 247 247 244 244 243 243 244 244 241 210 
214 246 245 247 247 246 245 246 248 247 246 247 244 247 247 247 
247 246 248 246 245 245 245 245 246 245 247 245 246 246 245 244 243 243 242 244 
244 244 203 209 247 247 245 244 243 243 243 244 243 243 243 243 
243 245 244 243 244 244 243 244 244 244 244 244 245 245 245 245 
244 243 245 246 245 244 245 244 245 245 245 245 246 245 244 244 
244 244 244 244 245 245 247 245 246 247 245 244 245 241 213 211 
243 248 247 246 247 246 246 246 247 249 247 246 245 247 247 247 
247 248 247 246 246 246 246 246 247 246 242 245 244 246 244 244 244 244 245 245 
245 247 245 210 196 241 245 244 244 243 243 243 243 243 244 244 
244 243 244 244 245 244 245 244 245 243 245 245 244 244 244 245 
245 244 245 244 245 245 245 244 245 245 244 244 244 244 244 244 
245 245 244 244 246 247 247 246 245 247 246 246 233 205 217 246 
248 247 247 247 247 248 247 247 247 246 247 247 247 247 248 247 
248 246 246 245 246 247 245 245 243 245 248 245 246 245 244 245 245 246 247 248 
246 245 247 249 219 187 234 248 248 245 244 243 243 243 245 245 
243 244 245 245 244 244 244 245 245 244 245 245 245 246 245 245 
245 245 245 246 245 244 245 246 245 245 246 244 245 244 246 246 
246 246 245 245 245 246 246 246 247 248 247 226 206 225 247 248 
245 248 248 248 248 249 248 248 247 248 247 246 248 247 246 246 
248 247 247 247 247 247 246 247 248 246 247 246 246 246 247 245 245 246 247 246 
248 246 246 248 250 221 189 216 243 246 246 244 244 244 242 243 
243 243 243 242 244 244 244 245 244 246 246 244 245 245 246 245 
246 247 246 244 244 247 245 246 246 245 245 246 245 245 246 245 
247 245 246 246 247 248 246 247 250 247 227 203 238 247 248 246 
248 247 247 247 248 248 247 247 247 248 249 247 248 248 247 247 
246 248 248 247 247 248 247 247 247 247 247 246 248 247 246 247 247 247 247 246 
248 246 247 246 249 251 239 187 178 226 247 247 245 244 244 243 
243 243 244 244 243 244 244 245 246 245 245 246 245 246 246 247 
246 247 246 246 247 246 245 246 246 247 246 246 246 245 246 245 
246 248 246 246 245 248 247 249 236 215 208 238 248 249 245 248 
248 247 250 248 248 248 248 248 248 248 249 248 247 248 248 248 
247 247 246 246 246 247 247 248 248 247 246 248 248 249 248 248 248 248 248 246 
247 246 247 248 247 247 248 249 209 189 200 242 243 244 245 245 
245 243 244 245 245 246 246 245 245 246 246 246 247 248 246 246 
245 246 246 247 247 247 247 246 245 247 247 245 247 247 247 245 
246 247 250 250 249 248 245 218 198 229 249 250 249 249 248 250 
249 250 248 249 249 248 248 249 249 249 250 249 248 247 248 248 
248 248 249 249 247 247 248 248 249 249 248 247 249 248 249 248 248 248 248 249 
249 248 248 249 247 247 248 250 251 240 197 183 226 241 246 246 
246 244 245 245 244 244 246 247 247 247 246 247 246 247 246 247 
248 247 246 246 246 246 247 246 246 246 246 246 246 247 247 246 
246 247 248 247 246 231 213 202 240 251 251 249 248 251 248 249 
249 248 249 249 250 249 249 249 249 249 249 249 249 249 249 249 
248 249 247 247 248 249 249 250 248 249 250 250 249 249 249 249 250 249 249 249 
249 249 249 249 248 247 249 249 250 253 252 223 188 196 231 241 
245 246 245 246 245 246 247 247 246 247 245 245 246 247 248 247 
247 248 248 247 247 249 247 247 246 246 247 247 247 247 248 248 
247 244 233 194 190 206 238 248 250 250 249 249 250 250 251 248 
249 250 248 250 250 249 249 250 250 248 248 249 249 248 249 248 
248 248 249 249 249 250 249 249 249 249 249 250 249 250 250 250 250 249 249 249 
250 250 249 251 249 248 249 250 250 251 251 254 252 229 201 200 
222 247 248 248 246 247 248 248 248 248 248 248 248 248 248 247 
248 248 248 247 247 246 247 247 248 246 248 249 248 250 247 242 
227 186 188 215 240 251 252 250 250 249 249 249 250 251 250 250 
250 249 249 249 250 249 249 249 249 249 249 249 249 249 250 248 
248 249 247 249 249 250 250 251 250 249 250 250 250 250 250 250 250 251 251 251 
250 251 250 250 251 250 250 251 251 251 252 252 252 252 251 236 
206 205 219 240 245 248 248 251 249 250 250 248 249 249 249 247 
249 248 249 250 250 250 249 249 249 249 250 245 237 224 220 199 
204 223 246 250 251 250 250 250 250 250 250 250 249 251 249 250 
249 248 250 249 249 251 250 249 249 249 249 249 250 250 249 249 
248 247 247 250 249 249 249 250 252 251 251 250 250 250 250 250 250 251 251 251 
250 250 250 251 251 251 251 250 251 251 251 251 251 251 253 253 
254 247 230 212 210 212 223 237 246 247 248 249 250 249 247 250 
250 249 251 251 252 250 249 246 237 234 220 198 185 201 223 242 
250 251 250 250 250 249 250 250 250 249 249 250 250 250 250 250 
249 250 249 249 249 250 250 249 249 248 249 249 249 249 249 249 
249 249 249 250 249 249 249 252 250 250 251 251 251 251 251 252 251 251 252 251 
252 251 252 252 252 251 252 251 252 252 251 250 250 250 251 252 
253 253 254 253 248 234 211 198 200 203 188 212 227 235 242 236 
237 232 238 236 224 217 216 194 194 206 219 234 243 250 251 252 
250 252 250 250 250 249 250 250 250 249 249 248 249 248 250 249 
250 250 250 249 250 250 250 250 250 250 250 249 249 250 249 249 
248 247 247 251 250 251 250 251 251 252 251 251 251 251 251 251 251 251 251 250 
251 252 251 252 252 252 252 252 251 253 252 252 252 253 252 252 
252 250 254 252 253 253 252 253 248 232 214 212 206 198 189 190 
183 174 180 180 184 214 231 240 250 250 253 253 252 250 251 250 
249 248 250 251 250 249 250 250 250 251 251 251 250 250 250 249 
250 250 251 249 250 250 249 250 249 251 250 249 250 250 249 248 
249 249 249 252 251 251 251 251 252 253 252 252 251 252 252 251 252 253 251 252 
252 252 252 252 252 252 253 253 252 253 253 253 252 253 253 253 
254 252 253 251 253 252 252 253 252 252 248 254 253 254 252 253 
248 245 242 246 233 254 253 254 253 253 253 252 252 251 251 250 
250 249 250 250 250 250 250 252 252 250 250 250 251 251 251 251 
250 250 250 250 248 251 247 248 250 252 250 250 249 249 249 249 
248 248 248 252 252 252 253 252 252 251 253 252 253 252 252 252 252 253 253 253 
252 251 252 252 252 252 253 253 253 252 252 253 252 253 253 253 
254 254 253 254 253 252 252 252 252 251 253 252 253 253 254 254 
255 254 254 254 253 254 253 252 252 252 253 252 252 251 252 250 
251 251 250 250 252 251 251 250 250 250 250 250 250 251 250 250 
250 250 251 249 249 251 251 250 250 249 251 251 250 249 250 249 
248 249 250 251 252 252 253 252 254 251 252 253 253 252 252 252 252 253 253 253 
252 252 251 254 254 252 253 252 252 253 252 253 253 253 253 252 
254 254 254 254 254 253 253 253 252 252 252 253 253 253 253 253 
254 254 253 254 253 253 253 251 253 252 251 252 252 252 251 250 
251 250 251 251 250 249 250 249 250 250 250 250 250 250 249 249 
250 249 251 251 249 250 250 250 250 250 250 251 251 250 250 249 
248 248 248 252 251 251 252 252 252 252 252 253 253 253 253 253 252 252 252 252 
252 254 254 251 253 252 253 253 253 253 253 254 253 254 254 253 
254 255 254 254 254 254 254 254 253 252 252 252 253 253 252 253 
254 253 253 253 253 253 251 253 253 252 253 254 253 253 253 252 
252 251 251 250 250 251 251 250 250 250 251 250 250 249 250 250 
251 250 247 249 248 249 249 250 250 250 250 250 251 251 250 249 
249 249 249 