P2
# Created by IrfanView
100 100
255
203 205 205 205 203 206 205 205 205 206 205 206 203 206 204 202 204 
205 203 206 205 206 206 207 208 206 207 210 208 209 209 206 209 
208 209 209 211 211 210 209 208 209 209 208 205 207 207 205 206 
205 209 211 211 214 212 213 214 212 213 213 213 213 214 213 214 
215 215 212 213 214 212 212 213 215 214 213 212 213 212 215 216 
215 212 214 216 216 216 215 215 216 215 216 214 214 216 215 216 
216 215 218 206 205 204 205 203 205 203 205 207 205 206 204 205 205 204 206 207 
207 203 204 204 203 208 209 206 206 207 208 209 209 209 211 209 
211 210 208 208 209 208 209 209 207 209 209 208 209 206 208 211 
209 209 211 211 211 214 211 212 213 213 214 213 212 214 216 214 
214 213 214 213 212 213 213 214 214 212 212 210 213 214 215 215 
214 212 212 216 215 216 217 217 217 216 216 214 213 218 217 217 
217 216 216 205 205 204 208 206 207 206 206 207 205 204 206 207 206 205 205 206 
204 205 203 203 204 209 210 209 208 210 208 207 210 211 210 209 
209 209 209 209 209 210 210 212 210 209 210 210 211 213 212 212 
212 213 212 212 213 213 212 214 214 214 214 213 214 213 212 213 
213 214 212 212 213 213 212 214 213 215 215 211 215 215 215 216 
217 214 216 216 214 217 216 217 216 218 216 215 218 219 218 218 
216 216 220 203 205 205 206 205 205 206 206 206 206 204 205 209 208 206 207 206 
205 206 205 204 207 208 208 211 205 209 210 211 210 209 209 210 
210 209 208 209 212 210 211 212 211 211 211 210 211 211 211 211 
211 211 213 211 210 212 212 212 211 213 213 214 213 212 214 215 
213 212 211 210 212 212 214 216 216 213 214 214 215 215 215 212 
213 215 216 216 216 216 218 218 219 218 218 218 218 218 219 218 
217 218 217 205 203 206 207 206 208 205 205 205 203 205 206 206 206 206 207 209 
209 208 205 208 205 205 207 209 210 209 209 209 210 209 209 209 
208 209 209 210 211 211 211 208 212 211 212 214 215 211 212 213 
211 211 211 210 210 209 210 211 212 212 213 213 215 216 215 215 
216 216 215 214 215 217 216 215 216 215 214 215 214 215 216 216 
216 218 217 217 217 216 218 218 218 218 218 218 218 219 216 218 
219 217 218 207 207 207 206 207 207 207 205 205 205 204 209 208 207 208 207 206 
208 208 209 209 207 208 210 209 208 210 209 210 208 210 211 211 
210 210 210 212 211 212 211 212 213 212 214 213 213 212 211 213 
212 211 213 212 210 209 211 211 212 216 215 212 214 214 215 214 
215 216 217 214 216 216 215 214 216 216 217 216 217 214 217 215 
215 218 218 218 217 218 218 218 218 219 218 218 218 218 217 217 
218 219 217 208 208 206 206 208 208 208 205 204 206 207 206 208 208 208 209 209 
209 208 208 209 209 211 210 210 209 209 211 209 211 210 210 211 
212 210 211 212 213 213 212 213 213 210 214 214 215 215 215 215 
215 216 213 214 215 214 214 215 212 212 214 215 214 212 214 216 
216 215 218 216 216 216 216 217 217 217 218 217 217 218 219 217 
216 217 218 218 219 218 218 220 218 221 221 220 219 220 220 222 
219 221 218 208 209 208 207 206 209 208 210 207 207 207 207 210 208 209 208 209 
209 207 207 210 207 208 210 210 210 210 211 211 210 211 211 212 
211 210 211 212 212 213 213 215 216 215 222 213 214 215 211 211 
214 210 210 209 212 214 215 214 215 214 214 214 215 215 216 215 
215 215 217 217 218 217 217 218 218 218 218 218 218 217 215 217 
218 218 219 216 218 219 221 220 219 219 221 220 221 219 218 219 
219 220 219 209 209 208 208 209 207 208 209 209 208 207 206 207 206 208 211 210 
211 209 210 210 210 210 210 210 211 210 208 211 209 210 210 210 
210 210 211 214 216 216 212 213 213 207 183 175 165 162 149 146 
151 137 140 143 156 161 168 183 197 208 211 214 219 219 218 219 
216 215 217 215 217 217 217 217 218 218 219 218 217 218 221 221 
219 218 219 221 218 219 218 221 221 223 220 220 220 221 221 220 
219 219 220 210 210 211 210 212 210 210 209 209 208 210 207 208 206 207 209 210 
210 210 211 210 210 210 209 210 210 210 212 211 212 212 210 211 
213 213 213 214 208 188 166 136 142 143 160 174 181 194 202 201 
208 211 214 205 201 189 190 172 151 146 157 171 188 207 219 218 
216 216 218 218 217 218 217 218 219 218 218 219 221 221 220 221 
220 221 221 221 221 221 221 220 220 222 222 222 220 223 223 223 
221 220 221 213 213 211 210 211 211 212 213 212 213 211 212 211 209 209 209 212 
212 212 212 211 209 211 210 211 212 212 210 211 210 211 212 212 
212 208 181 146 132 149 169 200 216 217 217 217 218 220 221 222 
223 220 218 218 218 219 218 220 218 218 215 207 176 161 159 176 
206 219 219 222 218 217 218 219 220 219 220 218 218 219 220 220 
219 221 221 220 223 221 222 219 223 223 222 221 221 222 221 224 
221 221 221 212 212 213 214 213 212 212 212 212 212 213 213 214 214 215 212 212 
213 212 211 211 213 212 212 214 211 211 212 211 215 215 214 197 
149 117 146 188 217 221 222 224 221 221 218 219 219 217 217 217 
215 217 218 217 215 216 215 217 220 222 218 220 223 219 215 196 
166 167 189 224 220 220 219 219 220 220 220 223 223 221 220 220 
220 220 220 222 222 222 221 220 222 221 221 224 222 223 222 222 
222 221 222 214 214 214 214 215 214 213 212 214 214 214 216 213 214 216 213 210 
210 214 214 213 216 215 214 214 216 211 214 213 214 201 151 119 
154 208 220 220 221 222 221 218 217 217 217 217 216 218 218 217 
217 217 217 216 215 216 217 214 216 218 217 218 217 217 217 219 
221 214 188 163 193 223 222 221 220 217 221 222 221 222 222 223 
222 225 223 223 222 221 222 224 223 222 224 223 224 223 223 223 
223 224 222 215 215 216 214 216 215 213 216 215 214 214 213 215 215 213 215 213 
215 215 213 212 212 216 217 213 211 213 214 204 157 122 171 209 
226 221 220 218 219 219 218 218 219 219 218 220 219 218 217 217 
218 220 218 216 218 217 218 217 217 218 218 218 218 216 218 217 
220 219 222 219 169 161 207 220 220 222 221 222 221 223 224 222 
223 224 223 223 222 223 220 223 226 223 224 223 224 223 223 222 
222 223 225 216 215 214 215 216 215 215 214 215 215 215 216 216 215 215 215 214 
214 213 214 214 214 217 217 215 216 214 176 126 155 212 220 217 
220 220 219 219 219 218 217 219 218 218 219 219 219 220 219 220 
220 219 220 219 218 218 219 218 220 218 218 218 218 218 219 220 
220 220 221 225 224 211 167 171 222 221 221 221 223 220 223 224 
224 224 225 224 224 223 223 224 223 225 223 224 224 223 223 225 
225 223 223 216 215 217 216 216 217 215 216 214 216 216 216 216 216 216 217 219 
215 214 214 215 217 217 219 217 201 138 134 205 224 220 218 217 
218 218 220 221 221 220 222 221 222 222 220 221 220 220 221 221 
220 220 221 221 220 220 220 220 220 220 221 220 219 219 218 217 
219 219 219 221 225 224 226 199 167 226 223 222 222 222 222 224 
223 223 225 224 224 224 225 225 225 224 225 224 223 224 224 223 
223 225 223 216 218 216 217 215 217 217 217 217 217 217 217 218 217 216 221 217 
217 219 216 214 214 219 219 184 126 182 221 224 221 219 220 220 
219 219 219 220 221 221 220 220 220 220 221 222 222 221 221 221 
222 222 221 220 221 221 221 222 220 221 220 221 220 220 219 222 
222 219 220 223 223 222 223 225 161 173 213 224 222 223 222 223 
224 225 224 225 224 224 224 225 224 223 224 225 224 225 224 224 
224 225 225 212 214 217 217 217 216 213 217 217 217 218 217 215 217 218 218 218 
218 217 216 214 217 216 155 142 201 224 223 220 220 220 219 220 
220 220 219 221 223 220 223 222 221 221 222 222 222 223 222 223 
222 222 221 221 221 222 221 223 223 222 222 222 223 223 222 221 
222 222 223 224 223 221 222 222 201 113 127 207 223 224 225 224 
224 223 223 225 225 223 221 225 226 225 226 225 225 225 225 225 
223 224 224 212 214 217 218 218 218 217 218 217 218 218 218 219 218 219 219 219 
219 219 216 217 200 135 172 226 224 222 223 222 221 221 219 221 
221 221 221 221 222 221 223 223 223 223 222 221 222 222 223 222 
223 222 221 222 223 222 221 220 222 222 222 221 222 221 222 223 
222 222 223 223 224 220 222 221 225 219 155 105 192 223 226 224 
225 226 224 225 224 224 222 225 225 226 225 225 224 225 225 224 
227 225 226 216 214 215 215 218 216 218 217 218 218 218 218 218 217 217 220 220 
217 217 219 200 129 178 225 222 222 220 221 221 223 219 221 221 
222 223 222 221 223 224 223 223 223 223 222 223 224 222 223 224 
224 224 224 222 222 222 224 224 223 223 223 222 223 224 223 224 
223 223 223 223 223 223 222 221 221 227 225 187 131 180 227 225 
224 225 226 225 225 225 227 226 225 224 225 224 225 227 225 226 
225 228 227 215 216 218 218 217 216 216 215 217 216 217 216 216 218 220 218 219 
218 215 197 133 196 223 222 221 220 221 220 221 220 221 221 221 
221 221 221 221 220 222 224 223 223 224 225 221 223 225 224 224 
224 223 224 224 223 223 223 222 222 223 222 223 222 222 223 222 
225 224 224 223 223 223 223 222 222 222 225 227 212 149 179 222 
226 224 225 226 225 226 224 224 225 225 226 226 225 223 225 225 
224 225 226 217 217 217 218 218 218 216 219 218 217 216 216 216 216 217 219 219 
219 195 121 191 220 220 220 220 221 221 222 221 222 223 222 222 
221 221 223 223 223 225 222 223 225 223 222 223 224 224 224 224 
223 222 222 222 223 222 224 224 224 225 225 224 225 224 223 223 
224 225 224 224 224 222 223 222 221 223 222 224 227 212 164 175 
227 226 226 224 225 225 224 226 226 225 225 226 227 227 225 226 
225 226 226 215 216 218 216 216 216 217 217 216 216 217 215 218 217 215 217 221 
200 129 189 223 221 219 221 221 222 221 223 222 221 221 222 222 
221 221 221 222 223 225 224 223 223 225 224 224 222 223 224 224 
225 224 223 224 224 225 225 225 225 224 225 225 224 223 224 225 
223 223 223 223 227 227 223 225 226 224 224 223 225 228 216 147 
191 229 226 225 225 226 226 226 227 226 225 225 224 226 225 225 
224 225 225 219 217 217 217 219 217 218 217 217 215 215 215 218 216 214 215 203 
139 192 224 221 221 221 221 220 221 222 222 223 223 222 223 220 
222 225 224 222 222 222 223 225 224 225 222 224 224 224 224 226 
227 226 226 225 225 225 224 224 224 225 225 222 223 224 225 225 
224 224 223 226 226 224 224 224 222 224 223 223 226 225 225 217 
152 211 225 225 224 225 228 227 226 225 226 227 226 226 226 225 
225 225 227 217 217 218 218 217 216 216 218 217 218 216 217 217 215 216 211 133 
180 224 222 221 222 221 220 222 220 221 222 221 221 222 224 224 
225 221 219 220 221 223 223 221 224 224 225 225 224 226 224 225 
225 224 224 224 224 226 225 224 224 226 226 223 223 224 224 224 
224 225 225 226 225 224 223 223 223 223 226 225 225 226 225 227 
207 146 222 230 225 226 225 224 226 226 226 225 227 225 226 226 
225 226 223 216 218 218 217 217 217 218 217 217 216 216 216 215 214 217 177 166 
222 221 220 221 220 221 219 221 222 220 220 221 223 226 223 219 
200 158 145 158 176 215 226 225 224 226 225 226 224 225 223 226 
225 226 224 225 225 224 224 225 225 225 226 225 224 225 223 223 
224 225 227 228 226 226 226 225 226 224 224 226 226 226 226 225 
225 184 158 226 227 224 226 228 225 225 226 227 224 226 225 224 
226 226 227 219 219 218 218 216 217 218 217 217 217 218 217 215 215 182 144 214 
221 220 220 220 219 221 219 220 219 219 220 223 224 207 157 139 
153 173 195 194 188 158 219 226 223 225 224 224 226 226 224 224 
225 225 225 225 224 224 224 225 225 224 224 225 224 223 226 225 
227 223 220 210 217 224 224 226 226 226 224 225 227 226 225 224 
225 224 156 194 228 224 224 227 225 228 225 226 228 227 226 227 
226 227 224 219 218 219 219 218 218 219 216 216 216 217 217 214 216 137 202 220 
220 221 221 220 220 221 221 219 219 218 223 221 173 141 182 219 
228 224 227 224 224 213 168 222 225 225 224 225 226 224 224 225 
226 226 225 225 225 226 226 224 225 224 224 224 222 225 227 224 
189 157 149 149 152 154 173 212 227 226 229 225 227 227 226 227 
225 228 205 147 216 228 225 228 225 227 226 226 224 226 226 226 
226 225 226 220 219 219 220 218 217 219 218 218 214 217 215 217 182 149 219 219 
220 222 221 221 220 221 219 219 219 217 208 148 164 220 231 228 
225 222 223 221 224 225 193 178 221 225 226 225 225 225 225 225 
224 226 226 226 226 225 225 225 227 225 223 223 227 226 202 156 
146 197 211 218 220 209 184 152 189 224 224 226 226 225 227 226 
224 221 226 178 176 224 226 225 226 226 227 225 227 226 225 225 
225 226 227 218 219 218 218 219 218 217 217 218 220 216 218 203 141 211 219 218 
221 221 221 222 221 223 222 220 220 211 160 195 225 226 225 224 
222 222 222 222 223 224 225 212 224 225 224 226 228 227 225 227 
227 227 227 227 228 225 225 224 226 225 222 224 223 199 149 200 
227 231 229 228 229 228 229 222 169 182 226 226 225 226 225 225 
226 226 226 225 146 209 225 227 226 226 226 226 226 225 226 226 
226 226 226 219 220 219 219 218 220 219 218 218 218 218 217 161 185 221 218 219 
219 222 221 221 222 220 220 221 220 187 183 226 227 223 224 225 
223 223 223 224 224 224 227 228 226 226 226 225 224 223 226 228 
226 226 226 227 226 226 225 225 224 225 224 220 166 157 216 226 
228 226 225 227 228 227 228 225 223 179 213 226 226 226 227 225 
228 224 222 227 208 155 225 227 227 226 227 227 227 225 226 226 
226 225 225 220 220 221 221 218 220 220 219 219 221 220 192 164 217 218 216 223 
220 221 221 221 221 221 221 221 220 195 215 224 222 224 225 227 
225 226 225 225 226 227 224 227 226 225 225 226 227 228 226 226 
226 227 224 225 225 225 226 227 226 226 224 217 159 229 229 228 
226 225 226 226 224 226 227 226 229 213 193 229 226 227 228 227 
226 226 226 225 229 151 208 227 225 227 225 226 227 227 227 226 
227 227 226 220 220 218 221 221 221 221 221 221 218 214 161 211 218 219 218 221 
223 223 222 222 222 222 224 223 223 219 220 220 221 225 225 221 
225 221 224 228 227 224 225 225 225 228 224 225 226 227 227 227 
225 227 227 226 226 226 226 225 226 228 226 220 220 229 225 224 
224 226 229 225 226 227 226 224 225 228 218 227 227 226 226 228 
227 228 224 225 228 196 140 227 224 227 227 227 227 227 227 227 
227 226 226 221 220 221 221 219 220 222 220 220 220 178 189 217 218 219 221 222 
220 221 222 222 222 223 222 224 222 219 219 221 225 210 183 172 
161 158 178 212 225 226 226 226 227 226 227 227 225 226 226 227 
227 228 226 226 227 226 227 226 226 225 225 226 227 225 228 225 
226 227 227 227 228 227 225 227 227 226 229 227 227 227 228 226 
226 226 223 227 226 226 128 207 226 228 227 225 227 226 228 226 
226 226 226 222 221 221 221 221 222 222 220 219 212 175 217 222 222 220 221 221 
222 221 222 222 221 222 222 223 223 219 221 222 214 137 146 131 
133 114 127 141 181 222 227 227 227 226 227 227 228 226 227 226 
226 227 227 227 228 223 225 226 227 228 225 224 224 224 226 225 
225 224 226 227 223 223 226 226 226 226 226 228 225 227 227 227 
227 228 229 227 225 225 169 155 225 228 228 228 227 227 227 227 
227 226 226 221 221 222 222 221 221 224 223 217 191 196 222 221 221 224 222 221 
223 223 223 223 222 221 222 223 222 220 221 217 153 121 136 113 
114 112 109 102 161 186 223 225 227 227 227 228 227 227 226 228 
227 226 225 226 227 229 228 227 228 227 228 225 224 224 224 227 
213 182 156 185 164 171 202 230 229 229 229 228 227 227 227 227 
225 226 228 228 228 227 222 132 229 228 225 227 227 227 228 227 
227 227 227 222 222 221 222 221 219 222 222 215 172 218 222 221 224 222 223 224 
223 222 223 223 223 223 224 223 223 222 221 190 115 158 123 135 
150 137 140 99 102 147 220 225 227 227 227 226 227 228 228 226 
227 227 227 227 227 227 225 226 227 225 226 227 225 223 223 194 
159 131 151 161 168 181 187 200 231 228 228 227 228 228 228 228 
227 227 225 228 227 229 224 155 187 227 227 226 228 229 225 227 
227 227 227 222 222 221 223 223 221 220 221 201 183 223 222 223 222 220 222 223 
224 225 225 224 224 223 223 223 224 223 222 179 143 144 141 144 
130 125 141 95 109 121 218 227 228 228 228 229 228 227 228 228 
226 227 228 227 227 226 227 228 229 228 228 225 226 224 210 156 
142 137 128 139 144 160 177 186 224 229 227 228 227 227 228 227 
229 228 227 228 228 227 226 198 133 226 226 228 227 228 225 227 
226 228 227 222 223 221 223 223 220 221 219 182 202 225 223 223 224 221 221 222 
223 221 223 224 225 224 224 224 224 223 222 163 124 137 144 150 
167 178 133 107 123 144 229 227 228 228 227 228 227 228 227 227 
227 226 228 228 226 226 226 225 228 227 227 225 226 225 172 155 
152 164 153 117 135 145 146 181 205 229 227 227 227 227 229 229 
228 228 228 229 227 227 228 224 108 218 227 227 228 227 229 226 
226 226 229 222 224 222 221 223 221 220 219 168 218 224 223 224 225 223 224 224 
225 225 223 223 223 223 223 223 226 225 221 177 138 125 137 155 
185 140 112 113 117 195 229 229 227 227 228 228 228 227 228 230 
227 229 227 227 228 227 227 225 227 227 226 226 229 209 153 151 
149 169 152 143 186 139 114 141 212 230 232 228 230 229 227 227 
228 229 228 228 227 227 227 226 140 195 227 228 228 227 228 228 
228 227 228 222 221 221 222 222 221 223 217 172 224 223 224 225 224 226 224 222 
224 222 228 225 225 222 225 223 225 225 221 195 109 107 123 143 
118 98 115 106 187 225 229 229 229 228 228 228 229 229 228 229 
228 228 228 226 229 228 229 227 229 226 226 225 229 186 150 157 
159 149 142 157 214 147 130 177 227 227 229 228 228 229 228 228 
227 228 229 228 228 227 227 228 201 149 225 227 229 228 226 227 
227 228 227 222 223 222 222 222 222 218 189 191 225 225 225 225 225 224 224 228 
224 225 225 225 225 226 224 227 226 225 224 221 144 105 90 91 
92 99 113 171 226 228 228 227 229 229 229 229 228 228 229 228 
228 229 228 229 228 228 228 228 227 231 227 228 229 202 133 158 
163 151 168 206 159 116 150 212 231 230 229 231 229 229 229 229 
230 227 229 228 228 227 225 228 220 140 221 228 225 228 227 226 
228 227 227 222 222 221 221 222 223 219 173 210 225 225 226 226 225 226 226 223 
225 224 224 226 226 224 226 225 225 225 224 225 202 115 100 92 
105 118 185 224 229 228 229 229 228 228 229 227 228 229 228 229 
228 228 229 228 229 229 230 227 228 226 227 228 231 211 107 116 
103 136 154 127 124 146 201 230 229 228 228 228 228 230 229 229 
228 229 229 229 229 229 229 228 228 156 207 228 229 229 227 228 
227 229 227 221 222 222 221 223 221 221 173 216 224 225 224 226 227 227 225 227 
226 226 226 224 226 226 225 224 225 225 226 227 225 198 174 179 
190 218 232 228 228 229 229 229 229 227 229 229 229 229 229 229 
229 228 228 229 228 228 228 228 228 229 227 229 228 224 122 90 
144 131 117 121 163 215 231 229 229 230 228 230 230 228 229 228 
230 230 229 229 231 229 231 230 228 188 184 229 228 228 228 229 
228 230 227 222 222 222 222 222 221 214 170 224 225 226 226 227 225 225 226 226 
225 226 227 226 226 226 226 226 226 226 225 225 227 228 226 229 
231 228 228 228 230 228 229 228 228 230 228 229 229 229 229 230 
229 230 229 228 228 228 228 229 227 228 228 229 229 230 193 134 
118 120 146 173 208 233 229 229 230 230 229 228 228 230 229 230 
229 229 230 231 228 230 230 229 228 191 171 227 229 227 227 228 
228 229 227 220 221 221 223 221 221 207 176 224 226 225 227 225 227 226 223 226 
225 224 226 227 226 227 227 227 228 226 228 226 225 229 230 230 
229 229 229 230 228 230 229 230 230 229 231 229 229 230 229 227 
229 228 229 230 229 229 227 229 229 228 228 229 231 231 223 175 
169 183 210 231 231 230 230 230 229 229 228 229 229 229 230 229 
229 229 229 231 229 231 231 229 228 193 175 228 230 229 228 229 
230 229 230 222 221 221 221 220 220 199 188 224 225 226 225 226 227 226 227 225 
225 225 227 227 227 227 227 225 228 226 225 228 228 227 228 227 
228 229 229 229 228 229 229 230 230 230 230 230 230 229 230 231 
230 230 230 228 229 229 230 230 229 230 230 228 229 230 229 230 
227 230 234 232 230 229 231 229 230 229 230 229 228 231 230 228 
229 230 231 229 229 230 230 229 229 214 163 222 229 229 229 229 
231 231 229 218 222 222 221 218 218 202 187 225 226 227 227 225 226 225 227 226 
226 225 225 225 227 227 226 227 227 227 228 227 226 228 226 228 
228 229 226 230 229 229 228 229 230 230 229 230 230 228 229 229 
230 230 229 230 229 229 230 230 230 230 230 230 229 229 229 231 
230 231 231 230 229 230 228 229 231 230 229 230 230 229 230 230 
229 230 229 230 228 229 230 228 229 223 166 223 230 230 229 229 
231 230 227 222 221 220 221 219 220 193 191 226 226 227 225 227 225 228 225 226 
226 225 226 227 227 227 227 227 225 227 226 227 227 228 231 228 
229 230 229 228 227 230 229 230 229 229 230 230 230 229 230 231 
230 229 231 231 230 230 231 229 231 232 230 230 230 230 230 231 
230 230 230 230 229 231 230 230 229 230 230 230 230 230 229 231 
230 230 229 229 231 229 230 227 229 224 148 207 230 229 230 230 
230 231 230 223 221 221 221 220 219 187 194 227 225 226 227 226 228 227 227 226 
226 225 225 227 227 227 227 227 228 227 228 226 226 228 230 229 
230 229 229 229 231 229 231 230 229 230 229 229 231 228 231 231 
230 231 230 229 231 232 229 230 230 231 232 230 230 230 230 230 
230 231 231 232 230 230 230 229 231 229 230 230 230 230 230 230 
229 230 231 229 229 228 230 227 228 227 185 200 230 231 231 231 
230 230 230 220 220 220 221 221 221 182 201 226 227 228 225 226 226 226 228 227 
229 229 225 225 227 227 228 226 227 227 226 226 227 228 229 230 
229 229 230 229 230 231 229 229 231 231 230 228 231 230 230 230 
231 230 231 232 230 231 231 230 231 232 231 231 231 230 230 230 
231 230 230 231 232 231 229 231 230 231 229 227 230 230 229 230 
229 230 229 230 230 228 230 228 228 226 182 209 230 231 230 231 
230 229 230 221 222 220 222 221 216 192 203 228 227 225 226 226 227 228 228 227 
226 227 226 227 226 227 227 227 228 228 224 225 227 229 231 230 
231 230 228 229 229 230 231 232 230 231 230 231 230 230 230 233 
231 231 230 230 230 230 230 232 231 231 230 231 231 231 230 231 
231 231 230 230 231 230 231 231 230 231 232 232 230 231 230 231 
230 229 230 229 229 231 229 230 229 224 179 212 230 230 230 230 
230 231 229 224 223 221 222 224 221 182 203 227 228 225 227 227 229 227 225 227 
227 227 229 228 228 228 228 227 227 226 225 227 228 230 231 230 
229 230 230 230 229 231 232 230 230 229 231 231 231 230 231 230 
231 231 232 232 231 231 231 232 232 234 232 232 231 231 231 230 
231 232 231 232 231 230 231 232 230 232 230 230 230 231 230 230 
231 230 230 230 231 230 229 229 231 231 188 209 233 231 231 231 
231 230 230 222 222 224 223 225 221 191 197 224 225 226 226 226 227 226 228 226 
228 228 228 227 228 226 227 228 226 227 224 225 226 230 230 229 
228 230 230 231 231 230 230 230 231 229 229 231 231 231 231 231 
232 231 231 231 231 232 231 231 229 231 231 231 232 230 230 231 
232 232 230 231 231 231 231 231 232 232 231 229 231 230 232 231 
230 231 230 230 229 232 228 228 231 230 206 213 233 232 232 231 
232 232 231 223 223 222 223 227 224 193 198 227 227 225 225 226 228 227 227 227 
228 228 228 228 227 229 229 228 227 227 225 227 227 229 231 230 
231 231 231 231 230 230 230 232 229 231 231 231 230 230 232 231 
231 231 232 232 231 231 231 231 232 231 231 232 231 231 231 231 
231 231 233 228 232 231 231 231 230 232 231 230 231 231 230 230 
229 231 231 231 231 231 230 230 231 229 184 219 232 231 232 232 
232 232 231 224 222 224 226 226 226 194 198 227 228 227 228 228 227 227 227 227 
228 227 227 228 227 227 227 226 227 227 225 227 227 228 231 231 
231 231 231 231 231 231 231 231 230 232 231 230 231 231 231 231 
232 232 232 231 233 231 232 232 233 233 232 232 233 232 233 231 
231 232 232 231 231 232 232 231 231 233 232 233 232 231 232 232 
231 231 230 232 232 231 229 229 232 228 172 220 233 231 231 231 
233 233 230 223 223 223 224 222 222 193 191 227 226 227 229 228 227 226 228 226 
227 229 228 228 227 228 229 228 228 227 228 227 226 227 230 231 
230 230 231 230 232 231 230 231 230 230 231 230 231 230 231 231 
231 233 231 231 231 231 231 231 231 231 231 231 231 233 231 232 
232 232 232 233 232 232 231 231 231 231 231 232 231 232 233 231 
231 232 231 233 232 230 230 232 230 211 177 226 233 231 232 233 
235 234 232 223 223 223 223 222 217 199 193 225 227 227 227 228 228 227 227 227 
228 228 228 229 228 228 227 229 226 227 228 228 225 225 231 231 
231 230 232 231 231 230 230 230 230 231 232 230 231 230 230 232 
231 231 232 233 231 231 233 232 231 233 233 231 232 232 233 232 
234 232 232 232 231 232 232 234 233 231 232 233 233 232 231 231 
232 230 230 232 232 231 229 228 230 209 178 227 232 233 234 233 
232 233 231 225 223 222 224 223 218 199 192 225 228 227 229 229 228 227 227 229 
229 229 229 227 228 229 228 229 230 228 227 228 226 225 228 231 
231 231 231 231 230 231 230 232 230 230 230 231 230 230 231 231 
230 231 231 232 231 233 232 232 232 232 232 233 233 233 233 232 
232 231 231 232 233 234 232 233 233 233 232 232 232 232 232 234 
233 233 231 233 230 230 230 231 229 193 182 233 231 234 232 233 
233 232 232 222 224 224 222 223 220 206 180 224 227 228 228 228 229 228 226 228 
229 229 228 230 229 230 229 229 227 229 228 228 227 227 229 231 
231 230 231 231 231 231 230 231 231 232 231 231 231 232 232 231 
232 231 232 231 229 231 231 232 231 232 233 232 232 231 232 232 
232 232 233 233 231 232 233 233 234 231 233 233 232 232 233 236 
232 233 231 235 235 233 232 231 228 193 205 235 233 232 232 231 
233 233 233 224 224 224 224 223 224 213 175 217 226 228 229 226 228 228 228 229 
228 228 228 227 228 229 230 229 230 230 228 229 228 229 230 230 
231 230 231 231 230 231 232 230 230 231 231 230 230 231 230 230 
231 231 232 231 232 232 231 233 231 233 232 233 232 233 233 233 
233 233 232 232 234 233 233 233 233 233 234 233 235 234 234 233 
233 233 234 234 233 233 231 231 228 163 210 235 233 234 234 234 
233 233 233 225 224 223 223 224 223 223 183 214 227 228 227 228 228 228 226 229 
228 228 229 229 229 229 228 229 229 228 230 227 228 229 228 229 
229 231 230 231 229 228 230 229 229 230 230 230 231 230 230 231 
231 231 231 231 232 233 232 232 231 231 231 233 233 233 232 232 
233 234 233 233 233 233 233 233 233 234 234 234 233 233 234 235 
233 233 232 233 232 233 232 228 212 179 227 234 234 234 234 233 
234 234 235 224 224 225 224 225 224 223 199 206 226 227 229 229 228 230 229 228 
228 230 229 229 228 229 229 230 229 229 230 229 228 228 230 229 
229 228 232 230 230 231 230 231 230 230 228 228 229 230 230 231 
230 230 229 230 231 231 231 230 232 233 233 235 233 232 235 235 
233 233 233 232 234 234 233 235 233 234 235 234 233 233 233 234 
235 233 235 234 234 234 233 230 203 186 233 234 235 235 234 233 
234 234 235 228 225 227 224 224 226 222 212 193 226 228 228 229 228 230 229 230 
228 228 227 230 228 229 229 230 229 231 229 229 229 229 229 227 
228 229 230 230 230 230 229 229 230 230 229 230 229 229 229 230 
230 230 231 232 232 233 233 232 232 231 232 233 236 233 233 234 
234 234 234 235 235 234 234 235 233 233 233 233 233 235 234 234 
233 233 234 234 234 235 233 231 181 211 236 232 234 234 235 233 
233 236 235 226 225 226 226 226 226 222 221 179 227 228 229 227 228 228 229 229 
229 230 230 229 228 229 229 229 230 229 229 230 229 228 229 229 
228 228 230 229 229 229 229 230 230 229 229 229 230 230 230 233 
231 230 229 229 226 224 207 181 184 177 171 157 208 234 235 234 
234 233 234 234 235 234 234 234 235 235 234 235 234 233 235 233 
234 235 235 236 236 234 232 223 145 230 237 235 235 235 236 236 
237 237 236 226 225 226 226 225 225 226 225 185 219 227 229 229 230 229 229 229 
229 228 229 229 229 229 229 229 229 229 229 229 229 231 229 229 
229 228 229 229 229 228 229 229 228 229 229 229 230 229 230 211 
203 184 172 149 139 128 124 129 138 138 137 138 148 223 232 232 
232 234 234 234 235 234 234 233 234 234 233 233 234 234 235 236 
235 235 234 235 234 234 235 194 169 238 235 235 236 235 235 235 
236 236 237 227 226 224 227 225 227 226 226 214 198 227 229 228 228 229 229 229 
228 228 230 230 229 230 230 231 231 230 230 229 229 228 229 227 
229 228 228 228 228 230 229 230 232 233 230 230 210 190 157 110 
116 107 116 128 138 134 149 141 144 132 119 136 123 224 234 234 
234 234 235 234 235 234 235 235 234 234 233 234 234 234 234 234 
234 232 234 235 235 231 233 160 201 233 236 237 236 236 236 237 
235 236 235 225 225 226 226 227 227 228 226 219 183 225 228 227 228 228 229 229 
230 229 229 229 228 229 230 229 228 230 228 230 229 229 229 229 
228 228 228 229 229 229 230 232 224 213 215 162 106 81 90 81 
72 77 104 97 131 141 136 117 114 121 134 164 154 236 234 234 
234 234 233 234 233 233 234 232 233 234 235 233 232 234 234 233 
233 236 234 236 236 231 216 153 234 235 235 235 238 237 237 235 
236 238 239 228 227 227 226 227 228 228 228 219 189 212 230 228 229 230 229 228 
230 230 230 230 230 231 230 229 230 229 231 231 229 229 229 229 
229 228 228 231 231 234 232 194 128 119 102 92 86 76 72 60 
70 82 76 100 115 124 101 101 129 133 147 132 211 235 233 233 
233 234 233 234 236 233 235 234 234 234 233 233 234 234 235 235 
233 234 235 235 233 233 180 179 235 236 236 237 237 237 238 238 
238 238 238 228 227 227 227 228 227 228 226 224 204 179 229 227 228 228 229 230 
230 230 229 230 230 229 230 231 230 229 229 231 227 230 230 229 
230 228 228 210 192 175 166 175 196 207 185 174 162 155 111 85 
88 92 111 137 110 129 140 146 116 114 149 219 235 234 234 235 
236 234 234 234 234 234 234 235 235 234 235 234 234 235 233 235 
234 234 234 234 234 232 168 224 236 236 235 236 236 235 237 239 
238 237 239 227 228 227 227 228 227 228 228 225 217 179 211 228 226 229 230 230 
230 230 231 230 229 229 230 230 230 230 230 230 231 229 229 229 
230 229 214 163 197 215 226 233 231 231 233 232 233 229 227 188 
143 118 113 115 116 122 115 112 147 199 234 235 232 233 232 233 
233 234 234 234 233 234 234 234 234 234 233 233 234 233 234 231 
233 233 236 232 235 203 178 238 236 236 235 235 237 238 239 239 
238 239 240 228 228 226 226 227 228 227 226 225 223 195 177 220 227 228 228 229 
230 230 231 229 229 230 229 231 231 231 230 231 232 232 231 232 
229 230 230 230 232 233 233 231 229 230 231 229 233 232 233 233 
229 211 205 187 190 200 204 216 231 233 234 233 234 234 234 234 
234 234 234 234 235 234 234 234 234 235 233 233 234 233 233 233 
233 233 234 232 225 170 230 237 237 236 238 236 237 239 239 240 
240 239 238 227 227 229 228 227 227 227 227 227 224 214 181 157 212 227 227 227 
229 230 231 230 229 229 229 230 231 231 232 232 230 229 232 230 
231 230 231 235 232 231 231 231 231 232 232 233 231 231 232 233 
233 233 233 232 233 232 233 235 232 234 233 233 234 233 232 233 
233 233 232 232 234 234 233 233 233 234 233 233 231 233 234 234 
234 233 231 233 190 206 236 238 236 239 237 237 238 237 238 239 
237 238 239 229 229 227 227 228 226 228 228 227 224 210 192 199 163 222 230 229 
231 230 230 229 230 230 231 231 232 231 232 232 231 232 232 233 
231 231 231 232 229 232 231 230 232 232 230 231 231 231 231 233 
234 232 233 234 233 232 232 234 234 231 234 234 235 234 233 233 
233 234 232 233 233 234 234 233 233 233 233 233 233 233 232 231 
231 233 234 216 168 234 237 238 236 238 237 236 238 238 236 238 
240 238 240 228 228 228 228 228 227 227 227 226 224 225 202 207 175 185 231 229 
229 230 230 230 232 232 231 231 232 232 230 230 231 231 231 231 
232 233 234 231 232 231 233 232 232 231 232 233 233 230 232 232 
231 233 233 232 233 233 233 235 233 234 233 233 234 233 233 233 
233 233 233 233 234 234 234 235 233 235 232 234 233 234 233 233 
231 233 228 173 223 238 237 237 239 238 238 239 240 238 238 239 
239 237 239 228 227 227 228 227 227 227 225 225 224 225 225 199 213 169 216 233 
229 229 230 230 230 231 231 231 232 232 231 232 233 232 232 233 
232 231 230 232 232 232 232 232 234 233 233 233 232 232 233 233 
233 233 234 235 235 235 234 233 234 234 235 234 235 234 235 234 
235 234 236 236 234 233 233 233 231 232 234 232 233 233 234 233 
232 234 200 184 239 235 238 238 238 238 239 239 238 240 239 239 
239 239 239 228 228 229 227 229 229 228 227 227 228 225 228 219 201 211 170 233 
232 228 231 231 232 232 231 231 233 231 233 234 232 233 233 232 
232 233 234 231 231 232 232 232 233 233 233 233 232 234 234 233 
235 234 234 235 236 234 234 233 233 235 234 234 233 234 235 235 
234 234 233 232 234 234 233 233 232 233 233 232 233 233 233 232 
236 215 166 232 238 237 239 237 237 238 237 238 238 239 240 239 
240 239 239 229 230 229 229 229 230 228 229 229 230 229 229 227 213 205 185 190 
229 230 230 229 229 229 231 230 232 231 231 232 232 232 231 233 
233 232 232 234 233 233 232 233 233 233 233 235 235 234 234 233 
234 233 234 235 233 234 234 234 234 234 234 235 235 235 234 235 
234 235 233 235 235 234 235 234 235 233 233 232 232 234 233 234 
232 166 212 240 237 237 238 239 238 238 237 237 240 240 239 240 
239 239 239 230 229 229 228 230 229 229 230 229 228 232 230 228 229 206 204 162 
204 230 232 232 230 232 232 231 232 232 232 232 232 232 231 231 
232 233 234 234 234 234 233 233 233 232 234 234 233 234 232 232 
235 235 233 236 234 236 236 235 235 234 234 235 235 233 235 234 
234 234 236 235 235 234 235 235 234 232 232 234 232 233 232 232 
178 205 239 240 238 239 238 240 238 238 238 238 239 239 239 239 
240 238 239 230 229 229 229 229 230 229 230 230 231 230 230 229 229 225 194 202 
163 219 233 233 231 231 232 231 232 232 232 233 232 231 231 233 
232 234 233 233 234 233 233 233 235 232 234 233 234 232 236 236 
235 235 235 235 238 235 235 237 234 235 237 235 236 236 233 236 
234 236 234 235 234 235 233 234 233 234 232 233 233 234 233 179 
188 239 237 237 239 238 238 237 237 238 239 238 239 240 240 239 
240 239 240 231 231 230 231 230 230 232 230 230 229 230 231 230 229 229 225 194 
204 171 219 229 228 230 233 230 232 232 232 232 232 232 233 232 
232 234 233 233 233 234 233 234 233 233 233 234 233 233 232 234 
236 235 236 236 235 235 236 236 235 235 235 236 235 235 237 236 
235 235 236 235 236 234 235 234 235 234 234 234 234 234 186 192 
238 238 238 238 239 238 239 239 239 240 239 239 239 240 240 241 
240 241 241 228 230 230 231 230 231 231 230 231 230 230 231 231 231 229 229 223 
197 196 165 217 227 232 229 229 232 232 233 233 231 231 233 232 
232 233 234 234 232 233 234 233 233 232 231 234 232 232 234 236 
235 236 234 235 235 236 236 235 235 236 237 237 235 235 235 237 
235 235 235 236 235 232 234 234 234 233 233 235 236 187 182 233 
238 239 238 241 239 239 239 240 239 239 240 239 239 240 240 240 
240 240 239 232 232 230 231 231 232 230 231 231 229 231 231 231 230 228 230 229 
223 186 202 164 220 231 232 231 232 233 233 231 232 233 234 233 
233 234 232 235 235 234 233 232 233 231 233 232 233 233 235 234 
235 236 238 236 237 237 236 237 239 237 237 236 237 236 235 237 
234 237 236 236 235 235 233 232 233 233 234 233 177 168 230 236 
238 237 238 240 240 240 240 240 240 240 240 239 238 238 241 240 
241 241 240 230 231 232 231 231 230 232 231 230 232 232 232 232 229 230 231 230 
230 223 189 193 166 222 232 233 231 231 231 232 232 231 234 233 
232 233 234 233 233 235 233 235 233 233 233 232 235 233 234 236 
236 235 236 237 235 238 237 238 237 237 237 236 237 237 237 238 
237 238 238 238 238 236 235 235 236 236 230 168 189 232 237 238 
239 240 239 239 240 240 239 240 241 239 240 240 239 241 240 240 
241 242 240 230 232 231 232 232 231 230 231 231 231 232 231 229 230 230 230 230 
229 229 226 187 172 165 219 232 233 232 233 231 231 233 233 234 
232 233 233 234 234 232 233 232 233 234 235 234 234 235 237 237 
236 237 236 238 237 236 236 237 237 237 238 237 235 238 239 238 
235 237 238 238 237 236 236 236 237 216 168 193 235 236 237 238 
239 239 241 240 240 240 241 240 240 242 240 240 240 241 240 241 
241 240 240 229 231 232 231 233 232 232 232 231 231 231 231 231 231 229 231 231 
229 229 232 230 200 164 162 213 232 234 234 233 232 233 233 233 
232 234 233 233 233 234 233 234 234 232 233 234 234 234 235 234 
235 236 237 237 237 238 237 238 236 238 236 237 237 235 240 236 
238 237 237 239 235 236 237 236 209 165 210 237 238 239 238 239 
239 239 241 240 240 240 240 240 240 239 240 240 241 240 241 241 
241 241 240 230 231 232 232 232 232 232 232 232 232 232 232 231 232 230 231 230 
229 230 231 232 230 214 169 162 192 229 235 233 234 233 234 232 
232 232 234 234 234 233 234 234 233 233 235 234 234 234 236 235 
235 235 237 236 237 237 236 237 236 237 237 237 236 238 239 239 
234 236 236 236 236 239 235 188 170 217 240 240 240 238 240 241 
239 239 239 240 238 240 242 241 241 240 241 240 241 241 241 242 
240 241 241 231 232 232 231 232 231 231 232 233 232 232 233 232 232 232 231 231 
231 230 230 231 233 233 227 185 155 154 199 231 236 234 233 233 
233 234 234 233 234 233 234 235 233 233 234 235 235 235 235 237 
236 233 235 235 238 236 237 238 238 240 238 237 237 237 238 237 
235 234 237 238 238 214 168 191 236 236 240 240 240 240 240 240 
242 241 239 240 241 241 240 241 241 240 239 240 239 241 242 243 
241 241 241 232 233 232 231 231 231 232 232 232 232 232 232 233 233 232 235 231 
232 233 233 230 231 231 232 230 210 160 132 163 217 231 236 233 
235 233 232 234 233 235 234 233 233 234 235 235 233 234 233 234 
234 233 235 236 236 237 237 238 236 238 235 237 237 238 237 238 
237 239 242 224 192 175 217 242 244 241 240 240 240 239 241 242 
238 240 242 241 242 242 241 241 241 241 241 241 240 240 242 242 
241 242 242 231 232 229 233 233 232 231 233 233 233 235 234 233 233 232 233 233 
233 234 232 232 234 232 232 235 236 227 203 157 143 186 231 235 
238 236 235 235 234 233 233 234 234 235 234 234 234 234 234 236 
234 233 233 235 238 236 238 238 237 237 237 237 237 238 239 240 
238 230 200 194 214 237 242 245 241 241 240 240 241 241 240 238 
240 241 241 241 240 241 241 241 241 241 241 242 241 241 242 242 
241 242 243 235 230 231 232 232 232 234 232 233 232 233 233 233 233 234 233 234 
234 234 234 233 233 233 234 234 234 235 235 224 190 151 157 196 
228 233 235 236 236 235 235 234 235 234 234 235 234 234 235 233 
234 235 236 235 238 237 237 238 238 236 238 238 239 239 241 227 
201 196 217 236 241 243 241 241 243 242 241 241 241 241 241 243 
240 241 242 241 242 241 241 241 240 241 241 241 241 241 241 242 
242 242 242 232 232 233 233 233 233 233 233 233 233 234 235 233 234 234 235 234 
234 233 234 235 234 233 233 235 233 236 237 237 233 230 192 159 
148 185 216 236 235 237 235 236 235 236 237 236 236 234 234 236 
235 235 235 236 237 237 236 236 236 239 239 241 234 224 211 201 
216 227 238 239 239 242 240 241 242 242 241 241 240 241 241 240 
240 242 241 242 242 242 242 240 243 242 241 241 241 242 242 243 
244 243 242 234 233 233 233 234 232 232 235 233 234 235 232 235 235 235 234 235 
234 235 234 235 235 236 237 237 236 236 236 236 237 239 235 233 
209 175 153 154 165 197 225 229 233 236 235 236 235 234 236 237 
236 235 235 236 236 236 236 236 237 230 216 203 196 197 210 226 
235 241 242 242 241 241 243 241 241 242 241 241 240 241 240 241 
241 242 241 239 242 241 241 241 242 242 239 242 242 242 242 243 
243 243 243 233 233 232 232 234 233 233 235 233 233 234 235 235 236 235 234 234 
235 235 236 235 235 235 234 235 236 235 235 236 236 236 238 240 
237 237 230 210 175 143 135 150 166 180 193 219 222 225 228 229 
233 233 230 232 236 236 235 235 220 182 193 208 217 230 240 242 
242 241 241 241 242 241 242 243 242 242 241 242 242 241 240 241 
242 241 242 241 242 241 242 242 241 242 240 240 241 241 241 243 
243 243 242 232 232 233 233 232 234 232 235 233 234 235 235 234 235 235 234 233 
235 234 236 237 234 234 237 238 237 238 238 238 235 236 238 239 
239 240 241 240 237 236 229 205 184 159 142 145 167 169 175 174 
186 189 197 209 219 224 227 229 227 224 230 237 241 242 242 241 
241 241 242 243 242 243 242 241 242 240 242 241 241 242 243 241 
241 242 242 242 241 241 241 241 241 241 239 241 243 244 241 244 
242 245 244 234 232 234 234 235 235 234 234 235 235 235 232 235 234 235 235 235 
235 234 234 235 233 234 236 237 238 236 237 235 239 237 237 236 
238 238 240 239 238 240 241 241 238 237 236 235 233 228 230 229 
229 231 236 235 239 239 238 238 240 240 241 242 242 241 241 241 
242 241 241 241 242 241 241 242 242 243 242 242 242 242 242 241 
241 243 243 241 242 242 241 242 241 241 241 240 243 243 243 242 
243 244 244 232 234 234 233 233 234 234 233 233 234 234 235 237 235 235 235 234 
236 235 236 236 234 235 236 237 237 237 237 238 237 238 238 238 
238 239 239 238 238 240 240 240 239 239 241 241 239 240 240 242 
239 241 240 241 240 238 240 241 240 240 241 240 241 241 241 241 
241 241 241 242 242 243 242 242 242 242 243 241 242 242 242 243 
243 242 242 242 243 242 242 242 240 241 241 243 243 243 243 243 
244 244 244 233 231 234 235 233 233 233 234 235 235 235 232 236 235 236 235 235 
237 236 235 236 236 236 236 237 238 237 239 238 237 237 238 239 
239 239 240 238 237 238 240 239 238 238 238 239 238 239 238 239 
240 241 242 240 241 238 240 240 240 240 239 241 241 241 241 241 
240 242 242 240 241 242 242 242 242 242 242 244 242 242 243 243 
244 244 242 242 242 242 242 242 241 241 242 243 244 244 244 244 
244 244 244 233 234 233 235 233 233 234 235 233 236 235 235 234 235 235 236 235 
235 236 236 235 236 236 236 237 237 238 238 239 239 240 237 239 
239 239 238 240 241 240 241 240 240 240 239 239 239 239 239 239 
240 240 241 240 239 239 240 241 240 238 240 240 241 240 241 242 
242 242 243 241 241 242 244 243 243 244 242 243 242 242 242 243 
244 244 242 243 242 242 242 242 242 242 242 243 244 244 244 245 
245 245 245 231 234 234 231 233 233 234 235 235 234 235 236 236 235 235 234 237 
235 234 236 235 236 236 236 237 238 237 237 238 237 239 239 239 
240 239 239 240 240 239 239 239 241 238 238 239 239 240 239 240 
240 240 241 241 241 240 241 241 240 241 241 242 242 241 241 242 
242 242 241 241 242 243 242 243 242 242 242 242 242 243 243 243 
243 244 242 243 242 244 242 242 241 242 243 244 244 245 244 246 
245 246 245 