P2
# Created by IrfanView
100 100
255
239 239 239 237 236 236 238 237 236 236 238 237 238 237 239 238 240 
239 237 238 237 237 238 237 238 239 237 236 236 237 236 238 238 
237 239 240 240 240 241 241 239 241 241 240 240 241 243 243 240 
244 244 242 242 240 240 243 242 242 241 240 238 240 240 245 242 
241 241 243 244 243 243 243 245 244 244 243 244 245 243 244 245 
246 243 244 244 247 245 245 244 244 246 246 244 245 244 244 245 
243 243 242 239 239 238 235 234 236 236 237 235 234 236 235 236 238 238 237 238 
240 240 237 237 235 238 237 239 239 238 237 237 238 239 237 237 
239 239 240 239 238 241 239 239 240 241 239 239 242 241 241 241 
241 242 241 242 242 240 241 239 241 241 239 239 240 241 240 241 
241 242 242 244 243 243 243 244 241 243 242 243 244 242 243 243 
246 246 245 245 244 244 243 245 244 244 246 244 244 243 242 243 
244 242 242 237 239 238 237 234 235 236 236 235 235 236 236 236 239 239 240 238 
238 238 239 238 237 239 237 237 238 240 239 238 239 238 240 241 
240 239 240 240 240 240 240 239 239 241 239 240 241 241 242 242 
242 241 242 241 241 241 241 241 241 241 239 240 240 239 240 242 
241 242 243 244 243 243 243 243 244 244 244 244 245 243 243 244 
244 244 245 244 245 244 244 243 245 245 243 243 243 244 242 241 
241 242 242 238 238 237 237 236 239 238 237 235 236 237 238 237 238 236 239 238 
239 237 237 238 237 238 236 237 237 238 239 238 239 238 239 239 
239 240 240 241 239 239 240 240 240 241 241 241 241 240 240 241 
241 241 241 239 241 240 240 241 241 241 239 240 239 241 241 241 
242 241 243 242 242 242 242 242 244 244 243 244 244 245 244 244 
245 244 244 245 244 243 244 243 244 244 244 245 243 243 242 242 
241 242 242 238 235 238 236 236 237 237 238 237 236 236 238 237 239 238 237 237 
238 237 237 237 238 238 240 238 239 239 240 239 238 239 238 239 
239 241 239 240 240 238 240 240 242 241 241 242 242 241 241 241 
241 242 241 240 241 239 242 239 240 240 240 241 241 241 241 240 
242 241 241 241 241 241 242 242 243 243 244 244 245 246 245 243 
245 244 245 245 245 245 244 244 243 241 243 244 243 244 243 244 
242 242 244 237 237 236 236 237 237 238 238 239 236 237 238 239 240 239 240 238 
237 237 235 237 239 239 240 241 239 239 239 238 237 239 238 240 
239 239 239 238 239 239 239 238 239 239 239 241 241 242 244 241 
242 242 242 242 242 243 242 241 241 242 241 241 241 240 240 240 
241 240 241 242 240 240 242 243 244 243 243 245 245 245 245 243 
245 245 244 243 243 246 243 244 244 245 245 243 246 242 241 242 
242 242 242 237 238 237 237 236 237 238 237 237 237 237 239 238 239 238 238 237 
236 237 237 240 240 238 239 236 239 236 238 238 238 237 239 239 
239 240 239 237 238 238 239 239 239 241 240 241 241 241 240 240 
239 242 239 240 241 240 240 240 241 242 242 242 242 241 239 241 
240 241 241 241 241 242 242 241 242 244 244 242 243 244 243 243 
245 244 245 245 244 243 244 245 244 245 245 243 244 243 243 244 
243 242 243 238 237 237 238 237 237 236 237 239 238 238 238 237 238 238 238 239 
239 238 240 238 236 239 240 238 239 239 239 237 237 239 238 238 
238 238 237 237 239 240 240 239 236 237 234 226 220 218 216 221 
219 214 217 220 217 217 219 221 225 223 235 238 241 241 242 241 
241 242 241 240 241 241 241 241 242 242 244 243 244 245 244 247 
246 245 245 245 244 244 244 244 244 244 244 243 245 243 243 243 
243 243 242 239 239 237 236 236 236 237 238 237 236 236 239 239 237 238 238 237 
236 239 236 238 238 237 240 238 239 238 237 238 239 237 238 236 
239 239 237 237 235 231 226 223 218 207 220 227 233 237 240 240 
240 242 244 243 237 232 228 224 214 210 208 214 218 227 234 239 
239 241 242 241 240 242 241 241 241 244 244 243 246 243 245 244 
245 245 244 246 244 244 245 244 244 244 244 245 244 243 242 245 
244 242 242 238 237 239 238 236 237 236 236 237 238 236 238 240 239 239 239 238 
238 237 239 238 238 238 237 239 237 238 237 236 236 236 238 238 
240 236 230 217 209 213 224 228 237 243 243 244 244 245 243 243 
244 243 243 242 242 241 243 242 242 240 236 229 218 210 205 219 
223 234 241 241 242 241 239 241 242 243 244 244 244 245 244 244 
244 245 245 244 245 245 244 244 244 245 243 244 245 243 242 244 
244 243 242 236 238 236 238 238 240 238 236 238 238 239 238 237 240 239 239 239 
237 239 236 238 238 239 237 237 238 237 236 237 237 238 238 239 
231 220 204 216 234 241 241 239 240 241 243 242 242 242 244 241 
241 242 242 240 240 241 241 241 241 241 244 242 242 241 236 225 
211 205 216 229 240 241 239 240 241 242 244 243 245 244 243 245 
244 244 244 244 244 244 244 244 242 245 245 244 243 244 244 244 
244 243 242 238 239 238 238 235 238 238 237 236 237 238 239 239 237 239 238 239 
238 238 239 240 237 238 237 239 236 237 236 236 236 235 225 207 
208 226 240 242 240 239 237 239 240 241 241 242 243 243 242 242 
242 242 241 242 242 241 241 241 241 241 242 242 240 240 244 243 
242 238 221 205 206 228 236 240 242 242 243 244 244 244 244 243 
245 245 244 244 244 245 244 245 245 245 245 243 245 243 243 243 
243 244 242 237 237 237 238 237 238 239 237 237 238 237 238 237 239 239 239 239 
238 236 239 237 238 237 237 240 235 239 238 237 225 209 203 227 
243 241 240 240 240 241 240 242 242 242 240 244 243 243 244 244 
242 241 243 243 243 241 242 243 243 241 241 242 240 242 241 240 
240 244 245 241 230 207 202 227 237 241 241 242 243 246 244 246 
245 244 244 245 244 244 246 244 246 245 245 244 243 244 243 243 
244 244 243 238 237 239 239 238 239 240 237 238 237 239 238 237 239 238 237 238 
237 237 238 238 237 236 237 237 237 238 233 220 202 220 242 242 
240 240 240 240 239 240 239 242 241 242 242 243 244 243 243 244 
244 243 243 242 243 243 242 241 242 242 241 240 242 242 242 242 
241 241 240 242 245 243 228 210 212 227 242 242 243 246 245 244 
244 244 244 243 245 244 245 246 243 244 244 242 245 242 245 243 
245 244 243 236 239 238 238 239 238 239 238 237 238 238 239 238 239 238 238 238 
239 237 237 238 238 236 238 237 239 227 206 212 234 240 242 241 
239 239 240 240 240 240 241 240 243 240 241 241 242 243 244 243 
243 244 243 243 244 243 245 242 242 242 243 242 241 241 241 241 
241 241 241 241 241 242 244 237 223 197 222 240 243 244 245 245 
245 245 244 243 245 244 244 243 243 244 244 243 245 243 245 240 
243 243 243 239 239 240 239 239 239 239 239 240 239 239 239 239 238 238 238 236 
237 236 236 236 238 238 239 237 224 201 223 244 240 239 241 239 
239 240 240 241 241 240 239 241 242 241 240 243 242 244 244 244 
244 242 243 243 242 243 243 243 244 244 241 243 242 242 242 242 
241 242 242 241 241 241 241 241 242 238 204 212 239 245 243 244 
245 243 244 243 244 243 244 244 244 244 244 244 243 244 244 244 
244 243 243 238 237 239 237 240 239 237 239 239 240 238 240 239 239 239 239 236 
236 237 236 237 237 240 234 216 215 238 243 240 240 240 239 240 
241 241 241 241 242 241 240 242 242 243 240 243 244 243 243 243 
243 244 244 243 244 244 243 244 243 243 244 242 242 243 241 242 
242 242 242 241 243 243 242 241 241 243 240 222 213 238 245 243 
244 244 243 243 244 244 244 244 246 244 244 245 244 244 245 244 
243 243 243 239 239 239 239 239 239 239 239 239 238 238 239 239 239 235 234 236 
237 237 235 235 238 232 208 217 239 240 241 240 241 239 240 242 
241 241 240 240 241 242 241 241 241 241 242 243 243 243 242 243 
242 243 244 244 243 243 244 244 244 243 244 243 243 243 243 243 
243 242 245 243 242 243 241 241 242 242 244 246 219 210 235 245 
244 244 242 241 241 244 245 243 243 244 244 243 246 245 244 243 
245 245 243 238 238 237 238 238 240 239 239 239 239 238 239 239 237 238 235 237 
235 235 235 235 229 204 218 242 241 240 242 241 241 241 241 241 
241 241 241 241 241 241 240 240 242 240 242 242 243 243 243 244 
243 241 243 242 244 244 245 244 243 242 243 244 243 243 243 243 
243 243 243 244 242 242 241 242 242 242 242 243 244 228 211 234 
247 245 244 244 242 243 244 245 244 244 246 242 244 244 244 243 
243 242 244 237 238 239 238 236 235 238 241 241 239 239 237 237 238 238 236 236 
232 235 235 232 200 224 241 241 241 241 241 243 241 241 241 242 
242 241 241 240 240 240 240 241 240 241 242 243 242 243 243 244 
242 242 242 243 243 243 244 244 243 243 243 242 243 243 242 243 
244 243 243 243 242 244 242 242 242 241 242 242 247 243 228 213 
237 246 245 243 244 243 242 244 244 245 243 243 243 243 243 243 
245 245 244 236 238 237 238 236 236 238 238 238 239 239 240 238 239 240 238 237 
236 238 225 211 230 239 240 238 241 240 243 242 242 242 241 240 
241 241 241 241 241 241 240 241 240 241 241 241 242 242 242 243 
243 243 242 241 244 243 243 243 244 244 243 246 244 243 242 243 
243 242 242 243 243 243 243 244 242 242 243 242 244 244 245 235 
214 236 247 243 244 245 244 243 242 243 243 245 245 244 244 244 
243 243 243 237 237 235 237 237 237 238 238 239 239 238 239 238 239 237 237 237 
236 228 205 228 239 238 241 241 240 241 243 242 241 242 242 242 
242 240 240 242 241 239 240 241 241 242 242 242 242 242 242 243 
243 242 240 242 242 243 244 243 243 244 244 245 243 244 243 244 
243 244 245 244 244 244 243 244 244 243 243 242 243 244 244 247 
236 204 236 245 243 243 245 244 243 245 243 244 243 243 244 243 
244 243 242 237 237 235 237 237 237 237 236 238 239 239 238 238 239 239 236 235 
233 207 226 238 239 238 239 241 241 240 242 242 242 241 243 241 
241 241 241 240 241 242 242 240 241 242 242 243 241 242 243 242 
242 241 243 241 241 242 244 244 243 244 242 243 244 245 244 244 
242 244 244 243 243 244 242 242 242 243 244 243 244 246 244 244 
244 231 196 239 243 243 243 242 243 244 242 243 245 243 243 243 
244 243 244 237 236 236 235 238 236 237 236 238 239 238 239 238 239 239 235 233 
209 217 241 238 238 238 241 241 241 241 242 242 242 241 242 241 
241 242 242 241 241 239 240 240 241 241 240 243 241 241 242 242 
243 243 243 242 241 242 242 243 243 243 243 244 242 244 243 243 
244 244 243 245 244 243 242 244 244 243 243 244 244 243 243 243 
241 244 218 204 244 243 243 241 242 244 243 243 243 244 243 243 
244 244 244 237 236 235 235 237 235 234 236 238 237 237 239 238 238 236 237 219 
209 240 237 239 238 241 240 240 240 241 241 241 241 242 243 243 
241 241 242 241 240 242 242 241 242 242 241 242 241 242 242 241 
242 242 240 241 241 241 243 242 242 243 243 243 241 243 244 243 
243 242 243 243 243 243 242 242 242 243 243 244 246 244 242 242 
242 241 236 188 224 245 243 243 243 243 242 242 242 243 244 243 
242 243 243 238 237 236 236 235 236 236 236 236 238 238 238 239 237 237 229 208 
238 238 238 237 238 239 239 240 238 240 242 242 242 241 241 242 
242 241 240 242 242 242 241 242 241 241 242 242 242 241 243 241 
241 240 241 241 241 240 240 242 241 243 243 245 245 243 245 243 
243 244 244 243 242 242 243 243 243 243 243 243 242 242 242 244 
242 242 243 223 195 238 243 243 244 243 243 243 243 243 243 242 
244 243 242 236 237 235 235 234 235 236 236 237 238 237 239 238 237 233 199 232 
240 240 237 239 240 240 241 240 241 240 242 241 241 242 242 240 
241 239 240 241 241 241 240 242 241 241 240 242 241 242 242 241 
242 241 241 240 240 239 240 241 241 242 241 242 245 243 243 243 
244 244 243 243 244 243 243 243 243 243 242 243 244 243 242 242 
243 241 242 244 206 214 245 243 243 243 244 244 245 243 243 244 
244 244 243 238 235 234 235 236 235 237 233 236 236 236 236 237 237 212 215 240 
238 236 236 237 239 238 238 240 239 240 241 240 241 239 241 241 
241 241 240 240 240 241 240 241 241 242 242 242 243 242 241 241 
241 241 241 241 239 241 241 241 240 240 242 241 243 244 243 243 
242 242 243 242 242 242 243 243 243 243 243 243 243 243 243 242 
242 241 241 242 239 192 240 244 243 243 242 243 244 243 243 242 
241 242 242 236 237 237 236 235 234 235 236 235 236 237 237 236 230 196 241 239 
238 238 238 238 239 238 238 240 238 239 241 242 242 242 243 241 
240 240 241 240 240 240 240 241 240 242 242 241 242 241 241 240 
241 239 240 241 238 242 239 240 239 241 241 241 244 243 241 242 
244 242 243 242 242 241 242 242 243 243 243 243 242 242 242 243 
243 245 242 240 243 221 207 242 243 244 243 243 244 242 242 243 
243 242 243 239 236 235 236 236 237 234 235 236 235 236 235 234 212 227 240 237 
239 239 239 237 239 238 238 238 238 240 240 240 241 242 241 240 
241 239 238 240 240 239 240 241 240 241 241 241 242 241 241 241 
240 240 240 241 239 239 240 238 240 240 240 240 241 243 241 243 
242 243 243 243 244 243 243 243 242 242 243 242 243 242 242 242 
242 243 242 242 242 243 200 223 244 243 243 244 244 244 243 243 
243 241 243 236 237 237 236 235 233 235 235 234 235 236 237 223 201 239 237 240 
239 237 238 237 236 237 236 234 209 239 240 240 240 240 240 240 
239 241 240 240 240 239 241 240 240 239 241 241 241 242 242 241 
241 241 240 241 240 239 240 239 239 239 241 241 242 242 242 242 
242 242 242 241 242 242 241 243 242 242 242 244 243 242 243 243 
242 243 242 240 241 243 228 189 246 244 243 244 244 244 243 242 
243 242 242 239 237 237 235 236 235 236 235 234 233 234 236 201 229 240 238 239 
239 236 238 238 235 236 237 240 202 200 236 240 240 240 240 240 
240 240 240 239 239 238 239 240 239 241 239 240 241 242 242 242 
240 241 241 240 239 239 240 240 239 239 240 240 240 241 240 241 
241 242 242 242 243 242 244 242 242 243 244 244 243 243 244 243 
243 244 244 244 242 240 243 195 233 243 242 243 243 244 243 244 
242 243 244 239 236 237 237 236 236 235 235 237 233 235 226 198 242 240 239 237 
239 238 237 238 236 237 237 237 238 190 193 232 241 240 241 240 
240 239 239 239 239 237 236 238 238 236 241 240 241 242 241 241 
241 241 241 240 241 239 239 239 240 239 241 240 239 241 240 240 
242 242 242 241 242 242 241 234 237 242 243 242 246 244 243 242 
242 242 244 242 241 240 241 222 198 242 244 243 244 244 243 244 
244 245 245 239 239 236 236 236 236 236 235 238 235 234 201 223 239 239 240 239 
239 239 237 237 239 239 237 237 240 237 189 183 227 243 243 241 
240 239 240 239 237 238 237 238 237 197 237 241 240 240 241 241 
240 241 240 239 240 238 238 238 240 238 240 239 239 239 242 241 
242 242 239 232 220 202 201 185 203 212 221 217 233 246 243 243 
242 244 244 243 240 240 240 242 191 220 243 244 244 246 244 243 
244 244 243 238 237 237 237 237 235 237 236 234 234 227 199 241 242 238 239 239 
239 238 240 239 239 238 238 237 239 243 237 200 166 201 229 236 
235 239 242 240 238 238 240 237 230 176 235 241 240 242 242 242 
241 242 241 241 239 239 238 238 237 235 237 237 238 239 236 231 
222 193 194 185 195 204 212 222 221 204 187 177 178 244 244 243 
244 243 244 242 241 241 241 243 209 196 243 244 245 245 245 245 
244 243 245 237 236 238 237 236 236 235 236 235 235 211 213 241 241 239 238 240 
239 239 238 237 238 236 238 238 235 239 239 240 220 195 173 183 
172 216 223 238 235 235 235 196 156 180 241 241 240 242 242 242 
242 242 242 242 239 238 236 237 235 236 234 233 235 224 196 179 
190 216 229 240 246 246 246 244 245 245 242 239 222 241 244 245 
244 247 244 244 242 241 241 242 234 190 242 244 243 243 244 244 
244 243 245 238 237 237 237 237 238 237 235 234 235 200 238 238 240 240 238 239 
240 240 238 240 238 238 237 239 239 239 237 238 243 242 232 207 
181 161 156 181 187 186 178 144 148 207 238 239 241 242 242 242 
241 244 242 241 239 239 236 238 237 237 237 236 222 183 199 228 
242 243 246 244 242 242 242 243 242 242 244 245 245 244 244 244 
245 244 244 242 242 242 240 241 243 193 230 245 243 244 244 244 
243 242 244 238 238 238 237 239 236 235 234 234 231 201 240 240 240 239 239 240 
240 239 240 239 237 238 238 237 239 239 238 240 240 239 243 243 
241 236 217 205 177 156 157 194 213 241 242 240 241 242 240 242 
241 242 242 241 240 238 237 238 237 238 234 220 184 205 239 240 
241 242 242 241 241 242 242 243 243 243 243 243 243 242 244 243 
244 247 245 244 243 243 241 240 240 219 195 244 244 244 243 244 
243 244 243 239 238 237 236 237 238 237 236 236 212 212 239 239 240 240 237 239 
239 240 240 238 239 238 240 239 237 238 238 239 240 238 241 241 
242 242 247 245 244 229 235 242 241 240 241 242 240 241 243 241 
242 242 242 241 240 237 237 237 236 236 214 184 219 239 238 234 
238 241 240 242 241 243 242 243 243 243 243 243 243 243 245 244 
244 246 244 244 242 242 243 241 240 234 180 244 246 244 243 243 
243 243 243 237 236 237 236 235 236 237 236 231 190 235 240 240 239 241 239 239 
239 238 238 239 238 239 237 239 238 239 237 240 241 241 240 242 
240 240 240 238 241 243 243 243 242 240 240 240 240 239 241 241 
240 242 242 241 240 237 236 238 238 218 188 227 240 239 237 238 
238 241 242 241 242 242 241 242 243 244 244 244 244 244 243 244 
245 246 246 245 243 244 243 241 241 244 179 231 244 244 244 245 
243 243 243 237 237 237 236 236 236 237 236 234 191 240 238 238 239 239 238 241 
238 237 238 237 238 236 236 236 238 240 239 234 230 219 208 208 
217 233 243 240 239 240 241 241 241 240 243 240 241 241 243 241 
241 242 244 241 240 238 237 237 235 181 223 241 238 238 237 237 
235 238 241 243 243 243 244 242 244 243 245 242 244 244 244 244 
243 246 246 246 244 243 241 241 241 243 188 220 244 242 244 244 
243 244 244 237 238 236 236 236 237 235 233 219 201 240 239 237 239 239 240 239 
237 239 238 238 237 238 237 236 236 236 210 174 160 149 145 158 
172 179 222 242 241 241 240 240 239 240 240 241 240 241 240 241 
241 241 241 240 240 238 239 239 237 228 240 240 239 238 233 218 
205 203 227 233 241 243 244 243 242 244 244 244 243 243 243 243 
244 244 244 244 244 243 243 241 241 241 208 206 245 244 243 242 
243 243 244 237 238 236 236 235 235 236 232 183 225 237 238 240 239 239 239 239 
236 238 238 239 238 239 237 237 234 208 152 143 141 141 161 163 
166 165 185 232 241 241 240 241 240 239 241 240 241 241 241 241 
240 240 242 239 240 239 239 239 241 241 239 239 239 231 191 162 
160 155 180 187 206 227 240 244 243 245 244 243 243 243 243 244 
243 244 244 243 244 244 243 242 243 241 229 198 243 245 244 243 
244 243 243 238 237 236 234 238 235 233 228 159 231 237 239 240 238 239 238 238 
238 238 238 236 238 237 236 239 220 140 147 158 166 150 178 169 
173 159 157 204 241 240 242 241 240 241 240 241 241 241 240 241 
240 241 240 240 240 238 240 238 238 240 240 240 237 192 166 173 
168 164 174 182 173 188 215 238 243 244 245 242 243 242 245 244 
242 244 243 244 243 245 243 242 242 241 235 188 243 242 243 242 
243 243 244 237 236 238 235 237 236 237 229 157 238 238 240 239 238 240 240 238 
236 237 237 236 237 236 237 238 200 131 155 145 145 146 158 153 
142 135 146 195 242 241 240 241 241 241 240 241 241 241 241 241 
240 240 240 240 240 240 238 240 238 238 239 239 211 174 184 170 
170 163 163 176 185 176 206 218 240 244 243 243 246 244 244 243 
243 243 243 242 244 245 243 243 242 240 237 175 239 243 243 243 
244 243 244 237 237 236 237 236 234 233 224 206 242 238 238 239 238 239 237 238 
237 238 237 237 237 236 235 239 213 150 137 139 165 171 170 171 
146 127 135 189 242 239 241 241 239 240 241 240 241 241 241 242 
240 240 241 240 240 239 240 240 240 239 240 233 174 165 147 150 
150 148 166 161 166 172 180 213 231 244 243 244 245 245 243 243 
244 243 242 242 243 243 243 243 242 243 239 180 239 244 242 242 
242 243 243 237 235 236 238 234 230 231 218 226 236 235 237 240 237 237 237 238 
237 236 238 237 237 237 235 239 236 182 150 131 139 163 151 161 
159 130 127 199 242 241 241 241 241 240 241 241 241 241 241 241 
241 241 240 241 239 240 240 241 240 240 239 213 160 153 142 159 
166 173 170 185 171 157 156 200 228 243 243 243 244 243 243 243 
243 244 243 243 242 244 242 242 242 243 240 168 233 243 243 243 
243 243 242 236 235 234 238 235 228 235 219 223 237 236 239 239 237 237 238 239 
238 237 236 236 236 237 237 237 240 211 150 138 135 131 138 136 
127 137 151 232 241 240 241 241 239 242 240 242 240 241 240 241 
241 240 240 241 240 240 240 241 241 241 242 202 184 136 139 162 
181 189 172 198 167 147 158 186 236 243 244 243 243 243 242 243 
244 244 244 243 242 242 241 243 243 242 243 188 233 245 242 244 
242 243 242 237 236 233 235 235 234 239 218 227 237 237 238 239 238 239 238 237 
237 237 236 238 237 236 237 237 238 239 183 159 143 128 124 129 
131 149 183 238 240 241 241 241 241 241 239 240 241 242 242 240 
240 240 241 241 240 240 240 242 240 241 241 217 213 146 126 162 
169 157 146 150 140 144 178 220 242 243 243 243 244 243 243 243 
243 242 242 242 242 242 242 242 243 242 244 195 228 244 244 243 
243 243 243 235 235 236 235 233 234 235 213 222 237 239 236 236 238 238 238 237 
237 236 235 236 235 237 236 235 235 238 234 163 151 153 156 154 
161 191 234 240 240 241 241 241 241 241 242 241 241 241 240 241 
241 241 241 241 241 240 240 241 240 240 240 240 199 159 131 130 
155 153 138 139 156 193 228 243 244 244 243 245 245 243 242 243 
242 244 243 243 243 243 242 242 242 242 242 193 226 246 243 244 
245 244 243 235 235 235 235 235 234 236 213 222 234 239 237 238 237 238 238 238 
237 238 236 235 238 235 238 237 235 235 240 222 179 178 191 185 
205 234 240 239 240 241 242 241 241 242 240 241 241 241 241 242 
242 240 242 240 241 241 240 240 240 239 240 241 227 188 162 143 
148 156 165 192 219 237 245 245 243 244 244 244 243 244 243 244 
244 243 244 243 243 243 242 241 241 241 242 181 237 245 244 245 
246 244 244 235 236 234 235 234 236 237 214 220 234 235 236 236 239 237 236 237 
237 234 236 235 237 236 237 237 237 236 235 240 237 229 219 223 
238 242 240 240 241 242 241 242 240 241 241 242 242 241 241 240 
241 241 240 242 241 241 241 241 240 241 241 242 246 242 212 200 
207 208 221 237 246 246 245 243 244 244 244 244 245 244 243 243 
243 243 243 244 244 243 241 241 242 241 239 184 238 245 242 244 
245 244 244 237 237 235 236 234 236 236 216 220 234 235 237 235 239 237 238 237 
238 237 238 236 235 236 236 237 238 239 237 238 238 240 242 240 
241 240 239 240 241 241 242 241 242 242 242 241 241 242 242 242 
241 241 241 241 242 242 241 243 242 240 241 241 241 243 243 243 
245 244 246 244 245 243 243 245 244 244 244 243 244 245 244 244 
244 243 243 243 242 243 242 242 241 240 235 185 237 244 243 243 
244 244 243 236 234 236 234 234 235 236 218 219 235 235 237 236 237 236 237 238 
238 238 237 237 235 236 237 237 235 236 238 238 238 239 239 241 
239 239 238 240 241 240 241 241 243 243 242 239 242 242 242 241 
240 241 242 242 241 241 242 242 242 242 242 241 242 241 244 244 
244 243 244 242 243 243 244 243 243 245 244 243 244 243 243 243 
244 244 243 243 244 243 244 243 242 241 236 183 238 244 243 244 
244 243 243 235 235 235 234 235 233 235 218 214 235 238 236 236 237 238 237 237 
237 236 237 237 237 236 238 237 239 237 237 240 238 241 239 239 
239 239 241 241 241 241 242 241 241 241 242 241 241 241 241 243 
242 242 243 242 242 242 241 241 242 242 242 243 242 243 243 242 
242 243 244 243 243 244 244 245 245 243 243 242 245 244 244 243 
245 244 245 243 244 245 243 242 242 241 231 182 243 244 244 244 
244 245 243 236 236 235 234 234 235 236 226 210 237 236 238 238 239 239 239 237 
237 237 236 236 235 234 238 237 236 238 238 238 239 240 240 239 
238 240 240 241 241 241 241 242 241 243 241 241 241 242 242 241 
242 242 242 241 241 241 241 240 242 242 244 242 244 242 242 242 
242 241 242 243 243 243 244 244 243 244 242 244 243 245 244 245 
245 246 244 243 245 244 243 243 242 243 221 199 247 244 244 245 
245 242 243 236 235 236 235 233 234 234 230 203 237 237 239 235 238 237 239 239 
238 237 238 235 237 236 240 238 240 238 238 239 239 240 240 239 
241 240 242 240 241 241 241 241 241 241 242 241 241 242 243 243 
240 242 242 242 242 241 241 241 242 242 243 243 243 242 243 243 
242 242 243 243 244 244 244 244 244 245 244 244 244 243 242 244 
244 244 244 243 244 244 243 242 242 244 210 213 246 244 244 245 
245 244 243 237 235 236 235 236 234 235 233 202 238 237 237 237 237 236 236 237 
237 238 237 235 235 237 238 239 240 239 239 239 240 240 241 240 
240 241 240 241 241 240 242 242 242 242 242 242 240 242 241 241 
243 242 240 242 242 242 241 242 243 241 243 242 240 242 242 242 
242 242 243 244 243 243 243 244 244 244 244 243 243 243 243 243 
243 244 244 244 243 243 243 243 243 241 200 225 246 245 244 244 
244 245 247 236 237 235 235 236 234 235 238 202 236 237 238 240 237 235 237 236 
238 238 238 238 238 238 238 240 239 240 239 241 241 240 240 240 
240 241 240 241 242 242 243 242 242 241 242 242 241 242 242 242 
242 242 242 241 241 242 241 241 242 241 243 243 243 243 243 243 
242 242 243 243 242 243 243 243 244 244 244 244 244 244 243 244 
244 244 243 245 244 242 243 243 242 239 177 239 244 245 244 245 
245 246 247 236 235 235 236 234 235 236 234 207 230 236 240 239 237 237 236 238 
238 240 240 239 239 240 239 238 241 238 240 240 240 239 240 241 
241 242 241 241 241 241 241 242 241 242 241 241 242 241 242 242 
241 243 242 242 242 241 242 242 242 242 242 242 242 242 243 242 
243 242 243 242 244 243 243 244 245 245 245 244 244 245 243 243 
243 244 243 245 244 243 243 242 243 226 181 247 246 245 245 245 
246 246 247 235 235 235 237 237 235 235 236 219 212 237 238 239 239 239 238 240 
239 239 239 240 240 240 240 238 239 241 240 240 241 241 241 240 
240 241 241 241 241 241 241 241 241 241 241 242 242 239 242 241 
243 241 241 242 241 241 242 242 243 242 242 243 243 242 242 243 
243 242 242 243 243 244 243 243 243 244 244 242 243 244 243 243 
243 242 243 243 244 243 244 243 241 198 192 247 245 245 245 245 
244 245 245 237 236 236 235 235 235 235 235 237 199 238 238 238 239 240 240 239 
240 240 238 239 239 241 239 238 239 240 238 241 241 241 242 240 
242 241 241 241 241 241 241 242 241 241 240 239 240 240 241 243 
241 241 242 242 242 243 242 244 243 242 242 242 243 243 243 242 
243 240 242 245 242 243 244 243 244 244 242 245 245 244 243 243 
244 243 243 243 244 244 243 243 243 172 216 246 245 246 246 245 
246 247 246 237 236 236 235 237 235 234 235 235 198 235 238 239 240 237 239 239 
239 240 240 239 239 239 239 237 238 240 242 242 240 241 239 241 
241 241 241 240 240 240 243 242 241 242 241 243 242 241 241 241 
242 243 242 242 240 241 241 241 241 242 242 242 244 242 243 242 
243 242 241 244 243 243 244 242 243 242 243 243 244 243 244 244 
243 243 243 243 243 243 243 244 237 164 241 246 246 245 246 246 
244 246 244 235 237 234 234 234 234 236 233 234 207 225 237 238 238 237 239 239 
238 240 242 240 241 240 240 241 241 240 240 240 240 241 243 242 
241 240 241 243 241 241 242 241 241 241 241 241 241 241 241 241 
242 241 241 241 241 242 242 242 242 241 242 242 243 243 242 242 
243 243 243 243 244 243 243 243 243 243 244 244 245 244 244 244 
244 243 244 243 243 244 243 243 207 178 247 243 245 245 245 245 
246 247 246 237 237 235 235 236 234 232 233 233 226 206 236 236 239 238 239 240 
241 241 240 240 241 241 240 240 241 241 241 241 241 242 241 242 
242 242 242 242 241 241 241 242 241 241 241 242 240 241 242 241 
241 240 241 241 242 242 242 242 242 242 242 242 243 243 243 243 
243 243 245 244 242 242 242 243 242 244 242 244 243 245 245 243 
245 243 243 242 243 245 244 241 177 213 245 244 245 245 245 244 
246 246 245 235 236 235 237 237 237 234 235 234 235 194 236 237 238 240 239 239 
240 240 242 240 241 241 242 241 241 241 240 241 241 241 241 241 
242 241 243 242 241 240 241 241 241 243 242 241 241 240 241 242 
242 241 242 242 241 240 240 240 242 242 241 242 242 243 243 243 
243 244 243 243 244 243 244 242 243 243 244 245 243 243 244 243 
243 243 243 241 242 243 243 217 169 244 243 244 244 245 245 245 
247 247 244 237 237 235 237 236 234 235 232 235 233 209 215 237 239 239 239 239 
239 240 241 242 240 241 239 241 240 240 241 240 241 241 241 241 
242 241 241 241 241 241 243 241 241 240 241 241 242 241 241 242 
241 241 241 241 241 243 242 242 241 241 241 242 242 244 243 244 
243 243 243 243 242 242 243 243 243 243 242 242 243 244 243 243 
244 243 243 243 242 244 239 192 213 246 243 243 245 243 244 245 
245 245 243 237 237 238 236 236 236 236 236 233 233 234 193 241 238 240 240 239 
241 241 241 241 241 240 240 242 240 241 241 241 241 242 242 240 
241 241 241 241 240 240 239 240 241 240 242 240 241 241 241 241 
241 242 241 243 242 243 242 244 242 242 242 243 244 243 243 243 
243 242 243 242 244 244 241 243 243 243 243 243 243 244 244 244 
242 242 244 244 243 242 228 190 246 243 245 244 245 243 244 245 
246 245 243 238 237 236 237 237 236 238 237 235 235 239 201 230 243 238 238 240 
241 242 241 241 242 241 242 240 241 240 241 240 243 243 243 242 
242 241 242 242 242 242 242 242 242 245 244 243 243 243 241 242 
243 240 242 241 241 240 241 239 240 239 239 238 243 243 243 243 
243 244 242 244 243 242 243 242 244 243 243 244 243 243 244 244 
243 243 243 243 242 240 202 227 247 244 245 244 244 243 244 245 
244 244 243 236 236 237 236 237 238 240 239 238 235 238 236 188 241 241 240 241 
241 240 241 240 240 240 241 239 241 242 240 240 238 241 243 243 
240 242 241 242 242 242 244 242 242 237 239 237 234 231 227 224 
223 220 220 210 200 203 201 182 186 195 197 186 200 241 244 242 
243 243 243 242 243 243 243 244 243 243 243 243 243 245 245 244 
244 243 243 243 243 226 192 246 245 246 244 244 244 244 244 246 
245 245 245 239 238 238 238 238 235 238 239 235 237 237 240 203 218 242 242 241 
241 241 241 242 241 240 241 241 241 241 241 242 241 242 242 243 
242 240 240 240 235 229 224 225 214 193 198 200 191 182 174 189 
184 189 190 204 203 205 198 205 200 196 195 205 189 237 244 243 
244 244 244 243 244 244 242 243 243 244 242 241 242 244 242 243 
242 242 243 243 242 206 228 246 244 244 244 244 244 244 244 244 
246 245 244 239 240 237 239 241 239 238 238 238 241 240 241 238 192 239 240 240 
241 241 240 240 240 241 242 241 241 242 240 239 241 242 242 242 
242 242 217 191 196 188 193 191 191 200 208 210 217 226 233 240 
232 237 246 243 243 244 246 248 247 245 246 245 246 244 244 243 
242 243 242 243 242 244 243 241 243 244 242 243 242 241 243 243 
243 242 243 243 224 205 248 244 244 244 245 246 245 244 245 244 
245 245 245 239 238 238 239 238 239 239 239 240 239 239 240 242 213 195 243 240 
240 241 241 239 241 241 242 241 241 241 240 241 240 242 242 243 
242 245 237 228 234 241 246 247 248 247 244 245 246 244 243 242 
243 243 242 243 242 244 242 244 245 245 245 245 245 243 243 243 
243 244 243 244 242 243 243 243 242 242 243 242 243 242 243 243 
243 243 243 236 192 239 246 244 244 244 245 245 243 244 244 244 
243 245 246 240 240 239 241 239 239 240 239 240 238 239 239 241 244 191 226 242 
241 241 241 241 241 241 241 241 241 242 242 241 241 242 241 241 
242 243 244 246 245 247 244 243 244 245 244 244 242 244 240 242 
242 241 242 242 242 243 241 242 243 242 242 242 243 244 244 243 
243 243 244 244 243 243 243 242 243 243 242 242 243 242 242 242 
243 242 241 202 224 247 247 244 245 244 245 244 245 243 244 243 
245 245 246 239 239 240 240 241 240 240 241 239 239 239 240 240 240 239 192 236 
242 241 241 241 241 241 240 241 241 240 241 240 241 241 239 244 
242 243 243 243 243 244 245 243 243 242 243 243 242 241 243 243 
241 242 241 243 244 243 243 242 243 244 243 244 243 244 243 243 
243 243 243 244 243 244 242 243 243 243 243 243 243 242 242 242 
244 241 220 211 249 245 246 246 245 245 244 244 245 243 245 244 
244 244 243 240 240 240 239 240 241 240 240 240 241 239 241 240 239 241 219 192 
240 241 241 242 240 240 243 241 241 241 240 240 241 242 241 242 
242 242 242 243 243 245 244 243 243 243 244 243 244 242 243 241 
243 242 243 243 243 242 242 244 243 242 244 242 244 243 242 243 
243 243 243 242 242 242 243 244 242 242 242 244 243 242 242 243 
243 225 199 245 246 245 244 244 245 245 247 246 245 245 243 245 
245 244 245 241 240 240 240 241 240 240 241 240 240 242 243 241 240 239 244 213 
206 243 242 240 242 241 241 242 242 242 242 241 241 239 240 242 
242 243 243 242 243 245 244 243 244 245 244 244 243 243 243 242 
241 242 242 244 242 244 241 244 241 243 243 244 244 243 244 243 
243 243 243 243 242 242 241 242 244 243 243 243 242 243 242 242 
235 193 235 246 245 245 245 245 245 245 246 245 245 244 245 244 
244 246 245 240 241 241 241 241 240 242 241 242 241 241 241 241 239 239 241 242 
198 214 244 241 241 242 242 242 241 241 241 242 241 240 240 243 
243 243 243 242 244 244 245 243 242 243 243 244 244 243 243 243 
242 243 242 242 244 242 242 243 244 243 243 243 243 243 243 243 
243 240 241 244 242 242 242 242 242 243 243 243 243 242 242 235 
205 234 247 245 246 244 244 245 246 245 245 246 245 244 244 245 
244 246 244 240 240 240 240 241 242 242 241 241 241 241 242 243 240 240 241 243 
243 196 225 243 241 243 242 241 241 242 242 241 241 241 241 243 
242 243 243 243 243 244 244 244 242 242 244 243 242 243 242 242 
242 242 245 246 244 243 242 242 244 243 245 243 243 243 243 243 
242 245 241 244 241 241 243 242 242 244 242 244 244 241 237 201 
219 245 244 245 246 245 246 246 246 244 245 245 244 245 245 245 
246 246 245 241 241 241 241 242 240 241 241 241 241 241 242 242 242 241 242 242 
245 245 202 218 242 243 241 241 241 241 241 241 243 242 243 243 
241 242 243 242 243 244 245 244 242 243 243 243 243 242 243 243 
242 243 241 242 242 243 243 242 242 243 243 243 242 243 243 243 
243 242 243 243 242 242 241 242 242 244 242 243 243 236 202 216 
245 244 245 246 246 245 245 244 245 245 246 246 245 245 244 244 
245 245 245 242 241 241 243 241 241 240 241 241 241 242 241 242 241 243 242 242 
242 244 241 206 217 245 244 243 241 242 241 242 239 241 242 242 
241 242 242 243 243 245 244 243 244 243 244 243 243 243 242 243 
243 243 242 243 242 242 240 242 242 242 243 242 242 243 242 242 
242 242 242 243 242 241 242 241 242 244 243 241 240 209 220 248 
246 245 244 245 246 245 245 245 245 245 246 246 245 245 245 246 
246 244 244 241 242 241 242 242 242 241 241 240 241 242 241 242 242 241 242 242 
242 241 243 245 215 210 232 247 243 244 241 241 242 241 241 242 
241 243 241 243 243 243 242 242 242 243 242 243 243 243 241 242 
241 242 242 243 243 244 242 242 243 242 242 242 243 242 242 242 
244 242 243 242 240 240 240 240 240 242 242 236 200 224 247 247 
246 245 245 243 245 246 245 246 245 245 245 247 245 245 245 244 
245 245 245 242 242 242 241 241 241 242 241 241 242 242 242 242 242 242 244 243 
241 242 241 242 246 219 182 219 243 243 243 243 242 242 242 242 
242 242 243 241 243 243 242 244 242 243 244 243 243 242 242 244 
243 242 242 241 242 244 242 243 243 242 243 241 243 242 242 243 
244 242 243 243 242 241 240 241 240 239 227 192 220 246 247 245 
244 245 245 245 246 245 246 246 247 245 245 245 245 246 243 246 
246 245 245 242 241 242 242 241 243 241 242 241 242 244 241 242 242 243 242 243 
241 242 241 242 244 247 238 180 194 237 243 243 241 240 242 241 
243 243 243 241 242 242 243 243 243 243 242 242 242 242 242 241 
242 243 242 244 243 242 243 242 243 243 244 242 243 243 242 242 
243 243 243 241 242 242 241 240 236 200 193 228 245 245 245 246 
246 245 245 245 245 245 245 245 245 245 246 245 244 244 245 246 
246 245 246 242 242 242 243 242 241 242 242 241 241 243 243 243 243 243 244 244 
243 243 242 243 242 242 246 245 205 184 219 239 243 243 242 242 
243 242 242 242 242 241 242 241 242 244 242 242 242 243 242 242 
242 242 242 243 242 244 244 242 243 243 243 241 242 242 241 242 
242 243 239 240 238 239 233 216 195 198 235 246 244 244 245 245 
245 245 245 245 245 245 246 246 247 246 245 246 246 245 245 246 
246 245 245 243 243 241 241 242 243 242 243 241 242 243 243 242 243 243 243 242 
242 242 242 242 242 242 242 245 247 226 160 180 227 241 243 243 
243 242 241 242 243 243 242 243 243 242 242 243 242 241 243 242 
242 243 242 242 243 244 242 242 242 242 242 242 241 243 242 242 
242 242 243 241 236 214 201 194 227 243 246 243 243 244 244 246 
244 246 246 247 245 246 246 245 245 246 246 245 246 245 246 245 
245 246 246 242 242 242 242 243 242 242 243 241 242 243 244 244 245 244 244 244 
243 244 244 244 243 243 242 243 244 249 242 188 154 198 229 244 
243 243 241 241 243 242 243 242 242 242 242 243 242 243 242 242 
242 244 244 243 243 244 244 244 242 242 242 243 244 244 244 244 
244 242 237 221 189 185 217 235 244 244 243 244 240 241 245 245 
247 245 246 246 246 246 246 246 246 245 245 245 246 246 245 245 
245 247 245 243 243 243 243 243 243 243 242 242 243 242 243 243 245 244 244 242 
245 243 243 243 244 244 245 244 243 243 249 250 231 176 168 204 
234 239 242 242 243 245 244 245 243 243 242 244 243 243 243 241 
243 243 242 242 243 242 243 243 243 243 245 243 245 244 241 241 
231 209 196 202 220 232 243 245 242 243 243 245 244 242 245 244 
247 245 247 246 246 245 246 246 247 246 246 246 245 246 244 247 
245 247 246 242 243 243 242 242 242 243 242 243 244 243 243 242 244 245 244 244 
244 246 244 245 246 245 244 243 243 245 246 245 249 246 229 191 
183 193 212 229 242 244 242 243 246 244 242 245 244 243 242 242 
243 243 244 243 244 244 244 243 244 244 244 243 238 226 206 188 
187 196 221 233 242 243 242 241 242 243 243 243 244 244 244 244 
243 242 243 245 245 246 246 247 245 246 246 246 245 246 245 247 
246 247 247 242 243 244 242 244 242 243 242 242 243 243 244 244 245 244 244 244 
246 244 246 245 245 244 245 244 245 244 246 244 245 246 249 247 
239 210 182 172 186 216 227 232 237 241 239 239 244 244 244 246 
241 243 246 244 242 242 242 240 237 229 216 203 194 197 206 210 
226 238 246 246 245 244 244 242 243 243 243 243 242 244 245 245 
246 243 245 246 248 246 245 246 246 246 246 246 248 248 247 247 
247 247 246 244 244 243 243 244 243 242 242 244 243 244 244 244 245 245 245 244 
245 247 245 246 246 246 246 246 247 245 246 244 244 246 246 245 
244 245 246 237 214 191 186 172 171 193 201 212 222 233 236 235 
230 226 229 224 222 216 208 201 204 193 204 219 230 235 246 249 
249 247 247 246 246 244 243 246 243 244 244 244 243 245 244 245 
246 244 245 245 245 244 247 247 246 247 246 245 246 247 246 247 
247 248 248 243 244 244 243 243 243 243 244 243 243 244 244 245 248 246 244 245 
246 246 246 246 246 246 246 246 246 246 245 244 245 248 245 246 
247 246 248 249 251 250 242 232 216 214 218 212 203 201 201 202 
190 185 195 204 213 215 220 229 238 239 243 246 251 252 250 250 
248 247 247 247 246 246 244 243 244 244 245 243 242 243 244 245 
245 245 244 243 244 244 245 246 247 247 246 248 248 249 248 248 
247 247 247 245 244 243 243 244 243 242 244 243 243 244 243 244 245 246 243 246 
247 246 246 246 245 247 246 245 246 247 247 247 246 248 246 246 
247 248 246 246 248 250 249 250 250 246 244 246 243 243 240 243 
236 232 233 234 240 244 244 246 248 249 249 250 249 249 249 248 
248 249 248 248 247 246 244 243 243 243 243 241 243 243 245 244 
244 243 243 244 244 244 244 246 245 245 247 246 247 247 247 249 
247 250 249 244 245 244 244 243 245 246 242 243 243 244 244 244 246 245 246 246 
246 247 248 248 247 248 247 247 248 247 248 247 247 247 246 246 
247 249 248 247 249 248 246 245 246 246 246 246 248 247 248 246 
247 247 246 246 247 249 250 249 251 249 249 249 248 249 249 248 
248 250 248 248 248 247 247 247 245 244 240 241 243 241 243 244 
244 244 244 244 245 245 247 246 246 246 247 248 248 248 249 249 
249 248 249 244 246 244 245 244 243 245 245 244 244 244 244 247 247 246 246 246 
246 248 248 248 248 246 249 248 248 249 248 249 249 247 248 248 
247 249 248 247 248 247 247 245 246 246 247 247 248 248 247 247 
247 248 248 248 247 246 250 249 249 250 249 249 249 250 250 249 
249 249 248 248 247 250 249 248 246 243 241 242 243 243 244 245 
245 245 245 244 246 246 245 249 247 247 248 250 249 249 249 249 
249 249 249 244 244 245 245 245 245 244 245 244 244 246 245 246 247 246 248 245 
245 247 246 247 248 248 249 250 249 248 248 248 249 249 249 248 
250 250 249 249 249 247 248 248 247 248 246 247 249 250 248 249 
247 248 248 247 248 249 250 250 250 251 250 250 251 250 250 251 
250 250 250 249 249 248 250 248 247 245 244 243 244 244 246 247 
247 247 247 247 248 248 249 249 249 250 248 249 249 250 249 249 
250 251 250 245 245 246 244 244 244 245 244 246 244 245 246 247 247 246 247 245 
245 246 248 247 249 248 246 248 249 246 249 248 249 249 248 249 
249 249 249 248 249 249 249 249 249 248 249 248 249 250 250 250 
249 249 249 248 249 251 251 250 250 250 250 252 251 251 250 250 
251 251 249 250 250 249 250 249 250 247 248 246 247 247 248 247 
247 247 248 249 249 250 250 249 250 250 250 249 249 249 249 250 
248 251 250 244 246 245 245 246 246 244 245 246 247 246 246 246 246 246 246 248 
246 249 248 248 248 249 249 248 248 248 248 249 248 249 249 249 
249 248 249 250 249 250 250 250 249 249 249 249 249 249 249 249 
249 251 250 250 250 250 250 252 251 250 251 250 251 252 252 253 
251 251 251 250 251 250 250 250 251 251 252 249 247 248 248 248 
248 250 250 251 250 249 250 250 250 251 251 250 250 249 251 250 
251 252 250 244 245 245 246 246 247 245 246 245 246 249 248 246 246 246 247 246 
248 249 249 248 250 249 249 248 250 249 250 249 248 249 250 250 
250 250 251 250 250 250 250 251 251 249 249 250 250 250 249 250 
248 250 250 251 252 251 251 252 252 252 252 252 251 252 252 253 
252 251 251 252 251 251 251 250 252 251 253 254 252 252 251 252 
251 251 252 252 252 251 251 251 251 251 252 252 251 250 251 251 
251 252 250 247 246 247 249 247 248 246 245 247 249 250 250 248 248 248 247 249 
248 249 248 248 248 248 249 249 249 249 250 251 250 249 250 251 
251 251 251 250 250 251 250 250 248 252 251 251 250 251 250 250 
251 251 251 251 251 251 251 252 251 252 253 252 252 252 250 252 
251 250 251 250 251 251 251 251 251 251 252 253 253 253 254 253 
251 251 253 252 251 252 252 252 251 252 252 253 252 250 251 252 
252 250 250 