P2
# Created by IrfanView
100 100
255
221 223 223 221 222 222 223 223 223 222 222 223 222 222 221 222 222 
221 221 222 221 221 221 223 220 221 220 220 220 221 221 221 220 
220 220 220 222 219 218 218 218 220 220 220 219 221 220 219 219 
219 219 218 219 222 219 219 219 218 219 220 220 221 220 219 218 
219 220 218 219 217 219 217 218 220 219 219 218 217 218 218 219 
218 217 218 219 218 221 219 219 219 217 217 218 218 217 218 219 
219 218 218 220 222 220 222 223 223 222 223 224 223 225 222 222 222 224 225 223 
222 223 223 221 222 220 218 220 220 222 220 220 219 220 221 219 
220 221 221 222 221 218 219 220 220 220 220 220 220 220 220 219 
220 222 220 219 219 220 221 220 219 220 218 220 219 219 220 219 
221 221 219 220 219 219 220 219 219 220 220 217 218 219 217 219 
218 220 219 219 220 224 220 218 218 221 218 218 219 219 218 220 
219 218 218 222 224 222 224 224 224 225 225 225 223 224 225 224 223 222 225 223 
225 223 222 223 223 223 224 223 221 224 222 221 223 224 222 221 
220 221 222 222 221 221 219 218 218 220 220 221 220 220 220 220 
220 219 220 218 218 220 222 219 220 220 222 220 220 221 220 221 
220 222 221 222 220 221 221 223 221 218 219 220 220 220 220 220 
220 220 220 220 219 220 220 220 220 218 218 219 219 219 220 219 
221 219 219 223 223 224 225 224 224 225 225 223 225 226 227 225 225 224 223 224 
223 224 224 224 226 224 224 222 223 222 224 221 223 224 223 221 
221 221 221 222 224 220 222 219 220 221 221 220 222 219 220 219 
220 220 221 221 221 220 224 221 220 219 220 219 220 220 220 221 
220 222 219 222 221 219 222 224 222 221 221 220 221 220 220 220 
219 220 220 220 221 220 220 220 219 219 219 220 220 219 220 219 
221 222 218 224 224 224 223 225 224 224 225 226 224 225 224 226 224 224 226 223 
224 223 224 223 224 225 225 224 223 221 226 225 223 224 223 223 
223 222 225 223 224 223 223 223 223 222 224 221 224 224 223 224 
222 224 223 222 224 220 220 218 221 223 221 221 221 220 221 222 
223 221 222 223 223 220 220 219 223 222 220 223 220 220 223 221 
220 221 222 221 220 220 223 221 220 220 220 220 220 220 220 220 
221 220 220 224 225 226 225 225 227 224 226 225 226 227 228 227 227 225 224 226 
226 226 227 224 226 227 226 222 226 225 226 226 225 226 223 221 
225 226 228 223 226 225 226 225 224 222 217 214 206 197 194 196 
202 196 204 212 216 219 217 220 221 224 222 223 222 221 221 221 
221 220 221 221 223 223 222 223 222 220 220 220 221 221 219 221 
222 219 222 221 221 222 221 223 220 222 220 221 221 221 220 221 
222 221 221 225 225 224 228 226 227 226 228 227 227 226 228 226 225 226 227 225 
226 224 227 227 228 227 228 227 228 225 227 227 226 226 225 224 
227 227 229 228 222 207 188 174 169 156 155 149 161 168 163 177 
179 170 158 156 154 164 167 189 208 216 220 222 222 223 221 222 
223 223 222 223 223 223 223 223 222 222 222 223 222 223 221 222 
221 222 222 222 223 222 223 222 219 221 221 221 222 219 219 222 
220 220 220 227 227 225 224 226 226 228 226 225 228 226 226 227 227 227 225 226 
226 226 227 230 229 227 228 227 227 227 226 228 228 226 228 228 
230 222 195 170 149 168 174 198 210 211 227 221 227 224 226 228 
227 228 223 225 218 203 200 171 168 165 170 186 211 218 220 222 
223 224 223 223 223 223 224 222 223 223 224 225 223 224 225 223 
224 225 224 222 222 222 220 224 222 221 221 223 220 225 221 223 
223 220 220 227 225 226 227 227 227 227 228 227 226 227 227 226 227 226 227 227 
227 227 226 227 229 229 229 229 228 226 228 229 230 233 230 208 
165 159 176 207 223 229 229 226 226 224 225 226 224 224 225 222 
222 227 224 225 224 225 227 227 226 211 201 176 152 174 184 215 
220 223 224 221 223 224 225 224 223 225 223 224 223 224 224 223 
223 224 223 224 225 225 224 223 221 222 221 221 222 221 220 222 
223 220 220 226 226 228 226 229 226 226 226 229 228 227 227 228 227 226 228 225 
225 225 225 227 226 227 225 228 228 226 229 232 224 199 153 167 
210 226 230 231 232 230 225 225 225 226 223 222 222 223 225 223 
222 223 223 223 222 223 225 227 227 227 229 226 220 201 163 163 
178 208 221 227 229 223 223 224 225 225 225 222 226 225 224 225 
226 225 226 227 225 224 225 226 223 221 222 224 223 223 221 223 
223 222 221 227 227 228 227 229 228 229 227 227 227 226 228 227 226 227 226 225 
227 227 227 224 226 224 227 228 229 232 228 193 153 165 214 224 
227 228 228 229 227 229 224 224 226 226 223 223 221 223 227 222 
222 221 220 222 222 222 222 224 223 222 226 223 227 227 226 220 
182 151 176 209 225 228 226 225 228 225 224 225 225 226 226 226 
226 226 228 226 226 227 228 227 226 226 225 226 222 223 222 220 
221 222 222 229 227 228 227 227 227 229 227 227 226 229 228 227 228 227 228 227 
227 226 228 230 227 227 226 228 228 209 160 178 208 232 228 231 
230 226 228 228 228 226 225 227 228 226 225 224 223 223 224 224 
223 224 223 223 223 226 221 223 223 225 225 221 224 227 225 225 
226 221 188 154 163 217 227 226 226 225 227 228 227 226 227 227 
226 227 227 226 224 226 227 227 224 225 226 227 226 228 226 223 
222 221 223 229 228 228 229 227 227 229 228 228 228 227 227 228 228 226 228 227 
228 226 228 228 228 228 230 208 151 152 218 231 231 228 227 227 
225 227 227 227 226 226 227 228 230 228 226 224 226 223 224 222 
225 224 224 224 226 223 225 224 224 224 223 222 222 224 223 226 
226 227 231 223 174 155 190 222 224 227 226 225 226 227 227 227 
228 228 226 228 228 227 229 227 225 224 225 227 226 226 226 222 
224 224 223 228 229 227 228 228 226 228 229 228 228 228 228 228 229 226 226 228 
228 226 224 226 230 227 180 146 194 230 230 230 228 228 227 228 
226 228 226 228 228 227 228 228 228 228 226 226 225 226 226 224 
224 223 226 225 225 225 224 224 225 225 227 226 225 225 224 225 
227 226 227 227 229 212 159 176 215 223 225 225 227 226 226 227 
227 227 228 226 226 228 229 226 225 225 225 228 226 225 225 224 
223 224 224 228 228 229 227 228 229 227 228 227 226 227 227 229 227 226 226 228 
229 224 226 229 221 151 173 223 231 230 227 227 230 227 229 229 
229 229 228 227 227 227 228 227 228 227 225 227 225 227 226 226 
226 227 226 226 226 225 225 226 226 227 227 228 227 227 224 225 
229 226 226 227 228 229 225 193 160 208 223 225 228 227 228 227 
228 227 231 229 229 228 226 226 226 226 225 227 226 225 226 224 
224 224 224 227 228 228 228 228 228 229 230 230 227 227 226 227 228 226 226 229 
228 228 229 204 157 195 228 231 230 228 226 228 229 228 227 228 
227 227 229 228 228 229 228 228 229 227 226 227 227 227 228 225 
227 227 227 227 227 227 227 227 228 226 227 227 227 228 227 224 
227 228 226 225 229 228 231 232 202 152 192 221 225 226 229 229 
228 228 229 229 229 230 229 229 226 226 227 226 224 225 227 226 
225 224 225 229 229 228 228 228 229 228 230 229 230 228 226 227 227 228 227 227 
228 229 193 143 211 228 230 230 228 226 228 230 229 230 230 229 
229 228 229 229 229 228 228 229 228 226 226 228 227 227 227 228 
227 226 227 228 227 228 226 227 227 227 228 227 228 229 227 227 
226 228 228 228 227 227 225 229 231 220 163 173 217 227 227 228 
227 229 229 228 227 231 229 229 229 224 225 227 226 226 225 225 
226 225 225 227 229 229 227 227 227 228 228 229 230 227 227 228 227 228 227 228 
230 202 150 216 231 230 229 229 229 231 229 229 228 229 230 228 
227 230 229 228 228 228 228 227 228 228 228 228 227 227 228 228 
228 227 228 228 227 228 226 226 228 228 229 227 228 228 229 228 
226 225 229 227 227 228 228 226 227 227 222 168 167 213 228 228 
229 228 228 229 228 227 229 228 229 227 226 228 226 226 227 227 
227 226 227 229 229 229 227 229 228 228 229 229 229 229 227 229 228 226 229 228 
194 161 220 231 229 228 229 230 228 230 229 230 229 230 228 230 
230 229 230 230 227 228 227 229 228 228 228 228 228 228 228 229 
227 228 227 228 229 228 227 229 229 226 228 227 228 230 227 227 
228 228 227 228 227 229 228 228 228 226 230 229 167 170 219 231 
227 228 228 229 229 229 229 229 229 229 228 228 227 227 226 228 
226 225 227 229 230 229 228 228 230 229 229 227 227 227 228 229 229 229 230 213 
154 222 231 230 227 228 229 229 228 228 228 229 229 229 229 227 
228 229 228 228 229 229 230 229 228 228 228 229 229 229 229 227 
226 228 229 230 229 228 229 229 230 229 229 230 228 229 228 228 
229 229 228 229 226 229 229 226 226 226 227 229 225 176 163 216 
228 228 228 228 230 230 230 227 226 229 228 228 228 228 228 226 
228 228 228 228 230 229 228 228 227 227 227 228 228 227 227 230 229 231 205 132 
212 231 229 229 229 230 230 228 228 228 229 230 228 229 229 228 
227 229 227 228 229 228 228 227 228 228 230 229 229 227 229 229 
230 230 228 229 229 229 228 229 229 229 230 230 228 229 229 229 
228 228 229 226 228 229 230 228 227 227 228 229 228 231 182 156 
218 227 228 228 229 231 228 229 229 226 227 228 228 226 227 229 
228 229 228 231 228 229 226 229 229 229 228 227 227 227 226 229 228 214 145 208 
229 229 230 230 230 227 229 229 232 231 230 230 231 230 231 230 
230 230 229 230 230 229 230 230 231 228 229 229 230 230 230 230 
228 228 229 230 230 228 229 229 228 229 229 228 231 230 230 229 
228 228 228 227 229 229 229 227 226 226 225 229 228 229 230 152 
172 220 230 229 228 230 229 228 228 230 228 229 228 230 229 228 
229 228 227 230 229 231 230 229 228 227 227 227 229 227 227 229 228 157 200 230 
230 229 228 227 229 231 229 229 228 229 228 230 230 230 231 230 
230 229 229 229 230 230 228 228 228 230 229 229 229 230 229 228 
231 230 229 229 231 230 229 229 226 228 229 229 229 229 230 229 
230 228 229 228 229 228 230 227 227 228 227 228 228 228 230 219 
153 189 227 229 229 229 229 229 229 230 229 229 229 229 227 227 
228 229 228 228 229 230 228 229 228 228 226 226 227 228 229 229 173 182 232 229 
229 228 230 229 229 229 228 228 230 228 230 229 229 229 229 230 
229 229 229 229 230 229 229 230 228 229 229 229 229 230 229 230 
229 228 227 230 227 229 229 228 230 230 227 229 229 230 231 229 
230 229 230 227 228 230 230 228 228 224 228 228 227 227 230 230 
221 163 197 228 230 230 231 229 229 228 229 230 231 229 230 230 
229 229 228 230 229 229 228 230 229 228 228 225 226 228 229 203 148 227 230 230 
229 229 230 229 229 229 230 226 230 229 228 228 231 231 230 230 
229 230 229 229 229 230 229 229 229 229 230 230 230 229 230 230 
230 230 232 230 231 230 231 231 229 230 229 230 229 231 229 228 
230 229 228 229 228 228 229 228 227 228 228 227 227 229 231 229 
229 209 154 208 227 229 229 228 229 229 230 229 228 231 231 230 
228 229 230 229 230 229 228 228 229 227 227 228 228 227 225 140 204 232 229 230 
229 230 230 230 229 231 229 229 229 230 230 229 229 229 229 229 
228 229 229 231 230 230 230 229 229 230 227 230 229 230 230 230 
230 230 227 229 230 230 230 231 231 229 230 230 229 230 229 231 
229 229 229 229 229 229 228 230 227 229 230 228 227 228 229 229 
228 230 188 165 221 227 228 229 230 230 230 229 231 229 231 228 
227 229 228 228 228 229 229 229 227 230 226 226 225 228 171 176 232 229 230 229 
230 230 230 229 230 228 227 228 229 228 229 229 229 229 230 230 
230 230 231 230 230 229 230 230 231 231 228 232 230 229 230 230 
229 230 232 230 230 230 229 230 230 230 229 229 229 232 231 230 
229 229 229 229 230 228 229 229 228 228 227 227 228 227 230 228 
229 229 225 170 197 228 228 231 230 229 229 230 229 231 229 229 
229 228 230 229 229 229 229 228 228 228 227 226 226 209 147 223 229 228 230 228 
229 231 230 229 228 228 229 230 228 229 228 228 229 229 231 231 
232 233 231 232 229 230 230 230 231 230 230 229 231 230 230 230 
228 229 230 230 229 230 231 231 233 233 230 231 230 229 229 231 
228 229 229 230 229 231 230 229 229 229 230 229 228 228 229 229 
230 229 228 206 149 214 230 229 229 228 230 230 229 228 231 229 
229 229 230 228 230 229 229 228 228 228 227 223 227 155 192 230 230 230 230 230 
229 231 229 230 228 232 229 229 228 229 229 231 231 232 225 220 
199 212 223 227 233 231 230 230 231 230 229 230 230 232 229 231 
231 231 230 231 229 231 231 230 230 232 231 229 229 229 230 229 
231 231 230 231 232 231 231 228 230 228 229 228 228 229 230 230 
228 228 227 228 179 167 225 230 230 231 230 230 229 230 230 230 
229 230 228 229 230 227 229 228 229 228 229 228 210 129 227 230 230 229 230 230 
229 229 229 228 230 230 229 229 229 230 230 224 211 172 158 160 
166 166 159 151 215 233 230 231 231 230 231 230 229 232 230 231 
231 228 229 230 231 231 231 231 231 233 228 229 230 231 232 232 
229 229 230 228 230 229 231 230 230 228 229 229 229 228 228 230 
229 229 229 230 226 157 208 230 230 230 230 230 230 230 231 230 
229 228 229 229 229 229 230 230 226 229 229 228 157 166 232 230 228 230 231 230 
229 229 231 231 230 230 230 231 231 216 176 155 175 189 220 231 
237 235 235 217 168 228 232 230 231 230 230 231 231 231 231 229 
231 232 232 230 231 231 231 231 232 231 232 231 230 226 221 200 
185 166 169 170 168 204 229 230 230 230 231 230 230 230 230 230 
229 228 228 227 229 191 164 224 231 228 231 230 230 230 230 230 
230 230 231 229 229 228 229 229 229 229 228 226 113 208 231 230 231 230 230 231 
231 231 231 232 231 231 231 233 199 156 188 222 232 233 232 233 
234 231 233 236 210 224 231 231 234 232 230 231 231 231 231 231 
231 231 230 232 231 232 231 230 231 231 231 224 184 153 166 189 
212 218 214 220 209 178 212 230 229 230 229 228 230 228 230 230 
229 228 226 227 229 225 165 194 226 229 229 230 229 228 229 230 
229 229 229 229 230 229 228 228 229 230 228 184 149 232 231 231 230 231 230 230 
231 230 230 230 231 232 231 232 191 215 230 230 229 231 214 220 
232 231 229 231 232 231 233 231 233 233 231 230 231 231 231 232 
230 232 230 231 231 231 231 232 230 231 231 192 160 209 230 230 
233 231 230 231 229 223 184 229 230 230 230 229 231 229 230 230 
229 228 226 229 229 229 204 150 228 229 229 227 230 231 230 230 
231 229 229 229 229 230 229 228 230 228 229 138 216 231 230 230 231 231 231 231 
231 230 230 231 231 231 229 231 231 231 230 229 230 230 150 151 
218 232 231 233 232 233 233 234 233 234 234 232 231 231 232 230 
231 230 230 230 233 232 231 231 230 230 231 214 226 233 233 233 
231 231 233 230 230 234 224 231 231 231 229 230 230 230 231 231 
230 228 230 231 231 230 217 148 226 228 230 229 230 230 231 230 
229 230 231 229 229 228 230 230 231 230 213 135 229 229 229 230 230 231 231 231 
231 231 232 231 232 232 233 232 231 230 230 229 208 157 113 139 
157 230 231 231 232 232 231 232 232 234 234 235 232 230 231 232 
231 232 232 231 231 230 233 232 232 233 232 232 235 231 232 211 
197 189 214 230 231 230 233 231 230 231 231 231 230 230 231 230 
229 231 230 229 228 228 230 162 216 225 228 230 229 231 230 230 
229 230 230 230 230 229 230 228 229 230 173 171 230 229 229 230 231 231 231 232 
230 232 232 231 233 232 232 232 229 229 231 228 141 84 98 118 
131 218 234 234 232 232 235 234 233 233 235 235 234 234 234 233 
231 230 231 231 232 231 232 232 232 233 232 230 231 230 201 130 
97 99 137 184 230 231 231 232 230 229 228 230 230 230 230 231 
229 228 231 228 229 228 230 195 186 227 228 230 230 230 230 230 
232 230 229 229 228 230 231 231 230 232 134 208 230 229 231 230 232 231 231 232 
232 231 233 231 231 230 234 232 231 229 227 173 83 79 72 78 
91 172 232 232 233 234 234 234 235 234 236 235 234 235 236 235 
232 233 231 232 232 230 231 232 232 233 233 230 229 228 143 112 
97 112 128 171 214 230 231 231 231 232 231 231 230 230 230 231 
231 229 232 230 230 229 229 225 161 227 230 231 230 230 229 230 
230 230 229 229 229 229 230 229 233 221 131 232 232 229 231 232 231 232 232 232 
233 232 232 232 232 232 233 234 231 231 194 88 112 108 99 85 
78 154 231 235 234 233 234 234 235 233 234 237 235 235 234 233 
234 233 230 230 231 231 232 231 231 230 233 231 227 209 125 117 
136 118 107 148 211 232 229 230 230 231 230 229 233 230 229 229 
232 232 229 231 229 230 230 229 163 220 231 230 230 230 230 231 
230 230 231 229 229 230 230 229 230 186 171 234 232 232 232 232 231 232 230 232 
233 232 232 232 232 232 232 233 231 226 125 104 96 111 143 102 
80 168 231 235 235 234 234 233 235 235 234 236 236 235 237 235 
235 234 233 231 232 232 232 232 232 231 231 230 229 170 121 124 
151 108 108 150 226 233 233 231 231 231 230 230 232 231 232 232 
232 231 231 233 231 230 231 229 195 216 230 231 230 231 231 230 
230 231 230 230 230 229 229 229 231 150 210 233 230 230 232 233 231 232 232 234 
232 232 232 233 233 232 234 234 231 203 140 123 98 114 102 79 
97 212 232 234 234 234 233 233 234 235 235 235 236 237 238 234 
233 235 233 233 232 231 233 232 232 231 232 231 226 147 132 172 
110 97 119 164 232 232 231 232 232 232 233 232 232 230 231 230 
231 231 230 230 232 232 231 230 207 202 231 230 231 230 230 230 
230 230 231 229 229 229 230 230 232 136 226 232 231 231 233 232 232 232 232 233 
232 233 234 232 232 233 231 234 232 219 150 125 102 92 97 95 
161 234 233 235 235 235 233 233 236 236 235 235 236 236 239 238 
236 236 235 234 233 232 231 232 231 232 232 230 215 130 128 162 
89 109 128 190 234 231 231 232 231 233 232 232 230 231 232 231 
231 231 232 230 231 231 232 232 224 187 230 230 231 230 230 230 
231 230 232 231 230 230 229 231 228 140 233 232 232 232 232 232 234 232 232 232 
232 232 232 232 232 233 232 233 234 233 160 93 71 70 85 117 
223 233 233 234 235 235 233 235 235 234 235 235 236 237 236 237 
238 237 234 233 235 232 233 232 232 232 232 232 229 143 104 109 
93 119 141 224 232 232 231 231 233 232 233 233 233 232 232 232 
232 232 232 232 233 231 230 231 229 188 227 230 230 231 231 230 
231 230 231 231 229 231 232 230 221 152 233 232 232 231 233 232 231 232 232 233 
232 233 233 232 232 232 232 233 235 235 231 193 107 103 116 194 
234 233 233 234 234 235 234 235 235 234 234 234 236 236 233 236 
238 238 235 238 236 234 232 232 233 233 234 232 232 166 102 86 
99 127 206 234 232 234 233 233 232 232 233 233 232 233 232 230 
233 233 231 232 234 231 231 233 229 195 226 231 231 231 230 231 
231 230 232 230 230 230 229 231 213 171 232 231 230 233 232 233 233 232 234 235 
235 234 233 232 233 234 233 233 235 235 235 238 225 227 227 235 
234 233 233 234 236 235 235 235 235 235 234 236 236 238 237 236 
237 238 236 234 235 233 235 233 234 234 232 232 231 227 161 163 
202 218 234 233 232 234 234 233 232 233 233 232 233 232 232 233 
231 231 233 232 234 233 231 231 233 200 226 232 231 230 231 231 
231 233 231 230 229 230 231 230 204 185 231 231 234 232 232 233 232 233 233 233 
234 233 233 232 232 233 233 234 232 234 234 236 238 239 238 236 
235 235 234 235 235 234 235 235 236 235 234 235 237 235 237 237 
235 236 237 236 237 236 236 235 234 233 232 233 232 237 237 230 
237 238 236 234 234 234 234 234 233 232 234 233 233 234 234 234 
235 233 233 233 234 233 232 233 228 207 219 229 230 233 231 231 
231 230 232 232 231 232 233 229 199 196 232 230 229 233 232 233 231 234 233 233 
233 234 233 232 232 235 236 234 234 234 235 236 236 235 236 234 
234 234 236 234 234 234 234 234 234 234 234 236 236 237 237 237 
236 236 237 238 236 235 234 234 235 233 234 233 235 234 239 236 
236 235 235 235 234 234 234 234 234 234 233 233 234 233 233 233 
233 234 234 234 233 233 234 232 231 208 213 231 232 231 231 232 
233 233 232 230 231 232 233 231 204 205 232 233 232 233 232 233 233 234 234 234 
236 233 234 234 233 233 234 236 235 235 234 235 236 235 236 235 
236 235 234 236 236 235 236 236 235 236 235 235 236 235 237 237 
236 236 238 237 235 235 235 234 234 236 235 232 233 235 235 235 
234 236 235 234 234 235 235 233 235 235 234 233 233 235 233 234 
233 234 235 234 234 235 233 233 231 209 215 232 232 232 232 231 
232 232 232 230 230 230 232 230 200 198 234 230 231 233 232 232 233 234 235 233 
233 234 235 234 234 234 234 233 234 235 236 234 234 234 234 235 
235 235 236 236 235 234 235 235 234 235 236 236 235 237 237 236 
237 237 236 237 235 236 236 234 235 235 234 235 235 236 233 235 
234 235 236 235 234 235 235 235 233 234 233 234 235 233 234 233 
235 235 234 234 233 234 234 234 233 218 210 230 232 231 232 232 
231 232 232 231 231 230 232 231 189 206 232 233 233 233 235 234 233 234 234 233 
235 234 234 234 234 235 232 234 235 234 234 235 235 233 235 234 
236 235 235 235 235 235 234 235 235 235 233 236 236 236 235 240 
235 238 236 237 236 236 236 235 236 234 235 235 235 236 234 237 
236 235 234 237 236 234 235 234 233 234 234 234 235 234 233 237 
234 235 235 233 235 236 236 234 231 214 207 230 231 232 233 233 
233 232 233 232 233 232 231 231 198 198 233 234 234 232 232 234 234 234 233 234 
234 233 234 235 235 233 234 233 233 236 234 234 234 237 234 235 
235 236 236 236 236 236 236 236 236 235 236 235 235 235 235 236 
236 238 235 237 236 236 237 237 234 236 235 236 236 236 236 236 
234 236 237 237 235 235 236 234 235 235 236 236 235 235 237 235 
234 234 233 234 235 237 237 234 232 214 210 231 233 234 232 233 
232 232 233 232 232 231 231 232 203 194 232 233 234 233 233 233 235 235 234 234 
234 235 234 235 235 235 234 234 235 236 235 237 237 235 235 235 
235 236 233 236 235 235 236 236 236 235 235 233 237 236 237 238 
238 237 238 238 237 237 239 237 235 236 234 236 235 236 235 236 
236 235 235 236 236 235 237 236 236 236 235 236 235 235 235 236 
235 238 237 236 235 236 236 235 235 219 211 232 233 232 233 233 
232 233 234 233 232 233 232 233 206 169 234 235 234 234 235 234 232 234 236 235 
235 235 234 235 234 234 235 234 236 234 235 236 235 234 235 236 
236 237 237 236 235 234 236 235 235 235 237 236 236 236 236 238 
238 237 237 237 237 237 237 238 239 237 236 235 237 235 236 237 
236 238 236 236 235 235 237 235 236 234 236 236 237 236 236 236 
236 236 237 236 235 237 235 234 233 213 217 234 233 233 234 233 
235 233 233 233 233 233 233 234 223 149 232 235 233 235 234 234 235 235 234 234 
234 234 235 234 234 234 235 235 233 233 236 235 234 236 236 236 
235 234 235 236 235 235 235 235 235 236 235 236 235 237 237 237 
238 238 236 236 237 235 235 236 236 236 236 238 237 236 236 235 
236 236 236 235 237 236 236 237 236 237 237 236 236 237 236 235 
236 234 236 236 236 236 236 235 234 210 223 234 235 234 234 234 
234 234 236 233 236 235 233 233 225 151 235 234 236 234 234 234 235 232 235 235 
236 235 234 235 234 233 235 237 236 235 235 235 237 236 236 236 
234 235 236 236 236 237 237 236 237 236 235 234 235 235 236 238 
237 237 236 238 238 237 238 237 236 237 237 237 236 236 236 235 
236 238 235 238 236 236 235 237 238 237 235 236 236 235 238 236 
238 237 237 236 234 236 237 236 236 209 228 236 233 235 236 234 
233 233 235 234 235 234 235 234 230 143 237 235 234 235 234 236 234 235 235 235 
235 235 235 237 235 234 235 235 236 235 236 235 236 235 236 237 
237 237 235 235 236 238 237 235 235 237 237 236 235 236 237 237 
237 237 239 239 238 236 238 237 237 235 238 238 238 237 236 237 
236 235 237 238 237 237 237 237 236 236 238 236 236 237 237 238 
237 237 235 236 237 236 237 236 235 207 229 234 235 234 234 234 
233 234 234 236 236 234 233 233 235 144 230 234 235 235 236 234 236 235 236 237 
234 235 237 237 234 234 236 235 235 235 235 236 235 235 236 236 
236 237 237 237 236 236 236 236 235 236 236 237 234 236 238 236 
238 237 237 238 238 236 238 239 238 237 238 238 236 237 237 237 
237 235 236 237 237 236 237 236 237 237 238 239 238 239 237 236 
237 237 238 239 238 237 238 236 236 206 230 238 236 235 234 235 
235 235 236 237 235 237 236 237 233 145 192 236 235 234 236 235 236 235 235 236 
235 236 236 237 236 235 235 234 236 237 235 237 235 236 235 236 
237 236 235 236 236 236 236 236 237 237 237 236 233 235 237 237 
239 236 237 237 237 238 237 239 236 236 238 237 237 237 237 237 
237 238 238 237 237 237 238 238 239 238 238 236 239 237 238 239 
238 238 237 237 236 237 236 236 232 207 236 236 237 236 236 234 
234 234 236 235 236 234 234 237 236 182 154 236 235 236 235 235 237 235 236 236 
236 236 236 236 236 238 237 236 237 237 235 236 236 236 236 237 
236 235 236 237 236 237 237 237 235 236 236 235 235 236 235 235 
237 237 238 237 236 238 238 241 237 238 238 238 238 238 237 237 
237 237 238 237 237 238 237 238 237 238 238 239 237 237 240 240 
240 238 238 237 237 237 238 234 225 209 236 236 235 235 235 235 
235 237 238 235 235 235 234 236 236 207 195 233 236 235 237 236 235 236 237 237 
236 236 237 236 236 236 236 237 236 236 236 237 236 236 236 235 
237 236 236 236 236 237 237 237 236 235 235 236 235 235 235 238 
237 238 238 239 238 238 237 239 240 239 236 237 236 237 238 238 
237 238 237 237 238 237 236 237 237 236 236 237 239 239 238 238 
239 238 238 238 240 237 235 236 211 220 237 236 235 236 237 238 
236 235 238 235 234 235 237 236 235 231 191 237 235 234 239 238 237 237 235 237 
237 236 236 236 238 235 235 236 235 236 235 237 236 236 236 236 
236 237 236 236 238 237 237 236 235 237 236 237 235 235 236 237 
239 239 237 237 237 237 238 239 239 240 238 237 238 238 238 238 
238 238 238 239 238 238 240 238 238 238 239 238 237 239 239 239 
239 239 238 237 236 237 237 236 211 232 239 238 238 237 236 235 
235 236 236 237 236 236 236 238 237 239 193 227 238 237 235 236 235 236 237 236 
237 237 236 237 236 237 236 236 236 236 237 235 237 235 235 236 
236 236 237 236 236 236 237 235 235 236 236 237 238 237 238 236 
238 238 238 237 237 237 237 239 239 238 237 237 238 237 236 239 
237 237 237 238 238 237 238 236 238 236 235 238 239 239 238 239 
238 239 239 236 237 237 239 234 208 236 239 237 237 237 238 237 
236 237 236 236 236 236 237 238 238 237 204 197 238 235 236 236 237 237 238 237 
237 237 237 236 236 237 238 236 237 236 236 237 236 239 236 236 
236 237 236 237 236 238 238 238 236 236 235 235 236 236 235 236 
237 236 237 237 238 238 237 236 236 236 237 238 239 237 238 239 
237 237 237 239 238 238 236 238 237 238 238 238 237 237 237 237 
238 239 239 239 238 237 236 224 208 236 236 237 239 239 238 239 
241 234 238 238 238 236 236 238 237 238 235 180 235 236 237 237 237 238 238 237 
237 237 236 235 239 237 236 238 236 237 235 236 236 236 236 237 
236 237 237 237 236 238 235 235 235 236 238 237 235 235 235 236 
236 235 235 236 237 238 236 236 237 238 237 238 238 238 238 238 
239 238 238 238 236 238 238 237 238 238 237 238 238 238 238 237 
238 238 237 235 236 236 236 214 224 238 239 239 238 237 238 238 
237 238 236 235 237 237 237 237 238 236 237 202 217 238 237 238 238 238 238 237 
238 237 237 237 234 237 237 236 235 236 236 235 236 237 236 236 
237 235 237 236 237 237 234 235 236 237 237 235 235 236 234 235 
233 235 236 237 238 240 240 240 238 238 238 240 238 238 238 239 
238 238 237 239 237 237 238 238 239 237 237 238 237 239 237 238 
238 238 238 238 237 235 237 210 234 240 238 236 237 239 239 238 
239 235 237 239 238 238 237 238 238 236 237 229 184 236 237 236 238 238 238 237 
237 239 238 237 238 236 237 236 236 235 237 237 235 234 236 234 
235 236 237 236 234 236 237 238 237 236 236 234 234 236 235 237 
237 237 237 235 235 234 237 234 240 236 241 239 237 238 238 239 
238 239 237 237 237 238 237 235 236 236 237 237 237 236 237 235 
237 236 238 237 235 234 233 215 238 238 240 238 239 238 239 239 
238 238 237 237 239 239 237 236 237 239 237 235 186 226 237 238 238 239 237 238 
239 239 239 238 238 238 238 239 239 238 236 238 237 238 236 236 
235 237 236 238 238 235 235 234 236 237 234 236 238 238 235 238 
236 237 232 218 209 197 185 168 173 173 232 237 239 238 238 240 
239 238 238 238 237 238 238 237 239 238 238 237 239 236 237 237 
236 237 233 235 235 235 218 229 237 239 238 238 238 240 240 238 
239 239 238 238 238 238 239 238 239 238 237 234 217 187 236 240 238 239 238 239 
240 241 239 237 238 238 239 237 239 237 238 236 237 238 238 237 
236 236 235 235 237 235 236 236 237 238 235 236 237 234 212 204 
186 168 159 150 169 182 191 219 221 214 235 239 239 240 239 240 
237 238 238 239 237 237 238 237 237 238 236 236 236 235 238 236 
238 237 236 232 236 233 209 234 239 238 239 239 238 238 238 239 
238 238 237 238 238 238 237 239 239 237 236 238 237 183 226 238 238 240 239 239 
238 240 239 239 239 240 238 238 239 238 239 240 239 239 239 237 
236 235 237 235 236 236 236 238 239 228 213 194 166 167 173 180 
189 208 220 233 237 239 240 241 241 242 240 239 239 239 239 241 
239 238 238 238 238 239 237 237 235 234 236 238 235 236 235 235 
236 235 236 234 235 215 225 235 239 239 239 237 239 236 237 237 
237 239 239 240 239 240 239 240 239 239 237 237 236 227 197 239 238 238 239 240 
238 240 240 238 238 239 239 239 240 239 238 238 238 235 239 239 
238 238 236 235 237 238 220 182 172 179 171 185 207 228 236 240 
242 241 240 241 241 240 239 239 239 240 239 239 238 239 240 239 
239 240 240 239 237 238 237 238 237 236 239 236 237 235 235 234 
236 236 234 235 232 210 234 237 236 238 237 238 238 238 238 239 
237 239 239 238 239 239 238 239 239 239 239 238 236 238 204 221 241 239 240 239 
240 240 240 240 240 239 240 240 240 239 239 239 238 238 238 236 
236 237 237 235 205 172 155 179 214 219 235 240 240 242 239 238 
239 238 238 239 238 240 238 239 238 239 239 238 239 239 239 240 
237 239 241 238 237 238 238 236 237 237 234 236 234 235 234 232 
234 236 234 234 219 225 237 237 241 238 238 239 238 237 239 239 
240 238 238 239 240 239 239 240 239 240 239 237 238 238 237 192 229 241 240 240 
240 239 240 239 239 239 240 239 240 241 239 238 237 239 240 239 
239 239 239 230 171 200 225 236 239 238 239 239 238 238 237 238 
236 238 238 238 238 238 236 238 239 238 239 239 239 239 239 238 
239 240 239 238 238 238 238 238 238 237 239 236 235 237 236 236 
234 234 234 229 213 237 237 238 239 239 239 238 238 240 239 238 
240 241 239 241 240 241 239 238 237 239 240 239 239 237 240 226 198 240 240 240 
239 240 240 241 239 239 239 240 240 239 239 239 239 239 239 239 
238 239 239 238 237 241 241 240 239 241 239 238 238 238 238 237 
238 237 238 239 239 239 240 238 239 239 238 239 238 239 238 239 
240 240 240 238 238 238 239 237 237 236 237 235 235 237 236 233 
234 233 232 212 226 239 240 239 238 239 239 239 240 238 240 239 
239 240 240 240 240 240 240 241 241 240 240 240 241 241 241 242 212 223 241 239 
240 240 239 239 239 239 240 240 240 241 241 241 239 238 240 239 
239 238 239 239 239 239 239 239 238 237 241 237 238 239 238 239 
239 238 239 239 239 239 237 240 239 238 238 239 240 239 241 240 
240 240 239 238 239 239 238 237 238 238 238 238 237 236 236 236 
235 235 220 216 234 238 239 240 239 238 239 241 239 241 239 239 
240 240 240 240 239 242 240 240 241 240 239 240 238 241 242 241 240 194 233 244 
240 240 241 239 240 241 240 240 238 239 240 241 239 239 239 239 
240 240 236 238 239 237 240 238 240 239 239 239 238 238 236 238 
238 238 239 239 238 240 237 239 239 238 239 239 238 237 238 238 
241 241 238 240 239 241 238 238 239 239 238 239 239 237 235 236 
235 229 211 233 236 240 240 239 237 240 237 239 241 239 240 240 
241 240 240 241 241 240 242 242 241 241 241 240 242 242 241 241 241 235 188 235 
242 240 241 241 239 240 240 241 241 239 240 240 239 240 239 239 
239 239 240 240 238 240 238 238 237 240 239 240 240 239 241 239 
239 237 237 239 238 237 237 239 239 241 239 238 238 238 238 238 
240 238 240 239 239 240 239 239 235 240 239 239 238 235 236 236 
235 206 226 236 236 238 240 240 240 240 237 239 239 240 241 241 
240 241 240 242 241 241 241 241 241 242 241 241 241 244 242 242 241 242 227 194 
239 241 239 239 240 241 241 240 241 240 240 240 240 240 240 240 
239 240 242 241 239 239 239 239 240 239 240 240 240 239 240 240 
240 240 239 238 240 239 238 236 239 238 238 239 239 238 238 239 
239 238 239 240 239 238 238 237 237 239 240 239 237 235 235 233 
216 215 233 235 238 240 240 239 238 239 240 239 241 240 240 239 
241 240 241 241 242 241 241 241 242 242 242 242 240 240 242 242 240 240 240 214 
197 242 243 241 241 240 240 240 239 240 240 241 241 241 241 241 
239 240 239 241 240 240 239 240 240 241 240 240 240 240 241 238 
238 239 240 239 237 238 239 240 240 239 239 239 239 240 240 239 
238 237 239 238 239 239 236 238 238 239 240 239 236 235 234 225 
213 234 238 237 240 240 239 240 239 240 241 240 241 241 241 241 
241 240 239 242 243 242 242 242 242 241 242 242 242 242 242 241 243 242 242 243 
203 198 240 241 241 242 241 242 240 240 240 239 241 240 240 241 
240 240 241 240 241 240 241 241 241 240 241 240 240 241 241 241 
239 240 241 241 238 239 239 238 238 240 237 240 239 239 238 238 
238 238 238 239 239 240 238 239 238 240 239 238 237 235 229 215 
231 236 239 238 240 239 239 240 240 241 240 239 242 241 241 240 
240 241 242 243 243 243 243 243 241 243 243 243 242 242 242 242 243 242 243 243 
243 209 200 240 242 241 241 240 241 240 241 242 240 240 241 240 
241 241 240 240 240 240 242 241 241 240 241 241 241 241 241 240 
240 240 241 240 240 239 239 239 240 239 239 239 240 239 238 238 
238 238 239 239 239 239 239 240 239 239 238 239 238 232 217 235 
241 239 239 240 240 240 239 238 240 240 240 241 241 241 241 241 
241 241 241 243 242 243 243 243 243 243 243 242 242 242 243 243 242 244 243 244 
241 245 210 194 238 241 243 241 239 240 240 240 241 240 240 241 
241 241 240 240 242 240 240 241 242 242 241 241 241 241 241 241 
240 241 241 241 240 240 239 240 239 239 240 239 238 239 240 240 
239 239 240 238 241 239 239 241 240 238 237 239 233 218 233 239 
239 240 240 240 241 240 239 239 241 241 240 241 241 242 241 241 
242 242 242 242 244 242 243 244 244 244 243 243 243 244 242 243 242 243 242 242 
243 245 244 213 186 234 243 245 241 242 242 240 241 241 240 240 
240 241 241 240 240 241 240 239 240 241 241 240 241 242 241 241 
242 241 240 240 241 239 241 240 241 239 239 240 239 238 238 238 
238 238 239 240 239 239 241 239 236 235 238 228 218 233 240 240 
241 240 240 241 240 239 241 240 241 241 242 241 241 241 241 241 
241 242 240 243 244 243 244 244 244 244 245 245 243 243 242 243 243 243 243 242 
242 243 244 244 228 179 224 246 245 241 241 241 240 241 242 241 
241 241 241 241 240 241 241 240 239 241 242 241 241 240 239 241 
241 241 240 242 241 241 242 240 240 239 239 241 241 242 240 240 
238 239 240 238 238 238 239 239 238 236 230 210 230 238 240 240 
241 239 239 241 241 242 241 243 242 241 241 241 242 241 241 242 
241 241 242 245 244 244 245 244 244 245 244 243 244 243 244 244 244 244 244 244 
245 246 243 244 247 237 184 204 244 244 243 241 240 241 243 243 
241 240 241 241 239 239 239 241 240 241 241 242 241 240 242 241 
242 242 242 241 240 239 241 241 242 240 240 240 240 240 240 239 
239 239 240 240 239 239 237 238 238 233 219 231 240 240 239 242 
240 242 241 240 240 241 241 240 240 241 241 241 240 243 242 242 
242 241 242 244 245 245 244 245 245 245 245 244 246 245 244 244 245 245 246 245 
244 247 247 244 244 246 245 208 186 236 244 243 244 241 241 242 
242 243 243 242 241 242 241 241 241 241 242 242 242 243 242 242 
243 241 241 242 244 241 241 241 241 241 243 241 239 240 240 239 
240 240 240 240 240 239 238 237 233 232 236 242 239 240 241 241 
242 241 242 242 243 241 242 242 242 242 242 241 242 242 242 242 
242 243 240 246 245 244 244 244 245 244 243 246 244 244 244 246 245 245 244 244 
244 247 246 245 244 244 248 248 236 191 209 243 243 243 242 242 
242 242 241 241 242 242 242 241 242 242 242 241 241 242 241 242 
243 243 243 242 242 242 241 241 241 240 241 242 241 239 240 239 
240 240 242 240 240 239 238 235 236 239 240 241 241 242 242 242 
241 243 242 242 242 243 242 241 244 241 241 241 241 242 240 244 
242 243 243 245 245 245 244 244 246 245 247 247 247 244 246 245 247 245 245 246 
247 246 246 245 245 245 248 247 246 245 206 185 227 241 243 242 
243 243 242 241 241 242 241 242 241 241 241 241 243 242 243 243 
243 243 242 242 242 242 241 242 240 241 242 242 241 240 241 241 
241 240 241 243 241 239 235 238 241 241 241 242 241 243 243 243 
242 243 243 242 243 242 242 241 241 242 243 242 241 240 242 241 
241 241 243 246 246 246 245 243 245 245 246 246 246 246 245 246 246 245 246 246 
247 246 247 246 247 246 247 247 244 247 249 230 184 187 229 240 
244 244 243 243 242 241 242 240 241 241 243 241 241 242 243 242 
243 243 243 242 242 243 241 242 240 241 242 242 241 241 240 241 
241 240 240 232 229 236 240 242 243 242 242 242 242 240 242 243 
242 243 244 242 243 242 243 242 244 241 242 241 241 242 241 242 
241 241 242 246 245 245 244 243 245 245 245 246 245 246 247 247 247 248 247 246 
248 247 247 248 246 247 246 246 246 246 247 248 247 224 194 191 
226 243 243 244 244 243 243 241 241 242 242 243 242 242 243 242 
243 242 243 243 242 243 241 241 241 239 242 242 241 243 242 242 
238 235 226 220 237 240 241 241 241 243 243 243 242 242 242 242 
242 243 243 241 242 241 242 242 244 241 242 242 240 242 242 242 
242 242 242 245 247 246 248 245 245 246 248 246 247 248 246 246 246 247 246 247 
247 247 248 248 246 246 249 247 249 246 246 247 248 246 247 231 
201 191 204 226 242 246 245 245 243 242 243 242 244 243 242 242 
243 243 243 243 243 242 243 241 242 242 244 241 240 243 229 218 
211 211 221 238 242 242 242 243 243 243 242 242 243 243 242 242 
242 242 242 244 243 242 242 243 243 242 242 242 241 242 241 242 
243 241 241 248 246 246 246 246 245 247 246 247 247 245 248 247 247 246 246 247 
248 248 247 246 248 247 247 247 249 246 247 244 245 246 247 247 
248 239 219 198 201 204 223 230 240 239 241 244 246 243 242 243 
243 245 243 243 245 244 243 242 242 240 234 231 215 209 211 215 
226 239 242 244 242 242 243 242 243 242 242 243 243 243 243 243 
242 243 242 242 243 243 243 244 243 242 242 243 243 242 242 242 
241 242 243 246 247 248 247 246 247 247 247 247 247 247 247 247 246 248 248 248 
248 248 248 247 248 248 248 247 248 248 245 246 245 246 247 246 
247 247 248 248 242 226 210 192 196 195 198 206 225 234 234 228 
222 223 229 223 219 225 205 206 192 197 209 222 230 238 241 243 
243 244 244 244 244 244 244 244 245 243 245 243 242 243 243 243 
243 244 244 242 243 242 242 244 244 243 243 242 241 242 242 242 
242 243 242 247 247 246 246 247 248 245 247 247 247 247 247 246 249 248 248 248 
247 248 247 247 247 248 247 248 248 248 247 245 244 246 247 245 
246 248 248 249 247 248 248 244 239 235 219 209 199 195 187 186 
186 193 189 183 188 198 207 213 229 240 244 244 245 246 247 245 
245 244 242 244 243 243 244 243 244 244 243 243 244 243 243 243 
242 243 243 242 242 244 244 243 244 244 243 241 243 242 242 241 
241 243 242 246 247 248 245 246 247 247 247 248 247 248 249 249 248 247 247 247 
247 247 246 247 248 248 248 249 248 248 249 248 246 247 247 247 
247 247 248 248 248 248 249 249 249 248 248 248 247 247 247 247 
244 246 245 239 241 247 247 246 246 248 246 246 245 245 243 245 
245 245 245 245 245 245 246 244 243 243 244 244 244 244 243 242 
243 241 243 243 242 243 242 244 245 246 243 243 243 243 242 243 
242 242 243 248 245 245 247 248 247 247 247 248 247 247 246 247 247 247 247 248 
248 248 248 248 248 248 248 247 248 247 248 247 247 247 247 247 
248 248 249 250 248 248 247 248 246 246 248 247 247 247 248 249 
249 249 248 248 246 247 245 245 246 244 244 245 245 245 246 245 
247 248 247 246 245 245 245 247 244 244 244 242 244 244 243 244 
244 245 243 243 244 244 246 244 244 245 244 242 244 243 243 243 
243 242 242 247 249 246 245 246 246 246 247 247 247 247 247 247 246 247 247 247 
248 248 247 246 247 247 248 248 248 247 247 247 248 247 247 247 
247 246 249 249 247 249 250 248 247 249 249 247 246 245 247 247 
249 247 246 249 248 246 246 246 246 247 245 244 246 247 248 247 
247 249 246 245 245 245 245 245 245 244 244 243 244 244 244 245 
243 243 244 245 245 244 243 243 245 246 244 243 243 244 245 244 
243 241 241 245 245 247 247 246 247 247 248 246 246 247 246 247 247 247 246 247 
246 247 247 248 248 247 247 247 248 249 248 248 248 248 248 247 
247 248 248 250 247 249 249 248 247 248 248 249 248 245 247 246 
248 248 249 248 247 248 246 247 246 246 246 246 247 245 247 248 
246 248 247 246 245 246 246 245 248 246 245 245 245 244 243 243 
243 243 243 243 243 244 245 245 244 245 245 245 246 244 245 243 
242 242 241 244 245 246 247 245 245 246 245 247 247 246 246 246 246 245 246 246 
247 247 249 249 248 247 247 248 248 247 247 247 247 247 247 247 
247 248 248 247 247 249 249 248 249 247 246 248 249 248 247 248 
248 248 249 247 247 246 248 248 248 246 247 248 246 246 247 247 
248 247 245 246 245 245 247 246 246 246 245 246 244 244 243 243 
244 244 243 243 243 244 243 244 244 245 246 246 245 245 246 243 
243 243 243 245 245 244 245 246 247 246 248 247 246 246 246 246 246 247 245 245 
246 247 247 247 246 247 247 248 248 248 248 247 247 248 247 247 
247 247 249 247 247 248 248 248 249 248 247 247 248 247 248 247 
248 247 247 247 248 247 247 248 247 246 246 247 247 247 249 248 
248 247 246 246 246 247 247 245 247 245 245 246 245 247 245 244 
243 245 244 244 245 244 245 244 243 245 244 244 244 245 244 243 
243 241 244 244 245 245 245 244 247 247 245 245 244 245 246 246 246 247 247 244 
246 247 247 247 247 246 246 248 248 249 248 248 247 247 248 248 
248 246 247 248 249 250 248 248 248 248 248 248 248 249 248 250 
249 249 249 247 248 248 248 248 248 247 246 246 249 249 248 247 
248 247 248 247 247 248 248 245 247 248 246 248 248 247 245 245 
243 246 245 245 244 244 246 246 246 245 245 245 245 246 245 243 
242 242 242 241 242 243 241 240 241 242 240 243 242 240 239 240 241 243 245 243 
241 242 245 246 246 245 243 242 244 243 246 245 244 245 246 245 
244 243 244 246 246 246 249 247 246 245 246 247 246 246 245 247 
248 248 250 249 246 246 251 251 250 248 246 246 246 247 248 247 
250 248 249 250 250 250 249 248 248 248 248 248 248 248 247 247 
247 248 246 246 247 246 246 244 245 244 242 245 246 246 244 245 
245 246 245 