P2
# Created by IrfanView
100 100
255
251 250 250 250 250 249 248 248 248 248 249 249 248 249 249 248 248 
249 249 251 252 250 250 250 251 249 248 250 249 249 250 250 249 
249 250 251 249 250 251 250 248 248 247 246 245 245 247 244 243 
244 246 246 246 247 245 245 245 244 243 245 246 245 245 245 245 
246 245 246 246 247 247 247 246 246 245 246 246 247 243 244 245 
243 242 245 245 247 246 244 244 245 244 245 243 242 243 243 242 
241 241 242 249 250 250 250 250 250 249 248 249 248 248 247 249 249 247 249 248 
248 248 249 249 249 249 248 248 249 248 249 248 249 248 248 249 
249 248 248 249 248 250 248 247 248 246 247 246 245 246 244 246 
243 246 245 243 247 244 244 244 244 245 244 246 244 247 246 246 
246 245 246 246 247 247 248 248 248 245 246 246 247 244 242 244 
244 243 243 245 246 246 248 245 248 245 245 244 245 245 243 242 
242 241 242 249 250 250 250 248 249 250 250 249 248 248 248 248 248 246 248 248 
248 246 247 246 246 247 247 247 247 249 248 248 247 248 249 249 
248 249 249 247 246 250 248 248 246 246 247 247 246 247 247 245 
244 246 246 245 245 246 243 245 245 244 244 245 246 246 246 246 
247 246 246 247 249 249 248 246 247 245 245 244 245 244 244 243 
243 244 244 243 247 245 246 247 246 244 244 245 244 245 243 243 
242 244 239 249 249 249 249 249 250 249 248 249 247 247 249 247 247 247 247 248 
247 248 247 246 246 247 247 245 244 246 247 246 246 245 247 248 
248 248 248 247 248 249 250 247 246 246 247 247 246 247 247 247 
245 245 245 245 246 246 245 244 246 243 245 244 246 246 244 244 
246 245 246 247 247 248 246 244 244 245 245 245 245 245 244 241 
245 243 244 244 244 245 246 245 245 245 245 246 245 244 242 243 
242 244 241 249 250 250 249 249 250 250 249 249 247 248 247 248 248 248 247 248 
247 247 247 247 247 246 245 245 244 246 246 246 246 248 248 246 
249 248 248 247 246 247 247 246 247 246 244 246 245 246 246 246 
245 246 244 246 245 245 245 246 245 245 245 244 245 246 245 246 
244 246 245 246 246 247 245 245 245 245 246 244 245 244 246 243 
245 243 242 244 243 246 245 245 245 243 244 245 244 244 243 244 
243 244 243 250 250 250 250 250 250 250 250 250 248 249 248 248 248 249 249 247 
247 248 248 248 247 246 245 245 246 247 245 247 245 246 243 247 
247 248 247 246 248 248 247 247 245 246 247 245 245 247 245 245 
244 247 244 245 245 246 244 244 246 246 244 245 247 247 246 247 
246 246 245 246 247 246 244 245 244 245 245 246 245 244 244 243 
245 244 244 244 244 244 245 243 244 243 243 244 245 244 244 244 
245 244 242 249 250 250 250 250 251 250 250 250 250 249 248 249 248 249 249 249 
249 246 248 247 247 245 245 244 245 246 245 245 245 245 246 247 
248 246 245 246 246 246 247 248 247 248 245 241 240 236 239 237 
236 232 231 235 235 236 239 241 242 244 243 246 248 249 247 248 
248 248 246 247 247 249 246 246 246 246 246 244 244 245 246 244 
242 243 243 243 243 244 244 244 244 243 243 244 245 244 245 244 
245 246 243 250 251 250 250 251 251 250 251 248 250 250 249 249 250 248 248 249 
248 248 247 248 247 245 244 245 245 244 245 245 245 246 246 246 
244 246 248 249 249 246 244 240 233 226 226 225 229 223 233 232 
232 228 228 230 227 229 227 224 222 227 234 236 239 245 245 247 
246 246 245 246 246 246 246 245 246 245 247 247 244 244 244 243 
244 245 244 243 245 245 243 244 243 244 245 247 245 244 244 243 
244 243 242 251 251 252 251 252 251 252 248 248 249 249 249 249 249 249 249 250 
249 248 248 248 249 245 246 246 244 246 245 245 245 246 247 249 
245 244 243 240 232 225 226 228 237 244 246 245 248 249 247 246 
247 247 247 247 246 249 248 247 243 242 238 233 227 227 230 238 
245 244 246 246 246 247 244 245 247 247 247 248 245 245 244 243 
244 245 245 242 243 244 244 244 243 242 243 243 244 244 243 243 
245 243 243 250 250 249 250 251 251 251 249 250 250 250 249 249 249 250 250 250 
249 248 250 249 247 245 247 247 244 245 245 244 247 245 247 245 
236 229 219 222 234 243 249 250 248 249 247 246 245 245 246 244 
244 245 246 245 246 245 245 248 247 247 244 243 244 241 236 232 
235 237 242 246 246 245 245 246 245 248 245 246 245 244 245 243 
244 245 245 244 245 244 244 243 243 242 243 244 244 245 244 244 
244 242 243 250 250 251 251 251 251 251 250 249 248 250 250 249 251 251 250 251 
250 248 248 251 245 248 247 244 244 244 246 246 241 235 232 221 
223 231 245 250 249 248 247 247 247 247 248 247 245 245 247 245 
244 246 247 246 245 247 246 246 246 244 242 244 246 247 249 251 
246 241 231 230 239 243 246 247 245 246 247 248 245 245 246 245 
244 245 245 244 243 243 244 244 244 243 244 245 244 243 243 243 
243 242 243 250 250 251 251 251 249 250 249 249 250 249 250 251 251 250 250 251 
250 250 250 250 250 249 247 247 247 246 230 215 183 192 218 232 
244 250 250 249 245 248 248 249 248 249 248 248 247 247 246 245 
247 247 246 246 243 246 245 246 245 246 245 246 246 245 249 248 
246 247 246 239 228 227 238 244 244 246 246 245 247 245 243 243 
244 245 244 244 245 245 243 244 244 243 244 243 244 244 242 243 
243 243 244 250 251 252 250 250 250 250 251 250 250 250 248 249 249 251 249 249 
249 250 250 250 250 250 249 248 246 241 210 189 211 239 249 249 
247 246 246 246 246 246 247 247 249 249 247 246 244 248 246 246 
247 247 247 247 246 245 244 245 245 245 245 244 247 248 248 247 
246 246 246 246 247 240 225 227 240 244 245 246 245 245 244 245 
244 244 244 243 244 245 243 243 243 243 243 244 243 242 243 243 
244 246 244 249 251 249 250 250 250 251 251 251 249 250 250 249 249 251 250 249 
249 251 250 249 249 250 247 228 239 228 220 240 250 249 249 248 
245 246 246 246 246 246 246 247 247 247 246 245 245 246 247 245 
246 247 246 246 244 247 246 246 247 246 246 244 245 247 248 247 
247 245 245 244 244 246 245 242 229 229 240 246 247 245 243 244 
246 244 245 245 245 245 244 243 243 243 243 243 244 243 243 242 
242 243 244 250 250 251 250 249 250 249 251 250 249 250 249 250 249 250 248 250 
249 250 250 249 249 250 247 228 230 239 247 248 248 247 246 246 
246 246 245 246 246 245 247 247 248 247 246 243 244 245 244 246 
247 248 250 247 248 248 247 244 244 246 246 246 247 247 246 246 
247 244 245 243 245 243 245 246 242 232 221 233 242 244 244 244 
245 246 245 244 244 243 244 244 244 244 244 244 243 244 244 242 
243 244 243 250 250 249 250 250 249 252 250 250 249 250 249 249 249 250 248 251 
249 250 251 250 251 244 231 233 247 247 249 247 246 246 245 247 
246 246 246 247 246 248 246 247 247 245 245 246 246 243 245 247 
245 247 246 246 246 248 245 245 247 246 246 247 249 248 246 247 
247 246 247 246 243 244 245 246 245 249 241 220 226 239 243 244 
245 244 245 244 244 245 244 243 245 245 245 243 243 243 243 244 
243 242 244 252 250 250 250 251 250 249 250 250 249 248 248 249 250 250 248 250 
249 247 247 250 241 225 238 248 248 248 248 248 247 247 246 245 
246 248 247 247 248 245 246 245 247 248 245 247 246 245 247 246 
245 246 246 246 246 246 245 246 245 247 247 246 246 248 247 247 
246 245 246 246 245 244 247 247 248 246 245 244 227 221 236 244 
246 245 244 244 245 244 243 243 242 245 243 244 242 244 241 242 
242 243 243 247 250 250 249 250 250 252 251 251 249 250 249 249 249 249 250 250 
249 248 245 239 228 244 250 249 249 250 249 249 248 248 247 248 
248 247 246 247 247 247 248 247 247 247 245 247 246 246 247 245 
246 246 246 246 248 248 247 247 247 246 247 246 247 248 247 247 
246 246 247 246 245 245 246 247 246 247 244 245 245 231 217 230 
245 246 244 245 247 244 245 244 245 245 243 243 244 243 243 245 
242 243 243 251 251 249 250 250 249 251 250 251 251 250 249 249 251 249 249 248 
246 245 240 227 246 250 249 249 249 250 250 247 248 248 248 248 
248 247 248 247 247 248 248 246 245 247 246 247 246 245 247 247 
245 246 246 247 245 244 246 247 247 246 247 247 248 247 248 247 
247 247 246 246 245 246 247 246 249 246 245 244 249 248 237 211 
231 242 247 245 247 244 245 244 245 244 245 244 245 244 245 245 
243 244 245 250 250 249 251 250 250 250 250 249 251 250 248 249 249 249 246 244 
246 243 228 248 250 250 250 250 249 250 251 250 248 248 248 247 
248 248 247 247 246 247 246 244 248 249 246 246 245 247 245 247 
246 247 248 247 247 248 248 247 247 247 246 248 248 248 247 247 
247 246 247 246 247 247 248 247 247 246 247 246 247 247 245 239 
213 225 242 245 246 245 245 244 243 244 243 245 246 244 244 244 
245 245 245 250 250 250 250 250 249 250 249 250 252 251 249 249 249 246 245 245 
245 225 244 251 250 249 250 249 251 251 251 249 249 250 248 248 
248 248 250 247 248 247 248 247 245 247 247 248 245 246 245 246 
247 247 245 246 248 249 248 247 248 248 248 249 248 248 247 246 
247 247 246 247 248 248 248 247 248 248 250 246 247 245 244 245 
235 210 226 242 245 244 244 246 245 244 245 246 247 247 245 244 
245 245 244 251 251 250 250 250 250 250 250 252 251 251 249 250 244 240 249 243 
230 245 250 249 250 248 248 250 249 252 250 249 249 250 249 246 
249 249 249 245 248 248 248 248 248 248 248 247 246 246 247 248 
247 247 249 246 248 248 248 248 248 248 248 251 248 249 249 248 
248 249 249 248 248 249 249 249 249 248 247 245 249 248 244 243 
242 237 208 231 246 245 245 247 247 244 245 246 246 245 246 244 
246 245 243 249 250 248 250 249 250 250 249 250 250 250 251 249 239 251 246 231 
246 250 248 250 248 249 250 250 249 250 249 249 250 249 250 249 
248 248 249 247 248 247 248 248 248 247 247 246 247 247 247 248 
248 247 247 249 248 248 248 247 248 250 249 248 249 249 248 250 
250 249 247 248 248 249 248 249 248 248 248 248 248 246 243 242 
244 248 231 208 235 245 245 247 246 245 245 245 246 246 245 245 
245 245 247 250 251 251 251 250 250 250 251 250 249 250 251 249 245 249 236 241 
251 250 250 249 248 251 250 249 251 251 249 248 251 249 250 250 
247 249 251 248 248 248 247 248 247 249 248 247 247 247 248 246 
247 249 246 247 248 248 248 250 249 250 249 248 249 250 250 250 
250 249 249 248 248 246 248 249 248 249 248 248 247 245 245 246 
245 245 248 229 207 236 245 246 245 245 245 246 247 246 245 243 
244 247 244 251 251 252 251 250 249 249 249 248 249 250 251 249 245 240 235 251 
249 248 250 248 249 251 250 249 250 249 249 248 247 249 250 249 
249 250 251 249 248 248 249 248 248 248 250 249 248 246 248 248 
247 247 248 247 248 249 249 248 248 249 249 248 249 250 250 251 
250 249 249 248 248 249 250 249 249 249 248 247 247 245 245 245 
246 245 247 246 220 207 239 245 245 246 246 245 245 246 244 244 
245 246 246 251 252 251 249 250 250 250 249 249 250 250 250 249 240 225 247 250 
249 249 249 250 250 250 250 248 249 249 250 248 248 248 249 250 
249 249 250 249 249 249 249 248 248 249 250 250 249 248 248 246 
248 249 249 250 248 248 247 248 249 250 250 248 248 249 248 250 
250 249 248 247 247 249 249 249 249 247 247 248 246 246 247 245 
246 245 244 247 246 207 221 243 245 245 246 246 246 247 244 245 
244 246 246 252 252 251 250 249 249 249 249 250 248 248 249 249 216 242 251 249 
249 252 250 250 249 251 249 248 248 249 249 248 249 250 250 250 
250 250 251 250 249 251 250 249 249 250 251 249 249 248 249 248 
249 247 248 249 248 248 249 249 251 249 249 250 250 250 251 249 
249 249 246 248 247 250 249 249 248 249 249 248 248 246 247 246 
246 244 244 245 246 244 199 231 246 246 245 247 249 246 244 244 
245 244 245 250 251 250 250 250 250 250 248 251 250 250 250 234 228 251 249 249 
250 250 249 250 249 250 249 247 249 249 250 251 247 250 249 250 
250 252 250 250 250 249 251 251 250 249 250 249 250 251 248 250 
250 250 249 249 248 248 250 249 249 249 249 249 251 250 249 249 
248 248 249 249 249 249 247 249 250 249 249 248 247 247 246 246 
245 246 247 247 248 249 229 209 243 245 246 248 248 245 246 246 
246 246 246 251 250 250 250 249 249 249 249 250 250 249 247 218 248 249 250 249 
250 250 249 250 249 250 249 247 249 249 245 240 240 244 246 249 
251 250 251 250 249 250 250 250 251 249 249 249 250 250 249 250 
249 249 249 249 249 248 248 249 250 249 250 249 249 250 249 248 
247 248 249 250 249 249 250 250 247 248 249 249 248 248 249 248 
246 247 247 247 248 246 247 207 228 244 246 247 248 247 245 245 
246 246 246 249 250 250 250 250 249 249 248 252 251 251 228 236 252 251 251 251 
251 250 249 250 250 249 251 248 244 230 213 227 230 232 232 235 
246 251 251 249 250 250 250 250 249 249 250 248 248 250 250 250 
249 249 250 249 249 249 249 249 249 249 250 249 251 249 249 250 
248 249 251 248 250 249 248 249 250 250 249 247 248 248 248 248 
249 248 247 248 248 246 248 223 203 241 247 249 249 245 246 246 
247 246 248 250 250 249 250 249 249 248 249 250 251 248 219 251 251 252 251 251 
250 249 250 250 250 250 246 238 221 227 243 247 250 249 244 228 
233 235 246 250 250 250 250 252 250 250 249 250 250 251 249 249 
251 251 250 250 249 250 249 248 249 249 250 249 250 249 249 249 
249 250 250 249 248 247 249 248 248 249 248 249 249 249 248 247 
248 247 246 248 249 247 249 239 199 231 246 248 248 248 247 246 
247 245 247 249 251 250 250 250 250 248 249 251 251 232 240 250 250 250 251 250 
250 250 250 249 251 246 228 218 240 250 249 249 247 248 249 250 
242 229 233 240 251 250 250 251 251 250 249 249 250 250 250 249 
248 249 252 249 248 249 248 249 250 249 249 250 249 250 249 247 
250 249 250 249 249 249 249 249 248 249 248 250 249 247 247 248 
248 249 248 249 251 248 247 250 218 212 244 249 248 246 247 247 
247 246 248 249 251 249 250 250 250 249 250 250 247 219 251 251 251 249 249 252 
250 249 250 248 250 223 227 249 251 249 249 249 249 249 248 249 
250 250 246 239 247 251 250 250 249 249 251 249 249 251 249 250 
249 249 250 250 249 249 250 251 251 248 248 249 248 249 248 249 
250 249 249 249 250 250 249 250 250 251 250 250 249 248 246 249 
247 248 249 247 250 249 248 247 237 205 233 246 246 247 247 248 
247 245 247 250 250 249 249 250 250 249 250 250 235 231 252 249 249 251 250 249 
251 250 250 251 248 234 251 250 248 247 248 250 249 250 251 250 
250 250 251 246 242 251 251 250 251 250 251 251 249 249 250 250 
249 248 248 249 248 247 249 250 250 249 249 251 250 249 248 248 
250 249 249 249 247 248 246 244 245 245 242 244 247 246 248 249 
249 248 250 248 248 250 249 249 251 216 217 247 246 248 250 247 
244 247 247 249 248 249 249 249 248 248 249 251 223 247 249 250 251 251 251 251 
251 250 250 250 251 250 250 249 249 248 247 244 233 230 239 243 
249 250 249 250 245 250 250 251 251 251 251 250 251 251 250 249 
249 248 249 249 249 249 249 249 250 249 249 248 250 249 248 248 
245 247 244 232 230 220 212 201 217 213 209 218 222 228 245 250 
248 248 248 247 248 249 249 249 251 236 208 239 250 248 248 250 
246 248 245 249 249 248 250 248 248 249 250 247 229 250 250 250 251 251 250 251 
252 250 251 250 250 251 250 249 248 231 207 186 167 172 181 204 
227 248 251 250 252 250 249 249 249 250 250 250 251 251 249 249 
250 249 250 249 248 250 249 248 248 249 249 249 250 250 237 226 
217 205 210 212 222 216 218 229 225 230 235 222 212 212 223 235 
247 250 249 249 249 250 248 249 249 250 211 228 245 247 250 247 
248 246 247 248 250 249 249 247 248 249 251 230 244 250 250 251 250 250 249 251 
252 251 250 249 250 251 251 253 220 160 159 167 172 183 184 187 
203 230 250 250 250 251 251 250 250 250 250 251 250 251 251 250 
249 249 248 248 249 249 249 249 249 249 248 250 250 248 235 204 
187 209 238 244 252 252 253 251 251 252 251 250 249 243 221 221 
247 249 250 249 249 250 249 248 248 249 232 212 239 250 249 250 
248 247 248 249 249 248 249 247 247 248 249 221 251 251 251 250 250 251 250 250 
251 250 250 250 251 251 250 251 177 152 161 170 184 189 190 188 
197 211 238 251 250 250 251 250 251 250 250 250 250 250 249 250 
250 249 249 249 249 249 249 248 248 249 249 249 250 251 250 209 
224 250 249 247 249 250 249 251 252 251 249 249 251 251 250 247 
251 249 248 248 248 248 247 246 249 248 247 215 239 248 250 248 
248 250 247 249 250 248 248 248 245 247 244 227 252 251 251 250 250 251 251 250 
250 250 251 250 252 252 250 230 171 157 165 173 189 195 182 192 
190 198 222 251 251 250 250 250 250 250 251 250 250 250 249 251 
251 250 250 250 250 249 249 250 249 248 249 250 249 250 251 247 
251 249 248 249 250 251 251 250 247 250 250 249 250 249 250 250 
249 251 249 249 248 248 249 249 249 249 250 211 233 248 249 248 
248 248 248 249 249 248 248 248 248 249 233 239 250 250 250 251 250 250 251 251 
251 251 252 253 251 251 235 174 168 160 166 162 180 176 185 196 
196 192 221 252 250 251 250 251 251 251 250 251 250 251 249 251 
253 250 249 249 249 249 249 249 249 250 251 251 250 249 250 250 
249 248 250 248 242 225 238 226 226 238 247 251 249 251 251 250 
250 250 251 250 250 249 250 250 249 250 249 227 223 242 248 247 
248 249 249 249 249 248 248 248 247 250 227 247 250 249 250 250 250 249 250 252 
251 252 251 251 252 251 236 182 181 163 172 174 186 196 204 198 
189 192 234 251 252 250 251 250 250 250 250 250 251 250 250 251 
252 249 248 247 248 249 249 249 250 249 251 250 250 250 250 250 
250 249 246 225 201 189 183 199 210 207 235 248 251 251 252 251 
250 251 251 249 250 250 250 249 249 251 251 243 209 237 248 248 
248 248 247 248 249 248 247 249 249 250 225 252 251 251 250 250 252 250 250 251 
250 251 251 253 252 251 242 218 178 163 180 193 184 191 190 188 
190 220 251 250 251 251 251 251 251 251 250 251 251 251 251 251 
250 249 250 249 250 249 249 249 249 250 247 250 250 250 249 249 
250 245 192 176 170 174 187 202 210 207 214 225 250 250 250 250 
251 251 251 252 250 251 249 250 250 251 250 251 217 236 250 248 
247 248 247 249 248 249 248 248 247 246 230 252 252 251 250 250 250 250 250 251 
251 250 251 253 251 250 251 216 192 183 193 191 188 183 185 187 
219 248 251 250 250 250 250 248 249 249 250 250 250 250 252 251 
250 250 250 251 249 249 249 250 249 249 249 250 250 250 251 250 
250 237 180 181 178 185 184 197 210 211 209 215 242 250 249 250 
250 251 250 250 251 249 250 251 249 250 250 250 222 229 250 248 
249 250 247 249 248 248 248 248 248 235 232 251 250 250 251 249 250 249 251 251 
251 252 251 253 252 250 252 245 218 207 190 197 195 196 219 242 
249 251 251 250 249 250 251 251 250 250 250 251 251 251 251 249 
250 250 250 250 249 250 250 249 250 249 250 250 251 249 250 250 
251 232 186 177 172 179 195 217 219 211 206 209 238 251 250 250 
250 249 251 251 251 248 250 251 251 250 251 251 226 220 247 249 
250 250 250 249 247 248 247 246 245 233 239 250 250 249 250 251 251 249 250 251 
252 251 250 252 252 251 252 253 251 241 227 218 226 236 249 249 
249 250 252 251 250 250 250 250 250 250 251 250 251 250 250 250 
250 249 250 250 250 250 250 250 250 249 248 249 249 249 248 250 
250 245 186 167 176 192 211 214 209 205 205 211 239 251 251 250 
251 251 251 252 251 251 251 251 251 252 251 251 234 206 246 250 
251 251 250 249 250 248 246 244 245 228 244 251 250 250 250 250 250 250 249 251 
252 251 251 251 251 252 251 250 251 253 252 251 252 252 251 250 
249 250 251 251 251 251 250 250 250 251 249 250 251 250 251 250 
250 250 250 250 250 250 249 249 249 250 249 249 249 248 250 249 
250 251 208 175 182 185 197 199 204 199 203 215 248 251 251 250 
251 250 251 251 251 251 251 251 251 251 253 252 248 208 245 251 
249 251 251 249 249 248 247 244 246 225 248 251 250 251 250 251 250 250 249 250 
251 251 252 251 251 252 251 250 250 250 251 253 251 250 250 250 
250 250 250 250 251 250 251 250 251 250 251 249 251 251 250 250 
248 250 250 250 250 250 250 249 250 250 249 250 250 249 251 249 
249 251 231 195 193 193 195 198 202 212 225 245 252 250 250 251 
251 251 251 252 250 251 251 251 252 251 252 251 249 202 244 249 
250 251 250 251 248 247 248 245 244 216 245 251 249 251 251 250 250 251 250 251 
251 251 252 251 251 250 251 251 251 250 250 249 251 250 248 250 
250 250 250 250 251 249 251 250 250 250 250 251 250 249 251 251 
251 250 251 251 251 250 250 251 249 250 250 250 250 250 250 250 
249 251 249 226 212 215 219 219 234 238 249 254 252 251 252 250 
251 251 252 252 250 251 251 251 252 252 251 251 252 209 237 252 
251 251 251 249 248 247 250 247 245 211 249 251 250 249 251 250 250 250 250 250 
250 250 250 250 250 251 251 250 252 251 250 250 249 249 249 251 
251 251 251 251 251 250 250 250 249 251 251 250 250 252 250 250 
251 251 251 250 251 250 250 250 251 250 250 250 250 250 250 250 
250 249 251 248 244 243 246 251 253 251 252 251 252 252 252 251 
252 253 252 251 251 251 251 251 252 252 250 251 253 214 229 250 
253 252 253 248 247 248 248 245 246 217 248 250 251 249 250 250 250 250 250 250 
250 251 251 251 251 251 251 251 251 249 251 251 250 249 249 250 
250 251 251 250 250 250 250 250 251 252 251 251 251 250 250 249 
251 251 250 251 252 251 251 249 251 250 251 250 250 250 251 250 
251 250 251 252 253 253 254 252 253 252 252 252 252 252 252 252 
252 252 253 253 252 251 252 253 252 251 252 252 253 223 227 251 
252 252 253 249 248 248 247 247 244 214 246 250 250 250 250 250 249 250 250 250 
250 251 251 251 250 250 251 251 251 250 250 250 250 251 252 251 
252 252 251 251 250 251 251 250 251 250 251 251 251 250 250 251 
252 252 251 251 250 251 252 251 251 251 251 252 251 251 252 251 
251 250 252 252 252 251 252 251 251 251 252 252 252 252 253 251 
251 253 252 252 252 251 252 253 252 253 253 253 252 224 224 250 
253 253 253 247 249 248 247 245 246 217 247 248 250 248 250 250 250 249 251 251 
250 250 250 249 250 251 251 251 250 250 249 251 250 250 250 249 
251 251 251 251 251 251 251 252 251 252 250 251 251 252 251 251 
251 251 251 251 251 251 252 251 251 251 252 252 252 251 252 251 
252 252 252 251 251 251 252 252 252 252 252 252 252 252 253 253 
253 252 253 251 252 253 252 253 252 252 252 252 251 231 228 251 
254 252 253 249 248 248 248 246 248 218 247 249 250 250 250 249 250 251 250 250 
250 250 250 249 251 251 250 251 251 250 250 250 250 250 251 251 
251 251 251 251 251 251 251 251 251 251 252 251 251 251 251 251 
252 251 250 252 252 251 251 252 252 251 251 251 250 251 252 252 
252 252 252 252 251 253 253 253 252 253 252 251 253 253 252 252 
252 252 252 253 252 251 252 253 252 252 252 253 253 228 230 252 
251 253 253 249 248 249 247 247 245 212 246 249 251 249 250 250 249 250 250 250 
249 251 250 250 250 250 251 249 250 250 251 251 251 251 249 248 
252 251 251 251 251 251 250 249 251 252 252 251 250 250 251 251 
251 252 250 251 252 252 253 252 252 252 252 252 252 251 250 251 
252 250 251 251 252 253 252 253 251 251 253 254 253 252 253 253 
252 252 251 252 252 252 251 252 251 252 252 252 252 235 221 250 
253 252 251 250 249 248 249 248 244 221 246 249 250 250 251 249 248 249 250 250 
250 249 250 250 250 250 251 249 251 250 250 250 251 250 251 250 
250 251 251 251 250 252 252 251 251 250 252 251 252 251 251 250 
251 251 252 251 252 253 252 251 251 252 253 252 252 251 252 252 
253 252 253 253 253 252 253 252 253 252 252 252 253 252 252 253 
253 253 253 253 252 252 252 252 253 252 253 252 251 232 226 250 
253 253 252 251 249 249 247 246 249 215 242 251 250 250 250 249 250 249 250 250 
250 250 250 250 249 250 250 250 250 250 250 249 250 252 251 250 
251 251 251 251 252 251 251 251 252 252 251 251 252 249 251 251 
251 252 252 252 253 253 253 252 252 252 252 251 252 252 252 252 
251 252 252 253 252 253 252 253 253 253 251 251 252 253 252 252 
251 253 252 252 251 252 254 252 252 254 252 253 251 224 229 251 
253 253 253 251 250 248 248 247 250 226 238 251 249 249 251 250 250 250 251 250 
249 250 250 250 251 250 250 250 250 250 251 250 250 249 249 251 
250 250 251 251 251 251 251 251 251 251 251 252 251 252 251 251 
251 251 252 252 252 253 252 252 252 252 252 253 253 253 252 252 
252 251 251 252 252 252 252 252 253 252 252 252 252 252 253 252 
252 252 253 253 252 252 252 252 252 252 253 252 250 229 233 252 
253 252 252 249 249 249 248 247 249 231 233 249 250 250 250 250 250 250 250 249 
249 250 250 250 250 250 250 250 250 250 250 250 250 250 250 250 
251 251 251 252 250 252 251 251 251 251 251 250 252 252 252 252 
252 252 252 253 252 253 253 253 253 252 253 252 252 252 253 252 
251 251 252 252 253 252 252 252 252 252 252 251 251 252 252 252 
252 252 253 253 253 252 253 254 252 252 251 252 251 227 235 252 
253 252 252 250 248 249 247 250 249 238 225 249 250 249 250 250 249 249 249 249 
250 249 249 250 250 249 249 251 251 251 251 250 250 250 250 250 
250 250 251 251 251 251 251 252 251 251 252 251 252 251 251 251 
252 251 253 252 253 253 253 253 253 253 252 253 253 252 253 251 
252 252 253 252 251 252 253 252 253 252 253 251 252 253 252 252 
252 253 254 252 252 252 253 253 252 254 252 253 250 215 238 254 
253 251 253 250 248 247 248 249 250 244 223 247 249 250 251 249 250 249 250 249 
250 249 250 249 250 249 249 251 250 249 250 250 249 250 250 251 
250 251 251 251 251 251 250 251 251 250 251 250 250 252 252 253 
252 253 253 252 252 253 253 253 253 254 253 253 253 252 253 253 
253 253 253 252 253 253 252 252 253 253 253 253 252 252 253 253 
252 252 252 252 252 253 252 253 252 252 252 251 249 217 245 253 
253 254 253 249 248 248 248 249 249 247 225 244 250 251 249 250 249 250 249 250 
249 250 249 249 250 249 250 250 252 250 250 250 250 251 250 249 
250 250 251 251 251 250 251 251 251 251 252 252 252 252 251 252 
252 252 253 252 254 254 253 253 252 252 253 254 253 253 253 254 
254 253 253 253 253 252 253 252 252 253 253 252 253 253 253 253 
252 252 252 252 252 252 253 253 253 253 252 250 241 205 251 253 
252 254 252 248 248 248 249 249 249 248 224 242 249 249 249 248 250 250 250 250 
249 250 249 251 250 250 248 248 244 249 251 251 251 251 250 249 
249 250 251 251 251 252 252 251 251 251 251 251 252 251 252 252 
252 252 253 252 252 253 252 253 254 253 253 254 254 253 253 252 
253 252 254 253 252 253 253 253 252 252 252 251 252 252 253 253 
253 253 252 253 252 252 252 253 254 252 252 253 228 209 253 253 
254 254 253 248 248 248 250 249 247 247 231 235 251 249 249 250 249 248 250 248 
248 250 248 250 250 248 249 236 218 245 249 250 249 250 250 250 
251 252 252 251 252 251 250 252 251 249 251 251 252 253 252 252 
252 252 252 251 253 252 253 252 253 253 253 253 253 254 254 254 
253 253 252 254 253 253 253 252 252 252 252 251 252 253 253 253 
253 253 253 253 253 253 253 253 254 253 250 253 210 228 255 253 
253 252 253 249 248 248 249 249 245 245 241 228 249 249 249 250 249 250 251 248 
250 249 248 249 248 250 241 197 217 230 249 249 249 249 251 248 
249 246 247 246 247 249 247 250 251 251 252 251 251 251 250 252 
252 252 251 253 253 252 253 253 254 254 254 253 254 254 254 255 
254 253 254 254 253 253 252 253 253 253 254 253 254 252 252 252 
253 252 252 253 253 253 253 253 253 253 253 251 204 246 254 253 
253 253 253 249 249 249 249 248 245 246 246 224 243 249 249 249 250 250 250 252 
249 250 248 251 249 249 201 222 239 221 249 250 249 249 250 250 
230 223 224 219 223 225 225 235 243 248 247 250 252 251 252 251 
253 251 252 252 252 253 253 252 253 254 253 254 254 254 254 254 
252 253 254 254 254 253 252 253 254 252 253 252 252 253 252 252 
251 253 254 252 253 253 253 254 254 253 253 238 212 254 253 254 
254 252 252 250 249 248 250 249 247 246 245 227 237 249 249 249 250 249 249 248 
249 250 246 250 250 234 200 251 230 230 249 248 249 249 250 249 
244 246 245 238 233 228 219 216 218 228 236 242 246 249 251 252 
251 253 252 252 251 251 252 252 253 254 253 253 253 253 254 254 
252 253 253 254 254 254 253 253 252 252 252 252 253 253 253 251 
253 253 253 251 253 253 252 252 252 253 253 210 215 254 253 253 
254 253 253 249 249 248 250 249 248 247 244 242 221 246 249 248 249 250 249 249 
250 249 249 249 251 199 233 250 218 243 249 248 248 250 250 250 
249 249 250 253 252 251 248 243 240 234 226 223 225 232 232 244 
246 251 253 253 253 251 250 253 253 254 253 253 253 253 253 253 
253 253 254 254 253 253 254 253 252 253 253 253 253 253 252 252 
253 253 251 252 252 251 253 252 253 253 247 201 241 254 253 253 
253 253 254 249 250 248 248 249 248 247 247 249 228 243 249 249 248 249 249 249 
249 250 248 249 243 200 250 248 210 247 248 249 249 248 249 250 
249 247 249 249 250 252 253 253 253 252 251 247 242 235 229 220 
228 236 245 249 252 253 252 252 253 253 253 253 253 253 253 253 
253 253 253 252 254 253 253 252 253 254 253 253 252 253 253 253 
253 252 252 253 253 253 252 253 253 251 229 218 253 254 253 253 
253 253 253 249 249 248 249 249 249 246 248 248 237 231 246 247 248 248 249 249 
248 248 248 249 215 229 249 241 217 251 250 250 249 250 252 251 
248 248 250 246 245 244 247 249 250 251 251 251 252 252 252 245 
233 221 222 235 246 250 252 253 253 253 253 252 253 253 253 253 
254 253 253 253 254 254 253 254 253 253 253 253 253 253 254 252 
252 253 253 252 254 253 252 253 253 251 215 240 254 254 253 254 
255 254 253 249 249 248 248 249 248 243 247 246 248 224 241 247 248 248 248 250 
246 246 249 242 192 251 249 229 230 251 250 250 250 248 242 235 
235 233 229 219 217 212 214 224 240 252 251 250 251 251 253 253 
253 249 237 218 224 239 248 251 251 252 252 252 254 253 253 253 
253 252 253 253 252 252 253 252 254 254 253 254 253 252 253 252 
252 252 253 253 253 252 253 253 253 240 218 252 254 254 254 254 
254 254 253 250 249 250 250 249 247 246 248 248 250 236 228 248 248 247 246 249 
248 248 246 194 227 251 250 226 240 246 243 237 236 222 209 211 
216 217 218 220 227 234 237 214 222 252 250 251 251 251 252 252 
253 253 253 248 233 220 224 225 241 246 250 253 253 253 252 253 
254 253 252 253 254 253 253 253 252 254 254 253 252 253 252 252 
253 253 253 252 253 253 252 253 252 217 238 254 254 254 254 254 
254 254 254 250 250 249 251 248 248 247 248 249 248 249 224 236 246 247 248 250 
249 249 237 196 250 250 248 223 221 217 211 199 198 210 225 236 
241 248 252 249 247 238 217 200 234 252 251 251 250 252 253 252 
251 251 251 252 250 244 227 219 224 218 244 254 253 253 251 252 
252 253 252 253 253 253 253 253 253 253 254 254 253 254 252 252 
253 253 252 252 253 252 252 251 236 217 250 254 253 253 254 253 
254 253 253 248 250 249 249 247 249 247 248 247 248 247 237 224 247 248 250 246 
243 241 235 236 251 250 248 242 205 209 214 233 245 247 251 248 
247 247 240 231 219 205 215 237 253 252 251 251 252 252 252 252 
252 250 250 251 251 251 251 248 235 227 246 252 253 252 253 251 
253 252 251 253 250 253 253 253 253 253 253 253 253 253 253 253 
252 253 253 254 253 254 254 251 217 235 254 254 254 254 254 254 
254 253 254 249 249 250 249 249 250 249 249 248 247 247 249 225 236 247 240 212 
192 208 228 248 249 249 247 248 241 249 251 252 251 250 247 236 
234 222 217 216 225 239 250 252 253 252 252 253 252 252 253 253 
252 250 251 253 250 251 251 252 252 250 251 252 251 252 252 253 
252 253 252 252 253 253 253 253 253 252 252 253 254 254 253 253 
253 253 254 254 254 253 254 244 219 253 254 254 253 254 254 254 
254 255 254 250 249 249 249 249 250 250 248 248 247 246 248 239 208 221 195 194 
216 229 246 250 249 250 250 248 251 250 249 250 249 246 222 219 
222 227 240 245 250 251 251 252 252 252 252 252 253 252 253 251 
252 252 251 249 250 250 251 253 252 251 251 253 253 253 252 254 
253 253 253 252 252 253 252 253 253 253 252 252 254 252 253 253 
252 253 253 255 254 254 253 228 241 255 255 254 254 254 254 253 
254 254 254 250 250 250 250 249 250 251 250 246 247 249 242 223 190 195 223 241 
245 250 250 250 250 250 249 249 248 249 249 249 249 224 217 242 
249 252 254 252 250 252 251 252 252 252 253 252 252 252 252 251 
251 251 252 252 252 251 251 252 251 252 252 252 252 253 252 252 
252 253 254 252 251 253 253 253 252 253 254 253 254 254 254 253 
253 254 253 254 254 254 237 220 253 254 254 253 254 254 254 254 
254 254 254 249 249 249 250 250 250 249 249 249 248 232 213 210 227 238 242 249 
250 250 249 249 251 251 250 249 249 249 249 250 250 223 231 243 
248 249 251 252 251 251 251 251 253 251 252 252 250 252 252 251 
252 252 250 252 253 251 252 252 251 251 251 252 253 252 253 253 
253 253 253 253 254 252 253 252 252 253 252 254 253 251 253 253 
253 252 253 253 253 242 220 248 254 254 254 255 254 254 254 254 
254 254 255 251 251 250 251 251 250 250 249 250 223 217 234 245 249 249 243 246 
250 249 248 250 249 249 250 249 249 250 249 251 249 235 219 227 
244 250 250 251 251 252 252 251 251 252 253 252 252 251 251 251 
252 252 252 251 252 251 251 252 252 251 252 252 252 253 253 253 
253 253 253 252 253 253 254 254 253 253 254 253 252 254 254 254 
254 253 253 253 251 214 240 254 253 254 253 254 254 254 254 254 
253 253 254 251 250 249 250 251 247 250 249 250 239 250 252 249 249 248 246 245 
249 251 251 249 248 249 250 248 251 250 249 250 250 253 250 228 
239 252 251 252 251 250 251 252 252 252 252 252 251 251 251 253 
251 252 252 252 251 253 251 250 253 252 252 252 253 253 253 253 
252 252 253 253 253 253 253 253 254 252 252 254 254 253 254 253 
253 253 252 253 221 228 252 254 254 254 254 254 254 254 254 254 
254 255 254 249 250 250 250 250 250 250 249 248 250 250 247 251 251 250 247 247 
246 248 250 250 249 250 248 248 249 251 249 249 249 250 250 228 
243 251 253 251 251 251 252 252 252 253 251 251 252 253 252 251 
252 251 253 251 251 252 252 252 251 252 253 253 253 253 252 252 
253 253 252 253 253 253 252 252 252 253 253 253 253 254 254 253 
253 254 254 231 225 252 253 254 255 254 254 254 253 254 253 254 
254 254 254 251 250 250 249 249 249 249 249 248 248 248 250 250 250 251 249 247 
245 243 249 252 251 250 249 250 251 252 251 250 250 251 249 225 
246 250 251 251 251 252 252 252 252 252 252 252 252 253 252 252 
253 252 253 252 250 249 251 252 252 253 253 253 254 252 253 253 
253 253 252 252 253 252 254 253 253 253 253 254 252 253 254 253 
254 254 247 219 249 254 254 254 254 254 254 254 254 254 254 254 
254 254 253 251 250 252 251 249 250 249 250 250 250 249 251 251 250 252 250 249 
250 249 247 247 252 251 251 250 249 248 250 251 252 251 248 226 
239 248 252 252 251 250 252 252 251 251 252 252 252 252 252 252 
251 252 253 251 251 252 252 253 251 252 253 252 252 252 253 253 
253 252 252 253 252 253 252 253 253 253 253 252 253 254 254 253 
253 249 226 244 254 254 254 254 253 253 254 254 255 254 254 254 
254 254 254 250 250 249 250 250 250 250 251 250 251 249 250 251 251 251 251 253 
252 252 241 227 238 241 247 251 251 249 249 248 250 252 250 227 
215 249 252 251 251 252 251 252 252 252 253 252 253 253 252 252 
251 252 252 252 251 252 252 252 252 252 253 253 253 253 253 253 
252 252 252 252 253 252 252 252 252 252 251 253 252 252 254 254 
248 224 242 254 254 254 255 254 255 254 252 254 253 254 254 254 
254 253 254 251 251 251 251 250 251 250 250 251 250 250 250 251 251 252 253 252 
248 231 207 197 197 203 228 244 250 251 250 250 252 252 252 248 
222 249 252 252 251 251 251 252 252 251 250 252 252 252 252 252 
252 252 252 253 252 253 253 254 254 253 253 253 253 253 253 253 
253 253 254 253 251 252 253 251 252 252 252 252 252 254 253 241 
227 236 254 255 254 254 254 254 254 254 254 254 254 254 254 254 
254 254 254 250 251 251 250 251 251 251 251 251 251 251 250 250 251 253 250 235 
215 210 226 236 232 215 212 219 230 233 238 247 246 244 232 227 
224 249 251 252 252 252 253 252 251 253 252 252 252 253 253 252 
253 253 253 253 253 253 252 253 252 253 252 253 253 253 254 253 
252 253 253 254 253 251 252 251 252 253 252 252 252 253 233 221 
244 254 255 254 253 254 254 254 253 254 254 254 254 254 254 254 
253 255 254 250 251 251 252 252 252 251 251 251 251 250 251 249 249 245 221 218 
224 244 253 253 252 245 226 227 229 232 231 225 223 229 220 226 
249 252 251 249 252 252 252 252 252 252 252 253 252 253 253 252 
253 253 252 253 253 253 253 253 254 253 253 254 254 254 254 254 
253 252 253 252 253 254 253 251 252 251 253 253 252 227 227 252 
255 254 254 254 254 254 254 254 254 254 255 255 255 254 254 255 
254 254 254 251 251 251 251 252 252 252 251 250 251 251 250 250 246 220 238 248 
253 254 253 253 252 253 250 233 234 247 251 251 252 253 249 253 
253 252 252 253 252 251 251 252 252 252 252 252 252 253 253 253 
253 253 253 254 254 253 254 253 253 253 253 254 254 253 254 253 
254 254 254 254 254 254 253 252 252 253 252 246 231 232 251 253 
254 255 254 254 254 254 253 254 254 254 255 255 255 254 255 255 
255 254 254 252 252 251 250 252 251 253 251 251 250 251 251 251 251 248 251 254 
254 252 253 253 253 253 254 252 244 236 242 251 254 254 253 254 
253 252 252 252 252 252 252 252 252 253 253 252 252 252 253 253 
253 254 253 253 253 253 253 254 254 254 254 254 254 254 254 253 
253 254 252 254 253 254 253 253 253 251 234 227 248 251 253 253 
253 255 254 254 254 254 254 254 255 254 254 253 254 254 254 254 
255 255 254 252 252 252 252 252 252 252 252 252 252 252 252 251 252 254 253 252 
252 252 254 252 253 252 252 255 253 249 238 239 247 251 254 253 
253 253 253 252 252 252 252 254 253 252 253 253 253 254 253 253 
253 254 253 253 253 253 253 255 255 254 254 254 254 254 254 252 
252 252 253 253 253 253 252 250 240 232 235 250 254 255 254 254 
254 254 254 254 254 254 254 255 254 254 254 254 254 255 255 255 
254 254 254 252 251 253 252 252 252 251 252 252 252 253 249 250 251 253 253 252 
253 253 253 253 254 252 252 254 254 254 254 246 231 232 247 253 
254 253 253 252 252 253 252 252 252 252 252 253 252 253 253 252 
253 253 253 253 254 253 254 254 255 255 254 254 253 255 254 253 
252 251 253 253 250 248 243 232 239 252 254 254 254 254 254 254 
254 254 253 254 254 254 254 254 254 254 254 254 254 255 254 254 
255 254 255 252 252 252 252 252 253 253 252 252 252 252 251 251 253 252 253 253 
253 253 253 253 254 254 254 254 254 253 254 253 253 241 226 234 
244 252 252 251 251 253 253 252 251 251 252 253 253 253 253 253 
253 253 253 254 253 252 253 254 254 254 254 254 254 253 253 254 
254 253 250 243 231 228 228 247 254 254 254 254 254 254 254 254 
254 255 255 254 254 254 254 255 254 253 254 254 254 253 253 254 
255 253 255 252 252 253 252 252 252 253 253 252 252 252 252 252 253 254 253 253 
253 253 254 254 254 253 254 254 254 254 254 253 253 254 249 233 
227 230 229 237 246 249 250 253 252 251 253 253 253 254 254 254 
253 253 253 254 253 253 254 254 254 254 255 254 254 254 253 253 
246 235 226 236 246 251 251 253 253 253 252 254 254 254 254 253 
254 254 252 254 254 254 254 255 254 254 254 254 254 254 254 254 
254 254 255 252 252 252 252 252 252 251 251 253 252 251 252 252 253 253 253 253 
254 253 254 253 254 253 254 253 253 254 254 253 254 254 254 253 
251 242 227 217 213 222 238 246 250 251 250 253 254 254 253 254 
254 254 252 254 254 254 252 253 253 253 252 251 250 246 239 233 
230 241 248 253 254 254 254 253 253 252 253 254 254 254 253 254 
254 254 253 254 254 255 254 254 254 254 254 254 254 254 254 254 
254 255 254 252 252 252 252 253 253 253 253 253 252 252 252 253 253 253 254 254 
253 253 253 253 254 254 253 253 253 253 254 254 253 254 253 254 
254 255 252 249 239 231 220 218 225 229 226 227 233 239 242 243 
245 247 247 244 241 243 232 229 238 232 231 234 240 237 247 246 
253 255 254 254 254 254 253 253 253 254 254 254 254 254 254 254 
254 254 254 254 254 255 255 254 253 254 254 254 254 254 254 254 
255 254 254 251 252 252 252 252 252 252 252 252 252 252 252 252 253 253 253 254 
253 254 253 254 253 253 253 253 251 253 253 253 254 253 254 254 
254 254 254 254 254 254 252 249 245 237 227 222 216 214 214 219 
218 218 223 224 221 223 219 219 228 235 240 248 253 254 254 255 
254 255 254 253 253 254 253 253 253 254 254 254 254 254 254 254 
254 254 254 254 254 254 254 254 255 255 255 254 254 254 254 254 
254 253 254 251 251 252 253 253 252 251 251 252 252 252 252 251 253 253 254 253 
253 254 255 253 253 253 253 253 254 253 253 253 253 252 254 253 
254 255 254 254 253 255 255 255 254 254 255 254 252 251 252 249 
247 244 245 247 251 250 251 253 254 255 255 255 255 255 255 255 
254 254 255 255 253 254 254 254 254 254 254 255 254 254 253 253 
253 253 253 254 255 254 254 255 255 255 255 254 254 254 254 254 
254 254 254 252 252 253 253 252 253 253 253 252 252 251 253 254 254 252 254 253 
254 254 255 253 253 253 252 253 253 254 253 254 252 253 253 253 
254 254 254 254 254 255 255 255 254 254 255 255 255 255 255 255 
255 255 255 255 255 255 255 255 255 255 255 255 255 255 255 254 
254 254 255 255 254 254 255 254 254 254 254 254 254 254 254 254 
254 254 254 254 254 254 254 255 254 254 254 255 255 255 255 255 
255 254 254 253 253 253 253 253 253 252 252 252 252 252 252 254 254 254 253 254 
254 253 254 253 254 253 254 253 253 254 253 254 254 252 254 253 
253 254 254 254 254 254 254 254 254 254 254 254 254 254 254 254 
254 254 254 254 254 254 255 255 255 255 255 255 255 255 254 254 
254 254 254 254 254 254 255 254 254 254 254 254 254 254 254 254 
254 254 254 255 255 254 253 254 253 253 254 254 254 254 254 255 
255 253 255 253 254 253 253 252 252 253 252 251 252 253 252 252 254 254 254 254 
254 253 253 254 254 254 252 252 253 254 253 253 253 254 253 253 
253 254 253 254 254 254 254 254 254 254 255 254 254 254 253 254 
253 254 254 254 254 255 255 255 255 255 255 255 255 255 255 254 
254 255 255 255 255 255 255 255 255 255 255 255 255 254 253 255 
254 255 255 254 254 254 253 254 253 254 254 254 254 255 255 255 
255 255 255 254 253 252 253 253 253 253 253 253 252 253 253 252 253 253 253 253 
253 253 253 254 254 254 254 253 254 253 253 254 253 254 253 254 
252 253 254 253 254 254 253 250 252 254 255 254 253 253 252 253 
253 252 252 252 253 254 254 254 254 253 254 255 254 253 255 254 
254 254 255 255 254 253 255 254 254 254 253 254 253 253 254 255 
254 254 254 254 254 253 252 254 255 253 253 253 253 255 254 254 
254 253 254 