P2
# Created by IrfanView
100 100
255
250 251 250 249 250 250 249 249 250 249 249 251 250 250 250 249 250 
250 249 249 249 250 250 250 251 250 249 250 251 250 249 250 250 
250 249 250 251 251 250 251 251 252 251 251 252 252 252 251 252 
253 251 251 253 252 251 250 251 250 251 251 251 251 253 253 252 
253 253 252 253 254 253 253 253 253 253 253 253 252 252 253 253 
253 253 253 253 254 253 254 253 253 254 254 253 253 254 253 254 
254 253 254 250 250 249 250 250 250 249 249 249 249 249 249 248 249 249 249 250 
250 251 250 249 249 249 250 249 249 250 250 250 250 249 251 251 
248 249 250 251 251 251 251 251 251 249 250 251 251 250 251 252 
253 251 251 251 250 250 250 250 250 250 250 250 250 251 252 251 
252 252 252 252 252 253 252 251 252 253 252 253 253 252 253 252 
253 254 253 252 253 253 254 253 253 253 254 253 253 252 253 254 
254 253 253 250 250 250 251 250 249 250 249 249 250 250 249 249 249 249 249 249 
250 250 249 248 248 251 249 250 250 249 250 250 250 249 249 249 
251 250 249 251 250 251 250 250 251 251 252 252 251 251 251 251 
252 252 252 251 252 250 251 250 251 252 251 250 251 251 251 250 
251 252 252 252 252 253 251 253 252 252 252 252 252 252 252 252 
252 251 252 253 253 254 254 254 254 254 254 253 254 254 254 254 
254 254 254 249 249 249 249 249 250 249 249 248 249 248 249 248 249 248 249 249 
250 249 249 249 249 249 249 249 250 249 249 249 249 250 250 250 
249 250 250 250 250 250 250 250 250 251 250 251 251 251 251 253 
252 252 251 251 252 251 249 250 249 250 251 250 251 251 250 251 
251 251 252 252 252 252 252 251 253 252 251 253 253 252 252 252 
252 253 252 252 253 253 253 253 253 253 253 253 253 253 253 253 
253 253 253 250 249 251 249 248 250 250 249 250 249 249 249 248 248 249 248 248 
248 248 249 247 248 249 249 247 248 248 249 249 250 250 250 249 
249 249 249 250 250 250 250 250 250 251 251 251 252 251 250 251 
252 252 251 251 251 249 248 250 250 250 251 250 251 251 252 251 
249 251 252 251 251 251 252 253 252 252 252 253 252 251 251 252 
253 253 253 252 253 252 253 253 253 253 253 253 253 253 252 252 
253 253 252 249 249 248 248 249 248 248 248 249 248 249 249 248 249 248 249 249 
248 248 250 249 249 249 249 247 248 249 249 249 249 248 249 249 
249 249 249 249 250 250 251 249 250 250 250 250 251 251 250 249 
250 252 252 252 251 250 250 250 250 251 250 250 249 250 250 251 
252 251 251 251 251 251 253 251 251 250 251 252 251 250 251 250 
252 251 252 252 253 253 253 253 253 253 253 253 252 253 253 252 
252 252 252 248 248 248 249 249 249 248 249 248 249 249 247 249 248 248 248 248 
248 249 249 248 248 249 248 247 248 249 249 248 249 247 248 248 
249 248 248 250 249 250 250 250 250 250 250 251 252 252 252 252 
253 253 253 252 249 251 250 250 250 249 251 250 250 250 251 251 
253 253 251 251 251 250 251 251 251 252 251 252 251 251 252 253 
251 250 251 252 252 252 253 253 253 253 253 253 253 253 253 252 
252 253 253 248 248 248 247 249 248 248 248 249 248 248 247 248 247 248 249 249 
248 247 248 248 247 248 248 246 248 247 246 246 248 247 248 249 
248 248 248 249 249 249 250 251 249 249 246 243 237 236 234 228 
225 224 223 221 228 228 235 242 244 248 249 250 250 250 251 250 
250 252 250 251 251 252 251 250 252 251 252 251 252 251 252 250 
252 251 252 251 253 252 253 253 253 253 253 252 252 253 252 252 
252 252 252 247 247 246 249 249 248 248 248 249 247 248 248 248 247 247 247 249 
247 247 246 248 247 248 245 246 247 247 248 246 246 247 247 249 
247 248 249 249 248 245 237 231 228 227 235 238 242 242 241 245 
248 246 247 245 240 238 237 234 233 231 234 235 239 242 247 249 
251 253 251 250 250 251 250 250 251 250 251 250 250 251 251 250 
249 250 252 251 251 251 250 253 251 253 251 252 252 252 252 252 
251 251 253 247 248 247 247 248 248 247 248 248 246 247 248 248 247 247 246 246 
246 246 246 246 247 247 248 247 246 247 248 249 246 246 246 243 
247 245 238 235 231 237 241 246 248 249 250 250 249 250 250 251 
252 250 251 252 252 252 250 251 251 250 249 246 240 232 230 231 
242 249 252 253 251 250 251 249 248 250 251 251 252 251 251 251 
251 251 250 252 251 251 252 252 252 251 253 252 252 251 252 252 
252 252 252 247 247 247 248 247 248 248 248 247 248 249 249 247 247 247 246 244 
246 248 246 246 245 246 247 247 247 247 247 247 244 245 233 217 
214 220 229 243 248 249 249 249 249 247 249 249 250 249 250 250 
250 249 250 249 249 250 249 248 248 249 249 249 250 250 249 243 
224 220 227 242 249 250 250 250 250 251 249 249 248 249 250 250 
250 250 251 251 250 252 251 252 252 251 252 251 252 252 251 251 
252 252 252 245 247 247 246 247 246 247 247 247 248 248 249 246 246 245 246 246 
244 246 247 246 245 245 246 246 247 248 247 247 244 233 212 225 
234 249 249 250 249 248 247 249 249 249 248 248 248 249 249 250 
249 250 250 250 250 249 249 250 249 249 248 248 248 249 249 250 
249 249 227 216 233 243 249 250 247 249 249 249 249 249 247 249 
249 250 250 251 250 250 251 252 251 251 251 251 252 251 251 252 
252 252 252 248 247 247 247 247 247 246 246 247 247 247 248 247 246 246 245 246 
246 247 248 247 247 246 245 244 246 245 247 236 222 209 232 247 
247 248 249 247 248 248 247 248 248 248 248 247 248 248 249 249 
249 249 249 249 249 251 249 249 249 250 249 248 249 248 248 249 
250 250 250 244 234 223 223 244 248 249 250 250 249 249 249 250 
248 249 251 250 250 251 251 250 252 251 252 252 251 252 251 252 
252 251 251 245 246 246 247 245 247 246 244 245 247 247 247 246 245 246 245 244 
246 245 245 239 239 244 242 246 245 245 241 216 236 248 248 248 
246 248 247 247 248 248 248 248 248 248 247 248 247 248 249 249 
248 249 249 250 249 250 249 249 249 248 248 249 248 250 249 249 
249 248 250 250 249 247 229 216 230 243 250 249 249 249 249 248 
251 250 251 250 250 251 251 251 251 250 250 252 251 252 251 251 
251 251 251 245 246 246 246 246 246 247 246 246 246 247 247 246 245 244 245 236 
236 236 240 243 244 245 244 243 243 234 232 247 249 247 247 246 
246 246 248 248 247 248 248 249 248 248 248 248 250 248 249 249 
250 249 248 249 249 247 249 249 249 248 248 247 249 248 248 249 
249 249 248 249 249 251 251 246 219 217 240 250 250 248 248 248 
249 250 251 251 250 251 251 250 251 251 250 251 251 251 251 252 
251 251 251 246 246 245 245 245 245 247 245 247 244 245 246 244 244 244 246 240 
243 245 245 243 244 244 243 241 234 242 249 248 247 247 247 247 
247 246 247 247 248 247 247 246 247 248 248 248 248 248 249 250 
248 248 248 248 248 248 249 249 248 248 249 248 249 248 247 248 
251 250 249 248 249 247 249 249 250 238 209 232 249 248 248 248 
249 249 250 251 250 250 251 249 250 250 250 251 250 250 250 251 
251 251 250 245 246 245 244 245 245 244 245 244 246 246 245 246 245 243 246 245 
244 243 243 243 243 243 236 233 246 245 247 246 246 247 244 246 
247 248 248 248 248 248 248 247 249 248 247 248 248 247 247 248 
249 248 248 248 247 249 248 248 249 249 248 250 249 249 248 248 
249 249 249 249 248 248 250 248 248 251 247 212 219 249 246 247 
248 247 248 249 250 251 250 250 250 250 249 251 251 250 250 250 
250 250 252 245 245 245 245 246 245 245 245 246 245 245 245 246 246 245 246 245 
244 244 242 241 239 235 237 248 247 247 246 247 244 246 248 246 
248 248 248 248 248 248 248 248 248 248 248 248 248 248 249 248 
248 248 248 248 248 248 248 248 248 248 248 246 247 248 249 249 
248 249 249 250 248 247 248 248 246 246 249 250 217 248 247 245 
249 248 249 250 251 251 249 250 250 251 250 251 250 250 250 249 
250 249 249 244 245 245 245 245 244 244 245 244 245 245 244 246 246 246 245 244 
244 243 242 237 233 241 245 244 246 246 247 246 247 246 246 247 
247 247 247 248 247 248 248 247 248 247 248 247 247 248 247 248 
248 247 248 247 248 248 248 248 248 249 248 249 248 248 247 247 
248 247 249 248 247 247 248 247 246 246 248 248 240 225 244 249 
247 246 250 250 250 250 250 251 250 249 250 249 250 250 250 249 
249 251 250 244 244 244 244 244 243 244 243 244 243 244 244 244 245 245 245 243 
242 237 222 218 243 244 245 245 245 247 245 245 246 247 246 247 
247 246 247 248 247 248 247 247 248 247 247 248 249 248 248 248 
248 248 247 248 248 248 247 247 248 248 248 246 247 249 248 247 
248 249 249 248 247 247 246 247 248 246 246 249 250 237 221 243 
247 247 248 248 249 250 250 249 250 250 250 250 250 249 249 250 
250 250 250 245 244 243 243 245 243 244 244 244 244 244 244 244 243 245 244 246 
239 213 213 240 245 244 245 245 244 246 245 246 247 246 246 245 
246 247 246 247 247 247 247 246 248 248 248 248 248 248 248 246 
248 247 247 248 248 248 247 248 248 246 249 249 248 246 248 248 
248 246 247 247 247 247 246 247 248 246 247 248 246 249 240 216 
235 248 248 248 249 250 251 250 250 250 250 250 250 249 249 249 
250 249 249 244 244 245 244 243 242 243 242 242 243 243 243 243 245 245 246 242 
219 221 246 244 242 244 245 245 246 245 246 246 246 246 246 247 
247 246 247 247 247 246 247 247 248 248 248 247 248 248 249 250 
248 247 248 247 248 248 248 247 246 247 247 248 248 248 248 248 
248 248 248 247 247 246 247 248 248 247 247 248 247 245 248 242 
218 238 247 246 247 249 249 251 250 249 249 250 249 249 249 249 
249 249 248 241 243 243 245 244 244 241 242 243 242 243 243 243 244 246 242 210 
223 249 243 241 242 242 244 245 244 244 244 245 245 246 245 245 
245 247 246 244 246 247 246 248 246 247 248 247 247 247 246 247 
247 246 245 247 247 247 248 248 248 249 247 248 247 248 248 247 
247 248 247 248 247 247 247 245 248 246 247 248 247 245 247 246 
243 221 241 247 248 249 251 248 250 248 248 249 249 249 249 249 
250 250 249 242 243 243 241 242 241 240 241 241 242 243 243 242 246 243 211 221 
246 243 243 244 243 244 243 243 245 244 244 244 245 245 244 245 
242 243 245 244 246 246 245 246 245 245 246 246 245 246 247 246 
247 247 246 246 246 247 246 246 247 247 249 246 248 248 247 247 
247 247 247 247 247 247 247 247 246 247 247 246 246 245 247 245 
247 241 222 238 248 248 250 249 249 249 250 249 249 249 249 249 
249 249 249 243 243 242 240 242 242 241 241 241 240 241 241 243 243 213 219 248 
243 241 241 243 242 243 244 244 243 243 243 244 245 245 245 243 
243 245 246 246 245 245 245 243 244 245 244 246 247 246 247 246 
246 243 246 246 245 246 245 247 247 246 246 247 248 247 247 247 
248 247 248 247 247 247 246 248 246 247 246 247 246 246 247 247 
247 248 240 217 246 248 248 249 249 251 249 249 250 249 249 249 
248 249 249 242 242 241 241 242 241 238 241 240 239 240 241 242 222 196 247 243 
242 242 242 242 243 243 243 244 242 243 243 243 245 245 245 244 
244 244 245 246 244 244 245 244 246 246 247 246 246 245 246 246 
246 246 243 246 246 245 242 245 248 248 247 247 247 247 247 248 
247 245 247 247 247 247 247 247 247 246 247 246 249 245 246 247 
245 244 246 231 220 247 250 249 248 248 249 248 250 250 249 249 
249 248 248 242 241 241 241 241 241 241 240 241 240 239 241 223 180 242 242 240 
242 242 242 241 244 242 242 241 243 243 244 242 243 244 245 243 
243 243 242 243 244 245 244 243 244 244 245 246 247 246 245 245 
246 246 245 244 244 244 242 244 246 247 246 246 248 247 248 247 
247 246 246 247 247 246 247 247 247 246 247 247 247 246 247 246 
244 243 242 244 221 233 249 249 248 249 249 249 250 248 247 248 
249 249 249 241 241 242 242 241 240 241 240 241 241 239 239 164 233 243 241 240 
240 240 242 241 241 242 243 241 243 243 243 242 242 242 242 244 
244 243 243 243 243 243 244 244 245 245 243 244 245 246 246 246 
247 246 246 244 244 244 243 242 245 244 246 247 247 247 246 247 
246 246 247 247 247 248 246 246 246 247 247 247 247 247 247 247 
245 243 243 243 243 211 246 249 250 249 248 249 249 249 248 249 
248 249 249 241 240 241 241 241 240 239 240 242 242 243 198 217 244 242 240 240 
241 241 240 241 242 242 242 243 242 242 242 242 243 242 242 242 
242 243 243 243 243 244 243 243 242 244 244 244 244 245 245 246 
246 245 243 244 244 244 243 246 245 245 246 246 247 246 247 247 
247 246 246 246 245 245 248 247 247 246 247 247 247 245 245 245 
245 246 246 244 246 226 219 250 250 251 249 250 249 249 249 247 
247 248 247 243 241 241 241 241 241 241 240 240 240 234 192 245 240 240 241 242 
240 239 241 240 242 243 242 241 241 243 242 240 242 242 243 241 
241 242 241 241 242 242 242 244 244 243 243 243 244 244 243 244 
243 244 244 245 244 244 243 244 244 245 245 246 246 246 246 247 
247 246 247 246 246 246 246 246 246 246 246 246 246 246 245 246 
246 246 245 247 245 246 209 236 251 250 250 250 247 247 248 249 
249 249 247 241 242 240 241 241 240 241 240 240 240 205 234 242 242 241 241 242 
240 239 240 239 241 242 241 241 242 242 241 241 239 241 241 241 
241 241 240 240 240 241 240 241 241 243 242 243 242 243 244 244 
243 244 244 242 242 241 242 243 245 245 245 247 247 248 245 245 
245 246 246 247 247 245 246 246 246 247 246 246 246 245 245 245 
247 245 246 245 246 245 240 210 249 249 247 249 249 249 249 249 
248 246 250 240 241 241 240 242 240 240 237 238 236 197 244 240 240 240 240 240 
241 242 240 240 242 242 241 240 241 240 241 240 241 241 240 242 
240 240 240 238 240 240 240 239 242 243 242 242 242 243 243 242 
244 243 243 242 241 243 244 244 245 245 245 246 244 245 246 246 
245 246 246 245 245 245 246 246 247 246 246 246 247 246 245 245 
245 247 247 247 244 244 248 220 226 251 248 248 249 248 248 248 
249 250 249 240 239 238 241 241 240 239 237 236 203 223 240 239 240 240 240 241 
241 241 239 241 240 240 240 241 241 241 239 240 241 241 241 241 
241 241 240 239 241 241 240 240 241 243 242 242 242 242 242 244 
243 242 242 242 241 242 243 244 244 244 242 245 244 246 246 246 
246 246 245 245 245 245 244 246 246 245 246 246 247 247 248 246 
247 247 246 245 244 244 246 243 210 246 248 246 248 247 248 249 
248 247 249 240 241 239 239 240 237 238 237 228 189 238 237 238 239 240 240 239 
240 239 240 239 240 239 240 241 241 241 242 240 241 242 241 239 
245 241 241 240 240 240 238 238 239 241 242 242 241 241 241 242 
241 242 242 242 242 242 242 243 244 242 244 245 247 245 245 244 
245 246 245 244 246 244 244 244 244 246 245 246 246 246 243 244 
247 247 246 246 245 244 244 247 224 228 249 246 249 247 248 247 
248 249 248 240 240 239 238 239 238 236 235 204 209 240 234 235 236 238 240 240 
237 238 240 239 239 239 239 239 237 237 238 234 230 221 208 208 
204 201 198 194 194 198 165 161 185 195 230 240 239 241 235 240 
240 241 242 242 241 242 242 243 243 244 245 247 246 247 245 246 
244 245 247 245 246 246 246 244 244 244 245 246 245 245 245 246 
247 244 245 244 245 246 244 243 240 203 246 247 248 249 248 248 
249 248 248 237 236 237 238 237 237 235 234 186 232 235 232 235 238 238 239 239 
239 240 238 238 238 238 236 238 231 166 159 144 153 165 176 172 
175 186 185 188 191 196 195 194 178 156 198 238 236 237 227 234 
239 240 240 240 241 240 240 239 240 239 240 240 242 238 242 237 
232 238 239 241 242 244 244 243 245 245 247 246 245 245 245 244 
245 245 245 245 244 245 246 242 247 206 219 247 247 248 248 249 
248 248 249 237 239 238 238 236 236 235 230 180 234 234 231 236 239 239 238 240 
237 239 240 239 240 239 240 238 238 237 240 239 240 240 241 242 
243 244 245 247 246 243 243 243 242 242 241 240 240 240 240 241 
240 241 240 240 240 240 241 205 156 154 147 159 161 168 164 176 
155 166 172 192 200 204 204 212 215 218 218 245 245 245 246 245 
245 244 245 246 243 242 244 244 245 242 190 249 247 246 247 247 
248 249 248 238 236 237 237 238 237 236 219 201 236 235 233 238 239 239 239 240 
238 238 240 240 239 239 238 239 240 241 243 242 242 243 242 243 
242 242 241 242 239 241 241 240 241 240 240 240 240 241 241 239 
239 237 240 240 241 240 241 233 215 214 222 224 224 228 227 225 
224 220 218 206 195 190 187 186 190 192 179 244 245 245 244 244 
245 246 245 245 243 243 245 243 245 247 195 240 246 246 248 247 
248 247 248 239 236 237 238 237 237 236 202 233 238 238 238 238 238 238 239 239 
239 237 237 239 238 239 240 239 239 239 239 239 240 240 240 239 
238 239 240 241 239 239 239 240 241 240 240 239 238 239 238 236 
239 242 241 240 240 239 240 241 245 244 244 244 246 244 246 247 
247 249 249 249 247 245 245 248 245 248 246 245 244 244 244 245 
244 245 244 244 245 244 244 244 243 245 215 223 245 245 247 247 
248 248 248 237 237 235 237 237 238 235 189 240 238 238 238 240 239 240 236 237 
237 238 238 238 236 240 238 238 239 239 240 238 238 238 239 240 
239 240 239 239 240 239 239 239 241 240 239 240 240 240 240 238 
241 238 240 240 241 241 241 239 240 241 242 242 242 242 242 242 
243 244 245 247 249 244 245 245 246 245 246 245 243 244 243 244 
244 244 244 246 245 244 241 243 242 244 237 211 247 244 247 247 
246 247 247 235 236 237 236 237 237 232 191 239 237 237 240 240 237 237 237 237 
236 236 237 237 237 236 239 239 239 236 239 239 235 238 238 239 
239 240 240 239 239 239 239 238 238 241 240 240 239 240 239 240 
239 239 239 238 240 239 240 241 239 239 240 239 240 241 241 241 
242 244 245 244 245 243 242 243 243 244 244 243 244 245 245 243 
243 244 243 244 243 244 243 243 244 245 244 217 244 244 245 245 
248 248 246 236 235 235 236 235 236 217 205 237 236 237 237 239 238 238 238 239 
237 237 237 237 236 238 237 238 238 238 237 238 238 238 238 237 
238 237 239 237 239 239 239 239 239 237 239 237 238 238 238 239 
239 239 239 240 238 240 239 240 240 238 240 237 240 241 240 240 
240 240 242 245 243 243 242 242 242 243 243 243 244 242 243 244 
243 242 243 243 243 243 242 243 242 244 243 219 242 244 245 247 
247 246 246 234 235 236 237 235 234 208 221 237 237 237 236 237 237 236 237 235 
235 236 236 235 235 236 238 237 236 237 236 237 238 239 237 238 
237 238 239 238 238 239 239 238 239 239 237 238 237 237 238 238 
239 239 239 239 239 238 238 238 239 239 237 237 240 239 239 239 
239 238 238 243 243 243 242 243 241 242 243 242 243 243 244 243 
242 245 242 244 243 242 241 242 244 243 242 231 232 244 246 246 
244 244 247 234 233 235 236 234 234 189 230 236 236 238 237 238 239 237 235 236 
236 237 236 236 235 235 236 237 236 238 238 237 237 236 237 236 
238 238 236 237 237 239 237 239 238 240 237 237 238 238 238 237 
238 238 239 238 239 237 236 237 238 237 237 238 237 239 239 238 
238 238 237 237 241 240 241 240 241 242 243 241 242 242 241 242 
244 243 242 242 243 241 242 242 243 242 243 240 226 244 245 246 
246 245 246 234 234 234 235 233 233 185 235 235 236 236 236 235 236 235 236 235 
236 235 236 235 236 234 236 236 238 238 237 236 237 235 237 236 
236 236 235 236 238 233 237 239 236 237 238 237 239 236 236 233 
238 237 236 238 237 239 238 240 238 238 238 236 238 238 236 237 
238 236 238 236 237 239 241 240 242 240 241 243 242 241 243 241 
242 242 241 242 240 241 241 242 242 241 241 240 220 245 246 246 
245 245 246 234 233 234 234 233 232 188 237 235 236 235 236 236 236 235 234 235 
234 236 236 234 235 236 235 236 235 236 236 234 236 236 236 238 
236 236 235 233 235 236 238 235 238 236 238 237 236 238 238 237 
236 236 236 237 238 236 237 236 237 238 237 238 237 238 239 237 
238 235 235 234 234 235 237 238 240 239 240 241 241 241 242 241 
242 241 243 241 242 242 241 242 242 242 241 242 220 243 243 244 
245 245 245 232 230 230 229 232 232 193 236 234 235 236 235 236 237 236 237 236 
236 234 234 235 235 236 235 235 236 236 236 236 236 236 235 237 
237 235 236 237 235 235 235 236 236 237 236 239 238 236 236 236 
236 236 236 237 237 236 236 237 238 237 238 238 236 238 234 234 
236 236 236 236 233 233 233 234 235 238 240 239 242 240 241 240 
241 241 240 241 242 241 241 241 241 242 242 242 219 244 244 243 
242 244 243 230 229 232 233 230 231 192 233 235 235 233 234 236 238 235 234 234 
236 234 235 235 235 237 237 236 235 236 237 237 238 235 236 235 
236 237 237 236 234 236 235 236 236 236 237 236 237 238 237 237 
237 236 237 237 237 237 238 238 236 237 237 236 236 238 237 235 
236 236 236 235 234 234 235 235 235 235 236 237 241 240 240 240 
240 240 241 241 240 242 241 240 240 240 241 241 221 243 242 243 
243 243 245 232 231 230 230 231 228 182 234 230 234 233 234 234 234 237 235 235 
235 237 235 235 235 235 234 234 234 235 235 235 235 236 237 236 
236 236 236 235 235 236 236 236 236 238 237 236 237 235 239 237 
236 237 236 237 238 237 236 237 238 238 236 236 236 235 237 236 
237 237 234 236 235 235 234 233 233 235 234 236 235 237 239 240 
239 240 241 240 241 241 240 240 240 239 239 241 211 240 241 242 
243 243 243 229 231 231 230 230 231 188 234 233 233 233 234 233 232 233 235 235 
235 234 235 235 234 234 237 234 235 236 235 235 235 235 234 236 
236 235 235 235 235 235 235 237 235 235 237 237 235 235 237 236 
236 236 237 237 237 236 237 237 236 236 236 237 237 236 237 237 
233 234 238 236 234 234 235 233 232 233 234 233 233 234 237 237 
238 239 240 238 240 239 239 238 240 240 238 240 212 233 242 242 
243 243 243 231 230 230 229 230 229 193 232 233 232 231 231 232 233 232 235 235 
234 234 234 234 233 233 233 235 236 234 235 234 235 235 236 235 
235 234 237 234 236 235 235 234 234 236 235 236 238 235 236 237 
236 236 235 238 237 237 238 238 236 236 237 237 236 237 236 237 
239 235 236 235 234 234 236 235 234 234 234 234 232 233 236 237 
236 237 239 241 240 240 238 241 240 238 239 240 223 230 242 240 
242 242 242 231 230 229 231 231 229 186 235 232 232 231 231 231 232 232 233 234 
234 234 234 235 235 233 233 236 233 236 234 236 235 235 236 235 
235 234 236 234 235 235 235 237 235 237 238 236 234 235 235 235 
236 238 236 237 237 236 235 236 237 237 235 237 237 235 237 236 
235 238 237 236 235 234 234 233 232 233 235 237 234 234 234 234 
234 237 237 238 239 239 238 236 239 238 238 238 219 226 239 241 
241 240 242 231 230 230 230 232 231 187 229 232 230 233 233 232 231 232 231 233 
234 235 234 234 231 234 234 233 236 235 236 235 235 234 234 236 
235 235 234 235 236 235 234 235 235 235 235 236 235 237 235 236 
235 234 237 235 235 237 235 236 236 235 237 235 235 236 237 236 
237 238 236 236 237 235 235 235 235 235 233 234 232 233 234 234 
236 235 236 237 238 236 239 238 238 238 235 235 200 219 238 240 
241 242 241 230 231 232 231 232 230 196 226 232 232 232 231 233 231 233 230 231 
233 233 234 234 232 233 232 234 237 234 235 235 235 236 235 236 
235 236 235 235 234 235 236 235 235 235 236 235 235 236 237 235 
237 236 235 235 235 235 237 237 236 236 237 237 237 236 237 236 
237 237 237 235 236 236 236 235 234 234 236 234 234 234 234 235 
236 237 238 239 238 237 236 237 237 238 236 226 157 237 236 239 
240 240 239 232 229 230 231 233 228 205 213 233 232 233 231 232 232 233 229 230 
231 233 234 234 234 234 234 235 234 236 234 235 235 236 235 235 
234 235 234 235 234 235 235 236 236 235 236 236 235 235 236 234 
236 236 236 237 235 235 236 235 236 236 236 237 236 235 236 237 
237 236 237 238 235 235 235 234 235 235 235 236 233 235 236 235 
237 237 236 234 237 237 237 237 237 237 236 222 179 237 236 238 
240 240 240 231 231 232 230 232 230 216 209 233 232 234 234 233 233 233 232 232 
232 231 232 233 234 234 233 234 234 235 234 235 235 234 235 235 
235 235 235 235 235 235 235 234 234 235 235 235 235 234 235 236 
236 235 236 235 235 234 236 235 234 236 236 236 236 237 236 236 
237 237 237 237 238 237 235 235 235 235 235 235 234 233 233 234 
236 235 236 238 237 238 237 236 235 235 234 224 199 240 237 239 
238 239 239 230 230 230 231 231 231 227 194 234 232 234 231 232 233 233 233 232 
228 233 233 234 234 233 234 234 234 235 235 234 235 234 234 235 
235 235 235 235 234 234 234 234 235 231 234 235 235 236 235 235 
235 235 236 235 235 235 235 234 234 235 235 236 237 236 238 236 
235 237 238 236 237 236 236 236 236 235 237 234 234 234 234 235 
236 235 236 235 235 236 236 237 236 234 234 208 208 238 235 238 
239 238 238 230 230 230 231 232 231 231 176 232 230 233 233 233 232 231 232 230 
231 231 233 234 234 234 234 234 234 235 235 235 235 235 236 236 
235 234 236 234 234 235 235 233 234 234 236 234 235 235 235 234 
235 235 235 235 236 235 236 233 233 236 235 237 235 235 236 237 
235 235 236 238 238 237 234 236 234 234 235 235 234 235 235 234 
234 235 237 236 236 236 234 235 236 235 235 196 212 238 236 237 
237 239 237 229 228 230 229 230 229 231 177 231 233 233 234 232 232 232 232 232 
229 232 234 233 235 234 233 234 234 234 234 234 234 235 234 235 
235 233 235 236 237 234 234 234 236 235 234 234 234 235 234 235 
234 233 234 235 235 234 236 236 238 236 235 236 236 234 235 233 
235 234 237 236 236 236 236 236 236 235 236 235 234 234 234 235 
235 233 234 235 235 235 235 234 235 234 232 190 225 237 237 237 
237 237 236 228 229 228 228 230 232 229 187 205 234 233 235 235 232 232 232 231 
232 233 233 234 233 234 233 233 233 234 234 234 236 235 234 234 
235 235 235 234 234 234 234 234 234 234 234 236 234 235 233 235 
235 234 233 235 234 235 235 235 234 235 237 235 236 236 236 236 
236 236 236 236 236 235 234 236 234 234 234 234 234 236 236 234 
234 234 234 236 235 235 235 236 236 235 235 185 230 237 236 237 
238 237 238 228 228 228 228 230 228 228 211 164 225 233 232 229 231 231 230 233 
233 233 233 233 233 234 233 234 234 234 232 233 233 234 235 234 
234 234 235 234 234 234 235 235 235 234 234 233 233 234 235 234 
234 234 234 235 235 234 234 234 234 235 237 236 235 235 235 235 
236 236 235 236 234 235 235 235 234 236 235 235 234 234 234 233 
230 232 235 235 235 235 235 235 236 233 230 185 236 236 237 234 
236 236 235 228 229 229 228 229 228 226 229 152 227 227 231 230 230 231 231 231 
230 232 232 232 233 233 233 232 234 232 233 234 233 233 235 233 
234 234 234 234 234 235 234 233 234 233 234 234 233 232 233 234 
234 234 233 234 234 235 234 232 234 234 234 233 234 237 236 235 
235 235 236 235 236 234 234 234 234 234 234 234 233 234 237 234 
234 234 235 234 235 235 233 235 234 237 219 197 236 234 235 235 
236 236 235 226 227 227 228 226 228 226 230 169 202 223 226 230 230 231 230 229 
231 233 230 232 232 232 232 233 232 233 231 233 234 233 233 235 
233 233 233 232 233 234 234 234 233 234 234 234 234 233 233 233 
231 233 233 233 233 234 234 234 234 233 234 234 234 234 233 233 
235 234 235 235 233 235 235 235 234 234 235 235 235 234 234 235 
235 234 236 235 235 234 234 233 233 232 195 215 236 235 235 235 
234 235 235 224 226 226 225 224 229 227 227 207 164 224 225 227 230 229 229 229 
230 230 231 230 231 231 232 231 232 232 230 231 232 233 233 233 
234 233 233 233 233 232 234 234 233 230 232 233 233 233 234 234 
234 233 234 232 232 232 234 233 234 235 234 233 233 235 234 236 
233 234 235 232 235 234 235 235 234 234 233 233 233 234 234 233 
233 233 233 235 235 235 234 234 232 233 179 229 235 236 235 234 
235 235 235 227 225 226 226 227 226 226 225 225 145 224 224 220 226 228 229 229 
228 230 229 228 226 229 230 231 230 230 230 231 231 230 231 232 
232 232 232 233 232 231 234 234 233 233 233 233 232 233 230 233 
232 233 232 232 233 232 232 233 233 233 232 234 234 234 234 233 
234 234 235 235 233 233 234 235 234 233 233 234 234 234 234 234 
235 234 234 234 235 234 233 234 234 219 186 235 234 234 234 234 
234 234 234 224 224 224 223 225 225 225 225 226 176 184 225 224 227 227 227 223 
228 227 229 231 232 227 229 231 230 229 231 231 230 230 232 230 
232 231 233 231 233 231 234 235 235 235 232 232 233 233 233 233 
234 234 235 234 235 235 235 235 235 234 235 235 233 234 232 236 
238 237 237 236 238 235 234 236 235 234 234 235 234 234 234 233 
233 233 235 234 232 233 233 233 235 202 218 238 234 234 234 235 
234 234 235 225 224 221 223 222 224 224 222 225 222 139 228 225 225 228 227 229 
228 229 226 227 228 228 227 228 227 228 228 228 229 230 228 231 
232 232 232 232 228 228 225 232 233 234 234 230 230 230 231 231 
232 230 229 230 231 227 231 230 228 225 219 215 212 213 204 199 
197 197 194 198 201 199 184 173 223 234 234 233 233 234 233 234 
233 234 234 236 234 234 233 233 234 190 235 235 236 234 233 233 
234 233 232 221 222 224 222 222 222 224 224 223 229 163 197 223 223 226 224 226 
227 227 226 226 226 226 228 226 227 226 227 227 223 222 211 199 
186 182 177 163 165 162 166 159 163 142 151 145 138 147 154 159 
158 154 149 149 157 155 154 160 156 152 151 150 159 157 172 168 
173 177 185 189 187 180 182 175 223 233 232 231 233 232 234 234 
234 233 232 234 232 233 233 232 219 200 234 234 234 233 232 233 
233 234 231 222 222 221 221 221 221 220 220 220 225 216 141 229 221 222 226 226 
227 226 225 225 225 226 226 228 224 226 225 225 223 151 156 166 
165 173 191 197 190 200 197 206 204 203 207 202 202 207 206 218 
222 217 222 221 218 223 221 226 232 234 229 229 232 231 231 233 
235 236 237 237 236 237 237 238 234 233 233 233 232 233 231 233 
232 233 232 234 234 233 231 234 190 225 235 234 233 232 233 233 
233 232 234 219 220 220 219 221 220 218 218 218 223 230 158 189 225 223 224 223 
225 224 223 224 226 224 226 226 225 225 225 226 225 223 228 232 
228 230 229 226 225 227 229 230 230 229 232 230 230 231 233 231 
232 233 233 232 232 234 235 234 233 233 234 233 231 233 233 233 
232 233 234 233 234 234 234 234 232 232 232 231 232 232 233 232 
232 233 234 234 233 234 234 221 184 235 233 234 234 233 233 234 
231 232 230 220 220 219 218 218 218 218 218 220 218 220 214 124 220 220 222 221 
222 223 222 223 223 222 223 224 225 224 226 224 224 227 227 227 
225 228 227 227 224 224 226 228 229 229 228 231 230 229 230 231 
230 229 231 231 232 232 232 232 232 230 229 230 231 230 230 232 
231 232 231 230 232 231 232 231 232 232 231 234 233 230 231 232 
232 232 234 233 232 233 232 189 217 233 232 233 235 233 232 233 
232 233 232 219 218 219 218 219 218 218 219 218 221 224 225 176 161 221 219 222 
221 221 218 223 222 220 222 222 225 223 223 223 224 226 223 221 
223 225 224 225 225 222 223 226 226 228 228 227 229 228 228 229 
229 229 228 229 229 229 229 230 230 229 231 229 229 229 227 230 
231 230 229 231 230 232 231 230 230 230 230 232 231 231 232 231 
229 231 231 231 230 232 221 188 234 234 233 232 233 234 230 231 
231 232 230 218 217 218 217 217 217 219 218 217 214 219 220 215 127 199 221 218 
220 219 221 223 223 222 223 221 222 222 222 222 223 224 225 225 
227 224 227 223 225 226 225 226 227 226 227 227 228 229 228 227 
224 228 228 229 230 229 229 231 228 230 229 229 229 229 229 229 
230 231 229 230 229 229 230 231 230 230 229 231 231 230 230 230 
231 231 230 231 230 236 186 224 232 232 232 234 232 232 232 231 
231 231 231 219 220 219 219 217 217 214 215 215 217 220 218 219 203 128 216 218 
216 217 220 219 219 220 220 221 222 222 221 222 221 223 225 223 
224 225 223 223 223 224 224 226 226 227 227 226 225 226 227 227 
228 225 226 228 229 230 227 229 229 230 228 229 229 229 229 229 
227 229 229 228 228 229 231 228 229 229 231 229 230 230 228 229 
227 229 230 229 231 217 189 235 232 232 231 232 232 232 232 231 
231 229 233 219 221 219 218 217 218 216 217 216 216 218 217 215 222 169 164 222 
217 217 218 217 219 218 219 219 222 222 221 220 222 223 221 222 
222 223 224 223 221 222 223 225 226 225 225 225 226 225 226 225 
228 226 226 226 227 228 228 229 229 228 228 227 226 226 226 229 
227 227 227 229 227 227 230 231 229 229 229 230 230 228 228 228 
227 227 229 227 231 175 231 232 232 231 232 231 233 232 232 232 
230 230 228 217 218 219 216 217 219 217 218 216 214 217 217 216 218 217 136 198 
215 215 215 216 216 215 214 215 219 222 221 221 222 222 223 221 
226 225 224 223 224 223 224 224 223 224 225 226 224 226 225 224 
224 226 226 225 226 226 227 226 226 227 228 230 227 227 227 229 
229 225 226 226 225 228 228 229 228 228 229 228 230 228 228 227 
226 227 226 228 198 195 234 231 230 232 231 229 231 231 230 230 
229 230 231 217 217 217 219 218 219 220 216 215 215 215 215 214 214 215 210 136 
204 214 214 216 213 215 216 215 215 219 219 220 222 222 220 221 
223 223 222 223 223 224 223 225 224 225 226 224 226 225 225 225 
224 224 224 220 224 223 225 227 228 229 227 226 228 227 229 227 
227 224 226 226 225 229 228 228 229 228 229 229 228 226 228 226 
224 223 228 211 179 233 231 230 230 230 230 230 230 231 229 231 
229 230 229 217 216 219 219 219 220 217 216 216 213 212 214 213 214 211 217 203 
133 210 210 212 215 215 215 216 217 216 218 217 220 220 221 219 
222 222 223 222 221 223 225 226 226 225 223 225 225 226 226 224 
224 223 223 223 225 224 225 224 226 226 227 226 227 227 229 228 
228 227 228 226 229 226 227 227 226 227 228 228 228 225 226 229 
220 224 224 158 220 230 229 229 230 229 230 230 229 230 230 229 
229 229 230 218 217 218 216 218 219 218 215 213 213 214 215 213 212 212 212 216 
191 143 212 212 213 215 214 215 216 219 218 219 217 217 220 224 
224 224 224 224 224 222 223 224 225 224 224 225 223 223 224 224 
224 224 224 226 224 225 225 225 225 227 226 227 228 226 223 226 
227 227 228 228 228 225 228 227 227 228 229 225 224 225 224 225 
226 221 169 205 227 229 228 229 230 230 229 229 230 229 229 229 
229 228 229 216 217 215 215 217 219 215 213 216 213 213 215 214 211 209 210 213 
215 185 154 208 209 212 214 215 215 217 221 218 217 220 219 218 
222 222 221 221 224 224 224 226 225 224 225 225 225 225 223 224 
222 223 224 223 224 221 224 222 225 224 225 227 226 227 228 225 
226 226 226 225 227 228 228 228 226 227 228 225 223 223 225 229 
229 178 200 228 226 228 228 228 228 228 230 227 229 227 230 226 
229 226 229 214 214 214 215 216 214 213 214 213 213 212 215 214 211 209 210 209 
210 212 187 159 211 212 214 215 215 214 214 215 218 219 217 217 
222 222 222 220 219 222 223 221 220 222 223 224 224 224 223 226 
225 223 222 224 225 225 223 226 224 223 225 223 226 226 226 228 
225 226 223 225 224 225 226 226 226 226 226 226 224 223 224 223 
188 189 228 227 228 227 227 229 226 227 228 228 228 229 228 229 
229 230 228 214 213 214 214 214 214 214 213 213 214 213 212 216 211 210 210 209 
210 211 213 184 155 212 212 212 214 215 215 216 218 217 219 218 
219 218 220 218 219 221 220 221 222 223 222 223 223 223 223 222 
222 221 224 221 219 220 222 225 224 222 224 223 225 225 225 225 
227 226 226 224 224 224 223 226 224 224 228 228 221 225 223 189 
178 224 222 225 226 227 227 225 227 229 230 229 227 226 228 226 
228 227 227 212 213 212 213 214 212 212 212 211 214 212 213 213 213 211 209 208 
209 210 209 211 140 142 212 210 212 214 216 216 216 217 219 218 
218 219 217 220 220 218 218 221 220 221 222 222 221 222 223 222 
222 221 222 220 221 222 223 223 222 222 220 225 224 223 222 225 
224 225 224 222 222 223 224 224 222 223 223 224 225 227 193 179 
228 227 223 223 226 225 225 228 226 224 225 227 228 225 228 224 
225 227 227 212 214 214 212 212 213 213 214 212 210 212 210 212 212 210 209 210 
210 210 206 208 217 159 129 201 214 211 214 214 218 216 216 217 
217 221 220 220 218 221 221 219 221 221 223 222 223 222 220 221 
222 221 219 221 221 220 219 219 223 223 223 222 223 224 221 220 
221 223 226 225 221 222 221 221 221 222 222 226 222 172 164 227 
226 222 224 228 225 224 226 226 226 227 226 228 225 228 226 226 
226 225 225 213 212 213 212 211 213 213 213 213 214 212 211 213 211 210 211 208 
208 208 205 208 212 212 160 125 176 215 214 216 217 218 216 215 
217 216 217 218 218 219 218 219 219 219 219 223 221 219 221 221 
222 221 221 222 221 221 218 219 217 221 220 220 221 218 222 221 
219 222 222 222 220 221 221 221 219 222 222 215 158 176 225 224 
221 222 220 221 225 223 224 224 224 225 223 226 226 224 223 224 
225 224 221 212 212 212 211 215 213 211 211 213 212 213 211 209 211 210 208 209 
208 210 209 209 211 212 214 182 148 144 210 213 217 216 216 214 
218 217 218 215 218 215 216 216 218 217 217 216 221 218 217 220 
221 221 217 218 220 219 220 220 220 218 219 217 217 221 219 219 
219 219 219 221 220 218 217 220 222 220 209 148 196 226 224 221 
221 221 222 220 224 223 224 223 224 222 224 225 224 223 222 224 
226 223 222 212 212 212 214 212 212 212 211 210 213 213 213 214 212 213 209 210 
209 208 208 210 211 212 213 206 201 189 152 187 215 218 214 215 
215 216 218 218 216 215 215 216 216 217 216 216 218 219 217 218 
219 216 217 219 218 217 218 220 217 219 221 220 218 216 215 221 
216 217 218 218 219 218 220 222 219 187 155 194 223 221 219 221 
221 221 219 221 223 221 220 220 222 223 222 220 223 224 223 221 
222 223 224 211 211 210 210 211 212 213 211 213 212 212 211 211 214 212 210 212 
211 209 209 205 210 211 212 210 211 215 211 166 134 198 216 214 
217 218 217 217 215 217 214 215 215 215 213 215 216 221 216 218 
218 219 218 218 216 215 217 218 217 217 218 220 220 218 215 219 
217 216 216 218 217 220 218 191 179 202 220 221 220 217 216 219 
220 219 220 219 222 220 221 221 221 222 222 223 224 222 222 222 
222 220 220 211 211 212 211 212 212 210 211 211 211 212 212 212 211 213 211 212 
211 210 208 210 210 211 209 212 211 211 212 217 209 172 172 210 
217 214 216 214 215 212 210 210 208 214 214 215 215 215 215 215 
216 215 215 217 215 218 217 216 217 216 220 218 212 214 215 215 
213 213 215 217 220 210 170 190 216 220 219 218 215 218 217 218 
220 221 218 219 216 219 220 219 220 220 221 223 224 222 222 223 
222 220 220 210 210 211 210 211 211 212 213 213 212 212 210 213 213 213 212 214 
212 209 210 208 211 210 210 211 212 211 213 215 218 215 193 157 
170 204 212 215 213 214 211 212 211 213 212 213 213 213 214 213 
214 215 216 215 215 215 215 216 217 217 214 216 214 214 214 213 
216 216 218 212 182 174 203 221 218 217 218 215 216 214 217 217 
218 216 219 217 222 220 218 218 218 221 220 219 221 220 220 220 
220 220 221 211 208 208 211 208 211 211 212 212 212 212 211 212 212 211 213 213 
210 208 209 209 211 212 211 210 210 212 211 211 210 213 212 218 
177 157 174 188 203 212 210 209 213 212 210 211 211 211 213 215 
214 214 214 214 216 214 214 213 215 216 215 216 214 216 215 213 
211 201 178 168 200 217 217 216 216 215 214 215 215 215 214 215 
218 219 217 218 216 217 217 218 217 219 218 218 220 220 218 223 
219 219 221 211 210 210 209 211 211 212 213 213 214 214 213 213 212 212 211 212 
211 210 210 212 212 211 211 211 211 212 212 211 211 213 213 214 
216 207 191 164 152 151 157 198 205 206 209 209 212 211 212 212 
215 217 215 214 213 213 215 215 214 217 217 217 216 212 201 183 
173 182 205 215 214 214 212 214 214 214 215 216 216 216 217 216 
216 216 217 216 215 217 216 218 219 218 217 217 218 218 217 219 
218 218 218 208 210 211 211 210 209 211 212 214 212 211 212 213 212 212 213 212 
212 211 207 210 212 210 212 213 212 211 212 210 212 212 211 214 
212 212 213 216 215 211 145 136 154 167 192 200 205 209 213 212 
214 210 212 213 214 214 214 213 214 207 202 180 162 158 178 196 
209 213 214 215 214 213 213 214 214 215 216 215 215 215 215 216 
216 216 216 216 216 217 218 214 216 216 217 217 218 219 217 218 
218 219 219 209 209 209 209 211 211 212 211 212 213 211 212 211 211 212 211 211 
211 209 211 213 211 211 210 212 212 212 212 212 210 213 210 212 
213 212 211 212 213 213 214 210 199 167 157 152 157 152 178 185 
181 191 192 183 186 189 166 165 165 158 175 184 201 210 213 214 
213 214 215 213 213 215 215 215 215 214 214 213 216 216 216 216 
216 217 214 216 215 215 216 216 215 216 216 217 217 220 220 219 
218 217 219 208 205 210 209 209 210 212 212 213 212 211 213 213 213 213 214 212 
211 212 213 211 210 210 211 209 212 212 213 212 210 211 212 213 
212 211 211 211 211 211 211 213 213 213 209 209 208 208 199 188 
183 186 186 187 190 194 203 209 210 214 217 215 215 214 211 212 
210 213 213 215 213 213 213 215 215 213 213 216 214 216 215 215 
214 214 215 216 216 215 214 215 215 216 214 214 214 215 217 216 
217 218 217 208 208 209 208 210 211 213 210 211 210 212 212 213 214 213 214 213 
212 212 210 211 209 212 212 210 211 212 210 210 209 211 212 212 
210 212 211 212 213 215 209 212 211 210 210 208 209 211 214 214 
212 214 214 213 214 211 212 210 211 212 212 213 214 213 210 212 
212 209 211 211 212 213 214 214 215 213 213 213 213 215 215 214 
213 216 217 214 214 215 214 214 214 212 215 215 215 216 213 215 
216 218 217 208 207 209 209 210 210 212 211 211 209 212 213 214 214 212 214 214 
214 210 212 212 211 212 211 210 212 212 212 212 214 212 208 211 
211 211 213 212 212 214 213 211 210 209 209 210 207 210 213 209 
211 212 211 210 207 211 211 211 211 212 212 212 210 211 213 211 
213 213 212 212 213 214 213 213 212 211 211 214 214 214 214 213 
214 214 214 214 215 214 213 214 214 213 213 214 213 217 213 212 
215 217 218 206 209 210 210 207 211 211 211 212 211 213 213 214 215 215 213 214 
214 213 212 208 211 211 213 210 209 211 212 211 210 210 213 208 
207 210 210 212 213 212 213 212 211 211 209 208 209 207 209 208 
207 209 210 211 210 211 210 210 212 210 211 213 210 213 212 211 
212 213 212 213 213 212 213 213 213 210 212 213 212 212 212 211 
213 214 215 216 215 214 215 213 213 214 214 213 209 212 211 209 
211 213 219 209 211 205 209 210 212 212 213 213 213 214 214 213 214 216 216 216 
219 213 212 213 211 210 210 211 208 209 210 212 209 209 209 210 
211 208 211 212 213 214 213 213 212 210 213 212 211 210 210 210 
212 210 210 211 210 210 213 212 213 212 211 212 212 213 211 211 
212 211 213 213 212 213 212 213 211 214 214 211 210 209 209 209 
211 213 213 214 213 213 213 214 213 212 212 211 215 215 210 210 
209 213 215 210 207 207 208 207 212 214 213 214 214 214 214 215 214 213 215 215 
215 212 213 212 212 211 211 208 209 208 211 208 208 208 209 211 
212 208 208 214 213 217 215 214 212 211 212 209 208 208 210 212 
209 210 211 210 211 211 212 213 212 214 212 213 212 211 210 211 
212 212 212 213 213 213 213 212 213 212 210 210 210 208 212 210 
213 207 209 215 215 213 214 213 214 213 211 210 213 211 212 212 
209 210 212 