P2
# Created by IrfanView
100 100
255
250 250 250 251 251 250 250 251 250 249 250 250 248 249 250 248 248 
249 249 250 247 248 247 248 249 248 250 250 249 250 250 249 250 
250 250 251 250 249 250 251 251 250 249 249 249 249 250 250 250 
249 248 250 250 250 248 248 248 247 246 248 245 247 247 247 248 
246 245 247 246 247 248 249 248 249 247 248 248 246 248 247 248 
247 248 248 248 247 247 246 246 246 246 246 247 248 246 248 246 
247 246 246 249 250 249 249 250 251 249 251 251 250 248 251 249 250 247 248 248 
249 246 247 248 248 249 249 249 249 249 249 248 248 251 249 249 
250 250 251 250 250 252 251 249 248 250 249 249 249 249 249 250 
249 250 248 249 248 247 247 245 248 247 249 251 248 247 247 247 
247 247 247 247 247 246 246 247 247 247 247 247 249 248 248 246 
248 248 248 248 246 247 246 245 246 246 245 245 246 247 248 247 
247 246 246 251 250 250 250 249 250 248 250 251 251 250 246 249 249 249 250 250 
249 246 249 248 248 248 248 249 250 248 248 249 249 250 249 249 
250 249 249 251 250 251 250 251 250 249 249 250 249 249 250 249 
248 249 248 249 248 248 249 247 247 248 248 248 247 249 248 247 
246 245 248 246 245 245 247 247 247 246 246 247 246 248 248 246 
246 248 247 248 246 246 246 247 246 246 245 245 245 246 246 244 
246 246 247 250 250 249 251 249 250 250 250 250 249 250 249 249 249 250 250 250 
249 248 248 247 249 249 247 248 247 248 249 247 248 245 249 248 
248 250 249 249 249 250 252 249 249 249 248 249 249 249 249 249 
249 249 250 249 249 247 247 248 248 248 248 248 249 248 248 247 
245 245 245 247 246 247 248 246 247 246 246 246 246 247 248 247 
247 248 247 247 246 246 247 247 247 248 247 244 245 245 245 246 
246 245 246 249 250 250 250 251 250 249 250 250 249 249 250 249 249 250 249 248 
249 247 248 248 248 248 247 248 246 247 247 247 249 247 248 248 
249 250 248 248 247 247 249 250 249 250 248 248 249 250 249 250 
250 249 249 249 249 248 247 246 248 247 247 246 246 248 249 250 
245 246 247 246 246 246 246 248 246 247 246 248 249 246 246 247 
247 247 248 247 247 246 245 247 245 245 244 245 245 247 246 245 
245 245 246 249 249 250 249 249 251 251 250 249 249 248 250 248 249 250 249 250 
250 248 248 249 248 247 248 247 246 248 246 246 246 248 247 247 
249 249 248 247 248 247 247 249 249 249 251 249 249 244 243 241 
243 242 244 241 245 246 247 248 249 247 251 249 248 247 247 248 
247 246 246 244 247 247 247 247 249 248 248 248 247 247 249 247 
248 247 247 245 247 246 247 248 246 245 244 248 247 245 244 246 
245 244 244 250 251 250 249 249 248 250 249 248 249 249 248 248 248 249 250 250 
248 247 249 247 248 247 245 248 246 247 248 246 245 247 247 246 
248 247 247 247 249 250 249 245 239 235 232 229 232 232 238 239 
240 241 240 236 241 235 234 228 224 233 236 243 247 248 249 249 
249 246 247 246 245 246 246 247 246 249 248 248 249 245 248 247 
249 248 247 247 247 249 246 248 246 246 247 244 243 246 245 246 
247 246 244 249 250 249 249 250 249 249 249 249 250 250 250 250 250 251 252 251 
249 247 247 247 247 246 247 247 245 246 247 246 247 248 247 244 
247 247 247 247 241 228 224 227 239 248 249 251 252 250 251 250 
250 250 251 251 250 252 252 251 251 249 243 237 237 232 234 244 
243 248 250 248 246 246 246 248 247 247 246 249 248 248 249 247 
247 248 248 248 248 248 248 248 245 248 247 244 244 245 246 246 
246 246 245 250 249 249 249 250 249 249 249 249 249 249 249 247 249 249 250 250 
249 247 248 247 247 249 247 247 247 245 245 246 245 246 248 250 
250 242 228 227 232 241 248 250 250 247 248 247 249 248 248 248 
248 249 247 248 248 249 250 250 249 249 249 251 250 248 227 220 
226 231 228 246 247 246 247 247 248 246 248 248 247 247 247 247 
246 248 249 250 249 248 246 248 246 245 246 245 244 245 245 247 
248 246 243 250 250 249 249 249 249 250 249 250 249 249 248 248 248 249 251 249 
249 249 248 248 249 248 246 246 246 246 247 246 245 251 246 233 
225 236 241 248 249 250 248 248 247 247 247 249 247 248 247 248 
249 248 249 249 250 248 247 244 250 250 247 248 249 249 244 213 
207 208 220 250 249 247 248 247 248 247 247 248 248 249 249 248 
248 249 245 249 248 250 248 247 247 249 247 246 245 245 245 245 
246 245 244 248 248 250 250 249 249 249 248 249 248 248 248 249 248 249 249 249 
249 247 244 246 248 247 246 246 247 247 246 247 244 231 222 236 
248 249 247 247 247 247 246 247 247 246 248 247 248 248 248 247 
248 249 249 251 250 249 249 249 249 250 248 248 249 249 249 250 
242 224 200 209 233 248 248 247 246 246 247 247 247 248 249 248 
247 248 248 249 250 248 249 248 248 247 249 247 245 244 246 245 
245 246 245 249 249 249 249 249 249 249 249 249 249 251 250 249 249 248 248 248 
248 247 248 248 248 246 247 246 246 246 247 240 221 232 248 249 
248 246 246 247 247 247 248 247 247 248 248 248 248 248 248 248 
249 248 248 250 250 249 250 250 250 249 248 249 249 248 248 249 
250 250 246 226 209 219 239 248 250 249 248 247 246 247 247 248 
248 247 248 249 250 248 247 248 247 248 246 246 247 245 245 245 
245 244 245 248 249 249 249 249 249 248 249 249 250 248 248 247 248 246 248 248 
247 249 247 248 248 247 246 246 248 241 228 237 246 248 249 247 
246 247 247 247 247 248 249 248 248 248 248 249 248 249 249 250 
249 249 248 250 249 249 249 250 251 249 249 249 249 248 249 248 
248 250 249 249 249 231 211 225 244 247 250 247 247 248 248 248 
248 248 250 247 249 249 249 248 248 247 248 247 246 244 245 244 
245 245 245 249 249 249 250 249 250 249 248 248 248 249 248 247 247 248 246 247 
248 247 249 249 247 247 248 243 226 230 246 247 250 249 248 247 
245 246 249 247 248 248 249 248 249 248 248 249 249 249 249 249 
249 251 249 250 249 249 250 250 250 250 249 248 249 251 247 247 
248 248 247 246 246 249 249 228 203 232 248 249 247 246 247 246 
248 248 247 248 248 249 249 249 248 248 249 248 246 245 244 243 
244 245 245 249 248 249 247 249 248 248 248 248 247 246 249 248 247 247 248 248 
247 246 247 248 249 247 236 230 244 246 248 247 248 247 248 248 
247 248 248 248 247 249 248 247 248 248 249 249 249 250 249 249 
249 250 249 250 249 249 250 250 249 251 248 249 249 250 247 248 
248 248 247 248 246 246 247 250 239 211 215 245 249 247 247 246 
246 247 247 247 248 248 248 248 247 247 246 248 247 245 244 244 
244 245 245 250 249 249 249 247 248 249 249 250 249 249 249 249 248 246 247 246 
248 247 247 246 243 225 236 249 248 249 247 248 248 246 247 248 
248 248 248 247 249 248 248 248 250 248 248 249 249 249 248 249 
249 251 249 249 249 249 248 248 248 251 250 250 248 248 249 249 
249 248 246 245 246 247 247 246 249 249 231 203 246 252 249 248 
247 248 248 247 248 249 248 247 247 247 246 246 246 244 245 245 
246 245 245 249 249 248 251 249 248 249 248 249 248 247 250 249 247 245 248 247 
247 246 248 242 221 243 250 248 249 249 249 248 247 248 247 248 
248 246 247 247 249 248 249 248 249 249 249 249 249 249 249 249 
249 250 249 249 249 249 250 250 248 249 250 249 249 248 248 247 
248 247 247 247 246 247 247 246 246 245 248 243 199 234 249 247 
248 248 247 248 248 249 246 247 247 247 248 247 246 245 244 245 
246 245 245 249 248 248 250 249 249 247 249 248 248 248 248 250 249 248 248 247 
246 248 241 223 248 249 247 249 247 247 248 249 248 250 249 249 
248 248 249 248 248 247 248 249 248 247 248 249 249 249 249 249 
250 251 250 248 249 249 248 251 248 250 251 250 249 248 248 249 
248 247 248 248 246 246 247 245 244 246 246 249 247 204 228 248 
248 247 247 247 249 247 247 247 246 246 245 246 245 247 244 245 
245 243 243 248 249 249 250 249 248 247 248 248 248 247 248 249 250 249 247 247 
248 240 224 248 249 248 248 248 249 248 247 248 250 248 251 248 
248 247 248 247 248 248 249 248 248 248 248 248 249 248 248 248 
249 251 249 249 249 250 249 249 248 249 250 250 247 247 248 249 
249 247 248 247 246 247 246 245 244 245 246 248 249 248 206 227 
248 248 247 247 249 247 246 247 248 248 246 247 245 245 245 244 
245 244 244 249 249 248 249 248 247 250 248 249 245 247 245 248 250 249 249 250 
238 224 248 251 248 246 251 248 248 248 248 248 247 248 248 248 
249 250 249 249 249 248 248 249 250 249 250 249 249 249 251 249 
247 249 248 249 248 248 249 250 249 249 248 248 250 249 247 248 
247 246 248 249 247 247 246 245 245 245 245 247 247 248 250 204 
211 248 246 248 247 247 246 245 246 247 244 245 245 245 246 247 
246 245 244 249 248 248 249 248 248 249 248 248 247 248 248 250 249 248 249 241 
221 249 250 249 250 249 252 249 249 251 248 248 248 249 248 248 
247 248 248 248 249 248 248 249 249 249 248 249 250 249 248 250 
249 249 250 248 248 248 250 250 248 249 248 249 249 249 249 250 
248 247 246 247 247 247 246 246 245 246 245 244 245 245 248 248 
195 224 248 247 247 248 244 247 247 246 247 247 247 248 244 246 
246 246 244 249 251 249 251 248 248 249 248 247 246 246 248 249 250 249 246 226 
247 250 250 249 250 251 250 250 250 251 249 248 247 248 249 249 
249 248 248 248 249 249 248 247 247 248 249 248 248 249 250 250 
249 249 249 248 248 249 249 249 248 249 250 248 249 249 249 249 
250 245 244 245 246 246 245 244 244 244 244 245 243 244 245 247 
248 197 214 249 247 247 247 247 247 244 245 246 246 246 247 246 
243 246 246 250 248 249 250 248 248 248 249 247 246 245 248 246 244 244 217 239 
249 248 250 250 250 251 251 250 249 250 249 248 248 248 247 248 
248 248 248 248 249 250 247 248 248 248 248 248 250 249 249 249 
249 249 249 249 249 251 249 250 249 250 249 248 248 250 249 250 
249 247 247 247 245 248 246 245 243 245 246 245 244 243 245 246 
247 248 191 230 249 249 248 247 247 246 246 248 246 247 247 246 
244 244 247 248 249 249 251 249 247 247 246 246 245 245 245 247 249 231 238 247 
249 248 250 249 250 250 251 251 250 250 250 249 249 247 249 249 
248 248 248 249 250 249 249 249 248 248 249 249 250 250 249 248 
250 250 250 250 249 249 249 249 249 249 250 250 250 251 248 250 
249 249 248 248 247 247 245 245 246 245 246 245 244 244 244 243 
244 249 244 189 242 250 247 248 247 247 247 247 247 248 247 246 
246 246 247 249 249 249 249 248 248 246 246 244 245 245 246 246 231 232 249 248 
250 249 250 250 250 250 251 251 251 250 250 250 248 249 248 248 
249 249 247 248 249 249 249 249 249 250 249 249 249 248 250 249 
249 250 249 250 248 248 248 247 249 249 246 249 249 247 249 246 
249 248 248 247 247 248 247 248 248 247 246 245 246 244 245 244 
245 247 246 228 202 248 248 247 248 247 246 246 247 247 247 247 
246 245 246 249 248 248 248 247 248 247 247 246 245 242 245 239 221 250 249 248 
248 249 249 249 250 250 251 249 250 249 248 248 249 247 248 249 
249 248 249 248 248 248 249 246 249 250 249 249 248 248 248 249 
250 250 249 249 250 248 249 248 249 247 250 250 250 249 247 248 
249 247 246 246 247 248 248 249 247 246 246 246 245 243 245 244 
246 246 245 252 211 208 247 249 248 248 246 246 247 247 248 247 
245 245 249 250 249 248 247 248 247 247 245 244 244 243 244 222 241 248 247 247 
248 249 250 249 249 250 249 250 249 250 249 249 248 249 247 248 
249 247 249 249 249 248 249 249 249 249 249 248 250 248 248 248 
251 250 249 249 249 249 249 249 249 249 250 250 250 249 248 249 
248 248 247 245 246 246 249 249 247 246 246 245 246 245 246 245 
245 245 245 246 247 198 229 252 248 247 249 249 248 249 247 248 
246 244 247 250 250 248 248 247 248 246 245 244 245 244 230 228 247 249 248 249 
249 248 250 249 250 249 251 249 249 250 249 249 249 249 248 248 
250 250 249 251 250 248 248 249 248 249 249 249 249 248 250 250 
248 250 249 249 248 249 249 250 248 248 248 250 250 246 247 249 
248 247 247 246 246 246 246 249 248 247 247 245 245 245 245 245 
245 246 246 248 249 240 182 247 247 247 247 248 248 246 248 247 
247 246 247 251 250 248 248 248 249 246 246 242 245 240 218 247 248 248 249 248 
249 249 249 248 250 250 251 252 252 252 251 251 251 252 251 251 
251 251 251 252 249 249 250 249 249 250 247 249 247 250 250 249 
249 249 249 248 249 249 249 248 249 248 249 249 248 248 248 248 
248 247 247 246 248 246 247 247 245 247 247 244 244 246 245 246 
245 246 248 248 248 250 204 215 250 247 248 247 247 248 247 247 
246 245 246 250 250 249 248 249 248 247 246 246 245 232 236 249 248 247 248 248 
248 248 248 250 249 250 249 250 251 250 249 245 243 236 239 227 
227 230 221 216 231 250 248 249 248 248 249 249 249 249 249 249 
249 248 248 248 248 250 249 249 249 249 249 248 247 246 246 250 
248 248 248 249 247 246 247 248 249 247 247 247 249 248 246 245 
245 245 248 248 248 247 245 185 238 250 247 247 247 246 248 248 
246 246 247 250 250 248 250 248 248 248 246 245 242 223 248 247 247 247 247 249 
248 248 249 247 248 249 212 202 204 198 194 193 211 214 217 219 
218 217 211 210 228 250 250 249 249 249 249 248 249 249 249 250 
251 249 250 249 249 249 249 249 250 250 248 249 247 248 251 251 
249 247 246 247 250 249 246 247 249 250 250 247 245 248 247 247 
247 246 247 247 247 247 250 218 199 249 247 248 248 246 245 246 
246 244 246 251 250 250 250 249 249 249 247 248 231 232 248 248 247 247 248 250 
249 248 248 248 250 249 247 250 249 251 251 251 253 253 252 253 
253 253 253 253 252 249 249 249 248 249 249 249 250 250 250 250 
250 249 249 249 250 249 249 249 250 250 248 249 249 242 215 216 
208 211 215 210 212 215 203 215 212 217 213 207 201 213 247 248 
246 248 248 247 246 248 248 248 182 236 249 247 247 247 245 245 
245 246 248 251 250 250 251 251 247 247 247 247 228 246 247 248 249 248 246 248 
248 248 249 250 249 249 251 252 253 253 252 252 251 251 251 250 
250 250 249 250 249 248 248 248 248 250 250 249 249 252 251 250 
249 248 250 249 249 249 249 249 249 247 248 249 248 243 230 241 
241 241 242 239 230 236 239 230 232 228 234 241 237 243 244 246 
244 247 249 246 245 247 249 249 209 193 249 248 247 246 246 244 
244 246 247 249 250 251 251 250 249 248 249 240 232 248 248 248 249 248 247 247 
248 249 249 249 250 247 249 251 251 251 251 250 251 253 254 252 
251 250 251 249 249 249 250 250 251 250 249 249 250 249 251 248 
247 249 249 247 248 248 248 247 248 248 248 249 249 249 251 250 
251 250 250 251 252 251 249 252 251 251 251 252 251 247 247 245 
246 246 247 246 247 245 246 248 241 184 248 249 247 245 245 246 
245 245 246 250 249 250 251 251 250 250 247 225 244 248 248 248 248 248 249 249 
248 248 248 249 249 250 250 249 251 249 250 250 252 248 214 239 
252 250 249 249 250 251 249 249 250 248 251 249 251 249 248 249 
249 249 248 248 248 249 249 249 248 248 247 248 248 248 248 248 
248 249 249 249 249 242 235 251 249 248 248 249 249 246 247 246 
245 246 248 246 246 246 247 249 252 202 227 248 246 245 245 245 
244 243 244 249 251 250 250 250 250 249 245 229 250 247 247 247 248 248 247 250 
249 248 250 248 249 249 250 249 249 251 251 249 230 169 166 179 
226 251 247 249 249 249 249 250 250 250 250 250 250 249 248 249 
249 249 248 249 248 248 249 249 248 249 250 250 248 248 248 250 
248 249 248 247 249 226 194 225 248 250 250 249 249 251 247 245 
245 246 245 246 245 247 247 246 248 231 197 251 247 245 246 244 
244 244 244 251 252 249 248 248 249 249 237 239 248 248 248 247 248 249 247 247 
249 249 248 249 250 249 251 248 251 252 252 251 200 176 204 176 
186 236 250 249 249 249 250 249 249 250 250 249 250 250 249 249 
249 249 249 249 248 248 248 249 248 249 248 249 249 248 250 249 
248 247 247 249 244 200 193 187 235 249 249 249 248 250 248 246 
246 246 247 246 246 247 245 248 248 247 196 237 247 246 245 244 
244 244 245 250 251 249 248 248 249 248 228 247 250 248 248 249 246 248 247 248 
249 247 249 248 249 250 248 249 250 248 252 251 209 189 189 186 
194 211 251 249 249 250 250 250 250 248 249 248 251 251 250 250 
248 250 249 247 247 248 248 250 249 248 248 249 249 249 248 248 
247 247 248 246 207 176 174 198 201 250 248 248 248 249 249 248 
245 246 246 246 246 247 246 245 247 250 214 218 246 246 245 245 
244 244 244 251 251 248 249 249 248 243 230 249 248 247 247 247 248 248 247 247 
246 248 248 248 248 249 250 249 248 248 251 248 195 183 175 200 
198 197 250 249 249 249 248 250 250 249 250 250 250 250 251 249 
250 248 250 249 249 250 249 247 249 250 249 250 250 250 248 249 
246 248 249 207 154 155 196 182 212 250 248 247 247 249 250 248 
247 247 247 247 247 248 248 248 245 248 236 208 248 245 245 244 
245 244 243 252 250 249 249 249 248 235 234 249 250 250 249 250 248 249 247 248 
248 246 248 248 250 250 250 248 248 250 249 249 225 154 163 182 
189 211 250 250 249 249 249 251 250 250 249 250 249 249 251 251 
249 249 249 249 249 249 249 250 250 250 249 248 249 251 250 249 
247 248 241 170 147 168 203 170 225 248 248 248 248 248 250 248 
247 246 245 246 247 248 246 247 249 248 242 201 242 246 245 245 
244 244 245 249 249 249 248 249 249 225 245 251 249 248 248 247 249 249 248 249 
249 246 247 250 250 250 248 248 251 248 249 249 251 186 174 179 
195 241 250 250 249 249 250 250 249 248 249 249 250 248 251 250 
250 249 249 249 248 248 248 248 251 250 251 250 249 251 249 249 
250 249 233 179 162 181 191 184 230 248 248 248 248 250 247 249 
248 248 245 247 247 247 245 247 248 247 249 193 216 247 246 247 
244 244 243 250 250 249 248 247 249 217 248 248 248 248 248 249 248 248 248 247 
247 248 249 249 249 249 251 249 250 250 249 250 251 244 201 205 
245 251 249 249 251 250 250 249 249 249 249 249 249 250 248 250 
249 249 249 248 248 249 250 250 249 250 250 251 249 250 250 248 
249 248 245 200 180 175 185 215 250 248 248 249 247 248 250 249 
248 249 247 247 247 247 246 248 247 248 248 212 204 248 244 245 
244 244 243 250 249 250 250 248 249 228 249 248 247 247 249 248 248 248 248 248 
250 249 249 247 248 249 249 249 249 250 251 250 249 251 253 250 
252 250 249 250 248 249 250 249 249 249 249 250 248 249 250 250 
250 249 247 249 249 249 250 250 249 250 249 248 249 251 249 249 
249 249 250 250 242 233 237 250 250 248 248 247 248 248 248 248 
245 247 247 247 247 248 248 248 246 248 249 226 192 249 246 244 
243 242 246 250 251 249 249 248 243 230 249 248 250 247 248 249 248 248 247 248 
247 249 250 248 249 249 250 250 250 249 249 252 251 251 253 251 
251 250 249 249 251 248 249 250 249 248 250 249 249 249 250 249 
249 250 249 249 248 248 249 249 251 249 250 250 249 248 249 249 
248 250 249 251 253 253 253 250 247 248 248 248 246 247 249 249 
248 246 246 246 249 248 246 247 247 247 248 242 171 241 247 245 
244 244 244 250 251 250 249 249 238 232 250 250 248 248 249 251 248 248 248 248 
248 249 249 246 249 249 250 249 251 251 249 251 251 251 250 249 
251 250 250 250 249 249 251 250 250 249 250 251 250 250 248 249 
250 250 250 250 249 248 247 249 247 249 250 249 249 249 248 249 
248 248 250 251 250 252 251 247 249 249 247 248 249 248 248 248 
247 248 248 246 248 247 246 246 245 244 248 244 182 237 247 247 
245 246 245 251 251 249 249 248 238 240 250 248 248 249 249 249 247 249 248 249 
249 248 248 248 246 249 250 249 249 249 250 248 251 251 250 251 
252 250 248 249 249 249 249 248 249 249 249 250 250 249 250 251 
251 251 248 248 249 250 249 248 250 248 249 250 249 249 250 249 
249 250 249 249 248 250 250 248 248 249 249 249 250 249 248 248 
246 248 246 249 248 247 246 246 248 246 248 247 211 225 250 248 
246 246 247 251 250 249 250 250 227 242 250 248 249 249 247 250 248 248 247 249 
247 249 248 250 249 248 250 249 250 250 253 248 248 250 250 251 
251 250 249 250 249 249 249 249 249 250 249 249 248 250 249 248 
250 251 249 249 249 249 249 249 251 251 250 250 249 249 251 250 
249 251 249 248 250 250 250 249 248 248 247 249 249 248 247 248 
249 249 248 249 248 248 247 246 247 247 248 248 209 216 250 248 
247 246 248 250 249 251 250 250 235 247 251 249 249 249 249 249 248 250 249 250 
249 248 249 249 249 250 249 250 250 249 250 251 248 250 250 250 
249 249 250 248 248 249 250 248 248 250 250 250 250 250 250 251 
250 252 249 249 249 249 250 249 249 248 250 249 250 248 250 250 
249 249 249 250 249 249 249 248 249 249 249 251 247 248 249 248 
249 248 249 249 248 247 248 247 248 249 249 248 219 211 249 247 
245 248 248 250 249 250 249 250 230 246 250 249 249 248 249 249 250 250 249 248 
249 249 249 249 249 249 249 249 250 250 248 251 250 249 250 249 
248 249 249 248 248 250 249 249 248 250 250 250 250 249 250 250 
249 250 248 251 251 249 249 248 251 250 249 248 249 251 250 248 
250 251 251 251 250 250 251 249 249 250 250 250 248 248 248 249 
248 249 250 249 248 248 247 246 247 245 248 248 229 209 248 249 
247 248 248 251 250 251 249 250 230 249 250 249 250 249 250 250 249 250 249 250 
248 248 249 249 249 249 249 249 248 250 249 249 250 250 250 250 
248 248 249 249 249 248 249 248 248 250 249 250 249 250 250 249 
249 249 249 248 249 249 249 249 250 250 250 250 250 250 250 250 
251 250 249 249 248 247 251 250 250 248 250 250 249 250 249 248 
248 249 249 249 249 248 248 247 247 247 247 247 227 216 252 248 
248 247 248 251 251 250 251 249 225 250 250 250 250 250 250 249 250 250 250 250 
249 249 250 247 249 248 250 249 248 249 249 249 249 250 250 250 
249 249 251 249 248 249 250 249 251 249 250 249 250 249 250 251 
250 251 250 251 250 250 249 249 248 250 251 250 251 251 250 249 
249 252 251 251 250 251 252 251 250 250 251 250 250 249 247 247 
249 249 249 250 248 248 248 249 249 248 247 247 232 210 251 248 
246 248 248 254 250 251 251 251 216 250 251 250 250 249 249 247 250 250 250 250 
250 248 248 250 249 246 248 247 249 249 249 250 249 249 250 250 
250 248 249 249 248 249 249 248 249 251 250 251 251 249 250 251 
253 252 252 251 250 251 252 251 250 250 250 250 250 251 250 250 
251 250 252 251 249 249 251 251 250 250 250 249 250 248 248 248 
249 249 251 250 248 249 249 248 249 249 249 249 231 210 250 249 
248 247 246 252 252 250 250 249 221 251 250 250 250 249 249 251 250 250 250 249 
250 250 249 247 249 249 250 247 250 249 249 250 249 249 249 249 
249 250 250 250 249 249 249 250 250 250 250 249 251 250 251 251 
251 251 250 251 252 252 249 251 250 250 249 250 249 251 251 251 
250 250 250 250 249 249 251 250 250 250 249 249 249 249 250 251 
250 249 250 250 249 249 251 250 250 249 247 246 244 201 251 250 
249 249 247 251 251 252 250 247 224 252 250 249 249 250 248 248 251 250 249 250 
249 247 249 248 249 250 249 250 250 249 250 249 248 249 250 250 
250 250 249 251 248 249 249 248 249 249 249 249 250 251 251 250 
251 251 251 252 252 253 251 251 251 251 250 249 250 250 250 250 
252 251 250 251 251 250 252 250 249 250 250 250 251 249 250 248 
250 250 251 250 249 249 250 250 251 250 247 245 225 212 253 250 
249 247 250 252 253 251 251 248 221 253 250 249 249 249 250 250 249 250 249 248 
248 250 250 249 249 249 250 250 249 250 249 250 250 250 250 250 
250 249 249 249 250 248 250 250 248 248 249 251 252 251 251 251 
251 252 250 252 252 252 251 250 252 251 252 252 251 250 250 251 
251 249 251 251 251 249 250 250 249 249 250 250 250 250 250 249 
249 248 250 250 250 250 251 250 250 249 247 249 227 214 251 248 
250 248 249 253 252 252 251 252 227 251 249 250 249 249 249 248 249 249 248 249 
249 249 248 251 250 249 248 251 250 250 250 250 250 250 250 250 
250 249 249 249 248 248 249 248 250 251 250 250 252 251 251 251 
250 252 252 251 253 253 251 250 250 249 253 251 252 251 251 253 
250 251 252 252 251 252 251 251 250 249 249 250 250 250 249 249 
250 249 251 248 250 249 250 250 250 250 249 249 215 218 250 250 
250 250 250 253 251 251 251 251 222 245 250 249 250 250 249 249 250 249 250 250 
250 249 250 248 249 249 250 249 249 249 249 249 248 250 250 251 
248 249 249 249 250 249 249 249 251 249 249 248 252 252 251 251 
253 252 251 250 251 253 252 251 251 253 252 252 249 251 252 252 
252 251 251 250 252 252 251 250 250 249 249 250 250 249 249 249 
250 250 249 249 250 249 249 250 250 250 249 249 213 228 250 250 
251 249 248 253 252 249 250 253 230 246 251 249 250 251 251 249 249 250 250 249 
249 250 249 249 250 249 249 250 252 249 251 248 250 250 249 251 
251 248 250 249 249 249 249 250 251 248 248 250 252 250 250 251 
252 252 251 253 252 253 252 252 252 253 253 252 252 252 252 253 
252 252 251 252 252 252 251 250 251 250 250 252 250 250 250 250 
249 250 250 249 248 250 251 251 250 251 249 250 202 236 250 250 
250 249 250 252 252 252 250 251 241 239 251 250 250 252 251 250 248 249 249 249 
250 248 249 248 249 251 249 250 249 251 250 251 250 250 250 250 
250 251 249 251 249 250 251 250 249 247 248 249 248 250 254 253 
252 252 253 251 252 252 252 252 252 252 253 253 251 251 252 253 
252 251 253 251 251 251 251 251 251 250 249 249 250 248 249 249 
249 250 250 250 250 250 250 250 251 250 250 246 197 239 250 250 
250 250 251 253 252 250 251 251 250 230 251 252 250 250 252 250 250 249 249 249 
249 250 248 248 249 250 250 251 251 249 250 251 249 250 252 249 
250 251 250 249 251 250 251 251 250 251 251 250 250 252 253 252 
252 252 251 251 251 251 251 252 252 252 251 251 251 252 253 252 
251 251 251 250 251 250 251 251 252 250 252 250 250 251 251 249 
250 251 251 250 249 250 249 249 250 250 249 239 203 251 251 250 
250 248 250 253 253 250 251 252 252 228 251 250 250 249 249 250 248 250 250 249 
249 250 250 249 249 249 248 250 249 250 249 251 250 249 250 250 
250 251 251 250 249 249 249 251 251 251 252 251 251 252 253 252 
252 252 252 252 251 251 251 250 252 252 251 252 250 252 253 252 
252 251 251 251 252 252 252 250 252 251 251 252 251 251 250 250 
249 250 250 251 251 250 249 250 249 249 249 244 211 251 250 250 
249 249 249 251 251 250 252 252 250 233 246 251 251 251 247 250 249 249 248 249 
250 247 248 249 249 249 250 250 249 250 249 249 251 251 250 249 
251 250 251 252 251 252 251 251 251 251 253 251 252 253 253 253 
252 253 251 253 252 252 252 251 252 252 251 251 253 253 253 252 
252 252 252 253 253 252 252 251 251 250 251 250 252 249 252 250 
249 251 251 251 248 251 251 251 249 250 249 233 219 253 251 251 
249 249 250 253 251 250 250 250 252 244 237 251 251 253 251 249 249 249 250 250 
249 249 249 249 249 248 249 249 249 248 250 249 250 250 250 250 
251 251 250 251 250 251 250 252 252 252 251 253 251 253 253 251 
252 252 251 251 252 252 253 252 250 252 251 252 251 251 251 252 
251 251 253 253 252 253 252 251 251 251 251 251 253 250 250 251 
252 251 251 252 250 252 252 251 250 252 252 218 238 252 250 252 
247 249 250 252 252 251 251 251 251 252 229 250 251 250 252 251 250 250 250 249 
250 251 250 250 250 250 249 250 249 250 251 250 252 251 251 250 
250 251 251 250 250 252 252 253 253 252 252 253 253 253 253 254 
253 252 251 252 251 253 253 250 252 251 253 251 251 252 252 252 
252 253 253 253 252 251 251 251 250 250 251 249 252 252 251 250 
252 251 250 251 251 251 251 250 251 251 249 206 252 251 250 248 
249 250 249 251 252 252 252 250 251 251 235 245 250 248 251 250 250 247 248 249 
249 250 248 248 250 250 248 249 249 250 251 250 251 250 250 251 
251 250 251 251 252 252 252 251 251 252 250 252 252 254 254 254 
253 252 252 251 252 252 252 252 253 252 253 252 253 253 251 253 
253 252 252 253 252 252 252 251 250 251 251 251 252 251 251 251 
251 251 251 251 251 251 250 251 250 250 250 215 252 250 251 249 
250 250 250 251 251 253 251 251 251 251 249 227 250 250 250 250 250 250 249 248 
247 249 249 248 249 249 250 249 249 249 249 251 250 248 251 252 
252 252 251 253 252 251 251 251 252 251 253 253 252 252 254 252 
253 252 252 252 253 252 251 251 253 252 252 253 252 253 252 253 
252 252 253 252 252 251 250 251 251 250 250 251 251 251 252 252 
250 251 250 251 250 250 251 251 251 252 231 237 251 250 249 251 
250 251 253 251 252 252 252 249 250 250 252 224 249 252 250 252 249 250 251 250 
249 249 249 248 250 251 249 249 249 248 248 249 249 250 250 250 
251 251 252 252 252 251 252 252 252 250 251 252 251 251 252 254 
252 252 253 252 251 252 251 251 251 252 251 251 251 252 251 253 
252 253 252 253 250 250 251 251 250 249 249 250 251 250 251 251 
251 249 249 251 250 250 250 251 250 250 220 249 252 250 250 250 
250 249 249 251 250 252 252 250 251 250 250 245 230 252 250 250 250 251 251 250 
248 249 248 247 250 249 250 249 248 248 248 249 250 251 251 250 
252 251 252 251 251 252 252 252 252 253 254 253 252 252 253 252 
252 251 254 252 253 251 252 253 252 253 252 252 252 254 253 252 
253 253 252 251 253 251 251 251 251 251 252 250 251 250 252 250 
251 251 251 248 249 249 250 249 250 246 224 253 252 251 250 248 
249 251 251 251 253 252 251 249 249 249 250 250 231 246 251 250 250 252 251 250 
251 250 248 248 249 250 251 249 248 248 249 250 250 250 250 251 
253 253 253 253 252 252 254 252 254 254 253 254 255 254 253 253 
253 254 254 254 254 254 254 254 254 254 254 254 254 253 253 254 
254 253 253 254 251 251 252 251 250 251 251 251 251 250 251 251 
251 250 250 250 252 252 250 250 251 221 244 252 251 250 251 250 
249 249 250 250 250 250 249 251 250 249 251 249 244 228 251 251 253 252 251 250 
250 248 247 247 249 250 250 249 249 248 249 251 251 250 249 250 
235 240 252 251 251 240 246 249 248 234 228 246 245 244 236 241 
241 231 240 240 239 233 239 235 235 240 242 235 237 233 238 235 
236 243 247 246 251 251 251 251 251 251 251 251 251 252 252 252 
250 249 249 251 252 251 251 251 250 218 252 251 252 252 251 250 
252 251 249 252 251 250 250 250 249 250 251 250 250 230 242 251 248 249 251 251 
249 249 247 245 249 251 250 249 249 250 251 252 252 250 250 245 
181 185 189 199 201 179 171 178 179 179 179 185 207 214 212 214 
212 228 222 219 218 236 227 219 219 220 226 233 217 215 216 219 
212 219 222 213 245 251 251 251 249 251 251 250 252 252 252 251 
251 252 251 251 252 252 251 251 229 231 253 251 251 250 250 251 
251 252 251 251 249 250 251 252 250 250 251 250 249 248 224 252 251 251 251 251 
250 250 249 248 250 249 249 249 250 250 250 251 252 253 250 252 
251 251 245 235 243 239 241 246 250 250 248 249 252 252 253 254 
252 253 249 252 253 254 253 254 253 253 253 253 253 253 252 252 
252 253 251 252 252 252 253 251 252 251 251 251 250 249 250 251 
251 249 252 250 252 252 253 251 216 252 251 250 252 251 250 250 
250 251 251 250 250 249 250 250 248 250 250 249 250 250 234 237 250 250 251 251 
251 251 251 252 251 250 252 252 252 252 253 252 253 253 251 251 
253 254 253 253 253 252 253 253 253 252 253 253 252 253 253 254 
253 252 254 253 253 253 254 254 254 253 252 253 254 254 253 252 
253 253 253 253 252 252 252 250 251 250 250 251 252 251 250 249 
251 251 251 251 251 251 250 227 237 252 252 252 251 250 250 250 
251 250 250 250 249 250 250 251 250 250 249 249 250 248 249 220 241 252 250 249 
250 253 251 252 252 254 253 253 253 253 253 252 253 253 253 251 
252 251 252 251 252 251 251 251 251 251 251 252 253 251 251 251 
253 251 252 251 252 252 252 252 253 252 252 253 253 252 251 252 
252 250 253 252 251 252 251 250 249 250 251 250 250 252 250 251 
251 251 252 251 251 251 245 215 253 252 252 252 251 250 250 250 
251 251 250 250 251 251 250 250 251 250 249 249 250 250 247 248 216 251 252 250 
252 251 251 251 252 254 253 252 252 252 253 253 251 253 251 252 
251 252 251 251 251 251 251 250 251 250 249 249 251 251 250 251 
252 251 251 251 250 251 252 250 250 251 253 253 252 253 252 252 
253 253 253 253 252 252 251 252 251 250 250 250 250 251 251 251 
251 251 251 252 251 251 224 239 253 252 251 250 252 252 252 250 
251 252 250 251 251 250 252 251 250 249 250 249 249 250 249 249 232 218 252 252 
251 252 251 252 250 251 252 252 253 252 252 252 251 251 252 253 
251 252 252 252 250 251 251 250 251 251 250 250 250 249 250 251 
251 251 251 250 252 251 250 248 245 250 252 252 253 252 253 253 
252 252 253 251 252 252 253 250 250 249 250 250 250 251 252 252 
251 251 251 251 253 242 224 253 252 250 251 251 250 251 251 251 
251 251 250 248 249 249 250 250 250 250 249 248 247 249 249 248 251 223 238 252 
250 249 250 251 252 252 252 253 252 253 252 252 252 251 252 253 
252 253 250 250 250 250 249 249 251 251 250 251 250 251 250 251 
250 250 250 250 251 252 251 249 250 252 251 252 252 251 252 252 
251 252 252 253 252 254 252 249 250 250 251 250 250 250 251 251 
252 251 249 251 251 219 249 252 252 252 250 250 251 250 250 251 
251 251 251 251 250 250 249 249 250 249 250 248 249 250 249 249 251 249 220 240 
251 251 249 252 252 252 252 251 251 253 251 251 253 253 252 252 
252 253 251 251 251 251 250 250 250 250 250 251 251 251 250 250 
250 251 252 250 250 250 252 251 251 251 252 252 252 252 252 251 
252 251 251 251 251 252 251 251 251 249 250 250 250 250 251 251 
252 251 251 253 225 238 253 253 251 251 251 251 252 251 251 251 
252 251 250 250 251 250 250 249 248 248 247 249 249 249 250 249 249 250 247 217 
231 252 252 253 252 252 251 251 252 252 251 252 252 252 252 253 
253 253 250 251 250 250 251 251 251 251 250 250 249 251 250 250 
252 251 251 251 251 251 252 251 252 252 252 252 252 252 252 252 
253 252 252 253 251 250 251 251 250 250 251 250 252 251 251 251 
252 251 252 240 226 252 249 252 251 251 251 251 252 251 251 251 
251 252 252 250 250 250 250 249 250 250 251 249 248 250 250 249 251 250 252 243 
199 237 253 252 251 251 252 252 252 252 252 252 251 251 252 252 
251 252 254 253 251 251 252 250 253 250 249 251 250 250 251 250 
251 251 251 251 250 252 252 253 251 251 252 252 252 252 252 252 
252 253 252 252 252 251 251 251 252 251 251 251 251 251 251 251 
251 250 245 219 251 252 252 251 253 253 252 251 251 252 252 253 
253 252 252 250 250 250 249 249 250 249 251 249 251 250 251 248 250 249 250 253 
245 206 239 251 251 250 252 251 252 251 251 250 250 250 250 252 
251 252 252 252 251 252 251 251 250 251 252 251 250 251 251 252 
250 248 250 250 251 252 252 252 253 252 252 252 253 251 253 252 
254 254 252 253 253 252 253 252 249 250 250 250 250 250 250 249 
250 249 216 246 252 251 252 253 253 252 253 253 253 253 252 252 
253 251 251 249 250 250 251 250 249 250 251 251 250 250 251 250 250 250 250 250 
253 246 205 223 251 252 252 251 251 252 251 251 251 252 253 253 
252 251 251 251 250 251 251 252 250 251 251 250 252 251 250 249 
252 249 250 251 251 252 252 252 253 252 252 253 252 252 252 253 
252 252 252 251 253 252 250 251 250 250 251 250 250 250 250 251 
251 213 247 252 250 251 252 252 252 252 252 252 252 253 253 252 
253 252 252 250 250 250 250 251 249 250 249 250 249 250 250 251 251 251 251 251 
251 252 246 198 222 251 253 252 251 252 250 249 252 251 252 253 
252 252 251 251 250 250 252 251 251 251 250 251 251 251 250 250 
251 250 251 251 251 253 252 252 253 252 252 253 252 252 252 253 
252 253 252 252 252 252 253 253 250 249 251 252 250 250 253 252 
222 239 254 251 251 250 252 252 250 251 250 251 252 254 253 252 
251 253 252 251 251 250 250 250 252 250 248 250 250 251 251 252 251 249 251 250 
250 250 252 249 213 207 248 252 252 250 251 251 250 252 250 252 
252 252 251 251 251 252 252 252 251 250 251 250 252 250 250 251 
249 250 250 252 252 252 252 253 253 252 253 253 253 252 251 252 
250 253 252 253 251 252 250 252 253 250 251 251 251 253 247 222 
241 254 251 251 251 251 253 252 252 253 252 252 253 252 253 253 
254 253 253 250 252 250 251 251 250 251 251 251 251 250 251 251 251 250 249 249 
250 250 249 252 254 233 194 240 252 251 251 251 253 252 251 251 
253 251 251 251 253 252 252 250 250 251 250 251 250 250 250 251 
250 252 252 252 252 252 252 252 252 254 253 253 252 252 252 253 
252 252 253 254 251 252 251 252 251 251 252 250 248 239 216 244 
253 251 252 251 253 253 252 252 252 252 252 253 253 253 252 253 
254 252 253 252 249 251 251 251 251 251 251 251 251 251 252 251 251 251 251 251 
250 250 250 251 252 254 243 208 222 250 252 249 253 251 251 250 
250 251 250 252 252 251 253 251 251 251 251 249 250 250 249 251 
251 253 252 253 253 252 253 253 253 252 252 253 253 252 252 250 
252 253 253 253 252 252 251 252 253 253 245 195 213 224 251 254 
252 252 251 252 252 252 252 252 252 252 253 253 252 254 253 252 
252 253 252 251 251 252 251 251 250 252 252 252 252 250 251 251 251 251 251 251 
250 250 250 251 251 251 253 250 230 208 235 251 251 251 252 252 
252 253 252 251 252 251 251 251 251 251 252 251 251 251 251 251 
252 252 252 252 252 252 252 252 252 252 253 253 252 252 253 253 
252 252 252 251 251 251 253 252 253 232 213 205 245 253 253 253 
252 252 252 252 252 253 253 253 253 253 252 253 253 253 253 253 
252 253 253 251 250 251 251 252 252 252 252 253 253 250 251 251 252 251 251 251 
252 251 252 252 251 251 251 252 254 245 222 208 240 251 252 253 
252 253 252 251 250 251 251 251 250 251 251 252 252 251 252 251 
251 252 252 252 252 252 253 252 253 253 252 252 252 252 252 253 
253 253 253 253 254 253 252 238 216 188 220 252 253 253 252 253 
253 253 253 253 253 252 253 253 253 253 253 253 253 253 253 253 
253 253 253 253 253 252 251 252 250 252 253 252 252 252 251 251 252 252 252 251 
250 251 251 251 251 251 251 251 251 252 252 244 215 205 238 251 
254 253 252 251 251 252 251 251 251 251 251 252 251 251 251 252 
250 251 251 252 252 253 253 254 253 253 254 253 252 253 253 253 
253 252 252 254 249 245 227 208 223 247 254 253 253 253 253 253 
251 253 253 252 253 253 253 252 253 253 253 254 253 253 253 252 
253 254 253 253 252 253 252 252 252 251 253 253 252 252 252 252 252 250 252 252 
252 251 251 250 251 251 251 251 251 252 250 253 253 240 212 202 
230 248 252 253 252 252 252 253 253 252 252 253 251 251 252 252 
252 253 253 253 254 253 252 252 253 253 253 253 254 253 254 254 
255 255 253 232 212 217 226 249 253 254 255 254 253 253 253 254 
254 254 254 254 253 253 254 254 252 252 253 254 252 254 254 254 
253 254 254 251 252 251 252 253 253 253 253 253 253 252 252 252 252 251 251 251 
251 252 252 252 253 252 251 251 250 250 249 249 252 253 252 229 
198 196 219 242 250 252 253 253 254 252 253 252 253 251 252 251 
252 254 253 252 253 254 253 252 253 253 253 254 254 254 255 253 
242 224 215 218 235 249 254 254 254 254 253 253 252 254 254 255 
254 254 254 254 254 254 255 255 252 254 255 252 253 254 254 254 
254 253 253 253 253 253 253 252 252 252 253 253 252 253 253 253 253 252 252 251 
252 253 253 253 251 250 251 252 252 252 251 251 250 253 253 254 
253 241 232 213 212 225 244 249 251 251 252 254 253 253 254 255 
254 254 254 253 254 253 254 255 254 253 251 250 233 235 223 215 
209 232 246 254 255 253 254 254 254 253 254 254 255 254 253 254 
254 254 254 254 254 254 255 255 254 254 255 255 254 254 254 254 
253 254 255 253 253 252 253 253 253 252 253 253 253 253 253 253 253 252 252 254 
252 253 252 252 252 252 253 252 252 252 251 253 251 251 252 252 
253 254 254 250 243 229 219 214 211 213 222 220 225 244 238 244 
251 253 252 252 251 246 248 247 236 226 220 210 218 226 232 243 
252 254 255 255 255 255 255 254 254 253 253 254 255 255 255 254 
254 253 254 255 254 254 255 255 254 254 255 255 254 254 254 255 
255 254 255 252 253 254 252 253 254 254 252 252 254 253 252 253 253 254 254 253 
254 253 253 253 253 253 252 253 252 251 252 252 253 251 246 250 
252 252 253 252 254 255 254 254 249 231 227 224 214 208 202 207 
209 205 200 205 201 202 211 210 217 227 237 248 250 254 255 255 
255 255 255 255 254 254 254 254 254 254 254 255 255 255 255 255 
255 254 254 255 255 255 255 254 254 254 254 255 254 254 254 255 
255 255 254 254 254 254 254 254 254 254 254 254 254 253 254 254 254 254 253 252 
253 252 254 252 252 253 253 253 253 252 253 254 253 253 249 252 
252 253 252 253 254 252 253 254 254 254 255 255 255 255 255 253 
251 248 248 247 250 252 255 255 255 255 255 255 255 255 255 255 
255 254 254 254 254 254 254 255 255 255 255 254 255 255 255 253 
255 255 255 255 255 255 254 255 254 254 254 255 255 255 255 255 
255 255 254 253 254 254 254 253 253 253 254 254 255 254 253 254 254 254 254 254 
253 252 252 252 254 252 253 253 252 254 254 253 252 253 254 253 
253 253 254 253 252 253 254 254 253 254 254 254 254 254 254 254 
254 255 255 254 255 255 255 255 255 255 255 254 255 254 254 254 
255 254 254 255 255 254 255 254 254 254 254 254 255 255 255 254 
255 255 255 255 255 255 254 255 254 254 254 255 255 255 254 255 
255 255 254 253 254 254 254 254 255 254 254 254 254 254 254 254 254 254 254 253 
254 254 253 254 254 254 253 253 253 253 253 253 253 254 254 253 
254 254 254 253 253 254 253 253 254 253 254 255 253 253 254 254 
254 255 255 254 255 255 255 255 255 255 253 254 255 255 255 254 
255 254 255 255 255 255 255 254 254 254 254 254 255 255 255 255 
255 255 255 255 255 255 255 255 254 254 254 255 255 255 254 255 
255 255 254 254 254 254 254 254 254 254 254 254 254 255 254 254 254 254 254 253 
252 254 254 253 255 255 253 254 254 255 254 253 253 254 253 252 
254 254 254 254 254 254 254 253 254 254 253 253 253 254 253 254 
254 255 255 254 254 255 254 255 255 255 254 255 255 255 255 255 
254 255 255 255 255 255 255 255 254 255 255 255 255 255 255 255 
255 255 255 255 255 255 255 255 255 254 254 255 255 255 255 255 
255 255 254 254 254 254 254 254 255 255 255 255 255 255 255 255 255 254 254 254 
253 253 254 255 254 253 254 254 253 253 255 254 255 255 255 254 
253 254 254 254 254 254 254 254 254 254 254 254 254 253 254 254 
254 255 254 254 254 254 254 255 255 255 255 255 255 255 255 255 
255 255 255 255 255 255 255 255 255 255 255 255 255 255 255 255 
255 255 255 255 255 255 255 255 255 255 255 255 254 255 255 255 
255 255 254 254 254 254 254 254 255 255 254 254 255 255 255 254 255 255 255 255 
254 254 254 255 255 254 254 255 254 254 253 253 254 255 254 254 
254 254 254 254 254 254 253 253 254 254 254 254 254 255 254 253 
254 255 255 255 254 254 254 254 254 255 255 255 255 255 255 255 
255 255 255 255 255 255 255 255 255 255 255 255 255 255 255 255 
255 255 255 255 255 255 255 255 255 255 255 255 255 255 255 255 
255 255 255 