P2
# Created by IrfanView
100 100
255
244 245 244 244 246 246 245 244 246 244 245 245 243 244 243 243 243 
243 240 242 244 244 244 243 243 246 247 244 246 245 244 246 245 
244 246 246 244 245 245 245 245 246 245 244 244 245 244 244 244 
243 241 245 244 242 244 244 243 244 243 243 242 243 242 242 242 
241 241 241 242 241 242 241 240 241 243 244 242 243 243 243 245 
245 244 245 246 244 244 245 246 246 248 248 249 249 250 249 249 
249 248 249 245 244 245 243 246 246 245 245 245 243 245 242 242 244 243 243 243 
243 241 242 243 244 244 244 242 245 246 243 247 245 246 244 247 
245 246 245 245 246 245 244 245 244 245 245 245 244 244 244 244 
243 243 243 244 243 244 244 244 243 242 243 244 243 243 242 242 
242 240 242 242 242 244 241 241 241 242 242 243 243 242 243 244 
244 247 246 245 245 245 246 246 248 248 249 248 249 249 249 249 
249 249 250 244 245 246 245 245 244 245 245 245 244 244 244 244 243 243 243 243 
242 243 243 243 243 243 245 245 244 246 247 246 246 247 245 246 
245 245 246 246 245 247 244 244 245 245 245 243 244 244 243 243 
243 244 244 244 244 243 242 243 243 244 244 243 243 243 244 242 
241 242 242 240 241 241 243 242 241 241 242 242 242 243 243 244 
244 244 246 245 246 245 245 246 246 249 247 248 249 249 251 249 
248 249 250 244 245 245 244 245 247 244 245 245 245 243 245 243 244 245 244 242 
242 242 243 243 243 243 244 244 244 244 245 246 247 246 245 246 
246 246 245 246 245 246 244 244 245 244 245 244 244 244 245 243 
242 243 244 244 243 242 243 243 243 241 243 243 243 242 240 243 
242 241 242 242 242 242 242 241 241 241 243 242 241 242 243 244 
245 246 245 244 247 246 246 248 249 246 249 248 250 249 248 248 
249 249 248 245 246 245 245 245 245 245 244 245 244 245 246 244 244 242 242 242 
244 241 242 243 244 244 247 245 245 245 247 246 246 246 245 245 
245 246 245 246 246 244 245 245 243 245 244 243 243 243 245 245 
244 243 243 243 244 242 243 243 244 243 243 243 242 242 242 240 
243 242 242 241 242 240 242 242 242 241 241 241 242 243 243 244 
244 244 243 246 243 245 246 245 247 247 247 247 248 249 249 249 
249 249 248 242 245 245 245 245 245 245 246 245 244 244 243 243 243 242 242 242 
244 243 241 243 243 244 244 242 244 244 247 245 245 245 244 244 
244 244 244 244 243 244 244 245 244 245 243 243 245 244 244 242 
246 247 244 243 244 244 243 242 245 243 245 243 243 243 242 243 
242 242 241 239 242 241 242 242 244 243 243 243 243 243 246 244 
244 245 245 246 246 246 246 247 246 246 245 247 248 249 250 251 
249 249 249 243 244 244 243 245 245 245 245 245 244 243 244 244 243 244 242 242 
242 242 241 241 243 244 244 243 244 245 244 244 244 245 244 243 
244 244 244 244 244 244 244 244 244 246 247 246 246 247 247 248 
245 247 247 244 246 248 243 244 246 246 246 246 245 244 244 242 
242 241 241 241 241 242 241 241 241 242 243 244 244 243 244 243 
243 244 245 246 246 246 246 246 245 246 247 246 248 249 249 249 
249 249 250 243 245 245 244 243 245 244 245 245 244 245 245 245 243 243 243 243 
243 242 242 242 243 244 244 243 243 244 245 245 245 244 244 242 
243 243 242 243 246 246 245 246 246 244 244 239 218 214 201 201 
192 177 179 183 195 189 205 212 212 207 224 234 240 244 243 244 
245 242 241 241 242 241 241 242 242 242 243 244 243 244 244 243 
244 243 245 245 244 246 247 246 246 245 247 246 247 249 250 249 
250 249 250 244 245 245 243 243 245 244 245 246 244 246 245 246 244 243 244 243 
244 244 242 242 242 243 243 245 244 244 245 244 242 246 242 242 
243 243 245 246 243 245 242 229 207 186 195 203 207 220 229 235 
246 247 243 246 246 244 244 238 227 227 216 213 199 199 205 222 
242 246 244 242 243 242 242 244 243 243 243 243 244 243 242 242 
243 245 245 246 245 245 245 246 246 244 246 246 248 249 249 249 
251 249 248 245 244 244 243 243 244 244 245 245 245 243 244 244 243 243 244 243 
242 243 242 242 242 242 243 243 244 243 244 243 243 244 242 244 
243 243 240 199 163 177 189 200 223 244 246 249 249 248 247 248 
246 247 246 246 245 245 245 246 245 246 245 245 248 244 232 210 
196 207 224 241 242 244 243 243 242 244 242 244 244 244 243 244 
243 245 245 247 245 245 247 245 247 246 249 249 249 249 250 249 
248 249 250 243 244 243 243 241 243 243 244 246 246 243 247 246 244 242 243 243 
241 243 241 242 241 243 243 243 243 243 244 243 242 244 246 245 
232 209 211 183 210 242 247 247 248 247 246 246 247 245 245 244 
244 245 245 244 243 243 243 244 244 243 243 243 242 244 245 245 
243 238 214 186 199 233 244 245 242 244 243 242 244 244 243 244 
242 244 245 245 245 246 243 246 245 246 248 248 250 249 249 250 
250 250 249 242 242 243 242 244 245 244 245 246 246 245 245 244 244 244 243 243 
243 241 242 243 243 242 241 241 242 243 243 243 245 243 225 208 
221 242 246 248 249 248 247 245 245 246 244 245 244 245 244 245 
244 245 244 243 243 244 242 242 244 242 242 242 244 242 242 242 
243 242 243 246 231 204 195 217 244 243 243 243 243 242 243 244 
244 244 245 243 246 245 245 245 246 246 247 246 247 249 249 249 
250 248 249 243 242 245 244 244 245 243 245 244 245 244 244 243 244 244 243 242 
241 243 241 240 243 242 243 241 241 243 244 244 226 210 224 246 
248 248 245 246 247 244 246 245 245 245 245 245 244 245 244 244 
244 245 244 244 246 244 243 244 244 244 243 244 244 241 242 240 
239 242 246 243 243 243 241 196 188 228 243 246 244 243 243 243 
243 244 245 245 245 245 246 246 246 247 246 244 247 249 250 249 
249 249 248 243 245 243 241 246 245 244 243 244 244 244 246 242 244 242 243 243 
242 243 242 241 241 240 240 243 244 243 229 205 219 242 245 244 
245 245 245 244 245 245 244 246 246 245 243 246 245 244 244 245 
246 243 243 244 243 244 244 243 244 243 243 243 243 242 242 241 
239 240 242 240 240 239 241 243 238 204 204 239 246 245 244 243 
244 244 244 245 246 244 245 245 245 247 246 246 248 249 250 250 
249 249 248 243 242 244 243 245 245 243 244 245 245 243 242 243 243 244 244 242 
241 240 241 241 241 241 242 241 237 209 203 240 245 246 243 242 
243 244 244 245 245 245 245 245 245 243 244 245 245 244 245 244 
244 244 244 244 243 244 244 243 244 243 243 244 244 243 242 242 
242 240 240 240 239 239 239 239 241 244 223 183 215 245 245 244 
243 244 244 244 244 243 244 244 247 246 246 246 248 250 250 250 
250 250 250 242 242 244 242 245 244 243 246 244 244 244 243 243 243 244 243 243 
243 240 240 240 239 242 240 225 200 230 244 245 245 243 243 243 
244 243 243 245 246 246 245 244 244 244 245 245 246 245 246 244 
244 245 245 245 245 245 245 244 244 243 243 243 243 243 242 241 
241 240 241 241 240 240 241 241 239 239 244 240 201 195 242 242 
243 244 244 244 245 244 244 243 245 248 246 248 247 248 250 249 
249 250 250 244 244 246 243 244 244 244 244 244 243 244 243 243 243 242 242 242 
243 239 241 242 242 242 214 198 239 244 242 243 244 243 242 244 
244 244 243 243 246 246 246 246 245 244 245 245 246 247 245 245 
242 245 245 245 244 243 244 244 244 244 244 245 243 242 242 242 
242 240 241 241 240 242 239 237 240 240 241 241 244 214 186 235 
244 243 241 244 243 244 246 245 246 247 248 246 248 248 249 249 
249 249 249 242 244 243 243 243 243 244 244 243 244 244 244 242 242 241 242 240 
243 240 241 243 239 197 200 244 246 242 241 243 244 243 244 244 
244 243 245 245 244 247 247 245 245 244 245 244 244 245 245 245 
245 244 243 243 244 244 244 244 244 243 243 243 242 243 244 243 
242 240 240 241 241 239 241 241 239 239 239 239 241 243 239 189 
229 242 243 243 244 245 246 247 245 246 246 246 246 248 248 249 
250 252 250 242 243 243 244 244 242 243 244 244 244 244 242 244 244 242 243 242 
242 241 241 238 194 215 246 243 243 243 243 243 243 244 244 245 
244 244 245 246 243 246 245 246 247 244 245 244 246 245 246 246 
244 245 243 244 243 244 244 244 244 243 243 243 242 244 244 243 
243 242 241 239 239 239 239 240 240 240 240 239 238 241 241 214 
181 229 246 244 244 244 246 245 246 247 244 247 247 245 249 248 
248 248 248 242 242 244 244 243 242 242 245 243 244 242 241 243 243 242 242 242 
243 243 237 202 218 244 244 243 244 244 244 242 244 245 244 243 
245 245 243 245 246 245 245 245 246 245 244 244 246 244 244 244 
244 245 245 244 243 244 243 244 243 242 244 244 241 242 240 241 
241 241 241 241 240 241 240 240 240 240 240 239 239 240 241 243 
219 181 231 245 244 244 244 246 246 247 247 247 246 246 247 248 
249 248 248 242 243 244 243 243 243 243 244 244 243 244 244 243 242 242 242 241 
242 240 194 227 246 243 243 243 245 244 244 244 243 244 244 244 
244 245 245 244 245 245 246 246 244 245 245 244 245 245 245 245 
244 245 245 243 245 244 244 244 244 243 243 244 244 242 241 243 
242 242 241 240 241 242 239 241 241 241 239 238 239 239 240 241 
243 214 201 236 244 245 245 245 246 246 246 246 246 246 247 247 
248 249 250 241 243 242 242 242 243 244 244 244 242 244 244 242 243 243 243 245 
242 189 225 248 243 242 243 244 241 243 243 242 244 243 243 244 
243 244 244 245 245 245 246 245 245 244 246 245 245 245 245 245 
245 245 244 245 244 244 244 244 243 243 244 244 242 243 242 241 
243 242 241 241 242 240 240 241 240 240 240 242 239 238 240 240 
240 241 204 203 240 244 245 245 246 245 246 247 247 248 248 249 
249 249 249 243 243 244 242 243 242 243 245 242 242 244 242 242 243 241 242 243 
196 228 245 243 243 243 244 244 245 243 243 243 244 243 243 243 
242 243 244 245 244 246 245 245 245 246 245 244 245 244 245 245 
244 243 243 243 244 243 243 243 243 243 245 243 243 243 241 242 
242 241 241 241 241 240 241 241 241 241 239 241 241 241 240 242 
242 242 239 190 210 236 245 246 246 247 247 246 248 249 246 248 
249 250 249 242 242 243 243 244 243 244 244 244 244 243 244 241 243 240 238 205 
212 244 242 244 244 243 244 244 244 245 244 245 245 244 244 243 
243 244 246 245 244 244 245 244 245 244 245 245 244 245 244 245 
244 245 244 245 244 243 243 244 243 242 242 244 243 243 242 242 
242 243 242 241 241 241 242 242 240 242 240 241 241 241 241 241 
240 240 244 237 205 210 244 244 246 247 247 248 247 248 247 249 
247 249 248 243 243 243 243 244 243 243 243 243 242 242 243 243 242 241 210 196 
246 244 244 243 244 243 243 242 244 244 243 242 246 245 246 244 
244 245 246 248 247 246 245 245 245 245 246 245 243 245 244 244 
245 244 244 243 243 243 243 243 243 244 242 243 242 242 242 242 
240 242 241 241 242 241 240 241 239 242 242 240 242 240 239 242 
240 242 242 247 235 195 233 243 244 246 246 246 247 247 248 248 
248 249 248 242 241 242 244 243 245 244 243 242 243 243 242 243 244 227 188 248 
244 243 243 243 243 242 243 244 246 247 245 242 233 224 216 224 
232 234 242 246 248 246 246 246 245 245 246 245 245 244 244 246 
244 245 244 244 243 243 242 242 242 241 242 244 242 241 243 241 
242 241 243 243 242 242 241 241 242 241 240 240 238 241 243 241 
241 241 241 243 244 215 191 233 247 245 246 248 248 248 247 247 
248 248 249 241 242 243 242 244 242 243 243 241 243 243 242 241 240 195 235 242 
243 243 243 243 241 242 244 245 241 219 198 178 190 197 207 202 
194 193 182 171 194 247 246 245 244 245 244 245 245 245 244 244 
242 244 244 244 243 243 241 242 241 241 244 241 242 242 239 240 
242 242 242 242 244 244 243 244 242 243 243 241 242 241 242 241 
241 240 242 242 242 243 211 204 242 246 246 246 248 249 248 249 
249 249 248 241 241 242 242 243 243 243 243 244 243 243 242 241 198 221 242 244 
242 244 242 243 241 242 244 215 180 196 223 245 250 248 250 248 
246 248 246 242 215 240 246 245 244 245 245 244 244 245 245 244 
245 245 243 244 244 245 244 243 242 242 241 241 240 239 240 244 
245 245 240 221 227 219 213 197 190 231 243 243 241 242 242 242 
242 241 243 240 241 243 238 180 215 245 244 247 248 249 248 250 
249 248 248 241 241 242 242 242 243 244 244 243 243 243 244 229 193 244 242 242 
242 243 243 243 242 242 210 187 233 248 247 249 246 245 245 244 
245 245 245 246 248 246 246 245 245 245 246 244 244 245 244 243 
244 245 243 243 244 243 243 241 241 242 241 241 241 240 244 242 
221 212 180 185 186 203 213 212 204 178 189 229 241 240 242 241 
241 241 241 242 241 241 243 229 188 237 246 246 248 246 248 248 
248 247 247 239 239 242 242 242 242 244 244 244 242 244 244 188 238 244 243 242 
244 244 244 243 241 243 228 242 246 248 243 245 244 245 245 243 
245 244 244 244 246 246 245 246 245 244 244 245 245 245 244 246 
245 243 243 243 243 243 243 242 241 241 242 242 242 242 238 181 
182 213 238 244 243 245 243 244 247 246 223 189 217 243 243 240 
240 241 242 242 240 240 241 246 201 210 244 246 247 248 248 247 
247 247 247 240 240 239 241 242 243 242 244 243 242 245 217 212 247 244 243 244 
245 244 244 244 245 243 244 247 246 244 245 245 245 245 244 243 
245 243 245 245 244 245 245 244 245 245 244 244 244 244 243 244 
243 244 243 243 243 242 241 242 244 242 241 242 242 241 188 223 
242 245 244 242 242 241 242 240 242 244 244 241 190 241 242 241 
242 241 242 243 240 241 241 240 237 190 234 244 246 246 248 247 
247 248 248 240 239 240 241 243 242 242 243 241 243 241 188 243 244 244 243 244 
244 245 244 243 244 244 244 244 244 242 245 246 246 246 244 245 
244 247 246 246 243 245 246 247 245 244 245 243 244 243 243 244 
244 243 244 243 243 243 243 243 245 241 241 242 242 242 219 246 
244 242 244 241 240 242 241 241 241 241 243 243 243 241 242 242 
242 241 241 241 240 241 242 241 243 193 200 244 245 247 248 250 
248 249 250 240 241 242 242 242 241 241 243 242 243 219 214 248 244 243 245 243 
245 243 245 243 245 244 243 244 245 247 245 242 245 246 248 246 
246 245 246 245 245 246 246 245 245 245 244 245 245 246 245 244 
243 241 243 244 243 244 243 242 242 242 242 243 242 242 245 243 
241 241 242 243 242 242 242 241 242 242 242 243 243 241 242 242 
242 242 242 241 242 241 241 243 243 227 187 238 246 247 248 248 
248 248 248 240 240 242 242 242 240 241 242 241 241 197 246 244 243 244 242 243 
244 243 243 244 243 247 245 245 244 244 243 244 245 245 248 248 
246 247 247 245 246 246 246 245 246 246 245 245 245 244 246 245 
244 245 242 245 243 244 243 243 242 244 244 241 242 243 244 241 
242 241 241 241 243 242 243 242 241 242 242 242 243 241 242 242 
243 242 241 241 241 241 241 241 241 247 187 216 244 247 247 247 
248 247 247 242 241 241 240 241 241 242 242 243 226 223 245 244 244 242 243 243 
244 244 246 244 246 244 243 243 244 244 244 243 244 238 225 246 
246 246 247 247 246 246 249 245 245 246 247 244 245 245 245 245 
244 245 244 243 245 243 244 243 244 242 242 242 242 242 243 242 
240 240 241 244 241 212 216 245 244 242 242 242 242 242 243 243 
242 242 243 241 240 242 240 242 242 243 214 176 234 245 245 245 
248 246 247 239 239 240 242 241 241 241 241 245 189 242 243 244 244 243 243 243 
244 245 244 244 244 242 243 243 243 243 242 243 225 150 145 170 
245 248 244 247 245 246 246 245 245 246 245 245 246 245 245 245 
246 245 245 243 243 243 241 243 243 242 243 242 242 242 242 242 
240 240 238 237 164 141 156 233 243 242 243 242 242 242 242 243 
241 241 242 242 241 241 241 240 239 241 242 179 214 243 244 245 
246 246 247 241 241 240 240 240 241 240 242 236 185 246 243 244 245 244 242 243 
244 246 245 245 243 244 244 243 242 243 242 244 198 146 171 162 
240 246 245 245 245 248 246 246 246 246 246 244 244 245 244 243 
243 244 244 244 243 243 244 244 244 244 244 241 242 243 241 243 
240 238 240 181 106 158 161 195 240 241 243 242 242 242 242 241 
241 240 241 242 241 242 242 241 241 242 243 199 195 244 246 246 
246 245 245 240 242 241 240 239 238 241 240 173 212 243 244 245 244 244 243 243 
244 245 245 244 244 244 244 244 243 242 243 247 189 170 166 210 
247 246 246 246 245 246 246 246 245 245 245 245 246 246 245 245 
246 244 244 245 245 243 243 244 243 243 244 244 242 244 243 242 
240 239 239 165 120 150 156 220 243 242 243 243 244 243 242 242 
243 242 242 241 242 242 241 240 240 241 243 232 177 235 244 245 
244 246 245 241 239 239 239 239 238 240 235 183 245 243 246 245 244 244 246 245 
246 245 245 245 246 244 245 244 245 242 243 243 243 226 229 246 
243 245 245 246 248 248 246 246 245 245 245 246 245 245 244 244 
245 244 245 243 243 244 246 244 244 245 242 245 243 242 242 240 
239 238 239 230 132 141 192 244 242 240 242 243 241 241 242 242 
243 243 242 242 243 242 241 241 241 240 241 240 173 214 243 244 
245 246 246 241 241 239 240 239 237 240 225 211 243 245 245 246 245 245 245 244 
244 245 245 244 243 245 244 244 244 243 243 243 244 245 246 245 
244 244 243 243 243 246 247 245 246 246 246 246 245 244 245 245 
244 246 245 245 245 244 243 244 244 242 244 243 244 241 243 242 
242 241 241 245 208 196 242 244 241 240 241 242 242 241 243 242 
243 243 243 242 241 241 241 239 243 240 239 239 208 197 244 243 
245 245 245 241 242 239 240 241 240 240 198 238 244 245 245 245 243 244 246 245 
245 246 246 245 245 245 244 244 244 244 244 244 241 244 244 246 
243 244 245 245 244 244 245 245 246 246 246 245 245 245 245 245 
244 246 243 243 243 245 245 245 244 245 242 243 242 242 243 242 
241 242 241 241 245 244 242 242 241 240 242 243 243 243 243 242 
242 244 242 242 240 241 240 240 238 238 239 238 231 183 234 242 
244 245 244 241 241 240 239 241 241 243 188 246 244 245 245 244 246 245 245 244 
246 247 245 246 244 245 244 243 245 244 244 242 242 247 245 244 
244 243 243 244 244 245 247 245 244 244 244 245 245 246 246 245 
245 244 243 244 245 243 245 244 244 244 244 241 242 242 243 242 
241 241 242 242 243 244 243 242 243 243 242 242 240 242 242 242 
242 242 242 242 242 242 240 241 242 239 240 239 228 176 235 242 
245 244 244 242 241 241 241 241 242 242 197 242 243 243 244 244 245 244 246 244 
245 247 246 244 245 246 246 244 244 244 242 245 244 246 245 244 
245 245 242 245 245 246 246 247 245 244 245 246 245 244 246 244 
240 246 245 244 247 244 244 243 244 244 244 244 244 243 241 243 
243 243 242 242 241 242 241 240 240 242 242 242 241 243 242 241 
242 242 242 241 241 240 240 241 240 238 238 238 240 164 203 244 
247 246 247 241 242 241 241 241 241 235 206 240 243 243 243 244 243 245 246 243 
246 245 244 244 244 243 245 244 245 244 246 244 246 246 246 246 
245 245 244 245 245 245 246 244 245 246 245 245 246 243 244 246 
245 245 244 245 244 244 244 244 244 243 244 242 242 243 242 241 
243 243 242 242 243 243 243 243 242 242 243 243 242 242 242 242 
241 241 241 241 240 241 242 241 239 240 240 241 242 200 198 242 
246 245 247 243 241 240 241 241 241 216 220 243 241 242 244 244 244 245 245 246 
245 245 247 246 245 243 244 243 244 243 243 243 244 245 245 245 
245 245 245 244 245 246 246 246 245 246 246 246 245 244 245 247 
245 244 245 246 246 246 245 244 244 244 243 244 244 243 242 243 
243 242 241 241 241 243 243 242 242 241 242 242 242 242 242 242 
242 242 242 242 240 242 240 241 242 242 242 241 241 213 171 246 
245 245 245 239 239 240 238 239 240 208 227 242 242 241 242 243 244 244 244 244 
245 246 245 245 245 245 242 243 244 245 244 243 242 244 245 245 
246 245 244 244 245 246 246 245 245 245 245 245 246 246 246 245 
245 245 248 245 245 245 245 244 244 244 244 244 244 245 242 243 
243 243 241 241 242 241 241 242 243 242 242 242 242 241 241 241 
242 242 242 240 241 241 242 242 241 240 242 241 242 230 162 245 
246 247 246 241 242 240 240 240 241 216 240 242 242 243 244 244 244 244 244 245 
244 244 245 246 245 245 245 244 244 245 244 243 243 245 244 245 
246 244 244 245 246 246 246 246 246 245 243 246 246 245 244 245 
245 245 245 245 245 245 243 245 244 244 242 245 245 244 244 243 
242 242 242 242 242 241 242 242 242 243 243 242 242 241 241 243 
242 242 241 241 242 241 243 241 241 243 242 242 241 226 172 242 
245 244 245 242 242 239 239 237 240 198 242 242 242 242 243 242 243 245 244 245 
245 244 245 245 244 244 244 245 244 244 244 243 244 247 244 245 
245 247 244 245 245 245 244 245 246 246 244 246 246 243 244 243 
245 244 246 244 246 244 244 243 243 245 243 244 242 244 244 243 
243 243 244 243 243 243 243 241 241 242 242 244 243 241 242 242 
243 242 243 241 242 241 241 241 241 241 242 242 245 209 154 244 
243 246 245 241 241 238 239 240 240 194 242 242 243 244 242 242 241 244 243 244 
244 244 245 245 245 244 244 243 244 244 243 247 244 243 244 245 
245 245 243 244 244 247 247 246 246 245 247 246 244 243 247 245 
245 246 245 245 246 245 244 245 245 245 243 246 243 243 243 244 
243 243 243 245 241 242 243 243 242 242 242 243 243 242 241 242 
242 242 243 242 243 241 242 242 241 242 242 243 242 193 191 243 
245 244 245 242 241 242 240 241 243 199 243 242 242 242 242 242 242 245 244 243 
244 244 245 245 244 244 245 243 245 243 245 245 245 244 245 245 
245 245 244 245 247 246 245 245 245 245 246 246 244 246 246 246 
245 246 246 247 245 246 245 245 245 244 245 244 245 244 244 243 
245 243 243 241 243 242 243 241 241 243 243 242 242 242 241 242 
243 240 242 243 242 244 242 240 242 241 243 241 243 207 203 246 
246 242 245 240 241 239 241 240 240 186 242 242 242 243 242 242 242 241 242 242 
243 244 246 244 245 244 243 244 244 245 244 245 246 245 243 245 
245 245 245 245 245 247 247 245 246 245 246 246 246 246 246 246 
245 245 246 245 245 244 246 245 245 245 246 245 246 244 244 243 
243 244 243 242 242 241 242 242 241 241 243 243 242 241 242 241 
241 242 242 242 242 242 241 242 241 241 240 240 241 209 194 243 
244 244 245 241 241 241 241 241 240 182 245 244 244 244 242 242 242 242 242 242 
244 242 243 245 245 243 245 244 244 244 244 245 245 245 245 246 
245 246 246 246 246 245 247 245 247 245 246 247 246 246 246 245 
248 247 247 246 246 246 247 245 245 245 245 242 241 244 244 244 
243 244 243 243 243 243 243 242 243 241 242 243 243 243 239 242 
243 243 241 242 243 242 242 241 242 239 242 239 240 223 189 243 
243 244 244 242 241 240 243 241 243 182 243 243 242 244 242 242 242 242 243 242 
244 243 240 244 245 246 245 245 245 243 244 243 244 245 244 243 
245 246 245 246 246 246 246 246 247 246 247 246 245 246 246 247 
246 246 246 246 245 246 246 245 245 245 246 245 245 244 244 244 
244 244 245 244 243 242 243 242 243 242 242 242 242 241 242 241 
242 243 243 243 241 242 242 241 242 242 240 240 238 221 181 242 
242 245 244 241 240 241 243 241 242 192 242 243 243 243 243 243 242 243 244 243 
244 243 241 242 242 245 245 245 244 245 245 243 245 247 248 245 
245 245 247 246 245 247 247 245 246 246 248 246 247 247 249 248 
248 246 246 245 244 247 246 245 245 245 245 246 245 245 245 244 
245 246 243 243 243 243 243 243 242 244 243 241 241 243 242 239 
242 242 243 244 242 241 242 241 241 242 241 240 241 201 185 241 
242 243 244 241 241 240 241 239 241 200 243 241 243 243 243 243 243 242 243 244 
244 241 244 246 241 243 245 245 244 244 244 244 242 245 245 245 
246 246 246 245 246 246 246 244 247 246 246 247 245 247 247 247 
246 247 247 246 246 246 247 245 246 246 244 246 245 244 244 246 
244 243 243 242 243 243 243 245 243 244 244 244 243 244 243 243 
242 242 243 240 241 241 241 241 241 242 242 242 243 180 211 240 
242 243 243 242 242 241 242 241 241 203 238 241 243 244 244 244 243 243 243 243 
242 243 244 243 242 244 245 245 245 244 244 243 244 244 245 245 
245 244 243 243 246 247 248 247 246 246 247 247 247 247 247 248 
245 246 247 247 248 247 246 247 246 246 246 245 246 244 244 245 
246 246 245 245 244 246 243 244 243 242 243 243 245 244 244 244 
245 243 243 244 243 243 243 242 242 241 239 242 242 191 210 244 
242 244 244 242 242 242 242 241 242 213 236 243 243 244 244 244 243 243 244 243 
243 244 244 243 243 245 247 245 244 244 244 244 243 243 246 245 
245 246 243 246 246 248 246 246 246 246 246 246 248 248 247 248 
247 246 246 247 246 245 247 248 246 247 247 245 245 247 246 245 
245 244 245 245 245 244 244 244 243 244 245 242 243 244 243 243 
244 243 244 243 243 244 242 242 243 242 243 243 242 186 226 246 
246 247 247 243 243 241 243 242 243 225 220 243 244 245 244 244 243 244 245 244 
244 243 243 242 244 244 245 244 243 244 244 244 243 244 245 245 
245 246 244 244 247 246 245 246 245 245 245 248 249 247 248 247 
248 248 247 249 247 248 247 246 245 246 246 245 246 245 246 243 
244 244 245 245 245 244 245 244 244 244 246 245 244 243 244 245 
243 244 244 242 244 244 244 243 243 243 244 242 243 192 232 246 
247 248 248 243 242 242 241 242 243 239 207 243 244 244 244 243 242 242 244 245 
243 244 242 243 242 243 245 244 244 244 244 243 246 244 245 244 
245 245 246 247 245 244 243 244 246 246 246 247 248 247 245 247 
249 248 247 247 246 246 247 246 244 246 246 246 245 247 245 247 
247 245 246 246 246 246 245 245 245 245 245 246 242 245 245 244 
244 245 244 246 246 245 245 244 243 242 243 245 236 182 244 247 
247 247 247 245 243 243 242 241 243 245 200 243 243 244 242 242 245 243 244 244 
244 244 245 243 242 243 246 246 244 243 245 241 243 243 244 244 
244 244 246 246 245 246 245 246 246 246 246 248 248 248 247 248 
247 247 247 247 248 247 247 248 248 247 246 245 246 246 248 245 
247 246 247 246 246 246 245 244 246 246 246 244 246 246 245 245 
246 246 245 244 245 243 244 244 245 245 243 244 228 187 249 247 
248 249 248 243 243 242 241 242 243 245 194 246 242 241 243 243 244 242 244 244 
245 244 244 243 243 243 244 245 244 244 245 244 244 246 246 245 
244 245 246 244 245 245 246 246 247 246 247 246 248 246 249 248 
247 248 247 247 248 248 248 248 248 246 246 247 246 246 245 247 
246 247 247 247 246 247 247 244 246 247 246 248 248 246 245 245 
245 244 247 246 245 244 243 243 244 245 244 244 202 215 248 247 
247 248 248 244 243 242 244 242 242 243 198 243 243 245 244 244 243 243 243 244 
245 244 244 243 242 244 247 246 246 245 244 244 243 246 245 245 
245 245 245 245 245 246 247 246 246 247 246 247 248 250 248 247 
247 248 247 247 247 248 248 246 244 246 247 245 247 247 245 245 
246 247 246 246 248 247 247 246 248 246 248 246 246 246 246 247 
247 247 245 246 245 242 244 245 245 245 244 243 179 232 249 248 
247 248 248 243 243 243 243 243 242 242 223 223 245 245 245 244 243 243 244 244 
243 244 244 245 242 245 246 246 246 247 245 244 244 245 246 246 
245 245 245 245 247 247 247 246 246 247 247 247 245 247 248 248 
249 248 248 248 248 247 247 247 248 247 246 246 246 246 247 246 
247 247 246 247 248 248 247 248 247 247 246 245 246 246 247 246 
247 245 245 245 247 243 246 246 245 244 245 240 173 247 247 247 
247 247 248 244 244 244 243 244 242 243 242 204 244 243 244 245 244 243 244 246 
245 245 243 244 244 246 247 247 246 244 244 245 244 245 244 245 
246 244 244 244 246 245 245 246 245 246 246 247 249 248 248 248 
248 248 246 247 247 247 247 246 247 246 246 247 247 246 248 247 
246 246 247 246 246 247 247 248 247 247 246 247 247 247 247 245 
246 248 247 246 245 246 245 245 246 244 246 215 195 246 246 247 
245 245 248 244 244 243 243 243 243 242 245 202 243 243 245 244 243 242 243 243 
245 245 243 244 244 245 247 246 246 246 246 244 245 245 246 245 
245 244 244 244 245 245 245 246 247 246 248 247 248 248 248 249 
249 249 249 248 248 248 250 248 248 248 248 249 246 247 246 246 
247 247 246 248 245 246 247 247 247 248 248 247 247 246 247 247 
246 246 245 246 246 244 243 244 243 246 246 181 219 247 244 245 
246 246 248 246 243 244 243 243 242 243 245 220 229 244 244 246 245 243 243 243 
245 243 245 245 244 244 243 245 245 246 245 245 245 245 246 245 
244 244 242 244 246 247 247 247 247 249 249 248 250 252 251 251 
251 250 251 250 251 249 251 251 251 251 250 247 248 245 246 249 
248 248 246 246 246 246 246 247 247 246 245 246 247 246 246 245 
246 245 245 243 244 244 245 243 243 244 238 172 236 246 244 245 
245 247 246 245 245 244 244 244 242 243 243 243 202 246 245 245 245 244 242 245 
246 245 245 245 245 244 245 246 244 245 245 245 245 246 246 245 
243 245 245 246 249 249 249 251 248 247 242 242 229 231 230 222 
223 216 228 213 218 217 200 226 224 229 201 195 197 195 241 211 
199 200 247 246 246 248 248 247 247 246 248 248 246 246 247 245 
246 246 246 247 244 245 243 243 244 244 221 190 247 245 245 244 
248 246 246 244 244 244 245 243 243 243 243 247 203 244 244 243 243 245 245 246 
244 245 246 246 244 245 246 245 246 246 246 244 244 244 250 249 
249 233 226 231 213 205 177 164 161 163 162 161 158 176 195 188 
181 184 169 169 173 167 162 173 173 176 196 166 182 169 183 185 
205 205 247 247 246 247 248 246 247 248 245 246 246 246 246 248 
246 247 244 245 246 245 244 245 244 246 168 231 247 245 245 244 
245 246 247 245 244 244 243 243 244 242 244 243 231 215 245 245 245 246 245 245 
245 245 242 244 246 245 247 247 245 246 244 245 245 243 167 190 
199 166 159 137 148 152 178 188 207 215 220 226 230 222 222 224 
230 229 234 236 231 237 245 249 251 250 252 252 251 250 250 249 
249 247 247 245 246 247 246 246 246 247 247 248 246 247 246 244 
245 246 246 246 246 245 246 243 245 220 181 244 245 245 245 244 
245 247 247 246 245 245 243 245 243 243 244 244 247 195 245 244 244 246 245 246 
243 244 246 246 245 244 247 247 245 244 243 245 245 246 247 235 
225 231 225 240 248 250 250 248 247 248 247 247 247 246 249 249 
246 247 248 248 248 248 250 249 251 250 250 251 249 251 251 248 
249 249 247 246 244 245 247 247 245 246 245 246 246 245 246 244 
246 245 246 245 245 247 246 244 243 163 222 244 244 244 244 245 
244 246 246 244 244 244 245 245 244 244 242 244 244 224 220 246 245 245 247 247 
245 246 246 245 245 244 244 246 246 246 245 243 246 244 247 247 
247 247 247 246 246 248 244 246 246 246 245 245 246 248 249 247 
247 249 247 247 247 248 246 247 245 249 248 248 249 246 249 248 
248 247 248 246 246 248 248 248 247 245 247 247 247 246 246 246 
247 246 246 246 246 247 247 245 217 191 247 243 244 244 243 245 
245 245 247 245 243 244 244 244 243 245 244 244 243 244 201 247 245 247 247 246 
245 246 246 245 245 246 245 245 246 248 246 247 246 244 245 245 
244 245 245 245 246 245 244 242 243 244 245 246 245 245 246 245 
246 247 247 248 247 247 247 247 246 248 247 246 248 248 248 247 
247 247 248 247 246 246 246 246 246 245 247 246 246 247 246 245 
245 244 245 246 244 245 245 249 192 223 247 242 242 244 244 243 
245 242 246 245 245 244 245 245 245 245 245 243 244 243 224 214 247 245 246 245 
246 246 244 244 243 244 245 246 247 247 245 246 245 245 246 245 
246 246 245 244 244 244 245 245 245 247 245 245 245 245 247 247 
247 248 247 248 248 248 248 247 247 247 247 247 248 247 249 249 
246 249 248 247 247 245 247 247 244 243 244 247 247 248 247 245 
244 247 247 246 244 245 250 227 201 246 245 243 242 241 243 244 
244 243 244 245 246 245 243 245 245 243 244 244 242 240 243 187 245 246 246 246 
247 246 245 246 247 246 246 245 247 245 246 246 246 246 246 246 
245 244 246 244 244 244 245 246 245 244 244 244 246 246 246 246 
248 248 248 248 248 248 249 248 247 248 247 247 246 247 249 249 
248 248 248 248 247 247 248 249 247 247 242 247 244 246 246 246 
243 245 246 246 243 239 234 182 245 248 245 245 245 245 244 244 
243 242 243 244 246 246 245 245 245 245 244 244 242 243 242 233 204 248 245 246 
248 247 245 245 245 244 249 245 248 247 247 246 246 245 245 246 
245 245 245 244 246 245 246 245 243 243 247 247 245 247 246 246 
245 248 249 248 247 247 248 249 249 248 247 248 247 247 249 246 
249 248 248 248 248 248 248 248 248 247 245 246 245 246 245 246 
245 245 246 244 239 226 176 220 250 246 246 245 243 245 245 244 
244 243 243 244 245 246 245 245 244 245 244 245 243 243 240 247 203 233 247 246 
245 246 246 245 247 246 247 245 247 246 248 247 247 246 246 244 
245 246 245 244 243 246 246 246 245 245 247 246 246 245 246 246 
247 248 247 247 249 248 249 248 249 249 248 248 248 248 248 248 
249 248 248 248 248 248 249 246 247 248 246 247 247 247 245 243 
243 244 244 245 239 183 192 249 246 246 245 244 245 246 245 245 
244 243 243 243 247 246 245 245 244 245 244 244 243 245 246 244 247 194 246 247 
247 246 246 246 246 245 246 248 247 248 247 247 247 247 247 247 
246 246 247 246 244 245 245 246 244 244 242 245 246 247 245 247 
248 248 249 248 248 247 248 247 248 249 247 249 248 248 250 249 
248 249 248 248 248 247 249 249 247 246 246 246 247 247 245 244 
244 244 244 247 221 167 240 248 247 246 246 246 246 245 245 246 
245 245 245 246 245 246 245 245 244 244 244 244 244 244 243 244 245 223 202 248 
247 246 247 247 247 247 246 247 249 247 247 248 248 246 247 246 
247 246 245 245 244 244 246 244 245 245 244 247 246 246 246 246 
248 248 247 247 247 248 248 247 247 247 246 250 249 247 248 249 
249 248 249 246 247 247 246 249 248 247 247 246 248 248 246 244 
244 244 246 241 166 214 249 246 244 246 246 246 245 245 246 244 
245 245 244 245 246 246 245 245 245 244 243 245 243 243 245 246 246 249 207 227 
249 246 245 245 245 246 248 248 247 248 246 246 248 248 248 247 
247 247 246 246 245 244 246 245 244 244 243 247 247 246 247 247 
246 246 246 247 246 248 247 248 248 247 246 247 249 248 249 249 
249 249 249 248 248 248 248 248 247 247 248 248 248 248 248 248 
247 247 246 179 196 248 246 245 247 246 246 244 247 246 246 246 
246 246 246 246 246 247 248 246 245 245 246 243 245 245 243 243 245 247 248 203 
232 247 248 245 247 249 248 248 248 248 249 246 248 247 247 247 
247 246 246 245 245 245 246 245 245 244 245 245 246 246 246 247 
247 247 246 246 249 249 248 248 250 247 248 249 249 250 249 247 
247 248 248 248 248 247 246 246 247 249 248 250 250 250 247 251 
250 249 185 174 249 248 249 247 246 246 246 246 246 246 246 246 
246 246 246 246 245 247 247 245 246 245 247 247 246 244 245 245 244 246 246 247 
199 238 246 247 247 247 247 248 248 248 247 246 247 247 246 247 
247 246 246 245 246 247 246 246 246 246 245 245 246 247 247 247 
247 247 249 248 247 248 246 248 249 248 249 249 250 248 248 248 
246 248 248 247 247 248 247 247 248 248 246 249 249 251 249 248 
247 179 186 250 250 248 246 247 248 246 247 246 246 246 247 246 
246 246 245 246 247 246 246 247 248 246 247 246 246 245 246 244 245 244 244 247 
241 203 234 248 248 246 247 248 248 248 248 248 248 249 247 247 
246 246 245 246 247 246 246 247 245 245 245 247 246 247 248 246 
248 248 248 247 249 249 250 247 248 247 247 249 248 248 248 248 
248 248 248 247 248 246 248 248 248 247 248 248 249 249 251 238 
174 184 248 249 247 248 247 246 248 247 247 247 247 246 246 247 
246 246 246 247 247 248 248 247 247 246 246 246 247 246 247 245 246 244 246 246 
248 241 181 222 248 247 246 247 247 248 248 248 248 248 247 247 
247 246 246 247 246 244 246 246 244 245 246 246 248 249 248 248 
248 247 250 249 248 248 248 248 247 247 248 248 248 248 249 248 
247 247 246 247 247 247 247 246 246 246 248 247 250 251 238 176 
229 251 251 247 248 247 248 246 248 247 248 248 246 246 246 245 
247 247 246 246 250 247 247 247 247 248 247 247 248 248 246 247 246 246 245 246 
248 247 238 166 231 248 246 245 248 248 249 245 248 248 247 247 
247 248 246 247 245 247 247 247 245 245 246 247 248 249 248 248 
249 247 249 248 248 250 249 248 248 246 248 247 249 247 248 246 
247 246 248 248 247 247 247 247 248 248 249 248 251 236 207 242 
253 251 249 249 248 246 248 248 247 248 248 248 246 246 246 246 
246 247 247 246 247 248 248 248 248 249 247 248 249 247 246 245 245 246 246 246 
247 245 248 246 177 207 248 247 247 248 248 247 249 249 248 248 
248 246 248 247 248 246 246 245 246 247 247 248 249 248 247 246 
247 249 250 247 248 247 249 248 248 248 249 248 246 248 248 247 
248 247 245 246 248 247 248 247 247 249 251 249 221 199 242 251 
249 248 249 249 249 247 247 247 248 248 250 249 247 246 246 246 
245 246 246 246 246 249 248 247 248 248 250 247 247 248 247 247 247 246 246 246 
247 247 246 249 250 199 201 250 249 249 248 249 250 249 248 247 
248 250 248 248 247 248 246 246 248 247 246 248 246 249 249 248 
248 249 248 247 249 248 248 248 248 248 248 246 248 246 248 247 
247 246 248 247 247 246 249 249 250 248 237 194 215 247 251 250 
249 248 249 250 250 249 249 248 248 248 250 248 247 246 246 246 
246 246 247 249 246 247 248 249 249 248 249 249 247 249 247 248 247 247 247 247 
246 247 246 246 248 251 217 159 232 248 249 248 249 249 249 248 
249 248 248 249 249 247 249 248 248 247 246 248 250 249 248 249 
248 249 249 249 248 248 248 248 247 248 246 248 250 248 247 247 
247 246 246 247 245 246 252 250 249 214 182 217 250 250 249 250 
250 249 249 251 250 249 250 249 248 248 249 248 248 247 247 247 
246 246 246 249 249 248 250 249 250 249 247 250 250 249 250 249 248 248 246 248 
248 247 246 245 247 247 250 227 201 217 247 250 248 250 249 249 
248 249 247 248 247 248 248 248 247 248 248 249 247 249 250 248 
249 249 248 248 249 249 248 249 250 247 248 248 246 249 248 247 
248 248 247 247 248 249 249 237 193 198 242 249 250 250 249 249 
249 249 248 250 250 248 249 249 249 249 249 249 249 248 248 247 
247 247 246 248 249 249 249 250 250 248 250 250 250 250 249 247 250 250 249 249 
248 247 248 248 246 247 250 252 251 238 210 228 251 252 252 250 
249 250 249 249 249 248 246 248 249 247 247 248 249 248 249 247 
249 250 248 248 247 249 248 250 248 248 248 248 248 248 249 247 
248 248 247 249 252 237 199 177 220 251 251 248 248 249 250 248 
250 250 250 251 249 249 249 249 249 248 249 249 249 248 247 245 
246 248 247 249 250 246 249 251 250 249 249 251 250 250 248 250 250 249 250 249 
249 251 249 251 249 247 249 249 251 252 250 230 203 227 251 251 
251 249 250 250 250 249 249 248 248 249 248 249 248 249 249 249 
249 248 249 248 249 248 249 250 248 245 247 246 247 248 247 248 
249 249 249 233 195 172 209 245 250 249 249 250 250 249 250 250 
250 251 251 251 249 248 249 249 249 250 249 249 249 249 248 247 
247 246 247 251 250 251 250 249 249 249 250 251 249 249 249 250 250 250 250 250 
250 250 249 250 251 251 250 251 248 249 251 251 250 223 199 223 
251 251 251 252 249 248 248 249 248 246 249 250 249 249 249 249 
249 249 249 250 249 249 248 249 250 249 248 250 249 248 250 252 
248 235 185 160 204 235 251 251 248 250 249 249 249 249 250 251 
250 250 250 251 250 250 250 249 250 250 249 250 251 249 247 249 
249 248 248 251 250 250 250 249 250 251 251 251 250 249 249 249 250 251 249 250 
249 252 250 249 251 251 251 249 250 249 250 250 252 253 251 230 
203 213 241 250 252 252 252 251 250 250 249 249 249 250 248 250 
250 248 249 250 249 248 248 250 249 250 252 251 252 253 246 224 
192 162 187 224 247 250 250 250 250 250 250 250 251 251 250 248 
251 250 251 251 250 250 251 251 250 250 250 250 251 249 249 249 
248 250 248 250 251 250 250 250 250 250 251 251 251 250 249 249 251 250 250 250 
251 250 250 250 250 250 250 251 251 251 250 251 251 250 251 252 
252 243 221 211 222 238 253 253 254 252 252 252 250 251 253 251 
251 252 252 251 252 252 251 253 252 252 248 243 218 190 181 169 
213 241 252 251 250 249 249 249 249 248 248 250 252 250 249 252 
251 250 250 250 250 250 251 250 251 249 250 249 249 250 249 248 
248 247 249 250 252 250 250 249 250 250 251 251 252 252 250 250 250 251 250 249 
249 250 251 250 251 251 251 251 251 251 251 251 248 251 253 251 
252 252 253 251 239 216 204 204 219 242 252 253 253 252 252 251 
250 252 250 253 251 251 246 220 218 224 193 186 210 236 246 250 
251 250 250 250 250 250 249 250 249 250 251 251 252 251 251 250 
250 250 251 250 251 251 250 249 251 250 249 249 250 250 250 249 
249 249 250 251 251 251 251 251 252 252 253 251 251 250 252 251 250 250 251 251 
251 252 251 250 251 252 252 253 251 252 252 252 253 250 250 251 
252 252 251 252 253 253 254 249 231 208 201 205 205 206 206 185 
168 170 185 195 197 202 202 221 227 221 243 248 254 254 252 252 
251 250 250 250 250 250 250 249 250 250 250 251 249 251 251 251 
251 251 251 251 251 250 250 251 251 251 250 251 250 250 248 248 
249 249 250 251 252 250 250 250 251 253 253 253 252 251 252 251 250 250 251 251 
251 252 250 251 253 252 253 253 253 252 252 252 252 251 252 252 
252 251 252 252 250 252 253 254 254 253 254 253 253 252 248 245 
241 239 238 239 245 249 251 253 254 254 253 254 252 250 250 251 
251 249 251 250 250 250 251 250 250 250 250 250 250 251 251 251 
251 250 251 251 251 251 250 250 250 250 251 250 251 249 249 250 
251 250 250 251 252 251 251 251 252 253 252 252 253 253 251 251 251 251 252 251 
250 251 251 250 252 251 253 252 253 253 253 251 253 252 251 251 
252 252 252 252 252 251 251 250 252 252 252 253 253 253 254 253 
253 253 253 254 252 253 253 252 252 251 252 253 252 252 251 250 
250 250 250 251 249 252 252 251 250 251 252 251 251 251 251 251 
251 251 251 250 250 251 251 252 252 251 250 251 251 252 251 250 
247 251 251 252 253 252 251 251 249 253 252 252 252 253 252 252 252 252 253 252 
252 252 253 252 252 253 253 253 253 254 252 252 252 252 253 252 
251 252 252 252 252 251 249 250 252 252 253 252 253 253 253 253 
251 250 252 252 252 253 253 252 252 253 252 252 251 251 250 250 
252 250 250 252 251 251 251 250 252 251 251 251 252 250 251 251 
251 251 251 249 251 251 252 251 251 251 252 252 251 251 251 252 
251 250 251 252 252 252 253 251 250 252 253 251 253 253 252 253 253 252 251 252 
252 252 251 252 252 253 252 253 253 252 253 252 251 252 252 252 
253 252 252 251 252 252 252 251 251 251 251 252 252 251 253 253 
253 253 252 251 251 252 252 252 251 252 251 252 252 251 254 252 
252 252 253 251 252 251 252 251 251 253 252 252 251 252 251 252 
252 252 252 252 251 251 253 251 251 252 249 250 253 253 251 253 
252 251 252 253 252 252 252 251 251 253 251 253 252 252 253 253 252 252 251 253 
252 250 252 252 251 251 253 252 252 252 252 253 253 252 253 253 
253 250 252 252 251 252 252 252 252 253 252 252 251 252 252 251 
251 251 251 251 252 252 252 252 252 252 250 252 251 252 252 251 
250 251 251 251 253 251 252 251 251 253 252 250 252 252 252 252 
252 252 251 253 252 252 253 253 253 253 254 253 254 253 252 252 
253 249 251 