P2
# Created by IrfanView
100 100
255
238 241 239 240 241 241 241 240 240 241 240 241 240 240 240 240 241 
241 241 241 242 241 238 240 243 242 243 243 244 244 245 245 243 
244 247 245 246 245 243 243 244 244 244 244 242 245 245 246 248 
246 248 247 246 246 245 248 248 245 245 247 245 246 245 247 246 
247 248 247 246 246 247 246 248 248 247 248 247 247 248 250 247 
247 249 249 249 249 249 248 250 249 248 247 251 249 250 248 247 
248 248 247 237 238 239 240 240 239 239 240 239 240 240 240 240 238 240 240 240 
241 241 241 243 241 240 241 241 241 242 243 241 241 243 244 243 
244 245 245 245 243 243 244 242 243 245 244 244 245 245 243 246 
246 245 247 246 245 245 246 246 245 247 246 246 246 246 247 246 
246 245 244 245 248 246 246 247 246 246 248 246 247 246 247 247 
245 247 249 248 249 248 247 247 246 247 247 249 248 247 245 247 
248 248 247 239 238 239 239 239 238 239 239 238 239 239 238 237 239 238 238 240 
240 240 242 241 241 241 241 241 241 241 241 242 240 241 242 242 
242 243 245 244 243 242 243 242 242 243 242 243 244 244 246 244 
244 244 245 245 245 245 245 245 245 244 244 244 246 244 245 245 
246 245 246 247 245 246 245 246 246 245 246 246 245 246 247 247 
245 246 248 246 248 248 246 246 246 248 246 248 246 246 248 246 
247 247 246 239 238 238 239 239 240 237 240 239 238 238 236 238 237 238 239 240 
241 241 239 239 240 241 241 240 240 240 242 242 240 241 242 242 
242 242 243 243 242 241 242 241 242 243 242 242 243 244 243 244 
244 246 245 244 245 246 244 243 244 243 245 244 245 246 245 245 
244 245 246 245 244 245 244 244 244 245 244 244 242 242 245 245 
245 245 245 245 245 244 242 245 246 246 246 245 245 244 245 246 
248 247 246 238 238 238 238 239 239 238 239 238 238 238 238 238 239 239 237 239 
239 241 242 240 240 239 239 241 239 238 241 240 240 241 241 242 
242 242 241 242 241 241 242 242 241 243 243 242 244 244 243 246 
245 246 247 247 244 245 243 245 245 244 243 244 243 244 244 244 
245 244 244 244 245 244 244 244 243 243 244 241 242 243 243 243 
246 244 244 244 243 244 244 242 244 244 243 245 244 244 246 245 
245 246 246 239 238 238 239 237 237 238 238 238 237 235 237 237 236 238 239 237 
238 240 241 241 239 240 240 239 239 240 240 239 240 240 240 241 
240 238 240 238 242 241 243 242 244 242 242 243 241 242 244 242 
240 243 243 244 246 246 243 244 246 246 244 244 242 243 243 243 
244 243 243 242 243 243 244 242 243 243 242 241 241 243 243 244 
243 242 243 243 243 243 242 244 243 243 242 244 243 244 246 245 
246 246 246 238 239 238 237 236 236 239 236 239 237 235 235 237 236 237 237 236 
239 240 240 239 239 240 240 238 238 238 239 241 240 239 240 240 
240 241 242 243 241 241 243 242 222 207 206 199 192 192 184 187 
180 182 193 184 189 201 211 226 229 242 245 245 244 245 245 244 
243 243 244 244 243 243 244 243 243 242 242 241 242 242 243 243 
244 243 242 244 244 243 243 242 243 244 242 244 243 244 244 244 
245 245 245 237 237 238 237 237 235 235 236 235 239 236 237 238 236 236 239 239 
239 239 240 238 240 239 238 240 239 238 238 238 238 238 239 242 
241 243 241 237 218 197 175 179 184 202 212 225 232 240 241 242 
239 233 241 233 221 211 207 187 172 183 196 227 234 243 244 245 
245 244 244 243 244 244 244 243 242 241 243 243 242 243 243 242 
242 241 241 242 242 242 242 241 240 241 241 241 242 243 243 243 
243 244 244 238 239 236 237 237 236 236 237 236 237 236 236 236 236 235 237 238 
236 237 238 237 237 235 240 236 237 237 235 236 237 238 241 242 
240 216 173 164 185 217 233 244 247 247 244 244 244 244 243 245 
243 242 242 243 244 243 243 241 241 227 207 187 168 178 199 225 
244 244 245 245 244 242 242 242 242 242 242 242 241 243 243 241 
242 242 240 240 241 242 242 241 241 241 241 241 243 243 243 242 
242 243 244 236 236 235 236 235 235 236 235 237 236 236 235 232 236 237 236 237 
236 238 239 236 236 237 235 236 236 236 238 238 241 239 225 191 
166 188 222 242 242 242 244 242 240 242 241 239 240 239 240 240 
241 240 240 239 242 239 239 239 241 241 242 243 241 218 192 172 
173 218 243 246 245 242 243 241 241 241 242 242 242 243 242 242 
241 241 240 241 241 241 242 240 240 242 242 242 244 243 242 243 
240 244 242 234 235 236 236 236 236 235 235 235 234 236 235 235 235 237 236 236 
236 236 236 236 236 235 235 236 236 238 239 236 195 136 144 207 
236 240 242 242 243 240 239 236 238 236 238 238 239 240 239 239 
238 240 241 240 239 239 240 240 240 239 240 240 241 243 244 240 
227 186 183 208 236 244 243 243 242 240 241 241 241 242 240 242 
242 241 242 242 240 243 241 241 242 242 241 241 241 242 241 242 
242 243 243 235 236 236 234 234 234 235 236 235 236 235 234 235 234 235 235 235 
236 235 236 235 236 234 233 236 238 238 219 139 140 213 241 241 
240 237 239 237 237 237 238 238 237 239 239 237 238 239 239 240 
240 239 239 240 239 238 239 241 240 239 240 240 240 242 241 241 
243 244 232 197 166 205 240 245 242 242 241 241 240 241 240 240 
241 241 242 242 241 241 242 240 242 242 241 242 242 242 241 242 
242 242 244 234 235 235 234 235 234 235 235 235 236 232 236 236 234 236 235 233 
235 234 236 235 237 235 237 237 227 167 129 195 241 237 238 239 
237 235 236 238 237 236 237 238 239 239 235 238 236 237 239 238 
240 239 240 238 238 239 238 238 239 239 239 239 240 240 239 240 
242 242 241 242 236 187 155 212 241 243 243 241 240 241 241 241 
241 240 242 239 243 242 240 240 241 240 242 242 242 242 243 242 
242 241 241 236 236 235 234 234 234 235 234 234 235 235 236 235 236 235 235 233 
235 234 234 236 235 237 232 173 111 168 235 240 238 237 235 234 
236 237 236 236 237 237 238 237 237 236 235 237 238 237 238 239 
238 238 237 238 238 240 239 239 239 239 239 239 240 240 239 240 
239 239 238 239 239 243 228 178 183 230 242 241 240 240 240 241 
240 240 241 241 241 241 240 238 240 241 241 242 242 243 241 242 
242 242 243 235 233 234 235 234 235 234 233 234 234 234 234 233 234 234 234 235 
234 233 233 236 235 191 134 121 213 238 236 236 235 235 235 234 
235 236 237 237 237 236 236 235 235 236 237 237 238 236 239 239 
238 237 239 239 238 237 239 239 239 238 239 239 239 239 239 239 
239 238 238 238 239 240 243 244 219 155 204 240 241 239 240 240 
239 240 240 240 240 240 241 241 241 241 242 241 241 241 240 242 
242 242 242 235 234 234 234 234 233 234 234 234 234 234 233 233 234 233 233 234 
234 234 238 222 147 142 226 236 240 236 236 235 235 235 235 234 
235 235 237 237 237 235 236 236 235 235 237 238 238 238 236 236 
239 239 238 237 238 238 237 237 237 240 239 240 238 238 238 238 
237 238 238 238 237 238 238 239 241 237 185 179 236 241 241 240 
240 240 241 240 240 241 241 241 238 241 240 241 242 241 242 243 
242 242 241 233 234 234 233 234 233 233 233 233 234 234 233 234 233 233 234 233 
232 233 218 98 160 237 236 238 235 234 234 236 235 236 235 234 
235 236 236 235 236 236 237 236 235 236 236 237 237 238 238 238 
237 238 238 237 236 237 237 237 238 236 235 237 237 236 238 238 
238 238 239 238 238 237 237 239 239 241 239 201 171 225 241 241 
240 240 240 240 240 241 241 240 239 240 240 241 242 242 242 242 
241 241 242 232 234 234 233 234 234 232 232 232 231 232 233 233 232 231 232 232 
233 233 180 199 238 235 235 236 235 235 235 235 234 235 235 234 
237 236 235 236 234 236 237 236 235 235 237 238 238 236 237 238 
236 237 238 237 238 238 237 238 237 237 235 236 238 238 240 238 
239 239 239 239 238 238 238 238 238 238 240 240 228 169 210 243 
242 238 240 240 240 240 240 240 240 240 242 242 242 241 241 242 
241 241 240 234 233 233 233 233 233 233 233 234 233 232 231 232 233 233 233 234 
234 183 209 236 234 234 235 234 235 235 235 235 236 236 234 235 
236 235 236 234 236 235 236 236 236 235 237 236 237 236 237 236 
238 238 237 239 238 237 238 237 237 236 235 237 237 238 236 238 
240 239 239 237 237 238 238 239 239 239 237 238 243 239 176 202 
241 241 239 239 239 240 241 241 240 239 242 241 240 241 241 242 
242 241 241 233 233 234 233 234 234 234 233 231 232 233 232 234 233 232 233 234 
186 205 239 238 234 234 235 234 234 235 234 234 234 236 236 234 
235 237 235 236 235 235 234 235 236 236 237 237 236 236 237 237 
235 237 237 238 239 239 237 237 236 239 238 238 239 238 239 239 
238 238 238 238 238 238 238 239 239 239 238 239 240 240 242 180 
204 239 242 240 239 240 240 240 239 240 240 242 242 242 242 242 
241 241 242 232 233 232 231 233 234 234 233 233 233 232 231 233 233 230 233 196 
201 239 234 234 234 233 234 234 233 234 234 234 235 235 234 234 
236 235 235 235 234 236 237 237 236 234 235 237 238 238 237 236 
236 237 237 238 237 237 237 238 238 237 237 238 237 236 238 239 
239 238 238 238 239 239 239 238 238 239 239 238 237 238 239 242 
183 210 240 240 240 241 240 240 240 240 242 240 240 241 241 242 
241 241 241 233 233 233 233 233 232 233 232 233 234 233 232 232 231 234 202 177 
237 234 234 233 235 234 234 235 234 234 234 234 234 235 236 235 
237 237 235 235 236 236 235 236 235 236 237 238 237 237 237 239 
236 236 237 237 237 237 237 238 238 238 239 239 238 239 240 238 
238 239 239 236 237 237 236 239 239 238 238 238 237 237 238 241 
238 180 209 242 240 239 240 240 240 241 240 242 241 241 242 242 
242 242 241 231 233 232 233 233 233 233 234 234 234 233 232 230 232 221 160 234 
234 233 233 235 234 233 234 235 234 234 234 234 235 235 233 235 
236 234 236 236 236 235 236 237 235 235 236 236 236 238 236 237 
237 236 237 237 237 237 236 238 236 236 237 237 236 236 238 235 
238 238 238 238 238 236 238 237 239 237 238 239 238 237 237 239 
241 238 179 221 242 239 240 239 241 239 241 241 241 241 241 241 
241 242 241 232 232 232 233 232 234 231 232 233 232 229 232 231 231 177 222 233 
233 234 233 233 234 234 234 233 233 234 234 233 234 233 234 235 
235 235 234 234 236 237 236 235 236 236 236 236 236 236 237 235 
235 235 236 236 235 236 235 236 238 235 237 236 236 236 236 237 
238 238 237 239 239 239 239 238 237 238 238 237 238 238 238 236 
237 240 235 171 231 241 241 240 240 241 241 241 241 241 240 242 
240 240 241 232 233 233 233 233 233 232 233 235 232 230 232 233 191 204 238 234 
233 234 234 234 233 233 233 233 232 234 234 234 235 235 235 236 
236 235 235 235 234 235 236 236 236 236 235 235 235 234 234 236 
235 235 235 235 235 237 237 236 236 237 237 235 235 237 237 236 
237 238 238 238 238 239 239 239 237 237 239 239 237 236 239 239 
238 238 240 229 175 241 241 240 240 240 240 242 241 241 242 242 
242 241 241 232 233 233 232 231 232 232 232 233 233 230 230 215 170 238 234 234 
232 233 234 234 235 234 234 233 233 232 234 234 234 234 236 235 
235 234 236 236 236 237 237 237 236 237 236 236 236 237 236 235 
235 236 236 236 235 234 237 235 237 236 235 236 237 235 238 237 
238 237 238 238 236 238 238 238 239 238 238 238 237 238 238 238 
240 240 239 242 210 182 240 239 240 240 241 241 241 241 240 240 
241 241 242 232 233 233 232 233 233 231 232 233 233 231 230 162 232 235 233 234 
234 232 232 232 232 232 235 233 231 233 234 234 234 234 234 234 
234 232 235 235 236 234 234 235 235 235 236 234 236 238 236 236 
236 237 236 236 236 236 234 236 237 236 237 235 236 236 237 235 
236 238 236 237 237 237 238 240 238 237 238 239 239 239 240 239 
239 239 239 239 240 184 213 239 239 238 240 239 240 241 241 241 
241 241 241 231 230 232 232 231 231 231 233 231 230 230 186 193 237 234 234 233 
233 231 233 232 232 234 231 233 232 234 233 234 233 232 235 235 
235 235 235 235 235 234 235 236 235 235 235 236 234 234 236 235 
235 236 235 235 234 236 236 235 235 234 235 236 235 236 237 235 
234 235 237 237 238 238 237 237 239 238 240 240 239 239 238 239 
239 239 240 236 240 239 171 238 238 239 240 240 241 241 241 240 
241 241 242 233 232 231 231 230 231 233 232 231 232 222 165 235 232 231 232 233 
233 233 233 233 234 233 234 232 231 231 233 234 232 233 236 234 
235 235 234 233 234 236 235 235 235 234 234 235 234 235 234 235 
234 235 235 234 235 234 237 236 235 236 235 235 235 235 235 233 
236 237 237 237 236 237 237 239 238 239 237 238 239 239 239 238 
238 239 239 241 240 241 226 192 241 238 239 241 241 240 240 241 
241 240 241 232 232 232 231 231 230 232 231 231 231 181 203 233 232 232 234 232 
232 233 232 233 232 233 233 233 231 233 233 233 233 233 234 234 
234 235 234 235 234 234 235 235 235 236 236 234 234 234 234 234 
235 234 235 235 234 235 235 234 235 236 235 235 235 234 235 234 
234 236 237 238 237 237 238 238 238 238 239 239 240 238 239 240 
240 239 240 240 239 239 243 190 230 238 239 240 240 239 240 239 
241 241 239 230 231 231 232 231 232 231 229 228 222 156 236 232 232 233 232 231 
232 233 234 232 232 232 233 233 232 234 234 233 234 233 234 234 
235 233 234 234 236 234 236 235 235 234 235 234 235 234 234 234 
234 234 232 235 235 234 234 235 235 235 235 235 235 234 235 234 
235 236 236 237 237 238 238 238 238 237 238 238 238 237 239 240 
239 239 240 239 239 237 239 238 178 240 239 240 240 238 240 240 
241 241 242 233 231 232 232 232 231 230 231 230 175 199 232 232 231 230 230 230 
233 231 231 233 233 232 232 233 231 232 234 233 233 232 232 234 
234 234 233 235 234 235 235 234 234 235 234 233 235 235 235 235 
233 234 234 234 234 234 235 235 235 233 235 234 234 234 234 234 
235 236 235 235 236 234 234 235 237 237 237 238 240 242 241 240 
239 240 239 238 238 240 239 241 182 221 238 239 240 240 239 241 
241 241 240 231 231 233 233 232 230 231 233 224 159 234 232 230 232 231 233 233 
231 232 233 232 233 232 231 232 232 232 232 231 232 233 232 232 
232 233 234 235 233 234 235 235 235 231 234 235 235 235 233 234 
234 233 234 235 234 235 235 235 234 235 234 233 233 236 235 233 
234 235 236 233 234 234 234 235 237 235 235 237 238 238 240 240 
239 239 238 238 239 241 238 239 238 172 240 238 240 240 240 239 
240 240 239 232 231 233 232 231 230 230 230 187 197 234 232 232 232 233 232 232 
232 232 232 232 232 230 230 231 231 232 232 232 232 235 233 232 
230 228 231 232 233 233 234 234 236 235 234 235 233 234 235 234 
235 234 234 233 235 234 234 234 233 233 234 234 233 234 234 234 
235 234 235 234 234 235 234 232 232 232 232 236 238 240 240 239 
239 239 239 239 238 239 240 239 242 167 239 236 238 240 239 240 
241 239 241 232 232 233 231 230 231 230 224 162 230 230 231 232 233 232 232 232 
232 231 233 232 231 230 230 233 232 234 234 233 230 225 226 222 
216 195 180 186 188 188 203 219 237 237 235 233 233 234 234 234 
234 234 235 233 234 234 233 233 233 233 232 234 235 233 234 233 
234 233 233 233 233 234 233 233 233 233 233 234 236 240 240 241 
238 238 239 241 241 239 239 237 239 191 209 240 239 242 239 240 
240 242 241 231 230 231 233 231 228 230 212 178 235 231 231 231 232 232 230 232 
233 232 231 232 233 232 233 235 234 228 217 203 159 121 145 110 
94 89 56 50 54 65 84 97 154 200 234 234 234 233 233 236 
234 234 233 234 234 233 234 233 232 234 234 235 234 233 234 234 
234 234 231 233 235 235 234 234 232 235 232 232 234 236 239 238 
240 241 240 238 240 239 238 240 239 220 184 241 240 240 241 240 
241 241 240 229 231 232 230 231 230 226 175 212 232 233 232 231 232 232 232 232 
231 230 231 232 234 232 231 205 156 112 94 81 87 94 77 71 
70 76 28 36 52 47 57 57 60 95 196 236 234 233 234 233 
235 235 234 234 234 234 233 233 233 232 232 231 233 236 234 235 
236 229 229 233 233 232 230 232 235 234 234 233 234 234 235 237 
239 238 238 237 239 240 236 235 238 239 162 243 240 240 240 240 
240 241 241 231 233 232 230 230 232 225 170 230 233 230 231 232 233 233 233 232 
232 233 232 231 231 230 190 59 44 50 58 75 96 92 98 70 
56 53 38 38 51 45 59 54 64 78 176 235 234 234 233 234 
234 234 233 233 233 233 233 232 231 226 216 211 209 203 187 181 
161 155 157 157 146 138 130 135 182 220 235 234 235 233 236 239 
238 238 240 240 240 240 240 237 238 242 148 236 241 240 240 240 
240 241 240 231 231 231 232 231 229 212 183 232 233 232 233 232 231 231 232 232 
231 232 231 230 232 231 226 192 121 82 106 170 198 212 219 189 
175 137 96 50 47 56 76 91 113 181 233 234 234 234 234 234 
235 235 233 234 233 234 234 231 146 77 66 74 74 80 79 80 
74 81 97 103 83 94 96 98 81 97 175 238 232 235 235 238 
239 239 239 237 238 239 241 240 239 239 178 212 241 238 241 241 
240 240 241 229 231 231 232 229 230 187 218 234 233 232 231 233 230 232 231 230 
231 230 231 232 231 231 231 235 236 220 231 234 232 232 234 235 
233 233 225 169 110 97 118 165 220 236 234 236 234 234 234 234 
234 234 233 233 233 234 234 233 113 52 55 70 99 124 139 151 
120 110 92 79 71 76 80 92 97 100 105 212 236 235 235 236 
239 238 239 238 238 239 238 236 239 238 222 170 241 239 238 240 
240 239 241 233 229 230 229 229 226 171 232 232 232 233 231 232 231 232 232 232 
233 231 231 234 232 230 232 232 232 233 234 232 231 234 231 232 
233 232 235 235 228 215 225 235 234 234 233 233 234 234 236 234 
234 233 233 235 234 234 234 234 159 92 150 192 222 235 232 238 
233 206 173 144 78 85 109 103 109 111 113 153 238 235 235 235 
238 238 238 238 240 239 239 239 240 238 239 164 241 240 240 240 
239 239 241 229 229 231 232 229 228 169 233 233 232 231 233 232 232 232 231 232 
231 232 232 232 231 231 231 232 232 233 230 231 231 231 231 230 
232 232 233 234 236 235 234 234 233 234 233 234 234 234 233 234 
235 235 234 234 234 234 234 234 226 213 239 237 239 238 239 236 
236 236 239 239 194 131 107 96 107 113 97 146 238 235 235 234 
237 238 238 238 237 237 238 237 240 238 237 173 225 241 240 240 
240 240 238 229 229 230 230 227 221 177 234 232 232 232 232 232 232 232 232 232 
231 231 232 233 232 232 233 232 232 233 232 231 231 230 230 230 
232 233 233 233 233 232 234 233 235 235 235 234 234 234 234 235 
234 235 234 234 235 234 234 234 236 238 238 238 234 234 235 235 
233 235 235 239 239 235 222 198 157 150 194 235 237 234 236 236 
235 238 238 238 237 236 237 238 238 237 238 197 202 242 240 238 
241 239 239 230 229 229 230 229 211 185 232 231 233 232 233 233 232 233 232 232 
231 232 232 230 233 233 232 233 232 232 232 232 233 232 232 231 
231 233 234 233 234 230 232 232 234 234 235 234 234 234 234 236 
234 234 235 235 235 235 236 235 235 236 236 235 235 234 234 234 
234 234 234 232 237 237 239 240 241 241 239 239 238 235 234 237 
236 238 236 239 238 239 239 236 238 236 236 221 175 242 239 239 
240 240 239 229 230 230 229 228 194 197 232 231 231 232 232 232 232 232 232 232 
231 231 233 232 232 231 233 232 231 232 232 232 234 233 232 232 
232 233 232 232 232 233 232 234 234 235 234 234 234 235 235 235 
234 235 234 235 234 235 234 234 235 234 236 236 234 234 235 235 
233 235 235 235 235 237 236 236 238 238 237 235 235 236 237 238 
237 239 240 237 238 237 237 238 236 238 236 236 158 243 240 239 
238 239 240 228 227 229 228 222 173 208 232 234 232 233 233 232 233 233 232 232 
230 232 233 232 232 233 234 232 232 232 231 233 233 234 233 234 
233 233 233 233 232 233 233 235 236 236 234 234 235 235 235 236 
234 236 235 236 235 235 235 234 235 235 235 236 235 235 236 235 
235 234 237 236 235 234 235 236 236 236 236 235 236 236 236 236 
236 236 236 237 238 239 237 237 238 238 238 238 151 240 241 240 
240 240 239 228 228 228 228 224 166 208 233 232 232 232 233 233 232 232 233 231 
231 231 233 234 233 232 234 231 234 232 234 233 233 232 233 233 
233 233 232 234 233 235 234 234 235 235 234 235 235 233 235 235 
235 234 236 236 236 235 236 235 235 235 235 234 235 236 236 235 
235 236 234 235 236 236 235 236 236 237 235 236 237 236 236 236 
236 238 238 237 237 237 238 237 238 238 238 237 164 233 241 239 
240 240 240 227 229 227 227 225 162 217 230 229 230 233 232 233 233 232 232 230 
232 231 232 232 234 234 233 235 232 233 233 234 233 233 232 234 
234 233 232 233 233 235 235 233 235 234 234 233 234 235 235 236 
235 235 235 235 236 235 235 236 235 235 235 236 235 235 235 236 
235 237 237 236 237 237 238 235 235 235 235 236 234 236 237 236 
237 237 236 237 237 238 237 236 240 239 239 239 173 218 240 240 
240 239 240 228 229 227 228 226 154 225 228 227 229 233 233 233 233 232 233 232 
231 231 232 232 234 233 234 233 233 234 234 233 233 234 234 234 
232 234 236 236 234 234 234 235 233 234 235 235 236 235 235 234 
231 235 236 236 236 235 236 235 238 236 237 235 236 236 236 236 
235 235 235 236 236 236 236 236 236 237 236 235 236 237 237 239 
237 237 238 237 238 237 237 238 238 238 240 239 201 205 241 240 
240 238 239 228 229 230 228 223 160 229 231 229 228 232 234 232 233 233 233 233 
232 234 232 234 233 234 233 233 233 235 233 234 234 233 233 232 
234 233 235 235 234 236 236 234 234 235 235 236 235 234 235 236 
234 235 235 235 234 235 236 235 234 236 235 235 236 236 237 236 
236 237 235 236 236 237 237 238 236 236 237 238 237 237 238 237 
237 238 239 238 237 236 237 237 237 239 239 238 202 198 240 240 
240 240 238 229 228 229 229 224 169 231 228 229 229 229 231 233 233 233 232 233 
233 234 232 234 233 233 234 233 233 235 233 234 234 235 234 233 
233 234 234 234 236 235 233 235 234 235 235 233 234 235 235 234 
234 235 236 236 235 235 234 237 238 234 236 236 234 235 235 235 
236 236 236 236 236 236 235 235 237 236 236 237 235 236 238 237 
237 237 237 236 238 238 238 236 239 240 239 239 211 197 241 240 
240 240 237 229 229 228 228 224 165 230 227 229 229 231 233 235 233 232 233 232 
233 232 233 233 234 233 233 232 233 234 233 234 235 232 233 234 
234 234 234 235 235 235 235 236 235 235 235 236 237 236 236 236 
235 234 235 236 235 235 236 234 236 236 236 236 236 236 236 236 
236 235 235 235 235 237 238 237 237 238 236 236 235 235 237 239 
236 237 237 236 237 237 237 237 237 237 238 237 208 199 239 240 
240 240 240 227 230 229 228 227 161 225 228 230 230 230 232 232 234 234 234 234 
234 234 234 234 234 233 234 234 234 234 233 234 234 233 234 234 
231 234 234 234 235 235 234 235 235 235 235 235 234 236 236 234 
236 236 234 235 235 234 237 237 237 236 236 237 236 236 236 236 
236 234 235 235 236 236 237 238 237 235 236 235 236 236 236 237 
236 238 238 238 237 235 235 237 236 238 237 235 206 201 241 241 
240 240 241 230 229 229 229 226 173 226 230 230 230 231 232 233 234 232 232 232 
232 232 233 233 233 234 234 235 235 234 234 234 234 234 234 234 
233 233 234 234 235 235 234 233 234 235 236 236 234 235 237 235 
235 234 231 236 236 235 236 236 236 237 237 236 236 236 236 235 
237 236 236 234 237 238 239 236 235 237 237 238 237 236 237 236 
237 236 236 238 236 237 235 235 236 238 236 236 205 208 241 240 
240 240 241 231 229 230 230 225 163 219 231 231 232 231 231 232 232 234 234 235 
234 232 234 234 233 234 233 233 233 234 233 234 234 234 234 235 
234 234 234 234 234 235 235 237 236 234 236 236 236 235 235 234 
236 237 237 237 235 235 237 237 236 236 235 237 237 237 236 236 
236 235 235 234 237 238 239 237 236 237 235 236 235 235 237 236 
237 237 236 237 237 237 237 236 236 237 236 238 204 216 237 240 
240 239 241 229 230 229 230 230 175 217 232 231 231 230 231 231 231 231 233 234 
233 233 233 232 233 234 234 233 234 234 234 234 234 235 235 234 
235 233 234 235 236 237 236 234 235 234 237 235 236 236 236 236 
237 236 236 233 236 236 235 236 236 236 237 234 236 236 236 236 
236 236 238 235 236 235 236 234 236 236 236 236 236 238 237 237 
236 236 235 238 236 235 236 236 236 236 237 236 197 230 239 240 
240 240 239 231 230 230 230 229 182 217 232 232 231 230 232 233 233 234 233 234 
233 233 232 233 233 235 234 235 234 234 234 233 234 234 235 235 
235 235 235 235 234 235 235 235 234 234 234 236 237 236 236 237 
236 236 236 236 235 238 236 236 237 237 236 236 237 236 237 237 
235 237 235 236 239 238 239 240 237 238 237 235 236 236 237 237 
236 237 238 236 236 236 235 236 236 236 234 237 184 236 238 240 
241 239 240 230 230 230 231 232 199 207 231 230 230 231 229 232 233 232 232 231 
233 233 233 232 233 234 234 234 234 235 234 234 234 230 234 235 
235 235 236 233 235 234 235 236 235 235 235 237 236 236 237 236 
236 236 236 236 236 236 237 236 236 236 237 235 235 236 236 236 
237 237 236 236 236 236 237 237 235 236 236 237 236 235 236 236 
237 236 236 235 236 236 236 235 237 237 236 239 170 238 240 241 
240 242 239 232 231 230 229 229 210 199 230 232 233 231 231 230 231 232 232 232 
233 233 233 233 233 234 233 234 234 235 235 234 234 235 234 235 
235 234 235 235 234 234 235 235 235 235 235 235 236 236 235 237 
237 236 236 236 236 236 237 236 234 235 236 236 238 237 236 235 
236 238 237 236 236 236 236 236 236 237 236 236 236 237 237 236 
236 237 235 235 235 236 236 236 236 235 238 231 170 241 238 240 
239 240 240 231 231 231 230 228 221 180 236 232 231 232 232 231 233 230 230 232 
232 233 233 232 234 234 236 235 233 235 235 233 235 235 235 236 
234 235 234 234 234 234 235 236 235 236 234 236 235 235 237 236 
236 237 236 237 235 236 235 235 236 236 236 235 235 235 235 235 
238 234 236 236 236 236 236 236 237 237 237 236 237 235 237 236 
235 235 236 236 235 234 235 236 234 235 239 156 228 239 238 238 
240 241 239 230 232 232 230 229 226 167 230 231 231 232 232 232 229 232 232 231 
231 233 233 232 234 234 235 235 233 233 233 234 234 234 234 233 
234 234 235 233 235 234 234 235 234 234 236 236 235 236 234 235 
237 235 237 237 236 236 236 236 236 235 236 236 236 236 237 236 
235 236 236 235 236 236 235 236 236 236 236 236 237 236 235 235 
236 236 236 234 236 236 235 236 236 236 227 171 240 239 237 237 
239 240 241 229 230 230 231 230 227 179 208 233 232 231 231 231 230 231 231 229 
231 234 233 234 234 233 234 234 233 235 234 234 234 234 234 233 
233 234 233 233 232 234 233 234 235 234 235 235 235 235 237 237 
236 236 235 236 234 235 236 237 235 236 236 237 237 235 235 237 
236 237 236 236 234 237 235 237 236 235 235 236 235 235 235 235 
234 235 235 235 234 237 237 235 237 236 175 191 238 239 240 240 
241 237 237 231 230 232 229 230 231 215 186 231 231 232 231 232 233 231 231 230 
232 233 232 232 233 233 234 234 234 234 234 234 234 233 234 234 
234 234 233 233 233 233 233 232 234 235 235 236 236 236 235 236 
236 235 235 236 236 236 236 235 236 235 235 235 236 236 237 237 
237 237 238 236 236 235 236 236 236 236 235 236 235 236 237 237 
235 235 235 237 235 236 236 236 236 238 174 219 238 240 238 240 
241 238 239 231 232 231 231 230 230 229 170 231 231 232 232 232 233 232 230 230 
232 233 233 233 234 234 233 235 234 234 233 234 234 234 234 234 
234 234 234 235 233 233 234 232 232 232 234 236 235 235 236 235 
234 235 235 236 235 235 236 234 235 235 235 235 234 237 236 237 
235 236 238 235 236 235 235 235 236 236 236 236 236 235 235 235 
236 235 234 234 235 234 236 235 234 232 170 237 239 240 240 239 
240 237 239 231 232 232 231 230 229 233 188 215 232 232 231 232 232 232 234 231 
231 234 232 232 233 234 234 233 234 234 233 234 234 234 233 233 
234 234 234 233 234 233 233 233 230 233 234 234 234 234 234 234 
234 235 234 233 234 236 235 236 236 235 234 236 236 233 234 232 
235 236 235 235 234 233 234 236 236 234 236 236 236 237 236 236 
235 234 235 235 235 235 234 236 234 210 177 239 239 239 237 239 
238 239 237 231 230 232 231 232 229 229 216 183 235 232 231 232 231 233 232 232 
233 233 232 231 234 234 233 234 234 232 233 234 233 234 233 233 
234 234 233 232 233 233 232 233 231 233 230 233 234 232 233 234 
235 234 233 233 235 234 233 233 234 233 235 235 234 235 233 234 
233 235 235 235 233 233 233 235 234 235 234 234 235 235 235 238 
236 235 236 234 235 233 233 235 235 177 211 239 238 238 239 238 
238 239 240 230 231 232 232 231 232 231 229 165 224 234 231 233 231 233 232 232 
233 233 231 232 233 233 234 232 233 234 233 232 233 233 231 232 
233 233 233 231 233 232 234 233 231 231 233 233 233 233 235 233 
234 234 234 234 232 234 234 237 236 237 235 236 235 235 234 235 
235 234 236 235 235 234 235 236 236 236 236 235 235 236 236 235 
235 236 237 236 235 235 236 236 236 149 231 238 239 239 238 240 
240 239 240 231 230 231 231 231 230 231 234 197 189 232 233 230 233 231 233 232 
232 231 232 232 232 233 231 233 233 233 233 234 233 231 233 233 
234 233 235 233 234 236 233 232 234 236 234 233 234 236 236 236 
234 237 235 235 234 234 238 236 236 235 236 235 235 235 234 235 
234 236 238 235 235 235 236 237 236 236 236 235 235 236 236 236 
236 236 234 236 235 235 235 237 197 179 239 238 237 238 239 239 
240 239 240 230 231 232 231 231 233 232 233 231 156 230 233 232 232 232 231 230 
232 232 233 231 232 232 233 232 232 232 234 236 234 234 235 234 
234 235 234 238 234 231 234 229 220 228 227 228 226 223 223 221 
224 223 219 201 203 206 191 187 183 197 197 215 209 210 206 193 
188 163 190 236 236 236 235 235 236 235 235 235 234 234 236 236 
236 237 237 235 235 234 234 238 142 229 239 239 237 238 238 238 
238 239 240 230 231 229 230 230 231 232 232 231 184 191 233 230 231 231 232 232 
231 231 231 233 231 232 231 230 233 229 230 228 228 225 221 213 
197 180 174 175 165 160 167 158 145 152 154 156 161 158 157 158 
165 173 175 168 174 183 186 194 188 182 180 180 176 169 151 136 
145 158 191 236 234 235 236 235 235 235 235 235 235 237 235 235 
236 235 236 238 235 235 235 207 167 243 238 240 239 238 238 239 
239 238 239 230 230 231 232 231 230 232 234 232 227 157 232 233 231 231 230 233 
231 231 231 231 229 231 232 230 222 160 150 150 150 151 159 167 
184 192 197 207 218 224 230 231 231 229 230 232 231 233 233 234 
233 235 235 234 234 235 234 236 236 236 235 237 235 237 237 236 
235 236 236 235 234 236 236 235 234 236 236 233 235 236 236 235 
235 235 235 236 235 234 236 152 215 240 238 239 239 238 238 240 
237 239 239 230 231 230 231 230 229 232 234 234 233 191 192 235 233 231 233 233 
232 231 232 231 231 230 231 231 232 234 236 235 237 233 234 235 
236 234 235 234 233 234 233 232 234 234 232 234 235 233 234 234 
234 233 232 233 231 233 236 236 235 235 235 234 235 234 236 235 
235 236 235 234 235 234 235 235 234 235 234 234 235 236 235 234 
235 235 236 235 236 239 206 152 240 238 238 239 240 238 239 239 
238 241 238 229 230 230 229 231 229 230 232 231 233 230 151 219 233 230 231 231 
231 231 229 231 231 232 230 231 232 233 234 233 234 234 233 234 
231 233 232 232 232 233 232 233 232 234 232 232 232 234 232 232 
234 233 233 230 232 232 232 233 233 232 233 233 233 235 235 233 
234 234 235 235 233 235 235 235 236 235 235 236 236 236 237 235 
236 236 236 235 236 235 146 216 240 239 237 238 238 238 239 238 
240 239 239 228 229 229 227 230 231 230 231 231 230 233 212 151 235 233 230 231 
231 231 230 227 229 230 230 228 230 232 232 231 232 230 232 233 
232 232 231 231 233 230 230 231 232 230 232 233 232 232 231 232 
232 232 232 233 231 231 232 233 233 234 233 234 234 232 234 235 
235 234 234 235 234 235 235 234 234 235 235 234 234 235 234 236 
236 235 235 234 236 193 171 238 239 239 239 239 240 239 238 239 
240 239 237 230 229 229 228 228 227 230 230 233 235 232 232 183 190 234 231 230 
230 230 231 230 230 230 229 227 225 231 232 231 231 231 231 231 
232 232 232 232 232 231 228 230 230 232 232 233 231 232 232 234 
233 234 234 232 233 232 232 235 234 234 234 234 233 234 234 235 
234 235 235 235 235 233 233 234 235 235 234 237 235 235 233 234 
234 235 235 236 226 128 222 239 236 239 239 238 238 238 238 237 
238 237 238 229 229 228 227 229 229 226 230 231 232 232 232 226 154 228 233 230 
227 229 230 230 231 230 229 230 226 229 231 232 231 231 231 232 
231 231 232 230 231 232 232 230 231 232 231 232 231 230 233 232 
233 232 232 234 231 233 233 233 234 234 235 234 234 233 234 234 
231 235 233 235 234 234 233 232 235 234 235 235 235 233 233 236 
235 236 235 237 168 176 241 237 236 238 238 239 239 238 238 238 
238 240 236 227 228 228 229 228 228 228 227 229 231 231 231 231 211 160 232 233 
232 231 232 232 228 230 230 227 227 229 231 233 232 232 232 230 
229 229 231 230 229 230 232 231 233 233 232 233 234 234 231 232 
231 233 233 233 234 232 232 233 233 233 233 234 233 233 232 235 
234 234 234 234 233 235 235 235 234 234 234 234 233 234 237 234 
234 235 238 200 153 236 239 239 237 236 237 238 239 240 239 239 
238 239 239 228 227 227 227 226 227 227 228 227 230 231 230 231 233 194 174 231 
231 231 229 232 232 230 229 228 230 230 230 230 230 230 229 231 
231 232 232 231 231 231 231 230 230 232 233 234 233 232 232 233 
234 231 232 232 231 233 233 233 231 232 234 233 233 234 233 232 
233 235 234 234 234 233 234 233 234 234 234 233 234 234 236 232 
233 238 224 140 225 239 237 237 238 238 237 237 239 236 236 238 
238 238 238 226 226 225 226 227 226 226 227 227 225 227 228 230 232 232 184 186 
233 232 233 232 231 231 229 229 227 229 228 229 230 229 231 232 
230 231 230 230 233 230 230 231 231 231 232 232 232 233 232 233 
232 231 234 234 234 233 232 233 233 234 234 232 234 232 234 233 
235 233 234 234 235 234 234 234 233 233 233 234 234 234 235 234 
234 233 149 198 239 238 236 237 237 237 237 237 237 237 237 239 
239 238 238 224 225 226 224 225 226 225 224 224 225 225 224 228 230 232 229 162 
191 232 232 231 229 227 226 226 226 224 226 228 231 231 230 232 
233 231 230 230 230 230 229 229 231 230 231 231 233 233 232 234 
233 234 233 233 232 233 234 234 233 234 234 233 235 234 233 232 
234 233 232 232 233 234 233 233 234 233 235 234 234 235 235 236 
236 167 177 238 235 237 238 237 238 237 238 237 238 238 238 236 
237 240 239 225 225 225 226 225 225 226 225 224 224 224 224 224 223 222 227 224 
153 192 229 227 226 223 226 226 226 227 226 228 230 230 230 230 
230 230 229 228 227 229 232 233 231 233 232 233 232 233 233 233 
234 232 234 232 233 232 233 234 232 232 233 233 233 233 235 233 
233 234 234 233 232 233 233 232 234 233 234 234 234 234 235 235 
177 181 240 237 235 236 237 238 235 238 238 238 237 238 239 239 
238 237 239 226 224 225 224 225 223 224 224 224 222 224 225 222 223 220 219 225 
217 144 170 221 224 226 226 227 226 228 228 228 230 231 231 229 
228 228 230 232 233 230 229 231 231 228 227 230 231 230 232 233 
233 233 233 233 232 234 233 233 232 234 234 232 233 234 232 232 
233 232 233 233 233 231 233 233 232 234 234 233 236 235 237 183 
164 238 239 234 236 237 237 235 236 238 236 238 237 237 236 237 
238 238 238 224 224 224 224 226 224 223 225 224 226 225 221 223 223 223 222 222 
222 217 149 165 224 227 226 225 224 229 227 228 229 229 229 229 
231 230 231 230 229 229 229 231 231 231 232 231 230 231 231 234 
233 232 231 232 232 233 233 233 233 232 232 232 233 233 233 230 
232 233 232 231 232 233 233 232 234 233 233 234 235 236 166 156 
233 237 235 233 236 236 236 237 236 237 239 238 239 236 236 238 
239 238 240 227 225 224 224 223 224 224 224 223 224 223 224 222 223 224 221 223 
225 227 224 163 147 219 228 228 227 227 228 227 230 230 230 230 
229 231 231 231 231 230 229 230 231 231 231 231 229 232 231 233 
232 233 233 233 232 232 232 233 232 232 232 233 233 233 232 234 
233 231 232 231 232 232 231 232 233 232 233 236 236 166 169 237 
237 234 233 235 233 235 238 236 235 235 236 237 237 238 238 239 
239 239 238 223 225 225 224 223 222 224 223 222 223 224 222 224 225 224 224 222 
225 223 225 228 186 125 193 227 227 228 226 226 228 229 229 228 
229 230 226 227 230 228 230 229 230 232 231 231 229 231 231 232 
231 232 232 233 231 232 231 232 230 233 234 232 231 231 231 232 
232 235 231 232 229 229 230 230 230 233 234 224 156 184 238 235 
234 234 233 234 236 235 235 234 232 234 236 237 235 235 235 237 
238 239 237 225 223 223 223 224 224 224 221 222 223 225 224 223 224 223 222 224 
224 223 226 227 227 201 129 170 225 227 229 226 227 228 229 229 
230 228 229 229 227 230 228 230 229 228 229 228 230 231 232 232 
231 232 232 232 232 231 231 231 232 231 232 232 230 232 230 230 
228 231 228 229 231 228 230 229 232 233 211 143 203 238 235 233 
233 234 234 234 235 235 235 236 235 235 234 235 236 238 235 234 
237 237 239 222 222 225 224 224 224 224 224 223 224 224 223 222 224 223 225 225 
225 222 224 225 225 227 218 157 143 196 227 227 227 228 226 228 
227 228 228 229 230 227 229 228 228 229 229 230 228 230 230 232 
231 231 232 231 230 231 230 230 229 229 231 232 231 226 231 230 
230 228 228 228 231 229 230 229 232 189 157 221 237 234 233 233 
233 234 236 234 234 235 235 233 235 232 234 235 235 235 235 236 
236 238 238 222 224 223 222 222 223 224 223 224 223 224 224 223 225 225 223 224 
224 226 225 225 225 227 228 225 197 127 155 217 231 230 229 228 
229 229 228 227 228 228 229 228 228 229 227 227 231 231 231 230 
231 229 229 230 230 233 231 231 231 232 231 231 229 230 229 230 
230 228 229 232 232 234 233 221 155 168 235 235 234 233 231 231 
231 232 234 233 234 234 234 235 234 232 234 234 234 234 233 234 
235 236 238 223 223 223 223 223 223 225 224 225 224 224 223 224 225 223 226 226 
225 227 225 226 227 227 227 227 230 226 173 126 164 222 229 229 
231 229 229 230 226 228 228 227 227 227 228 227 226 227 227 228 
230 230 231 230 230 230 231 232 230 229 228 228 229 227 229 229 
231 233 235 233 231 215 157 152 213 238 234 232 230 232 230 233 
234 234 234 236 233 234 234 235 235 235 235 235 234 235 235 233 
235 237 236 222 224 223 221 221 223 224 223 224 225 223 222 225 227 226 224 224 
225 226 228 227 226 227 228 222 225 227 230 216 165 143 163 214 
228 231 229 228 229 229 228 227 226 224 228 227 228 227 229 226 
230 228 229 228 229 231 230 231 228 227 227 229 228 230 227 230 
229 235 235 210 157 133 194 237 234 232 231 231 231 231 231 230 
230 234 234 234 236 233 234 233 233 235 235 235 234 235 234 232 
235 235 236 222 221 222 222 222 223 224 224 223 224 224 225 226 225 224 224 225 
225 227 227 226 226 224 225 223 223 224 226 231 229 219 185 141 
157 205 217 225 224 229 228 229 227 225 225 226 227 225 226 227 
227 227 228 228 230 228 229 227 227 227 228 227 228 228 229 227 
227 203 132 147 199 233 229 229 229 230 232 232 231 231 232 233 
233 233 234 234 231 232 235 234 234 234 231 233 233 233 235 233 
234 235 234 221 219 222 223 221 221 223 222 221 222 223 222 222 225 225 225 225 
226 225 226 226 225 226 225 224 226 224 225 226 225 226 226 222 
192 151 113 138 178 212 217 223 227 224 225 226 225 221 224 226 
226 225 226 226 229 228 228 228 230 228 230 231 233 230 219 177 
152 156 205 228 230 229 229 226 226 230 231 230 232 230 230 231 
232 232 233 232 232 233 234 234 233 232 234 232 232 232 234 232 
233 234 234 220 225 222 223 224 224 222 222 224 225 223 224 225 224 227 223 223 
226 226 226 226 225 223 225 225 227 226 225 227 226 225 226 227 
227 232 211 177 140 105 127 159 194 202 212 221 223 221 222 225 
224 227 227 228 229 229 230 230 229 230 225 204 174 158 160 185 
226 234 230 230 228 227 227 226 223 224 223 228 230 231 229 231 
232 233 231 232 229 232 232 233 231 232 232 233 234 233 231 232 
233 233 233 221 220 222 222 222 221 224 224 222 223 223 224 222 223 223 223 225 
227 227 226 227 227 225 225 223 223 224 226 227 225 223 224 225 
227 228 230 232 232 219 193 154 128 106 113 154 207 228 225 229 
230 229 226 227 223 222 219 204 178 165 168 168 200 227 233 231 
233 229 229 228 226 227 226 227 228 225 225 227 229 229 229 230 
230 232 230 231 232 232 232 231 233 230 232 232 231 231 230 232 
232 232 232 221 220 220 223 222 222 223 222 222 222 221 221 220 222 224 225 225 
224 226 224 224 227 225 226 226 227 224 224 225 226 226 223 223 
224 225 228 230 230 230 230 231 230 222 204 174 158 167 170 176 
166 168 166 156 159 171 189 198 213 226 224 229 228 229 230 230 
227 227 227 227 228 228 227 227 228 227 228 226 228 231 229 231 
231 230 232 231 229 231 232 230 231 231 232 232 232 230 229 232 
231 232 233 222 222 223 222 222 223 218 221 221 223 222 224 221 222 225 222 225 
225 226 226 225 225 227 226 224 223 223 225 225 224 224 227 223 
222 227 227 227 223 226 225 229 228 229 229 230 228 226 230 231 
226 226 226 228 229 225 228 229 229 228 228 230 229 228 227 226 
226 228 228 228 226 226 227 227 227 228 230 231 230 231 230 231 
230 231 228 229 229 230 229 231 230 231 229 228 231 230 231 231 
231 231 230 220 221 222 222 219 218 220 220 222 223 224 224 222 224 223 226 224 
224 223 224 226 225 226 226 225 225 226 225 225 224 226 224 225 
227 224 226 225 226 225 229 226 225 224 226 226 228 228 229 227 
230 228 226 225 225 228 229 228 228 226 228 228 226 226 227 228 
226 227 227 227 228 228 228 227 226 228 230 229 231 230 232 231 
230 232 231 229 229 229 231 231 231 229 229 228 230 231 231 233 
231 231 231 223 222 222 223 224 223 221 222 224 223 221 222 222 225 225 224 225 
224 223 225 222 226 224 224 225 226 227 227 225 226 225 227 225 
226 227 224 226 228 229 226 224 224 224 224 225 225 225 227 227 
225 223 224 223 226 227 227 226 226 226 223 227 227 228 227 227 
228 228 227 226 228 228 226 225 226 227 231 231 230 230 229 229 
228 229 231 230 229 231 230 231 229 229 229 229 227 229 227 229 
230 231 232 222 222 222 223 223 222 218 218 223 223 225 221 220 223 223 224 223 
223 226 226 224 224 224 225 225 224 225 224 225 225 225 224 226 
225 226 225 226 229 228 227 226 224 225 226 223 224 223 224 226 
227 225 223 225 225 225 225 226 226 226 223 225 228 226 226 227 
227 228 230 230 228 227 226 228 231 228 228 229 229 229 230 229 
230 231 228 229 230 230 231 229 229 231 230 229 229 231 231 231 
230 230 230 221 223 223 222 222 223 220 221 222 223 221 222 223 224 223 223 224 
222 225 225 225 225 225 225 226 227 226 225 224 227 225 226 225 
224 224 225 226 227 228 228 224 226 223 224 225 224 226 225 225 
224 224 225 225 226 226 225 225 224 224 226 226 227 228 226 228 
227 228 227 227 229 228 229 228 228 229 231 228 231 227 230 231 
231 229 231 228 229 228 229 230 230 229 231 229 228 230 230 230 
231 230 230 