P2
# Created by IrfanView
100 100
255
215 212 213 216 217 218 221 222 221 220 219 218 218 217 216 218 219 
219 218 219 219 219 218 220 218 217 219 219 218 220 219 219 217 
220 220 220 221 221 220 221 222 222 222 222 222 222 223 224 225 
225 224 224 223 224 224 225 225 224 224 225 225 226 228 226 228 
229 229 228 227 226 227 229 230 228 226 227 229 229 229 230 229 
229 229 228 228 230 230 228 229 229 228 229 229 228 230 229 230 
228 226 230 215 217 217 217 216 219 218 221 218 220 219 219 218 220 221 219 221 
218 219 220 219 219 219 220 219 219 218 219 221 220 220 217 220 
221 220 220 220 220 221 221 220 221 221 221 221 224 224 224 223 
224 225 224 225 224 223 224 226 224 225 225 225 226 225 227 228 
227 227 228 228 227 228 228 229 229 230 229 230 230 228 228 229 
229 228 228 228 229 229 229 228 227 229 230 228 229 231 229 228 
229 228 227 217 216 215 216 214 216 219 220 220 220 218 219 219 220 219 221 221 
221 220 220 219 222 217 219 221 220 218 222 222 220 221 220 220 
219 220 220 219 222 221 221 222 223 220 221 221 221 221 221 223 
222 223 222 222 223 225 224 223 225 223 224 224 224 224 229 228 
228 226 226 229 229 228 227 228 227 228 229 230 228 228 229 229 
229 229 231 228 229 228 227 228 229 229 228 229 228 228 228 228 
231 230 231 218 217 217 218 218 219 218 220 220 221 220 220 220 220 219 219 221 
221 221 219 220 221 221 219 219 219 219 218 218 220 220 220 221 
220 220 220 221 221 222 222 221 221 221 218 220 223 221 221 223 
222 223 223 223 227 226 221 224 225 225 225 224 223 224 223 227 
227 227 228 229 227 228 228 228 231 229 230 229 229 229 228 230 
229 229 230 229 229 229 231 229 229 229 230 230 230 229 230 229 
229 229 228 217 218 218 218 217 218 218 220 219 221 220 222 220 219 221 220 220 
219 222 218 220 218 219 220 220 220 219 218 220 220 219 222 221 
220 221 220 220 221 220 219 220 221 223 225 225 225 224 225 224 
224 225 225 229 222 225 225 227 231 229 225 226 227 225 225 227 
227 229 228 227 229 228 229 229 230 228 229 229 229 231 230 229 
230 231 231 231 232 229 230 230 229 231 231 229 229 231 229 228 
230 230 231 216 218 219 218 220 219 219 218 220 221 220 220 221 219 219 220 221 
219 220 221 221 221 221 220 220 223 222 221 221 224 225 225 223 
223 221 222 223 219 219 220 224 226 228 225 221 219 219 215 216 
215 210 214 216 156 182 208 212 219 223 222 225 226 227 227 229 
228 227 227 227 228 228 229 229 229 230 229 228 230 228 229 231 
230 229 229 229 228 227 230 230 231 231 230 230 229 230 230 229 
230 233 230 219 219 217 217 217 219 218 221 221 219 218 221 221 220 220 222 222 
223 221 221 220 221 220 221 223 220 220 222 222 221 224 225 223 
221 222 220 220 221 224 227 218 191 170 150 145 145 139 151 157 
158 153 165 147 124 110 128 124 131 153 175 197 214 221 227 230 
231 232 231 229 228 229 231 227 229 229 230 231 230 228 229 231 
230 231 230 229 232 232 231 230 228 229 230 231 233 232 230 230 
230 231 232 219 220 218 213 218 221 221 221 221 222 220 222 221 221 220 222 221 
221 224 224 221 221 222 221 221 221 220 223 222 225 224 227 226 
224 223 224 227 226 211 152 130 167 186 204 221 232 232 232 232 
231 229 231 230 229 223 222 208 204 165 129 111 114 149 184 212 
226 229 232 231 229 230 230 229 231 230 230 229 230 232 232 231 
231 231 230 232 230 230 229 231 232 230 231 229 231 231 229 229 
230 232 231 218 220 221 222 218 221 220 221 222 221 221 221 223 223 222 223 220 
222 221 223 223 222 222 222 222 222 222 224 224 224 226 227 225 
223 231 228 214 175 137 190 229 232 232 232 231 232 229 232 229 
229 231 231 232 233 231 231 233 235 233 236 224 200 168 121 116 
150 202 223 228 231 229 230 232 228 229 230 231 230 231 231 231 
231 232 232 231 231 233 231 230 232 232 230 233 232 231 231 231 
231 230 231 220 221 220 220 220 221 220 220 221 224 223 223 222 224 220 223 220 
223 223 221 221 221 221 224 223 222 223 222 222 225 225 228 226 
224 199 162 152 189 223 230 232 232 230 231 230 228 230 232 228 
229 229 231 230 230 231 230 230 229 231 233 233 233 233 231 218 
162 136 120 183 219 228 231 230 231 230 231 231 231 231 232 232 
232 232 232 232 231 231 232 232 230 232 231 231 233 232 232 232 
232 232 229 221 222 219 221 224 223 222 221 222 222 224 223 222 222 223 221 222 
225 223 223 223 226 227 223 222 222 222 223 225 229 229 221 174 
154 180 218 231 233 232 231 229 227 227 229 227 228 232 229 229 
230 231 229 233 232 230 230 228 229 230 232 233 232 233 232 234 
235 229 194 128 110 164 225 233 229 228 229 229 229 232 232 232 
231 232 231 233 231 232 234 231 232 233 232 231 232 230 229 232 
233 231 231 224 222 225 223 220 221 224 223 223 223 221 221 222 222 220 223 224 
222 224 224 221 221 224 224 222 222 222 226 228 230 190 151 192 
226 232 231 232 229 229 229 229 230 231 231 230 229 230 231 229 
231 231 228 231 232 232 230 230 231 230 231 230 232 233 230 231 
231 235 234 231 186 126 122 178 226 231 232 231 230 232 232 232 
233 233 233 233 232 231 231 233 232 233 232 232 232 232 232 233 
231 233 234 223 223 223 222 222 222 222 223 223 224 224 224 222 224 222 224 223 
223 223 223 223 224 222 223 222 226 225 224 207 164 193 224 231 
232 232 230 229 229 229 230 231 230 228 231 230 230 231 232 230 
231 231 231 232 230 229 231 231 232 230 231 231 232 233 233 230 
231 232 233 235 237 234 178 104 122 203 233 230 231 230 231 233 
233 231 233 232 232 232 232 230 232 231 232 233 232 232 234 233 
232 232 232 227 227 223 222 224 225 225 225 225 223 225 227 223 224 224 224 224 
224 224 223 223 224 224 224 225 226 218 162 173 225 232 229 231 
230 229 230 230 229 230 230 228 229 229 232 229 231 231 231 233 
231 232 231 232 232 231 232 231 232 232 231 233 229 232 232 233 
231 231 232 235 233 234 238 227 146 100 175 226 233 234 233 233 
232 234 232 233 232 234 234 232 234 233 234 232 233 233 233 234 
234 233 234 226 225 225 225 224 225 225 225 223 222 225 226 226 227 226 226 225 
227 226 224 223 226 224 227 233 209 146 202 233 230 229 229 230 
230 230 230 232 231 231 232 232 232 233 233 233 231 231 232 231 
232 232 233 233 232 233 232 233 231 232 233 233 233 233 233 232 
232 234 234 236 232 233 234 237 231 186 117 150 224 235 234 232 
233 232 233 233 234 234 233 234 234 234 234 234 234 233 233 236 
234 233 234 226 226 226 224 227 226 227 226 229 229 226 226 230 227 223 223 223 
227 230 227 225 226 230 227 187 166 226 231 229 227 229 229 231 
230 233 231 230 231 233 232 231 231 232 232 230 232 232 231 232 
233 233 232 232 233 233 233 232 233 232 233 231 231 234 233 233 
234 234 233 235 233 233 232 233 234 237 210 127 130 227 234 234 
233 233 233 234 234 232 233 232 233 233 232 235 235 232 232 234 
231 233 233 228 226 230 228 228 228 227 228 230 227 228 229 226 227 227 227 227 
226 227 225 227 230 223 169 176 231 227 227 229 229 230 230 230 
231 230 230 231 231 230 232 231 231 234 231 233 232 233 232 233 
232 233 233 234 233 233 233 234 233 232 234 232 233 234 234 234 
235 234 234 233 234 233 232 233 234 235 241 235 143 118 213 236 
234 233 234 233 233 233 234 235 234 235 235 233 232 234 234 233 
234 234 234 227 228 227 228 228 228 227 227 231 228 225 224 228 227 227 228 226 
226 226 227 228 220 162 205 234 232 229 231 231 230 230 229 231 
231 231 231 231 232 233 232 231 232 232 232 233 234 233 233 234 
231 231 230 233 233 233 233 231 232 233 235 233 233 234 234 233 
234 233 233 233 233 234 234 235 235 235 236 238 236 176 116 211 
236 235 235 233 235 234 235 234 234 234 234 234 233 235 235 235 
234 233 234 229 230 228 228 228 228 230 229 230 230 230 230 229 229 227 228 231 
228 226 231 226 155 219 234 231 229 232 231 231 230 230 230 231 
231 231 231 231 233 234 232 228 232 233 234 233 233 233 233 232 
232 233 234 234 233 233 232 234 234 233 233 233 233 234 234 234 
234 235 235 234 235 234 235 234 235 235 235 237 239 241 194 120 
202 238 232 235 234 234 232 235 234 236 235 235 236 235 235 235 
235 234 234 228 229 229 230 229 229 230 227 229 228 228 228 228 229 227 232 228 
228 229 228 154 213 233 232 231 231 230 231 233 231 233 232 233 
233 231 231 232 233 232 231 234 233 232 233 234 232 235 235 232 
233 233 233 232 233 234 233 234 234 234 233 233 233 234 235 235 
235 234 235 235 235 235 234 234 235 234 237 236 236 238 241 189 
125 224 237 234 234 233 234 236 234 234 234 235 236 235 235 235 
234 235 233 228 230 228 228 230 229 228 231 230 230 230 229 230 229 230 229 230 
230 232 169 219 235 230 232 233 232 231 231 232 232 232 233 231 
233 233 233 232 233 233 233 233 233 234 234 233 234 234 234 233 
234 233 233 233 234 234 233 233 233 234 233 234 233 235 235 235 
234 235 234 234 235 234 238 236 235 236 237 236 237 237 237 241 
175 136 227 234 234 234 235 234 233 235 235 234 235 236 236 236 
235 234 234 231 231 230 230 229 228 230 229 231 229 229 227 229 230 231 231 230 
231 174 205 235 232 231 231 231 232 233 231 232 233 232 232 232 
232 232 232 233 230 232 233 233 233 234 234 234 233 233 236 235 
234 234 233 234 234 233 233 234 234 234 234 235 235 235 234 234 
235 236 234 234 236 236 236 236 235 236 235 235 236 238 239 238 
240 201 168 233 236 232 235 234 236 236 237 234 235 236 234 236 
236 235 234 229 229 229 230 231 231 231 231 231 230 230 232 228 228 229 231 233 
182 191 235 232 232 231 232 233 231 232 233 233 233 233 232 233 
232 231 233 232 234 234 233 233 233 233 234 233 235 234 235 236 
235 233 234 233 233 234 234 234 234 235 233 233 234 235 236 236 
236 237 235 237 235 236 238 237 238 235 235 234 236 236 237 238 
235 239 196 182 233 234 232 235 237 235 236 234 235 234 235 237 
235 235 235 231 230 230 230 230 230 231 230 231 231 231 228 229 230 229 234 210 
176 239 233 232 232 232 232 233 232 233 231 233 233 233 234 233 
233 232 234 234 233 231 233 234 233 234 234 234 234 235 234 236 
234 233 233 233 232 234 234 235 234 234 234 234 235 234 235 235 
235 234 235 234 235 234 235 235 235 238 236 236 235 236 236 236 
235 237 237 172 201 236 235 235 237 238 238 236 237 235 236 237 
237 237 237 233 232 231 232 231 230 229 230 230 231 230 228 232 229 231 230 168 
237 234 233 232 233 233 231 231 232 232 233 235 235 234 233 233 
233 233 233 232 232 234 234 234 234 234 234 234 234 235 235 235 
235 235 233 233 233 233 233 234 236 235 234 234 234 234 234 233 
235 235 235 236 236 237 235 237 238 237 236 236 236 237 234 234 
234 235 234 232 149 219 235 238 234 235 233 235 236 235 235 235 
234 236 236 227 230 231 229 229 231 232 232 230 231 232 230 229 230 234 169 227 
233 234 231 235 234 232 233 233 233 233 233 233 234 234 233 233 
233 232 233 233 234 234 234 235 234 234 234 235 235 235 234 234 
236 234 233 235 234 236 232 232 233 233 232 234 233 234 233 234 
235 234 233 233 234 232 235 232 235 234 235 236 235 233 234 234 
234 236 234 235 227 158 235 236 235 236 236 235 237 236 236 236 
235 236 237 231 230 232 233 231 230 232 231 231 231 229 230 231 232 198 202 236 
234 233 236 232 231 233 233 232 234 233 233 233 233 232 236 234 
234 233 234 233 234 234 234 234 233 232 235 233 234 234 236 235 
235 236 234 233 233 233 234 234 232 234 233 233 234 234 234 234 
233 232 234 234 235 239 235 235 236 235 235 234 236 236 236 236 
234 235 236 234 239 204 197 237 236 235 235 235 234 236 236 237 
237 237 235 232 231 231 231 230 232 232 232 231 232 233 232 232 230 163 235 233 
233 231 233 233 232 232 233 233 232 233 233 236 235 236 237 235 
235 238 236 234 233 232 230 229 227 232 229 236 236 238 236 235 
236 237 234 234 233 233 233 233 234 234 234 234 231 233 233 233 
233 236 236 235 239 237 237 236 236 235 237 237 235 235 234 235 
236 235 235 234 232 236 171 230 237 236 236 235 236 236 236 237 
236 236 237 231 231 232 231 231 232 232 232 233 233 232 231 235 196 214 236 233 
234 233 234 234 234 234 232 233 232 235 234 234 232 227 208 181 
198 225 237 235 233 235 231 232 230 232 234 234 234 234 234 238 
235 235 235 235 235 234 234 232 235 234 235 233 234 234 234 234 
237 235 219 222 204 165 219 235 236 238 236 236 237 235 235 235 
235 234 234 234 233 238 204 185 238 236 235 234 234 235 236 236 
236 236 237 232 232 232 233 231 231 232 232 231 231 233 233 230 176 236 234 234 
235 234 234 233 234 232 234 234 237 228 215 173 187 152 121 136 
148 143 196 234 234 233 233 234 233 234 233 233 235 236 235 236 
235 235 235 234 235 235 234 235 233 235 233 233 232 232 232 236 
216 178 143 140 147 173 151 158 206 237 239 237 236 237 237 236 
235 235 237 237 235 232 239 175 233 234 235 236 234 235 236 236 
236 236 237 233 233 233 232 232 231 231 231 230 232 231 233 176 228 235 234 233 
233 234 234 232 234 235 235 237 231 145 134 131 182 203 215 221 
230 201 160 171 233 233 233 232 233 233 235 233 234 236 236 236 
236 234 235 235 234 235 235 235 233 233 234 234 234 231 236 227 
164 155 184 225 232 229 222 185 171 177 230 235 234 235 235 236 
235 237 233 236 236 234 237 222 188 236 235 236 234 235 234 237 
237 237 237 232 232 231 232 233 233 232 232 231 234 233 230 181 238 234 233 234 
233 233 233 233 234 235 232 235 176 136 173 225 238 240 236 237 
236 237 241 158 167 232 236 235 236 236 236 237 236 236 236 236 
237 237 236 235 234 235 236 234 236 236 234 235 235 232 228 148 
148 199 233 232 233 233 236 234 228 162 171 224 237 237 237 237 
237 233 237 237 235 235 236 237 174 230 235 236 236 236 235 236 
238 236 237 233 232 232 233 233 232 231 233 232 234 237 174 234 236 235 234 235 
234 234 234 234 233 233 234 236 147 169 238 236 233 234 234 234 
235 233 238 238 151 224 238 235 236 235 235 237 235 235 236 237 
235 235 235 235 235 235 235 234 233 234 235 235 235 237 178 148 
211 233 233 233 231 232 232 231 234 236 177 166 240 236 238 236 
236 237 236 237 235 235 235 235 209 195 235 234 234 236 234 235 
237 237 237 233 233 233 234 234 232 233 231 232 233 227 184 239 235 235 235 234 
234 235 233 233 233 234 235 233 157 230 237 234 235 235 234 234 
234 234 235 239 217 219 236 235 236 236 236 236 236 237 237 235 
235 236 235 237 237 235 235 234 236 236 233 234 235 237 160 180 
232 232 232 233 232 231 231 233 234 235 236 209 237 237 237 237 
236 236 238 238 236 235 235 235 231 169 234 236 234 236 236 235 
236 235 236 233 233 233 232 234 233 235 233 232 238 193 222 235 234 233 234 235 
235 235 235 234 235 234 234 235 218 232 235 235 234 236 234 235 
235 236 234 237 241 238 237 236 235 236 235 236 236 237 237 236 
236 236 236 237 238 237 237 235 235 234 235 234 236 236 133 197 
234 232 231 234 235 234 234 233 235 234 238 235 238 236 236 237 
236 237 238 237 236 235 235 234 238 179 214 237 236 237 235 235 
236 237 237 234 233 235 233 235 233 234 233 233 236 179 240 235 235 235 236 235 
233 235 234 234 235 234 235 236 238 236 235 237 218 192 214 236 
236 235 236 235 238 237 236 238 237 236 235 235 235 237 236 238 
236 237 236 235 237 234 236 235 235 237 236 237 236 239 213 237 
233 232 230 228 211 232 232 233 234 235 235 236 238 238 237 239 
238 238 239 238 236 237 235 237 238 209 183 233 234 236 237 235 
237 236 237 231 232 234 235 235 233 233 234 235 211 204 238 236 237 234 233 233 
235 235 234 237 235 235 235 236 236 234 232 236 137 125 94 159 
238 235 237 237 235 237 237 237 236 237 237 238 237 236 237 236 
236 236 237 236 237 238 237 237 236 236 238 236 236 238 236 236 
234 233 233 183 153 144 206 233 234 236 235 237 237 238 237 237 
237 239 237 237 237 237 236 234 237 236 169 232 234 234 236 237 
238 236 236 236 234 232 235 234 233 234 235 236 187 238 236 235 236 236 237 235 
235 235 236 235 234 234 234 235 236 234 236 196 116 94 110 97 
208 239 236 236 237 236 234 238 237 237 237 238 236 237 236 237 
236 237 237 237 235 236 236 237 237 237 236 236 234 239 236 237 
235 235 218 165 167 130 153 223 234 234 237 238 237 237 239 236 
237 238 235 235 236 237 237 239 237 240 186 224 238 238 238 236 
237 237 237 233 233 235 234 234 232 234 235 235 190 240 234 235 236 235 235 236 
236 236 235 235 236 236 234 236 236 234 239 131 86 103 127 88 
183 238 236 236 237 236 238 238 238 237 238 236 238 238 239 240 
239 238 239 238 237 236 238 236 240 239 238 236 237 238 239 238 
236 234 192 144 113 144 106 171 237 235 235 238 238 238 239 237 
237 237 238 237 236 236 238 236 238 238 212 199 236 238 235 236 
236 237 237 234 234 235 234 235 233 233 234 202 218 237 236 236 236 235 237 237 
236 235 236 237 236 238 236 237 236 235 236 135 106 127 178 105 
182 237 236 238 239 238 237 237 237 238 239 238 236 239 239 238 
238 236 237 237 237 238 235 238 237 239 238 238 236 238 240 239 
238 233 167 110 157 149 96 153 235 236 236 236 238 237 240 237 
238 237 237 236 236 236 237 238 238 237 236 172 239 237 238 237 
237 237 237 234 234 235 234 236 232 233 236 182 237 238 236 235 237 236 235 235 
237 237 236 237 236 237 236 236 238 235 226 112 95 156 139 89 
193 240 238 237 237 238 238 237 238 236 238 237 241 237 237 239 
240 238 237 238 238 237 239 238 237 238 237 237 238 237 239 239 
240 221 139 123 143 104 108 161 237 236 238 238 236 237 238 238 
237 237 236 238 237 236 237 237 237 236 237 172 238 238 238 237 
237 238 238 236 236 233 234 234 236 234 235 179 240 237 237 238 236 236 236 237 
236 237 235 236 236 238 237 237 236 236 216 186 129 101 106 116 
224 238 239 238 239 238 238 240 240 240 239 240 236 239 237 237 
238 237 237 237 239 238 238 238 237 239 239 239 239 240 238 238 
239 229 135 127 106 133 137 177 235 238 237 237 237 236 238 238 
238 236 237 238 237 237 239 237 236 237 239 181 230 238 238 236 
236 238 238 235 236 237 237 236 236 235 230 184 240 237 236 237 236 238 238 237 
237 237 238 237 236 238 238 236 236 238 228 173 99 93 105 157 
240 239 237 238 239 238 237 237 237 238 239 239 238 238 239 238 
237 239 239 239 238 240 239 239 240 238 239 237 239 237 239 239 
238 226 128 98 99 114 129 221 237 237 237 237 237 238 237 237 
237 235 238 237 239 237 237 237 237 238 239 215 211 238 238 238 
239 237 238 237 235 237 239 236 236 235 199 225 239 238 237 237 238 237 237 237 
237 237 238 238 239 240 239 236 238 237 236 220 196 136 138 227 
239 239 239 238 237 237 237 240 238 238 238 239 238 240 238 239 
237 238 239 239 238 238 238 238 237 238 238 240 238 240 239 238 
239 235 148 120 135 155 226 239 236 236 236 237 238 237 237 239 
238 238 236 237 237 239 239 238 238 238 239 220 201 240 237 236 
238 238 238 236 236 236 237 237 235 237 184 237 238 238 238 238 237 240 238 238 
238 238 238 238 238 221 237 238 237 238 238 240 243 238 241 243 
239 239 239 239 238 238 238 239 239 238 240 239 240 238 239 239 
239 239 239 238 238 239 239 239 240 238 240 238 239 239 238 239 
239 240 231 214 208 240 239 238 237 237 238 238 240 236 237 236 
237 238 237 238 238 236 237 235 236 235 239 226 188 242 239 238 
237 237 238 236 237 236 237 238 236 239 189 241 238 239 238 238 237 238 239 237 
237 239 239 239 240 242 240 238 238 237 240 240 240 242 241 241 
240 240 239 240 239 239 238 239 239 239 238 239 239 239 239 238 
238 238 239 240 239 239 239 239 238 239 239 239 238 240 239 238 
238 239 242 240 242 239 237 237 236 236 237 237 236 237 238 239 
237 236 237 239 237 237 238 238 238 237 237 234 188 239 237 237 
239 238 239 238 237 237 237 238 236 237 183 240 238 239 238 239 240 240 238 240 
240 239 240 241 240 240 240 240 240 240 240 241 241 240 240 239 
240 240 240 239 238 240 238 238 239 239 238 241 239 239 241 241 
239 240 238 239 239 238 239 239 239 239 239 240 240 239 239 239 
238 239 240 240 240 238 238 235 237 236 237 238 239 237 237 237 
238 240 238 237 238 237 238 238 237 237 237 238 193 238 238 238 
237 239 240 236 238 237 238 239 236 228 198 239 240 239 239 240 239 238 241 239 
239 239 240 241 239 241 240 240 241 240 241 241 240 239 240 240 
240 239 240 240 240 240 239 240 241 240 239 240 240 239 239 240 
240 239 240 239 239 240 239 239 239 239 239 240 240 239 241 240 
240 240 241 241 240 237 238 237 236 239 239 238 238 238 238 239 
238 237 239 237 240 238 238 239 238 239 239 239 182 240 239 238 
238 239 240 237 237 238 239 237 237 222 207 241 241 240 240 239 240 239 239 241 
241 240 240 241 240 241 241 240 240 241 241 242 241 240 240 241 
240 240 240 240 240 239 241 239 240 240 240 238 240 240 239 239 
240 240 238 239 240 239 239 240 240 240 240 240 240 240 239 240 
238 240 241 240 240 239 238 238 238 237 237 238 238 239 238 237 
238 238 238 239 237 239 239 238 237 240 238 239 185 240 239 240 
240 239 238 239 238 237 239 239 239 208 223 240 238 240 240 240 240 241 240 239 
241 241 240 239 240 241 240 240 240 239 241 240 241 240 242 240 
239 241 241 242 241 241 239 240 239 239 240 238 238 239 240 240 
241 239 239 240 241 239 239 240 240 240 238 238 241 239 239 240 
240 240 240 240 240 240 239 238 237 235 238 239 238 236 238 239 
236 238 237 238 239 239 239 239 240 240 239 240 178 240 239 239 
239 239 238 239 238 238 240 240 241 208 230 239 239 240 241 240 240 241 241 242 
241 241 240 240 241 241 241 241 242 241 240 240 242 239 239 241 
242 241 242 242 241 242 241 240 239 241 240 241 241 241 240 241 
240 239 238 238 238 239 239 238 240 239 241 239 238 240 240 240 
238 238 241 239 241 239 239 237 239 241 240 239 238 239 239 239 
240 239 238 240 240 239 239 239 240 239 241 239 146 239 240 240 
239 239 239 236 238 241 239 240 241 203 227 240 240 240 241 239 239 241 241 241 
241 239 240 240 241 241 240 241 241 241 241 240 242 241 241 242 
241 241 240 241 241 243 241 241 241 240 241 240 240 239 240 239 
239 239 241 240 241 240 240 240 239 239 240 241 240 240 240 241 
240 239 240 240 239 240 240 240 238 238 239 241 239 240 239 239 
239 239 239 239 239 239 241 240 240 240 241 229 179 242 240 239 
239 238 239 240 239 240 240 240 240 200 226 240 241 240 240 240 240 240 239 241 
242 241 243 241 242 241 240 241 241 241 241 241 240 241 242 242 
242 241 240 241 241 240 239 241 240 241 238 240 241 239 240 240 
241 239 241 241 240 240 238 240 240 240 239 239 238 240 240 240 
240 240 241 241 241 241 241 242 239 240 239 238 241 239 239 241 
240 240 240 240 241 240 240 241 241 241 239 233 196 243 241 239 
239 241 240 240 239 238 238 239 241 201 226 241 241 240 240 240 237 240 242 241 
241 241 240 241 242 241 241 240 242 241 241 240 241 240 241 241 
242 241 242 242 241 242 241 241 240 240 240 241 241 240 241 241 
241 240 240 239 239 239 239 239 240 240 240 239 240 240 240 240 
240 241 240 239 241 241 241 240 241 240 240 241 241 240 241 240 
241 241 240 240 240 241 241 240 240 242 241 219 210 239 240 240 
240 239 240 240 239 239 240 240 241 201 225 240 241 240 240 241 241 241 242 241 
242 241 241 242 241 242 242 241 241 241 242 241 242 241 242 240 
243 242 242 242 240 242 241 241 240 241 242 240 241 241 240 240 
240 240 241 239 241 239 241 240 240 240 240 241 240 240 240 240 
240 242 241 241 241 241 242 240 238 238 239 240 239 241 240 241 
240 241 241 240 241 241 241 241 241 242 242 214 211 243 242 241 
241 240 240 241 239 241 241 240 240 217 225 240 241 242 242 242 241 241 241 240 
242 243 242 240 242 241 241 240 242 242 241 242 241 242 243 240 
241 242 242 241 241 241 241 242 241 242 242 243 243 240 240 242 
240 241 241 241 241 241 239 239 241 240 240 241 241 240 240 241 
241 241 240 239 240 241 241 240 241 240 241 240 240 240 240 241 
241 240 240 240 241 240 238 241 242 241 242 184 230 241 241 242 
242 240 241 242 241 241 242 241 243 219 212 242 242 241 242 241 242 241 241 242 
241 242 241 243 241 241 241 241 242 242 241 242 242 241 242 242 
242 242 242 242 242 243 242 241 241 242 242 240 241 241 242 242 
241 241 241 239 240 239 242 240 240 240 240 239 241 240 240 241 
240 242 241 241 240 242 241 241 241 240 241 241 241 241 241 241 
239 240 241 241 241 241 241 242 241 240 241 183 239 241 242 241 
240 241 241 242 241 241 241 241 240 230 201 243 241 242 241 242 241 242 241 242 
241 241 241 243 243 240 242 241 241 241 241 241 242 242 242 243 
243 242 241 242 242 242 242 241 243 243 242 241 241 240 241 243 
242 243 242 241 241 240 239 240 240 241 241 240 241 241 241 241 
241 240 241 241 242 241 242 242 242 242 240 240 240 241 241 242 
242 241 240 241 241 242 242 242 241 242 240 173 244 241 242 241 
241 241 240 241 242 242 242 242 241 240 185 242 241 241 241 241 242 242 242 242 
242 242 241 241 243 241 242 243 242 243 241 241 242 241 241 241 
242 243 242 243 242 244 242 241 241 241 241 241 241 242 241 243 
243 241 241 241 242 241 240 241 241 238 240 242 239 241 242 240 
241 241 241 241 241 241 242 242 242 241 241 241 240 242 241 240 
240 241 242 243 242 242 241 242 241 241 222 180 245 243 242 242 
242 241 241 242 242 242 242 242 242 242 170 246 242 242 241 242 242 241 242 242 
242 243 243 242 242 242 241 242 243 242 243 243 243 242 243 243 
242 242 242 243 243 243 242 242 243 243 242 243 242 242 242 242 
242 243 242 242 242 241 242 242 241 241 241 240 242 242 242 242 
242 241 241 241 241 242 241 241 243 242 240 242 243 243 242 243 
242 241 241 243 242 241 241 243 241 242 212 193 244 241 242 242 
242 242 243 242 242 242 242 243 242 244 165 244 242 242 242 243 243 243 242 242 
241 242 243 242 242 242 242 242 240 242 242 242 242 242 243 241 
242 242 243 243 242 242 242 242 243 243 243 243 242 241 243 243 
241 243 243 242 242 242 241 242 242 241 242 242 242 241 241 242 
242 242 243 241 241 242 242 242 241 240 243 241 241 241 241 239 
242 242 241 242 241 240 241 242 241 245 182 232 244 242 240 242 
242 243 241 242 242 243 242 243 242 243 194 231 243 243 243 242 242 242 242 242 
242 242 242 243 243 243 241 243 243 243 242 242 242 242 242 242 
243 243 243 243 241 242 242 242 242 241 242 243 242 243 243 243 
243 242 242 241 243 242 241 241 241 241 242 243 241 241 241 241 
242 241 242 243 242 243 241 243 243 242 241 242 244 241 243 242 
242 243 243 241 242 242 242 241 242 242 195 243 242 243 242 242 
242 241 242 244 242 244 243 242 242 242 233 210 244 242 242 242 243 244 242 242 
243 242 245 242 242 242 242 242 242 241 242 242 242 241 244 243 
243 243 243 243 243 243 242 243 242 243 242 242 242 242 242 243 
243 244 242 242 242 242 242 241 243 243 241 242 241 243 242 242 
242 243 243 242 242 241 242 242 242 242 242 241 241 243 242 243 
242 242 241 242 241 241 241 241 242 237 206 245 242 243 243 243 
243 243 243 243 244 244 243 244 243 242 245 209 244 242 243 241 242 242 242 243 
243 242 242 243 242 242 242 242 243 243 244 242 242 242 242 242 
243 242 243 243 242 243 243 242 242 242 243 243 243 242 244 244 
245 243 244 244 243 241 242 242 243 243 245 241 242 242 242 241 
242 241 241 242 245 242 242 244 242 243 241 241 242 242 242 242 
242 242 242 241 242 242 241 241 243 210 238 245 245 243 242 243 
243 243 243 245 242 242 243 243 243 241 243 210 241 244 242 241 242 242 243 243 
242 243 244 242 243 242 243 243 244 243 242 243 243 242 243 243 
242 241 243 244 243 243 242 242 243 243 242 244 244 243 243 243 
245 243 243 241 242 241 242 243 242 243 244 244 243 243 243 243 
244 244 243 243 243 243 243 243 243 243 243 243 241 243 243 242 
242 242 243 243 242 241 242 242 247 200 245 244 242 243 244 243 
243 243 243 243 244 244 244 245 242 241 243 225 215 244 243 242 243 244 243 243 
243 244 242 243 244 244 244 243 241 243 243 243 242 243 242 241 
244 241 244 243 243 243 242 243 243 243 242 241 241 243 243 243 
243 245 243 243 243 243 242 242 242 242 242 243 243 243 244 243 
244 243 245 245 245 244 243 244 243 243 243 244 243 242 243 241 
242 242 244 243 242 243 243 243 227 205 246 243 243 243 243 243 
244 243 243 245 244 244 243 244 243 242 242 242 201 245 243 244 242 243 243 243 
243 242 243 243 244 243 242 242 244 242 243 243 243 242 242 244 
242 243 244 244 244 244 242 243 243 243 241 243 242 243 243 242 
242 242 244 243 243 243 244 244 243 243 243 244 244 245 244 244 
243 243 244 244 244 244 243 241 241 244 243 242 242 242 242 243 
242 243 241 243 243 243 245 246 175 237 245 245 244 244 244 245 
245 244 244 244 245 244 245 244 243 242 243 244 214 232 243 242 243 242 243 243 
243 244 245 244 243 243 243 244 243 243 244 243 243 242 243 243 
243 243 243 243 243 243 243 243 243 242 242 243 243 243 243 243 
243 243 243 242 243 243 243 243 242 243 244 243 244 243 243 243 
243 244 244 243 244 243 245 244 244 244 243 241 243 243 242 242 
242 243 242 243 241 244 244 238 200 249 243 244 244 244 243 244 
244 245 244 244 245 244 244 245 246 245 244 244 243 203 245 242 245 245 243 243 
243 244 243 244 243 243 244 243 242 244 243 243 243 244 242 243 
242 243 243 243 243 244 242 244 243 243 242 243 243 243 243 243 
244 244 244 245 243 244 245 245 245 245 244 243 243 244 244 245 
244 244 245 245 246 244 243 243 244 243 244 243 244 243 245 244 
244 242 243 244 243 243 246 207 233 244 244 243 244 244 245 245 
245 244 244 245 246 245 245 243 242 243 243 244 245 204 239 243 244 245 244 243 
243 244 243 243 244 243 242 244 245 244 243 243 243 245 244 243 
243 242 243 243 245 244 243 243 243 243 243 244 245 245 247 246 
244 246 245 246 246 243 245 245 243 244 244 244 244 244 245 246 
245 244 244 245 245 244 244 244 244 244 244 244 245 244 244 244 
244 244 244 245 245 243 241 193 247 244 244 244 245 246 243 245 
242 244 246 246 245 245 244 243 245 243 243 243 245 240 203 246 244 243 244 244 
243 244 244 244 244 244 244 244 244 244 244 244 245 243 243 242 
243 244 243 243 244 244 243 244 243 243 243 245 247 247 247 243 
243 241 236 240 242 247 245 244 244 245 244 245 244 243 245 245 
244 243 244 245 246 244 245 243 244 243 245 244 243 245 244 246 
245 245 245 245 246 249 208 231 243 243 245 244 245 245 245 245 
243 245 246 245 245 245 246 245 244 243 245 245 244 248 203 236 243 244 244 243 
241 244 244 244 243 243 244 244 246 244 245 246 243 245 244 244 
244 244 243 244 244 244 244 244 243 244 245 195 155 147 137 112 
118 104 107 138 143 246 245 244 245 243 244 245 245 245 245 245 
245 245 246 246 245 246 246 245 244 244 244 244 244 244 244 245 
244 247 244 244 246 237 192 244 243 243 246 245 245 245 246 246 
246 247 245 246 246 246 244 243 244 245 244 245 245 245 238 204 247 243 244 245 
245 244 244 244 245 245 244 244 245 244 244 243 244 245 245 244 
244 244 244 245 245 245 245 243 242 243 243 237 223 211 202 219 
226 228 229 243 240 246 244 245 245 245 245 245 243 246 245 245 
245 246 246 245 245 245 245 245 248 245 245 245 244 244 244 245 
245 247 243 244 246 197 243 247 243 245 247 246 246 246 246 245 
246 246 247 246 246 246 245 246 244 245 246 246 246 245 246 211 236 247 244 244 
244 243 244 244 245 244 244 244 244 244 243 244 245 245 245 243 
243 244 244 244 244 245 244 244 243 243 244 244 245 247 247 246 
246 248 248 249 247 245 245 245 245 244 246 245 244 243 243 244 
244 243 245 245 245 244 245 244 246 245 245 245 245 246 244 245 
246 247 245 247 218 214 248 245 245 245 246 247 245 245 244 245 
246 245 244 246 246 246 248 246 245 245 245 243 243 244 245 243 194 247 246 244 
245 246 244 245 245 243 243 246 244 244 245 245 245 244 245 245 
244 244 244 244 244 244 243 245 245 245 245 246 245 244 245 244 
245 245 245 244 245 245 245 244 244 245 244 245 246 244 244 244 
245 246 246 246 246 245 246 245 246 246 245 246 246 246 246 245 
246 245 247 239 193 247 247 246 246 245 247 246 247 246 247 247 
248 247 247 248 246 247 246 246 245 247 245 243 245 246 245 248 218 222 247 246 
245 245 245 246 245 245 244 246 245 246 245 247 245 245 245 245 
244 245 245 245 244 246 245 246 243 244 245 244 245 245 246 245 
245 246 245 244 245 246 244 245 246 246 244 245 245 246 245 243 
244 246 246 247 247 245 245 246 246 246 246 245 245 245 246 246 
246 247 249 198 241 249 246 246 247 247 247 248 247 248 247 246 
248 247 247 247 247 245 246 245 246 246 244 246 246 246 246 244 248 201 239 245 
245 245 245 244 245 246 245 245 247 244 245 245 244 245 246 245 
246 245 246 246 245 245 245 245 245 245 244 245 244 244 245 246 
247 246 245 245 245 246 246 245 245 245 248 245 245 247 246 246 
246 246 246 246 245 246 246 245 245 246 246 246 245 246 245 246 
247 248 204 218 250 248 247 247 247 247 247 247 248 247 248 247 
247 247 248 246 247 247 248 247 246 247 246 246 245 246 246 245 246 239 201 244 
245 244 245 245 246 245 247 245 245 246 245 246 245 245 246 247 
244 245 245 244 245 245 245 246 246 246 245 246 245 245 246 246 
245 244 246 245 247 247 247 246 245 246 246 246 246 246 246 247 
245 246 247 246 246 246 246 246 246 246 246 245 245 248 247 247 
247 234 201 251 248 248 247 247 248 248 248 247 247 247 248 249 
247 248 245 246 246 247 246 246 246 246 246 246 245 246 245 246 245 246 233 203 
247 246 246 245 245 246 243 245 244 247 246 245 246 247 246 245 
246 246 245 245 246 246 247 245 247 246 246 248 247 247 247 246 
247 247 247 247 247 246 246 247 248 247 245 245 245 246 246 245 
247 247 246 247 247 246 246 246 248 247 247 247 246 245 247 249 
238 186 247 249 247 247 247 248 248 248 249 249 248 248 248 250 
248 249 248 247 247 245 247 247 245 246 246 245 247 247 247 248 247 245 249 219 
224 248 246 246 246 245 246 246 246 247 247 246 245 246 245 245 
246 245 245 246 246 245 246 246 246 246 245 245 246 246 246 248 
247 247 245 247 247 246 246 246 247 247 248 248 247 247 248 248 
247 246 246 247 245 246 245 246 246 246 246 246 247 247 248 243 
194 241 250 250 249 249 250 249 249 249 249 249 250 250 249 248 
249 249 249 247 247 246 247 248 248 247 246 246 245 244 246 247 248 244 247 250 
208 230 248 246 246 245 246 246 246 247 247 246 246 246 246 246 
247 246 247 246 247 247 246 244 244 246 247 248 248 247 248 248 
248 249 248 248 248 248 247 247 247 249 248 247 248 248 247 247 
248 248 249 249 250 250 249 246 247 247 247 248 249 251 248 202 
243 251 249 249 249 249 249 249 249 249 250 249 248 248 249 249 
249 249 249 247 247 247 248 247 247 247 248 247 246 246 246 246 246 244 246 247 
250 211 227 247 246 246 246 246 245 245 246 246 246 246 247 247 
247 246 247 247 248 247 248 248 246 245 246 247 248 248 250 248 
248 249 247 248 250 248 248 246 248 248 247 248 248 248 247 249 
248 249 248 249 250 249 250 248 247 247 247 248 250 249 201 235 
249 249 249 250 250 250 250 249 249 249 250 249 249 248 249 250 
249 249 250 247 248 248 246 247 248 249 247 249 249 246 247 246 245 246 247 247 
249 252 210 233 249 248 246 246 246 248 248 246 246 248 248 245 
246 247 247 247 246 248 247 247 247 248 248 248 247 246 247 248 
248 248 248 249 248 247 247 247 248 248 249 249 248 248 248 250 
249 249 249 248 249 250 249 249 249 249 249 249 244 186 230 252 
250 250 250 250 249 250 250 251 250 249 249 249 248 249 249 250 
250 251 250 246 248 248 247 248 248 247 247 248 249 247 247 248 248 248 248 248 
248 249 250 212 231 249 247 245 245 247 246 246 248 248 248 248 
248 249 247 246 248 248 248 247 247 247 246 248 248 248 248 249 
249 249 249 248 248 249 250 249 248 248 249 249 250 249 250 248 
250 249 248 249 250 250 252 249 251 250 252 247 197 234 251 250 
250 250 250 250 251 251 250 249 251 250 251 250 250 251 251 250 
250 250 249 249 249 248 248 248 248 248 247 248 248 248 248 247 248 246 247 246 
248 248 249 249 216 222 250 247 245 248 247 248 246 246 247 247 
248 246 248 248 248 248 248 249 248 248 247 248 250 249 249 250 
247 249 249 248 250 249 250 250 250 249 249 249 249 250 250 249 
250 250 252 249 251 249 250 250 250 252 236 191 238 252 251 251 
250 250 251 251 251 251 252 252 250 250 251 250 252 250 250 250 
250 252 250 248 249 249 250 249 248 248 249 248 248 248 248 247 246 247 247 247 
247 248 248 249 252 230 220 248 249 248 247 246 248 248 248 248 
248 249 248 247 248 249 249 249 248 249 250 248 248 249 249 250 
250 249 250 250 250 251 250 250 250 251 250 249 250 249 249 249 
251 250 250 249 251 251 250 251 252 229 207 250 252 251 251 251 
250 250 251 252 251 250 251 250 251 251 252 252 251 251 251 251 
251 251 249 249 249 249 250 247 248 248 248 248 249 248 249 249 248 248 249 248 
248 249 249 249 250 251 240 215 240 251 250 249 248 247 247 246 
248 248 248 249 249 248 249 248 249 248 247 249 249 250 250 249 
250 251 250 250 249 252 251 250 251 250 252 251 251 251 250 251 
252 252 251 249 250 251 253 248 203 222 253 253 251 251 251 251 
252 251 251 251 251 250 253 253 253 251 252 251 251 251 251 252 
251 250 252 248 249 249 247 249 248 249 249 249 247 249 249 249 249 248 246 248 
248 249 249 250 250 247 248 248 224 220 249 252 250 251 249 249 
251 249 249 248 249 249 250 251 249 249 250 251 250 250 250 250 
250 250 251 250 252 251 251 250 250 250 250 250 251 252 252 250 
252 252 252 253 254 251 231 204 242 254 253 252 251 252 251 251 
252 251 252 252 252 251 251 252 251 251 252 250 251 252 252 251 
251 252 251 249 248 249 249 250 250 248 249 249 250 249 251 249 249 250 250 248 
249 249 249 249 249 247 248 249 251 238 210 234 247 249 250 250 
248 247 248 247 248 248 251 250 249 250 250 251 250 250 251 251 
250 250 251 251 249 250 250 251 251 251 251 252 251 250 251 252 
252 253 252 253 235 205 227 252 253 252 252 252 251 252 251 251 
251 253 252 253 252 251 252 253 252 251 253 253 253 251 250 252 
252 252 252 250 250 250 249 249 249 250 250 249 248 249 250 249 248 248 249 250 
250 248 250 250 250 249 249 250 251 250 252 225 210 236 249 250 
250 250 248 250 249 249 250 249 249 250 250 251 249 250 250 251 
251 251 251 251 251 251 252 250 252 252 250 252 252 251 252 251 
252 247 226 201 217 251 254 253 252 252 252 251 251 251 252 253 
251 253 250 252 251 252 251 253 251 252 252 251 252 252 252 252 
252 252 250 250 250 250 250 250 250 250 250 250 250 249 250 251 251 249 250 249 
250 249 250 249 251 250 250 251 249 250 251 252 251 221 212 239 
250 251 250 250 250 251 252 252 250 251 250 248 249 250 249 250 
249 250 250 251 250 250 251 251 251 251 252 253 253 253 246 229 
192 192 223 249 254 255 253 252 251 252 252 252 252 252 251 252 
250 252 253 252 253 252 253 251 249 252 251 250 252 252 252 253 
252 252 252 251 251 250 250 251 251 250 251 251 250 251 250 250 250 251 250 251 
251 250 251 250 251 250 250 251 250 250 250 249 252 252 249 223 
214 229 248 251 250 250 252 251 251 251 251 251 250 250 251 250 
252 251 250 251 251 250 252 252 252 252 253 248 231 207 184 209 
238 254 254 252 253 254 254 253 253 253 253 252 251 251 252 252 
252 251 251 253 252 252 251 252 252 252 252 252 252 252 252 252 
251 252 252 250 251 251 251 250 248 251 251 251 250 252 251 251 250 250 252 251 
251 250 251 251 252 252 251 252 252 250 251 250 250 251 252 254 
253 238 226 203 179 200 230 244 250 250 251 252 251 250 250 250 
252 252 252 251 253 252 249 242 233 222 207 206 222 240 249 252 
254 253 253 252 253 253 253 254 253 251 253 253 252 251 253 253 
253 253 253 251 251 252 252 252 252 252 252 253 250 251 252 252 
251 251 251 251 250 252 251 251 251 252 251 251 251 251 251 250 250 251 252 251 
252 250 251 251 250 250 250 251 252 251 251 251 251 252 250 252 
254 253 253 249 233 213 196 188 184 198 214 213 225 231 236 234 
227 228 230 213 211 203 206 213 223 236 248 253 254 254 254 253 
251 252 253 253 252 253 253 252 251 252 252 253 253 252 253 252 
252 251 253 253 253 252 253 253 253 252 251 252 254 253 252 252 
252 252 252 251 253 250 251 252 250 251 252 251 251 251 251 251 250 251 252 251 
251 252 252 252 251 252 250 252 251 252 252 252 253 251 252 252 
252 254 254 252 254 255 254 254 249 247 242 229 222 215 212 218 
218 221 224 236 240 251 254 254 254 254 253 254 254 253 252 252 
253 253 253 253 254 252 252 252 252 252 252 254 253 253 252 251 
252 253 252 253 251 252 252 252 252 252 252 252 252 252 252 252 
252 252 252 251 250 251 252 252 251 249 251 251 251 253 253 251 252 253 252 251 
252 253 252 253 253 253 252 252 253 253 252 253 253 251 253 252 
253 254 253 252 253 254 254 254 255 255 255 255 255 254 255 254 
254 254 254 254 254 255 254 255 253 254 253 253 254 253 253 253 
250 252 253 253 252 251 252 253 251 252 252 252 252 252 252 252 
252 252 253 251 251 252 252 252 250 253 253 252 252 251 251 253 
251 252 252 251 251 251 251 252 252 252 251 252 251 253 252 252 253 252 252 252 
252 252 253 251 252 252 251 252 251 252 252 253 253 252 253 252 
252 253 254 253 254 253 254 255 253 253 254 253 254 254 254 254 
253 254 253 254 253 252 253 253 254 254 254 252 253 253 253 253 
251 252 253 252 253 252 252 253 253 253 253 252 252 252 252 253 
252 252 251 253 253 252 252 252 252 252 252 253 251 252 253 251 
252 253 253 253 252 252 252 252 251 253 252 251 252 252 252 252 253 253 251 252 
252 252 252 253 251 252 253 253 253 253 251 252 253 253 253 253 
253 253 254 254 254 255 253 254 254 253 253 254 253 253 255 254 
253 253 254 253 255 253 253 255 254 254 254 253 253 253 253 253 
253 253 253 252 252 253 252 252 253 253 251 253 253 252 252 252 
251 252 253 252 250 252 252 252 252 252 252 251 252 252 251 253 
252 251 252 252 252 252 251 252 253 252 252 252 252 252 252 252 252 253 252 251 
253 253 253 253 254 252 254 253 253 253 253 253 253 254 253 253 
254 254 254 254 253 254 253 254 254 254 254 255 253 254 252 254 
253 253 252 254 253 253 254 254 254 253 254 252 254 252 253 253 
252 252 252 254 252 252 253 253 252 252 251 252 252 252 252 253 
253 252 251 252 252 253 252 252 253 253 253 253 253 252 252 254 
251 252 254 252 252 251 251 251 252 252 251 251 252 251 252 252 253 253 253 253 
253 252 251 253 253 252 254 253 253 254 254 252 253 254 255 254 
253 253 253 253 252 254 254 254 254 254 255 255 253 253 252 254 
254 253 253 254 254 254 254 255 254 253 253 253 253 253 253 253 
253 252 253 253 251 251 252 251 252 252 252 252 251 250 251 253 
252 251 252 253 252 253 251 250 248 250 251 251 249 249 248 246 
245 243 242 