P2
# Created by IrfanView
100 100
255
245 246 247 247 247 247 247 247 247 247 247 248 249 249 250 250 250 
250 250 250 250 250 250 252 250 251 251 251 251 252 252 252 251 
252 254 252 252 252 252 252 251 252 252 252 252 253 252 253 252 
251 252 252 253 254 253 253 254 253 253 254 254 254 253 252 253 
252 254 253 253 253 253 253 254 253 253 253 253 254 253 254 254 
252 253 253 252 252 252 252 254 252 252 253 253 253 251 252 252 
253 252 253 245 244 246 246 246 247 246 246 248 246 247 246 246 248 249 250 251 
251 250 250 250 250 250 251 251 251 250 251 251 252 252 252 252 
251 252 251 251 250 252 252 252 251 251 251 251 252 252 252 252 
253 253 251 252 252 253 254 253 253 253 254 253 254 253 254 253 
253 253 253 253 253 253 253 253 253 252 252 253 254 253 254 253 
253 253 252 252 253 253 253 253 251 253 251 254 252 253 252 253 
255 253 253 244 244 245 245 249 248 248 247 245 247 246 248 247 248 249 250 250 
248 250 249 250 250 250 250 250 251 250 250 251 250 251 251 251 
252 251 251 251 251 251 252 252 251 252 252 252 252 251 251 252 
253 251 251 251 252 253 252 253 253 252 253 252 252 252 252 253 
252 253 253 254 253 254 253 252 253 253 253 253 253 254 254 254 
253 252 252 252 252 252 251 251 251 252 252 252 253 253 253 252 
253 251 252 243 243 245 244 245 245 246 247 247 245 247 248 246 247 247 249 248 
249 250 249 248 248 250 249 250 251 251 250 250 250 251 252 251 
251 251 251 250 251 251 251 250 252 252 251 252 252 252 251 251 
251 252 251 251 251 251 252 252 252 252 254 253 253 253 252 251 
252 253 251 252 253 252 252 253 253 253 252 253 254 253 254 252 
252 253 252 253 251 250 252 252 252 251 252 252 253 251 252 252 
251 252 254 242 245 245 245 247 246 245 245 246 246 247 247 247 247 247 247 248 
249 249 249 249 247 249 250 249 250 250 250 250 250 250 250 250 
250 250 250 250 251 251 251 251 250 251 251 251 252 252 251 250 
251 251 252 250 251 251 251 252 250 253 252 250 252 252 252 252 
252 253 252 253 253 252 253 253 252 253 253 253 252 252 253 252 
252 253 252 252 252 251 251 252 253 253 252 252 252 252 252 253 
252 252 253 244 243 247 246 245 245 245 247 247 247 245 245 245 247 245 246 245 
247 247 249 249 248 248 249 247 248 249 250 250 250 250 250 249 
251 250 250 250 249 250 249 250 250 251 251 250 251 251 251 251 
250 250 250 252 252 252 250 250 251 252 252 250 251 253 252 252 
252 252 253 253 251 251 252 252 253 251 252 252 252 252 252 253 
252 251 252 251 251 252 252 252 251 251 251 251 251 251 251 252 
251 251 252 242 245 246 246 246 246 246 246 245 246 247 246 245 246 245 245 247 
246 246 249 248 248 249 248 246 249 249 249 250 249 249 249 248 
249 249 248 250 250 249 249 250 249 251 252 253 252 253 253 253 
252 251 252 251 253 252 252 252 252 252 253 252 251 252 252 251 
251 251 252 251 252 252 252 252 252 252 252 251 252 252 252 252 
252 251 252 251 251 250 250 250 251 251 251 251 251 252 251 251 
251 251 251 244 245 246 245 246 247 246 245 246 245 247 248 247 247 247 246 248 
249 247 248 248 247 247 246 248 248 248 248 247 248 248 249 249 
247 248 250 249 248 249 250 250 250 252 250 248 244 241 241 237 
233 231 229 238 238 243 248 247 252 252 252 251 251 251 251 251 
250 251 251 252 252 252 252 252 253 252 252 252 251 251 252 252 
250 251 251 251 250 250 250 250 250 251 251 250 250 251 251 251 
251 250 250 244 245 245 246 246 246 246 247 247 246 245 245 245 248 246 247 246 
247 246 247 247 247 246 247 248 248 247 247 248 247 246 247 247 
249 249 249 250 250 248 243 232 217 201 207 197 211 214 214 216 
221 227 210 210 213 203 201 205 214 223 236 242 246 249 251 252 
252 252 252 252 250 251 251 250 250 251 251 251 251 251 250 251 
252 250 250 250 250 250 251 250 251 250 250 250 250 249 248 249 
250 250 250 243 246 246 247 246 245 246 245 245 246 246 246 246 246 245 246 245 
245 246 247 246 246 246 246 246 246 246 246 247 248 247 246 246 
248 249 247 234 208 198 197 203 223 245 249 250 249 249 251 251 
252 251 250 249 250 251 251 249 243 233 224 210 196 208 232 246 
248 250 252 252 251 249 249 249 249 250 250 251 251 251 250 250 
251 250 250 250 250 250 249 250 249 250 250 250 250 250 250 249 
249 250 249 247 246 245 245 246 246 245 246 246 245 245 245 247 246 245 245 247 
246 247 247 246 246 245 245 246 245 248 246 246 245 247 249 246 
235 202 192 195 226 241 251 251 251 250 249 249 250 249 249 250 
249 247 249 249 248 248 248 250 250 250 249 250 248 238 219 206 
202 231 247 250 250 249 251 250 250 250 250 250 250 250 250 249 
249 250 250 250 249 249 250 249 249 249 250 249 251 249 249 249 
249 249 249 246 244 245 246 246 245 246 247 246 246 245 245 244 244 246 245 245 
246 246 246 245 245 244 247 244 244 246 245 247 247 246 227 196 
182 225 247 250 251 249 249 247 248 248 247 248 249 248 248 249 
248 248 248 246 247 247 246 246 247 248 248 248 249 249 251 249 
241 218 199 208 241 249 248 249 249 249 249 249 250 250 249 251 
249 249 249 249 249 249 249 249 249 249 248 249 250 247 249 249 
249 249 249 245 245 247 246 245 245 245 247 246 246 243 245 243 243 244 245 245 
246 246 245 244 245 246 244 243 244 245 247 245 230 189 196 242 
252 250 249 247 246 246 245 246 247 247 248 246 246 245 247 248 
248 248 248 247 246 248 247 245 247 246 248 247 248 248 248 249 
250 249 247 224 200 211 239 249 249 247 248 248 248 248 249 248 
249 249 249 248 249 248 248 248 248 248 248 249 250 249 249 249 
248 247 249 245 246 245 245 245 246 244 245 245 244 244 244 245 245 245 243 244 
244 243 243 244 245 245 243 241 245 245 239 186 196 242 250 248 
246 247 245 244 246 247 246 246 247 247 246 245 246 247 245 247 
247 248 248 249 246 246 245 246 247 246 247 247 247 247 247 245 
247 248 249 249 251 237 199 211 246 248 247 247 246 249 249 250 
248 249 248 248 248 248 248 248 248 247 248 247 247 249 247 247 
248 248 247 244 245 245 245 244 244 246 246 245 246 244 243 245 244 246 245 244 
244 244 245 244 244 245 244 246 244 209 176 234 249 248 247 244 
244 243 244 245 244 243 243 245 245 246 245 246 246 247 247 246 
247 247 247 249 247 247 246 247 246 245 248 249 248 247 247 245 
244 245 246 248 249 247 249 227 201 226 246 246 247 248 248 247 
248 247 248 248 248 248 248 248 247 248 247 247 247 246 247 247 
248 246 246 244 245 244 244 245 244 244 245 246 247 246 243 243 244 244 242 243 
243 243 243 243 244 244 246 238 184 193 246 248 246 245 244 244 
245 243 244 245 246 246 246 246 243 245 245 244 246 245 246 247 
245 247 247 247 244 244 246 245 246 246 246 246 246 249 246 246 
247 247 246 246 248 247 246 250 246 207 195 239 249 246 246 248 
248 245 248 248 248 247 248 248 247 246 246 246 247 247 247 247 
247 246 246 244 245 244 244 244 245 244 246 246 244 244 243 242 243 242 242 243 
243 242 243 242 245 248 228 165 226 246 247 245 244 243 245 244 
244 245 244 245 243 246 246 246 244 244 245 245 246 246 247 246 
245 246 245 245 245 246 245 244 246 245 247 246 246 245 246 248 
245 244 247 247 247 247 245 247 246 247 233 192 224 248 247 246 
246 246 247 246 248 248 246 246 246 246 246 246 246 246 246 246 
245 246 246 243 243 245 244 243 244 245 245 245 246 243 244 244 244 244 244 242 
243 243 242 243 245 212 177 238 246 245 244 243 243 243 244 243 
244 245 246 245 244 243 243 244 244 244 244 244 245 245 244 245 
246 245 245 245 245 245 245 245 244 244 244 244 246 245 244 245 
245 247 245 246 245 244 244 244 243 246 247 243 194 218 246 247 
246 245 246 246 249 248 246 246 246 246 247 247 245 245 245 246 
246 244 245 243 243 243 244 244 244 244 243 243 243 244 244 243 244 243 243 243 
242 241 243 245 199 181 248 248 244 244 245 243 244 244 244 244 
244 244 244 244 244 244 244 243 243 243 243 243 245 244 246 247 
245 246 245 244 244 244 245 244 245 244 244 246 245 244 243 244 
244 244 245 244 244 244 244 246 244 244 246 245 244 175 204 247 
247 245 245 246 246 248 245 246 245 247 244 244 247 246 245 245 
243 246 246 242 243 243 243 243 243 243 242 242 242 243 242 243 242 240 242 240 
241 242 243 196 192 245 246 244 243 244 244 243 243 244 244 245 
244 244 244 245 244 244 244 244 244 243 245 245 244 246 245 244 
244 244 245 245 245 245 245 245 245 244 244 244 245 243 245 244 
244 244 244 243 245 243 243 245 244 243 243 243 242 241 176 195 
245 243 243 245 246 245 246 245 245 246 245 245 245 244 245 243 
243 245 245 241 241 242 242 243 242 241 244 244 243 242 242 243 243 243 242 242 
241 245 201 206 247 245 242 243 242 244 244 243 245 244 243 244 
244 244 243 245 245 242 243 244 245 244 243 243 244 244 243 245 
244 243 245 245 244 243 244 243 244 243 244 243 244 243 243 243 
244 244 243 244 244 246 242 245 243 244 244 243 244 247 247 164 
211 244 247 244 243 245 245 245 245 244 245 245 244 244 245 246 
246 246 245 241 241 241 242 242 242 242 242 242 242 241 242 243 242 242 241 241 
244 210 205 247 244 243 244 243 242 241 242 244 244 243 243 243 
243 244 245 243 244 245 244 243 243 244 244 244 245 244 245 244 
243 245 244 245 244 244 244 242 244 243 243 242 245 243 243 244 
243 244 244 242 243 244 243 243 243 244 243 243 243 243 247 233 
176 237 244 243 243 244 245 244 244 244 243 244 244 246 245 245 
244 243 242 241 241 240 241 242 242 242 242 242 241 243 241 242 241 241 241 243 
214 192 247 245 243 243 242 243 242 241 242 243 241 243 243 245 
243 243 243 243 244 243 244 243 242 243 244 243 243 244 243 242 
245 243 244 245 243 243 243 243 243 244 242 243 243 242 242 242 
242 242 242 241 242 242 242 242 243 244 242 243 243 244 243 246 
233 190 240 246 245 243 243 244 243 244 245 245 243 244 245 243 
244 243 244 240 242 241 241 242 242 242 243 241 240 241 241 243 241 240 245 228 
182 242 244 243 242 242 242 242 242 242 241 243 243 243 243 243 
244 244 243 243 243 243 243 243 243 243 241 243 243 242 244 242 
243 243 243 243 243 242 245 243 242 244 243 243 243 242 242 244 
243 242 241 242 243 242 242 243 243 243 243 243 242 243 243 242 
247 230 194 240 241 243 244 243 243 244 244 243 243 243 241 244 
244 243 241 241 241 241 241 241 240 241 241 240 242 240 240 242 241 241 239 179 
244 244 242 243 242 241 242 243 243 241 241 242 242 242 242 243 
243 242 243 243 243 243 243 242 242 243 242 242 242 242 242 243 
243 243 242 242 242 243 242 243 243 242 241 241 242 240 242 241 
241 242 242 244 241 242 243 242 243 243 242 243 243 244 243 243 
243 246 214 205 242 241 241 242 243 244 242 243 243 243 241 243 
241 241 243 240 241 240 241 240 240 241 240 239 240 240 240 241 243 244 180 229 
244 242 242 242 242 242 242 243 240 240 242 242 242 242 243 243 
243 243 243 243 243 241 242 242 242 243 243 241 242 242 242 241 
241 242 243 242 241 241 240 241 242 241 241 240 240 242 239 240 
241 241 241 241 240 238 240 242 243 243 242 242 242 243 242 242 
243 244 245 191 222 244 242 241 242 243 243 242 243 243 243 242 
241 241 242 239 239 240 239 241 240 239 241 240 239 239 242 240 232 209 198 244 
243 242 243 242 242 242 243 240 241 242 240 241 240 243 243 243 
243 243 243 243 243 243 242 242 244 244 244 242 242 242 242 241 
241 241 241 240 241 240 241 241 240 240 240 240 240 240 240 240 
241 241 241 241 238 241 241 240 242 242 243 241 242 241 241 242 
243 243 244 243 177 237 242 242 243 242 242 241 242 243 242 243 
242 245 244 239 239 239 240 241 239 240 240 239 237 240 240 234 213 181 244 242 
240 241 240 242 241 242 241 242 241 242 242 242 242 242 242 242 
242 242 242 242 242 242 242 242 242 242 241 241 242 241 240 242 
242 241 241 241 240 242 241 241 241 240 240 241 240 240 241 240 
240 240 239 240 240 239 240 240 242 242 242 242 242 241 241 242 
242 242 243 241 230 181 242 242 243 242 243 242 242 242 242 241 
241 242 241 239 239 239 239 238 239 241 239 239 238 238 237 231 163 230 242 241 
241 241 240 241 240 241 241 241 241 241 241 241 242 241 242 241 
243 241 241 241 241 241 240 241 241 241 241 242 241 241 241 240 
240 240 241 241 241 241 242 241 240 241 239 241 239 239 239 239 
240 241 240 239 240 239 241 240 241 241 244 242 241 242 242 241 
242 242 241 241 243 201 214 242 241 242 242 240 242 242 241 242 
243 242 242 240 240 239 238 240 240 239 240 239 236 239 227 207 188 243 242 241 
241 242 241 241 242 242 240 241 241 241 241 241 239 239 241 241 
239 240 241 241 241 240 241 239 241 241 241 241 241 241 241 240 
241 241 241 241 241 241 241 242 239 240 240 239 239 239 238 238 
240 238 239 240 239 238 240 240 241 241 243 242 242 243 241 241 
241 243 242 241 240 237 178 236 241 240 240 240 242 242 242 241 
241 241 242 238 239 239 239 239 237 240 242 240 239 239 212 122 238 241 239 241 
241 241 241 241 241 240 241 240 240 240 240 240 242 239 240 241 
241 241 242 240 241 241 240 241 240 241 240 241 241 240 241 240 
240 240 240 241 240 240 239 239 239 239 240 239 238 239 239 241 
239 239 239 239 238 239 239 240 241 240 241 241 241 243 241 242 
244 242 241 239 240 240 219 192 242 241 241 241 242 241 241 241 
242 242 240 239 237 239 237 236 239 238 238 240 240 223 157 179 243 241 240 241 
241 241 241 241 242 240 240 240 240 240 240 241 240 239 237 240 
241 241 242 243 241 241 241 241 240 240 242 240 240 239 239 240 
240 240 240 239 239 240 241 239 239 239 240 238 239 239 239 237 
238 238 237 236 238 239 240 239 238 240 240 240 241 241 241 242 
240 240 241 241 237 239 238 185 228 242 240 239 239 241 241 241 
240 241 240 239 240 238 238 240 238 238 239 238 238 193 114 239 240 239 240 241 
241 240 240 241 241 240 240 239 240 241 241 240 239 239 241 242 
243 242 239 242 242 242 241 239 241 239 240 242 240 241 241 239 
240 238 240 240 240 240 240 241 240 238 241 240 238 239 239 239 
238 238 234 236 240 239 238 239 238 239 238 239 241 241 242 241 
241 241 241 240 238 238 240 225 183 239 241 242 241 240 240 240 
241 240 239 238 235 239 237 238 236 237 238 235 226 148 161 244 239 240 240 241 
241 241 240 241 241 240 240 239 239 240 239 237 239 241 240 230 
213 197 186 208 229 240 242 241 241 242 240 241 241 240 240 240 
240 241 240 240 240 240 241 240 239 239 239 240 239 240 240 239 
239 236 234 232 235 237 236 238 238 238 238 239 240 239 241 242 
241 243 241 240 239 237 236 240 185 232 240 240 240 240 240 240 
240 239 241 237 237 237 238 238 236 236 237 238 139 100 217 241 239 240 240 239 
240 240 239 241 240 239 240 239 240 240 239 243 242 237 189 139 
123 121 148 121 135 183 230 239 238 239 239 241 240 240 241 239 
239 239 240 240 240 239 239 240 240 238 239 238 238 239 238 235 
222 195 203 196 209 229 236 237 237 238 237 236 239 241 240 239 
240 240 240 239 239 238 238 238 216 197 237 239 240 240 238 239 
239 239 241 238 237 238 238 237 238 237 236 233 78 131 241 239 240 240 240 241 
240 240 240 240 239 239 239 240 240 240 242 242 207 164 136 128 
111 129 130 130 130 212 185 230 239 241 238 239 238 241 240 239 
239 239 238 237 239 239 240 240 238 237 238 237 239 237 230 193 
125 104 110 119 142 160 194 232 235 236 237 237 236 238 240 240 
240 240 240 238 239 240 238 236 236 168 235 237 239 239 241 240 
239 239 238 237 236 240 237 236 235 236 238 197 122 156 240 239 238 239 240 240 
240 240 239 239 239 239 240 239 240 241 241 187 151 143 140 123 
115 130 125 105 128 229 223 183 235 238 239 239 239 239 240 239 
239 239 239 241 241 239 238 238 239 239 238 239 240 224 162 97 
91 127 128 104 104 96 105 175 234 234 237 236 239 237 240 239 
240 239 239 239 238 237 236 236 239 194 201 237 237 237 238 239 
237 239 239 238 237 237 238 237 238 234 239 111 207 199 241 239 238 240 241 239 
240 240 239 239 240 239 239 239 239 242 198 170 206 124 133 143 
166 123 156 119 113 223 239 203 228 240 240 240 240 240 240 240 
239 239 240 239 240 238 239 239 239 239 239 238 218 150 160 109 
98 86 92 105 95 92 108 183 202 238 237 238 238 238 238 238 
238 240 239 238 239 238 238 238 238 230 171 236 238 240 238 237 
238 239 237 238 239 238 237 236 236 236 238 140 245 240 237 240 240 239 239 240 
240 240 238 240 240 240 237 239 239 202 162 236 203 100 131 135 
121 155 160 153 108 210 236 234 190 237 239 238 238 238 239 240 
241 239 239 240 239 239 239 239 238 239 238 223 156 203 189 112 
84 108 129 134 100 90 119 216 181 232 237 238 240 240 239 239 
239 239 239 240 240 239 237 238 237 237 177 235 238 239 238 238 
238 238 239 239 235 237 238 236 238 235 236 155 241 239 238 238 239 238 239 240 
240 239 238 240 239 239 239 238 239 148 231 242 225 128 111 104 
170 179 114 129 125 237 238 240 217 240 238 239 239 238 239 240 
239 240 240 240 240 239 236 238 237 238 239 224 212 243 217 118 
90 101 140 106 94 110 139 212 225 214 238 239 239 237 239 240 
239 239 239 238 238 239 237 236 236 236 191 214 238 237 236 237 
235 236 236 237 237 237 238 237 237 237 212 169 240 238 239 239 239 239 239 240 
239 239 239 240 240 239 238 239 241 231 243 237 237 173 161 139 
114 128 137 129 174 240 239 237 240 239 239 240 239 240 238 239 
239 239 240 238 238 239 240 239 238 238 239 239 242 241 238 124 
64 94 124 88 100 145 127 224 241 214 239 238 237 239 238 239 
239 239 238 238 239 239 237 238 239 237 210 177 239 238 237 236 
238 235 237 240 239 238 237 239 238 240 185 224 239 237 238 238 239 239 239 239 
239 238 238 240 239 237 239 238 238 241 240 239 239 218 165 137 
93 126 137 124 230 239 238 239 239 240 239 240 239 238 240 241 
241 240 239 239 238 239 239 239 239 238 238 239 239 239 240 170 
91 63 73 77 130 153 163 239 239 242 238 238 240 239 238 238 
238 239 239 239 238 239 239 238 235 238 233 133 233 236 237 237 
237 237 235 240 239 238 238 237 238 238 176 238 239 239 240 239 239 239 239 240 
240 240 240 240 240 239 240 237 241 239 240 239 239 243 202 165 
140 131 143 220 244 237 238 238 239 239 238 239 239 240 240 239 
239 239 238 238 238 239 239 239 239 238 238 238 239 239 238 233 
173 135 100 93 110 126 220 240 237 239 239 241 239 239 239 241 
239 238 238 238 239 239 238 239 239 237 236 139 220 236 237 238 
235 236 238 237 237 236 236 237 239 238 179 242 239 238 238 239 240 240 240 240 
240 239 240 239 239 239 239 241 240 238 240 237 239 240 244 237 
222 226 244 244 240 240 238 239 239 240 239 238 239 239 240 239 
238 239 240 240 240 240 239 240 240 239 240 238 239 239 239 241 
241 244 196 148 177 233 242 239 240 241 239 238 240 237 238 239 
240 239 239 238 238 238 238 239 239 238 234 166 203 237 238 235 
236 237 236 236 237 237 238 236 239 236 177 243 238 240 239 239 237 238 239 239 
239 239 239 239 239 239 239 239 240 239 240 240 238 239 240 240 
240 244 243 241 240 239 239 238 239 239 239 240 238 239 239 240 
240 240 239 239 239 238 239 239 240 240 241 240 240 240 238 240 
243 243 243 245 243 242 241 240 241 239 240 240 239 239 238 238 
239 238 238 238 239 238 238 239 238 237 236 202 198 237 235 235 
236 235 236 238 237 236 238 239 238 238 186 240 239 238 239 238 235 239 238 240 
239 239 238 239 239 239 240 240 241 239 239 240 240 241 242 241 
242 241 242 239 240 239 239 239 239 240 239 240 238 239 240 240 
240 240 239 239 240 240 239 240 240 240 240 240 240 240 240 240 
241 239 241 241 242 241 240 241 240 239 239 240 240 240 238 237 
238 238 238 239 239 239 238 238 236 237 235 222 193 236 236 236 
236 238 236 236 236 238 237 237 237 239 176 240 239 239 238 239 240 239 239 240 
238 240 241 240 240 241 240 240 239 239 240 240 241 239 240 240 
239 240 240 240 238 239 239 239 239 238 240 239 240 239 239 240 
240 239 240 241 238 240 241 241 242 242 240 241 240 241 239 241 
241 241 239 240 239 240 239 238 239 239 238 239 238 238 237 238 
239 241 238 238 238 237 238 238 238 235 235 227 181 236 238 238 
236 235 236 237 237 237 237 236 236 239 179 240 239 239 238 238 239 238 240 239 
239 240 241 241 241 240 239 240 240 241 240 239 240 240 239 239 
240 240 241 241 239 239 240 238 239 239 239 239 239 239 240 239 
239 237 240 239 238 239 240 240 239 239 241 240 241 241 240 241 
241 240 239 241 240 240 239 240 240 240 239 239 239 236 238 238 
238 237 239 238 238 238 237 237 236 238 235 230 181 235 236 236 
235 237 238 237 237 237 238 236 237 238 180 240 239 239 240 239 239 239 239 240 
239 240 239 239 240 240 241 240 240 240 241 238 240 241 241 240 
240 240 240 239 239 239 239 240 240 240 239 239 239 239 240 239 
240 240 240 240 240 240 241 241 240 240 241 241 241 241 240 240 
241 240 239 240 240 239 240 240 238 239 239 239 239 238 237 237 
237 238 239 237 238 237 238 238 238 237 236 231 183 233 237 235 
236 237 237 237 237 236 238 238 238 237 177 239 239 238 240 238 238 238 238 240 
239 239 240 238 240 240 240 240 240 239 240 241 240 240 240 238 
239 240 240 239 238 239 239 240 240 239 240 240 238 240 240 239 
240 240 239 240 239 240 240 240 239 239 239 241 241 241 241 240 
241 241 240 240 239 239 240 240 239 240 239 239 239 239 238 239 
239 238 239 238 239 237 238 238 238 237 235 233 189 230 236 235 
236 236 234 238 236 237 239 239 237 236 176 240 238 239 237 238 239 238 238 240 
239 240 239 240 239 239 240 240 239 241 240 240 239 240 240 240 
239 239 240 240 240 240 241 238 239 240 240 239 239 240 239 240 
238 238 239 240 240 240 240 240 239 239 240 240 240 239 239 239 
239 238 238 240 239 238 239 239 239 239 239 238 238 238 237 238 
238 236 238 239 240 237 237 236 236 239 236 235 197 232 236 236 
236 237 236 235 236 237 238 237 236 238 188 241 239 239 239 239 239 238 238 238 
239 239 240 240 239 240 240 240 239 239 239 239 240 238 240 239 
240 240 240 240 238 238 238 238 239 240 240 238 239 239 240 240 
240 241 240 240 241 239 239 239 240 240 240 240 240 240 240 239 
239 239 240 240 237 239 239 239 239 237 238 239 239 237 239 237 
238 238 237 237 236 237 237 237 237 237 236 236 199 234 237 236 
236 236 236 237 237 236 237 236 238 240 186 241 238 238 238 238 239 238 239 239 
239 239 240 240 239 240 239 239 240 240 239 240 239 239 239 240 
239 239 239 240 239 239 240 240 239 240 238 240 239 239 238 239 
239 237 239 239 240 239 239 241 239 240 240 240 239 240 241 239 
238 238 239 239 239 239 238 238 238 237 238 239 237 238 237 237 
237 237 237 236 236 237 236 236 238 237 236 234 199 229 237 235 
236 237 237 236 236 236 237 237 239 240 178 241 239 239 238 239 239 240 239 239 
238 239 239 239 239 239 240 239 240 239 239 240 240 240 241 239 
239 239 240 239 238 240 240 239 239 237 239 238 239 240 239 239 
240 240 240 238 240 239 240 239 240 240 240 240 239 239 240 239 
240 239 239 239 239 238 238 241 238 237 237 238 238 236 237 237 
236 238 236 238 238 236 237 237 237 238 236 235 189 231 235 235 
235 235 234 237 238 236 237 236 237 241 185 241 239 238 238 238 239 239 239 240 
240 239 239 238 239 240 240 239 240 238 238 236 239 239 240 239 
239 239 239 239 239 238 239 238 238 237 239 240 239 240 239 239 
239 239 238 238 240 240 240 239 240 239 240 239 241 239 240 239 
238 239 239 237 237 238 238 238 238 238 237 236 236 239 238 237 
237 237 238 237 235 236 236 235 236 237 237 232 187 232 236 235 
236 236 236 236 236 235 237 236 238 239 191 237 239 239 238 238 238 238 238 239 
238 239 238 239 239 240 239 239 238 239 241 238 238 238 239 239 
239 240 236 238 238 238 238 238 239 239 240 239 238 238 239 239 
238 238 238 237 239 239 239 239 238 239 240 237 238 238 238 240 
239 239 238 237 239 239 238 238 239 238 239 237 239 237 237 237 
238 236 237 237 237 236 236 236 236 237 237 234 186 236 236 236 
234 236 233 235 236 238 238 236 237 240 202 216 238 239 239 238 239 239 239 239 
238 240 238 239 239 239 239 240 240 240 238 239 238 238 239 237 
238 238 239 239 238 238 238 238 238 238 239 239 239 238 239 240 
239 239 240 238 239 239 238 239 239 239 239 238 239 239 238 238 
237 237 238 238 237 237 237 238 236 238 238 237 236 236 236 237 
238 236 237 236 236 237 236 236 237 236 236 232 180 236 238 238 
235 235 235 238 235 236 239 237 237 237 230 190 238 239 238 238 237 237 239 238 
238 236 239 239 237 237 239 239 240 239 239 239 239 238 238 238 
237 238 238 239 240 238 238 237 238 237 238 238 239 238 239 238 
238 239 239 238 239 238 239 239 239 239 240 239 239 238 239 239 
239 238 238 237 236 238 237 236 235 236 237 237 237 236 237 235 
235 235 237 237 236 237 237 236 236 236 235 232 184 235 234 235 
235 235 235 234 237 237 236 237 238 237 238 168 239 238 237 239 237 238 237 238 
238 237 236 237 237 239 240 237 238 240 239 238 237 239 238 238 
238 238 237 236 237 238 237 238 238 238 239 238 238 239 238 238 
239 238 238 239 239 238 240 238 237 238 237 237 237 239 238 238 
238 237 238 237 236 238 237 237 236 238 235 237 236 235 235 237 
235 235 236 235 235 235 238 238 236 235 235 224 185 236 235 235 
233 234 235 236 236 237 237 239 238 238 239 171 238 239 239 238 238 237 238 238 
238 238 236 239 237 239 240 239 237 240 240 241 238 238 237 237 
238 238 236 237 238 236 237 237 237 237 237 237 237 239 238 237 
238 238 238 238 237 238 239 238 239 238 239 239 238 239 238 238 
238 237 237 235 237 236 236 237 238 236 234 236 237 236 237 234 
235 235 236 236 236 236 238 236 235 234 233 214 199 234 235 235 
235 234 234 234 236 236 236 238 237 236 238 199 215 238 238 238 237 239 238 238 
237 236 237 237 237 238 238 238 237 237 238 236 237 239 236 237 
237 237 237 237 237 237 237 237 237 237 239 238 238 236 238 240 
239 238 238 237 238 237 237 238 237 238 238 238 238 236 237 237 
239 238 238 237 237 236 236 237 237 237 236 237 235 235 235 235 
235 236 236 236 236 235 235 234 234 233 234 204 217 235 234 235 
235 235 235 236 235 236 236 236 235 236 237 227 169 241 238 238 239 238 238 239 
238 238 236 237 237 239 239 237 237 239 238 238 237 235 237 237 
237 237 237 238 237 236 237 237 236 236 236 237 238 236 238 238 
237 236 238 236 237 238 236 238 237 237 239 239 237 239 238 237 
238 235 236 235 236 236 238 235 236 236 236 235 235 236 237 235 
236 235 236 235 234 235 235 235 235 234 235 191 231 234 234 235 
234 233 233 236 235 238 235 236 237 236 237 242 160 243 236 237 238 238 239 239 
236 235 237 238 238 238 236 237 237 236 237 237 237 237 236 238 
237 236 236 237 235 236 235 235 235 235 237 236 235 239 238 235 
237 236 236 236 236 236 238 237 237 236 237 237 239 237 237 238 
236 236 235 235 236 236 235 235 236 236 234 236 237 235 235 235 
235 235 234 234 235 233 234 233 234 234 233 180 233 234 234 234 
232 232 235 236 238 236 237 237 237 236 237 240 188 220 239 237 237 238 239 238 
239 237 237 236 234 236 237 236 237 236 238 237 236 238 237 236 
237 235 235 237 236 234 236 236 235 236 236 234 234 235 237 237 
234 236 236 237 238 237 236 236 237 239 238 237 237 237 238 237 
237 237 235 236 235 234 235 235 235 235 235 235 235 236 234 234 
234 234 235 235 234 235 233 233 235 233 225 189 236 235 234 235 
235 236 234 236 236 236 236 237 236 237 240 238 229 172 241 238 237 237 237 237 
238 237 236 236 236 235 238 237 237 235 236 236 237 236 234 236 
237 236 236 234 235 235 235 235 235 235 233 234 236 234 234 235 
235 235 236 234 235 236 236 237 237 235 236 237 235 236 236 237 
238 235 236 234 235 235 235 234 235 235 234 236 235 236 235 234 
233 235 235 234 234 234 235 235 233 232 213 204 235 234 234 232 
232 232 233 236 235 235 237 237 238 237 238 239 243 154 235 236 238 239 238 238 
239 236 236 236 236 236 235 236 237 238 236 237 236 236 236 236 
235 235 236 236 235 236 234 233 233 233 234 234 234 234 234 235 
234 235 234 237 237 235 236 234 235 234 235 236 234 235 235 235 
235 235 235 234 235 236 234 234 235 235 235 233 235 234 235 234 
234 235 235 233 235 234 234 235 234 232 189 228 233 233 233 233 
234 234 233 236 235 235 236 237 236 236 238 240 240 198 193 240 238 236 236 239 
239 235 237 238 236 234 236 237 237 236 235 235 237 234 233 236 
235 235 237 237 236 235 235 235 235 234 235 233 234 234 234 234 
234 234 233 232 232 235 233 235 234 234 234 234 235 235 234 234 
234 234 234 234 235 234 235 235 235 233 234 234 233 235 235 235 
235 235 234 234 235 235 234 234 235 231 182 236 234 234 234 234 
234 234 233 237 234 238 237 238 238 238 237 238 238 237 160 242 237 238 238 239 
239 236 240 237 238 234 233 235 236 236 235 235 235 237 238 235 
235 235 235 237 235 235 235 234 233 234 234 234 233 233 233 233 
234 234 235 234 235 234 234 234 234 234 235 235 234 234 234 234 
234 235 235 235 234 234 235 235 235 234 237 235 237 235 234 234 
234 235 232 235 234 235 235 233 235 211 202 236 234 233 233 233 
232 233 234 237 236 238 237 237 236 237 236 238 238 238 184 208 241 237 237 239 
237 239 238 238 236 238 236 236 236 235 237 236 236 237 235 237 
236 236 235 238 238 237 235 233 233 232 233 234 235 234 234 233 
236 235 235 234 236 234 234 235 234 234 234 233 235 234 233 234 
234 234 234 234 233 235 234 235 235 233 234 233 232 234 234 234 
234 232 233 234 236 234 234 233 226 169 231 234 233 234 232 232 
233 234 232 237 237 236 237 237 237 237 239 238 236 237 235 151 241 238 237 237 
238 240 237 236 237 239 237 236 235 236 235 236 236 235 234 235 
235 236 235 235 236 237 236 236 234 234 236 236 237 237 236 235 
229 228 224 222 219 217 216 231 234 234 234 234 234 233 234 233 
234 234 234 233 234 233 234 234 233 234 233 235 234 234 234 235 
234 234 235 235 234 234 233 234 182 206 236 233 234 234 234 233 
233 233 234 238 237 237 237 237 237 238 238 235 238 238 239 181 194 238 238 238 
239 239 239 237 236 238 236 236 234 237 236 236 236 235 236 237 
236 235 236 235 234 236 236 236 236 236 235 166 142 139 130 122 
109 104 99 91 88 98 101 171 234 234 234 234 233 233 234 234 
234 233 234 234 233 233 233 234 235 234 234 234 234 234 234 235 
235 235 235 235 234 234 232 225 167 233 233 234 234 234 234 233 
234 233 232 237 235 235 236 237 237 235 237 236 234 233 235 239 149 233 238 236 
237 237 238 237 238 237 238 237 234 235 235 236 235 234 236 236 
235 234 236 236 235 235 234 236 234 235 235 201 165 167 178 209 
212 220 225 234 235 239 238 229 235 234 234 234 233 234 234 234 
234 234 234 233 234 233 234 234 234 234 234 235 234 234 233 233 
233 233 234 232 233 232 235 176 214 235 234 232 233 233 234 232 
232 232 233 236 237 236 236 235 235 236 237 237 238 237 237 239 208 161 242 237 
235 236 235 237 239 237 236 237 236 235 234 235 235 236 234 235 
235 236 236 236 235 235 234 235 234 236 235 240 240 241 239 239 
240 238 240 237 238 238 238 235 236 234 234 233 233 234 235 234 
234 234 234 233 234 235 232 234 232 233 233 233 234 233 233 233 
234 234 233 233 233 234 206 169 233 234 233 234 234 233 234 233 
233 233 232 236 236 235 238 238 236 236 236 236 237 235 235 236 242 160 218 239 
236 236 235 237 238 237 235 235 236 234 237 235 235 234 235 236 
235 236 235 234 235 235 235 234 235 237 234 236 236 237 235 235 
235 234 235 236 235 235 233 233 234 234 234 235 235 233 234 233 
234 234 233 234 233 232 232 232 233 232 233 234 233 234 234 233 
233 232 234 234 235 228 149 224 234 234 234 233 234 235 234 232 
231 233 233 236 235 235 232 234 235 236 236 235 237 237 236 236 239 236 158 238 
239 236 237 235 236 234 234 236 235 236 236 235 235 236 236 236 
235 235 236 236 235 235 236 237 234 230 233 235 233 235 233 234 
234 234 234 233 233 235 234 234 234 234 233 233 233 235 234 234 
234 234 234 235 233 234 233 233 234 233 231 233 232 231 231 232 
232 233 232 231 235 170 190 233 235 232 233 233 233 233 233 232 
232 232 232 236 235 234 235 236 235 236 235 235 236 234 236 236 235 238 193 158 
239 237 235 236 237 236 235 235 235 234 234 234 235 234 234 233 
236 234 235 235 234 235 235 235 235 235 233 234 233 233 233 234 
234 234 234 235 233 234 234 234 234 232 234 235 233 234 233 233 
233 234 233 231 232 233 232 233 231 232 234 232 232 231 231 232 
232 233 230 234 198 169 234 232 234 233 232 233 233 233 235 233 
231 233 232 235 235 237 235 236 235 234 235 236 236 236 237 237 236 237 242 177 
190 237 236 234 236 235 234 235 236 234 234 235 234 234 235 236 
234 235 235 235 235 234 236 234 234 234 234 234 234 234 234 234 
234 234 234 233 233 234 235 233 233 233 233 232 234 233 232 234 
234 233 232 232 232 233 230 231 231 233 234 231 230 231 232 231 
231 231 232 225 147 229 235 232 234 233 233 234 234 235 232 234 
232 231 232 235 235 235 235 234 235 234 236 236 235 235 235 237 236 235 236 239 
153 211 238 236 235 235 235 235 234 236 236 234 235 234 235 235 
235 234 233 234 235 235 236 236 235 233 233 234 233 234 234 233 
234 233 232 233 234 234 233 233 234 235 234 234 234 234 235 234 
234 233 233 232 232 230 233 231 231 230 232 230 231 229 230 231 
230 229 228 166 212 234 232 233 233 232 233 233 234 234 233 233 
233 231 232 235 237 235 236 235 236 236 236 234 234 236 235 233 235 234 236 238 
232 144 223 239 235 235 236 235 235 234 235 235 235 235 235 235 
234 235 234 235 234 234 236 235 234 234 234 235 233 233 234 233 
233 234 234 234 234 233 233 234 234 235 233 233 233 232 234 233 
234 232 230 232 232 231 230 228 230 231 231 229 228 227 228 229 
231 225 171 192 235 233 232 232 232 233 233 232 232 232 233 234 
234 232 233 236 235 234 235 236 234 233 234 234 234 235 236 235 235 236 236 236 
238 227 146 224 237 235 234 234 234 235 234 235 235 235 233 234 
234 235 233 234 236 235 235 238 235 233 233 233 233 234 233 233 
233 232 232 233 233 232 233 233 234 234 233 236 235 235 234 234 
234 232 233 232 232 231 232 231 231 233 227 228 228 229 230 231 
226 166 185 234 234 232 232 232 233 233 233 234 233 233 233 234 
232 232 232 234 235 234 234 235 235 235 235 236 235 235 235 235 237 237 237 234 
234 236 217 151 226 240 235 234 235 234 235 235 235 235 235 233 
235 234 234 234 235 235 233 231 234 234 233 233 233 234 233 234 
234 234 233 232 234 234 234 234 233 234 234 232 235 233 233 232 
234 233 231 230 231 229 229 229 229 231 230 227 228 228 231 225 
158 185 232 234 231 232 233 232 232 232 233 232 232 232 233 232 
232 231 232 235 235 234 236 234 236 236 235 235 235 236 235 235 235 235 237 236 
235 236 236 213 149 213 239 235 236 234 234 234 235 235 234 235 
234 235 234 234 233 233 233 234 233 234 234 233 234 233 233 233 
233 233 234 234 234 233 233 234 233 234 234 234 234 234 233 234 
232 233 232 233 231 229 228 230 229 226 229 226 230 231 228 165 
196 233 233 231 231 231 232 232 232 233 230 232 232 232 231 233 
233 231 231 235 235 235 235 235 233 235 234 235 235 237 237 234 235 236 235 236 
235 232 235 238 220 137 206 238 236 235 233 235 234 235 235 232 
234 233 232 232 234 235 236 234 233 233 233 235 232 232 234 233 
233 233 231 233 234 235 233 233 233 234 231 233 235 234 231 229 
231 232 231 230 231 230 231 230 229 228 228 227 231 217 152 192 
234 231 229 230 232 230 232 231 231 230 231 232 232 231 232 231 
233 231 231 235 236 235 234 235 234 235 237 235 234 234 235 236 235 235 235 236 
235 235 232 235 238 230 136 191 239 235 235 234 235 234 233 234 
234 233 234 234 234 234 235 233 234 234 231 232 234 234 233 232 
232 233 232 234 232 233 233 232 233 233 232 233 233 233 231 231 
231 230 232 229 231 233 230 227 228 227 227 231 197 133 205 231 
230 230 231 230 231 229 231 234 232 231 231 232 231 232 231 229 
230 230 231 236 234 235 234 234 237 234 235 235 235 235 235 235 236 235 236 236 
236 234 234 234 235 239 232 152 176 235 236 234 233 233 234 234 
234 233 233 233 233 232 234 233 232 233 233 234 233 233 231 232 
232 233 233 232 232 234 232 233 232 233 232 232 232 233 232 231 
232 231 230 230 229 231 230 228 231 230 222 173 148 219 231 230 
230 229 228 230 230 228 230 230 231 230 231 232 232 231 231 233 
232 230 229 234 234 237 234 233 235 232 234 236 236 236 235 234 236 236 235 235 
238 234 234 235 234 236 240 239 169 137 228 238 237 236 233 234 
232 233 233 233 233 232 233 234 233 234 234 236 234 232 233 232 
233 233 230 231 233 232 232 230 231 231 231 231 231 231 232 231 
228 230 230 229 228 228 231 233 232 216 144 178 230 231 229 228 
227 229 229 229 228 230 230 230 230 230 230 231 232 231 231 233 
229 227 228 234 234 235 235 234 234 235 234 235 234 236 235 236 235 235 236 236 
235 236 238 234 235 236 238 239 241 205 132 188 235 235 234 235 
235 233 233 234 234 232 233 233 234 235 234 234 235 231 232 231 
231 234 233 231 232 231 233 232 233 231 231 230 230 231 232 232 
231 230 230 228 227 229 231 227 171 154 213 231 231 229 227 227 
228 229 229 229 229 230 230 229 229 230 229 229 230 230 229 229 
231 229 229 234 233 232 234 234 233 234 232 233 235 235 235 236 235 235 235 234 
234 234 236 237 235 236 236 235 236 237 232 178 150 200 237 236 
235 234 233 230 232 233 233 233 234 234 233 233 234 231 232 233 
231 233 233 230 231 231 231 232 232 232 232 229 229 230 231 232 
230 231 231 231 232 232 205 154 198 228 232 230 227 228 228 228 
229 228 228 228 229 229 228 229 229 231 230 230 229 230 231 230 
228 228 230 234 234 235 235 235 234 234 234 235 234 233 235 234 237 236 235 235 
235 235 235 235 234 235 235 235 234 235 237 238 223 157 159 201 
233 236 235 236 232 232 231 231 232 233 233 232 232 229 231 229 
232 233 231 230 230 230 228 230 229 231 230 230 230 231 231 231 
231 232 233 232 209 169 192 229 229 229 229 226 228 227 228 228 
227 229 228 229 228 228 228 229 229 228 229 228 228 229 230 230 
228 228 229 235 234 236 236 232 234 235 234 232 233 234 235 235 235 236 236 235 
234 234 233 235 235 235 233 233 233 233 233 234 237 238 216 164 
142 191 224 234 233 235 235 234 234 234 233 232 232 230 229 230 
230 231 230 229 229 229 230 229 232 230 232 230 231 231 230 233 
233 230 204 175 197 227 233 232 230 227 228 229 227 228 228 228 
227 227 227 226 228 227 229 227 228 229 228 228 229 229 229 226 
228 226 229 234 234 234 233 233 233 233 234 236 235 234 233 233 233 235 234 234 
234 234 235 235 234 234 233 232 233 234 232 232 234 235 237 237 
224 172 150 166 201 231 236 237 236 235 236 234 234 231 232 230 
232 231 231 231 229 231 230 230 231 233 234 229 232 236 233 210 
181 171 202 233 233 233 231 231 228 230 226 228 228 228 227 227 
228 226 228 228 229 230 226 225 227 228 228 228 228 228 229 228 
229 228 227 234 234 234 233 232 232 232 234 232 232 234 234 235 234 234 233 233 
234 235 235 234 235 234 231 234 231 234 233 232 234 233 235 235 
236 235 232 197 165 146 167 195 221 233 236 238 237 234 237 234 
233 234 233 232 233 233 234 233 233 233 233 224 197 161 139 158 
213 234 235 231 230 230 230 228 227 231 229 228 228 228 229 228 
228 228 227 228 228 227 226 227 230 227 229 231 228 227 228 228 
228 227 229 233 233 234 233 232 233 233 234 232 233 234 233 236 234 234 234 233 
233 234 232 233 233 233 231 232 231 232 231 233 233 234 234 233 
232 232 234 238 235 232 216 188 173 156 153 169 186 193 204 215 
213 216 226 225 225 220 209 194 192 174 167 165 176 203 226 234 
233 230 230 230 229 229 230 231 231 230 228 229 229 230 231 228 
229 230 226 226 226 228 227 226 227 227 228 227 226 228 228 227 
224 228 226 233 232 232 233 232 235 233 232 233 234 233 235 234 233 232 232 233 
233 236 235 234 233 232 232 234 231 231 232 233 232 232 231 233 
234 233 231 231 232 232 235 235 233 228 222 211 161 138 130 130 
133 132 138 140 152 161 163 174 190 219 232 232 231 229 232 231 
230 230 229 229 230 229 227 231 229 231 229 228 228 229 229 228 
230 231 227 225 226 226 227 227 226 228 226 226 227 227 224 227 
228 227 226 233 232 232 232 232 231 232 232 233 233 232 234 231 232 233 232 233 
233 234 233 231 233 232 231 231 230 231 231 231 231 232 232 230 
231 232 231 228 231 232 231 230 233 232 233 232 232 232 232 234 
233 232 233 233 233 234 234 230 231 233 232 232 232 231 230 229 
230 228 229 228 229 230 230 230 229 231 228 229 229 227 229 228 
230 229 229 227 227 226 227 227 228 227 225 226 227 226 227 227 
228 227 226 232 232 232 232 232 232 232 232 233 233 234 233 233 231 232 231 232 
232 232 234 232 233 230 231 231 232 230 229 230 230 231 230 232 
232 230 231 231 231 230 228 232 231 229 231 230 231 230 233 232 
232 232 231 232 233 233 233 232 231 229 230 229 228 227 230 228 
230 231 231 231 230 230 229 230 229 230 230 229 230 229 231 230 
229 230 227 227 225 227 227 227 226 225 226 225 225 226 226 226 
227 225 227 231 232 232 232 231 231 233 231 232 231 231 231 232 233 232 231 231 
230 231 231 231 232 231 231 232 231 229 232 230 230 230 230 230 
231 228 229 230 230 231 231 229 229 231 230 229 230 231 232 229 
230 231 232 230 230 229 230 230 230 230 229 230 229 228 231 232 
231 229 230 230 229 230 229 229 231 231 230 229 228 230 229 229 
230 231 228 227 225 226 225 225 226 225 227 225 226 226 226 226 
225 228 226 231 230 230 231 231 231 231 230 230 232 231 232 231 230 231 231 231 
230 230 229 231 231 230 230 230 230 231 229 230 230 230 231 230 
228 231 230 229 230 230 231 229 230 230 231 229 229 229 232 230 
231 230 229 229 228 230 229 230 230 229 229 229 230 231 230 230 
231 230 230 229 230 231 229 230 229 229 230 230 230 230 231 231 
229 229 225 229 226 226 226 225 225 225 226 227 226 226 225 225 
226 226 225 232 231 231 231 232 230 231 231 231 232 231 231 229 230 231 229 230 
229 231 231 229 232 230 230 230 230 230 230 231 230 231 231 230 
231 229 230 230 231 229 229 230 229 230 230 228 230 230 228 231 
231 229 230 230 230 230 229 229 230 230 230 230 229 230 229 229 
231 231 231 230 228 229 230 226 229 229 229 228 229 228 227 228 
229 227 224 224 227 225 226 223 225 224 226 223 222 221 224 226 
225 225 224 232 232 232 230 231 231 231 232 230 230 229 229 229 229 229 226 227 
229 229 228 228 231 230 230 230 230 230 228 229 231 230 230 224 
227 228 228 230 229 229 229 229 228 230 230 230 228 229 230 231 
228 230 229 231 232 231 230 228 230 231 229 229 229 230 229 230 
230 231 231 230 230 231 231 231 228 231 230 229 226 226 229 230 
231 225 225 225 227 225 223 225 226 227 226 228 229 230 229 224 
224 224 226 