P2
# Created by IrfanView
100 100
255
250 249 250 250 251 250 250 251 251 251 250 250 251 251 252 252 251 
251 251 251 251 251 251 250 250 251 252 252 251 251 250 250 251 
250 251 251 251 251 250 250 251 251 251 251 252 251 251 252 252 
251 251 252 251 251 252 251 252 252 251 251 250 250 249 250 251 
250 252 252 251 251 250 251 250 250 248 250 250 250 249 248 248 
249 249 249 249 249 249 250 250 249 249 249 248 248 249 249 249 
249 250 250 249 250 250 251 249 250 250 250 250 251 250 250 251 250 252 250 250 
250 251 251 251 251 251 250 252 251 251 251 251 251 251 250 250 
251 250 250 251 250 251 250 249 251 251 251 251 251 251 252 251 
252 251 252 251 250 252 252 251 251 250 251 250 250 250 250 250 
250 250 250 250 250 249 251 249 249 249 250 250 251 250 248 248 
248 248 247 248 249 248 250 250 249 249 248 246 247 248 248 249 
249 248 249 249 250 249 250 250 250 250 250 251 250 249 250 250 251 251 250 250 
250 250 250 251 251 250 251 251 250 250 250 250 250 250 252 251 
251 250 249 251 251 250 249 250 249 250 249 250 251 249 248 251 
250 250 250 250 251 251 250 251 250 250 250 250 249 250 250 250 
249 250 250 250 250 250 250 250 249 249 249 249 251 250 249 249 
248 248 249 248 249 249 250 250 249 248 248 248 248 247 246 248 
248 248 249 249 249 249 249 250 250 251 250 249 249 249 249 251 251 250 250 250 
250 250 250 250 250 250 250 249 250 250 250 250 250 250 250 249 
249 250 252 251 251 250 250 250 249 249 250 250 250 250 250 249 
250 249 250 250 250 249 249 250 249 249 249 250 249 250 250 249 
249 249 249 250 249 249 250 251 251 249 250 249 250 250 250 248 
248 249 249 249 249 249 249 249 249 249 249 249 248 248 247 246 
249 249 249 250 249 249 249 249 249 250 250 250 251 250 250 250 250 250 250 249 
250 250 250 250 250 249 250 250 251 251 251 250 250 250 249 250 
250 250 250 251 250 249 251 250 249 249 249 251 250 250 249 249 
251 248 250 250 250 248 248 249 249 248 248 248 249 249 250 249 
250 249 249 249 249 249 248 248 249 250 250 249 250 251 250 248 
249 249 247 248 248 248 249 249 248 249 247 247 248 245 247 247 
248 248 248 247 248 249 249 250 250 250 249 249 249 250 250 250 250 250 250 249 
249 250 249 250 250 251 251 250 250 250 249 249 249 249 250 250 
250 250 250 250 250 250 247 250 250 250 251 251 251 250 250 251 
251 251 249 251 250 250 250 248 248 250 250 248 249 249 249 249 
248 248 249 249 250 250 249 249 249 249 249 250 250 250 249 249 
247 247 249 249 248 249 249 247 249 249 248 248 247 248 248 248 
248 247 248 248 249 248 248 249 248 249 249 249 249 249 249 249 250 249 250 249 
250 249 250 250 249 248 249 249 249 249 249 249 250 250 250 251 
251 249 249 250 251 249 250 249 251 251 251 250 249 247 246 248 
246 247 247 247 250 250 250 250 251 250 249 248 248 249 248 248 
248 248 248 249 249 248 249 250 250 249 248 249 249 249 249 249 
249 249 249 247 248 247 247 248 248 247 249 246 245 246 246 248 
247 247 246 246 247 248 248 248 249 249 249 249 248 248 248 250 249 250 249 248 
248 249 248 249 249 249 250 248 249 248 249 249 248 249 248 249 
249 249 250 250 252 251 251 243 232 221 202 208 199 203 197 208 
212 213 197 205 213 212 217 226 240 248 248 249 251 250 250 249 
248 249 249 249 248 249 250 250 249 250 249 249 248 249 248 249 
249 248 247 248 248 247 248 248 246 246 247 246 246 246 246 245 
248 245 244 245 244 246 249 248 248 249 247 249 248 248 248 249 248 247 248 249 
249 248 249 249 249 249 248 248 249 248 247 249 248 247 248 248 
250 250 250 248 228 214 201 209 222 233 240 247 250 249 250 253 
252 251 249 250 250 247 240 226 208 200 205 223 237 249 251 250 
249 249 249 246 249 249 248 247 250 250 249 249 248 249 249 248 
248 248 247 247 247 247 246 247 247 247 247 245 247 247 246 247 
246 245 245 247 244 249 247 247 247 248 247 248 249 248 247 247 246 248 249 248 
248 249 248 248 248 248 246 248 248 248 245 247 248 248 248 249 
248 231 214 209 221 241 248 251 249 250 250 249 250 250 249 248 
250 249 250 249 250 249 249 248 250 248 246 233 209 200 217 243 
247 248 250 249 249 248 247 247 249 249 249 249 248 249 250 247 
246 246 248 247 247 247 247 248 247 247 246 245 246 245 246 245 
246 244 245 246 247 247 248 247 247 248 246 246 247 247 246 247 247 248 247 247 
248 247 247 247 247 249 248 247 249 249 250 249 247 248 244 217 
202 219 246 250 250 249 250 249 248 247 248 247 248 248 247 248 
247 248 247 248 248 249 248 246 246 247 248 249 248 249 237 209 
200 216 245 249 250 249 249 247 247 248 249 248 248 248 248 247 
248 250 248 248 247 247 246 247 247 246 246 245 245 244 246 244 
245 245 246 246 247 247 247 246 247 248 248 248 248 247 247 247 247 247 246 247 
247 248 248 247 248 247 246 247 246 247 247 250 244 210 202 232 
246 249 251 249 248 249 249 247 247 248 246 247 246 247 247 248 
245 246 247 247 248 248 248 248 246 245 246 246 248 248 248 249 
246 218 194 215 242 248 248 248 248 247 246 247 248 248 248 246 
246 247 246 247 247 246 245 246 245 245 248 246 246 244 244 245 
244 244 243 246 246 246 247 246 248 247 247 247 246 247 246 246 246 246 246 247 
246 246 246 246 248 248 247 245 247 248 245 214 199 232 249 248 
248 248 247 248 248 247 248 248 246 247 246 247 247 249 248 247 
246 248 247 247 248 248 248 246 246 246 247 246 246 246 247 247 
248 248 246 227 200 219 249 248 248 247 246 247 247 245 247 246 
247 247 247 245 247 245 245 246 246 245 246 245 245 244 244 243 
244 244 243 246 246 247 246 247 246 245 247 246 247 248 247 246 246 245 245 245 
245 247 246 247 248 247 247 248 247 232 195 223 248 248 247 247 
246 246 246 248 248 248 248 248 245 247 246 246 246 246 247 247 
246 245 245 246 247 247 249 247 245 245 247 246 247 246 246 246 
246 246 248 249 248 224 201 232 247 247 245 245 245 246 245 245 
245 247 246 246 246 246 245 245 244 246 243 243 245 243 244 245 
246 246 243 246 246 247 245 247 246 247 247 247 248 247 246 245 245 245 245 246 
245 245 245 246 247 247 250 246 210 208 244 249 248 246 246 246 
246 247 246 248 247 246 246 247 247 247 246 247 245 244 246 245 
245 247 246 248 247 246 245 246 245 245 245 246 247 247 246 246 
246 245 245 247 248 249 244 206 209 244 246 246 243 244 245 245 
245 245 244 245 245 245 244 244 244 244 245 244 244 245 246 243 
243 244 244 245 246 246 245 247 247 247 247 247 247 247 246 245 243 243 242 243 
244 245 245 245 246 248 239 210 230 246 246 244 244 246 247 247 
246 247 246 247 246 245 248 247 246 248 247 247 247 245 246 247 
246 245 247 245 245 245 246 246 246 246 245 246 246 246 245 246 
245 245 245 246 247 247 248 249 236 199 228 247 246 244 244 243 
244 245 244 245 245 244 243 244 245 245 245 243 244 243 244 243 
242 243 243 244 245 244 246 246 247 247 247 246 247 248 246 245 244 244 243 243 
242 244 243 245 245 230 206 242 248 246 247 246 245 246 246 246 
246 247 247 246 246 247 247 245 245 245 246 246 245 246 245 244 
245 245 246 246 246 244 247 246 246 246 246 246 245 246 246 244 
247 247 247 247 245 245 246 247 248 234 209 224 245 246 245 244 
244 245 244 246 245 243 244 244 245 244 244 244 245 243 243 243 
244 243 243 244 243 245 248 245 246 247 247 247 247 248 243 245 243 243 242 242 
243 242 246 246 219 214 244 246 245 244 246 246 246 245 244 244 
246 247 246 246 246 247 246 246 244 245 246 248 246 245 247 246 
246 246 245 246 245 246 245 246 244 245 246 245 246 245 245 244 
248 245 245 246 246 245 245 246 244 247 246 221 214 244 245 244 
242 243 244 244 244 245 244 243 244 243 243 243 242 245 244 244 
243 242 244 246 245 245 244 245 248 245 247 247 249 248 244 245 244 244 243 242 
245 245 247 217 219 245 246 245 245 245 243 244 246 245 245 245 
246 245 245 245 245 244 245 245 245 246 244 244 246 245 245 245 
245 245 245 245 246 245 247 244 245 246 245 245 245 246 246 246 
244 247 247 246 247 245 245 247 244 243 245 248 230 205 238 244 
242 243 242 244 243 244 245 244 245 245 243 243 244 244 244 244 
243 242 242 245 244 245 248 244 245 245 246 245 246 244 245 246 246 244 242 242 
244 245 212 228 245 246 245 245 245 248 248 246 245 244 245 247 
245 246 246 246 246 245 245 245 245 245 246 245 245 245 245 244 
245 245 245 246 245 246 244 247 246 245 246 246 245 245 246 247 
245 244 245 246 246 246 246 246 244 243 242 243 247 224 203 238 
243 243 243 244 244 243 243 243 244 243 243 243 242 242 244 244 
242 244 243 244 245 246 245 244 245 245 244 245 245 244 244 244 245 245 243 242 
244 216 222 249 247 245 246 246 248 246 247 248 246 244 245 244 
244 245 246 246 245 245 245 244 245 245 245 244 243 244 244 243 
244 245 246 245 245 244 246 244 244 245 246 246 245 246 247 245 
245 245 244 246 246 244 245 245 245 243 243 243 244 245 231 209 
242 246 243 242 243 244 243 243 245 244 243 243 242 241 242 242 
242 243 242 245 245 245 243 244 246 245 245 245 245 245 243 244 244 245 244 244 
225 218 243 246 246 245 246 246 247 245 246 248 247 246 245 245 
246 245 244 245 245 245 246 245 244 244 245 244 244 245 245 244 
244 245 245 244 245 244 246 246 246 244 244 246 245 245 245 246 
244 245 245 244 243 244 245 244 243 241 243 244 243 243 246 234 
212 238 243 242 243 243 243 242 244 245 243 242 243 241 242 244 
242 241 242 243 243 242 245 244 244 244 245 243 244 243 245 245 243 243 245 221 
215 242 243 245 246 247 245 245 245 245 245 246 245 247 246 245 
245 245 245 245 245 244 245 244 245 244 244 245 244 244 245 245 
245 244 245 244 246 245 244 244 244 243 245 246 245 246 246 245 
246 245 245 244 246 244 244 245 244 244 244 244 243 243 245 246 
225 208 242 241 243 243 242 243 242 243 242 242 241 243 243 242 
242 242 241 244 245 244 243 244 244 244 245 246 245 244 244 244 243 248 216 202 
239 242 242 245 245 246 246 246 245 246 245 246 245 244 246 245 
244 245 245 245 245 245 244 243 244 244 244 244 244 244 245 243 
244 244 245 245 245 245 245 245 244 245 244 245 246 245 245 245 
245 244 245 246 245 244 244 245 244 245 245 243 242 244 244 243 
245 214 217 243 243 242 243 244 243 244 243 243 243 241 242 242 
241 240 241 244 243 243 244 245 243 245 243 244 244 246 245 244 243 233 179 238 
242 243 243 244 245 244 245 244 245 246 246 245 245 246 245 245 
246 245 246 245 245 245 245 244 245 243 243 244 244 244 244 242 
244 243 246 245 244 245 244 244 246 246 245 243 244 244 244 244 
245 245 246 243 244 245 245 244 243 244 244 245 242 243 241 242 
244 243 212 223 244 242 244 243 242 245 244 243 241 241 243 242 
242 241 240 242 243 244 244 243 243 242 243 243 243 244 244 242 245 184 235 246 
244 243 245 245 245 245 244 245 244 245 245 246 246 246 249 246 
244 245 244 245 245 245 244 244 245 243 244 245 245 245 243 244 
244 244 245 244 245 244 245 244 243 243 245 245 244 245 244 245 
244 244 245 244 245 244 244 245 243 243 243 244 244 244 243 245 
243 243 239 204 238 243 242 243 242 243 242 242 242 242 241 241 
241 241 240 243 244 244 244 244 244 244 245 244 245 243 245 244 209 216 245 245 
244 245 246 245 245 244 245 245 245 246 244 245 245 245 246 245 
246 246 244 243 245 245 244 245 246 245 244 244 244 243 245 243 
244 243 245 246 244 244 244 244 244 244 245 244 244 245 244 245 
245 245 245 244 245 243 244 245 245 243 244 242 243 244 243 243 
242 243 246 233 212 242 242 242 243 241 242 240 241 240 241 240 
241 241 241 243 245 244 243 244 243 244 242 243 243 243 241 240 188 243 243 243 
244 244 244 245 245 244 243 245 244 245 246 244 245 246 246 248 
247 245 246 246 245 245 245 245 244 245 244 243 244 245 243 243 
243 245 245 244 244 244 244 244 245 244 244 245 244 244 245 245 
245 244 244 245 245 244 244 244 244 242 243 243 244 243 242 244 
244 243 244 244 214 223 243 242 242 242 241 242 239 241 241 239 
240 240 240 243 242 243 244 244 243 243 242 242 243 244 244 207 223 243 243 244 
244 243 244 244 244 247 243 244 244 244 245 245 246 245 246 248 
246 244 245 245 245 247 247 246 246 246 244 243 243 243 243 244 
243 243 244 243 242 244 244 244 243 243 243 243 243 244 244 244 
245 246 245 244 244 244 243 243 243 243 244 243 244 245 243 244 
243 242 244 242 243 202 236 242 241 241 242 241 240 240 241 239 
238 241 240 243 242 241 241 242 243 243 242 243 243 243 238 208 244 243 243 244 
243 244 243 242 244 244 244 244 245 244 244 245 242 245 246 247 
245 244 245 244 244 246 246 245 246 247 244 244 244 245 243 245 
244 244 245 244 244 244 245 244 243 244 244 245 243 243 244 244 
244 247 245 242 244 243 244 243 244 243 244 243 244 244 244 242 
243 244 244 242 244 232 200 243 242 240 240 240 241 241 242 240 
239 239 238 243 242 245 243 242 241 242 242 241 243 246 214 240 245 243 244 243 
243 245 243 244 244 244 243 244 242 239 242 243 244 246 245 245 
246 247 246 246 245 246 246 245 247 247 245 244 244 244 243 244 
244 243 243 244 245 243 243 244 243 244 244 243 244 243 247 244 
245 246 243 244 242 244 242 242 243 243 244 244 243 242 242 243 
242 244 244 244 240 243 195 225 241 241 241 240 239 240 240 241 
241 240 239 245 243 242 243 242 242 242 242 242 243 244 217 245 243 242 243 243 
242 243 244 243 244 243 244 243 242 244 242 243 241 241 242 242 
243 244 245 244 245 245 246 245 247 247 244 244 244 244 244 243 
244 244 244 244 243 244 243 244 243 243 242 245 242 243 243 244 
244 244 244 244 244 243 243 243 243 243 244 243 242 243 242 242 
242 243 244 243 241 241 223 206 238 240 237 240 240 241 241 240 
241 240 239 242 243 243 243 241 243 242 242 241 241 234 228 243 242 244 243 243 
242 242 243 243 243 242 242 243 243 243 243 243 243 242 242 243 
243 243 243 243 243 244 243 244 245 245 243 243 244 243 242 243 
243 243 243 244 243 244 241 243 243 242 242 242 242 243 242 243 
244 242 244 245 243 243 242 243 243 244 243 243 242 241 242 242 
242 243 243 241 241 241 224 196 239 239 239 239 238 240 239 238 
239 240 240 241 243 241 240 243 241 242 240 240 241 221 241 242 242 243 243 243 
243 243 243 243 242 243 242 245 243 243 243 243 241 243 243 245 
242 245 244 244 245 243 245 244 244 245 244 244 243 243 244 244 
243 243 243 244 242 243 242 242 242 242 243 243 241 241 243 242 
242 241 242 241 241 239 239 239 241 242 243 241 241 242 242 240 
242 242 241 240 242 241 241 187 228 237 239 240 240 240 240 240 
238 240 239 242 242 242 242 240 241 242 242 242 243 217 241 243 243 243 242 242 
243 243 241 240 242 242 242 242 242 242 242 244 243 242 242 243 
244 245 245 245 243 244 245 245 244 244 244 244 243 244 242 241 
242 244 243 242 242 242 244 242 242 243 241 241 241 239 239 239 
240 240 239 241 240 243 242 243 242 242 243 242 242 241 242 243 
240 241 241 241 242 242 241 220 215 236 238 239 239 238 238 239 
240 239 239 243 242 243 241 242 242 241 241 239 236 221 241 242 244 244 243 243 
240 241 243 242 242 242 243 242 241 239 239 239 237 239 237 239 
239 243 246 241 240 242 244 244 246 243 243 243 244 243 244 244 
244 243 243 244 245 242 242 241 241 240 240 241 240 242 243 242 
243 242 240 242 241 241 242 241 242 242 242 242 241 241 241 240 
240 241 241 241 240 241 241 239 193 238 240 238 238 238 238 239 
239 239 238 241 240 242 242 241 242 241 242 243 223 239 243 242 242 242 242 243 
243 242 242 242 242 242 243 242 242 239 238 238 236 236 235 221 
222 215 224 231 238 241 242 242 243 242 242 242 242 242 242 242 
243 244 243 243 242 242 243 242 242 239 241 241 241 241 244 244 
244 242 244 242 241 240 241 243 241 240 241 240 242 240 240 240 
240 241 241 242 242 240 239 239 207 217 240 239 239 240 238 239 
239 238 239 240 243 241 242 241 240 241 242 241 209 242 242 242 242 242 243 243 
242 242 242 242 242 242 242 241 242 241 242 242 242 243 201 146 
154 145 169 175 214 243 243 242 241 242 242 242 242 242 241 244 
244 244 245 243 243 244 242 242 242 242 241 242 242 240 234 235 
225 230 238 235 243 239 241 241 241 241 241 241 241 241 240 240 
241 241 240 240 239 239 238 239 231 201 239 239 239 239 238 239 
237 237 239 243 241 242 241 241 241 242 242 239 207 242 243 243 243 243 243 242 
241 244 242 241 242 242 241 242 242 242 241 242 243 241 216 194 
186 177 183 197 215 245 242 243 244 244 242 242 243 243 244 243 
241 242 242 243 244 243 241 241 243 243 240 240 242 227 120 96 
87 93 137 129 232 237 241 243 242 243 240 240 240 241 241 241 
241 240 241 240 240 239 238 240 237 187 235 241 239 239 239 239 
239 239 240 241 242 240 242 242 243 242 242 227 218 242 242 243 243 242 243 243 
244 243 242 241 242 241 242 241 242 241 242 242 240 242 240 239 
241 244 244 245 245 243 242 243 243 243 243 242 242 243 240 242 
242 244 243 242 243 243 242 244 245 242 241 241 239 236 190 159 
169 151 167 188 232 240 240 240 241 242 241 240 240 239 239 240 
240 239 240 239 240 239 240 240 241 199 222 238 239 238 238 238 
239 239 240 241 241 243 242 240 242 243 241 212 232 242 243 241 242 243 243 243 
243 245 242 243 243 242 242 242 240 240 241 240 242 236 241 243 
246 245 244 245 244 243 243 242 242 242 242 242 242 241 242 240 
242 241 242 242 241 241 241 242 243 241 241 242 241 241 241 239 
241 242 241 241 240 241 242 240 241 242 241 240 240 240 240 239 
240 240 239 239 240 239 240 238 240 213 207 238 239 238 239 239 
236 237 239 242 241 239 241 242 241 242 243 208 239 241 242 242 244 242 243 245 
244 243 242 244 244 242 241 242 241 239 240 239 237 239 243 243 
242 243 243 243 243 242 243 241 242 242 242 241 242 241 240 243 
243 243 243 241 242 241 241 241 241 242 241 241 241 241 244 244 
243 242 243 241 241 241 241 241 241 241 241 240 238 240 240 240 
240 239 240 239 239 238 239 239 239 228 190 239 239 239 239 239 
238 235 236 241 242 242 241 241 243 241 241 204 242 242 243 242 242 243 242 240 
243 243 242 243 243 242 242 242 242 241 240 239 240 241 243 243 
243 243 243 243 242 244 243 242 243 242 243 243 242 241 243 242 
243 242 241 242 242 242 241 242 242 241 241 241 241 241 241 242 
242 240 242 241 239 241 241 241 241 242 240 239 239 240 240 240 
238 240 240 240 240 238 239 240 239 239 185 235 240 239 239 239 
237 236 236 242 241 241 241 241 241 241 243 207 242 242 242 243 243 244 244 243 
242 242 243 243 241 241 242 242 241 242 242 242 244 243 243 243 
245 244 244 242 244 241 243 244 243 243 245 244 242 243 242 242 
243 243 243 243 242 242 242 243 241 240 241 241 243 240 240 241 
242 241 241 241 242 241 241 241 241 241 239 239 239 239 242 239 
239 240 241 241 240 239 239 240 238 238 200 229 237 237 237 237 
238 238 238 241 241 242 242 242 243 241 241 212 240 241 242 243 242 242 242 242 
243 243 242 243 242 242 243 242 241 242 242 243 243 242 243 243 
243 242 243 243 242 244 244 243 242 243 243 243 243 242 243 243 
243 243 243 244 243 241 241 242 242 242 242 241 242 242 243 241 
242 241 240 241 239 240 240 240 240 240 240 239 239 239 239 238 
239 239 240 240 240 239 237 239 236 236 210 225 240 237 238 238 
236 237 236 241 241 240 242 242 241 239 240 210 241 242 242 242 243 243 242 241 
244 243 243 242 242 241 242 242 242 242 242 241 242 242 242 242 
243 243 243 242 242 243 243 242 246 243 243 242 243 241 243 243 
242 241 243 243 242 242 241 240 242 241 240 241 241 240 240 241 
243 241 240 241 241 241 242 241 240 239 240 240 240 239 238 238 
239 240 238 240 239 238 238 238 238 237 222 211 240 238 237 237 
238 238 238 243 241 241 242 241 244 241 239 219 239 242 242 244 242 243 243 242 
241 242 243 243 242 242 242 243 242 242 243 242 241 243 244 244 
244 243 242 244 244 242 243 244 243 242 243 242 242 242 241 241 
243 244 243 242 241 241 241 241 240 242 244 242 241 242 241 241 
242 241 241 242 240 241 240 240 241 241 241 241 239 238 241 238 
239 238 238 239 239 239 238 239 238 237 221 208 240 237 237 236 
237 238 235 242 242 243 242 242 242 240 241 215 241 241 242 242 242 242 243 242 
243 243 243 242 242 242 242 241 241 241 243 242 243 243 244 242 
243 243 243 243 243 244 244 243 243 243 243 243 243 241 242 242 
241 242 243 242 242 241 242 242 242 241 240 242 242 241 241 241 
241 241 240 240 241 240 242 241 240 241 241 241 240 238 238 239 
239 240 238 238 238 238 238 239 239 239 226 199 237 236 238 237 
237 237 237 241 241 241 242 242 241 241 242 212 242 241 242 242 243 243 243 242 
243 242 243 242 243 242 243 242 242 242 242 243 241 243 243 243 
243 242 242 244 244 243 243 243 244 243 243 242 242 242 242 243 
242 242 242 242 241 241 241 241 240 241 241 241 241 240 239 241 
241 241 241 239 240 240 240 241 240 240 240 241 240 239 239 239 
239 238 239 237 238 237 237 238 240 240 230 198 235 238 238 238 
237 238 235 241 241 242 241 241 241 241 242 206 243 242 242 242 243 242 242 242 
242 243 244 242 243 242 242 241 243 243 243 242 242 241 243 244 
242 242 242 244 243 242 243 242 243 245 243 243 242 242 242 243 
242 242 242 243 243 241 242 242 242 240 240 241 241 241 241 239 
240 241 241 241 240 240 240 240 240 240 238 239 240 240 240 238 
239 239 240 239 239 239 237 240 238 238 235 193 237 236 237 237 
236 235 236 241 241 241 241 242 242 242 241 208 242 243 242 242 243 243 243 243 
243 243 243 243 241 241 243 242 242 241 242 242 242 242 243 243 
243 243 242 241 243 243 242 242 242 243 243 243 242 241 242 241 
241 242 242 241 241 243 242 242 241 241 240 241 240 241 241 241 
241 241 241 240 240 239 240 240 239 238 239 239 239 239 238 238 
239 238 239 236 239 239 239 237 238 238 231 182 235 237 237 236 
237 235 235 241 242 242 241 243 242 242 243 209 243 243 243 241 243 243 243 242 
242 241 242 243 242 241 242 242 242 243 242 242 243 243 242 242 
244 243 243 243 242 242 242 243 242 243 244 242 242 241 243 243 
243 241 243 243 243 241 240 241 242 240 242 241 241 241 240 240 
242 241 240 240 239 239 240 239 239 239 240 240 239 240 241 240 
239 238 238 238 239 239 239 238 235 236 229 185 232 238 236 238 
238 236 237 241 242 242 241 241 240 242 243 213 243 244 243 242 242 244 242 242 
242 244 244 242 241 242 243 242 242 241 242 242 242 242 243 243 
242 242 243 243 242 242 242 242 242 243 243 243 243 243 242 242 
242 242 241 242 243 242 242 242 241 241 241 240 241 241 242 241 
241 241 242 242 239 239 239 240 239 240 239 239 239 239 238 239 
239 239 237 236 238 239 238 236 237 237 224 188 229 236 237 236 
237 235 236 241 241 241 241 242 243 240 241 215 241 241 242 243 243 242 243 243 
242 244 244 242 243 242 242 242 243 243 242 243 241 242 241 242 
243 242 242 241 241 242 244 243 243 241 241 243 241 243 241 243 
242 241 243 242 242 242 240 241 241 241 242 242 241 241 241 240 
240 240 241 240 239 239 241 240 239 239 240 240 240 240 240 238 
241 240 238 240 238 239 240 236 238 235 228 186 233 236 238 238 
238 235 236 242 242 242 242 241 240 241 242 220 235 243 243 243 242 242 243 243 
243 243 243 243 242 242 242 243 242 242 241 242 243 242 243 243 
243 241 244 243 241 241 240 242 241 242 241 242 242 242 241 241 
242 242 243 242 242 241 241 242 240 240 240 240 240 241 240 242 
240 240 240 241 240 239 239 239 241 240 240 240 239 240 238 239 
240 241 238 238 238 238 236 238 237 237 232 193 232 237 237 236 
236 235 235 242 242 242 241 242 241 241 242 226 230 242 240 242 243 243 243 242 
242 243 243 242 243 243 243 242 243 243 243 241 242 242 241 242 
241 242 242 242 242 242 242 241 241 241 241 241 242 242 242 241 
242 242 242 240 241 241 240 241 241 241 241 241 242 241 241 240 
240 240 240 241 240 240 240 238 238 240 240 239 239 240 238 239 
239 239 238 237 236 235 236 236 237 235 222 195 234 236 236 237 
236 234 236 241 241 241 243 242 242 243 242 234 214 243 243 243 243 242 243 241 
244 244 242 242 244 241 242 242 242 242 242 242 243 242 244 242 
241 242 241 241 242 241 241 241 242 241 240 242 240 242 242 241 
240 242 242 241 241 241 242 241 239 241 241 241 240 240 240 240 
241 239 239 240 238 238 240 239 240 240 238 238 238 240 239 239 
239 240 239 238 238 235 236 235 236 235 217 194 236 237 236 237 
236 235 236 242 242 242 242 243 242 242 242 236 211 243 242 241 241 242 243 243 
242 243 243 243 241 243 242 242 242 243 244 242 242 242 241 241 
244 242 242 242 241 241 242 242 241 241 241 242 241 241 241 242 
242 242 241 241 242 241 241 241 242 241 242 241 241 240 241 240 
240 240 241 240 239 239 239 239 239 240 239 239 239 240 240 237 
239 239 239 238 237 235 235 234 235 236 202 206 236 237 237 237 
237 236 237 242 242 243 242 242 242 241 241 240 211 241 242 241 243 243 242 243 
242 242 242 243 243 242 242 242 242 242 242 244 241 242 243 242 
241 241 242 241 241 242 241 242 242 241 241 241 242 241 240 240 
242 242 242 242 242 241 241 242 242 243 242 241 241 240 239 240 
241 240 239 240 240 239 241 239 239 237 239 239 238 239 239 239 
238 237 237 237 236 238 237 236 237 238 198 205 238 237 236 237 
235 237 234 241 240 241 241 241 243 242 239 240 215 232 241 241 241 242 241 243 
242 242 243 242 241 242 242 242 242 243 242 243 242 242 242 241 
242 241 242 241 241 241 242 242 241 241 241 242 241 242 242 243 
240 240 240 242 241 241 241 243 242 242 242 241 241 241 239 240 
240 239 241 240 240 239 240 238 239 239 238 237 240 238 238 239 
238 238 238 238 237 238 237 237 237 234 186 221 236 237 236 236 
235 236 235 241 243 241 243 243 241 241 241 241 228 222 241 242 240 238 241 243 
242 242 242 244 244 242 242 241 242 242 242 241 242 243 242 242 
242 241 242 241 240 242 241 241 240 241 240 240 241 241 241 241 
242 242 241 241 242 241 241 241 241 241 241 241 241 239 240 240 
240 240 240 240 240 239 240 241 239 240 238 238 240 239 238 239 
240 239 238 237 238 238 237 237 235 229 183 233 237 236 236 235 
234 236 236 241 241 241 241 241 243 240 240 241 241 210 243 240 241 244 238 241 
242 242 244 242 242 242 242 243 244 242 242 243 243 243 244 243 
241 242 242 240 241 241 241 239 241 240 241 240 240 241 240 241 
240 241 241 243 241 242 240 241 240 241 241 240 240 239 240 241 
240 241 240 241 240 240 241 238 236 239 239 239 238 239 239 238 
239 236 235 237 236 237 237 237 235 223 191 232 236 236 236 238 
235 234 235 241 241 241 240 242 242 241 241 241 242 208 235 242 241 242 244 242 
242 242 240 240 241 242 241 242 241 241 242 243 242 242 242 243 
244 242 242 242 240 240 240 241 241 239 239 239 240 240 239 240 
240 239 240 240 241 241 240 239 240 240 240 240 240 239 240 242 
241 241 241 240 239 240 240 239 241 239 236 238 237 237 236 236 
239 237 237 237 236 236 238 238 236 213 206 235 236 235 237 236 
239 237 235 240 241 241 241 242 241 242 241 240 240 230 216 242 241 241 242 241 
241 241 243 243 241 242 242 243 241 242 241 242 242 242 243 243 
243 241 241 238 238 240 240 241 241 239 239 240 239 240 241 240 
240 241 239 240 242 240 240 239 240 240 240 240 240 240 240 241 
240 240 240 240 238 240 240 239 239 237 237 238 237 238 238 238 
238 236 237 236 236 238 238 236 235 198 221 236 236 236 236 237 
239 236 234 241 241 241 241 241 240 240 241 241 239 238 198 244 241 241 242 241 
241 242 242 242 241 241 242 242 242 242 242 241 241 242 243 242 
244 242 240 239 239 239 240 241 241 239 239 238 239 239 239 239 
238 240 240 238 239 238 239 239 238 239 240 239 239 240 240 240 
240 240 240 240 237 239 237 236 238 238 238 238 237 238 237 237 
235 236 237 237 236 237 238 236 228 190 232 237 236 234 236 237 
238 236 235 241 242 241 241 239 239 241 240 242 240 244 212 233 240 241 242 242 
242 242 242 242 243 243 242 240 240 241 241 242 242 242 243 245 
243 241 241 240 240 241 240 242 242 241 239 240 241 240 239 240 
241 240 241 241 240 240 238 240 240 237 238 241 239 238 240 240 
239 238 238 239 238 239 238 239 237 237 237 238 238 238 237 237 
237 237 239 237 235 236 237 237 215 205 236 237 236 236 235 235 
237 235 236 241 241 239 243 242 240 242 240 242 241 240 233 200 243 241 241 241 
240 239 241 240 241 241 241 241 242 241 240 241 243 242 243 242 
242 240 240 238 239 238 238 239 241 239 239 240 239 240 240 240 
239 237 238 239 241 239 242 241 238 238 231 228 220 204 202 204 
237 240 239 239 238 239 237 239 237 237 237 236 236 237 238 237 
237 236 236 236 237 235 236 237 211 222 237 237 235 235 235 235 
235 234 233 241 241 241 242 240 241 241 240 239 240 240 243 195 239 242 241 241 
241 241 240 242 241 241 241 241 241 241 242 242 242 243 241 242 
244 241 240 239 194 178 183 178 174 179 180 180 183 178 190 200 
191 183 180 180 182 171 173 174 176 173 153 141 135 130 152 154 
216 239 240 239 237 236 237 236 238 237 237 238 238 238 238 237 
236 236 237 238 236 237 238 233 198 233 237 236 237 235 235 235 
236 235 234 240 240 241 238 240 240 240 241 242 242 241 241 227 209 241 241 240 
239 241 241 240 243 241 241 241 242 242 240 240 240 241 241 238 
238 238 238 240 213 203 203 201 204 194 193 194 199 195 198 191 
177 177 186 190 188 197 199 211 210 215 225 230 229 232 237 240 
232 238 239 240 238 238 237 238 236 236 236 237 236 238 237 237 
234 237 236 236 237 237 235 208 207 234 235 236 235 234 234 234 
235 235 235 241 240 240 241 240 240 239 240 241 241 240 241 244 201 234 243 240 
242 241 241 241 240 241 240 241 241 241 241 240 243 242 241 242 
241 240 240 238 242 243 241 242 241 243 243 241 240 240 240 240 
239 238 239 239 241 242 240 241 241 240 240 240 239 240 240 240 
239 238 238 237 237 238 237 238 238 238 238 238 239 237 237 238 
238 235 234 237 237 236 235 193 230 235 236 236 235 235 235 234 
235 235 233 241 238 239 241 240 240 240 240 241 241 241 241 240 228 203 239 239 
240 239 242 242 241 240 241 240 241 241 241 242 242 241 240 240 
241 240 240 241 240 241 242 241 242 241 241 241 240 239 240 240 
240 240 238 239 240 240 240 240 240 238 238 237 240 239 238 238 
239 237 238 236 237 236 237 236 236 237 237 236 238 239 237 238 
237 238 238 238 238 235 226 201 233 235 236 234 235 235 235 235 
235 235 235 240 241 241 241 241 241 240 240 241 243 239 241 241 243 198 228 241 
240 241 239 240 239 240 241 241 240 240 241 240 241 241 241 241 
240 240 241 240 240 241 241 240 241 241 240 240 238 239 239 238 
238 240 239 237 236 238 236 237 240 240 238 239 237 237 237 238 
237 238 238 237 237 238 237 236 236 236 236 236 238 236 236 237 
236 236 238 237 235 236 192 225 236 236 235 233 235 234 235 235 
234 234 235 240 239 239 239 242 240 240 241 238 241 239 240 242 242 237 192 241 
240 240 239 240 239 241 240 242 241 240 240 241 241 242 241 241 
241 240 239 241 242 242 241 240 241 241 241 240 239 239 240 239 
239 240 238 240 238 238 240 239 237 237 238 237 238 237 237 237 
237 236 237 236 236 236 236 237 236 237 237 236 239 238 235 235 
235 235 238 236 235 224 201 235 235 235 236 235 234 234 233 234 
234 234 235 241 241 240 240 240 239 240 239 240 240 240 240 240 241 245 213 208 
241 240 240 240 240 240 240 241 241 239 240 242 241 240 242 240 
240 241 240 241 241 241 240 242 240 240 239 241 240 239 240 239 
239 241 238 238 236 237 239 239 237 237 237 238 238 237 237 238 
236 237 238 238 234 236 237 236 237 236 237 235 236 236 235 235 
235 237 234 236 232 192 229 237 235 235 236 234 235 235 234 234 
236 235 234 240 240 241 241 241 240 238 239 240 240 240 240 239 241 242 245 187 
230 241 241 241 241 240 240 241 241 240 240 240 242 241 241 239 
240 239 240 240 240 240 239 240 240 240 238 240 238 241 240 239 
239 239 238 238 238 238 238 239 237 238 238 238 237 237 237 236 
239 237 238 238 238 236 236 236 236 236 237 236 237 237 238 238 
237 236 235 237 200 208 235 235 236 235 235 236 236 234 234 235 
235 234 235 239 240 240 240 240 240 240 240 241 240 240 240 240 241 241 243 227 
192 242 241 241 240 240 238 241 240 241 240 241 241 239 239 239 
240 239 239 240 240 240 240 240 240 239 240 239 240 239 239 239 
239 239 237 239 239 237 239 238 236 238 237 238 238 238 238 236 
238 237 238 235 238 236 238 236 235 237 236 236 235 236 236 238 
236 236 237 225 185 233 235 236 237 236 235 236 235 234 235 236 
235 234 235 241 240 240 240 240 241 239 240 240 241 240 240 239 241 243 240 241 
218 212 243 240 240 240 239 240 241 241 241 240 240 241 241 239 
240 240 239 240 239 238 239 240 240 237 239 238 239 241 239 240 
241 240 238 238 239 238 238 237 238 238 238 238 238 239 235 238 
236 238 237 237 235 236 235 236 236 236 237 236 236 236 237 236 
236 237 225 170 225 235 234 236 235 236 236 235 234 234 234 233 
233 234 234 240 240 241 241 241 239 240 242 240 241 240 241 240 240 242 240 241 
240 210 222 242 240 240 238 239 240 239 238 240 240 241 241 241 
240 239 240 238 238 240 240 239 240 241 240 240 240 239 239 239 
239 239 239 239 239 239 239 239 238 237 237 239 240 237 238 238 
236 236 236 235 235 235 236 236 236 236 236 234 235 235 235 234 
236 228 181 215 233 235 235 234 234 236 235 236 235 234 235 235 
235 234 234 241 240 241 241 241 241 241 241 241 241 240 241 241 240 241 241 241 
241 243 206 227 241 240 240 240 238 240 240 240 240 242 242 239 
240 239 240 238 240 239 240 241 240 239 239 239 239 240 238 239 
239 239 239 236 238 239 238 238 237 237 237 236 238 239 238 238 
237 237 236 236 235 236 237 234 234 234 236 235 235 235 234 234 
234 200 209 235 235 234 236 236 234 235 235 234 234 234 235 235 
234 234 233 241 240 241 241 239 240 240 240 240 240 240 241 241 241 242 239 242 
241 241 239 202 234 242 240 239 238 239 239 241 241 241 241 241 
240 239 239 240 239 238 240 239 239 239 239 238 239 239 239 238 
238 238 240 239 239 239 239 238 237 239 237 238 238 237 237 237 
237 234 237 236 237 238 237 235 235 234 235 234 234 235 235 232 
201 202 233 236 235 235 234 235 234 234 234 234 233 234 235 232 
234 234 234 241 242 240 240 241 240 241 242 242 240 240 241 241 242 238 241 242 
242 239 242 237 200 232 239 240 239 239 238 240 239 241 241 240 
237 239 239 237 239 239 237 240 239 240 240 240 239 238 240 239 
238 238 239 239 238 238 239 239 237 238 237 238 238 237 237 237 
237 238 237 237 237 237 237 237 236 235 236 235 234 235 234 208 
195 231 234 234 234 234 235 236 232 233 233 233 236 233 235 232 
233 234 233 241 240 240 241 241 242 241 240 241 240 242 241 241 241 241 242 239 
240 240 239 242 237 200 232 242 241 239 240 240 239 241 240 239 
238 238 239 237 239 237 237 240 238 238 238 237 239 239 239 239 
238 239 239 238 237 239 238 239 238 238 238 238 238 238 238 237 
237 236 237 237 237 238 237 236 236 235 235 234 235 236 215 195 
231 235 234 235 234 234 234 234 234 234 232 231 232 234 234 234 
232 233 233 240 241 242 240 241 241 240 241 241 241 241 241 241 241 241 241 240 
239 240 241 239 243 236 200 221 240 239 238 238 238 241 240 237 
239 237 238 239 239 238 238 238 239 238 239 238 238 239 239 238 
238 238 238 238 238 238 238 238 237 239 237 238 237 237 236 237 
238 237 237 236 236 236 236 236 236 234 235 236 233 204 199 228 
236 233 234 234 234 234 234 234 233 235 233 235 233 233 233 233 
234 233 234 239 239 241 241 241 241 241 241 241 241 241 240 240 240 240 240 240 
241 242 241 240 238 240 238 214 221 240 239 239 240 239 239 239 
239 238 238 238 240 239 239 238 239 239 239 239 238 238 237 237 
237 238 239 238 237 238 238 239 238 239 239 239 239 239 238 237 
238 237 239 237 237 237 236 237 237 235 236 235 199 186 234 236 
235 236 235 234 235 235 234 235 233 234 232 233 232 235 233 233 
234 234 233 241 241 241 241 241 241 241 241 240 241 240 240 240 241 242 241 241 
240 241 240 241 239 238 239 240 209 201 237 240 237 237 238 239 
239 238 238 238 237 237 238 238 239 238 238 238 238 238 239 238 
237 237 236 239 237 238 238 238 237 238 238 239 238 237 236 237 
237 236 237 237 236 235 235 236 237 237 234 192 193 234 235 236 
235 237 235 235 234 235 234 234 233 234 233 234 233 233 233 234 
234 234 234 240 241 240 241 241 241 241 242 240 241 239 239 238 241 241 241 239 
240 240 239 239 239 240 239 239 227 164 189 229 241 239 237 238 
239 238 236 238 237 237 237 239 238 237 237 237 237 237 237 238 
237 236 237 237 238 239 239 237 237 237 237 238 239 237 237 237 
236 237 235 235 236 235 234 235 237 216 176 206 234 236 236 234 
234 236 234 234 235 235 234 234 233 234 234 232 232 233 234 234 
233 234 232 239 241 239 241 240 242 241 240 241 241 240 240 240 240 241 242 240 
239 239 239 237 239 237 241 239 239 229 175 170 223 241 240 239 
237 237 237 238 237 237 237 237 238 236 237 238 237 235 236 236 
238 236 236 236 238 237 237 237 236 238 237 237 237 237 238 238 
236 237 236 236 235 234 235 216 173 179 215 236 236 235 234 235 
236 235 233 235 235 235 234 235 234 233 233 233 234 233 232 233 
232 231 234 240 241 240 241 241 240 239 241 241 242 241 240 239 240 239 241 240 
238 237 237 240 238 240 238 242 239 240 237 200 170 205 235 242 
240 238 237 236 237 237 236 236 236 237 238 239 237 238 237 239 
238 236 236 236 236 237 240 235 238 236 238 236 237 238 236 237 
236 234 235 236 236 225 197 186 219 234 236 236 236 234 234 235 
236 235 234 234 236 235 234 234 232 234 231 232 232 232 233 233 
232 234 232 240 240 240 240 240 241 240 241 243 242 239 242 239 240 240 239 239 
240 239 239 239 239 239 237 240 238 239 239 240 229 192 186 221 
235 237 239 238 238 236 235 238 237 237 237 237 236 236 238 238 
238 237 237 236 236 239 237 237 238 237 236 237 237 235 237 237 
237 236 234 230 198 179 208 232 235 235 235 234 234 235 236 235 
236 235 235 235 235 234 233 235 234 233 233 233 233 233 234 233 
234 233 232 240 241 240 241 240 240 240 240 241 240 242 240 240 240 240 239 239 
239 238 237 237 239 240 237 239 239 238 239 240 238 240 226 193 
187 204 226 239 238 240 238 238 238 235 235 236 236 236 238 236 
237 238 238 237 236 238 237 237 238 236 238 237 238 237 240 239 
237 225 201 191 204 231 237 238 237 235 235 235 235 234 235 234 
234 234 235 234 234 235 232 231 233 233 233 232 232 232 232 232 
231 232 232 240 240 241 240 241 240 240 240 240 239 239 240 240 240 238 237 238 
238 239 240 239 237 238 237 239 237 238 238 238 239 239 239 237 
229 206 163 187 211 233 238 239 238 238 237 238 237 236 236 237 
237 237 238 237 235 235 235 238 240 237 236 238 238 235 236 218 
201 195 221 232 234 235 235 234 234 234 235 235 235 235 235 235 
236 234 235 235 234 234 234 235 234 234 233 232 233 231 233 232 
233 232 232 241 240 241 240 241 240 241 240 239 240 240 240 240 241 239 240 240 
239 237 238 238 238 241 238 238 238 238 239 239 240 237 237 238 
237 237 231 194 166 171 188 212 219 235 236 239 239 239 236 239 
239 238 238 236 237 236 238 239 238 237 237 234 226 198 185 199 
228 236 236 235 235 236 235 234 235 235 235 235 235 235 234 237 
236 235 235 234 234 235 235 235 235 234 233 234 234 232 232 233 
232 233 231 241 240 241 241 239 240 239 240 240 240 241 240 240 240 240 240 239 
239 238 237 238 239 237 238 239 240 237 239 239 239 237 237 237 
237 236 238 238 226 217 213 199 185 184 184 191 205 214 218 219 
224 226 226 229 234 234 230 229 222 214 191 181 196 216 234 236 
237 237 235 234 236 235 235 235 234 234 235 235 235 236 234 235 
236 236 234 234 234 234 234 234 235 233 233 231 233 233 232 231 
232 231 231 240 241 240 240 240 240 240 240 240 238 241 240 241 241 240 241 240 
238 238 237 238 238 238 238 238 238 237 237 238 240 238 235 236 
235 236 236 237 236 232 232 233 231 225 219 218 213 207 202 194 
200 190 200 203 189 178 180 178 192 207 225 236 236 237 238 236 
234 236 234 234 236 235 235 234 234 235 235 234 235 235 235 236 
236 236 234 233 233 234 234 233 233 233 231 231 234 232 231 233 
232 233 234 241 239 238 239 240 240 240 240 240 241 240 241 241 240 239 241 239 
237 237 238 237 238 238 238 237 238 238 237 239 239 239 237 236 
236 235 235 236 236 235 235 236 236 235 236 236 236 236 234 235 
237 237 235 236 236 234 236 236 235 237 239 238 237 237 235 236 
235 234 234 234 235 234 235 235 235 235 234 235 235 235 235 235 
236 234 233 235 234 233 234 235 234 232 232 232 231 233 232 232 
232 232 231 239 240 241 240 240 240 241 239 240 239 240 240 240 241 241 239 239 
239 239 237 237 237 238 238 239 238 237 238 239 237 238 238 236 
235 236 237 236 236 236 235 236 236 236 237 236 236 236 236 237 
236 237 235 236 237 237 239 236 234 236 237 236 235 234 234 235 
236 234 235 235 235 234 234 235 234 235 235 234 234 234 234 232 
232 234 232 231 234 233 233 234 234 234 232 232 229 231 230 231 
232 229 231 239 239 241 240 240 240 239 239 240 241 241 240 240 240 241 239 240 
238 238 239 238 238 237 238 239 236 237 238 237 238 239 238 237 
235 238 237 238 236 235 235 235 235 238 234 235 235 236 236 236 
236 235 234 235 236 236 235 236 236 235 236 235 236 236 235 235 
236 236 235 236 236 235 235 234 235 234 234 233 234 234 234 234 
235 233 235 235 234 234 233 234 233 232 233 233 233 232 231 232 
232 231 232 238 241 239 240 240 240 240 240 240 241 240 239 240 241 241 239 239 
238 237 238 237 235 238 237 236 237 237 239 236 238 239 238 237 
236 237 238 235 236 237 237 236 234 236 236 236 236 235 237 238 
236 235 235 235 234 235 234 235 236 237 236 236 237 236 235 233 
236 234 234 236 236 235 235 233 235 234 234 234 233 234 234 234 
234 234 234 235 236 232 233 233 232 232 232 232 233 233 228 232 
230 231 231 239 239 240 240 240 239 239 240 240 240 241 240 240 239 240 240 238 
238 238 237 238 238 239 237 236 237 237 238 238 237 238 237 237 
236 237 236 236 236 237 239 238 237 236 236 237 235 235 236 235 
234 234 234 236 236 235 236 236 238 237 237 236 236 235 236 236 
236 238 236 235 234 234 235 234 233 234 235 235 233 233 233 234 
234 234 235 232 233 231 233 234 230 232 233 229 232 232 231 232 
230 230 229 239 241 240 239 240 239 240 238 239 241 239 240 239 240 240 239 238 
238 238 238 239 238 238 237 237 238 239 236 239 237 236 238 238 
237 236 237 236 237 237 235 236 235 236 235 236 235 235 235 235 
235 235 237 235 236 235 237 236 236 236 237 235 235 236 237 237 
235 234 234 235 236 235 235 235 234 234 234 233 234 233 233 234 
234 234 233 234 234 233 233 233 230 230 231 231 232 230 230 229 
230 230 230 