P2
# Created by IrfanView
100 100
255
216 216 218 217 217 216 215 215 217 215 216 216 215 216 216 215 217 
215 215 214 218 217 215 215 214 215 214 215 213 214 213 214 215 
215 217 216 215 216 215 217 215 214 214 214 215 215 217 214 215 
215 216 215 214 214 215 214 217 213 214 215 215 215 215 215 214 
214 214 214 213 214 215 212 212 213 214 214 214 215 213 216 214 
214 214 214 212 214 214 215 212 215 214 213 212 213 215 214 212 
212 213 213 214 216 216 217 217 217 218 217 217 216 217 216 214 214 214 215 217 
214 217 218 213 215 215 215 216 214 213 212 215 214 215 215 216 
213 214 216 214 214 213 214 216 217 216 215 214 214 217 214 214 
216 215 211 212 214 214 214 213 215 215 215 212 213 216 216 216 
214 215 215 215 215 214 213 213 214 215 216 216 214 215 215 214 
215 214 214 217 214 214 213 214 215 213 215 214 213 213 214 214 
212 211 213 216 215 215 217 216 217 215 216 217 215 212 217 216 215 216 215 214 
216 215 215 215 216 216 216 215 215 217 215 216 217 213 213 217 
215 213 214 215 213 216 214 213 213 216 216 216 214 215 214 214 
214 215 214 216 215 214 214 214 214 215 214 215 217 215 214 216 
215 214 216 217 214 214 215 216 216 215 214 213 215 214 212 214 
214 214 215 213 216 215 215 216 215 215 215 214 215 214 215 214 
216 213 214 217 216 220 217 218 219 218 216 216 215 216 217 217 214 217 218 217 
216 216 216 218 216 217 217 216 215 213 214 212 212 215 215 213 
213 214 213 214 214 214 214 215 216 213 213 214 217 214 211 215 
215 214 215 214 214 216 216 212 213 216 215 214 214 214 215 216 
217 214 214 214 215 215 214 216 215 214 214 215 216 215 217 216 
217 220 216 216 214 218 214 216 215 215 216 216 214 216 214 216 
213 215 215 218 219 216 217 218 217 222 216 215 219 219 217 216 214 216 216 217 
217 216 217 217 218 215 218 218 217 216 216 216 218 216 214 214 
213 214 214 216 215 214 213 212 216 215 216 216 217 217 218 219 
218 218 215 218 215 213 217 216 214 214 216 214 215 216 218 216 
216 216 216 216 216 216 215 215 216 218 218 216 214 216 215 214 
215 215 215 217 217 215 217 215 215 214 215 218 216 215 216 215 
216 216 217 218 218 219 220 218 220 216 219 218 215 216 217 218 218 219 218 215 
219 216 217 217 216 218 215 215 217 216 215 215 215 213 216 215 
213 214 213 212 213 215 216 216 217 217 217 218 215 217 217 217 
220 217 216 221 220 219 220 218 217 211 215 215 216 218 215 214 
215 216 218 217 216 217 218 217 217 216 217 215 217 216 216 217 
216 216 219 218 217 216 215 215 218 219 216 216 216 215 217 219 
218 217 216 215 217 219 218 218 218 218 218 218 218 219 218 217 218 217 217 217 
219 219 216 218 220 216 217 217 215 217 218 215 214 215 214 214 
216 214 213 216 219 217 218 220 216 210 197 172 159 162 160 151 
145 154 161 168 167 173 183 189 200 208 219 218 216 220 217 216 
217 216 216 216 216 216 217 217 215 216 215 215 217 218 220 218 
216 216 217 216 218 218 217 219 217 216 217 217 218 219 220 218 
217 218 219 219 220 220 219 219 219 218 218 218 218 217 218 218 218 217 219 217 
217 217 218 219 218 221 217 216 216 216 217 217 215 214 213 213 
213 217 218 220 219 202 177 156 143 156 157 194 204 216 210 217 
224 223 221 212 216 210 196 171 151 144 143 164 193 219 221 219 
220 219 219 218 217 217 218 218 218 216 218 217 217 217 218 218 
218 218 217 217 219 220 218 219 219 219 219 219 218 219 217 221 
218 216 219 220 220 221 221 221 218 219 218 219 219 217 217 218 219 220 219 221 
218 219 219 219 221 219 218 219 217 215 216 217 216 215 214 216 
218 218 212 171 161 157 173 214 222 221 221 223 224 222 222 222 
223 223 224 222 226 225 226 231 229 229 206 195 183 157 168 194 
216 226 222 220 220 219 217 217 218 222 220 217 219 218 219 220 
220 220 220 220 218 218 220 220 220 219 219 219 219 219 219 220 
220 221 221 221 222 221 221 220 222 219 220 219 218 223 221 219 219 219 217 220 
220 219 220 218 216 218 220 218 215 215 220 217 217 217 219 220 
190 153 145 197 223 228 224 224 222 220 220 218 220 220 219 219 
218 219 221 218 217 217 220 222 220 223 227 225 222 225 219 181 
160 166 207 225 224 222 219 219 219 219 219 221 219 219 219 219 
219 220 220 221 224 221 220 220 221 221 219 219 220 220 221 221 
221 223 220 220 222 224 221 221 221 222 222 221 221 220 221 221 221 221 221 220 
220 221 221 220 219 221 219 220 218 217 215 219 221 220 185 156 
170 203 219 226 222 220 220 220 219 218 218 218 219 219 219 218 
216 218 221 221 221 220 218 219 219 223 222 221 220 225 229 231 
223 209 167 170 201 221 223 223 220 220 222 221 219 220 221 221 
220 220 222 221 222 222 222 222 221 221 221 221 221 222 221 223 
220 220 219 221 218 220 220 219 220 221 220 223 224 217 221 222 222 220 222 222 
221 219 221 222 219 220 219 217 220 223 224 222 188 153 183 225 
225 224 224 222 219 218 219 217 219 219 220 219 221 220 221 222 
221 221 222 221 222 222 218 221 221 221 221 218 221 223 225 224 
224 227 228 223 151 152 206 224 222 220 221 220 222 223 221 222 
220 218 223 223 221 222 221 224 223 223 225 224 221 221 222 222 
222 221 222 224 222 223 221 222 222 221 221 220 222 222 222 220 221 221 220 219 
221 222 223 222 221 217 218 218 222 225 211 149 177 219 224 225 
222 219 220 218 220 221 220 221 220 220 221 222 221 221 221 220 
221 223 222 221 221 222 222 221 223 221 222 223 221 221 223 222 
222 222 222 224 229 217 173 168 223 223 224 223 222 223 224 222 
223 225 224 224 224 224 225 224 222 223 221 223 224 226 222 223 
224 222 222 218 224 223 223 222 221 222 224 223 222 222 222 220 221 221 221 221 
222 223 219 222 220 219 221 222 223 175 149 203 228 225 223 223 
220 222 218 221 222 220 221 222 222 219 219 221 222 223 221 221 
221 221 223 222 220 221 221 222 221 222 223 222 223 222 223 220 
221 223 222 222 225 232 228 199 147 200 229 225 224 223 221 223 
223 224 223 225 224 224 223 222 223 223 223 223 224 224 224 220 
223 222 224 226 223 223 223 222 223 223 224 222 222 222 219 222 222 223 222 223 
222 222 223 223 220 223 224 209 134 172 224 229 224 221 223 219 
221 222 222 220 221 221 221 222 223 223 223 223 220 222 221 222 
219 223 223 225 224 224 224 224 223 223 222 220 222 224 226 223 
224 223 222 223 224 225 226 226 218 150 168 226 225 223 222 223 
224 223 224 225 223 224 225 224 224 225 225 225 224 224 223 226 
226 224 225 223 224 222 224 225 224 224 224 225 222 223 225 224 224 221 222 221 
221 223 222 222 225 227 201 157 208 226 226 224 226 221 222 222 
223 223 222 223 222 222 221 221 222 220 221 219 223 221 221 221 
220 221 226 221 224 224 223 223 222 223 223 220 222 221 219 224 
222 224 223 224 224 225 225 226 227 227 179 142 215 226 226 224 
224 224 223 224 224 225 224 225 225 225 224 225 225 226 225 224 
224 222 224 223 222 224 225 223 223 224 224 223 223 222 222 223 223 222 220 221 
222 224 223 226 230 174 160 227 227 227 225 222 223 222 223 224 
223 224 220 222 222 222 223 224 223 223 224 223 222 223 221 221 
223 221 224 226 224 224 222 224 224 223 221 223 223 223 222 221 
224 224 225 225 224 225 226 224 225 229 233 211 144 220 228 225 
225 224 224 226 225 226 227 225 226 226 226 225 224 225 225 224 
223 225 225 225 225 224 223 222 223 224 224 225 225 224 223 225 222 224 224 222 
223 223 226 223 146 196 231 227 225 225 223 224 224 226 224 224 
224 223 224 223 224 226 224 222 223 223 224 222 223 222 222 223 
223 224 223 222 223 224 224 224 225 224 223 224 223 224 221 221 
223 225 224 226 226 226 227 227 224 222 227 231 201 148 221 229 
226 225 226 223 224 226 225 226 225 227 226 226 226 226 225 226 
226 227 226 224 223 224 224 225 224 225 225 224 225 225 225 225 223 223 224 222 
222 226 228 132 171 231 227 224 224 224 225 226 225 226 225 225 
224 223 223 224 224 223 222 223 224 224 223 224 224 223 223 222 
223 222 223 224 224 224 225 224 223 225 224 224 226 223 221 220 
221 224 224 226 224 227 229 227 225 224 226 227 230 174 144 225 
229 226 227 227 227 227 226 227 225 225 227 226 227 226 224 224 
226 223 224 226 226 225 226 225 225 225 222 226 226 224 226 226 227 226 222 220 
226 224 133 155 228 227 225 225 226 226 226 226 224 225 226 225 
224 224 223 225 224 221 222 224 223 223 224 224 224 223 222 223 
222 223 223 223 223 223 221 224 223 224 225 226 223 226 226 223 
220 221 228 227 227 226 230 225 228 225 225 226 227 229 140 187 
231 225 225 226 225 228 228 228 227 226 226 227 225 227 227 227 
226 226 225 226 223 224 225 226 225 225 226 223 224 224 224 225 224 225 224 223 
230 143 174 230 226 225 226 226 227 226 227 226 227 226 225 226 
227 224 224 223 225 225 225 225 224 223 222 224 227 225 224 223 
224 225 223 223 223 223 224 224 226 226 225 225 225 224 225 223 
223 222 223 225 227 227 227 225 227 228 225 226 225 227 218 132 
214 231 226 226 227 226 226 223 228 227 227 228 228 227 226 227 
226 227 227 225 225 224 225 223 225 225 224 224 225 226 224 225 227 222 227 228 
161 173 233 229 227 227 228 227 227 226 226 226 227 227 226 226 
225 226 225 224 223 223 223 224 225 225 226 225 226 225 224 224 
225 223 223 224 225 223 224 226 225 227 226 225 225 226 226 224 
223 223 225 224 226 227 226 226 229 227 225 226 224 225 229 198 
137 218 231 228 227 227 230 231 229 227 228 229 230 227 226 226 
226 224 226 227 223 225 224 226 223 226 223 225 225 224 224 224 225 225 225 203 
158 232 228 227 227 228 226 227 227 228 227 228 226 227 228 227 
225 226 226 226 227 226 227 225 225 225 227 226 225 224 224 225 
225 225 224 223 225 224 221 225 227 224 226 226 226 226 225 226 
226 225 226 225 229 227 227 227 226 224 226 226 226 225 226 230 
199 151 218 231 228 228 227 227 228 228 229 227 228 229 228 227 
228 227 225 225 226 224 225 224 227 226 227 226 225 227 227 224 222 223 220 150 
231 230 228 228 229 227 227 227 227 226 227 227 226 227 226 227 
229 226 225 227 225 226 226 226 226 225 226 226 226 225 224 223 
225 225 225 225 225 225 225 224 226 225 226 226 226 225 225 226 
228 225 228 226 226 227 227 227 227 227 227 226 226 224 225 229 
231 199 150 223 230 225 229 228 229 228 231 227 230 227 227 227 
227 227 227 224 226 227 228 226 223 226 224 224 224 224 225 227 225 230 156 218 
229 229 229 228 227 230 228 228 228 227 228 227 229 228 227 228 
228 227 228 228 228 228 225 227 226 227 227 226 225 226 225 226 
225 225 226 226 225 225 223 225 228 228 228 228 226 227 227 224 
224 226 229 226 227 228 227 226 226 229 228 229 227 227 227 226 
228 233 185 166 226 228 229 228 228 228 231 229 227 228 229 228 
229 228 225 227 224 225 226 225 226 229 224 226 227 227 226 226 229 194 176 233 
227 226 228 229 228 226 227 229 229 227 227 227 227 227 228 229 
229 229 227 228 230 227 229 228 228 227 226 226 227 227 226 227 
227 227 226 226 225 226 225 225 226 226 229 227 227 226 229 229 
228 225 226 228 228 228 228 228 226 228 227 229 229 226 227 231 
229 230 224 152 198 227 226 228 228 228 229 227 228 230 226 229 
227 228 228 224 226 226 224 225 225 223 226 226 227 228 226 229 224 149 232 230 
230 229 226 227 230 229 228 227 229 228 228 228 228 228 228 229 
230 229 229 228 225 228 228 229 227 227 227 226 226 226 225 226 
228 228 227 227 226 227 227 228 226 226 226 229 228 229 229 228 
227 228 228 228 227 229 229 228 228 228 228 229 228 229 229 228 
226 227 233 213 138 208 227 230 230 230 230 229 231 228 229 228 
228 229 228 225 224 225 227 226 226 225 225 225 227 225 227 231 177 208 231 231 
228 229 229 229 228 229 229 228 232 231 228 228 228 228 231 228 
228 229 226 227 229 229 227 231 228 227 230 228 228 228 228 228 
227 228 223 227 226 228 229 226 226 226 226 228 228 226 226 228 
228 228 227 227 227 228 227 230 229 229 229 228 227 229 231 229 
229 230 230 233 185 178 232 229 231 228 229 230 229 229 228 227 
230 231 226 226 225 226 227 227 226 226 225 226 224 226 227 214 171 234 230 227 
229 228 228 230 228 229 229 230 185 227 232 228 228 228 227 228 
229 229 227 228 230 232 182 168 230 230 229 227 229 229 229 229 
229 228 230 230 228 227 228 228 227 228 228 229 229 229 228 230 
228 227 226 227 228 229 229 229 228 228 228 230 229 231 231 231 
230 232 229 229 222 160 191 232 229 229 231 228 231 227 228 230 
230 229 228 228 225 227 226 225 226 226 226 226 226 226 226 156 227 230 229 230 
229 230 229 230 228 227 228 230 213 182 231 232 231 228 228 227 
229 232 227 232 231 230 193 155 232 230 229 229 229 229 231 231 
228 229 231 228 228 228 228 228 225 229 226 226 230 230 229 229 
228 229 228 227 227 229 228 229 228 227 231 231 228 229 229 229 
230 229 228 228 230 202 157 227 232 229 230 230 228 230 230 229 
230 228 228 228 228 227 227 225 224 225 225 227 226 225 209 182 233 229 229 230 
230 229 230 228 230 228 226 227 230 212 170 222 231 231 229 228 
232 236 234 230 214 180 124 212 231 231 231 229 231 230 230 230 
229 230 229 230 229 228 228 228 226 229 227 227 229 231 229 231 
229 229 227 226 227 228 228 229 228 226 222 228 232 230 230 230 
230 231 232 230 229 229 164 177 234 228 230 229 230 229 228 228 
229 229 228 229 226 228 227 228 228 226 226 227 225 226 176 230 230 229 229 230 
230 231 230 233 230 230 231 230 231 232 229 171 152 205 228 227 
217 207 202 179 140 172 197 234 231 231 232 232 231 230 229 232 
232 231 231 230 230 228 230 231 229 229 228 228 230 231 231 231 
228 228 228 229 228 228 228 228 229 230 192 182 232 231 231 231 
232 231 230 230 233 232 219 144 220 230 230 231 231 230 229 230 
229 229 228 228 228 227 226 228 224 226 227 226 223 215 178 232 229 230 231 229 
230 231 229 231 230 231 230 230 230 234 233 233 230 185 172 162 
158 163 176 197 230 233 236 229 231 231 230 231 231 230 229 228 
232 229 231 231 231 232 230 228 230 231 231 230 229 231 219 224 
233 229 230 230 229 231 230 231 232 232 188 174 232 230 231 231 
231 230 230 230 231 232 228 180 169 232 229 229 228 229 231 230 
231 230 228 227 228 228 228 231 227 226 227 228 229 161 224 230 229 230 231 231 
231 232 231 230 231 231 230 230 230 228 230 231 232 235 232 235 
232 234 234 234 234 234 232 231 231 232 232 231 232 232 233 232 
231 232 231 231 232 232 232 232 234 234 234 232 231 232 229 155 
234 236 232 232 233 233 233 230 222 169 127 190 233 232 231 231 
230 232 233 232 232 233 234 225 138 230 231 230 230 230 229 231 
229 228 229 226 226 227 226 228 227 227 228 228 221 158 232 229 230 231 231 231 
231 231 231 231 231 231 230 232 231 231 231 233 229 230 230 231 
231 232 232 232 233 231 233 233 230 232 233 233 232 232 232 234 
233 232 233 233 231 232 234 233 233 233 232 233 232 234 234 211 
162 202 220 230 232 219 186 184 134 147 210 235 232 231 233 232 
233 232 232 232 232 232 234 238 145 176 232 231 230 231 230 230 
230 230 229 230 229 228 227 229 227 225 227 230 178 207 230 230 229 228 230 229 
230 231 230 231 230 232 232 232 232 232 231 232 231 230 230 228 
229 230 231 231 232 232 234 233 231 232 232 232 234 233 234 232 
233 233 233 232 233 233 233 233 234 233 233 235 235 234 232 235 
224 170 157 163 164 152 144 153 187 234 236 233 232 232 232 230 
231 232 230 232 232 233 234 235 228 156 235 231 231 230 231 229 
229 231 232 229 228 228 230 227 228 224 227 231 161 233 230 230 230 230 230 231 
231 232 231 231 232 230 232 232 232 230 231 232 232 230 218 203 
224 233 232 230 232 231 233 232 233 233 233 235 233 233 235 233 
233 232 233 232 233 234 233 233 233 233 235 234 234 234 234 231 
234 236 230 214 198 199 225 233 232 235 232 232 232 233 234 233 
233 232 234 231 232 234 234 234 239 168 218 232 231 232 232 231 
231 230 232 228 228 229 227 226 227 229 230 217 177 231 230 230 229 229 232 230 
231 231 231 231 232 233 232 235 233 232 233 232 232 236 187 135 
130 196 236 234 232 231 233 232 233 234 234 234 234 234 234 234 
233 234 234 235 232 233 233 233 234 234 233 233 234 234 233 233 
232 233 234 235 235 235 234 233 232 233 232 232 231 232 232 233 
234 232 233 233 231 234 234 234 234 207 172 234 232 231 231 231 
231 231 231 229 229 227 228 230 229 232 228 180 201 232 229 231 231 230 230 229 
231 230 231 230 231 232 229 229 232 233 234 233 233 211 139 146 
131 119 204 234 234 230 231 232 233 233 234 234 235 234 234 234 
235 233 234 233 235 232 232 232 233 234 233 233 233 234 235 232 
232 232 233 233 232 232 233 233 232 232 231 232 233 231 233 232 
232 233 233 233 233 233 230 231 234 227 172 236 232 232 230 232 
232 233 231 230 230 228 230 230 230 228 233 158 232 232 231 230 228 230 230 228 
230 232 229 228 230 230 229 229 229 231 233 234 236 180 193 141 
106 98 123 225 234 233 231 232 233 233 234 234 233 233 235 234 
235 235 232 234 236 235 233 235 233 233 234 234 233 233 235 235 
233 233 234 233 233 235 235 231 232 231 230 232 234 234 234 232 
232 233 233 233 232 233 230 233 234 234 185 230 234 234 231 232 
232 231 234 231 230 230 230 231 229 230 233 162 234 231 230 230 230 231 231 228 
231 231 230 228 231 231 227 230 229 229 231 232 230 160 142 129 
135 101 126 192 234 234 234 234 234 233 235 235 235 234 234 235 
234 234 234 235 234 234 235 234 233 233 234 234 233 233 232 235 
234 235 234 234 234 225 225 233 236 233 232 232 231 234 232 234 
234 233 232 234 232 233 233 232 233 234 200 208 234 234 233 234 
231 232 232 231 230 228 230 233 229 230 217 178 235 230 231 230 230 232 229 230 
229 230 230 229 229 231 232 231 230 231 231 232 230 155 148 165 
120 110 92 145 237 235 234 233 236 235 234 235 235 234 234 234 
234 233 233 233 233 234 235 234 235 234 235 234 235 235 234 235 
233 235 233 235 214 141 133 151 237 234 233 230 231 233 232 233 
234 234 233 231 234 233 232 231 233 230 231 178 236 233 233 233 
233 233 233 232 231 229 228 229 231 230 190 198 232 233 230 231 231 230 229 230 
230 231 227 228 230 231 231 231 230 230 229 231 235 150 121 129 
112 117 141 216 236 234 234 235 233 233 236 235 235 233 235 236 
235 235 234 235 234 235 234 235 235 233 234 234 234 233 233 233 
233 233 233 231 166 133 82 94 177 236 234 232 232 232 234 234 
233 234 233 233 233 233 235 232 233 232 232 177 238 234 233 233 
234 235 233 233 232 230 230 231 229 232 143 226 232 231 231 231 232 231 231 230 
231 230 229 230 231 232 232 232 231 230 228 232 235 186 92 92 
118 132 193 234 235 235 234 234 234 234 234 234 235 234 234 235 
237 235 235 235 235 235 236 235 235 237 235 235 235 235 234 235 
234 236 235 196 159 121 133 142 137 242 235 232 234 233 235 233 
234 232 234 233 233 233 234 233 234 233 234 189 234 240 235 235 
235 234 234 230 231 232 230 231 230 227 160 237 233 232 232 231 232 232 231 232 
229 230 232 230 232 231 232 232 230 230 232 232 233 236 172 136 
171 215 237 233 235 235 235 235 236 235 236 236 236 235 235 234 
234 236 235 235 234 234 235 236 236 238 236 236 237 236 235 236 
236 236 239 174 123 124 128 123 145 237 239 234 232 234 232 234 
233 234 234 234 234 233 234 233 233 232 233 210 207 238 235 236 
236 235 236 232 233 232 230 232 228 228 161 234 231 232 232 232 233 233 232 232 
231 230 232 230 232 232 231 232 231 232 231 232 232 234 239 235 
233 234 234 232 234 234 235 235 235 236 235 235 235 237 236 235 
236 234 234 236 235 235 234 236 236 235 236 236 237 237 237 236 
236 235 238 131 116 85 111 99 142 240 238 235 232 235 234 235 
234 233 233 234 234 235 234 234 233 234 234 223 198 239 236 237 
235 235 236 234 232 231 231 231 232 219 185 233 232 233 233 233 231 233 233 232 
233 230 233 232 232 232 233 231 233 232 232 233 232 233 234 235 
235 234 234 233 233 234 235 235 234 234 235 235 233 234 235 236 
234 235 235 235 236 238 236 236 235 236 237 238 236 237 236 235 
235 235 241 168 138 102 90 141 223 238 239 239 235 233 233 234 
233 235 234 235 235 235 235 235 235 234 235 232 158 240 236 237 
237 236 237 233 234 232 231 229 231 213 190 233 232 232 233 234 233 233 231 234 
232 231 230 231 232 233 233 232 233 233 231 233 235 234 234 234 
234 234 235 235 234 236 235 233 238 237 235 236 237 234 236 237 
236 235 235 236 236 236 237 235 236 237 235 236 236 237 237 238 
236 234 237 204 119 111 149 202 240 237 236 237 236 236 234 235 
235 235 236 235 235 233 234 235 236 237 236 237 171 240 237 236 
237 236 238 231 233 231 232 232 230 195 207 232 232 234 233 234 233 233 233 234 
233 231 232 231 232 233 231 232 233 231 233 232 233 233 232 235 
235 234 234 234 234 235 236 234 234 236 234 235 236 237 236 236 
236 235 235 234 237 234 236 236 237 237 236 237 238 236 236 237 
239 237 237 242 222 197 228 242 240 239 238 240 241 237 235 235 
235 236 235 233 237 238 235 235 236 237 239 238 188 242 236 235 
237 237 238 233 231 231 231 233 231 194 217 233 234 234 234 234 233 232 234 235 
234 234 234 232 232 232 233 233 233 233 234 234 233 232 232 234 
233 233 232 235 236 234 235 236 236 237 237 235 236 236 237 235 
235 235 236 235 234 235 234 236 237 233 235 235 237 237 237 236 
237 236 238 238 242 242 241 238 236 239 237 236 238 236 235 236 
237 236 236 235 235 236 237 236 236 236 237 239 172 239 237 238 
238 236 237 233 232 232 232 233 230 190 220 233 233 232 232 233 233 233 232 233 
233 232 231 234 235 233 232 233 234 231 233 234 234 232 232 235 
235 234 235 236 234 237 236 236 237 234 234 235 237 236 234 234 
235 235 235 235 236 233 235 234 234 234 234 234 235 234 235 238 
239 238 238 237 239 239 240 237 237 238 239 237 236 237 236 235 
236 236 236 236 234 237 235 236 237 235 238 241 183 238 239 238 
238 237 238 231 232 234 233 233 232 176 221 233 234 232 232 234 232 235 234 234 
232 235 234 234 232 233 233 233 233 234 233 233 232 233 234 236 
234 234 234 234 234 236 236 234 234 235 235 234 236 236 235 236 
236 236 237 237 235 236 236 235 236 235 236 236 235 235 237 238 
238 237 237 237 239 239 238 239 237 238 238 237 237 237 236 236 
237 237 236 236 237 237 238 237 235 236 237 236 178 235 239 239 
239 239 239 232 232 231 232 233 234 168 236 234 234 234 232 235 234 233 233 234 
235 231 233 233 233 234 233 232 232 232 233 234 234 233 235 235 
235 234 234 233 234 235 235 235 235 236 237 237 236 235 236 234 
236 235 236 235 236 235 235 235 237 235 236 236 238 235 235 238 
238 239 239 238 239 238 239 238 238 237 237 238 237 238 238 238 
239 236 238 238 237 238 237 238 238 237 236 235 199 222 239 239 
240 239 240 232 231 233 232 233 234 172 236 234 235 234 233 233 234 235 235 234 
233 233 233 233 233 233 232 232 232 233 234 234 234 235 234 235 
233 235 234 235 236 236 236 235 236 236 235 236 235 236 236 236 
235 235 235 236 236 237 235 235 236 236 238 236 236 236 237 239 
239 239 237 237 237 239 238 237 238 239 239 239 238 239 239 238 
238 238 238 238 236 237 238 238 238 238 237 237 194 226 240 239 
239 240 237 232 233 234 230 231 233 167 234 236 234 234 234 235 234 234 235 233 
234 235 234 234 236 233 232 231 232 233 232 234 236 234 235 233 
235 234 234 235 233 235 236 236 235 234 235 235 235 235 235 235 
235 233 236 236 235 235 237 235 236 236 236 237 238 238 239 238 
238 239 239 239 237 239 239 239 236 239 239 239 240 242 240 238 
238 238 236 238 238 238 237 237 238 238 238 236 195 227 241 239 
240 240 240 232 234 234 231 231 231 188 233 234 235 233 236 235 234 234 235 235 
235 237 234 235 234 234 234 235 234 235 231 234 234 235 236 235 
236 235 234 234 235 236 236 237 238 236 235 235 236 235 234 236 
235 236 237 235 236 235 234 236 236 236 237 236 237 238 238 239 
236 240 239 238 238 239 240 241 240 240 240 240 238 238 242 240 
239 239 240 239 239 239 239 240 239 239 239 239 188 232 240 241 
242 241 240 232 234 231 232 232 232 191 224 233 234 234 234 233 235 233 235 235 
234 236 234 233 235 236 234 235 236 235 233 235 234 235 236 236 
234 235 234 234 235 235 234 234 233 235 236 235 236 238 235 235 
237 235 234 235 234 235 235 237 236 236 235 235 237 237 238 237 
238 237 238 240 238 239 239 240 237 239 239 241 240 240 240 239 
239 239 240 240 238 239 240 240 236 237 239 240 182 232 241 241 
240 241 241 233 233 233 232 231 233 205 210 233 235 236 235 234 235 235 235 235 
232 234 234 235 236 234 234 235 233 235 234 234 236 236 237 235 
235 235 235 235 234 234 237 236 235 236 236 235 236 235 237 235 
236 236 236 236 234 235 237 236 237 237 236 236 236 237 236 238 
241 240 239 240 239 239 240 239 240 241 241 240 240 239 240 239 
239 241 240 239 240 240 240 239 241 240 240 240 192 237 241 240 
240 240 240 235 233 232 232 232 234 226 198 234 235 234 235 235 235 235 234 235 
234 235 235 235 235 235 235 236 237 235 236 235 236 235 236 236 
235 235 236 237 237 235 235 235 233 235 236 234 237 236 236 239 
237 236 236 237 237 236 237 235 236 237 237 237 236 233 236 235 
237 238 240 239 238 241 238 239 241 240 240 241 241 239 240 240 
240 241 240 240 241 239 239 239 241 242 242 240 180 242 242 240 
241 242 242 235 235 232 234 231 232 233 184 237 235 236 234 235 232 234 235 235 
237 236 236 236 234 235 235 234 235 237 235 236 235 236 237 237 
235 237 236 236 236 236 236 235 235 236 237 238 237 239 237 240 
238 237 235 235 237 235 234 237 236 236 235 236 236 235 235 235 
237 236 238 239 239 239 240 239 239 239 240 240 240 240 241 241 
240 240 241 241 241 240 240 241 241 241 240 237 188 243 239 242 
241 240 244 232 234 234 235 235 236 232 185 237 235 236 235 236 234 236 235 235 
236 237 236 235 235 236 237 236 235 237 237 237 237 237 236 237 
237 238 236 235 237 238 237 236 237 236 235 234 236 236 236 234 
238 234 238 236 236 236 236 237 238 236 236 235 236 235 234 235 
235 236 238 239 239 239 240 240 241 238 241 241 240 240 240 240 
241 240 240 240 240 241 240 241 241 240 241 236 188 243 241 242 
242 242 243 234 233 234 234 233 234 233 187 235 234 235 235 236 234 234 234 235 
236 237 236 238 235 236 236 237 238 236 237 238 236 236 237 236 
237 238 238 237 236 237 235 235 234 238 237 238 236 237 237 237 
236 238 237 237 236 236 235 236 236 236 236 236 234 236 237 234 
237 236 237 239 239 239 238 240 240 240 241 241 241 240 241 241 
242 241 241 241 241 241 240 242 240 238 240 221 205 242 240 240 
241 241 242 235 235 236 234 233 233 235 203 228 237 236 235 235 236 236 235 235 
236 236 236 235 236 238 237 237 237 238 238 238 238 237 238 238 
235 239 238 238 237 238 236 235 236 235 236 237 237 238 238 236 
236 235 237 237 237 236 235 236 236 236 236 235 237 236 237 237 
238 237 234 238 240 241 242 239 239 240 241 241 240 241 241 241 
241 240 240 241 241 241 241 240 240 240 239 201 231 242 244 242 
242 243 242 234 233 235 234 234 234 234 223 203 239 235 236 236 236 235 236 236 
237 236 237 237 237 236 238 236 237 237 238 238 239 238 238 237 
237 238 239 235 236 237 237 237 237 236 236 235 235 236 238 239 
238 237 236 235 237 236 237 236 238 238 237 238 238 237 237 236 
237 238 237 237 238 240 239 240 241 240 241 241 242 241 241 241 
242 242 241 240 241 241 241 241 242 242 240 193 239 240 242 242 
241 243 243 234 233 234 233 234 233 235 236 196 239 236 235 236 236 236 238 238 
237 239 238 237 238 237 237 238 236 236 238 236 240 238 239 240 
240 240 239 237 239 238 238 239 237 236 235 235 239 237 237 237 
236 236 236 237 237 236 237 238 237 236 239 238 238 238 239 238 
237 239 237 237 237 240 240 241 241 241 240 240 240 241 241 241 
241 240 241 241 242 241 242 241 241 242 246 184 245 241 242 241 
243 243 243 235 235 233 235 234 234 234 236 202 228 237 237 235 236 235 236 237 
236 237 238 239 237 238 238 237 238 236 236 237 239 239 240 239 
240 240 239 240 239 242 239 237 238 240 237 237 237 237 237 237 
237 237 237 237 237 237 236 237 237 237 238 236 233 238 238 238 
238 238 240 237 238 238 240 241 241 241 241 242 241 240 241 241 
242 241 241 241 240 241 241 241 241 240 240 196 244 242 242 243 
243 242 243 235 235 236 235 235 234 231 234 228 198 236 236 238 235 238 238 236 
237 237 237 238 238 238 238 237 237 236 236 238 238 239 238 241 
239 239 240 240 241 242 241 239 239 239 238 236 237 237 239 238 
238 238 237 237 237 238 238 239 238 237 236 236 239 238 237 236 
237 238 239 239 238 238 240 242 243 242 241 242 242 241 241 241 
241 241 240 241 242 242 241 241 242 241 214 223 242 242 243 243 
244 244 243 234 236 234 235 236 235 235 236 239 195 240 237 238 237 237 236 237 
238 236 238 238 236 235 238 238 240 236 236 239 238 236 240 239 
239 239 240 240 239 241 239 238 240 241 239 238 238 237 236 240 
239 239 237 236 237 237 239 240 239 239 238 238 236 237 239 239 
237 238 240 239 237 239 239 242 240 242 241 241 241 241 241 241 
241 241 241 240 240 240 241 241 242 245 197 242 243 243 242 243 
243 243 244 236 238 234 235 235 234 235 235 235 217 218 239 236 237 237 237 238 
238 239 238 238 238 239 236 235 238 240 239 239 239 238 237 238 
240 241 240 240 240 241 243 239 240 241 240 240 240 241 241 241 
240 240 239 240 239 238 239 240 240 239 240 238 239 240 240 240 
241 240 240 239 238 240 240 241 242 241 242 242 241 242 241 241 
241 243 241 241 240 240 240 241 242 241 199 245 243 242 243 244 
243 244 244 236 235 236 237 235 238 235 235 235 235 193 239 236 237 237 238 241 
238 239 239 238 237 236 236 238 239 239 239 239 238 237 238 238 
239 241 241 242 243 242 241 241 240 241 241 242 241 241 241 244 
244 243 241 241 243 240 241 241 242 242 240 240 242 241 241 240 
242 241 241 240 240 242 243 242 242 241 241 241 241 241 243 240 
241 240 241 242 242 241 242 240 241 216 217 245 243 241 242 245 
245 244 243 236 239 237 236 235 235 236 234 236 237 213 212 241 239 240 238 237 
239 239 238 237 239 237 236 238 236 238 238 238 241 240 237 239 
238 240 230 231 240 242 243 244 243 243 242 238 240 242 239 240 
240 236 240 240 237 241 235 238 240 239 242 242 241 241 242 240 
242 244 240 240 241 240 241 241 241 242 241 241 241 241 242 241 
241 244 242 241 243 242 241 240 244 199 246 244 243 243 242 244 
244 245 244 239 235 236 236 235 235 238 237 237 236 239 185 242 236 239 238 238 
239 240 239 237 238 236 237 236 239 239 238 238 237 239 239 237 
237 238 231 171 163 189 179 182 201 189 189 173 168 179 169 152 
176 160 167 168 162 183 187 181 168 177 193 207 197 201 195 206 
204 210 244 242 242 241 241 242 241 242 242 243 241 241 242 242 
241 239 241 241 241 241 241 240 238 199 245 243 243 242 244 243 
244 244 246 236 236 236 238 238 236 236 236 235 235 236 218 205 240 238 239 239 
238 238 239 239 239 237 238 240 239 241 240 240 240 239 240 240 
239 240 241 242 236 236 237 232 223 226 231 235 222 215 232 239 
227 236 227 223 232 223 221 222 228 216 223 205 211 214 210 208 
209 195 234 242 242 243 241 242 242 242 240 241 242 242 241 241 
241 241 241 241 241 241 242 244 190 240 245 243 244 244 243 243 
245 246 244 238 237 236 236 237 237 235 234 238 236 234 239 192 234 242 239 239 
240 240 239 239 240 237 238 239 240 240 240 240 240 240 240 240 
239 240 240 242 244 243 242 243 241 244 242 243 243 244 243 243 
243 242 242 242 242 243 243 243 243 243 242 244 241 240 244 243 
244 245 242 241 242 241 241 242 242 242 243 242 240 241 241 242 
243 242 242 241 243 241 242 235 197 248 245 244 245 245 244 244 
244 244 244 237 238 237 237 236 236 236 235 238 235 235 236 232 189 241 239 239 
240 240 241 241 237 241 239 238 239 240 240 240 241 241 240 241 
240 239 242 241 241 241 241 240 241 242 242 241 241 241 241 241 
241 241 241 241 241 241 242 240 240 242 241 241 241 242 242 242 
240 244 244 242 241 243 243 242 241 241 242 243 241 242 240 239 
240 242 240 240 241 241 244 188 238 243 245 245 243 244 243 244 
244 245 244 237 240 236 238 239 239 240 238 239 238 235 237 238 214 210 241 240 
240 241 240 240 240 239 241 239 240 237 240 240 240 240 241 240 
240 238 241 240 240 241 242 240 243 241 241 241 241 241 241 240 
242 240 239 240 242 241 242 241 242 242 242 241 241 241 242 241 
243 240 242 243 242 241 241 242 242 242 242 242 242 242 242 242 
241 241 241 241 244 245 218 193 244 244 244 243 244 243 243 242 
244 244 246 239 239 239 239 238 237 239 239 237 237 239 238 238 243 194 230 243 
240 242 241 243 241 242 242 238 239 237 240 240 240 242 240 241 
241 240 242 241 240 241 241 241 242 243 241 241 242 241 241 240 
241 241 243 241 242 240 241 242 242 242 242 241 240 241 241 240 
240 243 243 242 242 242 243 241 241 242 242 241 242 241 240 241 
242 242 241 240 241 236 164 245 244 244 245 245 244 246 245 243 
244 244 245 239 239 238 239 240 238 237 237 238 237 241 240 239 241 237 170 244 
242 240 240 241 242 242 242 243 240 238 241 240 240 238 240 241 
241 241 241 243 242 243 241 241 242 242 242 241 241 241 241 242 
242 242 242 242 242 242 241 241 242 241 242 242 243 241 241 241 
241 242 242 242 242 242 241 243 242 243 243 242 241 241 241 241 
241 242 242 241 173 156 235 245 243 244 243 245 245 245 246 245 
245 245 245 240 240 239 240 240 239 241 240 240 239 240 239 239 240 242 230 190 
244 243 241 241 242 240 240 240 240 240 240 239 241 242 241 241 
240 241 242 242 242 240 242 242 242 242 242 241 242 242 242 244 
243 243 242 241 242 242 242 242 242 241 240 242 242 242 243 242 
241 241 242 241 241 242 244 242 241 242 241 244 241 242 242 241 
242 244 246 193 210 242 245 245 243 244 244 244 244 244 244 245 
245 246 245 241 241 240 240 240 239 240 240 240 241 238 240 240 240 241 243 218 
202 244 243 241 241 241 242 241 240 240 239 238 239 240 241 241 
241 242 242 241 241 242 242 242 242 242 242 242 242 242 242 242 
242 241 241 242 242 243 243 242 243 242 243 243 243 243 243 243 
242 243 242 242 243 242 242 242 242 242 242 243 241 241 243 242 
244 245 225 178 247 246 244 245 245 242 245 245 245 245 245 244 
244 245 246 240 240 240 241 241 241 240 240 241 240 240 240 241 241 242 239 243 
210 212 243 242 241 241 243 240 240 241 239 237 241 241 241 241 
242 241 241 241 241 243 241 243 244 242 242 242 241 242 242 244 
243 243 242 242 242 242 242 243 243 244 243 241 242 243 242 243 
243 241 243 244 244 243 241 241 243 242 242 241 241 243 243 243 
244 225 168 243 243 243 244 243 244 246 246 245 245 245 246 246 
245 246 247 239 239 240 241 241 241 241 239 240 240 240 240 240 241 242 239 242 
242 209 206 241 241 241 243 243 242 242 240 240 239 242 240 242 
241 242 241 242 242 242 242 242 242 242 242 241 243 242 242 243 
243 243 244 242 243 243 243 242 242 243 242 242 243 243 242 243 
242 243 241 241 242 242 243 242 242 242 242 241 243 242 244 244 
236 165 240 245 243 245 244 245 242 244 245 245 246 245 243 244 
245 246 245 240 240 241 242 242 239 241 241 241 241 242 240 242 243 241 240 240 
240 244 210 211 241 241 240 240 240 240 242 242 241 241 241 241 
243 241 241 242 243 242 242 242 242 242 243 243 243 243 243 243 
242 242 243 242 243 243 244 242 243 241 244 244 243 243 242 241 
242 243 243 243 243 243 242 242 243 242 242 243 242 243 244 232 
174 237 247 242 244 245 244 245 246 246 245 245 244 246 244 244 
244 245 244 240 241 241 240 241 241 241 241 241 242 241 241 242 242 241 241 238 
239 240 243 206 207 247 243 243 242 242 241 243 242 243 242 242 
241 241 242 241 242 243 243 242 242 242 243 243 243 243 244 242 
244 243 243 243 242 243 243 243 242 243 243 242 243 243 244 242 
243 242 241 243 240 243 242 243 242 242 243 243 241 243 234 173 
238 247 244 243 244 244 246 245 245 245 245 244 246 245 245 244 
245 245 246 241 242 242 242 242 243 243 240 241 241 240 241 242 242 242 242 241 
242 241 241 246 208 196 245 246 243 243 242 241 241 242 242 242 
243 242 241 242 243 243 243 243 242 243 241 243 243 241 242 243 
242 243 242 241 241 242 243 243 243 243 243 243 243 243 243 243 
243 244 243 243 243 242 242 243 242 242 242 243 244 239 184 234 
248 245 245 245 245 246 243 244 246 245 246 245 245 245 246 245 
244 245 246 242 242 243 242 241 243 242 242 242 241 242 241 242 243 243 241 242 
241 241 240 242 245 226 186 230 242 242 243 242 240 241 242 242 
242 242 243 244 243 241 243 243 243 244 243 242 242 243 242 242 
243 241 243 242 241 245 243 244 243 242 242 242 243 242 243 242 
243 243 243 242 243 242 242 243 244 243 243 246 227 187 239 247 
246 244 244 245 245 245 245 245 244 245 244 246 245 245 246 246 
247 246 245 241 241 241 242 243 243 243 241 242 243 242 241 241 242 243 242 241 
240 242 242 243 243 246 237 181 223 244 244 242 244 243 242 242 
242 242 240 242 243 243 243 243 243 243 242 243 243 244 244 244 
243 243 244 244 243 242 243 244 243 244 243 244 243 242 242 243 
243 243 244 242 243 243 242 242 242 245 247 217 186 248 248 245 
245 244 246 244 245 245 244 242 246 246 245 245 246 246 245 245 
246 244 245 241 241 242 240 242 242 242 243 243 241 242 242 243 243 242 240 242 
242 242 243 243 243 244 246 248 201 202 244 246 243 243 244 241 
243 243 243 243 243 242 242 243 243 242 242 242 243 242 242 245 
244 244 243 243 244 244 244 243 242 243 243 244 244 243 243 243 
243 243 242 242 242 243 243 243 244 245 201 202 247 247 246 245 
245 246 246 246 246 246 245 245 246 245 246 245 245 246 246 247 
245 247 246 241 241 245 243 242 241 243 242 243 241 243 243 242 244 243 243 243 
243 244 242 243 242 243 245 246 245 235 190 221 246 246 245 244 
243 243 243 242 243 244 244 243 243 243 242 242 243 243 243 244 
243 245 243 244 244 243 244 244 243 243 244 244 244 243 245 244 
242 243 243 245 244 245 246 246 230 185 227 250 248 247 247 246 
246 245 245 244 245 245 245 245 244 246 247 247 246 245 246 247 
245 247 246 243 242 241 242 241 244 244 242 242 242 242 244 242 242 243 242 243 
243 242 244 242 242 242 243 243 245 245 247 215 180 223 242 243 
244 243 242 243 243 244 243 243 244 243 243 243 244 244 243 243 
242 243 245 244 244 245 245 243 245 244 244 244 244 244 243 245 
244 243 244 247 247 248 244 206 193 244 249 246 246 246 246 247 
244 246 246 246 245 244 246 247 246 245 246 247 246 247 247 247 
246 246 246 242 242 242 244 243 242 241 244 242 242 243 243 243 244 243 242 243 
241 241 243 243 244 244 244 243 245 245 247 250 244 196 174 211 
246 244 244 245 246 244 243 244 244 244 245 243 243 244 244 243 
245 245 244 245 244 244 245 245 244 246 245 245 244 244 244 245 
247 246 246 245 245 215 181 231 251 246 247 246 245 246 246 246 
247 246 246 246 246 246 247 246 247 247 247 246 246 246 246 247 
246 246 247 243 243 243 244 243 243 243 244 243 243 243 243 244 243 243 243 243 
244 242 243 243 245 244 244 243 243 243 245 245 248 248 246 201 
183 199 242 248 246 247 246 242 243 244 245 245 244 245 244 245 
245 245 244 246 245 245 245 245 245 246 244 245 244 246 246 246 
247 247 245 209 188 218 251 249 248 246 246 249 247 246 247 246 
246 247 246 246 246 248 247 246 246 247 247 247 248 246 246 246 
246 247 247 242 243 243 243 243 243 243 243 242 244 243 242 244 243 244 243 243 
242 243 242 243 244 244 244 244 245 244 245 243 244 245 248 246 
248 216 173 175 223 243 248 247 246 247 247 245 244 244 245 245 
246 244 247 247 246 246 246 247 246 245 245 247 248 248 247 247 
226 194 180 218 252 250 249 248 247 247 247 247 248 247 248 248 
246 246 247 247 246 246 247 247 246 247 247 247 245 247 247 246 
247 248 247 244 244 245 243 243 242 243 244 245 243 244 244 244 244 243 243 244 
245 246 243 245 244 244 245 246 244 244 245 246 247 244 245 245 
246 249 249 237 209 187 190 190 218 237 249 248 245 245 247 248 
245 247 247 248 248 247 248 247 248 247 248 252 247 231 212 181 
186 233 252 252 249 249 247 248 248 248 248 246 247 247 248 249 
247 247 248 248 246 246 246 248 247 248 247 248 248 247 247 248 
248 249 249 244 242 244 243 245 243 244 243 242 243 242 244 244 243 244 242 243 
243 245 244 244 244 245 245 244 244 244 245 248 246 245 245 245 
244 243 248 249 250 251 247 221 174 132 142 157 178 203 222 228 
243 248 246 249 248 246 242 227 222 217 197 180 173 195 225 252 
251 252 251 249 247 248 249 249 248 249 249 247 248 248 248 248 
248 248 248 248 247 247 247 248 248 247 248 248 248 250 248 248 
248 249 249 243 244 244 244 244 245 243 243 244 243 244 242 244 245 243 244 243 
243 242 244 246 245 247 245 246 246 244 246 247 247 246 245 245 
245 245 246 247 250 248 247 249 249 250 240 232 206 184 172 173 
168 191 179 189 195 197 200 210 222 223 243 252 254 252 252 251 
251 249 248 249 249 247 247 247 248 247 248 248 248 248 249 246 
248 248 249 249 248 250 248 249 248 246 248 248 249 247 247 247 
249 249 248 244 244 243 243 244 243 244 243 244 243 244 245 244 245 244 244 244 
245 245 245 245 244 244 244 245 247 245 247 249 248 246 246 245 
245 245 249 248 246 248 248 245 246 249 250 251 252 252 253 252 
251 252 253 252 248 249 252 252 252 252 251 251 251 250 251 249 
249 249 248 250 250 248 248 251 249 250 250 250 250 249 247 246 
248 249 249 247 249 249 250 249 249 249 249 249 249 248 248 248 
248 249 249 244 244 244 243 243 244 243 244 244 244 245 245 245 245 244 244 244 
244 245 245 246 246 245 245 245 245 245 247 247 247 247 246 245 
246 245 246 246 246 248 248 247 247 247 247 247 248 249 250 250 
251 251 250 251 249 248 249 248 248 249 249 249 250 250 250 250 
250 248 251 250 250 250 250 249 249 250 250 250 250 250 249 249 
249 249 249 249 248 249 248 249 249 250 249 249 249 249 249 249 
250 250 249 245 245 245 245 243 245 245 244 244 245 243 244 244 245 244 245 244 
245 245 245 245 244 245 245 245 246 244 247 246 247 247 246 246 
245 247 247 248 247 248 249 248 247 247 247 248 247 248 248 249 
250 248 247 248 248 249 248 248 249 250 251 251 249 250 250 249 
250 249 249 250 250 250 250 250 251 250 250 250 250 250 249 249 
249 249 250 249 250 250 249 249 249 250 249 249 250 248 250 249 
249 249 250 243 244 243 244 244 242 243 244 244 243 245 245 243 244 245 244 246 
245 245 245 245 245 246 246 246 244 246 248 247 249 248 247 247 
245 244 248 248 248 249 249 247 247 248 249 247 248 248 247 248 
249 248 248 249 249 248 249 249 249 250 249 249 250 250 250 250 
249 250 250 250 250 250 251 250 250 250 250 251 251 251 251 250 
250 250 249 251 249 249 251 250 250 250 250 249 249 250 250 249 
250 250 250 