P2
# Created by IrfanView
100 100
255
240 239 239 239 239 240 241 240 240 241 240 240 241 241 242 243 244 
243 244 243 242 243 245 244 244 244 244 243 245 244 242 242 242 
243 244 244 246 245 245 246 247 246 246 247 244 243 242 242 241 
243 244 245 246 246 247 248 246 246 248 247 247 249 249 249 250 
248 250 247 249 249 249 245 245 244 244 241 241 242 244 245 245 
244 243 242 239 239 237 235 235 235 234 232 234 234 231 233 231 
230 228 228 240 239 238 239 239 239 240 240 240 241 240 241 241 242 242 242 242 
243 243 242 242 243 242 243 243 242 242 242 241 241 242 243 242 
242 242 242 242 244 244 245 244 244 244 245 245 244 244 244 244 
244 245 247 249 249 249 248 248 248 248 249 250 250 250 248 247 
250 249 250 250 250 250 253 252 250 251 252 251 250 250 250 249 
250 251 251 252 251 251 252 249 246 248 243 248 247 247 246 247 
246 241 239 238 239 239 239 239 240 240 239 241 240 240 240 243 240 242 242 242 
243 242 242 243 242 242 242 243 242 243 243 241 241 241 242 240 
241 242 242 243 243 243 243 243 242 242 244 245 246 245 244 244 
245 245 246 246 247 248 248 247 246 248 249 249 248 249 248 249 
250 249 249 249 249 249 250 250 250 251 250 249 250 250 250 250 
251 252 251 252 251 252 253 252 253 252 253 252 252 251 251 253 
252 252 249 238 238 239 238 239 241 239 240 240 239 240 240 242 241 242 241 242 
241 242 244 242 242 242 242 241 242 242 243 242 241 240 241 242 
242 242 243 242 243 243 243 246 243 243 243 243 243 243 244 244 
245 245 245 246 246 246 247 247 249 249 248 247 246 248 249 249 
249 250 249 249 250 250 250 251 249 250 250 250 250 251 250 250 
251 251 250 251 251 251 252 252 251 252 253 249 250 251 251 251 
250 251 250 238 240 238 238 237 239 240 240 239 240 240 241 241 242 242 242 243 
241 242 242 242 243 242 241 243 242 242 241 242 241 242 242 241 
243 242 242 242 242 242 244 243 243 243 243 243 244 244 242 243 
244 243 245 246 246 247 246 247 247 246 248 247 247 248 249 249 
248 248 250 249 248 249 248 248 250 250 251 250 250 248 249 250 
250 251 250 250 250 251 252 251 251 251 251 250 250 250 250 252 
250 250 250 237 236 236 238 238 239 240 239 238 239 240 240 241 241 241 241 241 
243 242 241 241 240 241 241 241 241 242 241 241 242 242 242 242 
242 243 242 242 241 242 243 242 243 242 244 243 244 242 242 242 
244 245 245 246 245 246 246 247 246 247 248 246 247 247 247 249 
248 248 249 249 250 251 250 250 250 250 251 250 249 249 248 250 
250 250 251 249 250 251 251 250 250 251 250 250 250 251 252 250 
250 250 248 238 239 239 238 239 240 240 240 239 239 237 239 241 241 240 242 242 
240 241 241 241 241 241 242 242 241 240 242 241 241 241 242 242 
241 242 243 242 243 242 242 243 243 243 244 244 244 244 244 244 
245 245 245 246 246 246 247 247 246 247 248 248 247 247 247 246 
248 249 249 249 250 249 250 250 250 250 250 250 250 249 249 250 
250 250 250 250 251 251 250 250 250 250 249 250 250 249 249 249 
250 250 249 237 235 238 238 238 238 238 240 240 240 240 240 241 240 240 241 241 
241 240 241 241 241 241 241 241 241 241 242 242 240 241 241 241 
241 241 240 239 240 242 242 245 244 246 248 246 244 244 239 235 
234 237 238 232 239 237 241 245 246 247 248 249 248 247 247 249 
247 248 248 248 249 249 249 249 249 249 249 250 249 249 249 249 
249 249 250 248 249 249 249 249 249 250 249 248 249 249 250 250 
249 249 249 237 238 239 238 238 239 240 240 240 240 240 241 240 239 241 238 241 
241 241 241 241 241 241 240 241 241 241 240 242 241 240 240 240 
239 239 241 241 241 243 242 244 242 231 212 187 180 168 156 161 
160 168 174 176 183 176 171 179 182 193 205 231 242 246 246 249 
248 249 247 248 249 248 248 248 250 249 250 249 249 250 250 248 
250 249 249 250 250 249 250 249 249 249 249 249 252 249 249 249 
250 250 250 238 238 236 237 238 237 240 240 240 239 239 240 239 240 240 240 241 
241 240 241 241 241 241 241 241 241 241 242 241 241 241 241 240 
242 241 242 245 246 233 209 178 172 174 205 225 234 240 243 244 
244 243 246 245 244 244 244 240 238 233 216 197 183 185 200 226 
244 249 249 249 247 247 248 248 247 248 248 248 249 248 249 249 
249 249 248 249 250 250 249 250 250 249 249 249 249 249 249 250 
248 249 248 238 238 237 237 238 239 239 240 240 239 239 239 239 239 240 240 239 
240 240 240 240 241 240 240 240 240 240 240 240 240 241 241 241 
242 241 239 210 178 171 180 220 243 245 245 244 245 243 242 243 
245 244 245 243 243 246 246 245 245 246 246 248 247 233 208 183 
176 212 239 248 249 248 249 248 247 248 248 248 249 249 250 247 
247 248 249 247 247 248 249 249 249 248 249 249 249 249 249 248 
248 248 248 237 237 239 238 240 237 238 238 238 238 239 239 238 239 240 240 240 
240 240 240 240 240 240 239 239 239 240 239 239 241 240 240 241 
229 191 161 180 227 242 245 243 243 244 243 242 242 243 243 242 
243 243 243 242 242 243 243 243 245 244 243 243 246 246 246 246 
239 218 191 189 220 247 247 246 245 248 248 249 249 248 248 248 
248 247 249 249 248 249 247 248 250 248 249 248 248 249 249 249 
249 249 249 238 238 238 240 240 238 238 240 238 239 239 238 237 241 239 239 239 
240 238 239 239 240 239 239 239 240 238 239 240 241 240 232 185 
153 193 235 242 243 243 242 241 242 242 242 243 243 241 240 241 
241 243 243 242 244 243 243 241 242 243 242 242 243 242 244 246 
245 247 244 230 195 186 218 246 246 247 248 247 248 248 248 249 
248 248 249 249 248 246 248 249 248 248 249 250 249 249 248 249 
249 249 249 239 237 237 237 237 238 239 238 237 237 238 237 238 237 237 240 239 
238 238 239 239 240 238 239 239 239 238 241 242 238 196 149 193 
236 245 243 240 240 241 241 241 241 241 242 241 242 241 241 243 
243 241 241 242 242 242 242 242 242 242 243 243 242 242 241 243 
243 244 245 244 246 237 196 181 233 246 247 247 247 248 248 247 
248 248 249 248 248 247 248 248 249 249 249 249 249 249 250 249 
249 249 249 237 238 237 237 238 237 237 237 236 237 237 237 237 238 239 238 239 
239 239 239 237 238 239 238 238 238 241 243 209 157 184 237 243 
244 243 242 240 240 242 241 241 242 241 241 242 241 242 241 241 
241 242 241 242 242 243 242 243 243 242 242 243 243 243 243 242 
242 243 245 246 245 247 245 220 180 205 240 246 249 247 246 248 
248 248 248 248 248 246 248 249 248 248 249 249 249 249 249 249 
249 247 250 237 238 237 237 237 237 237 237 237 238 237 238 237 237 236 237 238 
238 239 240 240 238 239 239 241 242 237 180 159 221 245 245 243 
241 241 241 241 242 242 242 241 241 241 242 244 241 243 242 242 
242 242 242 242 242 242 243 242 242 242 243 243 242 243 243 243 
243 243 242 243 244 244 245 243 242 205 173 233 246 246 245 247 
248 248 248 248 248 246 247 249 249 250 250 249 249 249 249 250 
249 248 249 236 236 237 237 237 237 237 238 237 236 237 237 238 238 238 238 238 
238 238 239 239 239 239 240 240 219 161 186 238 243 243 242 241 
241 241 242 242 242 241 242 242 241 243 242 241 242 243 242 242 
240 242 241 241 242 244 240 242 243 242 242 242 242 242 243 242 
242 243 243 243 243 242 242 243 244 243 228 182 224 246 246 247 
248 248 247 247 248 250 247 248 249 247 249 249 249 248 248 249 
248 249 248 236 236 236 237 236 237 237 236 236 237 236 236 236 236 238 238 239 
239 238 240 239 238 240 241 203 164 221 242 239 240 241 241 241 
243 242 242 241 241 243 242 242 242 242 242 243 241 242 242 241 
242 241 243 242 241 243 242 241 242 243 243 242 241 241 243 242 
241 242 243 244 244 241 241 241 242 243 245 238 186 206 246 246 
246 246 247 247 248 247 248 247 248 249 249 248 249 249 248 249 
249 249 249 235 235 236 235 236 237 236 237 236 236 236 238 237 235 236 238 236 
235 237 237 238 242 237 189 182 237 243 241 240 240 241 242 242 
241 241 243 243 241 242 242 241 241 241 241 239 242 242 242 241 
241 241 242 241 242 242 242 242 242 242 241 243 241 243 243 244 
243 242 242 241 242 242 241 242 241 242 242 246 245 207 200 244 
247 247 245 247 247 249 248 248 249 248 249 249 248 248 249 248 
248 248 249 235 235 235 236 236 235 235 234 236 236 236 236 236 235 236 235 238 
237 236 234 238 231 166 188 237 242 240 241 240 241 242 241 241 
242 242 241 242 241 243 242 242 241 241 242 242 241 242 241 241 
241 241 242 242 243 242 242 242 241 241 243 242 242 242 242 243 
242 243 241 242 241 241 242 242 243 242 242 244 244 246 213 189 
244 247 247 247 245 248 248 248 248 248 248 249 247 247 248 249 
249 249 249 234 235 234 236 236 235 235 236 236 235 236 235 234 234 235 234 236 
235 235 237 227 155 195 241 243 240 240 239 241 241 240 241 241 
241 242 240 241 241 241 240 241 242 241 240 242 241 241 240 242 
240 241 241 242 242 242 242 241 241 241 242 242 242 242 242 242 
241 241 242 242 242 243 241 243 242 244 243 242 241 243 245 221 
190 240 245 244 245 246 245 245 248 247 247 247 247 249 246 248 
248 248 249 234 233 235 235 235 235 235 235 237 236 234 235 236 235 235 235 235 
234 236 233 155 200 240 241 240 240 239 241 241 242 241 241 242 
241 242 241 241 241 242 240 242 240 242 241 241 241 241 242 241 
241 240 242 242 242 242 242 242 242 241 241 242 242 242 242 243 
241 241 241 241 242 242 242 241 241 239 241 242 243 243 243 245 
219 192 244 243 244 246 247 247 246 247 247 249 246 247 248 249 
249 248 248 232 231 234 235 235 235 236 234 235 234 234 236 237 235 235 234 234 
236 232 168 189 238 239 239 241 241 241 240 240 241 240 242 241 
240 240 241 241 241 241 241 240 241 239 241 241 241 241 241 239 
240 241 241 240 241 240 241 242 242 242 242 242 241 241 241 241 
243 242 241 241 240 241 241 242 241 241 242 242 243 241 241 242 
243 213 206 244 243 245 245 244 247 247 248 248 248 249 248 249 
248 249 249 233 232 234 234 235 234 234 234 234 234 234 235 235 235 236 234 236 
232 153 175 238 236 238 239 239 239 240 240 239 241 241 241 240 
240 242 241 241 241 241 240 241 242 240 241 241 241 242 240 241 
240 241 240 240 241 241 241 240 241 241 241 242 242 242 241 240 
240 241 242 242 241 242 241 241 242 241 241 241 242 240 241 242 
243 242 204 216 247 245 245 243 244 247 248 248 248 249 248 248 
248 248 249 232 233 234 232 235 234 234 234 235 236 234 234 234 236 232 234 236 
180 174 233 237 236 238 240 239 239 240 239 241 240 240 240 240 
240 240 239 240 241 240 240 240 240 240 239 241 241 240 240 241 
241 241 240 240 240 241 241 241 241 239 241 239 240 241 241 243 
242 241 240 241 241 240 242 242 241 241 242 241 241 242 241 241 
243 243 240 191 225 247 244 244 244 246 247 248 247 247 248 248 
248 248 248 230 232 234 233 235 234 233 233 235 234 233 233 235 234 233 237 209 
154 227 238 235 237 235 238 238 239 240 239 240 240 240 241 240 
240 240 240 240 240 240 241 240 241 241 241 241 240 240 241 240 
241 240 240 241 241 241 241 242 241 241 241 242 241 241 241 241 
241 241 240 240 241 240 240 240 241 241 239 241 240 241 241 241 
243 242 242 236 182 241 246 245 245 247 247 246 246 247 248 248 
248 248 248 229 230 232 233 232 233 233 234 234 235 235 233 232 233 234 223 142 
216 239 239 237 236 238 238 239 239 240 238 239 240 239 240 239 
240 240 239 240 239 240 239 239 241 240 240 240 241 240 240 240 
240 241 240 239 239 242 239 240 239 240 241 241 240 240 239 240 
240 239 239 241 240 241 240 241 240 241 240 241 241 240 241 241 
242 241 241 242 220 194 247 244 246 246 245 245 247 247 247 248 
248 248 248 231 232 232 232 233 233 233 234 233 234 234 234 233 234 235 162 186 
240 236 236 235 235 236 239 240 240 239 237 238 239 239 240 240 
240 240 240 239 238 240 240 240 240 240 240 240 239 240 240 240 
240 239 240 240 240 240 240 240 240 239 240 241 240 240 241 241 
240 238 240 240 240 240 241 240 242 242 241 241 240 240 241 239 
239 240 239 239 242 197 214 245 244 244 244 245 245 247 248 248 
248 248 248 229 230 232 233 233 233 234 234 234 234 234 234 234 234 207 157 230 
236 236 237 236 236 238 238 236 237 236 238 238 239 239 238 239 
238 239 238 240 238 238 239 240 240 239 239 240 240 240 240 240 
240 240 239 239 239 239 240 240 239 240 240 240 239 240 240 238 
239 239 239 240 241 240 241 241 239 240 240 241 240 240 240 241 
241 240 240 240 241 241 176 243 244 245 244 245 245 245 247 248 
248 248 247 229 230 230 232 231 233 234 234 234 234 234 234 235 232 151 216 235 
235 236 234 235 237 237 237 237 238 238 237 238 239 238 240 237 
238 238 239 239 239 239 239 238 240 240 240 240 240 239 239 239 
239 240 240 239 239 240 240 240 239 239 237 239 238 239 238 240 
240 238 239 238 237 239 241 239 239 241 240 240 240 242 241 240 
240 240 240 240 239 241 217 197 242 244 243 242 243 246 248 246 
247 248 247 228 230 228 230 233 233 232 231 233 233 234 234 235 175 163 236 235 
235 235 238 235 237 238 238 237 236 236 236 238 236 239 237 239 
237 238 238 238 238 239 239 239 240 240 240 239 240 240 239 239 
240 239 239 239 239 239 240 240 239 239 239 239 239 240 238 236 
238 238 238 236 236 238 240 240 240 239 240 241 240 240 240 241 
240 240 240 240 240 240 243 169 233 244 243 242 243 244 246 246 
247 247 247 228 228 228 229 231 232 233 233 233 233 235 235 230 145 220 236 234 
235 235 237 236 236 236 236 235 237 235 236 235 237 238 237 238 
240 237 238 238 237 239 239 239 238 237 239 240 240 239 239 240 
239 240 239 239 239 240 240 240 239 238 238 237 237 239 239 237 
237 237 238 234 238 238 239 239 239 239 240 240 239 239 241 241 
241 240 239 240 239 239 240 219 183 243 245 243 242 244 244 246 
247 247 248 230 230 229 230 229 232 233 233 231 232 234 233 178 193 237 234 235 
235 237 235 236 234 236 235 235 235 238 236 236 236 237 235 236 
237 237 240 237 239 238 240 239 236 238 237 239 240 238 239 239 
240 238 239 239 240 240 239 239 238 238 238 238 238 239 236 236 
238 237 236 234 237 238 239 240 240 239 240 240 238 242 242 242 
242 242 243 243 240 240 239 242 165 230 242 242 243 245 246 246 
246 245 247 227 228 229 231 231 230 230 232 232 231 233 225 157 230 234 235 235 
235 233 234 235 235 234 234 236 236 236 236 225 208 211 210 204 
217 227 233 237 236 237 238 238 236 239 238 238 239 238 239 238 
239 239 238 237 239 239 239 240 238 237 237 238 238 238 237 237 
236 236 236 235 236 236 237 240 240 240 240 241 240 241 242 242 
241 242 243 243 242 241 239 240 211 189 244 243 244 245 245 243 
245 246 246 227 228 228 231 232 230 230 230 232 232 232 189 194 232 234 235 234 
234 234 234 235 235 234 235 238 233 187 121 86 71 72 88 112 
115 111 140 147 173 178 208 231 237 237 237 238 238 240 237 239 
238 239 239 238 239 238 237 239 238 238 238 239 239 237 237 238 
237 238 239 239 236 238 239 240 240 240 241 241 241 240 241 241 
242 242 241 243 242 242 241 240 242 171 240 242 244 245 244 243 
244 244 245 227 229 230 230 230 230 231 231 230 233 231 156 220 235 235 234 234 
234 235 235 235 234 234 238 213 86 106 135 134 128 87 114 131 
129 125 99 77 84 62 100 172 198 236 238 238 238 237 238 238 
238 240 240 238 238 238 237 236 238 238 238 238 237 239 239 239 
240 239 238 238 239 238 239 241 241 240 241 241 241 241 242 242 
241 242 242 243 242 242 241 240 243 200 211 243 244 244 244 243 
245 245 244 225 225 227 230 228 231 231 232 232 233 213 174 236 234 234 234 233 
233 234 234 234 235 234 235 109 131 155 117 126 138 116 103 114 
119 113 89 103 96 66 60 110 91 185 238 239 239 239 238 238 
238 240 239 240 239 238 239 238 238 238 237 236 241 238 226 220 
211 174 187 208 226 232 237 240 240 243 243 242 243 242 241 242 
242 242 241 243 244 242 243 241 241 237 181 244 245 244 244 245 
242 243 246 226 227 227 229 228 230 229 232 231 234 172 208 235 233 234 234 234 
234 234 234 234 235 234 181 65 87 77 82 95 109 114 121 116 
107 122 92 102 76 65 61 71 61 186 236 238 239 238 238 238 
238 238 239 239 238 239 238 238 238 237 236 238 212 176 116 120 
104 106 115 105 115 132 142 185 219 236 239 243 244 244 244 241 
241 242 243 243 243 242 245 242 241 244 168 238 244 243 244 242 
243 244 244 228 227 228 230 228 227 227 229 229 225 164 231 232 233 234 234 234 
234 234 234 233 234 181 104 59 67 74 103 173 205 211 210 202 
183 165 128 98 99 61 65 80 67 185 237 237 238 238 238 238 
238 237 236 238 237 237 237 236 237 238 238 237 116 116 159 151 
135 133 123 91 91 91 87 103 102 129 138 173 234 242 243 242 
241 241 242 241 242 243 244 243 241 242 201 202 244 244 242 243 
243 244 245 227 227 228 227 227 228 230 230 229 214 171 231 233 234 234 233 234 
232 234 235 234 234 232 188 94 139 175 218 235 235 234 234 236 
237 237 230 176 106 63 100 75 91 211 236 236 236 239 237 237 
236 236 236 238 237 237 237 238 237 237 236 235 99 154 120 121 
139 143 129 127 136 101 99 157 112 89 88 124 186 244 242 242 
240 242 243 242 243 243 243 243 241 241 233 186 244 244 244 242 
243 243 242 227 227 228 228 227 226 227 228 226 181 196 232 233 234 234 235 234 
232 234 234 235 235 236 228 231 239 236 234 235 234 234 234 234 
234 235 236 236 216 159 138 134 180 238 238 236 238 236 236 237 
235 237 237 238 239 238 238 238 237 237 236 232 93 121 167 144 
148 132 114 127 135 121 140 126 108 110 127 127 160 244 243 242 
241 241 242 242 242 243 243 244 242 243 243 187 243 243 244 243 
243 243 244 227 227 227 227 228 226 225 227 229 146 216 230 231 233 234 233 233 
234 234 235 235 235 234 236 238 237 235 233 233 235 234 235 234 
234 235 234 236 236 235 230 235 239 237 237 236 236 237 236 237 
236 237 238 237 238 237 239 238 236 236 236 220 121 135 146 148 
161 176 202 205 209 214 214 198 177 149 150 180 174 244 242 241 
242 240 242 242 243 242 241 242 242 241 241 190 230 244 243 243 
242 243 243 226 226 226 227 226 227 227 228 209 115 226 230 231 232 233 234 233 
234 235 234 234 234 235 233 235 236 233 235 234 233 236 235 236 
233 235 236 235 236 236 237 237 236 235 236 234 235 235 235 235 
236 236 238 239 238 238 236 238 238 239 237 224 148 219 236 243 
238 241 242 243 241 240 242 241 239 233 207 154 187 241 242 242 
242 241 243 242 242 243 244 242 241 241 241 217 210 245 243 243 
243 241 243 227 226 225 221 224 224 227 225 187 192 230 232 230 233 234 234 234 
234 235 235 234 234 235 233 234 234 234 236 188 154 174 147 117 
110 196 232 236 235 235 236 236 236 236 236 238 236 236 236 235 
237 237 238 238 239 239 239 238 238 238 238 241 242 244 241 242 
239 241 240 240 240 240 240 240 240 241 240 233 235 242 243 242 
242 241 242 242 242 242 242 242 242 240 242 232 200 245 242 243 
244 244 245 225 225 225 227 226 227 227 225 192 214 230 230 231 234 234 234 233 
234 234 234 234 234 236 234 235 234 235 234 205 87 46 48 50 
64 113 201 237 236 235 235 235 234 236 236 236 236 236 236 235 
234 236 238 238 238 238 238 238 239 240 240 242 242 241 240 241 
239 238 239 240 241 240 240 240 240 240 240 242 241 242 241 242 
242 241 241 242 242 241 242 241 242 241 242 239 196 245 242 243 
244 244 243 225 226 226 226 228 227 226 225 191 221 230 231 232 233 232 233 235 
234 236 234 234 234 236 234 234 234 235 235 232 210 201 197 205 
221 233 237 236 235 237 236 236 236 236 236 235 236 235 235 235 
235 236 236 240 237 239 240 239 241 240 240 241 241 241 241 241 
241 241 242 243 240 241 243 241 240 239 239 241 241 241 243 241 
242 242 242 242 241 241 242 242 243 242 242 241 192 247 244 243 
243 243 244 226 226 225 227 224 225 226 224 188 221 231 231 231 233 232 233 233 
232 235 234 234 235 235 235 235 234 236 234 234 236 236 238 238 
238 236 236 236 235 235 235 237 236 236 235 235 234 236 236 236 
236 237 235 238 238 239 238 238 238 239 240 241 240 241 241 241 
242 237 233 225 225 226 232 240 240 241 240 238 240 241 243 243 
242 241 242 242 239 240 241 241 241 241 243 242 198 245 243 243 
245 243 243 225 226 224 226 227 225 226 225 183 225 231 231 233 233 234 234 234 
234 234 234 234 235 235 235 235 235 233 235 235 235 234 236 235 
236 235 236 236 235 234 236 236 235 235 236 238 237 236 235 235 
236 236 237 237 237 237 238 239 239 238 240 240 242 240 240 240 
173 85 75 71 84 108 150 242 240 240 240 240 241 241 241 242 
243 242 242 243 242 241 241 243 240 241 243 242 200 243 243 243 
243 244 243 228 226 227 225 225 226 225 224 181 222 229 231 234 233 233 234 234 
235 234 234 234 235 235 235 235 236 235 234 236 235 235 235 234 
235 234 236 235 234 236 235 237 235 236 235 236 236 236 236 235 
236 235 236 237 238 238 239 239 238 238 238 239 241 240 240 218 
128 129 137 160 216 235 243 242 241 240 240 240 241 242 243 242 
242 243 243 242 241 242 241 241 241 241 241 242 206 238 244 244 
243 244 244 224 225 225 226 227 225 227 224 186 226 230 232 233 233 233 234 234 
234 234 233 234 234 235 236 235 236 235 236 234 235 235 235 235 
235 236 237 236 236 235 235 235 237 236 237 237 237 236 236 236 
236 237 235 236 237 238 239 236 238 239 239 240 241 240 240 241 
242 243 246 243 243 242 240 238 241 240 241 241 242 241 241 242 
243 241 242 241 241 241 241 240 241 242 242 241 204 237 244 244 
244 244 244 225 226 226 226 227 225 223 223 185 226 233 231 234 233 234 233 234 
234 234 234 234 234 235 236 236 236 235 235 235 236 236 236 236 
235 235 236 236 235 236 236 237 236 237 237 238 236 238 238 236 
237 237 237 236 236 238 239 239 239 240 236 238 241 240 240 240 
241 241 241 241 240 241 241 241 242 241 241 242 242 243 243 242 
242 242 242 242 240 241 241 241 241 240 241 242 201 241 243 243 
244 244 243 226 225 225 226 227 228 226 224 185 222 231 232 232 233 234 234 234 
234 234 234 235 235 235 235 236 235 236 236 236 236 235 235 236 
236 235 235 236 234 236 237 236 237 239 237 238 238 237 237 237 
237 237 238 237 237 239 239 239 239 240 239 239 239 240 239 240 
239 240 239 240 240 241 241 241 240 242 241 241 241 240 242 244 
243 242 243 244 241 242 240 240 240 240 241 243 198 245 244 241 
243 244 245 228 225 226 226 224 225 225 224 192 221 233 233 232 233 233 233 234 
234 234 232 235 235 236 235 237 236 236 236 234 235 235 236 235 
234 235 236 234 236 236 238 237 238 237 238 237 237 238 238 238 
237 237 238 239 239 239 238 239 238 239 238 240 239 239 240 240 
240 241 240 240 240 240 239 241 241 240 242 241 243 242 241 241 
242 241 241 242 241 242 242 241 241 242 241 243 195 245 243 242 
244 244 244 224 226 225 225 225 227 226 225 198 215 229 233 233 232 232 233 234 
235 234 233 235 235 235 235 235 235 236 235 236 236 235 235 236 
234 235 235 236 237 234 236 237 238 238 237 239 237 237 237 239 
238 240 239 239 238 239 238 239 240 239 241 239 239 240 240 240 
240 240 240 241 241 241 242 241 240 241 241 241 241 241 242 242 
243 242 241 242 242 241 240 240 240 240 239 241 197 244 243 244 
243 244 244 225 226 226 225 224 225 227 225 201 204 231 233 233 233 233 233 232 
233 233 235 236 234 234 235 235 235 236 236 236 235 235 237 236 
233 236 235 234 235 239 236 237 239 238 239 239 238 239 239 238 
237 239 237 239 237 238 239 239 238 239 239 240 240 240 240 240 
240 240 241 239 240 240 241 241 241 240 241 241 241 241 242 242 
241 241 241 242 241 241 240 240 240 240 241 242 203 244 243 243 
243 244 244 225 226 226 226 227 225 227 226 216 199 230 231 233 231 233 233 233 
233 233 234 234 234 234 234 236 235 235 235 235 234 235 235 235 
236 236 237 236 235 237 236 237 237 237 236 237 238 238 238 238 
237 238 239 239 239 238 238 238 238 240 239 240 239 240 239 240 
240 241 239 239 240 240 241 240 242 241 241 241 241 241 241 240 
241 242 241 242 242 241 241 241 241 241 241 239 201 243 245 241 
243 244 244 228 226 225 225 227 226 227 224 220 184 230 232 233 231 229 232 234 
233 233 234 234 232 236 235 234 235 235 236 236 237 235 235 235 
234 236 235 237 236 237 238 237 237 238 237 238 239 236 238 239 
238 238 239 239 237 236 238 239 239 239 237 238 240 239 239 240 
239 240 241 241 239 240 240 240 241 239 240 240 240 241 242 241 
241 241 241 242 242 241 241 240 241 241 241 230 209 245 244 243 
242 243 243 224 225 225 225 224 226 228 227 223 180 231 230 232 231 233 234 233 
233 232 234 236 234 234 235 237 236 235 236 235 236 236 234 234 
234 236 235 236 236 236 236 237 237 237 238 237 237 240 239 240 
238 238 238 239 237 238 238 238 237 239 238 240 240 240 240 240 
240 240 240 241 240 239 240 240 240 240 241 240 240 240 241 242 
242 241 241 241 241 242 242 242 242 241 242 219 223 244 244 243 
244 245 244 228 225 226 226 225 225 227 227 226 183 226 230 231 230 233 232 233 
232 232 233 233 233 234 234 236 234 236 236 236 235 235 235 235 
235 236 236 236 235 236 235 235 237 237 238 238 238 237 237 238 
237 238 237 237 238 238 239 239 238 239 238 238 239 240 241 240 
239 240 240 240 241 239 241 240 238 239 239 238 240 240 240 240 
240 242 241 240 241 241 242 241 241 241 241 202 240 244 243 243 
244 244 242 224 224 226 226 225 225 226 228 226 183 219 230 231 232 231 230 232 
233 231 234 234 234 234 235 237 236 236 235 236 235 236 236 236 
235 235 235 236 235 236 235 236 236 237 237 238 239 238 238 239 
238 238 240 239 238 239 238 239 238 237 238 239 240 240 241 240 
240 239 239 238 238 239 239 240 239 239 240 239 240 239 238 237 
239 240 241 242 241 242 241 241 241 240 244 189 244 244 244 244 
244 243 244 227 224 226 226 226 225 226 227 228 210 197 228 230 231 233 231 231 
233 233 233 235 235 233 234 236 236 236 236 235 236 236 235 235 
235 235 235 235 236 236 235 234 236 237 238 237 238 239 240 239 
239 237 237 239 237 237 237 238 238 237 238 239 238 240 240 239 
240 239 240 240 241 241 240 240 239 240 239 238 239 239 238 236 
239 241 239 241 240 242 242 241 242 239 235 197 246 243 245 243 
242 242 244 226 225 225 225 225 225 225 225 221 221 184 234 232 231 233 232 230 
233 231 233 234 234 234 234 234 235 235 236 236 235 235 235 235 
235 234 234 237 235 236 234 234 235 237 237 238 237 237 237 238 
239 238 238 237 238 239 238 238 238 237 237 239 239 240 240 239 
239 240 240 239 238 239 239 239 239 239 239 240 238 237 238 238 
238 240 238 240 241 241 242 240 240 240 216 220 243 243 243 243 
242 243 244 225 225 222 225 226 226 226 224 225 223 175 228 229 230 231 232 231 
231 232 232 232 233 234 234 236 234 235 237 236 237 236 235 235 
235 236 236 237 235 234 235 235 235 237 237 237 238 237 237 237 
237 238 237 237 237 237 237 237 237 237 239 239 239 239 239 239 
239 240 239 239 240 238 239 239 239 239 239 238 238 239 239 239 
237 241 241 240 239 240 241 241 239 245 177 241 243 243 242 243 
243 243 244 226 226 226 226 226 223 224 226 225 222 198 209 230 230 230 231 232 
233 233 233 233 234 234 234 236 237 236 236 236 236 236 236 235 
235 235 235 235 236 237 236 236 235 236 237 237 239 238 237 238 
238 237 237 237 236 236 237 238 239 238 238 238 239 239 239 239 
238 238 238 238 239 238 238 239 239 240 239 239 240 238 238 238 
240 239 239 239 240 241 241 239 240 219 183 243 242 244 243 243 
243 243 243 225 225 226 224 224 224 227 223 226 224 221 179 230 230 230 230 231 
233 231 232 234 233 233 234 235 235 235 236 237 235 235 236 235 
236 235 235 235 236 236 235 236 235 236 235 236 237 238 237 236 
238 236 237 239 237 237 237 237 238 237 237 237 236 237 238 239 
240 239 238 239 237 239 239 239 238 238 237 239 238 238 237 238 
239 239 238 239 239 239 240 239 238 161 236 242 242 241 243 243 
243 243 244 226 224 225 225 226 225 224 226 225 224 224 178 225 229 228 231 232 
233 233 233 233 233 233 234 234 235 235 237 236 235 235 237 234 
235 236 235 236 236 235 235 235 235 236 234 235 237 236 237 237 
237 237 238 237 238 238 236 237 237 237 238 238 237 238 239 239 
237 238 238 238 238 238 237 239 240 238 240 238 237 237 237 238 
238 238 239 237 239 239 237 238 203 169 243 243 242 242 243 243 
244 244 243 225 224 224 226 223 223 224 225 226 226 225 207 190 230 226 228 231 
233 234 233 234 231 234 234 233 233 233 236 236 235 236 238 236 
236 235 236 234 235 236 236 236 234 236 236 236 236 237 237 238 
236 236 237 235 235 236 235 237 238 237 237 238 236 239 239 239 
239 238 239 239 238 239 239 239 237 238 239 238 236 237 236 238 
238 238 239 239 239 239 238 237 186 230 239 241 241 242 241 242 
243 242 243 226 226 226 224 226 226 226 224 226 226 224 225 182 228 227 228 232 
231 233 231 232 233 233 232 232 234 234 235 237 235 235 235 235 
235 233 232 235 235 235 236 235 235 235 236 236 237 236 237 238 
238 239 239 237 237 236 238 238 239 239 240 239 240 239 238 239 
239 238 238 238 239 239 239 238 239 237 238 237 236 235 236 236 
237 239 238 237 238 236 238 233 194 243 240 241 242 243 243 243 
243 243 244 225 226 224 225 225 225 226 223 226 225 225 222 189 204 228 228 232 
230 232 232 232 232 233 233 233 234 234 234 236 237 235 236 235 
235 235 235 235 236 235 236 237 236 236 237 238 240 237 236 237 
238 239 237 237 236 240 238 237 237 237 236 239 238 238 238 238 
238 238 238 238 237 237 237 237 237 238 238 237 238 238 238 238 
237 236 238 237 237 235 237 209 224 242 241 242 242 242 242 241 
243 242 242 225 225 224 225 225 224 225 225 225 224 225 222 217 180 226 227 230 
231 231 232 231 231 232 234 233 234 233 234 234 234 234 235 235 
235 236 238 236 234 222 224 217 210 216 221 210 208 215 194 190 
201 194 201 214 207 176 163 154 148 144 147 157 153 224 237 237 
238 238 237 236 237 235 238 238 237 237 238 237 237 236 236 236 
238 236 237 237 237 237 228 191 239 241 241 241 241 242 241 242 
242 243 244 225 226 225 224 225 225 225 226 225 224 225 225 225 195 195 229 229 
230 230 231 231 232 232 232 234 234 234 236 234 236 236 237 236 
235 235 225 165 159 123 111 122 150 157 176 163 157 156 149 151 
148 150 152 156 162 170 168 188 200 206 213 207 199 232 238 238 
238 237 238 236 238 238 238 237 238 237 236 237 237 237 237 237 
237 236 237 236 236 236 200 213 241 240 240 242 242 242 242 243 
243 241 242 224 225 225 225 224 225 225 225 224 225 224 223 223 214 163 221 231 
230 231 232 229 232 232 233 233 234 234 235 236 236 236 237 235 
235 238 237 237 235 229 223 227 235 238 235 239 239 237 238 236 
235 234 237 239 238 240 240 242 239 238 238 238 239 238 237 237 
237 238 237 238 237 238 236 237 237 236 237 237 238 236 237 236 
236 236 236 236 237 234 187 238 239 240 239 241 241 240 239 241 
242 242 244 223 225 226 225 225 222 223 224 224 224 227 224 224 222 204 181 228 
229 228 230 230 230 231 234 234 233 233 234 236 235 236 238 236 
236 240 238 237 237 238 239 239 239 237 238 239 239 238 240 240 
239 239 240 238 240 239 240 237 238 237 237 236 236 237 237 237 
236 236 237 237 237 236 236 237 236 238 237 235 236 237 236 236 
237 237 236 234 239 198 218 238 238 239 240 241 242 242 243 242 
241 241 242 224 224 224 224 223 223 224 225 224 223 224 226 224 224 222 180 206 
231 229 229 230 229 230 233 232 232 232 232 234 234 235 235 234 
237 237 237 237 236 237 236 237 238 237 236 235 238 237 236 236 
237 235 235 236 238 236 237 237 236 237 236 237 236 236 238 237 
238 237 238 236 236 238 236 237 238 236 237 236 236 236 236 235 
235 236 234 235 219 185 239 239 240 242 239 240 242 240 241 241 
240 242 242 225 225 223 223 224 223 225 224 223 224 224 227 226 226 225 217 167 
227 228 228 228 230 229 229 230 229 230 233 234 234 234 234 234 
233 235 235 235 235 235 235 235 236 236 237 238 238 237 236 238 
236 238 237 236 236 235 236 236 237 237 236 237 237 237 237 238 
236 236 236 237 238 236 236 237 235 237 235 236 235 236 237 236 
236 234 236 235 182 228 238 240 240 240 241 241 241 241 242 241 
241 241 242 224 224 225 224 224 224 225 224 223 225 224 225 224 226 225 224 193 
175 228 229 228 228 229 229 230 230 231 233 233 232 231 230 230 
232 230 233 234 234 234 235 236 237 236 237 236 237 237 235 237 
237 237 237 237 237 236 236 236 236 236 236 235 237 237 236 236 
238 237 237 237 236 237 236 237 237 236 237 235 236 238 238 237 
234 234 240 204 195 240 238 240 239 238 241 241 241 241 241 242 
242 242 243 223 225 222 223 225 225 226 226 227 225 225 227 223 226 226 226 231 
175 188 226 229 228 226 229 230 230 229 229 230 230 231 233 229 
231 229 231 230 234 234 236 235 235 235 235 235 237 237 237 235 
235 236 236 237 236 236 236 237 236 237 236 237 236 236 236 236 
235 235 238 236 236 236 236 237 237 236 236 235 235 236 236 237 
236 235 224 184 239 240 240 239 240 241 241 240 242 241 241 242 
242 242 242 225 226 224 226 224 224 225 223 225 225 224 226 225 226 226 225 227 
228 177 199 230 227 227 231 229 229 229 230 229 228 229 230 227 
228 224 226 230 231 231 233 234 234 236 236 237 235 233 235 235 
238 236 236 236 236 236 237 235 236 237 237 236 237 236 237 236 
236 236 236 235 235 236 235 235 237 236 235 235 236 236 237 238 
236 234 176 226 238 239 239 239 241 240 239 241 241 242 244 242 
242 242 242 223 224 226 225 225 225 224 227 226 226 225 224 225 225 226 226 227 
227 221 169 208 226 226 226 227 229 229 229 229 229 229 227 227 
227 226 227 227 229 229 229 231 234 234 236 235 234 236 236 236 
236 237 236 237 235 235 236 236 236 237 236 236 235 235 236 236 
235 235 235 235 235 236 236 236 237 236 234 235 236 235 235 234 
236 191 217 239 238 238 238 239 240 240 241 241 240 241 240 241 
242 241 242 222 224 225 224 224 222 225 225 225 225 225 225 227 226 226 226 228 
226 223 216 166 207 225 225 228 229 229 230 228 228 229 228 228 
227 226 225 227 228 229 229 230 232 231 232 233 234 235 235 236 
235 235 236 236 236 235 235 236 236 235 235 235 236 235 235 236 
237 236 234 235 234 235 234 236 235 236 235 235 235 235 234 235 
199 203 240 238 238 236 239 240 239 240 240 240 240 241 242 241 
242 241 242 225 225 225 226 225 226 226 226 227 227 227 226 227 224 225 226 228 
227 222 226 214 164 207 227 227 227 228 229 227 229 229 229 230 
226 226 226 227 225 225 226 227 230 230 230 232 233 233 234 234 
234 234 234 235 236 237 236 236 236 236 236 236 236 236 236 235 
235 236 236 234 236 235 235 235 235 235 236 234 236 234 236 208 
200 239 240 239 239 238 238 239 240 240 239 241 241 241 240 241 
241 242 243 223 224 224 224 225 226 226 225 223 225 227 226 226 224 227 226 227 
228 224 222 226 215 166 207 224 226 225 227 228 229 227 229 229 
227 227 224 225 226 228 226 227 229 229 230 230 231 231 234 234 
234 235 235 236 236 236 238 235 236 236 237 235 235 236 234 235 
234 235 235 236 234 236 235 235 236 235 235 235 234 237 200 189 
238 238 239 238 239 240 240 239 240 239 240 241 240 241 242 240 
243 242 242 223 225 223 224 224 224 225 227 228 226 225 226 225 225 226 225 228 
228 226 225 226 225 216 162 197 224 230 227 228 227 227 229 229 
226 226 224 224 222 223 225 226 226 228 229 228 228 231 233 232 
233 234 235 234 234 235 234 235 236 236 235 235 234 235 235 235 
236 236 235 234 234 235 235 234 235 233 236 235 234 198 191 235 
235 237 239 240 239 239 239 239 237 239 241 240 240 242 242 241 
240 241 241 223 223 224 224 225 224 226 226 227 227 226 225 228 227 226 226 226 
225 225 226 226 225 225 221 171 195 229 231 229 228 228 230 228 
226 225 225 226 225 225 225 223 224 225 226 226 227 231 231 232 
233 234 236 235 235 236 235 236 234 236 235 235 235 235 236 235 
235 237 234 235 234 235 237 234 234 235 237 234 196 199 237 236 
237 238 239 237 238 238 239 237 236 238 240 241 241 239 241 241 
241 241 242 223 221 223 225 225 225 225 226 225 225 227 226 224 227 225 227 226 
225 226 227 227 227 224 226 222 185 183 225 230 228 227 228 228 
226 226 224 224 225 226 224 223 224 224 224 226 227 228 230 231 
232 233 235 235 234 235 235 234 236 236 234 234 234 234 234 235 
235 236 235 235 235 234 234 234 234 238 232 191 211 239 236 235 
235 236 238 238 240 239 238 238 238 239 240 240 241 242 241 241 
241 241 241 221 219 223 224 226 223 224 224 226 226 226 226 226 226 227 225 225 
225 224 225 225 226 226 226 228 227 206 167 208 228 229 227 226 
226 226 224 224 224 223 223 223 223 223 227 224 227 227 229 231 
232 233 235 234 233 235 234 235 235 235 235 234 233 235 236 235 
235 234 235 233 234 234 234 235 232 216 185 222 239 237 234 237 
238 237 238 239 237 239 238 238 237 239 239 239 240 240 241 241 
241 240 241 221 223 223 225 225 225 225 227 227 227 227 226 226 227 226 227 228 
228 227 225 228 226 228 225 227 227 227 222 189 183 218 229 230 
227 224 221 223 224 222 224 222 225 223 225 225 226 224 230 230 
230 231 233 233 234 233 235 234 236 234 234 234 234 234 234 234 
235 235 234 234 235 234 237 227 197 203 237 238 238 235 236 236 
236 239 238 238 239 238 237 238 238 238 239 241 240 240 240 242 
241 239 242 219 221 225 223 222 224 225 226 228 228 224 228 228 227 227 227 227 
227 227 228 227 227 226 225 227 227 227 228 229 213 177 195 223 
224 229 225 223 223 223 222 223 224 227 225 224 228 226 228 231 
232 233 233 233 232 233 233 234 235 235 235 234 234 235 234 234 
234 234 234 235 236 233 212 180 212 238 238 236 235 236 235 235 
237 237 237 237 239 238 238 239 239 238 238 240 241 241 240 242 
239 241 242 220 220 223 222 224 226 224 225 226 226 224 228 228 227 227 226 226 
227 227 226 227 228 228 228 226 228 226 225 226 231 223 199 175 
187 228 228 228 225 223 222 225 224 223 223 226 226 227 229 228 
230 230 232 233 233 233 234 234 234 234 234 234 235 236 233 234 
235 235 234 232 215 179 192 228 238 237 235 236 235 236 237 236 
236 234 237 237 237 237 239 239 239 239 237 241 240 240 240 240 
240 240 241 219 218 221 223 225 226 227 228 227 228 226 226 228 227 228 228 227 
228 228 228 227 227 225 228 227 228 226 225 228 229 227 228 220 
204 173 177 211 226 227 225 223 226 223 223 225 225 225 228 228 
229 229 230 231 232 232 233 233 232 231 233 234 234 234 235 235 
237 231 211 175 191 227 238 237 236 235 235 235 235 235 234 236 
236 237 237 235 238 237 240 240 239 239 237 238 239 239 239 240 
241 241 240 223 221 221 224 226 226 222 227 228 227 228 228 228 227 229 228 229 
227 227 227 228 230 228 228 227 229 227 228 229 227 229 226 226 
227 222 201 167 178 198 215 225 229 225 226 227 224 225 227 227 
227 229 230 232 232 231 231 233 234 233 233 236 237 235 226 205 
174 181 201 225 235 237 236 235 236 236 236 236 236 235 235 235 
235 235 237 237 238 239 239 239 238 239 239 239 240 238 240 240 
240 240 240 221 220 222 225 225 225 224 226 228 227 227 228 227 229 227 228 228 
228 227 228 228 228 228 227 227 228 226 228 226 226 227 227 223 
225 226 226 225 215 188 176 172 187 211 219 220 222 226 228 230 
229 229 229 231 231 230 232 232 232 231 227 217 192 183 186 196 
216 237 235 237 235 235 236 236 237 236 236 236 238 237 235 235 
232 237 237 238 238 235 237 238 238 238 238 237 240 240 240 239 
240 241 240 220 219 221 222 224 224 224 226 226 225 228 229 227 225 227 228 227 
228 228 227 227 228 228 228 228 226 229 229 228 227 228 227 225 
224 224 223 225 226 225 223 214 200 178 178 170 189 193 207 212 
217 220 221 221 219 218 210 186 181 169 184 198 216 229 235 233 
237 237 235 235 235 236 234 236 235 236 236 235 237 235 235 235 
235 236 237 238 237 236 237 238 238 238 238 239 239 239 239 240 
239 240 239 221 218 222 223 225 223 221 226 228 227 227 228 228 230 226 228 228 
228 227 228 228 228 227 227 227 228 227 226 228 229 229 226 225 
226 226 224 223 225 223 222 224 224 220 218 217 209 192 181 175 
171 161 167 165 159 165 166 174 192 219 231 233 233 236 234 234 
235 236 235 235 234 234 237 235 238 237 236 237 237 236 236 237 
237 235 235 239 236 238 239 238 237 238 239 239 237 239 239 239 
240 240 238 220 220 220 224 226 225 226 227 228 228 227 228 226 227 226 227 229 
227 229 227 228 229 230 230 229 228 228 228 228 231 229 227 226 
228 226 225 224 227 224 223 220 224 222 222 223 220 223 222 222 
220 222 224 224 226 228 227 233 231 231 233 233 234 234 234 234 
235 235 235 235 234 236 235 235 235 235 235 235 236 236 236 238 
237 236 234 237 236 237 239 237 238 237 237 240 239 238 239 239 
237 240 239 222 221 221 222 223 225 227 227 227 228 227 228 228 227 227 228 227 
226 227 228 227 228 227 229 228 227 226 227 227 229 228 226 226 
225 225 224 224 226 224 221 222 220 222 222 223 221 221 225 227 
222 225 226 230 229 231 232 231 232 231 232 233 233 232 234 234 
234 235 235 235 235 235 233 237 235 237 237 236 236 235 237 237 
236 236 236 237 235 235 238 238 239 238 238 241 239 238 238 238 
239 240 241 219 218 220 219 221 225 225 227 228 228 228 225 227 227 228 227 226 
227 227 227 226 229 229 228 228 228 227 229 226 229 229 226 226 
228 228 227 225 226 223 220 223 222 220 222 222 222 223 223 223 
224 223 225 226 228 229 229 229 230 231 229 230 232 232 234 233 
234 233 234 234 234 234 235 235 235 237 236 236 235 235 237 237 
237 236 237 236 237 236 237 238 238 237 238 236 240 238 239 238 
240 241 241 220 220 222 222 224 226 227 226 227 226 227 228 228 229 227 228 227 
225 227 225 227 228 228 228 228 228 229 228 229 228 229 226 225 
226 227 226 226 226 225 223 221 224 222 221 221 224 223 222 223 
223 225 225 226 227 228 228 228 228 230 230 230 232 232 233 234 
235 233 234 234 234 235 234 234 236 233 236 236 235 237 236 237 
236 238 235 235 236 237 237 237 237 234 238 237 236 238 239 239 
239 241 240 220 221 221 223 222 226 225 225 226 225 227 226 225 225 227 227 229 
228 228 228 228 228 227 228 227 227 228 229 228 228 229 228 225 
228 227 225 225 226 224 223 222 222 222 223 222 222 223 224 225 
224 226 225 226 229 228 229 227 227 230 232 232 231 232 231 233 
235 235 235 234 234 234 234 234 233 233 234 235 236 237 236 236 
237 236 236 234 236 237 237 235 237 237 238 238 239 240 239 238 
240 241 242 220 220 220 222 224 226 225 225 225 227 226 227 229 228 227 228 224 
227 227 229 228 230 230 229 228 226 228 227 228 229 229 226 226 
226 227 225 223 226 224 222 220 221 222 222 223 224 223 224 224 
225 223 225 224 225 229 228 227 229 231 231 231 230 231 231 232 
234 234 233 234 234 234 234 233 234 236 233 234 234 235 235 237 
238 236 236 236 237 236 235 237 236 237 237 237 236 238 238 240 
237 240 240 