P2
# Created by IrfanView
100 100
255
253 254 253 254 254 252 252 254 254 253 254 254 254 253 254 254 254 
254 254 254 254 254 254 254 254 254 254 255 254 253 253 254 254 
254 254 254 254 254 255 255 255 255 255 254 254 255 255 255 255 
255 255 255 255 255 255 255 255 255 255 255 255 255 255 255 255 
255 255 254 255 254 254 255 254 254 254 254 253 253 254 253 254 
253 252 254 254 254 254 254 254 254 254 254 254 254 254 255 253 
253 254 255 253 253 253 253 253 253 252 253 253 254 254 254 254 254 252 253 254 
253 254 253 254 254 254 254 254 254 253 254 254 253 254 254 254 
254 254 254 254 253 254 255 254 254 254 254 253 254 255 255 255 
255 255 255 255 255 255 254 254 254 254 254 255 255 255 255 255 
254 255 254 254 254 254 254 253 254 254 254 254 254 254 254 254 
254 254 254 253 254 254 254 254 254 253 255 255 255 254 254 254 
254 254 254 253 254 253 254 252 252 252 254 253 253 254 254 254 254 254 254 253 
254 254 253 254 254 253 253 253 254 254 254 254 254 253 254 254 
254 254 254 254 253 254 254 254 254 254 254 254 254 255 255 254 
254 254 255 254 254 254 255 254 254 254 255 254 254 255 254 254 
253 254 254 254 254 254 254 254 254 253 254 254 254 252 254 254 
254 254 254 254 254 254 254 253 253 254 254 254 254 254 253 254 
254 253 254 253 253 253 253 252 252 253 253 252 251 253 254 254 254 254 253 253 
253 254 254 254 253 253 254 253 254 253 254 253 253 254 253 254 
254 253 254 254 254 254 253 254 254 254 254 254 254 255 254 253 
254 254 254 254 254 254 255 254 254 254 255 254 254 255 254 253 
254 254 254 254 254 254 254 254 254 254 254 254 254 254 254 253 
254 255 255 255 254 254 254 253 254 255 254 253 254 254 254 253 
253 254 254 253 253 253 253 253 253 253 253 253 254 253 254 254 254 254 254 253 
253 253 254 253 254 252 253 253 253 253 254 254 253 253 251 253 
253 253 253 253 254 254 254 254 253 253 253 252 253 253 254 252 
253 253 253 253 253 253 252 253 253 253 254 253 253 253 254 253 
253 253 253 254 254 254 254 254 254 253 254 254 253 255 254 254 
254 253 253 254 254 254 254 254 254 254 254 254 253 254 253 254 
252 254 253 252 253 253 254 253 253 251 253 253 252 253 253 253 253 252 253 254 
254 253 253 254 252 253 253 252 253 252 252 253 252 252 252 252 
252 253 253 254 254 252 253 253 253 251 251 251 251 252 251 252 
252 253 252 252 252 252 252 253 253 252 253 253 253 253 253 254 
254 254 254 252 254 254 254 254 253 254 254 253 254 254 254 254 
254 254 254 252 254 253 252 253 253 253 253 253 254 253 252 253 
253 253 253 252 252 252 253 253 252 253 253 253 253 253 253 253 253 253 253 253 
254 253 253 254 253 253 253 253 252 252 253 253 252 252 252 251 
252 252 251 251 251 250 251 252 252 251 251 251 251 252 252 253 
252 252 251 252 252 252 253 252 252 253 253 254 253 252 252 252 
252 252 253 252 253 254 253 254 254 254 254 254 254 254 254 254 
254 254 254 253 254 253 254 253 254 253 254 254 254 253 253 253 
253 252 253 253 253 252 253 253 252 252 252 253 253 252 254 254 252 253 253 253 
253 252 252 252 253 252 252 251 252 253 252 252 252 251 253 252 
251 250 251 251 251 251 251 251 251 252 253 251 251 253 251 252 
251 248 249 251 251 253 253 252 251 253 253 253 252 253 252 251 
252 253 252 254 254 254 252 253 253 253 253 254 254 254 253 254 
253 253 255 254 253 253 253 254 254 252 253 253 253 253 254 253 
253 253 253 253 252 252 253 253 253 254 251 253 252 252 253 252 254 253 252 252 
253 253 253 253 252 252 253 253 253 252 252 252 251 251 252 251 
251 251 249 251 251 251 251 253 250 249 248 246 241 233 231 225 
222 217 226 224 226 234 235 247 248 251 252 253 253 253 254 252 
251 254 254 253 253 253 253 254 254 254 254 253 253 254 254 253 
254 253 253 254 252 253 252 253 253 252 253 252 253 254 253 253 
252 252 253 252 252 252 252 252 252 252 254 252 253 253 252 253 253 252 253 252 
252 252 252 252 252 253 252 252 252 252 252 253 252 250 250 250 
252 251 251 250 252 251 245 228 223 210 202 197 195 202 210 211 
213 209 207 207 224 237 233 224 220 223 228 234 241 250 250 252 
252 251 252 252 252 252 253 253 254 254 253 253 253 251 252 253 
253 253 253 254 253 252 253 253 252 252 253 253 252 253 252 253 
252 252 252 252 252 252 252 251 252 252 252 251 252 253 252 253 253 251 252 252 
252 253 253 252 252 252 252 252 252 252 251 252 250 249 249 251 
253 253 251 236 215 193 185 194 199 211 228 233 243 249 251 251 
252 251 251 250 252 254 254 252 251 249 240 232 218 220 223 242 
250 251 252 251 252 252 252 252 252 253 253 253 254 252 253 254 
253 253 253 254 253 252 252 252 252 253 252 252 252 252 253 250 
253 252 252 252 252 252 252 252 252 252 251 251 251 251 252 252 251 252 252 252 
252 252 251 251 252 252 251 252 252 251 250 248 249 248 251 250 
245 227 206 182 184 204 226 239 252 253 254 253 252 253 253 253 
252 252 251 253 252 251 251 250 250 252 252 252 253 251 243 224 
222 223 244 250 252 252 251 252 252 252 253 252 252 254 253 252 
253 253 252 252 254 253 253 253 252 253 250 251 252 251 252 251 
252 253 252 251 251 251 252 252 250 250 252 251 251 251 251 252 251 250 252 252 
251 252 251 250 252 252 250 251 250 250 250 249 250 251 247 222 
185 188 210 234 250 253 252 253 252 252 252 253 251 250 249 250 
250 250 250 250 249 251 251 251 250 251 250 251 253 254 253 253 
250 233 220 226 241 247 251 253 252 250 251 252 252 251 252 252 
253 253 252 252 252 251 252 251 251 251 251 252 251 251 252 252 
252 251 250 250 251 250 250 250 249 249 250 250 251 250 249 250 251 251 251 252 
252 250 251 249 250 250 250 250 250 249 250 250 249 222 185 182 
221 249 253 252 252 251 251 251 250 250 250 250 251 251 250 251 
250 250 250 250 250 251 251 251 251 251 251 250 250 249 250 252 
252 253 251 241 219 218 243 250 251 251 251 251 252 252 252 252 
253 253 251 251 251 251 249 250 251 250 251 250 251 251 251 252 
251 252 251 251 251 252 250 250 251 250 251 251 250 251 251 251 252 251 251 251 
250 250 250 250 251 250 250 249 248 250 251 236 199 173 214 250 
254 251 252 252 252 250 250 250 250 250 250 250 250 250 250 250 
251 250 250 250 250 251 252 251 251 252 251 252 252 251 250 249 
248 250 250 252 253 238 218 230 247 249 250 251 251 251 251 251 
252 252 251 250 251 251 252 251 251 252 250 251 252 252 250 250 
251 251 251 252 250 250 251 250 249 250 250 250 251 250 250 250 252 250 252 251 
252 250 250 251 251 249 249 248 249 251 223 180 208 243 253 252 
253 250 251 251 251 250 250 249 250 249 250 249 251 250 251 250 
250 250 250 250 250 249 251 251 251 252 251 251 250 249 249 250 
249 250 249 249 249 252 250 228 211 237 249 249 250 250 249 250 
250 251 250 250 251 251 250 250 251 250 252 251 250 250 250 250 
251 251 250 249 251 250 252 251 251 250 250 250 250 250 250 250 250 252 251 250 
249 249 250 250 249 247 248 251 251 224 198 236 251 251 251 251 
250 250 250 250 250 249 250 249 250 250 250 251 251 251 250 250 
252 250 250 251 251 250 251 251 251 250 250 249 250 250 250 249 
250 249 249 250 250 250 252 252 242 214 225 246 249 250 250 249 
250 249 250 250 251 251 250 250 250 249 250 252 251 250 249 250 
251 250 250 250 251 250 251 251 249 249 249 249 250 250 249 249 250 250 250 251 
250 250 249 248 248 249 251 242 200 219 249 251 251 251 250 250 
250 249 250 250 250 251 249 249 250 250 251 251 250 250 250 250 
250 250 250 250 251 251 251 251 251 250 249 250 250 248 250 249 
249 249 249 250 250 248 250 250 251 250 224 217 242 249 250 249 
248 250 250 250 250 249 249 250 247 249 250 250 250 250 250 250 
250 250 250 251 251 251 250 251 251 250 250 250 251 250 250 249 250 250 249 250 
250 248 247 247 249 248 237 197 234 252 252 249 250 250 250 250 
250 250 250 250 250 250 250 250 250 249 248 249 251 250 251 250 
250 250 250 251 250 251 252 251 250 250 249 248 249 249 249 249 
249 249 249 250 248 249 249 250 249 252 254 234 209 239 249 249 
248 249 248 250 250 250 250 250 249 250 250 249 250 249 249 250 
250 249 249 250 251 250 250 250 249 249 250 251 250 250 250 251 251 250 250 250 
249 249 248 248 249 226 203 242 251 252 250 250 249 250 251 252 
250 249 249 250 250 250 249 249 249 249 249 250 251 251 250 250 
250 250 250 251 249 250 249 249 250 249 249 249 248 249 249 248 
248 248 249 248 248 249 250 250 249 251 251 252 240 208 232 249 
250 250 248 249 249 250 249 248 250 250 249 249 249 250 250 250 
249 249 250 250 249 250 250 250 249 249 249 250 249 250 250 250 249 250 250 250 
249 249 249 248 214 209 250 250 250 249 249 250 249 249 250 250 
250 249 250 250 249 249 249 249 249 249 249 250 250 248 249 249 
250 250 250 250 250 250 249 249 248 249 248 248 249 248 249 248 
249 248 248 248 248 248 250 250 250 250 250 251 252 246 209 232 
248 250 249 248 248 249 249 250 249 249 251 250 250 250 250 250 
250 248 249 249 250 250 250 249 249 250 250 249 250 249 249 249 249 249 250 250 
249 250 250 215 215 251 252 250 250 249 248 248 249 250 250 249 
249 248 249 249 250 249 249 248 249 248 250 249 250 249 249 250 
250 250 249 250 250 249 249 249 249 249 249 249 249 249 248 248 
248 249 248 248 248 250 249 250 248 249 249 251 249 250 247 210 
227 247 250 249 248 248 248 249 250 249 248 249 250 249 250 250 
250 250 249 250 250 250 249 249 248 248 249 248 249 249 250 250 250 249 249 250 
248 251 214 207 251 250 251 250 249 248 249 249 248 249 248 248 
248 249 249 249 250 249 249 249 249 248 248 249 249 250 250 249 
249 249 249 249 249 249 249 249 249 249 250 248 248 248 249 249 
248 248 249 249 249 248 247 250 249 249 249 251 249 250 251 246 
202 227 246 248 248 249 249 249 248 249 249 249 249 248 249 249 
249 249 249 249 250 251 250 250 249 249 249 249 249 249 249 250 249 248 250 248 
249 216 198 250 249 249 247 249 249 247 249 249 248 249 249 249 
249 249 249 249 248 248 249 249 250 249 249 249 249 249 249 248 
249 249 249 249 249 249 250 248 250 249 248 248 248 249 248 248 
248 249 249 249 249 248 249 248 248 249 249 249 248 247 248 250 
246 198 229 247 248 248 248 249 250 249 249 248 248 249 249 249 
249 248 250 250 250 249 250 250 249 249 249 249 249 249 249 250 249 248 249 248 
232 188 250 250 248 248 250 250 248 248 247 247 248 249 248 248 
249 248 247 248 248 248 248 249 248 248 248 249 249 248 249 249 
249 249 249 249 248 249 248 249 248 249 249 248 249 248 247 248 
248 248 248 248 248 248 248 249 249 249 249 250 248 247 248 247 
249 240 191 241 248 248 248 249 248 248 248 248 250 249 249 249 
248 247 249 249 250 250 250 250 249 249 249 249 249 248 249 249 251 249 248 245 
186 246 250 248 248 250 249 248 248 248 248 248 248 248 250 248 
246 248 248 247 248 248 249 249 248 248 247 249 249 248 248 249 
248 249 249 249 248 249 249 249 248 247 248 249 248 249 249 248 
248 247 248 249 248 249 249 249 248 249 249 249 247 248 248 248 
249 251 226 205 244 248 248 247 249 249 248 250 248 249 248 248 
248 250 249 243 247 250 249 249 249 249 247 249 249 248 249 249 249 247 248 182 
232 252 249 250 249 249 249 249 248 247 246 248 249 247 246 247 
248 248 248 248 249 248 248 248 247 248 249 248 248 248 247 248 
248 248 250 248 248 248 248 248 249 248 248 249 249 249 248 247 
248 247 248 249 247 247 247 248 249 247 248 248 247 247 247 248 
249 248 251 212 225 249 247 247 248 248 249 248 248 248 248 248 
247 249 247 246 250 251 251 249 249 250 248 250 249 248 249 249 249 250 219 204 
252 250 249 247 248 247 249 248 248 248 247 247 247 248 247 248 
247 247 249 248 248 248 248 248 248 248 247 248 247 248 249 249 
248 248 248 248 247 248 248 248 248 247 248 247 248 248 248 248 
247 247 247 247 247 249 248 248 248 248 249 248 246 248 248 247 
248 248 249 246 204 245 250 248 248 248 247 248 248 248 248 247 
248 248 248 249 250 250 250 249 249 251 250 249 248 248 249 249 249 249 176 249 
250 250 249 249 250 249 249 248 249 248 248 248 247 248 249 248 
247 248 248 248 248 247 247 247 248 248 248 247 247 248 248 249 
247 248 248 247 249 247 248 248 247 247 248 247 247 248 248 248 
249 249 248 248 248 249 247 248 248 248 249 248 247 248 248 248 
248 248 248 249 230 219 245 248 247 248 248 249 248 247 248 249 
248 248 248 249 249 250 251 249 249 248 250 249 247 248 249 248 248 211 217 251 
250 249 248 249 250 249 249 250 249 248 248 248 247 247 246 248 
248 245 248 248 246 248 248 247 247 245 248 248 247 247 247 249 
247 247 248 248 249 247 246 248 248 247 247 247 247 248 248 248 
248 248 248 250 249 250 249 248 248 248 247 248 247 247 247 247 
247 247 249 247 249 206 230 246 247 247 248 248 248 246 247 247 
248 248 248 249 249 249 249 248 248 249 249 247 247 248 247 247 244 203 249 249 
247 248 248 247 248 249 249 249 248 247 247 245 245 246 249 247 
240 200 215 244 248 247 246 246 247 248 246 248 247 248 247 248 
248 247 247 247 247 247 248 246 246 247 246 247 246 247 246 248 
247 247 250 246 234 220 245 248 248 247 247 245 248 247 247 247 
247 247 248 248 248 239 205 245 246 246 248 248 246 248 248 248 
248 248 247 249 249 249 248 247 247 249 248 249 248 247 247 247 211 244 249 248 
248 248 248 247 248 249 248 247 249 247 246 247 245 246 234 192 
149 133 163 203 248 247 247 246 247 248 246 247 248 248 247 246 
246 247 247 246 246 247 248 247 247 247 247 247 246 247 248 248 
247 245 239 179 156 191 235 244 247 248 248 247 248 248 248 246 
248 246 248 249 248 250 201 224 245 248 247 247 247 247 247 247 
248 247 247 249 250 249 249 249 248 248 249 249 249 247 245 240 208 247 249 248 
248 249 247 248 248 248 248 247 248 248 248 247 246 248 187 143 
132 144 160 179 243 247 248 247 247 248 247 246 248 247 247 246 
246 246 246 246 245 246 246 247 246 247 246 247 246 246 247 248 
247 247 200 165 168 203 192 243 247 246 248 247 248 248 247 247 
248 247 249 248 248 248 241 197 241 247 246 248 248 247 247 248 
248 247 247 248 248 249 249 249 249 249 247 247 248 246 248 208 245 249 247 247 
248 246 249 248 247 247 247 246 248 248 246 246 245 233 151 129 
122 153 163 172 239 248 247 246 247 247 246 246 246 247 246 247 
246 246 247 246 247 245 246 247 247 247 245 246 247 246 247 248 
249 242 182 185 186 149 172 243 247 248 247 247 248 247 246 246 
247 247 248 249 250 246 251 206 228 246 246 248 247 247 247 246 
249 247 247 248 248 248 249 248 249 249 247 248 248 246 244 201 251 247 247 248 
247 246 248 246 247 246 247 248 248 247 246 246 246 212 148 132 
131 156 168 173 235 247 246 247 246 246 246 246 246 247 247 247 
247 246 247 246 246 246 245 246 246 248 246 245 246 247 248 246 
246 230 201 165 158 152 178 242 246 247 247 248 248 247 247 247 
245 247 246 248 249 249 250 238 198 245 248 247 247 247 247 246 
247 247 248 248 249 249 248 249 247 247 247 248 248 246 211 234 247 247 248 247 
248 247 248 247 247 246 247 247 247 247 246 245 248 201 144 134 
129 158 164 169 233 246 247 246 246 247 247 247 247 247 247 247 
244 245 246 245 245 246 247 246 246 246 246 246 245 246 246 246 
247 225 167 166 182 161 174 238 247 247 247 246 246 247 246 247 
246 247 247 246 247 248 246 248 191 232 245 247 247 247 248 246 
247 247 248 249 248 248 250 248 248 248 247 248 247 249 199 250 247 247 246 247 
246 246 247 247 247 245 245 245 248 247 244 246 246 198 141 132 
144 155 162 165 238 246 245 245 245 245 247 245 245 246 245 247 
248 246 245 246 246 247 246 245 245 247 245 245 245 245 246 244 
247 199 183 190 193 164 180 245 246 247 247 247 247 246 246 247 
247 246 246 247 247 249 248 247 220 201 246 246 246 247 247 247 
247 247 247 248 248 248 247 248 249 248 248 249 248 236 217 247 247 246 247 248 
247 246 246 245 247 246 245 246 248 248 246 245 244 201 121 139 
136 170 160 160 237 246 244 245 245 245 246 246 245 245 246 246 
248 246 246 245 244 244 245 246 244 245 245 245 245 244 247 246 
242 192 169 191 190 167 187 245 248 248 246 246 248 247 248 247 
246 246 247 247 247 249 247 248 243 183 240 247 247 246 247 247 
247 247 248 248 247 247 248 247 248 246 247 248 247 192 191 246 247 247 246 247 
246 246 246 246 245 245 246 247 247 246 247 245 246 177 131 125 
117 181 151 163 243 245 246 246 246 245 244 246 247 246 245 246 
246 244 246 245 246 244 245 244 245 246 245 244 244 245 244 246 
235 176 163 181 168 168 183 247 247 246 248 247 244 247 247 246 
246 247 246 246 247 247 246 247 247 195 228 246 248 247 247 247 
246 246 247 246 247 247 247 247 247 247 245 244 244 151 162 249 245 246 246 247 
246 246 247 246 247 245 245 243 244 247 244 245 245 176 131 119 
140 178 152 190 246 244 244 244 244 244 246 245 245 246 246 246 
246 244 243 244 245 244 244 244 245 245 244 244 244 244 246 246 
222 173 162 179 169 164 191 246 245 247 247 246 246 246 246 246 
246 246 246 246 246 246 248 247 246 226 206 244 245 247 247 247 
248 247 247 246 246 246 247 247 246 247 245 244 238 121 205 247 247 246 246 245 
246 246 246 245 246 246 245 245 244 244 244 245 245 166 134 127 
156 174 137 192 246 244 243 244 244 244 244 244 246 245 245 244 
244 244 244 244 244 244 243 244 243 245 245 244 244 244 245 244 
215 182 159 180 173 154 215 245 245 245 246 245 246 246 245 246 
247 246 246 246 247 247 246 246 245 241 192 244 247 247 248 248 
247 248 247 246 246 246 245 246 245 246 244 245 235 128 242 246 244 245 246 245 
246 246 245 245 248 245 244 244 244 245 245 244 245 178 131 112 
171 163 145 222 244 245 245 244 243 243 244 244 244 244 245 245 
245 243 244 244 244 243 244 243 243 243 244 243 243 244 244 244 
212 183 155 177 155 148 229 244 245 245 245 245 245 247 246 244 
245 245 245 245 245 247 246 246 244 244 191 234 247 248 247 248 
247 249 248 246 246 247 247 246 246 246 245 244 246 161 250 245 245 244 245 245 
246 244 245 245 247 245 243 244 243 244 243 244 246 201 112 127 
132 133 154 236 244 245 244 243 243 243 243 243 244 243 244 244 
242 243 244 243 243 243 243 242 243 243 244 243 244 244 243 243 
221 170 162 144 143 162 239 244 245 245 244 245 245 244 246 244 
246 246 244 244 244 245 246 245 244 243 204 217 243 246 247 247 
248 248 246 245 246 244 245 245 246 245 244 244 239 179 246 246 246 243 246 246 
245 245 244 245 245 244 244 243 244 243 243 243 242 240 147 121 
114 138 173 246 244 244 243 243 243 244 244 244 243 243 243 243 
244 241 243 242 242 243 242 243 243 244 242 243 243 243 243 241 
238 169 125 106 133 170 241 246 244 244 245 246 245 245 244 245 
246 244 245 246 245 246 244 244 244 244 214 201 245 246 247 247 
248 247 248 245 244 245 245 244 243 245 244 243 211 204 246 243 245 245 246 245 
243 244 244 245 244 243 243 243 244 243 243 243 242 245 180 117 
112 143 210 244 243 244 243 243 244 244 244 243 243 243 242 242 
242 242 242 242 242 242 243 243 242 243 243 242 243 244 245 243 
243 162 124 98 128 174 242 245 245 245 245 245 246 245 245 246 
244 245 246 245 245 244 244 244 246 245 234 185 246 245 246 246 
247 247 248 244 245 244 243 245 245 244 244 243 175 225 245 245 244 244 243 244 
244 244 243 245 246 244 244 244 245 244 243 243 243 245 190 145 
131 162 229 245 242 243 244 243 243 244 243 242 243 242 244 243 
242 242 242 242 243 242 242 242 243 242 243 243 242 243 243 241 
245 183 125 95 141 186 243 244 243 245 243 245 243 245 244 244 
245 244 245 246 246 246 245 245 246 243 244 175 241 245 245 243 
245 246 246 243 244 244 244 245 244 244 244 244 168 238 246 243 244 244 244 244 
243 244 244 245 244 244 244 244 244 244 244 243 243 245 237 221 
191 185 243 245 244 244 243 242 243 243 242 242 242 242 242 242 
242 242 241 243 242 242 243 242 241 243 242 242 242 243 243 243 
244 231 183 175 169 202 246 244 243 244 244 243 245 243 244 245 
245 244 244 244 243 244 244 245 246 243 245 168 234 244 245 244 
247 246 246 245 243 245 244 243 244 245 243 244 170 242 244 244 244 243 245 243 
243 243 243 244 244 244 244 244 244 243 244 245 245 244 245 247 
249 247 244 244 244 244 244 244 245 242 243 242 241 243 243 242 
242 241 242 242 241 242 241 242 242 242 242 243 242 242 243 243 
243 245 247 246 238 242 245 243 243 244 244 244 244 245 244 245 
245 245 245 244 244 244 245 245 245 245 244 177 224 243 245 244 
247 247 246 243 243 245 243 242 243 243 242 242 174 244 243 244 244 244 242 244 
244 244 243 243 242 243 243 242 243 243 244 242 244 244 244 245 
244 246 244 243 243 244 243 243 245 242 243 242 242 243 244 242 
240 241 240 242 241 241 241 241 242 242 242 243 243 242 242 242 
243 243 244 245 247 244 244 243 243 243 243 243 244 243 245 244 
245 244 244 244 245 243 244 244 244 245 247 187 222 244 245 245 
244 245 246 244 242 245 243 243 242 243 244 242 179 247 244 243 243 243 243 243 
243 242 243 243 243 244 244 243 244 243 243 243 243 243 243 243 
243 243 242 244 243 244 243 243 243 241 241 242 243 242 243 243 
242 242 242 241 242 241 241 242 241 242 242 242 242 242 242 243 
242 243 242 243 243 243 244 243 243 243 243 243 244 244 243 242 
245 244 243 245 245 245 244 246 246 244 245 193 221 245 245 246 
244 246 246 242 243 242 242 242 243 243 242 242 185 245 243 243 243 244 242 242 
242 242 243 241 242 242 242 243 242 243 243 243 243 244 243 244 
242 243 244 244 243 244 244 243 243 243 243 242 243 242 242 242 
240 241 241 242 242 240 242 242 242 241 243 242 242 242 243 242 
243 243 244 242 244 242 242 243 243 243 243 242 243 243 243 243 
243 244 244 244 243 245 245 245 242 244 242 199 217 247 245 245 
245 246 245 242 240 242 241 241 242 241 242 240 192 245 243 243 243 242 243 242 
243 242 241 242 243 243 243 242 242 243 244 242 244 243 245 243 
244 243 243 243 244 243 243 242 243 243 242 242 242 242 242 242 
241 241 241 242 241 240 242 242 241 241 241 242 241 241 242 243 
243 242 243 242 241 243 244 243 242 243 242 242 244 242 243 245 
244 243 243 242 243 244 244 244 244 243 243 197 219 245 246 246 
244 245 246 242 241 242 241 241 241 240 241 240 187 243 243 243 242 243 242 242 
241 242 242 244 242 242 243 242 241 241 241 242 243 243 243 243 
244 244 244 243 243 244 243 241 243 241 241 240 241 241 242 242 
241 241 241 240 241 241 241 242 242 241 242 241 241 241 241 243 
242 242 243 242 243 241 241 241 242 242 243 243 242 244 243 241 
243 243 243 243 242 242 242 243 243 242 245 196 212 244 244 245 
245 245 244 241 241 241 241 240 240 240 240 239 180 243 239 241 241 241 242 242 
242 241 241 240 241 242 241 242 242 242 242 242 242 243 242 242 
243 242 242 242 242 240 242 242 241 240 241 241 241 241 241 241 
242 241 241 240 242 242 243 242 241 241 241 241 242 241 240 242 
242 242 243 242 242 242 242 242 242 242 241 242 242 242 242 243 
242 242 242 244 242 243 243 244 242 243 244 193 213 245 245 244 
245 245 245 241 240 241 240 241 240 239 239 239 192 243 239 241 242 242 241 241 
241 241 243 241 243 241 240 241 241 241 242 242 242 242 243 242 
242 242 242 241 240 243 241 242 241 241 242 242 241 242 241 241 
241 241 241 240 241 240 240 241 241 241 240 240 241 241 242 241 
241 241 241 242 241 241 241 242 242 242 242 241 241 242 241 243 
242 242 242 242 242 243 242 241 243 242 244 185 216 243 244 244 
244 244 244 240 239 240 240 240 241 240 239 238 184 242 241 241 241 241 240 242 
241 242 240 241 242 242 242 242 242 241 241 242 243 242 242 243 
242 242 241 241 241 242 241 241 240 241 240 240 242 242 241 241 
242 241 241 241 241 240 241 241 241 241 240 242 242 241 240 241 
241 242 242 242 242 241 241 241 241 241 241 241 241 241 241 241 
241 241 240 239 242 243 242 241 243 243 241 178 218 244 244 244 
245 245 244 241 240 240 240 241 241 238 239 237 180 240 240 240 241 241 241 240 
241 239 240 241 241 241 240 241 241 241 241 238 239 243 240 242 
241 241 241 242 242 241 240 241 241 241 241 241 241 241 241 242 
241 241 242 242 243 241 240 240 240 240 240 240 241 241 241 240 
240 242 242 242 241 241 242 241 241 241 241 241 241 242 242 241 
242 243 243 241 240 239 240 241 241 241 242 173 232 244 244 244 
244 244 243 239 239 239 240 239 238 238 240 238 185 230 241 240 240 240 241 241 
240 241 240 241 241 241 241 241 242 240 240 242 242 240 244 241 
241 241 241 241 241 240 241 241 241 241 240 242 241 242 241 241 
241 240 239 240 241 241 240 240 240 240 240 240 240 241 240 241 
240 241 241 241 241 242 241 241 241 241 241 241 241 242 242 241 
241 242 240 240 242 241 240 240 241 241 240 174 237 243 244 245 
243 243 243 237 238 238 240 237 239 239 238 236 197 209 241 241 241 240 242 240 
241 240 240 241 240 240 241 241 240 241 240 240 240 239 240 240 
241 244 241 240 240 240 241 241 240 238 241 240 239 241 241 240 
242 241 242 241 241 241 240 240 240 240 241 241 241 240 242 241 
242 240 240 240 242 240 242 241 241 241 241 241 241 242 241 242 
241 239 240 239 239 239 240 240 241 240 237 172 240 242 241 243 
243 243 242 238 237 236 236 236 239 239 239 236 213 193 236 238 240 240 239 241 
240 240 240 240 240 239 240 240 240 240 241 240 240 240 240 241 
240 239 239 242 241 242 240 240 240 241 241 241 242 240 240 241 
241 239 241 240 241 240 240 240 241 238 238 240 240 239 240 239 
240 240 240 241 240 240 240 239 240 239 240 241 242 239 241 241 
238 239 239 241 240 240 241 240 240 238 224 167 241 243 243 243 
243 243 243 236 235 238 236 238 237 237 237 234 234 172 243 241 241 240 240 239 
240 241 240 240 240 239 240 241 239 239 239 240 240 240 240 239 
240 241 240 239 238 242 241 241 240 242 241 241 242 241 241 240 
240 241 240 242 241 240 239 240 240 239 239 239 238 239 240 240 
240 240 241 240 241 240 240 240 240 241 241 240 242 240 240 241 
239 240 239 240 240 239 240 240 239 240 211 174 242 242 242 244 
242 243 244 237 237 237 236 235 236 236 234 234 237 163 240 237 237 239 238 239 
239 238 239 239 239 240 238 239 239 238 239 239 239 240 240 240 
241 240 240 240 240 240 240 241 240 240 240 240 241 241 240 241 
240 240 238 242 240 241 240 239 237 238 239 239 240 239 239 240 
240 239 240 240 239 240 240 240 240 241 240 240 241 241 239 239 
238 237 238 237 239 239 239 239 238 238 180 192 241 241 242 241 
242 242 243 236 236 235 236 236 234 233 236 234 234 164 236 238 237 237 238 238 
238 239 238 238 238 241 238 238 239 237 239 237 236 239 240 239 
240 240 239 241 240 240 240 240 240 241 240 240 241 240 240 240 
240 240 240 240 241 239 240 240 241 239 239 238 240 239 238 239 
239 240 239 239 239 239 238 240 240 238 241 240 240 240 240 237 
237 238 239 238 238 238 238 239 238 238 156 224 242 242 242 241 
240 241 241 235 235 235 236 236 234 235 235 234 236 164 222 238 238 236 238 239 
238 237 238 239 239 238 237 238 238 237 237 238 238 238 238 238 
237 237 240 239 237 239 237 239 239 239 238 241 240 240 239 240 
240 240 241 242 239 239 239 239 239 238 237 239 238 238 238 237 
239 238 239 238 239 239 240 240 240 240 239 240 241 238 236 237 
239 237 239 238 238 238 239 238 240 235 148 242 241 240 242 241 
242 241 242 235 235 236 234 234 235 235 235 234 234 207 202 236 236 236 238 238 
238 238 239 238 237 236 238 238 237 237 238 236 236 238 237 238 
237 236 236 239 238 240 239 239 240 239 237 239 238 238 242 239 
238 240 240 240 239 239 239 239 238 239 237 236 239 238 237 239 
236 237 235 238 239 237 238 239 240 240 239 240 239 239 240 240 
237 237 236 237 237 239 237 236 239 216 169 241 242 241 241 240 
242 241 241 235 235 234 235 234 236 234 235 235 234 234 165 238 237 235 236 237 
236 236 235 237 238 237 237 236 236 237 236 238 237 236 237 237 
235 239 238 237 239 236 239 239 238 238 238 238 240 238 238 238 
238 237 239 238 236 235 239 240 239 238 239 237 236 236 235 235 
235 237 237 235 236 238 240 239 240 237 238 240 240 238 236 238 
239 238 237 237 238 238 238 240 242 157 212 240 241 240 242 241 
241 241 241 235 235 234 232 233 234 234 233 234 234 237 176 227 233 235 236 236 
236 236 239 235 235 236 236 235 235 237 235 235 235 235 236 235 
238 236 236 236 235 236 236 238 237 237 238 238 237 237 238 239 
238 236 237 237 238 239 238 238 238 237 238 236 235 235 234 237 
236 234 237 235 235 237 238 239 239 239 239 239 237 239 238 238 
237 237 237 237 239 238 237 240 215 145 241 240 240 239 239 241 
240 240 241 233 234 234 234 232 234 234 233 234 234 235 210 187 237 234 235 235 
236 236 236 236 236 235 236 234 236 236 237 235 235 235 235 236 
236 237 235 235 237 236 236 236 236 236 237 236 236 238 237 236 
237 236 236 236 238 237 236 237 240 238 237 236 236 234 235 235 
232 235 235 233 236 237 237 238 238 239 238 239 238 237 237 237 
237 238 238 237 238 238 236 237 147 230 239 240 240 240 239 240 
240 239 241 231 232 233 235 233 232 233 233 233 234 232 229 168 235 234 234 232 
235 234 234 235 235 235 234 235 234 236 235 235 234 234 234 235 
230 234 234 236 237 238 238 239 238 236 236 237 238 239 238 234 
235 236 237 238 237 238 238 239 237 236 237 236 236 235 235 235 
234 235 231 233 235 236 239 239 239 237 237 239 238 236 237 238 
237 237 236 235 237 237 239 202 195 241 240 241 240 239 240 238 
240 239 240 230 231 232 232 231 232 233 233 232 232 233 236 193 203 234 232 234 
235 235 234 233 235 236 235 234 235 235 233 235 234 233 232 191 
211 229 235 233 231 234 233 231 232 232 232 234 231 232 229 230 
232 233 237 238 238 239 241 238 241 238 239 239 240 238 238 236 
238 237 236 234 235 237 235 237 237 238 239 238 238 240 238 238 
238 240 237 236 236 237 235 156 235 239 240 240 238 239 239 239 
239 239 239 230 229 232 231 230 231 232 230 232 230 232 232 233 154 231 232 234 
231 234 234 236 234 234 235 234 234 234 234 233 233 234 233 206 
157 153 152 143 135 153 156 142 153 160 153 165 173 175 163 161 
174 157 172 173 191 188 195 203 201 209 214 218 219 224 227 224 
222 228 228 235 235 236 237 237 236 237 238 238 238 239 240 239 
239 237 237 236 237 237 205 194 241 240 238 238 238 239 236 239 
239 239 238 229 230 233 232 232 233 232 232 230 232 233 232 235 177 199 233 232 
232 233 233 233 234 235 235 234 234 235 234 233 233 233 234 236 
238 238 233 230 219 228 231 228 225 227 222 223 227 222 223 221 
218 218 212 201 198 203 198 196 196 189 186 179 179 177 177 175 
171 176 172 216 237 236 238 238 236 238 238 238 239 238 238 239 
239 239 239 236 236 239 162 233 238 239 239 238 239 238 237 238 
236 237 238 227 228 231 229 231 231 233 232 232 233 231 231 230 230 151 228 232 
233 233 233 235 233 235 235 233 234 231 234 232 233 233 234 235 
235 234 236 237 237 236 236 237 236 235 237 236 237 236 238 238 
237 232 234 236 237 241 240 241 238 238 239 237 238 237 233 232 
234 234 227 232 235 236 235 236 235 237 236 238 236 238 236 240 
239 239 238 236 237 194 194 239 239 237 238 237 237 238 237 236 
236 237 237 228 230 230 232 230 229 231 231 230 232 232 230 232 234 187 188 233 
233 232 233 233 232 232 234 233 233 234 234 233 233 234 234 233 
233 235 233 233 234 233 234 236 234 233 235 234 234 235 235 235 
234 235 234 237 237 237 237 236 236 238 238 239 239 237 237 238 
236 237 237 234 233 233 234 233 236 237 235 237 237 238 237 238 
239 237 237 236 230 160 241 238 238 237 237 237 237 237 236 238 
235 238 235 229 229 231 231 231 232 230 230 230 231 231 232 232 233 234 153 225 
231 232 231 231 232 231 231 232 233 233 233 230 232 229 234 233 
231 233 232 232 233 233 234 234 232 232 232 234 233 232 233 234 
234 234 235 235 237 236 234 235 234 234 235 235 236 235 235 235 
237 234 234 234 234 234 236 234 234 237 235 236 236 236 237 237 
236 238 235 239 167 219 239 236 237 237 238 239 238 236 236 234 
236 236 236 228 231 230 228 228 229 230 230 231 226 230 231 229 228 232 205 162 
235 231 231 233 233 233 232 232 232 231 233 233 231 232 232 232 
233 233 231 232 233 233 234 233 232 231 233 233 233 235 235 235 
233 234 235 236 236 236 235 235 235 235 235 237 235 235 235 235 
235 237 235 234 235 235 234 235 235 234 235 235 235 235 235 238 
239 235 238 204 175 240 237 238 236 237 238 238 236 235 235 236 
235 236 235 229 227 229 229 229 228 229 229 231 230 230 231 230 230 230 232 157 
199 231 231 229 230 231 232 233 232 232 231 232 233 233 233 233 
231 232 233 232 232 233 233 232 233 233 232 231 231 234 235 234 
235 236 235 235 236 234 234 235 236 235 235 234 234 235 235 235 
235 235 236 237 234 236 234 234 234 234 234 235 234 235 235 236 
235 235 230 161 238 238 237 236 235 235 237 237 235 235 236 235 
236 235 236 225 228 227 228 228 228 228 228 227 231 230 233 228 229 228 228 226 
138 225 231 231 230 230 230 232 231 232 232 232 232 233 231 232 
232 232 230 233 231 231 232 232 232 232 231 231 232 232 233 235 
234 234 234 234 234 235 233 234 234 235 234 234 234 235 234 233 
235 235 235 234 236 235 235 235 234 235 235 237 235 235 235 236 
236 237 164 225 236 235 235 236 237 235 236 236 236 235 234 235 
235 235 236 225 225 228 228 227 225 228 230 229 229 230 231 229 230 227 230 231 
210 158 229 232 230 230 230 230 231 231 232 232 233 232 231 232 
232 229 232 232 232 230 230 232 231 233 231 230 231 232 233 234 
233 234 234 235 234 234 236 235 235 234 235 238 234 234 235 234 
237 234 236 235 234 234 233 234 234 234 233 234 234 234 232 234 
238 175 204 238 237 237 236 236 236 234 234 234 234 234 234 235 
235 235 237 225 225 225 226 226 226 228 227 229 229 228 229 229 229 227 228 228 
232 194 161 233 231 229 231 230 229 230 232 231 232 232 230 231 
230 230 230 230 230 232 231 231 231 230 231 232 231 232 232 233 
234 234 235 233 234 234 234 235 235 234 234 234 234 235 235 235 
235 234 236 236 234 233 235 234 232 234 233 233 233 233 234 237 
190 190 241 236 235 235 235 235 236 235 235 233 235 234 235 233 
235 234 234 223 225 226 227 225 227 227 227 228 227 228 228 228 227 227 227 227 
228 229 151 160 229 229 228 229 229 228 230 229 230 231 231 230 
230 231 230 232 231 232 229 230 230 230 231 231 230 232 231 231 
232 233 234 234 233 234 234 235 234 235 234 235 235 235 235 235 
235 236 235 235 234 234 233 234 234 234 233 231 232 231 237 207 
183 237 235 234 235 235 233 233 233 233 235 234 235 235 235 233 
234 235 234 223 223 223 225 225 227 227 226 226 227 227 226 228 230 226 228 228 
227 231 230 142 175 230 228 228 228 230 227 229 230 231 232 230 
229 231 232 230 230 232 231 230 230 230 230 230 228 228 228 230 
231 234 234 235 234 234 234 234 234 234 235 235 235 234 235 235 
234 234 235 234 233 233 233 232 232 234 232 231 232 232 205 182 
236 235 235 235 234 234 234 235 235 235 233 234 234 234 234 234 
232 233 234 221 221 223 222 221 222 222 225 225 227 225 228 225 228 227 227 229 
228 224 225 226 131 175 224 228 228 225 225 227 229 227 227 230 
229 231 229 230 229 229 228 230 230 229 229 229 228 228 228 228 
230 231 232 233 233 234 233 233 234 234 234 234 234 234 232 232 
234 235 235 233 234 233 234 233 232 233 231 232 234 207 184 234 
236 234 233 234 233 235 235 233 234 234 234 234 234 234 234 233 
233 232 232 221 220 221 222 222 223 220 225 224 227 226 225 226 226 224 222 226 
228 227 224 227 223 151 200 229 228 228 230 227 228 230 231 229 
229 229 229 228 229 230 229 230 228 228 230 229 229 229 229 227 
229 231 233 231 232 232 233 233 233 233 235 235 235 232 234 235 
235 234 234 233 233 233 234 232 230 230 233 232 203 186 234 235 
232 233 234 233 232 234 231 233 233 234 234 233 233 233 233 231 
231 232 232 219 217 218 220 221 221 226 225 225 225 227 226 225 225 226 227 227 
228 225 225 224 231 233 193 187 228 228 227 227 227 228 230 228 
225 227 228 228 230 228 230 228 230 229 229 230 227 228 226 226 
229 231 232 232 232 231 231 233 234 233 231 233 234 233 234 232 
233 233 233 232 232 230 231 232 232 230 231 183 194 234 234 232 
232 231 233 232 230 232 234 233 231 232 233 234 233 233 235 232 
232 233 232 219 219 223 221 221 221 220 225 227 225 224 225 226 226 226 226 225 
222 225 225 222 226 228 230 205 178 222 229 228 228 228 225 226 
226 226 226 227 227 228 228 228 229 228 228 228 228 227 225 228 
227 229 226 230 231 231 232 233 232 232 233 230 233 234 233 233 
233 231 230 231 231 228 231 232 233 224 162 199 235 235 232 231 
231 232 231 231 233 232 231 231 233 232 231 231 232 232 232 233 
231 231 231 219 221 222 221 222 223 225 224 223 227 227 226 226 226 224 224 224 
224 225 225 226 223 226 228 231 221 169 206 228 223 225 227 225 
225 228 226 224 223 224 226 226 227 227 226 227 227 225 223 228 
226 227 227 229 230 230 231 232 231 231 231 231 231 232 233 232 
231 229 231 230 230 230 232 232 207 165 217 233 232 230 230 231 
231 229 232 231 231 231 230 230 230 232 231 233 233 231 231 230 
231 230 232 222 223 223 223 221 220 222 225 224 225 225 224 224 225 223 224 224 
223 224 225 226 227 224 227 228 230 232 190 179 219 229 227 226 
225 224 225 224 224 225 224 224 224 224 224 227 227 225 224 225 
226 227 228 226 228 228 228 226 230 230 231 230 229 228 230 234 
230 229 229 230 232 230 221 165 182 231 234 230 229 229 229 229 
232 232 230 230 230 231 232 232 232 229 230 233 234 235 232 231 
231 230 231 222 223 222 221 222 221 221 225 225 224 223 225 223 226 225 224 224 
224 224 227 228 225 222 225 225 222 226 230 216 170 199 226 225 
224 224 223 225 226 222 222 222 224 222 224 223 226 226 223 224 
222 224 225 224 222 224 227 228 227 229 228 228 232 232 228 228 
227 227 231 230 229 177 155 211 232 230 229 227 230 229 228 226 
227 229 229 229 230 231 229 229 228 230 230 232 230 230 230 230 
230 231 230 221 222 223 221 220 222 223 222 222 223 222 221 223 225 225 223 222 
222 226 224 224 224 222 228 226 223 222 222 226 228 199 166 186 
221 226 225 225 225 223 221 222 224 223 223 222 224 223 222 221 
222 221 222 220 222 223 224 226 225 225 228 228 231 231 231 232 
229 230 223 181 145 192 231 233 228 228 227 228 225 228 228 226 
226 229 226 228 228 227 227 228 228 229 226 228 229 229 229 228 
226 227 228 221 222 220 220 220 219 221 220 222 221 223 226 224 223 222 223 221 
223 223 223 223 221 222 222 224 224 222 222 223 222 223 227 186 
156 186 212 219 223 223 222 222 223 223 222 222 222 223 221 221 
222 222 223 223 223 225 225 224 226 227 227 227 228 230 233 231 
210 170 141 182 227 230 230 229 227 226 227 226 227 227 227 227 
227 227 227 227 226 224 228 225 226 227 227 229 226 225 226 227 
226 226 226 222 220 220 219 220 221 218 219 221 222 222 218 219 223 222 223 220 
223 224 223 220 221 221 221 221 223 220 223 223 222 220 224 229 
227 205 164 157 193 215 218 223 224 222 223 225 223 224 222 222 
222 223 220 222 220 222 222 223 222 223 222 224 224 212 162 126 
134 198 230 233 230 229 226 224 228 225 224 226 227 227 226 225 
225 226 225 226 226 227 228 225 226 228 226 226 225 225 225 225 
225 226 225 222 219 220 219 219 219 220 219 221 221 219 223 224 223 221 220 223 
222 219 220 219 220 221 221 221 221 221 221 222 221 220 223 223 
221 224 224 218 193 160 154 161 188 212 222 223 226 225 221 222 
223 219 223 220 223 220 219 222 220 204 176 155 131 146 185 225 
234 231 230 230 228 227 226 226 225 225 226 227 225 226 225 227 
227 226 227 226 226 228 228 227 226 221 224 225 225 224 225 225 
225 226 225 221 222 220 220 220 218 220 219 219 220 219 220 221 221 220 219 220 
221 221 220 220 221 221 220 220 220 220 221 220 219 219 220 220 
220 218 222 222 224 227 225 208 184 165 161 154 155 163 173 167 
155 162 163 157 150 138 119 121 126 137 159 191 221 232 232 233 
229 230 226 226 224 226 224 225 224 223 224 224 222 223 226 225 
224 225 225 224 226 228 226 225 224 226 223 224 225 223 222 225 
225 223 223 218 220 218 217 218 218 218 217 217 219 220 220 219 220 221 220 220 
218 220 221 220 220 220 220 219 220 220 222 221 220 219 221 222 
219 220 219 220 220 221 220 226 226 226 229 222 215 206 205 202 
187 183 178 174 192 197 212 220 226 228 226 223 223 225 227 226 
226 223 224 229 226 224 225 224 225 225 224 223 225 228 225 224 
225 224 224 225 224 224 227 226 225 223 223 224 223 222 222 224 
224 221 224 219 218 220 220 218 216 217 217 218 218 219 219 218 219 218 219 217 
219 218 219 219 220 218 218 219 219 220 218 219 219 219 218 218 
219 218 218 218 218 217 221 221 222 221 221 222 224 224 225 224 
223 226 226 220 224 224 226 226 223 222 223 221 220 219 220 222 
225 226 227 229 224 224 224 224 224 224 223 223 225 223 222 224 
224 223 223 223 223 223 224 225 224 223 221 222 221 221 221 225 
225 225 226 218 217 217 218 217 217 217 216 217 215 218 219 218 216 218 219 217 
219 216 216 220 218 218 217 219 220 220 220 217 218 217 219 218 
219 218 218 218 217 220 220 220 220 220 219 219 221 221 222 222 
220 220 220 221 221 220 222 221 220 221 219 219 220 218 218 219 
222 226 227 230 224 227 224 225 223 223 223 222 223 223 224 224 
224 224 224 224 223 224 223 221 223 223 224 224 223 221 221 222 
225 225 225 216 218 218 218 217 216 217 217 215 215 216 217 218 217 217 217 216 
215 216 218 220 216 216 219 217 218 218 217 219 218 218 219 219 
218 217 218 218 219 220 219 218 218 219 219 219 219 222 219 218 
217 218 218 219 219 220 218 218 221 219 219 219 219 218 218 216 
217 220 223 224 225 223 225 225 224 225 223 224 223 223 222 224 
224 223 224 224 224 224 224 226 222 223 223 223 223 227 223 224 
224 223 224 217 218 219 216 216 217 217 216 216 215 215 217 218 216 217 217 215 
215 215 216 215 219 217 219 219 218 219 219 219 219 217 215 218 
218 218 216 215 219 217 218 218 220 218 220 220 218 220 219 219 
219 219 219 219 219 219 218 218 217 218 218 218 218 219 215 213 
214 216 218 222 225 224 224 226 226 224 224 222 223 224 222 223 
223 223 223 223 224 223 224 223 224 222 225 223 223 222 221 223 
225 224 225 217 218 216 215 216 215 215 214 214 213 213 215 214 214 216 214 215 
217 214 217 218 216 216 218 216 219 220 218 217 218 219 218 218 
217 216 218 217 215 218 216 218 218 219 218 219 222 222 219 218 
220 218 219 219 218 217 216 220 217 217 218 218 217 216 218 216 
213 216 215 219 222 227 226 225 225 223 223 223 224 223 224 223 
223 222 223 223 222 222 224 223 221 223 223 224 224 226 226 224 
226 227 224 