P2
# Created by IrfanView
100 100
255
212 212 212 212 215 212 213 213 213 213 213 216 215 215 216 213 217 
218 216 216 218 216 216 216 218 218 218 218 219 217 219 218 222 
218 219 218 222 217 219 218 217 218 218 216 218 219 218 218 218 
216 216 217 217 219 219 218 216 217 217 218 219 218 220 221 218 
221 220 220 221 223 222 221 224 221 220 221 222 222 221 222 223 
224 224 223 224 223 223 222 222 223 223 223 222 223 223 225 225 
225 225 225 215 215 213 213 213 214 215 215 213 214 214 213 212 214 213 213 215 
216 214 216 213 215 216 218 215 218 215 215 217 219 218 217 218 
217 217 217 217 218 217 219 217 218 219 219 219 218 220 215 217 
217 218 219 219 218 219 219 217 217 216 217 218 219 221 220 219 
221 221 219 221 221 221 221 220 219 222 224 220 221 219 221 220 
224 222 220 224 223 225 225 223 224 223 224 221 222 223 226 225 
224 224 224 215 213 215 213 213 215 213 215 214 215 215 214 217 217 215 216 213 
217 217 216 216 217 215 215 215 217 217 216 218 219 216 218 220 
217 218 219 217 219 219 217 217 218 217 218 217 221 219 218 216 
217 217 218 217 218 219 218 219 218 219 221 220 220 220 222 221 
221 222 222 222 221 221 221 221 224 223 222 221 220 221 220 224 
222 224 222 223 223 223 224 223 222 225 223 224 226 224 224 225 
225 225 224 215 214 215 214 216 215 215 215 217 214 216 216 216 217 218 216 215 
217 216 215 215 215 217 216 217 217 215 216 217 218 218 218 218 
219 217 219 218 217 218 219 219 218 218 218 217 218 217 217 220 
219 217 217 217 217 219 217 219 218 219 220 220 220 221 219 220 
221 221 222 222 221 222 221 223 222 221 223 223 219 218 219 221 
222 224 226 221 223 223 223 224 223 223 224 224 224 224 224 225 
225 225 225 216 215 216 215 215 217 217 215 214 216 214 216 217 215 216 218 217 
217 217 216 215 216 216 215 215 217 218 218 217 217 219 219 216 
218 217 218 218 219 217 217 218 220 219 218 218 219 217 219 218 
216 218 217 219 216 218 219 219 218 220 219 219 219 220 221 220 
220 220 221 221 220 221 223 222 222 222 222 223 221 221 223 223 
223 223 224 226 226 223 225 223 222 226 224 225 225 224 224 225 
226 227 223 214 217 216 217 215 215 216 214 215 217 216 216 217 217 218 217 216 
217 218 217 217 218 216 216 217 218 218 216 217 217 218 218 218 
219 219 218 217 218 217 218 218 217 217 217 217 218 218 219 216 
218 217 216 217 219 219 221 219 219 219 219 221 220 220 221 222 
220 221 221 222 223 223 222 222 222 222 221 222 223 221 223 224 
223 225 223 223 223 224 224 225 225 223 224 225 226 224 223 225 
225 226 224 217 215 215 217 218 216 215 217 218 217 217 217 214 216 216 217 217 
217 218 216 217 216 216 217 218 217 216 217 217 217 217 219 217 
217 215 215 217 216 216 217 217 217 218 219 219 220 219 224 222 
221 220 222 223 219 221 217 218 219 220 221 219 219 218 220 220 
219 220 218 223 221 221 222 223 223 224 224 225 222 222 225 224 
224 223 225 223 223 222 225 224 224 225 226 225 224 225 225 226 
227 225 227 216 216 217 217 216 217 218 215 214 218 217 216 219 217 218 216 216 
216 216 217 218 218 217 217 217 217 217 217 215 216 218 220 216 
217 216 218 217 217 217 217 216 219 221 219 218 219 222 225 223 
218 219 217 215 181 171 187 204 215 219 218 220 222 224 223 216 
220 217 220 218 220 223 223 223 222 223 223 222 222 223 222 224 
224 225 225 225 226 225 221 224 224 224 224 225 224 223 225 227 
227 227 227 217 218 217 215 215 215 216 216 216 218 216 216 218 218 217 217 218 
217 219 217 216 215 217 216 216 216 217 216 216 217 216 217 217 
216 217 219 216 216 219 218 219 221 214 212 200 181 156 123 124 
119 109 92 91 63 99 104 109 134 144 168 178 202 217 222 222 
222 220 222 222 223 222 222 221 222 222 223 222 222 224 224 226 
224 223 223 224 224 225 225 224 224 225 226 225 225 226 225 225 
227 226 227 218 215 217 217 217 217 217 215 216 217 218 217 216 218 216 216 216 
216 219 216 220 217 216 217 217 218 216 217 216 215 215 218 215 
215 214 216 220 217 220 205 182 155 110 96 104 115 126 156 160 
177 188 175 173 171 173 183 186 146 132 97 186 198 189 191 199 
216 219 222 222 222 220 219 222 222 223 223 222 223 224 225 225 
226 225 223 225 226 226 226 225 226 226 225 225 223 226 224 227 
225 228 227 218 219 217 217 218 216 216 218 218 217 218 217 218 218 216 218 217 
218 217 218 218 218 217 216 216 217 217 215 216 217 216 216 216 
219 221 213 193 165 138 141 155 180 192 218 219 224 226 227 223 
222 222 223 223 225 225 225 226 227 223 220 224 221 220 219 210 
183 173 186 216 225 225 225 221 222 222 223 224 223 224 224 224 
225 226 225 226 225 227 226 225 227 225 228 225 227 227 228 228 
227 227 228 218 217 219 217 216 219 219 218 217 219 217 218 219 217 220 220 218 
218 217 219 218 217 218 216 218 216 215 214 215 217 219 217 214 
215 171 120 132 182 218 220 223 220 224 224 225 223 223 224 224 
221 219 220 222 223 223 223 222 222 222 224 220 220 219 224 221 
224 223 208 183 182 219 223 222 219 223 223 223 223 222 225 225 
226 226 227 226 228 227 227 227 226 228 225 227 225 226 226 229 
228 229 228 217 216 217 217 216 217 218 218 216 217 218 218 219 219 218 219 220 
216 218 217 218 217 216 219 217 216 215 217 217 221 223 221 178 
99 118 201 224 224 222 224 221 222 221 220 218 221 218 220 217 
220 218 219 219 221 221 223 221 221 221 219 220 220 221 222 223 
219 219 221 219 206 182 178 215 219 224 224 222 222 224 225 226 
227 227 227 226 226 228 228 227 229 227 229 226 226 227 228 229 
230 228 230 219 218 218 218 217 218 218 217 218 219 218 220 220 218 219 221 219 
219 220 217 216 218 216 215 219 219 218 217 220 224 178 109 134 
208 225 221 223 220 221 220 217 220 220 223 222 221 220 221 222 
220 221 221 222 221 222 222 222 222 222 220 221 220 223 223 222 
221 220 219 218 217 220 212 180 191 216 222 222 222 222 224 225 
227 226 227 227 228 228 228 228 228 228 227 228 230 229 226 230 
229 230 230 220 220 220 220 218 218 220 220 220 221 220 221 220 218 219 220 220 
219 218 217 219 218 216 220 215 218 218 219 206 122 138 215 225 
225 222 219 218 219 220 220 220 221 222 222 220 221 223 221 221 
221 221 222 223 223 224 223 224 223 221 221 221 222 222 223 223 
223 220 219 218 218 217 218 220 200 182 206 225 222 220 223 225 
226 228 227 227 228 228 229 228 229 229 227 227 228 230 228 230 
230 230 229 218 219 219 218 217 216 219 220 218 220 219 218 219 217 220 221 219 
219 220 219 219 217 216 216 216 220 216 159 110 202 225 224 223 
221 220 222 222 222 222 221 222 221 222 222 222 222 220 223 221 
222 222 223 222 223 223 225 223 222 221 222 221 220 222 222 223 
222 222 222 218 217 217 217 218 217 220 186 195 223 222 224 226 
227 226 227 228 228 226 227 230 228 230 231 227 228 229 230 229 
230 230 230 220 219 218 217 220 220 218 218 218 218 219 220 219 219 219 218 220 
220 219 221 218 217 218 217 220 206 112 163 225 226 224 221 220 
220 220 221 221 221 221 222 222 223 223 222 221 222 223 223 223 
222 221 223 222 223 223 223 222 223 222 223 224 224 223 224 224 
223 222 221 220 217 220 219 220 221 223 225 204 182 222 225 225 
228 227 228 228 228 227 227 229 229 229 227 229 229 228 230 230 
228 231 230 218 219 218 220 217 217 220 220 220 220 219 218 219 218 220 220 218 
219 219 220 220 218 221 224 194 104 192 223 221 220 218 219 222 
221 223 221 222 223 221 222 220 222 223 222 224 222 222 222 223 
222 221 224 223 223 224 224 223 225 224 223 222 222 222 225 223 
225 223 221 218 221 221 221 220 220 224 224 226 217 182 214 227 
225 225 225 226 226 227 228 229 229 228 230 230 229 230 230 230 
230 229 232 217 219 219 219 220 220 218 218 222 219 219 219 219 221 218 219 220 
218 220 219 218 220 221 166 127 212 222 221 221 220 220 220 223 
221 221 219 221 220 220 222 222 223 222 223 222 223 223 223 221 
222 224 222 224 224 224 224 224 223 222 224 223 224 223 222 222 
221 222 219 222 222 222 221 221 222 226 223 223 226 224 181 210 
230 226 225 226 227 228 228 229 229 230 228 229 230 230 230 229 
231 229 227 222 220 218 219 219 219 221 221 218 218 221 219 220 220 219 218 218 
217 219 220 221 223 149 163 215 218 219 217 221 221 222 222 221 
221 221 221 221 221 221 223 222 223 222 221 222 221 222 223 223 
223 220 223 224 225 224 223 223 224 223 224 223 224 224 224 223 
223 222 222 222 221 221 223 223 225 226 225 223 222 223 219 177 
208 229 223 222 222 226 227 229 231 228 230 229 227 229 228 228 
228 229 231 218 219 219 221 220 219 219 220 219 220 220 218 217 216 218 219 217 
217 219 221 220 144 185 221 218 217 216 218 222 221 222 222 220 
220 221 223 218 221 222 222 220 222 223 220 223 222 222 222 222 
223 225 224 224 225 223 224 225 224 224 223 222 224 223 223 225 
223 224 223 223 223 223 224 222 224 226 223 222 224 226 226 220 
173 199 221 221 221 221 225 229 228 229 229 230 230 230 229 229 
230 228 228 220 221 221 221 221 220 219 218 219 220 219 219 221 221 219 221 220 
218 219 220 146 185 219 215 217 218 215 218 221 223 221 220 221 
222 222 221 222 222 221 223 223 223 222 221 223 220 221 220 223 
224 221 223 224 224 224 224 223 223 225 224 226 225 224 224 223 
223 224 223 223 222 223 222 224 224 223 222 222 222 223 222 224 
221 175 190 215 219 222 225 222 226 229 230 228 228 228 230 229 
232 230 230 222 219 219 219 219 219 220 220 218 221 217 219 221 216 219 220 219 
223 224 152 184 225 220 219 217 218 217 218 219 220 223 222 220 
222 222 222 223 222 222 223 222 223 223 221 223 223 223 222 223 
222 223 219 223 225 224 224 225 224 222 221 224 223 225 224 223 
224 224 223 224 224 224 224 224 224 226 224 222 220 223 223 222 
223 224 162 200 216 216 222 227 226 227 228 226 225 227 229 230 
229 229 231 220 218 220 221 220 220 220 220 219 219 219 219 222 220 220 219 220 
225 150 182 226 222 219 220 219 220 218 219 221 221 220 221 222 
221 221 221 221 219 221 223 223 221 224 224 221 221 222 222 223 
225 224 223 222 224 225 225 225 225 226 229 224 226 224 224 225 
223 225 222 225 225 224 223 224 224 226 225 221 222 221 222 219 
221 223 216 161 205 216 221 223 226 228 228 227 228 228 228 230 
230 230 231 223 220 219 219 220 219 220 218 220 219 218 217 217 216 215 216 223 
167 163 223 222 220 220 219 219 220 221 222 221 222 221 221 222 
222 222 222 222 223 224 223 224 222 222 222 224 222 222 225 223 
223 223 221 221 225 225 223 224 224 222 224 225 224 224 227 225 
224 224 225 225 224 223 223 222 224 224 223 222 222 222 221 222 
220 222 225 212 159 212 222 225 228 227 230 229 228 227 229 230 
229 227 230 219 220 222 220 220 220 218 218 218 218 219 219 218 218 218 223 201 
143 225 221 220 220 221 220 220 221 220 222 221 222 223 221 220 
223 222 223 223 220 224 223 222 224 224 222 224 224 223 225 225 
224 223 224 223 225 224 226 224 225 222 223 225 227 224 228 224 
226 225 223 224 224 223 224 224 223 224 223 221 223 222 222 221 
223 223 223 226 184 179 220 226 228 227 228 228 229 226 228 229 
229 228 229 221 219 217 220 220 220 220 220 220 219 219 220 218 216 219 215 113 
218 223 220 220 220 218 219 221 220 220 220 219 220 219 220 221 
220 221 220 220 222 222 222 221 222 222 224 223 222 223 223 223 
223 225 224 224 225 225 226 225 225 225 226 225 225 225 226 225 
224 225 225 228 225 226 225 224 224 222 223 222 220 224 224 219 
223 222 222 224 228 173 209 226 228 227 226 226 227 228 228 226 
228 230 231 219 218 220 220 219 220 221 219 219 219 221 220 219 218 221 126 189 
222 220 220 221 220 223 222 221 221 220 222 220 220 220 220 221 
222 222 222 221 222 221 221 220 222 223 224 225 224 223 224 225 
224 226 225 225 223 224 226 225 225 224 224 224 224 225 225 226 
227 225 225 226 223 224 224 225 224 224 224 223 224 224 223 222 
223 223 222 222 225 214 159 228 228 226 225 225 226 228 227 228 
227 228 229 219 221 220 219 220 217 220 219 220 220 220 219 218 221 175 144 224 
219 221 220 220 220 220 220 220 220 220 219 220 220 220 223 223 
221 221 223 222 221 223 223 221 223 222 223 223 224 224 224 224 
226 223 224 224 226 225 224 224 226 225 225 225 224 225 226 228 
226 228 228 223 225 223 224 226 223 223 222 223 222 223 223 222 
223 223 222 222 224 225 182 195 227 226 227 226 226 228 229 227 
227 228 229 220 220 219 220 217 221 219 220 221 221 221 219 218 220 131 221 222 
221 220 222 220 220 221 220 220 219 221 220 220 221 224 218 210 
185 218 219 222 221 222 222 222 223 223 223 224 223 225 225 225 
223 226 224 223 224 224 225 224 224 225 226 225 224 230 225 207 
180 213 228 226 224 224 225 223 223 224 225 223 223 222 225 223 
222 223 224 223 224 222 222 156 226 228 225 226 227 228 227 227 
227 228 228 220 221 219 219 219 220 218 218 220 219 217 219 219 147 193 223 220 
220 219 221 221 220 220 222 222 221 220 221 225 216 98 57 47 
53 175 221 221 222 222 221 222 224 224 223 223 225 223 224 224 
226 224 224 225 224 224 225 224 225 227 226 224 220 207 174 99 
102 115 203 226 225 224 224 225 224 226 225 224 224 224 224 223 
223 225 225 224 226 224 221 197 189 227 227 228 228 227 230 228 
228 228 227 220 218 219 219 219 218 219 220 218 217 216 217 202 131 228 222 222 
221 222 220 221 221 219 220 221 221 220 222 180 66 39 71 39 
49 124 221 221 219 219 221 222 225 223 224 223 225 225 225 225 
223 224 223 225 225 224 224 223 225 225 224 224 223 168 92 41 
48 58 130 224 224 224 223 223 224 223 224 225 225 224 223 226 
225 224 224 224 225 223 224 226 165 223 225 227 227 227 226 228 
226 227 229 220 220 219 218 219 219 219 218 219 219 219 224 136 207 222 221 221 
220 222 219 221 221 221 220 221 220 223 182 48 41 121 88 52 
43 70 210 220 217 218 219 219 219 220 223 224 225 224 225 225 
225 223 223 224 224 224 224 225 224 224 222 221 216 95 46 51 
65 47 84 219 225 224 227 225 225 225 222 225 224 225 225 223 
223 223 224 223 222 223 222 222 199 184 228 225 227 227 228 227 
227 229 228 218 218 219 218 218 220 219 219 218 220 222 204 148 226 221 221 221 
220 221 221 222 221 219 221 221 220 218 123 28 81 82 81 65 
49 68 204 219 221 221 222 219 218 222 224 223 224 224 224 223 
225 225 223 224 224 224 224 223 225 224 222 224 174 55 63 86 
94 57 56 189 225 224 224 224 226 225 226 226 225 224 225 226 
226 224 224 225 223 221 223 224 229 160 225 226 226 227 227 227 
227 228 232 220 220 218 218 218 219 220 221 220 220 220 143 207 223 222 221 221 
221 220 221 222 220 221 220 222 220 219 66 41 94 98 110 87 
70 67 209 218 221 221 221 225 223 222 222 224 224 224 225 225 
225 223 222 224 224 224 226 224 226 224 219 221 149 54 86 121 
87 54 64 120 227 225 225 224 225 225 224 224 226 224 225 226 
225 224 224 224 224 223 224 225 228 182 189 228 225 227 227 225 
227 229 228 219 219 219 219 217 218 219 222 220 220 210 145 222 221 220 221 223 
220 221 220 221 220 221 219 219 217 197 36 71 109 118 111 105 
66 72 211 220 221 221 222 222 221 222 224 224 226 225 223 225 
223 223 222 223 224 223 227 225 223 223 221 221 140 68 85 130 
97 53 80 97 218 228 225 224 225 224 226 225 225 225 226 225 
225 224 224 224 223 224 224 226 227 217 151 230 226 227 228 228 
230 230 229 219 220 220 220 217 219 221 222 219 218 161 200 221 221 222 221 220 
221 220 221 221 221 221 219 217 218 192 35 63 134 114 109 110 
57 93 212 220 222 224 221 223 222 224 224 224 224 224 225 224 
225 224 225 224 224 224 224 225 224 222 220 221 94 52 105 122 
84 55 77 85 212 225 224 226 226 226 225 225 226 226 227 226 
227 225 224 224 225 223 227 226 226 229 165 210 227 228 227 228 
228 228 230 219 219 219 218 220 218 219 219 219 222 143 221 222 221 221 220 221 
219 219 220 221 220 221 221 219 219 173 46 73 130 103 119 112 
114 122 210 223 221 222 223 223 221 224 223 221 222 224 224 224 
225 223 222 223 224 224 224 224 224 221 220 215 85 59 105 82 
69 69 78 81 197 225 226 225 224 226 225 226 226 226 226 227 
225 226 225 225 225 225 226 227 225 226 192 179 229 229 227 227 
229 229 229 220 220 218 218 218 219 220 219 221 197 168 220 220 222 220 222 223 
223 221 220 220 221 219 219 220 219 196 51 70 113 127 128 138 
124 132 217 222 224 222 221 222 223 224 223 223 222 224 224 224 
224 224 224 224 224 223 226 224 221 221 223 215 88 59 86 62 
62 84 86 86 218 228 225 225 224 226 226 225 225 225 227 227 
225 224 224 228 224 225 226 225 225 225 221 150 222 227 229 228 
229 230 231 220 219 217 219 220 219 219 219 217 178 204 220 221 220 220 221 222 
220 220 220 220 220 222 221 220 218 206 64 55 102 119 125 110 
123 145 223 222 223 223 222 224 221 220 223 223 223 224 225 222 
224 223 224 224 224 222 222 222 222 221 221 214 102 63 78 52 
60 95 85 135 223 226 227 226 226 226 227 227 224 225 225 226 
226 227 227 225 224 225 224 224 222 225 225 186 203 229 229 228 
229 229 227 218 219 219 219 219 219 222 218 212 162 210 220 221 220 220 220 220 
219 221 220 220 219 221 221 221 221 221 79 47 98 82 85 107 
126 170 222 224 223 222 224 223 221 222 224 224 224 224 223 223 
224 225 225 224 223 223 223 222 222 220 220 218 144 57 61 53 
66 95 78 191 224 226 225 226 227 226 226 226 226 224 225 226 
225 225 228 227 226 226 226 224 224 222 223 218 176 228 229 227 
229 229 229 217 217 218 218 218 218 219 218 195 168 220 221 220 220 221 220 221 
223 217 219 219 220 217 219 220 220 219 162 46 56 55 91 110 
105 185 223 222 223 224 223 222 222 222 223 223 224 223 224 223 
224 224 222 223 223 223 223 224 223 221 221 223 207 117 57 63 
81 72 152 223 225 225 227 227 227 226 227 226 228 225 225 226 
227 226 226 226 225 224 225 224 222 223 222 225 173 231 227 227 
229 230 229 219 217 217 218 219 217 216 218 181 183 220 221 220 220 220 221 222 
220 222 218 220 219 219 220 218 221 218 206 80 43 60 97 95 
123 200 218 222 222 225 223 224 222 224 224 225 222 224 224 223 
224 224 223 223 224 225 224 224 223 223 224 223 224 215 138 72 
84 141 224 226 222 226 226 226 226 226 226 226 226 227 226 225 
226 224 225 225 225 226 224 227 226 225 224 225 176 231 227 224 
228 228 229 217 218 218 216 219 217 219 215 154 203 220 219 219 221 221 220 220 
219 220 221 221 219 218 219 219 220 218 217 185 120 98 104 175 
198 223 223 224 224 224 224 224 225 223 223 223 224 224 223 226 
224 223 224 225 225 225 225 227 225 225 225 225 225 226 224 196 
174 218 225 224 224 227 226 227 227 228 225 226 226 226 226 227 
226 227 226 227 226 226 227 227 223 226 224 225 186 222 227 227 
228 228 228 218 218 217 218 216 218 217 200 140 215 223 224 221 221 220 221 219 
220 220 220 220 222 221 220 220 221 221 220 220 210 204 218 227 
227 226 223 223 223 225 225 223 225 223 224 224 224 224 222 223 
223 224 223 224 225 225 225 225 225 223 222 223 223 223 224 225 
226 225 224 224 224 227 227 227 226 226 227 229 228 226 225 225 
227 227 226 227 227 225 226 229 225 224 224 225 192 210 228 227 
228 230 227 218 217 217 218 219 220 218 192 147 224 221 219 221 222 221 220 222 
221 222 221 221 219 221 221 221 221 220 222 223 225 226 226 224 
224 224 224 224 224 226 224 223 223 224 224 224 223 225 226 225 
224 224 224 224 224 225 224 224 223 224 226 226 225 224 223 223 
227 225 224 225 226 226 225 227 227 227 227 226 226 227 226 227 
226 226 227 226 227 227 228 224 224 224 224 226 194 204 229 226 
228 227 227 219 220 218 218 218 217 219 172 165 222 221 222 223 223 221 222 221 
222 222 222 221 223 222 220 222 222 223 221 222 222 222 222 223 
224 224 223 224 224 224 225 224 225 225 223 224 225 224 224 224 
224 222 223 225 227 226 224 225 224 226 224 226 227 223 223 223 
226 226 223 225 227 226 228 225 227 227 226 226 226 226 226 226 
227 227 226 227 227 225 226 225 224 227 224 226 200 188 230 228 
226 226 228 217 219 217 218 218 218 220 161 172 221 222 223 222 220 221 220 223 
222 221 221 221 222 221 220 222 222 222 223 223 223 225 226 222 
223 224 225 223 225 225 224 223 224 225 223 224 224 224 222 222 
223 224 226 225 224 225 225 224 224 224 226 225 226 225 225 224 
225 223 225 227 227 227 228 227 227 227 228 227 227 227 227 227 
227 226 226 226 226 226 226 225 225 226 225 224 214 178 229 227 
229 228 225 218 219 220 218 219 218 219 150 178 220 220 221 221 219 221 222 222 
221 221 222 223 220 221 221 222 221 224 222 222 222 221 224 223 
223 224 224 225 226 223 225 225 223 223 224 223 224 224 224 225 
224 223 222 223 224 225 225 225 225 225 226 226 225 225 225 224 
225 226 226 227 227 227 228 228 228 228 227 227 226 227 226 227 
227 227 228 226 225 226 226 225 225 226 225 225 220 150 228 227 
225 227 228 220 219 218 217 220 220 222 151 174 220 224 220 221 222 221 221 221 
220 222 221 220 222 223 222 222 222 223 224 225 224 225 223 224 
225 224 225 224 222 224 224 223 225 224 224 224 224 223 223 224 
224 223 225 225 224 225 225 226 225 226 225 226 225 224 224 226 
225 227 227 226 227 227 227 227 227 227 226 226 229 228 226 226 
226 226 226 226 226 225 225 226 226 226 225 225 212 140 227 227 
228 227 226 219 216 218 218 219 220 219 142 177 220 221 222 223 222 222 221 221 
221 221 222 223 223 219 221 223 222 223 223 222 222 224 225 224 
225 225 224 223 225 224 223 224 224 223 223 224 223 222 224 225 
224 224 225 226 225 225 225 225 225 225 225 226 224 226 225 225 
224 226 226 226 228 226 225 226 227 228 227 227 227 228 227 226 
226 226 226 226 226 226 226 225 225 227 225 224 208 142 226 226 
227 225 226 217 218 218 217 217 220 220 141 155 221 216 218 217 222 221 221 222 
221 221 221 222 221 224 223 222 223 222 223 223 220 223 223 223 
224 225 221 223 225 224 224 224 223 223 224 223 222 223 223 222 
223 223 223 224 224 226 224 225 226 226 225 225 225 225 225 225 
225 227 227 227 227 227 227 227 227 227 227 227 227 227 227 226 
228 226 227 226 225 225 226 225 226 226 223 223 205 129 226 226 
226 226 227 217 217 218 218 218 219 218 136 137 220 218 218 221 222 220 222 221 
221 221 223 221 223 221 222 220 222 223 221 221 223 223 224 223 
222 223 223 224 224 223 224 223 225 225 222 223 223 223 213 217 
222 225 224 223 222 225 224 225 225 224 224 224 224 224 225 226 
226 225 225 226 226 225 226 227 227 227 226 226 228 226 227 227 
227 227 227 227 226 225 225 224 225 226 224 222 206 90 219 228 
227 226 226 219 218 217 217 218 218 216 147 125 218 218 219 220 220 220 221 220 
221 221 221 222 222 223 222 223 221 224 224 221 222 222 224 224 
224 226 223 223 225 225 223 224 225 223 223 222 223 222 222 222 
224 224 224 223 224 224 224 225 222 223 224 225 224 225 227 224 
227 225 227 225 225 226 225 227 227 227 228 227 227 226 225 226 
228 228 226 225 226 225 224 224 226 226 224 225 206 121 222 229 
227 227 227 217 218 218 216 216 216 215 164 97 218 216 220 221 221 222 220 222 
221 221 220 221 223 222 221 222 223 222 224 224 225 223 222 224 
224 223 224 225 224 224 224 224 224 224 224 224 222 225 220 221 
223 222 224 224 224 222 225 224 224 225 223 223 220 224 225 226 
226 226 226 225 227 225 226 226 228 227 228 227 226 227 226 225 
227 226 226 225 226 225 227 226 226 225 224 224 207 156 224 225 
227 228 228 216 218 216 216 216 216 216 191 59 216 219 219 222 221 222 220 222 
219 220 221 222 222 222 221 223 223 223 223 222 221 222 224 223 
225 224 223 223 224 223 224 224 224 224 223 223 223 222 222 221 
223 224 224 224 224 224 224 224 223 223 224 223 219 225 225 225 
225 225 225 227 227 227 226 227 225 226 227 227 226 227 226 227 
225 225 224 226 226 226 226 225 225 226 225 224 209 155 227 227 
227 230 228 217 215 215 216 217 217 216 206 56 200 220 220 220 220 220 221 222 
221 221 220 224 222 223 222 221 222 223 221 222 223 222 222 223 
223 222 223 223 223 223 224 224 222 224 224 221 224 223 222 223 
223 223 223 223 223 222 223 223 223 223 222 222 222 222 228 227 
226 224 226 226 227 227 224 227 228 225 227 226 226 226 227 226 
226 226 226 223 225 224 224 225 223 225 227 226 204 161 226 228 
227 228 228 219 217 219 215 216 216 214 201 45 180 217 221 221 220 221 221 220 
218 222 223 221 221 221 221 221 222 221 221 220 222 223 222 222 
223 223 224 223 224 223 224 222 223 222 223 224 222 222 222 223 
223 223 222 222 224 224 223 223 224 222 224 221 219 224 225 223 
225 224 224 223 227 225 228 226 227 228 227 226 226 226 226 226 
227 226 226 226 225 228 225 224 223 223 225 223 183 180 226 227 
227 226 228 217 218 217 218 219 216 215 198 85 219 219 220 220 221 220 222 221 
220 223 221 222 221 222 222 222 221 221 221 223 220 220 220 222 
223 223 222 223 223 224 223 222 223 223 223 222 222 223 223 223 
223 222 222 224 222 225 222 223 224 224 222 222 224 226 225 225 
226 224 224 226 227 226 225 226 226 226 226 227 228 227 227 225 
225 226 224 224 224 225 223 225 223 223 226 225 164 207 228 227 
226 227 228 220 218 217 218 218 215 214 216 110 207 218 221 219 220 220 220 220 
220 220 223 222 222 221 222 220 222 222 221 222 220 222 222 221 
225 227 225 222 221 222 223 223 220 221 222 223 222 222 222 220 
224 222 223 224 223 224 224 221 223 225 226 223 224 184 138 226 
225 225 226 225 226 227 224 224 226 225 226 226 227 225 225 225 
224 224 226 225 226 224 225 225 224 223 225 227 163 222 226 227 
227 226 226 218 219 218 219 219 217 220 219 123 166 218 219 220 220 222 221 221 
219 221 222 221 221 223 221 222 221 221 222 218 220 220 220 161 
135 222 225 225 226 225 224 223 221 222 222 223 224 224 222 222 
223 221 221 220 225 224 224 224 224 221 220 201 119 48 60 214 
226 225 226 226 227 226 224 227 227 227 226 227 225 226 227 226 
226 227 224 226 224 224 225 224 224 223 225 219 177 224 226 227 
227 227 228 219 218 218 219 217 218 218 220 172 123 220 222 222 221 221 221 222 
220 222 222 222 221 221 220 222 222 219 221 220 221 220 224 145 
64 99 145 201 223 224 225 223 225 225 220 224 225 223 222 225 
226 225 224 224 228 227 223 217 186 143 93 60 98 109 96 229 
226 226 225 226 225 227 225 226 224 226 226 228 227 228 226 228 
227 226 226 227 225 224 225 225 226 225 225 192 194 222 226 226 
226 227 226 216 218 218 218 217 219 217 218 208 154 219 219 222 222 221 222 223 
223 223 222 221 225 223 221 221 222 221 222 221 221 222 224 168 
105 220 165 108 110 167 206 222 225 225 224 226 227 224 227 224 
224 220 218 215 196 155 106 83 102 135 181 187 175 61 193 226 
227 227 228 227 227 225 226 226 226 227 228 226 226 225 226 225 
225 226 225 225 224 225 222 224 225 226 226 148 212 225 227 226 
225 227 226 221 219 218 216 217 217 217 218 218 144 219 219 219 222 222 222 221 
221 223 222 222 219 220 222 224 223 223 224 222 224 221 222 178 
106 232 222 227 204 167 113 104 120 129 154 157 159 167 157 132 
125 90 88 93 107 149 175 206 223 224 230 225 110 102 227 226 
227 226 226 226 226 228 227 227 227 225 225 227 226 225 227 227 
225 225 225 226 226 226 225 225 225 227 212 134 214 226 227 226 
225 225 225 217 217 219 218 218 217 218 221 216 178 190 218 218 221 222 223 222 
223 222 223 223 223 223 223 222 224 221 222 222 220 223 221 180 
73 214 228 227 227 226 224 204 178 158 155 145 157 139 135 153 
178 195 211 220 222 226 227 229 227 231 224 142 51 181 230 227 
227 226 226 227 226 227 228 227 227 227 227 227 227 228 226 225 
225 226 226 227 226 224 224 223 225 227 170 157 219 227 226 226 
225 226 224 219 219 219 219 220 216 216 218 216 212 160 223 220 221 222 222 222 
224 223 221 221 222 223 224 222 221 222 223 224 224 223 219 206 
89 143 221 225 226 226 222 225 227 224 220 220 221 221 220 224 
226 227 231 227 229 227 227 228 220 177 108 58 114 230 226 226 
226 226 227 227 227 227 227 228 227 227 226 227 227 227 227 226 
226 226 225 227 224 225 225 225 226 228 142 192 227 225 226 225 
225 225 226 217 217 218 217 218 216 217 218 216 215 150 215 217 220 223 223 223 
220 222 223 223 222 222 224 224 221 224 222 223 224 222 220 221 
124 70 154 162 160 168 185 186 190 203 218 214 216 214 213 215 
217 217 215 193 189 174 172 150 147 149 105 97 216 228 227 227 
227 227 227 228 228 226 226 226 227 228 227 227 225 225 227 227 
226 226 226 225 224 225 226 223 224 197 170 224 224 226 227 226 
225 224 225 220 218 217 217 217 216 216 217 216 216 193 162 219 220 220 222 221 
221 221 222 222 224 223 223 224 223 222 223 225 223 225 222 222 
202 102 191 222 219 212 195 189 177 159 143 141 129 132 137 139 
142 133 128 136 152 161 182 191 213 218 116 206 230 226 224 227 
227 225 227 227 227 225 228 227 227 227 227 227 228 227 228 226 
226 228 225 225 224 223 223 224 227 159 219 227 228 227 226 225 
225 227 226 218 217 218 218 217 217 217 216 220 217 216 151 214 222 220 222 222 
222 224 224 224 224 222 221 223 224 226 224 224 224 222 221 223 
223 204 109 202 227 229 225 228 225 225 226 225 219 221 222 219 
220 218 216 221 225 225 224 223 216 153 173 231 227 225 227 227 
227 226 226 226 226 227 227 227 228 227 226 229 226 226 227 226 
226 225 227 229 226 225 224 225 216 163 224 227 227 227 229 227 
226 227 226 218 218 219 218 217 217 217 219 219 217 214 187 157 223 222 220 222 
220 222 223 222 223 223 223 224 224 224 223 224 224 223 220 223 
220 223 199 107 171 224 228 222 224 224 225 225 223 223 224 225 
224 225 224 223 222 224 226 216 113 137 228 228 228 225 227 226 
228 228 228 227 225 224 226 228 226 227 227 229 225 226 225 225 
225 224 226 226 225 223 223 228 163 213 226 226 227 227 227 227 
227 227 228 218 217 216 217 217 216 217 218 219 218 215 217 147 210 220 220 222 
223 222 225 221 225 224 224 223 224 224 222 224 222 223 222 223 
222 222 224 183 101 156 217 228 226 226 222 224 220 221 219 224 
224 223 222 222 224 226 207 127 136 220 229 228 229 228 227 228 
227 226 227 229 229 228 228 228 227 227 226 226 227 227 226 225 
225 225 226 226 222 223 226 209 152 233 227 227 228 227 228 228 
228 228 228 219 218 220 217 216 219 218 218 218 216 216 220 192 172 218 220 221 
220 221 221 220 223 223 223 224 224 224 223 222 222 224 222 221 
221 222 223 224 190 113 117 181 218 226 226 226 225 223 223 224 
224 223 225 226 219 191 131 166 224 228 230 229 231 228 229 228 
228 228 228 226 226 227 228 227 227 227 227 227 227 228 226 225 
226 225 225 222 219 224 228 151 203 228 226 228 227 227 228 228 
226 227 227 217 218 217 218 218 217 217 220 217 222 218 218 220 163 194 220 220 
222 223 224 225 223 223 224 223 224 224 225 222 224 226 224 222 
223 224 225 227 228 215 171 138 143 171 179 140 156 200 214 196 
184 197 186 167 124 161 209 230 230 228 227 227 227 231 227 228 
228 228 228 229 229 227 227 227 229 228 227 227 227 225 227 226 
228 225 226 224 224 224 203 151 230 227 228 228 227 229 228 228 
227 228 227 217 217 219 217 218 219 218 215 217 217 217 217 219 210 155 218 221 
221 221 222 223 224 224 221 225 225 223 223 225 224 224 223 224 
223 225 226 224 223 226 227 219 209 198 177 164 145 134 133 142 
174 157 158 179 203 227 229 228 227 228 228 228 228 229 228 229 
228 228 228 227 229 228 229 232 227 226 228 227 227 227 226 228 
227 225 224 223 224 223 136 208 229 225 227 228 229 227 227 227 
229 228 228 217 220 218 220 217 217 218 217 218 219 217 217 214 218 187 177 221 
221 222 224 223 224 225 226 223 225 225 224 225 224 225 223 224 
224 225 225 225 224 225 226 228 228 227 225 222 225 226 225 225 
224 222 221 225 228 229 228 227 227 230 229 231 229 228 228 227 
226 227 227 229 228 228 229 230 228 226 227 226 226 227 228 227 
226 225 224 222 227 159 181 230 225 226 228 227 228 227 228 227 
227 228 228 217 220 220 218 218 218 217 219 217 218 217 217 216 217 218 161 198 
222 223 222 221 224 224 223 225 223 224 223 224 226 225 225 224 
224 224 226 225 225 224 224 225 225 224 226 226 228 228 230 228 
225 227 225 225 227 228 227 228 228 229 229 228 228 229 229 228 
229 228 227 231 228 228 227 229 226 228 227 227 226 226 228 229 
225 224 226 224 198 138 227 227 227 228 227 227 227 228 226 225 
225 228 228 218 218 218 219 218 219 217 217 218 218 217 219 216 217 218 211 161 
212 223 222 222 225 223 224 225 224 225 225 224 223 224 224 225 
225 225 226 224 224 224 225 223 223 223 226 226 227 226 226 226 
228 224 228 228 228 227 227 229 229 229 229 228 229 228 229 229 
231 229 228 226 229 229 228 228 227 226 228 229 226 226 227 228 
225 222 227 214 125 210 229 227 227 228 228 227 228 228 226 229 
230 227 228 218 220 218 218 219 220 217 218 218 220 218 217 218 218 218 219 199 
144 221 223 222 221 224 224 225 225 226 225 225 224 224 225 224 
226 225 223 224 225 225 224 224 224 226 225 226 227 226 226 226 
227 227 227 228 228 228 230 228 228 229 229 230 229 229 228 228 
228 229 229 228 227 227 229 228 227 229 226 227 225 226 228 230 
225 223 225 141 195 228 227 227 229 230 227 227 228 228 228 227 
226 228 228 220 218 220 220 219 216 220 216 219 214 216 219 218 221 221 220 224 
182 178 220 224 223 223 224 225 223 225 223 225 225 224 226 223 
224 224 224 225 225 225 224 225 225 224 224 226 226 227 227 226 
227 226 228 228 228 230 229 229 229 229 229 229 229 228 228 228 
229 229 228 229 229 228 228 228 227 227 226 227 228 227 226 227 
225 229 163 174 230 229 228 229 228 229 227 226 227 228 227 228 
228 226 228 219 221 219 219 219 221 218 219 219 220 219 217 220 222 221 219 221 
224 173 180 222 224 224 220 224 224 224 224 225 224 224 225 226 
225 224 222 223 224 225 223 223 225 225 224 225 225 226 226 227 
226 227 228 228 228 228 229 228 228 229 229 228 228 228 228 229 
228 228 229 229 229 229 227 229 226 227 227 228 226 227 226 228 
227 173 151 228 230 228 228 229 229 228 228 228 228 228 228 226 
227 230 228 220 219 220 219 219 217 218 218 218 219 218 220 220 220 221 219 221 
221 225 170 169 221 223 224 224 224 223 223 224 224 223 224 224 
224 223 224 224 223 223 222 224 224 223 225 225 226 225 229 227 
227 227 228 228 227 228 229 227 229 230 229 229 230 230 228 228 
228 229 228 228 229 227 228 229 228 231 229 228 227 227 229 229 
189 150 226 228 226 227 228 227 229 227 228 228 228 227 227 227 
227 227 227 219 220 219 220 219 221 221 219 220 219 219 218 219 219 219 219 221 
221 220 221 166 164 223 225 222 222 224 225 223 224 223 225 223 
224 225 225 224 223 223 223 224 225 225 226 226 225 226 226 227 
228 227 229 228 228 229 229 228 229 228 230 228 228 227 228 228 
228 228 229 228 227 227 229 231 228 229 225 228 225 227 228 179 
152 217 228 228 228 227 228 228 227 227 228 225 227 227 227 227 
227 229 227 218 218 219 217 219 220 218 217 219 217 217 218 222 220 219 221 222 
222 220 220 223 171 173 221 222 225 223 222 224 225 224 223 224 
222 223 223 222 223 224 222 224 225 227 226 228 227 228 227 227 
227 227 226 228 229 230 229 228 228 228 227 227 229 228 228 228 
228 229 229 227 229 228 227 230 226 226 226 227 231 228 180 155 
221 225 228 228 227 226 230 229 228 229 228 229 229 229 228 228 
227 227 227 219 220 220 219 220 219 220 221 219 218 218 220 220 221 219 217 220 
222 222 222 224 221 178 156 221 224 224 222 220 222 222 225 223 
224 224 223 224 224 224 221 223 225 224 226 225 225 226 226 227 
227 225 226 229 227 226 227 227 228 228 229 229 229 227 228 227 
227 229 227 228 226 227 228 229 228 226 226 230 228 162 167 224 
229 227 226 227 229 229 227 228 228 228 228 229 227 228 227 229 
227 228 225 219 219 220 219 219 219 221 219 222 220 221 219 220 219 220 220 221 
220 222 222 220 220 223 197 144 203 224 224 222 222 221 222 223 
222 223 222 221 222 222 223 222 225 226 226 226 226 226 225 225 
226 225 227 228 227 229 229 229 229 227 230 228 228 229 227 227 
227 229 227 226 228 227 228 228 228 229 230 214 149 183 225 228 
226 226 227 229 228 229 229 228 230 227 228 228 228 227 229 227 
228 227 226 218 219 219 219 216 219 219 219 217 218 219 220 218 218 219 219 220 
220 222 221 221 219 221 221 201 142 174 223 222 222 220 221 222 
221 220 222 222 222 223 223 225 225 225 224 225 225 226 225 225 
224 221 227 228 227 228 227 229 229 228 228 228 228 230 227 227 
228 227 227 227 229 227 226 228 229 232 205 138 188 227 229 226 
226 226 228 230 227 229 229 230 227 229 229 229 229 228 227 229 
227 227 228 220 218 219 218 219 220 219 218 220 220 220 220 220 217 216 219 219 
219 222 221 220 219 218 219 220 218 172 147 203 221 222 221 223 
222 222 221 221 222 222 221 223 225 226 225 224 225 225 225 225 
227 225 226 227 226 227 227 224 226 228 227 227 229 228 228 227 
226 227 228 230 227 228 228 230 221 154 142 214 228 227 227 228 
228 229 228 228 228 227 228 228 229 226 229 227 228 230 230 229 
227 226 227 218 219 219 217 218 218 219 219 218 217 220 219 218 219 219 219 220 
219 219 220 218 219 220 220 222 220 219 196 142 168 213 223 223 
221 224 222 221 221 221 222 223 224 224 226 224 226 225 225 227 
225 226 226 226 227 228 228 229 228 227 228 228 230 229 228 225 
226 226 227 229 228 226 224 184 137 172 226 230 229 228 228 228 
227 228 228 228 230 230 229 229 228 230 229 229 228 231 232 230 
228 228 228 219 220 219 218 219 218 219 219 218 219 219 219 219 220 219 220 220 
222 220 219 219 218 220 218 217 221 220 221 216 163 133 154 210 
224 221 223 222 221 218 219 222 224 225 225 225 224 225 225 226 
226 225 227 226 226 226 226 226 228 227 226 227 229 227 226 226 
225 226 229 229 224 197 147 160 211 229 230 227 227 227 228 228 
228 228 228 229 228 230 228 228 228 228 229 228 229 229 230 228 
229 229 227 219 220 219 218 219 219 219 218 216 218 219 219 218 219 219 219 220 
220 218 219 220 219 219 218 221 220 220 219 224 217 211 152 120 
164 197 220 221 220 218 219 218 222 222 223 224 224 223 225 225 
225 224 225 225 227 225 226 226 227 226 226 229 229 225 225 225 
226 227 227 200 147 135 209 226 229 229 226 228 226 229 228 228 
229 229 229 229 229 228 228 228 229 228 228 228 228 228 230 227 
227 229 226 218 220 219 220 218 218 218 218 221 219 219 221 220 220 220 219 218 
221 220 219 218 219 219 218 218 218 217 219 217 219 221 220 198 
157 123 136 174 213 218 219 218 223 225 225 225 224 225 225 223 
223 222 224 222 227 226 227 224 226 226 227 228 229 230 229 228 
218 182 142 155 208 224 230 231 229 227 227 229 229 228 227 229 
228 226 228 228 228 230 232 229 228 229 230 228 228 229 226 228 
228 227 227 220 219 221 220 218 220 218 219 215 219 217 218 221 219 220 217 219 
218 218 221 219 220 219 221 218 218 218 219 219 221 218 220 221 
219 218 185 151 125 143 170 207 219 224 225 225 224 227 226 225 
227 225 224 225 226 226 228 228 228 227 226 229 231 227 203 159 
138 162 214 227 232 232 229 228 228 227 227 228 228 229 230 229 
228 229 230 229 229 229 228 229 228 228 228 227 229 226 227 226 
228 227 228 219 220 217 220 217 220 219 218 218 219 219 219 217 219 220 220 220 
219 219 219 220 220 219 221 220 219 219 220 219 219 219 221 220 
222 223 226 223 214 198 155 124 142 164 194 205 205 218 225 227 
225 224 219 225 225 227 228 228 228 228 220 188 154 141 152 200 
224 227 229 229 228 227 228 227 228 228 227 229 228 228 227 226 
230 228 227 228 229 229 229 226 229 228 228 226 227 228 229 226 
227 227 228 220 220 218 221 219 220 219 219 218 219 218 219 219 218 219 218 219 
222 220 219 220 219 219 221 219 219 219 219 220 218 221 220 218 
222 220 223 225 223 224 223 219 194 169 161 135 78 80 100 117 
134 153 163 169 171 170 172 167 151 139 139 170 214 223 226 228 
230 229 228 227 227 227 227 228 228 227 228 227 227 230 231 227 
227 227 228 228 228 228 229 228 229 229 228 227 227 227 228 227 
226 227 227 219 219 218 219 217 219 220 219 219 218 217 218 218 218 218 217 222 
220 220 220 220 220 219 218 219 219 220 220 219 220 219 219 220 
220 220 223 223 221 223 224 223 224 227 229 224 192 135 119 117 
107 121 122 128 144 148 181 196 215 222 227 229 231 229 229 228 
228 227 228 228 228 229 227 228 229 228 227 228 228 228 228 230 
229 228 229 230 228 228 228 228 228 228 227 228 227 227 228 226 
227 228 226 220 219 221 220 220 221 218 219 221 221 217 218 219 218 218 218 219 
219 220 219 220 220 221 221 220 220 219 220 218 221 222 221 222 
222 222 223 224 223 221 222 223 224 223 224 223 227 225 227 227 
225 227 226 227 226 231 225 226 225 229 228 230 229 229 228 227 
227 227 227 228 228 228 229 228 228 227 229 229 228 228 228 228 
229 228 229 227 229 229 228 228 226 229 229 228 228 230 226 226 
227 225 227 219 219 220 217 218 220 219 219 218 218 217 220 219 219 219 219 219 
220 219 218 219 219 218 221 221 220 221 220 220 219 220 222 222 
223 221 222 223 224 225 223 224 224 223 225 226 225 227 226 227 
229 227 226 228 227 228 228 227 227 226 227 228 226 227 227 228 
229 228 229 228 229 229 230 229 228 228 227 227 224 228 229 228 
227 228 228 230 228 228 228 228 227 228 227 227 227 225 226 226 
226 228 227 220 218 219 218 218 218 217 215 219 218 221 220 219 220 220 217 217 
220 217 218 220 219 220 219 218 219 219 220 221 221 223 221 221 
222 221 226 222 222 223 223 224 224 223 227 225 226 224 224 224 
224 224 223 224 225 226 225 224 227 226 228 227 228 228 227 228 
227 226 227 228 228 228 229 229 227 227 226 227 228 226 229 227 
228 228 228 227 228 228 227 228 228 227 226 227 226 227 228 228 
228 225 226 219 219 218 219 219 217 217 218 218 217 219 218 218 219 218 217 220 
220 219 220 219 220 221 219 221 221 220 220 218 219 221 220 221 
221 222 222 223 226 226 225 225 223 224 225 226 224 222 223 223 
223 223 224 225 225 224 226 226 227 227 227 227 228 227 228 229 
227 229 227 228 228 228 228 227 228 226 227 226 228 227 227 228 
228 228 227 228 228 228 230 229 228 229 226 227 227 227 228 226 
223 226 225 219 216 219 217 216 216 216 218 217 213 219 220 218 217 220 217 217 
222 219 221 219 220 218 219 219 220 221 218 218 221 221 222 221 
223 222 223 223 225 224 224 224 226 226 224 227 226 226 226 225 
224 226 225 224 225 228 227 225 228 227 228 228 228 228 229 229 
229 228 229 227 227 227 229 229 228 228 229 227 228 228 227 226 
228 226 226 227 227 227 227 228 227 227 228 227 227 224 227 223 
227 226 226 