P2
# Created by IrfanView
100 100
255
246 247 247 244 244 242 243 244 246 243 244 245 244 242 243 243 244 
243 243 241 242 242 242 241 243 243 243 242 243 243 242 244 242 
242 243 243 243 242 243 243 244 243 244 243 244 244 245 245 244 
245 243 243 243 243 243 244 244 244 245 244 245 243 242 244 243 
243 243 244 243 242 244 244 244 243 243 243 243 244 242 245 243 
242 243 242 242 243 241 240 242 242 242 243 241 241 242 243 242 
242 242 242 246 246 244 245 244 243 244 244 242 242 243 243 243 244 242 243 243 
244 243 242 242 242 243 242 243 242 242 243 244 243 242 243 244 
243 242 242 242 242 243 243 242 243 243 243 243 244 245 242 244 
245 243 244 245 244 244 244 243 244 243 244 244 242 245 243 242 
243 243 244 244 244 244 243 245 243 244 243 243 244 245 244 243 
243 244 241 242 243 243 242 243 242 241 243 241 243 243 243 243 
242 243 243 247 245 245 245 244 246 245 244 244 243 243 242 242 242 245 244 243 
243 242 243 242 242 241 241 241 241 243 242 243 244 243 243 242 
242 242 242 242 242 243 243 244 244 242 243 243 245 244 244 244 
243 246 244 245 245 246 244 244 243 243 244 245 244 243 243 244 
244 243 243 244 244 245 245 244 245 245 244 243 241 243 244 242 
242 242 242 242 243 243 243 242 241 242 243 242 241 240 241 243 
242 242 243 246 245 247 244 244 245 245 245 243 244 244 243 243 244 242 241 243 
242 244 243 243 241 242 242 243 243 242 241 243 243 245 242 241 
242 242 242 244 242 241 242 243 244 243 243 242 241 243 244 244 
244 244 244 244 246 244 242 242 242 243 244 244 244 243 244 243 
243 243 244 244 243 243 245 245 244 245 243 243 243 245 243 243 
242 243 242 243 243 242 243 243 243 242 243 242 241 241 240 242 
242 243 242 246 247 247 246 246 245 244 242 243 243 242 242 244 245 244 243 242 
245 245 243 241 242 242 242 242 242 242 242 243 244 244 243 242 
242 242 242 242 242 243 243 243 242 243 243 244 243 243 246 244 
244 245 244 244 245 244 242 243 241 243 243 245 244 243 244 242 
244 244 244 245 244 244 244 244 242 243 242 244 244 244 245 243 
243 243 244 245 244 243 242 242 241 242 242 242 241 241 243 243 
243 242 241 245 247 245 245 245 245 244 243 243 243 243 242 244 244 242 243 242 
243 243 242 241 243 241 241 242 241 242 241 242 242 245 243 242 
242 244 242 243 241 241 242 243 242 243 242 243 243 243 247 246 
246 246 246 246 247 245 246 245 244 245 244 243 244 241 241 243 
243 243 244 244 244 243 244 244 245 243 243 243 244 244 244 245 
244 243 243 244 243 243 242 244 242 242 242 242 241 241 242 243 
243 242 242 248 248 247 248 248 246 244 244 243 242 242 243 242 244 243 243 243 
242 242 242 242 241 242 244 241 242 242 242 243 244 244 246 244 
242 244 245 243 242 242 242 241 245 244 245 246 247 246 240 241 
239 229 223 226 224 231 236 248 245 246 247 246 246 245 244 242 
243 243 242 243 242 242 245 243 245 244 243 244 244 243 246 244 
245 243 243 244 245 242 243 244 244 243 243 242 242 242 243 244 
244 243 243 246 248 248 245 246 244 243 244 244 243 242 244 242 243 242 243 244 
243 243 244 242 242 241 242 241 241 241 242 242 243 244 243 242 
243 246 243 242 243 244 245 244 244 245 238 219 206 207 187 203 
207 205 215 212 208 198 182 189 202 208 230 242 244 244 245 244 
243 246 244 243 243 243 244 245 244 243 243 243 244 243 243 245 
245 242 244 244 242 242 244 243 244 243 244 244 243 243 244 244 
244 243 244 248 247 247 247 245 244 245 244 243 243 243 242 242 243 243 243 244 
244 242 243 242 242 242 241 241 241 241 243 242 243 243 242 240 
242 243 243 245 245 245 239 218 197 200 217 221 234 245 247 250 
246 248 248 247 249 250 247 247 236 221 212 200 193 201 233 243 
245 245 245 243 243 243 243 244 244 243 244 244 245 243 244 244 
244 242 245 244 245 244 243 243 244 243 244 245 243 242 243 244 
244 243 243 248 246 247 245 244 244 245 245 244 243 243 243 244 243 242 242 244 
244 243 243 241 240 241 241 241 241 241 241 242 242 242 242 243 
243 243 243 235 218 202 202 214 235 248 248 247 246 246 247 248 
247 246 245 246 245 245 246 246 246 248 249 248 246 219 183 177 
210 238 248 247 245 244 243 242 244 243 244 244 243 245 245 243 
244 243 244 244 244 244 246 244 245 243 244 244 243 242 243 243 
243 242 242 248 248 247 247 246 244 244 245 245 243 245 243 243 243 244 243 242 
242 242 242 241 240 241 242 241 242 242 242 242 243 244 247 244 
243 229 203 200 222 239 247 249 247 246 245 245 247 245 246 248 
247 245 244 244 245 245 246 245 245 245 244 245 246 248 248 234 
210 179 189 227 245 244 244 244 243 244 244 244 243 244 245 244 
244 243 244 243 243 242 243 245 244 243 243 242 242 244 244 243 
244 241 241 247 248 247 247 247 246 247 246 245 245 243 243 243 241 244 243 243 
242 242 241 239 240 239 239 242 241 240 240 243 243 233 213 208 
206 218 238 247 249 247 246 246 246 245 245 245 245 245 244 245 
245 245 246 245 244 246 244 244 244 244 245 245 244 244 244 247 
249 248 225 180 191 233 246 245 244 244 245 244 244 245 245 244 
243 244 243 245 244 244 243 244 243 243 243 242 242 243 243 243 
242 242 241 249 248 247 247 248 246 246 247 246 245 244 244 244 244 244 243 243 
242 243 242 241 240 242 240 239 240 241 243 235 212 196 196 218 
243 247 247 248 246 248 246 244 246 246 248 246 245 245 246 245 
245 246 245 245 247 244 244 244 245 244 244 246 245 243 244 245 
246 246 248 245 220 175 192 241 248 246 243 245 245 246 244 243 
244 244 243 243 243 242 243 244 244 244 244 244 243 244 243 243 
242 242 241 249 248 249 247 247 246 246 247 246 245 243 244 245 244 243 243 243 
243 242 241 238 240 239 239 239 241 236 221 188 176 212 247 250 
246 245 244 245 247 246 244 246 245 246 246 246 245 246 246 245 
246 246 245 246 246 247 244 244 243 244 244 245 245 244 244 243 
243 244 245 245 248 246 219 207 228 245 247 245 245 245 245 244 
244 243 245 244 242 242 243 243 244 244 243 244 243 242 242 242 
242 241 242 249 248 248 249 247 247 246 247 247 245 245 245 243 244 244 243 244 
243 242 242 240 239 239 241 242 234 200 198 206 237 248 246 245 
245 245 246 245 245 246 246 245 246 246 246 246 246 245 245 247 
247 245 247 247 247 249 246 244 244 244 246 246 245 244 243 243 
244 246 246 247 243 247 249 246 219 207 233 246 245 244 242 245 
244 245 244 244 243 244 243 243 244 243 243 244 243 244 243 242 
243 241 243 248 248 249 249 248 248 248 247 246 244 244 244 243 244 243 243 243 
243 242 242 241 241 240 239 223 199 215 240 247 248 246 245 245 
245 245 245 245 246 245 246 245 246 246 246 247 247 245 247 246 
246 245 246 246 246 248 247 246 243 244 245 245 245 246 244 243 
243 245 246 245 245 243 245 244 249 235 204 224 246 244 244 245 
246 245 244 243 243 242 244 243 243 242 244 244 244 244 243 244 
242 242 243 249 248 250 249 249 248 247 247 247 244 244 244 245 244 243 244 244 
243 243 242 239 242 237 204 197 229 246 246 246 245 244 245 245 
245 245 246 245 247 247 245 246 247 247 246 246 246 246 247 246 
247 246 246 246 248 247 245 246 245 244 246 245 246 245 246 246 
245 244 246 245 245 243 245 242 244 245 247 222 210 242 245 244 
244 244 245 244 244 243 244 243 243 244 243 242 243 245 244 243 
242 240 244 250 249 250 250 247 247 248 247 245 245 245 245 245 243 244 244 243 
244 241 241 240 238 193 198 236 247 245 245 245 245 244 245 246 
247 246 246 247 246 246 246 245 245 247 245 245 244 245 245 246 
245 246 245 245 245 245 245 245 245 246 245 245 245 246 245 245 
245 244 245 244 245 243 244 243 245 245 246 245 233 208 229 245 
246 245 243 243 244 243 243 245 243 244 243 244 245 245 245 243 
243 244 244 250 250 250 249 250 249 248 247 247 246 244 246 245 243 243 244 244 
244 241 243 241 191 203 244 246 244 244 243 244 246 245 245 247 
246 246 246 245 247 247 246 246 246 246 246 246 246 245 246 245 
245 244 246 247 245 245 245 245 244 244 245 245 245 245 245 246 
246 247 245 245 246 245 244 243 245 245 243 242 245 240 206 227 
246 245 244 244 243 243 244 244 243 245 244 244 244 245 244 242 
243 242 243 251 250 249 250 249 249 249 248 247 246 246 248 245 244 243 244 243 
243 242 235 189 216 245 245 245 243 244 244 244 246 246 246 245 
245 246 247 246 249 248 248 248 247 247 247 247 246 247 245 247 
248 247 248 247 245 246 246 244 245 246 245 246 245 245 246 246 
245 245 246 246 245 244 244 243 245 245 244 245 243 246 246 206 
220 242 244 244 244 244 244 243 245 245 245 243 245 245 244 241 
242 243 244 251 250 250 249 250 250 249 249 248 247 244 246 246 244 244 244 243 
242 237 200 222 245 243 243 243 244 246 246 248 244 245 245 245 
247 247 247 246 246 247 247 247 250 247 247 248 248 248 247 246 
247 247 248 245 247 249 248 247 244 244 246 246 246 244 248 245 
244 245 245 246 245 245 247 244 244 245 244 244 244 243 245 248 
206 212 245 246 244 244 243 244 244 244 245 244 244 244 244 244 
243 243 243 248 248 248 250 249 249 250 249 249 247 246 246 245 246 246 245 243 
239 203 226 246 245 244 245 243 243 245 244 246 246 248 247 248 
247 246 247 247 247 247 247 247 249 248 247 249 249 248 247 247 
247 247 246 247 246 247 247 245 247 245 246 247 248 245 245 245 
244 244 244 245 245 245 244 245 245 245 245 245 243 243 242 246 
249 210 225 243 247 244 244 245 246 243 242 244 244 243 243 245 
244 245 243 251 251 250 251 249 248 249 249 248 248 245 247 245 246 245 244 245 
216 234 244 245 244 243 243 245 244 239 242 248 248 246 248 247 
247 248 248 248 247 247 248 248 249 249 247 249 247 248 248 249 
247 246 246 244 246 247 246 245 247 246 246 247 245 246 247 246 
246 244 246 246 245 244 246 247 245 245 245 244 244 243 243 243 
245 246 209 220 242 244 243 245 244 245 243 243 241 242 242 243 
243 243 244 250 249 251 251 249 250 251 249 247 246 247 246 247 247 246 245 229 
222 247 245 244 243 243 244 245 246 235 248 246 247 246 246 246 
248 248 249 246 247 247 248 247 249 249 249 248 248 248 247 248 
248 246 246 246 246 246 246 247 248 246 247 247 245 243 244 246 
246 246 246 247 245 245 244 246 246 245 245 244 245 246 243 244 
244 246 246 203 205 245 243 245 244 244 243 243 243 243 243 244 
244 243 243 251 249 250 249 250 250 250 249 249 249 247 247 248 246 248 243 213 
247 245 245 245 246 245 245 246 245 246 247 248 247 248 247 246 
248 248 249 247 247 248 247 247 248 248 247 247 248 247 246 248 
247 246 246 247 246 247 246 246 247 245 247 247 246 246 246 245 
245 247 246 245 244 245 244 245 244 244 244 244 244 245 246 244 
244 247 245 243 173 221 245 244 244 243 244 244 243 244 244 245 
244 243 244 250 250 250 249 249 251 250 248 249 249 247 248 248 245 243 219 237 
245 244 244 246 245 247 246 246 246 246 245 246 245 247 248 248 
248 248 248 248 246 247 248 247 245 250 248 248 247 248 247 247 
246 246 245 247 246 246 246 245 246 246 247 246 247 246 245 246 
245 245 245 244 246 245 246 244 243 244 244 244 244 243 242 243 
244 245 244 246 235 169 246 244 244 243 243 244 244 243 243 244 
243 243 245 250 250 251 252 250 250 251 250 250 249 247 248 247 246 213 231 246 
243 247 246 246 247 247 247 246 247 246 248 247 247 246 247 247 
248 248 248 246 246 246 246 247 248 248 246 246 246 247 248 245 
246 245 244 246 246 246 246 246 246 246 246 247 247 246 246 247 
247 245 244 246 246 244 244 244 245 245 246 244 244 245 244 243 
244 244 242 247 249 184 212 246 244 244 245 244 244 243 243 244 
244 244 245 250 251 251 250 251 250 250 249 250 247 248 248 246 231 216 247 246 
246 247 248 245 247 248 246 248 248 247 246 246 247 247 248 248 
247 249 248 246 247 246 246 246 246 247 246 245 245 246 245 245 
246 247 247 247 247 246 245 245 246 246 248 247 247 247 248 247 
248 247 245 247 245 247 245 243 244 246 245 244 245 246 244 245 
245 246 243 244 246 239 171 239 244 244 245 244 244 242 243 243 
243 245 245 250 251 251 250 250 251 249 249 248 247 247 247 244 209 247 248 247 
246 246 247 248 247 247 249 248 248 248 247 247 247 248 248 248 
249 248 246 245 247 245 246 246 245 247 245 245 246 245 245 245 
245 245 246 246 245 247 245 245 246 246 245 246 245 247 247 247 
246 246 246 245 245 246 247 246 243 244 244 245 246 245 246 246 
244 244 243 244 243 245 212 180 244 244 246 245 244 243 244 243 
243 243 244 250 250 251 250 251 249 249 250 250 249 248 249 229 229 251 248 247 
249 247 247 248 247 248 248 248 248 248 247 247 247 246 247 249 
248 247 245 245 246 247 247 246 246 246 246 246 245 246 245 245 
245 244 247 245 246 247 246 245 246 246 245 246 246 246 247 245 
246 247 246 245 245 246 246 245 244 245 243 244 245 245 244 246 
246 245 243 246 243 243 234 197 244 243 245 246 244 244 243 243 
243 242 244 250 252 250 250 251 249 251 252 249 247 248 247 211 248 249 249 248 
247 247 248 248 248 249 246 247 246 248 245 248 247 248 249 248 
248 246 244 245 245 246 245 246 245 246 246 247 245 245 245 245 
245 245 246 245 246 247 246 245 245 244 246 246 246 246 245 244 
245 246 245 246 247 244 243 244 242 244 245 244 244 245 245 245 
245 245 244 245 243 244 241 222 224 247 245 245 245 244 244 243 
244 243 244 250 250 251 251 251 251 251 253 252 249 248 235 224 249 248 248 248 
248 248 249 249 249 249 249 249 248 246 247 248 249 249 250 250 
250 247 245 245 245 245 246 244 245 244 245 245 244 244 245 245 
245 244 245 246 245 246 245 244 244 245 247 246 245 244 247 245 
245 245 244 245 245 245 244 244 245 244 243 245 244 245 244 244 
244 245 245 245 245 244 244 229 197 243 246 246 247 244 243 245 
243 243 245 251 251 251 251 251 251 251 253 252 249 249 210 247 249 249 250 250 
248 247 248 247 249 250 250 248 248 247 249 251 250 249 248 248 
244 246 247 244 244 245 245 245 245 246 245 244 246 246 246 246 
245 245 245 245 245 245 246 246 245 245 245 245 245 246 246 246 
245 245 244 245 245 245 243 243 244 245 245 244 245 244 245 243 
244 244 244 244 244 244 242 235 205 214 244 244 245 244 243 242 
244 242 243 250 249 250 250 251 250 252 252 251 250 242 226 251 249 249 249 249 
249 250 249 249 249 249 248 247 247 249 250 238 222 211 200 191 
182 193 245 246 244 244 245 245 245 244 246 245 245 246 246 244 
245 245 246 244 245 245 246 246 245 245 245 245 244 244 244 244 
246 247 246 245 247 244 244 243 245 245 243 244 242 243 244 245 
244 244 243 246 245 245 244 242 232 186 242 243 244 245 243 244 
243 244 244 250 250 250 250 251 252 251 251 251 251 230 243 250 248 249 248 249 
250 250 249 249 248 248 248 246 249 246 204 169 173 164 164 174 
163 144 188 246 245 245 243 245 245 245 245 246 246 244 244 246 
246 245 246 246 244 245 245 245 246 244 245 246 246 243 244 246 
246 243 243 242 246 247 246 245 245 243 243 244 244 243 244 244 
245 244 244 245 246 246 244 241 236 190 233 244 244 243 244 242 
243 242 244 249 251 251 250 250 251 251 250 250 248 222 250 249 250 249 249 250 
251 251 250 249 249 248 247 248 248 172 169 171 165 153 154 155 
153 157 151 205 247 246 245 244 245 245 245 245 246 245 244 244 
246 247 247 244 245 245 245 244 244 244 244 245 245 244 247 233 
199 188 189 189 194 233 247 246 246 246 243 245 243 243 244 244 
245 244 244 244 245 244 245 244 238 220 220 244 243 243 244 243 
243 243 242 251 250 250 251 250 252 249 251 250 241 224 249 251 249 249 250 250 
251 252 250 248 247 246 249 249 201 156 168 163 169 162 155 145 
144 164 165 149 238 244 244 244 245 246 245 246 247 246 246 245 
245 246 246 244 245 245 245 246 247 243 244 245 244 244 219 177 
156 147 169 173 172 177 229 245 247 247 245 245 246 246 244 244 
246 245 244 245 246 244 244 243 241 239 204 242 243 243 244 243 
244 243 243 249 250 250 250 250 250 250 248 248 205 240 250 249 249 249 249 250 
249 249 251 248 248 245 246 235 152 158 167 165 175 184 195 185 
147 137 148 171 193 247 244 245 245 244 245 246 246 246 246 246 
247 245 247 245 245 244 244 245 247 244 244 243 245 210 156 142 
123 127 144 146 140 162 168 218 246 245 245 244 246 244 243 244 
245 244 244 243 243 243 244 243 244 239 209 234 244 244 244 243 
243 244 245 249 250 251 250 250 250 250 249 246 203 249 249 250 249 250 251 251 
249 250 251 249 248 248 248 230 157 156 169 204 232 245 252 252 
226 167 152 185 172 245 246 245 246 244 246 245 246 246 246 246 
246 246 246 245 245 245 245 245 244 244 244 243 232 147 123 119 
114 110 139 151 126 117 134 164 239 247 247 246 245 245 245 245 
245 246 244 245 245 245 244 245 243 239 214 214 246 243 243 244 
244 243 244 250 249 249 252 250 251 250 249 233 220 251 250 248 250 250 248 249 
249 250 250 249 248 247 249 236 160 168 229 251 249 249 248 247 
252 248 226 173 159 246 246 247 246 247 246 245 246 245 246 246 
244 246 246 246 246 246 245 245 244 243 243 245 177 116 116 119 
140 186 242 239 223 147 129 149 207 246 247 245 243 245 245 245 
245 246 245 245 245 245 245 245 243 238 231 185 246 244 244 244 
241 243 243 251 251 250 250 248 248 249 251 219 231 250 250 248 249 250 250 249 
250 250 249 249 249 248 249 229 150 215 252 249 250 248 247 247 
247 249 251 228 180 248 247 246 246 246 245 245 247 246 245 245 
245 244 244 246 245 245 244 244 243 244 242 219 104 100 129 141 
217 247 247 248 248 234 127 128 164 246 245 245 247 244 244 245 
245 247 246 247 243 244 245 245 244 242 237 191 240 245 246 245 
243 244 246 252 249 250 250 248 250 249 250 207 244 250 250 251 251 250 250 249 
250 251 249 249 248 248 249 232 177 249 250 249 249 246 247 247 
244 245 246 250 247 247 247 247 246 246 245 245 245 246 246 246 
247 244 245 244 244 245 244 243 242 243 245 167 88 105 134 220 
248 246 244 246 245 250 196 125 127 222 247 245 246 243 244 245 
246 246 246 245 245 244 245 245 244 242 239 212 219 245 245 244 
243 243 244 250 250 250 249 250 251 250 249 201 247 250 249 250 251 249 250 251 
251 251 250 249 247 248 250 249 242 250 248 248 248 247 248 247 
246 247 246 246 248 247 247 246 246 246 245 245 246 245 247 248 
247 246 246 245 243 243 243 243 242 242 244 231 116 127 188 248 
247 247 245 246 244 248 248 219 172 210 246 246 245 244 244 244 
245 246 246 245 245 245 244 245 244 244 241 233 208 244 245 244 
244 244 245 252 250 250 250 249 248 249 245 202 252 251 250 250 250 251 251 251 
250 250 249 250 250 248 249 249 249 249 249 249 248 246 247 248 
247 247 247 247 247 245 245 246 247 246 246 246 246 245 246 247 
247 245 247 245 244 243 244 243 243 243 243 247 213 173 238 248 
246 246 245 246 245 246 247 249 250 247 247 245 245 245 242 244 
244 245 245 246 246 245 245 246 247 245 243 240 203 247 245 244 
244 244 244 250 251 251 250 250 248 247 246 210 250 250 249 251 251 250 250 250 
249 249 249 249 249 250 249 250 250 250 250 249 249 248 248 249 
247 246 246 247 247 246 246 246 245 246 246 245 246 247 247 247 
246 246 245 244 243 244 244 243 243 243 243 244 247 240 248 245 
246 246 247 247 246 246 246 247 248 248 246 247 246 245 245 245 
243 245 245 244 246 245 246 245 244 246 243 239 215 244 245 244 
243 244 245 251 250 251 249 250 248 249 238 214 251 249 250 250 250 250 250 250 
250 250 249 250 249 250 250 249 249 250 250 249 250 249 247 248 
248 248 249 247 248 248 248 247 247 247 247 249 248 247 247 248 
247 247 246 246 246 244 243 243 244 244 244 245 247 247 247 246 
247 246 247 247 246 247 247 246 247 246 245 246 246 243 242 243 
244 245 245 245 239 244 244 245 244 245 246 236 211 243 244 245 
244 245 246 251 250 250 250 248 248 249 237 224 252 250 250 250 249 250 251 251 
250 249 250 250 249 250 250 250 250 249 249 250 250 250 249 248 
247 248 247 248 247 248 248 247 247 247 247 245 247 245 248 248 
247 247 247 245 244 244 246 247 246 246 245 246 247 247 247 246 
247 246 246 247 246 248 247 247 247 248 246 247 247 244 245 243 
244 245 245 241 241 247 245 246 244 244 245 237 197 239 246 244 
245 244 246 251 250 251 250 248 249 249 236 216 252 250 249 250 250 250 251 250 
249 247 249 249 249 247 250 249 250 251 250 251 250 250 248 249 
248 249 249 248 249 248 249 247 247 247 247 248 246 246 246 245 
245 246 246 245 244 246 246 244 245 246 244 247 247 246 246 246 
246 246 247 247 247 250 247 247 247 246 247 246 246 245 244 240 
241 244 245 246 247 246 246 247 245 247 245 243 202 239 245 244 
245 245 245 250 249 252 250 249 250 250 232 215 251 249 250 250 250 250 250 249 
249 250 249 249 250 250 249 249 249 249 251 251 250 250 250 249 
249 249 248 247 249 249 248 248 249 249 249 249 247 247 247 246 
245 246 245 246 245 246 246 247 246 247 247 247 247 247 246 246 
245 246 246 246 247 248 247 246 246 245 247 247 247 246 245 245 
246 246 245 246 246 245 246 248 246 245 245 243 206 236 245 244 
245 245 245 250 250 250 250 247 250 252 236 216 252 250 249 250 250 250 250 250 
250 251 250 250 249 249 250 250 250 251 251 249 249 250 250 249 
249 249 247 249 249 249 249 248 250 250 249 249 247 248 246 246 
246 246 246 246 246 247 246 246 247 246 246 246 246 247 247 247 
246 246 247 247 248 246 248 247 247 247 247 247 246 246 246 244 
245 245 246 247 247 247 248 246 245 246 246 244 198 238 246 246 
248 246 246 250 251 250 250 248 250 248 234 209 252 251 250 251 250 250 250 250 
250 249 249 249 249 250 250 250 249 250 251 252 251 249 249 249 
250 251 250 250 249 250 249 249 250 251 250 250 249 247 247 247 
246 246 245 246 246 246 246 245 246 247 248 247 247 247 248 247 
247 247 247 248 247 247 248 247 247 248 248 249 246 245 246 245 
246 246 246 247 249 247 247 246 248 245 246 245 196 238 246 246 
247 246 246 251 251 251 250 250 250 249 240 207 253 251 250 251 251 250 250 249 
250 248 249 249 249 249 250 250 249 248 250 252 250 251 249 249 
250 250 250 249 248 249 249 249 249 250 250 250 250 247 246 247 
245 244 245 245 247 246 249 247 247 247 248 248 249 249 247 246 
247 247 247 245 249 248 248 247 247 247 248 247 246 247 246 245 
245 246 246 246 246 246 246 247 247 246 245 241 180 240 247 247 
246 246 246 251 251 250 250 251 250 251 238 198 253 249 249 251 250 250 250 251 
251 250 250 249 250 250 249 249 250 250 250 251 250 249 250 250 
249 249 248 249 248 249 249 250 250 249 249 249 250 250 250 249 
248 246 247 246 246 246 244 247 246 247 246 248 248 248 247 246 
247 247 247 247 248 248 247 247 247 246 247 247 245 246 244 246 
246 247 246 247 248 247 246 247 247 247 246 241 179 240 246 247 
246 246 247 251 251 251 251 250 249 249 245 187 251 249 250 250 251 251 250 250 
251 248 249 250 249 249 247 250 250 250 250 251 251 249 248 248 
250 250 250 247 247 248 249 250 250 250 249 249 250 247 249 250 
250 248 248 248 246 246 245 246 246 246 247 249 249 247 248 246 
247 245 246 248 249 247 247 247 248 247 247 246 246 246 246 246 
245 247 245 247 249 247 246 246 245 246 246 243 189 243 248 248 
247 248 248 251 251 251 253 252 249 250 247 180 247 251 251 250 251 251 251 251 
250 250 250 250 250 250 251 250 251 251 250 250 250 249 250 250 
250 250 249 248 250 249 248 249 251 250 249 249 249 250 250 250 
250 248 248 248 248 247 247 247 246 246 247 248 248 248 248 247 
247 247 248 248 248 248 249 247 246 248 246 247 247 246 246 246 
244 247 247 248 248 248 247 246 247 248 244 240 192 244 248 247 
248 248 248 252 252 251 252 250 251 250 242 207 246 250 250 250 250 250 250 251 
249 250 250 249 250 249 248 251 250 249 249 250 251 250 251 249 
250 249 249 249 248 249 249 250 248 249 249 249 248 250 250 249 
249 249 247 247 248 248 247 248 248 248 248 246 247 247 247 248 
248 247 247 248 248 248 247 248 246 246 248 248 245 246 247 245 
245 247 247 247 248 248 246 245 245 245 242 238 205 244 247 248 
248 249 247 250 250 250 251 251 250 251 252 233 239 250 250 250 251 250 250 251 
249 249 250 251 250 249 250 251 251 249 250 249 249 250 249 250 
249 248 248 247 248 247 249 250 249 249 249 249 249 248 250 248 
249 250 247 249 248 249 248 247 247 247 248 247 244 246 248 247 
246 248 247 248 248 249 248 248 245 250 244 244 246 246 246 246 
245 247 246 247 248 248 246 245 246 246 247 231 204 248 248 248 
246 247 248 251 252 251 252 250 251 251 253 241 231 252 251 250 252 250 251 251 
250 250 250 249 250 248 240 198 243 249 251 250 250 250 249 249 
249 247 248 249 248 248 248 250 249 250 249 249 250 249 250 249 
249 248 248 248 250 251 247 249 250 248 249 247 246 244 247 246 
247 248 248 246 247 248 246 249 248 247 181 196 245 246 246 247 
246 246 247 248 248 248 246 246 246 246 247 215 199 249 247 248 
247 247 248 251 251 249 251 250 250 251 251 235 220 251 251 251 251 250 250 251 
250 251 251 249 251 249 239 175 216 227 247 251 250 251 250 250 
250 249 250 249 249 249 249 249 249 249 249 250 250 249 249 249 
250 251 249 250 249 247 249 249 250 249 249 247 247 245 247 246 
246 248 248 247 246 247 248 247 239 189 181 198 246 245 246 246 
246 246 248 249 249 249 246 247 247 247 244 209 214 249 246 247 
247 247 247 251 251 250 252 251 249 249 252 240 232 251 251 251 250 249 250 251 
250 250 250 250 251 251 245 189 251 232 217 214 240 250 251 251 
251 251 250 250 250 249 248 247 248 248 249 249 249 249 249 250 
250 249 248 245 249 248 246 248 249 248 249 246 247 246 246 247 
247 248 248 248 241 230 213 189 191 200 242 203 248 246 246 246 
247 246 247 247 250 248 247 246 246 246 245 190 235 247 247 247 
247 247 248 252 252 251 252 250 249 250 251 250 228 251 251 250 251 250 251 250 
250 250 251 250 251 252 249 191 252 252 247 227 207 210 225 239 
249 252 250 251 250 251 250 251 250 250 248 250 251 250 249 249 
249 250 249 249 248 248 248 248 248 248 247 248 247 247 249 247 
245 242 227 201 186 183 198 220 239 249 229 185 246 246 246 246 
247 248 248 249 248 248 246 245 246 245 241 181 245 247 248 247 
247 247 247 250 251 251 253 251 249 252 250 251 230 252 248 250 251 251 251 251 
251 251 250 250 251 249 251 210 245 250 250 252 251 245 224 199 
198 211 212 223 228 235 246 244 247 248 249 248 251 249 250 250 
249 249 250 251 250 250 251 249 248 248 249 244 243 233 218 213 
194 190 184 209 229 236 247 249 248 248 185 188 249 245 245 246 
244 247 247 248 249 247 246 245 245 243 236 186 249 247 248 247 
248 248 247 253 250 251 251 250 249 250 251 252 233 243 250 249 250 250 251 251 
251 250 250 251 251 251 250 239 226 249 248 249 250 250 251 252 
243 230 226 222 215 211 203 200 207 216 212 216 209 205 220 225 
229 222 222 215 220 218 209 199 191 196 189 191 187 192 208 225 
225 243 247 247 248 248 248 248 246 249 184 234 248 247 248 247 
244 246 246 247 248 246 246 244 245 244 231 206 249 248 248 248 
248 249 248 252 253 253 251 249 250 250 251 251 246 221 248 250 250 251 251 251 
251 251 253 252 254 251 250 253 223 251 249 249 249 251 251 250 
250 254 252 251 252 253 247 249 239 235 230 221 224 228 224 217 
213 205 206 211 203 202 212 214 220 231 230 238 244 246 248 248 
249 249 249 247 246 246 246 246 247 250 187 249 247 247 248 245 
245 247 249 247 247 247 246 247 246 244 215 240 247 249 249 249 
248 249 249 253 253 253 252 252 250 251 251 252 253 220 249 250 252 251 251 251 
250 252 250 251 251 251 252 252 243 227 251 251 252 249 247 248 
250 251 250 250 250 250 251 251 250 250 251 252 251 252 250 254 
253 252 251 251 252 251 252 251 249 249 249 249 249 248 247 247 
247 247 247 245 247 247 246 246 248 245 185 249 247 247 246 245 
246 247 247 246 246 247 246 244 243 237 210 248 247 249 248 246 
248 248 248 251 252 252 252 251 250 251 252 251 251 236 231 249 250 251 250 251 
251 251 251 252 252 252 252 251 252 223 224 249 252 251 250 250 
251 250 250 249 249 248 246 247 248 248 248 248 248 249 248 248 
249 250 249 247 248 249 248 247 247 248 248 247 247 247 247 247 
246 247 247 247 247 249 249 249 248 195 205 248 248 245 246 247 
246 247 246 245 246 246 247 246 244 225 216 247 248 247 247 247 
247 247 247 252 252 251 250 252 251 250 250 250 250 249 227 251 251 251 251 250 
250 251 251 251 251 251 250 250 248 250 184 186 218 244 252 251 
253 251 251 250 250 249 250 247 249 248 250 249 248 249 249 249 
247 248 248 248 248 247 247 246 246 247 248 249 248 246 248 247 
248 250 249 249 250 251 242 218 194 166 241 248 247 247 245 245 
246 247 248 246 247 244 247 247 243 201 233 248 247 247 247 247 
247 246 246 252 252 251 253 252 252 251 250 251 251 250 240 239 251 249 250 250 
250 250 252 252 252 250 250 250 249 251 246 196 209 187 198 217 
238 248 252 249 252 252 250 251 250 252 250 250 251 251 251 250 
251 251 249 250 249 249 249 246 247 248 248 248 249 250 249 248 
248 250 249 240 232 198 180 210 177 223 250 248 247 246 247 245 
246 246 247 246 246 246 245 246 231 201 244 245 247 248 247 247 
247 247 246 252 251 251 250 249 252 252 251 251 251 251 249 226 250 251 249 250 
251 252 251 249 250 250 250 249 250 249 252 230 238 248 229 210 
197 188 193 192 201 213 224 227 222 218 213 222 232 233 235 235 
237 235 242 246 248 248 249 247 247 249 247 248 246 248 239 226 
218 205 187 190 198 216 238 192 203 249 248 247 247 246 245 248 
247 247 246 246 246 247 248 244 203 228 248 246 246 246 247 247 
248 248 247 251 252 251 252 251 252 251 253 253 252 248 251 242 241 249 252 250 
250 251 250 251 250 250 250 250 250 250 252 253 227 237 248 248 
250 249 245 239 232 220 208 203 203 204 207 204 202 193 192 187 
185 178 178 187 189 192 197 198 205 205 196 184 178 180 192 194 
203 221 239 245 252 250 200 200 248 250 248 247 248 247 246 248 
247 244 246 248 246 248 246 234 202 245 249 246 247 247 247 247 
249 246 247 252 251 252 251 250 251 251 252 250 252 252 251 250 235 247 248 250 
252 251 251 250 251 250 251 251 250 251 252 251 252 225 239 249 
253 252 252 252 253 252 252 252 252 252 251 251 250 250 253 249 
250 250 248 243 224 209 214 205 202 207 221 227 243 246 248 248 
249 248 251 252 249 198 206 248 251 250 249 248 248 247 246 248 
249 248 247 247 246 244 248 209 226 249 247 247 248 248 250 249 
248 248 246 251 249 251 251 251 252 251 251 250 250 251 252 251 245 232 253 250 
250 250 250 250 252 250 250 251 250 250 251 250 253 250 219 238 
254 251 251 251 252 252 251 251 252 250 250 251 250 250 251 249 
248 249 249 249 249 249 250 250 251 250 249 250 251 251 248 249 
248 250 251 243 189 199 249 252 250 250 249 249 248 249 249 249 
249 248 249 249 246 247 240 191 244 247 247 247 247 248 247 249 
249 247 248 252 252 251 251 252 251 251 252 251 251 250 250 251 252 236 237 251 
252 252 251 251 250 251 252 252 251 252 253 252 252 253 246 216 
237 252 251 251 251 250 250 249 249 249 250 249 248 249 250 248 
248 248 248 248 246 246 246 247 248 249 249 248 248 249 248 248 
251 251 235 190 211 249 251 250 250 249 249 249 247 249 249 249 
250 249 248 248 247 244 211 225 248 245 246 247 247 246 247 248 
249 249 249 251 253 253 251 250 251 251 252 251 251 252 250 251 251 250 234 246 
251 251 251 251 251 250 251 250 252 251 251 252 252 252 251 246 
223 227 250 252 251 251 250 249 251 248 249 249 248 249 248 247 
246 247 248 248 247 246 246 246 247 248 249 249 249 248 250 252 
241 207 199 236 250 251 250 250 250 248 248 247 247 249 249 249 
249 249 249 246 248 201 188 247 248 247 247 247 248 248 248 249 
249 249 246 252 250 251 251 251 251 250 250 252 251 252 251 251 251 250 249 224 
250 250 250 250 252 252 252 252 252 251 252 252 252 251 251 253 
253 241 223 240 253 252 251 251 251 250 249 249 248 249 247 247 
246 246 247 247 246 246 246 246 247 246 250 251 250 250 245 212 
197 221 250 250 251 250 250 251 251 250 250 248 249 250 249 249 
249 249 247 247 238 189 246 248 250 247 247 248 249 248 247 248 
248 248 249 252 252 252 251 251 251 251 251 251 251 250 251 251 250 251 252 244 
226 247 250 252 252 252 252 252 252 252 253 251 253 253 252 252 
253 253 248 230 225 245 252 253 251 251 249 250 248 249 247 247 
245 247 247 247 246 246 248 249 249 250 251 250 244 218 191 217 
244 251 251 248 251 250 251 251 250 248 248 249 250 251 249 249 
249 247 250 248 201 246 250 249 250 248 247 249 248 250 248 248 
248 249 247 252 252 252 252 251 252 252 250 251 250 250 251 250 250 251 252 253 
238 230 251 251 251 253 252 253 254 254 252 253 253 251 252 253 
253 254 254 254 248 222 219 233 247 250 252 253 251 250 248 247 
248 248 249 247 249 249 249 249 247 238 227 209 210 226 236 252 
253 252 250 250 250 250 252 249 249 249 250 249 251 250 251 250 
248 250 248 205 235 250 250 250 250 249 249 247 249 250 249 248 
248 249 248 252 252 251 251 251 251 250 252 252 251 251 250 251 250 252 252 250 
252 233 237 252 252 252 253 253 252 253 253 253 253 254 253 253 
253 252 253 253 254 253 247 242 225 219 231 242 249 243 240 239 
242 243 242 244 237 233 226 212 199 208 222 237 250 252 252 251 
250 251 250 250 250 252 251 252 250 250 250 250 251 250 250 249 
249 248 214 224 252 248 250 249 250 250 248 249 250 251 250 250 
250 248 249 252 252 251 251 252 252 252 251 251 251 251 251 252 251 251 252 252 
253 252 237 233 252 253 253 253 253 253 253 253 254 254 253 253 
253 253 253 253 253 252 253 254 254 251 241 230 211 209 205 199 
202 196 198 206 208 213 223 235 247 252 253 253 252 251 250 250 
251 251 250 250 250 250 250 252 251 250 250 250 252 250 251 252 
252 219 220 253 251 250 250 250 250 249 249 250 250 251 251 249 
249 247 248 252 251 253 253 252 252 252 252 251 251 252 251 252 250 251 251 249 
251 251 251 235 234 252 253 252 253 253 254 253 253 254 254 253 
253 253 253 253 253 253 252 253 254 254 254 254 253 254 253 253 
250 251 250 253 252 252 253 252 251 252 252 251 251 251 251 250 
250 250 250 250 251 250 251 251 250 250 250 251 251 251 252 251 
226 220 251 250 248 248 249 250 249 249 248 249 251 250 251 250 
249 248 248 252 253 253 252 251 251 252 251 252 251 250 251 251 252 252 252 250 
251 252 251 253 235 233 252 254 253 253 253 253 255 254 252 253 
253 255 253 253 253 253 252 252 252 254 254 253 253 253 253 253 
253 253 253 253 251 251 252 251 250 249 250 250 250 251 250 250 
250 251 250 250 249 251 252 251 251 254 253 252 251 251 251 228 
222 253 250 249 250 250 251 251 250 249 252 253 249 250 249 249 
249 250 250 252 251 252 253 253 252 252 251 251 252 253 252 250 251 251 252 251 
253 251 252 252 253 243 233 250 254 252 254 254 254 254 253 253 
254 254 253 253 253 253 253 253 252 254 253 250 252 251 251 252 
252 253 253 253 249 252 251 250 250 250 250 251 248 251 250 251 
251 251 250 251 251 251 252 252 252 252 253 251 251 252 222 229 
251 251 251 249 250 250 251 251 250 250 252 250 250 250 250 247 
248 249 249 253 253 253 252 251 252 252 252 251 251 252 252 252 252 251 252 252 
252 252 252 250 251 254 249 234 247 254 254 254 253 254 253 253 
253 253 254 253 253 252 253 252 253 254 254 253 252 252 251 252 
252 253 254 254 253 252 251 251 251 249 250 250 250 250 249 251 
251 251 250 251 252 252 252 251 252 252 253 253 249 216 235 252 
250 249 251 251 250 250 251 251 251 251 252 250 252 250 249 249 
250 249 249 252 253 253 252 252 252 253 252 252 251 251 252 252 253 252 253 253 
253 253 252 252 253 254 254 252 238 241 252 254 254 254 252 252 
253 254 253 253 253 254 253 253 253 253 253 252 252 253 253 252 
252 253 253 253 253 253 250 251 251 252 251 250 250 250 251 253 
251 250 251 251 252 250 250 251 251 253 254 242 218 241 253 251 
249 251 251 251 251 251 251 252 252 252 249 251 251 251 250 250 
250 249 249 253 253 252 252 252 252 252 252 253 253 253 252 252 252 252 253 253 
253 252 252 253 253 252 253 254 253 248 239 247 254 254 254 253 
253 253 253 252 252 253 253 252 252 253 253 253 254 253 253 254 
254 254 254 254 254 254 253 252 253 253 252 252 249 250 252 251 
252 252 252 251 251 251 252 251 252 252 225 220 250 252 252 251 
250 251 251 251 249 250 250 252 251 252 251 249 250 250 250 251 
250 249 249 253 253 252 252 252 252 252 251 253 253 253 253 252 253 254 253 253 
253 253 253 253 253 253 253 254 254 253 252 236 232 245 253 252 
253 253 253 253 252 253 254 254 253 252 254 253 253 252 253 253 
254 254 254 255 253 252 254 254 254 253 252 252 251 251 251 252 
252 252 252 251 251 251 252 253 241 209 238 253 253 251 250 251 
251 252 252 252 249 250 250 251 251 250 249 250 250 250 250 251 
250 248 247 253 253 252 254 252 253 253 253 252 253 253 253 253 253 253 253 253 
253 253 253 253 253 254 254 254 254 253 254 254 250 235 235 246 
254 254 254 253 252 253 252 254 253 253 253 254 252 254 254 253 
254 254 255 255 254 254 254 254 252 252 252 252 252 252 252 252 
252 250 250 249 251 254 244 220 229 250 253 252 252 252 252 252 
251 251 249 251 250 250 250 251 251 250 250 250 251 250 250 251 
250 250 251 253 253 253 252 252 252 252 253 253 253 253 253 253 253 253 253 254 
254 253 253 253 253 254 254 254 253 254 254 254 254 254 249 234 
230 245 252 253 253 252 248 250 252 252 252 253 253 253 253 254 
254 254 255 253 254 253 254 253 253 253 253 252 251 252 251 250 
251 250 251 253 245 221 214 244 254 253 253 253 253 252 251 252 
251 248 250 250 251 251 250 250 251 250 251 251 252 251 251 250 
249 249 250 253 252 253 253 252 253 252 253 253 253 253 254 253 253 254 254 254 
252 254 254 253 253 253 253 254 253 253 254 253 252 253 253 254 
250 241 231 234 247 252 251 253 252 252 252 254 253 253 253 253 
253 253 253 254 253 254 254 254 253 254 253 252 253 253 253 254 
252 250 242 225 230 246 254 255 253 253 253 253 253 253 253 252 
251 250 250 250 249 251 251 250 252 250 251 251 251 253 253 252 
249 249 249 253 253 252 252 253 252 251 253 252 253 253 252 253 254 254 254 253 
253 254 254 253 253 254 253 254 253 252 253 254 254 253 253 254 
254 254 253 247 238 232 233 245 251 253 255 255 255 254 255 255 
254 253 254 254 254 254 254 254 254 253 253 253 254 253 251 243 
232 228 236 248 254 253 253 253 252 253 254 254 253 253 253 251 
248 250 250 251 250 251 250 250 251 251 251 252 251 251 250 250 
250 250 249 253 253 253 253 252 253 252 252 251 252 253 253 252 252 253 254 254 
254 254 254 253 254 255 254 253 254 254 254 253 253 254 254 251 
252 251 252 253 254 253 233 215 209 213 241 250 252 254 255 255 
255 255 255 255 255 255 254 254 253 251 246 240 231 228 233 237 
250 253 254 254 253 254 253 252 253 254 254 254 254 253 250 252 
250 250 251 251 251 250 250 251 251 251 252 251 251 251 252 251 
250 251 251 253 253 253 252 253 253 252 254 253 253 253 252 251 253 253 253 253 
254 254 254 254 255 254 254 254 254 254 255 255 254 254 253 252 
252 253 254 253 252 253 254 254 252 247 238 229 228 230 230 224 
237 235 233 238 230 235 231 229 232 231 237 243 249 253 254 255 
254 253 254 253 254 253 253 253 253 253 253 254 255 253 252 252 
251 251 251 251 251 251 252 252 250 252 250 252 253 252 252 250 
250 251 249 254 254 253 252 252 251 252 253 253 252 252 252 251 252 254 254 254 
254 254 254 254 254 254 254 254 254 254 255 255 254 254 254 254 
252 252 253 252 251 253 252 253 254 254 254 255 255 254 253 251 
251 250 248 249 249 248 253 254 254 254 254 254 254 254 254 254 
253 252 253 253 253 253 253 253 253 252 253 254 254 253 251 251 
250 251 251 252 251 252 252 251 251 252 251 252 253 253 253 252 
250 249 250 252 254 252 252 253 251 252 253 253 252 252 252 253 254 254 254 254 
254 254 254 253 254 254 255 253 253 254 254 254 254 254 254 254 
253 253 253 253 253 253 253 253 253 252 253 255 255 254 254 254 
254 254 255 254 254 254 254 253 253 254 253 254 253 254 254 254 
254 254 253 253 253 254 254 254 254 253 253 253 253 252 251 252 
251 250 251 251 251 251 251 252 252 251 251 252 252 253 252 249 
252 251 251 252 252 253 253 253 253 253 253 253 254 254 253 252 253 254 253 254 
254 254 255 255 254 254 253 254 254 254 254 254 254 254 254 254 
254 254 252 253 254 253 254 253 253 253 253 254 254 254 254 254 
254 254 253 254 254 253 252 253 253 253 254 253 253 254 254 255 
253 254 254 254 254 254 254 254 254 253 254 253 252 252 251 253 
252 252 252 253 252 252 251 251 251 252 252 252 251 253 253 251 
250 250 250 252 253 251 252 253 253 253 254 254 255 254 253 254 254 254 254 254 
254 254 255 254 254 254 254 254 254 254 255 255 254 254 254 254 
253 253 254 253 253 253 253 254 254 253 254 254 253 254 254 254 
253 253 253 254 254 254 254 254 254 254 254 254 254 254 254 253 
254 254 254 254 254 254 255 254 254 253 254 254 251 252 253 254 
253 253 253 252 252 253 253 253 251 252 252 251 253 253 253 252 
250 251 252 253 253 253 254 254 253 254 254 254 254 254 254 254 254 254 254 254 
255 255 255 254 254 254 254 254 254 254 254 254 254 254 253 253 
254 254 253 253 254 254 254 254 254 254 254 254 254 254 254 254 
254 253 254 254 254 254 254 254 254 254 254 254 254 254 254 252 
253 254 254 253 254 254 254 254 254 254 254 253 253 253 253 253 
254 254 254 254 253 253 254 253 251 251 253 253 253 253 252 253 
252 253 252 253 254 254 254 254 254 255 254 254 254 254 254 254 254 254 253 254 
254 255 255 255 254 253 254 254 253 254 254 254 254 254 253 253 
254 254 255 254 254 254 254 254 253 254 254 254 254 254 254 254 
254 254 254 254 254 254 255 254 254 254 254 254 254 254 254 254 
254 254 254 255 254 255 255 255 254 254 255 254 253 253 254 254 
254 254 254 253 254 253 254 253 252 253 253 254 253 253 250 252 
252 252 251 253 254 253 254 254 255 255 255 254 254 254 254 254 254 254 253 254 
254 255 254 254 253 254 254 254 254 254 254 253 254 254 254 253 
254 254 254 254 253 253 254 253 254 254 254 254 254 253 254 254 
254 254 253 254 254 254 254 254 254 254 254 254 254 253 254 254 
254 254 253 255 254 255 255 254 254 254 254 253 253 254 255 254 
254 254 253 252 254 254 253 253 253 253 254 253 253 252 251 251 
252 252 252 252 253 252 253 254 255 255 255 254 254 254 254 254 254 254 254 254 
254 254 254 254 255 254 254 253 254 254 254 254 254 254 254 253 
253 254 254 254 254 254 254 253 254 254 254 254 253 254 254 254 
254 254 254 254 254 253 254 254 254 254 254 255 254 254 254 254 
254 254 255 254 254 254 254 254 254 254 252 252 253 252 253 253 
254 254 254 254 254 254 253 253 254 253 253 254 253 252 251 251 
251 253 253 