P2
# Created by IrfanView
100 100
255
242 241 242 241 239 240 241 240 242 242 242 241 241 241 241 239 239 
239 239 241 241 242 241 239 239 242 242 242 242 242 242 243 242 
243 242 243 243 240 242 243 244 243 243 242 242 240 241 241 241 
242 243 241 243 244 244 243 244 244 244 246 245 245 246 243 245 
246 245 245 244 246 248 248 247 247 248 248 247 246 247 246 247 
244 244 244 243 242 244 243 244 242 242 243 243 245 244 245 245 
243 246 244 242 241 238 239 241 241 241 242 242 242 241 241 240 241 240 241 241 
239 241 242 242 241 243 241 242 241 242 242 241 243 242 242 242 
242 242 241 241 243 244 243 243 242 243 244 243 242 243 241 242 
242 242 242 242 243 243 245 244 243 244 244 243 244 245 243 244 
245 244 245 245 246 248 250 249 248 249 247 247 246 245 246 244 
244 244 243 246 244 244 244 244 244 243 243 243 245 245 244 244 
246 244 244 241 239 240 240 242 240 240 240 243 241 241 243 242 241 239 241 241 
239 240 242 242 241 241 242 241 242 242 242 242 241 242 242 242 
242 242 243 243 244 242 242 243 243 242 242 243 242 241 242 241 
242 241 241 241 242 242 242 243 242 242 244 245 243 245 245 245 
246 244 244 245 248 248 248 247 248 248 249 247 246 245 245 245 
246 243 243 242 245 245 244 245 245 244 244 244 245 245 245 244 
244 245 244 241 240 240 241 240 240 242 241 240 240 241 241 243 241 243 240 241 
242 242 243 242 242 242 240 241 240 241 242 241 242 242 241 242 
242 243 242 243 240 241 242 242 242 243 243 241 242 241 241 241 
242 241 241 240 242 242 242 243 243 243 242 245 243 244 243 245 
246 245 245 247 248 248 248 248 248 248 250 247 247 248 247 245 
244 244 244 244 242 244 243 243 243 244 243 245 245 245 245 245 
245 242 244 241 241 240 240 239 243 241 240 242 243 242 241 242 240 242 242 242 
242 240 241 242 240 241 242 242 241 241 242 241 241 241 242 241 
242 243 241 241 242 242 241 241 242 241 242 244 243 241 242 242 
242 243 242 243 241 242 245 242 244 244 242 245 244 246 244 244 
244 245 246 247 248 248 248 250 249 249 250 247 248 247 246 247 
247 244 245 245 245 244 245 245 246 245 246 244 244 245 245 247 
246 245 245 239 239 240 240 241 241 240 242 242 243 243 242 241 243 242 240 242 
243 242 242 242 241 240 241 242 242 241 241 241 241 241 240 242 
241 240 242 242 241 242 243 242 243 241 241 239 234 231 229 223 
224 222 222 223 227 226 228 233 239 240 241 244 246 245 245 246 
246 246 245 246 246 248 247 249 249 249 249 250 248 247 247 246 
248 246 245 244 243 244 244 243 244 244 243 244 244 246 245 245 
245 246 246 241 240 242 240 239 240 240 243 241 241 243 242 240 241 241 241 241 
242 243 242 241 240 240 240 241 240 241 240 241 240 241 241 240 
240 241 241 244 242 241 241 224 213 207 192 197 205 210 225 222 
227 229 230 225 224 212 211 221 218 209 217 216 229 239 244 247 
248 246 246 247 248 248 250 248 247 249 249 250 250 248 245 243 
244 244 244 243 244 244 243 244 244 245 247 245 245 245 245 246 
244 246 246 243 241 241 240 241 240 240 240 241 242 242 241 241 242 240 240 242 
241 241 240 242 241 240 239 240 240 240 239 240 238 241 242 241 
242 244 240 233 222 203 209 216 230 239 243 249 247 246 243 244 
244 247 244 244 244 243 244 243 243 247 238 234 225 219 217 215 
232 244 243 246 247 247 248 249 247 249 248 249 249 248 245 247 
243 244 245 244 243 244 244 244 245 245 244 246 246 246 245 246 
245 247 247 242 242 241 240 239 241 241 240 242 242 240 241 241 241 242 242 243 
241 241 240 241 240 240 241 240 239 238 240 240 241 241 240 234 
223 208 206 210 220 239 248 248 245 245 247 243 243 242 243 242 
242 242 242 242 242 243 243 242 241 240 243 243 242 246 243 231 
209 210 220 238 245 247 251 248 248 248 248 249 248 247 248 245 
245 243 244 244 244 244 244 245 243 243 244 244 247 247 246 246 
247 247 247 242 240 242 243 240 240 242 241 241 242 241 241 240 241 242 241 243 
242 241 241 241 240 240 240 241 240 238 239 242 236 215 198 168 
151 209 239 246 245 245 245 245 242 240 243 242 242 241 240 241 
241 242 242 244 241 242 242 242 242 242 242 241 243 242 243 246 
243 240 233 215 209 235 244 251 249 249 248 249 248 245 243 247 
246 244 244 244 244 242 244 243 242 244 244 244 246 246 245 246 
246 245 246 241 241 241 242 240 239 241 241 242 242 242 241 241 241 241 241 239 
241 241 241 241 241 241 240 241 240 240 240 223 184 151 134 180 
231 245 246 244 244 243 242 243 243 243 243 242 243 242 240 242 
241 242 242 242 242 243 242 242 242 243 243 242 242 242 242 243 
244 246 246 246 238 215 208 232 249 249 249 246 246 247 244 247 
246 245 243 244 245 242 243 243 243 243 245 244 246 243 245 247 
246 246 244 242 241 241 241 240 240 242 242 241 243 241 241 242 242 242 240 241 
241 241 240 241 241 241 241 241 241 238 205 147 145 177 231 246 
247 244 244 244 244 242 243 242 242 243 242 242 241 242 242 242 
242 241 242 242 244 243 243 243 243 243 243 243 242 243 243 243 
243 243 243 243 243 246 236 217 220 242 250 249 247 246 245 246 
246 244 244 243 244 244 245 243 242 244 244 244 244 243 246 246 
245 246 247 241 242 241 241 240 241 242 242 242 240 241 242 242 240 240 242 242 
239 241 241 241 242 241 241 235 212 161 141 172 225 244 245 243 
243 242 243 243 244 244 243 243 243 242 243 242 242 242 241 240 
243 244 243 244 242 241 243 244 245 244 243 243 243 244 243 243 
242 244 243 243 242 245 246 247 231 207 228 245 249 247 245 247 
246 245 245 243 243 243 244 244 243 245 247 244 245 244 243 246 
247 246 247 239 242 242 241 241 242 241 241 241 240 242 240 240 240 240 241 240 
240 240 241 240 242 237 218 148 125 149 217 243 243 243 242 243 
243 244 244 244 242 243 242 243 242 242 243 242 242 241 242 242 
241 242 244 243 242 244 243 243 243 243 243 243 243 242 243 243 
243 244 244 244 245 245 245 247 249 241 213 216 241 250 246 246 
246 245 244 243 241 242 243 243 243 243 244 244 245 246 245 247 
244 246 244 241 241 242 241 243 241 239 239 241 240 242 240 240 240 239 237 237 
238 239 241 238 236 196 125 115 152 229 242 243 240 241 242 242 
243 244 245 244 244 244 244 245 242 243 244 243 242 242 242 242 
241 241 240 241 243 243 243 243 243 244 243 242 243 243 243 244 
244 243 243 243 243 246 244 245 244 249 247 227 214 235 247 245 
244 243 243 242 241 242 242 245 244 245 243 245 245 246 245 245 
247 245 245 241 240 242 242 242 241 241 241 239 240 240 241 240 239 239 239 239 
239 240 240 235 182 143 125 194 241 244 243 242 240 241 242 243 
243 244 244 244 245 245 244 242 243 243 243 243 243 243 242 242 
240 239 240 244 242 243 243 242 242 243 243 241 243 241 244 244 
244 243 243 243 243 245 247 246 247 245 248 247 240 216 226 244 
246 243 243 242 243 242 243 242 242 244 243 244 246 245 246 246 
245 244 247 240 241 242 242 240 239 241 242 242 240 240 241 240 239 239 239 239 
239 239 230 184 156 136 213 242 244 242 241 240 241 243 243 244 
243 244 244 245 244 244 242 243 244 242 243 242 240 241 241 241 
239 238 240 243 243 242 243 242 246 242 242 242 241 242 243 244 
244 246 244 245 243 246 244 245 245 245 247 246 245 248 224 218 
242 246 243 243 244 243 245 244 243 243 243 246 246 246 245 245 
245 244 245 242 240 241 240 242 241 241 241 242 240 242 240 240 240 239 241 239 
240 229 180 170 150 198 242 241 242 240 243 242 243 243 244 244 
244 244 243 243 243 244 243 242 242 244 242 242 241 241 241 241 
238 241 241 241 241 242 243 243 242 242 243 243 244 244 243 244 
243 244 244 244 244 244 245 244 244 243 243 245 245 246 249 228 
212 243 246 243 244 242 243 244 243 241 243 244 244 246 244 246 
245 244 244 241 240 241 242 241 241 240 240 241 240 238 240 239 239 237 240 239 
227 176 156 168 228 243 240 240 241 241 241 241 241 244 243 244 
244 244 243 243 242 245 244 243 244 243 244 243 241 242 243 240 
240 240 241 242 241 241 241 243 242 242 243 244 244 241 242 242 
242 244 243 243 243 245 245 246 245 245 245 247 246 247 247 250 
225 209 239 245 243 244 242 243 242 243 243 243 244 245 244 245 
246 244 245 240 240 241 240 242 240 240 239 238 239 238 238 239 238 239 237 221 
164 153 180 223 244 243 241 241 241 240 242 241 241 243 245 244 
244 245 244 243 244 244 243 242 240 243 243 242 242 242 240 241 
241 240 242 241 241 240 242 241 243 244 243 244 243 242 243 241 
241 243 242 242 242 245 246 244 246 246 246 244 245 245 245 245 
249 238 209 238 244 243 243 243 243 242 243 244 244 244 244 244 
243 244 244 240 240 241 241 242 240 240 240 240 239 239 239 239 235 234 211 172 
160 189 223 242 244 243 241 241 241 240 242 242 241 244 242 243 
242 243 242 242 244 243 242 243 243 244 242 242 242 241 242 240 
239 241 241 240 240 241 241 241 243 243 243 243 241 242 244 244 
242 241 242 242 242 243 245 245 244 244 244 244 245 246 246 244 
244 244 229 204 239 243 243 244 242 243 243 245 244 244 244 244 
244 243 245 241 240 241 241 241 241 240 241 239 239 239 239 238 239 235 190 158 
190 221 240 242 241 239 240 241 241 240 241 243 241 242 243 245 
246 244 243 243 244 245 242 242 241 241 243 244 242 242 241 241 
241 241 241 240 239 241 240 242 241 242 242 242 243 241 242 243 
243 241 242 241 242 243 244 243 246 244 243 245 244 246 245 245 
245 244 246 231 205 238 244 241 243 244 245 244 245 244 245 245 
244 244 244 240 240 242 242 241 241 239 240 240 239 239 238 239 236 225 161 174 
216 235 240 243 242 241 243 241 240 242 242 242 241 241 244 243 
246 243 244 243 244 243 244 243 242 243 242 243 241 242 243 242 
241 242 241 240 240 239 241 242 243 243 242 242 242 240 241 242 
242 241 242 241 241 243 243 242 241 245 243 245 244 245 245 244 
243 243 244 247 220 214 245 243 242 242 244 244 244 242 243 243 
243 245 245 241 241 241 240 241 240 241 240 240 240 238 237 238 235 175 175 203 
232 241 239 240 241 241 242 242 242 242 240 241 241 241 242 245 
245 243 242 245 243 243 243 244 244 242 242 242 243 242 242 241 
242 241 241 241 240 240 241 241 243 242 243 241 243 242 240 242 
242 242 242 242 242 242 243 244 242 243 245 245 244 243 246 244 
243 244 243 243 247 213 224 246 243 244 244 244 244 244 244 246 
243 244 245 242 241 241 241 242 240 240 242 240 239 240 238 239 211 161 193 235 
241 240 241 241 239 239 240 241 240 242 241 242 242 242 242 242 
242 243 244 243 244 245 244 242 243 243 243 243 241 242 241 241 
242 242 241 240 242 242 242 243 242 242 241 242 241 240 242 241 
242 241 241 242 242 242 241 242 243 243 242 244 244 246 244 245 
245 245 243 245 243 239 198 234 243 243 245 244 243 242 243 244 
242 243 243 241 241 241 240 240 241 240 240 241 241 239 239 231 163 175 222 238 
241 237 239 239 238 239 239 238 240 240 241 241 240 242 241 241 
243 245 244 244 244 244 244 243 244 243 243 243 242 242 242 242 
242 242 241 242 242 242 241 242 242 241 242 241 241 242 241 240 
241 241 241 241 241 241 241 242 241 242 242 244 243 244 242 244 
245 247 245 243 243 243 223 184 242 242 243 245 243 243 243 243 
244 243 244 241 240 240 241 241 240 240 240 241 241 238 240 203 149 205 238 240 
240 239 239 240 239 239 239 239 239 235 236 235 232 229 237 243 
243 244 244 245 243 243 244 245 243 243 243 242 243 242 243 242 
243 242 244 242 242 242 242 242 242 242 241 242 242 241 241 241 
241 239 241 242 241 241 241 240 240 242 242 245 242 243 244 244 
245 243 245 244 245 244 242 169 241 241 243 243 243 242 243 242 
243 242 244 240 240 240 240 241 239 241 242 241 239 238 232 192 171 234 239 238 
237 238 238 240 239 239 242 240 221 159 149 140 122 141 190 242 
244 244 243 245 245 243 243 243 242 244 242 243 243 242 243 243 
241 242 242 242 241 242 242 243 243 242 242 242 241 240 242 241 
240 241 242 243 240 240 242 241 243 242 242 242 242 244 243 244 
244 243 245 243 244 245 244 189 220 241 242 244 243 243 244 243 
245 243 244 240 239 240 241 241 240 239 239 240 239 236 216 165 213 242 239 238 
239 239 238 239 241 239 238 210 118 73 85 120 161 202 211 242 
245 244 243 243 242 245 244 242 243 243 242 242 243 242 241 242 
241 242 241 243 242 241 241 242 241 241 241 242 242 241 240 239 
241 243 242 241 238 240 241 241 242 243 241 241 244 243 243 242 
243 243 246 245 242 243 243 234 189 241 244 243 242 243 244 244 
244 246 244 240 239 240 240 239 240 240 239 241 240 234 183 179 243 239 237 240 
238 239 236 240 241 217 194 109 146 170 213 228 243 243 243 242 
243 244 244 243 242 241 244 244 243 243 244 242 243 242 243 242 
242 240 241 239 241 243 242 242 242 241 241 242 241 241 241 241 
238 210 192 179 192 213 224 237 238 242 242 241 243 242 243 242 
242 245 245 245 242 241 241 245 207 223 244 245 244 243 245 243 
245 244 246 240 240 239 239 238 239 240 239 238 237 219 164 220 242 238 237 238 
238 239 240 234 181 126 131 193 231 243 243 242 243 242 241 243 
243 244 243 243 244 245 245 245 245 243 244 242 242 241 242 242 
241 242 242 242 242 242 242 243 240 241 241 243 242 241 241 241 
238 156 147 120 121 126 155 180 198 223 234 240 243 242 243 245 
242 243 245 244 242 242 242 244 238 188 240 243 243 245 244 243 
245 245 244 240 239 240 239 238 238 238 238 237 236 180 206 238 239 240 238 237 
239 242 236 128 109 184 241 243 242 241 240 240 239 239 242 243 
243 243 243 244 244 243 242 243 243 243 245 243 242 244 241 242 
243 242 242 242 242 241 241 241 240 241 241 242 243 242 240 241 
242 221 215 224 214 200 184 158 156 153 183 221 237 239 241 244 
246 242 242 244 242 243 243 243 244 201 215 244 241 245 245 243 
242 244 247 240 240 239 240 239 237 237 239 235 224 160 233 241 239 238 239 238 
239 230 163 110 214 241 243 242 242 241 242 241 240 241 243 243 
244 246 244 245 243 244 243 243 244 244 243 242 243 243 241 243 
242 242 243 242 242 243 242 243 241 243 241 241 242 241 239 240 
241 241 237 244 242 239 241 237 216 179 155 133 165 209 232 244 
242 242 243 243 242 243 242 241 244 228 182 242 243 244 243 245 
241 245 245 239 238 238 237 236 239 238 238 234 191 171 242 240 239 239 240 236 
235 165 108 207 242 239 240 240 242 244 241 240 239 239 245 245 
243 242 244 247 244 243 242 243 244 242 243 243 243 243 244 241 
242 242 242 241 242 239 240 240 242 241 242 242 243 240 240 239 
241 240 241 240 240 240 237 242 244 242 216 164 134 145 183 231 
244 244 242 242 243 244 242 243 243 246 192 228 244 244 242 243 
244 244 244 239 237 240 238 239 239 238 236 222 157 212 242 239 239 240 239 238 
207 135 198 239 240 239 238 233 228 221 198 213 204 192 206 203 
218 215 230 241 243 244 244 243 243 245 244 243 242 241 243 243 
242 242 242 243 241 243 242 241 240 241 242 242 241 241 241 242 
242 241 240 239 241 238 241 238 240 241 242 221 178 135 144 178 
231 243 243 242 243 243 242 244 244 244 232 199 243 245 244 243 
245 245 245 238 239 238 239 238 238 236 238 197 156 238 239 239 237 237 239 225 
136 209 240 239 234 222 190 123 106 118 111 101 97 96 108 99 
96 141 138 177 199 240 245 245 243 243 243 243 241 243 243 242 
243 242 241 242 240 240 242 242 241 239 241 245 242 240 240 238 
239 239 236 234 236 236 239 241 241 242 242 245 236 179 155 178 
203 245 244 243 243 243 244 242 243 242 244 173 240 245 244 243 
244 245 245 240 237 238 238 238 238 236 238 184 176 244 239 239 238 238 241 194 
155 239 233 186 150 101 80 80 73 91 86 87 92 96 105 113 
102 120 120 110 129 201 246 245 245 244 243 243 243 243 241 241 
242 242 240 241 242 242 241 242 241 239 240 223 206 212 200 192 
199 174 162 160 163 170 207 228 235 240 241 244 240 231 169 164 
173 241 245 243 244 242 242 242 243 241 244 193 223 245 244 244 
244 244 244 239 238 239 238 237 238 237 236 141 207 241 239 239 237 239 241 194 
206 241 199 115 93 63 75 79 87 102 115 120 111 128 135 140 
149 165 170 165 165 196 245 243 242 245 244 244 243 242 242 243 
241 242 243 242 240 241 240 239 241 240 225 142 124 120 125 113 
113 117 125 135 136 127 120 135 145 177 196 227 242 233 204 179 
163 237 243 243 243 242 243 242 242 242 243 221 186 247 244 244 
244 245 243 238 237 238 238 236 237 239 224 108 225 240 238 240 238 239 238 243 
239 236 170 87 71 77 95 120 136 158 177 151 173 190 226 226 
235 240 242 241 235 218 243 243 244 243 245 244 245 243 243 242 
241 241 240 239 243 242 240 240 238 201 150 96 97 103 90 100 
103 105 111 109 105 100 108 112 117 123 127 152 203 241 240 242 
225 242 244 243 244 244 242 241 242 242 244 243 169 247 244 246 
245 244 244 237 237 238 237 236 237 238 190 147 237 238 238 239 239 239 240 240 
239 237 192 113 101 117 146 210 220 234 242 247 242 245 243 246 
246 243 245 245 246 247 246 245 245 242 244 244 243 242 241 241 
241 241 240 240 241 240 239 241 238 208 147 127 153 124 114 136 
164 171 165 118 106 109 105 102 99 93 112 122 111 207 241 243 
244 244 243 242 242 243 243 242 242 242 243 244 178 238 244 243 
243 244 241 237 239 238 237 238 238 238 163 171 242 238 237 237 236 239 238 239 
235 235 223 171 195 214 227 239 243 242 243 244 243 241 242 243 
241 238 242 243 243 244 247 246 245 245 243 244 244 241 243 240 
241 241 241 241 240 241 240 239 239 243 232 230 235 218 229 232 
236 242 238 228 208 187 171 169 136 118 95 102 135 202 239 240 
241 243 244 244 244 243 244 243 244 242 242 245 212 218 246 243 
245 245 246 239 236 238 238 238 238 237 164 182 239 238 236 236 236 238 236 238 
237 234 201 186 223 241 243 241 241 241 242 243 241 240 242 241 
241 240 240 243 243 243 244 246 245 245 245 243 244 243 242 241 
241 241 241 241 241 241 240 240 240 240 242 244 242 243 242 243 
244 243 243 245 247 241 241 243 230 187 170 148 199 239 239 240 
241 241 242 242 243 243 243 244 244 242 241 243 233 204 245 242 
243 247 247 238 239 237 238 238 237 237 156 219 239 239 237 235 238 237 236 237 
238 209 187 236 217 238 239 240 240 241 241 241 241 242 241 241 
241 239 240 242 243 244 244 244 245 244 244 245 244 243 242 241 
242 242 240 242 241 241 240 241 240 241 239 241 242 242 242 242 
242 242 241 243 243 242 244 245 244 244 241 227 194 223 240 242 
241 241 240 241 243 243 243 242 243 243 242 243 240 192 246 243 
245 245 246 239 238 237 237 236 239 239 158 230 237 237 237 235 237 235 235 238 
206 174 230 241 223 229 241 240 242 241 241 243 242 242 241 242 
242 240 241 242 244 245 245 245 243 244 244 244 244 244 242 242 
241 242 242 241 242 242 240 240 241 241 242 242 241 241 241 243 
240 241 242 242 242 239 240 239 240 241 238 206 235 197 222 240 
241 242 242 242 243 242 244 242 243 242 242 243 243 185 246 245 
243 245 246 238 238 237 238 236 238 236 148 236 240 238 237 235 235 235 238 222 
147 221 235 238 239 215 239 241 241 241 242 242 242 242 242 241 
242 240 240 241 243 244 244 245 246 245 243 243 242 243 242 242 
242 243 242 242 242 241 241 240 241 241 241 242 241 241 243 243 
241 241 241 242 241 239 240 242 240 244 195 165 239 238 213 220 
241 240 242 242 244 244 243 242 242 242 240 242 241 182 241 244 
243 244 247 238 236 238 239 236 237 236 169 241 237 238 234 235 235 238 228 172 
202 240 238 237 241 217 231 239 240 240 240 242 242 241 241 242 
241 240 240 242 242 245 244 244 243 245 244 245 244 243 242 242 
242 242 242 242 241 241 241 242 240 241 241 241 242 239 239 240 
240 241 241 243 244 241 241 241 241 234 121 205 235 240 240 210 
231 242 242 242 243 243 243 243 241 241 241 241 243 186 240 243 
244 245 246 238 237 235 235 237 237 232 167 242 237 238 236 231 235 232 189 212 
234 237 237 236 240 235 208 239 239 239 240 242 241 243 242 242 
240 240 240 243 243 243 244 243 243 245 244 244 245 244 243 241 
242 241 242 241 242 242 240 241 243 241 241 241 242 241 242 241 
241 241 241 240 242 241 241 240 241 177 182 240 231 238 239 242 
204 237 243 243 243 241 242 241 242 240 241 242 242 195 237 243 
243 243 245 237 236 236 236 235 237 232 164 241 235 238 235 234 235 183 207 238 
234 238 237 239 240 239 207 234 240 238 239 242 241 240 239 242 
241 241 242 241 242 243 242 242 243 244 243 243 243 244 243 242 
242 242 241 241 242 242 240 237 240 241 240 240 240 239 241 242 
241 241 241 240 240 240 240 244 235 133 242 240 237 240 235 243 
222 204 242 242 242 242 242 242 241 241 241 240 242 196 231 243 
242 244 246 236 237 237 238 236 238 236 176 238 238 238 234 232 196 180 239 236 
238 238 238 238 237 240 227 218 240 237 240 240 241 242 242 241 
242 242 240 242 241 242 244 245 243 243 242 244 242 242 244 242 
242 241 241 242 241 241 241 241 241 241 241 240 242 242 241 242 
240 241 241 240 241 241 240 242 198 184 245 240 241 242 241 239 
242 182 241 241 241 242 243 243 242 241 240 240 242 193 228 242 
242 244 244 238 238 237 237 237 236 229 169 238 235 236 232 214 170 236 237 237 
237 237 237 235 238 239 238 208 241 240 240 240 241 242 242 242 
242 241 240 242 244 244 244 243 242 242 242 244 242 242 242 242 
242 243 240 241 240 241 241 241 241 241 240 241 240 240 241 241 
241 241 240 240 240 239 239 241 160 216 240 239 238 240 241 239 
245 189 242 241 241 241 241 242 242 241 241 240 242 196 228 243 
240 243 244 237 238 236 235 236 237 234 178 238 235 235 226 174 228 237 236 236 
236 237 235 238 237 237 238 207 232 238 238 239 239 241 242 240 
241 241 240 241 242 242 242 243 243 242 242 243 242 241 243 241 
241 241 241 242 241 241 240 241 239 240 240 240 240 239 239 240 
241 239 240 241 239 238 240 238 135 240 240 239 240 239 240 241 
240 196 223 241 242 242 241 241 241 241 241 241 243 195 224 243 
244 244 243 236 236 236 235 235 236 237 168 237 234 235 201 192 238 236 236 236 
237 237 237 236 237 237 238 213 216 238 239 239 239 241 241 241 
241 241 241 241 241 242 241 243 243 243 240 241 242 241 242 241 
241 240 239 234 240 242 240 240 240 240 239 240 240 240 240 241 
242 240 240 239 239 242 238 235 133 242 241 239 239 240 241 241 
241 211 202 242 241 242 241 241 241 239 241 241 243 189 229 244 
242 245 245 236 234 235 234 235 235 234 170 236 234 223 159 230 236 236 238 237 
236 237 236 236 237 236 237 220 201 241 240 239 239 241 242 241 
240 241 242 242 242 243 241 242 242 242 241 241 241 240 240 240 
240 240 240 238 241 240 239 240 241 239 240 240 239 240 239 240 
241 241 240 239 242 242 240 211 158 243 240 239 238 239 241 240 
242 235 178 242 242 242 241 241 239 242 241 243 244 189 231 245 
244 245 242 238 237 237 235 234 234 239 179 225 236 205 168 240 237 238 235 238 
236 235 236 236 236 237 236 219 191 242 239 238 240 241 241 241 
242 241 242 241 242 241 242 244 242 242 241 240 240 240 241 240 
240 240 239 241 241 241 240 241 239 240 241 240 240 240 240 239 
239 240 238 239 239 242 239 171 199 241 239 240 239 240 241 240 
240 237 175 242 242 242 240 241 240 241 240 241 243 185 241 244 
243 243 243 239 235 235 236 234 235 238 188 209 237 179 210 238 238 235 237 236 
235 234 235 235 236 235 236 220 188 240 239 239 239 240 241 240 
240 241 240 241 241 241 241 241 240 241 240 240 240 240 240 240 
241 240 240 240 240 239 239 240 239 240 240 240 239 240 238 239 
239 240 240 239 241 240 243 144 226 241 240 240 240 240 240 240 
240 236 179 239 241 241 240 240 240 240 239 241 244 163 241 243 
242 243 244 237 235 235 235 235 234 236 203 198 236 177 217 236 236 236 236 235 
236 236 237 235 234 235 235 223 141 214 233 234 236 239 242 240 
240 240 240 240 240 242 241 241 241 241 239 241 241 239 239 240 
239 239 239 240 240 238 239 239 238 239 239 238 241 237 239 239 
238 238 239 240 239 240 237 132 240 241 239 241 239 236 237 239 
239 240 181 228 241 241 241 240 239 240 239 240 243 159 243 243 
243 243 245 236 236 237 233 235 234 236 221 189 237 198 210 236 237 237 237 236 
237 236 236 236 235 234 232 213 174 192 184 196 222 237 242 242 
243 242 243 241 240 241 241 241 239 240 240 241 238 238 240 239 
240 240 238 238 240 239 239 238 239 238 239 238 236 238 240 240 
241 241 241 242 241 240 218 146 243 240 240 241 240 239 240 240 
238 241 201 205 241 240 240 241 241 241 239 241 243 173 245 242 
243 242 243 235 238 235 235 234 235 237 229 179 236 220 195 234 236 238 235 235 
235 235 236 236 236 236 234 210 197 244 239 215 184 195 210 220 
228 236 240 239 241 242 241 242 242 240 242 240 240 240 240 239 
241 239 240 240 241 240 240 241 239 239 239 238 238 239 241 242 
240 241 240 234 230 197 137 164 241 240 240 238 238 238 238 239 
240 241 195 212 243 240 240 241 241 237 239 240 234 185 245 243 
244 243 244 237 238 235 235 235 233 236 239 184 236 238 194 233 234 236 235 236 
236 235 236 235 234 236 229 170 233 240 237 240 241 229 215 207 
188 188 192 198 209 220 226 234 238 242 239 240 239 237 238 238 
238 241 240 240 241 242 240 240 239 238 240 235 231 225 215 210 
196 206 187 170 167 181 178 166 241 240 240 239 238 238 238 239 
237 241 184 221 241 238 240 240 239 239 240 240 204 214 244 242 
243 243 243 236 235 235 234 235 236 236 236 205 230 236 214 223 238 235 238 235 
235 236 237 233 233 234 213 122 234 239 238 237 239 240 242 243 
243 242 236 222 211 198 193 180 193 200 194 200 202 211 210 212 
198 196 193 197 203 202 188 192 194 193 196 179 183 169 167 177 
189 188 205 221 241 247 241 159 242 240 239 238 240 239 238 239 
236 236 172 228 239 239 239 240 239 239 240 241 176 234 242 243 
243 243 242 235 236 235 235 234 236 236 236 222 214 235 239 206 233 237 237 235 
234 236 236 234 235 230 180 174 186 230 240 239 237 238 238 239 
239 241 240 242 242 243 241 241 236 237 230 219 215 205 204 203 
203 198 204 197 202 215 210 209 215 226 224 220 222 234 242 244 
243 243 244 241 243 243 246 157 241 240 239 238 239 241 240 238 
236 239 149 228 240 238 239 238 239 240 240 241 169 244 243 243 
242 243 242 235 236 235 234 237 234 233 234 232 199 236 237 225 206 237 237 236 
235 234 236 237 237 192 177 238 205 181 208 231 237 238 238 238 
238 239 239 238 239 239 240 241 242 241 241 241 243 244 241 243 
241 243 241 242 244 244 242 242 242 240 241 241 243 243 243 242 
240 239 239 241 240 243 245 149 201 240 239 237 237 239 239 238 
237 235 136 238 238 236 236 236 238 238 238 238 176 245 241 241 
242 242 241 235 236 236 235 233 235 235 234 237 173 233 236 234 221 208 232 235 
235 234 237 236 205 159 225 239 239 227 196 190 205 234 235 237 
237 238 238 237 236 238 239 238 238 240 239 240 240 240 238 237 
239 239 241 240 241 239 240 239 240 239 239 241 240 239 239 241 
241 241 241 241 242 231 211 155 120 244 237 238 238 240 238 237 
238 218 159 239 236 238 238 235 237 237 237 208 209 241 241 241 
242 240 241 236 234 235 236 234 235 235 236 237 214 195 236 234 235 222 201 222 
238 237 226 189 156 214 242 236 238 240 241 233 200 193 203 226 
238 240 238 239 239 239 236 236 236 238 239 238 239 239 238 239 
238 238 238 239 237 239 238 236 238 239 240 239 237 241 242 241 
241 241 244 231 199 163 172 202 207 225 241 240 238 238 239 238 
238 168 194 237 236 236 234 237 235 236 238 177 238 240 239 241 
242 241 242 238 236 236 236 234 237 236 232 235 235 164 236 233 233 236 234 195 
197 202 151 128 215 240 238 238 236 238 239 241 244 235 214 189 
208 235 238 240 240 241 240 239 238 239 239 240 239 239 240 238 
238 238 237 237 238 237 238 238 239 239 240 238 241 242 245 242 
235 215 191 166 173 216 244 241 243 225 219 239 241 241 239 235 
205 150 226 236 236 234 236 236 237 237 238 172 244 241 242 240 
242 242 240 236 235 236 236 234 235 234 234 236 239 174 218 235 235 235 237 240 
231 196 206 218 212 241 238 237 239 237 235 239 238 239 240 238 
212 183 188 218 232 235 240 241 239 238 241 240 240 241 240 240 
239 239 240 241 240 239 241 240 240 242 244 240 241 236 198 177 
149 153 192 234 244 243 240 242 240 240 230 199 201 201 205 175 
153 217 242 237 235 234 234 234 233 236 208 207 242 240 241 240 
240 240 240 237 235 237 236 235 235 235 233 235 236 222 176 238 236 235 235 239 
239 242 242 241 179 237 239 237 237 237 238 237 240 237 237 240 
241 237 216 178 182 187 205 217 228 233 235 235 238 240 240 239 
239 239 241 236 239 240 233 233 229 228 225 224 194 158 150 190 
210 234 246 242 240 240 238 240 239 240 241 243 175 176 193 211 
236 242 238 237 230 230 230 233 233 235 168 239 239 241 238 240 
240 239 241 236 235 235 235 235 235 234 234 233 234 238 176 222 238 236 235 237 
237 237 237 238 217 192 241 238 238 237 237 238 240 238 237 241 
238 240 241 240 228 214 197 182 182 182 178 182 187 198 194 189 
192 186 180 181 173 177 178 174 169 168 171 174 188 211 228 242 
241 239 240 240 239 239 240 239 240 236 238 223 127 231 243 241 
241 238 237 239 234 233 230 233 234 220 205 243 241 240 240 240 
240 241 240 235 236 233 237 235 235 233 234 233 234 235 228 168 237 237 235 237 
237 235 237 236 240 189 227 242 237 239 238 236 239 239 236 238 
236 237 238 239 241 240 241 241 237 233 227 217 203 203 209 204 
202 210 194 217 218 224 226 231 233 237 238 239 243 240 241 241 
239 240 238 238 239 240 239 236 237 237 237 154 189 244 240 238 
236 237 236 238 236 237 236 235 234 199 239 238 240 241 240 239 
240 241 239 237 236 236 236 235 236 237 236 236 234 234 239 183 203 238 237 236 
237 236 236 237 237 237 181 232 241 239 238 240 237 238 239 239 
237 237 236 238 240 240 240 240 241 243 242 243 242 242 243 245 
241 240 239 241 240 240 241 239 241 240 240 240 239 240 238 238 
239 237 239 239 238 238 237 237 237 239 202 153 240 240 239 239 
239 239 240 240 237 235 234 234 224 205 242 239 239 241 239 240 
239 240 241 237 236 236 235 234 236 233 234 235 235 234 236 236 166 240 237 236 
235 238 237 236 238 241 225 179 231 239 238 238 238 238 236 239 
239 238 238 239 239 239 239 237 239 240 239 242 242 241 241 240 
240 240 239 240 239 239 239 241 238 238 238 239 236 236 239 240 
239 238 237 238 237 236 238 235 237 227 149 214 240 240 239 238 
239 240 240 240 239 237 234 235 198 236 239 240 240 239 240 240 
240 239 240 236 236 236 236 235 235 234 235 235 236 235 234 238 194 194 238 237 
236 236 237 236 237 238 239 225 185 231 241 238 238 237 238 239 
239 239 238 239 239 240 239 238 240 238 239 239 240 239 240 239 
240 238 238 237 238 238 237 238 237 237 237 237 237 236 236 237 
238 237 238 239 237 238 236 236 233 178 178 241 239 236 238 238 
237 238 240 240 236 235 234 227 209 238 239 240 240 241 241 241 
240 241 239 236 236 235 236 235 235 234 235 235 235 233 235 237 240 160 221 239 
237 236 236 236 235 238 237 240 224 180 229 239 239 237 236 237 
236 238 236 239 239 236 238 239 241 240 240 240 241 240 241 240 
240 240 235 236 238 238 236 237 239 237 235 238 239 236 237 235 
235 235 236 236 237 237 237 235 188 165 236 241 241 240 239 237 
238 240 240 242 236 237 239 196 235 237 239 240 240 239 239 240 
240 239 240 234 235 234 234 236 237 234 235 235 235 236 237 235 236 224 151 236 
236 235 236 235 236 237 235 235 239 228 174 221 240 237 235 236 
237 237 237 239 238 236 237 237 236 238 240 240 241 240 242 241 
241 240 240 236 236 237 238 238 236 237 236 236 236 236 237 236 
236 234 235 237 237 239 239 205 143 226 240 238 237 238 239 238 
237 239 240 239 236 237 219 215 239 239 240 240 239 239 239 238 
237 238 241 237 236 234 237 235 235 234 235 235 235 235 235 235 234 236 196 184 
239 235 236 237 234 236 235 236 235 239 233 174 212 237 237 234 
236 236 235 237 237 238 239 239 238 239 240 240 240 241 240 241 
241 241 241 238 235 235 239 237 236 237 237 234 236 237 235 235 
235 237 236 237 239 237 209 150 210 236 237 236 236 236 236 236 
237 238 240 238 235 234 203 237 239 238 239 238 239 239 239 239 
240 239 239 236 236 234 236 236 235 236 235 234 233 234 235 234 233 234 237 165 
212 236 234 236 236 235 234 235 233 234 238 225 171 207 232 234 
234 234 235 237 238 239 238 238 240 240 241 240 239 240 241 241 
241 243 240 240 235 236 237 238 235 236 235 234 236 235 234 234 
234 233 236 239 234 190 132 196 237 239 237 236 237 237 236 237 
237 236 238 238 238 205 233 239 238 240 238 238 238 239 239 238 
239 239 240 237 234 235 236 237 235 235 235 235 235 235 234 234 234 234 235 233 
150 220 235 234 235 234 234 235 236 234 233 237 234 189 191 224 
235 237 234 234 232 237 238 237 236 239 240 240 239 240 240 240 
240 240 240 239 237 236 236 235 236 236 234 235 235 235 235 233 
235 236 237 236 165 157 213 238 238 237 236 236 236 235 236 236 
237 238 238 242 223 215 241 239 239 238 239 238 238 239 238 239 
238 237 240 236 235 234 235 236 235 236 235 235 235 235 234 235 234 233 233 238 
219 157 225 234 234 234 234 233 235 235 234 234 237 236 212 171 
198 230 237 236 236 237 236 237 238 238 238 237 238 240 239 238 
238 237 239 239 237 234 235 235 235 233 234 234 233 234 234 235 
235 234 212 150 155 234 238 236 236 235 236 235 235 235 237 236 
235 235 235 228 198 241 238 238 239 238 237 239 238 239 238 239 
238 239 238 235 235 233 234 235 235 235 237 236 236 234 233 235 234 235 233 235 
237 219 169 230 236 234 233 234 234 235 234 234 235 235 235 231 
183 193 232 237 238 235 236 235 235 237 237 237 238 238 238 237 
237 234 234 234 234 234 233 234 234 233 234 235 234 233 236 237 
226 170 131 182 232 238 237 235 235 237 235 234 235 237 235 236 
234 235 234 191 238 239 238 238 240 240 238 238 239 238 238 238 
239 238 239 236 233 236 234 235 235 235 235 235 235 233 234 234 233 234 234 234 
235 237 207 160 231 236 235 232 233 233 234 234 234 235 235 239 
237 195 174 205 232 237 237 236 236 238 237 236 234 234 236 235 
235 235 234 234 234 234 235 234 234 235 234 235 236 233 225 187 
138 151 212 237 236 235 234 236 235 234 236 235 235 235 235 235 
236 235 190 228 239 236 237 238 239 237 239 238 237 236 237 236 
238 237 239 234 234 235 235 236 236 236 235 236 236 233 234 235 233 234 234 233 
234 234 237 199 171 227 235 234 233 234 233 234 233 235 234 235 
238 240 228 180 164 196 224 237 237 237 237 238 236 235 235 235 
236 235 235 234 235 235 235 234 237 235 235 232 220 187 157 164 
205 235 237 234 234 234 234 234 234 235 236 237 235 234 234 235 
231 187 218 239 238 238 237 237 236 237 238 237 237 238 237 236 
235 236 238 235 234 235 234 235 234 233 236 235 234 234 234 235 234 233 233 233 
233 232 234 239 200 150 228 232 233 234 234 234 233 235 235 235 
233 236 237 237 227 189 172 178 204 222 231 235 236 239 239 237 
235 235 236 237 236 235 235 233 229 219 186 164 152 168 202 231 
236 238 234 233 234 234 234 233 235 237 235 235 234 234 234 211 
181 218 242 237 237 238 238 237 238 237 237 237 236 238 237 236 
234 236 236 235 235 235 235 235 234 235 233 235 235 236 234 233 233 234 234 233 
233 232 233 232 239 208 161 226 233 234 234 233 233 231 233 235 
234 234 236 235 235 236 235 208 189 159 158 179 192 209 212 219 
218 221 216 206 199 185 177 159 139 129 159 207 228 237 237 237 
235 233 234 233 233 235 234 235 235 232 233 236 236 234 209 164 
225 240 238 238 237 240 238 239 237 236 237 236 236 237 233 235 
235 236 234 234 234 235 234 235 235 235 235 235 234 233 234 235 234 234 233 234 
232 233 235 235 231 237 216 154 212 235 234 234 234 233 235 234 
234 234 236 234 234 234 235 239 239 235 227 212 201 186 170 161 
151 143 152 161 170 180 186 203 218 228 239 237 234 236 236 233 
233 233 234 232 232 233 233 233 234 234 235 235 228 183 188 236 
236 236 236 236 235 236 237 236 237 237 237 237 236 236 237 235 
234 235 235 234 235 234 233 235 234 235 235 234 234 235 234 235 234 234 233 234 
234 234 232 233 231 234 238 228 159 182 228 233 233 234 233 234 
232 232 234 234 234 234 234 234 235 235 234 237 237 239 237 233 
226 228 235 238 237 237 236 236 236 236 234 236 234 233 233 233 
232 234 233 232 233 234 230 231 230 234 232 222 170 196 238 235 
236 234 237 236 236 236 237 235 236 236 233 237 236 235 235 235 
235 233 234 234 233 234 234 235 235 233 234 234 236 235 233 234 234 234 234 234 
234 234 233 234 231 229 234 237 231 189 166 209 231 231 233 233 
232 234 233 232 233 234 233 233 233 234 233 233 233 233 234 235 
234 235 235 234 233 233 236 234 234 233 233 234 233 233 233 232 
232 231 231 232 232 231 233 234 236 227 189 160 214 239 236 236 
235 235 234 236 236 236 236 237 236 236 235 236 235 235 235 236 
236 236 232 235 233 232 233 234 234 233 234 234 234 235 235 235 234 233 235 234 
234 234 234 233 235 232 231 232 234 235 225 164 181 221 232 234 
235 233 230 233 231 231 232 233 232 232 232 232 233 233 233 232 
231 232 232 231 231 234 233 232 234 233 234 234 233 233 233 231 
231 231 230 231 231 232 233 226 206 151 171 232 236 235 234 237 
236 235 236 237 235 236 237 235 237 236 236 235 236 235 234 235 
235 234 235 234 232 233 233 234 234 234 234 234 235 235 234 235 234 234 234 233 
234 234 234 232 233 233 230 230 232 230 230 231 204 167 196 224 
232 233 232 232 231 232 231 232 231 231 232 232 231 230 231 231 
232 232 231 232 232 235 234 233 232 230 234 233 233 232 232 230 
228 231 231 233 233 217 185 160 163 226 238 235 235 234 234 233 
236 236 236 236 237 236 236 236 236 235 236 236 234 237 235 235 
237 235 234 233 232 234 232 233 234 234 234 234 234 234 233 235 235 233 234 233 
234 234 235 233 232 232 229 227 230 230 228 229 231 231 182 162 
188 218 229 232 234 233 231 231 230 231 231 230 231 230 230 231 
231 231 230 231 231 230 233 231 231 230 232 230 231 231 229 232 
230 229 232 231 211 131 141 221 236 236 234 233 233 232 234 234 
234 235 236 235 236 236 236 236 236 236 237 236 235 237 236 238 
235 235 233 233 230 232 231 234 233 233 234 234 233 232 233 233 234 235 234 234 
234 235 233 233 231 231 231 229 227 226 227 225 228 229 229 227 
193 164 165 206 229 233 233 233 232 231 232 231 231 231 230 230 
230 231 229 230 231 229 232 232 230 232 229 229 232 232 230 231 
227 218 197 177 171 213 231 233 232 232 234 231 233 233 234 235 
234 235 235 235 235 236 235 236 235 235 236 237 236 237 236 234 
234 235 235 233 233 231 233 233 234 233 232 231 233 233 232 233 233 233 233 233 
233 233 234 234 233 233 229 228 229 227 228 227 227 229 229 230 
231 231 213 176 170 190 212 227 231 232 230 230 227 231 231 230 
230 230 230 230 229 230 228 231 231 232 233 234 230 231 227 211 
177 159 173 213 229 232 232 232 231 232 231 232 231 232 230 233 
234 235 234 234 236 235 234 234 236 235 234 236 234 236 236 235 
235 235 233 231 231 233 233 231 232 234 228 229 229 233 233 233 232 235 233 233 
232 233 233 233 232 231 230 228 229 229 229 228 228 226 226 228 
229 229 234 234 223 192 160 157 182 201 214 224 226 229 230 226 
230 231 231 231 230 230 228 227 227 225 223 226 209 184 173 178 
190 226 233 230 233 231 229 230 231 231 231 231 231 231 232 233 
233 233 235 235 235 233 235 235 234 235 234 234 235 236 238 236 
235 232 234 232 233 231 231 231 233 235 230 233 233 233 232 235 235 233 233 232 
233 233 233 232 231 231 229 230 229 228 229 228 226 226 228 226 
227 227 229 230 229 231 230 223 209 192 154 117 143 165 170 179 
181 188 189 205 195 194 201 182 165 151 149 136 174 209 228 233 
235 234 233 229 230 230 231 231 232 231 230 230 230 227 231 232 
234 236 233 231 234 235 235 235 236 235 237 235 233 234 235 237 
234 237 235 232 232 230 231 232 232 233 235 232 232 232 231 233 232 234 233 234 
233 232 233 233 231 230 230 230 229 229 229 230 228 229 228 227 
227 228 227 227 227 230 229 230 230 230 228 201 174 165 155 147 
133 129 133 150 156 166 177 179 192 197 207 211 230 233 236 232 
232 230 231 229 230 232 232 230 230 230 229 229 230 227 230 231 
233 232 233 234 233 233 234 234 233 233 233 236 236 234 236 235 
233 232 234 232 233 231 232 230 233 230 230 229 230 232 232 231 234 233 233 233 
233 231 231 231 233 232 230 230 228 228 228 230 229 229 229 231 
228 228 227 228 226 227 228 228 225 226 228 232 232 231 232 231 
229 231 231 232 234 234 234 233 231 229 228 230 231 232 232 231 
230 229 230 230 230 231 229 229 231 231 232 229 228 229 232 229 
229 231 232 234 231 235 235 234 234 234 233 235 234 235 236 235 
235 234 234 233 231 231 231 230 230 229 233 230 230 232 232 233 232 232 232 231 
232 230 231 230 229 231 230 230 229 231 230 229 228 228 227 228 
229 229 229 228 228 228 227 229 227 228 228 229 231 231 230 231 
232 232 231 231 231 232 232 231 231 230 230 231 230 230 231 232 
229 230 230 231 230 229 231 231 232 229 229 228 230 229 229 227 
229 232 232 231 232 234 232 232 232 233 235 233 233 234 235 236 
238 236 234 232 232 231 232 229 230 231 230 231 233 232 232 231 231 230 229 231 
232 231 231 230 231 228 229 229 229 229 228 231 230 228 227 227 
229 227 229 228 228 227 228 228 229 229 229 227 229 233 231 230 
230 229 230 231 230 231 228 229 229 229 230 229 231 231 231 231 
232 231 231 230 232 231 230 232 229 231 231 230 229 228 227 228 
228 229 231 230 232 232 232 232 233 232 233 232 234 235 233 233 
235 236 236 232 231 231 230 229 228 229 232 231 231 230 232 231 230 230 227 229 
229 229 229 231 228 229 229 227 228 228 227 226 228 228 228 228 
227 229 229 227 228 228 229 227 229 227 228 229 228 228 228 229 
230 229 231 230 229 229 228 229 230 229 229 229 229 230 231 231 
230 233 233 230 232 232 232 229 231 230 229 230 229 229 228 225 
225 228 232 231 230 233 232 232 232 233 232 232 232 233 233 234 
235 235 233 231 232 230 230 229 229 229 229 229 230 229 229 229 230 231 227 227 
230 227 229 227 229 228 228 225 228 228 227 228 229 226 228 228 
229 228 227 229 229 231 228 228 226 231 229 227 229 231 229 231 
231 230 232 229 229 230 232 231 228 230 228 231 229 229 231 232 
231 231 231 233 231 232 233 229 229 232 232 227 229 230 229 228 
227 229 231 231 232 231 232 230 231 231 231 233 233 233 233 237 
233 234 233 230 231 230 230 231 229 226 230 230 228 227 228 227 230 228 227 225 
228 230 230 229 227 228 227 228 225 227 227 227 227 227 227 225 
225 227 231 230 230 229 229 229 232 231 230 230 229 230 228 230 
229 229 228 229 231 228 228 231 230 230 229 231 231 233 232 232 
232 232 230 230 228 230 232 231 232 230 230 230 230 231 228 230 
227 227 231 231 230 229 231 230 230 231 232 234 233 232 230 230 
231 233 232 