P2
# Created by IrfanView
100 100
255
243 244 244 242 243 241 241 242 243 243 241 243 241 241 241 241 241 
241 241 240 242 243 243 242 243 244 243 243 242 243 242 244 243 
243 242 244 244 244 244 243 244 243 243 244 243 244 245 244 244 
245 244 244 245 246 245 243 242 244 244 245 243 243 243 244 242 
242 243 244 242 245 243 245 243 245 244 244 244 244 243 245 244 
247 247 245 245 246 246 244 244 244 245 244 247 245 245 244 246 
245 245 244 242 242 242 243 241 242 242 242 242 241 242 243 241 241 241 241 241 
241 242 242 241 242 242 242 242 242 243 242 242 241 242 242 243 
243 242 243 244 243 244 243 244 243 243 244 246 244 244 244 245 
246 244 245 245 246 246 243 243 244 244 245 244 244 245 243 244 
244 243 245 244 243 244 244 245 244 244 245 245 244 246 244 244 
244 245 247 246 245 244 245 244 244 244 244 245 245 246 245 244 
245 246 245 242 242 241 240 242 242 241 242 242 240 241 242 242 241 239 241 242 
242 240 242 241 242 243 242 241 242 240 242 242 242 242 243 242 
243 243 245 243 244 244 243 245 245 243 243 243 244 242 244 243 
244 243 243 243 245 246 245 243 243 243 244 244 245 243 243 244 
244 243 243 244 246 244 243 245 243 245 246 246 246 243 244 245 
244 244 246 248 245 248 245 244 245 245 245 246 247 244 245 244 
246 248 247 241 242 242 243 242 241 241 241 240 241 241 241 241 241 241 241 241 
240 240 240 242 241 243 241 242 240 241 240 241 242 242 243 242 
242 242 243 242 242 242 243 243 245 242 243 243 241 242 244 243 
244 243 244 245 245 242 245 246 244 243 244 244 244 244 242 243 
242 244 244 247 245 244 244 245 244 245 246 245 245 245 245 245 
245 246 247 247 245 243 244 245 244 246 246 244 244 245 246 244 
245 248 249 242 242 242 241 242 241 241 242 240 240 240 241 241 240 241 241 241 
240 241 241 240 241 241 242 241 240 242 243 241 241 242 242 242 
243 244 242 244 244 243 242 242 242 242 242 243 241 242 243 242 
242 241 242 242 243 244 244 243 242 242 243 244 245 245 244 245 
245 244 244 244 244 245 244 244 244 243 244 246 245 244 245 246 
247 245 247 246 243 247 245 246 245 246 246 245 245 247 247 247 
248 245 246 242 242 242 242 241 243 242 240 241 241 240 240 241 240 241 241 241 
241 241 241 241 241 241 241 240 241 241 241 241 240 241 241 240 
240 242 241 241 241 242 242 242 241 243 242 242 243 243 243 242 
242 246 245 246 244 243 242 243 242 244 244 243 243 244 243 245 
243 243 243 243 244 243 243 244 244 245 245 245 246 245 246 245 
246 244 244 244 246 247 247 245 246 246 244 244 245 247 248 247 
246 245 245 242 243 241 241 241 242 241 240 242 241 240 240 240 240 239 240 240 
241 241 240 240 240 241 241 242 240 241 241 241 241 242 242 240 
241 241 241 241 242 243 241 243 243 241 241 240 236 233 232 230 
228 228 231 233 237 239 240 241 244 245 245 243 243 244 244 245 
243 244 243 244 244 244 245 246 246 246 246 244 244 244 245 245 
246 247 246 247 246 245 245 246 246 246 246 247 246 246 248 248 
246 247 245 242 243 241 241 241 241 242 240 241 240 240 241 240 240 240 240 241 
242 240 240 240 242 241 240 240 241 240 241 239 240 241 242 241 
240 241 242 243 241 237 228 228 228 227 214 217 219 216 220 226 
222 221 225 228 230 219 220 221 223 223 231 238 245 243 245 244 
245 245 245 244 244 244 245 246 244 245 243 247 245 248 246 246 
247 248 247 247 246 247 246 247 247 245 247 249 248 248 248 248 
247 246 246 243 244 241 241 241 241 241 240 240 242 240 240 240 240 239 240 241 
240 240 240 240 240 239 239 240 242 241 238 240 239 241 241 242 
241 240 236 226 206 195 190 202 224 237 244 245 248 247 247 245 
247 246 246 248 245 247 248 245 243 238 228 228 220 221 230 239 
243 243 245 245 244 244 244 244 245 245 245 247 246 246 247 248 
247 248 246 246 247 246 245 246 247 246 246 248 248 248 249 247 
248 245 244 243 243 243 242 241 241 242 240 240 241 240 239 240 241 241 240 240 
240 240 240 241 240 238 241 240 241 238 238 238 239 240 242 242 
238 221 202 186 208 230 238 242 247 245 245 245 245 243 242 242 
243 242 242 243 243 244 243 244 244 247 247 247 249 243 231 220 
225 231 238 242 244 244 245 244 246 246 246 248 247 248 248 247 
247 248 249 248 246 246 245 247 246 247 246 246 246 247 247 248 
249 248 247 243 245 243 241 240 241 241 241 242 239 239 239 240 239 239 239 239 
241 239 241 240 239 242 239 240 240 238 241 240 241 240 234 215 
200 210 224 238 242 243 244 244 243 242 244 243 243 243 242 243 
245 244 243 244 245 244 245 244 244 242 244 243 244 244 248 247 
243 235 220 224 237 244 245 246 246 245 245 248 249 247 249 248 
248 248 249 248 248 248 247 247 248 246 248 246 247 247 248 249 
247 248 247 244 245 243 241 241 240 241 241 241 241 242 240 240 239 241 241 240 
241 240 239 240 240 239 239 237 238 239 240 241 236 206 194 208 
236 243 242 242 242 244 244 243 242 242 243 243 244 244 243 244 
245 244 245 245 244 244 246 245 244 243 243 243 243 244 244 244 
244 246 247 240 218 220 243 247 246 246 245 249 245 247 247 247 
248 249 247 248 246 248 249 248 246 246 245 248 248 247 248 250 
248 247 246 242 242 241 240 240 240 241 241 241 241 239 240 240 241 240 239 240 
240 242 239 241 240 239 238 239 239 242 243 220 183 204 235 242 
243 243 241 241 241 243 244 243 242 244 243 243 245 245 245 245 
242 245 245 245 244 245 245 245 244 245 245 245 245 244 244 244 
243 243 243 246 246 235 210 226 243 247 248 249 246 247 247 248 
248 247 247 245 247 248 247 247 247 249 249 249 249 246 247 248 
247 246 247 241 242 242 241 242 242 242 241 241 241 240 240 241 241 239 240 238 
240 240 239 239 240 240 238 239 241 230 193 177 226 242 244 245 
243 244 243 243 243 244 245 245 246 244 244 244 242 245 245 244 
246 245 248 246 245 245 245 242 246 245 244 245 245 243 245 244 
243 244 244 242 244 246 246 220 216 237 247 248 247 247 247 247 
248 247 246 247 248 249 248 247 247 247 246 248 247 249 247 248 
246 247 250 241 240 241 240 241 241 241 241 241 241 240 240 240 239 240 240 241 
242 241 240 240 240 240 241 241 220 184 202 240 243 243 243 244 
243 243 242 242 245 243 244 244 243 244 244 244 243 246 245 244 
246 247 247 247 247 246 245 245 245 245 246 245 244 243 243 245 
244 246 244 243 243 245 247 247 238 214 220 243 246 246 245 247 
247 247 246 245 247 248 246 247 247 247 247 248 248 247 247 246 
246 247 248 240 241 242 240 241 242 241 241 241 241 243 241 241 240 241 240 240 
238 240 240 238 239 241 241 207 173 222 242 242 242 242 242 242 
243 242 244 245 245 244 244 244 243 244 244 245 244 245 245 246 
246 246 246 246 245 245 245 244 245 246 244 244 244 244 245 244 
243 243 243 243 244 246 243 246 245 248 225 220 241 249 248 246 
245 248 248 246 247 245 246 247 248 246 248 248 249 247 248 248 
248 247 250 241 241 242 241 241 241 240 241 241 242 242 241 241 242 240 242 242 
240 240 241 239 240 240 197 179 235 243 241 239 241 242 241 242 
243 244 243 244 245 244 244 245 245 245 244 245 244 243 244 246 
244 246 245 245 245 245 245 244 244 245 246 245 244 244 244 244 
243 246 244 243 244 244 243 247 246 247 249 233 217 232 246 248 
246 247 248 247 248 246 246 247 247 246 248 247 248 247 249 247 
248 249 248 242 241 242 242 242 241 241 242 241 242 242 242 242 242 242 241 241 
240 239 240 241 239 197 196 243 243 242 240 240 241 242 243 242 
241 243 244 244 244 244 245 244 243 243 244 244 245 245 246 245 
245 245 245 246 246 245 245 244 246 245 245 245 244 244 245 244 
246 246 243 243 244 246 243 246 246 246 246 248 242 218 227 247 
248 246 247 247 247 247 247 247 247 247 246 247 247 247 248 249 
249 249 247 241 243 243 241 242 241 241 242 241 245 243 241 243 242 241 240 242 
241 241 242 239 190 199 241 242 242 241 242 241 242 242 242 244 
242 242 245 244 244 244 244 244 246 245 244 244 245 245 244 245 
247 246 246 245 245 244 244 245 244 245 245 244 244 244 245 244 
244 244 246 244 245 245 245 246 246 244 247 246 246 246 218 219 
247 248 247 249 249 246 246 247 247 248 246 248 248 247 248 249 
249 249 248 240 241 242 241 241 240 241 243 240 242 241 242 242 243 242 240 240 
241 241 238 195 206 245 243 241 241 241 241 241 242 243 244 243 
244 244 243 244 245 245 244 244 244 245 245 244 245 245 243 244 
244 246 245 244 245 245 245 244 244 245 245 244 244 246 244 244 
244 243 243 244 243 245 246 247 246 247 249 247 244 245 247 211 
221 246 248 250 248 247 247 247 247 246 248 248 248 248 248 249 
245 248 248 243 241 242 241 241 241 241 241 241 241 241 241 241 241 241 243 242 
242 242 205 204 242 243 241 240 241 241 240 242 242 241 244 244 
243 244 244 243 244 244 246 245 244 244 245 246 245 245 246 245 
245 245 245 245 245 244 245 244 245 244 246 244 243 244 246 242 
244 244 244 246 245 246 245 245 245 246 246 245 246 243 245 249 
218 220 246 249 248 246 247 247 248 246 248 248 247 247 248 248 
248 247 248 240 241 242 240 241 241 240 241 240 241 241 242 241 242 241 240 241 
241 203 198 239 241 241 239 240 241 241 241 241 242 243 242 243 
242 243 243 244 244 245 244 245 244 247 245 246 245 244 244 245 
245 245 244 244 244 244 245 245 244 244 245 242 244 242 245 243 
243 244 243 245 244 245 246 245 244 244 246 246 243 245 244 247 
248 215 222 248 247 246 245 246 248 247 247 247 248 247 248 245 
247 247 248 240 241 239 240 238 242 240 240 241 241 241 240 241 242 241 239 243 
215 193 244 242 242 240 242 242 242 241 241 241 242 243 243 243 
244 243 244 244 243 243 245 245 243 245 245 244 243 246 245 245 
245 244 245 244 244 244 244 244 245 246 245 243 245 244 244 244 
243 244 243 243 246 246 245 243 246 244 245 245 241 243 243 243 
247 248 203 221 248 247 247 245 248 250 248 247 248 248 247 247 
246 248 248 240 239 239 239 240 241 241 240 239 239 239 240 241 242 241 241 231 
188 238 241 240 240 240 240 240 240 240 241 241 241 242 243 242 
243 242 243 243 243 243 244 246 244 244 244 245 244 244 245 245 
245 246 245 245 244 245 244 247 245 246 245 244 244 244 245 245 
244 243 244 243 245 244 243 246 245 245 245 244 244 243 244 244 
246 247 246 198 234 248 247 247 247 248 246 248 246 247 247 247 
248 248 248 240 241 241 241 240 240 240 239 239 239 240 239 240 240 240 239 188 
226 242 239 239 240 238 239 240 241 240 240 241 241 241 242 242 
244 243 244 243 243 242 244 244 243 244 244 245 245 245 244 246 
245 245 247 245 247 245 246 246 245 246 247 243 243 243 245 244 
244 244 243 245 245 245 242 244 243 244 245 244 244 245 245 244 
245 246 248 243 193 240 247 247 246 248 248 248 247 247 247 247 
247 248 248 238 238 240 240 240 242 242 240 239 239 240 240 240 240 241 207 213 
244 242 242 240 238 239 240 239 242 240 240 239 239 244 243 241 
240 241 243 241 242 243 244 244 245 246 245 245 244 245 245 244 
245 246 244 246 246 245 246 245 246 247 247 245 243 243 244 245 
245 243 243 244 244 245 244 244 243 244 244 245 244 243 243 244 
244 247 247 249 231 206 245 249 247 244 248 247 247 247 248 247 
246 247 246 240 240 240 241 240 239 241 239 239 239 239 239 241 240 225 185 243 
242 242 240 240 239 239 238 241 241 239 239 240 239 238 234 231 
225 219 235 242 243 244 244 244 245 246 245 244 245 245 245 245 
247 246 244 245 243 246 245 245 246 247 245 245 244 244 244 244 
243 244 245 245 247 245 241 243 243 244 243 242 244 245 244 244 
246 246 247 245 249 217 217 248 247 247 248 247 247 248 247 247 
245 247 246 239 239 240 239 239 239 240 239 239 238 237 238 240 239 187 231 244 
242 243 242 240 240 239 240 237 239 240 237 238 211 185 180 189 
190 179 188 231 242 245 243 244 244 244 246 244 244 245 244 244 
246 245 246 245 244 244 244 246 246 245 244 243 244 246 244 243 
242 243 234 235 235 245 244 245 244 244 244 243 244 244 244 246 
245 246 247 245 247 249 201 236 247 246 248 246 246 247 247 247 
245 246 245 240 240 239 239 239 240 239 238 240 239 240 239 241 220 205 244 241 
240 241 242 242 238 239 239 238 240 239 235 199 188 215 231 239 
240 234 233 214 241 241 244 244 243 245 244 245 246 244 245 245 
243 245 245 245 244 245 244 246 245 245 244 244 245 244 241 242 
243 222 185 192 188 200 239 244 245 245 245 244 244 243 244 244 
245 247 245 246 245 249 231 199 245 246 247 247 246 247 247 248 
248 248 246 241 240 240 239 238 240 240 239 240 239 238 238 237 186 239 241 241 
241 242 242 242 241 240 238 239 240 240 200 183 223 241 244 243 
243 248 242 225 222 246 244 244 245 245 245 245 244 246 245 245 
244 244 244 245 245 244 244 246 246 245 244 244 244 244 241 244 
236 190 217 238 234 213 201 222 241 244 242 243 244 245 246 245 
245 247 247 247 247 248 251 208 227 247 247 246 247 247 246 248 
248 247 247 240 241 243 241 241 239 241 239 239 237 240 240 209 214 242 240 242 
241 241 242 241 243 241 241 239 240 214 184 230 242 241 240 242 
243 242 241 242 202 242 243 245 244 244 245 245 244 244 245 245 
244 247 245 247 244 245 246 245 245 245 243 241 242 245 244 236 
191 229 245 242 244 245 236 202 213 241 244 244 244 244 244 245 
244 247 246 247 246 247 247 249 194 244 247 246 247 247 247 248 
248 247 247 240 239 240 240 238 241 240 240 239 240 238 238 194 241 240 242 243 
242 242 240 243 244 241 239 237 230 192 224 241 240 240 241 240 
241 242 242 240 207 230 244 245 244 246 244 244 246 246 245 247 
246 245 243 244 245 244 244 244 243 244 244 243 243 242 238 196 
235 248 242 242 242 242 243 244 206 202 239 241 243 243 244 244 
245 245 246 248 247 246 245 249 223 216 247 245 247 247 247 247 
247 246 247 239 241 240 240 240 241 240 240 241 241 241 211 216 244 241 243 240 
241 241 242 242 243 240 240 237 189 197 242 240 239 242 242 241 
241 241 242 239 222 213 244 244 242 243 244 244 243 245 246 245 
245 242 247 243 245 245 244 245 245 245 244 243 242 243 210 224 
245 244 245 244 242 244 239 241 245 204 224 243 243 244 245 244 
245 245 243 245 246 245 244 248 250 190 244 246 246 247 247 247 
248 246 246 240 241 242 241 241 240 242 243 242 242 243 184 241 241 241 238 242 
241 241 241 242 242 241 239 233 187 234 239 236 238 238 239 239 
242 242 240 237 239 194 245 243 244 245 245 243 245 244 245 246 
245 244 242 245 245 245 244 246 243 245 243 246 243 240 208 243 
242 243 244 218 214 240 240 240 241 242 207 240 242 244 245 244 
245 244 245 246 245 245 244 244 249 219 218 244 245 247 247 248 
249 247 247 241 241 241 239 241 240 240 240 241 240 229 200 243 241 241 241 240 
240 242 243 241 241 240 237 218 197 243 239 237 228 172 160 199 
239 242 240 238 241 181 245 244 244 244 243 246 243 245 245 245 
245 245 244 245 243 246 244 246 245 244 243 243 243 230 224 244 
241 241 186 137 157 203 237 239 239 243 204 238 244 244 243 244 
244 245 245 244 246 244 244 246 246 244 192 246 245 247 247 247 
247 247 247 241 242 242 242 241 240 241 241 240 243 194 228 243 242 242 241 240 
241 242 242 241 242 241 237 194 223 243 239 237 152 112 135 155 
236 240 241 237 239 181 245 244 242 244 245 244 244 244 244 244 
245 244 246 243 243 244 244 244 244 245 244 244 242 225 236 242 
242 198 117 145 168 160 233 241 242 242 200 234 244 242 244 244 
244 246 243 245 244 244 245 246 246 240 183 242 246 247 248 248 
247 247 246 242 242 240 244 241 240 241 239 240 239 183 245 241 242 239 242 241 
241 241 241 242 240 242 234 183 239 241 239 228 114 125 157 152 
239 241 239 237 217 205 247 243 245 244 243 243 244 245 245 244 
245 244 243 244 244 244 244 245 244 243 243 245 242 209 243 243 
242 134 121 154 188 161 238 241 242 242 179 236 244 244 244 243 
244 244 243 245 245 245 246 245 245 243 197 223 246 246 249 247 
248 246 247 241 241 241 241 241 241 240 241 241 221 203 244 241 241 241 241 242 
242 242 241 241 241 238 223 192 242 238 240 236 147 130 147 197 
243 239 239 238 181 213 245 243 244 243 244 245 244 244 244 244 
244 245 244 243 243 243 243 246 245 244 244 243 240 221 242 241 
242 153 148 163 171 190 244 241 240 233 182 245 244 244 244 243 
244 245 244 245 244 245 245 244 244 247 235 200 244 247 248 247 
247 246 248 242 242 241 242 242 241 241 241 244 202 237 242 242 241 240 242 241 
241 241 241 242 241 242 220 204 241 240 240 243 214 196 210 240 
241 239 236 234 152 234 244 243 244 244 242 243 244 244 244 244 
244 245 246 246 244 244 244 245 246 244 242 242 240 228 241 241 
242 191 172 178 200 237 242 240 240 199 223 244 244 243 243 244 
244 244 245 244 244 245 246 246 246 247 246 182 238 247 246 246 
247 245 246 241 243 241 241 242 241 240 243 240 197 246 242 241 242 241 241 241 
242 241 241 242 241 241 236 207 241 241 240 241 242 243 244 243 
242 240 236 216 148 246 244 244 243 243 243 244 243 244 243 244 
244 246 245 244 243 242 242 243 244 243 242 243 241 227 243 242 
244 242 225 230 244 245 243 242 238 207 247 242 243 243 244 244 
245 244 244 244 244 245 244 247 245 245 249 198 221 246 247 247 
247 249 249 242 242 241 241 241 242 240 243 231 204 241 240 241 241 240 242 242 
241 241 242 242 240 239 244 208 238 242 240 240 240 240 243 243 
241 240 237 185 184 246 242 243 242 243 245 243 243 244 246 244 
244 245 245 244 244 243 243 243 243 242 241 242 242 231 233 242 
241 246 247 247 245 243 243 246 199 232 243 241 243 243 243 244 
245 244 245 246 244 244 244 245 246 243 246 222 201 245 247 246 
247 249 249 240 241 242 240 242 242 243 242 216 226 243 241 240 240 240 240 242 
243 242 241 241 241 241 228 179 225 242 240 240 241 240 241 241 
242 240 225 137 223 246 242 243 244 243 243 245 244 243 243 244 
244 245 244 243 244 244 243 243 243 243 242 242 242 243 226 243 
244 245 246 244 245 247 248 220 217 244 244 243 242 243 243 244 
245 243 245 244 245 245 246 247 246 246 245 240 181 243 247 247 
245 247 247 242 242 239 242 241 241 241 244 196 236 240 239 240 240 240 239 238 
240 241 242 240 241 231 180 209 203 228 241 241 241 241 243 241 
238 213 156 197 242 244 242 243 244 243 243 243 243 242 244 243 
244 244 244 244 246 244 243 243 243 243 242 242 242 243 236 233 
241 245 244 244 248 243 213 197 243 244 242 243 243 243 242 243 
244 244 242 244 244 244 243 246 246 244 246 247 181 242 246 243 
246 245 247 241 241 240 241 242 241 242 246 185 244 242 241 241 240 240 240 241 
239 240 241 240 229 187 217 239 190 191 222 234 234 233 230 218 
180 163 212 245 243 242 243 243 242 243 244 242 243 243 243 244 
245 244 243 243 245 242 242 243 243 242 242 242 241 243 244 228 
221 233 238 242 235 189 164 222 236 242 244 240 244 242 244 244 
243 242 244 243 243 242 244 245 245 246 245 244 197 225 247 247 
246 246 244 241 241 241 241 241 241 242 236 180 243 241 242 242 240 239 241 238 
240 240 242 227 185 219 243 243 240 190 210 194 191 182 173 188 
204 237 244 243 243 243 244 243 243 243 242 242 244 243 243 243 
242 243 244 244 243 244 243 243 242 243 243 242 241 244 244 243 
223 204 203 197 176 172 228 213 201 232 241 242 241 242 244 243 
242 244 243 243 244 244 244 244 246 244 244 242 220 216 246 246 
245 247 248 242 243 242 241 240 241 239 231 186 242 241 241 242 241 239 240 239 
240 243 232 190 225 244 240 242 244 211 234 237 228 226 231 244 
245 245 243 242 242 243 242 244 243 243 242 243 242 243 243 243 
246 244 243 243 243 243 242 242 242 243 243 243 243 243 245 243 
246 241 241 225 228 206 245 248 219 198 226 240 242 240 242 242 
242 243 243 244 244 244 244 245 243 242 244 244 237 207 246 244 
246 245 246 238 240 240 240 240 240 241 220 196 242 241 241 241 240 241 240 241 
239 226 186 225 245 239 240 241 242 232 197 244 244 244 243 245 
243 243 242 242 244 242 242 243 245 245 243 242 242 242 244 243 
244 243 243 242 243 243 242 244 243 244 244 244 243 243 244 244 
244 245 242 243 230 214 241 244 243 237 197 221 241 243 243 242 
242 242 243 243 241 243 243 245 242 243 244 244 243 200 245 246 
247 245 246 242 241 240 240 241 241 242 210 218 241 239 240 241 240 240 240 240 
233 181 223 246 239 239 240 241 239 242 186 242 242 244 242 242 
243 243 242 243 242 241 242 243 243 244 244 244 242 241 242 241 
241 243 243 242 243 244 242 243 243 242 244 243 243 243 243 245 
245 245 242 243 217 224 243 242 244 244 237 199 228 241 241 242 
242 242 243 243 242 243 243 243 244 243 243 243 244 192 244 245 
245 247 246 240 240 241 241 240 242 242 206 227 242 240 240 240 240 240 239 242 
196 211 245 242 238 240 240 240 242 242 181 232 242 241 242 241 
241 242 242 242 243 244 243 243 244 243 243 243 243 243 242 242 
242 240 240 243 242 242 242 243 243 243 243 243 243 242 244 244 
245 244 244 245 205 230 242 243 243 244 243 227 176 235 243 243 
242 242 242 242 244 243 243 244 242 243 241 242 245 197 246 245 
245 244 245 241 240 240 239 239 240 243 198 231 241 240 240 239 241 242 241 231 
187 241 241 238 239 239 240 240 239 241 200 212 241 241 240 241 
242 242 243 242 243 242 241 242 243 242 242 241 242 243 242 242 
243 243 242 242 243 243 243 242 242 244 243 244 243 243 244 244 
244 244 243 243 202 241 243 243 245 244 243 246 212 199 240 241 
241 241 242 242 243 243 242 242 241 242 243 243 243 200 242 246 
245 246 244 241 240 241 239 239 240 243 197 233 242 241 241 241 241 240 242 195 
216 242 239 240 239 239 239 241 241 240 223 184 242 241 240 242 
243 241 241 242 241 241 242 241 242 242 242 243 242 241 242 242 
242 242 242 242 243 243 243 243 243 243 243 243 243 243 244 244 
244 243 243 232 209 243 243 242 244 245 243 241 243 210 196 234 
242 242 241 241 242 240 242 243 243 243 243 242 244 200 246 245 
245 245 246 241 240 240 240 241 240 243 188 225 240 240 240 239 240 241 241 176 
239 239 241 240 239 240 239 240 241 240 237 179 243 242 242 241 
241 241 241 240 241 242 243 242 242 241 241 242 242 242 242 243 
243 242 242 241 243 243 242 242 243 243 243 243 243 243 243 243 
244 244 243 225 215 243 243 246 244 243 242 242 243 244 207 205 
240 243 242 241 242 242 240 241 243 241 244 243 244 204 242 246 
244 245 244 241 240 240 238 239 241 242 190 224 242 241 241 241 242 241 233 183 
241 239 240 238 237 238 238 239 240 239 237 180 241 241 240 241 
241 241 241 241 242 240 241 241 241 241 241 242 241 241 241 242 
242 243 242 241 243 242 242 242 242 242 242 244 243 243 243 243 
242 243 243 228 213 244 243 243 244 245 241 242 242 244 247 183 
215 242 241 240 242 242 242 241 241 243 243 242 237 185 240 245 
244 246 243 240 239 239 242 242 240 241 194 219 241 241 240 241 239 241 225 200 
241 240 241 240 237 237 238 238 239 240 228 175 241 241 242 241 
241 241 241 241 241 242 241 241 241 241 241 240 241 241 241 242 
242 242 242 241 241 241 242 243 243 243 242 242 241 242 244 242 
244 243 243 225 205 245 242 244 246 244 245 244 241 241 243 238 
179 237 241 242 241 241 241 242 242 241 243 245 229 178 243 243 
244 246 244 239 240 239 239 239 240 242 200 208 240 239 241 240 239 240 229 212 
241 240 239 240 239 238 238 240 239 241 207 186 241 241 241 241 
241 241 241 241 241 241 242 242 242 241 241 242 241 241 241 241 
241 240 242 243 243 241 241 243 243 243 243 243 246 242 242 241 
242 244 244 231 199 243 242 244 243 244 244 244 243 241 245 247 
187 215 241 240 242 242 243 242 241 243 242 243 216 188 241 246 
246 246 245 240 240 238 240 240 239 242 212 209 241 240 241 241 240 240 224 214 
239 240 241 240 239 237 235 240 237 240 173 211 240 241 240 240 
241 241 241 241 241 241 242 241 240 241 241 240 240 241 241 241 
240 241 240 241 241 241 242 242 243 243 244 244 243 245 245 243 
243 243 243 238 190 242 242 243 244 243 244 244 244 241 245 243 
227 184 239 241 240 241 241 242 241 241 242 244 210 188 244 245 
246 243 245 239 239 239 240 241 240 242 196 192 240 240 240 240 239 239 227 213 
241 240 241 240 240 238 235 237 237 235 147 237 241 240 240 240 
239 241 240 241 240 241 241 241 241 241 240 239 241 242 242 241 
241 241 241 241 242 243 242 241 242 243 244 244 243 243 242 244 
243 242 242 244 198 240 242 243 243 244 245 244 245 242 243 243 
245 162 237 243 241 241 241 242 241 243 242 244 203 196 243 244 
244 243 244 238 238 238 240 240 240 241 184 179 239 239 239 240 239 239 238 210 
239 240 240 240 240 238 240 239 244 182 174 236 239 243 241 240 
240 240 240 241 240 241 241 241 242 240 242 242 241 241 243 243 
242 242 242 241 243 240 243 241 242 241 242 243 243 242 242 241 
242 243 242 241 193 237 244 243 243 243 243 243 244 242 245 243 
246 179 234 243 241 241 241 242 242 242 242 243 210 199 245 243 
244 245 246 238 239 239 238 239 239 240 203 164 240 238 237 238 239 240 240 202 
242 239 238 242 239 237 239 242 221 147 198 199 221 232 240 241 
241 241 241 239 240 240 241 239 242 241 239 242 241 242 242 242 
242 242 242 242 241 241 242 241 241 242 242 241 242 241 241 241 
242 244 245 243 219 220 243 243 243 243 242 243 243 241 243 242 
243 183 223 241 241 241 241 241 241 241 243 246 189 218 244 243 
244 244 243 239 239 240 238 240 238 239 194 141 240 238 237 238 237 237 240 206 
236 240 240 239 241 241 241 224 143 213 240 221 199 190 203 233 
242 242 243 242 240 241 240 241 242 241 240 239 241 241 241 241 
243 242 241 242 241 241 240 240 241 240 241 241 241 241 242 242 
244 243 244 246 237 185 219 243 242 242 242 242 243 240 241 242 
244 183 207 242 241 239 241 241 240 242 243 242 169 232 245 244 
243 244 243 238 238 239 239 239 237 240 220 124 223 240 236 237 237 238 240 227 
215 241 240 242 241 239 212 144 159 236 240 239 241 236 216 200 
208 230 236 239 242 242 242 241 240 240 243 242 242 240 240 241 
242 241 241 240 242 241 240 240 240 240 243 242 243 243 244 245 
243 241 234 223 214 162 191 242 242 242 241 242 241 242 240 241 
243 164 241 242 241 241 241 241 241 242 242 225 170 243 244 244 
244 243 245 239 238 238 239 238 239 239 241 135 202 239 238 238 238 239 239 241 
210 228 239 240 224 182 115 205 199 211 240 240 240 241 243 237 
225 206 194 198 209 223 233 233 236 239 243 242 240 241 241 241 
242 240 241 241 242 243 244 241 240 242 242 243 244 241 236 212 
193 201 201 216 232 238 206 228 242 241 243 242 242 240 242 242 
202 198 245 243 243 242 241 241 241 243 244 203 178 245 243 243 
243 244 244 237 238 239 239 238 238 239 243 169 170 238 235 239 238 237 238 238 
235 198 196 173 166 212 175 227 236 185 232 241 239 239 239 241 
242 244 243 237 220 209 202 195 197 198 211 228 238 234 235 235 
237 242 240 240 242 239 236 233 232 225 210 207 196 180 187 198 
223 245 246 246 249 249 228 213 203 206 242 241 241 239 240 213 
184 246 244 244 243 242 241 241 242 242 245 175 192 244 243 242 
244 243 245 238 238 237 238 238 238 237 239 209 145 235 240 239 239 239 239 237 
239 240 225 220 238 245 197 217 242 219 192 233 240 240 240 239 
238 241 242 241 243 244 242 239 234 226 216 212 207 203 194 197 
192 202 198 200 203 196 194 189 196 196 204 213 224 239 245 247 
246 245 246 243 244 247 248 212 145 209 238 239 238 222 200 192 
242 243 244 244 243 242 241 240 240 244 238 160 220 243 245 242 
242 244 244 239 239 239 237 238 239 238 236 235 140 205 237 238 238 238 240 240 
239 242 242 242 242 242 210 206 238 242 210 197 231 240 240 240 
239 238 240 241 241 241 242 241 243 244 245 243 245 244 241 241 
237 235 238 232 231 240 242 241 242 242 242 243 243 243 243 242 
243 244 244 242 244 244 230 168 216 225 212 209 214 196 233 248 
244 242 243 245 244 242 240 241 240 241 218 152 240 245 244 244 
243 245 246 237 238 238 238 238 238 237 235 238 177 170 238 239 241 239 239 239 
240 241 240 240 241 240 231 188 240 241 241 218 197 223 236 241 
238 241 241 239 240 240 240 240 240 242 242 242 241 241 241 240 
241 242 241 244 243 243 244 243 240 241 241 241 241 240 241 243 
243 245 244 239 225 193 187 211 248 248 164 218 242 245 246 246 
244 246 244 243 244 243 241 242 241 243 192 180 244 242 243 243 
243 245 243 238 235 238 238 240 238 238 235 235 216 145 231 239 239 239 239 241 
239 240 239 237 241 242 241 185 238 238 240 240 230 191 184 223 
235 239 240 240 241 240 239 240 240 241 241 240 239 239 241 240 
236 240 239 239 241 242 242 240 240 241 239 240 240 241 241 243 
243 236 215 193 182 206 238 246 247 238 148 246 245 246 244 243 
242 245 245 243 245 243 241 241 240 236 156 218 243 244 243 243 
243 242 243 239 238 238 238 238 239 237 234 234 240 160 185 240 240 239 240 240 
239 241 241 238 240 241 240 198 229 240 237 241 241 238 215 192 
196 219 234 241 241 240 240 240 242 241 239 239 239 241 239 238 
240 239 239 239 240 240 241 241 239 239 239 241 241 242 242 237 
214 197 180 211 238 248 246 245 249 186 185 246 244 244 243 243 
243 245 242 243 244 243 241 241 241 217 147 239 242 242 243 243 
243 243 245 237 236 238 237 237 238 239 236 236 239 211 143 237 240 240 239 240 
239 239 239 239 241 241 239 220 192 241 237 239 240 239 241 237 
222 190 186 208 228 231 235 242 244 244 240 242 241 240 238 240 
241 240 240 239 240 240 241 240 241 241 242 245 240 225 200 178 
205 219 243 247 247 245 243 248 221 145 238 245 244 243 243 243 
243 244 244 244 243 242 241 241 243 189 187 248 244 243 242 244 
243 244 243 238 237 237 236 238 239 238 237 236 237 240 152 203 241 240 240 239 
240 238 240 239 239 239 240 234 176 239 240 240 240 240 239 238 
241 242 236 215 203 200 204 208 214 226 232 240 241 242 244 243 
242 241 241 241 242 242 244 244 242 241 238 211 170 170 209 238 
242 245 245 243 243 243 245 244 152 202 249 244 243 243 245 244 
243 244 243 244 243 243 241 241 234 149 230 245 242 243 244 243 
245 245 246 239 237 238 237 238 240 240 238 234 237 240 213 158 235 239 240 240 
239 239 240 238 239 241 240 241 196 210 241 239 240 239 239 240 
240 242 241 241 243 242 239 215 205 192 197 205 214 227 224 227 
233 234 234 239 233 231 226 216 209 197 181 182 215 236 244 246 
242 242 239 241 243 243 249 194 171 248 244 244 242 243 244 243 
244 244 242 244 244 242 244 244 190 168 244 242 242 243 244 243 
245 245 243 237 236 236 238 236 238 239 239 239 239 237 240 158 203 241 238 238 
238 240 239 239 240 240 239 238 229 171 239 239 238 238 238 239 
240 240 238 240 241 239 238 242 239 237 234 221 208 200 195 200 
192 195 198 197 191 191 195 195 212 227 232 245 245 242 241 242 
241 243 240 241 243 246 231 139 237 246 242 242 242 243 244 243 
244 243 243 244 243 243 244 237 142 221 243 242 242 243 244 243 
244 244 245 236 236 237 237 237 238 239 237 237 239 241 241 212 154 239 239 238 
237 238 239 240 240 240 237 238 240 195 209 240 239 237 238 240 
240 240 241 240 237 238 238 237 240 238 240 240 240 241 242 243 
238 239 241 240 241 241 242 243 244 243 242 242 240 240 240 241 
241 242 242 241 245 239 154 193 247 246 242 243 246 242 241 244 
244 243 242 243 244 241 243 196 148 246 242 244 243 243 242 243 
244 244 245 237 238 236 236 237 237 236 236 236 237 238 240 240 159 181 240 240 
239 238 240 239 240 239 237 238 237 233 186 233 240 238 239 240 
240 241 239 239 239 238 238 239 238 238 239 239 240 240 240 239 
242 242 241 241 242 242 242 241 241 239 239 239 240 239 238 239 
240 241 241 243 235 165 165 247 245 243 243 244 243 243 243 241 
240 242 242 243 243 246 243 142 223 243 242 242 242 242 243 243 
244 242 244 237 237 236 238 237 237 236 237 237 238 237 237 242 222 144 219 241 
237 237 239 238 237 236 238 238 238 239 209 199 239 239 238 239 
240 240 240 239 239 238 236 237 237 237 238 239 239 238 238 239 
240 238 239 240 241 240 240 239 239 239 239 239 240 238 239 240 
240 241 243 233 162 185 245 246 244 245 241 244 243 243 243 244 
243 242 243 244 244 245 192 180 245 244 243 242 242 245 245 243 
243 244 246 237 237 237 236 237 238 237 237 235 237 237 237 238 240 186 161 235 
239 239 238 239 239 237 238 238 239 240 236 185 221 239 240 240 
240 239 241 241 238 236 237 238 238 239 239 239 237 238 239 240 
239 239 238 242 241 239 240 241 240 240 239 239 240 239 237 239 
239 243 239 167 171 240 246 242 243 245 244 243 243 243 241 242 
243 243 242 243 246 225 152 240 243 242 242 243 244 241 242 243 
243 244 245 238 237 238 236 237 237 238 237 237 236 238 237 237 237 232 143 184 
236 239 238 237 237 237 237 239 239 238 240 226 181 221 239 241 
239 239 241 240 238 238 238 239 238 238 238 239 239 238 240 239 
239 238 238 241 240 240 240 240 240 239 240 238 238 239 238 240 
241 235 155 167 240 246 242 243 243 245 244 245 245 244 243 244 
243 243 244 245 249 160 212 245 241 242 244 242 243 242 244 244 
243 243 244 236 237 237 238 237 236 237 236 237 237 238 238 237 237 239 197 133 
197 238 240 235 237 236 237 237 239 239 237 237 220 182 213 239 
242 241 239 239 238 239 238 239 238 239 238 239 238 239 241 240 
240 239 239 240 240 239 240 241 240 239 239 240 239 239 240 243 
237 154 152 240 245 241 244 243 244 243 244 245 245 245 244 244 
243 244 243 246 213 171 248 243 243 241 241 243 242 243 244 243 
243 244 243 238 237 238 239 238 237 237 238 234 239 237 238 239 239 237 239 176 
131 217 240 238 237 237 238 237 239 240 238 237 240 229 191 202 
235 240 239 239 239 238 237 239 238 238 238 237 238 239 240 240 
239 240 240 241 241 238 239 240 242 240 239 240 240 242 244 220 
142 170 241 244 241 242 243 243 242 244 242 244 246 244 243 243 
242 242 246 222 159 244 247 244 243 244 243 243 242 242 242 242 
244 243 241 237 237 238 239 237 237 239 237 239 237 238 238 239 239 241 242 229 
162 132 223 238 238 236 235 237 239 237 236 237 238 242 236 201 
186 226 241 242 240 240 239 239 238 238 238 239 238 239 240 238 
239 239 240 240 241 241 241 241 240 240 240 242 242 239 183 130 
191 243 245 243 243 243 242 242 242 243 244 244 244 244 244 243 
244 248 214 144 232 246 244 244 244 243 243 242 243 244 244 242 
243 242 244 238 237 236 235 235 238 237 236 237 237 238 238 238 236 238 239 242 
216 127 136 223 239 238 237 239 239 238 238 237 239 238 240 240 
215 186 204 232 239 242 240 240 239 237 238 239 240 238 240 238 
240 241 240 239 240 239 240 241 240 242 243 242 219 139 155 225 
242 242 241 242 241 241 242 242 243 244 244 244 244 243 243 244 
247 223 146 221 248 244 245 244 242 241 243 242 242 243 243 246 
243 243 242 238 238 238 238 237 238 238 238 237 239 236 238 239 239 239 237 239 
240 198 128 153 224 237 238 238 237 238 237 236 237 236 238 240 
240 239 214 186 199 223 237 238 240 240 238 239 240 239 238 238 
237 240 239 239 238 239 239 243 244 242 233 176 133 191 239 242 
242 240 240 242 240 242 242 241 242 242 243 241 240 243 244 247 
213 155 231 251 245 246 246 245 244 243 243 243 242 242 245 245 
244 244 243 234 234 238 239 239 236 238 237 238 237 238 236 238 238 239 238 236 
237 241 232 195 161 220 236 239 237 238 237 236 236 235 237 237 
238 239 242 239 222 197 192 204 225 234 238 240 240 241 240 241 
239 240 239 239 239 239 241 241 231 188 141 148 226 244 241 241 
241 240 241 241 241 242 242 243 241 240 242 241 241 244 247 219 
158 232 251 245 245 246 245 248 245 243 244 243 242 243 242 241 
244 244 244 238 238 237 237 239 238 235 236 237 237 235 237 237 237 237 236 236 
236 238 237 239 200 162 215 236 239 236 237 235 236 238 237 238 
237 238 239 239 243 243 239 208 189 186 198 216 226 236 239 238 
240 241 240 240 241 241 233 178 148 157 217 238 243 242 241 241 
239 241 240 240 241 240 242 241 242 240 241 242 244 247 203 169 
238 250 247 246 244 246 247 247 246 244 243 243 243 243 243 243 
243 243 244 237 238 240 238 239 238 238 238 236 236 236 236 237 236 237 237 237 
237 236 234 235 241 214 159 210 237 241 238 237 239 236 239 238 
238 239 237 238 239 239 241 242 241 234 218 201 191 187 192 205 
209 219 215 213 204 173 148 182 226 242 242 242 241 239 239 240 
239 241 239 240 241 241 241 240 241 242 246 247 240 201 177 240 
248 245 246 246 245 246 244 247 246 243 243 244 241 241 241 243 
243 244 246 238 237 238 238 238 237 238 237 238 238 237 237 236 237 237 238 238 
237 237 235 234 238 239 221 164 193 236 236 237 236 237 236 238 
237 236 238 236 238 240 241 240 239 241 243 244 241 240 225 223 
214 202 197 193 201 210 232 243 244 242 240 240 241 240 239 239 
240 240 240 240 240 240 238 241 242 243 244 227 153 184 243 246 
245 244 244 245 244 244 245 246 246 244 242 242 242 242 242 242 
243 244 243 236 236 237 237 235 235 237 236 236 237 238 238 237 238 237 238 236 
237 236 236 234 235 236 237 232 179 163 219 235 237 235 238 237 
237 237 237 237 236 238 238 237 238 239 240 240 241 241 242 242 
242 244 242 241 243 243 243 242 241 242 239 240 240 239 239 239 
240 241 238 238 240 240 241 242 244 238 202 168 214 248 246 244 
243 243 245 245 243 245 245 245 245 245 242 242 242 242 242 241 
243 243 243 236 237 237 237 238 238 238 237 238 235 237 236 236 237 237 238 237 
235 236 236 236 235 235 235 238 240 202 150 192 233 237 238 238 
238 237 239 238 238 238 239 239 237 237 239 239 239 241 241 239 
240 238 240 240 241 239 238 240 241 240 240 239 239 238 239 239 
240 240 236 236 238 241 242 240 221 168 180 237 246 245 241 242 
242 243 245 244 244 245 245 244 246 246 242 240 241 241 241 241 
242 242 242 237 237 237 236 235 235 234 236 236 237 237 236 238 236 237 238 239 
237 235 236 237 235 236 235 236 237 239 224 175 173 222 236 238 
240 237 237 239 236 237 238 238 238 237 238 237 238 240 240 240 
240 239 237 237 240 239 239 240 241 241 241 240 240 238 239 238 
237 237 239 237 241 239 230 190 153 206 244 246 244 243 242 242 
242 244 245 242 242 243 242 244 245 245 244 241 242 241 241 241 
241 240 241 239 237 235 235 233 234 235 235 234 236 235 236 237 236 235 236 237 
237 236 236 236 234 233 234 234 234 235 239 236 210 161 186 229 
237 240 238 237 239 237 239 239 238 238 238 238 239 239 240 240 
240 240 238 237 240 239 241 241 240 239 240 239 239 237 236 237 
240 239 239 240 233 193 153 188 234 245 243 242 240 241 241 242 
242 242 242 242 243 242 242 243 243 243 243 241 241 241 239 239 
239 241 239 235 235 234 235 232 235 237 234 236 234 235 235 235 236 236 236 237 
237 237 235 236 234 235 235 233 234 234 237 235 237 232 203 168 
206 227 231 234 235 238 239 236 235 238 236 236 238 238 238 236 
237 237 237 240 240 239 237 239 238 237 238 237 237 237 239 241 
241 240 233 213 168 167 228 241 242 241 241 241 240 240 240 240 
241 242 241 241 241 241 241 241 242 243 242 241 241 240 240 241 
240 239 240 235 235 235 234 235 233 233 233 233 235 235 236 233 234 236 237 236 
236 236 234 235 233 235 235 234 235 233 234 234 235 236 238 222 
194 172 194 232 236 236 235 236 236 236 235 236 236 236 235 235 
236 236 236 234 237 237 237 238 237 237 238 239 239 240 242 236 
226 198 170 196 230 245 241 240 240 240 241 239 238 239 238 239 
240 239 239 239 241 242 241 241 242 242 241 242 241 241 241 239 
238 239 239 232 233 235 231 234 235 234 232 232 232 234 233 235 235 233 234 235 
235 235 235 234 235 233 234 234 232 232 233 235 233 233 235 237 
239 235 197 201 220 230 233 238 237 235 236 234 235 235 235 235 
236 238 235 236 237 237 239 239 239 238 239 239 236 228 203 164 
165 204 234 242 242 243 242 239 241 239 240 239 239 238 239 239 
240 238 239 240 239 239 238 240 241 242 241 240 241 240 240 239 
239 237 239 234 234 234 235 234 235 234 232 233 234 234 233 233 234 234 234 235 
237 236 235 235 231 233 233 235 236 234 233 233 233 232 233 233 
234 236 238 225 212 196 197 212 220 233 236 236 235 234 235 236 
233 236 238 240 237 235 234 233 230 228 208 186 176 175 199 229 
244 241 241 241 239 239 241 239 236 238 240 240 237 238 237 238 
237 239 238 238 239 238 239 240 240 242 240 238 241 239 238 238 
239 240 239 233 233 233 233 233 232 232 232 231 232 232 234 232 233 234 233 235 
235 235 237 235 233 233 233 234 233 234 234 232 231 233 233 232 
232 235 234 235 236 238 230 213 199 198 190 199 205 206 209 205 
211 208 206 192 193 198 193 175 169 190 194 223 236 240 243 240 
241 241 238 236 238 237 239 238 239 242 240 238 239 237 237 236 
237 238 238 237 239 240 237 238 239 240 237 238 239 240 238 236 
239 238 241 232 233 233 231 233 234 233 232 233 232 232 232 233 232 232 233 234 
233 236 235 235 236 233 233 235 233 232 230 231 233 233 231 234 
233 232 234 234 233 234 236 237 237 237 233 226 215 206 200 203 
198 193 198 204 211 218 228 234 239 240 240 242 240 238 238 238 
237 238 238 238 238 237 237 240 241 240 236 236 236 237 237 237 
236 235 237 235 236 236 238 235 237 238 238 238 238 238 240 238 
238 236 238 233 232 231 233 233 231 231 232 232 232 231 232 232 231 233 232 233 
233 233 235 235 235 235 233 234 232 230 231 230 232 229 231 232 
233 232 231 230 232 231 232 232 234 232 234 236 238 235 236 237 
236 235 235 237 238 240 237 238 238 239 237 234 235 235 238 235 
238 237 236 237 236 238 238 240 239 238 236 236 235 237 236 237 
236 235 235 235 236 235 234 236 237 235 235 237 235 236 236 236 
235 236 237 231 232 232 232 230 231 232 231 232 232 232 232 231 230 232 230 232 
231 232 234 234 235 235 233 233 230 230 230 231 230 231 231 232 
232 231 231 232 232 231 231 232 232 234 233 233 233 234 234 233 
234 236 234 237 237 235 235 236 235 235 235 234 234 236 236 237 
236 237 236 236 238 238 240 239 239 236 236 237 235 235 236 236 
235 235 235 235 234 234 233 234 234 237 235 234 235 234 235 235 
238 235 236 232 231 231 230 230 230 232 231 231 230 231 231 230 230 230 229 229 
230 231 229 231 233 232 232 231 230 231 229 227 228 229 229 229 
231 232 233 231 232 233 233 233 232 229 232 233 233 233 233 232 
233 232 232 232 233 234 234 234 233 233 232 233 235 234 234 234 
236 235 235 235 234 238 237 240 238 237 237 235 235 234 234 234 
235 234 236 235 234 232 234 234 234 234 234 236 235 235 235 234 
234 234 237 230 230 232 231 231 230 231 232 231 230 230 230 232 232 229 229 231 
230 229 231 231 231 229 228 229 231 228 229 229 230 228 229 229 
230 232 232 231 232 231 232 231 233 232 232 231 229 232 232 231 
233 233 233 232 232 231 233 232 233 232 232 233 233 233 233 233 
233 235 235 233 232 232 237 236 238 236 234 234 236 236 235 235 
233 234 234 235 234 234 234 234 235 234 235 234 234 233 233 234 
235 236 235 