P2
# Created by IrfanView
100 100
255
221 220 220 218 220 224 222 222 223 223 222 223 222 219 221 222 221 
221 221 220 221 221 223 223 223 224 224 224 224 224 222 223 224 
225 225 224 225 225 226 224 224 224 224 223 224 222 224 226 225 
225 224 223 225 227 223 225 224 224 223 223 224 222 226 226 226 
226 226 226 226 227 225 224 227 226 225 228 226 227 227 227 227 
227 227 227 226 227 226 227 227 226 226 226 226 226 225 226 225 
225 224 226 220 221 222 220 222 222 222 222 222 222 221 222 222 221 222 223 221 
223 221 221 223 222 222 222 223 224 224 224 222 222 225 224 223 
224 225 225 223 224 224 224 225 223 223 226 224 224 224 223 225 
225 225 225 223 226 226 224 224 223 223 222 224 224 225 227 226 
226 226 227 224 225 223 224 228 228 227 226 227 228 227 228 226 
228 228 228 228 228 227 227 226 227 225 228 228 228 227 227 226 
226 226 226 220 220 221 222 221 222 221 221 223 222 222 223 222 222 222 221 222 
222 223 219 222 222 220 223 223 224 224 222 224 224 223 225 225 
224 223 223 223 223 224 224 224 224 223 223 222 224 224 224 225 
223 224 223 225 225 223 225 224 223 225 223 224 225 226 226 225 
225 226 227 227 226 225 224 225 226 227 228 228 228 229 228 229 
228 228 228 228 227 227 226 227 227 228 230 226 227 225 226 225 
226 228 226 223 223 222 222 224 222 222 223 222 220 222 223 222 222 223 223 222 
222 224 223 222 221 221 224 224 224 226 223 223 224 224 223 224 
223 224 225 225 223 223 223 224 223 223 224 223 223 224 224 225 
226 224 225 225 224 224 224 224 224 225 222 223 227 226 226 226 
226 225 228 227 228 226 225 226 228 229 228 227 228 226 228 227 
226 228 228 228 227 228 228 227 227 228 228 228 228 227 227 225 
227 226 225 223 220 223 223 223 222 221 222 224 223 223 222 221 222 223 221 222 
222 221 224 221 221 223 225 224 222 223 221 223 223 224 223 225 
223 224 224 223 223 222 223 222 222 222 221 222 222 223 223 223 
221 223 224 225 224 225 223 225 224 224 224 224 225 226 226 227 
228 228 226 228 228 228 227 227 229 228 228 229 228 228 227 228 
227 226 227 229 228 228 227 227 227 227 228 229 228 228 227 226 
225 226 226 223 223 223 224 223 223 223 223 224 223 221 223 224 223 222 223 223 
223 222 220 222 223 223 224 225 225 224 224 223 224 224 225 224 
223 223 223 223 223 222 224 223 222 222 223 222 222 223 223 223 
224 222 222 224 224 223 225 220 222 224 226 225 226 226 225 227 
225 225 227 226 226 226 227 227 226 226 228 227 229 227 228 227 
227 228 231 228 229 228 228 229 228 228 228 228 228 228 228 225 
227 226 226 223 224 222 224 224 222 223 223 223 224 224 223 224 224 224 224 223 
223 223 223 222 225 226 224 225 223 224 225 224 224 224 223 223 
223 223 223 222 223 223 225 224 223 222 222 222 223 222 224 223 
222 222 222 226 223 225 223 225 223 224 225 224 226 226 227 226 
227 227 225 226 227 227 225 227 227 226 227 228 229 229 228 230 
229 228 229 228 228 228 227 227 228 228 228 228 228 228 227 226 
226 226 226 222 223 224 223 223 223 223 224 223 222 223 223 224 224 224 224 223 
222 223 224 224 222 223 224 225 223 224 226 225 224 222 223 222 
222 223 224 222 222 223 223 225 223 222 220 220 221 221 222 223 
223 221 222 224 223 224 221 224 220 223 225 224 225 226 225 225 
226 225 228 227 225 227 227 226 226 226 227 228 230 229 228 229 
228 229 228 229 229 229 228 227 228 229 229 228 229 224 227 228 
229 228 227 223 223 222 223 224 226 224 224 224 223 224 222 224 224 224 225 224 
227 223 225 225 225 225 225 225 226 225 225 222 222 225 224 223 
224 223 223 226 223 224 225 224 222 221 221 223 222 226 223 224 
224 222 224 223 225 222 223 225 222 224 225 224 225 227 228 227 
226 227 226 225 226 227 227 228 226 228 228 228 226 229 229 229 
228 229 229 230 230 231 230 226 229 228 228 229 231 228 227 226 
228 224 226 224 225 226 224 224 222 223 224 224 225 223 226 226 224 225 223 225 
222 226 226 224 224 225 225 225 224 225 223 225 226 226 225 225 
226 225 226 225 224 224 222 223 223 225 224 222 217 216 214 210 
194 192 188 182 172 175 178 175 191 201 209 214 221 226 227 228 
229 227 227 227 227 226 228 229 226 228 230 230 229 229 230 228 
228 230 230 230 227 227 229 229 229 228 229 230 231 228 226 229 
227 227 228 225 224 224 224 224 224 226 224 224 226 226 225 226 226 224 226 226 
228 225 224 227 226 225 226 225 224 225 225 226 225 225 226 226 
229 227 226 225 225 225 225 226 226 214 200 180 169 167 181 179 
187 198 208 200 209 210 213 205 195 190 179 169 164 175 188 207 
218 227 228 228 227 226 226 229 229 229 228 229 229 229 229 228 
228 230 230 230 230 229 229 229 231 230 229 230 232 229 227 227 
227 227 227 223 224 224 224 224 226 224 223 225 225 224 228 226 225 226 225 225 
224 227 227 226 228 225 226 227 226 225 226 228 227 227 225 227 
227 229 227 225 226 229 224 186 172 157 176 200 207 223 227 231 
226 226 225 226 225 226 226 226 227 231 229 232 231 223 201 169 
156 175 208 230 229 229 227 227 228 227 227 227 229 229 229 229 
230 229 232 230 231 231 230 230 230 231 232 230 233 230 228 229 
229 230 228 224 225 226 223 224 224 223 224 225 225 227 224 224 225 227 226 226 
227 226 225 226 226 227 227 227 226 227 227 228 228 226 226 228 
227 226 230 228 215 188 166 178 206 224 225 223 224 225 222 222 
223 224 224 221 223 226 224 224 226 226 227 229 228 231 232 232 
229 205 175 174 212 227 230 227 230 227 229 228 229 229 230 232 
231 231 231 229 229 231 231 232 230 231 231 227 230 228 229 230 
229 228 228 223 223 223 223 223 223 222 225 225 225 225 227 227 227 226 227 227 
226 225 227 227 229 226 226 226 226 226 227 226 225 225 226 227 
229 227 213 186 173 206 222 227 229 226 226 225 225 225 224 224 
224 224 224 223 222 223 223 225 225 226 227 227 228 229 229 229 
230 234 234 227 196 185 201 216 225 231 230 227 228 229 230 229 
232 231 231 231 232 230 231 231 229 230 228 230 233 231 229 229 
230 229 229 224 223 225 225 227 223 223 223 225 226 226 227 226 226 228 226 227 
227 227 226 226 227 225 225 227 226 229 227 226 227 227 226 228 
213 181 177 207 230 229 227 226 225 226 224 225 225 224 225 224 
223 226 225 226 225 226 226 225 227 228 227 228 228 229 228 228 
229 227 227 231 230 229 196 165 195 225 230 229 229 228 228 227 
226 230 232 231 231 230 232 232 232 230 230 230 230 229 230 231 
230 231 228 223 224 224 225 223 224 223 224 225 226 226 225 227 227 227 226 226 
227 227 226 227 226 226 227 225 226 226 227 226 227 229 221 183 
163 209 228 229 226 226 224 225 226 226 227 226 225 227 227 224 
227 226 227 227 227 228 226 226 226 227 229 227 228 228 229 230 
227 229 229 229 229 230 233 227 189 161 200 222 229 229 229 230 
230 231 231 231 232 231 234 233 234 230 231 230 231 231 229 230 
232 231 230 225 226 226 225 226 226 227 225 227 226 226 227 228 227 227 227 226 
227 229 226 227 226 226 225 226 228 226 224 228 229 210 157 189 
221 227 227 227 226 225 226 225 227 225 228 225 225 226 226 227 
226 227 227 227 228 227 228 230 229 229 228 229 229 229 229 228 
230 229 230 229 230 230 231 230 230 224 169 187 221 228 230 229 
228 229 230 230 232 233 233 232 233 231 231 228 229 232 230 231 
232 231 233 226 227 225 226 226 226 226 226 227 227 226 226 225 227 227 229 226 
227 229 224 226 226 225 227 227 228 227 228 226 200 154 198 229 
227 225 225 227 226 226 227 228 228 227 227 227 228 228 226 227 
228 228 227 228 226 229 228 228 228 229 230 229 229 229 226 229 
229 230 230 229 228 230 228 227 230 232 233 201 177 216 227 229 
229 230 232 231 232 233 233 232 230 232 231 232 230 230 231 233 
232 232 234 226 226 227 226 227 227 227 227 227 227 227 227 230 228 228 229 229 
228 227 225 225 225 226 226 226 227 228 220 170 168 216 230 228 
227 227 225 225 225 228 227 227 229 228 228 228 228 226 228 229 
229 228 229 228 228 229 230 228 228 228 230 230 229 229 229 230 
229 231 231 229 229 231 231 228 229 229 228 232 213 173 207 227 
230 229 230 232 232 233 232 233 233 231 231 232 230 231 232 233 
231 233 232 225 226 228 226 226 227 227 227 228 226 227 228 228 228 229 230 228 
227 225 227 225 226 225 226 225 228 212 140 189 226 229 229 227 
228 228 228 228 230 228 229 229 229 229 227 230 228 229 229 228 
229 230 230 232 230 230 233 230 231 231 230 229 229 229 230 230 
230 230 230 229 230 231 230 229 231 230 228 227 231 227 186 199 
228 223 228 231 232 232 233 233 232 233 230 231 230 232 233 233 
232 231 231 225 227 225 224 226 228 228 227 228 228 229 228 227 228 230 229 227 
228 227 225 227 227 226 226 230 212 137 202 228 227 227 228 228 
227 226 229 230 228 230 229 229 230 229 230 228 229 229 230 229 
229 230 231 228 230 229 231 230 231 229 231 230 230 230 230 229 
231 230 230 231 230 232 231 231 228 230 228 227 228 230 229 195 
169 224 230 229 233 233 233 233 232 232 232 232 231 232 230 231 
232 232 234 228 230 228 229 229 228 228 227 228 228 228 229 227 229 229 229 228 
228 227 227 226 227 227 231 210 149 207 230 227 228 227 227 228 
227 231 228 228 227 228 229 229 229 228 229 229 228 228 229 229 
229 230 226 230 230 230 231 229 230 231 232 230 231 228 231 230 
230 231 230 230 229 232 232 231 231 231 230 229 228 229 232 230 
160 196 233 233 234 232 233 233 230 232 230 230 233 232 233 234 
233 233 233 228 228 228 228 226 227 228 229 229 228 228 229 230 229 229 229 226 
228 229 227 227 226 226 207 148 215 229 228 225 228 228 228 229 
227 227 229 229 229 231 230 230 230 230 229 229 228 231 229 230 
231 231 229 231 231 233 230 230 230 231 230 229 231 231 230 230 
232 232 230 230 230 231 229 231 230 230 233 228 229 231 231 234 
225 159 211 230 232 233 233 233 232 231 226 232 232 234 234 231 
234 233 233 225 228 227 225 226 229 229 228 228 228 229 228 228 228 228 229 228 
228 228 226 224 227 212 139 213 230 226 227 226 226 229 227 225 
229 230 230 230 230 229 230 231 230 229 230 231 230 230 231 230 
231 230 229 231 231 231 231 230 231 231 231 231 231 231 232 232 
230 231 231 231 231 230 229 230 232 232 233 231 232 233 234 233 
235 229 153 205 231 233 232 231 233 233 231 233 232 233 232 233 
232 233 231 227 227 228 226 227 229 229 229 228 228 229 229 230 228 229 231 229 
227 229 228 228 217 134 200 229 227 227 226 227 228 228 228 229 
228 229 229 230 229 229 229 228 229 231 231 230 230 230 230 231 
231 229 232 233 231 229 232 231 230 232 232 232 231 232 231 231 
231 233 231 232 232 231 232 231 231 231 231 232 230 232 233 233 
235 238 212 152 224 232 233 233 232 233 233 233 233 234 232 233 
233 232 232 228 228 227 227 229 229 229 229 231 230 230 227 227 229 229 228 228 
230 227 226 226 128 177 231 227 226 224 228 228 229 228 229 228 
229 228 229 230 229 229 231 229 230 229 230 231 231 230 229 230 
230 232 230 232 232 232 231 230 230 231 230 232 232 231 231 232 
231 231 231 232 231 232 231 231 232 232 233 232 233 233 233 233 
233 235 237 206 170 226 230 232 233 232 234 232 232 233 234 233 
233 232 233 229 229 230 229 229 228 229 230 227 229 230 229 230 228 230 230 227 
229 229 231 156 145 228 226 225 226 226 227 227 225 228 226 229 
229 230 230 230 231 230 230 231 230 230 230 231 230 229 228 232 
232 232 231 231 231 232 231 232 233 231 233 231 231 232 230 231 
231 231 231 231 232 232 232 232 232 231 232 233 232 232 233 234 
234 233 234 235 175 174 228 231 232 232 233 233 233 231 234 233 
233 233 233 228 228 228 229 229 230 229 229 229 229 230 229 228 229 229 229 229 
230 231 200 134 230 227 225 227 226 226 226 227 228 226 229 231 
230 229 228 231 229 230 228 230 230 231 231 232 230 230 228 230 
231 231 231 233 232 232 231 230 231 232 232 232 230 231 230 231 
232 230 232 233 228 230 234 232 231 231 232 234 234 233 234 233 
234 235 234 233 232 146 200 234 233 233 235 234 232 233 234 234 
234 233 234 229 229 229 229 230 228 230 230 231 230 229 229 231 229 230 229 229 
232 227 121 213 228 224 226 227 227 226 225 227 226 228 228 228 
212 188 163 190 218 227 232 229 230 231 231 230 231 232 230 231 
232 230 231 232 232 232 230 232 232 231 231 233 233 231 229 231 
231 229 232 172 156 201 228 229 232 233 233 233 234 234 233 234 
235 236 235 234 236 216 163 224 233 233 231 233 235 234 234 233 
233 233 234 230 228 229 229 230 230 229 229 229 227 230 231 229 228 229 229 226 
233 155 179 230 226 225 226 226 227 226 228 228 228 232 227 147 
100 142 189 196 183 176 218 229 230 231 231 230 232 230 230 230 
231 230 232 232 233 231 231 231 233 231 232 232 231 231 231 231 
230 233 168 139 156 150 152 178 218 232 234 233 233 234 233 234 
234 235 234 233 234 236 183 187 231 232 234 234 233 233 232 234 
233 235 233 228 231 230 230 230 230 230 230 230 230 230 231 231 231 229 229 227 
198 129 227 225 226 226 225 225 225 226 225 225 230 221 133 118 
194 231 230 231 232 222 164 221 229 229 231 231 231 231 230 233 
232 230 231 233 233 234 234 233 231 232 232 232 232 232 231 232 
230 189 156 200 233 237 236 214 185 199 233 233 231 233 234 234 
235 234 234 234 234 233 227 154 207 229 232 234 234 234 235 234 
234 234 234 231 228 230 231 231 230 230 230 230 231 230 231 232 232 229 228 230 
106 207 227 225 227 227 227 226 226 228 227 228 224 137 127 205 
229 230 231 230 231 229 214 184 231 230 230 231 230 232 233 231 
233 232 232 234 232 233 233 233 234 235 232 232 232 232 232 232 
225 138 230 232 231 230 228 232 235 200 201 233 234 232 234 235 
233 234 234 233 234 234 235 195 148 231 232 234 234 233 234 235 
234 234 234 229 231 231 230 230 230 229 232 231 230 230 231 229 230 230 229 185 
149 230 226 229 225 226 226 228 227 228 228 223 158 117 210 233 
229 227 227 227 229 229 230 167 222 229 232 232 231 232 232 232 
232 232 232 233 233 232 233 234 233 234 234 235 233 232 231 229 
147 208 210 175 156 147 144 153 202 233 181 223 234 233 232 234 
233 235 233 233 232 234 234 235 116 190 233 235 235 234 235 233 
234 233 235 232 231 230 230 230 230 231 230 230 230 229 230 233 230 230 227 126 
215 231 226 225 227 228 227 229 227 228 229 177 121 206 229 225 
194 184 149 139 169 213 226 194 197 228 229 231 233 232 232 233 
233 233 232 234 234 233 234 232 233 235 234 235 233 235 233 215 
123 151 147 160 183 177 169 162 168 188 210 196 232 234 232 233 
234 234 232 234 234 234 234 237 180 153 234 235 234 236 235 235 
235 235 235 229 230 231 230 231 231 231 231 232 230 229 228 230 230 231 193 159 
231 229 230 229 228 228 226 229 227 227 227 133 157 227 188 115 
126 138 136 144 152 115 177 225 155 228 230 232 232 232 233 232 
232 231 233 233 233 234 234 235 235 235 234 233 235 234 236 159 
90 139 175 176 161 162 175 180 191 148 200 166 233 234 232 231 
234 234 234 232 234 235 237 235 230 142 225 237 235 234 235 235 
235 234 236 231 230 230 231 227 229 230 230 231 230 230 230 231 229 230 140 225 
230 227 229 228 228 229 229 230 228 226 194 97 200 141 120 90 
179 156 142 156 133 140 134 184 132 216 230 232 231 234 233 232 
235 234 233 233 234 234 234 234 235 235 234 237 237 235 214 93 
138 175 152 165 158 181 175 132 157 189 176 149 231 234 235 235 
234 233 234 235 234 235 236 236 237 191 193 234 234 235 234 234 
235 236 236 232 230 230 231 232 230 232 231 231 232 229 230 228 227 215 167 231 
228 231 226 227 229 227 228 229 228 230 177 129 119 151 132 104 
156 168 161 158 176 127 124 145 99 214 230 233 233 234 232 234 
232 233 234 234 235 235 235 235 235 234 235 236 235 234 157 137 
171 168 176 170 191 187 178 154 173 181 175 101 220 234 233 234 
232 235 234 234 234 234 235 237 238 230 156 227 236 235 237 235 
235 237 236 231 232 231 231 230 232 231 232 231 230 229 230 228 227 171 211 229 
229 227 229 230 229 228 229 229 230 230 148 98 112 168 86 157 
159 208 160 163 148 132 124 121 80 210 229 233 234 233 233 234 
234 234 234 235 235 234 235 234 233 234 235 235 235 236 128 180 
162 173 167 168 189 195 166 172 182 182 169 104 211 233 235 232 
234 232 234 234 234 234 234 234 236 239 176 211 235 234 237 236 
236 235 235 231 231 231 231 230 232 231 231 230 229 228 230 230 224 150 230 229 
230 230 230 229 229 230 229 230 229 231 112 128 141 113 135 192 
202 191 148 172 157 155 158 150 90 160 230 232 234 233 235 233 
235 235 233 235 235 235 234 235 235 234 235 235 235 219 149 177 
186 180 176 175 184 193 182 183 191 191 184 131 212 234 234 233 
234 232 233 234 234 234 234 235 236 237 210 181 233 236 235 236 
235 235 237 229 232 230 230 229 232 231 229 229 229 228 229 228 203 181 230 228 
230 231 229 231 230 230 230 230 229 229 104 96 138 110 159 211 
203 170 138 163 175 157 169 138 130 134 226 231 233 233 234 234 
234 235 236 235 236 235 235 235 234 235 235 235 233 197 138 173 
166 169 143 174 171 170 171 181 175 189 153 115 205 234 234 235 
234 234 233 234 234 235 235 234 237 237 235 154 227 236 236 237 
237 236 236 231 230 231 234 231 232 230 230 231 229 228 228 232 174 216 230 231 
231 229 230 231 229 230 231 231 229 231 110 110 98 128 172 202 
192 183 157 157 116 179 143 109 90 135 231 230 233 234 234 234 
236 236 235 235 236 235 235 236 235 236 236 234 233 182 161 168 
161 172 162 155 199 184 159 203 189 169 122 105 215 236 233 234 
234 234 233 234 235 234 234 234 235 235 235 165 198 235 236 236 
238 235 236 230 229 231 231 230 231 229 230 230 231 228 228 230 171 230 232 231 
231 231 231 231 231 232 231 232 230 232 144 116 108 166 184 196 
205 149 164 128 210 214 185 96 66 160 230 235 235 237 237 236 
236 236 236 236 236 237 237 235 237 234 234 234 232 154 162 168 
177 171 154 189 198 115 138 156 177 171 109 101 228 235 237 236 
235 234 234 234 234 233 234 234 233 235 234 175 171 239 237 237 
237 237 236 231 231 232 229 231 229 229 230 230 233 231 228 216 185 232 230 229 
231 232 231 231 233 233 232 233 233 232 176 81 94 169 189 201 
204 138 145 197 217 209 186 86 113 214 234 235 238 238 239 238 
236 237 237 238 238 237 235 235 236 236 235 236 236 162 154 164 
172 170 175 198 122 188 230 229 191 166 66 135 237 236 237 236 
234 234 233 233 234 234 235 235 235 235 233 219 171 235 237 237 
237 237 238 232 230 231 232 231 231 230 229 229 232 231 232 201 215 231 232 232 
231 232 233 232 233 232 232 231 233 231 208 91 123 183 197 197 
189 165 162 187 218 220 134 88 169 238 236 237 237 237 237 237 
239 238 237 238 238 237 236 236 235 236 235 236 235 195 155 160 
165 172 172 146 126 215 231 233 223 93 71 192 238 236 236 237 
236 234 235 235 233 234 234 235 234 234 234 234 189 234 237 237 
237 238 237 232 232 232 231 229 229 230 229 230 231 231 232 199 229 229 230 231 
232 232 232 232 232 234 233 233 234 234 228 118 110 175 202 165 
163 168 163 136 209 205 108 97 227 239 237 237 238 237 238 239 
237 239 240 239 237 236 236 236 236 238 236 237 236 234 153 156 
159 186 167 142 148 180 228 232 206 71 112 237 237 234 236 237 
237 235 236 235 235 235 234 234 233 232 234 236 191 236 237 237 
238 239 239 231 230 229 232 231 231 230 230 232 232 230 229 185 229 230 231 230 
233 233 233 233 234 235 234 233 234 233 228 159 101 160 175 153 
122 137 146 136 111 84 98 174 238 239 240 240 239 238 239 238 
237 238 236 240 239 236 237 237 236 235 235 236 237 237 183 135 
166 177 138 143 176 137 176 194 110 110 226 239 236 237 236 236 
236 236 236 232 231 234 234 234 234 234 233 233 193 228 239 238 
238 239 238 230 231 231 232 229 230 231 231 232 231 227 231 195 231 228 230 229 
232 232 234 231 233 233 234 234 236 235 235 220 143 167 128 178 
171 143 150 125 81 128 216 235 238 239 238 239 239 237 238 238 
238 238 239 238 237 237 238 238 237 236 237 237 237 238 201 147 
130 142 126 166 142 110 105 85 146 228 239 237 236 237 237 236 
236 235 237 236 235 236 234 234 234 234 235 236 203 223 237 239 
239 238 240 231 232 231 232 231 231 231 232 230 231 230 230 195 231 230 230 232 
233 234 232 232 233 235 233 234 234 234 234 237 235 147 130 141 
128 191 122 112 157 210 238 239 237 236 239 240 239 238 240 239 
239 238 237 238 238 238 237 238 237 237 238 238 238 239 209 239 
179 117 117 138 82 92 130 204 239 237 237 235 237 236 238 238 
237 236 235 236 234 235 234 235 235 235 235 236 208 210 237 238 
238 238 239 232 232 232 231 231 232 232 231 231 231 233 210 201 230 232 233 233 
233 233 235 234 235 237 235 235 235 236 236 235 238 192 216 173 
156 168 211 222 232 238 239 238 238 239 239 239 238 238 238 239 
238 239 238 239 238 238 238 238 239 238 237 237 239 239 240 240 
242 202 193 209 221 221 235 238 238 237 237 236 238 237 238 238 
237 236 235 236 236 235 236 236 235 235 235 234 223 210 237 239 
239 239 239 233 232 232 233 233 233 231 233 232 231 233 201 212 230 233 232 233 
235 234 235 235 237 237 237 236 236 236 236 236 236 238 242 245 
242 242 239 239 239 238 239 238 239 240 238 239 238 239 239 239 
239 237 238 239 239 239 238 239 238 238 240 238 239 239 238 239 
240 242 241 243 242 238 236 237 237 237 238 238 239 238 238 237 
236 235 235 236 235 235 236 235 236 236 238 235 225 210 237 238 
239 239 239 233 233 232 232 232 233 233 232 233 233 234 198 220 232 232 233 233 
232 234 236 235 236 236 238 238 238 238 237 238 239 240 238 240 
241 241 238 239 239 237 240 239 239 239 240 238 239 239 241 238 
238 239 238 237 237 238 237 238 239 239 237 239 238 238 240 240 
239 239 241 238 237 237 238 237 237 238 239 237 239 238 237 237 
236 236 237 236 236 236 235 236 238 237 236 236 232 201 237 239 
239 240 240 233 232 233 233 233 233 233 232 235 235 232 187 226 232 232 233 234 
235 234 236 237 237 237 238 238 237 237 238 239 239 239 240 239 
240 239 239 239 239 238 239 239 239 238 239 239 239 239 238 239 
239 238 239 237 237 238 238 237 239 237 239 240 239 239 238 239 
238 237 239 239 238 238 235 236 237 239 236 239 238 237 237 237 
236 236 237 237 237 236 236 237 236 236 238 237 234 201 238 239 
239 240 238 234 234 234 234 233 235 233 234 234 234 234 186 224 232 233 232 233 
235 236 237 237 239 238 238 239 238 238 239 239 238 240 239 240 
239 240 240 238 239 239 240 239 239 239 239 238 237 239 238 238 
238 239 237 238 239 236 237 237 238 239 238 238 238 239 239 239 
238 239 238 239 236 237 238 239 239 238 237 238 238 240 237 236 
238 236 236 236 236 238 239 238 239 240 239 239 234 200 239 239 
239 239 240 235 233 234 234 234 234 234 233 234 233 234 190 226 234 233 234 235 
236 237 236 236 236 239 238 238 239 238 239 238 239 238 237 239 
239 240 239 239 239 238 241 240 238 239 239 240 240 239 238 238 
238 235 239 239 237 239 240 238 238 237 238 237 238 238 239 239 
239 238 238 237 238 237 238 240 238 238 238 237 238 237 238 237 
237 238 239 236 235 239 239 240 239 241 240 239 233 196 240 239 
240 240 240 233 235 235 234 235 234 236 234 233 234 234 183 226 234 235 235 234 
236 237 238 238 239 238 238 239 239 237 239 239 239 239 237 239 
240 240 238 238 238 238 238 239 239 239 239 239 238 239 238 238 
238 239 238 239 239 238 238 239 238 239 239 237 240 239 239 238 
237 239 238 239 239 238 238 239 238 237 238 237 237 238 238 237 
238 238 238 237 236 239 239 239 241 240 241 241 235 198 239 239 
240 239 239 234 235 234 234 235 235 236 235 234 236 234 187 226 232 236 234 236 
236 238 238 238 238 240 240 238 238 240 237 238 239 239 240 240 
239 239 239 239 239 240 239 238 238 237 239 239 239 237 238 238 
239 239 238 238 238 240 238 238 239 238 239 240 239 239 239 239 
240 239 238 237 238 237 239 238 239 238 236 238 240 238 238 238 
237 238 237 239 239 239 240 240 241 240 240 240 229 207 240 239 
239 239 239 236 236 236 237 235 235 235 236 235 237 234 194 220 233 236 236 236 
239 240 239 239 238 241 237 239 239 239 239 238 237 240 239 239 
239 239 238 239 238 239 239 239 239 238 239 239 240 240 238 238 
239 238 238 237 237 238 238 239 238 238 239 238 238 237 240 239 
239 240 237 238 238 237 238 238 237 238 238 237 237 238 241 238 
238 239 238 238 238 240 240 239 240 240 240 239 227 212 239 240 
240 238 238 236 236 236 237 238 237 237 235 236 234 234 207 218 237 236 238 236 
238 239 238 240 239 239 238 238 238 238 238 238 238 237 238 238 
239 238 238 238 238 239 237 237 238 240 239 239 240 238 238 239 
238 239 238 237 239 237 240 238 238 237 238 239 239 239 239 239 
240 239 238 237 237 238 239 237 238 237 239 237 239 238 239 239 
238 238 238 240 240 240 240 241 240 240 238 239 224 225 239 240 
239 240 239 237 238 237 237 236 236 235 238 238 237 236 204 213 236 236 237 237 
238 237 238 238 238 238 239 238 238 238 238 239 238 238 240 239 
239 238 239 239 239 238 238 239 239 238 238 238 239 239 238 240 
237 238 237 237 238 238 237 238 237 238 238 240 237 238 239 238 
237 237 236 239 238 238 238 237 239 238 239 239 237 239 239 238 
239 239 240 239 240 241 241 241 240 241 241 240 214 232 240 239 
240 240 240 238 236 237 238 237 237 238 237 238 236 238 214 199 237 237 237 238 
238 238 239 239 240 238 238 238 238 238 238 237 238 238 239 239 
239 239 239 239 240 240 238 239 238 238 239 239 237 237 238 238 
237 239 238 238 238 237 238 238 237 238 238 239 238 238 238 239 
238 237 238 239 238 238 238 237 237 239 237 238 238 239 239 239 
237 239 239 237 240 241 242 241 242 240 240 239 208 235 241 241 
239 240 240 238 238 238 240 238 239 239 239 240 239 238 231 179 236 236 238 237 
238 238 236 239 237 239 237 238 238 238 237 238 237 238 238 237 
238 238 240 239 238 239 238 237 239 238 238 238 239 240 239 238 
238 237 237 238 238 239 238 238 239 239 238 241 239 239 239 236 
235 237 239 235 238 238 239 238 239 238 239 238 240 240 239 240 
240 238 240 241 241 241 241 242 239 240 240 238 200 237 239 239 
240 240 239 240 238 239 238 237 239 238 239 238 238 237 237 181 236 238 239 238 
239 239 239 238 239 238 237 238 237 236 237 236 237 237 239 239 
239 239 238 240 239 238 239 239 237 239 239 240 239 238 238 239 
238 237 238 237 239 238 238 238 238 238 238 239 238 239 237 239 
239 239 240 237 237 238 239 238 238 239 237 239 239 240 239 239 
239 238 240 240 240 241 241 240 241 240 239 236 204 239 241 239 
240 241 239 240 240 239 239 239 240 238 238 240 240 238 237 175 231 238 239 238 
238 239 239 240 238 238 238 238 237 239 238 236 239 237 238 239 
239 238 238 238 240 239 239 239 240 239 239 239 238 239 239 237 
236 238 239 237 237 238 239 239 239 237 237 239 237 239 239 239 
239 215 186 208 229 239 239 238 238 238 240 238 239 239 240 240 
239 240 240 237 238 240 241 242 240 238 240 230 217 240 240 240 
240 240 240 239 238 238 238 239 240 240 240 239 239 238 238 196 207 238 238 238 
239 239 237 238 239 237 238 237 238 237 238 238 238 211 176 186 
230 237 237 238 239 240 239 239 238 238 238 238 239 239 240 238 
237 238 239 238 239 237 238 238 239 239 237 238 238 238 239 233 
169 100 93 119 155 195 239 239 239 240 239 239 239 239 239 239 
239 239 240 239 238 242 239 240 240 238 236 213 233 241 241 241 
240 240 240 239 240 241 240 240 240 239 239 239 240 240 239 223 187 240 237 237 
239 239 238 239 238 239 240 239 238 238 236 236 135 100 127 137 
181 236 238 239 239 239 237 239 239 238 240 239 239 238 240 239 
238 238 238 238 238 238 237 239 237 239 237 237 237 238 237 222 
200 224 178 178 233 171 225 239 238 239 238 239 239 239 239 240 
239 240 239 239 239 241 240 238 239 237 237 195 239 241 240 240 
242 240 240 240 241 240 241 240 240 241 240 240 241 241 240 240 177 239 240 238 
237 239 239 240 237 238 237 238 239 237 238 166 139 230 143 237 
239 237 238 239 239 239 239 240 239 239 239 239 240 239 240 240 
240 240 238 238 238 238 239 237 239 240 239 239 240 239 237 237 
238 239 143 233 239 224 219 240 240 240 240 240 239 239 240 239 
240 239 238 239 241 238 237 238 239 237 232 201 238 239 240 240 
241 240 241 241 241 241 241 241 241 241 241 241 242 241 239 240 199 232 240 238 
238 238 238 239 239 238 239 240 238 237 238 178 230 243 142 208 
236 239 239 239 238 239 239 239 240 239 239 240 241 240 241 239 
240 239 238 238 238 237 239 239 238 240 239 238 239 239 237 237 
237 222 152 239 239 241 242 240 239 240 240 239 239 241 241 240 
238 240 236 239 240 239 238 238 237 238 205 223 238 239 239 241 
241 241 241 241 240 241 241 241 241 241 241 240 241 240 241 243 218 202 238 238 
238 239 240 239 239 239 239 239 239 239 239 241 241 241 218 158 
237 239 239 238 241 240 240 240 239 240 241 240 240 241 239 239 
241 240 240 238 239 239 239 238 241 239 240 240 236 237 234 234 
238 150 205 241 240 240 240 241 242 240 240 240 240 240 241 242 
239 239 238 240 240 239 240 241 238 240 193 238 236 239 240 240 
242 241 242 241 241 241 241 241 240 241 240 241 241 241 241 241 240 174 176 241 
239 240 241 240 240 242 241 240 240 240 239 239 240 240 242 198 
178 231 238 240 239 238 240 240 239 239 239 240 242 241 242 240 
241 239 239 239 237 238 239 241 239 240 239 241 240 237 235 237 
222 136 240 241 240 241 241 241 240 240 241 240 240 240 240 241 
240 239 239 239 240 240 239 239 236 228 203 240 238 239 240 240 
241 243 241 240 242 241 241 242 241 241 240 241 241 242 241 241 239 195 109 232 
238 240 240 241 240 239 240 239 240 239 240 240 240 240 240 242 
187 223 239 238 238 239 239 238 241 240 240 238 239 240 239 239 
240 239 239 239 239 240 239 238 237 238 238 240 239 239 242 241 
139 221 241 240 240 242 241 242 241 241 241 241 240 242 241 241 
240 240 239 240 239 240 239 238 241 189 231 240 238 240 240 242 
241 240 242 242 242 242 241 242 242 242 242 241 241 242 241 240 239 231 126 187 
240 239 239 240 241 241 240 240 239 240 239 241 240 242 239 241 
234 198 240 241 240 241 240 240 239 240 240 242 240 240 241 240 
239 239 239 239 239 239 238 239 238 237 237 237 239 240 244 176 
188 245 240 241 242 241 242 241 241 240 241 241 242 242 241 241 
241 241 240 240 240 238 240 239 234 198 238 240 239 240 242 242 
242 242 244 243 242 242 242 242 242 242 242 244 243 242 241 242 240 242 191 131 
238 241 241 241 241 241 241 242 241 241 241 242 242 242 239 239 
242 226 208 240 239 241 240 240 241 240 240 239 240 239 240 239 
239 241 240 240 240 240 238 239 238 238 238 239 241 242 208 146 
245 243 242 243 242 242 242 242 243 243 242 242 241 241 241 242 
243 241 241 241 242 239 239 239 200 234 241 240 238 241 242 241 
241 242 242 243 243 243 243 243 243 243 243 243 243 243 242 242 242 242 238 146 
189 242 240 243 242 241 241 241 243 241 242 242 242 243 241 240 
242 241 213 211 239 240 241 241 240 241 240 239 239 240 240 242 
242 241 240 241 242 240 239 237 238 238 237 241 238 170 152 231 
245 242 242 242 243 243 242 242 242 242 241 244 243 242 243 243 
242 241 243 241 242 241 239 234 204 241 240 241 239 241 241 242 
241 242 242 244 243 243 243 243 244 243 243 243 245 245 242 241 243 243 247 197 
132 226 242 241 241 241 242 243 242 242 242 241 241 243 242 241 
242 242 242 207 214 243 241 240 240 241 241 240 240 241 240 240 
240 239 240 240 241 239 241 239 240 242 241 219 136 185 244 245 
240 243 242 241 243 242 242 241 242 242 243 243 243 244 243 244 
243 243 244 242 241 241 242 201 236 242 242 241 242 242 244 243 
242 241 242 243 243 245 242 243 243 243 243 243 244 243 244 242 242 242 242 239 
151 147 242 244 242 241 243 242 242 242 242 242 242 242 241 244 
243 243 241 243 208 210 244 243 241 241 241 241 242 241 241 241 
242 241 241 243 241 242 242 244 242 235 191 140 213 245 244 243 
243 242 243 243 243 243 243 244 243 243 244 243 243 243 244 244 
244 244 244 242 241 242 224 219 244 241 241 242 242 243 242 243 
242 241 242 245 245 243 244 243 243 243 244 244 243 243 243 242 244 245 243 245 
193 147 195 244 243 241 242 243 243 243 243 242 243 242 243 243 
243 242 242 245 246 211 187 238 243 243 242 243 241 240 240 243 
242 240 242 243 244 244 244 233 196 163 176 233 243 243 243 244 
244 244 243 243 243 243 244 243 244 243 243 244 243 243 244 245 
244 245 244 244 243 237 191 246 244 244 244 243 243 243 242 244 
242 243 243 242 243 244 243 244 243 244 244 244 243 243 243 245 244 244 243 243 
244 235 168 232 244 244 242 242 242 242 243 243 242 243 242 242 
243 242 241 241 243 245 237 190 203 244 242 244 243 244 245 243 
242 243 245 245 237 202 177 174 202 235 244 243 242 241 241 243 
243 243 242 243 244 244 244 244 245 244 245 244 245 246 246 244 
244 244 244 243 232 150 233 244 243 244 242 243 243 242 243 243 
242 243 242 245 245 244 243 244 244 243 244 244 245 244 244 243 244 242 243 243 
243 244 235 176 243 244 242 242 242 243 243 242 242 242 243 243 
243 243 243 243 243 241 244 247 215 167 179 192 217 228 235 221 
206 201 170 168 174 199 235 247 246 243 243 242 242 241 242 241 
242 243 243 243 243 243 244 245 244 244 246 244 245 244 245 244 
246 245 245 248 176 181 244 244 245 246 246 244 244 243 243 244 
242 242 243 243 245 245 244 245 244 244 244 244 244 244 244 244 244 244 244 244 
244 243 245 222 186 243 244 242 243 242 243 243 244 242 243 243 
243 243 242 243 243 242 242 244 246 248 227 209 182 162 159 166 
180 191 212 235 249 248 244 243 242 242 242 242 241 242 242 240 
242 243 243 243 243 244 245 243 245 244 246 244 245 246 245 244 
245 246 247 215 167 244 246 245 247 245 244 244 244 243 245 243 
243 243 243 245 245 246 245 245 244 245 245 245 244 245 244 245 245 244 244 244 
244 243 243 248 207 185 242 245 244 243 243 243 243 244 244 244 
243 243 244 243 245 243 243 243 243 245 246 246 247 247 249 250 
249 248 247 246 245 244 242 243 243 241 244 243 244 241 243 241 
242 240 243 242 242 243 244 245 244 245 247 247 244 246 245 245 
246 250 222 205 224 246 245 246 245 247 245 243 244 244 244 243 
243 243 244 245 245 245 245 246 245 244 246 244 246 245 245 246 245 245 245 246 
245 245 243 244 249 206 192 242 245 244 243 244 244 244 245 243 
244 244 244 243 243 243 244 243 243 244 245 245 245 245 245 245 
244 245 244 244 243 243 242 243 243 244 244 244 243 244 243 243 
243 243 244 243 243 245 245 245 244 246 245 246 245 246 246 245 
248 223 215 249 250 248 248 246 246 245 244 245 245 244 245 244 
244 243 243 247 246 246 246 245 245 245 245 245 246 246 245 247 246 245 246 247 
247 246 245 244 247 248 200 186 242 244 243 243 244 244 245 245 
244 243 244 246 244 245 244 244 244 245 245 245 245 244 245 245 
244 244 244 244 245 244 244 244 244 244 243 243 244 244 244 244 
245 245 244 243 244 243 244 244 244 246 245 244 244 246 246 248 
217 214 250 247 246 245 248 248 244 245 245 246 246 244 244 244 
244 245 242 246 245 246 246 246 246 247 247 246 247 246 246 245 246 247 246 248 
247 246 246 246 247 246 247 207 177 242 244 246 245 245 245 244 
245 246 246 244 245 244 244 245 245 245 244 245 245 244 245 245 
245 245 245 244 244 245 245 245 245 245 245 245 245 244 243 244 
245 245 245 244 244 244 243 244 244 244 245 245 244 246 247 208 
221 250 248 247 247 247 248 246 246 246 245 246 244 244 245 245 
245 243 242 247 248 247 246 246 246 248 247 246 246 248 247 246 247 247 247 246 
247 247 246 247 247 247 247 248 214 171 236 246 246 245 245 245 
244 246 245 246 244 245 245 245 246 245 245 245 245 245 246 246 
246 245 244 246 247 245 244 244 244 244 245 244 245 244 245 245 
246 247 245 244 245 245 245 244 244 244 244 245 246 244 207 229 
252 247 245 246 247 248 248 247 247 246 246 247 247 245 245 245 
245 244 243 246 246 247 247 247 247 247 247 248 247 247 247 247 247 248 247 247 
248 246 246 246 247 247 247 247 251 235 179 214 249 248 246 244 
245 245 245 245 246 245 247 246 246 246 247 246 248 246 247 247 
246 247 245 245 245 245 246 245 246 247 245 245 244 245 246 247 
247 246 246 247 247 245 245 246 244 244 244 247 232 199 241 249 
248 246 246 248 247 248 248 248 247 247 246 245 246 246 245 245 
245 245 245 247 247 247 247 247 247 247 247 247 248 247 247 247 247 247 248 247 
248 247 247 247 249 247 246 246 248 249 248 193 191 245 249 249 
245 244 244 246 246 246 246 246 246 247 245 246 247 247 247 246 
245 245 245 246 246 245 245 247 246 245 245 245 246 245 246 245 
243 245 246 245 245 244 245 245 244 244 246 214 215 249 249 247 
246 247 247 246 247 246 246 247 246 247 246 246 246 246 246 245 
246 246 245 248 248 248 248 249 247 247 248 248 248 247 249 246 247 248 248 249 
248 248 247 247 247 246 248 247 246 247 248 251 222 183 220 247 
248 246 245 246 246 246 246 246 248 247 247 247 248 248 248 246 
246 247 246 246 245 247 246 245 245 246 246 246 244 245 245 245 
245 245 246 246 244 246 247 249 248 225 198 238 249 248 248 247 
246 247 247 247 247 246 247 247 247 247 246 245 246 245 245 246 
245 245 247 247 248 247 248 246 248 249 248 247 247 247 248 247 248 249 247 248 
249 248 249 248 247 248 248 248 249 247 247 249 249 246 199 185 
222 247 246 248 247 245 245 242 244 246 247 247 247 248 248 247 
245 247 245 244 246 246 246 246 247 246 246 246 246 246 247 245 
246 245 244 246 248 249 249 238 203 219 249 248 246 246 245 248 
247 247 247 247 247 247 247 247 247 246 247 246 246 247 246 246 
246 247 246 248 247 249 249 249 249 249 248 248 248 248 249 248 249 249 249 248 
247 249 248 248 248 248 249 245 247 248 249 247 249 250 251 238 
189 184 233 245 248 249 246 242 245 247 247 247 246 248 248 246 
247 247 246 247 247 245 246 246 246 246 248 247 246 246 247 248 
246 245 247 247 245 233 203 214 247 246 247 246 247 247 248 248 
247 247 247 248 247 248 248 247 248 248 247 247 246 246 245 245 
247 247 248 248 249 248 248 250 251 249 250 250 249 248 249 250 250 249 249 249 
250 248 249 248 249 249 246 248 248 247 248 249 249 247 249 252 
252 239 198 180 207 240 247 252 249 249 250 249 248 249 248 248 
247 247 247 247 246 248 248 248 247 247 248 248 247 248 248 250 
251 252 250 229 201 219 248 250 249 248 246 246 246 247 247 248 
247 247 246 247 247 248 246 247 246 246 247 246 248 247 247 247 
248 247 248 249 249 249 250 250 249 250 250 250 249 249 249 250 250 250 249 248 
249 249 248 249 249 249 249 249 250 250 249 249 249 248 249 250 
250 250 249 248 224 192 192 226 243 247 250 250 250 250 250 249 
248 249 247 248 248 248 247 248 249 249 248 249 250 250 251 251 
235 212 212 228 250 251 250 250 247 246 247 247 247 246 247 247 
247 247 248 247 247 246 248 247 247 248 247 247 247 247 247 248 
249 248 246 250 250 250 250 250 250 249 250 249 249 250 249 248 250 250 250 250 
250 251 250 249 250 249 250 250 248 248 249 249 249 250 250 250 
249 248 248 250 251 252 245 221 201 200 215 231 243 249 249 252 
249 248 249 249 249 249 249 249 250 250 249 243 234 225 221 221 
231 250 252 251 250 250 249 248 247 247 245 246 247 247 246 247 
247 247 247 247 247 247 247 247 247 247 248 247 248 247 247 247 
246 247 246 251 250 250 250 250 250 249 250 250 250 250 251 251 250 250 250 250 
250 249 250 250 250 250 250 250 251 251 250 250 250 250 250 250 
249 250 249 250 250 251 251 250 251 252 245 223 211 206 196 200 
192 201 201 207 211 212 214 212 203 210 209 219 233 250 252 252 
250 250 248 249 248 248 248 247 247 247 247 247 246 246 246 246 
246 246 245 247 247 247 247 247 247 246 248 246 248 247 247 247 
247 248 248 250 252 250 250 250 250 250 251 250 252 250 251 251 251 251 249 250 
250 250 250 249 250 251 250 250 250 250 250 250 250 250 250 250 
249 252 249 249 250 249 250 249 250 250 251 252 252 253 254 253 
250 247 244 244 246 248 247 249 252 253 253 252 251 250 248 249 
249 249 247 249 249 248 247 247 247 248 248 247 247 247 247 247 
247 246 247 246 246 246 247 247 247 246 246 247 246 246 247 248 
248 249 248 250 250 250 251 250 250 250 251 251 251 251 251 251 250 252 250 251 
250 250 250 249 250 251 251 250 250 250 251 250 250 251 250 250 
251 251 250 249 250 250 250 250 250 250 251 252 251 250 251 252 
251 251 250 250 250 250 251 252 251 249 249 251 250 248 249 250 
250 248 250 249 248 248 248 249 248 248 249 247 245 247 246 246 
246 247 246 246 246 248 246 245 245 246 247 247 248 247 247 246 
248 248 247 251 251 250 251 251 251 251 250 250 251 249 250 251 251 251 251 252 
250 250 249 252 250 250 250 252 252 251 251 252 251 251 252 250 
251 252 251 250 251 250 250 250 250 250 250 251 252 250 251 250 
250 250 249 249 248 250 250 249 250 249 249 250 250 249 249 250 
248 248 249 250 250 248 248 249 248 248 247 247 247 245 246 247 
246 246 245 246 246 247 246 246 245 246 246 247 246 247 246 247 
247 247 248 251 251 251 251 251 250 251 250 251 251 253 250 252 252 251 251 249 
250 251 250 250 250 250 250 251 250 251 251 251 250 251 251 251 
252 252 250 250 251 250 251 252 250 250 251 251 251 250 250 250 
250 250 250 250 249 248 251 250 249 249 249 250 250 249 249 249 
250 249 250 250 249 249 249 249 249 248 248 248 245 246 246 247 
246 247 245 245 245 245 246 245 246 246 246 246 246 246 247 247 
247 246 247 253 252 251 251 252 252 252 252 252 252 252 253 252 251 250 251 251 
251 251 251 250 251 251 251 251 251 251 251 251 252 252 251 251 
251 251 250 250 252 250 250 250 250 250 250 251 251 250 250 250 
251 249 250 249 250 249 250 250 249 248 249 249 248 249 250 249 
249 249 249 249 250 251 248 249 249 247 247 247 247 246 246 246 
246 246 245 245 245 244 244 245 245 244 244 246 246 247 246 247 
247 247 246 252 253 252 251 252 252 251 251 252 252 253 253 253 253 251 250 251 
250 251 250 249 251 251 251 251 252 253 252 252 251 251 250 250 
250 251 251 250 252 252 251 253 251 250 250 251 252 250 250 250 
251 250 250 250 249 250 249 251 250 250 248 249 249 249 250 249 
249 248 248 249 249 249 249 249 249 248 248 247 246 248 245 246 
248 248 245 245 244 245 245 245 246 244 246 245 245 246 245 246 
247 246 248 252 252 252 252 252 251 250 249 251 253 253 253 253 251 250 250 250 
251 250 250 251 250 249 252 254 252 252 252 252 252 252 251 250 
250 250 250 250 250 250 251 250 250 250 251 251 250 250 250 250 
250 249 249 250 250 250 251 250 250 250 249 249 249 248 249 247 
249 249 248 248 249 250 249 250 249 250 249 248 246 248 248 247 
247 248 245 246 245 245 244 244 244 245 245 245 244 245 245 247 
246 247 246 