P2
# Created by IrfanView
100 100
255
247 248 247 245 245 245 246 247 247 244 247 246 247 248 248 248 246 
247 247 245 245 248 247 249 249 249 248 249 250 250 250 250 250 
251 251 250 250 249 252 252 249 249 250 250 251 250 251 250 250 
250 251 250 250 250 250 249 250 248 247 250 250 250 249 250 250 
248 249 251 250 248 247 247 248 248 248 247 249 249 250 250 250 
248 246 245 245 242 242 240 239 236 235 234 231 232 234 234 232 
231 230 230 246 245 245 246 246 246 245 246 246 247 246 245 248 248 248 247 246 
246 246 246 246 247 247 249 249 248 249 250 250 251 249 249 249 
250 251 250 250 250 250 251 249 250 251 250 249 250 249 250 251 
250 250 250 250 251 250 249 249 246 247 248 248 249 250 248 248 
248 247 249 249 248 248 249 248 247 247 247 249 248 249 248 249 
247 246 245 241 243 241 239 237 237 235 233 233 233 234 231 228 
229 228 228 247 248 246 245 247 245 245 248 248 248 247 246 248 249 248 249 247 
245 247 248 247 247 247 248 249 249 249 250 251 250 250 249 249 
249 249 250 250 250 251 250 251 250 250 251 251 250 250 248 250 
249 250 249 248 247 250 248 250 248 248 248 248 248 249 248 248 
247 248 249 249 248 249 248 248 248 247 247 248 248 248 247 247 
247 246 245 243 244 240 240 238 239 235 236 234 234 231 232 233 
231 227 226 248 247 247 245 247 244 248 247 248 246 246 247 248 249 247 248 248 
248 247 246 247 245 246 247 248 250 250 250 250 249 249 249 249 
248 248 249 250 249 249 251 249 250 250 250 248 250 249 249 249 
250 249 248 250 249 248 249 248 249 250 249 248 248 250 250 249 
249 247 249 249 248 247 249 249 251 249 248 248 248 248 246 247 
247 244 245 244 242 242 240 238 240 238 238 236 235 234 233 233 
232 232 231 248 247 246 246 246 246 247 247 247 247 248 246 248 247 248 248 247 
247 246 247 248 247 246 247 250 249 249 250 250 251 250 249 250 
249 249 249 250 251 251 248 250 250 250 250 249 248 250 249 249 
249 249 249 249 249 249 247 250 249 249 249 250 249 248 248 248 
248 249 248 249 249 249 248 247 248 249 250 248 248 248 248 247 
248 246 246 245 244 244 243 243 242 242 241 238 237 237 235 231 
235 235 234 247 247 246 248 248 246 247 246 248 247 247 246 248 249 249 248 247 
248 248 248 249 248 247 249 250 250 249 250 249 248 249 250 250 
250 250 248 250 249 248 249 249 250 250 249 250 249 249 249 249 
249 249 248 249 248 248 248 249 247 249 248 248 249 247 247 249 
248 250 249 249 249 249 249 249 249 249 249 249 248 247 247 247 
248 247 245 246 245 245 246 244 244 244 242 242 242 242 240 240 
239 239 239 246 247 248 248 247 246 247 247 247 247 246 248 250 248 248 248 248 
247 248 248 248 247 247 249 249 250 249 249 248 249 249 248 247 
248 249 249 249 249 249 249 249 249 249 249 249 249 249 249 250 
250 248 249 249 248 247 249 248 248 249 248 248 248 248 249 249 
248 249 249 249 247 248 249 249 248 248 249 248 248 249 248 248 
247 247 248 247 245 246 246 245 245 243 245 245 245 243 243 244 
243 244 243 247 248 247 247 247 249 247 247 247 247 246 247 245 247 248 248 247 
246 247 248 248 246 247 249 248 248 249 249 249 249 249 248 248 
248 248 248 248 248 248 248 247 249 249 249 249 248 248 249 248 
248 249 248 250 249 247 249 249 251 250 249 249 249 249 249 248 
249 249 249 249 249 250 250 250 249 250 249 249 249 249 250 250 
249 248 247 247 248 248 248 247 246 246 246 246 246 246 246 246 
246 246 247 248 249 247 248 249 248 247 247 247 247 245 245 244 248 248 249 247 
247 248 247 248 247 246 248 246 248 248 248 249 248 248 248 247 
247 247 247 247 249 247 248 248 245 242 236 234 233 219 217 214 
221 226 227 216 212 219 222 232 245 246 249 250 251 249 248 248 
249 249 249 249 249 248 250 249 249 249 249 249 249 249 249 249 
250 249 248 248 249 249 248 246 247 246 246 246 246 247 246 247 
247 247 247 248 247 246 247 249 248 248 248 247 248 246 246 246 247 246 248 247 
247 248 249 248 249 248 247 247 248 248 248 248 248 248 247 247 
246 247 248 247 246 243 241 240 238 230 232 238 244 239 241 244 
246 248 249 244 241 238 235 230 232 230 235 232 237 246 250 250 
250 247 249 249 248 248 249 250 250 250 250 250 250 250 250 251 
249 250 251 251 250 247 247 248 247 248 247 248 248 248 248 248 
248 247 248 249 247 247 247 248 247 249 248 248 248 246 245 246 246 248 247 248 
248 248 248 248 247 248 249 248 248 248 247 248 249 249 246 246 
247 245 242 238 239 243 246 249 248 249 252 252 250 252 252 252 
251 250 249 250 251 250 250 251 252 250 248 245 240 234 230 229 
243 247 249 250 247 248 249 250 249 250 252 251 250 251 249 251 
250 250 251 250 249 250 248 248 248 249 248 248 248 249 247 246 
247 247 247 247 247 249 248 249 249 247 246 248 247 247 246 248 246 247 248 248 
247 247 248 248 247 245 247 247 247 246 246 248 248 248 247 246 
244 238 236 243 248 248 248 249 248 251 250 250 250 251 250 249 
250 250 251 250 249 249 249 249 249 250 250 250 250 251 248 238 
229 222 231 245 250 251 250 250 250 251 250 250 251 250 251 251 
251 250 251 251 249 249 250 250 250 249 248 248 248 248 247 247 
247 247 248 247 246 248 247 248 249 248 248 247 247 247 247 249 248 249 248 248 
248 248 248 248 248 247 248 247 248 247 248 248 249 249 243 240 
243 245 246 248 249 249 248 249 246 248 250 249 251 250 250 250 
250 248 250 250 249 249 247 249 249 249 250 249 249 249 248 249 
250 248 232 221 229 242 249 250 250 251 251 251 252 252 251 251 
250 250 250 251 250 251 250 250 249 248 248 248 247 247 248 248 
248 248 248 245 248 248 248 249 248 247 247 248 248 249 248 247 248 248 249 248 
248 248 247 246 245 246 246 246 247 247 249 246 241 241 243 248 
249 248 248 248 250 249 249 250 248 249 250 249 251 251 250 250 
250 250 250 250 250 249 251 249 249 250 250 249 250 250 249 249 
248 248 250 250 240 225 226 242 249 250 251 251 251 251 252 252 
252 251 250 251 252 252 251 250 249 248 248 249 248 248 248 248 
247 247 247 249 249 248 248 249 248 249 247 247 247 250 248 249 248 247 248 247 
247 245 247 246 247 246 245 245 247 245 241 237 241 248 250 249 
248 249 248 249 248 250 249 248 249 249 251 250 250 250 249 251 
251 250 249 250 250 250 250 249 249 249 247 249 248 249 248 249 
249 247 248 247 249 248 234 213 233 248 252 251 251 250 251 250 
251 252 252 251 251 250 252 252 251 249 249 248 248 248 249 248 
247 247 248 249 249 249 248 247 248 248 248 248 249 248 248 248 249 249 247 247 
246 246 247 246 247 245 247 247 247 237 238 246 248 248 247 249 
249 249 249 250 250 250 249 250 249 250 250 249 250 251 250 251 
251 251 250 250 250 251 250 251 250 250 249 250 249 249 247 249 
249 249 249 249 249 249 251 248 230 227 241 250 251 251 252 251 
251 252 252 252 251 251 251 251 252 252 250 249 249 249 247 246 
247 249 248 250 248 248 246 247 247 249 249 249 248 248 247 246 247 247 247 247 
246 247 248 246 246 244 246 239 232 241 246 248 248 248 249 251 
249 249 249 249 250 249 249 249 249 250 250 250 251 251 251 252 
251 250 251 250 250 250 249 249 250 251 249 249 249 250 249 248 
249 250 249 247 250 249 249 249 249 242 222 232 247 251 250 250 
251 249 251 250 251 251 251 251 251 251 250 249 250 249 249 248 
248 248 249 249 248 250 248 247 248 248 249 249 248 247 248 248 247 245 246 246 
248 248 247 246 244 244 236 235 244 248 248 248 248 249 249 249 
248 247 249 249 248 250 250 250 250 249 250 251 250 252 251 252 
252 251 251 251 251 251 250 252 250 250 250 249 250 249 250 249 
249 249 249 249 249 248 248 249 249 251 252 231 226 246 251 251 
249 251 251 251 252 251 251 251 251 252 250 250 248 248 250 250 
250 249 249 249 249 248 246 247 248 249 248 248 248 248 247 246 247 246 247 247 
246 247 246 246 242 235 236 248 248 248 248 249 250 250 250 250 
250 250 249 250 249 249 250 250 250 249 250 250 251 249 251 251 
251 251 250 250 250 250 250 248 251 251 251 249 250 250 250 250 
250 250 249 249 248 250 249 250 249 249 251 252 246 232 245 251 
251 250 250 250 252 250 252 251 251 252 251 249 251 250 250 249 
249 249 249 249 250 247 248 247 247 247 247 248 248 248 248 248 246 246 247 248 
246 246 245 243 234 235 247 247 249 249 250 250 250 250 250 250 
250 250 249 249 250 250 249 250 250 251 250 251 251 251 251 251 
251 251 250 250 250 250 251 251 251 251 250 250 250 250 250 250 
250 250 251 251 249 249 249 250 248 248 250 250 250 244 225 235 
251 250 250 249 251 250 251 251 251 250 251 252 251 250 250 250 
250 249 249 249 249 249 248 248 248 248 249 249 248 247 246 248 247 248 246 247 
246 246 245 235 236 247 248 247 247 248 250 250 249 248 249 249 
249 249 249 250 248 248 249 250 250 250 250 249 250 250 251 250 
251 251 249 250 250 250 249 250 250 251 250 251 251 249 250 250 
250 250 250 250 250 250 250 249 248 248 250 250 250 250 246 223 
232 249 250 250 251 251 250 251 251 253 252 251 251 251 251 249 
250 250 250 248 247 248 249 249 249 249 249 248 249 247 246 246 247 245 247 248 
247 248 235 237 246 249 249 249 249 248 249 250 250 248 249 250 
250 250 249 250 249 249 250 250 250 250 249 250 251 250 252 251 
251 250 251 250 250 250 250 250 250 250 250 250 251 251 251 250 
251 251 249 249 250 250 249 248 249 249 250 250 249 249 251 250 
223 233 250 250 249 251 251 251 252 252 252 251 251 251 251 249 
251 251 249 247 249 248 248 249 249 249 247 248 247 248 248 248 244 248 246 248 
246 236 236 246 248 250 249 249 249 249 250 250 249 249 249 250 
250 250 250 250 249 249 250 250 250 250 250 250 251 250 252 251 
251 251 252 251 252 251 250 251 251 252 250 251 250 250 251 251 
250 249 251 249 251 250 250 249 249 250 249 249 249 248 249 249 
248 221 236 249 249 252 251 251 250 253 251 251 251 252 251 251 
251 250 251 248 248 248 249 249 249 249 250 248 249 248 247 246 246 246 245 246 
241 231 249 249 249 249 250 251 251 250 250 250 250 250 249 250 
250 250 250 250 250 249 250 249 249 250 250 249 249 249 248 251 
251 251 252 252 252 250 250 252 251 251 251 251 252 252 250 251 
251 252 251 251 250 250 250 250 250 249 248 249 249 248 250 250 
249 248 221 238 251 251 249 250 252 253 252 251 252 251 251 251 
251 250 250 247 248 248 247 249 248 248 248 249 249 248 245 246 245 246 246 243 
234 244 248 249 248 249 250 250 249 249 249 249 249 250 250 250 
251 250 250 250 248 249 250 250 249 249 249 247 250 251 250 250 
251 251 251 251 250 251 251 251 251 251 251 251 250 251 251 251 
250 251 251 250 251 251 251 251 250 250 250 249 249 250 251 250 
249 249 249 207 244 249 251 251 251 252 252 250 250 252 251 251 
251 251 251 249 249 247 247 249 249 248 248 248 247 247 247 247 246 245 243 236 
241 249 249 250 250 250 250 251 250 249 249 248 249 248 249 251 
252 250 250 250 250 249 250 250 250 249 251 248 249 250 250 250 
251 250 250 252 252 250 251 251 251 252 251 251 251 251 250 250 
251 252 251 251 250 249 250 250 251 250 250 250 250 250 251 251 
250 249 250 244 221 245 251 250 252 252 252 252 252 252 252 251 
251 251 250 248 248 248 248 250 249 248 249 248 247 247 247 249 247 244 227 231 
249 249 251 250 250 249 249 249 248 248 248 247 247 248 250 243 
247 250 250 250 251 250 250 250 250 250 249 249 250 249 247 250 
250 251 251 251 251 251 251 251 249 251 251 250 250 249 250 251 
250 251 252 253 251 251 251 251 251 251 251 250 251 250 251 251 
250 249 248 252 236 225 251 250 253 252 252 252 251 252 252 251 
251 251 251 249 248 248 249 249 248 249 248 248 249 248 249 247 246 242 228 247 
250 250 250 251 249 249 249 248 248 248 249 247 248 249 230 193 
196 250 250 251 250 250 250 250 249 250 250 249 248 249 249 250 
252 251 251 251 251 251 251 251 251 250 250 250 251 249 250 249 
247 245 240 239 251 252 251 251 251 251 251 251 251 251 251 250 
249 250 250 250 252 223 238 249 251 251 252 253 253 252 252 252 
251 251 251 249 248 249 249 250 249 249 248 248 248 248 249 247 245 230 240 251 
250 250 250 250 250 248 250 249 248 248 248 245 247 233 183 179 
185 239 251 251 250 250 252 251 250 249 250 250 249 250 250 251 
253 251 250 251 251 250 251 251 251 251 251 250 249 250 250 251 
244 212 197 177 222 252 251 252 251 251 249 251 253 248 250 251 
250 250 250 250 252 247 216 252 251 253 252 253 253 253 252 252 
251 251 252 249 250 249 249 249 249 249 249 249 248 249 248 246 234 234 248 248 
250 249 250 250 251 248 249 250 249 247 248 246 237 187 172 182 
193 220 248 251 250 251 251 250 250 250 250 249 250 250 248 249 
250 252 250 251 251 251 251 251 251 251 251 250 250 250 250 250 
230 208 195 183 192 245 250 251 252 251 251 251 251 252 250 251 
251 251 251 252 251 251 233 232 253 252 252 252 252 252 252 251 
251 251 251 249 250 248 250 250 249 249 248 247 248 248 248 243 214 245 250 249 
250 250 251 250 250 251 250 250 250 247 248 248 226 166 169 180 
191 212 250 251 251 251 250 251 251 250 250 251 249 248 249 251 
251 251 251 250 251 251 251 250 252 250 250 250 250 250 251 251 
227 208 188 197 196 234 250 250 251 252 252 252 249 251 251 252 
251 251 251 252 253 252 252 221 251 253 253 253 252 253 252 251 
251 251 251 249 249 248 249 248 248 248 248 248 249 248 245 227 230 250 250 248 
250 251 249 250 250 250 250 250 250 248 247 247 192 165 173 179 
187 211 251 250 250 251 251 251 250 251 251 250 248 249 251 252 
252 252 251 251 251 251 251 251 250 251 251 250 251 250 250 246 
219 197 177 194 197 221 250 251 252 251 251 252 252 252 251 250 
250 250 251 252 253 253 251 242 234 253 252 252 252 253 253 253 
251 251 251 249 249 249 248 248 248 248 248 248 248 245 243 218 248 250 250 250 
251 251 251 250 250 248 248 249 247 247 248 247 171 163 171 181 
184 198 251 251 251 250 251 251 250 250 250 249 250 250 251 251 
253 251 251 250 250 252 251 251 251 251 250 250 249 250 251 243 
207 180 172 192 198 213 250 251 252 250 251 252 252 252 251 250 
251 252 252 250 252 252 251 252 222 250 252 252 252 252 252 253 
250 252 251 249 249 249 249 249 248 250 249 247 247 248 228 233 248 250 250 250 
251 251 250 250 250 250 250 248 249 248 248 230 167 165 167 178 
185 180 248 251 251 251 251 251 250 250 250 251 250 251 251 251 
252 251 251 251 252 251 251 251 251 252 252 251 251 250 251 240 
200 170 170 186 197 207 251 251 251 252 252 251 251 252 252 251 
251 252 250 250 251 251 251 251 241 233 254 253 253 252 252 252 
251 251 251 246 248 250 250 249 248 249 247 248 247 242 212 248 248 249 251 251 
251 250 250 250 250 250 249 249 249 248 247 220 173 172 165 179 
182 181 249 251 251 251 251 251 249 250 250 251 251 251 251 251 
251 250 251 252 251 251 250 251 251 251 252 251 251 251 252 235 
194 172 172 188 195 216 248 251 252 252 250 250 252 251 252 251 
251 252 252 252 251 251 251 251 250 220 252 253 253 252 253 252 
251 251 251 249 250 250 249 249 248 248 248 248 247 235 229 251 250 251 251 252 
251 250 250 250 250 250 250 248 248 248 249 213 171 175 174 183 
180 182 250 251 251 251 251 251 251 251 251 251 251 251 250 251 
252 252 251 251 251 250 251 250 251 251 251 251 252 251 251 232 
194 173 176 191 201 219 250 253 252 251 252 253 252 251 253 251 
252 252 250 251 251 251 251 251 251 232 237 252 253 252 251 252 
253 252 251 249 249 249 250 250 249 249 249 248 243 220 241 250 250 251 251 251 
250 250 251 250 250 249 250 250 249 249 250 215 175 174 179 186 
182 197 247 250 251 251 251 251 251 251 251 251 251 251 250 250 
251 252 252 252 251 250 252 250 251 250 250 250 250 250 251 236 
200 174 175 191 202 232 251 251 251 251 251 251 252 252 252 250 
251 249 251 251 250 252 251 251 251 249 223 253 252 252 252 252 
252 251 251 249 248 249 248 248 247 248 245 246 241 217 245 251 252 252 251 251 
251 252 251 251 250 249 250 249 248 250 250 226 174 172 178 179 
181 201 243 251 251 251 251 252 251 250 251 251 251 252 251 251 
251 251 251 251 251 251 251 250 250 251 251 250 250 250 251 244 
197 174 176 193 195 241 251 250 251 252 251 251 252 252 251 252 
252 253 252 251 251 252 251 252 251 252 224 249 252 251 252 252 
250 252 252 250 248 249 249 248 247 248 248 247 239 222 250 251 251 252 251 252 
252 251 251 251 251 250 250 250 250 249 251 234 180 172 175 178 
171 212 247 250 250 251 249 250 251 251 251 251 250 251 251 252 
252 251 251 251 251 252 251 251 251 251 250 250 248 249 250 246 
208 169 175 194 206 252 251 251 252 252 252 252 252 252 253 252 
252 252 252 251 251 251 251 251 251 250 229 235 251 251 251 252 
251 252 250 249 249 248 248 248 248 246 247 245 231 233 250 250 253 253 252 252 
251 251 251 251 251 251 251 251 250 250 250 242 206 181 169 173 
187 237 248 251 251 251 249 250 250 250 251 251 251 251 252 252 
252 252 251 251 252 252 251 251 251 251 251 250 250 250 251 250 
225 168 177 194 224 250 251 251 252 252 251 252 252 252 252 252 
252 251 251 253 252 251 250 250 250 251 247 217 251 251 252 252 
251 252 253 247 248 249 247 248 248 247 247 245 224 239 250 251 252 252 252 254 
252 251 252 252 251 251 250 251 250 250 251 252 240 206 174 176 
211 251 249 251 251 251 249 250 251 250 250 250 251 251 251 251 
252 252 252 251 251 251 253 251 251 251 250 251 251 250 250 252 
251 224 209 220 244 249 250 252 252 252 252 251 251 251 252 253 
252 251 251 250 251 251 251 251 250 251 253 205 252 252 253 252 
252 252 251 248 249 249 249 248 248 247 247 245 220 246 252 252 251 251 252 253 
252 252 252 252 252 252 251 251 251 251 251 252 253 226 208 221 
251 253 251 251 251 250 250 250 250 251 251 249 249 250 250 251 
252 252 251 251 252 253 252 251 251 252 251 251 251 250 251 251 
251 250 250 250 250 252 252 252 250 252 252 252 252 253 253 251 
253 253 251 252 251 251 251 251 252 249 250 205 249 252 252 251 
253 253 252 247 248 247 248 248 248 247 247 246 219 249 250 251 252 251 252 253 
253 252 251 253 251 250 252 250 252 252 250 252 253 253 253 254 
252 252 251 251 251 251 250 251 250 249 249 249 250 251 251 251 
252 252 252 252 252 251 252 252 252 252 251 251 250 251 252 251 
251 253 253 253 252 253 252 252 252 253 251 252 252 251 252 253 
253 252 251 252 252 251 250 250 252 250 251 214 232 252 251 252 
252 252 253 249 249 250 249 247 247 247 249 244 214 250 251 252 252 252 251 251 
252 252 252 252 252 251 251 251 250 252 252 252 253 252 252 252 
251 251 252 251 250 251 250 250 250 251 250 251 251 251 250 251 
252 251 251 252 252 251 252 252 252 252 252 251 252 251 252 253 
253 252 252 251 252 253 252 253 253 252 252 252 252 252 251 251 
251 252 252 251 250 251 251 251 251 251 251 230 222 252 251 252 
252 252 252 250 249 249 249 248 248 248 247 244 215 250 251 252 250 251 252 253 
253 253 253 252 252 252 251 251 251 251 253 252 252 252 252 251 
250 251 251 252 251 251 251 250 250 251 251 251 251 250 250 251 
251 252 251 252 252 252 252 251 252 251 251 251 251 250 252 250 
252 253 252 252 252 252 253 252 252 253 252 252 252 253 252 251 
252 251 252 251 251 251 251 251 251 251 251 241 207 251 250 251 
252 252 252 250 250 249 249 248 248 249 249 239 214 250 251 252 252 252 253 252 
253 252 252 252 251 252 251 251 250 252 250 250 250 249 250 250 
251 251 251 251 250 251 251 251 251 251 251 251 252 251 250 250 
251 251 252 251 252 252 252 252 251 252 252 251 251 250 251 253 
252 252 252 253 254 253 253 252 251 251 251 251 251 252 252 250 
252 252 251 251 251 251 251 251 251 252 252 248 199 253 252 252 
252 252 252 249 250 249 248 248 248 248 249 237 215 250 251 252 252 252 252 252 
252 253 253 252 253 251 252 250 250 250 251 250 250 251 249 250 
250 251 251 251 251 251 252 251 251 251 251 251 251 250 250 251 
252 252 252 252 253 254 252 252 252 252 252 252 251 251 251 251 
252 251 251 251 252 252 252 252 253 251 251 252 252 252 252 252 
252 252 252 251 251 251 251 251 251 249 251 250 191 252 252 252 
253 252 251 249 249 249 250 248 249 249 247 232 216 250 251 252 251 252 252 252 
253 252 252 251 251 251 251 251 251 251 250 250 251 250 248 250 
250 251 252 252 252 252 251 250 250 250 252 251 250 251 250 252 
252 253 252 252 252 253 252 252 252 252 251 251 250 251 251 250 
252 249 251 251 251 251 252 252 252 252 253 253 253 253 251 251 
251 251 251 251 251 251 252 251 252 250 250 250 175 252 252 251 
252 251 252 249 249 249 248 248 249 249 246 231 217 250 250 252 254 252 253 252 
251 250 251 252 252 251 251 251 251 251 250 251 252 250 248 251 
252 252 251 252 251 251 251 250 252 251 251 250 251 252 251 250 
251 252 252 252 252 251 252 252 253 251 251 252 250 251 251 252 
251 251 250 252 252 253 252 252 252 252 252 252 252 252 251 251 
252 251 251 251 251 250 252 251 250 250 250 251 195 251 250 252 
252 252 250 249 250 249 251 249 249 248 247 234 213 249 253 253 253 253 253 251 
252 251 251 251 252 252 252 252 253 251 251 250 251 252 252 251 
251 251 252 251 251 250 251 250 250 251 250 252 251 251 250 249 
252 251 251 251 252 253 251 252 252 251 252 252 252 252 252 253 
252 251 251 251 253 252 252 252 252 253 251 251 251 252 252 252 
252 252 252 252 251 252 251 251 250 250 250 251 208 253 252 251 
251 251 251 249 249 248 249 249 248 247 245 235 216 247 251 251 253 252 252 251 
251 251 251 250 250 252 252 252 251 251 251 250 252 252 251 251 
251 251 250 252 250 250 251 251 252 252 252 251 251 251 251 251 
249 251 252 253 252 251 252 253 253 253 252 251 252 253 252 251 
252 252 249 251 252 252 252 252 250 251 251 252 252 252 252 252 
251 251 252 251 252 252 251 252 253 250 252 251 201 252 252 254 
252 250 252 249 249 249 248 249 249 249 249 244 221 249 251 252 252 250 251 251 
251 250 251 251 250 251 252 251 251 253 251 251 252 252 251 251 
253 252 252 253 251 251 251 251 251 250 250 248 251 251 251 251 
250 251 251 253 253 253 252 252 252 252 251 252 252 252 252 252 
251 251 252 251 251 251 252 252 252 252 252 251 251 251 251 251 
252 249 251 251 251 251 250 251 251 250 251 250 205 252 251 251 
251 251 252 249 250 248 248 248 248 248 247 247 219 249 250 251 252 252 251 251 
251 250 250 251 251 250 252 252 252 252 251 250 252 251 252 251 
252 252 252 252 253 253 253 252 251 251 251 251 251 251 252 252 
250 252 252 252 252 252 252 252 252 251 253 252 251 252 252 252 
251 252 252 252 251 251 251 253 252 252 252 252 252 252 252 250 
252 251 251 252 251 252 252 250 250 250 250 252 205 253 252 253 
252 252 251 250 248 249 248 248 247 248 247 248 217 247 250 250 250 252 251 251 
251 251 252 251 251 250 253 253 252 252 251 252 252 252 252 253 
253 252 252 252 252 253 252 252 252 252 252 252 251 252 251 251 
251 251 252 253 252 252 252 252 252 252 252 252 252 251 253 252 
251 252 251 252 252 251 252 252 253 252 251 252 252 251 251 251 
252 250 252 252 251 251 251 250 251 250 250 251 207 253 252 251 
251 251 252 248 248 248 247 247 246 247 246 246 216 243 250 250 251 251 250 251 
252 252 251 250 251 251 251 250 251 252 251 252 251 250 252 252 
254 253 253 251 251 252 252 252 252 252 251 249 251 251 251 251 
252 253 251 251 252 252 252 252 252 251 251 252 252 250 251 251 
252 252 252 253 251 251 250 252 252 252 252 251 251 252 251 251 
252 252 252 250 252 252 250 250 251 252 250 248 213 254 252 252 
252 252 252 248 247 249 247 247 248 247 245 247 222 231 250 249 250 251 249 251 
252 252 251 251 251 251 251 250 251 251 252 251 251 251 252 252 
253 253 251 252 251 250 252 252 253 252 252 251 252 252 253 252 
252 252 252 252 252 253 253 253 251 253 252 252 251 250 252 252 
253 253 253 252 253 252 252 253 252 253 252 252 252 252 251 251 
251 251 251 251 252 251 251 252 251 249 250 241 213 253 252 251 
252 251 252 247 248 248 249 247 246 245 245 246 234 219 250 252 252 250 250 250 
250 251 251 251 251 251 251 249 250 251 252 251 251 251 253 253 
253 252 252 251 251 252 252 254 252 252 252 253 253 253 251 253 
252 252 252 253 252 253 252 252 253 251 251 252 251 252 251 251 
252 252 252 252 251 252 252 251 251 252 252 251 251 252 252 252 
251 251 252 252 251 251 251 252 250 251 251 229 223 252 252 252 
252 252 252 247 248 248 247 248 246 247 248 248 243 206 249 251 251 251 251 251 
252 252 252 251 250 252 250 250 251 252 252 251 251 251 251 251 
252 252 251 251 252 251 252 251 253 253 253 253 251 252 251 252 
252 252 251 252 252 252 252 251 251 252 251 253 252 252 252 252 
252 252 252 253 252 252 253 253 251 251 252 251 251 252 252 251 
251 251 252 252 252 252 250 250 251 252 251 210 242 251 252 252 
252 252 252 246 247 247 248 248 246 248 247 246 245 205 248 250 251 251 253 252 
251 251 252 252 251 251 251 251 250 251 250 251 251 250 251 252 
252 252 252 251 253 252 252 252 252 252 252 253 253 251 252 253 
251 252 252 252 251 252 252 253 252 252 253 252 251 252 252 252 
252 253 253 251 252 253 252 252 253 252 251 251 252 252 252 252 
252 253 252 253 254 252 252 253 252 251 251 206 252 252 252 250 
251 252 252 246 247 245 247 248 247 247 248 246 247 215 241 250 250 250 250 251 
251 251 252 251 251 252 252 252 251 251 251 252 251 251 252 252 
250 252 252 251 251 251 253 253 253 253 253 252 252 253 253 252 
253 253 252 251 252 252 252 252 253 253 252 251 251 252 252 252 
251 250 253 252 251 253 252 253 251 252 251 251 252 251 251 253 
251 252 254 252 253 252 252 253 252 251 250 198 253 251 252 251 
251 250 251 248 247 247 249 248 246 247 247 246 246 233 217 251 250 251 251 251 
251 251 252 250 251 251 252 251 252 251 250 249 249 250 250 250 
251 251 252 251 251 251 252 253 252 253 253 252 252 253 251 253 
252 252 253 251 252 251 252 251 252 252 252 252 251 250 251 252 
252 251 252 251 251 251 251 252 251 252 252 252 252 251 252 250 
252 253 251 251 252 252 252 252 252 251 237 212 251 250 251 252 
251 251 251 247 248 248 246 247 247 246 248 247 247 247 201 248 249 250 249 250 
251 251 251 252 251 251 251 251 250 250 249 249 249 249 248 250 
252 251 252 252 252 252 253 252 252 252 253 252 252 252 251 252 
251 252 252 251 252 251 251 251 251 250 251 251 251 251 252 253 
253 249 251 253 252 252 252 251 251 252 253 251 253 252 252 252 
250 252 251 252 250 252 252 252 252 250 210 242 251 251 250 251 
251 250 251 246 248 247 248 247 247 248 245 246 247 247 209 228 249 248 251 250 
250 251 251 252 252 251 251 251 250 250 250 249 250 248 242 235 
251 251 252 252 251 252 252 250 252 250 251 252 251 252 250 251 
251 251 251 251 250 250 251 250 251 250 250 250 248 248 250 251 
251 251 251 252 252 252 252 251 252 252 252 252 253 251 251 252 
250 251 253 252 251 250 253 252 252 252 195 252 252 250 251 251 
250 250 249 249 248 248 248 248 248 247 246 246 247 248 230 206 251 250 250 250 
249 251 251 251 250 251 250 250 250 250 249 250 251 249 245 221 
252 249 251 252 253 253 251 251 252 251 252 252 251 251 251 252 
251 251 250 250 250 250 250 250 250 250 248 249 250 248 244 200 
252 252 251 252 251 251 251 252 252 251 252 252 250 251 251 251 
251 252 252 251 252 250 250 252 251 233 214 251 250 251 250 250 
250 250 250 249 248 248 248 248 247 246 247 247 248 247 250 204 243 249 250 250 
250 251 251 251 251 251 248 250 250 249 248 248 249 248 248 215 
252 250 250 251 250 252 252 251 253 252 251 251 251 251 251 251 
250 251 251 250 250 250 249 250 248 250 249 248 247 250 222 174 
253 251 251 251 251 252 251 250 252 252 252 250 252 251 251 252 
252 252 250 250 252 251 250 251 251 198 247 252 251 251 250 250 
252 250 249 249 249 248 248 248 247 247 246 246 247 246 249 224 221 251 249 249 
250 251 251 251 251 250 250 251 251 251 249 249 248 248 249 227 
234 252 251 251 251 252 252 251 250 251 252 251 252 252 251 250 
250 250 249 248 249 250 249 250 249 248 248 248 250 249 175 198 
252 250 250 251 251 252 252 251 251 250 252 252 252 250 251 252 
251 251 248 251 251 252 249 250 228 213 253 251 251 252 251 250 
250 249 249 248 249 250 248 248 247 248 247 248 246 245 248 247 206 243 249 249 
250 250 250 250 250 250 250 251 251 250 249 250 250 250 249 248 
219 248 252 251 251 251 251 252 251 252 252 251 250 249 250 250 
250 250 250 250 250 250 250 251 249 248 248 249 250 199 193 251 
251 251 251 251 252 251 252 251 251 252 251 252 251 252 251 250 
252 251 251 251 252 250 250 251 209 248 252 252 251 251 250 250 
250 249 249 249 249 249 249 248 249 248 248 246 247 247 248 248 232 218 249 249 
250 250 250 249 249 250 250 249 251 250 250 250 250 249 250 250 
241 221 251 252 252 252 250 251 251 251 251 251 251 251 250 250 
250 250 250 250 249 249 248 249 249 248 248 252 211 178 247 251 
251 251 251 251 251 251 251 250 252 250 251 251 251 251 251 251 
250 250 251 251 252 252 251 238 223 252 251 251 252 251 250 250 
250 249 248 249 248 249 249 248 248 247 247 247 247 247 248 248 247 215 237 249 
248 250 250 250 250 250 248 249 250 250 250 250 249 250 250 250 
251 235 221 246 252 253 252 251 251 251 251 251 251 249 252 250 
250 249 249 250 250 249 249 249 250 249 249 218 179 246 252 251 
251 251 251 251 250 250 251 251 251 251 251 251 252 253 250 251 
250 251 251 251 251 249 252 208 251 251 251 251 251 251 250 251 
250 250 250 248 249 248 249 249 248 248 248 248 248 248 249 249 250 240 211 250 
249 249 249 251 250 249 249 249 251 249 250 250 250 250 250 250 
250 251 243 218 220 244 252 252 252 252 251 251 251 251 250 250 
250 250 250 248 250 250 251 252 252 247 204 173 241 252 252 253 
252 251 251 251 252 252 252 251 251 249 252 250 251 251 250 251 
251 251 250 249 249 251 224 231 252 251 250 251 250 250 250 250 
249 250 249 248 248 246 247 249 248 248 248 248 248 249 248 248 247 250 217 221 
250 249 249 249 249 250 249 250 249 250 251 251 250 250 251 251 
249 249 250 250 231 214 222 239 248 251 252 251 253 252 251 251 
250 251 251 251 250 251 245 230 215 193 202 242 253 252 250 252 
251 250 252 250 251 251 251 250 251 250 250 251 251 252 251 250 
252 250 252 251 252 243 201 252 251 249 252 250 252 250 250 249 
249 251 249 248 247 247 248 248 248 248 249 248 247 248 248 248 248 248 247 203 
241 249 247 249 248 249 249 249 249 250 251 251 251 250 251 251 
251 250 250 251 252 252 243 227 216 216 219 238 242 251 250 252 
248 247 244 240 223 193 186 195 216 243 253 252 251 252 251 251 
252 252 250 251 251 251 251 252 251 251 251 251 251 251 250 252 
252 251 252 252 252 205 242 252 251 252 251 253 251 251 250 250 
249 250 250 245 247 247 248 247 248 248 248 248 248 248 246 247 247 248 250 237 
212 246 250 250 249 249 248 249 248 250 250 251 251 252 251 250 
251 252 250 251 252 253 252 253 251 240 232 228 220 217 216 215 
214 208 205 202 219 235 249 253 254 253 252 252 250 251 252 252 
252 252 252 250 251 251 251 250 251 252 251 251 250 252 252 252 
252 252 252 254 224 223 253 250 251 251 252 251 252 251 252 251 
250 251 250 248 248 249 249 248 248 246 247 247 247 247 247 247 247 247 246 249 
222 222 248 247 247 247 248 248 248 250 250 251 251 252 252 251 
251 251 250 251 251 249 251 250 251 252 253 253 253 252 252 253 
253 252 252 254 253 252 254 253 253 252 251 252 252 251 251 251 
251 252 251 251 251 251 251 251 251 251 251 252 251 252 252 252 
250 251 253 240 213 253 252 253 252 251 253 253 252 253 251 251 
250 250 250 248 248 248 248 248 249 247 247 247 246 247 246 246 246 245 247 249 
248 216 229 249 249 250 249 248 248 248 249 251 251 252 252 252 
253 252 253 252 252 251 251 251 251 251 252 252 252 252 252 253 
253 253 252 252 252 252 251 252 251 252 252 252 251 251 251 252 
252 250 252 252 252 252 251 253 252 252 251 251 251 251 250 252 
250 252 247 204 250 253 252 253 251 253 252 252 251 251 251 250 
252 251 251 248 249 249 248 248 247 248 246 247 247 246 247 247 247 247 247 247 
248 246 215 226 249 247 247 246 248 250 250 251 251 251 251 253 
251 253 252 252 252 252 252 251 252 252 252 252 252 251 250 251 
252 252 252 252 252 252 251 253 252 252 251 250 252 251 252 252 
251 252 252 251 252 252 252 252 251 252 252 252 252 251 251 250 
251 250 218 245 253 253 252 252 252 252 252 252 252 252 251 251 
251 251 251 248 249 248 248 248 248 246 248 247 247 247 246 245 245 246 246 247 
247 247 245 205 232 248 247 246 248 250 249 251 251 251 250 252 
252 252 252 252 252 251 252 251 251 252 252 251 252 253 251 252 
251 251 252 250 252 252 253 252 252 251 253 252 252 250 252 252 
253 252 252 251 252 252 252 252 252 252 253 252 252 252 252 253 
252 221 244 253 252 252 252 252 253 253 251 252 252 252 250 251 
251 251 250 248 249 246 246 248 248 248 247 247 247 246 247 247 245 244 244 246 
246 246 248 242 209 233 248 245 248 249 249 251 250 251 252 252 
252 251 253 252 252 252 252 251 251 251 251 252 252 251 252 252 
253 252 252 253 252 251 252 251 252 253 253 253 252 252 252 251 
252 252 252 253 252 252 252 253 252 251 253 253 252 253 253 249 
220 243 254 252 252 253 252 252 252 253 252 252 251 250 251 251 
251 251 250 248 249 249 249 248 247 248 247 246 247 246 246 245 245 245 246 246 
246 245 244 247 242 208 225 250 249 249 249 251 250 250 251 251 
250 250 251 253 251 252 252 251 252 253 252 252 253 251 251 252 
252 252 252 252 252 252 252 251 251 252 251 252 252 252 252 252 
252 252 252 251 252 252 251 251 252 253 252 251 253 254 246 218 
242 253 252 252 252 252 252 252 252 252 251 252 252 252 251 251 
251 251 251 247 249 247 247 249 248 248 246 248 247 246 248 247 245 244 244 246 
244 245 243 245 248 243 216 221 246 249 249 250 250 250 251 251 
250 250 250 250 251 251 251 251 252 251 252 253 251 252 250 251 
252 252 252 252 252 252 252 252 252 252 252 252 251 252 252 252 
252 252 252 252 252 253 252 251 253 251 252 251 254 247 219 247 
252 252 252 252 253 253 252 252 252 252 252 252 252 252 251 250 
251 252 251 249 248 249 249 248 247 246 247 247 246 247 246 246 245 244 245 246 
244 243 245 246 246 246 247 224 213 244 252 250 250 249 251 249 
250 251 250 251 251 251 251 251 251 251 252 251 251 252 252 252 
251 251 251 251 252 252 251 252 252 253 251 251 251 251 252 251 
251 251 252 251 252 253 253 251 251 251 252 251 238 225 249 253 
253 253 252 252 252 252 252 251 251 252 251 252 252 251 251 251 
251 251 252 249 249 249 248 248 247 246 248 247 246 247 245 246 246 246 246 245 
245 242 246 245 247 244 247 249 232 207 233 248 250 250 250 250 
250 250 249 250 250 250 250 250 250 251 251 251 251 251 251 253 
252 253 251 252 253 252 252 253 252 252 251 252 252 252 252 251 
251 251 251 252 252 253 251 252 252 253 251 227 234 254 253 252 
252 252 253 252 252 253 252 253 251 251 252 253 252 252 251 251 
251 251 253 249 249 248 248 247 247 246 246 247 246 245 245 245 244 245 243 244 
244 246 246 245 247 246 246 246 248 242 216 214 242 250 251 249 
250 250 249 249 250 249 250 250 249 250 251 251 251 251 252 252 
252 252 252 252 251 252 252 251 251 251 251 251 251 251 252 251 
252 252 251 251 252 252 252 253 252 238 225 243 253 253 252 253 
252 251 253 252 252 251 252 252 252 253 252 253 252 252 253 252 
252 254 252 248 249 247 247 248 247 247 247 247 246 246 244 246 244 245 244 245 
246 246 246 247 245 245 246 245 247 248 250 231 209 224 248 250 
250 250 249 248 249 247 249 249 248 248 250 249 250 251 251 252 
250 250 251 251 251 251 250 252 251 250 251 251 250 252 251 251 
250 250 250 250 251 252 253 249 224 229 252 253 253 252 252 252 
252 252 253 252 253 251 252 252 252 251 252 251 252 252 254 253 
251 251 251 248 249 248 248 248 250 247 247 246 245 244 246 246 246 245 244 246 
246 247 247 247 247 246 244 247 246 247 248 251 248 226 213 231 
248 251 250 250 250 248 248 249 247 249 249 250 249 250 251 250 
251 251 251 252 250 251 250 251 251 250 250 250 251 250 251 251 
249 250 251 251 252 250 228 223 247 254 254 254 252 252 252 254 
252 252 253 252 253 253 252 252 252 252 252 252 251 252 251 251 
251 251 252 249 249 248 248 247 247 247 248 248 247 246 244 245 246 246 247 247 
250 246 246 246 247 246 245 248 247 247 247 246 248 248 241 224 
213 221 245 247 246 249 250 249 249 249 249 249 250 249 249 250 
251 251 252 250 252 251 251 250 252 251 251 252 250 250 251 251 
251 253 252 247 225 221 242 253 252 252 253 252 252 252 253 253 
252 252 252 252 252 254 253 253 252 253 253 252 252 252 252 252 
252 252 252 248 248 248 248 248 248 248 248 247 246 247 247 247 247 247 248 248 
247 248 248 247 246 247 247 245 246 247 247 247 248 248 251 251 
247 229 215 217 224 240 248 250 250 249 249 250 250 249 249 250 
250 250 249 251 250 250 249 250 250 250 252 250 252 252 253 253 
252 240 216 222 243 253 253 253 252 253 252 252 253 252 252 252 
252 253 253 253 252 251 252 253 253 252 253 253 253 253 252 252 
252 250 252 249 248 248 248 248 248 247 246 246 247 246 247 247 248 249 250 250 
248 248 248 248 248 246 248 248 247 248 248 247 248 248 247 248 
249 250 249 239 224 211 216 229 242 249 250 250 250 250 249 250 
250 251 251 253 252 252 252 252 252 252 252 252 249 242 235 231 
230 236 251 253 252 252 252 251 252 252 252 252 252 253 253 252 
252 252 252 251 252 253 253 253 253 253 253 252 253 253 253 252 
252 253 252 249 249 249 249 249 249 246 245 246 248 249 247 248 248 249 249 249 
249 250 249 249 249 248 248 248 248 248 248 248 248 248 249 249 
249 247 248 250 251 250 245 230 226 221 218 226 229 232 239 244 
248 250 247 246 251 252 249 249 244 237 233 232 227 228 239 251 
254 253 253 252 252 252 252 252 253 254 253 254 253 252 252 251 
252 252 253 254 253 252 253 253 253 253 253 253 252 253 252 252 
253 252 253 249 249 249 250 250 248 247 246 246 248 249 249 249 250 249 249 248 
249 250 249 249 248 248 248 248 249 249 248 249 248 248 249 249 
249 248 248 249 249 250 251 252 253 252 245 240 238 231 222 229 
231 226 221 205 224 227 231 234 233 235 242 251 254 254 254 254 
252 252 252 252 253 251 251 252 252 252 252 252 252 252 253 253 
254 253 253 252 253 253 253 254 254 254 254 254 253 253 253 253 
253 252 252 250 250 250 249 249 250 249 247 248 250 249 249 249 249 249 250 249 
250 249 249 249 248 249 249 249 249 249 249 250 248 249 249 249 
249 249 250 250 250 249 250 250 250 250 251 252 253 253 253 252 
252 253 253 251 254 254 254 254 254 254 253 254 253 253 252 252 
253 251 252 252 252 251 251 251 252 253 253 253 253 253 252 252 
253 253 254 253 253 253 254 254 253 254 254 254 254 254 253 253 
252 252 252 250 251 250 250 250 251 250 248 250 250 250 249 249 250 250 248 250 
250 249 250 248 248 249 249 249 249 249 249 249 250 248 248 248 
248 247 248 249 250 249 250 251 251 250 250 251 250 250 252 253 
253 253 252 253 252 253 253 252 252 252 253 252 252 252 252 251 
251 252 253 253 253 250 252 252 250 251 253 252 253 253 253 253 
253 253 253 254 252 253 253 254 254 254 254 254 254 254 254 253 
253 252 252 249 250 250 251 249 250 251 251 252 250 250 251 249 251 251 250 250 
249 250 249 249 250 249 249 250 251 249 250 249 250 249 249 248 
248 247 248 249 249 250 250 250 250 250 250 250 250 252 252 251 
252 252 252 252 252 252 252 252 251 252 252 253 252 252 253 253 
252 252 252 252 253 252 252 251 250 252 252 253 253 253 254 253 
253 253 254 254 254 254 254 253 254 253 253 254 254 254 254 253 
253 252 253 251 250 251 251 250 251 252 250 250 251 251 251 251 250 251 250 250 
250 250 250 249 250 250 250 250 249 250 250 250 249 248 249 250 
251 249 250 248 249 250 250 251 252 252 252 251 251 251 249 250 
252 252 251 252 253 253 252 253 253 252 254 252 253 253 253 252 
253 253 252 253 254 253 254 250 252 251 252 254 254 253 251 253 
253 254 254 253 254 254 255 255 254 254 254 254 254 254 254 253 
253 253 253 251 252 252 252 251 252 252 252 252 252 251 251 252 250 251 250 251 
250 249 250 250 249 250 250 249 249 250 250 251 249 250 250 250 
250 250 251 250 251 250 251 252 252 253 253 253 252 252 253 252 
253 253 251 252 253 253 254 253 252 253 252 253 253 253 253 253 
253 254 252 252 254 254 254 253 251 252 253 253 253 253 252 254 
254 254 253 254 254 254 255 254 254 254 254 254 253 254 254 254 
253 254 254 252 253 252 252 252 252 252 252 252 251 251 251 252 252 250 250 250 
250 250 250 250 251 250 250 250 249 250 251 252 251 250 251 251 
251 251 252 251 252 252 253 252 252 252 252 253 253 252 253 253 
253 253 254 253 254 253 254 254 253 253 254 254 254 254 253 253 
253 253 254 254 253 253 254 254 254 252 252 252 252 253 253 254 
254 254 254 254 254 254 254 254 255 254 255 254 253 254 254 253 
253 252 253 252 252 252 252 252 252 252 251 251 252 251 251 251 251 251 250 250 
250 250 250 250 251 251 250 250 251 251 251 251 250 252 251 252 
253 252 252 252 251 252 253 252 252 253 253 252 253 253 253 253 
254 254 254 253 253 254 254 254 254 254 254 254 253 254 254 253 
254 254 254 253 254 253 254 254 254 254 253 253 254 254 254 254 
254 254 255 254 254 254 254 254 254 254 254 254 254 254 254 254 
254 253 254 252 253 253 253 252 251 251 252 251 252 253 252 251 251 251 251 250 
252 251 252 251 251 250 250 252 252 252 252 251 253 253 253 252 
254 253 253 253 252 253 251 253 253 254 253 253 254 253 254 254 
253 254 253 254 254 254 253 252 254 254 254 253 253 254 253 255 
254 253 254 254 254 254 253 254 254 254 253 254 254 254 255 254 
254 254 254 254 254 254 254 254 254 254 254 254 253 254 254 254 
254 254 254 253 252 253 252 253 253 254 253 252 253 253 253 253 251 251 252 253 
253 253 253 253 252 251 252 252 253 253 254 254 253 252 253 254 
253 253 254 253 251 252 253 253 253 254 254 254 254 254 254 254 
255 255 255 254 254 254 254 254 255 254 254 253 255 255 255 255 
254 254 254 255 255 255 254 254 254 254 254 254 255 254 255 255 
255 255 255 254 254 254 254 254 255 255 254 254 254 254 253 255 
255 253 253 250 252 250 253 252 253 252 252 253 254 254 253 251 252 253 252 251 
252 251 252 252 252 252 251 251 252 253 253 252 254 253 253 252 
253 251 252 254 254 252 251 252 252 253 254 254 254 254 253 252 
253 254 254 254 254 254 254 255 254 254 254 255 253 254 255 255 
255 254 254 254 255 254 255 254 254 254 255 254 255 254 254 254 
254 255 255 253 254 254 254 253 254 254 253 253 253 254 255 255 
255 255 255 