P2
# Created by IrfanView
100 100
255
223 222 223 224 224 223 225 225 224 222 220 221 221 222 219 222 221 
219 216 214 221 221 222 221 219 221 220 221 218 220 219 219 220 
219 220 220 219 218 219 219 219 221 219 219 220 220 220 217 218 
218 220 219 220 220 219 219 221 220 218 220 219 221 219 219 216 
221 219 218 220 219 219 219 220 220 218 218 222 219 219 222 222 
220 220 218 218 218 219 220 220 219 217 218 217 219 218 218 218 
218 218 218 224 224 225 223 223 224 225 224 223 225 224 223 222 223 222 223 224 
223 224 220 221 221 221 220 222 221 221 221 221 221 222 221 220 
220 220 220 219 219 219 219 219 220 219 220 223 218 219 219 221 
218 219 220 221 220 221 222 220 217 220 220 219 219 220 220 219 
221 221 221 221 221 220 221 221 220 220 221 222 220 220 220 220 
219 219 219 220 223 221 221 221 222 222 220 217 217 219 218 217 
218 218 218 225 224 225 225 225 223 226 225 225 223 224 225 226 225 223 225 224 
224 223 221 221 224 223 220 222 221 221 219 221 221 220 220 219 
219 219 219 220 221 221 221 219 217 222 223 223 223 222 219 219 
220 220 219 221 219 222 220 220 220 220 220 220 221 219 220 220 
219 220 220 220 220 222 222 221 221 220 223 220 222 220 221 220 
221 221 222 222 221 221 221 225 224 224 221 220 219 219 220 219 
218 220 220 226 225 225 226 226 228 228 225 224 226 225 229 230 228 224 225 226 
225 225 224 223 221 223 223 221 223 220 221 221 221 221 221 222 
221 223 221 221 221 221 220 222 222 221 222 220 222 222 220 219 
220 219 222 220 220 221 222 219 220 221 221 220 220 221 221 221 
220 221 222 222 222 224 223 223 222 222 221 223 222 220 222 221 
221 222 221 221 222 224 222 224 221 225 222 223 220 219 221 220 
219 221 220 226 227 226 227 226 227 227 228 228 228 229 228 229 229 227 228 228 
227 226 227 225 225 225 223 224 225 223 223 222 221 222 222 224 
220 222 222 221 221 220 221 223 222 221 221 221 220 220 220 219 
221 220 221 221 221 222 221 222 222 220 220 220 222 221 221 222 
223 222 222 223 222 220 223 224 223 222 223 222 223 223 222 222 
223 222 219 223 223 221 222 222 222 221 221 219 222 222 222 221 
221 220 220 227 226 228 229 227 227 228 227 229 229 229 231 228 228 227 226 228 
230 230 229 226 225 225 225 224 225 225 222 222 221 222 222 223 
223 221 220 223 222 222 223 224 222 222 223 220 222 224 220 224 
222 223 222 225 225 224 223 225 223 223 224 221 220 221 221 223 
222 221 222 222 223 225 224 221 220 221 222 223 224 223 223 224 
223 222 225 223 222 222 222 224 223 223 222 223 222 222 223 223 
223 222 222 227 228 226 227 229 227 227 229 229 229 229 229 229 230 228 228 227 
230 230 225 225 226 226 225 228 226 225 222 222 222 222 224 221 
220 223 220 222 223 223 224 224 223 223 227 230 225 223 225 222 
218 223 221 221 222 227 223 224 224 223 222 221 223 225 225 223 
223 223 223 223 223 224 222 222 223 224 224 223 222 223 224 223 
224 223 224 223 225 224 225 224 222 222 224 224 223 224 223 223 
223 223 221 230 230 229 229 229 232 232 230 230 230 230 230 230 228 228 228 229 
229 230 229 226 225 226 226 226 226 226 225 223 225 224 224 223 
223 221 223 225 226 225 229 226 226 226 221 205 185 170 169 152 
142 130 115 115 140 154 148 153 169 173 193 211 218 222 223 225 
227 227 225 223 223 223 224 226 224 223 222 224 224 225 224 224 
225 226 224 226 226 225 225 224 223 224 225 225 223 224 226 226 
224 223 224 229 230 231 230 229 228 230 231 230 230 233 232 230 229 232 230 230 
227 229 230 227 229 229 227 226 228 228 227 228 225 224 224 224 
224 226 228 224 213 227 215 189 173 154 135 169 187 199 213 221 
221 221 217 222 227 232 223 220 215 196 167 151 144 153 167 212 
225 230 227 230 224 224 224 224 225 226 224 226 225 225 227 227 
226 225 227 225 227 225 224 224 226 226 225 227 228 229 226 229 
225 224 225 233 232 233 231 232 232 232 232 233 232 232 232 231 231 231 231 228 
232 230 230 231 230 229 228 229 227 227 228 229 228 226 228 225 
225 224 190 146 144 182 165 194 218 230 232 233 231 231 231 231 
229 229 228 229 231 229 229 231 228 231 232 232 234 228 195 160 
144 146 191 223 226 224 224 227 225 225 226 227 227 227 226 226 
228 227 227 227 227 227 228 228 228 226 227 226 228 229 227 228 
226 226 226 231 231 232 232 230 231 232 232 231 231 232 233 231 232 230 233 232 
232 230 232 229 230 231 230 228 229 227 228 228 231 233 231 222 
178 137 119 198 224 232 233 232 230 229 231 228 228 229 227 227 
226 228 227 227 228 228 228 228 227 230 230 229 228 229 233 234 
232 211 163 131 165 210 221 225 229 227 225 227 226 228 228 226 
227 226 227 229 228 229 229 228 227 228 227 227 229 228 227 231 
228 226 227 232 232 232 233 234 232 232 231 232 232 230 230 231 231 232 231 231 
230 233 232 231 231 231 230 230 229 227 229 231 232 231 173 137 
182 214 228 232 233 231 232 232 230 227 229 227 229 230 230 227 
228 228 228 228 230 231 231 231 228 228 231 229 229 229 233 233 
234 234 234 228 203 146 158 206 229 230 228 228 228 228 227 231 
229 228 229 229 228 228 228 229 228 228 229 231 230 228 228 228 
227 227 228 233 231 232 229 230 232 233 232 231 232 233 231 230 232 232 229 231 
232 230 230 230 230 232 232 233 229 229 229 232 210 160 145 221 
232 233 232 231 230 230 232 231 228 230 230 230 230 231 230 230 
229 230 229 229 230 232 231 231 229 229 230 231 231 230 232 233 
233 233 231 232 232 232 213 167 169 210 229 231 230 228 227 230 
229 230 230 230 230 230 231 230 230 229 229 230 230 229 228 227 
229 229 230 232 233 233 233 233 233 232 233 233 232 232 233 233 232 232 232 233 
232 232 232 231 231 231 230 231 231 233 229 172 175 232 235 235 
232 232 230 231 231 232 230 231 230 232 231 232 230 228 229 231 
231 231 230 231 230 231 231 231 232 232 232 231 231 231 232 233 
232 233 233 233 233 233 233 234 211 148 174 221 230 231 230 231 
229 230 231 230 230 231 230 230 230 231 230 229 230 230 229 230 
230 229 227 235 233 233 233 234 233 232 233 233 230 231 234 233 231 232 232 232 
231 231 231 231 230 233 233 232 235 214 155 216 235 235 233 232 
233 230 231 232 231 230 232 233 233 231 230 231 233 232 231 232 
232 232 233 232 233 233 234 234 230 232 231 233 232 232 233 233 
234 233 231 229 230 231 231 231 233 231 184 161 208 231 230 231 
230 230 230 231 228 229 230 229 232 231 232 233 230 229 228 229 
230 231 230 232 233 232 233 232 233 233 232 232 232 232 233 233 231 232 231 232 
232 232 232 231 231 232 233 234 182 176 233 236 233 232 232 232 
231 232 232 233 233 233 232 231 232 232 232 232 231 232 230 229 
232 232 232 233 233 233 233 233 232 232 232 233 233 233 232 233 
233 232 232 232 232 231 234 230 232 234 232 218 158 194 234 231 
229 230 230 231 229 232 230 232 231 232 230 231 231 230 229 230 
230 230 232 232 233 233 233 232 232 232 233 231 233 233 233 231 233 232 233 232 
232 232 231 231 232 235 235 178 195 238 234 232 233 232 233 233 
233 233 232 232 234 233 233 232 233 233 233 231 233 232 232 234 
233 233 233 231 232 232 233 232 232 233 233 233 233 233 232 233 
234 233 231 232 232 233 231 232 230 235 233 231 235 183 177 228 
233 232 230 231 231 232 232 231 231 231 231 231 232 231 231 229 
231 229 228 234 232 233 232 234 232 233 232 234 232 232 232 232 233 233 232 232 
231 231 229 231 234 231 166 214 235 234 233 233 234 234 234 233 
234 233 234 233 235 233 233 234 232 233 233 232 232 233 233 232 
233 231 232 233 232 233 233 233 234 234 233 234 232 233 235 234 
232 233 233 233 232 233 233 233 231 234 233 233 234 236 206 169 
224 233 232 232 231 231 232 231 233 232 233 231 229 229 231 232 
231 231 229 232 232 232 232 232 234 234 232 232 233 233 232 233 231 231 233 233 
234 233 231 234 226 159 223 235 233 233 233 233 233 234 234 235 
234 234 234 233 233 233 234 235 234 234 234 233 233 233 232 233 
231 234 232 233 233 232 232 233 234 233 235 235 234 234 233 233 
233 233 233 233 233 232 233 233 234 234 233 232 233 234 236 223 
168 215 233 232 231 232 232 233 231 232 234 234 233 234 232 231 
234 233 231 233 233 233 234 232 232 232 234 232 234 234 233 232 232 231 232 233 
234 232 232 225 159 222 235 234 234 234 233 233 234 234 233 233 
234 234 234 234 234 234 234 235 234 233 234 233 232 232 234 233 
233 232 232 232 233 232 233 233 234 233 234 234 234 233 236 235 
234 233 233 232 234 234 233 233 234 233 233 234 234 234 235 236 
229 171 215 233 233 232 232 230 232 233 232 232 232 232 233 233 
232 231 231 233 233 233 234 233 233 233 234 233 234 233 233 233 232 231 231 233 
233 234 233 158 222 235 232 233 234 234 234 235 233 234 234 234 
233 234 234 233 233 236 233 235 236 234 235 234 234 234 234 234 
233 234 235 234 234 233 233 234 234 234 234 235 234 234 234 233 
233 233 233 234 234 233 234 233 234 231 232 233 233 234 233 233 
233 226 174 216 233 233 232 232 233 232 233 233 232 232 233 232 
233 232 232 233 233 232 233 233 232 232 233 233 232 233 234 232 234 231 232 233 
234 234 167 218 235 234 234 233 234 233 234 234 234 235 235 234 
234 235 235 235 234 233 233 232 234 234 234 234 234 234 233 233 
234 233 233 231 234 233 233 233 234 234 232 232 233 234 234 234 
233 234 233 234 235 234 235 234 234 235 234 233 233 233 233 233 
232 233 229 178 214 234 232 232 233 233 233 232 233 233 233 234 
234 232 233 234 233 234 233 234 234 234 234 232 235 233 233 234 233 232 231 233 
237 159 203 235 233 233 233 234 235 234 234 234 234 234 233 235 
234 234 234 235 234 237 235 236 234 236 234 234 233 234 234 233 
235 234 234 234 235 235 233 233 234 234 235 234 235 232 235 235 
233 233 235 233 233 234 234 233 233 235 234 233 234 233 232 232 
232 230 233 232 178 218 235 231 233 233 234 234 232 234 235 233 
234 233 232 231 233 234 233 233 233 233 232 234 232 233 234 234 234 232 232 237 
186 199 235 233 233 234 234 234 234 234 233 234 234 233 233 233 
237 235 235 234 234 236 236 235 234 234 233 234 235 234 233 234 
233 234 235 234 232 233 234 234 234 234 235 233 234 233 233 233 
234 233 234 234 235 234 234 236 234 234 234 234 234 233 234 233 
233 232 233 235 233 184 227 233 231 232 232 233 234 233 234 232 
234 234 232 233 233 233 233 233 232 233 233 233 232 232 234 233 234 232 233 215 
176 236 233 232 233 233 233 234 233 234 234 234 234 235 236 234 
233 233 233 234 235 236 237 235 233 234 234 235 234 234 235 235 
233 234 234 234 235 233 234 235 234 235 235 234 233 234 234 234 
233 234 233 235 233 233 235 234 235 233 234 234 234 234 234 233 
233 233 233 232 236 221 190 233 234 232 231 232 235 234 233 233 
232 234 234 235 234 233 233 231 234 229 231 233 234 233 234 233 233 234 231 160 
233 233 233 233 233 233 233 234 233 233 233 234 234 233 234 236 
235 235 235 235 237 235 237 235 236 235 235 236 235 234 235 233 
235 234 235 235 235 235 234 234 234 235 235 234 233 234 234 233 
233 233 235 233 235 235 237 235 234 234 233 234 234 234 233 234 
234 234 233 234 232 233 214 189 232 233 232 230 235 234 234 234 
233 233 232 231 232 233 233 235 234 235 234 233 232 233 234 233 233 239 174 214 
234 233 233 233 233 233 234 234 233 233 235 233 231 234 234 234 
235 234 235 235 234 234 235 235 235 236 235 235 235 235 236 236 
235 236 236 234 235 236 236 236 234 237 234 235 233 234 233 234 
234 234 231 230 234 235 235 235 234 234 235 233 234 234 233 232 
232 233 234 235 234 234 233 188 174 233 233 232 234 234 234 233 
233 232 233 233 233 233 233 233 233 231 234 233 233 232 236 233 233 210 176 237 
234 232 233 233 233 233 233 232 233 233 233 233 234 234 235 235 
236 236 235 234 235 235 236 234 235 236 235 234 236 236 235 236 
236 235 235 234 235 235 235 235 234 237 234 234 233 235 234 232 
233 233 233 233 233 233 235 236 235 236 234 234 235 234 234 234 
234 235 234 236 233 233 234 232 160 214 234 232 235 235 235 234 
234 234 234 233 233 233 232 233 233 232 232 230 233 234 234 235 236 151 233 233 
231 233 232 233 232 235 234 234 233 233 233 237 234 237 234 237 
235 233 233 235 234 236 235 235 236 234 237 236 236 231 236 234 
234 234 235 235 236 235 235 236 235 236 235 234 234 234 233 235 
235 231 228 229 232 231 233 232 236 234 233 234 236 234 234 236 
234 234 234 235 233 234 232 234 221 157 232 235 234 234 233 234 
234 235 235 234 233 233 233 232 232 233 234 233 234 234 235 235 198 196 234 232 
233 234 234 233 233 234 233 230 230 233 237 230 169 125 127 110 
121 155 214 235 236 235 236 235 236 236 236 236 237 236 237 238 
235 235 235 235 237 236 235 236 235 236 236 236 233 235 236 230 
210 201 142 135 153 211 231 232 235 235 234 235 234 233 234 234 
233 235 234 235 235 233 233 232 233 193 208 236 234 233 233 234 
234 234 234 234 234 234 233 233 233 233 234 233 232 232 233 233 147 236 232 234 
234 233 233 233 233 233 233 234 235 238 192 97 114 151 137 136 
102 114 109 171 236 234 234 236 236 236 236 238 236 235 237 236 
236 235 235 236 236 236 235 234 237 236 236 235 234 234 226 172 
111 89 72 91 54 78 158 227 238 235 235 234 234 234 235 235 
234 235 234 235 233 233 234 233 235 234 169 232 235 234 234 234 
234 236 235 233 233 234 234 234 232 233 233 233 233 231 235 176 205 234 233 233 
232 234 233 235 235 234 232 232 235 140 58 82 94 83 67 65 
66 76 73 65 213 235 236 236 237 238 236 236 235 237 237 236 
236 235 237 237 237 235 238 235 236 235 237 235 233 217 117 50 
41 51 54 53 72 52 61 109 173 233 236 235 237 236 234 236 
235 234 235 233 234 234 234 235 233 233 198 198 235 236 234 235 
235 234 235 234 232 234 233 233 233 233 233 232 233 232 217 136 233 234 234 234 
233 234 233 234 233 233 232 233 189 50 71 45 60 52 58 66 
65 86 74 46 128 233 236 237 237 236 236 236 236 235 237 238 
236 238 233 237 236 236 237 237 236 235 234 234 223 105 47 48 
55 66 70 55 72 80 63 44 115 183 236 235 235 236 236 235 
234 236 237 235 235 234 234 235 234 235 231 165 228 234 235 235 
235 236 236 234 233 232 234 233 234 234 234 232 233 234 154 223 235 233 233 233 
234 235 235 236 234 231 232 231 107 38 32 55 85 102 71 63 
70 75 88 43 47 208 236 236 236 237 238 237 236 237 236 236 
236 235 236 237 236 238 237 235 237 236 235 236 141 42 53 65 
85 58 60 71 49 68 51 49 52 135 231 236 236 235 235 235 
236 235 237 234 235 236 234 235 237 233 235 188 194 236 234 236 
235 236 235 231 234 233 232 233 234 233 234 233 233 236 156 239 234 233 234 234 
234 233 234 235 234 233 233 208 45 38 70 138 178 183 182 167 
133 114 102 49 43 131 235 236 237 235 238 238 237 236 237 238 
237 236 236 237 236 235 236 238 236 236 236 191 58 46 75 69 
69 94 129 113 105 65 42 61 41 86 198 238 236 236 236 236 
238 235 236 237 235 235 235 237 237 236 232 218 168 232 236 234 
234 235 235 235 234 234 234 235 234 233 235 233 234 207 201 236 234 234 234 234 
234 234 233 233 234 232 234 176 29 65 198 238 240 241 240 241 
239 217 169 139 45 91 233 237 238 237 236 236 237 237 237 238 
238 236 237 236 236 238 235 236 236 236 236 99 41 44 42 100 
143 195 210 210 203 160 103 58 44 39 180 237 237 237 236 236 
235 236 236 238 235 238 236 236 236 236 234 235 161 213 236 236 
234 236 236 233 234 233 234 233 232 235 233 232 234 160 234 234 233 234 235 234 
234 235 235 235 235 236 235 98 34 147 239 237 237 237 237 235 
239 238 241 220 63 97 220 237 236 238 239 238 236 236 237 236 
237 238 236 236 237 239 237 236 237 236 217 61 37 42 82 210 
218 227 226 226 228 221 214 116 54 36 135 233 236 236 237 236 
238 238 237 236 236 237 235 236 237 235 236 234 183 121 223 236 
235 235 237 233 235 234 234 234 233 234 233 234 231 173 236 234 235 233 234 235 
236 235 236 235 235 236 211 49 61 232 237 235 235 235 236 235 
235 234 235 239 135 91 231 235 236 235 237 236 238 235 236 237 
238 238 237 238 236 237 237 236 237 237 213 59 39 63 196 227 
223 230 232 234 234 235 233 176 79 40 80 224 238 236 236 237 
236 236 235 236 236 237 236 235 235 237 236 235 215 179 237 236 
236 236 236 234 234 234 235 233 233 235 234 234 193 205 235 234 234 235 235 235 
234 235 234 235 235 234 195 50 144 238 235 235 234 235 235 235 
235 234 234 237 216 105 230 236 237 235 237 236 236 236 234 238 
236 235 236 236 236 236 236 238 239 235 234 114 51 175 235 235 
235 234 234 235 234 235 237 240 228 109 62 194 236 236 237 236 
237 237 237 236 237 236 236 236 236 236 237 235 231 204 237 236 
236 236 236 235 234 234 233 235 234 234 235 236 167 229 236 236 236 235 235 235 
235 236 235 235 235 235 189 56 168 236 237 235 235 236 235 235 
235 235 234 234 239 186 228 236 237 237 236 238 237 235 237 237 
237 237 237 237 236 238 237 237 236 237 237 148 105 236 237 237 
236 235 235 235 234 234 234 235 237 160 137 213 238 236 237 237 
237 237 237 237 237 237 237 238 237 237 236 236 236 203 234 236 
236 237 237 236 234 235 235 234 235 233 233 238 164 239 236 236 235 235 234 236 
236 233 235 233 235 235 234 139 206 236 235 236 234 234 235 235 
235 235 235 234 235 227 231 237 236 236 237 236 235 238 238 237 
238 239 237 238 237 237 237 235 237 236 238 214 217 236 237 238 
235 237 234 235 235 236 235 236 236 226 224 242 238 236 238 237 
238 237 237 237 237 237 237 237 235 236 236 236 235 205 229 235 
236 236 234 236 236 235 235 234 235 234 236 234 167 238 234 235 237 237 237 237 
236 236 235 235 236 235 236 226 239 235 236 236 235 236 235 235 
236 234 235 236 235 237 237 237 238 238 238 238 238 237 236 237 
237 237 237 238 236 237 237 238 237 235 237 240 240 238 238 238 
236 236 235 235 237 238 237 236 237 239 241 239 237 238 237 237 
237 236 237 237 237 237 237 238 237 236 237 238 234 208 213 232 
231 235 238 237 235 236 235 234 235 235 236 219 183 238 238 238 235 235 236 236 
237 237 238 237 236 236 235 239 237 236 235 236 237 236 235 235 
236 235 236 234 236 236 237 236 237 237 235 236 238 236 237 236 
238 237 238 237 237 238 237 237 237 237 238 237 237 236 237 238 
236 238 239 237 238 237 237 238 238 239 239 239 237 237 238 240 
238 237 238 237 236 236 237 238 236 236 233 230 229 223 200 235 
236 236 238 238 236 235 235 235 236 234 236 209 204 238 236 237 236 237 237 236 
235 235 237 236 236 236 235 236 237 237 237 236 236 235 236 237 
235 235 236 236 235 237 237 237 236 237 239 236 236 237 236 237 
238 235 237 238 237 238 237 239 239 237 239 238 237 236 239 239 
237 237 236 238 237 238 237 238 237 237 237 238 239 239 237 237 
236 237 238 238 238 238 238 239 237 236 238 238 237 230 195 238 
238 237 238 236 237 236 236 235 234 236 237 190 220 239 236 236 237 238 237 237 
236 237 237 236 236 235 237 237 237 236 237 238 237 238 237 237 
237 238 237 237 237 237 237 238 238 238 238 238 238 237 238 238 
238 237 238 238 238 238 237 240 238 237 238 237 239 237 238 236 
238 238 236 238 238 238 239 238 238 238 238 238 238 239 239 240 
238 238 239 237 239 238 237 238 238 238 237 238 239 233 190 236 
238 236 237 237 236 236 235 236 236 237 237 183 228 239 237 238 238 237 238 236 
237 237 238 237 239 238 237 238 236 236 237 238 237 237 236 238 
237 237 238 236 237 237 237 237 237 239 236 238 239 238 237 238 
238 238 237 238 237 239 238 240 239 238 238 237 236 238 237 239 
238 236 235 236 238 239 238 238 239 238 238 239 238 238 240 238 
238 237 239 238 237 239 238 237 237 240 238 237 237 234 193 240 
239 238 239 236 237 238 235 236 237 237 237 185 234 239 237 237 236 237 237 238 
239 237 237 238 234 235 237 237 238 238 237 236 237 238 238 237 
238 238 237 238 238 238 238 237 239 237 237 238 238 238 238 238 
239 239 238 239 239 239 239 239 238 238 238 238 238 238 239 239 
237 237 238 239 238 238 238 237 239 239 238 239 239 239 238 240 
238 239 239 237 238 238 238 238 239 239 238 239 236 235 198 238 
238 239 239 238 237 236 237 235 236 239 236 162 238 237 236 239 238 237 238 238 
239 237 237 239 240 237 238 238 237 237 237 239 236 238 239 237 
240 239 238 238 237 236 236 238 237 238 238 237 238 238 238 238 
238 238 238 237 236 238 238 239 238 238 239 237 237 238 237 236 
237 237 238 239 238 239 238 239 239 239 239 238 237 238 237 238 
239 239 240 239 238 238 237 238 239 238 237 236 237 236 201 238 
238 238 239 237 236 239 236 237 238 236 239 159 238 239 238 239 239 239 238 239 
240 238 239 237 237 237 238 237 238 239 237 238 237 237 237 238 
237 238 238 236 239 239 237 238 237 237 238 239 238 238 238 238 
237 238 238 238 239 238 238 237 237 238 239 238 237 238 239 240 
239 239 239 239 238 237 240 238 238 240 238 239 240 238 239 238 
239 238 239 238 239 239 238 238 239 238 238 238 238 240 200 239 
238 239 238 239 237 239 237 237 238 238 238 173 240 239 238 238 238 239 239 239 
239 239 238 238 238 238 238 238 237 237 238 236 238 238 239 237 
238 236 237 237 238 238 238 238 238 238 238 236 238 238 238 237 
238 238 238 238 239 237 238 238 238 237 237 237 239 237 239 239 
239 240 238 238 238 238 237 238 239 239 238 239 239 238 238 239 
238 241 238 240 238 239 239 239 238 237 238 240 239 239 200 239 
239 239 240 237 238 239 240 238 236 237 241 178 240 239 239 238 239 239 239 240 
237 238 238 239 238 239 237 239 240 239 237 237 238 240 239 239 
238 239 238 237 237 238 238 238 238 238 238 239 238 238 237 237 
239 238 238 238 238 238 239 239 238 239 239 239 239 238 238 238 
239 238 239 239 238 238 238 240 239 239 239 239 240 241 238 239 
237 237 240 239 238 241 240 239 238 239 241 239 237 238 195 236 
237 239 238 239 239 238 238 238 238 237 239 175 239 239 240 239 239 239 239 240 
239 239 238 238 237 238 238 240 236 237 238 238 238 239 238 237 
237 238 238 238 237 237 238 237 237 238 239 238 239 238 239 238 
238 238 238 238 237 238 237 238 237 238 238 237 237 237 239 238 
238 238 239 239 239 239 239 238 240 240 239 238 239 239 239 239 
239 240 239 239 238 237 238 240 239 240 239 240 239 238 197 237 
237 238 239 239 238 238 239 239 237 239 240 181 237 240 240 239 239 239 239 238 
237 239 240 238 239 237 240 238 237 237 238 238 239 238 237 239 
240 238 238 238 238 239 238 238 238 238 237 237 237 236 236 237 
240 239 239 239 238 238 237 237 238 238 237 237 237 238 237 240 
237 239 238 239 239 239 239 239 240 240 238 239 240 239 240 239 
238 240 238 238 240 240 240 238 239 239 240 240 239 238 201 238 
239 239 238 239 241 238 238 240 239 239 240 179 235 238 237 239 239 239 240 238 
239 239 239 240 239 238 239 238 239 238 236 238 237 240 239 238 
238 239 239 238 238 237 237 238 238 238 238 238 237 239 238 238 
236 237 238 238 236 238 238 238 238 238 236 237 238 236 237 238 
239 239 239 239 239 239 239 239 239 239 240 239 239 239 239 240 
241 239 239 240 239 239 240 239 238 238 240 239 238 238 201 238 
239 239 238 240 240 240 239 240 239 239 240 186 225 241 240 240 240 238 239 240 
239 240 238 239 238 237 237 238 238 239 238 237 238 241 240 240 
236 238 239 240 239 239 238 239 237 237 238 238 238 237 239 238 
237 238 237 237 238 238 237 238 239 237 237 237 238 239 237 237 
238 239 239 239 239 238 239 239 239 239 239 239 239 238 240 238 
239 241 238 239 240 240 240 238 239 238 240 240 238 234 198 240 
238 239 238 240 241 240 240 240 240 240 240 198 209 240 240 240 240 240 240 239 
239 238 236 238 240 239 240 240 239 238 239 237 236 200 242 243 
242 239 238 239 239 238 238 239 237 239 238 238 237 239 238 241 
239 237 237 237 237 237 237 236 238 238 237 237 236 235 236 237 
239 236 240 241 240 239 240 238 238 239 239 239 239 239 239 239 
240 240 238 239 238 238 239 239 239 239 240 240 239 231 202 239 
240 239 238 240 240 239 238 239 240 241 241 208 198 241 239 239 240 240 239 239 
241 240 241 239 239 239 239 239 238 238 237 239 241 113 135 230 
243 239 239 239 239 238 238 237 237 237 238 238 237 237 237 238 
239 238 239 238 236 238 237 238 238 237 235 235 235 235 236 238 
237 126 204 237 240 239 240 239 239 238 239 240 240 240 238 240 
240 240 239 239 240 239 240 239 239 239 239 239 238 225 214 239 
235 237 238 241 240 240 240 239 240 239 237 224 177 242 239 240 241 240 238 240 
239 239 239 240 242 240 240 239 239 239 240 238 240 165 38 75 
219 242 241 239 239 239 239 239 237 238 238 238 237 237 238 236 
237 237 237 237 238 237 237 238 238 238 237 236 235 234 239 238 
167 94 234 239 238 239 239 239 240 240 239 239 240 240 240 239 
239 241 239 241 240 239 241 238 239 238 238 239 237 203 231 238 
239 238 238 240 240 240 241 239 239 240 239 234 160 240 240 240 239 239 242 240 
239 239 239 239 240 240 239 239 239 237 239 239 238 203 52 52 
90 218 242 241 239 239 238 238 237 237 238 237 238 237 238 238 
238 238 238 238 239 238 240 237 236 236 235 236 236 238 238 182 
55 145 240 240 240 238 238 241 238 240 240 238 239 240 240 239 
239 240 239 239 239 239 240 239 237 238 236 239 238 201 236 239 
238 239 239 240 241 241 240 241 240 240 239 242 155 239 241 240 240 241 241 240 
240 241 240 241 240 240 239 239 238 239 239 239 240 221 87 45 
54 103 205 244 243 240 239 238 238 237 236 238 238 239 237 237 
238 238 239 239 237 239 240 238 238 239 238 240 239 231 165 64 
68 196 241 240 238 240 239 239 238 239 239 241 238 238 240 239 
239 239 239 240 240 240 240 240 238 237 238 235 240 195 238 238 
239 237 237 240 241 241 240 241 242 240 239 242 180 222 242 241 241 241 240 240 
241 241 240 241 241 240 241 240 240 241 240 239 240 240 159 59 
43 61 97 157 239 243 242 238 238 237 239 238 237 238 237 238 
238 237 238 239 239 240 241 241 241 242 241 238 210 139 65 60 
125 231 240 239 239 240 239 239 240 240 239 239 241 240 240 240 
240 239 239 239 239 239 240 239 239 238 239 236 232 208 238 238 
238 239 239 241 241 240 241 241 241 240 239 240 220 172 241 241 240 242 242 241 
241 241 241 241 242 240 240 240 241 242 240 241 241 240 240 198 
61 47 63 93 99 152 209 241 240 239 239 240 237 239 243 240 
239 240 240 240 241 242 241 239 225 194 171 143 91 63 59 111 
233 242 239 239 239 239 239 240 240 237 240 238 238 240 240 238 
240 239 240 240 238 239 240 238 238 239 239 235 216 224 238 239 
239 239 239 241 240 240 240 240 240 239 239 240 243 133 243 241 241 241 241 240 
240 240 241 240 239 240 240 238 240 239 241 241 240 240 241 245 
199 76 70 67 80 94 103 131 168 198 228 236 238 240 241 239 
237 237 234 225 212 204 153 133 123 115 93 62 58 70 93 218 
242 240 239 239 240 238 239 238 239 239 239 239 239 239 240 239 
240 239 239 239 239 239 239 238 239 240 240 239 201 236 238 236 
240 238 237 241 241 241 242 242 241 239 240 241 244 178 210 243 242 242 241 242 
241 241 243 242 242 242 239 241 240 240 240 239 240 240 239 240 
190 148 88 68 95 83 79 102 98 106 109 112 124 134 123 115 
114 111 103 94 99 98 106 127 100 76 83 81 64 83 198 242 
240 237 241 240 240 240 241 238 238 238 238 238 238 238 238 240 
239 239 239 236 239 239 239 237 238 239 239 233 199 239 237 238 
237 237 237 242 242 241 241 241 242 241 240 241 243 231 167 244 241 241 241 242 
241 242 242 241 242 241 241 242 241 241 240 240 241 240 239 240 
237 208 206 168 103 71 120 115 100 97 81 83 93 109 88 80 
81 89 97 95 95 111 92 86 89 120 123 84 92 193 242 240 
240 240 240 241 241 240 241 238 239 239 239 240 238 239 239 239 
239 239 240 239 240 239 239 239 241 240 241 224 219 238 238 236 
237 238 238 243 243 242 242 242 242 242 242 243 243 242 164 242 243 242 241 242 
241 242 243 242 243 241 240 241 241 240 241 241 242 241 240 241 
241 242 241 239 224 178 115 85 110 116 127 95 76 82 83 83 
115 127 106 82 80 87 93 111 124 122 83 107 195 245 241 240 
240 240 239 240 240 240 239 238 238 238 239 239 237 238 238 239 
238 239 238 240 239 239 241 240 241 240 241 200 235 238 237 239 
239 239 238 243 243 242 243 242 243 242 242 241 242 242 190 191 242 242 241 241 
242 242 242 242 242 241 242 241 241 241 241 241 240 241 240 240 
240 241 241 242 242 246 245 225 181 89 84 83 79 91 87 67 
94 89 93 96 88 109 82 83 83 110 169 231 243 242 240 240 
240 240 239 240 241 241 240 238 240 239 238 239 238 238 238 239 
238 238 239 238 240 238 240 239 239 239 234 208 238 238 238 237 
236 237 239 243 243 243 243 242 242 242 242 243 244 245 223 123 244 242 242 243 
241 242 242 242 243 242 241 241 241 243 242 241 241 240 241 240 
242 241 240 240 241 242 242 243 242 197 176 139 116 105 86 72 
87 115 91 77 96 86 96 148 204 237 243 243 242 240 240 241 
242 242 240 240 241 240 241 239 239 238 240 239 239 237 238 239 
239 238 239 239 238 238 238 237 238 239 211 231 238 239 238 238 
237 237 238 244 243 243 243 243 243 241 244 241 243 242 246 164 200 246 243 242 
242 242 242 242 242 242 242 241 241 241 242 241 241 241 241 241 
240 242 241 240 239 241 240 240 242 245 245 242 242 238 226 216 
207 192 155 139 163 213 235 243 243 242 241 242 241 240 241 240 
240 240 240 240 240 239 239 241 239 239 237 236 237 239 238 236 
237 238 236 239 239 238 238 238 239 227 192 240 237 237 237 238 
238 237 238 244 244 244 244 242 242 243 243 243 243 242 242 235 152 242 242 242 
241 240 243 243 243 243 242 242 242 241 242 242 241 242 241 242 
241 242 242 242 240 241 241 241 240 241 242 242 243 242 243 243 
243 242 243 243 241 241 244 244 242 241 241 241 240 241 241 241 
240 241 239 241 240 240 240 238 238 238 238 238 237 236 238 238 
238 239 238 238 238 237 238 238 239 203 223 238 237 239 238 236 
237 235 237 244 244 243 243 244 244 244 243 244 244 244 243 247 178 189 245 242 
242 242 243 243 243 243 243 242 242 243 243 242 242 241 241 242 
242 243 242 241 242 242 242 242 241 241 241 243 241 240 241 242 
241 241 241 242 240 241 242 241 241 242 242 241 241 241 242 241 
241 240 241 240 240 240 240 240 239 239 239 238 239 237 237 238 
238 238 239 239 237 236 236 235 231 194 240 239 239 238 237 238 
238 237 237 242 244 244 244 243 244 244 242 243 243 242 244 244 229 149 240 244 
241 241 241 242 242 243 242 242 243 243 242 242 241 242 242 242 
242 242 242 242 243 243 241 241 242 242 242 242 243 242 241 238 
241 241 241 241 241 241 241 242 241 240 242 240 240 241 240 241 
240 242 242 241 241 241 240 239 239 238 238 237 238 239 237 237 
238 237 236 238 238 236 236 239 201 227 239 240 236 239 239 239 
238 239 239 245 245 245 247 246 243 243 245 243 245 244 243 243 247 202 185 245 
243 244 242 243 243 243 242 243 241 241 242 242 242 242 242 242 
242 242 242 242 242 242 242 242 241 241 241 242 241 239 240 241 
241 241 238 241 242 242 241 240 243 242 242 242 242 242 241 240 
240 242 242 241 241 241 240 239 240 240 238 237 239 238 239 239 
238 237 237 239 239 235 235 221 202 240 239 237 239 239 239 239 
239 239 238 245 245 246 246 245 245 244 244 244 244 242 245 244 245 244 157 229 
244 244 242 242 242 243 243 243 243 243 242 243 243 243 242 242 
242 242 243 242 242 241 242 242 243 241 241 242 241 241 241 241 
241 242 241 241 241 242 242 241 242 241 240 241 241 241 242 241 
241 241 241 241 240 240 240 239 239 239 238 239 240 239 239 237 
239 238 239 239 238 236 234 200 233 239 238 240 237 237 238 238 
239 238 239 246 245 246 246 245 246 245 244 243 244 245 245 245 244 246 223 168 
245 244 243 243 243 243 243 243 244 243 243 243 243 243 243 243 
243 242 242 242 243 242 242 242 243 243 242 243 242 243 242 242 
242 242 241 240 243 243 243 242 242 242 242 244 242 243 242 241 
242 242 241 241 242 241 241 240 239 239 240 238 239 238 239 238 
236 236 239 238 237 238 200 214 239 237 238 239 238 236 238 239 
240 241 239 245 246 245 245 246 247 245 245 244 244 244 244 244 244 243 247 205 
199 246 243 242 243 244 243 242 242 242 243 243 243 243 244 241 
242 242 242 242 243 242 242 243 242 242 242 243 243 242 242 242 
242 241 243 242 242 243 243 243 243 243 243 245 242 242 244 241 
241 241 242 242 241 241 242 242 239 239 238 239 238 239 239 239 
237 237 238 238 239 209 193 235 238 239 239 238 237 237 238 240 
240 240 239 246 244 245 245 245 246 245 245 246 245 244 243 244 245 243 246 243 
184 210 249 244 243 244 244 243 243 243 243 243 243 243 243 242 
243 243 242 243 242 243 243 243 242 242 243 243 243 242 242 242 
242 242 242 243 243 242 242 243 243 243 243 242 242 241 241 244 
243 242 242 241 242 242 241 241 240 239 239 238 239 239 239 240 
239 238 236 235 210 169 231 238 238 239 239 238 238 239 239 240 
239 240 241 246 246 247 246 246 246 245 246 246 245 244 245 247 245 243 244 246 
242 191 227 243 244 243 243 243 243 243 242 244 244 244 244 244 
243 243 243 243 242 244 243 243 242 243 243 243 243 243 243 243 
243 241 243 241 241 243 243 243 243 243 242 246 242 243 243 243 
243 243 242 241 242 240 239 241 240 239 239 240 239 239 239 237 
241 241 238 232 154 219 240 237 237 239 238 240 240 241 240 240 
240 239 240 245 245 245 245 246 246 246 246 246 245 245 246 244 244 244 245 245 
246 238 175 235 244 244 243 244 244 244 245 243 244 246 244 242 
243 243 245 243 243 245 244 243 244 242 243 242 242 242 243 242 
242 241 243 242 242 241 243 244 244 244 245 242 243 244 243 243 
243 242 241 241 241 242 239 240 241 241 240 239 239 241 242 243 
242 241 241 179 202 240 243 241 242 242 241 243 243 241 239 241 
241 240 240 247 247 247 247 247 246 246 246 246 245 246 246 246 246 245 245 245 
246 249 223 176 237 246 245 243 243 243 244 243 243 245 244 244 
244 244 243 244 243 244 245 244 243 245 244 243 242 242 242 242 
243 243 243 242 242 243 245 243 243 244 243 243 243 243 242 244 
245 245 242 241 243 242 241 241 239 242 241 239 240 241 243 243 
243 243 210 193 243 243 242 242 243 241 241 240 242 243 240 241 
240 241 242 246 247 245 246 246 246 247 245 246 246 246 246 246 246 244 245 246 
245 245 244 219 113 224 247 244 243 244 244 244 244 244 243 244 
244 243 243 243 244 244 244 243 243 243 243 243 244 244 243 243 
245 243 244 243 244 244 243 244 243 243 242 243 245 245 246 243 
243 243 243 242 242 243 242 241 242 241 242 239 240 241 242 244 
245 233 186 241 242 241 240 241 242 241 241 240 242 241 241 242 
240 241 240 247 247 247 247 247 247 247 246 246 246 246 246 246 247 247 246 246 
246 247 244 247 190 97 208 247 243 244 244 244 244 244 244 244 
244 244 245 244 244 244 243 244 244 243 243 244 244 242 242 243 
243 243 244 244 244 244 244 243 244 244 243 244 245 243 243 245 
244 243 244 242 243 242 240 242 243 242 242 241 240 240 242 245 
231 192 237 243 242 241 241 242 242 241 242 243 242 241 242 241 
242 241 241 247 246 246 247 247 246 247 245 245 246 247 247 247 246 248 246 246 
245 245 243 245 249 198 83 194 246 246 244 244 244 245 244 245 
243 242 243 244 245 245 246 244 244 244 245 244 245 244 244 243 
244 244 243 243 245 244 244 245 245 244 243 242 244 243 244 243 
244 242 242 241 242 240 242 242 241 238 241 241 241 241 243 219 
185 233 243 241 241 242 243 242 241 240 242 242 242 242 240 240 
241 242 241 247 248 247 247 246 247 246 248 247 246 247 244 245 248 246 245 246 
246 244 245 244 246 249 218 100 188 249 246 245 243 243 244 244 
245 244 245 243 244 244 244 244 245 244 242 244 246 244 245 244 
244 244 243 244 243 244 245 244 243 244 245 245 243 243 244 244 
243 243 244 242 243 242 241 242 244 241 242 242 244 242 208 194 
236 241 241 241 241 242 242 241 242 243 242 243 242 241 243 242 
240 241 240 247 247 247 247 248 247 248 248 247 245 247 247 249 248 247 246 246 
246 247 245 245 246 249 248 230 139 141 240 245 246 244 244 244 
243 244 242 244 244 243 244 244 245 245 244 244 244 246 242 244 
244 243 245 244 243 244 244 244 245 244 242 243 244 244 243 243 
243 243 242 241 242 242 242 243 243 241 242 243 234 190 206 242 
243 241 241 242 242 242 241 242 242 243 243 242 242 241 241 242 
241 242 242 249 247 247 248 249 247 248 247 247 248 247 247 247 247 246 246 246 
247 246 245 245 247 245 246 248 249 180 147 219 248 247 247 245 
244 243 244 244 243 244 245 244 245 245 245 244 244 244 245 244 
244 244 243 243 245 244 243 242 244 244 245 244 243 242 243 244 
242 242 243 243 242 244 242 241 243 243 244 222 181 221 242 242 
242 242 242 240 242 242 242 242 242 243 242 242 240 240 241 241 
240 242 241 247 248 248 248 247 248 249 249 248 245 247 247 247 246 246 246 246 
246 246 245 244 247 247 247 246 248 247 228 161 165 229 247 246 
246 244 245 244 244 243 243 244 244 245 243 244 244 245 243 244 
244 243 243 244 244 244 244 245 244 244 244 243 243 243 243 243 
243 243 242 242 242 243 242 244 245 237 196 190 239 241 244 242 
242 243 242 242 242 241 242 242 242 242 242 242 243 242 242 241 
241 242 242 248 248 248 247 248 248 248 247 247 247 247 247 248 248 248 247 247 
247 247 247 247 246 247 248 245 246 248 248 246 204 130 163 229 
245 246 244 243 244 245 244 244 244 244 244 243 244 244 243 244 
245 244 244 244 243 244 245 246 245 244 244 245 244 244 242 242 
242 242 243 242 244 243 243 240 208 189 220 243 244 242 242 241 
241 242 243 242 242 242 241 242 241 242 242 242 241 242 241 242 
241 241 243 249 248 248 248 249 249 248 247 248 247 249 247 249 248 248 249 248 
247 247 247 246 246 247 247 245 245 246 247 249 251 242 188 134 
151 218 247 243 247 246 245 244 244 245 245 244 243 246 243 242 
241 241 242 242 243 244 242 245 245 244 244 244 244 243 242 244 
244 245 247 245 245 243 208 169 203 241 243 244 241 242 241 242 
242 242 242 241 241 242 242 242 243 242 241 241 241 241 242 241 
242 243 241 249 248 248 249 248 248 250 247 248 248 248 248 249 249 249 247 247 
247 248 249 249 248 248 248 247 248 247 247 247 249 250 251 245 
202 135 138 196 242 243 244 243 244 244 244 244 245 240 243 243 
244 243 243 244 244 243 244 243 244 245 243 244 244 244 244 244 
246 247 248 241 215 175 198 235 246 244 243 242 242 242 241 243 
242 241 242 241 243 241 241 242 242 242 242 242 241 241 242 242 
241 241 242 248 248 248 249 249 248 248 249 248 248 249 248 249 248 248 248 248 
248 248 248 248 247 247 247 248 246 248 248 247 248 248 248 249 
249 248 221 160 137 157 212 236 243 245 245 247 246 245 243 247 
246 245 245 245 245 245 245 246 245 244 244 243 247 245 248 247 
239 221 180 181 206 239 248 245 244 243 242 242 242 242 241 244 
241 241 240 241 242 242 242 242 241 242 242 242 242 242 241 242 
240 241 242 249 249 248 249 248 248 249 248 248 249 248 249 248 249 249 249 248 
249 248 247 248 247 248 248 246 247 247 248 247 247 248 247 246 
247 248 248 251 243 198 141 125 157 184 212 237 245 247 243 245 
245 248 244 246 245 245 246 246 246 246 245 245 239 220 200 193 
176 192 229 245 245 243 244 243 242 242 241 243 243 244 241 243 
243 241 242 242 241 241 242 242 241 243 242 242 242 241 241 241 
243 242 242 249 249 249 250 249 249 249 248 248 248 249 248 248 249 249 249 248 
249 250 249 249 247 248 248 248 248 247 248 248 247 247 248 245 
246 245 246 248 247 249 249 241 216 176 143 123 132 139 164 173 
185 197 214 216 216 216 211 199 199 208 205 194 176 185 207 233 
245 245 245 244 243 244 243 242 244 242 242 243 242 243 243 243 
242 242 243 242 242 242 242 244 242 242 242 242 241 243 241 243 
241 243 243 249 250 250 249 248 249 249 250 250 250 249 249 249 249 249 249 249 
249 249 248 248 248 248 248 247 248 248 249 247 247 247 249 246 
247 246 246 246 247 246 248 250 250 249 249 238 222 204 179 156 
146 191 193 184 190 193 200 207 216 226 240 238 244 242 245 246 
246 244 244 244 242 244 242 243 243 242 242 242 242 243 243 241 
242 242 242 242 242 241 240 242 242 242 243 244 242 242 242 242 
242 241 242 250 250 250 250 250 248 248 249 248 249 249 250 250 249 250 249 249 
249 249 249 249 248 248 248 248 248 248 248 248 248 249 249 245 
246 245 245 246 245 246 245 246 247 246 249 249 250 250 248 248 
250 248 249 248 247 244 245 245 247 246 246 246 244 244 244 244 
243 244 243 243 243 242 242 243 243 242 242 242 243 242 241 243 
242 241 241 243 243 243 242 242 242 241 242 241 241 241 242 242 
241 242 241 248 249 249 249 249 248 249 249 249 248 249 249 249 249 248 249 249 
249 249 248 249 248 249 248 247 247 248 248 248 248 249 247 247 
247 245 247 247 246 246 246 248 248 248 247 247 247 247 247 249 
248 246 246 246 246 247 246 244 245 244 243 244 244 243 243 245 
242 244 243 243 243 243 244 243 243 244 243 243 242 242 242 241 
242 244 242 241 242 242 241 242 241 241 242 242 241 241 241 241 
243 241 242 251 249 249 249 249 250 250 249 249 249 249 249 248 249 251 249 249 
248 251 249 249 249 249 248 248 249 249 249 249 249 248 247 246 
246 247 248 247 247 246 247 247 249 246 248 246 246 246 245 245 
246 245 244 244 246 244 244 244 245 244 244 243 243 244 243 244 
243 243 244 243 243 244 244 244 245 243 244 244 242 243 243 241 
241 242 243 242 242 242 242 242 242 242 242 242 242 242 241 241 
242 240 241 250 250 250 249 250 251 250 250 249 250 251 249 249 249 250 249 249 
249 250 250 250 249 248 248 248 248 249 248 249 249 250 249 247 
246 246 245 246 246 247 246 246 247 245 247 248 249 247 246 246 
246 246 245 244 247 245 245 245 244 244 244 244 244 244 244 243 
244 244 245 244 244 244 244 244 243 244 243 244 244 243 243 244 
242 243 243 243 243 242 241 242 241 242 241 242 241 241 242 241 
241 241 241 250 250 249 249 249 250 250 249 249 250 250 250 249 250 249 250 250 
249 250 249 250 249 248 249 249 248 249 248 250 248 248 249 248 
247 247 247 248 248 247 246 248 246 245 246 247 247 248 246 246 
246 246 245 245 246 245 245 243 244 244 244 244 244 244 243 244 
243 244 244 244 244 243 243 244 244 244 243 244 244 243 243 242 
243 245 245 243 242 242 242 242 242 241 240 242 240 242 242 241 
241 241 242 249 249 249 250 250 250 250 249 249 249 249 249 249 249 249 248 249 
249 249 250 250 248 249 249 249 247 249 248 250 251 248 247 247 
247 247 247 246 247 246 248 246 247 247 246 246 248 247 246 243 
245 246 245 245 246 245 244 245 244 244 244 244 244 244 245 244 
244 244 244 243 243 244 243 243 244 242 243 244 244 242 244 244 
243 244 244 244 243 243 241 242 242 242 242 243 242 242 241 241 
242 241 241 