P2
# Created by IrfanView
100 100
255
221 221 221 222 221 218 221 221 221 216 219 219 217 216 217 219 222 
218 216 214 213 215 217 220 224 224 220 221 220 218 217 215 219 
218 216 225 228 233 233 231 234 232 231 228 226 223 230 231 229 
228 230 231 231 227 233 230 233 228 226 225 224 226 227 224 227 
225 222 224 224 221 220 225 226 226 227 228 227 230 230 230 228 
229 228 227 236 238 235 236 230 231 235 233 237 235 239 239 236 
237 239 238 218 218 218 216 217 218 218 217 217 218 218 217 217 219 219 218 217 
217 217 218 218 220 218 213 214 215 214 213 215 214 212 214 213 
215 215 216 219 222 223 224 226 226 222 220 221 221 220 223 219 
221 220 219 216 218 221 219 217 217 216 219 220 220 220 220 220 
218 221 222 223 223 224 222 221 224 220 221 219 219 218 218 218 
218 216 221 223 221 221 218 223 221 224 220 224 225 223 224 227 
226 226 226 217 218 217 219 220 218 221 219 218 219 219 218 220 218 217 219 220 
221 217 221 220 221 219 217 217 219 219 218 220 217 215 216 217 
218 218 217 220 223 224 221 224 224 223 221 219 221 220 222 221 
222 220 219 220 220 220 220 219 221 221 223 223 220 221 223 223 
223 224 224 222 225 224 224 223 225 224 222 222 221 221 221 221 
220 223 223 221 223 222 223 222 223 223 222 222 223 221 222 224 
222 223 222 216 219 218 219 220 217 219 219 218 217 219 220 218 220 216 220 220 
219 221 219 219 218 219 219 219 219 218 220 220 217 215 217 219 
220 218 218 217 222 223 222 224 223 223 222 221 222 221 220 220 
220 219 221 220 221 220 221 221 221 221 222 221 221 222 224 223 
223 223 223 222 224 223 223 223 223 223 222 223 221 223 222 222 
221 220 222 222 221 223 224 223 223 221 223 223 222 224 224 222 
223 222 223 220 218 219 220 217 220 219 218 219 220 220 217 219 219 217 220 221 
221 220 220 219 219 220 217 220 218 220 219 218 219 219 218 218 
218 218 219 218 221 222 223 225 223 222 218 221 220 220 221 220 
220 220 220 218 220 220 221 222 221 222 220 222 224 224 223 223 
224 223 222 223 223 224 223 223 223 224 223 223 222 220 220 221 
224 223 222 223 221 222 220 222 222 224 222 222 222 222 224 222 
223 223 222 219 217 218 220 219 217 220 218 218 219 218 221 220 219 218 220 219 
220 218 219 220 220 218 220 219 222 219 220 222 219 218 218 220 
221 219 221 218 218 221 221 221 221 222 219 220 219 218 220 219 
219 220 218 219 218 219 220 221 222 221 222 222 223 220 222 223 
224 223 224 223 223 224 223 225 223 224 222 223 223 222 223 222 
222 222 222 224 224 223 222 225 222 222 223 222 225 221 221 223 
223 223 223 218 221 219 218 219 220 220 217 217 218 217 220 220 219 219 218 220 
220 221 218 220 219 219 220 219 219 219 220 222 220 221 217 217 
217 218 218 218 219 220 220 219 221 220 218 221 220 220 222 223 
224 221 223 220 220 221 221 219 221 221 223 223 221 221 223 222 
223 224 223 220 224 223 223 225 221 223 223 222 222 223 222 222 
222 223 219 223 221 222 222 223 222 223 223 223 223 222 223 224 
223 223 223 218 218 219 219 219 218 219 217 219 219 219 219 219 219 220 218 220 
220 219 221 220 220 220 220 219 218 218 219 223 221 220 219 219 
219 218 218 221 219 220 220 221 220 221 222 224 223 217 223 224 
225 222 224 220 220 219 221 222 221 223 223 222 223 223 223 223 
224 223 223 224 224 223 224 222 222 224 223 223 222 222 221 222 
222 221 221 221 223 221 221 222 222 222 221 222 222 222 222 222 
222 222 224 220 219 218 219 219 219 218 218 219 219 220 219 220 219 219 219 219 
220 220 220 219 218 219 218 219 220 219 220 221 221 219 218 218 
218 218 217 217 219 220 222 220 225 218 217 209 201 185 186 185 
176 180 171 182 184 201 198 201 213 218 222 226 226 224 225 223 
223 224 223 223 224 223 223 224 223 223 222 223 222 222 222 222 
221 221 222 221 220 222 222 222 222 222 222 222 220 220 223 223 
222 222 223 219 219 219 219 219 220 219 220 219 220 219 218 218 221 221 220 220 
220 220 219 220 219 220 218 219 218 217 218 218 219 220 218 216 
218 217 217 219 217 214 208 196 172 167 154 166 168 184 192 186 
196 204 210 202 192 186 174 167 155 156 157 184 209 224 226 229 
225 225 223 223 222 223 222 224 223 223 223 223 223 223 222 220 
222 222 223 223 223 222 221 221 221 221 222 221 221 219 222 222 
222 220 222 220 220 218 218 218 220 220 219 220 219 219 219 220 219 218 220 219 
222 219 219 218 220 219 218 218 218 218 218 218 220 220 218 218 
217 219 218 204 172 145 137 166 188 215 222 228 228 226 229 228 
226 225 226 226 228 226 229 228 225 216 196 171 156 149 171 200 
223 226 225 224 224 223 222 224 223 223 224 223 222 222 223 223 
223 223 222 223 221 221 222 222 221 221 222 221 221 221 221 220 
223 222 222 221 220 220 220 220 220 219 221 220 221 222 221 221 219 221 219 220 
217 219 221 220 219 217 219 217 219 219 220 218 218 217 216 218 
215 194 157 151 163 195 217 224 228 228 227 225 225 224 223 223 
223 222 223 223 224 223 221 224 224 223 226 227 224 216 191 165 
146 175 212 224 224 225 222 224 223 222 222 223 223 222 222 222 
219 222 221 222 222 222 222 220 222 222 221 222 221 220 222 220 
222 223 223 219 221 222 221 221 221 220 219 220 221 220 220 219 222 221 219 219 
220 220 220 218 219 219 218 220 218 216 216 217 219 219 217 186 
151 160 192 215 224 221 226 225 226 223 223 224 223 224 223 224 
222 224 225 226 227 225 221 224 223 222 222 223 223 225 226 231 
224 194 142 161 214 223 226 224 224 224 223 223 223 221 222 224 
223 222 223 222 223 222 223 220 222 222 222 220 220 223 218 220 
220 224 222 223 224 221 221 221 221 222 221 221 221 221 220 221 219 223 221 221 
220 222 219 220 219 221 219 222 218 220 219 218 219 223 204 172 
197 226 229 224 224 220 222 221 222 225 224 226 225 224 224 224 
224 224 225 226 226 226 224 224 223 223 224 225 224 224 224 227 
229 232 225 201 159 157 218 224 227 225 223 224 224 226 224 223 
224 222 223 223 222 222 223 223 221 223 222 223 222 221 222 221 
221 221 221 223 222 222 224 221 223 220 222 223 222 222 221 221 221 220 219 219 
220 220 219 219 219 218 219 219 219 217 218 223 218 184 196 220 
225 224 222 220 220 222 222 221 223 224 224 224 224 224 224 224 
225 224 222 223 224 223 223 224 224 224 223 224 225 226 225 228 
226 224 229 230 226 200 143 171 222 227 224 222 222 225 224 223 
223 224 222 224 223 224 221 225 223 221 223 221 221 220 218 220 
222 223 223 224 224 222 222 223 222 225 222 222 221 222 221 222 222 221 222 221 
220 220 221 220 221 220 220 219 219 218 222 196 186 217 227 224 
221 219 220 224 221 222 222 222 224 226 225 224 225 226 225 225 
224 225 226 225 225 225 223 224 225 224 224 224 225 225 226 223 
227 226 225 225 225 227 228 175 130 201 230 227 227 226 223 223 
224 223 224 222 222 223 225 223 222 224 223 222 222 222 221 220 
222 221 222 224 223 223 222 223 221 223 224 223 223 223 224 223 222 222 223 220 
220 219 218 218 218 220 219 221 223 212 191 206 229 224 224 223 
223 223 223 221 223 221 220 222 224 225 225 225 225 224 225 224 
225 224 225 224 224 225 223 224 225 223 224 224 223 224 224 224 
225 223 224 223 227 226 228 232 212 115 194 228 228 227 224 224 
226 223 223 224 221 226 223 223 224 224 224 223 223 223 222 220 
222 221 220 223 224 224 224 225 224 222 222 223 223 223 224 223 225 223 222 220 
220 218 219 219 219 218 220 222 209 194 224 227 225 225 224 224 
223 224 222 222 222 224 225 223 223 225 226 225 225 225 225 224 
225 226 225 225 225 224 224 225 224 227 225 224 224 225 225 224 
223 224 222 225 224 225 227 228 230 224 174 172 225 229 225 224 
224 224 224 226 222 224 224 224 223 222 226 225 224 224 223 227 
222 220 222 224 224 224 224 223 222 225 225 224 224 224 224 223 224 222 222 220 
219 218 218 220 221 222 222 194 204 228 225 224 224 224 225 224 
223 223 223 222 223 224 224 223 224 224 224 225 226 225 225 226 
225 225 225 226 224 225 223 225 225 225 226 226 226 224 227 226 
224 223 225 223 222 225 227 227 227 232 230 196 176 223 229 225 
226 226 225 226 225 226 227 225 225 224 226 224 226 225 223 224 
226 225 225 225 227 225 224 225 226 226 225 224 224 225 226 224 222 223 224 222 
219 218 217 219 220 217 165 210 228 225 224 227 226 225 225 223 
223 225 224 222 222 223 225 224 225 224 225 224 226 224 225 225 
225 225 225 224 225 225 223 225 226 226 226 225 225 226 223 224 
226 226 224 224 225 224 224 223 225 230 229 232 204 172 219 228 
225 226 225 226 226 225 227 227 226 226 226 225 226 226 227 227 
224 228 228 225 224 225 225 225 225 226 225 226 225 228 226 225 224 222 223 221 
220 218 218 223 216 163 215 229 226 225 225 227 226 225 225 225 
225 225 224 223 221 222 224 224 225 224 225 225 223 226 225 225 
225 225 225 226 224 225 225 224 225 225 226 226 226 225 225 225 
224 224 224 224 224 225 225 225 226 226 226 228 229 206 172 223 
230 227 226 227 224 228 227 225 226 226 226 227 227 226 226 225 
226 227 228 225 225 225 225 226 225 224 224 225 225 227 227 224 223 223 223 219 
221 221 221 216 170 212 227 227 226 227 227 227 226 226 225 224 
225 223 223 222 223 223 225 224 224 224 223 222 223 225 225 226 
226 225 227 225 225 225 226 225 225 225 224 225 225 226 225 225 
225 224 224 225 225 225 223 225 224 224 224 227 227 229 210 166 
214 227 226 226 228 226 228 227 227 227 226 227 227 227 227 228 
227 225 227 225 227 225 226 228 227 226 227 227 226 227 227 224 223 223 221 225 
224 221 219 172 207 226 224 225 226 226 225 225 225 224 226 225 
226 227 225 224 223 221 223 224 223 223 223 223 224 225 225 225 
225 225 224 225 226 226 225 226 225 226 225 224 225 225 225 226 
225 224 224 223 223 223 224 224 224 224 224 223 225 225 230 208 
156 220 226 228 227 227 226 229 228 228 227 228 228 228 229 228 
228 227 227 225 225 226 227 223 226 226 227 225 224 224 227 226 224 222 224 224 
223 223 179 196 227 225 224 225 225 226 226 226 224 226 226 223 
224 223 223 224 224 222 221 223 225 224 220 223 224 226 225 225 
224 226 225 225 225 225 225 226 226 224 226 226 227 227 224 226 
225 223 225 224 225 225 224 224 224 224 225 223 225 223 223 225 
197 168 228 227 226 229 229 227 227 227 228 226 227 226 228 228 
227 228 228 225 224 222 227 227 227 225 226 226 226 227 223 225 225 225 224 225 
227 200 186 229 225 225 225 226 226 224 226 225 225 225 226 226 
225 224 225 225 225 223 223 224 220 224 223 224 225 224 224 225 
225 225 226 224 224 226 224 224 225 226 224 224 225 226 225 224 
225 225 223 223 225 224 224 224 224 223 222 224 224 222 223 224 
226 198 187 225 227 228 226 226 228 228 229 229 227 227 225 227 
229 228 227 225 225 222 226 226 226 226 226 225 229 225 225 225 226 225 225 225 
213 175 232 227 225 224 222 225 226 225 225 225 226 226 225 225 
225 225 224 224 225 225 225 222 223 224 224 225 224 224 225 224 
225 225 224 224 226 225 227 226 226 226 225 224 225 225 225 225 
224 223 223 222 223 224 224 223 224 223 224 225 223 223 224 223 
221 223 186 207 228 226 225 226 228 228 228 227 228 226 229 227 
227 230 227 224 224 225 226 226 226 226 227 225 225 225 226 226 226 226 224 223 
177 215 227 225 226 225 223 225 225 226 227 225 225 225 224 226 
226 225 224 224 223 223 223 224 225 224 223 223 224 224 224 225 
225 225 225 225 226 227 225 225 226 224 225 226 224 226 225 225 
224 224 223 221 222 223 224 224 223 224 223 223 223 223 222 223 
221 223 221 176 225 231 228 230 229 228 228 228 229 230 228 229 
225 227 227 224 223 224 226 227 226 227 225 225 226 224 224 226 227 223 225 169 
202 228 225 225 226 225 223 225 225 226 226 224 225 226 226 224 
225 224 224 225 224 224 224 225 223 223 224 225 225 224 225 225 
225 228 226 225 225 225 226 225 227 226 227 225 224 225 225 225 
225 224 223 222 223 224 225 224 224 222 224 222 222 224 222 222 
220 221 222 204 183 232 228 229 228 228 228 227 228 229 229 228 
230 229 229 224 224 226 226 226 226 226 225 226 225 225 225 224 228 225 199 177 
228 226 226 227 226 224 224 224 223 226 226 225 226 225 225 226 
225 224 225 225 225 225 224 224 225 225 225 225 227 225 224 225 
224 225 226 225 226 226 226 227 225 225 224 226 225 225 224 224 
226 225 225 224 223 225 224 224 224 223 221 222 223 226 223 223 
221 218 220 224 197 195 228 226 228 229 230 229 228 228 229 229 
228 228 229 223 225 225 226 226 225 225 227 227 225 227 224 225 225 223 160 226 
227 227 226 224 226 225 224 226 225 224 224 225 226 227 225 226 
224 226 226 224 223 225 225 226 225 225 224 226 224 224 224 225 
224 226 226 225 226 227 226 226 227 225 225 226 225 225 226 225 
224 225 225 224 224 222 224 225 224 223 225 224 225 226 223 221 
221 222 220 221 226 176 221 226 229 227 227 228 228 229 228 229 
228 228 228 223 225 226 226 227 226 226 226 227 225 226 225 226 225 196 193 228 
226 227 227 226 226 226 226 226 225 225 227 225 224 226 225 226 
226 226 223 224 225 224 225 223 224 225 225 224 226 226 226 226 
226 227 226 226 225 227 226 227 226 228 226 224 226 225 225 226 
225 225 226 223 224 226 224 224 225 225 222 225 225 224 223 223 
221 220 221 223 225 206 180 229 228 229 227 227 228 229 228 227 
229 229 228 226 225 226 226 226 226 226 228 226 225 227 227 224 220 169 229 225 
227 226 225 225 226 225 225 225 225 225 228 227 227 226 226 226 
225 225 225 226 225 225 225 226 227 227 226 227 226 226 226 228 
224 224 227 225 227 226 226 227 227 229 226 225 225 224 225 226 
225 223 227 226 225 221 224 225 224 224 224 223 224 224 224 221 
221 222 222 222 221 225 187 220 230 230 230 230 229 227 230 228 
230 229 230 226 225 226 227 227 227 226 225 223 223 225 225 222 177 201 226 224 
226 226 226 227 227 226 226 225 226 226 202 232 228 227 226 225 
226 226 226 226 227 226 226 226 226 224 225 225 225 226 226 225 
224 226 227 226 227 226 227 226 228 228 225 225 225 226 226 226 
225 225 227 226 223 226 224 225 225 224 227 224 225 224 223 223 
224 224 224 223 224 222 212 185 228 227 229 230 228 230 229 229 
230 230 230 226 226 225 226 226 228 227 225 225 225 223 222 214 169 229 226 226 
226 226 226 226 226 225 226 226 225 227 166 180 232 230 227 226 
228 227 226 226 226 226 226 226 226 225 226 225 225 225 226 223 
227 226 227 228 227 227 226 228 228 226 225 225 225 224 225 223 
224 224 225 223 223 223 225 226 223 225 224 226 225 226 224 225 
223 223 224 224 223 222 224 171 205 229 229 228 227 229 229 229 
230 228 228 226 227 226 225 225 227 229 226 226 224 225 222 186 212 227 226 224 
224 227 225 226 226 226 227 227 227 228 228 155 165 230 228 226 
226 225 226 226 226 226 227 226 226 227 225 226 227 226 226 226 
225 227 226 229 228 227 228 226 226 226 225 226 225 225 224 224 
222 225 225 223 223 224 228 179 229 225 226 224 227 226 225 225 
226 225 224 225 222 227 222 198 190 229 228 228 229 230 229 229 
230 230 230 227 226 227 229 226 225 225 226 224 226 224 222 165 232 228 227 228 
226 226 227 227 226 228 227 227 225 228 229 230 153 152 227 229 
227 227 226 226 226 226 226 227 227 226 227 225 227 227 226 226 
227 225 227 228 227 226 228 227 227 226 226 226 224 222 223 223 
223 224 225 224 224 227 203 133 228 226 226 225 226 225 225 226 
226 226 226 227 226 225 224 227 170 229 228 229 229 229 229 229 
229 230 229 227 226 228 227 226 227 225 226 227 225 223 204 189 227 227 227 227 
225 226 227 226 228 226 226 225 227 227 224 227 228 179 135 214 
231 230 226 227 227 227 228 226 227 225 225 227 225 226 227 228 
225 227 228 228 228 227 228 226 226 225 225 226 224 225 224 223 
223 223 223 222 226 222 102 195 227 229 227 226 228 228 228 225 
227 228 229 229 229 229 227 226 192 207 230 229 229 229 229 229 
229 230 230 226 227 226 227 226 226 227 227 226 223 223 170 222 226 227 227 227 
227 226 227 227 228 228 228 228 225 226 227 228 227 232 197 118 
183 231 228 227 225 226 228 227 227 227 228 228 227 229 226 228 
226 227 227 227 229 228 228 227 226 224 225 227 224 222 224 227 
225 224 223 225 220 143 160 233 226 227 228 228 228 229 228 229 
229 229 229 230 231 229 229 229 219 174 229 229 232 230 230 230 
230 229 231 229 227 228 228 226 225 225 228 229 223 224 167 227 228 227 227 227 
226 227 226 227 228 228 227 228 225 225 227 228 224 227 229 222 
151 143 221 229 227 227 227 227 226 225 227 228 227 227 228 225 
227 226 227 226 228 227 227 227 227 226 227 227 225 223 223 225 
222 226 227 199 122 141 227 229 229 229 228 228 230 228 229 229 
230 229 228 231 230 231 231 230 230 163 227 229 228 229 230 229 
230 230 229 227 228 227 227 228 228 227 228 227 222 216 176 225 227 227 227 226 
227 229 229 228 226 227 228 228 228 227 228 228 223 225 225 228 
230 183 117 191 231 228 226 227 227 227 227 227 226 227 227 228 
227 226 227 228 225 227 227 225 227 227 227 225 224 220 224 225 
226 220 146 114 169 226 230 230 230 228 229 229 229 229 230 230 
231 230 231 230 232 230 230 228 226 184 204 230 230 230 230 230 
231 229 230 227 226 226 224 225 227 227 226 226 226 185 193 227 227 228 226 226 
227 227 228 228 229 228 227 230 229 226 228 226 223 225 224 220 
225 230 221 140 175 228 227 228 228 229 228 229 230 228 227 226 
227 229 228 227 229 228 228 228 226 226 224 226 223 224 229 228 
168 105 144 217 230 230 229 230 228 230 229 230 228 230 230 230 
229 230 230 232 231 230 230 228 227 212 181 230 229 230 229 230 
230 230 230 227 226 226 227 228 227 228 227 226 226 163 221 228 228 227 227 226 
228 226 227 227 227 228 229 229 227 226 227 228 227 226 225 225 
223 224 222 160 74 219 230 229 228 230 229 229 229 229 228 229 
228 227 228 229 228 227 228 228 228 227 226 225 226 225 197 118 
111 185 229 228 229 230 228 230 230 231 229 230 229 228 231 231 
232 232 230 230 230 227 228 227 228 226 165 230 229 230 229 230 
230 231 231 226 227 226 227 224 226 227 225 226 225 169 230 227 227 226 226 227 
229 228 228 228 227 228 228 229 227 227 229 227 226 226 224 223 
223 188 101 115 203 228 223 229 229 229 230 229 229 228 228 229 
229 229 229 228 228 227 227 228 226 225 225 226 227 186 80 154 
221 233 228 227 227 230 229 229 229 230 229 228 228 229 230 231 
230 230 232 231 231 231 230 229 229 227 164 226 230 231 232 230 
230 230 229 225 225 224 227 225 224 226 225 225 208 150 230 228 227 229 228 228 
228 228 228 227 229 228 228 227 229 226 226 227 226 225 228 226 
144 87 173 226 232 230 231 231 230 230 229 228 229 229 228 228 
230 229 228 227 228 228 229 229 227 227 228 226 226 223 108 174 
234 231 228 228 228 231 231 231 230 229 230 230 231 226 231 229 
232 231 229 231 230 229 230 228 231 228 190 207 231 230 230 230 
230 230 231 225 226 224 225 226 225 224 224 226 184 187 229 227 228 229 227 228 
228 228 228 229 226 226 227 227 227 225 225 227 227 231 220 115 
119 210 233 231 230 228 229 230 230 230 231 232 231 230 231 230 
230 228 229 229 228 228 228 228 225 229 228 227 225 230 225 143 
117 200 229 230 227 230 230 231 230 230 231 230 231 232 231 231 
229 231 230 231 231 229 229 230 232 230 213 182 231 230 230 231 
232 231 230 226 226 227 223 225 225 224 224 226 175 206 228 228 228 228 228 230 
229 228 228 228 228 228 228 226 227 226 225 223 226 207 105 157 
226 227 231 230 229 230 231 231 231 231 230 231 231 231 230 229 
231 229 229 229 230 230 227 228 228 228 229 230 228 229 232 235 
199 115 145 221 231 231 232 231 232 232 231 232 231 231 232 232 
231 231 230 232 231 230 231 228 230 229 222 168 233 232 232 232 
232 229 232 226 225 223 225 225 227 223 223 219 161 219 228 227 227 227 228 228 
228 230 228 229 229 229 230 226 227 225 227 226 183 90 166 230 
232 231 230 231 228 232 231 232 231 232 232 231 231 231 230 231 
230 232 229 231 230 229 229 230 229 230 230 230 230 229 230 233 
234 227 182 128 213 231 232 232 231 232 231 232 230 231 232 232 
232 232 232 231 231 232 229 230 230 231 227 168 233 231 231 233 
231 230 232 225 226 226 224 225 226 223 223 218 156 226 227 228 230 230 229 229 
229 228 229 228 228 227 227 228 226 227 226 227 97 186 234 233 
230 229 230 229 231 231 232 232 232 231 232 232 231 232 232 232 
230 232 231 230 231 230 231 231 232 232 230 231 230 230 230 232 
233 234 232 219 124 210 232 231 232 233 231 231 231 232 232 231 
232 230 232 233 233 230 232 230 228 230 227 162 232 232 231 232 
232 233 232 226 225 224 224 224 224 222 221 220 152 229 229 228 227 228 227 229 
229 228 229 230 229 229 227 226 227 228 227 228 222 232 233 230 
230 230 231 232 232 232 233 233 233 232 234 233 232 233 232 232 
231 231 232 232 232 231 232 232 231 231 233 228 232 230 232 232 
232 232 231 231 218 138 206 233 232 231 231 232 232 232 232 232 
233 231 233 232 231 232 234 231 229 229 228 160 228 232 234 232 
232 232 230 224 224 224 223 224 226 225 222 220 149 231 230 230 231 229 230 229 
229 229 231 230 230 230 231 231 230 229 229 230 233 231 231 231 
232 231 231 231 230 234 232 234 233 233 233 233 233 232 234 234 
234 233 233 232 232 232 231 230 230 232 230 232 233 232 232 232 
232 232 228 227 231 228 132 210 231 232 232 232 232 232 231 232 
233 232 232 231 230 232 234 231 227 229 229 166 225 233 232 232 
233 232 234 224 225 223 223 224 223 223 222 219 154 231 229 230 229 229 229 230 
231 229 228 230 230 231 231 230 230 232 232 231 232 231 233 233 
232 233 233 233 230 233 233 233 234 232 233 233 232 232 233 233 
232 233 233 232 231 230 234 234 233 231 234 232 233 232 233 232 
231 231 231 228 230 232 224 195 234 232 231 233 232 232 232 231 
231 231 231 230 232 232 232 231 231 233 230 168 216 233 233 234 
234 232 232 226 225 227 223 226 222 225 223 221 158 228 228 229 230 230 231 231 
230 228 230 229 231 229 230 230 231 230 230 232 232 233 233 233 
233 232 233 233 234 233 233 233 234 233 234 234 234 233 233 232 
232 233 232 232 232 232 232 233 233 233 232 233 233 232 232 232 
231 231 229 231 231 230 234 232 232 232 231 232 232 233 232 233 
232 232 233 232 231 233 232 231 231 232 229 170 220 233 233 233 
234 233 232 225 225 225 225 225 224 222 223 222 159 227 230 230 230 230 231 230 
230 229 228 229 232 232 232 233 233 230 233 233 233 233 233 232 
234 233 232 232 232 234 233 233 234 234 233 234 234 235 232 232 
233 233 233 232 232 232 232 232 234 232 228 230 233 232 231 230 
232 232 232 232 230 229 231 234 233 232 233 232 233 233 232 233 
232 233 231 232 232 233 233 231 232 232 229 175 221 233 232 233 
235 233 232 227 225 227 226 225 222 224 221 219 164 225 226 231 230 229 230 229 
230 231 231 228 230 232 232 232 232 234 234 233 233 233 233 233 
231 234 233 233 234 234 234 234 234 233 232 233 234 234 234 233 
234 233 232 231 231 232 232 232 232 231 234 232 232 233 232 233 
234 233 232 233 232 232 233 233 232 234 233 234 232 233 233 232 
231 233 233 234 232 232 231 232 231 230 229 178 224 233 233 234 
234 234 233 226 226 228 226 223 223 224 223 220 167 218 226 227 231 230 231 231 
230 232 231 230 233 232 233 232 233 233 234 233 233 234 233 232 
233 233 234 233 233 233 233 235 234 234 235 234 234 235 233 234 
233 232 233 231 234 232 231 232 232 232 232 230 233 232 234 232 
233 233 233 233 232 233 233 233 233 233 232 233 232 233 232 233 
234 234 233 233 233 231 234 233 232 231 232 166 219 234 233 233 
235 234 235 226 225 226 228 224 223 223 224 224 175 214 225 225 228 229 230 232 
231 232 231 232 232 233 232 234 233 233 233 234 233 233 233 233 
233 233 234 234 233 235 234 233 234 234 233 234 235 234 233 235 
233 233 232 232 233 233 234 232 231 232 231 229 230 230 233 233 
232 234 233 233 234 233 232 234 234 234 233 233 233 234 234 233 
233 233 233 233 233 234 232 235 232 232 231 171 227 232 234 234 
233 233 231 225 225 225 225 223 223 226 223 221 188 206 226 225 228 230 227 228 
231 231 232 232 231 233 234 233 233 234 233 233 233 233 232 235 
234 234 234 233 235 234 234 234 234 233 235 234 234 234 234 234 
234 233 233 233 232 232 232 232 232 229 227 227 230 231 233 233 
233 234 233 233 233 234 234 234 233 234 234 233 232 233 233 233 
232 234 233 233 233 234 233 233 233 231 233 180 235 234 235 233 
234 234 233 227 225 224 225 225 224 225 223 221 201 191 224 227 229 231 228 227 
230 226 232 233 232 229 233 232 232 234 235 234 234 234 233 233 
234 234 234 234 235 235 234 235 234 234 234 234 234 236 234 234 
233 233 233 233 233 231 233 233 231 226 227 227 229 232 234 233 
234 234 234 233 233 234 233 233 233 233 234 234 234 234 233 235 
234 233 234 235 233 233 233 234 233 233 232 164 235 233 234 234 
233 234 234 224 224 226 226 225 224 227 226 222 214 183 225 226 229 230 230 229 
231 232 232 232 233 233 231 231 232 233 233 233 233 234 234 235 
234 234 234 234 235 234 234 234 234 234 234 234 234 234 234 233 
233 232 233 233 233 233 233 231 232 229 229 229 231 233 233 233 
233 234 234 234 234 233 234 234 234 234 235 231 233 235 235 233 
234 234 235 233 233 234 234 235 233 234 229 162 235 233 235 235 
235 234 235 226 226 227 228 224 225 224 222 225 224 169 228 227 229 231 230 228 
232 232 232 232 231 232 232 233 234 233 233 234 234 235 233 233 
235 235 234 235 234 234 234 234 233 234 235 234 234 234 233 233 
233 233 234 233 233 233 232 233 233 231 233 233 234 234 235 234 
234 233 233 234 234 234 233 233 234 235 234 235 234 234 235 234 
233 234 234 235 234 235 235 236 235 235 209 154 234 234 234 235 
234 235 234 227 227 226 227 226 225 224 224 224 226 164 227 228 230 233 231 229 
234 232 232 233 233 233 233 232 234 234 234 234 232 234 234 235 
234 235 234 234 234 234 233 234 234 234 234 233 234 233 233 234 
234 233 233 232 234 233 233 234 233 233 233 234 234 233 234 234 
234 233 232 234 233 234 235 235 235 235 235 234 234 237 235 233 
235 235 236 232 233 235 235 236 235 235 152 212 238 236 234 235 
235 234 235 227 227 227 227 226 227 227 227 227 228 181 217 232 231 231 230 229 
232 231 232 232 231 232 231 232 231 233 235 235 233 234 234 234 
233 232 234 234 235 235 234 234 234 234 234 235 235 233 232 233 
234 233 234 234 232 233 233 233 234 234 233 232 234 234 233 234 
234 234 235 235 234 234 235 236 235 235 235 237 236 234 236 236 
234 235 235 235 236 234 236 235 235 236 171 240 235 235 236 233 
234 236 236 228 228 227 227 228 227 225 226 228 228 212 188 231 232 231 232 231 
232 233 233 233 234 233 232 232 232 197 235 233 234 234 234 234 
235 235 234 235 234 234 234 236 232 235 234 233 234 236 234 234 
234 235 233 234 233 234 233 233 234 232 233 234 233 234 234 234 
233 232 232 233 234 235 205 213 236 236 236 235 235 235 236 236 
236 235 236 237 236 235 237 235 235 226 190 237 233 235 236 236 
237 235 238 228 228 228 227 228 228 227 229 230 228 225 174 234 230 233 233 233 
233 232 234 234 233 232 232 232 234 155 134 224 237 234 236 236 
234 234 234 235 233 232 235 234 234 233 235 234 234 233 234 234 
233 233 233 233 233 233 234 233 233 233 233 234 233 234 233 233 
233 235 234 232 235 231 91 168 237 237 237 236 237 237 236 237 
236 237 236 235 237 236 236 234 234 197 222 235 236 236 236 235 
237 237 236 229 228 228 229 229 229 229 229 232 231 226 177 230 232 233 232 234 
233 233 234 234 232 232 231 232 232 205 155 147 146 204 233 234 
236 236 234 235 234 234 234 234 234 234 233 233 235 234 233 235 
234 234 233 234 233 234 233 233 234 233 233 235 233 233 234 233 
233 235 236 236 233 146 77 209 236 237 236 235 237 236 237 237 
237 236 237 236 237 238 236 235 233 174 239 236 235 235 237 236 
238 237 238 230 230 228 229 230 228 228 230 231 229 227 205 203 234 233 233 234 
233 234 233 233 233 233 234 234 233 234 167 236 209 144 143 209 
237 239 237 236 235 234 234 233 233 233 235 234 234 234 233 233 
234 233 233 234 233 233 233 235 234 232 233 234 233 234 233 235 
237 236 232 176 118 131 115 213 236 235 237 237 236 236 238 237 
237 236 236 236 237 236 236 234 236 178 238 237 235 239 237 236 
237 237 237 231 231 230 231 229 230 231 232 229 232 227 225 175 234 233 233 234 
234 234 233 234 234 233 234 234 230 233 154 235 235 237 214 147 
148 189 227 236 239 238 236 235 234 235 235 235 235 233 233 234 
233 234 235 234 234 234 233 233 234 233 234 233 233 235 235 235 
219 178 127 131 196 229 112 230 237 238 238 238 237 238 237 237 
238 238 238 237 236 238 236 235 211 209 239 238 236 238 239 239 
239 239 239 231 230 231 232 232 230 231 232 230 229 225 226 188 216 232 233 233 
234 234 233 234 233 234 235 235 233 233 179 209 233 234 237 236 
214 179 141 146 194 225 236 236 236 236 237 235 235 234 235 234 
234 234 232 233 235 234 233 234 234 236 237 237 236 217 180 152 
148 180 182 227 238 201 138 240 237 239 237 236 237 238 237 238 
238 238 238 238 237 237 236 238 176 236 239 238 238 240 237 238 
240 239 239 230 232 232 231 231 231 231 230 230 230 230 226 224 189 234 233 235 
236 235 234 234 234 235 237 237 234 233 224 175 234 235 234 234 
235 238 233 227 181 141 151 181 209 222 237 237 236 234 234 236 
233 236 239 238 238 236 239 234 234 232 219 197 166 148 166 189 
232 240 239 238 232 128 213 238 237 239 238 238 237 238 238 238 
239 239 239 239 238 238 236 228 176 239 240 237 239 240 239 241 
241 240 240 232 231 230 232 231 232 231 232 229 229 229 226 226 187 230 234 235 
235 235 235 234 234 234 235 236 236 234 234 148 219 235 235 235 
236 236 237 238 239 240 217 182 167 144 137 162 177 186 201 202 
216 218 217 208 200 186 177 167 157 156 156 175 203 231 241 238 
237 237 236 228 97 112 239 237 237 239 239 238 238 239 238 239 
239 239 238 240 239 240 238 199 230 242 240 239 241 241 241 241 
241 241 241 231 232 233 232 232 232 232 232 230 229 230 228 226 221 191 237 235 
234 233 235 235 235 234 235 236 236 235 233 172 158 179 217 234 
237 238 237 237 237 236 237 238 236 234 234 214 187 180 169 160 
153 151 144 163 178 176 181 196 211 230 236 238 239 238 238 239 
239 233 201 122 79 189 240 240 240 239 239 239 240 239 239 239 
239 240 239 240 238 239 237 183 244 241 241 240 241 241 242 241 
241 242 242 233 233 231 233 233 231 231 232 231 231 230 229 226 227 187 224 236 
235 235 235 236 236 236 235 235 236 236 232 213 191 216 176 161 
171 192 220 235 242 240 238 236 237 237 238 239 238 238 238 239 
237 238 240 239 237 239 238 239 237 236 237 237 239 239 237 206 
177 139 141 155 121 238 241 239 238 239 239 239 238 239 239 239 
239 240 241 239 239 239 200 225 243 241 241 241 242 242 242 241 
242 242 243 232 233 234 234 232 231 232 233 233 232 230 231 230 228 219 193 237 
234 234 234 234 234 235 234 235 236 236 232 235 171 240 237 231 
217 205 174 159 177 208 232 238 238 236 239 236 236 237 238 238 
238 237 239 239 235 236 236 235 237 237 237 238 207 162 123 147 
182 214 232 125 208 243 239 240 239 240 240 239 239 239 239 239 
239 240 240 240 238 237 186 244 242 241 241 241 241 242 241 242 
242 242 242 233 233 233 233 232 234 233 233 233 233 234 231 231 228 228 200 220 
233 233 235 235 235 235 235 235 235 235 235 234 203 209 237 236 
238 236 240 229 212 180 158 160 177 183 204 218 222 233 234 234 
227 233 226 227 230 219 210 200 184 166 157 133 145 175 227 242 
243 238 140 171 244 240 239 239 240 240 239 240 240 239 239 239 
241 238 241 242 240 196 228 243 242 243 242 241 241 242 241 241 
241 243 243 234 234 234 234 234 234 235 236 234 234 235 233 233 230 227 229 193 
233 234 234 235 234 234 234 234 233 232 234 235 237 164 237 239 
235 235 238 239 240 240 237 226 206 203 181 150 149 150 148 151 
146 149 164 165 167 173 182 193 203 206 214 233 242 240 241 241 
239 163 172 240 240 241 241 242 241 241 241 240 241 240 240 240 
241 240 240 240 235 202 244 241 243 242 242 242 243 243 242 242 
243 242 244 234 235 234 234 235 235 235 235 232 232 232 234 234 233 231 228 213 
197 236 234 235 235 235 235 235 234 235 236 235 236 216 177 240 
238 235 236 237 237 239 238 237 238 238 241 241 240 233 226 231 
233 233 236 241 241 242 242 241 239 239 241 241 239 239 242 238 
166 152 237 241 241 240 241 240 239 241 241 239 239 240 240 240 
240 239 240 243 192 240 243 243 241 243 243 243 243 242 241 242 
243 242 243 235 234 236 235 235 234 235 234 234 234 234 234 234 233 232 229 232 
209 214 235 234 235 235 234 235 236 236 236 235 237 238 187 194 
238 238 237 237 237 235 234 235 238 238 233 230 220 198 200 191 
178 209 228 200 188 181 180 218 241 239 234 235 238 240 218 139 
140 231 243 241 240 241 241 241 240 240 241 241 240 240 242 241 
241 239 241 206 210 244 242 242 244 243 243 243 243 242 243 244 
244 243 245 236 236 235 236 237 236 235 235 234 234 234 234 233 232 234 232 230 
232 183 224 233 235 235 236 235 235 236 237 236 237 237 237 185 
193 240 240 237 236 237 234 235 230 180 128 122 134 156 171 160 
171 152 132 141 166 186 190 166 178 238 238 239 236 213 122 186 
237 242 240 241 242 241 241 242 240 241 241 240 242 240 242 243 
241 241 226 185 245 242 244 243 243 243 243 243 244 244 244 244 
244 244 243 236 236 236 237 237 238 236 236 236 235 235 235 234 234 233 231 231 
233 229 186 227 237 235 235 235 235 235 235 236 237 236 238 240 
198 169 229 240 238 236 238 189 130 167 221 239 240 240 241 241 
243 242 238 242 242 241 241 240 200 158 239 236 177 129 190 243 
245 242 243 240 240 241 243 242 243 241 240 240 240 241 242 242 
242 240 187 240 245 244 243 243 244 243 243 244 244 243 244 244 
245 244 245 236 238 237 238 238 238 238 236 235 234 235 234 234 233 235 234 232 
234 235 223 160 233 238 235 235 237 237 237 237 236 237 237 237 
243 211 161 198 239 228 116 150 223 239 239 241 240 238 237 237 
238 241 240 238 239 241 240 240 242 198 150 141 166 215 242 243 
241 241 242 242 241 241 241 240 240 241 241 241 242 241 242 240 
242 187 234 245 244 244 244 242 244 244 245 244 244 244 243 245 
244 245 245 238 237 238 238 239 238 239 237 237 236 236 237 235 235 233 234 234 
236 234 237 207 176 234 237 235 237 239 237 238 237 236 237 238 
239 243 235 172 158 187 174 241 240 240 240 239 238 238 238 238 
238 239 239 238 240 238 241 235 174 133 141 220 242 243 242 243 
241 240 241 242 242 241 242 243 241 241 241 239 241 241 241 242 
199 221 246 243 243 245 244 244 244 244 244 244 244 244 244 244 
245 245 246 238 237 238 238 238 238 239 237 238 236 237 236 237 236 234 236 235 
235 235 235 236 201 173 236 238 235 236 237 238 239 238 237 238 
238 238 239 241 212 179 152 154 170 197 219 237 241 241 240 241 
240 239 240 241 232 192 148 120 179 234 241 243 242 242 242 242 
242 242 241 242 240 242 242 242 241 241 241 240 240 242 244 213 
209 247 244 243 244 243 242 244 245 244 244 244 245 244 244 244 
246 246 246 237 238 239 238 238 238 239 238 239 238 238 238 237 235 235 236 236 
236 236 235 236 240 205 172 233 239 240 238 238 238 238 237 237 
238 236 237 237 238 240 234 228 212 193 155 141 164 181 190 194 
190 171 158 144 123 161 211 229 242 244 244 242 242 242 242 242 
242 241 242 242 242 243 243 242 242 243 242 240 242 245 208 208 
248 243 244 244 244 244 243 243 246 245 245 243 243 244 243 245 
244 246 246 239 239 237 238 238 238 238 239 239 238 238 238 239 236 236 237 237 
237 237 235 237 237 240 221 133 223 241 240 238 239 239 238 238 
239 238 238 238 237 238 241 241 243 246 243 237 221 212 183 182 
186 194 211 225 237 246 242 243 242 242 242 241 243 241 242 242 
243 241 242 242 243 243 242 242 242 242 242 243 243 207 213 246 
245 244 244 245 246 244 244 243 244 245 244 245 244 244 245 246 
244 245 247 239 239 240 239 239 239 239 238 238 237 237 237 238 238 237 239 237 
236 236 236 235 237 237 242 220 176 217 242 241 238 239 239 239 
239 238 239 239 238 239 238 240 240 240 240 239 242 240 242 243 
243 244 245 245 245 242 244 243 243 242 241 241 242 242 241 241 
242 240 241 242 242 243 242 242 243 242 242 241 193 218 248 244 
245 245 245 245 244 245 245 245 245 245 246 246 246 245 245 246 
247 247 246 239 239 239 239 240 239 239 240 238 238 238 240 238 237 238 236 237 
238 236 237 238 239 237 237 241 238 196 178 239 241 241 239 239 
240 239 240 240 239 240 240 240 240 240 239 241 241 241 242 241 
241 241 244 242 242 242 242 242 244 243 242 242 242 242 242 242 
242 242 241 241 241 242 243 243 244 244 234 182 226 247 245 244 
245 244 247 245 244 244 245 245 244 246 245 245 244 245 247 247 
247 247 247 237 239 239 238 238 239 239 238 240 239 238 238 240 240 239 238 238 
236 239 238 238 238 238 238 238 239 239 214 173 214 241 240 241 
238 239 239 239 239 240 240 240 241 242 240 240 240 241 241 241 
242 242 243 242 242 242 243 243 243 243 243 244 244 242 244 242 
242 241 242 241 241 242 243 243 244 187 176 241 248 244 245 246 
246 246 243 245 245 245 245 245 245 246 246 245 245 246 245 247 
247 247 247 239 238 238 239 239 238 240 240 241 239 240 240 239 240 240 240 239 
239 239 239 239 239 238 238 239 240 240 241 233 184 185 235 243 
242 241 241 241 240 240 240 240 240 240 240 242 240 242 241 241 
243 243 243 243 243 243 242 243 244 243 243 244 243 243 243 243 
243 243 241 241 241 243 241 222 211 210 249 246 245 244 246 245 
247 246 245 246 246 246 246 246 246 246 246 246 246 246 246 247 
248 247 247 240 240 240 239 239 239 238 238 239 240 241 240 241 240 240 240 240 
239 239 240 240 240 241 240 239 239 239 240 243 242 225 190 193 
233 241 241 242 242 240 241 241 241 241 241 241 241 242 242 243 
242 243 243 243 243 244 244 243 246 245 244 243 243 243 243 242 
242 241 243 244 241 216 208 231 247 247 246 244 245 245 246 247 
245 246 245 245 246 246 246 246 245 246 248 247 246 247 246 248 
248 246 248 240 239 239 239 240 239 239 240 241 241 241 241 241 241 240 240 240 
240 240 240 240 240 240 240 239 238 240 241 240 240 243 244 223 
174 183 229 244 243 242 241 242 241 241 242 242 243 243 244 244 
244 243 243 244 243 243 244 244 245 244 244 245 244 243 244 243 
244 246 240 205 163 229 243 245 245 246 246 245 247 246 246 245 
246 246 245 245 246 246 246 246 245 246 247 247 247 248 246 247 
247 247 248 239 240 240 239 239 238 238 240 241 242 241 240 241 241 242 240 240 
241 240 240 240 240 241 242 242 242 241 241 242 241 240 242 244 
243 227 195 192 216 238 241 242 242 243 241 241 242 242 243 243 
243 242 243 244 244 244 244 244 245 245 245 246 245 245 245 242 
222 199 198 227 240 242 244 246 245 246 246 246 246 246 246 247 
246 246 247 247 246 247 247 245 245 247 246 246 247 247 247 247 
247 248 248 241 240 241 241 241 240 238 241 241 242 241 241 241 242 242 241 241 
240 241 243 241 240 241 241 241 241 242 242 241 241 241 241 241 
243 244 245 241 219 198 204 221 236 243 243 245 245 243 245 245 
244 245 247 245 245 245 246 247 246 246 248 249 241 219 200 192 
214 242 249 244 245 243 244 244 244 246 245 246 245 245 246 246 
246 246 246 246 246 245 246 245 246 247 247 246 246 247 248 247 
247 248 247 240 241 239 241 242 240 239 240 240 241 241 241 243 242 243 243 242 
243 243 242 243 241 241 241 242 242 242 242 242 241 243 242 242 
242 242 242 244 244 244 241 225 207 202 208 218 228 236 243 244 
246 246 247 246 247 247 243 237 228 207 199 198 214 227 241 248 
248 247 246 244 245 246 245 246 245 244 246 246 247 248 247 246 
248 247 246 246 247 246 247 247 248 247 247 248 248 246 247 247 
248 248 246 242 242 241 242 241 241 241 241 241 241 242 242 242 242 243 241 242 
243 243 242 242 242 243 243 243 243 243 243 241 242 241 242 244 
243 242 242 242 242 243 243 244 245 247 244 234 220 212 218 213 
214 204 199 196 204 205 212 214 228 237 242 249 247 248 247 246 
246 246 245 246 247 245 247 246 247 246 246 247 248 246 247 246 
246 248 247 248 247 247 248 247 248 248 248 248 248 247 247 248 
247 247 248 243 242 242 242 242 240 242 242 241 243 242 242 244 243 243 243 244 
242 245 244 243 244 243 244 244 244 243 243 243 243 243 244 244 
244 242 242 243 242 243 244 244 244 243 246 246 247 249 249 248 
247 247 248 249 248 246 248 248 247 245 247 246 247 247 246 246 
246 246 247 247 246 247 248 247 248 248 247 247 246 247 247 246 
246 247 249 248 248 247 247 248 248 247 248 247 247 248 249 250 
248 247 247 242 244 244 243 243 242 244 243 243 242 243 242 242 243 243 243 242 
243 244 244 244 244 244 244 243 243 244 243 245 245 244 244 244 
243 243 243 243 243 246 246 245 245 245 245 247 246 246 246 245 
247 248 247 248 247 246 246 244 245 245 245 246 247 247 246 248 
246 245 247 247 247 247 246 248 247 248 247 248 247 247 249 248 
246 248 248 248 248 246 248 250 248 248 249 248 249 249 248 249 
248 248 247 243 243 243 243 243 243 243 245 244 245 244 243 244 244 244 243 244 
243 245 244 245 245 246 243 245 245 245 245 245 245 244 245 245 
244 243 244 244 244 244 244 244 244 246 246 246 247 246 247 246 
247 246 246 246 247 246 246 247 246 245 247 246 248 248 248 248 
248 248 246 247 249 247 248 249 249 248 249 249 249 249 249 247 
248 250 250 248 248 249 249 248 249 249 249 249 250 249 248 248 
249 249 248 244 243 243 244 244 244 245 244 245 244 244 244 244 244 243 243 245 
245 245 245 245 245 244 244 246 244 246 244 245 243 244 244 245 
246 245 244 244 243 244 245 246 246 247 247 248 247 247 248 249 
248 246 246 247 246 247 248 247 247 247 248 248 247 248 249 248 
247 248 250 248 247 247 248 248 249 250 249 249 249 249 249 249 
249 248 249 250 250 249 250 249 250 250 250 249 249 250 249 250 
249 247 249 243 243 243 244 244 243 244 244 244 245 244 243 244 244 245 245 245 
245 246 246 246 245 246 245 245 245 245 245 245 245 245 246 245 
246 245 246 246 245 244 247 247 247 247 248 248 248 248 247 247 
246 249 249 248 248 247 247 247 249 248 248 249 249 249 249 249 
249 249 250 250 250 249 248 248 251 249 249 250 250 249 250 250 
249 249 250 250 250 250 249 250 250 251 250 250 250 250 250 249 
251 249 249 243 244 243 244 244 244 243 245 245 245 245 243 243 243 246 245 245 
245 245 246 246 245 245 246 246 246 246 246 247 248 246 246 248 
246 246 246 245 245 247 247 248 247 249 248 248 249 248 249 247 
247 247 249 247 247 245 246 248 248 249 249 249 250 250 250 250 
250 250 250 250 251 249 250 250 250 250 250 250 250 250 251 250 
251 251 250 249 250 250 251 250 251 251 250 251 250 250 250 250 
250 248 248 