P2
# Created by IrfanView
100 100
255
224 224 223 225 225 223 226 226 226 225 225 226 226 224 224 225 224 
224 223 223 223 222 222 221 223 223 222 220 220 220 221 219 220 
220 219 218 220 220 217 218 219 220 219 219 220 217 218 218 218 
219 219 218 218 219 220 220 218 218 219 220 220 217 218 219 217 
219 221 220 221 221 218 220 221 219 219 219 219 221 220 218 218 
217 220 216 218 217 218 218 218 216 215 217 218 215 218 216 216 
214 215 214 225 225 224 225 226 224 226 226 226 227 227 224 228 225 224 223 223 
223 223 223 222 224 223 222 223 224 222 221 222 220 220 221 220 
220 219 220 222 221 220 219 220 219 218 219 217 219 219 218 218 
218 218 219 221 219 218 219 219 219 221 220 219 220 220 220 220 
219 220 219 219 220 220 220 220 220 221 221 219 219 218 219 219 
219 220 216 219 217 219 217 218 217 216 217 216 214 217 215 216 
216 213 214 225 225 224 227 226 226 228 226 230 230 230 227 227 227 224 224 223 
224 224 225 223 223 223 222 223 223 223 221 222 221 220 222 221 
220 221 221 218 220 217 218 218 219 221 218 223 221 218 218 220 
218 218 219 220 219 219 217 219 218 219 219 219 220 219 220 219 
220 221 219 220 217 220 219 219 220 219 220 220 220 218 219 218 
219 218 218 220 219 220 216 216 217 217 217 216 216 216 217 218 
216 214 212 224 227 226 227 227 226 226 227 226 231 231 228 227 228 225 225 227 
223 223 223 225 223 226 224 224 224 223 224 222 223 223 219 222 
220 220 220 221 222 220 219 218 219 221 220 217 219 220 220 220 
218 219 219 220 218 219 221 220 219 221 219 219 219 218 219 218 
221 219 219 219 222 219 218 220 218 219 218 219 220 219 218 219 
219 220 219 220 219 221 217 218 217 215 218 219 217 216 215 215 
215 216 214 225 226 226 226 227 226 227 227 226 231 229 229 228 226 226 225 224 
226 225 223 226 228 226 224 224 224 225 224 222 221 224 222 222 
221 222 221 219 222 219 219 219 218 220 218 219 219 220 221 218 
218 219 220 218 218 218 217 218 218 217 218 220 217 219 220 218 
219 220 219 218 218 219 220 219 221 221 221 219 219 218 218 219 
219 218 219 218 220 221 218 218 219 219 219 220 218 217 215 215 
215 216 215 227 227 226 226 226 226 225 226 227 226 228 228 225 228 226 226 226 
222 225 225 229 226 226 225 224 226 226 226 223 222 221 223 224 
222 222 220 223 221 219 219 220 220 220 218 220 220 220 218 220 
222 218 220 222 220 219 220 219 220 219 218 218 219 218 217 218 
219 218 220 219 220 221 219 220 221 220 219 220 220 219 220 217 
217 220 218 218 218 218 218 219 217 217 220 216 220 220 216 214 
215 215 214 226 224 226 226 225 226 227 227 226 226 226 225 226 226 226 224 226 
225 226 226 227 227 225 224 222 223 227 224 225 223 224 225 225 
223 222 222 222 224 222 222 223 224 224 221 223 221 221 220 220 
218 217 219 223 218 219 220 222 223 223 221 221 219 219 219 217 
217 217 217 219 220 219 221 216 221 217 218 221 220 220 219 219 
219 218 220 220 219 220 217 219 218 219 218 216 219 217 216 216 
214 215 215 226 226 225 225 227 226 224 225 224 226 227 225 226 225 225 225 227 
225 226 225 225 223 226 225 225 226 226 227 226 226 226 226 225 
223 222 222 226 223 225 224 223 223 216 197 179 173 167 165 155 
150 151 153 156 167 188 198 209 221 221 219 222 225 221 218 219 
218 218 219 218 220 220 221 220 222 222 222 220 220 219 219 219 
217 218 219 219 219 217 219 216 218 220 220 218 218 220 216 216 
217 217 215 227 227 226 226 224 227 225 226 225 226 227 226 225 228 226 226 228 
227 225 223 224 224 224 223 225 226 227 227 227 225 225 225 225 
226 225 223 217 213 178 157 146 136 143 165 178 192 194 196 197 
204 200 201 190 184 161 152 141 142 145 164 196 218 225 220 220 
219 219 220 219 221 218 220 218 222 222 223 221 218 220 217 217 
219 219 219 219 218 219 217 218 218 218 219 218 217 217 217 216 
215 220 216 224 226 226 226 227 227 226 226 226 226 225 225 225 227 227 226 225 
223 224 224 224 224 223 223 224 226 225 228 224 223 226 226 225 
224 210 168 137 131 165 190 212 225 225 227 228 227 228 228 222 
222 224 228 227 227 227 227 226 226 213 178 140 126 128 189 220 
218 222 221 223 220 217 218 219 218 221 220 218 219 219 217 217 
219 218 218 219 217 218 218 218 218 218 217 216 218 219 218 217 
218 217 217 228 227 227 228 226 225 225 226 224 227 226 226 226 225 224 225 224 
222 222 223 224 225 223 224 223 223 225 223 227 227 227 219 185 
157 160 196 223 228 224 229 229 225 225 227 224 224 219 220 222 
221 220 221 223 223 224 221 222 224 223 226 227 227 212 132 110 
163 211 219 220 221 223 221 220 218 219 219 218 218 219 218 218 
217 217 217 217 216 218 218 219 218 218 217 219 217 217 217 219 
219 217 216 227 227 229 224 225 225 227 226 227 224 221 228 222 224 224 224 226 
224 225 225 225 223 224 224 222 222 225 224 225 215 179 146 185 
227 225 226 227 227 224 226 224 224 223 222 224 227 222 220 221 
219 220 223 224 222 221 219 221 219 220 223 222 222 222 227 216 
167 116 138 178 214 219 218 219 218 217 219 218 219 220 218 218 
217 217 218 218 218 218 217 217 219 217 216 217 219 217 217 219 
219 216 218 227 226 226 225 225 225 225 225 225 227 226 227 226 225 225 227 223 
223 225 224 223 224 223 224 223 224 225 220 179 136 191 227 229 
226 226 225 224 224 224 223 222 221 220 222 221 224 222 221 220 
221 222 221 222 222 223 222 219 220 221 221 222 217 217 220 223 
226 220 187 127 119 177 213 215 222 219 218 220 218 219 216 217 
219 218 220 218 217 217 217 216 218 219 217 219 218 219 217 221 
218 218 218 227 225 225 223 225 224 226 225 224 224 226 225 225 224 223 223 224 
226 224 223 222 225 223 222 226 225 195 137 184 228 229 229 224 
225 225 224 222 224 221 223 222 222 224 223 224 222 223 221 221 
221 221 222 221 222 222 221 222 220 220 217 216 216 214 215 216 
215 220 218 225 202 133 129 184 218 222 220 218 216 219 220 219 
217 217 218 218 218 217 219 217 217 218 216 217 217 220 219 216 
218 218 217 225 225 225 226 226 225 226 227 225 224 224 225 224 224 225 224 224 
224 226 223 224 224 224 228 218 150 167 219 232 230 228 224 226 
225 226 226 227 226 226 225 224 225 224 222 223 223 224 222 222 
223 223 222 222 222 222 220 220 222 219 220 217 217 217 215 216 
216 217 218 222 224 223 196 127 149 214 218 218 218 218 219 218 
218 218 218 218 218 219 218 217 219 219 218 219 219 218 218 218 
220 217 218 225 226 227 226 225 225 224 224 225 225 226 225 226 227 226 227 225 
225 225 224 224 228 223 198 150 203 228 230 227 225 224 225 225 
225 226 226 225 227 226 228 226 224 224 225 224 225 223 223 220 
222 222 222 223 221 221 223 224 222 220 222 221 220 216 218 217 
216 217 217 218 219 222 221 220 179 136 198 222 219 217 218 217 
218 218 215 218 218 217 220 218 216 219 219 219 219 218 220 219 
216 218 218 225 225 225 225 225 226 228 227 225 225 225 225 226 226 229 224 224 
227 225 226 226 225 173 161 227 231 228 225 226 226 226 227 227 
227 226 226 226 226 226 227 226 226 225 226 225 222 224 225 225 
223 223 222 222 221 222 220 222 221 222 221 221 220 217 219 219 
219 217 219 220 220 218 218 220 223 200 132 187 217 218 218 217 
218 218 219 219 218 218 217 218 220 218 217 219 220 219 219 218 
220 217 220 226 227 225 226 227 226 227 225 225 226 227 225 224 226 226 225 225 
225 228 232 221 153 195 226 228 227 227 227 225 226 229 227 227 
228 228 228 226 227 228 227 226 226 225 224 225 226 224 224 225 
224 224 223 224 223 223 223 223 222 222 221 219 220 220 218 216 
218 218 221 222 222 219 217 215 222 223 218 161 173 219 221 217 
216 217 217 218 219 219 220 219 217 220 220 219 221 220 220 221 
221 220 220 225 229 227 227 226 225 225 226 226 225 225 225 225 226 227 227 224 
225 230 213 147 204 232 228 227 227 227 227 226 227 228 227 227 
227 228 226 228 228 228 226 227 225 224 227 227 229 225 226 225 
224 224 223 224 224 223 222 223 219 223 220 220 221 220 219 222 
220 220 222 222 223 220 217 216 218 217 218 222 169 140 211 220 
219 218 218 219 220 220 219 219 220 218 218 220 217 218 220 220 
218 220 220 227 226 227 225 227 228 226 228 226 225 225 224 226 225 227 225 225 
229 215 133 208 230 229 228 228 227 227 227 227 229 228 228 228 
229 228 228 227 228 227 228 228 230 227 228 224 227 227 225 225 
226 226 226 223 225 223 222 223 223 220 221 221 221 221 220 220 
223 223 223 221 221 219 221 216 219 216 218 219 221 175 143 210 
220 219 218 220 219 222 219 220 219 220 219 216 219 222 220 221 
221 221 220 226 227 226 228 226 225 226 227 225 226 226 226 228 226 223 224 225 
214 141 207 230 228 228 228 229 226 227 227 228 227 226 226 228 
229 229 228 227 227 226 228 228 228 226 225 226 229 224 225 226 
227 226 226 225 224 225 223 223 222 221 222 222 220 221 222 222 
222 222 222 222 222 221 220 218 218 216 216 218 222 225 186 134 
215 221 220 219 220 219 220 221 219 219 219 220 220 219 221 224 
220 222 223 226 225 226 226 227 227 228 228 229 226 223 225 226 225 224 229 217 
145 207 233 227 228 226 228 228 228 228 228 228 228 229 228 228 
227 229 227 228 228 228 228 227 225 228 226 227 226 227 226 224 
225 226 226 226 225 225 223 223 221 222 223 221 222 220 224 223 
222 221 221 221 222 220 219 220 219 218 217 220 220 221 225 184 
134 215 224 221 218 220 219 219 221 220 220 220 221 220 219 221 
222 222 220 228 227 227 225 226 226 226 227 227 226 226 225 228 227 227 225 143 
200 230 228 227 229 230 227 228 228 227 228 228 228 228 227 228 
228 227 228 229 227 227 227 228 227 228 227 228 228 228 225 223 
225 223 223 227 225 224 224 223 225 225 221 223 223 223 220 223 
222 224 223 225 221 220 221 221 219 221 220 219 222 220 222 224 
186 142 220 221 219 219 221 220 220 221 220 220 221 224 221 222 
222 222 220 227 227 227 227 229 227 227 227 226 224 226 227 225 226 227 142 195 
232 230 231 230 229 228 228 229 228 229 229 229 229 229 228 228 
229 229 229 228 229 228 229 228 228 228 228 227 227 226 228 228 
226 226 225 225 224 226 224 224 224 227 223 223 222 222 225 222 
224 223 222 221 222 222 221 220 220 218 219 223 221 220 219 220 
223 163 148 224 221 219 221 221 222 221 221 222 221 221 223 222 
222 223 222 226 228 229 228 226 226 226 226 226 225 228 227 224 224 165 86 226 
230 228 229 227 229 230 229 229 229 229 229 229 228 229 230 227 
229 229 228 230 228 228 229 229 229 228 228 228 228 230 227 227 
223 224 226 226 225 225 225 225 224 225 225 222 223 224 223 226 
224 223 222 222 224 220 222 221 221 220 221 222 221 219 221 218 
222 228 143 199 223 221 222 223 221 221 222 220 224 223 222 220 
222 223 223 226 228 226 227 228 227 228 229 224 226 226 227 226 185 84 194 230 
229 229 229 229 229 231 230 231 229 229 230 230 226 228 229 229 
229 229 228 229 229 228 229 229 228 228 228 227 229 231 231 227 
227 227 226 226 225 226 227 226 225 226 224 225 224 225 224 224 
224 221 222 222 223 221 222 221 222 222 222 222 222 223 220 221 
221 224 219 121 214 222 222 220 223 220 222 222 222 222 223 223 
223 223 224 227 229 225 228 229 227 228 226 229 228 227 228 221 123 142 229 227 
229 229 229 228 229 230 229 228 229 228 230 230 231 230 229 228 
228 229 228 229 229 229 228 228 229 230 229 228 229 230 229 228 
227 227 227 226 225 227 227 226 225 226 225 225 224 223 225 227 
225 225 222 222 224 222 222 223 221 222 222 223 223 223 223 223 
223 221 225 199 134 221 221 222 222 223 223 223 222 224 223 220 
222 225 222 227 228 228 228 226 227 227 229 227 228 226 224 198 125 228 231 228 
229 229 229 230 230 230 229 228 229 228 226 225 228 227 228 228 
228 228 229 227 229 228 229 228 228 228 228 229 227 229 229 227 
226 227 226 226 226 228 226 224 225 224 226 225 225 225 225 226 
226 224 222 223 224 224 222 223 222 221 221 222 224 223 223 222 
221 223 220 226 164 173 223 222 223 223 223 223 223 222 222 222 
224 221 223 227 228 229 228 229 227 227 227 227 227 225 223 140 203 231 229 229 
229 230 230 230 230 230 227 225 224 224 224 223 226 226 225 225 
225 227 227 230 228 229 229 230 229 230 232 229 228 226 229 228 
228 227 224 228 228 228 228 227 226 226 223 224 223 226 226 224 
227 225 222 224 223 223 223 223 224 224 222 222 223 224 225 222 
221 222 221 222 219 148 216 223 223 224 222 223 223 224 223 224 
224 226 224 228 227 227 227 225 229 227 226 228 227 225 210 138 231 229 229 229 
230 230 231 230 230 231 227 226 226 226 224 225 225 224 223 223 
225 226 225 227 227 229 228 226 228 227 229 229 229 229 229 228 
227 227 228 228 228 227 226 227 225 226 226 227 226 225 226 225 
224 221 222 222 224 223 223 225 225 224 224 222 223 222 222 223 
221 222 223 221 220 195 168 224 222 223 223 225 222 224 224 222 
223 223 223 228 227 227 227 226 227 227 227 229 227 222 179 162 231 228 229 229 
228 228 231 230 230 229 227 225 224 222 224 225 225 225 224 224 
222 226 228 226 227 227 229 229 228 228 230 227 228 228 228 229 
229 230 228 227 227 229 226 226 225 226 225 226 228 225 225 225 
225 226 222 224 224 222 224 223 225 225 222 222 223 223 224 222 
221 223 221 224 223 225 148 212 223 225 223 222 224 223 224 223 
224 224 225 226 227 227 227 227 226 226 228 227 225 223 142 221 230 228 228 230 
231 230 231 228 228 227 227 225 224 225 225 225 222 223 221 224 
228 227 226 225 221 224 225 229 228 228 228 230 230 228 228 227 
229 228 226 227 225 227 227 227 225 225 226 226 228 224 227 223 
225 225 223 225 225 224 223 224 224 222 223 222 223 224 223 222 
220 221 220 221 221 222 205 162 227 225 225 223 223 224 224 224 
224 222 225 227 227 227 227 228 227 227 227 227 221 203 178 230 230 230 229 228 
228 229 229 227 227 227 228 227 226 226 225 223 222 224 224 227 
216 176 203 229 227 224 228 228 228 229 228 231 228 231 229 228 
229 229 229 228 227 225 225 226 226 226 227 227 227 228 226 223 
225 226 225 227 230 226 224 224 222 222 223 222 222 223 222 221 
223 222 223 221 221 222 227 149 216 223 225 223 225 224 223 223 
224 225 224 227 229 227 227 227 228 227 228 224 223 169 224 229 228 229 229 229 
227 230 229 227 227 228 227 226 225 227 226 224 225 225 228 196 
151 152 109 196 226 225 227 225 227 228 227 228 229 228 229 227 
229 228 227 228 226 225 226 226 226 226 225 225 228 226 227 226 
224 226 215 146 183 231 227 227 222 222 223 221 224 224 220 221 
220 220 222 220 219 222 224 196 177 227 224 224 223 224 224 226 
225 225 225 229 230 228 227 227 227 227 227 220 212 185 230 229 228 228 229 228 
228 229 227 227 225 226 228 225 226 228 228 224 226 213 170 154 
202 223 212 114 198 226 226 225 226 227 226 226 225 227 228 228 
229 231 229 228 226 225 226 226 227 227 226 222 223 223 224 224 
225 211 141 153 104 151 226 226 227 223 223 223 223 223 223 222 
222 222 222 220 220 220 221 223 142 222 223 224 223 223 224 224 
226 226 224 228 229 228 227 225 227 226 224 219 199 228 227 228 229 229 228 228 
228 230 229 227 227 227 227 225 225 226 228 224 195 150 178 223 
224 225 223 210 117 191 226 225 226 225 226 228 227 228 229 228 
229 230 229 227 227 227 226 226 227 226 225 225 222 223 224 225 
205 161 182 223 224 148 121 206 229 226 223 222 223 223 222 223 
223 224 223 222 220 219 220 223 171 196 225 223 224 223 225 225 
225 226 225 228 228 227 226 227 225 225 221 214 207 227 227 228 228 228 227 227 
228 229 228 227 225 226 227 225 224 226 219 182 149 200 228 226 
222 223 218 221 209 113 194 226 224 224 226 227 227 228 227 228 
227 231 228 228 228 228 225 226 226 227 226 223 223 225 227 201 
154 187 225 228 228 231 185 112 174 224 226 226 224 224 225 223 
222 222 222 221 221 219 220 221 207 156 226 224 224 225 225 226 
226 224 224 229 228 229 228 226 227 230 216 197 222 227 226 227 227 228 228 227 
228 228 228 227 224 226 227 227 228 220 155 150 216 228 223 220 
221 221 216 219 219 214 124 194 226 222 226 227 227 226 227 228 
228 228 226 227 228 229 227 226 228 228 228 225 226 224 190 152 
200 225 227 227 226 227 231 216 126 126 204 229 225 224 223 223 
224 224 221 225 223 221 222 219 222 149 219 224 224 225 224 225 
225 226 226 229 228 229 227 224 227 226 212 184 229 227 227 227 228 227 227 227 
227 228 226 227 228 227 227 223 213 161 170 223 229 226 222 219 
223 223 220 219 219 227 215 131 198 226 223 226 228 226 227 227 
228 229 230 228 228 229 227 228 227 227 226 227 223 184 143 211 
227 226 226 227 226 223 226 229 232 187 104 169 229 225 223 223 
224 223 224 225 223 221 224 222 220 163 192 226 223 225 225 224 
226 225 225 228 230 229 228 227 227 226 218 182 230 227 227 228 226 227 225 225 
225 227 226 227 227 227 227 189 141 192 227 227 225 223 222 223 
221 222 221 220 223 222 224 217 145 226 224 226 227 227 226 225 
228 229 229 230 229 229 230 229 229 226 226 221 167 150 211 227 
227 225 226 227 228 226 225 225 226 229 226 120 190 227 225 223 
224 225 224 223 223 223 224 223 218 188 166 225 224 225 225 223 
226 226 225 230 230 229 230 228 227 222 201 200 228 227 228 225 226 228 228 228 
228 227 226 228 226 228 226 210 204 229 228 226 225 224 223 222 
223 223 223 223 222 222 223 227 225 225 227 226 226 226 226 226 
226 226 227 228 227 227 227 228 229 227 227 226 184 202 228 226 
225 227 228 226 225 226 224 225 223 230 228 225 216 226 225 225 
225 225 225 224 223 224 224 223 222 215 126 225 225 225 223 225 
226 225 224 231 230 228 232 226 227 219 167 219 227 227 227 228 227 227 226 227 
226 228 226 227 227 226 226 229 232 228 225 226 225 226 226 224 
224 224 225 221 225 223 225 224 228 227 226 227 227 227 227 227 
225 226 226 225 229 229 228 228 229 228 227 225 229 227 228 227 
226 226 225 227 228 226 226 225 225 225 225 228 226 225 226 223 
224 225 226 220 223 223 223 224 223 222 120 205 226 226 225 225 
226 226 227 231 229 229 231 228 227 231 154 227 228 228 226 226 227 228 226 227 
227 227 228 226 227 224 228 230 230 228 225 226 225 223 225 225 
225 224 224 223 225 225 226 225 227 225 225 226 226 226 227 227 
227 227 226 228 229 228 229 229 230 229 226 225 227 228 224 225 
227 227 227 226 225 223 226 225 225 225 224 227 225 224 226 225 
225 225 225 226 224 225 224 223 220 221 144 164 226 226 225 226 
226 226 226 230 227 230 230 228 230 221 154 230 227 227 227 228 226 228 229 228 
226 227 226 227 227 228 227 229 229 226 225 226 226 227 226 224 
225 225 228 225 225 226 225 223 226 227 227 227 226 228 227 226 
227 226 226 228 228 229 229 231 231 230 227 227 227 227 227 227 
226 226 227 227 227 227 227 226 227 226 226 227 226 226 223 225 
225 226 224 223 226 223 225 224 225 222 185 150 230 226 226 225 
226 226 226 230 229 228 229 228 231 212 167 229 228 227 227 229 226 227 226 227 
226 227 226 227 228 226 226 228 228 228 227 227 227 228 226 226 
223 224 226 225 226 225 225 225 224 225 227 225 225 226 226 228 
227 227 227 229 228 229 229 230 230 230 228 225 228 226 227 229 
228 227 228 227 227 227 228 226 227 227 228 228 227 227 227 226 
225 226 227 225 224 225 224 223 224 224 223 178 221 226 226 227 
225 225 225 229 229 228 229 228 227 194 183 230 231 228 228 227 228 227 228 230 
228 228 227 228 226 229 227 228 228 227 228 226 227 225 227 227 
227 225 225 226 226 225 225 226 226 225 224 226 224 226 227 226 
226 226 228 228 228 229 228 230 229 230 228 228 227 226 228 228 
229 227 226 227 227 226 228 227 226 228 228 228 228 226 226 225 
227 226 224 224 225 225 225 225 225 224 226 195 222 224 225 225 
226 225 226 228 230 229 228 227 226 177 205 229 227 228 228 228 228 228 228 227 
227 227 228 227 227 229 227 229 228 227 226 228 227 226 227 228 
226 226 226 226 227 227 225 226 226 227 226 226 227 226 227 227 
228 226 226 228 228 228 229 229 230 227 229 228 227 228 227 228 
229 227 227 227 227 227 227 228 227 228 229 228 227 226 225 225 
226 225 225 226 227 226 227 225 225 223 226 181 220 227 226 227 
227 225 225 229 229 228 228 228 227 172 214 229 229 228 229 227 228 228 228 231 
228 228 228 228 228 226 228 230 229 228 227 227 227 227 228 228 
225 225 226 227 227 224 227 227 227 226 227 226 227 227 227 227 
227 226 227 227 229 229 228 229 229 230 228 227 226 225 229 227 
226 227 228 227 228 227 228 226 227 227 226 229 227 228 225 226 
226 225 226 225 227 225 227 226 224 224 225 164 214 226 227 226 
227 225 225 227 226 230 228 228 230 151 224 229 227 228 227 229 227 228 229 229 
229 227 228 228 228 228 227 229 228 228 228 226 229 229 229 228 
227 227 227 226 226 227 227 225 227 226 227 227 225 226 226 226 
225 226 227 228 229 227 230 229 228 228 228 228 227 229 226 227 
228 227 227 226 229 227 227 227 227 228 227 228 228 227 228 226 
226 226 226 226 226 225 226 225 224 224 223 177 200 225 225 226 
226 226 225 229 229 228 228 228 227 152 230 229 228 228 228 229 228 227 227 227 
229 228 230 229 228 228 228 227 228 228 228 229 227 229 229 228 
227 226 225 225 226 226 227 227 224 228 227 226 228 227 227 227 
227 228 227 226 227 227 227 227 228 228 227 228 227 227 227 227 
227 225 228 227 226 228 227 228 227 227 228 227 227 227 226 226 
225 224 225 224 226 225 225 225 223 224 223 180 203 226 226 224 
226 226 226 226 228 229 227 227 230 161 229 228 228 227 228 227 227 228 228 227 
228 228 227 227 228 228 228 227 228 228 230 230 228 229 228 226 
229 227 228 226 227 227 226 226 227 226 228 225 226 228 225 225 
227 227 227 225 228 227 227 225 228 225 228 228 226 227 226 226 
227 226 225 225 226 226 226 226 227 227 226 226 226 226 225 226 
227 227 226 227 227 226 226 225 226 225 221 166 199 226 226 225 
226 225 226 228 227 230 226 225 227 159 232 228 228 227 229 229 227 229 226 228 
227 228 229 229 229 228 228 227 227 228 227 229 228 230 228 227 
228 227 227 227 227 226 227 226 227 226 226 226 227 227 227 227 
227 228 227 227 226 226 227 226 226 227 228 227 227 228 227 226 
226 228 226 226 227 228 229 227 227 227 226 228 227 228 226 225 
227 226 226 225 227 226 226 225 227 226 222 162 202 227 226 227 
226 225 227 227 228 228 230 228 226 152 229 228 229 227 227 228 228 228 228 228 
228 229 227 226 228 228 228 227 226 227 229 228 230 229 228 227 
228 227 226 226 226 227 224 227 225 226 227 227 228 226 227 226 
228 226 226 227 226 227 227 227 227 226 223 225 226 226 226 225 
228 226 225 225 225 231 227 227 226 226 228 226 224 225 226 225 
226 226 226 226 228 225 224 225 225 226 225 160 207 225 225 228 
227 227 225 227 227 228 226 225 227 139 230 229 228 227 226 228 228 228 227 227 
226 227 227 229 227 229 225 227 228 225 232 232 229 230 229 229 
228 226 226 226 226 227 228 226 228 228 226 225 226 226 226 225 
226 225 226 225 226 222 224 226 225 226 229 226 225 227 225 225 
227 228 225 225 228 215 196 229 226 228 228 226 227 227 227 227 
225 226 226 226 226 227 226 225 225 223 226 153 212 225 226 225 
225 226 225 228 227 228 228 229 226 148 231 228 229 227 228 227 228 229 225 227 
228 228 227 228 228 225 228 227 228 225 177 232 233 230 227 228 
229 226 226 230 226 226 226 226 227 226 225 226 226 226 226 226 
226 226 226 227 228 227 224 225 224 228 226 222 223 226 225 226 
227 228 228 226 202 99 70 226 227 226 227 226 226 228 227 228 
227 226 226 226 226 226 225 225 226 227 223 139 215 226 227 228 
227 226 227 227 229 228 228 228 224 147 229 228 228 228 228 229 228 226 228 227 
227 227 227 226 228 228 226 228 231 228 96 145 219 233 232 230 
228 229 227 226 226 226 227 228 228 225 226 226 228 226 226 225 
225 225 226 225 227 225 225 226 222 225 225 223 224 227 227 226 
230 228 205 144 113 153 65 221 225 227 227 228 226 226 226 226 
225 226 226 225 226 226 225 225 224 225 220 120 217 225 225 225 
225 226 225 229 227 227 229 229 224 154 230 228 227 228 227 227 229 230 228 226 
228 227 228 227 228 226 225 225 228 226 156 169 123 172 215 232 
233 230 229 229 228 228 227 227 228 226 229 228 229 227 228 226 
225 225 226 224 227 225 225 224 224 225 225 226 228 227 226 216 
184 133 125 160 202 190 89 221 228 224 226 225 226 225 225 225 
225 226 226 226 226 226 224 225 224 226 218 125 216 225 228 227 
226 226 228 226 228 226 229 228 224 168 223 230 229 229 229 227 228 226 230 227 
226 227 229 228 229 228 227 228 229 192 170 231 226 172 122 168 
200 225 227 227 229 230 229 230 230 228 230 229 230 227 227 226 
226 224 225 225 226 226 226 227 224 225 225 227 226 200 162 127 
135 185 217 219 198 139 79 223 226 228 226 227 225 226 226 225 
225 224 225 226 225 225 225 224 223 226 193 135 221 226 224 225 
225 225 224 228 228 227 230 229 227 186 204 229 228 227 228 229 229 228 229 225 
228 226 228 229 229 227 228 227 230 164 153 233 235 228 221 184 
146 138 146 187 220 227 232 230 230 231 234 233 232 230 231 228 
229 229 227 227 228 229 227 227 223 224 216 189 142 114 160 207 
224 226 226 199 105 69 111 226 227 226 225 225 226 225 225 225 
225 226 225 227 226 226 225 227 225 225 171 160 224 226 227 225 
226 226 228 228 230 227 229 229 229 211 184 228 228 227 228 228 229 228 230 228 
228 227 226 229 228 227 225 227 228 185 112 208 233 232 231 228 
229 220 192 156 142 146 153 162 176 190 211 219 222 225 226 226 
227 225 224 224 222 199 180 175 163 143 122 142 166 198 222 225 
229 226 189 116 179 133 159 226 228 224 226 225 225 226 225 225 
224 226 226 224 227 227 225 225 225 225 155 169 225 225 226 228 
226 228 226 230 227 227 226 228 228 223 159 229 228 228 228 226 228 227 228 228 
228 227 227 227 228 227 226 227 228 185 184 160 198 232 232 230 
229 230 228 229 226 216 198 187 169 160 154 153 142 141 138 128 
132 145 138 132 144 129 135 156 172 197 210 225 225 227 232 229 
226 169 121 184 209 127 205 227 226 228 225 225 225 224 225 226 
224 226 224 226 224 228 227 227 226 226 161 211 224 227 225 226 
226 226 226 230 228 227 226 228 227 231 157 230 229 228 229 229 229 231 230 229 
227 227 227 225 224 225 225 227 226 183 185 230 171 164 225 232 
231 228 228 230 230 232 232 231 230 229 225 224 222 219 210 204 
215 217 220 219 223 225 226 227 226 226 226 223 226 224 228 220 
159 117 200 221 149 179 227 225 226 225 225 225 226 225 225 224 
224 225 223 226 226 227 227 227 223 225 159 222 227 225 225 225 
226 226 225 228 227 227 228 228 229 226 161 228 231 229 228 229 229 231 225 228 
228 227 227 228 227 226 225 226 225 201 171 232 230 209 160 175 
232 230 229 227 228 229 230 230 228 230 231 230 230 230 233 229 
229 229 228 228 231 229 228 225 225 224 224 223 227 229 190 130 
141 209 224 191 136 218 226 226 226 226 225 225 223 225 225 226 
225 225 227 226 225 226 227 224 224 199 165 224 226 226 226 226 
226 226 227 228 228 228 227 229 229 227 187 195 226 228 228 229 229 229 230 227 
227 229 227 227 227 227 226 229 225 225 162 235 230 229 230 200 
158 200 232 233 231 231 230 230 229 228 226 226 228 226 226 230 
226 228 230 227 225 225 226 227 224 227 229 227 208 164 130 184 
215 228 226 142 178 228 227 226 225 227 225 225 225 226 225 225 
224 224 225 225 226 226 224 223 224 176 198 223 226 226 226 226 
226 227 227 227 228 228 228 227 231 229 223 161 230 228 230 227 229 229 228 229 
228 227 229 227 226 226 228 227 224 230 159 213 229 227 230 233 
231 180 161 188 224 232 231 233 230 231 229 229 228 228 228 230 
231 230 230 230 230 228 227 227 229 224 198 158 111 146 208 225 
227 228 180 138 222 227 225 226 226 223 222 224 224 224 224 226 
225 226 224 226 226 227 224 222 223 152 219 225 226 225 224 227 
226 226 227 228 227 229 228 230 231 228 231 140 232 230 228 230 230 229 228 228 
229 227 228 228 227 226 227 226 225 226 219 159 231 229 228 229 
232 234 222 178 148 155 182 196 221 228 233 230 229 229 229 229 
231 228 229 229 228 228 230 209 174 128 107 166 202 223 225 225 
227 214 127 204 222 223 225 227 225 222 224 223 222 223 222 224 
224 223 225 225 226 225 224 225 195 160 222 225 225 225 225 227 
225 225 223 229 228 227 228 229 227 228 227 161 205 230 229 230 230 229 228 231 
229 227 229 227 227 227 227 227 227 227 230 164 209 232 229 229 
229 231 233 234 229 215 190 172 147 146 151 166 160 148 152 145 
151 156 141 149 148 153 146 122 143 177 209 224 224 221 227 227 
214 137 166 225 225 226 223 226 225 225 225 223 225 222 225 224 
224 224 223 224 224 225 222 221 137 197 223 224 225 224 226 224 
226 226 225 227 228 228 227 228 229 229 228 219 163 231 229 228 230 232 229 230 
229 228 229 227 228 228 228 228 225 227 227 231 148 225 231 228 
229 230 231 233 232 232 231 232 228 224 216 203 190 205 191 196 
196 196 190 186 183 198 208 219 222 222 223 224 223 224 225 206 
133 165 220 223 224 223 225 224 225 225 224 224 225 224 224 224 
226 223 225 225 225 223 225 197 136 224 227 227 226 225 224 227 
226 227 226 229 227 226 229 227 227 228 229 232 146 229 229 230 230 230 229 230 
229 228 228 228 228 224 229 228 228 227 227 230 215 146 227 231 
229 230 231 231 231 229 229 232 232 231 230 232 232 232 231 232 
231 228 228 230 230 227 224 226 225 223 223 224 225 224 203 127 
169 224 228 225 225 224 227 227 224 223 225 225 223 225 224 225 
223 222 223 224 224 224 224 151 206 227 226 224 225 225 226 225 
225 225 224 228 228 229 228 229 228 230 229 230 190 188 228 229 229 230 230 231 
228 228 228 227 228 229 229 228 228 226 227 227 230 207 154 229 
233 231 230 229 232 230 230 231 229 229 227 225 229 231 231 229 
229 228 227 228 226 224 223 223 222 225 223 228 225 187 132 165 
219 230 226 226 225 226 222 222 226 225 225 224 225 225 225 224 
225 224 224 223 222 224 221 145 222 225 226 227 228 226 225 225 
227 226 226 228 228 228 229 228 228 230 230 231 231 132 232 230 228 230 228 228 
228 228 230 230 230 228 228 228 228 228 227 227 230 234 203 157 
223 231 230 230 230 232 232 233 232 233 233 232 227 212 209 211 
217 227 227 230 228 227 228 225 225 226 226 212 153 134 191 222 
225 226 226 229 227 227 225 227 226 223 226 224 224 225 226 223 
224 223 223 224 224 224 168 193 227 226 226 225 225 223 224 225 
226 228 226 229 229 231 230 228 228 229 226 229 234 173 202 230 228 228 229 228 
228 230 228 228 229 228 230 229 229 229 230 227 227 227 233 210 
149 223 232 233 233 233 228 202 197 191 193 190 174 146 157 163 
164 168 168 166 183 196 222 227 226 219 173 133 168 216 227 228 
229 227 227 226 225 223 225 225 224 226 226 225 223 225 223 224 
225 224 222 223 223 216 141 221 225 225 225 226 226 226 227 224 
226 226 227 229 230 229 230 231 230 232 228 229 230 228 177 235 230 229 229 228 
229 228 230 229 229 229 230 230 228 229 229 229 227 226 228 234 
216 139 191 218 198 185 182 177 189 196 203 208 219 224 228 225 
223 226 223 205 166 145 160 175 172 125 136 193 225 224 228 229 
226 228 227 228 228 227 226 228 229 229 232 233 233 230 228 226 
224 225 224 225 229 159 193 224 226 225 224 225 224 225 225 225 
225 225 225 230 229 229 230 230 230 230 229 229 229 232 200 214 234 230 229 229 
229 229 229 230 231 229 229 230 230 230 229 232 229 227 227 229 
232 227 144 105 188 221 230 227 230 231 232 233 232 232 231 232 
233 233 234 230 232 216 158 106 128 188 223 228 229 228 227 230 
230 228 229 229 229 231 230 230 231 230 232 232 232 232 232 230 
229 226 224 229 211 161 225 226 225 226 227 227 225 223 226 225 
225 225 225 229 229 229 231 230 228 228 228 228 229 230 233 163 227 228 227 226 
229 229 229 230 228 229 229 229 229 230 229 230 229 228 227 226 
230 233 231 211 153 128 167 189 193 208 226 227 230 230 229 231 
227 231 219 190 159 129 147 199 221 228 229 230 229 227 226 228 
232 231 230 230 230 231 233 233 234 234 232 230 233 232 230 229 
228 225 224 225 143 217 227 223 229 226 225 225 227 226 225 225 
226 226 227 231 229 229 230 229 229 229 228 228 230 229 232 185 156 229 227 227 
229 230 230 230 230 229 230 230 230 229 228 229 230 229 228 229 
228 230 233 233 232 221 188 172 147 138 138 132 146 137 141 152 
142 133 126 128 172 207 227 230 232 232 232 228 228 228 227 230 
231 231 232 233 234 232 231 233 236 234 233 234 232 232 229 228 
230 228 224 168 179 227 224 225 224 225 225 228 228 225 225 225 
225 225 225 230 229 229 231 230 229 229 228 229 229 230 228 228 142 212 229 227 
230 230 230 232 229 229 229 229 229 228 230 230 231 229 228 231 
229 229 227 230 232 233 232 232 227 226 223 221 218 216 212 209 
212 214 223 225 230 228 227 231 229 231 231 230 229 229 231 232 
234 234 234 235 234 233 234 234 234 234 233 232 231 233 231 230 
229 232 187 155 227 225 223 226 227 226 227 226 226 225 224 224 
224 222 223 228 230 229 229 228 229 228 228 227 229 229 231 227 223 142 220 230 
229 230 229 230 231 231 230 230 229 230 229 229 230 229 230 230 
230 230 230 229 231 230 231 233 232 231 231 231 229 231 228 231 
231 231 232 232 231 231 229 230 229 229 231 231 231 231 233 234 
233 234 234 235 234 234 233 232 233 234 233 232 231 232 231 229 
232 219 148 226 231 226 226 225 226 225 226 226 225 224 225 224 
226 223 224 230 229 230 230 228 230 229 228 229 227 229 229 229 231 186 155 226 
230 230 231 230 230 230 231 231 230 230 230 229 230 229 231 232 
229 229 230 230 230 229 229 230 229 229 230 228 230 230 232 233 
231 230 230 231 230 231 231 231 232 232 232 233 233 231 232 232 
233 233 233 235 236 234 234 233 234 234 233 230 230 230 230 229 
229 139 209 229 227 227 228 225 225 226 226 226 227 224 226 224 
223 224 225 230 230 231 230 230 230 231 228 228 229 229 232 229 228 227 143 159 
227 229 228 229 231 231 230 231 230 231 230 231 231 232 232 231 
229 232 229 230 230 229 230 230 229 229 228 230 230 231 228 231 
230 230 230 230 232 232 232 231 230 234 233 233 233 234 233 234 
235 232 235 235 236 235 233 233 233 235 233 231 229 229 231 228 
168 190 228 227 228 227 226 227 227 226 226 225 227 225 224 224 
225 223 223 228 229 228 229 228 229 229 229 230 228 230 232 230 224 221 204 200 
184 235 232 231 230 231 228 229 230 231 231 229 229 229 231 232 
231 231 232 229 230 231 230 231 231 230 230 230 231 230 231 231 
230 232 231 231 232 233 233 232 233 231 232 231 233 233 233 234 
233 234 234 235 233 233 232 233 232 233 231 231 228 231 233 174 
178 230 225 227 230 227 227 226 224 225 225 225 227 225 224 223 
223 223 225 229 229 229 229 230 229 227 227 227 231 230 231 230 229 229 231 233 
207 187 231 232 231 229 230 230 230 230 230 229 232 230 229 232 
231 231 230 230 230 230 230 232 229 230 230 230 230 231 230 231 
233 230 230 232 232 233 233 231 232 234 234 234 233 234 234 234 
235 234 234 234 235 235 234 235 234 233 230 230 231 234 173 166 
227 229 226 227 227 229 227 229 229 226 226 225 225 225 225 226 
225 225 226 229 229 228 231 227 229 229 229 229 228 229 231 229 229 229 230 228 
230 210 182 230 232 231 230 230 231 232 230 230 231 230 232 230 
230 232 231 231 231 230 229 227 230 230 231 231 231 231 232 231 
230 232 232 233 232 233 232 232 233 233 233 235 233 234 234 236 
233 234 234 234 234 232 233 233 233 234 231 231 232 177 190 230 
231 227 229 227 227 227 226 226 226 227 225 224 227 225 225 224 
225 225 224 228 229 229 227 229 227 229 229 229 230 229 228 230 229 227 230 227 
230 230 206 163 227 233 231 230 229 230 231 232 230 231 230 230 
231 232 231 228 231 230 231 232 232 230 230 230 231 231 230 232 
232 231 232 232 230 233 234 233 233 233 233 234 234 233 235 235 
233 234 234 234 234 234 234 234 233 231 234 228 176 187 230 231 
229 229 230 230 228 227 226 226 227 226 226 228 225 226 225 224 
224 224 223 230 228 229 229 228 231 229 229 230 229 230 228 231 230 229 231 230 
229 230 231 219 170 211 232 230 230 230 231 230 228 229 230 230 
230 229 228 230 230 229 230 229 230 229 232 230 230 231 234 232 
232 233 231 231 233 231 233 233 233 232 233 233 234 233 232 233 
233 235 235 234 234 233 233 232 231 233 227 162 197 227 231 231 
229 229 230 229 227 227 226 227 228 227 225 227 227 226 227 226 
224 223 224 229 227 229 229 229 229 229 230 229 230 230 229 229 229 229 230 231 
231 230 228 231 223 182 188 229 231 232 229 230 231 229 229 230 
230 229 231 229 229 231 229 230 231 231 229 230 232 230 229 232 
231 232 232 232 233 232 233 233 231 231 234 233 234 233 233 233 
233 234 235 234 232 232 232 233 233 205 163 206 233 231 231 231 
229 231 230 229 228 228 228 226 225 227 228 227 227 225 225 225 
225 223 222 227 228 228 228 230 229 229 229 229 229 229 229 229 229 229 229 230 
231 228 228 227 231 227 196 167 222 232 230 230 229 229 229 230 
229 230 230 230 230 229 230 231 231 231 229 228 231 232 230 231 
231 232 230 232 233 233 231 232 234 232 233 233 234 233 234 234 
234 234 235 233 232 233 232 230 191 176 219 230 232 230 231 230 
230 231 229 228 228 228 227 228 226 227 228 228 228 227 225 225 
226 225 224 229 228 229 229 231 230 230 229 229 229 231 230 230 229 229 232 231 
231 229 228 228 229 229 234 212 173 194 229 233 233 231 230 232 
227 228 228 229 229 230 229 227 230 228 228 230 230 231 231 232 
233 232 232 231 232 231 234 234 233 233 234 234 233 232 233 233 
232 234 232 233 234 235 224 180 196 225 231 231 229 231 230 231 
231 231 229 230 229 229 225 226 227 227 227 227 228 227 224 226 
226 225 221 230 227 227 229 229 230 230 229 229 229 228 230 229 230 229 231 229 
230 227 228 227 229 229 230 234 228 189 166 214 230 231 230 230 
229 229 229 230 227 228 230 230 229 229 228 228 228 229 231 233 
232 233 232 231 232 232 230 232 232 233 232 232 233 232 232 232 
235 235 234 235 228 178 176 214 230 231 230 229 229 230 231 230 
231 232 229 228 229 229 229 228 227 228 228 226 227 227 225 223 
223 226 224 228 228 227 229 229 229 230 231 232 230 231 230 229 230 231 230 229 
228 230 230 228 227 227 228 226 229 232 226 175 172 218 231 230 
231 229 229 228 230 229 230 229 229 230 228 230 230 230 229 231 
231 231 232 233 233 232 233 231 232 232 231 231 232 233 233 233 
235 237 222 186 171 207 235 234 231 229 229 230 230 230 229 231 
230 233 229 227 229 228 230 228 227 228 228 228 225 225 224 226 
223 225 224 228 229 228 230 229 229 228 229 228 231 231 229 230 230 230 230 230 
229 231 231 228 227 228 228 228 227 231 234 232 219 181 176 205 
229 232 234 232 231 230 230 231 230 229 229 229 231 230 230 231 
230 231 232 232 231 234 232 233 233 233 233 234 234 235 232 230 
210 170 164 210 230 231 233 232 230 231 231 230 231 231 230 230 
231 231 230 230 228 229 227 227 228 229 227 226 228 226 226 225 
228 225 223 228 227 228 228 230 229 230 230 229 230 228 230 228 229 229 229 229 
228 231 231 230 230 230 228 228 226 228 229 229 229 232 225 179 
165 177 216 229 228 232 232 230 230 232 231 232 228 231 230 231 
231 230 232 232 232 232 232 232 234 235 236 236 234 210 191 159 
175 213 231 234 233 232 232 228 229 230 230 228 230 230 230 231 
228 231 230 230 231 231 227 227 227 227 226 228 227 222 223 225 
223 223 222 227 228 229 230 230 230 229 228 230 230 228 232 229 231 230 229 229 
230 229 229 230 231 229 228 228 229 229 228 227 226 227 232 229 
230 209 169 175 181 208 226 229 231 233 233 234 232 233 232 232 
234 234 232 235 235 234 234 233 231 219 206 178 171 186 210 228 
230 234 233 232 231 232 231 231 230 230 231 229 230 230 229 229 
232 231 230 229 229 229 228 226 226 228 227 229 226 226 224 221 
221 223 223 228 227 227 229 230 230 231 229 230 229 228 229 230 230 230 230 230 
230 229 228 230 229 228 228 228 229 229 228 227 228 227 229 230 
230 231 230 225 215 187 168 160 172 188 209 215 225 227 229 229 
231 232 230 220 209 197 195 190 173 182 198 217 230 233 235 235 
234 233 231 232 231 230 232 230 229 229 227 230 229 230 230 229 
230 229 230 230 229 228 227 228 227 228 227 226 225 225 222 224 
223 223 223 229 230 230 228 229 229 229 229 230 229 230 229 230 229 230 230 231 
229 230 230 229 231 229 230 230 229 230 230 229 229 229 229 228 
228 228 230 232 232 232 232 229 213 202 194 194 189 186 185 193 
180 182 179 161 167 180 223 229 234 236 234 235 235 234 234 231 
232 232 232 231 232 232 232 231 229 230 230 228 229 230 229 227 
230 229 228 230 230 229 227 227 227 227 226 226 224 223 224 222 
223 223 223 229 230 228 229 230 230 230 230 229 227 230 231 229 229 230 231 228 
231 230 230 231 229 231 230 230 230 230 231 230 230 232 228 230 
230 229 229 230 230 232 233 233 233 232 233 234 233 233 233 232 
232 231 233 234 235 236 225 235 235 232 235 232 231 232 233 233 
232 232 233 230 232 232 232 229 229 230 231 230 228 229 230 229 
230 230 228 228 229 229 228 228 227 226 225 225 226 225 225 225 
223 222 223 229 228 230 229 229 228 229 230 230 229 230 229 230 229 229 230 231 
229 231 231 231 231 231 230 228 229 231 230 231 228 230 232 230 
229 229 230 230 231 232 231 230 233 231 233 233 233 234 235 233 
234 235 235 236 233 234 233 233 232 233 231 234 231 232 235 232 
234 233 233 234 232 232 232 230 229 230 231 229 231 231 229 228 
227 228 228 228 229 230 228 227 226 225 225 225 224 224 226 222 
224 225 225 229 228 228 229 229 230 229 230 230 228 229 231 231 230 231 230 231 
232 229 232 231 232 231 231 228 232 232 231 231 231 231 229 231 
232 229 231 230 231 232 232 231 233 232 232 233 232 232 232 232 
231 234 233 234 232 232 233 233 234 234 233 235 233 234 234 234 
234 232 232 232 232 233 233 231 230 230 231 230 229 229 229 225 
228 227 227 226 230 230 228 228 228 226 225 223 225 227 225 224 
221 225 224 228 230 228 228 229 229 230 230 231 229 229 229 231 231 229 230 231 
232 233 230 231 231 230 231 233 228 232 233 232 233 231 234 232 
232 235 232 232 231 232 232 232 233 233 232 232 232 231 233 233 
234 231 233 234 233 235 233 232 233 233 232 233 232 232 234 232 
233 233 232 232 230 232 232 228 231 229 229 228 228 229 227 227 
227 227 226 228 230 230 229 227 226 225 224 223 226 227 222 223 
223 226 225 230 229 231 230 228 229 228 230 229 229 227 230 229 230 231 230 230 
231 231 231 231 231 232 233 234 234 234 234 233 233 234 233 232 
232 230 232 233 233 233 232 233 232 231 233 233 231 233 233 234 
234 232 233 233 233 234 233 234 233 233 232 230 233 233 234 234 
233 233 233 232 230 232 231 230 230 233 230 227 228 227 228 227 
227 227 228 227 228 226 227 226 227 226 222 224 224 226 225 224 
223 222 224 