P2
# Created by IrfanView
100 100
255
205 206 207 205 207 208 204 204 207 207 209 208 208 208 204 208 207 
209 209 210 208 205 205 208 210 210 209 205 208 209 209 211 212 
212 211 211 213 214 212 211 214 213 212 214 213 214 212 214 214 
212 214 214 215 214 215 216 217 217 215 216 216 217 216 217 218 
217 219 218 218 219 219 219 220 221 221 223 223 223 219 220 220 
222 221 222 222 221 222 222 220 222 224 224 224 225 226 226 226 
226 227 225 204 207 207 208 207 207 208 208 206 210 209 209 207 209 210 210 209 
209 207 207 207 207 207 211 209 206 211 210 210 210 209 210 210 
213 212 213 213 213 213 215 214 215 214 215 214 214 215 215 216 
214 214 217 216 214 215 215 215 216 218 216 218 217 218 219 219 
216 220 219 219 221 219 221 222 222 222 221 221 223 222 223 221 
219 221 220 220 221 220 223 222 218 220 222 225 226 226 227 226 
227 228 229 210 209 208 208 208 207 211 208 209 208 208 209 209 209 210 210 209 
208 210 208 207 207 207 210 209 210 212 210 211 212 210 212 211 
213 213 212 213 214 212 214 214 214 214 214 214 214 213 213 215 
215 216 214 216 217 216 215 215 216 215 216 216 217 220 218 218 
219 219 219 219 220 220 220 221 223 223 222 224 223 222 223 223 
225 224 223 224 224 224 221 222 222 222 224 227 226 226 226 227 
228 227 226 207 208 210 209 209 210 210 208 211 211 210 210 210 210 208 211 209 
210 208 210 209 207 207 208 209 210 210 211 211 211 213 212 212 
212 214 213 213 213 213 213 216 214 214 216 217 215 215 215 216 
215 215 215 214 216 217 215 217 216 217 218 218 219 216 219 220 
221 220 221 220 219 221 221 222 222 221 223 222 223 224 222 224 
223 223 223 223 223 224 225 223 222 223 224 224 226 228 228 227 
228 227 227 206 207 209 210 210 209 208 210 210 210 210 209 211 210 211 210 210 
207 209 209 210 207 208 207 208 211 210 211 214 212 213 213 212 
212 214 213 214 214 214 214 213 217 215 213 215 216 214 217 215 
217 215 216 218 216 216 218 217 217 216 217 217 217 219 220 218 
219 219 219 220 221 222 223 223 224 223 223 225 222 224 223 223 
224 224 224 224 224 222 223 224 224 226 225 227 227 226 226 227 
226 228 228 209 210 209 210 211 211 213 210 210 209 211 209 210 212 211 211 211 
212 211 211 210 210 209 209 210 212 213 212 211 213 213 213 212 
213 213 213 214 214 213 215 215 214 219 217 216 215 217 218 217 
218 218 221 217 219 218 217 218 217 214 216 218 218 218 219 218 
218 219 221 220 222 222 222 223 222 224 223 224 224 224 224 224 
223 223 225 224 223 226 225 225 225 224 225 227 226 227 227 227 
227 229 228 209 209 209 209 210 210 211 212 212 211 212 213 212 211 213 213 211 
212 212 212 213 211 212 212 211 213 213 214 216 213 212 213 213 
215 213 215 213 215 216 215 215 215 216 218 219 219 221 217 217 
220 217 218 217 223 221 222 222 221 216 218 219 219 218 219 220 
217 222 218 221 221 222 223 224 225 224 226 224 225 224 226 228 
226 224 224 225 225 225 226 225 225 227 225 225 226 227 226 227 
228 226 229 208 209 210 209 213 212 211 212 213 212 213 212 212 213 212 210 214 
212 212 212 214 213 213 211 212 213 213 211 214 213 214 213 214 
214 214 213 214 214 213 215 217 219 218 216 214 206 191 173 159 
160 156 153 161 158 146 158 176 171 205 218 220 221 213 220 220 
218 219 218 223 223 222 223 225 226 226 227 226 226 225 225 224 
226 226 227 225 225 225 226 225 225 226 226 226 227 227 225 226 
227 227 226 211 209 210 210 212 212 211 212 211 211 213 213 213 212 212 212 213 
213 214 214 212 213 213 212 212 214 213 213 214 215 214 214 213 
214 213 215 215 216 217 217 215 192 165 151 143 154 167 174 183 
193 208 211 217 212 202 204 196 175 115 136 173 186 210 220 222 
220 219 219 218 222 224 222 221 226 226 225 226 228 228 227 227 
227 225 225 227 226 224 228 226 227 225 225 225 226 227 226 225 
226 228 229 211 210 210 210 213 212 212 213 213 213 214 213 213 213 215 216 216 
214 216 214 214 214 215 214 216 215 213 215 217 213 214 212 215 
217 217 216 218 212 188 156 132 153 182 215 225 226 226 226 226 
225 226 224 222 223 226 227 226 226 210 195 178 156 155 156 175 
195 218 219 222 219 221 224 224 225 227 226 227 226 225 226 226 
226 229 228 225 228 228 225 227 226 225 225 225 225 226 225 226 
227 226 225 210 212 211 211 212 212 215 214 214 212 215 216 215 215 215 212 213 
214 214 214 216 215 214 213 215 214 214 215 214 213 214 217 216 
215 208 167 136 136 163 207 222 225 226 224 226 225 223 224 222 
223 222 221 221 222 224 225 223 223 227 228 228 226 226 210 181 
138 119 151 194 224 222 222 225 225 227 227 229 227 228 227 226 
227 226 229 228 228 226 225 226 225 224 224 227 227 227 226 226 
226 225 224 210 215 213 212 214 212 213 215 214 214 214 216 216 216 215 217 216 
215 216 215 217 215 217 216 216 218 216 214 214 215 216 213 180 
129 100 123 181 215 225 226 224 224 222 222 223 222 222 222 223 
222 223 223 224 224 223 225 224 223 224 225 224 225 228 230 228 
231 217 166 112 133 188 222 224 226 224 225 225 227 227 228 228 
227 228 230 227 225 226 228 227 226 225 227 225 226 226 226 227 
225 226 227 214 214 215 214 215 212 218 214 218 217 217 218 218 215 215 216 217 
216 215 216 214 216 216 215 216 215 213 215 218 218 201 124 96 
147 204 227 223 222 224 224 223 222 224 223 223 223 223 224 223 
223 221 223 222 220 225 223 224 224 224 224 225 223 224 225 225 
227 231 231 225 190 136 133 196 226 228 228 227 226 227 227 227 
228 228 231 227 229 228 226 227 228 228 228 229 228 226 228 227 
226 227 227 217 216 216 217 217 215 215 218 218 217 217 216 218 218 218 217 220 
217 216 217 218 217 216 218 217 216 217 217 209 155 91 152 215 
224 222 221 223 222 221 223 223 224 224 223 224 225 224 221 223 
224 220 223 224 225 226 225 225 226 225 223 226 224 224 225 224 
225 226 226 227 231 232 184 139 155 213 226 229 226 226 228 227 
228 227 230 228 227 228 228 227 226 229 227 227 227 226 229 228 
228 228 228 216 216 214 216 215 218 216 218 219 219 217 219 217 220 219 218 218 
218 219 218 217 216 218 216 218 220 225 200 115 130 211 226 226 
223 224 224 223 222 224 223 225 224 223 225 224 224 223 225 225 
224 224 224 223 225 225 227 227 225 227 225 225 226 227 226 226 
226 228 230 226 228 226 230 233 197 140 168 225 231 226 226 225 
228 228 228 226 227 228 230 227 227 228 229 228 228 227 227 230 
228 230 230 217 216 218 218 219 217 216 218 218 217 218 220 219 221 220 220 219 
219 219 219 219 218 218 221 222 223 161 104 183 226 226 225 223 
222 223 222 222 223 223 225 225 225 224 223 223 224 223 225 225 
225 224 226 225 223 226 224 225 227 224 225 226 227 228 226 227 
227 228 228 226 228 228 227 228 231 230 178 129 210 230 228 227 
228 227 228 229 229 229 228 231 231 229 229 229 230 229 230 229 
229 228 230 220 217 218 218 218 219 220 218 219 220 221 219 219 219 221 217 218 
218 219 217 218 218 219 222 219 125 108 207 229 227 222 221 223 
223 224 223 224 223 225 225 226 225 225 227 225 227 226 226 226 
226 227 226 226 227 226 227 227 227 226 226 226 227 227 228 226 
227 228 228 228 228 227 227 225 225 230 234 204 142 194 233 229 
229 229 227 229 230 230 230 229 228 229 229 230 229 230 228 228 
230 231 229 219 218 219 220 220 220 219 216 218 217 217 220 219 220 219 218 218 
216 217 217 218 217 225 217 121 137 224 229 226 224 224 223 224 
224 224 226 224 226 227 227 226 227 226 226 226 228 226 227 227 
227 226 227 227 225 228 227 228 227 227 228 226 228 228 228 228 
229 227 228 227 228 230 228 226 228 227 230 230 220 148 166 228 
230 228 227 228 228 231 225 231 230 231 229 230 230 231 231 231 
229 228 231 220 220 219 221 221 220 221 220 220 222 220 222 221 221 221 219 220 
222 219 221 220 223 206 99 162 228 227 225 225 224 225 224 223 
225 226 226 227 227 225 228 227 225 226 227 226 226 225 226 226 
227 225 226 228 227 228 227 226 226 228 227 230 230 227 228 229 
230 226 228 227 229 229 227 228 229 228 228 228 228 232 183 161 
226 231 230 229 229 228 230 231 231 230 232 232 232 229 229 230 
231 232 231 220 220 221 220 220 220 221 222 222 222 221 219 221 221 220 221 219 
220 221 222 226 198 97 183 231 227 226 224 225 225 224 226 225 
226 227 226 227 227 227 226 226 227 228 226 228 227 227 227 229 
227 227 228 228 228 229 229 228 228 227 229 228 227 230 230 228 
228 229 230 230 228 228 228 228 230 229 228 227 222 227 230 189 
147 226 230 229 230 230 230 230 230 232 232 231 232 232 233 231 
232 233 232 222 222 219 222 222 221 222 221 222 222 222 223 223 222 224 221 219 
219 220 225 208 92 180 230 227 226 225 226 225 225 227 227 226 
226 227 227 228 227 227 227 226 227 227 227 228 228 227 227 227 
227 226 226 227 228 229 229 228 229 230 229 228 229 229 229 229 
228 229 229 232 228 229 229 228 228 227 226 226 226 224 227 233 
207 152 223 231 230 230 230 229 232 232 231 232 231 232 233 231 
233 232 232 222 222 222 223 223 223 221 222 223 223 224 222 223 223 224 221 220 
219 221 208 91 171 231 226 226 227 226 226 225 228 226 226 227 
227 227 227 229 229 230 229 228 228 227 227 228 228 227 227 228 
227 227 228 229 229 230 228 228 228 229 229 230 229 229 229 229 
230 228 228 230 229 229 227 228 229 228 229 228 226 226 228 230 
234 198 138 230 229 231 230 230 233 232 232 232 231 231 233 233 
230 232 233 222 224 225 223 223 223 223 224 223 222 224 224 224 221 223 222 221 
221 216 115 158 232 227 224 225 225 225 226 228 227 228 228 228 
228 229 228 227 230 228 228 227 229 232 230 230 228 229 227 226 
228 228 230 229 230 231 230 231 229 228 229 229 229 229 229 229 
229 228 228 227 227 228 230 230 230 229 228 228 226 227 230 229 
231 235 199 178 233 231 230 232 233 233 233 232 232 234 232 232 
232 231 231 224 223 224 225 225 224 224 224 225 225 224 224 224 226 225 223 219 
222 124 138 232 229 226 224 225 225 226 228 226 228 229 230 230 
230 230 230 231 231 231 231 231 229 234 229 228 230 231 229 228 
228 229 230 229 231 229 230 230 230 231 232 231 230 230 229 227 
228 231 231 230 230 229 230 230 230 228 229 226 228 228 228 229 
229 230 232 187 181 233 231 232 232 232 233 233 232 232 232 233 
233 232 233 225 225 225 224 225 225 225 225 225 223 225 225 226 226 224 222 226 
172 135 228 227 227 227 226 224 225 228 226 227 230 228 230 231 
230 232 233 233 234 234 234 234 233 232 231 233 232 230 231 231 
230 230 230 229 230 231 231 231 229 229 229 229 229 229 231 231 
235 231 233 232 232 232 231 229 230 229 229 230 228 229 231 226 
230 228 230 231 118 220 235 232 232 232 232 233 234 233 233 233 
233 233 233 225 225 224 225 224 223 223 224 224 225 224 224 225 225 224 224 202 
117 219 229 227 228 227 226 227 230 228 190 135 83 57 64 66 
72 108 130 162 194 224 237 234 234 233 232 233 231 233 232 232 
232 231 231 229 229 230 230 232 232 232 230 230 230 232 234 233 
229 221 225 229 230 229 230 232 233 231 230 230 230 230 230 230 
229 229 228 233 226 128 229 232 233 233 233 232 232 233 233 232 
232 234 232 225 224 226 225 226 227 226 225 225 224 224 225 228 224 223 225 115 
208 230 228 228 228 225 224 226 190 105 61 40 55 84 142 143 
165 151 170 108 62 138 195 234 233 232 233 234 233 233 233 232 
230 232 231 232 231 231 231 231 229 230 228 229 233 235 198 131 
81 50 44 65 86 97 116 181 234 232 231 230 230 229 231 231 
230 230 232 231 235 184 174 235 232 233 231 233 233 232 234 233 
233 232 232 224 226 224 226 226 226 227 225 224 227 226 226 224 224 229 153 157 
230 227 228 229 228 228 226 186 54 47 107 201 223 229 229 237 
235 237 237 238 210 140 228 234 235 235 234 233 234 235 234 232 
231 232 232 231 231 230 230 231 230 229 229 232 190 85 32 49 
94 128 151 142 131 100 77 41 94 191 231 230 230 232 231 231 
230 230 232 232 229 233 167 221 232 232 233 232 232 234 233 233 
233 235 233 224 226 228 227 223 228 226 225 226 227 226 225 226 224 206 124 227 
230 229 228 228 229 227 226 226 197 223 230 227 228 228 229 232 
232 233 233 234 235 237 236 234 234 233 233 234 234 235 234 231 
233 232 232 231 229 230 232 232 229 231 230 186 111 99 189 234 
239 237 236 238 239 237 237 225 202 202 233 232 231 230 231 232 
231 230 231 231 230 230 222 145 235 232 233 234 233 233 232 234 
233 233 234 226 226 225 226 229 229 227 226 227 224 225 225 223 230 124 190 233 
227 228 228 227 228 226 228 229 233 232 230 232 229 229 230 233 
232 233 232 233 234 237 235 235 234 233 234 234 234 233 234 231 
230 231 232 232 233 231 233 233 232 230 231 236 235 236 235 236 
234 234 234 234 234 234 235 234 236 233 232 232 232 232 231 231 
231 231 232 233 231 231 233 172 198 236 233 233 231 232 232 233 
233 233 233 226 229 228 227 227 227 226 227 225 225 225 226 224 188 106 228 229 
229 228 229 229 228 228 228 228 229 229 228 227 228 230 231 233 
231 232 232 233 233 235 235 235 235 235 234 233 234 233 234 233 
233 234 233 232 232 231 232 234 232 232 231 232 234 234 233 233 
233 232 233 233 233 232 231 233 233 235 233 234 232 231 231 231 
233 231 232 233 233 229 230 236 151 232 233 233 234 232 232 232 
233 233 233 228 227 227 227 228 228 230 227 227 226 227 225 228 122 203 232 229 
229 229 228 228 231 229 228 230 228 228 228 231 232 234 234 233 
234 233 233 233 234 235 234 234 235 235 234 234 234 233 234 233 
232 231 233 234 233 234 233 232 233 232 233 231 232 232 232 231 
230 231 232 232 233 232 233 233 233 233 231 232 233 232 233 233 
232 232 233 232 233 232 229 232 204 186 235 232 233 233 232 231 
233 233 234 228 228 228 229 227 227 227 229 227 228 227 228 203 156 232 230 230 
230 230 229 228 231 229 230 229 229 228 229 232 233 233 234 235 
235 236 234 233 234 234 234 234 234 235 235 234 232 234 234 234 
234 234 234 233 233 233 233 233 233 233 232 233 233 233 231 230 
234 235 235 234 233 234 232 232 233 233 233 232 233 233 232 232 
231 232 233 232 232 232 232 232 234 154 237 232 234 233 232 232 
234 234 234 227 228 229 227 227 230 229 229 228 228 227 228 133 225 230 230 230 
230 230 230 229 229 228 230 231 230 234 231 216 142 148 146 142 
167 201 232 233 235 234 234 234 235 234 234 234 233 233 233 234 
233 232 234 233 233 232 233 233 233 233 232 233 234 233 234 235 
233 235 232 234 238 235 234 233 233 233 233 232 234 233 233 232 
232 233 233 233 232 234 233 233 234 192 202 235 233 233 233 231 
233 233 234 230 229 229 228 229 228 229 229 227 227 227 199 124 231 231 231 230 
229 229 229 230 230 229 231 230 232 221 139 76 56 55 57 69 
58 71 106 215 234 234 234 234 234 233 234 233 233 233 234 233 
235 234 234 234 233 233 234 233 233 233 232 232 234 234 230 175 
119 84 88 80 141 175 213 235 234 232 232 233 233 233 233 234 
233 233 233 233 232 232 234 234 234 233 165 235 233 233 233 232 
233 233 233 228 227 230 228 227 229 228 229 228 226 229 141 184 231 230 230 231 
231 230 230 229 229 231 230 232 209 59 28 35 35 48 45 51 
46 58 67 95 208 234 234 234 236 234 235 235 234 233 234 234 
234 234 233 232 234 234 233 233 233 233 233 234 235 178 91 48 
37 79 79 67 100 92 97 117 167 233 233 234 234 234 233 234 
234 233 233 233 233 234 234 232 233 235 178 214 234 233 234 233 
234 234 231 230 230 229 230 229 229 230 230 229 228 231 114 223 227 229 231 230 
230 231 230 231 230 231 231 232 82 25 33 64 129 167 175 188 
175 122 55 54 103 231 233 234 232 234 234 234 234 233 234 234 
234 234 234 234 234 233 234 233 233 235 234 234 220 44 59 49 
56 81 92 82 65 61 67 121 165 189 232 234 234 234 233 234 
234 233 233 233 232 233 233 233 234 234 219 166 237 234 234 234 
234 233 233 229 228 230 228 229 229 226 229 231 230 194 168 231 230 231 231 230 
231 231 232 231 231 231 232 207 36 42 125 220 236 232 233 234 
234 231 198 135 128 223 235 234 235 234 234 234 234 234 234 234 
233 234 234 235 233 233 233 234 233 234 234 236 116 38 77 174 
221 231 236 234 228 192 69 48 88 123 233 232 231 234 235 234 
233 233 234 234 234 234 233 233 234 232 234 159 235 233 234 234 
233 233 235 230 232 230 230 229 230 231 230 228 230 153 213 231 232 232 232 231 
230 231 230 231 233 231 230 223 76 143 229 235 235 234 233 232 
234 234 236 235 232 235 233 233 234 234 232 231 233 234 233 233 
234 233 232 233 233 235 234 233 234 234 234 230 68 80 226 235 
234 233 234 235 234 231 217 138 79 134 231 233 234 234 234 234 
235 233 234 234 234 235 235 235 236 229 232 177 215 235 234 234 
234 233 235 231 230 230 230 229 231 230 231 230 228 146 233 232 232 232 231 231 
233 231 231 230 230 232 231 229 146 232 234 233 232 232 229 232 
232 232 232 233 234 233 234 234 233 233 233 234 234 234 234 234 
234 234 234 233 233 234 233 233 233 233 235 229 147 202 237 234 
233 233 233 233 231 231 233 237 235 235 232 233 233 234 233 234 
234 235 234 234 234 234 234 234 233 233 235 219 168 234 233 234 
233 233 234 231 229 230 231 232 231 231 233 232 201 181 234 232 233 233 233 233 
231 232 233 233 234 231 231 234 236 233 233 232 232 234 232 232 
232 233 233 233 234 233 234 233 233 235 234 234 234 234 233 234 
234 234 234 233 232 235 233 233 234 233 234 235 237 238 233 233 
232 233 233 233 232 231 234 234 235 235 232 233 232 234 235 235 
233 233 234 234 235 234 234 233 235 234 233 235 158 237 233 235 
234 235 234 230 231 232 231 230 231 231 228 230 154 199 232 233 233 233 233 234 
233 233 232 231 232 233 233 233 235 233 231 232 232 232 232 232 
232 233 233 232 234 233 235 234 233 234 233 234 234 234 234 234 
234 232 235 236 234 235 234 234 235 235 235 233 235 234 233 234 
234 234 234 234 233 235 233 233 235 233 235 235 234 235 234 235 
235 236 235 235 234 234 235 235 235 233 234 236 167 236 236 233 
234 233 233 233 233 231 231 233 232 232 232 233 133 219 233 233 232 233 233 233 
233 233 232 234 234 233 232 232 232 233 233 233 232 233 232 231 
234 234 233 233 232 232 232 234 233 233 234 235 234 234 234 234 
234 234 234 234 234 234 234 234 233 234 234 233 234 234 234 234 
233 234 234 235 234 233 234 233 234 233 233 235 234 235 235 234 
235 234 234 235 235 235 234 234 234 233 234 232 168 215 234 234 
234 235 235 230 230 232 232 234 233 232 232 225 137 233 233 233 233 233 233 233 
233 233 232 233 233 232 233 232 232 233 233 232 232 232 233 234 
231 233 234 232 233 232 233 235 234 235 235 236 234 234 234 233 
233 234 234 234 235 233 234 234 235 234 234 233 234 234 235 235 
234 234 235 235 234 234 234 235 235 234 235 235 236 235 236 234 
234 236 234 234 234 235 235 235 233 234 234 236 209 197 235 235 
235 234 233 233 232 232 232 231 233 232 230 205 147 236 233 232 232 232 232 233 
233 233 232 231 233 232 233 234 234 233 233 233 233 232 233 233 
232 234 233 234 233 233 235 232 234 234 235 234 234 235 235 235 
235 234 234 235 234 235 235 235 235 234 234 234 234 235 234 235 
236 236 235 236 235 235 235 235 234 235 236 235 235 234 236 235 
235 235 235 235 236 235 235 236 235 234 234 234 229 168 236 236 
234 233 233 232 233 231 232 231 232 231 231 196 182 233 232 232 232 232 233 232 
233 233 233 232 232 235 233 233 233 234 233 233 234 233 233 234 
233 234 234 233 233 234 235 234 235 235 234 234 235 235 235 234 
236 234 233 235 234 234 236 235 236 235 235 233 235 235 236 235 
235 235 235 235 237 234 236 236 235 234 235 236 237 236 237 237 
236 235 235 235 236 236 236 238 236 236 235 234 231 155 237 235 
236 235 235 233 233 232 233 231 233 231 229 189 207 233 232 232 233 233 233 231 
233 233 234 235 233 233 234 233 232 232 234 233 233 233 233 231 
234 233 234 233 232 234 234 234 233 234 235 234 235 234 235 235 
234 234 235 235 234 234 235 234 235 236 236 235 235 237 236 236 
236 236 235 235 235 237 236 237 236 237 235 236 236 235 234 236 
233 237 236 238 236 236 235 234 234 235 235 236 236 172 239 235 
236 236 235 231 231 232 233 233 233 232 230 177 215 232 233 233 232 232 232 234 
234 233 234 232 233 233 233 234 234 234 232 234 233 233 233 232 
233 232 234 234 233 235 236 236 234 235 235 236 234 235 234 236 
235 235 235 234 235 236 236 235 235 236 235 235 236 236 237 236 
236 236 236 236 236 235 235 236 237 235 237 236 237 237 237 237 
237 237 236 235 237 236 236 237 238 235 237 238 238 160 238 236 
235 235 235 232 232 231 231 231 229 232 231 168 223 233 232 231 229 233 233 233 
232 234 234 234 234 233 234 234 233 233 233 233 233 234 233 233 
234 234 234 234 234 234 234 235 236 236 235 234 235 236 236 235 
235 235 235 234 235 235 235 235 235 236 236 237 233 236 236 235 
236 236 236 236 238 237 236 237 237 236 237 239 237 238 238 237 
237 238 238 240 237 237 237 234 236 235 235 238 238 157 234 236 
236 235 235 232 232 233 230 230 231 232 233 173 232 232 232 232 225 230 233 233 
233 232 233 233 234 233 233 233 232 232 234 232 232 234 233 232 
232 235 234 234 234 234 234 234 235 235 234 236 235 236 235 235 
235 235 235 236 235 236 237 237 235 237 237 238 238 236 236 237 
237 239 236 236 237 237 237 237 235 239 236 237 239 238 236 237 
237 239 235 236 238 236 237 238 238 237 237 239 239 163 233 236 
234 237 236 231 231 233 232 231 232 234 229 170 232 234 230 231 230 232 235 234 
234 235 234 232 233 234 234 234 234 234 234 233 234 234 234 233 
231 234 234 234 233 235 234 235 235 235 235 235 235 235 236 235 
234 235 236 237 237 236 237 236 236 238 237 237 237 237 238 237 
238 236 238 237 237 239 238 239 238 238 239 239 236 238 238 239 
238 238 239 238 238 239 237 238 237 238 237 238 237 161 237 240 
238 239 237 232 232 234 232 232 233 230 226 165 230 231 234 232 229 231 233 233 
234 234 234 234 233 235 234 235 234 233 233 233 233 233 235 234 
233 234 235 236 235 235 234 235 235 236 235 234 235 236 236 236 
236 235 236 237 236 235 236 237 237 237 238 238 238 237 236 237 
237 238 237 236 238 238 238 236 237 238 239 238 237 238 239 239 
239 238 239 240 237 238 239 239 238 237 239 238 238 156 236 237 
238 237 235 231 232 233 232 230 232 230 232 177 235 234 233 233 229 230 231 232 
233 234 232 233 233 234 234 234 233 234 234 234 234 233 234 234 
234 234 236 235 235 235 235 234 233 234 235 235 235 236 237 235 
236 237 236 235 235 237 237 237 237 237 237 237 236 236 238 236 
236 238 237 238 238 239 238 239 238 239 239 240 239 240 238 239 
238 239 239 239 241 240 238 240 238 240 238 238 241 151 237 238 
238 237 240 232 231 231 232 232 232 232 228 177 234 234 233 233 231 232 234 233 
234 234 234 234 234 234 234 233 234 234 234 234 234 234 234 235 
234 235 235 236 235 234 235 235 235 237 236 236 234 236 235 235 
237 237 237 237 238 238 236 237 237 237 237 237 237 236 236 236 
238 238 237 239 239 238 239 240 240 240 239 238 239 239 239 239 
240 240 240 240 240 239 239 240 240 239 240 238 240 155 241 239 
239 239 239 234 233 231 231 231 233 233 231 185 234 235 233 234 234 233 234 234 
233 233 233 233 234 234 234 232 233 233 234 234 234 235 234 235 
234 235 236 235 235 235 235 235 235 236 236 236 233 237 235 237 
237 236 237 236 238 236 236 237 236 236 237 236 238 237 238 237 
237 237 236 237 238 239 239 238 238 239 240 241 239 240 239 241 
240 240 240 240 240 240 239 240 238 241 240 239 243 163 241 239 
241 239 239 233 233 234 232 231 232 232 229 182 228 233 233 233 236 235 234 234 
234 232 234 234 234 234 235 235 235 235 234 234 234 235 235 234 
235 235 236 234 235 236 236 235 236 235 236 237 234 237 237 236 
237 236 238 237 237 239 237 237 239 236 238 237 238 237 238 237 
236 239 236 239 239 239 239 240 240 239 240 240 240 239 241 241 
240 241 241 241 241 240 240 240 240 242 240 240 233 140 243 239 
240 241 238 231 233 231 232 232 233 233 229 173 208 236 235 234 234 233 234 234 
235 233 234 232 235 235 235 235 236 236 235 236 234 235 235 235 
235 235 235 235 235 235 234 236 235 235 236 235 236 237 236 237 
236 238 236 236 237 237 236 236 237 237 236 237 236 236 237 238 
237 239 238 238 239 239 240 241 241 240 240 241 240 239 240 240 
242 240 241 240 240 240 241 240 241 241 242 241 214 155 242 240 
242 240 241 233 232 232 233 231 231 232 229 177 182 234 235 234 234 234 235 234 
234 234 234 235 235 234 236 234 234 234 236 234 235 235 235 234 
235 234 236 236 234 234 235 237 235 237 236 235 235 236 237 237 
237 236 237 237 237 236 238 237 237 237 238 235 237 238 238 236 
238 237 237 239 238 238 239 240 240 241 240 241 240 241 242 242 
241 241 240 241 240 241 241 241 240 241 242 242 197 180 243 241 
242 240 240 234 233 234 232 233 231 231 227 195 158 234 235 235 235 235 233 234 
235 234 234 234 235 235 236 235 234 235 235 234 235 235 235 236 
234 235 236 235 235 234 234 235 236 236 236 237 236 236 236 236 
237 236 237 236 237 237 236 237 237 237 235 237 237 236 237 237 
239 237 238 239 237 240 239 239 241 241 241 241 242 240 242 242 
241 240 241 241 241 241 241 241 242 242 242 242 185 206 242 241 
241 240 240 232 234 234 233 234 232 231 231 223 142 234 235 235 234 236 237 235 
235 235 236 234 235 235 235 236 235 235 234 235 235 236 236 236 
236 235 235 238 238 235 235 235 236 235 237 236 236 236 236 236 
236 236 237 236 236 236 236 236 237 235 236 236 236 238 239 240 
234 197 236 238 240 240 240 239 241 241 241 241 242 242 240 240 
242 242 242 241 242 241 240 243 243 242 241 243 144 230 242 242 
242 241 241 234 233 233 232 233 233 230 229 230 139 232 235 235 236 235 236 235 
234 234 235 236 236 235 235 235 235 234 236 234 235 234 235 235 
234 235 233 224 235 238 236 237 236 235 236 235 236 236 237 236 
236 236 236 237 237 235 236 236 235 238 237 238 240 241 232 150 
70 89 215 240 239 240 241 240 240 241 240 242 242 242 242 243 
241 243 242 241 241 242 241 243 243 242 241 246 146 244 242 242 
242 241 242 233 233 234 233 235 233 232 234 230 158 213 235 235 236 236 234 236 
235 235 235 235 236 234 233 234 235 235 235 235 234 236 235 235 
235 234 231 115 122 198 236 238 237 236 239 238 237 236 234 237 
236 237 236 237 237 236 237 238 239 238 237 238 229 196 108 61 
45 117 203 241 241 240 239 241 240 241 242 242 242 242 242 242 
242 242 243 242 242 244 241 242 242 242 242 210 163 243 241 242 
242 242 242 233 233 234 233 234 233 234 233 230 193 178 238 235 236 236 235 236 
237 236 234 236 235 234 235 235 235 235 235 235 235 234 234 235 
235 234 234 128 50 55 125 191 236 238 239 239 238 239 238 239 
239 239 239 238 239 240 239 238 239 238 224 171 90 64 57 45 
83 166 242 240 240 241 240 240 240 242 240 241 241 242 242 242 
242 242 242 242 242 243 241 241 241 241 241 173 198 244 243 242 
242 243 242 233 233 233 233 232 233 234 233 231 220 152 237 236 235 235 237 236 
237 237 237 236 235 237 235 235 236 236 236 235 237 235 235 236 
236 235 233 214 111 41 52 64 91 138 163 211 224 219 231 232 
226 236 230 222 217 216 203 186 149 110 71 59 48 52 69 84 
186 240 241 240 241 241 243 241 242 242 242 241 241 242 242 242 
241 242 243 244 242 242 241 241 240 241 245 131 239 242 243 243 
243 242 243 234 234 234 232 234 234 234 233 233 230 163 235 236 237 236 235 236 
235 235 235 234 237 235 237 236 236 235 235 235 235 235 235 236 
238 236 236 237 220 74 45 47 48 48 49 67 72 66 88 76 
78 88 132 113 101 88 78 68 52 57 67 61 60 76 93 186 
244 241 240 241 241 243 242 240 241 241 241 241 241 240 243 242 
242 242 242 243 242 240 240 240 240 241 232 137 246 243 244 243 
242 245 245 233 233 233 234 234 235 233 234 234 232 184 207 236 235 237 237 236 
236 237 237 236 235 236 236 235 238 236 237 235 236 237 236 235 
237 236 234 235 238 211 130 77 64 60 50 48 56 77 97 64 
80 77 82 66 84 75 86 61 63 72 89 84 120 187 211 244 
242 241 241 242 242 241 241 240 241 242 241 242 241 242 241 241 
242 242 242 242 240 241 239 240 238 241 177 180 241 244 244 244 
243 243 244 233 233 234 234 232 234 233 233 234 233 218 149 236 233 235 236 237 
236 236 236 236 236 236 237 236 236 237 236 237 239 236 236 237 
238 235 235 235 238 240 243 214 162 98 78 70 83 60 74 85 
83 96 95 68 77 86 92 77 104 124 156 202 243 242 243 242 
242 241 240 240 240 242 242 241 241 242 241 241 243 242 242 241 
242 242 240 242 241 241 241 241 241 244 140 227 239 244 244 244 
244 243 245 233 234 234 234 234 234 235 235 234 233 233 160 221 235 236 237 236 
237 237 237 236 237 237 237 238 238 237 238 238 237 237 237 237 
237 238 238 238 238 241 241 241 244 230 170 118 127 130 90 78 
85 96 74 79 116 155 165 197 230 247 245 244 244 239 241 240 
240 241 241 240 241 241 241 242 242 241 242 242 241 241 242 242 
241 241 240 241 242 241 242 241 242 227 199 247 240 244 245 244 
245 245 245 235 234 234 233 234 234 235 235 235 234 233 206 184 232 235 235 235 
237 238 238 237 238 237 239 237 238 238 238 237 236 239 238 238 
238 239 239 237 238 237 238 239 240 243 239 237 221 213 214 199 
200 210 190 230 239 244 242 245 244 245 242 241 241 242 240 241 
239 241 241 241 240 241 242 241 241 241 241 242 242 241 241 241 
242 242 241 241 242 243 241 243 246 185 246 245 244 244 244 245 
245 246 245 235 235 235 235 235 235 235 233 234 234 232 232 173 225 230 235 236 
237 235 237 237 237 237 236 237 237 238 238 238 239 237 237 238 
239 238 237 240 238 239 239 240 240 240 241 241 242 243 242 243 
243 244 242 241 242 242 241 242 241 241 241 241 241 241 240 241 
241 240 241 241 242 240 242 242 241 241 240 241 240 242 242 241 
242 241 241 241 241 243 243 243 233 201 246 245 244 243 244 246 
246 246 246 234 234 234 235 234 234 234 236 235 236 234 234 200 211 227 233 235 
236 236 237 237 238 236 239 237 238 237 239 239 238 238 238 238 
240 238 238 240 239 240 240 240 240 240 240 240 240 241 241 241 
240 242 242 242 240 242 241 240 241 241 241 241 240 240 241 241 
241 241 241 241 242 241 241 240 242 241 240 242 242 241 241 242 
242 242 241 241 240 242 242 246 187 244 245 245 245 243 244 246 
247 246 246 235 233 234 236 234 234 234 236 235 233 234 234 234 177 228 230 234 
234 236 238 237 237 236 238 238 238 239 239 238 238 239 239 240 
240 239 240 241 239 240 240 240 240 240 240 241 240 240 241 242 
241 240 241 241 242 243 241 241 242 242 241 242 241 241 241 242 
242 242 241 241 241 241 241 241 241 241 242 243 241 241 241 242 
242 241 241 241 241 243 244 227 222 247 245 245 245 245 246 246 
247 246 246 235 236 236 235 236 235 234 236 234 235 236 235 237 208 185 224 234 
235 237 237 238 238 235 237 238 238 239 239 240 238 240 241 240 
240 239 239 241 241 240 239 239 240 241 241 240 241 239 240 241 
242 243 241 241 241 240 241 241 241 242 242 243 243 242 242 242 
243 241 242 242 241 241 241 242 242 241 242 241 241 243 242 242 
242 242 241 241 241 243 244 185 248 245 246 246 245 245 246 246 
245 246 247 234 234 236 236 235 236 237 236 234 234 235 236 235 236 174 208 228 
234 236 236 235 238 238 238 235 239 240 239 239 238 239 240 238 
240 239 240 240 240 240 239 241 241 241 240 241 242 241 241 241 
243 243 242 242 242 242 242 242 242 243 242 243 242 242 242 242 
242 241 242 242 242 242 242 241 241 241 240 241 242 242 242 243 
242 241 241 241 242 246 198 241 246 243 246 245 246 245 246 247 
246 246 247 234 236 235 235 235 235 233 235 235 234 235 235 235 237 226 173 221 
232 236 237 238 237 238 238 240 238 239 240 239 240 239 241 241 
239 241 240 240 241 241 241 240 241 240 242 241 241 241 241 242 
241 240 241 242 242 242 242 243 243 242 242 243 242 242 242 241 
242 242 242 243 241 243 241 241 242 242 242 242 242 241 242 241 
241 241 241 241 243 214 214 247 245 247 245 246 246 246 246 247 
247 247 246 236 235 234 235 235 235 235 236 236 235 234 235 234 236 239 185 180 
224 237 238 237 237 237 237 237 240 239 239 238 239 240 240 240 
241 241 241 241 241 240 240 240 241 241 240 241 241 241 242 241 
242 242 241 242 242 242 243 241 242 242 242 243 242 243 242 242 
242 242 241 241 241 241 241 241 241 242 242 241 241 242 242 241 
240 241 239 241 233 195 247 244 244 245 247 246 246 246 246 247 
247 246 246 237 237 237 236 236 236 236 235 235 236 236 235 237 236 236 234 156 
195 220 236 235 237 237 237 237 239 239 240 241 241 240 240 240 
240 241 240 239 241 241 241 240 241 238 241 242 242 242 241 241 
241 242 242 241 243 243 243 242 242 245 244 243 241 243 243 243 
242 242 243 242 242 242 242 241 242 242 242 242 242 242 243 242 
241 240 242 242 181 242 245 245 246 245 246 246 246 246 247 247 
248 247 247 234 236 238 237 236 236 235 236 235 236 235 235 237 236 237 237 230 
150 196 229 238 240 239 239 239 240 240 241 239 240 240 238 241 
240 240 241 241 241 240 241 240 241 240 241 241 239 242 241 241 
241 242 242 242 241 242 242 242 242 242 242 243 244 243 242 242 
243 241 243 242 243 242 242 242 241 242 241 242 243 243 243 242 
240 242 242 197 233 245 245 245 245 246 246 248 246 246 246 248 
246 247 249 234 236 236 237 237 237 237 236 236 236 236 237 237 238 238 238 239 
223 138 187 229 239 238 238 239 239 238 240 240 240 240 241 241 
242 241 241 242 241 241 241 240 242 242 241 240 243 241 243 243 
241 243 242 243 242 242 242 243 242 244 244 244 243 243 243 243 
244 243 244 243 242 244 243 242 244 243 242 242 242 243 243 242 
243 245 200 225 248 245 245 244 244 245 246 246 246 247 247 247 
247 246 247 235 236 237 236 237 236 238 238 239 238 238 237 236 237 237 236 236 
238 213 138 197 230 241 239 237 239 241 239 240 241 240 239 240 
240 241 242 242 242 241 242 241 241 242 242 243 241 241 242 242 
242 242 242 243 242 244 243 242 242 244 242 242 243 244 243 243 
244 244 244 243 243 242 243 242 242 241 243 242 242 243 243 244 
245 200 226 246 244 245 246 245 247 246 247 246 245 246 245 246 
247 247 248 234 236 237 238 237 237 238 237 236 237 237 238 238 237 237 238 236 
239 241 221 151 171 217 240 240 239 240 241 240 241 240 239 242 
241 241 241 241 242 242 241 242 241 243 242 242 240 241 243 242 
241 242 243 243 243 242 242 242 242 242 243 244 243 243 244 244 
243 244 244 245 242 244 242 243 243 244 241 242 242 243 246 245 
200 227 246 242 246 244 245 245 245 245 246 246 247 246 247 246 
247 247 247 235 238 237 237 237 237 236 239 240 239 238 238 238 237 238 237 238 
237 237 242 235 161 120 216 240 241 240 240 240 240 240 240 240 
242 241 241 242 241 242 242 242 241 241 240 242 241 241 242 243 
243 244 243 244 244 244 244 244 243 243 242 243 244 244 243 245 
244 244 244 244 246 245 243 242 243 240 241 241 243 245 242 176 
230 247 245 244 246 245 245 245 244 245 246 246 246 246 246 246 
246 247 246 236 236 237 236 235 236 236 236 238 238 239 238 239 239 238 238 240 
239 237 237 241 233 179 137 203 243 241 240 240 241 242 241 242 
241 242 242 241 242 242 241 241 238 241 239 238 241 242 242 243 
243 245 243 243 242 243 243 243 243 244 244 244 242 244 244 243 
244 244 243 243 243 245 243 243 241 243 242 241 245 237 164 223 
248 245 243 243 246 246 246 244 245 246 246 246 246 246 246 248 
248 247 247 239 236 238 237 236 236 237 237 239 239 239 238 239 238 237 239 239 
239 238 240 240 241 243 235 162 194 239 242 240 238 239 241 240 
240 241 241 242 243 241 240 240 240 241 240 240 241 242 243 243 
243 243 242 244 244 243 243 243 244 244 244 243 243 242 241 243 
242 243 242 244 243 243 244 243 243 242 243 245 222 181 233 247 
246 244 244 245 247 246 247 247 247 247 246 246 246 246 246 247 
247 247 247 237 237 238 238 238 237 237 238 239 239 237 238 239 240 238 240 240 
239 240 239 241 239 240 240 239 172 174 236 242 242 241 241 242 
242 241 242 242 241 242 242 242 241 242 241 240 242 245 245 244 
243 244 242 242 244 243 243 244 244 244 243 244 244 243 244 243 
243 242 242 244 244 242 243 243 242 245 247 208 199 242 248 245 
246 244 245 246 245 246 246 246 247 247 247 248 247 247 247 247 
248 248 247 238 236 237 238 237 239 237 238 240 239 239 237 240 240 239 241 240 
240 239 240 242 240 240 242 242 242 206 154 213 241 242 242 241 
241 242 241 243 241 242 242 242 243 242 242 243 243 243 242 243 
243 242 242 243 244 244 243 244 244 243 243 244 244 244 243 244 
243 243 244 242 243 242 244 244 245 230 190 221 243 245 246 245 
245 244 245 246 246 246 247 246 246 247 247 246 247 247 246 247 
246 246 247 238 238 237 239 238 238 239 236 238 240 239 239 241 242 240 240 239 
241 239 240 240 240 240 240 240 242 245 227 183 180 232 242 243 
243 243 242 242 242 242 241 241 242 243 242 243 242 243 244 243 
242 244 242 244 243 244 243 243 244 244 244 244 244 243 246 244 
243 244 243 243 244 245 244 241 200 195 241 247 246 245 246 246 
246 245 247 246 245 247 246 246 246 245 247 246 246 247 247 246 
247 247 245 236 237 239 237 239 239 239 238 239 240 240 240 239 240 241 241 241 
241 240 241 241 241 241 241 240 240 242 245 245 219 164 180 231 
244 244 245 243 243 241 243 243 243 243 243 244 243 244 244 243 
243 243 245 243 243 244 244 244 245 244 244 244 243 245 244 243 
243 244 243 243 245 242 210 194 231 246 245 246 247 247 247 247 
246 245 248 248 247 247 248 248 247 247 247 247 247 247 245 247 
247 247 248 237 238 237 239 238 239 239 239 238 240 240 241 241 240 239 240 241 
241 241 240 241 241 241 241 241 241 239 242 241 243 242 198 157 
187 239 244 243 243 243 243 244 242 243 243 243 243 244 243 243 
243 244 243 243 245 244 245 245 243 245 244 243 246 244 245 244 
245 246 247 247 217 182 217 246 247 244 244 245 246 246 247 246 
247 246 247 247 247 247 247 246 248 247 247 247 247 247 246 247 
248 247 246 237 238 239 238 240 240 240 238 240 240 239 239 239 241 242 242 241 
241 240 242 240 241 241 242 241 242 242 242 242 242 244 244 244 
209 176 194 229 243 244 244 246 245 245 245 245 245 244 244 245 
244 244 245 243 244 243 243 243 244 243 244 243 244 244 245 247 
248 231 204 200 222 249 246 245 246 245 246 246 247 247 247 247 
248 248 247 249 249 248 248 248 247 247 247 247 248 247 247 248 
248 248 247 240 239 240 238 239 240 240 240 240 240 240 242 241 241 242 242 242 
242 241 242 241 241 240 241 242 242 242 242 242 243 243 242 245 
245 244 235 197 182 201 235 245 247 247 247 245 245 245 245 244 
244 245 245 245 245 246 245 245 245 247 248 248 248 243 234 206 
196 204 242 246 250 247 246 247 246 246 246 247 249 248 249 249 
247 248 248 248 248 248 248 248 248 248 248 248 248 248 249 247 
248 247 247 239 238 238 239 239 240 240 240 239 241 241 241 239 241 242 241 243 
241 240 241 241 241 243 243 242 243 243 243 242 244 243 243 243 
243 246 246 245 243 226 204 197 191 205 223 241 245 242 242 243 
242 246 246 246 246 245 244 246 247 242 228 210 200 202 208 238 
250 249 248 247 248 246 246 247 247 246 247 247 248 249 248 249 
249 250 249 248 249 249 249 248 248 248 248 248 248 248 248 248 
248 248 248 239 239 240 239 239 240 239 241 241 241 241 240 242 240 241 242 242 
242 242 241 241 242 243 242 242 243 244 243 242 241 243 243 243 
243 244 242 243 246 245 246 246 239 221 209 196 187 189 189 189 
194 190 201 203 202 192 200 195 195 203 223 236 247 249 248 248 
246 247 245 246 245 247 247 247 248 247 248 248 247 249 249 249 
248 247 248 249 249 247 249 249 249 249 249 248 248 248 247 248 
248 247 248 240 239 239 241 239 240 240 241 241 241 240 241 242 242 242 242 242 
242 241 242 243 243 243 241 242 242 243 242 243 243 243 243 242 
243 243 243 243 244 244 245 244 246 247 246 247 247 245 243 240 
237 237 230 238 238 244 248 249 247 251 249 249 248 247 247 247 
246 246 246 247 248 248 247 248 249 248 250 249 248 248 249 249 
250 250 249 249 248 250 250 250 250 250 249 249 249 248 249 247 
246 248 248 239 238 239 239 240 239 240 241 241 241 242 240 242 242 241 243 242 
243 243 242 241 241 243 244 242 243 242 243 243 243 244 241 244 
243 244 244 244 242 243 242 245 244 244 244 244 245 246 247 247 
247 248 247 245 249 249 247 248 248 246 246 247 246 247 247 247 
248 248 248 248 248 248 246 248 248 249 249 250 248 248 249 248 
249 248 249 249 250 250 250 250 251 250 249 249 250 250 248 248 
248 248 248 240 239 239 238 240 239 240 240 241 240 241 241 241 241 241 241 241 
242 242 242 243 241 242 242 243 243 243 243 242 242 243 243 244 
243 243 244 244 244 244 244 243 243 244 244 244 244 244 245 246 
247 245 247 247 247 247 247 246 246 247 247 246 246 246 246 248 
247 248 248 248 248 249 248 249 249 250 249 249 249 249 250 250 
249 250 249 249 249 250 250 249 249 250 249 248 250 250 249 249 
249 248 247 239 240 239 240 239 241 240 241 242 241 241 242 242 243 243 242 242 
242 242 242 242 243 243 244 245 243 243 244 245 244 243 243 244 
245 244 245 244 244 244 244 244 244 245 245 244 245 244 245 246 
246 246 246 246 246 247 246 246 247 246 248 247 247 248 249 249 
247 248 248 248 248 249 249 249 249 249 249 249 250 250 249 250 
249 249 250 249 249 250 251 251 250 250 249 250 250 250 251 250 
248 248 248 239 241 240 240 240 241 241 241 242 242 241 240 243 241 242 242 242 
242 242 241 242 243 242 243 242 242 245 243 243 244 244 242 243 
245 245 244 244 245 244 245 245 245 244 245 246 246 245 243 246 
245 247 246 246 247 247 247 247 247 247 247 247 247 246 247 247 
249 250 249 249 249 249 249 250 249 249 250 249 249 249 250 250 
250 250 249 250 250 250 249 249 249 250 249 251 251 250 250 249 
250 249 248 239 239 241 240 241 242 240 241 241 242 243 242 242 243 243 243 243 
243 242 243 242 242 242 243 243 243 243 244 244 244 244 245 245 
244 244 244 245 246 245 244 244 245 244 245 244 245 246 246 245 
245 247 247 247 248 246 247 247 247 249 247 247 248 247 248 248 
249 249 249 248 250 249 249 250 250 250 250 250 249 249 250 250 
249 250 249 250 249 249 250 250 249 249 250 250 250 250 250 248 
248 248 250 239 240 239 240 241 241 241 241 241 240 242 242 242 242 243 243 243 
243 243 242 242 242 244 243 243 243 243 242 243 244 244 244 244 
244 245 244 244 244 246 244 244 245 246 246 246 245 247 246 247 
247 247 246 247 246 247 247 247 247 248 248 248 249 250 248 248 
247 249 248 247 249 248 250 250 249 250 250 250 251 249 250 249 
249 250 248 251 251 251 249 250 251 249 250 248 250 250 250 250 
249 250 250 